<?xml version="1.0" encoding="UTF-8" standalone="no"?><svg xmlns="http://www.w3.org/2000/svg" xmlns:xlink="http://www.w3.org/1999/xlink" contentStyleType="text/css" height="856px" preserveAspectRatio="none" style="width:550px;height:856px;background:#FFFFFF;" version="1.1" viewBox="0 0 550 856" width="550px" zoomAndPan="magnify"><defs/><g><path d="M253,10 L253,18.5664 L233,22.5664 L253,26.5664 L253,35.1328 A0,0 0 0 0 253,35.1328 L538,35.1328 A0,0 0 0 0 538,35.1328 L538,20 L528,10 L253,10 A0,0 0 0 0 253,10 " fill="#FEFFDD" style="stroke:#181818;stroke-width:0.5;"/><path d="M528,10 L528,20 L538,20 L528,10 " fill="#FEFFDD" style="stroke:#181818;stroke-width:0.5;"/><text fill="#000000" font-family="sans-serif" font-size="13" lengthAdjust="spacing" textLength="264" x="259" y="27.0669">constructor BrailleDrawer(BrailleGrid grid)</text><ellipse cx="223" cy="22.5664" fill="#222222" rx="10" ry="10" style="stroke:#222222;stroke-width:1.0;"/><rect fill="#F1F1F1" height="33.9688" rx="12.5" ry="12.5" style="stroke:#181818;stroke-width:0.5;" width="109" x="168.5" y="55.1328"/><text fill="#000000" font-family="sans-serif" font-size="12" lengthAdjust="spacing" textLength="89" x="178.5" y="76.2715">this.grid=grid;</text><ellipse cx="223" cy="119.1016" fill="none" rx="10" ry="10" style="stroke:#222222;stroke-width:1.5;"/><line style="stroke:#222222;stroke-width:2.5;" x1="216.8128" x2="229.1872" y1="112.9144" y2="125.2887"/><line style="stroke:#222222;stroke-width:2.5;" x1="229.1872" x2="216.8128" y1="112.9144" y2="125.2887"/><path d="M253,139.1016 L253,147.668 L233,151.668 L253,155.668 L253,164.2344 A0,0 0 0 0 253,164.2344 L433,164.2344 A0,0 0 0 0 433,164.2344 L433,149.1016 L423,139.1016 L253,139.1016 A0,0 0 0 0 253,139.1016 " fill="#FEFFDD" style="stroke:#181818;stroke-width:0.5;"/><path d="M423,139.1016 L423,149.1016 L433,149.1016 L423,139.1016 " fill="#FEFFDD" style="stroke:#181818;stroke-width:0.5;"/><text fill="#000000" font-family="sans-serif" font-size="13" lengthAdjust="spacing" textLength="159" x="259" y="156.1685">void drawU(UGraphic ug)</text><ellipse cx="223" cy="151.668" fill="#222222" rx="10" ry="10" style="stroke:#222222;stroke-width:1.0;"/><rect fill="#F1F1F1" height="33.9688" rx="12.5" ry="12.5" style="stroke:#181818;stroke-width:0.5;" width="424" x="11" y="184.2344"/><text fill="#000000" font-family="sans-serif" font-size="12" lengthAdjust="spacing" textLength="404" x="21" y="205.373">ug=ug.apply(HColorSet.instance().getColorOrWhite("#F0F0F0"));</text><rect fill="#F1F1F1" height="47.9375" rx="12.5" ry="12.5" style="stroke:#181818;stroke-width:0.5;" width="369" x="38.5" y="238.2031"/><text fill="#000000" font-family="sans-serif" font-size="12" lengthAdjust="spacing" textLength="279" x="48.5" y="259.3418">ug.apply(UTranslate.dx(x*step+spotSize+1))</text><text fill="#000000" font-family="sans-serif" font-size="12" lengthAdjust="spacing" textLength="349" x="48.5" y="273.3105">.draw(ULine.vline((grid.getMaxY()-grid.getMinY())*step));</text><rect fill="#F1F1F1" height="47.9375" rx="12.5" ry="12.5" style="stroke:#181818;stroke-width:0.5;" width="371" x="37.5" y="306.1406"/><text fill="#000000" font-family="sans-serif" font-size="12" lengthAdjust="spacing" textLength="279" x="47.5" y="327.2793">ug.apply(UTranslate.dy(y*step+spotSize+1))</text><text fill="#000000" font-family="sans-serif" font-size="12" lengthAdjust="spacing" textLength="351" x="47.5" y="341.248">.draw(ULine.hline((grid.getMaxX()-grid.getMinX())*step));</text><rect fill="#F1F1F1" height="33.9688" rx="12.5" ry="12.5" style="stroke:#181818;stroke-width:0.5;" width="368" x="39" y="374.0781"/><text fill="#000000" font-family="sans-serif" font-size="12" lengthAdjust="spacing" textLength="348" x="49" y="395.2168">ug=ug.apply(HColors.BLACK).apply(HColors.BLACK.bg());</text><rect fill="#F1F1F1" height="33.9688" rx="12.5" ry="12.5" style="stroke:#181818;stroke-width:0.5;" width="134" x="156" y="476.4492"/><text fill="#000000" font-family="sans-serif" font-size="12" lengthAdjust="spacing" textLength="114" x="166" y="497.5879">drawCircle(ug,x,y);</text><polygon fill="#F1F1F1" points="174,428.0469,272,428.0469,284,440.0469,272,452.0469,174,452.0469,162,440.0469,174,428.0469" style="stroke:#181818;stroke-width:0.5;"/><text fill="#000000" font-family="sans-serif" font-size="11" lengthAdjust="spacing" textLength="20" x="227" y="462.2573">yes</text><text fill="#000000" font-family="sans-serif" font-size="11" lengthAdjust="spacing" textLength="98" x="174" y="443.855">grid.getState(x,y)</text><polygon fill="#F1F1F1" points="223,530.418,235,542.418,223,554.418,211,542.418,223,530.418" style="stroke:#181818;stroke-width:0.5;"/><ellipse cx="223" cy="584.418" fill="none" rx="10" ry="10" style="stroke:#222222;stroke-width:1.5;"/><line style="stroke:#222222;stroke-width:2.5;" x1="216.8128" x2="229.1872" y1="578.2308" y2="590.6052"/><line style="stroke:#222222;stroke-width:2.5;" x1="229.1872" x2="216.8128" y1="578.2308" y2="590.6052"/><path d="M253,604.418 L253,612.9844 L233,616.9844 L253,620.9844 L253,629.5508 A0,0 0 0 0 253,629.5508 L520,629.5508 A0,0 0 0 0 520,629.5508 L520,614.418 L510,604.418 L253,604.418 A0,0 0 0 0 253,604.418 " fill="#FEFFDD" style="stroke:#181818;stroke-width:0.5;"/><path d="M510,604.418 L510,614.418 L520,614.418 L510,604.418 " fill="#FEFFDD" style="stroke:#181818;stroke-width:0.5;"/><text fill="#000000" font-family="sans-serif" font-size="13" lengthAdjust="spacing" textLength="246" x="259" y="621.4849">void drawCircle(UGraphic ug,int x,int y)</text><ellipse cx="223" cy="616.9844" fill="#222222" rx="10" ry="10" style="stroke:#222222;stroke-width:1.0;"/><rect fill="#F1F1F1" height="33.9688" rx="12.5" ry="12.5" style="stroke:#181818;stroke-width:0.5;" width="164" x="141" y="649.5508"/><text fill="#000000" font-family="sans-serif" font-size="12" lengthAdjust="spacing" textLength="144" x="151" y="670.6895">final double cx=x*step;</text><rect fill="#F1F1F1" height="33.9688" rx="12.5" ry="12.5" style="stroke:#181818;stroke-width:0.5;" width="164" x="141" y="703.5195"/><text fill="#000000" font-family="sans-serif" font-size="12" lengthAdjust="spacing" textLength="144" x="151" y="724.6582">final double cy=y*step;</text><rect fill="#F1F1F1" height="47.9375" rx="12.5" ry="12.5" style="stroke:#181818;stroke-width:0.5;" width="398" x="24" y="757.4883"/><text fill="#000000" font-family="sans-serif" font-size="12" lengthAdjust="spacing" textLength="378" x="34" y="778.627">ug.apply(new UTranslate(cx,cy)).draw(new UEllipse(spotSize,</text><text fill="#000000" font-family="sans-serif" font-size="12" lengthAdjust="spacing" textLength="66" x="34" y="792.5957">spotSize));</text><ellipse cx="223" cy="835.4258" fill="none" rx="10" ry="10" style="stroke:#222222;stroke-width:1.5;"/><line style="stroke:#222222;stroke-width:2.5;" x1="216.8128" x2="229.1872" y1="829.2386" y2="841.613"/><line style="stroke:#222222;stroke-width:2.5;" x1="229.1872" x2="216.8128" y1="829.2386" y2="841.613"/><line style="stroke:#181818;stroke-width:1.0;" x1="223" x2="223" y1="32.5664" y2="55.1328"/><polygon fill="#181818" points="219,45.1328,223,55.1328,227,45.1328,223,49.1328" style="stroke:#181818;stroke-width:1.0;"/><line style="stroke:#181818;stroke-width:1.0;" x1="223" x2="223" y1="89.1016" y2="109.1016"/><polygon fill="#181818" points="219,99.1016,223,109.1016,227,99.1016,223,103.1016" style="stroke:#181818;stroke-width:1.0;"/><line style="stroke:#181818;stroke-width:1.0;" x1="223" x2="223" y1="161.668" y2="184.2344"/><polygon fill="#181818" points="219,174.2344,223,184.2344,227,174.2344,223,178.2344" style="stroke:#181818;stroke-width:1.0;"/><line style="stroke:#181818;stroke-width:1.0;" x1="223" x2="223" y1="218.2031" y2="238.2031"/><polygon fill="#181818" points="219,228.2031,223,238.2031,227,228.2031,223,232.2031" style="stroke:#181818;stroke-width:1.0;"/><line style="stroke:#181818;stroke-width:1.0;" x1="223" x2="223" y1="286.1406" y2="306.1406"/><polygon fill="#181818" points="219,296.1406,223,306.1406,227,296.1406,223,300.1406" style="stroke:#181818;stroke-width:1.0;"/><line style="stroke:#181818;stroke-width:1.0;" x1="223" x2="223" y1="354.0781" y2="374.0781"/><polygon fill="#181818" points="219,364.0781,223,374.0781,227,364.0781,223,368.0781" style="stroke:#181818;stroke-width:1.0;"/><line style="stroke:#181818;stroke-width:1.0;" x1="223" x2="223" y1="452.0469" y2="476.4492"/><polygon fill="#181818" points="219,466.4492,223,476.4492,227,466.4492,223,470.4492" style="stroke:#181818;stroke-width:1.0;"/><line style="stroke:#181818;stroke-width:1.0;" x1="284" x2="300" y1="440.0469" y2="440.0469"/><polygon fill="#181818" points="296,483.4336,300,493.4336,304,483.4336,300,487.4336" style="stroke:#181818;stroke-width:1.0;"/><line style="stroke:#181818;stroke-width:1.0;" x1="300" x2="300" y1="440.0469" y2="542.418"/><line style="stroke:#181818;stroke-width:1.0;" x1="300" x2="235" y1="542.418" y2="542.418"/><polygon fill="#181818" points="245,538.418,235,542.418,245,546.418,241,542.418" style="stroke:#181818;stroke-width:1.0;"/><line style="stroke:#181818;stroke-width:1.0;" x1="223" x2="223" y1="510.418" y2="530.418"/><polygon fill="#181818" points="219,520.418,223,530.418,227,520.418,223,524.418" style="stroke:#181818;stroke-width:1.0;"/><line style="stroke:#181818;stroke-width:1.0;" x1="223" x2="223" y1="408.0469" y2="428.0469"/><polygon fill="#181818" points="219,418.0469,223,428.0469,227,418.0469,223,422.0469" style="stroke:#181818;stroke-width:1.0;"/><line style="stroke:#181818;stroke-width:1.0;" x1="223" x2="223" y1="554.418" y2="574.418"/><polygon fill="#181818" points="219,564.418,223,574.418,227,564.418,223,568.418" style="stroke:#181818;stroke-width:1.0;"/><line style="stroke:#181818;stroke-width:1.0;" x1="223" x2="223" y1="626.9844" y2="649.5508"/><polygon fill="#181818" points="219,639.5508,223,649.5508,227,639.5508,223,643.5508" style="stroke:#181818;stroke-width:1.0;"/><line style="stroke:#181818;stroke-width:1.0;" x1="223" x2="223" y1="683.5195" y2="703.5195"/><polygon fill="#181818" points="219,693.5195,223,703.5195,227,693.5195,223,697.5195" style="stroke:#181818;stroke-width:1.0;"/><line style="stroke:#181818;stroke-width:1.0;" x1="223" x2="223" y1="737.4883" y2="757.4883"/><polygon fill="#181818" points="219,747.4883,223,757.4883,227,747.4883,223,751.4883" style="stroke:#181818;stroke-width:1.0;"/><line style="stroke:#181818;stroke-width:1.0;" x1="223" x2="223" y1="805.4258" y2="825.4258"/><polygon fill="#181818" points="219,815.4258,223,825.4258,227,815.4258,223,819.4258" style="stroke:#181818;stroke-width:1.0;"/><!--MD5=[a65b026c74f9d8851d5cfc016681aace]
@startuml
!pragma layout smetana
start
note right
constructor BrailleDrawer(BrailleGrid grid)
end note
:this.grid=grid;;
end
start
note right
void drawU(UGraphic ug)
end note
:ug=ug.apply(HColorSet.instance().getColorOrWhite("#F0F0F0"));;
:ug.apply(UTranslate.dx(x*step+spotSize+1))
.draw(ULine.vline((grid.getMaxY()-grid.getMinY())*step));;
:ug.apply(UTranslate.dy(y*step+spotSize+1))
.draw(ULine.hline((grid.getMaxX()-grid.getMinX())*step));;
:ug=ug.apply(HColors.BLACK).apply(HColors.BLACK.bg());;
if (grid.getState(x,y)) then (yes) 
:drawCircle(ug,x,y);;
endif 
end
start
note right
void drawCircle(UGraphic ug,int x,int y)
end note
:final double cx=x*step;;
:final double cy=y*step;;
:ug.apply(new UTranslate(cx,cy)).draw(new UEllipse(spotSize,
spotSize));;
end
@enduml

PlantUML version 1.2022.7(Mon Aug 22 17:01:30 UTC 2022)
(GPL source distribution)
Java Runtime: OpenJDK Runtime Environment
JVM: OpenJDK 64-Bit Server VM
Default Encoding: UTF-8
Language: en
Country: null
--></g></svg>