<?xml version="1.0" encoding="UTF-8" standalone="no"?><svg xmlns="http://www.w3.org/2000/svg" xmlns:xlink="http://www.w3.org/1999/xlink" contentStyleType="text/css" height="3338px" preserveAspectRatio="none" style="width:1144px;height:3338px;background:#FFFFFF;" version="1.1" viewBox="0 0 1144 3338" width="1144px" zoomAndPan="magnify"><defs/><g><path d="M602,10 L602,18.5664 L582,22.5664 L602,26.5664 L602,35.1328 A0,0 0 0 0 602,35.1328 L817,35.1328 A0,0 0 0 0 817,35.1328 L817,20 L807,10 L602,10 A0,0 0 0 0 602,10 " fill="#FEFFDD" style="stroke:#181818;stroke-width:0.5;"/><path d="M807,10 L807,20 L817,20 L807,10 " fill="#FEFFDD" style="stroke:#181818;stroke-width:0.5;"/><text fill="#000000" font-family="sans-serif" font-size="13" lengthAdjust="spacing" textLength="194" x="608" y="27.0669">OpenIconretrieve(Stringname)</text><ellipse cx="572" cy="22.5664" fill="#222222" rx="10" ry="10" style="stroke:#222222;stroke-width:1.0;"/><rect fill="#F1F1F1" height="33.9688" rx="12.5" ry="12.5" style="stroke:#181818;stroke-width:0.5;" width="276" x="434" y="55.1328"/><text fill="#000000" font-family="sans-serif" font-size="12" lengthAdjust="spacing" textLength="256" x="444" y="76.2715">final InputStreamis=getResource(name);</text><rect fill="#F1F1F1" height="33.9688" rx="12.5" ry="12.5" style="stroke:#181818;stroke-width:0.5;" width="93" x="525.5" y="157.5039"/><text fill="#000000" font-family="sans-serif" font-size="12" lengthAdjust="spacing" textLength="73" x="535.5" y="178.6426">return null ;</text><ellipse cx="572" cy="230.9883" fill="none" rx="11" ry="11" style="stroke:#222222;stroke-width:1.0;"/><ellipse cx="572" cy="230.9883" fill="#222222" rx="6" ry="6" style="stroke:#111111;stroke-width:1.0;"/><polygon fill="#F1F1F1" points="546,109.1016,598,109.1016,610,121.1016,598,133.1016,546,133.1016,534,121.1016,546,109.1016" style="stroke:#181818;stroke-width:0.5;"/><text fill="#000000" font-family="sans-serif" font-size="11" lengthAdjust="spacing" textLength="20" x="576" y="143.312">yes</text><text fill="#000000" font-family="sans-serif" font-size="11" lengthAdjust="spacing" textLength="48" x="546" y="124.9097">is==null</text><polygon fill="#F1F1F1" points="531,283.9883,613,283.9883,625,295.9883,613,307.9883,531,307.9883,519,295.9883,531,283.9883" style="stroke:#181818;stroke-width:0.5;"/><text fill="#000000" font-family="sans-serif" font-size="11" lengthAdjust="spacing" textLength="82" x="531" y="299.7964">try/catch block</text><rect fill="#F1F1F1" height="33.9688" rx="12.5" ry="12.5" style="stroke:#181818;stroke-width:0.5;" width="214" x="368" y="343.5977"/><text fill="#000000" font-family="sans-serif" font-size="12" lengthAdjust="spacing" textLength="194" x="378" y="364.7363">return new OpenIcon(is,name);</text><ellipse cx="475" cy="408.5664" fill="none" rx="11" ry="11" style="stroke:#222222;stroke-width:1.0;"/><ellipse cx="475" cy="408.5664" fill="#222222" rx="6" ry="6" style="stroke:#111111;stroke-width:1.0;"/><rect fill="#F1F1F1" height="33.9688" rx="12.5" ry="12.5" style="stroke:#181818;stroke-width:0.5;" width="118" x="602" y="343.5977"/><text fill="#000000" font-family="sans-serif" font-size="12" lengthAdjust="spacing" textLength="98" x="612" y="364.7363">Logme.error(e);</text><rect fill="#F1F1F1" height="33.9688" rx="12.5" ry="12.5" style="stroke:#181818;stroke-width:0.5;" width="93" x="614.5" y="397.5664"/><text fill="#000000" font-family="sans-serif" font-size="12" lengthAdjust="spacing" textLength="73" x="624.5" y="418.7051">return null ;</text><ellipse cx="661" cy="462.5352" fill="none" rx="11" ry="11" style="stroke:#222222;stroke-width:1.0;"/><ellipse cx="661" cy="462.5352" fill="#222222" rx="6" ry="6" style="stroke:#111111;stroke-width:1.0;"/><ellipse cx="572" cy="493.5352" fill="none" rx="10" ry="10" style="stroke:#222222;stroke-width:1.5;"/><line style="stroke:#222222;stroke-width:2.5;" x1="565.8128" x2="578.1872" y1="487.348" y2="499.7223"/><line style="stroke:#222222;stroke-width:2.5;" x1="578.1872" x2="565.8128" y1="487.348" y2="499.7223"/><path d="M602,513.5352 L602,522.1016 L582,526.1016 L602,530.1016 L602,538.668 A0,0 0 0 0 602,538.668 L845,538.668 A0,0 0 0 0 845,538.668 L845,523.5352 L835,513.5352 L602,513.5352 A0,0 0 0 0 602,513.5352 " fill="#FEFFDD" style="stroke:#181818;stroke-width:0.5;"/><path d="M835,513.5352 L835,523.5352 L845,523.5352 L835,513.5352 " fill="#FEFFDD" style="stroke:#181818;stroke-width:0.5;"/><text fill="#000000" font-family="sans-serif" font-size="13" lengthAdjust="spacing" textLength="222" x="608" y="530.6021">constructor OpenIcon(Stringname)</text><ellipse cx="572" cy="526.1016" fill="#222222" rx="10" ry="10" style="stroke:#222222;stroke-width:1.0;"/><rect fill="#F1F1F1" height="33.9688" rx="12.5" ry="12.5" style="stroke:#181818;stroke-width:0.5;" width="221" x="461.5" y="558.668"/><text fill="#000000" font-family="sans-serif" font-size="12" lengthAdjust="spacing" textLength="201" x="471.5" y="579.8066">this(getResource(name),name);</text><ellipse cx="572" cy="622.6367" fill="none" rx="10" ry="10" style="stroke:#222222;stroke-width:1.5;"/><line style="stroke:#222222;stroke-width:2.5;" x1="565.8128" x2="578.1872" y1="616.4495" y2="628.8239"/><line style="stroke:#222222;stroke-width:2.5;" x1="578.1872" x2="565.8128" y1="616.4495" y2="628.8239"/><path d="M602,642.6367 L602,651.2031 L582,655.2031 L602,659.2031 L602,667.7695 A0,0 0 0 0 602,667.7695 L868,667.7695 A0,0 0 0 0 868,667.7695 L868,652.6367 L858,642.6367 L602,642.6367 A0,0 0 0 0 602,642.6367 " fill="#FEFFDD" style="stroke:#181818;stroke-width:0.5;"/><path d="M858,642.6367 L858,652.6367 L868,652.6367 L858,642.6367 " fill="#FEFFDD" style="stroke:#181818;stroke-width:0.5;"/><text fill="#000000" font-family="sans-serif" font-size="13" lengthAdjust="spacing" textLength="245" x="608" y="659.7036">InputStreamgetResource(Stringname)</text><ellipse cx="572" cy="655.2031" fill="#222222" rx="10" ry="10" style="stroke:#222222;stroke-width:1.0;"/><rect fill="#F1F1F1" height="47.9375" rx="12.5" ry="12.5" style="stroke:#181818;stroke-width:0.5;" width="368" x="388" y="687.7695"/><text fill="#000000" font-family="sans-serif" font-size="12" lengthAdjust="spacing" textLength="348" x="398" y="708.9082">return DummyIcon.class .getResourceAsStream(name+</text><text fill="#000000" font-family="sans-serif" font-size="12" lengthAdjust="spacing" textLength="44" x="398" y="722.877">".svg");</text><ellipse cx="572" cy="766.707" fill="none" rx="11" ry="11" style="stroke:#222222;stroke-width:1.0;"/><ellipse cx="572" cy="766.707" fill="#222222" rx="6" ry="6" style="stroke:#111111;stroke-width:1.0;"/><ellipse cx="572" cy="797.707" fill="none" rx="10" ry="10" style="stroke:#222222;stroke-width:1.5;"/><line style="stroke:#222222;stroke-width:2.5;" x1="565.8128" x2="578.1872" y1="791.5198" y2="803.8942"/><line style="stroke:#222222;stroke-width:2.5;" x1="578.1872" x2="565.8128" y1="791.5198" y2="803.8942"/><path d="M602,817.707 L602,826.2734 L582,830.2734 L602,834.2734 L602,842.8398 A0,0 0 0 0 602,842.8398 L913,842.8398 A0,0 0 0 0 913,842.8398 L913,827.707 L903,817.707 L602,817.707 A0,0 0 0 0 602,817.707 " fill="#FEFFDD" style="stroke:#181818;stroke-width:0.5;"/><path d="M903,817.707 L903,827.707 L913,827.707 L903,817.707 " fill="#FEFFDD" style="stroke:#181818;stroke-width:0.5;"/><text fill="#000000" font-family="sans-serif" font-size="13" lengthAdjust="spacing" textLength="290" x="608" y="834.7739">constructor OpenIcon(InputStreamis,Stringid)</text><ellipse cx="572" cy="830.2734" fill="#222222" rx="10" ry="10" style="stroke:#222222;stroke-width:1.0;"/><rect fill="#F1F1F1" height="33.9688" rx="12.5" ry="12.5" style="stroke:#181818;stroke-width:0.5;" width="83" x="530.5" y="862.8398"/><text fill="#000000" font-family="sans-serif" font-size="12" lengthAdjust="spacing" textLength="63" x="540.5" y="883.9785">this.id=id;</text><polygon fill="#F1F1F1" points="531,916.8086,613,916.8086,625,928.8086,613,940.8086,531,940.8086,519,928.8086,531,916.8086" style="stroke:#181818;stroke-width:0.5;"/><text fill="#000000" font-family="sans-serif" font-size="11" lengthAdjust="spacing" textLength="82" x="531" y="932.6167">try/catch block</text><rect fill="#F1F1F1" height="33.9688" rx="12.5" ry="12.5" style="stroke:#181818;stroke-width:0.5;" width="104" x="520" y="973.6133"/><text fill="#000000" font-family="sans-serif" font-size="12" lengthAdjust="spacing" textLength="84" x="530" y="994.752">Strings=null ;</text><rect fill="#F1F1F1" height="33.9688" rx="12.5" ry="12.5" style="stroke:#181818;stroke-width:0.5;" width="121" x="511.5" y="1071.582"/><text fill="#000000" font-family="sans-serif" font-size="12" lengthAdjust="spacing" textLength="101" x="521.5" y="1092.7207">rawData.add(s);</text><rect fill="#F1F1F1" height="33.9688" rx="12.5" ry="12.5" style="stroke:#181818;stroke-width:0.5;" width="172" x="486" y="1173.9531"/><text fill="#000000" font-family="sans-serif" font-size="12" lengthAdjust="spacing" textLength="152" x="496" y="1195.0918">final intx1=s.indexOf('"');</text><rect fill="#F1F1F1" height="33.9688" rx="12.5" ry="12.5" style="stroke:#181818;stroke-width:0.5;" width="208" x="468" y="1242.9219"/><text fill="#000000" font-family="sans-serif" font-size="12" lengthAdjust="spacing" textLength="188" x="478" y="1264.0605">final intx2=s.indexOf('"',x1+1);</text><rect fill="#F1F1F1" height="33.9688" rx="12.5" ry="12.5" style="stroke:#181818;stroke-width:0.5;" width="304" x="420" y="1296.8906"/><text fill="#000000" font-family="sans-serif" font-size="12" lengthAdjust="spacing" textLength="284" x="430" y="1318.0293">svgPath=new SvgPath(s.substring(x1+1,x2));</text><polygon fill="#F1F1F1" points="516.5,1125.5508,627.5,1125.5508,639.5,1137.5508,627.5,1149.5508,516.5,1149.5508,504.5,1137.5508,516.5,1125.5508" style="stroke:#181818;stroke-width:0.5;"/><text fill="#000000" font-family="sans-serif" font-size="11" lengthAdjust="spacing" textLength="20" x="576" y="1159.7612">yes</text><text fill="#000000" font-family="sans-serif" font-size="11" lengthAdjust="spacing" textLength="111" x="516.5" y="1141.3589">s.contains("&lt;path")</text><polygon fill="#F1F1F1" points="572,1350.8594,584,1362.8594,572,1374.8594,560,1362.8594,572,1350.8594" style="stroke:#181818;stroke-width:0.5;"/><polygon fill="#F1F1F1" points="505.5,1027.582,638.5,1027.582,650.5,1039.582,638.5,1051.582,505.5,1051.582,493.5,1039.582,505.5,1027.582" style="stroke:#181818;stroke-width:0.5;"/><text fill="#000000" font-family="sans-serif" font-size="11" lengthAdjust="spacing" textLength="129" x="505.5" y="1043.3901">(s=br.readLine())!=null</text><polygon fill="#F1F1F1" points="572,1416.8594,572,1416.8594,584,1428.8594,572,1440.8594,572,1440.8594,560,1428.8594,572,1416.8594" style="stroke:#181818;stroke-width:0.5;"/><rect fill="#F1F1F1" height="33.9688" rx="12.5" ry="12.5" style="stroke:#181818;stroke-width:0.5;" width="233" x="455.5" y="1509.2617"/><text fill="#000000" font-family="sans-serif" font-size="12" lengthAdjust="spacing" textLength="213" x="465.5" y="1530.4004">throw new IllegalStateException();</text><ellipse cx="572" cy="1582.7461" fill="none" rx="11" ry="11" style="stroke:#222222;stroke-width:1.0;"/><ellipse cx="572" cy="1582.7461" fill="#222222" rx="6" ry="6" style="stroke:#111111;stroke-width:1.0;"/><polygon fill="#F1F1F1" points="462,1460.8594,682,1460.8594,694,1472.8594,682,1484.8594,462,1484.8594,450,1472.8594,462,1460.8594" style="stroke:#181818;stroke-width:0.5;"/><text fill="#000000" font-family="sans-serif" font-size="11" lengthAdjust="spacing" textLength="20" x="576" y="1495.0698">yes</text><text fill="#000000" font-family="sans-serif" font-size="11" lengthAdjust="spacing" textLength="220" x="462" y="1476.6675">rawData.size()!=3&amp;&amp;rawData.size()!=4</text><ellipse cx="572" cy="1645.7461" fill="none" rx="10" ry="10" style="stroke:#222222;stroke-width:1.5;"/><line style="stroke:#222222;stroke-width:2.5;" x1="565.8128" x2="578.1872" y1="1639.5589" y2="1651.9333"/><line style="stroke:#222222;stroke-width:2.5;" x1="578.1872" x2="565.8128" y1="1639.5589" y2="1651.9333"/><path d="M602,1665.7461 L602,1674.3125 L582,1678.3125 L602,1682.3125 L602,1690.8789 A0,0 0 0 0 602,1690.8789 L784,1690.8789 A0,0 0 0 0 784,1690.8789 L784,1675.7461 L774,1665.7461 L602,1665.7461 A0,0 0 0 0 602,1665.7461 " fill="#FEFFDD" style="stroke:#181818;stroke-width:0.5;"/><path d="M774,1665.7461 L774,1675.7461 L784,1675.7461 L774,1665.7461 " fill="#FEFFDD" style="stroke:#181818;stroke-width:0.5;"/><text fill="#000000" font-family="sans-serif" font-size="13" lengthAdjust="spacing" textLength="161" x="608" y="1682.813">void saveCopy(SFilefnew)</text><ellipse cx="572" cy="1678.3125" fill="#222222" rx="10" ry="10" style="stroke:#222222;stroke-width:1.0;"/><polygon fill="#F1F1F1" points="531,1710.8789,613,1710.8789,625,1722.8789,613,1734.8789,531,1734.8789,519,1722.8789,531,1710.8789" style="stroke:#181818;stroke-width:0.5;"/><text fill="#000000" font-family="sans-serif" font-size="11" lengthAdjust="spacing" textLength="82" x="531" y="1726.687">try/catch block</text><rect fill="#F1F1F1" height="33.9688" rx="12.5" ry="12.5" style="stroke:#181818;stroke-width:0.5;" width="190" x="477" y="1767.6836"/><text fill="#000000" font-family="sans-serif" font-size="12" lengthAdjust="spacing" textLength="170" x="487" y="1788.8223">pw.println(rawData.get(0));</text><rect fill="#F1F1F1" height="33.9688" rx="12.5" ry="12.5" style="stroke:#181818;stroke-width:0.5;" width="194" x="475" y="1821.6523"/><text fill="#000000" font-family="sans-serif" font-size="12" lengthAdjust="spacing" textLength="174" x="485" y="1842.791">pw.println(svgPath.toSvg());</text><rect fill="#F1F1F1" height="33.9688" rx="12.5" ry="12.5" style="stroke:#181818;stroke-width:0.5;" width="283" x="430.5" y="1875.6211"/><text fill="#000000" font-family="sans-serif" font-size="12" lengthAdjust="spacing" textLength="263" x="440.5" y="1896.7598">pw.println(rawData.get(rawData.size()-1));</text><polygon fill="#F1F1F1" points="572,1929.5898,572,1929.5898,584,1941.5898,572,1953.5898,572,1953.5898,560,1941.5898,572,1929.5898" style="stroke:#181818;stroke-width:0.5;"/><ellipse cx="572" cy="1983.5898" fill="none" rx="10" ry="10" style="stroke:#222222;stroke-width:1.5;"/><line style="stroke:#222222;stroke-width:2.5;" x1="565.8128" x2="578.1872" y1="1977.4027" y2="1989.777"/><line style="stroke:#222222;stroke-width:2.5;" x1="578.1872" x2="565.8128" y1="1977.4027" y2="1989.777"/><path d="M602,2003.5898 L602,2012.1563 L582,2016.1563 L602,2020.1563 L602,2028.7227 A0,0 0 0 0 602,2028.7227 L896,2028.7227 A0,0 0 0 0 896,2028.7227 L896,2013.5898 L886,2003.5898 L602,2003.5898 A0,0 0 0 0 602,2003.5898 " fill="#FEFFDD" style="stroke:#181818;stroke-width:0.5;"/><path d="M886,2003.5898 L886,2013.5898 L896,2013.5898 L886,2003.5898 " fill="#FEFFDD" style="stroke:#181818;stroke-width:0.5;"/><text fill="#000000" font-family="sans-serif" font-size="13" lengthAdjust="spacing" textLength="273" x="608" y="2020.6567">XDimension2DgetDimension(doublefactor)</text><ellipse cx="572" cy="2016.1563" fill="#222222" rx="10" ry="10" style="stroke:#222222;stroke-width:1.0;"/><rect fill="#F1F1F1" height="47.9375" rx="12.5" ry="12.5" style="stroke:#181818;stroke-width:0.5;" width="304" x="420" y="2048.7227"/><text fill="#000000" font-family="sans-serif" font-size="12" lengthAdjust="spacing" textLength="284" x="430" y="2069.8613">final Stringwidth=getNumber(rawData.get(0),</text><text fill="#000000" font-family="sans-serif" font-size="12" lengthAdjust="spacing" textLength="52" x="430" y="2083.8301">"width");</text><rect fill="#F1F1F1" height="47.9375" rx="12.5" ry="12.5" style="stroke:#181818;stroke-width:0.5;" width="311" x="416.5" y="2116.6602"/><text fill="#000000" font-family="sans-serif" font-size="12" lengthAdjust="spacing" textLength="291" x="426.5" y="2137.7988">final Stringheight=getNumber(rawData.get(0),</text><text fill="#000000" font-family="sans-serif" font-size="12" lengthAdjust="spacing" textLength="59" x="426.5" y="2151.7676">"height");</text><rect fill="#F1F1F1" height="47.9375" rx="12.5" ry="12.5" style="stroke:#181818;stroke-width:0.5;" width="377" x="383.5" y="2184.5977"/><text fill="#000000" font-family="sans-serif" font-size="12" lengthAdjust="spacing" textLength="357" x="393.5" y="2205.7363">return new XDimension2D(Integer.parseInt(width)*factor,</text><text fill="#000000" font-family="sans-serif" font-size="12" lengthAdjust="spacing" textLength="203" x="393.5" y="2219.7051">Integer.parseInt(height)*factor);</text><ellipse cx="572" cy="2263.5352" fill="none" rx="11" ry="11" style="stroke:#222222;stroke-width:1.0;"/><ellipse cx="572" cy="2263.5352" fill="#222222" rx="6" ry="6" style="stroke:#111111;stroke-width:1.0;"/><ellipse cx="572" cy="2294.5352" fill="none" rx="10" ry="10" style="stroke:#222222;stroke-width:1.5;"/><line style="stroke:#222222;stroke-width:2.5;" x1="565.8128" x2="578.1872" y1="2288.348" y2="2300.7223"/><line style="stroke:#222222;stroke-width:2.5;" x1="578.1872" x2="565.8128" y1="2288.348" y2="2300.7223"/><path d="M602,2314.5352 L602,2323.1016 L582,2327.1016 L602,2331.1016 L602,2339.668 A0,0 0 0 0 602,2339.668 L852,2339.668 A0,0 0 0 0 852,2339.668 L852,2324.5352 L842,2314.5352 L602,2314.5352 A0,0 0 0 0 602,2314.5352 " fill="#FEFFDD" style="stroke:#181818;stroke-width:0.5;"/><path d="M842,2314.5352 L842,2324.5352 L852,2324.5352 L842,2314.5352 " fill="#FEFFDD" style="stroke:#181818;stroke-width:0.5;"/><text fill="#000000" font-family="sans-serif" font-size="13" lengthAdjust="spacing" textLength="229" x="608" y="2331.6021">StringgetNumber(Strings,Stringarg)</text><ellipse cx="572" cy="2327.1016" fill="#222222" rx="10" ry="10" style="stroke:#222222;stroke-width:1.0;"/><rect fill="#F1F1F1" height="33.9688" rx="12.5" ry="12.5" style="stroke:#181818;stroke-width:0.5;" width="152" x="496" y="2359.668"/><text fill="#000000" font-family="sans-serif" font-size="12" lengthAdjust="spacing" textLength="132" x="506" y="2380.8066">intx1=s.indexOf(arg);</text><rect fill="#F1F1F1" height="33.9688" rx="12.5" ry="12.5" style="stroke:#181818;stroke-width:0.5;" width="260" x="442" y="2462.0391"/><text fill="#000000" font-family="sans-serif" font-size="12" lengthAdjust="spacing" textLength="240" x="452" y="2483.1777">throw new IllegalArgumentException();</text><ellipse cx="572" cy="2535.5234" fill="none" rx="11" ry="11" style="stroke:#222222;stroke-width:1.0;"/><ellipse cx="572" cy="2535.5234" fill="#222222" rx="6" ry="6" style="stroke:#111111;stroke-width:1.0;"/><polygon fill="#F1F1F1" points="551,2413.6367,593,2413.6367,605,2425.6367,593,2437.6367,551,2437.6367,539,2425.6367,551,2413.6367" style="stroke:#181818;stroke-width:0.5;"/><text fill="#000000" font-family="sans-serif" font-size="11" lengthAdjust="spacing" textLength="20" x="576" y="2447.8472">yes</text><text fill="#000000" font-family="sans-serif" font-size="11" lengthAdjust="spacing" textLength="42" x="551" y="2429.4448">x1==-1</text><rect fill="#F1F1F1" height="33.9688" rx="12.5" ry="12.5" style="stroke:#181818;stroke-width:0.5;" width="152" x="496" y="2588.5234"/><text fill="#000000" font-family="sans-serif" font-size="12" lengthAdjust="spacing" textLength="132" x="506" y="2609.6621">x1=s.indexOf("\"",x1);</text><rect fill="#F1F1F1" height="33.9688" rx="12.5" ry="12.5" style="stroke:#181818;stroke-width:0.5;" width="260" x="442" y="2690.8945"/><text fill="#000000" font-family="sans-serif" font-size="12" lengthAdjust="spacing" textLength="240" x="452" y="2712.0332">throw new IllegalArgumentException();</text><ellipse cx="572" cy="2764.3789" fill="none" rx="11" ry="11" style="stroke:#222222;stroke-width:1.0;"/><ellipse cx="572" cy="2764.3789" fill="#222222" rx="6" ry="6" style="stroke:#111111;stroke-width:1.0;"/><polygon fill="#F1F1F1" points="551,2642.4922,593,2642.4922,605,2654.4922,593,2666.4922,551,2666.4922,539,2654.4922,551,2642.4922" style="stroke:#181818;stroke-width:0.5;"/><text fill="#000000" font-family="sans-serif" font-size="11" lengthAdjust="spacing" textLength="20" x="576" y="2676.7026">yes</text><text fill="#000000" font-family="sans-serif" font-size="11" lengthAdjust="spacing" textLength="42" x="551" y="2658.3003">x1==-1</text><rect fill="#F1F1F1" height="33.9688" rx="12.5" ry="12.5" style="stroke:#181818;stroke-width:0.5;" width="216" x="464" y="2817.3789"/><text fill="#000000" font-family="sans-serif" font-size="12" lengthAdjust="spacing" textLength="196" x="474" y="2838.5176">final intx2=s.indexOf("\"",x1+1);</text><rect fill="#F1F1F1" height="33.9688" rx="12.5" ry="12.5" style="stroke:#181818;stroke-width:0.5;" width="260" x="442" y="2919.75"/><text fill="#000000" font-family="sans-serif" font-size="12" lengthAdjust="spacing" textLength="240" x="452" y="2940.8887">throw new IllegalArgumentException();</text><ellipse cx="572" cy="2993.2344" fill="none" rx="11" ry="11" style="stroke:#222222;stroke-width:1.0;"/><ellipse cx="572" cy="2993.2344" fill="#222222" rx="6" ry="6" style="stroke:#111111;stroke-width:1.0;"/><polygon fill="#F1F1F1" points="551,2871.3477,593,2871.3477,605,2883.3477,593,2895.3477,551,2895.3477,539,2883.3477,551,2871.3477" style="stroke:#181818;stroke-width:0.5;"/><text fill="#000000" font-family="sans-serif" font-size="11" lengthAdjust="spacing" textLength="20" x="576" y="2905.5581">yes</text><text fill="#000000" font-family="sans-serif" font-size="11" lengthAdjust="spacing" textLength="42" x="551" y="2887.1558">x2==-1</text><rect fill="#F1F1F1" height="33.9688" rx="12.5" ry="12.5" style="stroke:#181818;stroke-width:0.5;" width="197" x="473.5" y="3046.2344"/><text fill="#000000" font-family="sans-serif" font-size="12" lengthAdjust="spacing" textLength="177" x="483.5" y="3067.373">return s.substring(x1+1,x2);</text><ellipse cx="572" cy="3111.2031" fill="none" rx="11" ry="11" style="stroke:#222222;stroke-width:1.0;"/><ellipse cx="572" cy="3111.2031" fill="#222222" rx="6" ry="6" style="stroke:#111111;stroke-width:1.0;"/><ellipse cx="572" cy="3142.2031" fill="none" rx="10" ry="10" style="stroke:#222222;stroke-width:1.5;"/><line style="stroke:#222222;stroke-width:2.5;" x1="565.8128" x2="578.1872" y1="3136.0159" y2="3148.3903"/><line style="stroke:#222222;stroke-width:2.5;" x1="578.1872" x2="565.8128" y1="3136.0159" y2="3148.3903"/><path d="M602,3162.2031 L602,3170.7695 L582,3174.7695 L602,3178.7695 L602,3187.3359 A0,0 0 0 0 602,3187.3359 L988,3187.3359 A0,0 0 0 0 988,3187.3359 L988,3172.2031 L978,3162.2031 L602,3162.2031 A0,0 0 0 0 602,3162.2031 " fill="#FEFFDD" style="stroke:#181818;stroke-width:0.5;"/><path d="M978,3162.2031 L978,3172.2031 L988,3172.2031 L978,3162.2031 " fill="#FEFFDD" style="stroke:#181818;stroke-width:0.5;"/><text fill="#000000" font-family="sans-serif" font-size="13" lengthAdjust="spacing" textLength="365" x="608" y="3179.27">TextBlockasTextBlock(final HColorcolor,final doublefactor)</text><ellipse cx="572" cy="3174.7695" fill="#222222" rx="10" ry="10" style="stroke:#222222;stroke-width:1.0;"/><rect fill="#F1F1F1" height="47.9375" rx="12.5" ry="12.5" style="stroke:#181818;stroke-width:0.5;" width="1122" x="11" y="3207.3359"/><text fill="#000000" font-family="sans-serif" font-size="12" lengthAdjust="spacing" textLength="1102" x="21" y="3228.4746">return new AbstractTextBlock(){public void drawU(UGraphicug){HColortextColor=color.getAppropriateColor(ug.getParam().getBackcolor());svgPath.drawMe(ug.apply(textColor),</text><text fill="#000000" font-family="sans-serif" font-size="12" lengthAdjust="spacing" textLength="703" x="21" y="3242.4434">factor);}public XDimension2DcalculateDimension(StringBounderstringBounder){return getDimension(factor);}};</text><ellipse cx="572" cy="3286.2734" fill="none" rx="11" ry="11" style="stroke:#222222;stroke-width:1.0;"/><ellipse cx="572" cy="3286.2734" fill="#222222" rx="6" ry="6" style="stroke:#111111;stroke-width:1.0;"/><ellipse cx="572" cy="3317.2734" fill="none" rx="10" ry="10" style="stroke:#222222;stroke-width:1.5;"/><line style="stroke:#222222;stroke-width:2.5;" x1="565.8128" x2="578.1872" y1="3311.0863" y2="3323.4606"/><line style="stroke:#222222;stroke-width:2.5;" x1="578.1872" x2="565.8128" y1="3311.0863" y2="3323.4606"/><line style="stroke:#181818;stroke-width:1.0;" x1="572" x2="572" y1="32.5664" y2="55.1328"/><polygon fill="#181818" points="568,45.1328,572,55.1328,576,45.1328,572,49.1328" style="stroke:#181818;stroke-width:1.0;"/><line style="stroke:#181818;stroke-width:1.0;" x1="572" x2="572" y1="191.4727" y2="219.9883"/><polygon fill="#181818" points="568,209.9883,572,219.9883,576,209.9883,572,213.9883" style="stroke:#181818;stroke-width:1.0;"/><line style="stroke:#181818;stroke-width:1.0;" x1="572" x2="572" y1="133.1016" y2="157.5039"/><polygon fill="#181818" points="568,147.5039,572,157.5039,576,147.5039,572,151.5039" style="stroke:#181818;stroke-width:1.0;"/><line style="stroke:#181818;stroke-width:1.0;" x1="610" x2="628.5" y1="121.1016" y2="121.1016"/><polygon fill="#181818" points="624.5,189.9883,628.5,199.9883,632.5,189.9883,628.5,193.9883" style="stroke:#181818;stroke-width:1.0;"/><line style="stroke:#181818;stroke-width:1.0;" x1="628.5" x2="628.5" y1="121.1016" y2="263.9883"/><line style="stroke:#181818;stroke-width:1.0;" x1="628.5" x2="572" y1="263.9883" y2="263.9883"/><line style="stroke:#181818;stroke-width:1.0;" x1="572" x2="572" y1="263.9883" y2="283.9883"/><polygon fill="#181818" points="568,273.9883,572,283.9883,576,273.9883,572,277.9883" style="stroke:#181818;stroke-width:1.0;"/><line style="stroke:#181818;stroke-width:1.0;" x1="572" x2="572" y1="89.1016" y2="109.1016"/><polygon fill="#181818" points="568,99.1016,572,109.1016,576,99.1016,572,103.1016" style="stroke:#181818;stroke-width:1.0;"/><line style="stroke:#181818;stroke-width:1.0;" x1="475" x2="475" y1="377.5664" y2="397.5664"/><polygon fill="#181818" points="471,387.5664,475,397.5664,479,387.5664,475,391.5664" style="stroke:#181818;stroke-width:1.0;"/><line style="stroke:#181818;stroke-width:1.0;" x1="661" x2="661" y1="377.5664" y2="397.5664"/><polygon fill="#181818" points="657,387.5664,661,397.5664,665,387.5664,661,391.5664" style="stroke:#181818;stroke-width:1.0;"/><line style="stroke:#181818;stroke-width:1.0;" x1="661" x2="661" y1="431.5352" y2="451.5352"/><polygon fill="#181818" points="657,441.5352,661,451.5352,665,441.5352,661,445.5352" style="stroke:#181818;stroke-width:1.0;"/><line style="stroke:#181818;stroke-width:1.0;" x1="519" x2="475" y1="295.9883" y2="295.9883"/><line style="stroke:#181818;stroke-width:1.0;" x1="475" x2="475" y1="295.9883" y2="343.5977"/><polygon fill="#181818" points="471,333.5977,475,343.5977,479,333.5977,475,337.5977" style="stroke:#181818;stroke-width:1.0;"/><text fill="#000000" font-family="sans-serif" font-size="11" lengthAdjust="spacing" textLength="15" x="475" y="323.6011">try</text><line style="stroke:#181818;stroke-width:1.0;" x1="625" x2="661" y1="295.9883" y2="295.9883"/><line style="stroke:#181818;stroke-width:1.0;" x1="661" x2="661" y1="295.9883" y2="343.5977"/><polygon fill="#181818" points="657,333.5977,661,343.5977,665,333.5977,661,337.5977" style="stroke:#181818;stroke-width:1.0;"/><text fill="#000000" font-family="sans-serif" font-size="11" lengthAdjust="spacing" textLength="115" x="661" y="323.6011">catch (IOExceptione)</text><line style="stroke:#181818;stroke-width:1.0;" x1="572" x2="572" y1="536.1016" y2="558.668"/><polygon fill="#181818" points="568,548.668,572,558.668,576,548.668,572,552.668" style="stroke:#181818;stroke-width:1.0;"/><line style="stroke:#181818;stroke-width:1.0;" x1="572" x2="572" y1="592.6367" y2="612.6367"/><polygon fill="#181818" points="568,602.6367,572,612.6367,576,602.6367,572,606.6367" style="stroke:#181818;stroke-width:1.0;"/><line style="stroke:#181818;stroke-width:1.0;" x1="572" x2="572" y1="665.2031" y2="687.7695"/><polygon fill="#181818" points="568,677.7695,572,687.7695,576,677.7695,572,681.7695" style="stroke:#181818;stroke-width:1.0;"/><line style="stroke:#181818;stroke-width:1.0;" x1="572" x2="572" y1="735.707" y2="755.707"/><polygon fill="#181818" points="568,745.707,572,755.707,576,745.707,572,749.707" style="stroke:#181818;stroke-width:1.0;"/><line style="stroke:#181818;stroke-width:1.0;" x1="572" x2="572" y1="840.2734" y2="862.8398"/><polygon fill="#181818" points="568,852.8398,572,862.8398,576,852.8398,572,856.8398" style="stroke:#181818;stroke-width:1.0;"/><line style="stroke:#181818;stroke-width:1.0;" x1="572" x2="572" y1="1207.9219" y2="1242.9219"/><polygon fill="#181818" points="568,1232.9219,572,1242.9219,576,1232.9219,572,1236.9219" style="stroke:#181818;stroke-width:1.0;"/><line style="stroke:#181818;stroke-width:1.0;" x1="572" x2="572" y1="1276.8906" y2="1296.8906"/><polygon fill="#181818" points="568,1286.8906,572,1296.8906,576,1286.8906,572,1290.8906" style="stroke:#181818;stroke-width:1.0;"/><line style="stroke:#181818;stroke-width:1.0;" x1="572" x2="572" y1="1149.5508" y2="1173.9531"/><polygon fill="#181818" points="568,1163.9531,572,1173.9531,576,1163.9531,572,1167.9531" style="stroke:#181818;stroke-width:1.0;"/><line style="stroke:#181818;stroke-width:1.0;" x1="639.5" x2="734" y1="1137.5508" y2="1137.5508"/><polygon fill="#181818" points="730,1249.9063,734,1259.9063,738,1249.9063,734,1253.9063" style="stroke:#181818;stroke-width:1.0;"/><line style="stroke:#181818;stroke-width:1.0;" x1="734" x2="734" y1="1137.5508" y2="1362.8594"/><line style="stroke:#181818;stroke-width:1.0;" x1="734" x2="584" y1="1362.8594" y2="1362.8594"/><polygon fill="#181818" points="594,1358.8594,584,1362.8594,594,1366.8594,590,1362.8594" style="stroke:#181818;stroke-width:1.0;"/><line style="stroke:#181818;stroke-width:1.0;" x1="572" x2="572" y1="1330.8594" y2="1350.8594"/><polygon fill="#181818" points="568,1340.8594,572,1350.8594,576,1340.8594,572,1344.8594" style="stroke:#181818;stroke-width:1.0;"/><line style="stroke:#181818;stroke-width:1.0;" x1="572" x2="572" y1="1105.5508" y2="1125.5508"/><polygon fill="#181818" points="568,1115.5508,572,1125.5508,576,1115.5508,572,1119.5508" style="stroke:#181818;stroke-width:1.0;"/><line style="stroke:#181818;stroke-width:1.0;" x1="572" x2="572" y1="1051.582" y2="1071.582"/><polygon fill="#181818" points="568,1061.582,572,1071.582,576,1061.582,572,1065.582" style="stroke:#181818;stroke-width:1.0;"/><line style="stroke:#181818;stroke-width:1.0;" x1="572" x2="572" y1="1374.8594" y2="1384.8594"/><line style="stroke:#181818;stroke-width:1.0;" x1="572" x2="758" y1="1384.8594" y2="1384.8594"/><polygon fill="#181818" points="754,1223.4219,758,1213.4219,762,1223.4219,758,1219.4219" style="stroke:#181818;stroke-width:1.0;"/><line style="stroke:#181818;stroke-width:1.0;" x1="758" x2="758" y1="1039.582" y2="1384.8594"/><line style="stroke:#181818;stroke-width:1.0;" x1="758" x2="650.5" y1="1039.582" y2="1039.582"/><polygon fill="#181818" points="660.5,1035.582,650.5,1039.582,660.5,1043.582,656.5,1039.582" style="stroke:#181818;stroke-width:1.0;"/><line style="stroke:#181818;stroke-width:1.0;" x1="493.5" x2="398" y1="1039.582" y2="1039.582"/><polygon fill="#181818" points="394,1209.4219,398,1219.4219,402,1209.4219,398,1213.4219" style="stroke:#181818;stroke-width:1.0;"/><line style="stroke:#181818;stroke-width:1.0;" x1="398" x2="398" y1="1039.582" y2="1396.8594"/><line style="stroke:#181818;stroke-width:1.0;" x1="398" x2="572" y1="1396.8594" y2="1396.8594"/><line style="stroke:#181818;stroke-width:1.0;" x1="572" x2="572" y1="1396.8594" y2="1416.8594"/><polygon fill="#181818" points="568,1406.8594,572,1416.8594,576,1406.8594,572,1410.8594" style="stroke:#181818;stroke-width:1.0;"/><line style="stroke:#181818;stroke-width:1.0;" x1="572" x2="572" y1="1007.582" y2="1027.582"/><polygon fill="#181818" points="568,1017.582,572,1027.582,576,1017.582,572,1021.582" style="stroke:#181818;stroke-width:1.0;"/><line style="stroke:#181818;stroke-width:1.0;" x1="572" x2="572" y1="940.8086" y2="973.6133"/><polygon fill="#181818" points="568,963.6133,572,973.6133,576,963.6133,572,967.6133" style="stroke:#181818;stroke-width:1.0;"/><text fill="#000000" font-family="sans-serif" font-size="11" lengthAdjust="spacing" textLength="15" x="576" y="961.019">try</text><line style="stroke:#181818;stroke-width:1.0;" x1="572" x2="572" y1="896.8086" y2="916.8086"/><polygon fill="#181818" points="568,906.8086,572,916.8086,576,906.8086,572,910.8086" style="stroke:#181818;stroke-width:1.0;"/><line style="stroke:#181818;stroke-width:1.0;" x1="572" x2="572" y1="1543.2305" y2="1571.7461"/><polygon fill="#181818" points="568,1561.7461,572,1571.7461,576,1561.7461,572,1565.7461" style="stroke:#181818;stroke-width:1.0;"/><line style="stroke:#181818;stroke-width:1.0;" x1="572" x2="572" y1="1484.8594" y2="1509.2617"/><polygon fill="#181818" points="568,1499.2617,572,1509.2617,576,1499.2617,572,1503.2617" style="stroke:#181818;stroke-width:1.0;"/><line style="stroke:#181818;stroke-width:1.0;" x1="694" x2="706" y1="1472.8594" y2="1472.8594"/><polygon fill="#181818" points="702,1541.7461,706,1551.7461,710,1541.7461,706,1545.7461" style="stroke:#181818;stroke-width:1.0;"/><line style="stroke:#181818;stroke-width:1.0;" x1="706" x2="706" y1="1472.8594" y2="1615.7461"/><line style="stroke:#181818;stroke-width:1.0;" x1="706" x2="572" y1="1615.7461" y2="1615.7461"/><line style="stroke:#181818;stroke-width:1.0;" x1="572" x2="572" y1="1615.7461" y2="1635.7461"/><polygon fill="#181818" points="568,1625.7461,572,1635.7461,576,1625.7461,572,1629.7461" style="stroke:#181818;stroke-width:1.0;"/><line style="stroke:#181818;stroke-width:1.0;" x1="572" x2="572" y1="1440.8594" y2="1460.8594"/><polygon fill="#181818" points="568,1450.8594,572,1460.8594,576,1450.8594,572,1454.8594" style="stroke:#181818;stroke-width:1.0;"/><line style="stroke:#181818;stroke-width:1.0;" x1="572" x2="572" y1="1801.6523" y2="1821.6523"/><polygon fill="#181818" points="568,1811.6523,572,1821.6523,576,1811.6523,572,1815.6523" style="stroke:#181818;stroke-width:1.0;"/><line style="stroke:#181818;stroke-width:1.0;" x1="572" x2="572" y1="1855.6211" y2="1875.6211"/><polygon fill="#181818" points="568,1865.6211,572,1875.6211,576,1865.6211,572,1869.6211" style="stroke:#181818;stroke-width:1.0;"/><line style="stroke:#181818;stroke-width:1.0;" x1="572" x2="572" y1="1734.8789" y2="1767.6836"/><polygon fill="#181818" points="568,1757.6836,572,1767.6836,576,1757.6836,572,1761.6836" style="stroke:#181818;stroke-width:1.0;"/><text fill="#000000" font-family="sans-serif" font-size="11" lengthAdjust="spacing" textLength="15" x="576" y="1755.0894">try</text><line style="stroke:#181818;stroke-width:1.0;" x1="572" x2="572" y1="1909.5898" y2="1929.5898"/><polygon fill="#181818" points="568,1919.5898,572,1929.5898,576,1919.5898,572,1923.5898" style="stroke:#181818;stroke-width:1.0;"/><line style="stroke:#181818;stroke-width:1.0;" x1="572" x2="572" y1="1688.3125" y2="1710.8789"/><polygon fill="#181818" points="568,1700.8789,572,1710.8789,576,1700.8789,572,1704.8789" style="stroke:#181818;stroke-width:1.0;"/><line style="stroke:#181818;stroke-width:1.0;" x1="572" x2="572" y1="1953.5898" y2="1973.5898"/><polygon fill="#181818" points="568,1963.5898,572,1973.5898,576,1963.5898,572,1967.5898" style="stroke:#181818;stroke-width:1.0;"/><line style="stroke:#181818;stroke-width:1.0;" x1="572" x2="572" y1="2026.1563" y2="2048.7227"/><polygon fill="#181818" points="568,2038.7227,572,2048.7227,576,2038.7227,572,2042.7227" style="stroke:#181818;stroke-width:1.0;"/><line style="stroke:#181818;stroke-width:1.0;" x1="572" x2="572" y1="2096.6602" y2="2116.6602"/><polygon fill="#181818" points="568,2106.6602,572,2116.6602,576,2106.6602,572,2110.6602" style="stroke:#181818;stroke-width:1.0;"/><line style="stroke:#181818;stroke-width:1.0;" x1="572" x2="572" y1="2164.5977" y2="2184.5977"/><polygon fill="#181818" points="568,2174.5977,572,2184.5977,576,2174.5977,572,2178.5977" style="stroke:#181818;stroke-width:1.0;"/><line style="stroke:#181818;stroke-width:1.0;" x1="572" x2="572" y1="2232.5352" y2="2252.5352"/><polygon fill="#181818" points="568,2242.5352,572,2252.5352,576,2242.5352,572,2246.5352" style="stroke:#181818;stroke-width:1.0;"/><line style="stroke:#181818;stroke-width:1.0;" x1="572" x2="572" y1="2337.1016" y2="2359.668"/><polygon fill="#181818" points="568,2349.668,572,2359.668,576,2349.668,572,2353.668" style="stroke:#181818;stroke-width:1.0;"/><line style="stroke:#181818;stroke-width:1.0;" x1="572" x2="572" y1="2496.0078" y2="2524.5234"/><polygon fill="#181818" points="568,2514.5234,572,2524.5234,576,2514.5234,572,2518.5234" style="stroke:#181818;stroke-width:1.0;"/><line style="stroke:#181818;stroke-width:1.0;" x1="572" x2="572" y1="2437.6367" y2="2462.0391"/><polygon fill="#181818" points="568,2452.0391,572,2462.0391,576,2452.0391,572,2456.0391" style="stroke:#181818;stroke-width:1.0;"/><line style="stroke:#181818;stroke-width:1.0;" x1="605" x2="712" y1="2425.6367" y2="2425.6367"/><polygon fill="#181818" points="708,2494.5234,712,2504.5234,716,2494.5234,712,2498.5234" style="stroke:#181818;stroke-width:1.0;"/><line style="stroke:#181818;stroke-width:1.0;" x1="712" x2="712" y1="2425.6367" y2="2568.5234"/><line style="stroke:#181818;stroke-width:1.0;" x1="712" x2="572" y1="2568.5234" y2="2568.5234"/><line style="stroke:#181818;stroke-width:1.0;" x1="572" x2="572" y1="2568.5234" y2="2588.5234"/><polygon fill="#181818" points="568,2578.5234,572,2588.5234,576,2578.5234,572,2582.5234" style="stroke:#181818;stroke-width:1.0;"/><line style="stroke:#181818;stroke-width:1.0;" x1="572" x2="572" y1="2393.6367" y2="2413.6367"/><polygon fill="#181818" points="568,2403.6367,572,2413.6367,576,2403.6367,572,2407.6367" style="stroke:#181818;stroke-width:1.0;"/><line style="stroke:#181818;stroke-width:1.0;" x1="572" x2="572" y1="2724.8633" y2="2753.3789"/><polygon fill="#181818" points="568,2743.3789,572,2753.3789,576,2743.3789,572,2747.3789" style="stroke:#181818;stroke-width:1.0;"/><line style="stroke:#181818;stroke-width:1.0;" x1="572" x2="572" y1="2666.4922" y2="2690.8945"/><polygon fill="#181818" points="568,2680.8945,572,2690.8945,576,2680.8945,572,2684.8945" style="stroke:#181818;stroke-width:1.0;"/><line style="stroke:#181818;stroke-width:1.0;" x1="605" x2="712" y1="2654.4922" y2="2654.4922"/><polygon fill="#181818" points="708,2723.3789,712,2733.3789,716,2723.3789,712,2727.3789" style="stroke:#181818;stroke-width:1.0;"/><line style="stroke:#181818;stroke-width:1.0;" x1="712" x2="712" y1="2654.4922" y2="2797.3789"/><line style="stroke:#181818;stroke-width:1.0;" x1="712" x2="572" y1="2797.3789" y2="2797.3789"/><line style="stroke:#181818;stroke-width:1.0;" x1="572" x2="572" y1="2797.3789" y2="2817.3789"/><polygon fill="#181818" points="568,2807.3789,572,2817.3789,576,2807.3789,572,2811.3789" style="stroke:#181818;stroke-width:1.0;"/><line style="stroke:#181818;stroke-width:1.0;" x1="572" x2="572" y1="2622.4922" y2="2642.4922"/><polygon fill="#181818" points="568,2632.4922,572,2642.4922,576,2632.4922,572,2636.4922" style="stroke:#181818;stroke-width:1.0;"/><line style="stroke:#181818;stroke-width:1.0;" x1="572" x2="572" y1="2953.7188" y2="2982.2344"/><polygon fill="#181818" points="568,2972.2344,572,2982.2344,576,2972.2344,572,2976.2344" style="stroke:#181818;stroke-width:1.0;"/><line style="stroke:#181818;stroke-width:1.0;" x1="572" x2="572" y1="2895.3477" y2="2919.75"/><polygon fill="#181818" points="568,2909.75,572,2919.75,576,2909.75,572,2913.75" style="stroke:#181818;stroke-width:1.0;"/><line style="stroke:#181818;stroke-width:1.0;" x1="605" x2="712" y1="2883.3477" y2="2883.3477"/><polygon fill="#181818" points="708,2952.2344,712,2962.2344,716,2952.2344,712,2956.2344" style="stroke:#181818;stroke-width:1.0;"/><line style="stroke:#181818;stroke-width:1.0;" x1="712" x2="712" y1="2883.3477" y2="3026.2344"/><line style="stroke:#181818;stroke-width:1.0;" x1="712" x2="572" y1="3026.2344" y2="3026.2344"/><line style="stroke:#181818;stroke-width:1.0;" x1="572" x2="572" y1="3026.2344" y2="3046.2344"/><polygon fill="#181818" points="568,3036.2344,572,3046.2344,576,3036.2344,572,3040.2344" style="stroke:#181818;stroke-width:1.0;"/><line style="stroke:#181818;stroke-width:1.0;" x1="572" x2="572" y1="2851.3477" y2="2871.3477"/><polygon fill="#181818" points="568,2861.3477,572,2871.3477,576,2861.3477,572,2865.3477" style="stroke:#181818;stroke-width:1.0;"/><line style="stroke:#181818;stroke-width:1.0;" x1="572" x2="572" y1="3080.2031" y2="3100.2031"/><polygon fill="#181818" points="568,3090.2031,572,3100.2031,576,3090.2031,572,3094.2031" style="stroke:#181818;stroke-width:1.0;"/><line style="stroke:#181818;stroke-width:1.0;" x1="572" x2="572" y1="3184.7695" y2="3207.3359"/><polygon fill="#181818" points="568,3197.3359,572,3207.3359,576,3197.3359,572,3201.3359" style="stroke:#181818;stroke-width:1.0;"/><line style="stroke:#181818;stroke-width:1.0;" x1="572" x2="572" y1="3255.2734" y2="3275.2734"/><polygon fill="#181818" points="568,3265.2734,572,3275.2734,576,3265.2734,572,3269.2734" style="stroke:#181818;stroke-width:1.0;"/><!--MD5=[f72163219aac00012abdd892c9cdcb61]
@startuml
!pragma layout smetana
start
note right
OpenIconretrieve(Stringname)
end note
:final InputStreamis=getResource(name);;
if (is==null ) then (yes) 
:return null ;;
stop
endif 
switch (try/catch block)
case (try)
:return new OpenIcon(is,name);;
stop
case (catch (IOExceptione))
:Logme.error(e);;
:return null ;;
stop
endswitch
end
start
note right
constructor OpenIcon(Stringname)
end note
:this(getResource(name),name);;
end
start
note right
InputStreamgetResource(Stringname)
end note
:return DummyIcon.class .getResourceAsStream(name+
".svg");;
stop
end
start
note right
constructor OpenIcon(InputStreamis,Stringid)
end note
:this.id=id;;
switch (try/catch block)
case (try)
:Strings=null ;;
while ((s=br.readLine())!=null )
:rawData.add(s);;
if (s.contains("<path")) then (yes) 
:final intx1=s.indexOf('"');;
:final intx2=s.indexOf('"',x1+1);;
:svgPath=new SvgPath(s.substring(x1+1,x2));;
endif 
endwhile
endswitch
if (rawData.size()!=3&&rawData.size()!=4) then (yes) 
:throw new IllegalStateException();;
stop
endif 
end
start
note right
void saveCopy(SFilefnew)
end note
switch (try/catch block)
case (try)
:pw.println(rawData.get(0));;
:pw.println(svgPath.toSvg());;
:pw.println(rawData.get(rawData.size()-1));;
endswitch
end
start
note right
XDimension2DgetDimension(doublefactor)
end note
:final Stringwidth=getNumber(rawData.get(0),
"width");;
:final Stringheight=getNumber(rawData.get(0),
"height");;
:return new XDimension2D(Integer.parseInt(width)*factor,
Integer.parseInt(height)*factor);;
stop
end
start
note right
StringgetNumber(Strings,Stringarg)
end note
:intx1=s.indexOf(arg);;
if (x1==-1) then (yes) 
:throw new IllegalArgumentException();;
stop
endif 
:x1=s.indexOf("\"",x1);;
if (x1==-1) then (yes) 
:throw new IllegalArgumentException();;
stop
endif 
:final intx2=s.indexOf("\"",x1+1);;
if (x2==-1) then (yes) 
:throw new IllegalArgumentException();;
stop
endif 
:return s.substring(x1+1,x2);;
stop
end
start
note right
TextBlockasTextBlock(final HColorcolor,final doublefactor)
end note
:return new AbstractTextBlock(){public void drawU(UGraphicug){HColortextColor=color.getAppropriateColor(ug.getParam().getBackcolor());svgPath.drawMe(ug.apply(textColor),
factor);}public XDimension2DcalculateDimension(StringBounderstringBounder){return getDimension(factor);}};;
stop
end
@enduml

PlantUML version 1.2022.7(Mon Aug 22 17:01:30 UTC 2022)
(GPL source distribution)
Java Runtime: OpenJDK Runtime Environment
JVM: OpenJDK 64-Bit Server VM
Default Encoding: UTF-8
Language: en
Country: null
--></g></svg>