<?xml version="1.0" encoding="UTF-8" standalone="no"?><svg xmlns="http://www.w3.org/2000/svg" xmlns:xlink="http://www.w3.org/1999/xlink" contentStyleType="text/css" height="2634px" preserveAspectRatio="none" style="width:597px;height:2634px;background:#FFFFFF;" version="1.1" viewBox="0 0 597 2634" width="597px" zoomAndPan="magnify"><defs/><g><path d="M328.5,10 L328.5,18.5664 L308.5,22.5664 L328.5,26.5664 L328.5,35.1328 A0,0 0 0 0 328.5,35.1328 L545.5,35.1328 A0,0 0 0 0 545.5,35.1328 L545.5,20 L535.5,10 L328.5,10 A0,0 0 0 0 328.5,10 " fill="#FEFFDD" style="stroke:#181818;stroke-width:0.5;"/><path d="M535.5,10 L535.5,20 L545.5,20 L535.5,10 " fill="#FEFFDD" style="stroke:#181818;stroke-width:0.5;"/><text fill="#000000" font-family="sans-serif" font-size="13" lengthAdjust="spacing" textLength="196" x="334.5" y="27.0669">String getStringFor(Color dest)</text><ellipse cx="298.5" cy="22.5664" fill="#222222" rx="10" ry="10" style="stroke:#222222;stroke-width:1.0;"/><rect fill="#F1F1F1" height="33.9688" rx="12.5" ry="12.5" style="stroke:#181818;stroke-width:0.5;" width="285" x="156" y="55.1328"/><text fill="#000000" font-family="sans-serif" font-size="12" lengthAdjust="spacing" textLength="265" x="166" y="76.2715">return getStringFor(HColors.simple(dest));</text><ellipse cx="298.5" cy="120.1016" fill="none" rx="11" ry="11" style="stroke:#222222;stroke-width:1.0;"/><ellipse cx="298.5" cy="120.1016" fill="#222222" rx="6" ry="6" style="stroke:#111111;stroke-width:1.0;"/><ellipse cx="298.5" cy="151.1016" fill="none" rx="10" ry="10" style="stroke:#222222;stroke-width:1.5;"/><line style="stroke:#222222;stroke-width:2.5;" x1="292.3128" x2="304.6872" y1="144.9144" y2="157.2887"/><line style="stroke:#222222;stroke-width:2.5;" x1="304.6872" x2="292.3128" y1="144.9144" y2="157.2887"/><path d="M328.5,171.1016 L328.5,179.668 L308.5,183.668 L328.5,187.668 L328.5,196.2344 A0,0 0 0 0 328.5,196.2344 L555.5,196.2344 A0,0 0 0 0 555.5,196.2344 L555.5,181.1016 L545.5,171.1016 L328.5,171.1016 A0,0 0 0 0 328.5,171.1016 " fill="#FEFFDD" style="stroke:#181818;stroke-width:0.5;"/><path d="M545.5,171.1016 L545.5,181.1016 L555.5,181.1016 L545.5,171.1016 " fill="#FEFFDD" style="stroke:#181818;stroke-width:0.5;"/><text fill="#000000" font-family="sans-serif" font-size="13" lengthAdjust="spacing" textLength="206" x="334.5" y="188.1685">String getStringFor(HColor dest)</text><ellipse cx="298.5" cy="183.668" fill="#222222" rx="10" ry="10" style="stroke:#222222;stroke-width:1.0;"/><rect fill="#F1F1F1" height="33.9688" rx="12.5" ry="12.5" style="stroke:#181818;stroke-width:0.5;" width="98" x="249.5" y="216.2344"/><text fill="#000000" font-family="sans-serif" font-size="12" lengthAdjust="spacing" textLength="78" x="259.5" y="237.373">int result=0;</text><rect fill="#F1F1F1" height="33.9688" rx="12.5" ry="12.5" style="stroke:#181818;stroke-width:0.5;" width="233" x="182" y="270.2031"/><text fill="#000000" font-family="sans-serif" font-size="12" lengthAdjust="spacing" textLength="213" x="192" y="291.3418">int resultDist=Integer.MAX_VALUE;</text><rect fill="#F1F1F1" height="33.9688" rx="12.5" ry="12.5" style="stroke:#181818;stroke-width:0.5;" width="575" x="11" y="324.1719"/><text fill="#000000" font-family="sans-serif" font-size="12" lengthAdjust="spacing" textLength="555" x="21" y="345.3105">final int dist=((HColorSimple )dest).distanceTo((HColorSimple )getHtmlColorSimpleFor(i));</text><rect fill="#F1F1F1" height="33.9688" rx="12.5" ry="12.5" style="stroke:#181818;stroke-width:0.5;" width="73" x="262" y="426.543"/><text fill="#000000" font-family="sans-serif" font-size="12" lengthAdjust="spacing" textLength="53" x="272" y="447.6816">result=i;</text><rect fill="#F1F1F1" height="33.9688" rx="12.5" ry="12.5" style="stroke:#181818;stroke-width:0.5;" width="117" x="240" y="495.5117"/><text fill="#000000" font-family="sans-serif" font-size="12" lengthAdjust="spacing" textLength="97" x="250" y="516.6504">resultDist=dist;</text><polygon fill="#F1F1F1" points="256,378.1406,341,378.1406,353,390.1406,341,402.1406,256,402.1406,244,390.1406,256,378.1406" style="stroke:#181818;stroke-width:0.5;"/><text fill="#000000" font-family="sans-serif" font-size="11" lengthAdjust="spacing" textLength="20" x="302.5" y="412.3511">yes</text><text fill="#000000" font-family="sans-serif" font-size="11" lengthAdjust="spacing" textLength="85" x="256" y="393.9487">dist&lt;resultDist</text><polygon fill="#F1F1F1" points="298.5,549.4805,310.5,561.4805,298.5,573.4805,286.5,561.4805,298.5,549.4805" style="stroke:#181818;stroke-width:0.5;"/><rect fill="#F1F1F1" height="33.9688" rx="12.5" ry="12.5" style="stroke:#181818;stroke-width:0.5;" width="176" x="210.5" y="593.4805"/><text fill="#000000" font-family="sans-serif" font-size="12" lengthAdjust="spacing" textLength="156" x="220.5" y="614.6191">return encodeInt(result);</text><ellipse cx="298.5" cy="658.4492" fill="none" rx="11" ry="11" style="stroke:#222222;stroke-width:1.0;"/><ellipse cx="298.5" cy="658.4492" fill="#222222" rx="6" ry="6" style="stroke:#111111;stroke-width:1.0;"/><ellipse cx="298.5" cy="689.4492" fill="none" rx="10" ry="10" style="stroke:#222222;stroke-width:1.5;"/><line style="stroke:#222222;stroke-width:2.5;" x1="292.3128" x2="304.6872" y1="683.262" y2="695.6364"/><line style="stroke:#222222;stroke-width:2.5;" x1="304.6872" x2="292.3128" y1="683.262" y2="695.6364"/><path d="M328.5,709.4492 L328.5,718.0156 L308.5,722.0156 L328.5,726.0156 L328.5,734.582 A0,0 0 0 0 328.5,734.582 L520.5,734.582 A0,0 0 0 0 520.5,734.582 L520.5,719.4492 L510.5,709.4492 L328.5,709.4492 A0,0 0 0 0 328.5,709.4492 " fill="#FEFFDD" style="stroke:#181818;stroke-width:0.5;"/><path d="M510.5,709.4492 L510.5,719.4492 L520.5,719.4492 L510.5,709.4492 " fill="#FEFFDD" style="stroke:#181818;stroke-width:0.5;"/><text fill="#000000" font-family="sans-serif" font-size="13" lengthAdjust="spacing" textLength="171" x="334.5" y="726.5161">String encodeInt(int result)</text><ellipse cx="298.5" cy="722.0156" fill="#222222" rx="10" ry="10" style="stroke:#222222;stroke-width:1.0;"/><rect fill="#F1F1F1" height="33.9688" rx="12.5" ry="12.5" style="stroke:#181818;stroke-width:0.5;" width="161" x="218" y="754.582"/><text fill="#000000" font-family="sans-serif" font-size="12" lengthAdjust="spacing" textLength="141" x="228" y="775.7207">final int v2=result%64;</text><rect fill="#F1F1F1" height="33.9688" rx="12.5" ry="12.5" style="stroke:#181818;stroke-width:0.5;" width="154" x="221.5" y="808.5508"/><text fill="#000000" font-family="sans-serif" font-size="12" lengthAdjust="spacing" textLength="134" x="231.5" y="829.6895">final int v1=result/64;</text><rect fill="#F1F1F1" height="33.9688" rx="12.5" ry="12.5" style="stroke:#181818;stroke-width:0.5;" width="312" x="142.5" y="862.5195"/><text fill="#000000" font-family="sans-serif" font-size="12" lengthAdjust="spacing" textLength="292" x="152.5" y="883.6582">assert v1&gt;=0&amp;&amp;v1&lt;=63&amp;&amp;v2&gt;=0&amp;&amp;v2&lt;=63;</text><rect fill="#F1F1F1" height="33.9688" rx="12.5" ry="12.5" style="stroke:#181818;stroke-width:0.5;" width="367" x="115" y="916.4883"/><text fill="#000000" font-family="sans-serif" font-size="12" lengthAdjust="spacing" textLength="347" x="125" y="937.627">return ""+colorValue.charAt(v1)+colorValue.charAt(v2);</text><ellipse cx="298.5" cy="981.457" fill="none" rx="11" ry="11" style="stroke:#222222;stroke-width:1.0;"/><ellipse cx="298.5" cy="981.457" fill="#222222" rx="6" ry="6" style="stroke:#111111;stroke-width:1.0;"/><ellipse cx="298.5" cy="1012.457" fill="none" rx="10" ry="10" style="stroke:#222222;stroke-width:1.5;"/><line style="stroke:#222222;stroke-width:2.5;" x1="292.3128" x2="304.6872" y1="1006.2698" y2="1018.6442"/><line style="stroke:#222222;stroke-width:2.5;" x1="304.6872" x2="292.3128" y1="1006.2698" y2="1018.6442"/><path d="M328.5,1032.457 L328.5,1041.0234 L308.5,1045.0234 L328.5,1049.0234 L328.5,1057.5898 A0,0 0 0 0 328.5,1057.5898 L582.5,1057.5898 A0,0 0 0 0 582.5,1057.5898 L582.5,1042.457 L572.5,1032.457 L328.5,1032.457 A0,0 0 0 0 328.5,1032.457 " fill="#FEFFDD" style="stroke:#181818;stroke-width:0.5;"/><path d="M572.5,1032.457 L572.5,1042.457 L582.5,1042.457 L572.5,1032.457 " fill="#FEFFDD" style="stroke:#181818;stroke-width:0.5;"/><text fill="#000000" font-family="sans-serif" font-size="13" lengthAdjust="spacing" textLength="233" x="334.5" y="1049.5239">HColor getHtmlColorSimpleFor(int s)</text><ellipse cx="298.5" cy="1045.0234" fill="#222222" rx="10" ry="10" style="stroke:#222222;stroke-width:1.0;"/><rect fill="#F1F1F1" height="33.9688" rx="12.5" ry="12.5" style="stroke:#181818;stroke-width:0.5;" width="375" x="111" y="1077.5898"/><text fill="#000000" font-family="sans-serif" font-size="12" lengthAdjust="spacing" textLength="355" x="121" y="1098.7285">final Color color=Objects.requireNonNull(getColorFor(s));</text><rect fill="#F1F1F1" height="33.9688" rx="12.5" ry="12.5" style="stroke:#181818;stroke-width:0.5;" width="200" x="198.5" y="1131.5586"/><text fill="#000000" font-family="sans-serif" font-size="12" lengthAdjust="spacing" textLength="180" x="208.5" y="1152.6973">return HColors.simple(color);</text><ellipse cx="298.5" cy="1196.5273" fill="none" rx="11" ry="11" style="stroke:#222222;stroke-width:1.0;"/><ellipse cx="298.5" cy="1196.5273" fill="#222222" rx="6" ry="6" style="stroke:#111111;stroke-width:1.0;"/><ellipse cx="298.5" cy="1227.5273" fill="none" rx="10" ry="10" style="stroke:#222222;stroke-width:1.5;"/><line style="stroke:#222222;stroke-width:2.5;" x1="292.3128" x2="304.6872" y1="1221.3402" y2="1233.7145"/><line style="stroke:#222222;stroke-width:2.5;" x1="304.6872" x2="292.3128" y1="1221.3402" y2="1233.7145"/><path d="M328.5,1247.5273 L328.5,1256.0938 L308.5,1260.0938 L328.5,1264.0938 L328.5,1272.6602 A0,0 0 0 0 328.5,1272.6602 L519.5,1272.6602 A0,0 0 0 0 519.5,1272.6602 L519.5,1257.5273 L509.5,1247.5273 L328.5,1247.5273 A0,0 0 0 0 328.5,1247.5273 " fill="#FEFFDD" style="stroke:#181818;stroke-width:0.5;"/><path d="M509.5,1247.5273 L509.5,1257.5273 L519.5,1257.5273 L509.5,1247.5273 " fill="#FEFFDD" style="stroke:#181818;stroke-width:0.5;"/><text fill="#000000" font-family="sans-serif" font-size="13" lengthAdjust="spacing" textLength="170" x="334.5" y="1264.5942">Color getColorFor(String s)</text><ellipse cx="298.5" cy="1260.0938" fill="#222222" rx="10" ry="10" style="stroke:#222222;stroke-width:1.0;"/><rect fill="#F1F1F1" height="33.9688" rx="12.5" ry="12.5" style="stroke:#181818;stroke-width:0.5;" width="260" x="168.5" y="1341.0625"/><text fill="#000000" font-family="sans-serif" font-size="12" lengthAdjust="spacing" textLength="240" x="178.5" y="1362.2012">throw new IllegalArgumentException();</text><ellipse cx="298.5" cy="1414.5469" fill="none" rx="11" ry="11" style="stroke:#222222;stroke-width:1.0;"/><ellipse cx="298.5" cy="1414.5469" fill="#222222" rx="6" ry="6" style="stroke:#111111;stroke-width:1.0;"/><polygon fill="#F1F1F1" points="262,1292.6602,335,1292.6602,347,1304.6602,335,1316.6602,262,1316.6602,250,1304.6602,262,1292.6602" style="stroke:#181818;stroke-width:0.5;"/><text fill="#000000" font-family="sans-serif" font-size="11" lengthAdjust="spacing" textLength="20" x="302.5" y="1326.8706">yes</text><text fill="#000000" font-family="sans-serif" font-size="11" lengthAdjust="spacing" textLength="73" x="262" y="1308.4683">s.length()!=2</text><rect fill="#F1F1F1" height="33.9688" rx="12.5" ry="12.5" style="stroke:#181818;stroke-width:0.5;" width="294" x="151.5" y="1467.5469"/><text fill="#000000" font-family="sans-serif" font-size="12" lengthAdjust="spacing" textLength="274" x="161.5" y="1488.6855">final int v1=colorValue.indexOf(s.charAt(0));</text><rect fill="#F1F1F1" height="33.9688" rx="12.5" ry="12.5" style="stroke:#181818;stroke-width:0.5;" width="93" x="252" y="1569.918"/><text fill="#000000" font-family="sans-serif" font-size="12" lengthAdjust="spacing" textLength="73" x="262" y="1591.0566">return null ;</text><ellipse cx="298.5" cy="1643.4023" fill="none" rx="11" ry="11" style="stroke:#222222;stroke-width:1.0;"/><ellipse cx="298.5" cy="1643.4023" fill="#222222" rx="6" ry="6" style="stroke:#111111;stroke-width:1.0;"/><polygon fill="#F1F1F1" points="277.5,1521.5156,319.5,1521.5156,331.5,1533.5156,319.5,1545.5156,277.5,1545.5156,265.5,1533.5156,277.5,1521.5156" style="stroke:#181818;stroke-width:0.5;"/><text fill="#000000" font-family="sans-serif" font-size="11" lengthAdjust="spacing" textLength="20" x="302.5" y="1555.7261">yes</text><text fill="#000000" font-family="sans-serif" font-size="11" lengthAdjust="spacing" textLength="42" x="277.5" y="1537.3237">v1==-1</text><rect fill="#F1F1F1" height="33.9688" rx="12.5" ry="12.5" style="stroke:#181818;stroke-width:0.5;" width="294" x="151.5" y="1696.4023"/><text fill="#000000" font-family="sans-serif" font-size="12" lengthAdjust="spacing" textLength="274" x="161.5" y="1717.541">final int v2=colorValue.indexOf(s.charAt(1));</text><rect fill="#F1F1F1" height="33.9688" rx="12.5" ry="12.5" style="stroke:#181818;stroke-width:0.5;" width="93" x="252" y="1798.7734"/><text fill="#000000" font-family="sans-serif" font-size="12" lengthAdjust="spacing" textLength="73" x="262" y="1819.9121">return null ;</text><ellipse cx="298.5" cy="1872.2578" fill="none" rx="11" ry="11" style="stroke:#222222;stroke-width:1.0;"/><ellipse cx="298.5" cy="1872.2578" fill="#222222" rx="6" ry="6" style="stroke:#111111;stroke-width:1.0;"/><polygon fill="#F1F1F1" points="277.5,1750.3711,319.5,1750.3711,331.5,1762.3711,319.5,1774.3711,277.5,1774.3711,265.5,1762.3711,277.5,1750.3711" style="stroke:#181818;stroke-width:0.5;"/><text fill="#000000" font-family="sans-serif" font-size="11" lengthAdjust="spacing" textLength="20" x="302.5" y="1784.5815">yes</text><text fill="#000000" font-family="sans-serif" font-size="11" lengthAdjust="spacing" textLength="42" x="277.5" y="1766.1792">v2==-1</text><rect fill="#F1F1F1" height="33.9688" rx="12.5" ry="12.5" style="stroke:#181818;stroke-width:0.5;" width="175" x="211" y="1925.2578"/><text fill="#000000" font-family="sans-serif" font-size="12" lengthAdjust="spacing" textLength="155" x="221" y="1946.3965">final int code=v1*64+v2;</text><rect fill="#F1F1F1" height="33.9688" rx="12.5" ry="12.5" style="stroke:#181818;stroke-width:0.5;" width="181" x="208" y="1979.2266"/><text fill="#000000" font-family="sans-serif" font-size="12" lengthAdjust="spacing" textLength="161" x="218" y="2000.3652">return getColorFor(code);</text><ellipse cx="298.5" cy="2044.1953" fill="none" rx="11" ry="11" style="stroke:#222222;stroke-width:1.0;"/><ellipse cx="298.5" cy="2044.1953" fill="#222222" rx="6" ry="6" style="stroke:#111111;stroke-width:1.0;"/><ellipse cx="298.5" cy="2075.1953" fill="none" rx="10" ry="10" style="stroke:#222222;stroke-width:1.5;"/><line style="stroke:#222222;stroke-width:2.5;" x1="292.3128" x2="304.6872" y1="2069.0081" y2="2081.3825"/><line style="stroke:#222222;stroke-width:2.5;" x1="304.6872" x2="292.3128" y1="2069.0081" y2="2081.3825"/><path d="M328.5,2095.1953 L328.5,2103.7617 L308.5,2107.7617 L328.5,2111.7617 L328.5,2120.3281 A0,0 0 0 0 328.5,2120.3281 L551.5,2120.3281 A0,0 0 0 0 551.5,2120.3281 L551.5,2105.1953 L541.5,2095.1953 L328.5,2095.1953 A0,0 0 0 0 328.5,2095.1953 " fill="#FEFFDD" style="stroke:#181818;stroke-width:0.5;"/><path d="M541.5,2095.1953 L541.5,2105.1953 L551.5,2105.1953 L541.5,2095.1953 " fill="#FEFFDD" style="stroke:#181818;stroke-width:0.5;"/><text fill="#000000" font-family="sans-serif" font-size="13" lengthAdjust="spacing" textLength="202" x="334.5" y="2112.2622">Color getColorFor(final int code)</text><ellipse cx="298.5" cy="2107.7617" fill="#222222" rx="10" ry="10" style="stroke:#222222;stroke-width:1.0;"/><rect fill="#F1F1F1" height="33.9688" rx="12.5" ry="12.5" style="stroke:#181818;stroke-width:0.5;" width="169" x="214" y="2140.3281"/><text fill="#000000" font-family="sans-serif" font-size="12" lengthAdjust="spacing" textLength="149" x="224" y="2161.4668">final int blue=code%16;</text><rect fill="#F1F1F1" height="33.9688" rx="12.5" ry="12.5" style="stroke:#181818;stroke-width:0.5;" width="209" x="194" y="2194.2969"/><text fill="#000000" font-family="sans-serif" font-size="12" lengthAdjust="spacing" textLength="189" x="204" y="2215.4355">final int green=(code/16)%16;</text><rect fill="#F1F1F1" height="33.9688" rx="12.5" ry="12.5" style="stroke:#181818;stroke-width:0.5;" width="201" x="198" y="2248.2656"/><text fill="#000000" font-family="sans-serif" font-size="12" lengthAdjust="spacing" textLength="181" x="208" y="2269.4043">final int red=(code/256)%16;</text><rect fill="#F1F1F1" height="33.9688" rx="12.5" ry="12.5" style="stroke:#181818;stroke-width:0.5;" width="333" x="132" y="2302.2344"/><text fill="#000000" font-family="sans-serif" font-size="12" lengthAdjust="spacing" textLength="313" x="142" y="2323.373">return new Color(dup(red),dup(green),dup(blue));</text><ellipse cx="298.5" cy="2367.2031" fill="none" rx="11" ry="11" style="stroke:#222222;stroke-width:1.0;"/><ellipse cx="298.5" cy="2367.2031" fill="#222222" rx="6" ry="6" style="stroke:#111111;stroke-width:1.0;"/><ellipse cx="298.5" cy="2398.2031" fill="none" rx="10" ry="10" style="stroke:#222222;stroke-width:1.5;"/><line style="stroke:#222222;stroke-width:2.5;" x1="292.3128" x2="304.6872" y1="2392.0159" y2="2404.3903"/><line style="stroke:#222222;stroke-width:2.5;" x1="304.6872" x2="292.3128" y1="2392.0159" y2="2404.3903"/><path d="M328.5,2418.2031 L328.5,2426.7695 L308.5,2430.7695 L328.5,2434.7695 L328.5,2443.3359 A0,0 0 0 0 328.5,2443.3359 L430.5,2443.3359 A0,0 0 0 0 430.5,2443.3359 L430.5,2428.2031 L420.5,2418.2031 L328.5,2418.2031 A0,0 0 0 0 328.5,2418.2031 " fill="#FEFFDD" style="stroke:#181818;stroke-width:0.5;"/><path d="M420.5,2418.2031 L420.5,2428.2031 L430.5,2428.2031 L420.5,2418.2031 " fill="#FEFFDD" style="stroke:#181818;stroke-width:0.5;"/><text fill="#000000" font-family="sans-serif" font-size="13" lengthAdjust="spacing" textLength="81" x="334.5" y="2435.27">int dup(int v)</text><ellipse cx="298.5" cy="2430.7695" fill="#222222" rx="10" ry="10" style="stroke:#222222;stroke-width:1.0;"/><rect fill="#F1F1F1" height="33.9688" rx="12.5" ry="12.5" style="stroke:#181818;stroke-width:0.5;" width="164" x="216.5" y="2463.3359"/><text fill="#000000" font-family="sans-serif" font-size="12" lengthAdjust="spacing" textLength="144" x="226.5" y="2484.4746">assert v&gt;=0&amp;&amp;v&lt;=15;</text><rect fill="#F1F1F1" height="33.9688" rx="12.5" ry="12.5" style="stroke:#181818;stroke-width:0.5;" width="111" x="243" y="2517.3047"/><text fill="#000000" font-family="sans-serif" font-size="12" lengthAdjust="spacing" textLength="91" x="253" y="2538.4434">return v*16+v;</text><ellipse cx="298.5" cy="2582.2734" fill="none" rx="11" ry="11" style="stroke:#222222;stroke-width:1.0;"/><ellipse cx="298.5" cy="2582.2734" fill="#222222" rx="6" ry="6" style="stroke:#111111;stroke-width:1.0;"/><ellipse cx="298.5" cy="2613.2734" fill="none" rx="10" ry="10" style="stroke:#222222;stroke-width:1.5;"/><line style="stroke:#222222;stroke-width:2.5;" x1="292.3128" x2="304.6872" y1="2607.0863" y2="2619.4606"/><line style="stroke:#222222;stroke-width:2.5;" x1="304.6872" x2="292.3128" y1="2607.0863" y2="2619.4606"/><line style="stroke:#181818;stroke-width:1.0;" x1="298.5" x2="298.5" y1="32.5664" y2="55.1328"/><polygon fill="#181818" points="294.5,45.1328,298.5,55.1328,302.5,45.1328,298.5,49.1328" style="stroke:#181818;stroke-width:1.0;"/><line style="stroke:#181818;stroke-width:1.0;" x1="298.5" x2="298.5" y1="89.1016" y2="109.1016"/><polygon fill="#181818" points="294.5,99.1016,298.5,109.1016,302.5,99.1016,298.5,103.1016" style="stroke:#181818;stroke-width:1.0;"/><line style="stroke:#181818;stroke-width:1.0;" x1="298.5" x2="298.5" y1="193.668" y2="216.2344"/><polygon fill="#181818" points="294.5,206.2344,298.5,216.2344,302.5,206.2344,298.5,210.2344" style="stroke:#181818;stroke-width:1.0;"/><line style="stroke:#181818;stroke-width:1.0;" x1="298.5" x2="298.5" y1="250.2031" y2="270.2031"/><polygon fill="#181818" points="294.5,260.2031,298.5,270.2031,302.5,260.2031,298.5,264.2031" style="stroke:#181818;stroke-width:1.0;"/><line style="stroke:#181818;stroke-width:1.0;" x1="298.5" x2="298.5" y1="304.1719" y2="324.1719"/><polygon fill="#181818" points="294.5,314.1719,298.5,324.1719,302.5,314.1719,298.5,318.1719" style="stroke:#181818;stroke-width:1.0;"/><line style="stroke:#181818;stroke-width:1.0;" x1="298.5" x2="298.5" y1="460.5117" y2="495.5117"/><polygon fill="#181818" points="294.5,485.5117,298.5,495.5117,302.5,485.5117,298.5,489.5117" style="stroke:#181818;stroke-width:1.0;"/><line style="stroke:#181818;stroke-width:1.0;" x1="298.5" x2="298.5" y1="402.1406" y2="426.543"/><polygon fill="#181818" points="294.5,416.543,298.5,426.543,302.5,416.543,298.5,420.543" style="stroke:#181818;stroke-width:1.0;"/><line style="stroke:#181818;stroke-width:1.0;" x1="353" x2="367" y1="390.1406" y2="390.1406"/><polygon fill="#181818" points="363,468.0117,367,478.0117,371,468.0117,367,472.0117" style="stroke:#181818;stroke-width:1.0;"/><line style="stroke:#181818;stroke-width:1.0;" x1="367" x2="367" y1="390.1406" y2="561.4805"/><line style="stroke:#181818;stroke-width:1.0;" x1="367" x2="310.5" y1="561.4805" y2="561.4805"/><polygon fill="#181818" points="320.5,557.4805,310.5,561.4805,320.5,565.4805,316.5,561.4805" style="stroke:#181818;stroke-width:1.0;"/><line style="stroke:#181818;stroke-width:1.0;" x1="298.5" x2="298.5" y1="529.4805" y2="549.4805"/><polygon fill="#181818" points="294.5,539.4805,298.5,549.4805,302.5,539.4805,298.5,543.4805" style="stroke:#181818;stroke-width:1.0;"/><line style="stroke:#181818;stroke-width:1.0;" x1="298.5" x2="298.5" y1="358.1406" y2="378.1406"/><polygon fill="#181818" points="294.5,368.1406,298.5,378.1406,302.5,368.1406,298.5,372.1406" style="stroke:#181818;stroke-width:1.0;"/><line style="stroke:#181818;stroke-width:1.0;" x1="298.5" x2="298.5" y1="573.4805" y2="593.4805"/><polygon fill="#181818" points="294.5,583.4805,298.5,593.4805,302.5,583.4805,298.5,587.4805" style="stroke:#181818;stroke-width:1.0;"/><line style="stroke:#181818;stroke-width:1.0;" x1="298.5" x2="298.5" y1="627.4492" y2="647.4492"/><polygon fill="#181818" points="294.5,637.4492,298.5,647.4492,302.5,637.4492,298.5,641.4492" style="stroke:#181818;stroke-width:1.0;"/><line style="stroke:#181818;stroke-width:1.0;" x1="298.5" x2="298.5" y1="732.0156" y2="754.582"/><polygon fill="#181818" points="294.5,744.582,298.5,754.582,302.5,744.582,298.5,748.582" style="stroke:#181818;stroke-width:1.0;"/><line style="stroke:#181818;stroke-width:1.0;" x1="298.5" x2="298.5" y1="788.5508" y2="808.5508"/><polygon fill="#181818" points="294.5,798.5508,298.5,808.5508,302.5,798.5508,298.5,802.5508" style="stroke:#181818;stroke-width:1.0;"/><line style="stroke:#181818;stroke-width:1.0;" x1="298.5" x2="298.5" y1="842.5195" y2="862.5195"/><polygon fill="#181818" points="294.5,852.5195,298.5,862.5195,302.5,852.5195,298.5,856.5195" style="stroke:#181818;stroke-width:1.0;"/><line style="stroke:#181818;stroke-width:1.0;" x1="298.5" x2="298.5" y1="896.4883" y2="916.4883"/><polygon fill="#181818" points="294.5,906.4883,298.5,916.4883,302.5,906.4883,298.5,910.4883" style="stroke:#181818;stroke-width:1.0;"/><line style="stroke:#181818;stroke-width:1.0;" x1="298.5" x2="298.5" y1="950.457" y2="970.457"/><polygon fill="#181818" points="294.5,960.457,298.5,970.457,302.5,960.457,298.5,964.457" style="stroke:#181818;stroke-width:1.0;"/><line style="stroke:#181818;stroke-width:1.0;" x1="298.5" x2="298.5" y1="1055.0234" y2="1077.5898"/><polygon fill="#181818" points="294.5,1067.5898,298.5,1077.5898,302.5,1067.5898,298.5,1071.5898" style="stroke:#181818;stroke-width:1.0;"/><line style="stroke:#181818;stroke-width:1.0;" x1="298.5" x2="298.5" y1="1111.5586" y2="1131.5586"/><polygon fill="#181818" points="294.5,1121.5586,298.5,1131.5586,302.5,1121.5586,298.5,1125.5586" style="stroke:#181818;stroke-width:1.0;"/><line style="stroke:#181818;stroke-width:1.0;" x1="298.5" x2="298.5" y1="1165.5273" y2="1185.5273"/><polygon fill="#181818" points="294.5,1175.5273,298.5,1185.5273,302.5,1175.5273,298.5,1179.5273" style="stroke:#181818;stroke-width:1.0;"/><line style="stroke:#181818;stroke-width:1.0;" x1="298.5" x2="298.5" y1="1375.0313" y2="1403.5469"/><polygon fill="#181818" points="294.5,1393.5469,298.5,1403.5469,302.5,1393.5469,298.5,1397.5469" style="stroke:#181818;stroke-width:1.0;"/><line style="stroke:#181818;stroke-width:1.0;" x1="298.5" x2="298.5" y1="1316.6602" y2="1341.0625"/><polygon fill="#181818" points="294.5,1331.0625,298.5,1341.0625,302.5,1331.0625,298.5,1335.0625" style="stroke:#181818;stroke-width:1.0;"/><line style="stroke:#181818;stroke-width:1.0;" x1="347" x2="438.5" y1="1304.6602" y2="1304.6602"/><polygon fill="#181818" points="434.5,1373.5469,438.5,1383.5469,442.5,1373.5469,438.5,1377.5469" style="stroke:#181818;stroke-width:1.0;"/><line style="stroke:#181818;stroke-width:1.0;" x1="438.5" x2="438.5" y1="1304.6602" y2="1447.5469"/><line style="stroke:#181818;stroke-width:1.0;" x1="438.5" x2="298.5" y1="1447.5469" y2="1447.5469"/><line style="stroke:#181818;stroke-width:1.0;" x1="298.5" x2="298.5" y1="1447.5469" y2="1467.5469"/><polygon fill="#181818" points="294.5,1457.5469,298.5,1467.5469,302.5,1457.5469,298.5,1461.5469" style="stroke:#181818;stroke-width:1.0;"/><line style="stroke:#181818;stroke-width:1.0;" x1="298.5" x2="298.5" y1="1270.0938" y2="1292.6602"/><polygon fill="#181818" points="294.5,1282.6602,298.5,1292.6602,302.5,1282.6602,298.5,1286.6602" style="stroke:#181818;stroke-width:1.0;"/><line style="stroke:#181818;stroke-width:1.0;" x1="298.5" x2="298.5" y1="1603.8867" y2="1632.4023"/><polygon fill="#181818" points="294.5,1622.4023,298.5,1632.4023,302.5,1622.4023,298.5,1626.4023" style="stroke:#181818;stroke-width:1.0;"/><line style="stroke:#181818;stroke-width:1.0;" x1="298.5" x2="298.5" y1="1545.5156" y2="1569.918"/><polygon fill="#181818" points="294.5,1559.918,298.5,1569.918,302.5,1559.918,298.5,1563.918" style="stroke:#181818;stroke-width:1.0;"/><line style="stroke:#181818;stroke-width:1.0;" x1="331.5" x2="355" y1="1533.5156" y2="1533.5156"/><polygon fill="#181818" points="351,1602.4023,355,1612.4023,359,1602.4023,355,1606.4023" style="stroke:#181818;stroke-width:1.0;"/><line style="stroke:#181818;stroke-width:1.0;" x1="355" x2="355" y1="1533.5156" y2="1676.4023"/><line style="stroke:#181818;stroke-width:1.0;" x1="355" x2="298.5" y1="1676.4023" y2="1676.4023"/><line style="stroke:#181818;stroke-width:1.0;" x1="298.5" x2="298.5" y1="1676.4023" y2="1696.4023"/><polygon fill="#181818" points="294.5,1686.4023,298.5,1696.4023,302.5,1686.4023,298.5,1690.4023" style="stroke:#181818;stroke-width:1.0;"/><line style="stroke:#181818;stroke-width:1.0;" x1="298.5" x2="298.5" y1="1501.5156" y2="1521.5156"/><polygon fill="#181818" points="294.5,1511.5156,298.5,1521.5156,302.5,1511.5156,298.5,1515.5156" style="stroke:#181818;stroke-width:1.0;"/><line style="stroke:#181818;stroke-width:1.0;" x1="298.5" x2="298.5" y1="1832.7422" y2="1861.2578"/><polygon fill="#181818" points="294.5,1851.2578,298.5,1861.2578,302.5,1851.2578,298.5,1855.2578" style="stroke:#181818;stroke-width:1.0;"/><line style="stroke:#181818;stroke-width:1.0;" x1="298.5" x2="298.5" y1="1774.3711" y2="1798.7734"/><polygon fill="#181818" points="294.5,1788.7734,298.5,1798.7734,302.5,1788.7734,298.5,1792.7734" style="stroke:#181818;stroke-width:1.0;"/><line style="stroke:#181818;stroke-width:1.0;" x1="331.5" x2="355" y1="1762.3711" y2="1762.3711"/><polygon fill="#181818" points="351,1831.2578,355,1841.2578,359,1831.2578,355,1835.2578" style="stroke:#181818;stroke-width:1.0;"/><line style="stroke:#181818;stroke-width:1.0;" x1="355" x2="355" y1="1762.3711" y2="1905.2578"/><line style="stroke:#181818;stroke-width:1.0;" x1="355" x2="298.5" y1="1905.2578" y2="1905.2578"/><line style="stroke:#181818;stroke-width:1.0;" x1="298.5" x2="298.5" y1="1905.2578" y2="1925.2578"/><polygon fill="#181818" points="294.5,1915.2578,298.5,1925.2578,302.5,1915.2578,298.5,1919.2578" style="stroke:#181818;stroke-width:1.0;"/><line style="stroke:#181818;stroke-width:1.0;" x1="298.5" x2="298.5" y1="1730.3711" y2="1750.3711"/><polygon fill="#181818" points="294.5,1740.3711,298.5,1750.3711,302.5,1740.3711,298.5,1744.3711" style="stroke:#181818;stroke-width:1.0;"/><line style="stroke:#181818;stroke-width:1.0;" x1="298.5" x2="298.5" y1="1959.2266" y2="1979.2266"/><polygon fill="#181818" points="294.5,1969.2266,298.5,1979.2266,302.5,1969.2266,298.5,1973.2266" style="stroke:#181818;stroke-width:1.0;"/><line style="stroke:#181818;stroke-width:1.0;" x1="298.5" x2="298.5" y1="2013.1953" y2="2033.1953"/><polygon fill="#181818" points="294.5,2023.1953,298.5,2033.1953,302.5,2023.1953,298.5,2027.1953" style="stroke:#181818;stroke-width:1.0;"/><line style="stroke:#181818;stroke-width:1.0;" x1="298.5" x2="298.5" y1="2117.7617" y2="2140.3281"/><polygon fill="#181818" points="294.5,2130.3281,298.5,2140.3281,302.5,2130.3281,298.5,2134.3281" style="stroke:#181818;stroke-width:1.0;"/><line style="stroke:#181818;stroke-width:1.0;" x1="298.5" x2="298.5" y1="2174.2969" y2="2194.2969"/><polygon fill="#181818" points="294.5,2184.2969,298.5,2194.2969,302.5,2184.2969,298.5,2188.2969" style="stroke:#181818;stroke-width:1.0;"/><line style="stroke:#181818;stroke-width:1.0;" x1="298.5" x2="298.5" y1="2228.2656" y2="2248.2656"/><polygon fill="#181818" points="294.5,2238.2656,298.5,2248.2656,302.5,2238.2656,298.5,2242.2656" style="stroke:#181818;stroke-width:1.0;"/><line style="stroke:#181818;stroke-width:1.0;" x1="298.5" x2="298.5" y1="2282.2344" y2="2302.2344"/><polygon fill="#181818" points="294.5,2292.2344,298.5,2302.2344,302.5,2292.2344,298.5,2296.2344" style="stroke:#181818;stroke-width:1.0;"/><line style="stroke:#181818;stroke-width:1.0;" x1="298.5" x2="298.5" y1="2336.2031" y2="2356.2031"/><polygon fill="#181818" points="294.5,2346.2031,298.5,2356.2031,302.5,2346.2031,298.5,2350.2031" style="stroke:#181818;stroke-width:1.0;"/><line style="stroke:#181818;stroke-width:1.0;" x1="298.5" x2="298.5" y1="2440.7695" y2="2463.3359"/><polygon fill="#181818" points="294.5,2453.3359,298.5,2463.3359,302.5,2453.3359,298.5,2457.3359" style="stroke:#181818;stroke-width:1.0;"/><line style="stroke:#181818;stroke-width:1.0;" x1="298.5" x2="298.5" y1="2497.3047" y2="2517.3047"/><polygon fill="#181818" points="294.5,2507.3047,298.5,2517.3047,302.5,2507.3047,298.5,2511.3047" style="stroke:#181818;stroke-width:1.0;"/><line style="stroke:#181818;stroke-width:1.0;" x1="298.5" x2="298.5" y1="2551.2734" y2="2571.2734"/><polygon fill="#181818" points="294.5,2561.2734,298.5,2571.2734,302.5,2561.2734,298.5,2565.2734" style="stroke:#181818;stroke-width:1.0;"/><!--MD5=[181c7f77050b10e819964965272e7447]
@startuml
!pragma layout smetana
start
note right
String getStringFor(Color dest)
end note
:return getStringFor(HColors.simple(dest));;
stop
end
start
note right
String getStringFor(HColor dest)
end note
:int result=0;;
:int resultDist=Integer.MAX_VALUE;;
:final int dist=((HColorSimple )dest).distanceTo((HColorSimple )getHtmlColorSimpleFor(i));;
if (dist<resultDist) then (yes) 
:result=i;;
:resultDist=dist;;
endif 
:return encodeInt(result);;
stop
end
start
note right
String encodeInt(int result)
end note
:final int v2=result%64;;
:final int v1=result/64;;
:assert v1>=0&&v1<=63&&v2>=0&&v2<=63;;
:return ""+colorValue.charAt(v1)+colorValue.charAt(v2);;
stop
end
start
note right
HColor getHtmlColorSimpleFor(int s)
end note
:final Color color=Objects.requireNonNull(getColorFor(s));;
:return HColors.simple(color);;
stop
end
start
note right
Color getColorFor(String s)
end note
if (s.length()!=2) then (yes) 
:throw new IllegalArgumentException();;
stop
endif 
:final int v1=colorValue.indexOf(s.charAt(0));;
if (v1==-1) then (yes) 
:return null ;;
stop
endif 
:final int v2=colorValue.indexOf(s.charAt(1));;
if (v2==-1) then (yes) 
:return null ;;
stop
endif 
:final int code=v1*64+v2;;
:return getColorFor(code);;
stop
end
start
note right
Color getColorFor(final int code)
end note
:final int blue=code%16;;
:final int green=(code/16)%16;;
:final int red=(code/256)%16;;
:return new Color(dup(red),dup(green),dup(blue));;
stop
end
start
note right
int dup(int v)
end note
:assert v>=0&&v<=15;;
:return v*16+v;;
stop
end
@enduml

PlantUML version 1.2022.7(Mon Aug 22 17:01:30 UTC 2022)
(GPL source distribution)
Java Runtime: OpenJDK Runtime Environment
JVM: OpenJDK 64-Bit Server VM
Default Encoding: UTF-8
Language: en
Country: null
--></g></svg>