<?xml version="1.0" encoding="UTF-8" standalone="no"?><svg xmlns="http://www.w3.org/2000/svg" xmlns:xlink="http://www.w3.org/1999/xlink" contentStyleType="text/css" height="202px" preserveAspectRatio="none" style="width:479px;height:202px;background:#FFFFFF;" version="1.1" viewBox="0 0 479 202" width="479px" zoomAndPan="magnify"><defs/><g><!--MD5=[642a56aae8185925923695b35ef3fe1b]
cluster net.sourceforge.plantuml.math--><g id="cluster_net.sourceforge.plantuml.math"><path d="M8.5,63 L254.5,63 A3.75,3.75 0 0 1 257,65.5 L264,85.2969 L469.5,85.2969 A2.5,2.5 0 0 1 472,87.7969 L472,192.5 A2.5,2.5 0 0 1 469.5,195 L8.5,195 A2.5,2.5 0 0 1 6,192.5 L6,65.5 A2.5,2.5 0 0 1 8.5,63 " fill="none" style="stroke:#000000;stroke-width:1.5;"/><line style="stroke:#000000;stroke-width:1.5;" x1="6" x2="264" y1="85.2969" y2="85.2969"/><text fill="#000000" font-family="sans-serif" font-size="14" font-weight="bold" lengthAdjust="spacing" textLength="245" x="10" y="77.9951">net.sourceforge.plantuml.math</text></g><!--MD5=[31f552c99cc23d353355c67e80fc321e]
class PSystemBasicFactory<PSystemLatex>--><g id="elem_PSystemBasicFactory&lt;PSystemLatex&gt;"><rect fill="#F1F1F1" height="48" id="PSystemBasicFactory&lt;PSystemLatex&gt;" rx="2.5" ry="2.5" style="stroke:#181818;stroke-width:0.5;" width="299" x="89.5" y="6"/><ellipse cx="104.5" cy="22" fill="#ADD1B2" rx="11" ry="11" style="stroke:#181818;stroke-width:1.0;"/><path d="M107.4688,27.6406 Q106.8906,27.9375 106.25,28.0781 Q105.6094,28.2344 104.9063,28.2344 Q102.4063,28.2344 101.0781,26.5938 Q99.7656,24.9375 99.7656,21.8125 Q99.7656,18.6875 101.0781,17.0313 Q102.4063,15.375 104.9063,15.375 Q105.6094,15.375 106.25,15.5313 Q106.9063,15.6875 107.4688,15.9844 L107.4688,18.7031 Q106.8438,18.125 106.25,17.8594 Q105.6563,17.5781 105.0313,17.5781 Q103.6875,17.5781 103,18.6563 Q102.3125,19.7188 102.3125,21.8125 Q102.3125,23.9063 103,24.9844 Q103.6875,26.0469 105.0313,26.0469 Q105.6563,26.0469 106.25,25.7813 Q106.8438,25.5 107.4688,24.9219 L107.4688,27.6406 Z " fill="#000000"/><text fill="#000000" font-family="sans-serif" font-size="14" lengthAdjust="spacing" textLength="267" x="118.5" y="26.8467">PSystemBasicFactory&lt;PSystemLatex&gt;</text><line style="stroke:#181818;stroke-width:0.5;" x1="90.5" x2="387.5" y1="38" y2="38"/><line style="stroke:#181818;stroke-width:0.5;" x1="90.5" x2="387.5" y1="46" y2="46"/></g><!--MD5=[c2d9ee60c861152d8e9767c68a80aee3]
class net.sourceforge.plantuml.math.PSystemLatexFactory--><g id="elem_net.sourceforge.plantuml.math.PSystemLatexFactory"><rect codeLine="3" fill="#F1F1F1" height="96.8906" id="net.sourceforge.plantuml.math.PSystemLatexFactory" rx="2.5" ry="2.5" style="stroke:#181818;stroke-width:0.5;" width="450" x="14" y="90"/><ellipse cx="161.75" cy="106" fill="#ADD1B2" rx="11" ry="11" style="stroke:#181818;stroke-width:1.0;"/><path d="M164.7188,111.6406 Q164.1406,111.9375 163.5,112.0781 Q162.8594,112.2344 162.1563,112.2344 Q159.6563,112.2344 158.3281,110.5938 Q157.0156,108.9375 157.0156,105.8125 Q157.0156,102.6875 158.3281,101.0313 Q159.6563,99.375 162.1563,99.375 Q162.8594,99.375 163.5,99.5313 Q164.1563,99.6875 164.7188,99.9844 L164.7188,102.7031 Q164.0938,102.125 163.5,101.8594 Q162.9063,101.5781 162.2813,101.5781 Q160.9375,101.5781 160.25,102.6563 Q159.5625,103.7188 159.5625,105.8125 Q159.5625,107.9063 160.25,108.9844 Q160.9375,110.0469 162.2813,110.0469 Q162.9063,110.0469 163.5,109.7813 Q164.0938,109.5 164.7188,108.9219 L164.7188,111.6406 Z " fill="#000000"/><text fill="#000000" font-family="sans-serif" font-size="14" lengthAdjust="spacing" textLength="146" x="182.25" y="110.8467">PSystemLatexFactory</text><line style="stroke:#181818;stroke-width:0.5;" x1="15" x2="463" y1="122" y2="122"/><line style="stroke:#181818;stroke-width:0.5;" x1="15" x2="463" y1="130" y2="130"/><a href="./../../../../../.././qc/src/net/sourceforge/plantuml/math/PSystemLatexFactory.java.html#44" target="_top" title="./../../../../../.././qc/src/net/sourceforge/plantuml/math/PSystemLatexFactory.java.html#44" xlink:actuate="onRequest" xlink:href="./../../../../../.././qc/src/net/sourceforge/plantuml/math/PSystemLatexFactory.java.html#44" xlink:show="new" xlink:title="./../../../../../.././qc/src/net/sourceforge/plantuml/math/PSystemLatexFactory.java.html#44" xlink:type="simple"><rect fill="#F1F1F1" height="10" style="stroke:none;stroke-width:1.0;" width="20" x="20" y="138.6484"/><ellipse cx="25" cy="143.6484" fill="#84BE84" rx="3" ry="3" style="stroke:#038048;stroke-width:1.0;"/></a><a href="./../../../../../.././qc/src/net/sourceforge/plantuml/math/PSystemLatexFactory.java.html#44" target="_top" title="./../../../../../.././qc/src/net/sourceforge/plantuml/math/PSystemLatexFactory.java.html#44" xlink:actuate="onRequest" xlink:href="./../../../../../.././qc/src/net/sourceforge/plantuml/math/PSystemLatexFactory.java.html#44" xlink:show="new" xlink:title="./../../../../../.././qc/src/net/sourceforge/plantuml/math/PSystemLatexFactory.java.html#44" xlink:type="simple"><text fill="#000000" font-family="sans-serif" font-size="14" lengthAdjust="spacing" textLength="406" x="34" y="146.9951">PSystemLatexFactory(DiagramType) : PSystemLatexFactory</text></a><a href="./../../../../../.././qc/src/net/sourceforge/plantuml/math/PSystemLatexFactory.java.html#49" target="_top" title="./../../../../../.././qc/src/net/sourceforge/plantuml/math/PSystemLatexFactory.java.html#49" xlink:actuate="onRequest" xlink:href="./../../../../../.././qc/src/net/sourceforge/plantuml/math/PSystemLatexFactory.java.html#49" xlink:show="new" xlink:title="./../../../../../.././qc/src/net/sourceforge/plantuml/math/PSystemLatexFactory.java.html#49" xlink:type="simple"><rect fill="#F1F1F1" height="10" style="stroke:none;stroke-width:1.0;" width="20" x="20" y="154.9453"/><ellipse cx="25" cy="159.9453" fill="#84BE84" rx="3" ry="3" style="stroke:#038048;stroke-width:1.0;"/></a><a href="./../../../../../.././qc/src/net/sourceforge/plantuml/math/PSystemLatexFactory.java.html#49" target="_top" title="./../../../../../.././qc/src/net/sourceforge/plantuml/math/PSystemLatexFactory.java.html#49" xlink:actuate="onRequest" xlink:href="./../../../../../.././qc/src/net/sourceforge/plantuml/math/PSystemLatexFactory.java.html#49" xlink:show="new" xlink:title="./../../../../../.././qc/src/net/sourceforge/plantuml/math/PSystemLatexFactory.java.html#49" xlink:type="simple"><text fill="#000000" font-family="sans-serif" font-size="14" lengthAdjust="spacing" textLength="316" x="34" y="163.292">initDiagram(UmlSource;String) : PSystemLatex</text></a><a href="./../../../../../.././qc/src/net/sourceforge/plantuml/math/PSystemLatexFactory.java.html#57" target="_top" title="./../../../../../.././qc/src/net/sourceforge/plantuml/math/PSystemLatexFactory.java.html#57" xlink:actuate="onRequest" xlink:href="./../../../../../.././qc/src/net/sourceforge/plantuml/math/PSystemLatexFactory.java.html#57" xlink:show="new" xlink:title="./../../../../../.././qc/src/net/sourceforge/plantuml/math/PSystemLatexFactory.java.html#57" xlink:type="simple"><rect fill="#F1F1F1" height="10" style="stroke:none;stroke-width:1.0;" width="20" x="20" y="171.2422"/><ellipse cx="25" cy="176.2422" fill="#84BE84" rx="3" ry="3" style="stroke:#038048;stroke-width:1.0;"/></a><a href="./../../../../../.././qc/src/net/sourceforge/plantuml/math/PSystemLatexFactory.java.html#57" target="_top" title="./../../../../../.././qc/src/net/sourceforge/plantuml/math/PSystemLatexFactory.java.html#57" xlink:actuate="onRequest" xlink:href="./../../../../../.././qc/src/net/sourceforge/plantuml/math/PSystemLatexFactory.java.html#57" xlink:show="new" xlink:title="./../../../../../.././qc/src/net/sourceforge/plantuml/math/PSystemLatexFactory.java.html#57" xlink:type="simple"><text fill="#000000" font-family="sans-serif" font-size="14" lengthAdjust="spacing" textLength="424" x="34" y="179.5889">executeLine(UmlSource;PSystemLatex;String) : PSystemLatex</text></a></g><path d="M239,54.1089 C239,64.6313 239,77.495 239,89.9394 " fill="none" style="stroke:#181818;stroke-width:1.0;"/><polygon fill="#FFFFFF" points="239,54.1089,233,70.1089,245,70.1089,239,54.1089" style="stroke:#181818;stroke-width:1.0;"/><!--MD5=[11bcb77b6f4e1b1ffc9239846bf0f922]
@startuml
!pragma layout smetana
"PSystemBasicFactory<PSystemLatex>" <|- - "net.sourceforge.plantuml.math.PSystemLatexFactory"
class net.sourceforge.plantuml.math.PSystemLatexFactory {
+PSystemLatexFactory(DiagramType) : PSystemLatexFactory [[[./../../../../../.././qc/src/net/sourceforge/plantuml/math/PSystemLatexFactory.java.html#44]]]
+initDiagram(UmlSource;String) : PSystemLatex [[[./../../../../../.././qc/src/net/sourceforge/plantuml/math/PSystemLatexFactory.java.html#49]]]
+executeLine(UmlSource;PSystemLatex;String) : PSystemLatex [[[./../../../../../.././qc/src/net/sourceforge/plantuml/math/PSystemLatexFactory.java.html#57]]]
} 
@enduml

PlantUML version 1.2022.7(Mon Aug 22 17:01:30 UTC 2022)
(GPL source distribution)
Java Runtime: OpenJDK Runtime Environment
JVM: OpenJDK 64-Bit Server VM
Default Encoding: UTF-8
Language: en
Country: null
--></g></svg>