<?xml version="1.0" encoding="UTF-8" standalone="no"?><svg xmlns="http://www.w3.org/2000/svg" xmlns:xlink="http://www.w3.org/1999/xlink" contentStyleType="text/css" height="202px" preserveAspectRatio="none" style="width:557px;height:202px;background:#FFFFFF;" version="1.1" viewBox="0 0 557 202" width="557px" zoomAndPan="magnify"><defs/><g><!--MD5=[53cfdef7a7fd7612dbf6c862a75be3bb]
cluster net.sourceforge.plantuml.bpm--><g id="cluster_net.sourceforge.plantuml.bpm"><path d="M8.5,63 L249.5,63 A3.75,3.75 0 0 1 252,65.5 L259,85.2969 L547.5,85.2969 A2.5,2.5 0 0 1 550,87.7969 L550,192.5 A2.5,2.5 0 0 1 547.5,195 L8.5,195 A2.5,2.5 0 0 1 6,192.5 L6,65.5 A2.5,2.5 0 0 1 8.5,63 " fill="none" style="stroke:#000000;stroke-width:1.5;"/><line style="stroke:#000000;stroke-width:1.5;" x1="6" x2="259" y1="85.2969" y2="85.2969"/><text fill="#000000" font-family="sans-serif" font-size="14" font-weight="bold" lengthAdjust="spacing" textLength="240" x="10" y="77.9951">net.sourceforge.plantuml.bpm</text></g><!--MD5=[ade19ff5ad2951871d04c6ec2e133abc]
class PSystemCommandFactory--><g id="elem_PSystemCommandFactory"><rect fill="#F1F1F1" height="48" id="PSystemCommandFactory" rx="2.5" ry="2.5" style="stroke:#181818;stroke-width:0.5;" width="213" x="171.5" y="6"/><ellipse cx="186.5" cy="22" fill="#ADD1B2" rx="11" ry="11" style="stroke:#181818;stroke-width:1.0;"/><path d="M189.4688,27.6406 Q188.8906,27.9375 188.25,28.0781 Q187.6094,28.2344 186.9063,28.2344 Q184.4063,28.2344 183.0781,26.5938 Q181.7656,24.9375 181.7656,21.8125 Q181.7656,18.6875 183.0781,17.0313 Q184.4063,15.375 186.9063,15.375 Q187.6094,15.375 188.25,15.5313 Q188.9063,15.6875 189.4688,15.9844 L189.4688,18.7031 Q188.8438,18.125 188.25,17.8594 Q187.6563,17.5781 187.0313,17.5781 Q185.6875,17.5781 185,18.6563 Q184.3125,19.7188 184.3125,21.8125 Q184.3125,23.9063 185,24.9844 Q185.6875,26.0469 187.0313,26.0469 Q187.6563,26.0469 188.25,25.7813 Q188.8438,25.5 189.4688,24.9219 L189.4688,27.6406 Z " fill="#000000"/><text fill="#000000" font-family="sans-serif" font-size="14" lengthAdjust="spacing" textLength="181" x="200.5" y="26.8467">PSystemCommandFactory</text><line style="stroke:#181818;stroke-width:0.5;" x1="172.5" x2="383.5" y1="38" y2="38"/><line style="stroke:#181818;stroke-width:0.5;" x1="172.5" x2="383.5" y1="46" y2="46"/></g><!--MD5=[b69b29c6cd0da2759b1924ca399ad135]
class net.sourceforge.plantuml.bpm.BpmDiagramFactory--><g id="elem_net.sourceforge.plantuml.bpm.BpmDiagramFactory"><rect codeLine="3" fill="#F1F1F1" height="96.8906" id="net.sourceforge.plantuml.bpm.BpmDiagramFactory" rx="2.5" ry="2.5" style="stroke:#181818;stroke-width:0.5;" width="527" x="14.5" y="90"/><ellipse cx="204.25" cy="106" fill="#ADD1B2" rx="11" ry="11" style="stroke:#181818;stroke-width:1.0;"/><path d="M207.2188,111.6406 Q206.6406,111.9375 206,112.0781 Q205.3594,112.2344 204.6563,112.2344 Q202.1563,112.2344 200.8281,110.5938 Q199.5156,108.9375 199.5156,105.8125 Q199.5156,102.6875 200.8281,101.0313 Q202.1563,99.375 204.6563,99.375 Q205.3594,99.375 206,99.5313 Q206.6563,99.6875 207.2188,99.9844 L207.2188,102.7031 Q206.5938,102.125 206,101.8594 Q205.4063,101.5781 204.7813,101.5781 Q203.4375,101.5781 202.75,102.6563 Q202.0625,103.7188 202.0625,105.8125 Q202.0625,107.9063 202.75,108.9844 Q203.4375,110.0469 204.7813,110.0469 Q205.4063,110.0469 206,109.7813 Q206.5938,109.5 207.2188,108.9219 L207.2188,111.6406 Z " fill="#000000"/><text fill="#000000" font-family="sans-serif" font-size="14" lengthAdjust="spacing" textLength="139" x="224.75" y="110.8467">BpmDiagramFactory</text><line style="stroke:#181818;stroke-width:0.5;" x1="15.5" x2="540.5" y1="122" y2="122"/><line style="stroke:#181818;stroke-width:0.5;" x1="15.5" x2="540.5" y1="130" y2="130"/><a href="./../../../../../.././qc/src/net/sourceforge/plantuml/bpm/BpmDiagramFactory.java.html#50" target="_top" title="./../../../../../.././qc/src/net/sourceforge/plantuml/bpm/BpmDiagramFactory.java.html#50" xlink:actuate="onRequest" xlink:href="./../../../../../.././qc/src/net/sourceforge/plantuml/bpm/BpmDiagramFactory.java.html#50" xlink:show="new" xlink:title="./../../../../../.././qc/src/net/sourceforge/plantuml/bpm/BpmDiagramFactory.java.html#50" xlink:type="simple"><rect fill="#F1F1F1" height="10" style="stroke:none;stroke-width:1.0;" width="20" x="20.5" y="138.6484"/><ellipse cx="25.5" cy="143.6484" fill="#84BE84" rx="3" ry="3" style="stroke:#038048;stroke-width:1.0;"/></a><a href="./../../../../../.././qc/src/net/sourceforge/plantuml/bpm/BpmDiagramFactory.java.html#50" target="_top" title="./../../../../../.././qc/src/net/sourceforge/plantuml/bpm/BpmDiagramFactory.java.html#50" xlink:actuate="onRequest" xlink:href="./../../../../../.././qc/src/net/sourceforge/plantuml/bpm/BpmDiagramFactory.java.html#50" xlink:show="new" xlink:title="./../../../../../.././qc/src/net/sourceforge/plantuml/bpm/BpmDiagramFactory.java.html#50" xlink:type="simple"><text fill="#000000" font-family="sans-serif" font-size="14" lengthAdjust="spacing" textLength="392" x="34.5" y="146.9951">BpmDiagramFactory(DiagramType) : BpmDiagramFactory</text></a><a href="./../../../../../.././qc/src/net/sourceforge/plantuml/bpm/BpmDiagramFactory.java.html#55" target="_top" title="./../../../../../.././qc/src/net/sourceforge/plantuml/bpm/BpmDiagramFactory.java.html#55" xlink:actuate="onRequest" xlink:href="./../../../../../.././qc/src/net/sourceforge/plantuml/bpm/BpmDiagramFactory.java.html#55" xlink:show="new" xlink:title="./../../../../../.././qc/src/net/sourceforge/plantuml/bpm/BpmDiagramFactory.java.html#55" xlink:type="simple"><text fill="#000000" font-family="sans-serif" font-size="14" lengthAdjust="spacing" textLength="264" x="34.5" y="163.292">createCommands() : List&lt;Command&gt;</text></a><a href="./../../../../../.././qc/src/net/sourceforge/plantuml/bpm/BpmDiagramFactory.java.html#68" target="_top" title="./../../../../../.././qc/src/net/sourceforge/plantuml/bpm/BpmDiagramFactory.java.html#68" xlink:actuate="onRequest" xlink:href="./../../../../../.././qc/src/net/sourceforge/plantuml/bpm/BpmDiagramFactory.java.html#68" xlink:show="new" xlink:title="./../../../../../.././qc/src/net/sourceforge/plantuml/bpm/BpmDiagramFactory.java.html#68" xlink:type="simple"><rect fill="#F1F1F1" height="10" style="stroke:none;stroke-width:1.0;" width="20" x="20.5" y="171.2422"/><ellipse cx="25.5" cy="176.2422" fill="#84BE84" rx="3" ry="3" style="stroke:#038048;stroke-width:1.0;"/></a><a href="./../../../../../.././qc/src/net/sourceforge/plantuml/bpm/BpmDiagramFactory.java.html#68" target="_top" title="./../../../../../.././qc/src/net/sourceforge/plantuml/bpm/BpmDiagramFactory.java.html#68" xlink:actuate="onRequest" xlink:href="./../../../../../.././qc/src/net/sourceforge/plantuml/bpm/BpmDiagramFactory.java.html#68" xlink:show="new" xlink:title="./../../../../../.././qc/src/net/sourceforge/plantuml/bpm/BpmDiagramFactory.java.html#68" xlink:type="simple"><text fill="#000000" font-family="sans-serif" font-size="14" lengthAdjust="spacing" textLength="501" x="34.5" y="179.5889">createEmptyDiagram(UmlSource;Map&lt;String,String&gt;) : AbstractPSystem</text></a></g><path d="M278,54.1089 C278,64.6313 278,77.495 278,89.9394 " fill="none" style="stroke:#181818;stroke-width:1.0;"/><polygon fill="#FFFFFF" points="278,54.1089,272,70.1089,284,70.1089,278,54.1089" style="stroke:#181818;stroke-width:1.0;"/><!--MD5=[a9d29a474603ac0982bb92abdde4339e]
@startuml
!pragma layout smetana
"PSystemCommandFactory" <|- - "net.sourceforge.plantuml.bpm.BpmDiagramFactory"
class net.sourceforge.plantuml.bpm.BpmDiagramFactory {
+BpmDiagramFactory(DiagramType) : BpmDiagramFactory [[[./../../../../../.././qc/src/net/sourceforge/plantuml/bpm/BpmDiagramFactory.java.html#50]]]
createCommands() : List<Command> [[[./../../../../../.././qc/src/net/sourceforge/plantuml/bpm/BpmDiagramFactory.java.html#55]]]
+createEmptyDiagram(UmlSource;Map<String,String>) : AbstractPSystem [[[./../../../../../.././qc/src/net/sourceforge/plantuml/bpm/BpmDiagramFactory.java.html#68]]]
} 
@enduml

PlantUML version 1.2022.7(Mon Aug 22 17:01:30 UTC 2022)
(GPL source distribution)
Java Runtime: OpenJDK Runtime Environment
JVM: OpenJDK 64-Bit Server VM
Default Encoding: UTF-8
Language: en
Country: null
--></g></svg>