<?xml version="1.0" encoding="UTF-8" standalone="no"?><svg xmlns="http://www.w3.org/2000/svg" xmlns:xlink="http://www.w3.org/1999/xlink" contentStyleType="text/css" height="2637px" preserveAspectRatio="none" style="width:727px;height:2637px;background:#FFFFFF;" version="1.1" viewBox="0 0 727 2637" width="727px" zoomAndPan="magnify"><defs/><g><path d="M248.5,10 L248.5,18.5664 L228.5,22.5664 L248.5,26.5664 L248.5,35.1328 A0,0 0 0 0 248.5,35.1328 L425.5,35.1328 A0,0 0 0 0 425.5,35.1328 L425.5,20 L415.5,10 L248.5,10 A0,0 0 0 0 248.5,10 " fill="#FEFFDD" style="stroke:#181818;stroke-width:0.5;"/><path d="M415.5,10 L415.5,20 L425.5,20 L415.5,10 " fill="#FEFFDD" style="stroke:#181818;stroke-width:0.5;"/><text fill="#000000" font-family="sans-serif" font-size="13" lengthAdjust="spacing" textLength="156" x="254.5" y="27.0669">boolean containsBreak()</text><ellipse cx="218.5" cy="22.5664" fill="#222222" rx="10" ry="10" style="stroke:#222222;stroke-width:1.0;"/><rect fill="#F1F1F1" height="33.9688" rx="12.5" ry="12.5" style="stroke:#181818;stroke-width:0.5;" width="97" x="170" y="55.1328"/><text fill="#000000" font-family="sans-serif" font-size="12" lengthAdjust="spacing" textLength="77" x="180" y="76.2715">return false;</text><ellipse cx="218.5" cy="120.1016" fill="none" rx="11" ry="11" style="stroke:#222222;stroke-width:1.0;"/><ellipse cx="218.5" cy="120.1016" fill="#222222" rx="6" ry="6" style="stroke:#111111;stroke-width:1.0;"/><ellipse cx="218.5" cy="151.1016" fill="none" rx="10" ry="10" style="stroke:#222222;stroke-width:1.5;"/><line style="stroke:#222222;stroke-width:2.5;" x1="212.3128" x2="224.6872" y1="144.9144" y2="157.2887"/><line style="stroke:#222222;stroke-width:2.5;" x1="224.6872" x2="212.3128" y1="144.9144" y2="157.2887"/><path d="M248.5,171.1016 L248.5,194.8008 L228.5,198.8008 L248.5,202.8008 L248.5,226.5 A0,0 0 0 0 248.5,226.5 L640.5,226.5 A0,0 0 0 0 640.5,226.5 L640.5,181.1016 L630.5,171.1016 L248.5,171.1016 A0,0 0 0 0 248.5,171.1016 " fill="#FEFFDD" style="stroke:#181818;stroke-width:0.5;"/><path d="M630.5,171.1016 L630.5,181.1016 L640.5,181.1016 L630.5,171.1016 " fill="#FEFFDD" style="stroke:#181818;stroke-width:0.5;"/><text fill="#000000" font-family="sans-serif" font-size="13" lengthAdjust="spacing" textLength="277" x="254.5" y="188.1685">constructor InstructionSimple(Display label,</text><text fill="#000000" font-family="sans-serif" font-size="13" lengthAdjust="spacing" textLength="321" x="254.5" y="203.3013">LinkRendering inlinkRendering,Swimlane swimlane,</text><text fill="#000000" font-family="sans-serif" font-size="13" lengthAdjust="spacing" textLength="371" x="254.5" y="218.4341">BoxStyle style,Url url,Colors colors,Stereotype stereotype)</text><ellipse cx="218.5" cy="198.8008" fill="#222222" rx="10" ry="10" style="stroke:#222222;stroke-width:1.0;"/><rect fill="#F1F1F1" height="33.9688" rx="12.5" ry="12.5" style="stroke:#181818;stroke-width:0.5;" width="131" x="153" y="246.5"/><text fill="#000000" font-family="sans-serif" font-size="12" lengthAdjust="spacing" textLength="111" x="163" y="267.6387">super (swimlane);</text><rect fill="#F1F1F1" height="33.9688" rx="12.5" ry="12.5" style="stroke:#181818;stroke-width:0.5;" width="197" x="120" y="300.4688"/><text fill="#000000" font-family="sans-serif" font-size="12" lengthAdjust="spacing" textLength="177" x="130" y="321.6074">this.stereotype=stereotype;</text><rect fill="#F1F1F1" height="33.9688" rx="12.5" ry="12.5" style="stroke:#181818;stroke-width:0.5;" width="93" x="172" y="354.4375"/><text fill="#000000" font-family="sans-serif" font-size="12" lengthAdjust="spacing" textLength="73" x="182" y="375.5762">this.url=url;</text><rect fill="#F1F1F1" height="33.9688" rx="12.5" ry="12.5" style="stroke:#181818;stroke-width:0.5;" width="119" x="159" y="408.4063"/><text fill="#000000" font-family="sans-serif" font-size="12" lengthAdjust="spacing" textLength="99" x="169" y="429.5449">this.style=style;</text><rect fill="#F1F1F1" height="33.9688" rx="12.5" ry="12.5" style="stroke:#181818;stroke-width:0.5;" width="121" x="158" y="462.375"/><text fill="#000000" font-family="sans-serif" font-size="12" lengthAdjust="spacing" textLength="101" x="168" y="483.5137">this.label=label;</text><rect fill="#F1F1F1" height="33.9688" rx="12.5" ry="12.5" style="stroke:#181818;stroke-width:0.5;" width="407" x="15" y="516.3438"/><text fill="#000000" font-family="sans-serif" font-size="12" lengthAdjust="spacing" textLength="387" x="25" y="537.4824">this.inlinkRendering=Objects.requireNonNull(inlinkRendering);</text><rect fill="#F1F1F1" height="33.9688" rx="12.5" ry="12.5" style="stroke:#181818;stroke-width:0.5;" width="291" x="73" y="570.3125"/><text fill="#000000" font-family="sans-serif" font-size="12" lengthAdjust="spacing" textLength="271" x="83" y="591.4512">this.colors=Objects.requireNonNull(colors);</text><ellipse cx="218.5" cy="634.2813" fill="none" rx="10" ry="10" style="stroke:#222222;stroke-width:1.5;"/><line style="stroke:#222222;stroke-width:2.5;" x1="212.3128" x2="224.6872" y1="628.0941" y2="640.4684"/><line style="stroke:#222222;stroke-width:2.5;" x1="224.6872" x2="212.3128" y1="628.0941" y2="640.4684"/><path d="M248.5,654.2813 L248.5,662.8477 L228.5,666.8477 L248.5,670.8477 L248.5,679.4141 A0,0 0 0 0 248.5,679.4141 L715.5,679.4141 A0,0 0 0 0 715.5,679.4141 L715.5,664.2813 L705.5,654.2813 L248.5,654.2813 A0,0 0 0 0 248.5,654.2813 " fill="#FEFFDD" style="stroke:#181818;stroke-width:0.5;"/><path d="M705.5,654.2813 L705.5,664.2813 L715.5,664.2813 L705.5,654.2813 " fill="#FEFFDD" style="stroke:#181818;stroke-width:0.5;"/><text fill="#000000" font-family="sans-serif" font-size="13" lengthAdjust="spacing" textLength="446" x="254.5" y="671.3481">Gtile createGtile(ISkinParam skinParam,StringBounder stringBounder)</text><ellipse cx="218.5" cy="666.8477" fill="#222222" rx="10" ry="10" style="stroke:#222222;stroke-width:1.0;"/><rect fill="#F1F1F1" height="61.9063" rx="12.5" ry="12.5" style="stroke:#181818;stroke-width:0.5;" width="313" x="62" y="699.4141"/><text fill="#000000" font-family="sans-serif" font-size="12" lengthAdjust="spacing" textLength="293" x="72" y="720.5527">GtileBox result=GtileBox.create(stringBounder,</text><text fill="#000000" font-family="sans-serif" font-size="12" lengthAdjust="spacing" textLength="291" x="72" y="734.5215">colors.mute(skinParam),label,getSwimlaneIn(),</text><text fill="#000000" font-family="sans-serif" font-size="12" lengthAdjust="spacing" textLength="110" x="72" y="748.4902">style,stereotype);</text><rect fill="#F1F1F1" height="33.9688" rx="12.5" ry="12.5" style="stroke:#181818;stroke-width:0.5;" width="415" x="11" y="829.7227"/><text fill="#000000" font-family="sans-serif" font-size="12" lengthAdjust="spacing" textLength="395" x="21" y="850.8613">final Collection&lt;PositionedNote&gt; notes=getPositionedNotes();</text><rect fill="#F1F1F1" height="33.9688" rx="12.5" ry="12.5" style="stroke:#181818;stroke-width:0.5;" width="337" x="50" y="932.0938"/><text fill="#000000" font-family="sans-serif" font-size="12" lengthAdjust="spacing" textLength="317" x="60" y="953.2324">throw new UnsupportedOperationException("wip");</text><ellipse cx="218.5" cy="1005.5781" fill="none" rx="11" ry="11" style="stroke:#222222;stroke-width:1.0;"/><ellipse cx="218.5" cy="1005.5781" fill="#222222" rx="6" ry="6" style="stroke:#111111;stroke-width:1.0;"/><polygon fill="#F1F1F1" points="173,883.6914,264,883.6914,276,895.6914,264,907.6914,173,907.6914,161,895.6914,173,883.6914" style="stroke:#181818;stroke-width:0.5;"/><text fill="#000000" font-family="sans-serif" font-size="11" lengthAdjust="spacing" textLength="20" x="222.5" y="917.9019">yes</text><text fill="#000000" font-family="sans-serif" font-size="11" lengthAdjust="spacing" textLength="91" x="173" y="899.4995">notes.size()==0</text><rect fill="#F1F1F1" height="33.9688" rx="12.5" ry="12.5" style="stroke:#181818;stroke-width:0.5;" width="343" x="47" y="1106.9805"/><text fill="#000000" font-family="sans-serif" font-size="12" lengthAdjust="spacing" textLength="323" x="57" y="1128.1191">return new GtileWithNotes(result,notes,skinParam);</text><ellipse cx="218.5" cy="1180.4648" fill="none" rx="11" ry="11" style="stroke:#222222;stroke-width:1.0;"/><ellipse cx="218.5" cy="1180.4648" fill="#222222" rx="6" ry="6" style="stroke:#111111;stroke-width:1.0;"/><polygon fill="#F1F1F1" points="177.5,1058.5781,259.5,1058.5781,271.5,1070.5781,259.5,1082.5781,177.5,1082.5781,165.5,1070.5781,177.5,1058.5781" style="stroke:#181818;stroke-width:0.5;"/><text fill="#000000" font-family="sans-serif" font-size="11" lengthAdjust="spacing" textLength="20" x="222.5" y="1092.7886">yes</text><text fill="#000000" font-family="sans-serif" font-size="11" lengthAdjust="spacing" textLength="82" x="177.5" y="1074.3862">notes.size()&gt;0</text><rect fill="#F1F1F1" height="47.9375" rx="12.5" ry="12.5" style="stroke:#181818;stroke-width:0.5;" width="400" x="18.5" y="1233.4648"/><text fill="#000000" font-family="sans-serif" font-size="12" lengthAdjust="spacing" textLength="380" x="28.5" y="1254.6035">return new GtileWithNoteOpale(result,notes.iterator().next(),</text><text fill="#000000" font-family="sans-serif" font-size="12" lengthAdjust="spacing" textLength="108" x="28.5" y="1268.5723">skinParam,false);</text><ellipse cx="218.5" cy="1312.4023" fill="none" rx="11" ry="11" style="stroke:#222222;stroke-width:1.0;"/><ellipse cx="218.5" cy="1312.4023" fill="#222222" rx="6" ry="6" style="stroke:#111111;stroke-width:1.0;"/><polygon fill="#F1F1F1" points="187.5,781.3203,249.5,781.3203,261.5,793.3203,249.5,805.3203,187.5,805.3203,175.5,793.3203,187.5,781.3203" style="stroke:#181818;stroke-width:0.5;"/><text fill="#000000" font-family="sans-serif" font-size="11" lengthAdjust="spacing" textLength="20" x="222.5" y="815.5308">yes</text><text fill="#000000" font-family="sans-serif" font-size="11" lengthAdjust="spacing" textLength="62" x="187.5" y="797.1284">hasNotes()</text><rect fill="#F1F1F1" height="33.9688" rx="12.5" ry="12.5" style="stroke:#181818;stroke-width:0.5;" width="103" x="167" y="1365.4023"/><text fill="#000000" font-family="sans-serif" font-size="12" lengthAdjust="spacing" textLength="83" x="177" y="1386.541">return result;</text><ellipse cx="218.5" cy="1430.3711" fill="none" rx="11" ry="11" style="stroke:#222222;stroke-width:1.0;"/><ellipse cx="218.5" cy="1430.3711" fill="#222222" rx="6" ry="6" style="stroke:#111111;stroke-width:1.0;"/><ellipse cx="218.5" cy="1461.3711" fill="none" rx="10" ry="10" style="stroke:#222222;stroke-width:1.5;"/><line style="stroke:#222222;stroke-width:2.5;" x1="212.3128" x2="224.6872" y1="1455.1839" y2="1467.5583"/><line style="stroke:#222222;stroke-width:2.5;" x1="224.6872" x2="212.3128" y1="1455.1839" y2="1467.5583"/><path d="M248.5,1481.3711 L248.5,1489.9375 L228.5,1493.9375 L248.5,1497.9375 L248.5,1506.5039 A0,0 0 0 0 248.5,1506.5039 L497.5,1506.5039 A0,0 0 0 0 497.5,1506.5039 L497.5,1491.3711 L487.5,1481.3711 L248.5,1481.3711 A0,0 0 0 0 248.5,1481.3711 " fill="#FEFFDD" style="stroke:#181818;stroke-width:0.5;"/><path d="M487.5,1481.3711 L487.5,1491.3711 L497.5,1491.3711 L487.5,1481.3711 " fill="#FEFFDD" style="stroke:#181818;stroke-width:0.5;"/><text fill="#000000" font-family="sans-serif" font-size="13" lengthAdjust="spacing" textLength="228" x="254.5" y="1498.438">Ftile createFtile(FtileFactory factory)</text><ellipse cx="218.5" cy="1493.9375" fill="#222222" rx="10" ry="10" style="stroke:#222222;stroke-width:1.0;"/><rect fill="#F1F1F1" height="47.9375" rx="12.5" ry="12.5" style="stroke:#181818;stroke-width:0.5;" width="329" x="54" y="1526.5039"/><text fill="#000000" font-family="sans-serif" font-size="12" lengthAdjust="spacing" textLength="309" x="64" y="1547.6426">Ftile result=factory.activity(label,getSwimlaneIn(),</text><text fill="#000000" font-family="sans-serif" font-size="12" lengthAdjust="spacing" textLength="152" x="64" y="1561.6113">style,colors,stereotype);</text><rect fill="#F1F1F1" height="33.9688" rx="12.5" ry="12.5" style="stroke:#181818;stroke-width:0.5;" width="224" x="106.5" y="1642.8438"/><text fill="#000000" font-family="sans-serif" font-size="12" lengthAdjust="spacing" textLength="204" x="116.5" y="1663.9824">result=factory.addUrl(result,url);</text><polygon fill="#F1F1F1" points="193,1594.4414,244,1594.4414,256,1606.4414,244,1618.4414,193,1618.4414,181,1606.4414,193,1594.4414" style="stroke:#181818;stroke-width:0.5;"/><text fill="#000000" font-family="sans-serif" font-size="11" lengthAdjust="spacing" textLength="20" x="222.5" y="1628.6519">yes</text><text fill="#000000" font-family="sans-serif" font-size="11" lengthAdjust="spacing" textLength="47" x="193" y="1610.2495">url!=null</text><polygon fill="#F1F1F1" points="218.5,1696.8125,230.5,1708.8125,218.5,1720.8125,206.5,1708.8125,218.5,1696.8125" style="stroke:#181818;stroke-width:0.5;"/><rect fill="#F1F1F1" height="47.9375" rx="12.5" ry="12.5" style="stroke:#181818;stroke-width:0.5;" width="334" x="51.5" y="1740.8125"/><text fill="#000000" font-family="sans-serif" font-size="12" lengthAdjust="spacing" textLength="255" x="61.5" y="1761.9512">result=eventuallyAddNote(factory,result,</text><text fill="#000000" font-family="sans-serif" font-size="12" lengthAdjust="spacing" textLength="314" x="61.5" y="1775.9199">result.getSwimlaneIn(),VerticalAlignment.CENTER);</text><rect fill="#F1F1F1" height="33.9688" rx="12.5" ry="12.5" style="stroke:#181818;stroke-width:0.5;" width="200" x="118.5" y="1857.1523"/><text fill="#000000" font-family="sans-serif" font-size="12" lengthAdjust="spacing" textLength="180" x="128.5" y="1878.291">return new FtileKilled(result);</text><ellipse cx="218.5" cy="1930.6367" fill="none" rx="11" ry="11" style="stroke:#222222;stroke-width:1.0;"/><ellipse cx="218.5" cy="1930.6367" fill="#222222" rx="6" ry="6" style="stroke:#111111;stroke-width:1.0;"/><polygon fill="#F1F1F1" points="204,1808.75,233,1808.75,245,1820.75,233,1832.75,204,1832.75,192,1820.75,204,1808.75" style="stroke:#181818;stroke-width:0.5;"/><text fill="#000000" font-family="sans-serif" font-size="11" lengthAdjust="spacing" textLength="20" x="222.5" y="1842.9604">yes</text><text fill="#000000" font-family="sans-serif" font-size="11" lengthAdjust="spacing" textLength="29" x="204" y="1824.5581">killed</text><rect fill="#F1F1F1" height="33.9688" rx="12.5" ry="12.5" style="stroke:#181818;stroke-width:0.5;" width="103" x="167" y="1983.6367"/><text fill="#000000" font-family="sans-serif" font-size="12" lengthAdjust="spacing" textLength="83" x="177" y="2004.7754">return result;</text><ellipse cx="218.5" cy="2048.6055" fill="none" rx="11" ry="11" style="stroke:#222222;stroke-width:1.0;"/><ellipse cx="218.5" cy="2048.6055" fill="#222222" rx="6" ry="6" style="stroke:#111111;stroke-width:1.0;"/><ellipse cx="218.5" cy="2079.6055" fill="none" rx="10" ry="10" style="stroke:#222222;stroke-width:1.5;"/><line style="stroke:#222222;stroke-width:2.5;" x1="212.3128" x2="224.6872" y1="2073.4183" y2="2085.7927"/><line style="stroke:#222222;stroke-width:2.5;" x1="224.6872" x2="212.3128" y1="2073.4183" y2="2085.7927"/><path d="M248.5,2099.6055 L248.5,2108.1719 L228.5,2112.1719 L248.5,2116.1719 L248.5,2124.7383 A0,0 0 0 0 248.5,2124.7383 L580.5,2124.7383 A0,0 0 0 0 580.5,2124.7383 L580.5,2109.6055 L570.5,2099.6055 L248.5,2099.6055 A0,0 0 0 0 248.5,2099.6055 " fill="#FEFFDD" style="stroke:#181818;stroke-width:0.5;"/><path d="M570.5,2099.6055 L570.5,2109.6055 L580.5,2109.6055 L570.5,2099.6055 " fill="#FEFFDD" style="stroke:#181818;stroke-width:0.5;"/><text fill="#000000" font-family="sans-serif" font-size="13" lengthAdjust="spacing" textLength="311" x="254.5" y="2116.6724">CommandExecutionResult add(Instruction other)</text><ellipse cx="218.5" cy="2112.1719" fill="#222222" rx="10" ry="10" style="stroke:#222222;stroke-width:1.0;"/><rect fill="#F1F1F1" height="33.9688" rx="12.5" ry="12.5" style="stroke:#181818;stroke-width:0.5;" width="307" x="65" y="2144.7383"/><text fill="#000000" font-family="sans-serif" font-size="12" lengthAdjust="spacing" textLength="287" x="75" y="2165.877">throw new UnsupportedOperationException();</text><ellipse cx="218.5" cy="2209.707" fill="none" rx="11" ry="11" style="stroke:#222222;stroke-width:1.0;"/><ellipse cx="218.5" cy="2209.707" fill="#222222" rx="6" ry="6" style="stroke:#111111;stroke-width:1.0;"/><ellipse cx="218.5" cy="2240.707" fill="none" rx="10" ry="10" style="stroke:#222222;stroke-width:1.5;"/><line style="stroke:#222222;stroke-width:2.5;" x1="212.3128" x2="224.6872" y1="2234.5198" y2="2246.8942"/><line style="stroke:#222222;stroke-width:2.5;" x1="224.6872" x2="212.3128" y1="2234.5198" y2="2246.8942"/><path d="M248.5,2260.707 L248.5,2269.2734 L228.5,2273.2734 L248.5,2277.2734 L248.5,2285.8398 A0,0 0 0 0 248.5,2285.8398 L350.5,2285.8398 A0,0 0 0 0 350.5,2285.8398 L350.5,2270.707 L340.5,2260.707 L248.5,2260.707 A0,0 0 0 0 248.5,2260.707 " fill="#FEFFDD" style="stroke:#181818;stroke-width:0.5;"/><path d="M340.5,2260.707 L340.5,2270.707 L350.5,2270.707 L340.5,2260.707 " fill="#FEFFDD" style="stroke:#181818;stroke-width:0.5;"/><text fill="#000000" font-family="sans-serif" font-size="13" lengthAdjust="spacing" textLength="81" x="254.5" y="2277.7739">boolean kill()</text><ellipse cx="218.5" cy="2273.2734" fill="#222222" rx="10" ry="10" style="stroke:#222222;stroke-width:1.0;"/><rect fill="#F1F1F1" height="33.9688" rx="12.5" ry="12.5" style="stroke:#181818;stroke-width:0.5;" width="119" x="159" y="2305.8398"/><text fill="#000000" font-family="sans-serif" font-size="12" lengthAdjust="spacing" textLength="99" x="169" y="2326.9785">this.killed=true;</text><rect fill="#F1F1F1" height="33.9688" rx="12.5" ry="12.5" style="stroke:#181818;stroke-width:0.5;" width="93" x="172" y="2359.8086"/><text fill="#000000" font-family="sans-serif" font-size="12" lengthAdjust="spacing" textLength="73" x="182" y="2380.9473">return true;</text><ellipse cx="218.5" cy="2424.7773" fill="none" rx="11" ry="11" style="stroke:#222222;stroke-width:1.0;"/><ellipse cx="218.5" cy="2424.7773" fill="#222222" rx="6" ry="6" style="stroke:#111111;stroke-width:1.0;"/><ellipse cx="218.5" cy="2455.7773" fill="none" rx="10" ry="10" style="stroke:#222222;stroke-width:1.5;"/><line style="stroke:#222222;stroke-width:2.5;" x1="212.3128" x2="224.6872" y1="2449.5902" y2="2461.9645"/><line style="stroke:#222222;stroke-width:2.5;" x1="224.6872" x2="212.3128" y1="2449.5902" y2="2461.9645"/><path d="M248.5,2475.7773 L248.5,2484.3438 L228.5,2488.3438 L248.5,2492.3438 L248.5,2500.9102 A0,0 0 0 0 248.5,2500.9102 L493.5,2500.9102 A0,0 0 0 0 493.5,2500.9102 L493.5,2485.7773 L483.5,2475.7773 L248.5,2475.7773 A0,0 0 0 0 248.5,2475.7773 " fill="#FEFFDD" style="stroke:#181818;stroke-width:0.5;"/><path d="M483.5,2475.7773 L483.5,2485.7773 L493.5,2485.7773 L483.5,2475.7773 " fill="#FEFFDD" style="stroke:#181818;stroke-width:0.5;"/><text fill="#000000" font-family="sans-serif" font-size="13" lengthAdjust="spacing" textLength="224" x="254.5" y="2492.8442">LinkRendering getInLinkRendering()</text><ellipse cx="218.5" cy="2488.3438" fill="#222222" rx="10" ry="10" style="stroke:#222222;stroke-width:1.0;"/><rect fill="#F1F1F1" height="33.9688" rx="12.5" ry="12.5" style="stroke:#181818;stroke-width:0.5;" width="163" x="137" y="2520.9102"/><text fill="#000000" font-family="sans-serif" font-size="12" lengthAdjust="spacing" textLength="143" x="147" y="2542.0488">return inlinkRendering;</text><ellipse cx="218.5" cy="2585.8789" fill="none" rx="11" ry="11" style="stroke:#222222;stroke-width:1.0;"/><ellipse cx="218.5" cy="2585.8789" fill="#222222" rx="6" ry="6" style="stroke:#111111;stroke-width:1.0;"/><ellipse cx="218.5" cy="2616.8789" fill="none" rx="10" ry="10" style="stroke:#222222;stroke-width:1.5;"/><line style="stroke:#222222;stroke-width:2.5;" x1="212.3128" x2="224.6872" y1="2610.6917" y2="2623.0661"/><line style="stroke:#222222;stroke-width:2.5;" x1="224.6872" x2="212.3128" y1="2610.6917" y2="2623.0661"/><line style="stroke:#181818;stroke-width:1.0;" x1="218.5" x2="218.5" y1="32.5664" y2="55.1328"/><polygon fill="#181818" points="214.5,45.1328,218.5,55.1328,222.5,45.1328,218.5,49.1328" style="stroke:#181818;stroke-width:1.0;"/><line style="stroke:#181818;stroke-width:1.0;" x1="218.5" x2="218.5" y1="89.1016" y2="109.1016"/><polygon fill="#181818" points="214.5,99.1016,218.5,109.1016,222.5,99.1016,218.5,103.1016" style="stroke:#181818;stroke-width:1.0;"/><line style="stroke:#181818;stroke-width:1.0;" x1="218.5" x2="218.5" y1="208.8008" y2="246.5"/><polygon fill="#181818" points="214.5,236.5,218.5,246.5,222.5,236.5,218.5,240.5" style="stroke:#181818;stroke-width:1.0;"/><line style="stroke:#181818;stroke-width:1.0;" x1="218.5" x2="218.5" y1="280.4688" y2="300.4688"/><polygon fill="#181818" points="214.5,290.4688,218.5,300.4688,222.5,290.4688,218.5,294.4688" style="stroke:#181818;stroke-width:1.0;"/><line style="stroke:#181818;stroke-width:1.0;" x1="218.5" x2="218.5" y1="334.4375" y2="354.4375"/><polygon fill="#181818" points="214.5,344.4375,218.5,354.4375,222.5,344.4375,218.5,348.4375" style="stroke:#181818;stroke-width:1.0;"/><line style="stroke:#181818;stroke-width:1.0;" x1="218.5" x2="218.5" y1="388.4063" y2="408.4063"/><polygon fill="#181818" points="214.5,398.4063,218.5,408.4063,222.5,398.4063,218.5,402.4063" style="stroke:#181818;stroke-width:1.0;"/><line style="stroke:#181818;stroke-width:1.0;" x1="218.5" x2="218.5" y1="442.375" y2="462.375"/><polygon fill="#181818" points="214.5,452.375,218.5,462.375,222.5,452.375,218.5,456.375" style="stroke:#181818;stroke-width:1.0;"/><line style="stroke:#181818;stroke-width:1.0;" x1="218.5" x2="218.5" y1="496.3438" y2="516.3438"/><polygon fill="#181818" points="214.5,506.3438,218.5,516.3438,222.5,506.3438,218.5,510.3438" style="stroke:#181818;stroke-width:1.0;"/><line style="stroke:#181818;stroke-width:1.0;" x1="218.5" x2="218.5" y1="550.3125" y2="570.3125"/><polygon fill="#181818" points="214.5,560.3125,218.5,570.3125,222.5,560.3125,218.5,564.3125" style="stroke:#181818;stroke-width:1.0;"/><line style="stroke:#181818;stroke-width:1.0;" x1="218.5" x2="218.5" y1="604.2813" y2="624.2813"/><polygon fill="#181818" points="214.5,614.2813,218.5,624.2813,222.5,614.2813,218.5,618.2813" style="stroke:#181818;stroke-width:1.0;"/><line style="stroke:#181818;stroke-width:1.0;" x1="218.5" x2="218.5" y1="676.8477" y2="699.4141"/><polygon fill="#181818" points="214.5,689.4141,218.5,699.4141,222.5,689.4141,218.5,693.4141" style="stroke:#181818;stroke-width:1.0;"/><line style="stroke:#181818;stroke-width:1.0;" x1="218.5" x2="218.5" y1="966.0625" y2="994.5781"/><polygon fill="#181818" points="214.5,984.5781,218.5,994.5781,222.5,984.5781,218.5,988.5781" style="stroke:#181818;stroke-width:1.0;"/><line style="stroke:#181818;stroke-width:1.0;" x1="218.5" x2="218.5" y1="907.6914" y2="932.0938"/><polygon fill="#181818" points="214.5,922.0938,218.5,932.0938,222.5,922.0938,218.5,926.0938" style="stroke:#181818;stroke-width:1.0;"/><line style="stroke:#181818;stroke-width:1.0;" x1="276" x2="397" y1="895.6914" y2="895.6914"/><polygon fill="#181818" points="393,964.5781,397,974.5781,401,964.5781,397,968.5781" style="stroke:#181818;stroke-width:1.0;"/><line style="stroke:#181818;stroke-width:1.0;" x1="397" x2="397" y1="895.6914" y2="1038.5781"/><line style="stroke:#181818;stroke-width:1.0;" x1="397" x2="218.5" y1="1038.5781" y2="1038.5781"/><line style="stroke:#181818;stroke-width:1.0;" x1="218.5" x2="218.5" y1="1038.5781" y2="1058.5781"/><polygon fill="#181818" points="214.5,1048.5781,218.5,1058.5781,222.5,1048.5781,218.5,1052.5781" style="stroke:#181818;stroke-width:1.0;"/><line style="stroke:#181818;stroke-width:1.0;" x1="218.5" x2="218.5" y1="863.6914" y2="883.6914"/><polygon fill="#181818" points="214.5,873.6914,218.5,883.6914,222.5,873.6914,218.5,877.6914" style="stroke:#181818;stroke-width:1.0;"/><line style="stroke:#181818;stroke-width:1.0;" x1="218.5" x2="218.5" y1="1140.9492" y2="1169.4648"/><polygon fill="#181818" points="214.5,1159.4648,218.5,1169.4648,222.5,1159.4648,218.5,1163.4648" style="stroke:#181818;stroke-width:1.0;"/><line style="stroke:#181818;stroke-width:1.0;" x1="218.5" x2="218.5" y1="1082.5781" y2="1106.9805"/><polygon fill="#181818" points="214.5,1096.9805,218.5,1106.9805,222.5,1096.9805,218.5,1100.9805" style="stroke:#181818;stroke-width:1.0;"/><line style="stroke:#181818;stroke-width:1.0;" x1="271.5" x2="400" y1="1070.5781" y2="1070.5781"/><polygon fill="#181818" points="396,1139.4648,400,1149.4648,404,1139.4648,400,1143.4648" style="stroke:#181818;stroke-width:1.0;"/><line style="stroke:#181818;stroke-width:1.0;" x1="400" x2="400" y1="1070.5781" y2="1213.4648"/><line style="stroke:#181818;stroke-width:1.0;" x1="400" x2="218.5" y1="1213.4648" y2="1213.4648"/><line style="stroke:#181818;stroke-width:1.0;" x1="218.5" x2="218.5" y1="1213.4648" y2="1233.4648"/><polygon fill="#181818" points="214.5,1223.4648,218.5,1233.4648,222.5,1223.4648,218.5,1227.4648" style="stroke:#181818;stroke-width:1.0;"/><line style="stroke:#181818;stroke-width:1.0;" x1="218.5" x2="218.5" y1="1281.4023" y2="1301.4023"/><polygon fill="#181818" points="214.5,1291.4023,218.5,1301.4023,222.5,1291.4023,218.5,1295.4023" style="stroke:#181818;stroke-width:1.0;"/><line style="stroke:#181818;stroke-width:1.0;" x1="218.5" x2="218.5" y1="805.3203" y2="829.7227"/><polygon fill="#181818" points="214.5,819.7227,218.5,829.7227,222.5,819.7227,218.5,823.7227" style="stroke:#181818;stroke-width:1.0;"/><line style="stroke:#181818;stroke-width:1.0;" x1="261.5" x2="436" y1="793.3203" y2="793.3203"/><polygon fill="#181818" points="432,1063.5625,436,1073.5625,440,1063.5625,436,1067.5625" style="stroke:#181818;stroke-width:1.0;"/><line style="stroke:#181818;stroke-width:1.0;" x1="436" x2="436" y1="793.3203" y2="1345.4023"/><line style="stroke:#181818;stroke-width:1.0;" x1="436" x2="218.5" y1="1345.4023" y2="1345.4023"/><line style="stroke:#181818;stroke-width:1.0;" x1="218.5" x2="218.5" y1="1345.4023" y2="1365.4023"/><polygon fill="#181818" points="214.5,1355.4023,218.5,1365.4023,222.5,1355.4023,218.5,1359.4023" style="stroke:#181818;stroke-width:1.0;"/><line style="stroke:#181818;stroke-width:1.0;" x1="218.5" x2="218.5" y1="761.3203" y2="781.3203"/><polygon fill="#181818" points="214.5,771.3203,218.5,781.3203,222.5,771.3203,218.5,775.3203" style="stroke:#181818;stroke-width:1.0;"/><line style="stroke:#181818;stroke-width:1.0;" x1="218.5" x2="218.5" y1="1399.3711" y2="1419.3711"/><polygon fill="#181818" points="214.5,1409.3711,218.5,1419.3711,222.5,1409.3711,218.5,1413.3711" style="stroke:#181818;stroke-width:1.0;"/><line style="stroke:#181818;stroke-width:1.0;" x1="218.5" x2="218.5" y1="1503.9375" y2="1526.5039"/><polygon fill="#181818" points="214.5,1516.5039,218.5,1526.5039,222.5,1516.5039,218.5,1520.5039" style="stroke:#181818;stroke-width:1.0;"/><line style="stroke:#181818;stroke-width:1.0;" x1="218.5" x2="218.5" y1="1618.4414" y2="1642.8438"/><polygon fill="#181818" points="214.5,1632.8438,218.5,1642.8438,222.5,1632.8438,218.5,1636.8438" style="stroke:#181818;stroke-width:1.0;"/><line style="stroke:#181818;stroke-width:1.0;" x1="256" x2="340.5" y1="1606.4414" y2="1606.4414"/><polygon fill="#181818" points="336.5,1649.8281,340.5,1659.8281,344.5,1649.8281,340.5,1653.8281" style="stroke:#181818;stroke-width:1.0;"/><line style="stroke:#181818;stroke-width:1.0;" x1="340.5" x2="340.5" y1="1606.4414" y2="1708.8125"/><line style="stroke:#181818;stroke-width:1.0;" x1="340.5" x2="230.5" y1="1708.8125" y2="1708.8125"/><polygon fill="#181818" points="240.5,1704.8125,230.5,1708.8125,240.5,1712.8125,236.5,1708.8125" style="stroke:#181818;stroke-width:1.0;"/><line style="stroke:#181818;stroke-width:1.0;" x1="218.5" x2="218.5" y1="1676.8125" y2="1696.8125"/><polygon fill="#181818" points="214.5,1686.8125,218.5,1696.8125,222.5,1686.8125,218.5,1690.8125" style="stroke:#181818;stroke-width:1.0;"/><line style="stroke:#181818;stroke-width:1.0;" x1="218.5" x2="218.5" y1="1574.4414" y2="1594.4414"/><polygon fill="#181818" points="214.5,1584.4414,218.5,1594.4414,222.5,1584.4414,218.5,1588.4414" style="stroke:#181818;stroke-width:1.0;"/><line style="stroke:#181818;stroke-width:1.0;" x1="218.5" x2="218.5" y1="1720.8125" y2="1740.8125"/><polygon fill="#181818" points="214.5,1730.8125,218.5,1740.8125,222.5,1730.8125,218.5,1734.8125" style="stroke:#181818;stroke-width:1.0;"/><line style="stroke:#181818;stroke-width:1.0;" x1="218.5" x2="218.5" y1="1891.1211" y2="1919.6367"/><polygon fill="#181818" points="214.5,1909.6367,218.5,1919.6367,222.5,1909.6367,218.5,1913.6367" style="stroke:#181818;stroke-width:1.0;"/><line style="stroke:#181818;stroke-width:1.0;" x1="218.5" x2="218.5" y1="1832.75" y2="1857.1523"/><polygon fill="#181818" points="214.5,1847.1523,218.5,1857.1523,222.5,1847.1523,218.5,1851.1523" style="stroke:#181818;stroke-width:1.0;"/><line style="stroke:#181818;stroke-width:1.0;" x1="245" x2="328.5" y1="1820.75" y2="1820.75"/><polygon fill="#181818" points="324.5,1889.6367,328.5,1899.6367,332.5,1889.6367,328.5,1893.6367" style="stroke:#181818;stroke-width:1.0;"/><line style="stroke:#181818;stroke-width:1.0;" x1="328.5" x2="328.5" y1="1820.75" y2="1963.6367"/><line style="stroke:#181818;stroke-width:1.0;" x1="328.5" x2="218.5" y1="1963.6367" y2="1963.6367"/><line style="stroke:#181818;stroke-width:1.0;" x1="218.5" x2="218.5" y1="1963.6367" y2="1983.6367"/><polygon fill="#181818" points="214.5,1973.6367,218.5,1983.6367,222.5,1973.6367,218.5,1977.6367" style="stroke:#181818;stroke-width:1.0;"/><line style="stroke:#181818;stroke-width:1.0;" x1="218.5" x2="218.5" y1="1788.75" y2="1808.75"/><polygon fill="#181818" points="214.5,1798.75,218.5,1808.75,222.5,1798.75,218.5,1802.75" style="stroke:#181818;stroke-width:1.0;"/><line style="stroke:#181818;stroke-width:1.0;" x1="218.5" x2="218.5" y1="2017.6055" y2="2037.6055"/><polygon fill="#181818" points="214.5,2027.6055,218.5,2037.6055,222.5,2027.6055,218.5,2031.6055" style="stroke:#181818;stroke-width:1.0;"/><line style="stroke:#181818;stroke-width:1.0;" x1="218.5" x2="218.5" y1="2122.1719" y2="2144.7383"/><polygon fill="#181818" points="214.5,2134.7383,218.5,2144.7383,222.5,2134.7383,218.5,2138.7383" style="stroke:#181818;stroke-width:1.0;"/><line style="stroke:#181818;stroke-width:1.0;" x1="218.5" x2="218.5" y1="2178.707" y2="2198.707"/><polygon fill="#181818" points="214.5,2188.707,218.5,2198.707,222.5,2188.707,218.5,2192.707" style="stroke:#181818;stroke-width:1.0;"/><line style="stroke:#181818;stroke-width:1.0;" x1="218.5" x2="218.5" y1="2283.2734" y2="2305.8398"/><polygon fill="#181818" points="214.5,2295.8398,218.5,2305.8398,222.5,2295.8398,218.5,2299.8398" style="stroke:#181818;stroke-width:1.0;"/><line style="stroke:#181818;stroke-width:1.0;" x1="218.5" x2="218.5" y1="2339.8086" y2="2359.8086"/><polygon fill="#181818" points="214.5,2349.8086,218.5,2359.8086,222.5,2349.8086,218.5,2353.8086" style="stroke:#181818;stroke-width:1.0;"/><line style="stroke:#181818;stroke-width:1.0;" x1="218.5" x2="218.5" y1="2393.7773" y2="2413.7773"/><polygon fill="#181818" points="214.5,2403.7773,218.5,2413.7773,222.5,2403.7773,218.5,2407.7773" style="stroke:#181818;stroke-width:1.0;"/><line style="stroke:#181818;stroke-width:1.0;" x1="218.5" x2="218.5" y1="2498.3438" y2="2520.9102"/><polygon fill="#181818" points="214.5,2510.9102,218.5,2520.9102,222.5,2510.9102,218.5,2514.9102" style="stroke:#181818;stroke-width:1.0;"/><line style="stroke:#181818;stroke-width:1.0;" x1="218.5" x2="218.5" y1="2554.8789" y2="2574.8789"/><polygon fill="#181818" points="214.5,2564.8789,218.5,2574.8789,222.5,2564.8789,218.5,2568.8789" style="stroke:#181818;stroke-width:1.0;"/><!--MD5=[0bbbcccfefb7dd04ae74533b148f8c96]
@startuml
!pragma layout smetana
start
note right
boolean containsBreak()
end note
:return false;;
stop
end
start
note right
constructor InstructionSimple(Display label,
LinkRendering inlinkRendering,Swimlane swimlane,
BoxStyle style,Url url,Colors colors,Stereotype stereotype)
end note
:super (swimlane);;
:this.stereotype=stereotype;;
:this.url=url;;
:this.style=style;;
:this.label=label;;
:this.inlinkRendering=Objects.requireNonNull(inlinkRendering);;
:this.colors=Objects.requireNonNull(colors);;
end
start
note right
Gtile createGtile(ISkinParam skinParam,StringBounder stringBounder)
end note
:GtileBox result=GtileBox.create(stringBounder,
colors.mute(skinParam),label,getSwimlaneIn(),
style,stereotype);;
if (hasNotes()) then (yes) 
:final Collection<PositionedNote> notes=getPositionedNotes();;
if (notes.size()==0) then (yes) 
:throw new UnsupportedOperationException("wip");;
stop
endif 
if (notes.size()>0) then (yes) 
:return new GtileWithNotes(result,notes,skinParam);;
stop
endif 
:return new GtileWithNoteOpale(result,notes.iterator().next(),
skinParam,false);;
stop
endif 
:return result;;
stop
end
start
note right
Ftile createFtile(FtileFactory factory)
end note
:Ftile result=factory.activity(label,getSwimlaneIn(),
style,colors,stereotype);;
if (url!=null ) then (yes) 
:result=factory.addUrl(result,url);;
endif 
:result=eventuallyAddNote(factory,result,
result.getSwimlaneIn(),VerticalAlignment.CENTER);;
if (killed) then (yes) 
:return new FtileKilled(result);;
stop
endif 
:return result;;
stop
end
start
note right
CommandExecutionResult add(Instruction other)
end note
:throw new UnsupportedOperationException();;
stop
end
start
note right
boolean kill()
end note
:this.killed=true;;
:return true;;
stop
end
start
note right
LinkRendering getInLinkRendering()
end note
:return inlinkRendering;;
stop
end
@enduml

PlantUML version 1.2022.7(Mon Aug 22 17:01:30 UTC 2022)
(GPL source distribution)
Java Runtime: OpenJDK Runtime Environment
JVM: OpenJDK 64-Bit Server VM
Default Encoding: UTF-8
Language: en
Country: null
--></g></svg>