<?xml version="1.0" encoding="UTF-8" standalone="no"?><svg xmlns="http://www.w3.org/2000/svg" xmlns:xlink="http://www.w3.org/1999/xlink" contentStyleType="text/css" height="2381px" preserveAspectRatio="none" style="width:640px;height:2381px;background:#FFFFFF;" version="1.1" viewBox="0 0 640 2381" width="640px" zoomAndPan="magnify"><defs/><g><path d="M233,10 L233,26.1328 L213,30.1328 L233,34.1328 L233,50.2656 A0,0 0 0 0 233,50.2656 L628,50.2656 A0,0 0 0 0 628,50.2656 L628,20 L618,10 L233,10 A0,0 0 0 0 233,10 " fill="#FEFFDD" style="stroke:#181818;stroke-width:0.5;"/><path d="M618,10 L618,20 L628,20 L618,10 " fill="#FEFFDD" style="stroke:#181818;stroke-width:0.5;"/><text fill="#000000" font-family="sans-serif" font-size="13" lengthAdjust="spacing" textLength="328" x="239" y="27.0669">constructor TimeMessage(TickInPlayertickInPlayer1,</text><text fill="#000000" font-family="sans-serif" font-size="13" lengthAdjust="spacing" textLength="374" x="239" y="42.1997">TickInPlayertickInPlayer2,Stringlabel,ISkinParamskinParam)</text><ellipse cx="203" cy="30.1328" fill="#222222" rx="10" ry="10" style="stroke:#222222;stroke-width:1.0;"/><rect fill="#F1F1F1" height="33.9688" rx="12.5" ry="12.5" style="stroke:#181818;stroke-width:0.5;" width="191" x="107.5" y="70.2656"/><text fill="#000000" font-family="sans-serif" font-size="12" lengthAdjust="spacing" textLength="171" x="117.5" y="91.4043">this.skinParam=skinParam;</text><rect fill="#F1F1F1" height="33.9688" rx="12.5" ry="12.5" style="stroke:#181818;stroke-width:0.5;" width="353" x="26.5" y="124.2344"/><text fill="#000000" font-family="sans-serif" font-size="12" lengthAdjust="spacing" textLength="333" x="36.5" y="145.373">this.styleBuilder=skinParam.getCurrentStyleBuilder();</text><rect fill="#F1F1F1" height="33.9688" rx="12.5" ry="12.5" style="stroke:#181818;stroke-width:0.5;" width="219" x="93.5" y="178.2031"/><text fill="#000000" font-family="sans-serif" font-size="12" lengthAdjust="spacing" textLength="199" x="103.5" y="199.3418">this.tickInPlayer1=tickInPlayer1;</text><rect fill="#F1F1F1" height="33.9688" rx="12.5" ry="12.5" style="stroke:#181818;stroke-width:0.5;" width="219" x="93.5" y="232.1719"/><text fill="#000000" font-family="sans-serif" font-size="12" lengthAdjust="spacing" textLength="199" x="103.5" y="253.3105">this.tickInPlayer2=tickInPlayer2;</text><rect fill="#F1F1F1" height="33.9688" rx="12.5" ry="12.5" style="stroke:#181818;stroke-width:0.5;" width="282" x="62" y="286.1406"/><text fill="#000000" font-family="sans-serif" font-size="12" lengthAdjust="spacing" textLength="262" x="72" y="307.2793">this.label=Display.getWithNewlines(label);</text><rect fill="#F1F1F1" height="33.9688" rx="12.5" ry="12.5" style="stroke:#181818;stroke-width:0.5;" width="224" x="91" y="340.1094"/><text fill="#000000" font-family="sans-serif" font-size="12" lengthAdjust="spacing" textLength="204" x="101" y="361.248">this.setSpecificColor(getColor());</text><rect fill="#F1F1F1" height="33.9688" rx="12.5" ry="12.5" style="stroke:#181818;stroke-width:0.5;" width="384" x="11" y="394.0781"/><text fill="#000000" font-family="sans-serif" font-size="12" lengthAdjust="spacing" textLength="364" x="21" y="415.2168">this.type=new LinkType(LinkDecor.NONE,LinkDecor.NONE);</text><ellipse cx="203" cy="458.0469" fill="none" rx="10" ry="10" style="stroke:#222222;stroke-width:1.5;"/><line style="stroke:#222222;stroke-width:2.5;" x1="196.8128" x2="209.1872" y1="451.8597" y2="464.2341"/><line style="stroke:#222222;stroke-width:2.5;" x1="209.1872" x2="196.8128" y1="451.8597" y2="464.2341"/><path d="M233,478.0469 L233,486.6133 L213,490.6133 L233,494.6133 L233,503.1797 A0,0 0 0 0 233,503.1797 L389,503.1797 A0,0 0 0 0 389,503.1797 L389,488.0469 L379,478.0469 L233,478.0469 A0,0 0 0 0 233,478.0469 " fill="#FEFFDD" style="stroke:#181818;stroke-width:0.5;"/><path d="M379,478.0469 L379,488.0469 L389,488.0469 L379,478.0469 " fill="#FEFFDD" style="stroke:#181818;stroke-width:0.5;"/><text fill="#000000" font-family="sans-serif" font-size="13" lengthAdjust="spacing" textLength="135" x="239" y="495.1138">UStrokegetUStroke()</text><ellipse cx="203" cy="490.6133" fill="#222222" rx="10" ry="10" style="stroke:#222222;stroke-width:1.0;"/><rect fill="#F1F1F1" height="33.9688" rx="12.5" ry="12.5" style="stroke:#181818;stroke-width:0.5;" width="176" x="115" y="571.582"/><text fill="#000000" font-family="sans-serif" font-size="12" lengthAdjust="spacing" textLength="156" x="125" y="592.7207">return new UStroke(1.5);</text><ellipse cx="203" cy="645.0664" fill="none" rx="11" ry="11" style="stroke:#222222;stroke-width:1.0;"/><ellipse cx="203" cy="645.0664" fill="#222222" rx="6" ry="6" style="stroke:#111111;stroke-width:1.0;"/><polygon fill="#F1F1F1" points="148.5,523.1797,257.5,523.1797,269.5,535.1797,257.5,547.1797,148.5,547.1797,136.5,535.1797,148.5,523.1797" style="stroke:#181818;stroke-width:0.5;"/><text fill="#000000" font-family="sans-serif" font-size="11" lengthAdjust="spacing" textLength="20" x="207" y="557.3901">yes</text><text fill="#000000" font-family="sans-serif" font-size="11" lengthAdjust="spacing" textLength="105" x="148.5" y="538.9878">styleBuilder==null</text><rect fill="#F1F1F1" height="33.9688" rx="12.5" ry="12.5" style="stroke:#181818;stroke-width:0.5;" width="204" x="101" y="698.0664"/><text fill="#000000" font-family="sans-serif" font-size="12" lengthAdjust="spacing" textLength="184" x="111" y="719.2051">return getStyle().getStroke();</text><ellipse cx="203" cy="763.0352" fill="none" rx="11" ry="11" style="stroke:#222222;stroke-width:1.0;"/><ellipse cx="203" cy="763.0352" fill="#222222" rx="6" ry="6" style="stroke:#111111;stroke-width:1.0;"/><ellipse cx="203" cy="794.0352" fill="none" rx="10" ry="10" style="stroke:#222222;stroke-width:1.5;"/><line style="stroke:#222222;stroke-width:2.5;" x1="196.8128" x2="209.1872" y1="787.848" y2="800.2223"/><line style="stroke:#222222;stroke-width:2.5;" x1="209.1872" x2="196.8128" y1="787.848" y2="800.2223"/><path d="M233,814.0352 L233,822.6016 L213,826.6016 L233,830.6016 L233,839.168 A0,0 0 0 0 233,839.168 L361,839.168 A0,0 0 0 0 361,839.168 L361,824.0352 L351,814.0352 L233,814.0352 A0,0 0 0 0 233,814.0352 " fill="#FEFFDD" style="stroke:#181818;stroke-width:0.5;"/><path d="M351,814.0352 L351,824.0352 L361,824.0352 L351,814.0352 " fill="#FEFFDD" style="stroke:#181818;stroke-width:0.5;"/><text fill="#000000" font-family="sans-serif" font-size="13" lengthAdjust="spacing" textLength="107" x="239" y="831.1021">HColorgetColor()</text><ellipse cx="203" cy="826.6016" fill="#222222" rx="10" ry="10" style="stroke:#222222;stroke-width:1.0;"/><rect fill="#F1F1F1" height="33.9688" rx="12.5" ry="12.5" style="stroke:#181818;stroke-width:0.5;" width="167" x="119.5" y="907.5703"/><text fill="#000000" font-family="sans-serif" font-size="12" lengthAdjust="spacing" textLength="147" x="129.5" y="928.709">return HColors.MY_RED;</text><ellipse cx="203" cy="981.0547" fill="none" rx="11" ry="11" style="stroke:#222222;stroke-width:1.0;"/><ellipse cx="203" cy="981.0547" fill="#222222" rx="6" ry="6" style="stroke:#111111;stroke-width:1.0;"/><polygon fill="#F1F1F1" points="148.5,859.168,257.5,859.168,269.5,871.168,257.5,883.168,148.5,883.168,136.5,871.168,148.5,859.168" style="stroke:#181818;stroke-width:0.5;"/><text fill="#000000" font-family="sans-serif" font-size="11" lengthAdjust="spacing" textLength="20" x="207" y="893.3784">yes</text><text fill="#000000" font-family="sans-serif" font-size="11" lengthAdjust="spacing" textLength="105" x="148.5" y="874.9761">styleBuilder==null</text><rect fill="#F1F1F1" height="47.9375" rx="12.5" ry="12.5" style="stroke:#181818;stroke-width:0.5;" width="276" x="65" y="1034.0547"/><text fill="#000000" font-family="sans-serif" font-size="12" lengthAdjust="spacing" textLength="256" x="75" y="1055.1934">return getStyle().value(PName.LineColor)</text><text fill="#000000" font-family="sans-serif" font-size="12" lengthAdjust="spacing" textLength="249" x="75" y="1069.1621">.asColor(skinParam.getIHtmlColorSet());</text><ellipse cx="203" cy="1112.9922" fill="none" rx="11" ry="11" style="stroke:#222222;stroke-width:1.0;"/><ellipse cx="203" cy="1112.9922" fill="#222222" rx="6" ry="6" style="stroke:#111111;stroke-width:1.0;"/><ellipse cx="203" cy="1143.9922" fill="none" rx="10" ry="10" style="stroke:#222222;stroke-width:1.5;"/><line style="stroke:#222222;stroke-width:2.5;" x1="196.8128" x2="209.1872" y1="1137.805" y2="1150.1794"/><line style="stroke:#222222;stroke-width:2.5;" x1="209.1872" x2="196.8128" y1="1137.805" y2="1150.1794"/><path d="M233,1163.9922 L233,1172.5586 L213,1176.5586 L233,1180.5586 L233,1189.125 A0,0 0 0 0 233,1189.125 L349,1189.125 A0,0 0 0 0 349,1189.125 L349,1173.9922 L339,1163.9922 L233,1163.9922 A0,0 0 0 0 233,1163.9922 " fill="#FEFFDD" style="stroke:#181818;stroke-width:0.5;"/><path d="M339,1163.9922 L339,1173.9922 L349,1173.9922 L339,1163.9922 " fill="#FEFFDD" style="stroke:#181818;stroke-width:0.5;"/><text fill="#000000" font-family="sans-serif" font-size="13" lengthAdjust="spacing" textLength="95" x="239" y="1181.0591">StylegetStyle()</text><ellipse cx="203" cy="1176.5586" fill="#222222" rx="10" ry="10" style="stroke:#222222;stroke-width:1.0;"/><rect fill="#F1F1F1" height="33.9688" rx="12.5" ry="12.5" style="stroke:#181818;stroke-width:0.5;" width="373" x="16.5" y="1209.125"/><text fill="#000000" font-family="sans-serif" font-size="12" lengthAdjust="spacing" textLength="353" x="26.5" y="1230.2637">return getStyleSignature().getMergedStyle(styleBuilder);</text><ellipse cx="203" cy="1274.0938" fill="none" rx="11" ry="11" style="stroke:#222222;stroke-width:1.0;"/><ellipse cx="203" cy="1274.0938" fill="#222222" rx="6" ry="6" style="stroke:#111111;stroke-width:1.0;"/><ellipse cx="203" cy="1305.0938" fill="none" rx="10" ry="10" style="stroke:#222222;stroke-width:1.5;"/><line style="stroke:#222222;stroke-width:2.5;" x1="196.8128" x2="209.1872" y1="1298.9066" y2="1311.2809"/><line style="stroke:#222222;stroke-width:2.5;" x1="209.1872" x2="196.8128" y1="1298.9066" y2="1311.2809"/><path d="M233,1325.0938 L233,1333.6602 L213,1337.6602 L233,1341.6602 L233,1350.2266 A0,0 0 0 0 233,1350.2266 L507,1350.2266 A0,0 0 0 0 507,1350.2266 L507,1335.0938 L497,1325.0938 L233,1325.0938 A0,0 0 0 0 233,1325.0938 " fill="#FEFFDD" style="stroke:#181818;stroke-width:0.5;"/><path d="M497,1325.0938 L497,1335.0938 L507,1335.0938 L497,1325.0938 " fill="#FEFFDD" style="stroke:#181818;stroke-width:0.5;"/><text fill="#000000" font-family="sans-serif" font-size="13" lengthAdjust="spacing" textLength="253" x="239" y="1342.1606">StyleSignatureBasicgetStyleSignature()</text><ellipse cx="203" cy="1337.6602" fill="#222222" rx="10" ry="10" style="stroke:#222222;stroke-width:1.0;"/><rect fill="#F1F1F1" height="47.9375" rx="12.5" ry="12.5" style="stroke:#181818;stroke-width:0.5;" width="357" x="24.5" y="1370.2266"/><text fill="#000000" font-family="sans-serif" font-size="12" lengthAdjust="spacing" textLength="266" x="34.5" y="1391.3652">return StyleSignatureBasic.of(SName.root,</text><text fill="#000000" font-family="sans-serif" font-size="12" lengthAdjust="spacing" textLength="337" x="34.5" y="1405.334">SName.element,SName.timingDiagram,SName.arrow);</text><ellipse cx="203" cy="1449.1641" fill="none" rx="11" ry="11" style="stroke:#222222;stroke-width:1.0;"/><ellipse cx="203" cy="1449.1641" fill="#222222" rx="6" ry="6" style="stroke:#111111;stroke-width:1.0;"/><ellipse cx="203" cy="1480.1641" fill="none" rx="10" ry="10" style="stroke:#222222;stroke-width:1.5;"/><line style="stroke:#222222;stroke-width:2.5;" x1="196.8128" x2="209.1872" y1="1473.9769" y2="1486.3512"/><line style="stroke:#222222;stroke-width:2.5;" x1="209.1872" x2="196.8128" y1="1473.9769" y2="1486.3512"/><path d="M233,1500.1641 L233,1508.7305 L213,1512.7305 L233,1516.7305 L233,1525.2969 A0,0 0 0 0 233,1525.2969 L371,1525.2969 A0,0 0 0 0 371,1525.2969 L371,1510.1641 L361,1500.1641 L233,1500.1641 A0,0 0 0 0 233,1500.1641 " fill="#FEFFDD" style="stroke:#181818;stroke-width:0.5;"/><path d="M361,1500.1641 L361,1510.1641 L371,1510.1641 L361,1500.1641 " fill="#FEFFDD" style="stroke:#181818;stroke-width:0.5;"/><text fill="#000000" font-family="sans-serif" font-size="13" lengthAdjust="spacing" textLength="117" x="239" y="1517.231">PlayergetPlayer1()</text><ellipse cx="203" cy="1512.7305" fill="#222222" rx="10" ry="10" style="stroke:#222222;stroke-width:1.0;"/><rect fill="#F1F1F1" height="33.9688" rx="12.5" ry="12.5" style="stroke:#181818;stroke-width:0.5;" width="219" x="93.5" y="1545.2969"/><text fill="#000000" font-family="sans-serif" font-size="12" lengthAdjust="spacing" textLength="199" x="103.5" y="1566.4355">return tickInPlayer1.getPlayer();</text><ellipse cx="203" cy="1610.2656" fill="none" rx="11" ry="11" style="stroke:#222222;stroke-width:1.0;"/><ellipse cx="203" cy="1610.2656" fill="#222222" rx="6" ry="6" style="stroke:#111111;stroke-width:1.0;"/><ellipse cx="203" cy="1641.2656" fill="none" rx="10" ry="10" style="stroke:#222222;stroke-width:1.5;"/><line style="stroke:#222222;stroke-width:2.5;" x1="196.8128" x2="209.1872" y1="1635.0784" y2="1647.4528"/><line style="stroke:#222222;stroke-width:2.5;" x1="209.1872" x2="196.8128" y1="1635.0784" y2="1647.4528"/><path d="M233,1661.2656 L233,1669.832 L213,1673.832 L233,1677.832 L233,1686.3984 A0,0 0 0 0 233,1686.3984 L371,1686.3984 A0,0 0 0 0 371,1686.3984 L371,1671.2656 L361,1661.2656 L233,1661.2656 A0,0 0 0 0 233,1661.2656 " fill="#FEFFDD" style="stroke:#181818;stroke-width:0.5;"/><path d="M361,1661.2656 L361,1671.2656 L371,1671.2656 L361,1661.2656 " fill="#FEFFDD" style="stroke:#181818;stroke-width:0.5;"/><text fill="#000000" font-family="sans-serif" font-size="13" lengthAdjust="spacing" textLength="117" x="239" y="1678.3325">PlayergetPlayer2()</text><ellipse cx="203" cy="1673.832" fill="#222222" rx="10" ry="10" style="stroke:#222222;stroke-width:1.0;"/><rect fill="#F1F1F1" height="33.9688" rx="12.5" ry="12.5" style="stroke:#181818;stroke-width:0.5;" width="219" x="93.5" y="1706.3984"/><text fill="#000000" font-family="sans-serif" font-size="12" lengthAdjust="spacing" textLength="199" x="103.5" y="1727.5371">return tickInPlayer2.getPlayer();</text><ellipse cx="203" cy="1771.3672" fill="none" rx="11" ry="11" style="stroke:#222222;stroke-width:1.0;"/><ellipse cx="203" cy="1771.3672" fill="#222222" rx="6" ry="6" style="stroke:#111111;stroke-width:1.0;"/><ellipse cx="203" cy="1802.3672" fill="none" rx="10" ry="10" style="stroke:#222222;stroke-width:1.5;"/><line style="stroke:#222222;stroke-width:2.5;" x1="196.8128" x2="209.1872" y1="1796.18" y2="1808.5544"/><line style="stroke:#222222;stroke-width:2.5;" x1="209.1872" x2="196.8128" y1="1796.18" y2="1808.5544"/><path d="M233,1822.3672 L233,1830.9336 L213,1834.9336 L233,1838.9336 L233,1847.5 A0,0 0 0 0 233,1847.5 L372,1847.5 A0,0 0 0 0 372,1847.5 L372,1832.3672 L362,1822.3672 L233,1822.3672 A0,0 0 0 0 233,1822.3672 " fill="#FEFFDD" style="stroke:#181818;stroke-width:0.5;"/><path d="M362,1822.3672 L362,1832.3672 L372,1832.3672 L362,1822.3672 " fill="#FEFFDD" style="stroke:#181818;stroke-width:0.5;"/><text fill="#000000" font-family="sans-serif" font-size="13" lengthAdjust="spacing" textLength="118" x="239" y="1839.4341">TimeTickgetTick1()</text><ellipse cx="203" cy="1834.9336" fill="#222222" rx="10" ry="10" style="stroke:#222222;stroke-width:1.0;"/><rect fill="#F1F1F1" height="33.9688" rx="12.5" ry="12.5" style="stroke:#181818;stroke-width:0.5;" width="205" x="100.5" y="1867.5"/><text fill="#000000" font-family="sans-serif" font-size="12" lengthAdjust="spacing" textLength="185" x="110.5" y="1888.6387">return tickInPlayer1.getTick();</text><ellipse cx="203" cy="1932.4688" fill="none" rx="11" ry="11" style="stroke:#222222;stroke-width:1.0;"/><ellipse cx="203" cy="1932.4688" fill="#222222" rx="6" ry="6" style="stroke:#111111;stroke-width:1.0;"/><ellipse cx="203" cy="1963.4688" fill="none" rx="10" ry="10" style="stroke:#222222;stroke-width:1.5;"/><line style="stroke:#222222;stroke-width:2.5;" x1="196.8128" x2="209.1872" y1="1957.2816" y2="1969.6559"/><line style="stroke:#222222;stroke-width:2.5;" x1="209.1872" x2="196.8128" y1="1957.2816" y2="1969.6559"/><path d="M233,1983.4688 L233,1992.0352 L213,1996.0352 L233,2000.0352 L233,2008.6016 A0,0 0 0 0 233,2008.6016 L372,2008.6016 A0,0 0 0 0 372,2008.6016 L372,1993.4688 L362,1983.4688 L233,1983.4688 A0,0 0 0 0 233,1983.4688 " fill="#FEFFDD" style="stroke:#181818;stroke-width:0.5;"/><path d="M362,1983.4688 L362,1993.4688 L372,1993.4688 L362,1983.4688 " fill="#FEFFDD" style="stroke:#181818;stroke-width:0.5;"/><text fill="#000000" font-family="sans-serif" font-size="13" lengthAdjust="spacing" textLength="118" x="239" y="2000.5356">TimeTickgetTick2()</text><ellipse cx="203" cy="1996.0352" fill="#222222" rx="10" ry="10" style="stroke:#222222;stroke-width:1.0;"/><rect fill="#F1F1F1" height="33.9688" rx="12.5" ry="12.5" style="stroke:#181818;stroke-width:0.5;" width="205" x="100.5" y="2028.6016"/><text fill="#000000" font-family="sans-serif" font-size="12" lengthAdjust="spacing" textLength="185" x="110.5" y="2049.7402">return tickInPlayer2.getTick();</text><ellipse cx="203" cy="2093.5703" fill="none" rx="11" ry="11" style="stroke:#222222;stroke-width:1.0;"/><ellipse cx="203" cy="2093.5703" fill="#222222" rx="6" ry="6" style="stroke:#111111;stroke-width:1.0;"/><ellipse cx="203" cy="2124.5703" fill="none" rx="10" ry="10" style="stroke:#222222;stroke-width:1.5;"/><line style="stroke:#222222;stroke-width:2.5;" x1="196.8128" x2="209.1872" y1="2118.3831" y2="2130.7575"/><line style="stroke:#222222;stroke-width:2.5;" x1="209.1872" x2="196.8128" y1="2118.3831" y2="2130.7575"/><path d="M233,2144.5703 L233,2153.1367 L213,2157.1367 L233,2161.1367 L233,2169.7031 A0,0 0 0 0 233,2169.7031 L365,2169.7031 A0,0 0 0 0 365,2169.7031 L365,2154.5703 L355,2144.5703 L233,2144.5703 A0,0 0 0 0 233,2144.5703 " fill="#FEFFDD" style="stroke:#181818;stroke-width:0.5;"/><path d="M355,2144.5703 L355,2154.5703 L365,2154.5703 L355,2144.5703 " fill="#FEFFDD" style="stroke:#181818;stroke-width:0.5;"/><text fill="#000000" font-family="sans-serif" font-size="13" lengthAdjust="spacing" textLength="111" x="239" y="2161.6372">DisplaygetLabel()</text><ellipse cx="203" cy="2157.1367" fill="#222222" rx="10" ry="10" style="stroke:#222222;stroke-width:1.0;"/><rect fill="#F1F1F1" height="33.9688" rx="12.5" ry="12.5" style="stroke:#181818;stroke-width:0.5;" width="97" x="154.5" y="2189.7031"/><text fill="#000000" font-family="sans-serif" font-size="12" lengthAdjust="spacing" textLength="77" x="164.5" y="2210.8418">return label;</text><ellipse cx="203" cy="2254.6719" fill="none" rx="11" ry="11" style="stroke:#222222;stroke-width:1.0;"/><ellipse cx="203" cy="2254.6719" fill="#222222" rx="6" ry="6" style="stroke:#111111;stroke-width:1.0;"/><ellipse cx="203" cy="2285.6719" fill="none" rx="10" ry="10" style="stroke:#222222;stroke-width:1.5;"/><line style="stroke:#222222;stroke-width:2.5;" x1="196.8128" x2="209.1872" y1="2279.4847" y2="2291.8591"/><line style="stroke:#222222;stroke-width:2.5;" x1="209.1872" x2="196.8128" y1="2279.4847" y2="2291.8591"/><path d="M233,2305.6719 L233,2314.2383 L213,2318.2383 L233,2322.2383 L233,2330.8047 A0,0 0 0 0 233,2330.8047 L356,2330.8047 A0,0 0 0 0 356,2330.8047 L356,2315.6719 L346,2305.6719 L233,2305.6719 A0,0 0 0 0 233,2305.6719 " fill="#FEFFDD" style="stroke:#181818;stroke-width:0.5;"/><path d="M346,2305.6719 L346,2315.6719 L356,2315.6719 L346,2305.6719 " fill="#FEFFDD" style="stroke:#181818;stroke-width:0.5;"/><text fill="#000000" font-family="sans-serif" font-size="13" lengthAdjust="spacing" textLength="102" x="239" y="2322.7388">void goNorank()</text><ellipse cx="203" cy="2318.2383" fill="#222222" rx="10" ry="10" style="stroke:#222222;stroke-width:1.0;"/><ellipse cx="203" cy="2360.8047" fill="none" rx="10" ry="10" style="stroke:#222222;stroke-width:1.5;"/><line style="stroke:#222222;stroke-width:2.5;" x1="196.8128" x2="209.1872" y1="2354.6175" y2="2366.9919"/><line style="stroke:#222222;stroke-width:2.5;" x1="209.1872" x2="196.8128" y1="2354.6175" y2="2366.9919"/><line style="stroke:#181818;stroke-width:1.0;" x1="203" x2="203" y1="40.1328" y2="70.2656"/><polygon fill="#181818" points="199,60.2656,203,70.2656,207,60.2656,203,64.2656" style="stroke:#181818;stroke-width:1.0;"/><line style="stroke:#181818;stroke-width:1.0;" x1="203" x2="203" y1="104.2344" y2="124.2344"/><polygon fill="#181818" points="199,114.2344,203,124.2344,207,114.2344,203,118.2344" style="stroke:#181818;stroke-width:1.0;"/><line style="stroke:#181818;stroke-width:1.0;" x1="203" x2="203" y1="158.2031" y2="178.2031"/><polygon fill="#181818" points="199,168.2031,203,178.2031,207,168.2031,203,172.2031" style="stroke:#181818;stroke-width:1.0;"/><line style="stroke:#181818;stroke-width:1.0;" x1="203" x2="203" y1="212.1719" y2="232.1719"/><polygon fill="#181818" points="199,222.1719,203,232.1719,207,222.1719,203,226.1719" style="stroke:#181818;stroke-width:1.0;"/><line style="stroke:#181818;stroke-width:1.0;" x1="203" x2="203" y1="266.1406" y2="286.1406"/><polygon fill="#181818" points="199,276.1406,203,286.1406,207,276.1406,203,280.1406" style="stroke:#181818;stroke-width:1.0;"/><line style="stroke:#181818;stroke-width:1.0;" x1="203" x2="203" y1="320.1094" y2="340.1094"/><polygon fill="#181818" points="199,330.1094,203,340.1094,207,330.1094,203,334.1094" style="stroke:#181818;stroke-width:1.0;"/><line style="stroke:#181818;stroke-width:1.0;" x1="203" x2="203" y1="374.0781" y2="394.0781"/><polygon fill="#181818" points="199,384.0781,203,394.0781,207,384.0781,203,388.0781" style="stroke:#181818;stroke-width:1.0;"/><line style="stroke:#181818;stroke-width:1.0;" x1="203" x2="203" y1="428.0469" y2="448.0469"/><polygon fill="#181818" points="199,438.0469,203,448.0469,207,438.0469,203,442.0469" style="stroke:#181818;stroke-width:1.0;"/><line style="stroke:#181818;stroke-width:1.0;" x1="203" x2="203" y1="605.5508" y2="634.0664"/><polygon fill="#181818" points="199,624.0664,203,634.0664,207,624.0664,203,628.0664" style="stroke:#181818;stroke-width:1.0;"/><line style="stroke:#181818;stroke-width:1.0;" x1="203" x2="203" y1="547.1797" y2="571.582"/><polygon fill="#181818" points="199,561.582,203,571.582,207,561.582,203,565.582" style="stroke:#181818;stroke-width:1.0;"/><line style="stroke:#181818;stroke-width:1.0;" x1="269.5" x2="301" y1="535.1797" y2="535.1797"/><polygon fill="#181818" points="297,604.0664,301,614.0664,305,604.0664,301,608.0664" style="stroke:#181818;stroke-width:1.0;"/><line style="stroke:#181818;stroke-width:1.0;" x1="301" x2="301" y1="535.1797" y2="678.0664"/><line style="stroke:#181818;stroke-width:1.0;" x1="301" x2="203" y1="678.0664" y2="678.0664"/><line style="stroke:#181818;stroke-width:1.0;" x1="203" x2="203" y1="678.0664" y2="698.0664"/><polygon fill="#181818" points="199,688.0664,203,698.0664,207,688.0664,203,692.0664" style="stroke:#181818;stroke-width:1.0;"/><line style="stroke:#181818;stroke-width:1.0;" x1="203" x2="203" y1="500.6133" y2="523.1797"/><polygon fill="#181818" points="199,513.1797,203,523.1797,207,513.1797,203,517.1797" style="stroke:#181818;stroke-width:1.0;"/><line style="stroke:#181818;stroke-width:1.0;" x1="203" x2="203" y1="732.0352" y2="752.0352"/><polygon fill="#181818" points="199,742.0352,203,752.0352,207,742.0352,203,746.0352" style="stroke:#181818;stroke-width:1.0;"/><line style="stroke:#181818;stroke-width:1.0;" x1="203" x2="203" y1="941.5391" y2="970.0547"/><polygon fill="#181818" points="199,960.0547,203,970.0547,207,960.0547,203,964.0547" style="stroke:#181818;stroke-width:1.0;"/><line style="stroke:#181818;stroke-width:1.0;" x1="203" x2="203" y1="883.168" y2="907.5703"/><polygon fill="#181818" points="199,897.5703,203,907.5703,207,897.5703,203,901.5703" style="stroke:#181818;stroke-width:1.0;"/><line style="stroke:#181818;stroke-width:1.0;" x1="269.5" x2="296.5" y1="871.168" y2="871.168"/><polygon fill="#181818" points="292.5,940.0547,296.5,950.0547,300.5,940.0547,296.5,944.0547" style="stroke:#181818;stroke-width:1.0;"/><line style="stroke:#181818;stroke-width:1.0;" x1="296.5" x2="296.5" y1="871.168" y2="1014.0547"/><line style="stroke:#181818;stroke-width:1.0;" x1="296.5" x2="203" y1="1014.0547" y2="1014.0547"/><line style="stroke:#181818;stroke-width:1.0;" x1="203" x2="203" y1="1014.0547" y2="1034.0547"/><polygon fill="#181818" points="199,1024.0547,203,1034.0547,207,1024.0547,203,1028.0547" style="stroke:#181818;stroke-width:1.0;"/><line style="stroke:#181818;stroke-width:1.0;" x1="203" x2="203" y1="836.6016" y2="859.168"/><polygon fill="#181818" points="199,849.168,203,859.168,207,849.168,203,853.168" style="stroke:#181818;stroke-width:1.0;"/><line style="stroke:#181818;stroke-width:1.0;" x1="203" x2="203" y1="1081.9922" y2="1101.9922"/><polygon fill="#181818" points="199,1091.9922,203,1101.9922,207,1091.9922,203,1095.9922" style="stroke:#181818;stroke-width:1.0;"/><line style="stroke:#181818;stroke-width:1.0;" x1="203" x2="203" y1="1186.5586" y2="1209.125"/><polygon fill="#181818" points="199,1199.125,203,1209.125,207,1199.125,203,1203.125" style="stroke:#181818;stroke-width:1.0;"/><line style="stroke:#181818;stroke-width:1.0;" x1="203" x2="203" y1="1243.0938" y2="1263.0938"/><polygon fill="#181818" points="199,1253.0938,203,1263.0938,207,1253.0938,203,1257.0938" style="stroke:#181818;stroke-width:1.0;"/><line style="stroke:#181818;stroke-width:1.0;" x1="203" x2="203" y1="1347.6602" y2="1370.2266"/><polygon fill="#181818" points="199,1360.2266,203,1370.2266,207,1360.2266,203,1364.2266" style="stroke:#181818;stroke-width:1.0;"/><line style="stroke:#181818;stroke-width:1.0;" x1="203" x2="203" y1="1418.1641" y2="1438.1641"/><polygon fill="#181818" points="199,1428.1641,203,1438.1641,207,1428.1641,203,1432.1641" style="stroke:#181818;stroke-width:1.0;"/><line style="stroke:#181818;stroke-width:1.0;" x1="203" x2="203" y1="1522.7305" y2="1545.2969"/><polygon fill="#181818" points="199,1535.2969,203,1545.2969,207,1535.2969,203,1539.2969" style="stroke:#181818;stroke-width:1.0;"/><line style="stroke:#181818;stroke-width:1.0;" x1="203" x2="203" y1="1579.2656" y2="1599.2656"/><polygon fill="#181818" points="199,1589.2656,203,1599.2656,207,1589.2656,203,1593.2656" style="stroke:#181818;stroke-width:1.0;"/><line style="stroke:#181818;stroke-width:1.0;" x1="203" x2="203" y1="1683.832" y2="1706.3984"/><polygon fill="#181818" points="199,1696.3984,203,1706.3984,207,1696.3984,203,1700.3984" style="stroke:#181818;stroke-width:1.0;"/><line style="stroke:#181818;stroke-width:1.0;" x1="203" x2="203" y1="1740.3672" y2="1760.3672"/><polygon fill="#181818" points="199,1750.3672,203,1760.3672,207,1750.3672,203,1754.3672" style="stroke:#181818;stroke-width:1.0;"/><line style="stroke:#181818;stroke-width:1.0;" x1="203" x2="203" y1="1844.9336" y2="1867.5"/><polygon fill="#181818" points="199,1857.5,203,1867.5,207,1857.5,203,1861.5" style="stroke:#181818;stroke-width:1.0;"/><line style="stroke:#181818;stroke-width:1.0;" x1="203" x2="203" y1="1901.4688" y2="1921.4688"/><polygon fill="#181818" points="199,1911.4688,203,1921.4688,207,1911.4688,203,1915.4688" style="stroke:#181818;stroke-width:1.0;"/><line style="stroke:#181818;stroke-width:1.0;" x1="203" x2="203" y1="2006.0352" y2="2028.6016"/><polygon fill="#181818" points="199,2018.6016,203,2028.6016,207,2018.6016,203,2022.6016" style="stroke:#181818;stroke-width:1.0;"/><line style="stroke:#181818;stroke-width:1.0;" x1="203" x2="203" y1="2062.5703" y2="2082.5703"/><polygon fill="#181818" points="199,2072.5703,203,2082.5703,207,2072.5703,203,2076.5703" style="stroke:#181818;stroke-width:1.0;"/><line style="stroke:#181818;stroke-width:1.0;" x1="203" x2="203" y1="2167.1367" y2="2189.7031"/><polygon fill="#181818" points="199,2179.7031,203,2189.7031,207,2179.7031,203,2183.7031" style="stroke:#181818;stroke-width:1.0;"/><line style="stroke:#181818;stroke-width:1.0;" x1="203" x2="203" y1="2223.6719" y2="2243.6719"/><polygon fill="#181818" points="199,2233.6719,203,2243.6719,207,2233.6719,203,2237.6719" style="stroke:#181818;stroke-width:1.0;"/><line style="stroke:#181818;stroke-width:1.0;" x1="203" x2="203" y1="2328.2383" y2="2350.8047"/><polygon fill="#181818" points="199,2340.8047,203,2350.8047,207,2340.8047,203,2344.8047" style="stroke:#181818;stroke-width:1.0;"/><!--MD5=[18339929fa5f578cac19e5d2d22478e3]
@startuml
!pragma layout smetana
start
note right
constructor TimeMessage(TickInPlayertickInPlayer1,
TickInPlayertickInPlayer2,Stringlabel,ISkinParamskinParam)
end note
:this.skinParam=skinParam;;
:this.styleBuilder=skinParam.getCurrentStyleBuilder();;
:this.tickInPlayer1=tickInPlayer1;;
:this.tickInPlayer2=tickInPlayer2;;
:this.label=Display.getWithNewlines(label);;
:this.setSpecificColor(getColor());;
:this.type=new LinkType(LinkDecor.NONE,LinkDecor.NONE);;
end
start
note right
UStrokegetUStroke()
end note
if (styleBuilder==null ) then (yes) 
:return new UStroke(1.5);;
stop
endif 
:return getStyle().getStroke();;
stop
end
start
note right
HColorgetColor()
end note
if (styleBuilder==null ) then (yes) 
:return HColors.MY_RED;;
stop
endif 
:return getStyle().value(PName.LineColor)
.asColor(skinParam.getIHtmlColorSet());;
stop
end
start
note right
StylegetStyle()
end note
:return getStyleSignature().getMergedStyle(styleBuilder);;
stop
end
start
note right
StyleSignatureBasicgetStyleSignature()
end note
:return StyleSignatureBasic.of(SName.root,
SName.element,SName.timingDiagram,SName.arrow);;
stop
end
start
note right
PlayergetPlayer1()
end note
:return tickInPlayer1.getPlayer();;
stop
end
start
note right
PlayergetPlayer2()
end note
:return tickInPlayer2.getPlayer();;
stop
end
start
note right
TimeTickgetTick1()
end note
:return tickInPlayer1.getTick();;
stop
end
start
note right
TimeTickgetTick2()
end note
:return tickInPlayer2.getTick();;
stop
end
start
note right
DisplaygetLabel()
end note
:return label;;
stop
end
start
note right
void goNorank()
end note
end
@enduml

PlantUML version 1.2022.7(Mon Aug 22 17:01:30 UTC 2022)
(GPL source distribution)
Java Runtime: OpenJDK Runtime Environment
JVM: OpenJDK 64-Bit Server VM
Default Encoding: UTF-8
Language: en
Country: null
--></g></svg>