<?xml version="1.0" encoding="UTF-8" standalone="no"?><svg xmlns="http://www.w3.org/2000/svg" xmlns:xlink="http://www.w3.org/1999/xlink" contentStyleType="text/css" height="2390px" preserveAspectRatio="none" style="width:624px;height:2390px;background:#FFFFFF;" version="1.1" viewBox="0 0 624 2390" width="624px" zoomAndPan="magnify"><defs/><g><path d="M292.5,10 L292.5,26.1328 L272.5,30.1328 L292.5,34.1328 L292.5,50.2656 A0,0 0 0 0 292.5,50.2656 L609.5,50.2656 A0,0 0 0 0 609.5,50.2656 L609.5,20 L599.5,10 L292.5,10 A0,0 0 0 0 292.5,10 " fill="#FEFFDD" style="stroke:#181818;stroke-width:0.5;"/><path d="M599.5,10 L599.5,20 L609.5,20 L599.5,10 " fill="#FEFFDD" style="stroke:#181818;stroke-width:0.5;"/><text fill="#000000" font-family="sans-serif" font-size="13" lengthAdjust="spacing" textLength="296" x="298.5" y="27.0669">PSystemXearthinitDiagram(UmlSourcesource,</text><text fill="#000000" font-family="sans-serif" font-size="13" lengthAdjust="spacing" textLength="99" x="298.5" y="42.1997">StringstartLine)</text><ellipse cx="262.5" cy="30.1328" fill="#222222" rx="10" ry="10" style="stroke:#222222;stroke-width:1.0;"/><rect fill="#F1F1F1" height="33.9688" rx="12.5" ry="12.5" style="stroke:#181818;stroke-width:0.5;" width="118" x="203.5" y="70.2656"/><text fill="#000000" font-family="sans-serif" font-size="12" lengthAdjust="spacing" textLength="98" x="213.5" y="91.4043">this.width=512;</text><rect fill="#F1F1F1" height="33.9688" rx="12.5" ry="12.5" style="stroke:#181818;stroke-width:0.5;" width="125" x="200" y="124.2344"/><text fill="#000000" font-family="sans-serif" font-size="12" lengthAdjust="spacing" textLength="105" x="210" y="145.373">this.height=512;</text><rect fill="#F1F1F1" height="33.9688" rx="12.5" ry="12.5" style="stroke:#181818;stroke-width:0.5;" width="134" x="195.5" y="178.2031"/><text fill="#000000" font-family="sans-serif" font-size="12" lengthAdjust="spacing" textLength="114" x="205.5" y="199.3418">this.config.clear();</text><rect fill="#F1F1F1" height="33.9688" rx="12.5" ry="12.5" style="stroke:#181818;stroke-width:0.5;" width="147" x="189" y="232.1719"/><text fill="#000000" font-family="sans-serif" font-size="12" lengthAdjust="spacing" textLength="127" x="199" y="253.3105">this.markers.clear();</text><rect fill="#F1F1F1" height="33.9688" rx="12.5" ry="12.5" style="stroke:#181818;stroke-width:0.5;" width="93" x="216" y="286.1406"/><text fill="#000000" font-family="sans-serif" font-size="12" lengthAdjust="spacing" textLength="73" x="226" y="307.2793">return null ;</text><ellipse cx="262.5" cy="351.1094" fill="none" rx="11" ry="11" style="stroke:#222222;stroke-width:1.0;"/><ellipse cx="262.5" cy="351.1094" fill="#222222" rx="6" ry="6" style="stroke:#111111;stroke-width:1.0;"/><ellipse cx="262.5" cy="382.1094" fill="none" rx="10" ry="10" style="stroke:#222222;stroke-width:1.5;"/><line style="stroke:#222222;stroke-width:2.5;" x1="256.3128" x2="268.6872" y1="375.9222" y2="388.2966"/><line style="stroke:#222222;stroke-width:2.5;" x1="268.6872" x2="256.3128" y1="375.9222" y2="388.2966"/><path d="M292.5,402.1094 L292.5,410.6758 L272.5,414.6758 L292.5,418.6758 L292.5,427.2422 A0,0 0 0 0 292.5,427.2422 L560.5,427.2422 A0,0 0 0 0 560.5,427.2422 L560.5,412.1094 L550.5,402.1094 L292.5,402.1094 A0,0 0 0 0 292.5,402.1094 " fill="#FEFFDD" style="stroke:#181818;stroke-width:0.5;"/><path d="M550.5,402.1094 L550.5,412.1094 L560.5,412.1094 L550.5,402.1094 " fill="#FEFFDD" style="stroke:#181818;stroke-width:0.5;"/><text fill="#000000" font-family="sans-serif" font-size="13" lengthAdjust="spacing" textLength="247" x="298.5" y="419.1763">void extractDimension(StringstartLine)</text><ellipse cx="262.5" cy="414.6758" fill="#222222" rx="10" ry="10" style="stroke:#222222;stroke-width:1.0;"/><rect fill="#F1F1F1" height="47.9375" rx="12.5" ry="12.5" style="stroke:#181818;stroke-width:0.5;" width="284" x="120.5" y="447.2422"/><text fill="#000000" font-family="sans-serif" font-size="12" lengthAdjust="spacing" textLength="264" x="130.5" y="468.3809">final Pattern2p=MyPattern.cmpile("\\((\\d+</text><text fill="#000000" font-family="sans-serif" font-size="12" lengthAdjust="spacing" textLength="72" x="130.5" y="482.3496">),(\\d+)\\)");</text><rect fill="#F1F1F1" height="33.9688" rx="12.5" ry="12.5" style="stroke:#181818;stroke-width:0.5;" width="263" x="131" y="515.1797"/><text fill="#000000" font-family="sans-serif" font-size="12" lengthAdjust="spacing" textLength="243" x="141" y="536.3184">final Matcher2m=p.matcher(startLine);</text><rect fill="#F1F1F1" height="33.9688" rx="12.5" ry="12.5" style="stroke:#181818;stroke-width:0.5;" width="178" x="173.5" y="569.1484"/><text fill="#000000" font-family="sans-serif" font-size="12" lengthAdjust="spacing" textLength="158" x="183.5" y="590.2871">final booleanok=m.find();</text><rect fill="#F1F1F1" height="33.9688" rx="12.5" ry="12.5" style="stroke:#181818;stroke-width:0.5;" width="248" x="138.5" y="671.5195"/><text fill="#000000" font-family="sans-serif" font-size="12" lengthAdjust="spacing" textLength="228" x="148.5" y="692.6582">width=Integer.parseInt(m.group(1));</text><rect fill="#F1F1F1" height="33.9688" rx="12.5" ry="12.5" style="stroke:#181818;stroke-width:0.5;" width="255" x="135" y="740.4883"/><text fill="#000000" font-family="sans-serif" font-size="12" lengthAdjust="spacing" textLength="235" x="145" y="761.627">height=Integer.parseInt(m.group(2));</text><polygon fill="#F1F1F1" points="250.5,623.1172,274.5,623.1172,286.5,635.1172,274.5,647.1172,250.5,647.1172,238.5,635.1172,250.5,623.1172" style="stroke:#181818;stroke-width:0.5;"/><text fill="#000000" font-family="sans-serif" font-size="11" lengthAdjust="spacing" textLength="20" x="266.5" y="657.3276">yes</text><text fill="#000000" font-family="sans-serif" font-size="11" lengthAdjust="spacing" textLength="13" x="256" y="638.9253">ok</text><polygon fill="#F1F1F1" points="262.5,794.457,274.5,806.457,262.5,818.457,250.5,806.457,262.5,794.457" style="stroke:#181818;stroke-width:0.5;"/><ellipse cx="262.5" cy="848.457" fill="none" rx="10" ry="10" style="stroke:#222222;stroke-width:1.5;"/><line style="stroke:#222222;stroke-width:2.5;" x1="256.3128" x2="268.6872" y1="842.2698" y2="854.6442"/><line style="stroke:#222222;stroke-width:2.5;" x1="268.6872" x2="256.3128" y1="842.2698" y2="854.6442"/><path d="M292.5,868.457 L292.5,884.5898 L272.5,888.5898 L292.5,892.5898 L292.5,908.7227 A0,0 0 0 0 292.5,908.7227 L612.5,908.7227 A0,0 0 0 0 612.5,908.7227 L612.5,878.457 L602.5,868.457 L292.5,868.457 A0,0 0 0 0 292.5,868.457 " fill="#FEFFDD" style="stroke:#181818;stroke-width:0.5;"/><path d="M602.5,868.457 L602.5,878.457 L612.5,878.457 L602.5,868.457 " fill="#FEFFDD" style="stroke:#181818;stroke-width:0.5;"/><text fill="#000000" font-family="sans-serif" font-size="13" lengthAdjust="spacing" textLength="299" x="298.5" y="885.5239">PSystemXearthexecuteLine(UmlSourcesource,</text><text fill="#000000" font-family="sans-serif" font-size="13" lengthAdjust="spacing" textLength="215" x="298.5" y="900.6567">PSystemXearthsystem,Stringline)</text><ellipse cx="262.5" cy="888.5898" fill="#222222" rx="10" ry="10" style="stroke:#222222;stroke-width:1.0;"/><rect fill="#F1F1F1" height="33.9688" rx="12.5" ry="12.5" style="stroke:#181818;stroke-width:0.5;" width="165" x="180" y="977.125"/><text fill="#000000" font-family="sans-serif" font-size="12" lengthAdjust="spacing" textLength="145" x="190" y="998.2637">extractDimension(line);</text><rect fill="#F1F1F1" height="47.9375" rx="12.5" ry="12.5" style="stroke:#181818;stroke-width:0.5;" width="330" x="97.5" y="1031.0938"/><text fill="#000000" font-family="sans-serif" font-size="12" lengthAdjust="spacing" textLength="310" x="107.5" y="1052.2324">system=new PSystemXearth(source,width,height,</text><text fill="#000000" font-family="sans-serif" font-size="12" lengthAdjust="spacing" textLength="102" x="107.5" y="1066.2012">config,markers);</text><rect fill="#F1F1F1" height="33.9688" rx="12.5" ry="12.5" style="stroke:#181818;stroke-width:0.5;" width="111" x="207" y="1100.5625"/><text fill="#000000" font-family="sans-serif" font-size="12" lengthAdjust="spacing" textLength="91" x="217" y="1121.7012">return system;</text><ellipse cx="262.5" cy="1165.5313" fill="none" rx="11" ry="11" style="stroke:#222222;stroke-width:1.0;"/><ellipse cx="262.5" cy="1165.5313" fill="#222222" rx="6" ry="6" style="stroke:#111111;stroke-width:1.0;"/><polygon fill="#F1F1F1" points="143,928.7227,382,928.7227,394,940.7227,382,952.7227,143,952.7227,131,940.7227,143,928.7227" style="stroke:#181818;stroke-width:0.5;"/><text fill="#000000" font-family="sans-serif" font-size="11" lengthAdjust="spacing" textLength="20" x="266.5" y="962.9331">yes</text><text fill="#000000" font-family="sans-serif" font-size="11" lengthAdjust="spacing" textLength="239" x="143" y="944.5308">system==null &amp;&amp;line.startsWith("xearth")</text><rect fill="#F1F1F1" height="33.9688" rx="12.5" ry="12.5" style="stroke:#181818;stroke-width:0.5;" width="93" x="216" y="1266.9336"/><text fill="#000000" font-family="sans-serif" font-size="12" lengthAdjust="spacing" textLength="73" x="226" y="1288.0723">return null ;</text><ellipse cx="262.5" cy="1340.418" fill="none" rx="11" ry="11" style="stroke:#222222;stroke-width:1.0;"/><ellipse cx="262.5" cy="1340.418" fill="#222222" rx="6" ry="6" style="stroke:#111111;stroke-width:1.0;"/><polygon fill="#F1F1F1" points="220.5,1218.5313,304.5,1218.5313,316.5,1230.5313,304.5,1242.5313,220.5,1242.5313,208.5,1230.5313,220.5,1218.5313" style="stroke:#181818;stroke-width:0.5;"/><text fill="#000000" font-family="sans-serif" font-size="11" lengthAdjust="spacing" textLength="20" x="266.5" y="1252.7417">yes</text><text fill="#000000" font-family="sans-serif" font-size="11" lengthAdjust="spacing" textLength="80" x="220.5" y="1234.3394">system==null</text><rect fill="#F1F1F1" height="33.9688" rx="12.5" ry="12.5" style="stroke:#181818;stroke-width:0.5;" width="111" x="207" y="1441.8203"/><text fill="#000000" font-family="sans-serif" font-size="12" lengthAdjust="spacing" textLength="91" x="217" y="1462.959">return system;</text><ellipse cx="262.5" cy="1515.3047" fill="none" rx="11" ry="11" style="stroke:#222222;stroke-width:1.0;"/><ellipse cx="262.5" cy="1515.3047" fill="#222222" rx="6" ry="6" style="stroke:#111111;stroke-width:1.0;"/><polygon fill="#F1F1F1" points="153.5,1393.418,371.5,1393.418,383.5,1405.418,371.5,1417.418,153.5,1417.418,141.5,1405.418,153.5,1393.418" style="stroke:#181818;stroke-width:0.5;"/><text fill="#000000" font-family="sans-serif" font-size="11" lengthAdjust="spacing" textLength="20" x="266.5" y="1427.6284">yes</text><text fill="#000000" font-family="sans-serif" font-size="11" lengthAdjust="spacing" textLength="218" x="153.5" y="1409.2261">line.startsWith("#")||line.startsWith("'")</text><rect fill="#F1F1F1" height="33.9688" rx="12.5" ry="12.5" style="stroke:#181818;stroke-width:0.5;" width="385" x="70" y="1568.3047"/><text fill="#000000" font-family="sans-serif" font-size="12" lengthAdjust="spacing" textLength="365" x="80" y="1589.4434">final Pattern2p=MyPattern.cmpile("(\w+)[%s]*=[%s]*(.*)");</text><rect fill="#F1F1F1" height="33.9688" rx="12.5" ry="12.5" style="stroke:#181818;stroke-width:0.5;" width="230" x="147.5" y="1622.2734"/><text fill="#000000" font-family="sans-serif" font-size="12" lengthAdjust="spacing" textLength="210" x="157.5" y="1643.4121">final Matcher2m=p.matcher(line);</text><rect fill="#F1F1F1" height="33.9688" rx="12.5" ry="12.5" style="stroke:#181818;stroke-width:0.5;" width="241" x="142" y="1724.6445"/><text fill="#000000" font-family="sans-serif" font-size="12" lengthAdjust="spacing" textLength="221" x="152" y="1745.7832">config.put(m.group(1),m.group(2));</text><rect fill="#F1F1F1" height="33.9688" rx="12.5" ry="12.5" style="stroke:#181818;stroke-width:0.5;" width="111" x="207" y="1778.6133"/><text fill="#000000" font-family="sans-serif" font-size="12" lengthAdjust="spacing" textLength="91" x="217" y="1799.752">return system;</text><ellipse cx="262.5" cy="1843.582" fill="none" rx="11" ry="11" style="stroke:#222222;stroke-width:1.0;"/><ellipse cx="262.5" cy="1843.582" fill="#222222" rx="6" ry="6" style="stroke:#111111;stroke-width:1.0;"/><polygon fill="#F1F1F1" points="240.5,1676.2422,284.5,1676.2422,296.5,1688.2422,284.5,1700.2422,240.5,1700.2422,228.5,1688.2422,240.5,1676.2422" style="stroke:#181818;stroke-width:0.5;"/><text fill="#000000" font-family="sans-serif" font-size="11" lengthAdjust="spacing" textLength="20" x="266.5" y="1710.4526">yes</text><text fill="#000000" font-family="sans-serif" font-size="11" lengthAdjust="spacing" textLength="44" x="240.5" y="1692.0503">m.find()</text><polygon fill="#F1F1F1" points="221.5,1896.582,303.5,1896.582,315.5,1908.582,303.5,1920.582,221.5,1920.582,209.5,1908.582,221.5,1896.582" style="stroke:#181818;stroke-width:0.5;"/><text fill="#000000" font-family="sans-serif" font-size="11" lengthAdjust="spacing" textLength="82" x="221.5" y="1912.3901">try/catch block</text><rect fill="#F1F1F1" height="33.9688" rx="12.5" ry="12.5" style="stroke:#181818;stroke-width:0.5;" width="321" x="11" y="1956.1914"/><text fill="#000000" font-family="sans-serif" font-size="12" lengthAdjust="spacing" textLength="301" x="21" y="1977.3301">final Markermarker=Marker.loadMarkerFile(line);</text><rect fill="#F1F1F1" height="33.9688" rx="12.5" ry="12.5" style="stroke:#181818;stroke-width:0.5;" width="157" x="93" y="2058.5625"/><text fill="#000000" font-family="sans-serif" font-size="12" lengthAdjust="spacing" textLength="137" x="103" y="2079.7012">markers.add(marker);</text><rect fill="#F1F1F1" height="33.9688" rx="12.5" ry="12.5" style="stroke:#181818;stroke-width:0.5;" width="111" x="116" y="2121.1289"/><text fill="#000000" font-family="sans-serif" font-size="12" lengthAdjust="spacing" textLength="91" x="126" y="2142.2676">return system;</text><ellipse cx="171.5" cy="2186.0977" fill="none" rx="11" ry="11" style="stroke:#222222;stroke-width:1.0;"/><ellipse cx="171.5" cy="2186.0977" fill="#222222" rx="6" ry="6" style="stroke:#111111;stroke-width:1.0;"/><polygon fill="#F1F1F1" points="133,2010.1602,210,2010.1602,222,2022.1602,210,2034.1602,133,2034.1602,121,2022.1602,133,2010.1602" style="stroke:#181818;stroke-width:0.5;"/><text fill="#000000" font-family="sans-serif" font-size="11" lengthAdjust="spacing" textLength="20" x="175.5" y="2044.3706">yes</text><text fill="#000000" font-family="sans-serif" font-size="11" lengthAdjust="spacing" textLength="73" x="133" y="2025.9683">marker!=null</text><rect fill="#F1F1F1" height="33.9688" rx="12.5" ry="12.5" style="stroke:#181818;stroke-width:0.5;" width="118" x="352" y="1956.1914"/><text fill="#000000" font-family="sans-serif" font-size="12" lengthAdjust="spacing" textLength="98" x="362" y="1977.3301">Logme.error(e);</text><rect fill="#F1F1F1" height="33.9688" rx="12.5" ry="12.5" style="stroke:#181818;stroke-width:0.5;" width="93" x="364.5" y="2010.1602"/><text fill="#000000" font-family="sans-serif" font-size="12" lengthAdjust="spacing" textLength="73" x="374.5" y="2031.2988">return null ;</text><ellipse cx="411" cy="2090.1289" fill="none" rx="11" ry="11" style="stroke:#222222;stroke-width:1.0;"/><ellipse cx="411" cy="2090.1289" fill="#222222" rx="6" ry="6" style="stroke:#111111;stroke-width:1.0;"/><polygon fill="#F1F1F1" points="262.5,2229.0977,262.5,2229.0977,274.5,2241.0977,262.5,2253.0977,262.5,2253.0977,250.5,2241.0977,262.5,2229.0977" style="stroke:#181818;stroke-width:0.5;"/><rect fill="#F1F1F1" height="33.9688" rx="12.5" ry="12.5" style="stroke:#181818;stroke-width:0.5;" width="93" x="216" y="2273.0977"/><text fill="#000000" font-family="sans-serif" font-size="12" lengthAdjust="spacing" textLength="73" x="226" y="2294.2363">return null ;</text><ellipse cx="262.5" cy="2338.0664" fill="none" rx="11" ry="11" style="stroke:#222222;stroke-width:1.0;"/><ellipse cx="262.5" cy="2338.0664" fill="#222222" rx="6" ry="6" style="stroke:#111111;stroke-width:1.0;"/><ellipse cx="262.5" cy="2369.0664" fill="none" rx="10" ry="10" style="stroke:#222222;stroke-width:1.5;"/><line style="stroke:#222222;stroke-width:2.5;" x1="256.3128" x2="268.6872" y1="2362.8792" y2="2375.2536"/><line style="stroke:#222222;stroke-width:2.5;" x1="268.6872" x2="256.3128" y1="2362.8792" y2="2375.2536"/><line style="stroke:#181818;stroke-width:1.0;" x1="262.5" x2="262.5" y1="40.1328" y2="70.2656"/><polygon fill="#181818" points="258.5,60.2656,262.5,70.2656,266.5,60.2656,262.5,64.2656" style="stroke:#181818;stroke-width:1.0;"/><line style="stroke:#181818;stroke-width:1.0;" x1="262.5" x2="262.5" y1="104.2344" y2="124.2344"/><polygon fill="#181818" points="258.5,114.2344,262.5,124.2344,266.5,114.2344,262.5,118.2344" style="stroke:#181818;stroke-width:1.0;"/><line style="stroke:#181818;stroke-width:1.0;" x1="262.5" x2="262.5" y1="158.2031" y2="178.2031"/><polygon fill="#181818" points="258.5,168.2031,262.5,178.2031,266.5,168.2031,262.5,172.2031" style="stroke:#181818;stroke-width:1.0;"/><line style="stroke:#181818;stroke-width:1.0;" x1="262.5" x2="262.5" y1="212.1719" y2="232.1719"/><polygon fill="#181818" points="258.5,222.1719,262.5,232.1719,266.5,222.1719,262.5,226.1719" style="stroke:#181818;stroke-width:1.0;"/><line style="stroke:#181818;stroke-width:1.0;" x1="262.5" x2="262.5" y1="266.1406" y2="286.1406"/><polygon fill="#181818" points="258.5,276.1406,262.5,286.1406,266.5,276.1406,262.5,280.1406" style="stroke:#181818;stroke-width:1.0;"/><line style="stroke:#181818;stroke-width:1.0;" x1="262.5" x2="262.5" y1="320.1094" y2="340.1094"/><polygon fill="#181818" points="258.5,330.1094,262.5,340.1094,266.5,330.1094,262.5,334.1094" style="stroke:#181818;stroke-width:1.0;"/><line style="stroke:#181818;stroke-width:1.0;" x1="262.5" x2="262.5" y1="424.6758" y2="447.2422"/><polygon fill="#181818" points="258.5,437.2422,262.5,447.2422,266.5,437.2422,262.5,441.2422" style="stroke:#181818;stroke-width:1.0;"/><line style="stroke:#181818;stroke-width:1.0;" x1="262.5" x2="262.5" y1="495.1797" y2="515.1797"/><polygon fill="#181818" points="258.5,505.1797,262.5,515.1797,266.5,505.1797,262.5,509.1797" style="stroke:#181818;stroke-width:1.0;"/><line style="stroke:#181818;stroke-width:1.0;" x1="262.5" x2="262.5" y1="549.1484" y2="569.1484"/><polygon fill="#181818" points="258.5,559.1484,262.5,569.1484,266.5,559.1484,262.5,563.1484" style="stroke:#181818;stroke-width:1.0;"/><line style="stroke:#181818;stroke-width:1.0;" x1="262.5" x2="262.5" y1="705.4883" y2="740.4883"/><polygon fill="#181818" points="258.5,730.4883,262.5,740.4883,266.5,730.4883,262.5,734.4883" style="stroke:#181818;stroke-width:1.0;"/><line style="stroke:#181818;stroke-width:1.0;" x1="262.5" x2="262.5" y1="647.1172" y2="671.5195"/><polygon fill="#181818" points="258.5,661.5195,262.5,671.5195,266.5,661.5195,262.5,665.5195" style="stroke:#181818;stroke-width:1.0;"/><line style="stroke:#181818;stroke-width:1.0;" x1="286.5" x2="400" y1="635.1172" y2="635.1172"/><polygon fill="#181818" points="396,712.9883,400,722.9883,404,712.9883,400,716.9883" style="stroke:#181818;stroke-width:1.0;"/><line style="stroke:#181818;stroke-width:1.0;" x1="400" x2="400" y1="635.1172" y2="806.457"/><line style="stroke:#181818;stroke-width:1.0;" x1="400" x2="274.5" y1="806.457" y2="806.457"/><polygon fill="#181818" points="284.5,802.457,274.5,806.457,284.5,810.457,280.5,806.457" style="stroke:#181818;stroke-width:1.0;"/><line style="stroke:#181818;stroke-width:1.0;" x1="262.5" x2="262.5" y1="774.457" y2="794.457"/><polygon fill="#181818" points="258.5,784.457,262.5,794.457,266.5,784.457,262.5,788.457" style="stroke:#181818;stroke-width:1.0;"/><line style="stroke:#181818;stroke-width:1.0;" x1="262.5" x2="262.5" y1="603.1172" y2="623.1172"/><polygon fill="#181818" points="258.5,613.1172,262.5,623.1172,266.5,613.1172,262.5,617.1172" style="stroke:#181818;stroke-width:1.0;"/><line style="stroke:#181818;stroke-width:1.0;" x1="262.5" x2="262.5" y1="818.457" y2="838.457"/><polygon fill="#181818" points="258.5,828.457,262.5,838.457,266.5,828.457,262.5,832.457" style="stroke:#181818;stroke-width:1.0;"/><line style="stroke:#181818;stroke-width:1.0;" x1="262.5" x2="262.5" y1="1011.0938" y2="1031.0938"/><polygon fill="#181818" points="258.5,1021.0938,262.5,1031.0938,266.5,1021.0938,262.5,1025.0938" style="stroke:#181818;stroke-width:1.0;"/><line style="stroke:#181818;stroke-width:1.0;" x1="262.5" x2="262.5" y1="1079.0313" y2="1100.5625"/><polygon fill="#181818" points="258.5,1090.5625,262.5,1100.5625,266.5,1090.5625,262.5,1094.5625" style="stroke:#181818;stroke-width:1.0;"/><line style="stroke:#181818;stroke-width:1.0;" x1="262.5" x2="262.5" y1="1134.5313" y2="1154.5313"/><polygon fill="#181818" points="258.5,1144.5313,262.5,1154.5313,266.5,1144.5313,262.5,1148.5313" style="stroke:#181818;stroke-width:1.0;"/><line style="stroke:#181818;stroke-width:1.0;" x1="262.5" x2="262.5" y1="952.7227" y2="977.125"/><polygon fill="#181818" points="258.5,967.125,262.5,977.125,266.5,967.125,262.5,971.125" style="stroke:#181818;stroke-width:1.0;"/><line style="stroke:#181818;stroke-width:1.0;" x1="394" x2="437.5" y1="940.7227" y2="940.7227"/><polygon fill="#181818" points="433.5,1070.5625,437.5,1080.5625,441.5,1070.5625,437.5,1074.5625" style="stroke:#181818;stroke-width:1.0;"/><line style="stroke:#181818;stroke-width:1.0;" x1="437.5" x2="437.5" y1="940.7227" y2="1198.5313"/><line style="stroke:#181818;stroke-width:1.0;" x1="437.5" x2="262.5" y1="1198.5313" y2="1198.5313"/><line style="stroke:#181818;stroke-width:1.0;" x1="262.5" x2="262.5" y1="1198.5313" y2="1218.5313"/><polygon fill="#181818" points="258.5,1208.5313,262.5,1218.5313,266.5,1208.5313,262.5,1212.5313" style="stroke:#181818;stroke-width:1.0;"/><line style="stroke:#181818;stroke-width:1.0;" x1="262.5" x2="262.5" y1="898.5898" y2="928.7227"/><polygon fill="#181818" points="258.5,918.7227,262.5,928.7227,266.5,918.7227,262.5,922.7227" style="stroke:#181818;stroke-width:1.0;"/><line style="stroke:#181818;stroke-width:1.0;" x1="262.5" x2="262.5" y1="1300.9023" y2="1329.418"/><polygon fill="#181818" points="258.5,1319.418,262.5,1329.418,266.5,1319.418,262.5,1323.418" style="stroke:#181818;stroke-width:1.0;"/><line style="stroke:#181818;stroke-width:1.0;" x1="262.5" x2="262.5" y1="1242.5313" y2="1266.9336"/><polygon fill="#181818" points="258.5,1256.9336,262.5,1266.9336,266.5,1256.9336,262.5,1260.9336" style="stroke:#181818;stroke-width:1.0;"/><line style="stroke:#181818;stroke-width:1.0;" x1="316.5" x2="328.5" y1="1230.5313" y2="1230.5313"/><polygon fill="#181818" points="324.5,1299.418,328.5,1309.418,332.5,1299.418,328.5,1303.418" style="stroke:#181818;stroke-width:1.0;"/><line style="stroke:#181818;stroke-width:1.0;" x1="328.5" x2="328.5" y1="1230.5313" y2="1373.418"/><line style="stroke:#181818;stroke-width:1.0;" x1="328.5" x2="262.5" y1="1373.418" y2="1373.418"/><line style="stroke:#181818;stroke-width:1.0;" x1="262.5" x2="262.5" y1="1373.418" y2="1393.418"/><polygon fill="#181818" points="258.5,1383.418,262.5,1393.418,266.5,1383.418,262.5,1387.418" style="stroke:#181818;stroke-width:1.0;"/><line style="stroke:#181818;stroke-width:1.0;" x1="262.5" x2="262.5" y1="1475.7891" y2="1504.3047"/><polygon fill="#181818" points="258.5,1494.3047,262.5,1504.3047,266.5,1494.3047,262.5,1498.3047" style="stroke:#181818;stroke-width:1.0;"/><line style="stroke:#181818;stroke-width:1.0;" x1="262.5" x2="262.5" y1="1417.418" y2="1441.8203"/><polygon fill="#181818" points="258.5,1431.8203,262.5,1441.8203,266.5,1431.8203,262.5,1435.8203" style="stroke:#181818;stroke-width:1.0;"/><line style="stroke:#181818;stroke-width:1.0;" x1="383.5" x2="395.5" y1="1405.418" y2="1405.418"/><polygon fill="#181818" points="391.5,1474.3047,395.5,1484.3047,399.5,1474.3047,395.5,1478.3047" style="stroke:#181818;stroke-width:1.0;"/><line style="stroke:#181818;stroke-width:1.0;" x1="395.5" x2="395.5" y1="1405.418" y2="1548.3047"/><line style="stroke:#181818;stroke-width:1.0;" x1="395.5" x2="262.5" y1="1548.3047" y2="1548.3047"/><line style="stroke:#181818;stroke-width:1.0;" x1="262.5" x2="262.5" y1="1548.3047" y2="1568.3047"/><polygon fill="#181818" points="258.5,1558.3047,262.5,1568.3047,266.5,1558.3047,262.5,1562.3047" style="stroke:#181818;stroke-width:1.0;"/><line style="stroke:#181818;stroke-width:1.0;" x1="262.5" x2="262.5" y1="1602.2734" y2="1622.2734"/><polygon fill="#181818" points="258.5,1612.2734,262.5,1622.2734,266.5,1612.2734,262.5,1616.2734" style="stroke:#181818;stroke-width:1.0;"/><line style="stroke:#181818;stroke-width:1.0;" x1="262.5" x2="262.5" y1="1758.6133" y2="1778.6133"/><polygon fill="#181818" points="258.5,1768.6133,262.5,1778.6133,266.5,1768.6133,262.5,1772.6133" style="stroke:#181818;stroke-width:1.0;"/><line style="stroke:#181818;stroke-width:1.0;" x1="262.5" x2="262.5" y1="1812.582" y2="1832.582"/><polygon fill="#181818" points="258.5,1822.582,262.5,1832.582,266.5,1822.582,262.5,1826.582" style="stroke:#181818;stroke-width:1.0;"/><line style="stroke:#181818;stroke-width:1.0;" x1="262.5" x2="262.5" y1="1700.2422" y2="1724.6445"/><polygon fill="#181818" points="258.5,1714.6445,262.5,1724.6445,266.5,1714.6445,262.5,1718.6445" style="stroke:#181818;stroke-width:1.0;"/><line style="stroke:#181818;stroke-width:1.0;" x1="296.5" x2="393" y1="1688.2422" y2="1688.2422"/><polygon fill="#181818" points="389,1776.6133,393,1786.6133,397,1776.6133,393,1780.6133" style="stroke:#181818;stroke-width:1.0;"/><line style="stroke:#181818;stroke-width:1.0;" x1="393" x2="393" y1="1688.2422" y2="1876.582"/><line style="stroke:#181818;stroke-width:1.0;" x1="393" x2="262.5" y1="1876.582" y2="1876.582"/><line style="stroke:#181818;stroke-width:1.0;" x1="262.5" x2="262.5" y1="1876.582" y2="1896.582"/><polygon fill="#181818" points="258.5,1886.582,262.5,1896.582,266.5,1886.582,262.5,1890.582" style="stroke:#181818;stroke-width:1.0;"/><line style="stroke:#181818;stroke-width:1.0;" x1="262.5" x2="262.5" y1="1656.2422" y2="1676.2422"/><polygon fill="#181818" points="258.5,1666.2422,262.5,1676.2422,266.5,1666.2422,262.5,1670.2422" style="stroke:#181818;stroke-width:1.0;"/><line style="stroke:#181818;stroke-width:1.0;" x1="171.5" x2="171.5" y1="2092.5313" y2="2121.1289"/><polygon fill="#181818" points="167.5,2111.1289,171.5,2121.1289,175.5,2111.1289,171.5,2115.1289" style="stroke:#181818;stroke-width:1.0;"/><line style="stroke:#181818;stroke-width:1.0;" x1="171.5" x2="171.5" y1="2155.0977" y2="2175.0977"/><polygon fill="#181818" points="167.5,2165.0977,171.5,2175.0977,175.5,2165.0977,171.5,2169.0977" style="stroke:#181818;stroke-width:1.0;"/><line style="stroke:#181818;stroke-width:1.0;" x1="171.5" x2="171.5" y1="2034.1602" y2="2058.5625"/><polygon fill="#181818" points="167.5,2048.5625,171.5,2058.5625,175.5,2048.5625,171.5,2052.5625" style="stroke:#181818;stroke-width:1.0;"/><line style="stroke:#181818;stroke-width:1.0;" x1="222" x2="260" y1="2022.1602" y2="2022.1602"/><polygon fill="#181818" points="256,2119.1289,260,2129.1289,264,2119.1289,260,2123.1289" style="stroke:#181818;stroke-width:1.0;"/><line style="stroke:#181818;stroke-width:1.0;" x1="260" x2="260" y1="2022.1602" y2="2219.0977"/><line style="stroke:#181818;stroke-width:1.0;" x1="260" x2="171.5" y1="2219.0977" y2="2219.0977"/><line style="stroke:#181818;stroke-width:1.0;" x1="171.5" x2="171.5" y1="2219.0977" y2="2241.0977"/><line style="stroke:#181818;stroke-width:1.0;" x1="171.5" x2="250.5" y1="2241.0977" y2="2241.0977"/><polygon fill="#181818" points="240.5,2237.0977,250.5,2241.0977,240.5,2245.0977,244.5,2241.0977" style="stroke:#181818;stroke-width:1.0;"/><line style="stroke:#181818;stroke-width:1.0;" x1="171.5" x2="171.5" y1="1990.1602" y2="2010.1602"/><polygon fill="#181818" points="167.5,2000.1602,171.5,2010.1602,175.5,2000.1602,171.5,2004.1602" style="stroke:#181818;stroke-width:1.0;"/><line style="stroke:#181818;stroke-width:1.0;" x1="411" x2="411" y1="1990.1602" y2="2010.1602"/><polygon fill="#181818" points="407,2000.1602,411,2010.1602,415,2000.1602,411,2004.1602" style="stroke:#181818;stroke-width:1.0;"/><line style="stroke:#181818;stroke-width:1.0;" x1="411" x2="411" y1="2044.1289" y2="2079.1289"/><polygon fill="#181818" points="407,2069.1289,411,2079.1289,415,2069.1289,411,2073.1289" style="stroke:#181818;stroke-width:1.0;"/><line style="stroke:#181818;stroke-width:1.0;" x1="209.5" x2="171.5" y1="1908.582" y2="1908.582"/><line style="stroke:#181818;stroke-width:1.0;" x1="171.5" x2="171.5" y1="1908.582" y2="1956.1914"/><polygon fill="#181818" points="167.5,1946.1914,171.5,1956.1914,175.5,1946.1914,171.5,1950.1914" style="stroke:#181818;stroke-width:1.0;"/><text fill="#000000" font-family="sans-serif" font-size="11" lengthAdjust="spacing" textLength="15" x="171.5" y="1936.1948">try</text><line style="stroke:#181818;stroke-width:1.0;" x1="315.5" x2="411" y1="1908.582" y2="1908.582"/><line style="stroke:#181818;stroke-width:1.0;" x1="411" x2="411" y1="1908.582" y2="1956.1914"/><polygon fill="#181818" points="407,1946.1914,411,1956.1914,415,1946.1914,411,1950.1914" style="stroke:#181818;stroke-width:1.0;"/><text fill="#000000" font-family="sans-serif" font-size="11" lengthAdjust="spacing" textLength="103" x="411" y="1936.1948">catch (Exceptione)</text><line style="stroke:#181818;stroke-width:1.0;" x1="262.5" x2="262.5" y1="2253.0977" y2="2273.0977"/><polygon fill="#181818" points="258.5,2263.0977,262.5,2273.0977,266.5,2263.0977,262.5,2267.0977" style="stroke:#181818;stroke-width:1.0;"/><line style="stroke:#181818;stroke-width:1.0;" x1="262.5" x2="262.5" y1="2307.0664" y2="2327.0664"/><polygon fill="#181818" points="258.5,2317.0664,262.5,2327.0664,266.5,2317.0664,262.5,2321.0664" style="stroke:#181818;stroke-width:1.0;"/><!--MD5=[7175969f12d22360b3aeeb51c7af178e]
@startuml
!pragma layout smetana
start
note right
PSystemXearthinitDiagram(UmlSourcesource,
StringstartLine)
end note
:this.width=512;;
:this.height=512;;
:this.config.clear();;
:this.markers.clear();;
:return null ;;
stop
end
start
note right
void extractDimension(StringstartLine)
end note
:final Pattern2p=MyPattern.cmpile("\\((\\d+
),(\\d+)\\)");;
:final Matcher2m=p.matcher(startLine);;
:final booleanok=m.find();;
if (ok) then (yes) 
:width=Integer.parseInt(m.group(1));;
:height=Integer.parseInt(m.group(2));;
endif 
end
start
note right
PSystemXearthexecuteLine(UmlSourcesource,
PSystemXearthsystem,Stringline)
end note
if (system==null &&line.startsWith("xearth")) then (yes) 
:extractDimension(line);;
:system=new PSystemXearth(source,width,height,
config,markers);;
:return system;;
stop
endif 
if (system==null ) then (yes) 
:return null ;;
stop
endif 
if (line.startsWith("#")||line.startsWith("'")) then (yes) 
:return system;;
stop
endif 
:final Pattern2p=MyPattern.cmpile("(\\w+)[%s]*=[%s]*(.*)");;
:final Matcher2m=p.matcher(line);;
if (m.find()) then (yes) 
:config.put(m.group(1),m.group(2));;
:return system;;
stop
endif 
switch (try/catch block)
case (try)
:final Markermarker=Marker.loadMarkerFile(line);;
if (marker!=null ) then (yes) 
:markers.add(marker);;
:return system;;
stop
endif 
case (catch (Exceptione))
:Logme.error(e);;
:return null ;;
stop
endswitch
:return null ;;
stop
end
@enduml

PlantUML version 1.2022.7(Mon Aug 22 17:01:30 UTC 2022)
(GPL source distribution)
Java Runtime: OpenJDK Runtime Environment
JVM: OpenJDK 64-Bit Server VM
Default Encoding: UTF-8
Language: en
Country: null
--></g></svg>