<?xml version="1.0" encoding="UTF-8" standalone="no"?><svg xmlns="http://www.w3.org/2000/svg" xmlns:xlink="http://www.w3.org/1999/xlink" contentStyleType="text/css" height="186px" preserveAspectRatio="none" style="width:471px;height:186px;background:#FFFFFF;" version="1.1" viewBox="0 0 471 186" width="471px" zoomAndPan="magnify"><defs/><g><!--MD5=[83ff2b7ec4dd628bfa539d9a5fe04d51]
cluster net.sourceforge.plantuml.help--><g id="cluster_net.sourceforge.plantuml.help"><path d="M8.5,63 L249.5,63 A3.75,3.75 0 0 1 252,65.5 L259,85.2969 L461.5,85.2969 A2.5,2.5 0 0 1 464,87.7969 L464,176.5 A2.5,2.5 0 0 1 461.5,179 L8.5,179 A2.5,2.5 0 0 1 6,176.5 L6,65.5 A2.5,2.5 0 0 1 8.5,63 " fill="none" style="stroke:#000000;stroke-width:1.5;"/><line style="stroke:#000000;stroke-width:1.5;" x1="6" x2="259" y1="85.2969" y2="85.2969"/><text fill="#000000" font-family="sans-serif" font-size="14" font-weight="bold" lengthAdjust="spacing" textLength="240" x="10" y="77.9951">net.sourceforge.plantuml.help</text></g><!--MD5=[ade19ff5ad2951871d04c6ec2e133abc]
class PSystemCommandFactory--><g id="elem_PSystemCommandFactory"><rect fill="#F1F1F1" height="48" id="PSystemCommandFactory" rx="2.5" ry="2.5" style="stroke:#181818;stroke-width:0.5;" width="213" x="128.5" y="6"/><ellipse cx="143.5" cy="22" fill="#ADD1B2" rx="11" ry="11" style="stroke:#181818;stroke-width:1.0;"/><path d="M146.4688,27.6406 Q145.8906,27.9375 145.25,28.0781 Q144.6094,28.2344 143.9063,28.2344 Q141.4063,28.2344 140.0781,26.5938 Q138.7656,24.9375 138.7656,21.8125 Q138.7656,18.6875 140.0781,17.0313 Q141.4063,15.375 143.9063,15.375 Q144.6094,15.375 145.25,15.5313 Q145.9063,15.6875 146.4688,15.9844 L146.4688,18.7031 Q145.8438,18.125 145.25,17.8594 Q144.6563,17.5781 144.0313,17.5781 Q142.6875,17.5781 142,18.6563 Q141.3125,19.7188 141.3125,21.8125 Q141.3125,23.9063 142,24.9844 Q142.6875,26.0469 144.0313,26.0469 Q144.6563,26.0469 145.25,25.7813 Q145.8438,25.5 146.4688,24.9219 L146.4688,27.6406 Z " fill="#000000"/><text fill="#000000" font-family="sans-serif" font-size="14" lengthAdjust="spacing" textLength="181" x="157.5" y="26.8467">PSystemCommandFactory</text><line style="stroke:#181818;stroke-width:0.5;" x1="129.5" x2="340.5" y1="38" y2="38"/><line style="stroke:#181818;stroke-width:0.5;" x1="129.5" x2="340.5" y1="46" y2="46"/></g><!--MD5=[4801f7d765199f743ad721c96e039238]
class net.sourceforge.plantuml.help.HelpFactory--><g id="elem_net.sourceforge.plantuml.help.HelpFactory"><rect codeLine="3" fill="#F1F1F1" height="80.5938" id="net.sourceforge.plantuml.help.HelpFactory" rx="2.5" ry="2.5" style="stroke:#181818;stroke-width:0.5;" width="441" x="14.5" y="90"/><ellipse cx="190.25" cy="106" fill="#ADD1B2" rx="11" ry="11" style="stroke:#181818;stroke-width:1.0;"/><path d="M193.2188,111.6406 Q192.6406,111.9375 192,112.0781 Q191.3594,112.2344 190.6563,112.2344 Q188.1563,112.2344 186.8281,110.5938 Q185.5156,108.9375 185.5156,105.8125 Q185.5156,102.6875 186.8281,101.0313 Q188.1563,99.375 190.6563,99.375 Q191.3594,99.375 192,99.5313 Q192.6563,99.6875 193.2188,99.9844 L193.2188,102.7031 Q192.5938,102.125 192,101.8594 Q191.4063,101.5781 190.7813,101.5781 Q189.4375,101.5781 188.75,102.6563 Q188.0625,103.7188 188.0625,105.8125 Q188.0625,107.9063 188.75,108.9844 Q189.4375,110.0469 190.7813,110.0469 Q191.4063,110.0469 192,109.7813 Q192.5938,109.5 193.2188,108.9219 L193.2188,111.6406 Z " fill="#000000"/><text fill="#000000" font-family="sans-serif" font-size="14" lengthAdjust="spacing" textLength="81" x="210.75" y="110.8467">HelpFactory</text><line style="stroke:#181818;stroke-width:0.5;" x1="15.5" x2="454.5" y1="122" y2="122"/><line style="stroke:#181818;stroke-width:0.5;" x1="15.5" x2="454.5" y1="130" y2="130"/><a href="./../../../../../.././qc/src/net/sourceforge/plantuml/help/HelpFactory.java.html#49" target="_top" title="./../../../../../.././qc/src/net/sourceforge/plantuml/help/HelpFactory.java.html#49" xlink:actuate="onRequest" xlink:href="./../../../../../.././qc/src/net/sourceforge/plantuml/help/HelpFactory.java.html#49" xlink:show="new" xlink:title="./../../../../../.././qc/src/net/sourceforge/plantuml/help/HelpFactory.java.html#49" xlink:type="simple"><rect fill="#F1F1F1" height="10" style="stroke:none;stroke-width:1.0;" width="20" x="20.5" y="138.6484"/><ellipse cx="25.5" cy="143.6484" fill="#84BE84" rx="3" ry="3" style="stroke:#038048;stroke-width:1.0;"/></a><a href="./../../../../../.././qc/src/net/sourceforge/plantuml/help/HelpFactory.java.html#49" target="_top" title="./../../../../../.././qc/src/net/sourceforge/plantuml/help/HelpFactory.java.html#49" xlink:actuate="onRequest" xlink:href="./../../../../../.././qc/src/net/sourceforge/plantuml/help/HelpFactory.java.html#49" xlink:show="new" xlink:title="./../../../../../.././qc/src/net/sourceforge/plantuml/help/HelpFactory.java.html#49" xlink:type="simple"><text fill="#000000" font-family="sans-serif" font-size="14" lengthAdjust="spacing" textLength="415" x="34.5" y="146.9951">createEmptyDiagram(UmlSource;Map&lt;String,String&gt;) : Help</text></a><a href="./../../../../../.././qc/src/net/sourceforge/plantuml/help/HelpFactory.java.html#54" target="_top" title="./../../../../../.././qc/src/net/sourceforge/plantuml/help/HelpFactory.java.html#54" xlink:actuate="onRequest" xlink:href="./../../../../../.././qc/src/net/sourceforge/plantuml/help/HelpFactory.java.html#54" xlink:show="new" xlink:title="./../../../../../.././qc/src/net/sourceforge/plantuml/help/HelpFactory.java.html#54" xlink:type="simple"><text fill="#000000" font-family="sans-serif" font-size="14" lengthAdjust="spacing" textLength="264" x="34.5" y="163.292">createCommands() : List&lt;Command&gt;</text></a></g><path d="M235,54.0939 C235,64.784 235,77.7904 235,89.9706 " fill="none" style="stroke:#181818;stroke-width:1.0;"/><polygon fill="#FFFFFF" points="235,54.0939,229,70.0939,241,70.0939,235,54.0939" style="stroke:#181818;stroke-width:1.0;"/><!--MD5=[0dad69918ed4771b7b12982900862dff]
@startuml
!pragma layout smetana
"PSystemCommandFactory" <|- - "net.sourceforge.plantuml.help.HelpFactory"
class net.sourceforge.plantuml.help.HelpFactory {
+createEmptyDiagram(UmlSource;Map<String,String>) : Help [[[./../../../../../.././qc/src/net/sourceforge/plantuml/help/HelpFactory.java.html#49]]]
createCommands() : List<Command> [[[./../../../../../.././qc/src/net/sourceforge/plantuml/help/HelpFactory.java.html#54]]]
} 
@enduml

PlantUML version 1.2022.7(Mon Aug 22 17:01:30 UTC 2022)
(GPL source distribution)
Java Runtime: OpenJDK Runtime Environment
JVM: OpenJDK 64-Bit Server VM
Default Encoding: UTF-8
Language: en
Country: null
--></g></svg>