<?xml version="1.0" encoding="UTF-8" standalone="no"?><svg xmlns="http://www.w3.org/2000/svg" xmlns:xlink="http://www.w3.org/1999/xlink" contentStyleType="text/css" height="3698px" preserveAspectRatio="none" style="width:493px;height:3698px;background:#FFFFFF;" version="1.1" viewBox="0 0 493 3698" width="493px" zoomAndPan="magnify"><defs/><g><path d="M162,10 L162,18.5664 L142,22.5664 L162,26.5664 L162,35.1328 A0,0 0 0 0 162,35.1328 L282,35.1328 A0,0 0 0 0 282,35.1328 L282,20 L272,10 L162,10 A0,0 0 0 0 162,10 " fill="#FEFFDD" style="stroke:#181818;stroke-width:0.5;"/><path d="M272,10 L272,20 L282,20 L272,10 " fill="#FEFFDD" style="stroke:#181818;stroke-width:0.5;"/><text fill="#000000" font-family="sans-serif" font-size="13" lengthAdjust="spacing" textLength="99" x="168" y="27.0669">StringtoString()</text><ellipse cx="132" cy="22.5664" fill="#222222" rx="10" ry="10" style="stroke:#222222;stroke-width:1.0;"/><rect fill="#F1F1F1" height="33.9688" rx="12.5" ry="12.5" style="stroke:#181818;stroke-width:0.5;" width="102" x="81" y="55.1328"/><text fill="#000000" font-family="sans-serif" font-size="12" lengthAdjust="spacing" textLength="82" x="91" y="76.2715">return name;</text><ellipse cx="132" cy="120.1016" fill="none" rx="11" ry="11" style="stroke:#222222;stroke-width:1.0;"/><ellipse cx="132" cy="120.1016" fill="#222222" rx="6" ry="6" style="stroke:#111111;stroke-width:1.0;"/><ellipse cx="132" cy="151.1016" fill="none" rx="10" ry="10" style="stroke:#222222;stroke-width:1.5;"/><line style="stroke:#222222;stroke-width:2.5;" x1="125.8128" x2="138.1872" y1="144.9144" y2="157.2887"/><line style="stroke:#222222;stroke-width:2.5;" x1="138.1872" x2="125.8128" y1="144.9144" y2="157.2887"/><path d="M162,171.1016 L162,179.668 L142,183.668 L162,187.668 L162,196.2344 A0,0 0 0 0 162,196.2344 L285,196.2344 A0,0 0 0 0 285,196.2344 L285,181.1016 L275,171.1016 L162,171.1016 A0,0 0 0 0 162,171.1016 " fill="#FEFFDD" style="stroke:#181818;stroke-width:0.5;"/><path d="M275,171.1016 L275,181.1016 L285,181.1016 L275,171.1016 " fill="#FEFFDD" style="stroke:#181818;stroke-width:0.5;"/><text fill="#000000" font-family="sans-serif" font-size="13" lengthAdjust="spacing" textLength="102" x="168" y="188.1685">booleanisEven()</text><ellipse cx="132" cy="183.668" fill="#222222" rx="10" ry="10" style="stroke:#222222;stroke-width:1.0;"/><rect fill="#F1F1F1" height="33.9688" rx="12.5" ry="12.5" style="stroke:#181818;stroke-width:0.5;" width="242" x="11" y="216.2344"/><text fill="#000000" font-family="sans-serif" font-size="12" lengthAdjust="spacing" textLength="222" x="21" y="237.373">return nstage.getNumber()%2==0;</text><ellipse cx="132" cy="281.2031" fill="none" rx="11" ry="11" style="stroke:#222222;stroke-width:1.0;"/><ellipse cx="132" cy="281.2031" fill="#222222" rx="6" ry="6" style="stroke:#111111;stroke-width:1.0;"/><ellipse cx="132" cy="312.2031" fill="none" rx="10" ry="10" style="stroke:#222222;stroke-width:1.5;"/><line style="stroke:#222222;stroke-width:2.5;" x1="125.8128" x2="138.1872" y1="306.0159" y2="318.3903"/><line style="stroke:#222222;stroke-width:2.5;" x1="138.1872" x2="125.8128" y1="306.0159" y2="318.3903"/><path d="M162,332.2031 L162,340.7695 L142,344.7695 L162,348.7695 L162,357.3359 A0,0 0 0 0 162,357.3359 L309,357.3359 A0,0 0 0 0 309,357.3359 L309,342.2031 L299,332.2031 L162,332.2031 A0,0 0 0 0 162,332.2031 " fill="#FEFFDD" style="stroke:#181818;stroke-width:0.5;"/><path d="M299,332.2031 L299,342.2031 L309,342.2031 L299,332.2031 " fill="#FEFFDD" style="stroke:#181818;stroke-width:0.5;"/><text fill="#000000" font-family="sans-serif" font-size="13" lengthAdjust="spacing" textLength="126" x="168" y="349.27">doublemagicDelta()</text><ellipse cx="132" cy="344.7695" fill="#222222" rx="10" ry="10" style="stroke:#222222;stroke-width:1.0;"/><rect fill="#F1F1F1" height="33.9688" rx="12.5" ry="12.5" style="stroke:#181818;stroke-width:0.5;" width="75" x="94.5" y="425.7383"/><text fill="#000000" font-family="sans-serif" font-size="12" lengthAdjust="spacing" textLength="55" x="104.5" y="446.877">return 0;</text><ellipse cx="132" cy="499.2227" fill="none" rx="11" ry="11" style="stroke:#222222;stroke-width:1.0;"/><ellipse cx="132" cy="499.2227" fill="#222222" rx="6" ry="6" style="stroke:#111111;stroke-width:1.0;"/><polygon fill="#F1F1F1" points="81.5,377.3359,182.5,377.3359,194.5,389.3359,182.5,401.3359,81.5,401.3359,69.5,389.3359,81.5,377.3359" style="stroke:#181818;stroke-width:0.5;"/><text fill="#000000" font-family="sans-serif" font-size="11" lengthAdjust="spacing" textLength="20" x="136" y="411.5464">yes</text><text fill="#000000" font-family="sans-serif" font-size="11" lengthAdjust="spacing" textLength="101" x="81.5" y="393.144">isVisible()==false</text><polygon fill="#F1F1F1" points="109.5,552.2227,154.5,552.2227,166.5,564.2227,154.5,576.2227,109.5,576.2227,97.5,564.2227,109.5,552.2227" style="stroke:#181818;stroke-width:0.5;"/><text fill="#000000" font-family="sans-serif" font-size="11" lengthAdjust="spacing" textLength="45" x="109.5" y="568.0308">isEven()</text><text fill="#000000" font-family="sans-serif" font-size="11" lengthAdjust="spacing" textLength="20" x="77.5" y="561.6284">yes</text><text fill="#000000" font-family="sans-serif" font-size="11" lengthAdjust="spacing" textLength="14" x="166.5" y="561.6284">no</text><rect fill="#F1F1F1" height="33.9688" rx="12.5" ry="12.5" style="stroke:#181818;stroke-width:0.5;" width="75" x="46" y="586.2227"/><text fill="#000000" font-family="sans-serif" font-size="12" lengthAdjust="spacing" textLength="55" x="56" y="607.3613">return 2;</text><ellipse cx="83.5" cy="651.1914" fill="none" rx="11" ry="11" style="stroke:#222222;stroke-width:1.0;"/><ellipse cx="83.5" cy="651.1914" fill="#222222" rx="6" ry="6" style="stroke:#111111;stroke-width:1.0;"/><rect fill="#F1F1F1" height="33.9688" rx="12.5" ry="12.5" style="stroke:#181818;stroke-width:0.5;" width="79" x="141" y="586.2227"/><text fill="#000000" font-family="sans-serif" font-size="12" lengthAdjust="spacing" textLength="59" x="151" y="607.3613">return -2;</text><ellipse cx="180.5" cy="651.1914" fill="none" rx="11" ry="11" style="stroke:#222222;stroke-width:1.0;"/><ellipse cx="180.5" cy="651.1914" fill="#222222" rx="6" ry="6" style="stroke:#111111;stroke-width:1.0;"/><ellipse cx="132" cy="682.1914" fill="none" rx="10" ry="10" style="stroke:#222222;stroke-width:1.5;"/><line style="stroke:#222222;stroke-width:2.5;" x1="125.8128" x2="138.1872" y1="676.0042" y2="688.3786"/><line style="stroke:#222222;stroke-width:2.5;" x1="138.1872" x2="125.8128" y1="676.0042" y2="688.3786"/><path d="M162,702.1914 L162,710.7578 L142,714.7578 L162,718.7578 L162,727.3242 A0,0 0 0 0 162,727.3242 L280,727.3242 A0,0 0 0 0 280,727.3242 L280,712.1914 L270,702.1914 L162,702.1914 A0,0 0 0 0 162,702.1914 " fill="#FEFFDD" style="stroke:#181818;stroke-width:0.5;"/><path d="M270,702.1914 L270,712.1914 L280,712.1914 L270,702.1914 " fill="#FEFFDD" style="stroke:#181818;stroke-width:0.5;"/><text fill="#000000" font-family="sans-serif" font-size="13" lengthAdjust="spacing" textLength="97" x="168" y="719.2583">NStagegetUp()</text><ellipse cx="132" cy="714.7578" fill="#222222" rx="10" ry="10" style="stroke:#222222;stroke-width:1.0;"/><rect fill="#F1F1F1" height="33.9688" rx="12.5" ry="12.5" style="stroke:#181818;stroke-width:0.5;" width="83" x="90.5" y="747.3242"/><text fill="#000000" font-family="sans-serif" font-size="12" lengthAdjust="spacing" textLength="63" x="100.5" y="768.4629">return up;</text><ellipse cx="132" cy="812.293" fill="none" rx="11" ry="11" style="stroke:#222222;stroke-width:1.0;"/><ellipse cx="132" cy="812.293" fill="#222222" rx="6" ry="6" style="stroke:#111111;stroke-width:1.0;"/><ellipse cx="132" cy="843.293" fill="none" rx="10" ry="10" style="stroke:#222222;stroke-width:1.5;"/><line style="stroke:#222222;stroke-width:2.5;" x1="125.8128" x2="138.1872" y1="837.1058" y2="849.4802"/><line style="stroke:#222222;stroke-width:2.5;" x1="138.1872" x2="125.8128" y1="837.1058" y2="849.4802"/><path d="M162,863.293 L162,879.4258 L142,883.4258 L162,887.4258 L162,903.5586 A0,0 0 0 0 162,903.5586 L481,903.5586 A0,0 0 0 0 481,903.5586 L481,873.293 L471,863.293 L162,863.293 A0,0 0 0 0 162,863.293 " fill="#FEFFDD" style="stroke:#181818;stroke-width:0.5;"/><path d="M471,863.293 L471,873.293 L481,873.293 L471,863.293 " fill="#FEFFDD" style="stroke:#181818;stroke-width:0.5;"/><text fill="#000000" font-family="sans-serif" font-size="13" lengthAdjust="spacing" textLength="298" x="168" y="880.3599">constructor Network(NStageup,NStagenstage,</text><text fill="#000000" font-family="sans-serif" font-size="13" lengthAdjust="spacing" textLength="80" x="168" y="895.4927">Stringname)</text><ellipse cx="132" cy="883.4258" fill="#222222" rx="10" ry="10" style="stroke:#222222;stroke-width:1.0;"/><rect fill="#F1F1F1" height="33.9688" rx="12.5" ry="12.5" style="stroke:#181818;stroke-width:0.5;" width="93" x="85.5" y="923.5586"/><text fill="#000000" font-family="sans-serif" font-size="12" lengthAdjust="spacing" textLength="73" x="95.5" y="944.6973">this.up=up;</text><rect fill="#F1F1F1" height="33.9688" rx="12.5" ry="12.5" style="stroke:#181818;stroke-width:0.5;" width="131" x="66.5" y="977.5273"/><text fill="#000000" font-family="sans-serif" font-size="12" lengthAdjust="spacing" textLength="111" x="76.5" y="998.666">this.name=name;</text><rect fill="#F1F1F1" height="33.9688" rx="12.5" ry="12.5" style="stroke:#181818;stroke-width:0.5;" width="149" x="57.5" y="1031.4961"/><text fill="#000000" font-family="sans-serif" font-size="12" lengthAdjust="spacing" textLength="129" x="67.5" y="1052.6348">this.nstage=nstage;</text><ellipse cx="132" cy="1095.4648" fill="none" rx="10" ry="10" style="stroke:#222222;stroke-width:1.5;"/><line style="stroke:#222222;stroke-width:2.5;" x1="125.8128" x2="138.1872" y1="1089.2777" y2="1101.652"/><line style="stroke:#222222;stroke-width:2.5;" x1="138.1872" x2="125.8128" y1="1089.2777" y2="1101.652"/><path d="M162,1115.4648 L162,1124.0313 L142,1128.0313 L162,1132.0313 L162,1140.5977 A0,0 0 0 0 162,1140.5977 L323,1140.5977 A0,0 0 0 0 323,1140.5977 L323,1125.4648 L313,1115.4648 L162,1115.4648 A0,0 0 0 0 162,1115.4648 " fill="#FEFFDD" style="stroke:#181818;stroke-width:0.5;"/><path d="M313,1115.4648 L313,1125.4648 L323,1125.4648 L313,1115.4648 " fill="#FEFFDD" style="stroke:#181818;stroke-width:0.5;"/><text fill="#000000" font-family="sans-serif" font-size="13" lengthAdjust="spacing" textLength="140" x="168" y="1132.5317">StringgetOwnAdress()</text><ellipse cx="132" cy="1128.0313" fill="#222222" rx="10" ry="10" style="stroke:#222222;stroke-width:1.0;"/><rect fill="#F1F1F1" height="33.9688" rx="12.5" ry="12.5" style="stroke:#181818;stroke-width:0.5;" width="135" x="64.5" y="1160.5977"/><text fill="#000000" font-family="sans-serif" font-size="12" lengthAdjust="spacing" textLength="115" x="74.5" y="1181.7363">return ownAdress;</text><ellipse cx="132" cy="1225.5664" fill="none" rx="11" ry="11" style="stroke:#222222;stroke-width:1.0;"/><ellipse cx="132" cy="1225.5664" fill="#222222" rx="6" ry="6" style="stroke:#111111;stroke-width:1.0;"/><ellipse cx="132" cy="1256.5664" fill="none" rx="10" ry="10" style="stroke:#222222;stroke-width:1.5;"/><line style="stroke:#222222;stroke-width:2.5;" x1="125.8128" x2="138.1872" y1="1250.3792" y2="1262.7536"/><line style="stroke:#222222;stroke-width:2.5;" x1="138.1872" x2="125.8128" y1="1250.3792" y2="1262.7536"/><path d="M162,1276.5664 L162,1285.1328 L142,1289.1328 L162,1293.1328 L162,1301.6992 A0,0 0 0 0 162,1301.6992 L421,1301.6992 A0,0 0 0 0 421,1301.6992 L421,1286.5664 L411,1276.5664 L162,1276.5664 A0,0 0 0 0 162,1276.5664 " fill="#FEFFDD" style="stroke:#181818;stroke-width:0.5;"/><path d="M411,1276.5664 L411,1286.5664 L421,1286.5664 L411,1276.5664 " fill="#FEFFDD" style="stroke:#181818;stroke-width:0.5;"/><text fill="#000000" font-family="sans-serif" font-size="13" lengthAdjust="spacing" textLength="238" x="168" y="1293.6333">void setOwnAdress(StringownAdress)</text><ellipse cx="132" cy="1289.1328" fill="#222222" rx="10" ry="10" style="stroke:#222222;stroke-width:1.0;"/><rect fill="#F1F1F1" height="33.9688" rx="12.5" ry="12.5" style="stroke:#181818;stroke-width:0.5;" width="197" x="33.5" y="1321.6992"/><text fill="#000000" font-family="sans-serif" font-size="12" lengthAdjust="spacing" textLength="177" x="43.5" y="1342.8379">this.ownAdress=ownAdress;</text><ellipse cx="132" cy="1385.668" fill="none" rx="10" ry="10" style="stroke:#222222;stroke-width:1.5;"/><line style="stroke:#222222;stroke-width:2.5;" x1="125.8128" x2="138.1872" y1="1379.4808" y2="1391.8552"/><line style="stroke:#222222;stroke-width:2.5;" x1="138.1872" x2="125.8128" y1="1379.4808" y2="1391.8552"/><path d="M162,1405.668 L162,1414.2344 L142,1418.2344 L162,1422.2344 L162,1430.8008 A0,0 0 0 0 162,1430.8008 L337,1430.8008 A0,0 0 0 0 337,1430.8008 L337,1415.668 L327,1405.668 L162,1405.668 A0,0 0 0 0 162,1405.668 " fill="#FEFFDD" style="stroke:#181818;stroke-width:0.5;"/><path d="M327,1405.668 L327,1415.668 L337,1415.668 L327,1405.668 " fill="#FEFFDD" style="stroke:#181818;stroke-width:0.5;"/><text fill="#000000" font-family="sans-serif" font-size="13" lengthAdjust="spacing" textLength="154" x="168" y="1422.7349">StringgetDisplayName()</text><ellipse cx="132" cy="1418.2344" fill="#222222" rx="10" ry="10" style="stroke:#222222;stroke-width:1.0;"/><rect fill="#F1F1F1" height="33.9688" rx="12.5" ry="12.5" style="stroke:#181818;stroke-width:0.5;" width="102" x="81" y="1499.2031"/><text fill="#000000" font-family="sans-serif" font-size="12" lengthAdjust="spacing" textLength="82" x="91" y="1520.3418">return name;</text><ellipse cx="132" cy="1572.6875" fill="none" rx="11" ry="11" style="stroke:#222222;stroke-width:1.0;"/><ellipse cx="132" cy="1572.6875" fill="#222222" rx="6" ry="6" style="stroke:#111111;stroke-width:1.0;"/><polygon fill="#F1F1F1" points="67,1450.8008,197,1450.8008,209,1462.8008,197,1474.8008,67,1474.8008,55,1462.8008,67,1450.8008" style="stroke:#181818;stroke-width:0.5;"/><text fill="#000000" font-family="sans-serif" font-size="11" lengthAdjust="spacing" textLength="20" x="136" y="1485.0112">yes</text><text fill="#000000" font-family="sans-serif" font-size="11" lengthAdjust="spacing" textLength="126" x="67" y="1466.6089">this.description==null</text><rect fill="#F1F1F1" height="33.9688" rx="12.5" ry="12.5" style="stroke:#181818;stroke-width:0.5;" width="164" x="50" y="1625.6875"/><text fill="#000000" font-family="sans-serif" font-size="12" lengthAdjust="spacing" textLength="144" x="60" y="1646.8262">return this.description;</text><ellipse cx="132" cy="1690.6563" fill="none" rx="11" ry="11" style="stroke:#222222;stroke-width:1.0;"/><ellipse cx="132" cy="1690.6563" fill="#222222" rx="6" ry="6" style="stroke:#111111;stroke-width:1.0;"/><ellipse cx="132" cy="1721.6563" fill="none" rx="10" ry="10" style="stroke:#222222;stroke-width:1.5;"/><line style="stroke:#222222;stroke-width:2.5;" x1="125.8128" x2="138.1872" y1="1715.4691" y2="1727.8434"/><line style="stroke:#222222;stroke-width:2.5;" x1="138.1872" x2="125.8128" y1="1715.4691" y2="1727.8434"/><path d="M162,1741.6563 L162,1750.2227 L142,1754.2227 L162,1758.2227 L162,1766.7891 A0,0 0 0 0 162,1766.7891 L423,1766.7891 A0,0 0 0 0 423,1766.7891 L423,1751.6563 L413,1741.6563 L162,1741.6563 A0,0 0 0 0 162,1741.6563 " fill="#FEFFDD" style="stroke:#181818;stroke-width:0.5;"/><path d="M413,1741.6563 L413,1751.6563 L423,1751.6563 L413,1741.6563 " fill="#FEFFDD" style="stroke:#181818;stroke-width:0.5;"/><text fill="#000000" font-family="sans-serif" font-size="13" lengthAdjust="spacing" textLength="240" x="168" y="1758.7231">void setDescription(Stringdescription)</text><ellipse cx="132" cy="1754.2227" fill="#222222" rx="10" ry="10" style="stroke:#222222;stroke-width:1.0;"/><rect fill="#F1F1F1" height="33.9688" rx="12.5" ry="12.5" style="stroke:#181818;stroke-width:0.5;" width="201" x="31.5" y="1786.7891"/><text fill="#000000" font-family="sans-serif" font-size="12" lengthAdjust="spacing" textLength="181" x="41.5" y="1807.9277">this.description=description;</text><ellipse cx="132" cy="1850.7578" fill="none" rx="10" ry="10" style="stroke:#222222;stroke-width:1.5;"/><line style="stroke:#222222;stroke-width:2.5;" x1="125.8128" x2="138.1872" y1="1844.5706" y2="1856.945"/><line style="stroke:#222222;stroke-width:2.5;" x1="138.1872" x2="125.8128" y1="1844.5706" y2="1856.945"/><path d="M162,1870.7578 L162,1879.3242 L142,1883.3242 L162,1887.3242 L162,1895.8906 A0,0 0 0 0 162,1895.8906 L290,1895.8906 A0,0 0 0 0 290,1895.8906 L290,1880.7578 L280,1870.7578 L162,1870.7578 A0,0 0 0 0 162,1870.7578 " fill="#FEFFDD" style="stroke:#181818;stroke-width:0.5;"/><path d="M280,1870.7578 L280,1880.7578 L290,1880.7578 L280,1870.7578 " fill="#FEFFDD" style="stroke:#181818;stroke-width:0.5;"/><text fill="#000000" font-family="sans-serif" font-size="13" lengthAdjust="spacing" textLength="107" x="168" y="1887.8247">HColorgetColor()</text><ellipse cx="132" cy="1883.3242" fill="#222222" rx="10" ry="10" style="stroke:#222222;stroke-width:1.0;"/><rect fill="#F1F1F1" height="33.9688" rx="12.5" ry="12.5" style="stroke:#181818;stroke-width:0.5;" width="98" x="83" y="1915.8906"/><text fill="#000000" font-family="sans-serif" font-size="12" lengthAdjust="spacing" textLength="78" x="93" y="1937.0293">return color;</text><ellipse cx="132" cy="1980.8594" fill="none" rx="11" ry="11" style="stroke:#222222;stroke-width:1.0;"/><ellipse cx="132" cy="1980.8594" fill="#222222" rx="6" ry="6" style="stroke:#111111;stroke-width:1.0;"/><ellipse cx="132" cy="2011.8594" fill="none" rx="10" ry="10" style="stroke:#222222;stroke-width:1.5;"/><line style="stroke:#222222;stroke-width:2.5;" x1="125.8128" x2="138.1872" y1="2005.6722" y2="2018.0466"/><line style="stroke:#222222;stroke-width:2.5;" x1="138.1872" x2="125.8128" y1="2005.6722" y2="2018.0466"/><path d="M162,2031.8594 L162,2040.4258 L142,2044.4258 L162,2048.4258 L162,2056.9922 A0,0 0 0 0 162,2056.9922 L350,2056.9922 A0,0 0 0 0 350,2056.9922 L350,2041.8594 L340,2031.8594 L162,2031.8594 A0,0 0 0 0 162,2031.8594 " fill="#FEFFDD" style="stroke:#181818;stroke-width:0.5;"/><path d="M340,2031.8594 L340,2041.8594 L350,2041.8594 L340,2031.8594 " fill="#FEFFDD" style="stroke:#181818;stroke-width:0.5;"/><text fill="#000000" font-family="sans-serif" font-size="13" lengthAdjust="spacing" textLength="167" x="168" y="2048.9263">void setColor(HColorcolor)</text><ellipse cx="132" cy="2044.4258" fill="#222222" rx="10" ry="10" style="stroke:#222222;stroke-width:1.0;"/><rect fill="#F1F1F1" height="33.9688" rx="12.5" ry="12.5" style="stroke:#181818;stroke-width:0.5;" width="123" x="70.5" y="2076.9922"/><text fill="#000000" font-family="sans-serif" font-size="12" lengthAdjust="spacing" textLength="103" x="80.5" y="2098.1309">this.color=color;</text><ellipse cx="132" cy="2140.9609" fill="none" rx="10" ry="10" style="stroke:#222222;stroke-width:1.5;"/><line style="stroke:#222222;stroke-width:2.5;" x1="125.8128" x2="138.1872" y1="2134.7738" y2="2147.1481"/><line style="stroke:#222222;stroke-width:2.5;" x1="138.1872" x2="125.8128" y1="2134.7738" y2="2147.1481"/><path d="M162,2160.9609 L162,2169.5273 L142,2173.5273 L162,2177.5273 L162,2186.0938 A0,0 0 0 0 162,2186.0938 L289,2186.0938 A0,0 0 0 0 289,2186.0938 L289,2170.9609 L279,2160.9609 L162,2160.9609 A0,0 0 0 0 162,2160.9609 " fill="#FEFFDD" style="stroke:#181818;stroke-width:0.5;"/><path d="M279,2160.9609 L279,2170.9609 L289,2170.9609 L279,2160.9609 " fill="#FEFFDD" style="stroke:#181818;stroke-width:0.5;"/><text fill="#000000" font-family="sans-serif" font-size="13" lengthAdjust="spacing" textLength="106" x="168" y="2178.0278">void goInvisible()</text><ellipse cx="132" cy="2173.5273" fill="#222222" rx="10" ry="10" style="stroke:#222222;stroke-width:1.0;"/><rect fill="#F1F1F1" height="33.9688" rx="12.5" ry="12.5" style="stroke:#181818;stroke-width:0.5;" width="129" x="67.5" y="2206.0938"/><text fill="#000000" font-family="sans-serif" font-size="12" lengthAdjust="spacing" textLength="109" x="77.5" y="2227.2324">this.visible=false;</text><ellipse cx="132" cy="2270.0625" fill="none" rx="10" ry="10" style="stroke:#222222;stroke-width:1.5;"/><line style="stroke:#222222;stroke-width:2.5;" x1="125.8128" x2="138.1872" y1="2263.8753" y2="2276.2497"/><line style="stroke:#222222;stroke-width:2.5;" x1="138.1872" x2="125.8128" y1="2263.8753" y2="2276.2497"/><path d="M162,2290.0625 L162,2298.6289 L142,2302.6289 L162,2306.6289 L162,2315.1953 A0,0 0 0 0 162,2315.1953 L295,2315.1953 A0,0 0 0 0 295,2315.1953 L295,2300.0625 L285,2290.0625 L162,2290.0625 A0,0 0 0 0 162,2290.0625 " fill="#FEFFDD" style="stroke:#181818;stroke-width:0.5;"/><path d="M285,2290.0625 L285,2300.0625 L295,2300.0625 L285,2290.0625 " fill="#FEFFDD" style="stroke:#181818;stroke-width:0.5;"/><text fill="#000000" font-family="sans-serif" font-size="13" lengthAdjust="spacing" textLength="112" x="168" y="2307.1294">booleanisVisible()</text><ellipse cx="132" cy="2302.6289" fill="#222222" rx="10" ry="10" style="stroke:#222222;stroke-width:1.0;"/><rect fill="#F1F1F1" height="33.9688" rx="12.5" ry="12.5" style="stroke:#181818;stroke-width:0.5;" width="105" x="79.5" y="2335.1953"/><text fill="#000000" font-family="sans-serif" font-size="12" lengthAdjust="spacing" textLength="85" x="89.5" y="2356.334">return visible;</text><ellipse cx="132" cy="2400.1641" fill="none" rx="11" ry="11" style="stroke:#222222;stroke-width:1.0;"/><ellipse cx="132" cy="2400.1641" fill="#222222" rx="6" ry="6" style="stroke:#111111;stroke-width:1.0;"/><ellipse cx="132" cy="2431.1641" fill="none" rx="10" ry="10" style="stroke:#222222;stroke-width:1.5;"/><line style="stroke:#222222;stroke-width:2.5;" x1="125.8128" x2="138.1872" y1="2424.9769" y2="2437.3512"/><line style="stroke:#222222;stroke-width:2.5;" x1="138.1872" x2="125.8128" y1="2424.9769" y2="2437.3512"/><path d="M162,2451.1641 L162,2459.7305 L142,2463.7305 L162,2467.7305 L162,2476.2969 A0,0 0 0 0 162,2476.2969 L264,2476.2969 A0,0 0 0 0 264,2476.2969 L264,2461.1641 L254,2451.1641 L162,2451.1641 A0,0 0 0 0 162,2451.1641 " fill="#FEFFDD" style="stroke:#181818;stroke-width:0.5;"/><path d="M254,2451.1641 L254,2461.1641 L264,2461.1641 L254,2451.1641 " fill="#FEFFDD" style="stroke:#181818;stroke-width:0.5;"/><text fill="#000000" font-family="sans-serif" font-size="13" lengthAdjust="spacing" textLength="81" x="168" y="2468.231">doublegetY()</text><ellipse cx="132" cy="2463.7305" fill="#222222" rx="10" ry="10" style="stroke:#222222;stroke-width:1.0;"/><rect fill="#F1F1F1" height="33.9688" rx="12.5" ry="12.5" style="stroke:#181818;stroke-width:0.5;" width="73" x="95.5" y="2496.2969"/><text fill="#000000" font-family="sans-serif" font-size="12" lengthAdjust="spacing" textLength="53" x="105.5" y="2517.4355">return y;</text><ellipse cx="132" cy="2561.2656" fill="none" rx="11" ry="11" style="stroke:#222222;stroke-width:1.0;"/><ellipse cx="132" cy="2561.2656" fill="#222222" rx="6" ry="6" style="stroke:#111111;stroke-width:1.0;"/><ellipse cx="132" cy="2592.2656" fill="none" rx="10" ry="10" style="stroke:#222222;stroke-width:1.5;"/><line style="stroke:#222222;stroke-width:2.5;" x1="125.8128" x2="138.1872" y1="2586.0784" y2="2598.4528"/><line style="stroke:#222222;stroke-width:2.5;" x1="138.1872" x2="125.8128" y1="2586.0784" y2="2598.4528"/><path d="M162,2612.2656 L162,2620.832 L142,2624.832 L162,2628.832 L162,2637.3984 A0,0 0 0 0 162,2637.3984 L300,2637.3984 A0,0 0 0 0 300,2637.3984 L300,2622.2656 L290,2612.2656 L162,2612.2656 A0,0 0 0 0 162,2612.2656 " fill="#FEFFDD" style="stroke:#181818;stroke-width:0.5;"/><path d="M290,2612.2656 L290,2622.2656 L300,2622.2656 L290,2612.2656 " fill="#FEFFDD" style="stroke:#181818;stroke-width:0.5;"/><text fill="#000000" font-family="sans-serif" font-size="13" lengthAdjust="spacing" textLength="117" x="168" y="2629.3325">void setY(doubley)</text><ellipse cx="132" cy="2624.832" fill="#222222" rx="10" ry="10" style="stroke:#222222;stroke-width:1.0;"/><rect fill="#F1F1F1" height="33.9688" rx="12.5" ry="12.5" style="stroke:#181818;stroke-width:0.5;" width="73" x="95.5" y="2657.3984"/><text fill="#000000" font-family="sans-serif" font-size="12" lengthAdjust="spacing" textLength="53" x="105.5" y="2678.5371">this.y=y;</text><ellipse cx="132" cy="2721.3672" fill="none" rx="10" ry="10" style="stroke:#222222;stroke-width:1.5;"/><line style="stroke:#222222;stroke-width:2.5;" x1="125.8128" x2="138.1872" y1="2715.18" y2="2727.5544"/><line style="stroke:#222222;stroke-width:2.5;" x1="138.1872" x2="125.8128" y1="2715.18" y2="2727.5544"/><path d="M162,2741.3672 L162,2749.9336 L142,2753.9336 L162,2757.9336 L162,2766.5 A0,0 0 0 0 162,2766.5 L403,2766.5 A0,0 0 0 0 403,2766.5 L403,2751.3672 L393,2741.3672 L162,2741.3672 A0,0 0 0 0 162,2741.3672 " fill="#FEFFDD" style="stroke:#181818;stroke-width:0.5;"/><path d="M393,2741.3672 L393,2751.3672 L403,2751.3672 L393,2741.3672 " fill="#FEFFDD" style="stroke:#181818;stroke-width:0.5;"/><text fill="#000000" font-family="sans-serif" font-size="13" lengthAdjust="spacing" textLength="220" x="168" y="2758.4341">void setFullWidth(booleanfullWidth)</text><ellipse cx="132" cy="2753.9336" fill="#222222" rx="10" ry="10" style="stroke:#222222;stroke-width:1.0;"/><rect fill="#F1F1F1" height="33.9688" rx="12.5" ry="12.5" style="stroke:#181818;stroke-width:0.5;" width="167" x="48.5" y="2786.5"/><text fill="#000000" font-family="sans-serif" font-size="12" lengthAdjust="spacing" textLength="147" x="58.5" y="2807.6387">this.fullWidth=fullWidth;</text><ellipse cx="132" cy="2850.4688" fill="none" rx="10" ry="10" style="stroke:#222222;stroke-width:1.5;"/><line style="stroke:#222222;stroke-width:2.5;" x1="125.8128" x2="138.1872" y1="2844.2816" y2="2856.6559"/><line style="stroke:#222222;stroke-width:2.5;" x1="138.1872" x2="125.8128" y1="2844.2816" y2="2856.6559"/><path d="M162,2870.4688 L162,2879.0352 L142,2883.0352 L162,2887.0352 L162,2895.6016 A0,0 0 0 0 162,2895.6016 L310,2895.6016 A0,0 0 0 0 310,2895.6016 L310,2880.4688 L300,2870.4688 L162,2870.4688 A0,0 0 0 0 162,2870.4688 " fill="#FEFFDD" style="stroke:#181818;stroke-width:0.5;"/><path d="M300,2870.4688 L300,2880.4688 L310,2880.4688 L300,2870.4688 " fill="#FEFFDD" style="stroke:#181818;stroke-width:0.5;"/><text fill="#000000" font-family="sans-serif" font-size="13" lengthAdjust="spacing" textLength="127" x="168" y="2887.5356">booleanisFullWidth()</text><ellipse cx="132" cy="2883.0352" fill="#222222" rx="10" ry="10" style="stroke:#222222;stroke-width:1.0;"/><rect fill="#F1F1F1" height="33.9688" rx="12.5" ry="12.5" style="stroke:#181818;stroke-width:0.5;" width="120" x="72" y="2915.6016"/><text fill="#000000" font-family="sans-serif" font-size="12" lengthAdjust="spacing" textLength="100" x="82" y="2936.7402">return fullWidth;</text><ellipse cx="132" cy="2980.5703" fill="none" rx="11" ry="11" style="stroke:#222222;stroke-width:1.0;"/><ellipse cx="132" cy="2980.5703" fill="#222222" rx="6" ry="6" style="stroke:#111111;stroke-width:1.0;"/><ellipse cx="132" cy="3011.5703" fill="none" rx="10" ry="10" style="stroke:#222222;stroke-width:1.5;"/><line style="stroke:#222222;stroke-width:2.5;" x1="125.8128" x2="138.1872" y1="3005.3831" y2="3017.7575"/><line style="stroke:#222222;stroke-width:2.5;" x1="138.1872" x2="125.8128" y1="3005.3831" y2="3017.7575"/><path d="M162,3031.5703 L162,3040.1367 L142,3044.1367 L162,3048.1367 L162,3056.7031 A0,0 0 0 0 162,3056.7031 L308,3056.7031 A0,0 0 0 0 308,3056.7031 L308,3041.5703 L298,3031.5703 L162,3031.5703 A0,0 0 0 0 162,3031.5703 " fill="#FEFFDD" style="stroke:#181818;stroke-width:0.5;"/><path d="M298,3031.5703 L298,3041.5703 L308,3041.5703 L298,3031.5703 " fill="#FEFFDD" style="stroke:#181818;stroke-width:0.5;"/><text fill="#000000" font-family="sans-serif" font-size="13" lengthAdjust="spacing" textLength="125" x="168" y="3048.6372">NStagegetNstage()</text><ellipse cx="132" cy="3044.1367" fill="#222222" rx="10" ry="10" style="stroke:#222222;stroke-width:1.0;"/><rect fill="#F1F1F1" height="33.9688" rx="12.5" ry="12.5" style="stroke:#181818;stroke-width:0.5;" width="111" x="76.5" y="3076.7031"/><text fill="#000000" font-family="sans-serif" font-size="12" lengthAdjust="spacing" textLength="91" x="86.5" y="3097.8418">return nstage;</text><ellipse cx="132" cy="3141.6719" fill="none" rx="11" ry="11" style="stroke:#222222;stroke-width:1.0;"/><ellipse cx="132" cy="3141.6719" fill="#222222" rx="6" ry="6" style="stroke:#111111;stroke-width:1.0;"/><ellipse cx="132" cy="3172.6719" fill="none" rx="10" ry="10" style="stroke:#222222;stroke-width:1.5;"/><line style="stroke:#222222;stroke-width:2.5;" x1="125.8128" x2="138.1872" y1="3166.4847" y2="3178.8591"/><line style="stroke:#222222;stroke-width:2.5;" x1="138.1872" x2="125.8128" y1="3166.4847" y2="3178.8591"/><path d="M162,3192.6719 L162,3201.2383 L142,3205.2383 L162,3209.2383 L162,3217.8047 A0,0 0 0 0 162,3217.8047 L447,3217.8047 A0,0 0 0 0 447,3217.8047 L447,3202.6719 L437,3192.6719 L162,3192.6719 A0,0 0 0 0 162,3192.6719 " fill="#FEFFDD" style="stroke:#181818;stroke-width:0.5;"/><path d="M437,3192.6719 L437,3202.6719 L447,3202.6719 L437,3192.6719 " fill="#FEFFDD" style="stroke:#181818;stroke-width:0.5;"/><text fill="#000000" font-family="sans-serif" font-size="13" lengthAdjust="spacing" textLength="264" x="168" y="3209.7388">void setMinMax(doublexmin,doublexmax)</text><ellipse cx="132" cy="3205.2383" fill="#222222" rx="10" ry="10" style="stroke:#222222;stroke-width:1.0;"/><rect fill="#F1F1F1" height="33.9688" rx="12.5" ry="12.5" style="stroke:#181818;stroke-width:0.5;" width="117" x="73.5" y="3237.8047"/><text fill="#000000" font-family="sans-serif" font-size="12" lengthAdjust="spacing" textLength="97" x="83.5" y="3258.9434">this.xmin=xmin;</text><rect fill="#F1F1F1" height="33.9688" rx="12.5" ry="12.5" style="stroke:#181818;stroke-width:0.5;" width="123" x="70.5" y="3291.7734"/><text fill="#000000" font-family="sans-serif" font-size="12" lengthAdjust="spacing" textLength="103" x="80.5" y="3312.9121">this.xmax=xmax;</text><ellipse cx="132" cy="3355.7422" fill="none" rx="10" ry="10" style="stroke:#222222;stroke-width:1.5;"/><line style="stroke:#222222;stroke-width:2.5;" x1="125.8128" x2="138.1872" y1="3349.555" y2="3361.9294"/><line style="stroke:#222222;stroke-width:2.5;" x1="138.1872" x2="125.8128" y1="3349.555" y2="3361.9294"/><path d="M162,3375.7422 L162,3384.3086 L142,3388.3086 L162,3392.3086 L162,3400.875 A0,0 0 0 0 162,3400.875 L289,3400.875 A0,0 0 0 0 289,3400.875 L289,3385.7422 L279,3375.7422 L162,3375.7422 A0,0 0 0 0 162,3375.7422 " fill="#FEFFDD" style="stroke:#181818;stroke-width:0.5;"/><path d="M279,3375.7422 L279,3385.7422 L289,3385.7422 L279,3375.7422 " fill="#FEFFDD" style="stroke:#181818;stroke-width:0.5;"/><text fill="#000000" font-family="sans-serif" font-size="13" lengthAdjust="spacing" textLength="106" x="168" y="3392.8091">doublegetXmin()</text><ellipse cx="132" cy="3388.3086" fill="#222222" rx="10" ry="10" style="stroke:#222222;stroke-width:1.0;"/><rect fill="#F1F1F1" height="33.9688" rx="12.5" ry="12.5" style="stroke:#181818;stroke-width:0.5;" width="95" x="84.5" y="3420.875"/><text fill="#000000" font-family="sans-serif" font-size="12" lengthAdjust="spacing" textLength="75" x="94.5" y="3442.0137">return xmin;</text><ellipse cx="132" cy="3485.8438" fill="none" rx="11" ry="11" style="stroke:#222222;stroke-width:1.0;"/><ellipse cx="132" cy="3485.8438" fill="#222222" rx="6" ry="6" style="stroke:#111111;stroke-width:1.0;"/><ellipse cx="132" cy="3516.8438" fill="none" rx="10" ry="10" style="stroke:#222222;stroke-width:1.5;"/><line style="stroke:#222222;stroke-width:2.5;" x1="125.8128" x2="138.1872" y1="3510.6566" y2="3523.0309"/><line style="stroke:#222222;stroke-width:2.5;" x1="138.1872" x2="125.8128" y1="3510.6566" y2="3523.0309"/><path d="M162,3536.8438 L162,3545.4102 L142,3549.4102 L162,3553.4102 L162,3561.9766 A0,0 0 0 0 162,3561.9766 L293,3561.9766 A0,0 0 0 0 293,3561.9766 L293,3546.8438 L283,3536.8438 L162,3536.8438 A0,0 0 0 0 162,3536.8438 " fill="#FEFFDD" style="stroke:#181818;stroke-width:0.5;"/><path d="M283,3536.8438 L283,3546.8438 L293,3546.8438 L283,3536.8438 " fill="#FEFFDD" style="stroke:#181818;stroke-width:0.5;"/><text fill="#000000" font-family="sans-serif" font-size="13" lengthAdjust="spacing" textLength="110" x="168" y="3553.9106">doublegetXmax()</text><ellipse cx="132" cy="3549.4102" fill="#222222" rx="10" ry="10" style="stroke:#222222;stroke-width:1.0;"/><rect fill="#F1F1F1" height="33.9688" rx="12.5" ry="12.5" style="stroke:#181818;stroke-width:0.5;" width="98" x="83" y="3581.9766"/><text fill="#000000" font-family="sans-serif" font-size="12" lengthAdjust="spacing" textLength="78" x="93" y="3603.1152">return xmax;</text><ellipse cx="132" cy="3646.9453" fill="none" rx="11" ry="11" style="stroke:#222222;stroke-width:1.0;"/><ellipse cx="132" cy="3646.9453" fill="#222222" rx="6" ry="6" style="stroke:#111111;stroke-width:1.0;"/><ellipse cx="132" cy="3677.9453" fill="none" rx="10" ry="10" style="stroke:#222222;stroke-width:1.5;"/><line style="stroke:#222222;stroke-width:2.5;" x1="125.8128" x2="138.1872" y1="3671.7581" y2="3684.1325"/><line style="stroke:#222222;stroke-width:2.5;" x1="138.1872" x2="125.8128" y1="3671.7581" y2="3684.1325"/><line style="stroke:#181818;stroke-width:1.0;" x1="132" x2="132" y1="32.5664" y2="55.1328"/><polygon fill="#181818" points="128,45.1328,132,55.1328,136,45.1328,132,49.1328" style="stroke:#181818;stroke-width:1.0;"/><line style="stroke:#181818;stroke-width:1.0;" x1="132" x2="132" y1="89.1016" y2="109.1016"/><polygon fill="#181818" points="128,99.1016,132,109.1016,136,99.1016,132,103.1016" style="stroke:#181818;stroke-width:1.0;"/><line style="stroke:#181818;stroke-width:1.0;" x1="132" x2="132" y1="193.668" y2="216.2344"/><polygon fill="#181818" points="128,206.2344,132,216.2344,136,206.2344,132,210.2344" style="stroke:#181818;stroke-width:1.0;"/><line style="stroke:#181818;stroke-width:1.0;" x1="132" x2="132" y1="250.2031" y2="270.2031"/><polygon fill="#181818" points="128,260.2031,132,270.2031,136,260.2031,132,264.2031" style="stroke:#181818;stroke-width:1.0;"/><line style="stroke:#181818;stroke-width:1.0;" x1="132" x2="132" y1="459.707" y2="488.2227"/><polygon fill="#181818" points="128,478.2227,132,488.2227,136,478.2227,132,482.2227" style="stroke:#181818;stroke-width:1.0;"/><line style="stroke:#181818;stroke-width:1.0;" x1="132" x2="132" y1="401.3359" y2="425.7383"/><polygon fill="#181818" points="128,415.7383,132,425.7383,136,415.7383,132,419.7383" style="stroke:#181818;stroke-width:1.0;"/><line style="stroke:#181818;stroke-width:1.0;" x1="194.5" x2="206.5" y1="389.3359" y2="389.3359"/><polygon fill="#181818" points="202.5,458.2227,206.5,468.2227,210.5,458.2227,206.5,462.2227" style="stroke:#181818;stroke-width:1.0;"/><line style="stroke:#181818;stroke-width:1.0;" x1="206.5" x2="206.5" y1="389.3359" y2="532.2227"/><line style="stroke:#181818;stroke-width:1.0;" x1="206.5" x2="132" y1="532.2227" y2="532.2227"/><line style="stroke:#181818;stroke-width:1.0;" x1="132" x2="132" y1="532.2227" y2="552.2227"/><polygon fill="#181818" points="128,542.2227,132,552.2227,136,542.2227,132,546.2227" style="stroke:#181818;stroke-width:1.0;"/><line style="stroke:#181818;stroke-width:1.0;" x1="132" x2="132" y1="354.7695" y2="377.3359"/><polygon fill="#181818" points="128,367.3359,132,377.3359,136,367.3359,132,371.3359" style="stroke:#181818;stroke-width:1.0;"/><line style="stroke:#181818;stroke-width:1.0;" x1="83.5" x2="83.5" y1="620.1914" y2="640.1914"/><polygon fill="#181818" points="79.5,630.1914,83.5,640.1914,87.5,630.1914,83.5,634.1914" style="stroke:#181818;stroke-width:1.0;"/><line style="stroke:#181818;stroke-width:1.0;" x1="180.5" x2="180.5" y1="620.1914" y2="640.1914"/><polygon fill="#181818" points="176.5,630.1914,180.5,640.1914,184.5,630.1914,180.5,634.1914" style="stroke:#181818;stroke-width:1.0;"/><line style="stroke:#181818;stroke-width:1.0;" x1="97.5" x2="83.5" y1="564.2227" y2="564.2227"/><line style="stroke:#181818;stroke-width:1.0;" x1="83.5" x2="83.5" y1="564.2227" y2="586.2227"/><polygon fill="#181818" points="79.5,576.2227,83.5,586.2227,87.5,576.2227,83.5,580.2227" style="stroke:#181818;stroke-width:1.0;"/><line style="stroke:#181818;stroke-width:1.0;" x1="166.5" x2="180.5" y1="564.2227" y2="564.2227"/><line style="stroke:#181818;stroke-width:1.0;" x1="180.5" x2="180.5" y1="564.2227" y2="586.2227"/><polygon fill="#181818" points="176.5,576.2227,180.5,586.2227,184.5,576.2227,180.5,580.2227" style="stroke:#181818;stroke-width:1.0;"/><line style="stroke:#181818;stroke-width:1.0;" x1="132" x2="132" y1="724.7578" y2="747.3242"/><polygon fill="#181818" points="128,737.3242,132,747.3242,136,737.3242,132,741.3242" style="stroke:#181818;stroke-width:1.0;"/><line style="stroke:#181818;stroke-width:1.0;" x1="132" x2="132" y1="781.293" y2="801.293"/><polygon fill="#181818" points="128,791.293,132,801.293,136,791.293,132,795.293" style="stroke:#181818;stroke-width:1.0;"/><line style="stroke:#181818;stroke-width:1.0;" x1="132" x2="132" y1="893.4258" y2="923.5586"/><polygon fill="#181818" points="128,913.5586,132,923.5586,136,913.5586,132,917.5586" style="stroke:#181818;stroke-width:1.0;"/><line style="stroke:#181818;stroke-width:1.0;" x1="132" x2="132" y1="957.5273" y2="977.5273"/><polygon fill="#181818" points="128,967.5273,132,977.5273,136,967.5273,132,971.5273" style="stroke:#181818;stroke-width:1.0;"/><line style="stroke:#181818;stroke-width:1.0;" x1="132" x2="132" y1="1011.4961" y2="1031.4961"/><polygon fill="#181818" points="128,1021.4961,132,1031.4961,136,1021.4961,132,1025.4961" style="stroke:#181818;stroke-width:1.0;"/><line style="stroke:#181818;stroke-width:1.0;" x1="132" x2="132" y1="1065.4648" y2="1085.4648"/><polygon fill="#181818" points="128,1075.4648,132,1085.4648,136,1075.4648,132,1079.4648" style="stroke:#181818;stroke-width:1.0;"/><line style="stroke:#181818;stroke-width:1.0;" x1="132" x2="132" y1="1138.0313" y2="1160.5977"/><polygon fill="#181818" points="128,1150.5977,132,1160.5977,136,1150.5977,132,1154.5977" style="stroke:#181818;stroke-width:1.0;"/><line style="stroke:#181818;stroke-width:1.0;" x1="132" x2="132" y1="1194.5664" y2="1214.5664"/><polygon fill="#181818" points="128,1204.5664,132,1214.5664,136,1204.5664,132,1208.5664" style="stroke:#181818;stroke-width:1.0;"/><line style="stroke:#181818;stroke-width:1.0;" x1="132" x2="132" y1="1299.1328" y2="1321.6992"/><polygon fill="#181818" points="128,1311.6992,132,1321.6992,136,1311.6992,132,1315.6992" style="stroke:#181818;stroke-width:1.0;"/><line style="stroke:#181818;stroke-width:1.0;" x1="132" x2="132" y1="1355.668" y2="1375.668"/><polygon fill="#181818" points="128,1365.668,132,1375.668,136,1365.668,132,1369.668" style="stroke:#181818;stroke-width:1.0;"/><line style="stroke:#181818;stroke-width:1.0;" x1="132" x2="132" y1="1533.1719" y2="1561.6875"/><polygon fill="#181818" points="128,1551.6875,132,1561.6875,136,1551.6875,132,1555.6875" style="stroke:#181818;stroke-width:1.0;"/><line style="stroke:#181818;stroke-width:1.0;" x1="132" x2="132" y1="1474.8008" y2="1499.2031"/><polygon fill="#181818" points="128,1489.2031,132,1499.2031,136,1489.2031,132,1493.2031" style="stroke:#181818;stroke-width:1.0;"/><line style="stroke:#181818;stroke-width:1.0;" x1="209" x2="221" y1="1462.8008" y2="1462.8008"/><polygon fill="#181818" points="217,1531.6875,221,1541.6875,225,1531.6875,221,1535.6875" style="stroke:#181818;stroke-width:1.0;"/><line style="stroke:#181818;stroke-width:1.0;" x1="221" x2="221" y1="1462.8008" y2="1605.6875"/><line style="stroke:#181818;stroke-width:1.0;" x1="221" x2="132" y1="1605.6875" y2="1605.6875"/><line style="stroke:#181818;stroke-width:1.0;" x1="132" x2="132" y1="1605.6875" y2="1625.6875"/><polygon fill="#181818" points="128,1615.6875,132,1625.6875,136,1615.6875,132,1619.6875" style="stroke:#181818;stroke-width:1.0;"/><line style="stroke:#181818;stroke-width:1.0;" x1="132" x2="132" y1="1428.2344" y2="1450.8008"/><polygon fill="#181818" points="128,1440.8008,132,1450.8008,136,1440.8008,132,1444.8008" style="stroke:#181818;stroke-width:1.0;"/><line style="stroke:#181818;stroke-width:1.0;" x1="132" x2="132" y1="1659.6563" y2="1679.6563"/><polygon fill="#181818" points="128,1669.6563,132,1679.6563,136,1669.6563,132,1673.6563" style="stroke:#181818;stroke-width:1.0;"/><line style="stroke:#181818;stroke-width:1.0;" x1="132" x2="132" y1="1764.2227" y2="1786.7891"/><polygon fill="#181818" points="128,1776.7891,132,1786.7891,136,1776.7891,132,1780.7891" style="stroke:#181818;stroke-width:1.0;"/><line style="stroke:#181818;stroke-width:1.0;" x1="132" x2="132" y1="1820.7578" y2="1840.7578"/><polygon fill="#181818" points="128,1830.7578,132,1840.7578,136,1830.7578,132,1834.7578" style="stroke:#181818;stroke-width:1.0;"/><line style="stroke:#181818;stroke-width:1.0;" x1="132" x2="132" y1="1893.3242" y2="1915.8906"/><polygon fill="#181818" points="128,1905.8906,132,1915.8906,136,1905.8906,132,1909.8906" style="stroke:#181818;stroke-width:1.0;"/><line style="stroke:#181818;stroke-width:1.0;" x1="132" x2="132" y1="1949.8594" y2="1969.8594"/><polygon fill="#181818" points="128,1959.8594,132,1969.8594,136,1959.8594,132,1963.8594" style="stroke:#181818;stroke-width:1.0;"/><line style="stroke:#181818;stroke-width:1.0;" x1="132" x2="132" y1="2054.4258" y2="2076.9922"/><polygon fill="#181818" points="128,2066.9922,132,2076.9922,136,2066.9922,132,2070.9922" style="stroke:#181818;stroke-width:1.0;"/><line style="stroke:#181818;stroke-width:1.0;" x1="132" x2="132" y1="2110.9609" y2="2130.9609"/><polygon fill="#181818" points="128,2120.9609,132,2130.9609,136,2120.9609,132,2124.9609" style="stroke:#181818;stroke-width:1.0;"/><line style="stroke:#181818;stroke-width:1.0;" x1="132" x2="132" y1="2183.5273" y2="2206.0938"/><polygon fill="#181818" points="128,2196.0938,132,2206.0938,136,2196.0938,132,2200.0938" style="stroke:#181818;stroke-width:1.0;"/><line style="stroke:#181818;stroke-width:1.0;" x1="132" x2="132" y1="2240.0625" y2="2260.0625"/><polygon fill="#181818" points="128,2250.0625,132,2260.0625,136,2250.0625,132,2254.0625" style="stroke:#181818;stroke-width:1.0;"/><line style="stroke:#181818;stroke-width:1.0;" x1="132" x2="132" y1="2312.6289" y2="2335.1953"/><polygon fill="#181818" points="128,2325.1953,132,2335.1953,136,2325.1953,132,2329.1953" style="stroke:#181818;stroke-width:1.0;"/><line style="stroke:#181818;stroke-width:1.0;" x1="132" x2="132" y1="2369.1641" y2="2389.1641"/><polygon fill="#181818" points="128,2379.1641,132,2389.1641,136,2379.1641,132,2383.1641" style="stroke:#181818;stroke-width:1.0;"/><line style="stroke:#181818;stroke-width:1.0;" x1="132" x2="132" y1="2473.7305" y2="2496.2969"/><polygon fill="#181818" points="128,2486.2969,132,2496.2969,136,2486.2969,132,2490.2969" style="stroke:#181818;stroke-width:1.0;"/><line style="stroke:#181818;stroke-width:1.0;" x1="132" x2="132" y1="2530.2656" y2="2550.2656"/><polygon fill="#181818" points="128,2540.2656,132,2550.2656,136,2540.2656,132,2544.2656" style="stroke:#181818;stroke-width:1.0;"/><line style="stroke:#181818;stroke-width:1.0;" x1="132" x2="132" y1="2634.832" y2="2657.3984"/><polygon fill="#181818" points="128,2647.3984,132,2657.3984,136,2647.3984,132,2651.3984" style="stroke:#181818;stroke-width:1.0;"/><line style="stroke:#181818;stroke-width:1.0;" x1="132" x2="132" y1="2691.3672" y2="2711.3672"/><polygon fill="#181818" points="128,2701.3672,132,2711.3672,136,2701.3672,132,2705.3672" style="stroke:#181818;stroke-width:1.0;"/><line style="stroke:#181818;stroke-width:1.0;" x1="132" x2="132" y1="2763.9336" y2="2786.5"/><polygon fill="#181818" points="128,2776.5,132,2786.5,136,2776.5,132,2780.5" style="stroke:#181818;stroke-width:1.0;"/><line style="stroke:#181818;stroke-width:1.0;" x1="132" x2="132" y1="2820.4688" y2="2840.4688"/><polygon fill="#181818" points="128,2830.4688,132,2840.4688,136,2830.4688,132,2834.4688" style="stroke:#181818;stroke-width:1.0;"/><line style="stroke:#181818;stroke-width:1.0;" x1="132" x2="132" y1="2893.0352" y2="2915.6016"/><polygon fill="#181818" points="128,2905.6016,132,2915.6016,136,2905.6016,132,2909.6016" style="stroke:#181818;stroke-width:1.0;"/><line style="stroke:#181818;stroke-width:1.0;" x1="132" x2="132" y1="2949.5703" y2="2969.5703"/><polygon fill="#181818" points="128,2959.5703,132,2969.5703,136,2959.5703,132,2963.5703" style="stroke:#181818;stroke-width:1.0;"/><line style="stroke:#181818;stroke-width:1.0;" x1="132" x2="132" y1="3054.1367" y2="3076.7031"/><polygon fill="#181818" points="128,3066.7031,132,3076.7031,136,3066.7031,132,3070.7031" style="stroke:#181818;stroke-width:1.0;"/><line style="stroke:#181818;stroke-width:1.0;" x1="132" x2="132" y1="3110.6719" y2="3130.6719"/><polygon fill="#181818" points="128,3120.6719,132,3130.6719,136,3120.6719,132,3124.6719" style="stroke:#181818;stroke-width:1.0;"/><line style="stroke:#181818;stroke-width:1.0;" x1="132" x2="132" y1="3215.2383" y2="3237.8047"/><polygon fill="#181818" points="128,3227.8047,132,3237.8047,136,3227.8047,132,3231.8047" style="stroke:#181818;stroke-width:1.0;"/><line style="stroke:#181818;stroke-width:1.0;" x1="132" x2="132" y1="3271.7734" y2="3291.7734"/><polygon fill="#181818" points="128,3281.7734,132,3291.7734,136,3281.7734,132,3285.7734" style="stroke:#181818;stroke-width:1.0;"/><line style="stroke:#181818;stroke-width:1.0;" x1="132" x2="132" y1="3325.7422" y2="3345.7422"/><polygon fill="#181818" points="128,3335.7422,132,3345.7422,136,3335.7422,132,3339.7422" style="stroke:#181818;stroke-width:1.0;"/><line style="stroke:#181818;stroke-width:1.0;" x1="132" x2="132" y1="3398.3086" y2="3420.875"/><polygon fill="#181818" points="128,3410.875,132,3420.875,136,3410.875,132,3414.875" style="stroke:#181818;stroke-width:1.0;"/><line style="stroke:#181818;stroke-width:1.0;" x1="132" x2="132" y1="3454.8438" y2="3474.8438"/><polygon fill="#181818" points="128,3464.8438,132,3474.8438,136,3464.8438,132,3468.8438" style="stroke:#181818;stroke-width:1.0;"/><line style="stroke:#181818;stroke-width:1.0;" x1="132" x2="132" y1="3559.4102" y2="3581.9766"/><polygon fill="#181818" points="128,3571.9766,132,3581.9766,136,3571.9766,132,3575.9766" style="stroke:#181818;stroke-width:1.0;"/><line style="stroke:#181818;stroke-width:1.0;" x1="132" x2="132" y1="3615.9453" y2="3635.9453"/><polygon fill="#181818" points="128,3625.9453,132,3635.9453,136,3625.9453,132,3629.9453" style="stroke:#181818;stroke-width:1.0;"/><!--MD5=[0ce3b2d95d28bffbcfc661112474baef]
@startuml
!pragma layout smetana
start
note right
StringtoString()
end note
:return name;;
stop
end
start
note right
booleanisEven()
end note
:return nstage.getNumber()%2==0;;
stop
end
start
note right
doublemagicDelta()
end note
if (isVisible()==false) then (yes) 
:return 0;;
stop
endif 
if (isEven()) then (yes) 
:return 2;;
stop
else (no)
:return -2;;
stop
endif 
end
start
note right
NStagegetUp()
end note
:return up;;
stop
end
start
note right
constructor Network(NStageup,NStagenstage,
Stringname)
end note
:this.up=up;;
:this.name=name;;
:this.nstage=nstage;;
end
start
note right
StringgetOwnAdress()
end note
:return ownAdress;;
stop
end
start
note right
void setOwnAdress(StringownAdress)
end note
:this.ownAdress=ownAdress;;
end
start
note right
StringgetDisplayName()
end note
if (this.description==null ) then (yes) 
:return name;;
stop
endif 
:return this.description;;
stop
end
start
note right
void setDescription(Stringdescription)
end note
:this.description=description;;
end
start
note right
HColorgetColor()
end note
:return color;;
stop
end
start
note right
void setColor(HColorcolor)
end note
:this.color=color;;
end
start
note right
void goInvisible()
end note
:this.visible=false;;
end
start
note right
booleanisVisible()
end note
:return visible;;
stop
end
start
note right
doublegetY()
end note
:return y;;
stop
end
start
note right
void setY(doubley)
end note
:this.y=y;;
end
start
note right
void setFullWidth(booleanfullWidth)
end note
:this.fullWidth=fullWidth;;
end
start
note right
booleanisFullWidth()
end note
:return fullWidth;;
stop
end
start
note right
NStagegetNstage()
end note
:return nstage;;
stop
end
start
note right
void setMinMax(doublexmin,doublexmax)
end note
:this.xmin=xmin;;
:this.xmax=xmax;;
end
start
note right
doublegetXmin()
end note
:return xmin;;
stop
end
start
note right
doublegetXmax()
end note
:return xmax;;
stop
end
@enduml

PlantUML version 1.2022.7(Mon Aug 22 17:01:30 UTC 2022)
(GPL source distribution)
Java Runtime: OpenJDK Runtime Environment
JVM: OpenJDK 64-Bit Server VM
Default Encoding: UTF-8
Language: en
Country: null
--></g></svg>