<?xml version="1.0" encoding="UTF-8" standalone="no"?><svg xmlns="http://www.w3.org/2000/svg" xmlns:xlink="http://www.w3.org/1999/xlink" contentStyleType="text/css" height="220px" preserveAspectRatio="none" style="width:293px;height:220px;background:#FFFFFF;" version="1.1" viewBox="0 0 293 220" width="293px" zoomAndPan="magnify"><defs/><g><!--MD5=[aa8f7b917213fcc1c2766e2d59b49067]
cluster java.lang--><g id="cluster_java.lang"><path d="M101.5,6 L171.5,6 A3.75,3.75 0 0 1 174,8.5 L181,28.2969 L190.5,28.2969 A2.5,2.5 0 0 1 193,30.7969 L193,86.5 A2.5,2.5 0 0 1 190.5,89 L101.5,89 A2.5,2.5 0 0 1 99,86.5 L99,8.5 A2.5,2.5 0 0 1 101.5,6 " fill="none" style="stroke:#000000;stroke-width:1.5;"/><line style="stroke:#000000;stroke-width:1.5;" x1="99" x2="181" y1="28.2969" y2="28.2969"/><text fill="#000000" font-family="sans-serif" font-size="14" font-weight="bold" lengthAdjust="spacing" textLength="69" x="103" y="20.9951">java.lang</text></g><!--MD5=[66f8406a0c362df24b190c59a288da9e]
cluster net.sourceforge.plantuml.anim--><g id="cluster_net.sourceforge.plantuml.anim"><path d="M8.5,97 L252.5,97 A3.75,3.75 0 0 1 255,99.5 L262,119.2969 L283.5,119.2969 A2.5,2.5 0 0 1 286,121.7969 L286,210.5 A2.5,2.5 0 0 1 283.5,213 L8.5,213 A2.5,2.5 0 0 1 6,210.5 L6,99.5 A2.5,2.5 0 0 1 8.5,97 " fill="none" style="stroke:#000000;stroke-width:1.5;"/><line style="stroke:#000000;stroke-width:1.5;" x1="6" x2="262" y1="119.2969" y2="119.2969"/><text fill="#000000" font-family="sans-serif" font-size="14" font-weight="bold" lengthAdjust="spacing" textLength="243" x="10" y="111.9951">net.sourceforge.plantuml.anim</text></g><!--MD5=[274ad5661286b626a93603d287cbf95a]
class java.lang.Object--><g id="elem_java.lang.Object"><rect fill="#F1F1F1" height="48" id="java.lang.Object" rx="2.5" ry="2.5" style="stroke:#181818;stroke-width:0.5;" width="77" x="107.5" y="33"/><ellipse cx="122.5" cy="49" fill="#ADD1B2" rx="11" ry="11" style="stroke:#181818;stroke-width:1.0;"/><path d="M125.4688,54.6406 Q124.8906,54.9375 124.25,55.0781 Q123.6094,55.2344 122.9063,55.2344 Q120.4063,55.2344 119.0781,53.5938 Q117.7656,51.9375 117.7656,48.8125 Q117.7656,45.6875 119.0781,44.0313 Q120.4063,42.375 122.9063,42.375 Q123.6094,42.375 124.25,42.5313 Q124.9063,42.6875 125.4688,42.9844 L125.4688,45.7031 Q124.8438,45.125 124.25,44.8594 Q123.6563,44.5781 123.0313,44.5781 Q121.6875,44.5781 121,45.6563 Q120.3125,46.7188 120.3125,48.8125 Q120.3125,50.9063 121,51.9844 Q121.6875,53.0469 123.0313,53.0469 Q123.6563,53.0469 124.25,52.7813 Q124.8438,52.5 125.4688,51.9219 L125.4688,54.6406 Z " fill="#000000"/><text fill="#000000" font-family="sans-serif" font-size="14" lengthAdjust="spacing" textLength="45" x="136.5" y="53.8467">Object</text><line style="stroke:#181818;stroke-width:0.5;" x1="108.5" x2="183.5" y1="65" y2="65"/><line style="stroke:#181818;stroke-width:0.5;" x1="108.5" x2="183.5" y1="73" y2="73"/></g><!--MD5=[936b7851ea1e6ef8973cd3eb8da69da6]
class net.sourceforge.plantuml.anim.AnimationScript--><g id="elem_net.sourceforge.plantuml.anim.AnimationScript"><rect codeLine="3" fill="#F1F1F1" height="80.5938" id="net.sourceforge.plantuml.anim.AnimationScript" rx="2.5" ry="2.5" style="stroke:#181818;stroke-width:0.5;" width="263" x="14.5" y="124"/><ellipse cx="88.25" cy="140" fill="#ADD1B2" rx="11" ry="11" style="stroke:#181818;stroke-width:1.0;"/><path d="M91.2188,145.6406 Q90.6406,145.9375 90,146.0781 Q89.3594,146.2344 88.6563,146.2344 Q86.1563,146.2344 84.8281,144.5938 Q83.5156,142.9375 83.5156,139.8125 Q83.5156,136.6875 84.8281,135.0313 Q86.1563,133.375 88.6563,133.375 Q89.3594,133.375 90,133.5313 Q90.6563,133.6875 91.2188,133.9844 L91.2188,136.7031 Q90.5938,136.125 90,135.8594 Q89.4063,135.5781 88.7813,135.5781 Q87.4375,135.5781 86.75,136.6563 Q86.0625,137.7188 86.0625,139.8125 Q86.0625,141.9063 86.75,142.9844 Q87.4375,144.0469 88.7813,144.0469 Q89.4063,144.0469 90,143.7813 Q90.5938,143.5 91.2188,142.9219 L91.2188,145.6406 Z " fill="#000000"/><text fill="#000000" font-family="sans-serif" font-size="14" lengthAdjust="spacing" textLength="107" x="108.75" y="144.8467">AnimationScript</text><line style="stroke:#181818;stroke-width:0.5;" x1="15.5" x2="276.5" y1="156" y2="156"/><line style="stroke:#181818;stroke-width:0.5;" x1="15.5" x2="276.5" y1="164" y2="164"/><a href="./../../../../../.././qc/src/net/sourceforge/plantuml/anim/AnimationScript.java.html#42" target="_top" title="./../../../../../.././qc/src/net/sourceforge/plantuml/anim/AnimationScript.java.html#42" xlink:actuate="onRequest" xlink:href="./../../../../../.././qc/src/net/sourceforge/plantuml/anim/AnimationScript.java.html#42" xlink:show="new" xlink:title="./../../../../../.././qc/src/net/sourceforge/plantuml/anim/AnimationScript.java.html#42" xlink:type="simple"><rect fill="#F1F1F1" height="10" style="stroke:none;stroke-width:1.0;" width="20" x="20.5" y="172.6484"/><ellipse cx="25.5" cy="177.6484" fill="#84BE84" rx="3" ry="3" style="stroke:#038048;stroke-width:1.0;"/></a><a href="./../../../../../.././qc/src/net/sourceforge/plantuml/anim/AnimationScript.java.html#42" target="_top" title="./../../../../../.././qc/src/net/sourceforge/plantuml/anim/AnimationScript.java.html#42" xlink:actuate="onRequest" xlink:href="./../../../../../.././qc/src/net/sourceforge/plantuml/anim/AnimationScript.java.html#42" xlink:show="new" xlink:title="./../../../../../.././qc/src/net/sourceforge/plantuml/anim/AnimationScript.java.html#42" xlink:type="simple"><text fill="#000000" font-family="sans-serif" font-size="14" lengthAdjust="spacing" textLength="237" x="34.5" y="180.9951">AnimationScript() : AnimationScript</text></a><a href="./../../../../../.././qc/src/net/sourceforge/plantuml/anim/AnimationScript.java.html#62" target="_top" title="./../../../../../.././qc/src/net/sourceforge/plantuml/anim/AnimationScript.java.html#62" xlink:actuate="onRequest" xlink:href="./../../../../../.././qc/src/net/sourceforge/plantuml/anim/AnimationScript.java.html#62" xlink:show="new" xlink:title="./../../../../../.././qc/src/net/sourceforge/plantuml/anim/AnimationScript.java.html#62" xlink:type="simple"><rect fill="#F1F1F1" height="10" style="stroke:none;stroke-width:1.0;" width="20" x="20.5" y="188.9453"/><ellipse cx="25.5" cy="193.9453" fill="#84BE84" rx="3" ry="3" style="stroke:#038048;stroke-width:1.0;"/></a><a href="./../../../../../.././qc/src/net/sourceforge/plantuml/anim/AnimationScript.java.html#62" target="_top" title="./../../../../../.././qc/src/net/sourceforge/plantuml/anim/AnimationScript.java.html#62" xlink:actuate="onRequest" xlink:href="./../../../../../.././qc/src/net/sourceforge/plantuml/anim/AnimationScript.java.html#62" xlink:show="new" xlink:title="./../../../../../.././qc/src/net/sourceforge/plantuml/anim/AnimationScript.java.html#62" xlink:type="simple"><text fill="#000000" font-family="sans-serif" font-size="14" lengthAdjust="spacing" textLength="130" x="34.5" y="197.292">eval(String) : String</text></a></g><path d="M146,81.1524 C146,93.6475 146,109.4184 146,123.8064 " fill="none" style="stroke:#181818;stroke-width:1.0;"/><polygon fill="#FFFFFF" points="146,81.1524,140,97.1524,152,97.1524,146,81.1524" style="stroke:#181818;stroke-width:1.0;"/><!--MD5=[fbfa18dd92439ef3e4d161b64bc40141]
@startuml
!pragma layout smetana
"java.lang.Object" <|- - "net.sourceforge.plantuml.anim.AnimationScript"
class net.sourceforge.plantuml.anim.AnimationScript {
+AnimationScript() : AnimationScript [[[./../../../../../.././qc/src/net/sourceforge/plantuml/anim/AnimationScript.java.html#42]]]
+eval(String) : String [[[./../../../../../.././qc/src/net/sourceforge/plantuml/anim/AnimationScript.java.html#62]]]
} 
@enduml

PlantUML version 1.2022.7(Mon Aug 22 17:01:30 UTC 2022)
(GPL source distribution)
Java Runtime: OpenJDK Runtime Environment
JVM: OpenJDK 64-Bit Server VM
Default Encoding: UTF-8
Language: en
Country: null
--></g></svg>