<?xml version="1.0" encoding="UTF-8" standalone="no"?><svg xmlns="http://www.w3.org/2000/svg" xmlns:xlink="http://www.w3.org/1999/xlink" contentStyleType="text/css" height="782px" preserveAspectRatio="none" style="width:496px;height:782px;background:#FFFFFF;" version="1.1" viewBox="0 0 496 782" width="496px" zoomAndPan="magnify"><defs/><g><path d="M106,10 L106,26.1328 L86,30.1328 L106,34.1328 L106,50.2656 A0,0 0 0 0 106,50.2656 L422,50.2656 A0,0 0 0 0 422,50.2656 L422,20 L412,10 L106,10 A0,0 0 0 0 106,10 " fill="#FEFFDD" style="stroke:#181818;stroke-width:0.5;"/><path d="M412,10 L412,20 L422,20 L412,10 " fill="#FEFFDD" style="stroke:#181818;stroke-width:0.5;"/><text fill="#000000" font-family="sans-serif" font-size="13" lengthAdjust="spacing" textLength="295" x="112" y="27.0669">constructor GraphicalHSpace(doublestartingY,</text><text fill="#000000" font-family="sans-serif" font-size="13" lengthAdjust="spacing" textLength="46" x="112" y="42.1997">intsize)</text><ellipse cx="76" cy="30.1328" fill="#222222" rx="10" ry="10" style="stroke:#222222;stroke-width:1.0;"/><rect fill="#F1F1F1" height="33.9688" rx="12.5" ry="12.5" style="stroke:#181818;stroke-width:0.5;" width="130" x="11" y="70.2656"/><text fill="#000000" font-family="sans-serif" font-size="12" lengthAdjust="spacing" textLength="110" x="21" y="91.4043">super (startingY);</text><rect fill="#F1F1F1" height="33.9688" rx="12.5" ry="12.5" style="stroke:#181818;stroke-width:0.5;" width="107" x="22.5" y="124.2344"/><text fill="#000000" font-family="sans-serif" font-size="12" lengthAdjust="spacing" textLength="87" x="32.5" y="145.373">this.size=size;</text><ellipse cx="76" cy="188.2031" fill="none" rx="10" ry="10" style="stroke:#222222;stroke-width:1.5;"/><line style="stroke:#222222;stroke-width:2.5;" x1="69.8128" x2="82.1872" y1="182.0159" y2="194.3903"/><line style="stroke:#222222;stroke-width:2.5;" x1="82.1872" x2="69.8128" y1="182.0159" y2="194.3903"/><path d="M106,208.2031 L106,224.3359 L86,228.3359 L106,232.3359 L106,248.4688 A0,0 0 0 0 106,248.4688 L412,248.4688 A0,0 0 0 0 412,248.4688 L412,218.2031 L402,208.2031 L106,208.2031 A0,0 0 0 0 106,208.2031 " fill="#FEFFDD" style="stroke:#181818;stroke-width:0.5;"/><path d="M402,208.2031 L402,218.2031 L412,218.2031 L402,208.2031 " fill="#FEFFDD" style="stroke:#181818;stroke-width:0.5;"/><text fill="#000000" font-family="sans-serif" font-size="13" lengthAdjust="spacing" textLength="285" x="112" y="225.27">void drawInternalU(UGraphicug,doublemaxX,</text><text fill="#000000" font-family="sans-serif" font-size="13" lengthAdjust="spacing" textLength="121" x="112" y="240.4028">Context2Dcontext)</text><ellipse cx="76" cy="228.3359" fill="#222222" rx="10" ry="10" style="stroke:#222222;stroke-width:1.0;"/><ellipse cx="76" cy="278.4688" fill="none" rx="10" ry="10" style="stroke:#222222;stroke-width:1.5;"/><line style="stroke:#222222;stroke-width:2.5;" x1="69.8128" x2="82.1872" y1="272.2816" y2="284.6559"/><line style="stroke:#222222;stroke-width:2.5;" x1="82.1872" x2="69.8128" y1="272.2816" y2="284.6559"/><path d="M106,298.4688 L106,307.0352 L86,311.0352 L106,315.0352 L106,323.6016 A0,0 0 0 0 106,323.6016 L484,323.6016 A0,0 0 0 0 484,323.6016 L484,308.4688 L474,298.4688 L106,298.4688 A0,0 0 0 0 106,298.4688 " fill="#FEFFDD" style="stroke:#181818;stroke-width:0.5;"/><path d="M474,298.4688 L474,308.4688 L484,308.4688 L474,298.4688 " fill="#FEFFDD" style="stroke:#181818;stroke-width:0.5;"/><text fill="#000000" font-family="sans-serif" font-size="13" lengthAdjust="spacing" textLength="357" x="112" y="315.5356">doublegetPreferredHeight(StringBounderstringBounder)</text><ellipse cx="76" cy="311.0352" fill="#222222" rx="10" ry="10" style="stroke:#222222;stroke-width:1.0;"/><rect fill="#F1F1F1" height="33.9688" rx="12.5" ry="12.5" style="stroke:#181818;stroke-width:0.5;" width="90" x="31" y="343.6016"/><text fill="#000000" font-family="sans-serif" font-size="12" lengthAdjust="spacing" textLength="70" x="41" y="364.7402">return size;</text><ellipse cx="76" cy="408.5703" fill="none" rx="11" ry="11" style="stroke:#222222;stroke-width:1.0;"/><ellipse cx="76" cy="408.5703" fill="#222222" rx="6" ry="6" style="stroke:#111111;stroke-width:1.0;"/><ellipse cx="76" cy="439.5703" fill="none" rx="10" ry="10" style="stroke:#222222;stroke-width:1.5;"/><line style="stroke:#222222;stroke-width:2.5;" x1="69.8128" x2="82.1872" y1="433.3831" y2="445.7575"/><line style="stroke:#222222;stroke-width:2.5;" x1="82.1872" x2="69.8128" y1="433.3831" y2="445.7575"/><path d="M106,459.5703 L106,468.1367 L86,472.1367 L106,476.1367 L106,484.7031 A0,0 0 0 0 106,484.7031 L477,484.7031 A0,0 0 0 0 477,484.7031 L477,469.5703 L467,459.5703 L106,459.5703 A0,0 0 0 0 106,459.5703 " fill="#FEFFDD" style="stroke:#181818;stroke-width:0.5;"/><path d="M467,459.5703 L467,469.5703 L477,469.5703 L467,459.5703 " fill="#FEFFDD" style="stroke:#181818;stroke-width:0.5;"/><text fill="#000000" font-family="sans-serif" font-size="13" lengthAdjust="spacing" textLength="350" x="112" y="476.6372">doublegetPreferredWidth(StringBounderstringBounder)</text><ellipse cx="76" cy="472.1367" fill="#222222" rx="10" ry="10" style="stroke:#222222;stroke-width:1.0;"/><rect fill="#F1F1F1" height="33.9688" rx="12.5" ry="12.5" style="stroke:#181818;stroke-width:0.5;" width="75" x="38.5" y="504.7031"/><text fill="#000000" font-family="sans-serif" font-size="12" lengthAdjust="spacing" textLength="55" x="48.5" y="525.8418">return 0;</text><ellipse cx="76" cy="569.6719" fill="none" rx="11" ry="11" style="stroke:#222222;stroke-width:1.0;"/><ellipse cx="76" cy="569.6719" fill="#222222" rx="6" ry="6" style="stroke:#111111;stroke-width:1.0;"/><ellipse cx="76" cy="600.6719" fill="none" rx="10" ry="10" style="stroke:#222222;stroke-width:1.5;"/><line style="stroke:#222222;stroke-width:2.5;" x1="69.8128" x2="82.1872" y1="594.4847" y2="606.8591"/><line style="stroke:#222222;stroke-width:2.5;" x1="82.1872" x2="69.8128" y1="594.4847" y2="606.8591"/><path d="M106,620.6719 L106,629.2383 L86,633.2383 L106,637.2383 L106,645.8047 A0,0 0 0 0 106,645.8047 L442,645.8047 A0,0 0 0 0 442,645.8047 L442,630.6719 L432,620.6719 L106,620.6719 A0,0 0 0 0 106,620.6719 " fill="#FEFFDD" style="stroke:#181818;stroke-width:0.5;"/><path d="M432,620.6719 L432,630.6719 L442,630.6719 L432,620.6719 " fill="#FEFFDD" style="stroke:#181818;stroke-width:0.5;"/><text fill="#000000" font-family="sans-serif" font-size="13" lengthAdjust="spacing" textLength="315" x="112" y="637.7388">doublegetStartingX(StringBounderstringBounder)</text><ellipse cx="76" cy="633.2383" fill="#222222" rx="10" ry="10" style="stroke:#222222;stroke-width:1.0;"/><rect fill="#F1F1F1" height="33.9688" rx="12.5" ry="12.5" style="stroke:#181818;stroke-width:0.5;" width="75" x="38.5" y="665.8047"/><text fill="#000000" font-family="sans-serif" font-size="12" lengthAdjust="spacing" textLength="55" x="48.5" y="686.9434">return 0;</text><ellipse cx="76" cy="730.7734" fill="none" rx="11" ry="11" style="stroke:#222222;stroke-width:1.0;"/><ellipse cx="76" cy="730.7734" fill="#222222" rx="6" ry="6" style="stroke:#111111;stroke-width:1.0;"/><ellipse cx="76" cy="761.7734" fill="none" rx="10" ry="10" style="stroke:#222222;stroke-width:1.5;"/><line style="stroke:#222222;stroke-width:2.5;" x1="69.8128" x2="82.1872" y1="755.5863" y2="767.9606"/><line style="stroke:#222222;stroke-width:2.5;" x1="82.1872" x2="69.8128" y1="755.5863" y2="767.9606"/><line style="stroke:#181818;stroke-width:1.0;" x1="76" x2="76" y1="40.1328" y2="70.2656"/><polygon fill="#181818" points="72,60.2656,76,70.2656,80,60.2656,76,64.2656" style="stroke:#181818;stroke-width:1.0;"/><line style="stroke:#181818;stroke-width:1.0;" x1="76" x2="76" y1="104.2344" y2="124.2344"/><polygon fill="#181818" points="72,114.2344,76,124.2344,80,114.2344,76,118.2344" style="stroke:#181818;stroke-width:1.0;"/><line style="stroke:#181818;stroke-width:1.0;" x1="76" x2="76" y1="158.2031" y2="178.2031"/><polygon fill="#181818" points="72,168.2031,76,178.2031,80,168.2031,76,172.2031" style="stroke:#181818;stroke-width:1.0;"/><line style="stroke:#181818;stroke-width:1.0;" x1="76" x2="76" y1="238.3359" y2="268.4688"/><polygon fill="#181818" points="72,258.4688,76,268.4688,80,258.4688,76,262.4688" style="stroke:#181818;stroke-width:1.0;"/><line style="stroke:#181818;stroke-width:1.0;" x1="76" x2="76" y1="321.0352" y2="343.6016"/><polygon fill="#181818" points="72,333.6016,76,343.6016,80,333.6016,76,337.6016" style="stroke:#181818;stroke-width:1.0;"/><line style="stroke:#181818;stroke-width:1.0;" x1="76" x2="76" y1="377.5703" y2="397.5703"/><polygon fill="#181818" points="72,387.5703,76,397.5703,80,387.5703,76,391.5703" style="stroke:#181818;stroke-width:1.0;"/><line style="stroke:#181818;stroke-width:1.0;" x1="76" x2="76" y1="482.1367" y2="504.7031"/><polygon fill="#181818" points="72,494.7031,76,504.7031,80,494.7031,76,498.7031" style="stroke:#181818;stroke-width:1.0;"/><line style="stroke:#181818;stroke-width:1.0;" x1="76" x2="76" y1="538.6719" y2="558.6719"/><polygon fill="#181818" points="72,548.6719,76,558.6719,80,548.6719,76,552.6719" style="stroke:#181818;stroke-width:1.0;"/><line style="stroke:#181818;stroke-width:1.0;" x1="76" x2="76" y1="643.2383" y2="665.8047"/><polygon fill="#181818" points="72,655.8047,76,665.8047,80,655.8047,76,659.8047" style="stroke:#181818;stroke-width:1.0;"/><line style="stroke:#181818;stroke-width:1.0;" x1="76" x2="76" y1="699.7734" y2="719.7734"/><polygon fill="#181818" points="72,709.7734,76,719.7734,80,709.7734,76,713.7734" style="stroke:#181818;stroke-width:1.0;"/><!--MD5=[798f2caa829b5d11af2be8913bba96a2]
@startuml
!pragma layout smetana
start
note right
constructor GraphicalHSpace(doublestartingY,
intsize)
end note
:super (startingY);;
:this.size=size;;
end
start
note right
void drawInternalU(UGraphicug,doublemaxX,
Context2Dcontext)
end note
end
start
note right
doublegetPreferredHeight(StringBounderstringBounder)
end note
:return size;;
stop
end
start
note right
doublegetPreferredWidth(StringBounderstringBounder)
end note
:return 0;;
stop
end
start
note right
doublegetStartingX(StringBounderstringBounder)
end note
:return 0;;
stop
end
@enduml

PlantUML version 1.2022.7(Mon Aug 22 17:01:30 UTC 2022)
(GPL source distribution)
Java Runtime: OpenJDK Runtime Environment
JVM: OpenJDK 64-Bit Server VM
Default Encoding: UTF-8
Language: en
Country: null
--></g></svg>