<?xml version="1.0" encoding="UTF-8" standalone="no"?><svg xmlns="http://www.w3.org/2000/svg" xmlns:xlink="http://www.w3.org/1999/xlink" contentStyleType="text/css" height="3634px" preserveAspectRatio="none" style="width:423px;height:3634px;background:#FFFFFF;" version="1.1" viewBox="0 0 423 3634" width="423px" zoomAndPan="magnify"><defs/><g><path d="M192.5,10 L192.5,18.5664 L172.5,22.5664 L192.5,26.5664 L192.5,35.1328 A0,0 0 0 0 192.5,35.1328 L312.5,35.1328 A0,0 0 0 0 312.5,35.1328 L312.5,20 L302.5,10 L192.5,10 A0,0 0 0 0 192.5,10 " fill="#FEFFDD" style="stroke:#181818;stroke-width:0.5;"/><path d="M302.5,10 L302.5,20 L312.5,20 L302.5,10 " fill="#FEFFDD" style="stroke:#181818;stroke-width:0.5;"/><text fill="#000000" font-family="sans-serif" font-size="13" lengthAdjust="spacing" textLength="99" x="198.5" y="27.0669">StringtoString()</text><ellipse cx="162.5" cy="22.5664" fill="#222222" rx="10" ry="10" style="stroke:#222222;stroke-width:1.0;"/><rect fill="#F1F1F1" height="33.9688" rx="12.5" ry="12.5" style="stroke:#181818;stroke-width:0.5;" width="303" x="11" y="55.1328"/><text fill="#000000" font-family="sans-serif" font-size="12" lengthAdjust="spacing" textLength="283" x="21" y="76.2715">final List&lt;Double&gt;copy=new ArrayList&lt;&gt;(ys);</text><rect fill="#F1F1F1" height="33.9688" rx="12.5" ry="12.5" style="stroke:#181818;stroke-width:0.5;" width="160" x="82.5" y="109.1016"/><text fill="#000000" font-family="sans-serif" font-size="12" lengthAdjust="spacing" textLength="140" x="92.5" y="130.2402">Collections.sort(copy);</text><rect fill="#F1F1F1" height="33.9688" rx="12.5" ry="12.5" style="stroke:#181818;stroke-width:0.5;" width="293" x="16" y="163.0703"/><text fill="#000000" font-family="sans-serif" font-size="12" lengthAdjust="spacing" textLength="273" x="26" y="184.209">final StringBuildersb=new StringBuilder("[");</text><rect fill="#F1F1F1" height="33.9688" rx="12.5" ry="12.5" style="stroke:#181818;stroke-width:0.5;" width="243" x="41" y="217.0391"/><text fill="#000000" font-family="sans-serif" font-size="12" lengthAdjust="spacing" textLength="223" x="51" y="238.1777">sb.append(y+"="+getValue(y)+" ");</text><rect fill="#F1F1F1" height="33.9688" rx="12.5" ry="12.5" style="stroke:#181818;stroke-width:0.5;" width="116" x="104.5" y="271.0078"/><text fill="#000000" font-family="sans-serif" font-size="12" lengthAdjust="spacing" textLength="96" x="114.5" y="292.1465">sb.append("]");</text><rect fill="#F1F1F1" height="33.9688" rx="12.5" ry="12.5" style="stroke:#181818;stroke-width:0.5;" width="146" x="89.5" y="324.9766"/><text fill="#000000" font-family="sans-serif" font-size="12" lengthAdjust="spacing" textLength="126" x="99.5" y="346.1152">return sb.toString();</text><ellipse cx="162.5" cy="389.9453" fill="none" rx="11" ry="11" style="stroke:#222222;stroke-width:1.0;"/><ellipse cx="162.5" cy="389.9453" fill="#222222" rx="6" ry="6" style="stroke:#111111;stroke-width:1.0;"/><ellipse cx="162.5" cy="420.9453" fill="none" rx="10" ry="10" style="stroke:#222222;stroke-width:1.5;"/><line style="stroke:#222222;stroke-width:2.5;" x1="156.3128" x2="168.6872" y1="414.7581" y2="427.1325"/><line style="stroke:#222222;stroke-width:2.5;" x1="168.6872" x2="156.3128" y1="414.7581" y2="427.1325"/><path d="M192.5,440.9453 L192.5,449.5117 L172.5,453.5117 L192.5,457.5117 L192.5,466.0781 A0,0 0 0 0 192.5,466.0781 L411.5,466.0781 A0,0 0 0 0 411.5,466.0781 L411.5,450.9453 L401.5,440.9453 L192.5,440.9453 A0,0 0 0 0 192.5,440.9453 " fill="#FEFFDD" style="stroke:#181818;stroke-width:0.5;"/><path d="M401.5,440.9453 L401.5,450.9453 L411.5,450.9453 L401.5,440.9453 " fill="#FEFFDD" style="stroke:#181818;stroke-width:0.5;"/><text fill="#000000" font-family="sans-serif" font-size="13" lengthAdjust="spacing" textLength="198" x="198.5" y="458.0122">void addStep(doubley,intvalue)</text><ellipse cx="162.5" cy="453.5117" fill="#222222" rx="10" ry="10" style="stroke:#222222;stroke-width:1.0;"/><rect fill="#F1F1F1" height="33.9688" rx="12.5" ry="12.5" style="stroke:#181818;stroke-width:0.5;" width="215" x="55" y="486.0781"/><text fill="#000000" font-family="sans-serif" font-size="12" lengthAdjust="spacing" textLength="195" x="65" y="507.2168">assert ys.size()==values.size();</text><rect fill="#F1F1F1" height="33.9688" rx="12.5" ry="12.5" style="stroke:#181818;stroke-width:0.5;" width="247" x="39" y="588.4492"/><text fill="#000000" font-family="sans-serif" font-size="12" lengthAdjust="spacing" textLength="227" x="49" y="609.5879">final doublelastY=ys.get(ys.size()-1);</text><rect fill="#F1F1F1" height="33.9688" rx="12.5" ry="12.5" style="stroke:#181818;stroke-width:0.5;" width="260" x="32.5" y="690.8203"/><text fill="#000000" font-family="sans-serif" font-size="12" lengthAdjust="spacing" textLength="240" x="42.5" y="711.959">throw new IllegalArgumentException();</text><ellipse cx="162.5" cy="764.3047" fill="none" rx="11" ry="11" style="stroke:#222222;stroke-width:1.0;"/><ellipse cx="162.5" cy="764.3047" fill="#222222" rx="6" ry="6" style="stroke:#111111;stroke-width:1.0;"/><polygon fill="#F1F1F1" points="141,642.418,184,642.418,196,654.418,184,666.418,141,666.418,129,654.418,141,642.418" style="stroke:#181818;stroke-width:0.5;"/><text fill="#000000" font-family="sans-serif" font-size="11" lengthAdjust="spacing" textLength="20" x="166.5" y="676.6284">yes</text><text fill="#000000" font-family="sans-serif" font-size="11" lengthAdjust="spacing" textLength="43" x="141" y="658.2261">y&lt;lastY</text><rect fill="#F1F1F1" height="33.9688" rx="12.5" ry="12.5" style="stroke:#181818;stroke-width:0.5;" width="197" x="64" y="865.707"/><text fill="#000000" font-family="sans-serif" font-size="12" lengthAdjust="spacing" textLength="177" x="74" y="886.8457">values.set(ys.size()-1,value);</text><rect fill="#F1F1F1" height="33.9688" rx="12.5" ry="12.5" style="stroke:#181818;stroke-width:0.5;" width="107" x="109" y="919.6758"/><text fill="#000000" font-family="sans-serif" font-size="12" lengthAdjust="spacing" textLength="87" x="119" y="940.8145">cache.clear();</text><rect fill="#F1F1F1" height="33.9688" rx="12.5" ry="12.5" style="stroke:#181818;stroke-width:0.5;" width="67" x="129" y="982.1602"/><text fill="#000000" font-family="sans-serif" font-size="12" lengthAdjust="spacing" textLength="47" x="139" y="1003.2988">return ;</text><ellipse cx="162.5" cy="1047.1289" fill="none" rx="11" ry="11" style="stroke:#222222;stroke-width:1.0;"/><ellipse cx="162.5" cy="1047.1289" fill="#222222" rx="6" ry="6" style="stroke:#111111;stroke-width:1.0;"/><polygon fill="#F1F1F1" points="136.5,817.3047,188.5,817.3047,200.5,829.3047,188.5,841.3047,136.5,841.3047,124.5,829.3047,136.5,817.3047" style="stroke:#181818;stroke-width:0.5;"/><text fill="#000000" font-family="sans-serif" font-size="11" lengthAdjust="spacing" textLength="20" x="166.5" y="851.5151">yes</text><text fill="#000000" font-family="sans-serif" font-size="11" lengthAdjust="spacing" textLength="52" x="136.5" y="833.1128">lastY==y</text><polygon fill="#F1F1F1" points="131,540.0469,194,540.0469,206,552.0469,194,564.0469,131,564.0469,119,552.0469,131,540.0469" style="stroke:#181818;stroke-width:0.5;"/><text fill="#000000" font-family="sans-serif" font-size="11" lengthAdjust="spacing" textLength="20" x="166.5" y="574.2573">yes</text><text fill="#000000" font-family="sans-serif" font-size="11" lengthAdjust="spacing" textLength="63" x="131" y="555.855">ys.size()&gt;0</text><polygon fill="#F1F1F1" points="162.5,1100.1289,174.5,1112.1289,162.5,1124.1289,150.5,1112.1289,162.5,1100.1289" style="stroke:#181818;stroke-width:0.5;"/><rect fill="#F1F1F1" height="33.9688" rx="12.5" ry="12.5" style="stroke:#181818;stroke-width:0.5;" width="81" x="122" y="1144.1289"/><text fill="#000000" font-family="sans-serif" font-size="12" lengthAdjust="spacing" textLength="61" x="132" y="1165.2676">ys.add(y);</text><rect fill="#F1F1F1" height="33.9688" rx="12.5" ry="12.5" style="stroke:#181818;stroke-width:0.5;" width="135" x="95" y="1198.0977"/><text fill="#000000" font-family="sans-serif" font-size="12" lengthAdjust="spacing" textLength="115" x="105" y="1219.2363">values.add(value);</text><rect fill="#F1F1F1" height="33.9688" rx="12.5" ry="12.5" style="stroke:#181818;stroke-width:0.5;" width="107" x="109" y="1252.0664"/><text fill="#000000" font-family="sans-serif" font-size="12" lengthAdjust="spacing" textLength="87" x="119" y="1273.2051">cache.clear();</text><ellipse cx="162.5" cy="1316.0352" fill="none" rx="10" ry="10" style="stroke:#222222;stroke-width:1.5;"/><line style="stroke:#222222;stroke-width:2.5;" x1="156.3128" x2="168.6872" y1="1309.848" y2="1322.2223"/><line style="stroke:#222222;stroke-width:2.5;" x1="168.6872" x2="156.3128" y1="1309.848" y2="1322.2223"/><path d="M192.5,1336.0352 L192.5,1344.6016 L172.5,1348.6016 L192.5,1352.6016 L192.5,1361.168 A0,0 0 0 0 192.5,1361.168 L322.5,1361.168 A0,0 0 0 0 322.5,1361.168 L322.5,1346.0352 L312.5,1336.0352 L192.5,1336.0352 A0,0 0 0 0 192.5,1336.0352 " fill="#FEFFDD" style="stroke:#181818;stroke-width:0.5;"/><path d="M312.5,1336.0352 L312.5,1346.0352 L322.5,1346.0352 L312.5,1336.0352 " fill="#FEFFDD" style="stroke:#181818;stroke-width:0.5;"/><text fill="#000000" font-family="sans-serif" font-size="13" lengthAdjust="spacing" textLength="109" x="198.5" y="1353.1021">intgetMaxValue()</text><ellipse cx="162.5" cy="1348.6016" fill="#222222" rx="10" ry="10" style="stroke:#222222;stroke-width:1.0;"/><rect fill="#F1F1F1" height="33.9688" rx="12.5" ry="12.5" style="stroke:#181818;stroke-width:0.5;" width="191" x="67" y="1381.168"/><text fill="#000000" font-family="sans-serif" font-size="12" lengthAdjust="spacing" textLength="171" x="77" y="1402.3066">intmax=Integer.MIN_VALUE;</text><rect fill="#F1F1F1" height="33.9688" rx="12.5" ry="12.5" style="stroke:#181818;stroke-width:0.5;" width="65" x="130" y="1483.5391"/><text fill="#000000" font-family="sans-serif" font-size="12" lengthAdjust="spacing" textLength="45" x="140" y="1504.6777">max=v;</text><polygon fill="#F1F1F1" points="143,1435.1367,182,1435.1367,194,1447.1367,182,1459.1367,143,1459.1367,131,1447.1367,143,1435.1367" style="stroke:#181818;stroke-width:0.5;"/><text fill="#000000" font-family="sans-serif" font-size="11" lengthAdjust="spacing" textLength="20" x="166.5" y="1469.3472">yes</text><text fill="#000000" font-family="sans-serif" font-size="11" lengthAdjust="spacing" textLength="39" x="143" y="1450.9448">v&gt;max</text><polygon fill="#F1F1F1" points="162.5,1537.5078,174.5,1549.5078,162.5,1561.5078,150.5,1549.5078,162.5,1537.5078" style="stroke:#181818;stroke-width:0.5;"/><rect fill="#F1F1F1" height="33.9688" rx="12.5" ry="12.5" style="stroke:#181818;stroke-width:0.5;" width="92" x="116.5" y="1581.5078"/><text fill="#000000" font-family="sans-serif" font-size="12" lengthAdjust="spacing" textLength="72" x="126.5" y="1602.6465">return max;</text><ellipse cx="162.5" cy="1646.4766" fill="none" rx="11" ry="11" style="stroke:#222222;stroke-width:1.0;"/><ellipse cx="162.5" cy="1646.4766" fill="#222222" rx="6" ry="6" style="stroke:#111111;stroke-width:1.0;"/><ellipse cx="162.5" cy="1677.4766" fill="none" rx="10" ry="10" style="stroke:#222222;stroke-width:1.5;"/><line style="stroke:#222222;stroke-width:2.5;" x1="156.3128" x2="168.6872" y1="1671.2894" y2="1683.6637"/><line style="stroke:#222222;stroke-width:2.5;" x1="168.6872" x2="156.3128" y1="1671.2894" y2="1683.6637"/><path d="M192.5,1697.4766 L192.5,1706.043 L172.5,1710.043 L192.5,1714.043 L192.5,1722.6094 A0,0 0 0 0 192.5,1722.6094 L347.5,1722.6094 A0,0 0 0 0 347.5,1722.6094 L347.5,1707.4766 L337.5,1697.4766 L192.5,1697.4766 A0,0 0 0 0 192.5,1697.4766 " fill="#FEFFDD" style="stroke:#181818;stroke-width:0.5;"/><path d="M337.5,1697.4766 L337.5,1707.4766 L347.5,1707.4766 L337.5,1697.4766 " fill="#FEFFDD" style="stroke:#181818;stroke-width:0.5;"/><text fill="#000000" font-family="sans-serif" font-size="13" lengthAdjust="spacing" textLength="134" x="198.5" y="1714.5435">List&lt;Double&gt;getYs()</text><ellipse cx="162.5" cy="1710.043" fill="#222222" rx="10" ry="10" style="stroke:#222222;stroke-width:1.0;"/><rect fill="#F1F1F1" height="33.9688" rx="12.5" ry="12.5" style="stroke:#181818;stroke-width:0.5;" width="263" x="31" y="1742.6094"/><text fill="#000000" font-family="sans-serif" font-size="12" lengthAdjust="spacing" textLength="243" x="41" y="1763.748">return Collections.unmodifiableList(ys);</text><ellipse cx="162.5" cy="1807.5781" fill="none" rx="11" ry="11" style="stroke:#222222;stroke-width:1.0;"/><ellipse cx="162.5" cy="1807.5781" fill="#222222" rx="6" ry="6" style="stroke:#111111;stroke-width:1.0;"/><ellipse cx="162.5" cy="1838.5781" fill="none" rx="10" ry="10" style="stroke:#222222;stroke-width:1.5;"/><line style="stroke:#222222;stroke-width:2.5;" x1="156.3128" x2="168.6872" y1="1832.3909" y2="1844.7653"/><line style="stroke:#222222;stroke-width:2.5;" x1="168.6872" x2="156.3128" y1="1832.3909" y2="1844.7653"/><path d="M192.5,1858.5781 L192.5,1867.1445 L172.5,1871.1445 L192.5,1875.1445 L192.5,1883.7109 A0,0 0 0 0 192.5,1883.7109 L321.5,1883.7109 A0,0 0 0 0 321.5,1883.7109 L321.5,1868.5781 L311.5,1858.5781 L192.5,1858.5781 A0,0 0 0 0 192.5,1858.5781 " fill="#FEFFDD" style="stroke:#181818;stroke-width:0.5;"/><path d="M311.5,1858.5781 L311.5,1868.5781 L321.5,1868.5781 L311.5,1858.5781 " fill="#FEFFDD" style="stroke:#181818;stroke-width:0.5;"/><text fill="#000000" font-family="sans-serif" font-size="13" lengthAdjust="spacing" textLength="108" x="198.5" y="1875.645">doublegetLastY()</text><ellipse cx="162.5" cy="1871.1445" fill="#222222" rx="10" ry="10" style="stroke:#222222;stroke-width:1.0;"/><rect fill="#F1F1F1" height="33.9688" rx="12.5" ry="12.5" style="stroke:#181818;stroke-width:0.5;" width="75" x="125" y="1952.1133"/><text fill="#000000" font-family="sans-serif" font-size="12" lengthAdjust="spacing" textLength="55" x="135" y="1973.252">return 0;</text><ellipse cx="162.5" cy="2025.5977" fill="none" rx="11" ry="11" style="stroke:#222222;stroke-width:1.0;"/><ellipse cx="162.5" cy="2025.5977" fill="#222222" rx="6" ry="6" style="stroke:#111111;stroke-width:1.0;"/><polygon fill="#F1F1F1" points="126.5,1903.7109,198.5,1903.7109,210.5,1915.7109,198.5,1927.7109,126.5,1927.7109,114.5,1915.7109,126.5,1903.7109" style="stroke:#181818;stroke-width:0.5;"/><text fill="#000000" font-family="sans-serif" font-size="11" lengthAdjust="spacing" textLength="20" x="166.5" y="1937.9214">yes</text><text fill="#000000" font-family="sans-serif" font-size="11" lengthAdjust="spacing" textLength="72" x="126.5" y="1919.519">ys.size()==0</text><rect fill="#F1F1F1" height="33.9688" rx="12.5" ry="12.5" style="stroke:#181818;stroke-width:0.5;" width="177" x="74" y="2078.5977"/><text fill="#000000" font-family="sans-serif" font-size="12" lengthAdjust="spacing" textLength="157" x="84" y="2099.7363">return ys.get(ys.size()-1);</text><ellipse cx="162.5" cy="2143.5664" fill="none" rx="11" ry="11" style="stroke:#222222;stroke-width:1.0;"/><ellipse cx="162.5" cy="2143.5664" fill="#222222" rx="6" ry="6" style="stroke:#111111;stroke-width:1.0;"/><ellipse cx="162.5" cy="2174.5664" fill="none" rx="10" ry="10" style="stroke:#222222;stroke-width:1.5;"/><line style="stroke:#222222;stroke-width:2.5;" x1="156.3128" x2="168.6872" y1="2168.3792" y2="2180.7536"/><line style="stroke:#222222;stroke-width:2.5;" x1="168.6872" x2="156.3128" y1="2168.3792" y2="2180.7536"/><path d="M192.5,2194.5664 L192.5,2203.1328 L172.5,2207.1328 L192.5,2211.1328 L192.5,2219.6992 A0,0 0 0 0 192.5,2219.6992 L346.5,2219.6992 A0,0 0 0 0 346.5,2219.6992 L346.5,2204.5664 L336.5,2194.5664 L192.5,2194.5664 A0,0 0 0 0 192.5,2194.5664 " fill="#FEFFDD" style="stroke:#181818;stroke-width:0.5;"/><path d="M336.5,2194.5664 L336.5,2204.5664 L346.5,2204.5664 L336.5,2194.5664 " fill="#FEFFDD" style="stroke:#181818;stroke-width:0.5;"/><text fill="#000000" font-family="sans-serif" font-size="13" lengthAdjust="spacing" textLength="133" x="198.5" y="2211.6333">intgetValue(doubley)</text><ellipse cx="162.5" cy="2207.1328" fill="#222222" rx="10" ry="10" style="stroke:#222222;stroke-width:1.0;"/><rect fill="#F1F1F1" height="33.9688" rx="12.5" ry="12.5" style="stroke:#181818;stroke-width:0.5;" width="194" x="65.5" y="2239.6992"/><text fill="#000000" font-family="sans-serif" font-size="12" lengthAdjust="spacing" textLength="174" x="75.5" y="2260.8379">Integerresult=cache.get(y);</text><rect fill="#F1F1F1" height="33.9688" rx="12.5" ry="12.5" style="stroke:#181818;stroke-width:0.5;" width="170" x="77.5" y="2342.0703"/><text fill="#000000" font-family="sans-serif" font-size="12" lengthAdjust="spacing" textLength="150" x="87.5" y="2363.209">result=getValueSlow(y);</text><rect fill="#F1F1F1" height="33.9688" rx="12.5" ry="12.5" style="stroke:#181818;stroke-width:0.5;" width="143" x="91" y="2411.0391"/><text fill="#000000" font-family="sans-serif" font-size="12" lengthAdjust="spacing" textLength="123" x="101" y="2432.1777">cache.put(y,result);</text><polygon fill="#F1F1F1" points="125,2293.668,200,2293.668,212,2305.668,200,2317.668,125,2317.668,113,2305.668,125,2293.668" style="stroke:#181818;stroke-width:0.5;"/><text fill="#000000" font-family="sans-serif" font-size="11" lengthAdjust="spacing" textLength="20" x="166.5" y="2327.8784">yes</text><text fill="#000000" font-family="sans-serif" font-size="11" lengthAdjust="spacing" textLength="71" x="125" y="2309.4761">result==null</text><polygon fill="#F1F1F1" points="162.5,2465.0078,174.5,2477.0078,162.5,2489.0078,150.5,2477.0078,162.5,2465.0078" style="stroke:#181818;stroke-width:0.5;"/><rect fill="#F1F1F1" height="33.9688" rx="12.5" ry="12.5" style="stroke:#181818;stroke-width:0.5;" width="103" x="111" y="2509.0078"/><text fill="#000000" font-family="sans-serif" font-size="12" lengthAdjust="spacing" textLength="83" x="121" y="2530.1465">return result;</text><ellipse cx="162.5" cy="2573.9766" fill="none" rx="11" ry="11" style="stroke:#222222;stroke-width:1.0;"/><ellipse cx="162.5" cy="2573.9766" fill="#222222" rx="6" ry="6" style="stroke:#111111;stroke-width:1.0;"/><ellipse cx="162.5" cy="2604.9766" fill="none" rx="10" ry="10" style="stroke:#222222;stroke-width:1.5;"/><line style="stroke:#222222;stroke-width:2.5;" x1="156.3128" x2="168.6872" y1="2598.7894" y2="2611.1637"/><line style="stroke:#222222;stroke-width:2.5;" x1="168.6872" x2="156.3128" y1="2598.7894" y2="2611.1637"/><path d="M192.5,2624.9766 L192.5,2633.543 L172.5,2637.543 L192.5,2641.543 L192.5,2650.1094 A0,0 0 0 0 192.5,2650.1094 L375.5,2650.1094 A0,0 0 0 0 375.5,2650.1094 L375.5,2634.9766 L365.5,2624.9766 L192.5,2624.9766 A0,0 0 0 0 192.5,2624.9766 " fill="#FEFFDD" style="stroke:#181818;stroke-width:0.5;"/><path d="M365.5,2624.9766 L365.5,2634.9766 L375.5,2634.9766 L365.5,2624.9766 " fill="#FEFFDD" style="stroke:#181818;stroke-width:0.5;"/><text fill="#000000" font-family="sans-serif" font-size="13" lengthAdjust="spacing" textLength="162" x="198.5" y="2642.0435">intgetValueSlow(doubley)</text><ellipse cx="162.5" cy="2637.543" fill="#222222" rx="10" ry="10" style="stroke:#222222;stroke-width:1.0;"/><rect fill="#F1F1F1" height="33.9688" rx="12.5" ry="12.5" style="stroke:#181818;stroke-width:0.5;" width="284" x="20.5" y="2670.1094"/><text fill="#000000" font-family="sans-serif" font-size="12" lengthAdjust="spacing" textLength="264" x="30.5" y="2691.248">final intidx=Collections.binarySearch(ys,y);</text><rect fill="#F1F1F1" height="33.9688" rx="12.5" ry="12.5" style="stroke:#181818;stroke-width:0.5;" width="159" x="83" y="2772.4805"/><text fill="#000000" font-family="sans-serif" font-size="12" lengthAdjust="spacing" textLength="139" x="93" y="2793.6191">return values.get(idx);</text><ellipse cx="162.5" cy="2845.9648" fill="none" rx="11" ry="11" style="stroke:#222222;stroke-width:1.0;"/><ellipse cx="162.5" cy="2845.9648" fill="#222222" rx="6" ry="6" style="stroke:#111111;stroke-width:1.0;"/><polygon fill="#F1F1F1" points="142,2724.0781,183,2724.0781,195,2736.0781,183,2748.0781,142,2748.0781,130,2736.0781,142,2724.0781" style="stroke:#181818;stroke-width:0.5;"/><text fill="#000000" font-family="sans-serif" font-size="11" lengthAdjust="spacing" textLength="20" x="166.5" y="2758.2886">yes</text><text fill="#000000" font-family="sans-serif" font-size="11" lengthAdjust="spacing" textLength="41" x="142" y="2739.8862">idx&gt;=0</text><rect fill="#F1F1F1" height="33.9688" rx="12.5" ry="12.5" style="stroke:#181818;stroke-width:0.5;" width="181" x="72" y="2898.9648"/><text fill="#000000" font-family="sans-serif" font-size="12" lengthAdjust="spacing" textLength="161" x="82" y="2920.1035">final intinsertPoint=-idx-1;</text><rect fill="#F1F1F1" height="33.9688" rx="12.5" ry="12.5" style="stroke:#181818;stroke-width:0.5;" width="75" x="125" y="3001.3359"/><text fill="#000000" font-family="sans-serif" font-size="12" lengthAdjust="spacing" textLength="55" x="135" y="3022.4746">return 0;</text><ellipse cx="162.5" cy="3074.8203" fill="none" rx="11" ry="11" style="stroke:#222222;stroke-width:1.0;"/><ellipse cx="162.5" cy="3074.8203" fill="#222222" rx="6" ry="6" style="stroke:#111111;stroke-width:1.0;"/><polygon fill="#F1F1F1" points="119.5,2952.9336,205.5,2952.9336,217.5,2964.9336,205.5,2976.9336,119.5,2976.9336,107.5,2964.9336,119.5,2952.9336" style="stroke:#181818;stroke-width:0.5;"/><text fill="#000000" font-family="sans-serif" font-size="11" lengthAdjust="spacing" textLength="20" x="166.5" y="2987.144">yes</text><text fill="#000000" font-family="sans-serif" font-size="11" lengthAdjust="spacing" textLength="86" x="119.5" y="2968.7417">insertPoint==0</text><rect fill="#F1F1F1" height="33.9688" rx="12.5" ry="12.5" style="stroke:#181818;stroke-width:0.5;" width="222" x="51.5" y="3127.8203"/><text fill="#000000" font-family="sans-serif" font-size="12" lengthAdjust="spacing" textLength="202" x="61.5" y="3148.959">return values.get(insertPoint-1);</text><ellipse cx="162.5" cy="3192.7891" fill="none" rx="11" ry="11" style="stroke:#222222;stroke-width:1.0;"/><ellipse cx="162.5" cy="3192.7891" fill="#222222" rx="6" ry="6" style="stroke:#111111;stroke-width:1.0;"/><ellipse cx="162.5" cy="3223.7891" fill="none" rx="10" ry="10" style="stroke:#222222;stroke-width:1.5;"/><line style="stroke:#222222;stroke-width:2.5;" x1="156.3128" x2="168.6872" y1="3217.6019" y2="3229.9762"/><line style="stroke:#222222;stroke-width:2.5;" x1="168.6872" x2="156.3128" y1="3217.6019" y2="3229.9762"/><path d="M192.5,3243.7891 L192.5,3252.3555 L172.5,3256.3555 L192.5,3260.3555 L192.5,3268.9219 A0,0 0 0 0 192.5,3268.9219 L323.5,3268.9219 A0,0 0 0 0 323.5,3268.9219 L323.5,3253.7891 L313.5,3243.7891 L192.5,3243.7891 A0,0 0 0 0 192.5,3243.7891 " fill="#FEFFDD" style="stroke:#181818;stroke-width:0.5;"/><path d="M313.5,3243.7891 L313.5,3253.7891 L323.5,3253.7891 L313.5,3243.7891 " fill="#FEFFDD" style="stroke:#181818;stroke-width:0.5;"/><text fill="#000000" font-family="sans-serif" font-size="13" lengthAdjust="spacing" textLength="110" x="198.5" y="3260.856">intgetLastValue()</text><ellipse cx="162.5" cy="3256.3555" fill="#222222" rx="10" ry="10" style="stroke:#222222;stroke-width:1.0;"/><rect fill="#F1F1F1" height="33.9688" rx="12.5" ry="12.5" style="stroke:#181818;stroke-width:0.5;" width="180" x="72.5" y="3288.9219"/><text fill="#000000" font-family="sans-serif" font-size="12" lengthAdjust="spacing" textLength="160" x="82.5" y="3310.0605">final intsize=values.size();</text><rect fill="#F1F1F1" height="33.9688" rx="12.5" ry="12.5" style="stroke:#181818;stroke-width:0.5;" width="75" x="125" y="3391.293"/><text fill="#000000" font-family="sans-serif" font-size="12" lengthAdjust="spacing" textLength="55" x="135" y="3412.4316">return 0;</text><ellipse cx="162.5" cy="3464.7773" fill="none" rx="11" ry="11" style="stroke:#222222;stroke-width:1.0;"/><ellipse cx="162.5" cy="3464.7773" fill="#222222" rx="6" ry="6" style="stroke:#111111;stroke-width:1.0;"/><polygon fill="#F1F1F1" points="139,3342.8906,186,3342.8906,198,3354.8906,186,3366.8906,139,3366.8906,127,3354.8906,139,3342.8906" style="stroke:#181818;stroke-width:0.5;"/><text fill="#000000" font-family="sans-serif" font-size="11" lengthAdjust="spacing" textLength="20" x="166.5" y="3377.1011">yes</text><text fill="#000000" font-family="sans-serif" font-size="11" lengthAdjust="spacing" textLength="47" x="139" y="3358.6987">size==0</text><rect fill="#F1F1F1" height="33.9688" rx="12.5" ry="12.5" style="stroke:#181818;stroke-width:0.5;" width="177" x="74" y="3517.7773"/><text fill="#000000" font-family="sans-serif" font-size="12" lengthAdjust="spacing" textLength="157" x="84" y="3538.916">return values.get(size-1);</text><ellipse cx="162.5" cy="3582.7461" fill="none" rx="11" ry="11" style="stroke:#222222;stroke-width:1.0;"/><ellipse cx="162.5" cy="3582.7461" fill="#222222" rx="6" ry="6" style="stroke:#111111;stroke-width:1.0;"/><ellipse cx="162.5" cy="3613.7461" fill="none" rx="10" ry="10" style="stroke:#222222;stroke-width:1.5;"/><line style="stroke:#222222;stroke-width:2.5;" x1="156.3128" x2="168.6872" y1="3607.5589" y2="3619.9333"/><line style="stroke:#222222;stroke-width:2.5;" x1="168.6872" x2="156.3128" y1="3607.5589" y2="3619.9333"/><line style="stroke:#181818;stroke-width:1.0;" x1="162.5" x2="162.5" y1="32.5664" y2="55.1328"/><polygon fill="#181818" points="158.5,45.1328,162.5,55.1328,166.5,45.1328,162.5,49.1328" style="stroke:#181818;stroke-width:1.0;"/><line style="stroke:#181818;stroke-width:1.0;" x1="162.5" x2="162.5" y1="89.1016" y2="109.1016"/><polygon fill="#181818" points="158.5,99.1016,162.5,109.1016,166.5,99.1016,162.5,103.1016" style="stroke:#181818;stroke-width:1.0;"/><line style="stroke:#181818;stroke-width:1.0;" x1="162.5" x2="162.5" y1="143.0703" y2="163.0703"/><polygon fill="#181818" points="158.5,153.0703,162.5,163.0703,166.5,153.0703,162.5,157.0703" style="stroke:#181818;stroke-width:1.0;"/><line style="stroke:#181818;stroke-width:1.0;" x1="162.5" x2="162.5" y1="197.0391" y2="217.0391"/><polygon fill="#181818" points="158.5,207.0391,162.5,217.0391,166.5,207.0391,162.5,211.0391" style="stroke:#181818;stroke-width:1.0;"/><line style="stroke:#181818;stroke-width:1.0;" x1="162.5" x2="162.5" y1="251.0078" y2="271.0078"/><polygon fill="#181818" points="158.5,261.0078,162.5,271.0078,166.5,261.0078,162.5,265.0078" style="stroke:#181818;stroke-width:1.0;"/><line style="stroke:#181818;stroke-width:1.0;" x1="162.5" x2="162.5" y1="304.9766" y2="324.9766"/><polygon fill="#181818" points="158.5,314.9766,162.5,324.9766,166.5,314.9766,162.5,318.9766" style="stroke:#181818;stroke-width:1.0;"/><line style="stroke:#181818;stroke-width:1.0;" x1="162.5" x2="162.5" y1="358.9453" y2="378.9453"/><polygon fill="#181818" points="158.5,368.9453,162.5,378.9453,166.5,368.9453,162.5,372.9453" style="stroke:#181818;stroke-width:1.0;"/><line style="stroke:#181818;stroke-width:1.0;" x1="162.5" x2="162.5" y1="463.5117" y2="486.0781"/><polygon fill="#181818" points="158.5,476.0781,162.5,486.0781,166.5,476.0781,162.5,480.0781" style="stroke:#181818;stroke-width:1.0;"/><line style="stroke:#181818;stroke-width:1.0;" x1="162.5" x2="162.5" y1="724.7891" y2="753.3047"/><polygon fill="#181818" points="158.5,743.3047,162.5,753.3047,166.5,743.3047,162.5,747.3047" style="stroke:#181818;stroke-width:1.0;"/><line style="stroke:#181818;stroke-width:1.0;" x1="162.5" x2="162.5" y1="666.418" y2="690.8203"/><polygon fill="#181818" points="158.5,680.8203,162.5,690.8203,166.5,680.8203,162.5,684.8203" style="stroke:#181818;stroke-width:1.0;"/><line style="stroke:#181818;stroke-width:1.0;" x1="196" x2="302.5" y1="654.418" y2="654.418"/><polygon fill="#181818" points="298.5,723.3047,302.5,733.3047,306.5,723.3047,302.5,727.3047" style="stroke:#181818;stroke-width:1.0;"/><line style="stroke:#181818;stroke-width:1.0;" x1="302.5" x2="302.5" y1="654.418" y2="797.3047"/><line style="stroke:#181818;stroke-width:1.0;" x1="302.5" x2="162.5" y1="797.3047" y2="797.3047"/><line style="stroke:#181818;stroke-width:1.0;" x1="162.5" x2="162.5" y1="797.3047" y2="817.3047"/><polygon fill="#181818" points="158.5,807.3047,162.5,817.3047,166.5,807.3047,162.5,811.3047" style="stroke:#181818;stroke-width:1.0;"/><line style="stroke:#181818;stroke-width:1.0;" x1="162.5" x2="162.5" y1="622.418" y2="642.418"/><polygon fill="#181818" points="158.5,632.418,162.5,642.418,166.5,632.418,162.5,636.418" style="stroke:#181818;stroke-width:1.0;"/><line style="stroke:#181818;stroke-width:1.0;" x1="162.5" x2="162.5" y1="899.6758" y2="919.6758"/><polygon fill="#181818" points="158.5,909.6758,162.5,919.6758,166.5,909.6758,162.5,913.6758" style="stroke:#181818;stroke-width:1.0;"/><line style="stroke:#181818;stroke-width:1.0;" x1="162.5" x2="162.5" y1="953.6445" y2="982.1602"/><polygon fill="#181818" points="158.5,972.1602,162.5,982.1602,166.5,972.1602,162.5,976.1602" style="stroke:#181818;stroke-width:1.0;"/><line style="stroke:#181818;stroke-width:1.0;" x1="162.5" x2="162.5" y1="1016.1289" y2="1036.1289"/><polygon fill="#181818" points="158.5,1026.1289,162.5,1036.1289,166.5,1026.1289,162.5,1030.1289" style="stroke:#181818;stroke-width:1.0;"/><line style="stroke:#181818;stroke-width:1.0;" x1="162.5" x2="162.5" y1="841.3047" y2="865.707"/><polygon fill="#181818" points="158.5,855.707,162.5,865.707,166.5,855.707,162.5,859.707" style="stroke:#181818;stroke-width:1.0;"/><line style="stroke:#181818;stroke-width:1.0;" x1="200.5" x2="271" y1="829.3047" y2="829.3047"/><polygon fill="#181818" points="267,952.1602,271,962.1602,275,952.1602,271,956.1602" style="stroke:#181818;stroke-width:1.0;"/><line style="stroke:#181818;stroke-width:1.0;" x1="271" x2="271" y1="829.3047" y2="1080.1289"/><line style="stroke:#181818;stroke-width:1.0;" x1="271" x2="162.5" y1="1080.1289" y2="1080.1289"/><line style="stroke:#181818;stroke-width:1.0;" x1="162.5" x2="162.5" y1="1080.1289" y2="1100.1289"/><polygon fill="#181818" points="158.5,1090.1289,162.5,1100.1289,166.5,1090.1289,162.5,1094.1289" style="stroke:#181818;stroke-width:1.0;"/><line style="stroke:#181818;stroke-width:1.0;" x1="162.5" x2="162.5" y1="564.0469" y2="588.4492"/><polygon fill="#181818" points="158.5,578.4492,162.5,588.4492,166.5,578.4492,162.5,582.4492" style="stroke:#181818;stroke-width:1.0;"/><line style="stroke:#181818;stroke-width:1.0;" x1="206" x2="324.5" y1="552.0469" y2="552.0469"/><polygon fill="#181818" points="320.5,824.2891,324.5,834.2891,328.5,824.2891,324.5,828.2891" style="stroke:#181818;stroke-width:1.0;"/><line style="stroke:#181818;stroke-width:1.0;" x1="324.5" x2="324.5" y1="552.0469" y2="1112.1289"/><line style="stroke:#181818;stroke-width:1.0;" x1="324.5" x2="174.5" y1="1112.1289" y2="1112.1289"/><polygon fill="#181818" points="184.5,1108.1289,174.5,1112.1289,184.5,1116.1289,180.5,1112.1289" style="stroke:#181818;stroke-width:1.0;"/><line style="stroke:#181818;stroke-width:1.0;" x1="162.5" x2="162.5" y1="520.0469" y2="540.0469"/><polygon fill="#181818" points="158.5,530.0469,162.5,540.0469,166.5,530.0469,162.5,534.0469" style="stroke:#181818;stroke-width:1.0;"/><line style="stroke:#181818;stroke-width:1.0;" x1="162.5" x2="162.5" y1="1124.1289" y2="1144.1289"/><polygon fill="#181818" points="158.5,1134.1289,162.5,1144.1289,166.5,1134.1289,162.5,1138.1289" style="stroke:#181818;stroke-width:1.0;"/><line style="stroke:#181818;stroke-width:1.0;" x1="162.5" x2="162.5" y1="1178.0977" y2="1198.0977"/><polygon fill="#181818" points="158.5,1188.0977,162.5,1198.0977,166.5,1188.0977,162.5,1192.0977" style="stroke:#181818;stroke-width:1.0;"/><line style="stroke:#181818;stroke-width:1.0;" x1="162.5" x2="162.5" y1="1232.0664" y2="1252.0664"/><polygon fill="#181818" points="158.5,1242.0664,162.5,1252.0664,166.5,1242.0664,162.5,1246.0664" style="stroke:#181818;stroke-width:1.0;"/><line style="stroke:#181818;stroke-width:1.0;" x1="162.5" x2="162.5" y1="1286.0352" y2="1306.0352"/><polygon fill="#181818" points="158.5,1296.0352,162.5,1306.0352,166.5,1296.0352,162.5,1300.0352" style="stroke:#181818;stroke-width:1.0;"/><line style="stroke:#181818;stroke-width:1.0;" x1="162.5" x2="162.5" y1="1358.6016" y2="1381.168"/><polygon fill="#181818" points="158.5,1371.168,162.5,1381.168,166.5,1371.168,162.5,1375.168" style="stroke:#181818;stroke-width:1.0;"/><line style="stroke:#181818;stroke-width:1.0;" x1="162.5" x2="162.5" y1="1459.1367" y2="1483.5391"/><polygon fill="#181818" points="158.5,1473.5391,162.5,1483.5391,166.5,1473.5391,162.5,1477.5391" style="stroke:#181818;stroke-width:1.0;"/><line style="stroke:#181818;stroke-width:1.0;" x1="194" x2="206" y1="1447.1367" y2="1447.1367"/><polygon fill="#181818" points="202,1490.5234,206,1500.5234,210,1490.5234,206,1494.5234" style="stroke:#181818;stroke-width:1.0;"/><line style="stroke:#181818;stroke-width:1.0;" x1="206" x2="206" y1="1447.1367" y2="1549.5078"/><line style="stroke:#181818;stroke-width:1.0;" x1="206" x2="174.5" y1="1549.5078" y2="1549.5078"/><polygon fill="#181818" points="184.5,1545.5078,174.5,1549.5078,184.5,1553.5078,180.5,1549.5078" style="stroke:#181818;stroke-width:1.0;"/><line style="stroke:#181818;stroke-width:1.0;" x1="162.5" x2="162.5" y1="1517.5078" y2="1537.5078"/><polygon fill="#181818" points="158.5,1527.5078,162.5,1537.5078,166.5,1527.5078,162.5,1531.5078" style="stroke:#181818;stroke-width:1.0;"/><line style="stroke:#181818;stroke-width:1.0;" x1="162.5" x2="162.5" y1="1415.1367" y2="1435.1367"/><polygon fill="#181818" points="158.5,1425.1367,162.5,1435.1367,166.5,1425.1367,162.5,1429.1367" style="stroke:#181818;stroke-width:1.0;"/><line style="stroke:#181818;stroke-width:1.0;" x1="162.5" x2="162.5" y1="1561.5078" y2="1581.5078"/><polygon fill="#181818" points="158.5,1571.5078,162.5,1581.5078,166.5,1571.5078,162.5,1575.5078" style="stroke:#181818;stroke-width:1.0;"/><line style="stroke:#181818;stroke-width:1.0;" x1="162.5" x2="162.5" y1="1615.4766" y2="1635.4766"/><polygon fill="#181818" points="158.5,1625.4766,162.5,1635.4766,166.5,1625.4766,162.5,1629.4766" style="stroke:#181818;stroke-width:1.0;"/><line style="stroke:#181818;stroke-width:1.0;" x1="162.5" x2="162.5" y1="1720.043" y2="1742.6094"/><polygon fill="#181818" points="158.5,1732.6094,162.5,1742.6094,166.5,1732.6094,162.5,1736.6094" style="stroke:#181818;stroke-width:1.0;"/><line style="stroke:#181818;stroke-width:1.0;" x1="162.5" x2="162.5" y1="1776.5781" y2="1796.5781"/><polygon fill="#181818" points="158.5,1786.5781,162.5,1796.5781,166.5,1786.5781,162.5,1790.5781" style="stroke:#181818;stroke-width:1.0;"/><line style="stroke:#181818;stroke-width:1.0;" x1="162.5" x2="162.5" y1="1986.082" y2="2014.5977"/><polygon fill="#181818" points="158.5,2004.5977,162.5,2014.5977,166.5,2004.5977,162.5,2008.5977" style="stroke:#181818;stroke-width:1.0;"/><line style="stroke:#181818;stroke-width:1.0;" x1="162.5" x2="162.5" y1="1927.7109" y2="1952.1133"/><polygon fill="#181818" points="158.5,1942.1133,162.5,1952.1133,166.5,1942.1133,162.5,1946.1133" style="stroke:#181818;stroke-width:1.0;"/><line style="stroke:#181818;stroke-width:1.0;" x1="210.5" x2="222.5" y1="1915.7109" y2="1915.7109"/><polygon fill="#181818" points="218.5,1984.5977,222.5,1994.5977,226.5,1984.5977,222.5,1988.5977" style="stroke:#181818;stroke-width:1.0;"/><line style="stroke:#181818;stroke-width:1.0;" x1="222.5" x2="222.5" y1="1915.7109" y2="2058.5977"/><line style="stroke:#181818;stroke-width:1.0;" x1="222.5" x2="162.5" y1="2058.5977" y2="2058.5977"/><line style="stroke:#181818;stroke-width:1.0;" x1="162.5" x2="162.5" y1="2058.5977" y2="2078.5977"/><polygon fill="#181818" points="158.5,2068.5977,162.5,2078.5977,166.5,2068.5977,162.5,2072.5977" style="stroke:#181818;stroke-width:1.0;"/><line style="stroke:#181818;stroke-width:1.0;" x1="162.5" x2="162.5" y1="1881.1445" y2="1903.7109"/><polygon fill="#181818" points="158.5,1893.7109,162.5,1903.7109,166.5,1893.7109,162.5,1897.7109" style="stroke:#181818;stroke-width:1.0;"/><line style="stroke:#181818;stroke-width:1.0;" x1="162.5" x2="162.5" y1="2112.5664" y2="2132.5664"/><polygon fill="#181818" points="158.5,2122.5664,162.5,2132.5664,166.5,2122.5664,162.5,2126.5664" style="stroke:#181818;stroke-width:1.0;"/><line style="stroke:#181818;stroke-width:1.0;" x1="162.5" x2="162.5" y1="2217.1328" y2="2239.6992"/><polygon fill="#181818" points="158.5,2229.6992,162.5,2239.6992,166.5,2229.6992,162.5,2233.6992" style="stroke:#181818;stroke-width:1.0;"/><line style="stroke:#181818;stroke-width:1.0;" x1="162.5" x2="162.5" y1="2376.0391" y2="2411.0391"/><polygon fill="#181818" points="158.5,2401.0391,162.5,2411.0391,166.5,2401.0391,162.5,2405.0391" style="stroke:#181818;stroke-width:1.0;"/><line style="stroke:#181818;stroke-width:1.0;" x1="162.5" x2="162.5" y1="2317.668" y2="2342.0703"/><polygon fill="#181818" points="158.5,2332.0703,162.5,2342.0703,166.5,2332.0703,162.5,2336.0703" style="stroke:#181818;stroke-width:1.0;"/><line style="stroke:#181818;stroke-width:1.0;" x1="212" x2="257.5" y1="2305.668" y2="2305.668"/><polygon fill="#181818" points="253.5,2383.5391,257.5,2393.5391,261.5,2383.5391,257.5,2387.5391" style="stroke:#181818;stroke-width:1.0;"/><line style="stroke:#181818;stroke-width:1.0;" x1="257.5" x2="257.5" y1="2305.668" y2="2477.0078"/><line style="stroke:#181818;stroke-width:1.0;" x1="257.5" x2="174.5" y1="2477.0078" y2="2477.0078"/><polygon fill="#181818" points="184.5,2473.0078,174.5,2477.0078,184.5,2481.0078,180.5,2477.0078" style="stroke:#181818;stroke-width:1.0;"/><line style="stroke:#181818;stroke-width:1.0;" x1="162.5" x2="162.5" y1="2445.0078" y2="2465.0078"/><polygon fill="#181818" points="158.5,2455.0078,162.5,2465.0078,166.5,2455.0078,162.5,2459.0078" style="stroke:#181818;stroke-width:1.0;"/><line style="stroke:#181818;stroke-width:1.0;" x1="162.5" x2="162.5" y1="2273.668" y2="2293.668"/><polygon fill="#181818" points="158.5,2283.668,162.5,2293.668,166.5,2283.668,162.5,2287.668" style="stroke:#181818;stroke-width:1.0;"/><line style="stroke:#181818;stroke-width:1.0;" x1="162.5" x2="162.5" y1="2489.0078" y2="2509.0078"/><polygon fill="#181818" points="158.5,2499.0078,162.5,2509.0078,166.5,2499.0078,162.5,2503.0078" style="stroke:#181818;stroke-width:1.0;"/><line style="stroke:#181818;stroke-width:1.0;" x1="162.5" x2="162.5" y1="2542.9766" y2="2562.9766"/><polygon fill="#181818" points="158.5,2552.9766,162.5,2562.9766,166.5,2552.9766,162.5,2556.9766" style="stroke:#181818;stroke-width:1.0;"/><line style="stroke:#181818;stroke-width:1.0;" x1="162.5" x2="162.5" y1="2647.543" y2="2670.1094"/><polygon fill="#181818" points="158.5,2660.1094,162.5,2670.1094,166.5,2660.1094,162.5,2664.1094" style="stroke:#181818;stroke-width:1.0;"/><line style="stroke:#181818;stroke-width:1.0;" x1="162.5" x2="162.5" y1="2806.4492" y2="2834.9648"/><polygon fill="#181818" points="158.5,2824.9648,162.5,2834.9648,166.5,2824.9648,162.5,2828.9648" style="stroke:#181818;stroke-width:1.0;"/><line style="stroke:#181818;stroke-width:1.0;" x1="162.5" x2="162.5" y1="2748.0781" y2="2772.4805"/><polygon fill="#181818" points="158.5,2762.4805,162.5,2772.4805,166.5,2762.4805,162.5,2766.4805" style="stroke:#181818;stroke-width:1.0;"/><line style="stroke:#181818;stroke-width:1.0;" x1="195" x2="252" y1="2736.0781" y2="2736.0781"/><polygon fill="#181818" points="248,2804.9648,252,2814.9648,256,2804.9648,252,2808.9648" style="stroke:#181818;stroke-width:1.0;"/><line style="stroke:#181818;stroke-width:1.0;" x1="252" x2="252" y1="2736.0781" y2="2878.9648"/><line style="stroke:#181818;stroke-width:1.0;" x1="252" x2="162.5" y1="2878.9648" y2="2878.9648"/><line style="stroke:#181818;stroke-width:1.0;" x1="162.5" x2="162.5" y1="2878.9648" y2="2898.9648"/><polygon fill="#181818" points="158.5,2888.9648,162.5,2898.9648,166.5,2888.9648,162.5,2892.9648" style="stroke:#181818;stroke-width:1.0;"/><line style="stroke:#181818;stroke-width:1.0;" x1="162.5" x2="162.5" y1="2704.0781" y2="2724.0781"/><polygon fill="#181818" points="158.5,2714.0781,162.5,2724.0781,166.5,2714.0781,162.5,2718.0781" style="stroke:#181818;stroke-width:1.0;"/><line style="stroke:#181818;stroke-width:1.0;" x1="162.5" x2="162.5" y1="3035.3047" y2="3063.8203"/><polygon fill="#181818" points="158.5,3053.8203,162.5,3063.8203,166.5,3053.8203,162.5,3057.8203" style="stroke:#181818;stroke-width:1.0;"/><line style="stroke:#181818;stroke-width:1.0;" x1="162.5" x2="162.5" y1="2976.9336" y2="3001.3359"/><polygon fill="#181818" points="158.5,2991.3359,162.5,3001.3359,166.5,2991.3359,162.5,2995.3359" style="stroke:#181818;stroke-width:1.0;"/><line style="stroke:#181818;stroke-width:1.0;" x1="217.5" x2="229.5" y1="2964.9336" y2="2964.9336"/><polygon fill="#181818" points="225.5,3033.8203,229.5,3043.8203,233.5,3033.8203,229.5,3037.8203" style="stroke:#181818;stroke-width:1.0;"/><line style="stroke:#181818;stroke-width:1.0;" x1="229.5" x2="229.5" y1="2964.9336" y2="3107.8203"/><line style="stroke:#181818;stroke-width:1.0;" x1="229.5" x2="162.5" y1="3107.8203" y2="3107.8203"/><line style="stroke:#181818;stroke-width:1.0;" x1="162.5" x2="162.5" y1="3107.8203" y2="3127.8203"/><polygon fill="#181818" points="158.5,3117.8203,162.5,3127.8203,166.5,3117.8203,162.5,3121.8203" style="stroke:#181818;stroke-width:1.0;"/><line style="stroke:#181818;stroke-width:1.0;" x1="162.5" x2="162.5" y1="2932.9336" y2="2952.9336"/><polygon fill="#181818" points="158.5,2942.9336,162.5,2952.9336,166.5,2942.9336,162.5,2946.9336" style="stroke:#181818;stroke-width:1.0;"/><line style="stroke:#181818;stroke-width:1.0;" x1="162.5" x2="162.5" y1="3161.7891" y2="3181.7891"/><polygon fill="#181818" points="158.5,3171.7891,162.5,3181.7891,166.5,3171.7891,162.5,3175.7891" style="stroke:#181818;stroke-width:1.0;"/><line style="stroke:#181818;stroke-width:1.0;" x1="162.5" x2="162.5" y1="3266.3555" y2="3288.9219"/><polygon fill="#181818" points="158.5,3278.9219,162.5,3288.9219,166.5,3278.9219,162.5,3282.9219" style="stroke:#181818;stroke-width:1.0;"/><line style="stroke:#181818;stroke-width:1.0;" x1="162.5" x2="162.5" y1="3425.2617" y2="3453.7773"/><polygon fill="#181818" points="158.5,3443.7773,162.5,3453.7773,166.5,3443.7773,162.5,3447.7773" style="stroke:#181818;stroke-width:1.0;"/><line style="stroke:#181818;stroke-width:1.0;" x1="162.5" x2="162.5" y1="3366.8906" y2="3391.293"/><polygon fill="#181818" points="158.5,3381.293,162.5,3391.293,166.5,3381.293,162.5,3385.293" style="stroke:#181818;stroke-width:1.0;"/><line style="stroke:#181818;stroke-width:1.0;" x1="198" x2="210" y1="3354.8906" y2="3354.8906"/><polygon fill="#181818" points="206,3423.7773,210,3433.7773,214,3423.7773,210,3427.7773" style="stroke:#181818;stroke-width:1.0;"/><line style="stroke:#181818;stroke-width:1.0;" x1="210" x2="210" y1="3354.8906" y2="3497.7773"/><line style="stroke:#181818;stroke-width:1.0;" x1="210" x2="162.5" y1="3497.7773" y2="3497.7773"/><line style="stroke:#181818;stroke-width:1.0;" x1="162.5" x2="162.5" y1="3497.7773" y2="3517.7773"/><polygon fill="#181818" points="158.5,3507.7773,162.5,3517.7773,166.5,3507.7773,162.5,3511.7773" style="stroke:#181818;stroke-width:1.0;"/><line style="stroke:#181818;stroke-width:1.0;" x1="162.5" x2="162.5" y1="3322.8906" y2="3342.8906"/><polygon fill="#181818" points="158.5,3332.8906,162.5,3342.8906,166.5,3332.8906,162.5,3336.8906" style="stroke:#181818;stroke-width:1.0;"/><line style="stroke:#181818;stroke-width:1.0;" x1="162.5" x2="162.5" y1="3551.7461" y2="3571.7461"/><polygon fill="#181818" points="158.5,3561.7461,162.5,3571.7461,166.5,3561.7461,162.5,3565.7461" style="stroke:#181818;stroke-width:1.0;"/><!--MD5=[bb47b4321d4193043a4915902757b478]
@startuml
!pragma layout smetana
start
note right
StringtoString()
end note
:final List<Double>copy=new ArrayList<>(ys);;
:Collections.sort(copy);;
:final StringBuildersb=new StringBuilder("[");;
:sb.append(y+"="+getValue(y)+" ");;
:sb.append("]");;
:return sb.toString();;
stop
end
start
note right
void addStep(doubley,intvalue)
end note
:assert ys.size()==values.size();;
if (ys.size()>0) then (yes) 
:final doublelastY=ys.get(ys.size()-1);;
if (y<lastY) then (yes) 
:throw new IllegalArgumentException();;
stop
endif 
if (lastY==y) then (yes) 
:values.set(ys.size()-1,value);;
:cache.clear();;
:return ;;
stop
endif 
endif 
:ys.add(y);;
:values.add(value);;
:cache.clear();;
end
start
note right
intgetMaxValue()
end note
:intmax=Integer.MIN_VALUE;;
if (v>max) then (yes) 
:max=v;;
endif 
:return max;;
stop
end
start
note right
List<Double>getYs()
end note
:return Collections.unmodifiableList(ys);;
stop
end
start
note right
doublegetLastY()
end note
if (ys.size()==0) then (yes) 
:return 0;;
stop
endif 
:return ys.get(ys.size()-1);;
stop
end
start
note right
intgetValue(doubley)
end note
:Integerresult=cache.get(y);;
if (result==null ) then (yes) 
:result=getValueSlow(y);;
:cache.put(y,result);;
endif 
:return result;;
stop
end
start
note right
intgetValueSlow(doubley)
end note
:final intidx=Collections.binarySearch(ys,y);;
if (idx>=0) then (yes) 
:return values.get(idx);;
stop
endif 
:final intinsertPoint=-idx-1;;
if (insertPoint==0) then (yes) 
:return 0;;
stop
endif 
:return values.get(insertPoint-1);;
stop
end
start
note right
intgetLastValue()
end note
:final intsize=values.size();;
if (size==0) then (yes) 
:return 0;;
stop
endif 
:return values.get(size-1);;
stop
end
@enduml

PlantUML version 1.2022.7(Mon Aug 22 17:01:30 UTC 2022)
(GPL source distribution)
Java Runtime: OpenJDK Runtime Environment
JVM: OpenJDK 64-Bit Server VM
Default Encoding: UTF-8
Language: en
Country: null
--></g></svg>