<?xml version="1.0" encoding="UTF-8" standalone="no"?><svg xmlns="http://www.w3.org/2000/svg" xmlns:xlink="http://www.w3.org/1999/xlink" contentStyleType="text/css" height="202px" preserveAspectRatio="none" style="width:653px;height:202px;background:#FFFFFF;" version="1.1" viewBox="0 0 653 202" width="653px" zoomAndPan="magnify"><defs/><g><!--MD5=[ce77c54405c461fb7098ed286c6d7703]
cluster net.sourceforge.plantuml.sequencediagram.command--><g id="cluster_net.sourceforge.plantuml.sequencediagram.command"><path d="M8.5,63 L437.5,63 A3.75,3.75 0 0 1 440,65.5 L447,85.2969 L643.5,85.2969 A2.5,2.5 0 0 1 646,87.7969 L646,192.5 A2.5,2.5 0 0 1 643.5,195 L8.5,195 A2.5,2.5 0 0 1 6,192.5 L6,65.5 A2.5,2.5 0 0 1 8.5,63 " fill="none" style="stroke:#000000;stroke-width:1.5;"/><line style="stroke:#000000;stroke-width:1.5;" x1="6" x2="447" y1="85.2969" y2="85.2969"/><text fill="#000000" font-family="sans-serif" font-size="14" font-weight="bold" lengthAdjust="spacing" textLength="428" x="10" y="77.9951">net.sourceforge.plantuml.sequencediagram.command</text></g><!--MD5=[147236534240ef89d26cdbd077819f49]
class SingleLineCommand2<SequenceDiagram>--><g id="elem_SingleLineCommand2&lt;SequenceDiagram&gt;"><rect fill="#F1F1F1" height="48" id="SingleLineCommand2&lt;SequenceDiagram&gt;" rx="2.5" ry="2.5" style="stroke:#181818;stroke-width:0.5;" width="334" x="159" y="6"/><ellipse cx="174" cy="22" fill="#ADD1B2" rx="11" ry="11" style="stroke:#181818;stroke-width:1.0;"/><path d="M176.9688,27.6406 Q176.3906,27.9375 175.75,28.0781 Q175.1094,28.2344 174.4063,28.2344 Q171.9063,28.2344 170.5781,26.5938 Q169.2656,24.9375 169.2656,21.8125 Q169.2656,18.6875 170.5781,17.0313 Q171.9063,15.375 174.4063,15.375 Q175.1094,15.375 175.75,15.5313 Q176.4063,15.6875 176.9688,15.9844 L176.9688,18.7031 Q176.3438,18.125 175.75,17.8594 Q175.1563,17.5781 174.5313,17.5781 Q173.1875,17.5781 172.5,18.6563 Q171.8125,19.7188 171.8125,21.8125 Q171.8125,23.9063 172.5,24.9844 Q173.1875,26.0469 174.5313,26.0469 Q175.1563,26.0469 175.75,25.7813 Q176.3438,25.5 176.9688,24.9219 L176.9688,27.6406 Z " fill="#000000"/><text fill="#000000" font-family="sans-serif" font-size="14" lengthAdjust="spacing" textLength="302" x="188" y="26.8467">SingleLineCommand2&lt;SequenceDiagram&gt;</text><line style="stroke:#181818;stroke-width:0.5;" x1="160" x2="492" y1="38" y2="38"/><line style="stroke:#181818;stroke-width:0.5;" x1="160" x2="492" y1="46" y2="46"/></g><!--MD5=[3a883acd6972c5c5b98cf888623f00c1]
class net.sourceforge.plantuml.sequencediagram.command.CommandAutonumberIncrement--><g id="elem_net.sourceforge.plantuml.sequencediagram.command.CommandAutonumberIncrement"><rect codeLine="3" fill="#F1F1F1" height="96.8906" id="net.sourceforge.plantuml.sequencediagram.command.CommandAutonumberIncrement" rx="2.5" ry="2.5" style="stroke:#181818;stroke-width:0.5;" width="623" x="14.5" y="90"/><ellipse cx="208.25" cy="106" fill="#ADD1B2" rx="11" ry="11" style="stroke:#181818;stroke-width:1.0;"/><path d="M211.2188,111.6406 Q210.6406,111.9375 210,112.0781 Q209.3594,112.2344 208.6563,112.2344 Q206.1563,112.2344 204.8281,110.5938 Q203.5156,108.9375 203.5156,105.8125 Q203.5156,102.6875 204.8281,101.0313 Q206.1563,99.375 208.6563,99.375 Q209.3594,99.375 210,99.5313 Q210.6563,99.6875 211.2188,99.9844 L211.2188,102.7031 Q210.5938,102.125 210,101.8594 Q209.4063,101.5781 208.7813,101.5781 Q207.4375,101.5781 206.75,102.6563 Q206.0625,103.7188 206.0625,105.8125 Q206.0625,107.9063 206.75,108.9844 Q207.4375,110.0469 208.7813,110.0469 Q209.4063,110.0469 210,109.7813 Q210.5938,109.5 211.2188,108.9219 L211.2188,111.6406 Z " fill="#000000"/><text fill="#000000" font-family="sans-serif" font-size="14" lengthAdjust="spacing" textLength="227" x="228.75" y="110.8467">CommandAutonumberIncrement</text><line style="stroke:#181818;stroke-width:0.5;" x1="15.5" x2="636.5" y1="122" y2="122"/><line style="stroke:#181818;stroke-width:0.5;" x1="15.5" x2="636.5" y1="130" y2="130"/><a href="./../../../../../../.././qc/src/net/sourceforge/plantuml/sequencediagram/command/CommandAutonumberIncrement.java.html#50" target="_top" title="./../../../../../../.././qc/src/net/sourceforge/plantuml/sequencediagram/command/CommandAutonumberIncrement.java.html#50" xlink:actuate="onRequest" xlink:href="./../../../../../../.././qc/src/net/sourceforge/plantuml/sequencediagram/command/CommandAutonumberIncrement.java.html#50" xlink:show="new" xlink:title="./../../../../../../.././qc/src/net/sourceforge/plantuml/sequencediagram/command/CommandAutonumberIncrement.java.html#50" xlink:type="simple"><rect fill="#F1F1F1" height="10" style="stroke:none;stroke-width:1.0;" width="20" x="20.5" y="138.6484"/><ellipse cx="25.5" cy="143.6484" fill="#84BE84" rx="3" ry="3" style="stroke:#038048;stroke-width:1.0;"/></a><a href="./../../../../../../.././qc/src/net/sourceforge/plantuml/sequencediagram/command/CommandAutonumberIncrement.java.html#50" target="_top" title="./../../../../../../.././qc/src/net/sourceforge/plantuml/sequencediagram/command/CommandAutonumberIncrement.java.html#50" xlink:actuate="onRequest" xlink:href="./../../../../../../.././qc/src/net/sourceforge/plantuml/sequencediagram/command/CommandAutonumberIncrement.java.html#50" xlink:show="new" xlink:title="./../../../../../../.././qc/src/net/sourceforge/plantuml/sequencediagram/command/CommandAutonumberIncrement.java.html#50" xlink:type="simple"><text fill="#000000" font-family="sans-serif" font-size="14" lengthAdjust="spacing" textLength="477" x="34.5" y="146.9951">CommandAutonumberIncrement() : CommandAutonumberIncrement</text></a><a href="./../../../../../../.././qc/src/net/sourceforge/plantuml/sequencediagram/command/CommandAutonumberIncrement.java.html#54" target="_top" title="./../../../../../../.././qc/src/net/sourceforge/plantuml/sequencediagram/command/CommandAutonumberIncrement.java.html#54" xlink:actuate="onRequest" xlink:href="./../../../../../../.././qc/src/net/sourceforge/plantuml/sequencediagram/command/CommandAutonumberIncrement.java.html#54" xlink:show="new" xlink:title="./../../../../../../.././qc/src/net/sourceforge/plantuml/sequencediagram/command/CommandAutonumberIncrement.java.html#54" xlink:type="simple"><rect fill="#F1F1F1" height="10" style="stroke:none;stroke-width:1.0;" width="20" x="20.5" y="154.9453"/><rect fill="#F24D5C" height="6" style="stroke:#C82930;stroke-width:1.0;" width="6" x="22.5" y="156.9453"/></a><a href="./../../../../../../.././qc/src/net/sourceforge/plantuml/sequencediagram/command/CommandAutonumberIncrement.java.html#54" target="_top" title="./../../../../../../.././qc/src/net/sourceforge/plantuml/sequencediagram/command/CommandAutonumberIncrement.java.html#54" xlink:actuate="onRequest" xlink:href="./../../../../../../.././qc/src/net/sourceforge/plantuml/sequencediagram/command/CommandAutonumberIncrement.java.html#54" xlink:show="new" xlink:title="./../../../../../../.././qc/src/net/sourceforge/plantuml/sequencediagram/command/CommandAutonumberIncrement.java.html#54" xlink:type="simple"><text fill="#000000" font-family="sans-serif" font-size="14" lengthAdjust="spacing" textLength="188" x="34.5" y="163.292">getConcat() : RegexConcat</text></a><a href="./../../../../../../.././qc/src/net/sourceforge/plantuml/sequencediagram/command/CommandAutonumberIncrement.java.html#68" target="_top" title="./../../../../../../.././qc/src/net/sourceforge/plantuml/sequencediagram/command/CommandAutonumberIncrement.java.html#68" xlink:actuate="onRequest" xlink:href="./../../../../../../.././qc/src/net/sourceforge/plantuml/sequencediagram/command/CommandAutonumberIncrement.java.html#68" xlink:show="new" xlink:title="./../../../../../../.././qc/src/net/sourceforge/plantuml/sequencediagram/command/CommandAutonumberIncrement.java.html#68" xlink:type="simple"><text fill="#000000" font-family="sans-serif" font-size="14" lengthAdjust="spacing" textLength="597" x="34.5" y="179.5889">executeArg(SequenceDiagram;LineLocation;RegexResult) : CommandExecutionResult</text></a></g><path d="M326,54.1089 C326,64.6313 326,77.495 326,89.9394 " fill="none" style="stroke:#181818;stroke-width:1.0;"/><polygon fill="#FFFFFF" points="326,54.1089,320,70.1089,332,70.1089,326,54.1089" style="stroke:#181818;stroke-width:1.0;"/><!--MD5=[1664b37f46d45eaeda01f789eb9806e8]
@startuml
!pragma layout smetana
"SingleLineCommand2<SequenceDiagram>" <|- - "net.sourceforge.plantuml.sequencediagram.command.CommandAutonumberIncrement"
class net.sourceforge.plantuml.sequencediagram.command.CommandAutonumberIncrement {
+CommandAutonumberIncrement() : CommandAutonumberIncrement [[[./../../../../../../.././qc/src/net/sourceforge/plantuml/sequencediagram/command/CommandAutonumberIncrement.java.html#50]]]
-getConcat() : RegexConcat [[[./../../../../../../.././qc/src/net/sourceforge/plantuml/sequencediagram/command/CommandAutonumberIncrement.java.html#54]]]
executeArg(SequenceDiagram;LineLocation;RegexResult) : CommandExecutionResult [[[./../../../../../../.././qc/src/net/sourceforge/plantuml/sequencediagram/command/CommandAutonumberIncrement.java.html#68]]]
} 
@enduml

PlantUML version 1.2022.7(Mon Aug 22 17:01:30 UTC 2022)
(GPL source distribution)
Java Runtime: OpenJDK Runtime Environment
JVM: OpenJDK 64-Bit Server VM
Default Encoding: UTF-8
Language: en
Country: null
--></g></svg>