<?xml version="1.0" encoding="UTF-8" standalone="no"?><svg xmlns="http://www.w3.org/2000/svg" xmlns:xlink="http://www.w3.org/1999/xlink" contentStyleType="text/css" height="186px" preserveAspectRatio="none" style="width:377px;height:186px;background:#FFFFFF;" version="1.1" viewBox="0 0 377 186" width="377px" zoomAndPan="magnify"><defs/><g><!--MD5=[11a9ed854364253ffc2e1c6388cd2dc2]
cluster ext.plantuml.com.google.zxing--><g id="cluster_ext.plantuml.com.google.zxing"><path d="M8.5,63 L250.5,63 A3.75,3.75 0 0 1 253,65.5 L260,85.2969 L367.5,85.2969 A2.5,2.5 0 0 1 370,87.7969 L370,176.5 A2.5,2.5 0 0 1 367.5,179 L8.5,179 A2.5,2.5 0 0 1 6,176.5 L6,65.5 A2.5,2.5 0 0 1 8.5,63 " fill="none" style="stroke:#000000;stroke-width:1.5;"/><line style="stroke:#000000;stroke-width:1.5;" x1="6" x2="260" y1="85.2969" y2="85.2969"/><text fill="#000000" font-family="sans-serif" font-size="14" font-weight="bold" lengthAdjust="spacing" textLength="241" x="10" y="77.9951">ext.plantuml.com.google.zxing</text></g><!--MD5=[a0b5f20a69fbd576d36450897a7b1435]
class ReaderException--><g id="elem_ReaderException"><rect fill="#F1F1F1" height="48" id="ReaderException" rx="2.5" ry="2.5" style="stroke:#181818;stroke-width:0.5;" width="150" x="113" y="6"/><ellipse cx="128" cy="22" fill="#ADD1B2" rx="11" ry="11" style="stroke:#181818;stroke-width:1.0;"/><path d="M130.9688,27.6406 Q130.3906,27.9375 129.75,28.0781 Q129.1094,28.2344 128.4063,28.2344 Q125.9063,28.2344 124.5781,26.5938 Q123.2656,24.9375 123.2656,21.8125 Q123.2656,18.6875 124.5781,17.0313 Q125.9063,15.375 128.4063,15.375 Q129.1094,15.375 129.75,15.5313 Q130.4063,15.6875 130.9688,15.9844 L130.9688,18.7031 Q130.3438,18.125 129.75,17.8594 Q129.1563,17.5781 128.5313,17.5781 Q127.1875,17.5781 126.5,18.6563 Q125.8125,19.7188 125.8125,21.8125 Q125.8125,23.9063 126.5,24.9844 Q127.1875,26.0469 128.5313,26.0469 Q129.1563,26.0469 129.75,25.7813 Q130.3438,25.5 130.9688,24.9219 L130.9688,27.6406 Z " fill="#000000"/><text fill="#000000" font-family="sans-serif" font-size="14" lengthAdjust="spacing" textLength="118" x="142" y="26.8467">ReaderException</text><line style="stroke:#181818;stroke-width:0.5;" x1="114" x2="262" y1="38" y2="38"/><line style="stroke:#181818;stroke-width:0.5;" x1="114" x2="262" y1="46" y2="46"/></g><!--MD5=[21a564d3767d8e65ba4937fcead4b12e]
class ext.plantuml.com.google.zxing.ChecksumException--><g id="elem_ext.plantuml.com.google.zxing.ChecksumException"><rect codeLine="3" fill="#F1F1F1" height="80.5938" id="ext.plantuml.com.google.zxing.ChecksumException" rx="2.5" ry="2.5" style="stroke:#181818;stroke-width:0.5;" width="347" x="14.5" y="90"/><ellipse cx="112.75" cy="106" fill="#ADD1B2" rx="11" ry="11" style="stroke:#181818;stroke-width:1.0;"/><path d="M115.7188,111.6406 Q115.1406,111.9375 114.5,112.0781 Q113.8594,112.2344 113.1563,112.2344 Q110.6563,112.2344 109.3281,110.5938 Q108.0156,108.9375 108.0156,105.8125 Q108.0156,102.6875 109.3281,101.0313 Q110.6563,99.375 113.1563,99.375 Q113.8594,99.375 114.5,99.5313 Q115.1563,99.6875 115.7188,99.9844 L115.7188,102.7031 Q115.0938,102.125 114.5,101.8594 Q113.9063,101.5781 113.2813,101.5781 Q111.9375,101.5781 111.25,102.6563 Q110.5625,103.7188 110.5625,105.8125 Q110.5625,107.9063 111.25,108.9844 Q111.9375,110.0469 113.2813,110.0469 Q113.9063,110.0469 114.5,109.7813 Q115.0938,109.5 115.7188,108.9219 L115.7188,111.6406 Z " fill="#000000"/><text fill="#000000" font-family="sans-serif" font-size="14" lengthAdjust="spacing" textLength="142" x="133.25" y="110.8467">ChecksumException</text><line style="stroke:#181818;stroke-width:0.5;" x1="15.5" x2="360.5" y1="122" y2="122"/><line style="stroke:#181818;stroke-width:0.5;" x1="15.5" x2="360.5" y1="130" y2="130"/><a href="./../../../../../../.././qc/src/ext/plantuml/com/google/zxing/ChecksumException.java.html#29" target="_top" title="./../../../../../../.././qc/src/ext/plantuml/com/google/zxing/ChecksumException.java.html#29" xlink:actuate="onRequest" xlink:href="./../../../../../../.././qc/src/ext/plantuml/com/google/zxing/ChecksumException.java.html#29" xlink:show="new" xlink:title="./../../../../../../.././qc/src/ext/plantuml/com/google/zxing/ChecksumException.java.html#29" xlink:type="simple"><rect fill="#F1F1F1" height="10" style="stroke:none;stroke-width:1.0;" width="20" x="20.5" y="138.6484"/><rect fill="#F24D5C" height="6" style="stroke:#C82930;stroke-width:1.0;" width="6" x="22.5" y="140.6484"/></a><a href="./../../../../../../.././qc/src/ext/plantuml/com/google/zxing/ChecksumException.java.html#29" target="_top" title="./../../../../../../.././qc/src/ext/plantuml/com/google/zxing/ChecksumException.java.html#29" xlink:actuate="onRequest" xlink:href="./../../../../../../.././qc/src/ext/plantuml/com/google/zxing/ChecksumException.java.html#29" xlink:show="new" xlink:title="./../../../../../../.././qc/src/ext/plantuml/com/google/zxing/ChecksumException.java.html#29" xlink:type="simple"><text fill="#000000" font-family="sans-serif" font-size="14" lengthAdjust="spacing" textLength="307" x="34.5" y="146.9951">ChecksumException() : ChecksumException</text></a><a href="./../../../../../../.././qc/src/ext/plantuml/com/google/zxing/ChecksumException.java.html#33" target="_top" title="./../../../../../../.././qc/src/ext/plantuml/com/google/zxing/ChecksumException.java.html#33" xlink:actuate="onRequest" xlink:href="./../../../../../../.././qc/src/ext/plantuml/com/google/zxing/ChecksumException.java.html#33" xlink:show="new" xlink:title="./../../../../../../.././qc/src/ext/plantuml/com/google/zxing/ChecksumException.java.html#33" xlink:type="simple"><rect fill="#F1F1F1" height="10" style="stroke:none;stroke-width:1.0;" width="20" x="20.5" y="154.9453"/><ellipse cx="25.5" cy="159.9453" fill="#84BE84" rx="3" ry="3" style="stroke:#038048;stroke-width:1.0;"/></a><a href="./../../../../../../.././qc/src/ext/plantuml/com/google/zxing/ChecksumException.java.html#33" target="_top" title="./../../../../../../.././qc/src/ext/plantuml/com/google/zxing/ChecksumException.java.html#33" xlink:actuate="onRequest" xlink:href="./../../../../../../.././qc/src/ext/plantuml/com/google/zxing/ChecksumException.java.html#33" xlink:show="new" xlink:title="./../../../../../../.././qc/src/ext/plantuml/com/google/zxing/ChecksumException.java.html#33" xlink:type="simple"><text fill="#000000" font-family="sans-serif" font-size="14" lengthAdjust="spacing" textLength="321" x="34.5" y="163.292">getChecksumInstance() : ChecksumException</text></a></g><path d="M188,54.0939 C188,64.784 188,77.7904 188,89.9706 " fill="none" style="stroke:#181818;stroke-width:1.0;"/><polygon fill="#FFFFFF" points="188,54.0939,182,70.0939,194,70.0939,188,54.0939" style="stroke:#181818;stroke-width:1.0;"/><!--MD5=[1eb7b53e69aeb749a41b051c5d4f2480]
@startuml
!pragma layout smetana
"ReaderException" <|- - "ext.plantuml.com.google.zxing.ChecksumException"
class ext.plantuml.com.google.zxing.ChecksumException {
-ChecksumException() : ChecksumException [[[./../../../../../../.././qc/src/ext/plantuml/com/google/zxing/ChecksumException.java.html#29]]]
+getChecksumInstance() : ChecksumException [[[./../../../../../../.././qc/src/ext/plantuml/com/google/zxing/ChecksumException.java.html#33]]]
} 
@enduml

PlantUML version 1.2022.7(Mon Aug 22 17:01:30 UTC 2022)
(GPL source distribution)
Java Runtime: OpenJDK Runtime Environment
JVM: OpenJDK 64-Bit Server VM
Default Encoding: UTF-8
Language: en
Country: null
--></g></svg>