<?xml version="1.0" encoding="UTF-8" standalone="no"?><svg xmlns="http://www.w3.org/2000/svg" xmlns:xlink="http://www.w3.org/1999/xlink" contentStyleType="text/css" height="186px" preserveAspectRatio="none" style="width:335px;height:186px;background:#FFFFFF;" version="1.1" viewBox="0 0 335 186" width="335px" zoomAndPan="magnify"><defs/><g><!--MD5=[11a9ed854364253ffc2e1c6388cd2dc2]
cluster ext.plantuml.com.google.zxing--><g id="cluster_ext.plantuml.com.google.zxing"><path d="M8.5,63 L250.5,63 A3.75,3.75 0 0 1 253,65.5 L260,85.2969 L325.5,85.2969 A2.5,2.5 0 0 1 328,87.7969 L328,176.5 A2.5,2.5 0 0 1 325.5,179 L8.5,179 A2.5,2.5 0 0 1 6,176.5 L6,65.5 A2.5,2.5 0 0 1 8.5,63 " fill="none" style="stroke:#000000;stroke-width:1.5;"/><line style="stroke:#000000;stroke-width:1.5;" x1="6" x2="260" y1="85.2969" y2="85.2969"/><text fill="#000000" font-family="sans-serif" font-size="14" font-weight="bold" lengthAdjust="spacing" textLength="241" x="10" y="77.9951">ext.plantuml.com.google.zxing</text></g><!--MD5=[8db60afef7a3447bbe27c5ed187fdac2]
class Exception--><g id="elem_Exception"><rect fill="#F1F1F1" height="48" id="Exception" rx="2.5" ry="2.5" style="stroke:#181818;stroke-width:0.5;" width="100" x="117" y="6"/><ellipse cx="132" cy="22" fill="#ADD1B2" rx="11" ry="11" style="stroke:#181818;stroke-width:1.0;"/><path d="M134.9688,27.6406 Q134.3906,27.9375 133.75,28.0781 Q133.1094,28.2344 132.4063,28.2344 Q129.9063,28.2344 128.5781,26.5938 Q127.2656,24.9375 127.2656,21.8125 Q127.2656,18.6875 128.5781,17.0313 Q129.9063,15.375 132.4063,15.375 Q133.1094,15.375 133.75,15.5313 Q134.4063,15.6875 134.9688,15.9844 L134.9688,18.7031 Q134.3438,18.125 133.75,17.8594 Q133.1563,17.5781 132.5313,17.5781 Q131.1875,17.5781 130.5,18.6563 Q129.8125,19.7188 129.8125,21.8125 Q129.8125,23.9063 130.5,24.9844 Q131.1875,26.0469 132.5313,26.0469 Q133.1563,26.0469 133.75,25.7813 Q134.3438,25.5 134.9688,24.9219 L134.9688,27.6406 Z " fill="#000000"/><text fill="#000000" font-family="sans-serif" font-size="14" lengthAdjust="spacing" textLength="68" x="146" y="26.8467">Exception</text><line style="stroke:#181818;stroke-width:0.5;" x1="118" x2="216" y1="38" y2="38"/><line style="stroke:#181818;stroke-width:0.5;" x1="118" x2="216" y1="46" y2="46"/></g><!--MD5=[6139adf184e065b675fd6063c31bf031]
class ext.plantuml.com.google.zxing.WriterException--><g id="elem_ext.plantuml.com.google.zxing.WriterException"><rect codeLine="3" fill="#F1F1F1" height="80.5938" id="ext.plantuml.com.google.zxing.WriterException" rx="2.5" ry="2.5" style="stroke:#181818;stroke-width:0.5;" width="305" x="14.5" y="90"/><ellipse cx="108.75" cy="106" fill="#ADD1B2" rx="11" ry="11" style="stroke:#181818;stroke-width:1.0;"/><path d="M111.7188,111.6406 Q111.1406,111.9375 110.5,112.0781 Q109.8594,112.2344 109.1563,112.2344 Q106.6563,112.2344 105.3281,110.5938 Q104.0156,108.9375 104.0156,105.8125 Q104.0156,102.6875 105.3281,101.0313 Q106.6563,99.375 109.1563,99.375 Q109.8594,99.375 110.5,99.5313 Q111.1563,99.6875 111.7188,99.9844 L111.7188,102.7031 Q111.0938,102.125 110.5,101.8594 Q109.9063,101.5781 109.2813,101.5781 Q107.9375,101.5781 107.25,102.6563 Q106.5625,103.7188 106.5625,105.8125 Q106.5625,107.9063 107.25,108.9844 Q107.9375,110.0469 109.2813,110.0469 Q109.9063,110.0469 110.5,109.7813 Q111.0938,109.5 111.7188,108.9219 L111.7188,111.6406 Z " fill="#000000"/><text fill="#000000" font-family="sans-serif" font-size="14" lengthAdjust="spacing" textLength="108" x="129.25" y="110.8467">WriterException</text><line style="stroke:#181818;stroke-width:0.5;" x1="15.5" x2="318.5" y1="122" y2="122"/><line style="stroke:#181818;stroke-width:0.5;" x1="15.5" x2="318.5" y1="130" y2="130"/><a href="./../../../../../../.././qc/src/ext/plantuml/com/google/zxing/WriterException.java.html#27" target="_top" title="./../../../../../../.././qc/src/ext/plantuml/com/google/zxing/WriterException.java.html#27" xlink:actuate="onRequest" xlink:href="./../../../../../../.././qc/src/ext/plantuml/com/google/zxing/WriterException.java.html#27" xlink:show="new" xlink:title="./../../../../../../.././qc/src/ext/plantuml/com/google/zxing/WriterException.java.html#27" xlink:type="simple"><rect fill="#F1F1F1" height="10" style="stroke:none;stroke-width:1.0;" width="20" x="20.5" y="138.6484"/><ellipse cx="25.5" cy="143.6484" fill="#84BE84" rx="3" ry="3" style="stroke:#038048;stroke-width:1.0;"/></a><a href="./../../../../../../.././qc/src/ext/plantuml/com/google/zxing/WriterException.java.html#27" target="_top" title="./../../../../../../.././qc/src/ext/plantuml/com/google/zxing/WriterException.java.html#27" xlink:actuate="onRequest" xlink:href="./../../../../../../.././qc/src/ext/plantuml/com/google/zxing/WriterException.java.html#27" xlink:show="new" xlink:title="./../../../../../../.././qc/src/ext/plantuml/com/google/zxing/WriterException.java.html#27" xlink:type="simple"><text fill="#000000" font-family="sans-serif" font-size="14" lengthAdjust="spacing" textLength="239" x="34.5" y="146.9951">WriterException() : WriterException</text></a><a href="./../../../../../../.././qc/src/ext/plantuml/com/google/zxing/WriterException.java.html#31" target="_top" title="./../../../../../../.././qc/src/ext/plantuml/com/google/zxing/WriterException.java.html#31" xlink:actuate="onRequest" xlink:href="./../../../../../../.././qc/src/ext/plantuml/com/google/zxing/WriterException.java.html#31" xlink:show="new" xlink:title="./../../../../../../.././qc/src/ext/plantuml/com/google/zxing/WriterException.java.html#31" xlink:type="simple"><rect fill="#F1F1F1" height="10" style="stroke:none;stroke-width:1.0;" width="20" x="20.5" y="154.9453"/><ellipse cx="25.5" cy="159.9453" fill="#84BE84" rx="3" ry="3" style="stroke:#038048;stroke-width:1.0;"/></a><a href="./../../../../../../.././qc/src/ext/plantuml/com/google/zxing/WriterException.java.html#31" target="_top" title="./../../../../../../.././qc/src/ext/plantuml/com/google/zxing/WriterException.java.html#31" xlink:actuate="onRequest" xlink:href="./../../../../../../.././qc/src/ext/plantuml/com/google/zxing/WriterException.java.html#31" xlink:show="new" xlink:title="./../../../../../../.././qc/src/ext/plantuml/com/google/zxing/WriterException.java.html#31" xlink:type="simple"><text fill="#000000" font-family="sans-serif" font-size="14" lengthAdjust="spacing" textLength="279" x="34.5" y="163.292">WriterException(String) : WriterException</text></a></g><path d="M167,54.0939 C167,64.784 167,77.7904 167,89.9706 " fill="none" style="stroke:#181818;stroke-width:1.0;"/><polygon fill="#FFFFFF" points="167,54.0939,161,70.0939,173,70.0939,167,54.0939" style="stroke:#181818;stroke-width:1.0;"/><!--MD5=[6cac7e6553f5ddbeddaa27c0da4d40bd]
@startuml
!pragma layout smetana
"Exception" <|- - "ext.plantuml.com.google.zxing.WriterException"
class ext.plantuml.com.google.zxing.WriterException {
+WriterException() : WriterException [[[./../../../../../../.././qc/src/ext/plantuml/com/google/zxing/WriterException.java.html#27]]]
+WriterException(String) : WriterException [[[./../../../../../../.././qc/src/ext/plantuml/com/google/zxing/WriterException.java.html#31]]]
} 
@enduml

PlantUML version 1.2022.7(Mon Aug 22 17:01:30 UTC 2022)
(GPL source distribution)
Java Runtime: OpenJDK Runtime Environment
JVM: OpenJDK 64-Bit Server VM
Default Encoding: UTF-8
Language: en
Country: null
--></g></svg>