<?xml version="1.0" encoding="UTF-8" standalone="no"?><svg xmlns="http://www.w3.org/2000/svg" xmlns:xlink="http://www.w3.org/1999/xlink" contentStyleType="text/css" height="220px" preserveAspectRatio="none" style="width:423px;height:220px;background:#FFFFFF;" version="1.1" viewBox="0 0 423 220" width="423px" zoomAndPan="magnify"><defs/><g><!--MD5=[aa8f7b917213fcc1c2766e2d59b49067]
cluster java.lang--><g id="cluster_java.lang"><path d="M166.5,6 L236.5,6 A3.75,3.75 0 0 1 239,8.5 L246,28.2969 L255.5,28.2969 A2.5,2.5 0 0 1 258,30.7969 L258,86.5 A2.5,2.5 0 0 1 255.5,89 L166.5,89 A2.5,2.5 0 0 1 164,86.5 L164,8.5 A2.5,2.5 0 0 1 166.5,6 " fill="none" style="stroke:#000000;stroke-width:1.5;"/><line style="stroke:#000000;stroke-width:1.5;" x1="164" x2="246" y1="28.2969" y2="28.2969"/><text fill="#000000" font-family="sans-serif" font-size="14" font-weight="bold" lengthAdjust="spacing" textLength="69" x="168" y="20.9951">java.lang</text></g><!--MD5=[11a9ed854364253ffc2e1c6388cd2dc2]
cluster ext.plantuml.com.google.zxing--><g id="cluster_ext.plantuml.com.google.zxing"><path d="M8.5,97 L250.5,97 A3.75,3.75 0 0 1 253,99.5 L260,119.2969 L413.5,119.2969 A2.5,2.5 0 0 1 416,121.7969 L416,210.5 A2.5,2.5 0 0 1 413.5,213 L8.5,213 A2.5,2.5 0 0 1 6,210.5 L6,99.5 A2.5,2.5 0 0 1 8.5,97 " fill="none" style="stroke:#000000;stroke-width:1.5;"/><line style="stroke:#000000;stroke-width:1.5;" x1="6" x2="260" y1="119.2969" y2="119.2969"/><text fill="#000000" font-family="sans-serif" font-size="14" font-weight="bold" lengthAdjust="spacing" textLength="241" x="10" y="111.9951">ext.plantuml.com.google.zxing</text></g><!--MD5=[274ad5661286b626a93603d287cbf95a]
class java.lang.Object--><g id="elem_java.lang.Object"><rect fill="#F1F1F1" height="48" id="java.lang.Object" rx="2.5" ry="2.5" style="stroke:#181818;stroke-width:0.5;" width="77" x="172.5" y="33"/><ellipse cx="187.5" cy="49" fill="#ADD1B2" rx="11" ry="11" style="stroke:#181818;stroke-width:1.0;"/><path d="M190.4688,54.6406 Q189.8906,54.9375 189.25,55.0781 Q188.6094,55.2344 187.9063,55.2344 Q185.4063,55.2344 184.0781,53.5938 Q182.7656,51.9375 182.7656,48.8125 Q182.7656,45.6875 184.0781,44.0313 Q185.4063,42.375 187.9063,42.375 Q188.6094,42.375 189.25,42.5313 Q189.9063,42.6875 190.4688,42.9844 L190.4688,45.7031 Q189.8438,45.125 189.25,44.8594 Q188.6563,44.5781 188.0313,44.5781 Q186.6875,44.5781 186,45.6563 Q185.3125,46.7188 185.3125,48.8125 Q185.3125,50.9063 186,51.9844 Q186.6875,53.0469 188.0313,53.0469 Q188.6563,53.0469 189.25,52.7813 Q189.8438,52.5 190.4688,51.9219 L190.4688,54.6406 Z " fill="#000000"/><text fill="#000000" font-family="sans-serif" font-size="14" lengthAdjust="spacing" textLength="45" x="201.5" y="53.8467">Object</text><line style="stroke:#181818;stroke-width:0.5;" x1="173.5" x2="248.5" y1="65" y2="65"/><line style="stroke:#181818;stroke-width:0.5;" x1="173.5" x2="248.5" y1="73" y2="73"/></g><!--MD5=[63b6aa4298205ebd6e2550242d5e71e1]
class ext.plantuml.com.google.zxing.Writer--><g id="elem_ext.plantuml.com.google.zxing.Writer"><rect codeLine="3" fill="#F1F1F1" height="80.5938" id="ext.plantuml.com.google.zxing.Writer" rx="2.5" ry="2.5" style="stroke:#181818;stroke-width:0.5;" width="393" x="14.5" y="124"/><ellipse cx="186.75" cy="140" fill="#ADD1B2" rx="11" ry="11" style="stroke:#181818;stroke-width:1.0;"/><path d="M189.7188,145.6406 Q189.1406,145.9375 188.5,146.0781 Q187.8594,146.2344 187.1563,146.2344 Q184.6563,146.2344 183.3281,144.5938 Q182.0156,142.9375 182.0156,139.8125 Q182.0156,136.6875 183.3281,135.0313 Q184.6563,133.375 187.1563,133.375 Q187.8594,133.375 188.5,133.5313 Q189.1563,133.6875 189.7188,133.9844 L189.7188,136.7031 Q189.0938,136.125 188.5,135.8594 Q187.9063,135.5781 187.2813,135.5781 Q185.9375,135.5781 185.25,136.6563 Q184.5625,137.7188 184.5625,139.8125 Q184.5625,141.9063 185.25,142.9844 Q185.9375,144.0469 187.2813,144.0469 Q187.9063,144.0469 188.5,143.7813 Q189.0938,143.5 189.7188,142.9219 L189.7188,145.6406 Z " fill="#000000"/><text fill="#000000" font-family="sans-serif" font-size="14" lengthAdjust="spacing" textLength="40" x="207.25" y="144.8467">Writer</text><line style="stroke:#181818;stroke-width:0.5;" x1="15.5" x2="406.5" y1="156" y2="156"/><line style="stroke:#181818;stroke-width:0.5;" x1="15.5" x2="406.5" y1="164" y2="164"/><a href="./../../../../../../.././qc/src/ext/plantuml/com/google/zxing/Writer.java.html#37" target="_top" title="./../../../../../../.././qc/src/ext/plantuml/com/google/zxing/Writer.java.html#37" xlink:actuate="onRequest" xlink:href="./../../../../../../.././qc/src/ext/plantuml/com/google/zxing/Writer.java.html#37" xlink:show="new" xlink:title="./../../../../../../.././qc/src/ext/plantuml/com/google/zxing/Writer.java.html#37" xlink:type="simple"><text fill="#000000" font-family="sans-serif" font-size="14" lengthAdjust="spacing" textLength="307" x="20.5" y="180.9951">encode(String;BarcodeFormat;int) : BitMatrix</text></a><a href="./../../../../../../.././qc/src/ext/plantuml/com/google/zxing/Writer.java.html#47" target="_top" title="./../../../../../../.././qc/src/ext/plantuml/com/google/zxing/Writer.java.html#47" xlink:actuate="onRequest" xlink:href="./../../../../../../.././qc/src/ext/plantuml/com/google/zxing/Writer.java.html#47" xlink:show="new" xlink:title="./../../../../../../.././qc/src/ext/plantuml/com/google/zxing/Writer.java.html#47" xlink:type="simple"><text fill="#000000" font-family="sans-serif" font-size="14" lengthAdjust="spacing" textLength="381" x="20.5" y="197.292">encode(String;BarcodeFormat;int;Hashtable) : BitMatrix</text></a></g><path d="M211,81.1524 C211,93.6475 211,109.4184 211,123.8064 " fill="none" style="stroke:#181818;stroke-width:1.0;"/><polygon fill="#FFFFFF" points="211,81.1524,205,97.1524,217,97.1524,211,81.1524" style="stroke:#181818;stroke-width:1.0;"/><!--MD5=[1ee902a585bcb6972f36f47abf26d008]
@startuml
!pragma layout smetana
"java.lang.Object" <|- - "ext.plantuml.com.google.zxing.Writer"
class ext.plantuml.com.google.zxing.Writer {
encode(String;BarcodeFormat;int) : BitMatrix [[[./../../../../../../.././qc/src/ext/plantuml/com/google/zxing/Writer.java.html#37]]]
encode(String;BarcodeFormat;int;Hashtable) : BitMatrix [[[./../../../../../../.././qc/src/ext/plantuml/com/google/zxing/Writer.java.html#47]]]
} 
@enduml

PlantUML version 1.2022.7(Mon Aug 22 17:01:30 UTC 2022)
(GPL source distribution)
Java Runtime: OpenJDK Runtime Environment
JVM: OpenJDK 64-Bit Server VM
Default Encoding: UTF-8
Language: en
Country: null
--></g></svg>