<?xml version="1.0" encoding="UTF-8" standalone="no"?><svg xmlns="http://www.w3.org/2000/svg" xmlns:xlink="http://www.w3.org/1999/xlink" contentStyleType="text/css" height="2389px" preserveAspectRatio="none" style="width:803px;height:2389px;background:#FFFFFF;" version="1.1" viewBox="0 0 803 2389" width="803px" zoomAndPan="magnify"><defs/><g><path d="M337,10 L337,18.5664 L317,22.5664 L337,26.5664 L337,35.1328 A0,0 0 0 0 337,35.1328 L569,35.1328 A0,0 0 0 0 569,35.1328 L569,20 L559,10 L337,10 A0,0 0 0 0 337,10 " fill="#FEFFDD" style="stroke:#181818;stroke-width:0.5;"/><path d="M559,10 L559,20 L569,20 L559,10 " fill="#FEFFDD" style="stroke:#181818;stroke-width:0.5;"/><text fill="#000000" font-family="sans-serif" font-size="13" lengthAdjust="spacing" textLength="211" x="343" y="27.0669">Collection&lt;Ftile&gt;getMyChildren()</text><ellipse cx="307" cy="22.5664" fill="#222222" rx="10" ry="10" style="stroke:#222222;stroke-width:1.0;"/><rect fill="#F1F1F1" height="33.9688" rx="12.5" ry="12.5" style="stroke:#181818;stroke-width:0.5;" width="208" x="203" y="55.1328"/><text fill="#000000" font-family="sans-serif" font-size="12" lengthAdjust="spacing" textLength="188" x="213" y="76.2715">return Collections.emptyList();</text><ellipse cx="307" cy="120.1016" fill="none" rx="11" ry="11" style="stroke:#222222;stroke-width:1.0;"/><ellipse cx="307" cy="120.1016" fill="#222222" rx="6" ry="6" style="stroke:#111111;stroke-width:1.0;"/><ellipse cx="307" cy="151.1016" fill="none" rx="10" ry="10" style="stroke:#222222;stroke-width:1.5;"/><line style="stroke:#222222;stroke-width:2.5;" x1="300.8128" x2="313.1872" y1="144.9144" y2="157.2887"/><line style="stroke:#222222;stroke-width:2.5;" x1="313.1872" x2="300.8128" y1="144.9144" y2="157.2887"/><path d="M337,171.1016 L337,194.8008 L317,198.8008 L337,202.8008 L337,226.5 A0,0 0 0 0 337,226.5 L714,226.5 A0,0 0 0 0 714,226.5 L714,181.1016 L704,171.1016 L337,171.1016 A0,0 0 0 0 337,171.1016 " fill="#FEFFDD" style="stroke:#181818;stroke-width:0.5;"/><path d="M704,171.1016 L704,181.1016 L714,181.1016 L704,171.1016 " fill="#FEFFDD" style="stroke:#181818;stroke-width:0.5;"/><text fill="#000000" font-family="sans-serif" font-size="13" lengthAdjust="spacing" textLength="310" x="343" y="188.1685">constructor FtileCircleEnd(ISkinParamskinParam,</text><text fill="#000000" font-family="sans-serif" font-size="13" lengthAdjust="spacing" textLength="356" x="343" y="203.3013">HColorbackColor,HColorborderColor,Swimlaneswimlane,</text><text fill="#000000" font-family="sans-serif" font-size="13" lengthAdjust="spacing" textLength="67" x="343" y="218.4341">Stylestyle)</text><ellipse cx="307" cy="198.8008" fill="#222222" rx="10" ry="10" style="stroke:#222222;stroke-width:1.0;"/><rect fill="#F1F1F1" height="33.9688" rx="12.5" ry="12.5" style="stroke:#181818;stroke-width:0.5;" width="139" x="237.5" y="246.5"/><text fill="#000000" font-family="sans-serif" font-size="12" lengthAdjust="spacing" textLength="119" x="247.5" y="267.6387">super (skinParam);</text><rect fill="#F1F1F1" height="33.9688" rx="12.5" ry="12.5" style="stroke:#181818;stroke-width:0.5;" width="209" x="202.5" y="300.4688"/><text fill="#000000" font-family="sans-serif" font-size="12" lengthAdjust="spacing" textLength="189" x="212.5" y="321.6074">this.borderColor=borderColor;</text><rect fill="#F1F1F1" height="33.9688" rx="12.5" ry="12.5" style="stroke:#181818;stroke-width:0.5;" width="185" x="214.5" y="354.4375"/><text fill="#000000" font-family="sans-serif" font-size="12" lengthAdjust="spacing" textLength="165" x="224.5" y="375.5762">this.backColor=backColor;</text><rect fill="#F1F1F1" height="33.9688" rx="12.5" ry="12.5" style="stroke:#181818;stroke-width:0.5;" width="175" x="219.5" y="408.4063"/><text fill="#000000" font-family="sans-serif" font-size="12" lengthAdjust="spacing" textLength="155" x="229.5" y="429.5449">this.swimlane=swimlane;</text><rect fill="#F1F1F1" height="47.9375" rx="12.5" ry="12.5" style="stroke:#181818;stroke-width:0.5;" width="316" x="149" y="462.375"/><text fill="#000000" font-family="sans-serif" font-size="12" lengthAdjust="spacing" textLength="296" x="159" y="483.5137">this.shadowing=style.value(PName.Shadowing)</text><text fill="#000000" font-family="sans-serif" font-size="12" lengthAdjust="spacing" textLength="77" x="159" y="497.4824">.asDouble();</text><rect fill="#F1F1F1" height="47.9375" rx="12.5" ry="12.5" style="stroke:#181818;stroke-width:0.5;" width="351" x="131.5" y="530.3125"/><text fill="#000000" font-family="sans-serif" font-size="12" lengthAdjust="spacing" textLength="331" x="141.5" y="551.4512">this.backColor=style.value(PName.BackGroundColor)</text><text fill="#000000" font-family="sans-serif" font-size="12" lengthAdjust="spacing" textLength="180" x="141.5" y="565.4199">.asColor(getIHtmlColorSet());</text><rect fill="#F1F1F1" height="47.9375" rx="12.5" ry="12.5" style="stroke:#181818;stroke-width:0.5;" width="312" x="151" y="598.25"/><text fill="#000000" font-family="sans-serif" font-size="12" lengthAdjust="spacing" textLength="292" x="161" y="619.3887">this.borderColor=style.value(PName.LineColor)</text><text fill="#000000" font-family="sans-serif" font-size="12" lengthAdjust="spacing" textLength="180" x="161" y="633.3574">.asColor(getIHtmlColorSet());</text><ellipse cx="307" cy="676.1875" fill="none" rx="10" ry="10" style="stroke:#222222;stroke-width:1.5;"/><line style="stroke:#222222;stroke-width:2.5;" x1="300.8128" x2="313.1872" y1="670.0003" y2="682.3747"/><line style="stroke:#222222;stroke-width:2.5;" x1="313.1872" x2="300.8128" y1="670.0003" y2="682.3747"/><path d="M337,696.1875 L337,704.7539 L317,708.7539 L337,712.7539 L337,721.3203 A0,0 0 0 0 337,721.3203 L562,721.3203 A0,0 0 0 0 562,721.3203 L562,706.1875 L552,696.1875 L337,696.1875 A0,0 0 0 0 337,696.1875 " fill="#FEFFDD" style="stroke:#181818;stroke-width:0.5;"/><path d="M552,696.1875 L552,706.1875 L562,706.1875 L552,696.1875 " fill="#FEFFDD" style="stroke:#181818;stroke-width:0.5;"/><text fill="#000000" font-family="sans-serif" font-size="13" lengthAdjust="spacing" textLength="204" x="343" y="713.2544">Set&lt;Swimlane&gt;getSwimlanes()</text><ellipse cx="307" cy="708.7539" fill="#222222" rx="10" ry="10" style="stroke:#222222;stroke-width:1.0;"/><rect fill="#F1F1F1" height="33.9688" rx="12.5" ry="12.5" style="stroke:#181818;stroke-width:0.5;" width="208" x="203" y="789.7227"/><text fill="#000000" font-family="sans-serif" font-size="12" lengthAdjust="spacing" textLength="188" x="213" y="810.8613">return Collections.emptySet();</text><ellipse cx="307" cy="863.207" fill="none" rx="11" ry="11" style="stroke:#222222;stroke-width:1.0;"/><ellipse cx="307" cy="863.207" fill="#222222" rx="6" ry="6" style="stroke:#111111;stroke-width:1.0;"/><polygon fill="#F1F1F1" points="259,741.3203,355,741.3203,367,753.3203,355,765.3203,259,765.3203,247,753.3203,259,741.3203" style="stroke:#181818;stroke-width:0.5;"/><text fill="#000000" font-family="sans-serif" font-size="11" lengthAdjust="spacing" textLength="20" x="311" y="775.5308">yes</text><text fill="#000000" font-family="sans-serif" font-size="11" lengthAdjust="spacing" textLength="92" x="259" y="757.1284">swimlane==null</text><rect fill="#F1F1F1" height="33.9688" rx="12.5" ry="12.5" style="stroke:#181818;stroke-width:0.5;" width="264" x="175" y="916.207"/><text fill="#000000" font-family="sans-serif" font-size="12" lengthAdjust="spacing" textLength="244" x="185" y="937.3457">return Collections.singleton(swimlane);</text><ellipse cx="307" cy="981.1758" fill="none" rx="11" ry="11" style="stroke:#222222;stroke-width:1.0;"/><ellipse cx="307" cy="981.1758" fill="#222222" rx="6" ry="6" style="stroke:#111111;stroke-width:1.0;"/><ellipse cx="307" cy="1012.1758" fill="none" rx="10" ry="10" style="stroke:#222222;stroke-width:1.5;"/><line style="stroke:#222222;stroke-width:2.5;" x1="300.8128" x2="313.1872" y1="1005.9886" y2="1018.363"/><line style="stroke:#222222;stroke-width:2.5;" x1="313.1872" x2="300.8128" y1="1005.9886" y2="1018.363"/><path d="M337,1032.1758 L337,1040.7422 L317,1044.7422 L337,1048.7422 L337,1057.3086 A0,0 0 0 0 337,1057.3086 L522,1057.3086 A0,0 0 0 0 522,1057.3086 L522,1042.1758 L512,1032.1758 L337,1032.1758 A0,0 0 0 0 337,1032.1758 " fill="#FEFFDD" style="stroke:#181818;stroke-width:0.5;"/><path d="M512,1032.1758 L512,1042.1758 L522,1042.1758 L512,1032.1758 " fill="#FEFFDD" style="stroke:#181818;stroke-width:0.5;"/><text fill="#000000" font-family="sans-serif" font-size="13" lengthAdjust="spacing" textLength="164" x="343" y="1049.2427">SwimlanegetSwimlaneIn()</text><ellipse cx="307" cy="1044.7422" fill="#222222" rx="10" ry="10" style="stroke:#222222;stroke-width:1.0;"/><rect fill="#F1F1F1" height="33.9688" rx="12.5" ry="12.5" style="stroke:#181818;stroke-width:0.5;" width="124" x="245" y="1077.3086"/><text fill="#000000" font-family="sans-serif" font-size="12" lengthAdjust="spacing" textLength="104" x="255" y="1098.4473">return swimlane;</text><ellipse cx="307" cy="1142.2773" fill="none" rx="11" ry="11" style="stroke:#222222;stroke-width:1.0;"/><ellipse cx="307" cy="1142.2773" fill="#222222" rx="6" ry="6" style="stroke:#111111;stroke-width:1.0;"/><ellipse cx="307" cy="1173.2773" fill="none" rx="10" ry="10" style="stroke:#222222;stroke-width:1.5;"/><line style="stroke:#222222;stroke-width:2.5;" x1="300.8128" x2="313.1872" y1="1167.0902" y2="1179.4645"/><line style="stroke:#222222;stroke-width:2.5;" x1="313.1872" x2="300.8128" y1="1167.0902" y2="1179.4645"/><path d="M337,1193.2773 L337,1201.8438 L317,1205.8438 L337,1209.8438 L337,1218.4102 A0,0 0 0 0 337,1218.4102 L534,1218.4102 A0,0 0 0 0 534,1218.4102 L534,1203.2773 L524,1193.2773 L337,1193.2773 A0,0 0 0 0 337,1193.2773 " fill="#FEFFDD" style="stroke:#181818;stroke-width:0.5;"/><path d="M524,1193.2773 L524,1203.2773 L534,1203.2773 L524,1193.2773 " fill="#FEFFDD" style="stroke:#181818;stroke-width:0.5;"/><text fill="#000000" font-family="sans-serif" font-size="13" lengthAdjust="spacing" textLength="176" x="343" y="1210.3442">SwimlanegetSwimlaneOut()</text><ellipse cx="307" cy="1205.8438" fill="#222222" rx="10" ry="10" style="stroke:#222222;stroke-width:1.0;"/><rect fill="#F1F1F1" height="33.9688" rx="12.5" ry="12.5" style="stroke:#181818;stroke-width:0.5;" width="124" x="245" y="1238.4102"/><text fill="#000000" font-family="sans-serif" font-size="12" lengthAdjust="spacing" textLength="104" x="255" y="1259.5488">return swimlane;</text><ellipse cx="307" cy="1303.3789" fill="none" rx="11" ry="11" style="stroke:#222222;stroke-width:1.0;"/><ellipse cx="307" cy="1303.3789" fill="#222222" rx="6" ry="6" style="stroke:#111111;stroke-width:1.0;"/><ellipse cx="307" cy="1334.3789" fill="none" rx="10" ry="10" style="stroke:#222222;stroke-width:1.5;"/><line style="stroke:#222222;stroke-width:2.5;" x1="300.8128" x2="313.1872" y1="1328.1917" y2="1340.5661"/><line style="stroke:#222222;stroke-width:2.5;" x1="313.1872" x2="300.8128" y1="1328.1917" y2="1340.5661"/><path d="M337,1354.3789 L337,1362.9453 L317,1366.9453 L337,1370.9453 L337,1379.5117 A0,0 0 0 0 337,1379.5117 L513,1379.5117 A0,0 0 0 0 513,1379.5117 L513,1364.3789 L503,1354.3789 L337,1354.3789 A0,0 0 0 0 337,1354.3789 " fill="#FEFFDD" style="stroke:#181818;stroke-width:0.5;"/><path d="M503,1354.3789 L503,1364.3789 L513,1364.3789 L503,1354.3789 " fill="#FEFFDD" style="stroke:#181818;stroke-width:0.5;"/><text fill="#000000" font-family="sans-serif" font-size="13" lengthAdjust="spacing" textLength="155" x="343" y="1371.4458">void drawU(UGraphicug)</text><ellipse cx="307" cy="1366.9453" fill="#222222" rx="10" ry="10" style="stroke:#222222;stroke-width:1.0;"/><rect fill="#F1F1F1" height="33.9688" rx="12.5" ry="12.5" style="stroke:#181818;stroke-width:0.5;" width="198" x="208" y="1399.5117"/><text fill="#000000" font-family="sans-serif" font-size="12" lengthAdjust="spacing" textLength="178" x="218" y="1420.6504">doublexTheoricalPosition=0;</text><rect fill="#F1F1F1" height="33.9688" rx="12.5" ry="12.5" style="stroke:#181818;stroke-width:0.5;" width="198" x="208" y="1453.4805"/><text fill="#000000" font-family="sans-serif" font-size="12" lengthAdjust="spacing" textLength="178" x="218" y="1474.6191">doubleyTheoricalPosition=0;</text><rect fill="#F1F1F1" height="33.9688" rx="12.5" ry="12.5" style="stroke:#181818;stroke-width:0.5;" width="342" x="136" y="1507.4492"/><text fill="#000000" font-family="sans-serif" font-size="12" lengthAdjust="spacing" textLength="322" x="146" y="1528.5879">xTheoricalPosition=Math.round(xTheoricalPosition);</text><rect fill="#F1F1F1" height="33.9688" rx="12.5" ry="12.5" style="stroke:#181818;stroke-width:0.5;" width="342" x="136" y="1561.418"/><text fill="#000000" font-family="sans-serif" font-size="12" lengthAdjust="spacing" textLength="322" x="146" y="1582.5566">yTheoricalPosition=Math.round(yTheoricalPosition);</text><rect fill="#F1F1F1" height="33.9688" rx="12.5" ry="12.5" style="stroke:#181818;stroke-width:0.5;" width="294" x="160" y="1615.3867"/><text fill="#000000" font-family="sans-serif" font-size="12" lengthAdjust="spacing" textLength="274" x="170" y="1636.5254">final UEllipsecircle=new UEllipse(SIZE,SIZE);</text><rect fill="#F1F1F1" height="33.9688" rx="12.5" ry="12.5" style="stroke:#181818;stroke-width:0.5;" width="240" x="187" y="1669.3555"/><text fill="#000000" font-family="sans-serif" font-size="12" lengthAdjust="spacing" textLength="220" x="197" y="1690.4941">circle.setDeltaShadow(shadowing);</text><rect fill="#F1F1F1" height="33.9688" rx="12.5" ry="12.5" style="stroke:#181818;stroke-width:0.5;" width="187" x="213.5" y="1723.3242"/><text fill="#000000" font-family="sans-serif" font-size="12" lengthAdjust="spacing" textLength="167" x="223.5" y="1744.4629">ug=ug.apply(borderColor);</text><rect fill="#F1F1F1" height="33.9688" rx="12.5" ry="12.5" style="stroke:#181818;stroke-width:0.5;" width="187" x="213.5" y="1777.293"/><text fill="#000000" font-family="sans-serif" font-size="12" lengthAdjust="spacing" textLength="167" x="223.5" y="1798.4316">final doublethickness=2.5;</text><rect fill="#F1F1F1" height="47.9375" rx="12.5" ry="12.5" style="stroke:#181818;stroke-width:0.5;" width="592" x="11" y="1831.2617"/><text fill="#000000" font-family="sans-serif" font-size="12" lengthAdjust="spacing" textLength="572" x="21" y="1852.4004">ug.apply(backColor.bg()).apply(new UStroke(1.5)).apply(new UTranslate(xTheoricalPosition,</text><text fill="#000000" font-family="sans-serif" font-size="12" lengthAdjust="spacing" textLength="204" x="21" y="1866.3691">yTheoricalPosition)).draw(circle);</text><rect fill="#F1F1F1" height="33.9688" rx="12.5" ry="12.5" style="stroke:#181818;stroke-width:0.5;" width="322" x="146" y="1899.1992"/><text fill="#000000" font-family="sans-serif" font-size="12" lengthAdjust="spacing" textLength="302" x="156" y="1920.3379">final doublesize2=(SIZE-thickness)/Math.sqrt(2);</text><rect fill="#F1F1F1" height="33.9688" rx="12.5" ry="12.5" style="stroke:#181818;stroke-width:0.5;" width="224" x="195" y="1953.168"/><text fill="#000000" font-family="sans-serif" font-size="12" lengthAdjust="spacing" textLength="204" x="205" y="1974.3066">final doubledelta=(SIZE-size2)/2;</text><rect fill="#F1F1F1" height="33.9688" rx="12.5" ry="12.5" style="stroke:#181818;stroke-width:0.5;" width="262" x="176" y="2007.1367"/><text fill="#000000" font-family="sans-serif" font-size="12" lengthAdjust="spacing" textLength="242" x="186" y="2028.2754">ug=ug.apply(new UStroke(thickness));</text><rect fill="#F1F1F1" height="47.9375" rx="12.5" ry="12.5" style="stroke:#181818;stroke-width:0.5;" width="400" x="107" y="2061.1055"/><text fill="#000000" font-family="sans-serif" font-size="12" lengthAdjust="spacing" textLength="380" x="117" y="2082.2441">ug.apply(new UTranslate(delta,delta)).draw(new ULine(size2,</text><text fill="#000000" font-family="sans-serif" font-size="12" lengthAdjust="spacing" textLength="45" x="117" y="2096.2129">size2));</text><rect fill="#F1F1F1" height="47.9375" rx="12.5" ry="12.5" style="stroke:#181818;stroke-width:0.5;" width="432" x="91" y="2129.043"/><text fill="#000000" font-family="sans-serif" font-size="12" lengthAdjust="spacing" textLength="412" x="101" y="2150.1816">ug.apply(new UTranslate(delta,SIZE-delta)).draw(new ULine(size2,</text><text fill="#000000" font-family="sans-serif" font-size="12" lengthAdjust="spacing" textLength="49" x="101" y="2164.1504">-size2));</text><ellipse cx="307" cy="2206.9805" fill="none" rx="10" ry="10" style="stroke:#222222;stroke-width:1.5;"/><line style="stroke:#222222;stroke-width:2.5;" x1="300.8128" x2="313.1872" y1="2200.7933" y2="2213.1677"/><line style="stroke:#222222;stroke-width:2.5;" x1="313.1872" x2="300.8128" y1="2200.7933" y2="2213.1677"/><path d="M337,2226.9805 L337,2235.5469 L317,2239.5469 L337,2243.5469 L337,2252.1133 A0,0 0 0 0 337,2252.1133 L791,2252.1133 A0,0 0 0 0 791,2252.1133 L791,2236.9805 L781,2226.9805 L337,2226.9805 A0,0 0 0 0 337,2226.9805 " fill="#FEFFDD" style="stroke:#181818;stroke-width:0.5;"/><path d="M781,2226.9805 L781,2236.9805 L791,2236.9805 L781,2226.9805 " fill="#FEFFDD" style="stroke:#181818;stroke-width:0.5;"/><text fill="#000000" font-family="sans-serif" font-size="13" lengthAdjust="spacing" textLength="433" x="343" y="2244.0474">FtileGeometrycalculateDimensionFtile(StringBounderstringBounder)</text><ellipse cx="307" cy="2239.5469" fill="#222222" rx="10" ry="10" style="stroke:#222222;stroke-width:1.0;"/><rect fill="#F1F1F1" height="33.9688" rx="12.5" ry="12.5" style="stroke:#181818;stroke-width:0.5;" width="308" x="153" y="2272.1133"/><text fill="#000000" font-family="sans-serif" font-size="12" lengthAdjust="spacing" textLength="288" x="163" y="2293.252">return new FtileGeometry(SIZE,SIZE,SIZE/2,0);</text><ellipse cx="307" cy="2337.082" fill="none" rx="11" ry="11" style="stroke:#222222;stroke-width:1.0;"/><ellipse cx="307" cy="2337.082" fill="#222222" rx="6" ry="6" style="stroke:#111111;stroke-width:1.0;"/><ellipse cx="307" cy="2368.082" fill="none" rx="10" ry="10" style="stroke:#222222;stroke-width:1.5;"/><line style="stroke:#222222;stroke-width:2.5;" x1="300.8128" x2="313.1872" y1="2361.8948" y2="2374.2692"/><line style="stroke:#222222;stroke-width:2.5;" x1="313.1872" x2="300.8128" y1="2361.8948" y2="2374.2692"/><line style="stroke:#181818;stroke-width:1.0;" x1="307" x2="307" y1="32.5664" y2="55.1328"/><polygon fill="#181818" points="303,45.1328,307,55.1328,311,45.1328,307,49.1328" style="stroke:#181818;stroke-width:1.0;"/><line style="stroke:#181818;stroke-width:1.0;" x1="307" x2="307" y1="89.1016" y2="109.1016"/><polygon fill="#181818" points="303,99.1016,307,109.1016,311,99.1016,307,103.1016" style="stroke:#181818;stroke-width:1.0;"/><line style="stroke:#181818;stroke-width:1.0;" x1="307" x2="307" y1="208.8008" y2="246.5"/><polygon fill="#181818" points="303,236.5,307,246.5,311,236.5,307,240.5" style="stroke:#181818;stroke-width:1.0;"/><line style="stroke:#181818;stroke-width:1.0;" x1="307" x2="307" y1="280.4688" y2="300.4688"/><polygon fill="#181818" points="303,290.4688,307,300.4688,311,290.4688,307,294.4688" style="stroke:#181818;stroke-width:1.0;"/><line style="stroke:#181818;stroke-width:1.0;" x1="307" x2="307" y1="334.4375" y2="354.4375"/><polygon fill="#181818" points="303,344.4375,307,354.4375,311,344.4375,307,348.4375" style="stroke:#181818;stroke-width:1.0;"/><line style="stroke:#181818;stroke-width:1.0;" x1="307" x2="307" y1="388.4063" y2="408.4063"/><polygon fill="#181818" points="303,398.4063,307,408.4063,311,398.4063,307,402.4063" style="stroke:#181818;stroke-width:1.0;"/><line style="stroke:#181818;stroke-width:1.0;" x1="307" x2="307" y1="442.375" y2="462.375"/><polygon fill="#181818" points="303,452.375,307,462.375,311,452.375,307,456.375" style="stroke:#181818;stroke-width:1.0;"/><line style="stroke:#181818;stroke-width:1.0;" x1="307" x2="307" y1="510.3125" y2="530.3125"/><polygon fill="#181818" points="303,520.3125,307,530.3125,311,520.3125,307,524.3125" style="stroke:#181818;stroke-width:1.0;"/><line style="stroke:#181818;stroke-width:1.0;" x1="307" x2="307" y1="578.25" y2="598.25"/><polygon fill="#181818" points="303,588.25,307,598.25,311,588.25,307,592.25" style="stroke:#181818;stroke-width:1.0;"/><line style="stroke:#181818;stroke-width:1.0;" x1="307" x2="307" y1="646.1875" y2="666.1875"/><polygon fill="#181818" points="303,656.1875,307,666.1875,311,656.1875,307,660.1875" style="stroke:#181818;stroke-width:1.0;"/><line style="stroke:#181818;stroke-width:1.0;" x1="307" x2="307" y1="823.6914" y2="852.207"/><polygon fill="#181818" points="303,842.207,307,852.207,311,842.207,307,846.207" style="stroke:#181818;stroke-width:1.0;"/><line style="stroke:#181818;stroke-width:1.0;" x1="307" x2="307" y1="765.3203" y2="789.7227"/><polygon fill="#181818" points="303,779.7227,307,789.7227,311,779.7227,307,783.7227" style="stroke:#181818;stroke-width:1.0;"/><line style="stroke:#181818;stroke-width:1.0;" x1="367" x2="421" y1="753.3203" y2="753.3203"/><polygon fill="#181818" points="417,822.207,421,832.207,425,822.207,421,826.207" style="stroke:#181818;stroke-width:1.0;"/><line style="stroke:#181818;stroke-width:1.0;" x1="421" x2="421" y1="753.3203" y2="896.207"/><line style="stroke:#181818;stroke-width:1.0;" x1="421" x2="307" y1="896.207" y2="896.207"/><line style="stroke:#181818;stroke-width:1.0;" x1="307" x2="307" y1="896.207" y2="916.207"/><polygon fill="#181818" points="303,906.207,307,916.207,311,906.207,307,910.207" style="stroke:#181818;stroke-width:1.0;"/><line style="stroke:#181818;stroke-width:1.0;" x1="307" x2="307" y1="718.7539" y2="741.3203"/><polygon fill="#181818" points="303,731.3203,307,741.3203,311,731.3203,307,735.3203" style="stroke:#181818;stroke-width:1.0;"/><line style="stroke:#181818;stroke-width:1.0;" x1="307" x2="307" y1="950.1758" y2="970.1758"/><polygon fill="#181818" points="303,960.1758,307,970.1758,311,960.1758,307,964.1758" style="stroke:#181818;stroke-width:1.0;"/><line style="stroke:#181818;stroke-width:1.0;" x1="307" x2="307" y1="1054.7422" y2="1077.3086"/><polygon fill="#181818" points="303,1067.3086,307,1077.3086,311,1067.3086,307,1071.3086" style="stroke:#181818;stroke-width:1.0;"/><line style="stroke:#181818;stroke-width:1.0;" x1="307" x2="307" y1="1111.2773" y2="1131.2773"/><polygon fill="#181818" points="303,1121.2773,307,1131.2773,311,1121.2773,307,1125.2773" style="stroke:#181818;stroke-width:1.0;"/><line style="stroke:#181818;stroke-width:1.0;" x1="307" x2="307" y1="1215.8438" y2="1238.4102"/><polygon fill="#181818" points="303,1228.4102,307,1238.4102,311,1228.4102,307,1232.4102" style="stroke:#181818;stroke-width:1.0;"/><line style="stroke:#181818;stroke-width:1.0;" x1="307" x2="307" y1="1272.3789" y2="1292.3789"/><polygon fill="#181818" points="303,1282.3789,307,1292.3789,311,1282.3789,307,1286.3789" style="stroke:#181818;stroke-width:1.0;"/><line style="stroke:#181818;stroke-width:1.0;" x1="307" x2="307" y1="1376.9453" y2="1399.5117"/><polygon fill="#181818" points="303,1389.5117,307,1399.5117,311,1389.5117,307,1393.5117" style="stroke:#181818;stroke-width:1.0;"/><line style="stroke:#181818;stroke-width:1.0;" x1="307" x2="307" y1="1433.4805" y2="1453.4805"/><polygon fill="#181818" points="303,1443.4805,307,1453.4805,311,1443.4805,307,1447.4805" style="stroke:#181818;stroke-width:1.0;"/><line style="stroke:#181818;stroke-width:1.0;" x1="307" x2="307" y1="1487.4492" y2="1507.4492"/><polygon fill="#181818" points="303,1497.4492,307,1507.4492,311,1497.4492,307,1501.4492" style="stroke:#181818;stroke-width:1.0;"/><line style="stroke:#181818;stroke-width:1.0;" x1="307" x2="307" y1="1541.418" y2="1561.418"/><polygon fill="#181818" points="303,1551.418,307,1561.418,311,1551.418,307,1555.418" style="stroke:#181818;stroke-width:1.0;"/><line style="stroke:#181818;stroke-width:1.0;" x1="307" x2="307" y1="1595.3867" y2="1615.3867"/><polygon fill="#181818" points="303,1605.3867,307,1615.3867,311,1605.3867,307,1609.3867" style="stroke:#181818;stroke-width:1.0;"/><line style="stroke:#181818;stroke-width:1.0;" x1="307" x2="307" y1="1649.3555" y2="1669.3555"/><polygon fill="#181818" points="303,1659.3555,307,1669.3555,311,1659.3555,307,1663.3555" style="stroke:#181818;stroke-width:1.0;"/><line style="stroke:#181818;stroke-width:1.0;" x1="307" x2="307" y1="1703.3242" y2="1723.3242"/><polygon fill="#181818" points="303,1713.3242,307,1723.3242,311,1713.3242,307,1717.3242" style="stroke:#181818;stroke-width:1.0;"/><line style="stroke:#181818;stroke-width:1.0;" x1="307" x2="307" y1="1757.293" y2="1777.293"/><polygon fill="#181818" points="303,1767.293,307,1777.293,311,1767.293,307,1771.293" style="stroke:#181818;stroke-width:1.0;"/><line style="stroke:#181818;stroke-width:1.0;" x1="307" x2="307" y1="1811.2617" y2="1831.2617"/><polygon fill="#181818" points="303,1821.2617,307,1831.2617,311,1821.2617,307,1825.2617" style="stroke:#181818;stroke-width:1.0;"/><line style="stroke:#181818;stroke-width:1.0;" x1="307" x2="307" y1="1879.1992" y2="1899.1992"/><polygon fill="#181818" points="303,1889.1992,307,1899.1992,311,1889.1992,307,1893.1992" style="stroke:#181818;stroke-width:1.0;"/><line style="stroke:#181818;stroke-width:1.0;" x1="307" x2="307" y1="1933.168" y2="1953.168"/><polygon fill="#181818" points="303,1943.168,307,1953.168,311,1943.168,307,1947.168" style="stroke:#181818;stroke-width:1.0;"/><line style="stroke:#181818;stroke-width:1.0;" x1="307" x2="307" y1="1987.1367" y2="2007.1367"/><polygon fill="#181818" points="303,1997.1367,307,2007.1367,311,1997.1367,307,2001.1367" style="stroke:#181818;stroke-width:1.0;"/><line style="stroke:#181818;stroke-width:1.0;" x1="307" x2="307" y1="2041.1055" y2="2061.1055"/><polygon fill="#181818" points="303,2051.1055,307,2061.1055,311,2051.1055,307,2055.1055" style="stroke:#181818;stroke-width:1.0;"/><line style="stroke:#181818;stroke-width:1.0;" x1="307" x2="307" y1="2109.043" y2="2129.043"/><polygon fill="#181818" points="303,2119.043,307,2129.043,311,2119.043,307,2123.043" style="stroke:#181818;stroke-width:1.0;"/><line style="stroke:#181818;stroke-width:1.0;" x1="307" x2="307" y1="2176.9805" y2="2196.9805"/><polygon fill="#181818" points="303,2186.9805,307,2196.9805,311,2186.9805,307,2190.9805" style="stroke:#181818;stroke-width:1.0;"/><line style="stroke:#181818;stroke-width:1.0;" x1="307" x2="307" y1="2249.5469" y2="2272.1133"/><polygon fill="#181818" points="303,2262.1133,307,2272.1133,311,2262.1133,307,2266.1133" style="stroke:#181818;stroke-width:1.0;"/><line style="stroke:#181818;stroke-width:1.0;" x1="307" x2="307" y1="2306.082" y2="2326.082"/><polygon fill="#181818" points="303,2316.082,307,2326.082,311,2316.082,307,2320.082" style="stroke:#181818;stroke-width:1.0;"/><!--MD5=[a3aecc4c37bb122bc5c6fc94aac85106]
@startuml
!pragma layout smetana
start
note right
Collection<Ftile>getMyChildren()
end note
:return Collections.emptyList();;
stop
end
start
note right
constructor FtileCircleEnd(ISkinParamskinParam,
HColorbackColor,HColorborderColor,Swimlaneswimlane,
Stylestyle)
end note
:super (skinParam);;
:this.borderColor=borderColor;;
:this.backColor=backColor;;
:this.swimlane=swimlane;;
:this.shadowing=style.value(PName.Shadowing)
.asDouble();;
:this.backColor=style.value(PName.BackGroundColor)
.asColor(getIHtmlColorSet());;
:this.borderColor=style.value(PName.LineColor)
.asColor(getIHtmlColorSet());;
end
start
note right
Set<Swimlane>getSwimlanes()
end note
if (swimlane==null ) then (yes) 
:return Collections.emptySet();;
stop
endif 
:return Collections.singleton(swimlane);;
stop
end
start
note right
SwimlanegetSwimlaneIn()
end note
:return swimlane;;
stop
end
start
note right
SwimlanegetSwimlaneOut()
end note
:return swimlane;;
stop
end
start
note right
void drawU(UGraphicug)
end note
:doublexTheoricalPosition=0;;
:doubleyTheoricalPosition=0;;
:xTheoricalPosition=Math.round(xTheoricalPosition);;
:yTheoricalPosition=Math.round(yTheoricalPosition);;
:final UEllipsecircle=new UEllipse(SIZE,SIZE);;
:circle.setDeltaShadow(shadowing);;
:ug=ug.apply(borderColor);;
:final doublethickness=2.5;;
:ug.apply(backColor.bg()).apply(new UStroke(1.5)).apply(new UTranslate(xTheoricalPosition,
yTheoricalPosition)).draw(circle);;
:final doublesize2=(SIZE-thickness)/Math.sqrt(2);;
:final doubledelta=(SIZE-size2)/2;;
:ug=ug.apply(new UStroke(thickness));;
:ug.apply(new UTranslate(delta,delta)).draw(new ULine(size2,
size2));;
:ug.apply(new UTranslate(delta,SIZE-delta)).draw(new ULine(size2,
-size2));;
end
start
note right
FtileGeometrycalculateDimensionFtile(StringBounderstringBounder)
end note
:return new FtileGeometry(SIZE,SIZE,SIZE/2,0);;
stop
end
@enduml

PlantUML version 1.2022.7(Mon Aug 22 17:01:30 UTC 2022)
(GPL source distribution)
Java Runtime: OpenJDK Runtime Environment
JVM: OpenJDK 64-Bit Server VM
Default Encoding: UTF-8
Language: en
Country: null
--></g></svg>