<?xml version="1.0" encoding="UTF-8" standalone="no"?><svg xmlns="http://www.w3.org/2000/svg" xmlns:xlink="http://www.w3.org/1999/xlink" contentStyleType="text/css" height="2916px" preserveAspectRatio="none" style="width:1273px;height:2916px;background:#FFFFFF;" version="1.1" viewBox="0 0 1273 2916" width="1273px" zoomAndPan="magnify"><defs/><g><path d="M673.5,10 L673.5,18.5664 L653.5,22.5664 L673.5,26.5664 L673.5,35.1328 A0,0 0 0 0 673.5,35.1328 L1017.5,35.1328 A0,0 0 0 0 1017.5,35.1328 L1017.5,20 L1007.5,10 L673.5,10 A0,0 0 0 0 673.5,10 " fill="#FEFFDD" style="stroke:#181818;stroke-width:0.5;"/><path d="M1007.5,10 L1007.5,20 L1017.5,20 L1007.5,10 " fill="#FEFFDD" style="stroke:#181818;stroke-width:0.5;"/><text fill="#000000" font-family="sans-serif" font-size="13" lengthAdjust="spacing" textLength="323" x="679.5" y="27.0669">constructor BrotliInputStream(InputStreamsource)</text><ellipse cx="643.5" cy="22.5664" fill="#222222" rx="10" ry="10" style="stroke:#222222;stroke-width:1.0;"/><rect fill="#F1F1F1" height="33.9688" rx="12.5" ry="12.5" style="stroke:#181818;stroke-width:0.5;" width="309" x="489" y="55.1328"/><text fill="#000000" font-family="sans-serif" font-size="12" lengthAdjust="spacing" textLength="289" x="499" y="76.2715">this(source,DEFAULT_INTERNAL_BUFFER_SIZE);</text><ellipse cx="643.5" cy="119.1016" fill="none" rx="10" ry="10" style="stroke:#222222;stroke-width:1.5;"/><line style="stroke:#222222;stroke-width:2.5;" x1="637.3128" x2="649.6872" y1="112.9144" y2="125.2887"/><line style="stroke:#222222;stroke-width:2.5;" x1="649.6872" x2="637.3128" y1="112.9144" y2="125.2887"/><path d="M673.5,139.1016 L673.5,155.2344 L653.5,159.2344 L673.5,163.2344 L673.5,179.3672 A0,0 0 0 0 673.5,179.3672 L1016.5,179.3672 A0,0 0 0 0 1016.5,179.3672 L1016.5,149.1016 L1006.5,139.1016 L673.5,139.1016 A0,0 0 0 0 673.5,139.1016 " fill="#FEFFDD" style="stroke:#181818;stroke-width:0.5;"/><path d="M1006.5,139.1016 L1006.5,149.1016 L1016.5,149.1016 L1006.5,139.1016 " fill="#FEFFDD" style="stroke:#181818;stroke-width:0.5;"/><text fill="#000000" font-family="sans-serif" font-size="13" lengthAdjust="spacing" textLength="322" x="679.5" y="156.1685">constructor BrotliInputStream(InputStreamsource,</text><text fill="#000000" font-family="sans-serif" font-size="13" lengthAdjust="spacing" textLength="146" x="679.5" y="171.3013">intbyteReadBufferSize)</text><ellipse cx="643.5" cy="159.2344" fill="#222222" rx="10" ry="10" style="stroke:#222222;stroke-width:1.0;"/><polygon fill="#F1F1F1" points="364.5,199.3672,499.5,199.3672,511.5,211.3672,499.5,223.3672,364.5,223.3672,352.5,211.3672,364.5,199.3672" style="stroke:#181818;stroke-width:0.5;"/><text fill="#000000" font-family="sans-serif" font-size="11" lengthAdjust="spacing" textLength="20" x="436" y="233.5776">yes</text><text fill="#000000" font-family="sans-serif" font-size="11" lengthAdjust="spacing" textLength="135" x="364.5" y="215.1753">byteReadBufferSize&lt;=0</text><rect fill="#F1F1F1" height="47.9375" rx="12.5" ry="12.5" style="stroke:#181818;stroke-width:0.5;" width="367" x="248.5" y="255.0776"/><text fill="#000000" font-family="sans-serif" font-size="12" lengthAdjust="spacing" textLength="347" x="258.5" y="276.2163">throw new IllegalArgumentException("Bad buffer size:"+</text><text fill="#000000" font-family="sans-serif" font-size="12" lengthAdjust="spacing" textLength="129" x="258.5" y="290.1851">byteReadBufferSize);</text><ellipse cx="432" cy="347.9839" fill="none" rx="11" ry="11" style="stroke:#222222;stroke-width:1.0;"/><ellipse cx="432" cy="347.9839" fill="#222222" rx="6" ry="6" style="stroke:#111111;stroke-width:1.0;"/><polygon fill="#F1F1F1" points="771.5,199.3672,852.5,199.3672,864.5,211.3672,852.5,223.3672,771.5,223.3672,759.5,211.3672,771.5,199.3672" style="stroke:#181818;stroke-width:0.5;"/><text fill="#000000" font-family="sans-serif" font-size="11" lengthAdjust="spacing" textLength="20" x="816" y="233.5776">yes</text><text fill="#000000" font-family="sans-serif" font-size="11" lengthAdjust="spacing" textLength="77" x="771.5" y="215.1753">source==null</text><rect fill="#F1F1F1" height="33.9688" rx="12.5" ry="12.5" style="stroke:#181818;stroke-width:0.5;" width="353" x="635.5" y="255.0776"/><text fill="#000000" font-family="sans-serif" font-size="12" lengthAdjust="spacing" textLength="333" x="645.5" y="276.2163">throw new IllegalArgumentException("source is null");</text><ellipse cx="812" cy="334.0151" fill="none" rx="11" ry="11" style="stroke:#222222;stroke-width:1.0;"/><ellipse cx="812" cy="334.0151" fill="#222222" rx="6" ry="6" style="stroke:#111111;stroke-width:1.0;"/><rect fill="#F1F1F1" height="33.9688" rx="12.5" ry="12.5" style="stroke:#181818;stroke-width:0.5;" width="284" x="501.5" y="378.9839"/><text fill="#000000" font-family="sans-serif" font-size="12" lengthAdjust="spacing" textLength="264" x="511.5" y="400.1226">this.buffer=new byte[byteReadBufferSize];</text><rect fill="#F1F1F1" height="33.9688" rx="12.5" ry="12.5" style="stroke:#181818;stroke-width:0.5;" width="202" x="542.5" y="432.9526"/><text fill="#000000" font-family="sans-serif" font-size="12" lengthAdjust="spacing" textLength="182" x="552.5" y="454.0913">this.remainingBufferBytes=0;</text><rect fill="#F1F1F1" height="33.9688" rx="12.5" ry="12.5" style="stroke:#181818;stroke-width:0.5;" width="143" x="572" y="486.9214"/><text fill="#000000" font-family="sans-serif" font-size="12" lengthAdjust="spacing" textLength="123" x="582" y="508.0601">this.bufferOffset=0;</text><polygon fill="#F1F1F1" points="602.5,540.8901,684.5,540.8901,696.5,552.8901,684.5,564.8901,602.5,564.8901,590.5,552.8901,602.5,540.8901" style="stroke:#181818;stroke-width:0.5;"/><text fill="#000000" font-family="sans-serif" font-size="11" lengthAdjust="spacing" textLength="82" x="602.5" y="556.6982">try/catch block</text><rect fill="#F1F1F1" height="33.9688" rx="12.5" ry="12.5" style="stroke:#181818;stroke-width:0.5;" width="219" x="332.5" y="600.4995"/><text fill="#000000" font-family="sans-serif" font-size="12" lengthAdjust="spacing" textLength="199" x="342.5" y="621.6382">Decode.initState(state,source);</text><rect fill="#F1F1F1" height="47.9375" rx="12.5" ry="12.5" style="stroke:#181818;stroke-width:0.5;" width="383" x="571.5" y="600.4995"/><text fill="#000000" font-family="sans-serif" font-size="12" lengthAdjust="spacing" textLength="363" x="581.5" y="621.6382">throw new IOException("Brotli decoder initialization failed",</text><text fill="#000000" font-family="sans-serif" font-size="12" lengthAdjust="spacing" textLength="23" x="581.5" y="635.6069">ex);</text><ellipse cx="763" cy="679.437" fill="none" rx="11" ry="11" style="stroke:#222222;stroke-width:1.0;"/><ellipse cx="763" cy="679.437" fill="#222222" rx="6" ry="6" style="stroke:#111111;stroke-width:1.0;"/><polygon fill="#F1F1F1" points="643.5,700.437,643.5,700.437,655.5,712.437,643.5,724.437,643.5,724.437,631.5,712.437,643.5,700.437" style="stroke:#181818;stroke-width:0.5;"/><ellipse cx="643.5" cy="754.437" fill="none" rx="10" ry="10" style="stroke:#222222;stroke-width:1.5;"/><line style="stroke:#222222;stroke-width:2.5;" x1="637.3128" x2="649.6872" y1="748.2498" y2="760.6242"/><line style="stroke:#222222;stroke-width:2.5;" x1="649.6872" x2="637.3128" y1="748.2498" y2="760.6242"/><path d="M673.5,774.437 L673.5,783.0034 L653.5,787.0034 L673.5,791.0034 L673.5,799.5698 A0,0 0 0 0 673.5,799.5698 L767.5,799.5698 A0,0 0 0 0 767.5,799.5698 L767.5,784.437 L757.5,774.437 L673.5,774.437 A0,0 0 0 0 673.5,774.437 " fill="#FEFFDD" style="stroke:#181818;stroke-width:0.5;"/><path d="M757.5,774.437 L757.5,784.437 L767.5,784.437 L757.5,774.437 " fill="#FEFFDD" style="stroke:#181818;stroke-width:0.5;"/><text fill="#000000" font-family="sans-serif" font-size="13" lengthAdjust="spacing" textLength="73" x="679.5" y="791.5039">void close()</text><ellipse cx="643.5" cy="787.0034" fill="#222222" rx="10" ry="10" style="stroke:#222222;stroke-width:1.0;"/><rect fill="#F1F1F1" height="33.9688" rx="12.5" ry="12.5" style="stroke:#181818;stroke-width:0.5;" width="152" x="567.5" y="819.5698"/><text fill="#000000" font-family="sans-serif" font-size="12" lengthAdjust="spacing" textLength="132" x="577.5" y="840.7085">Decode.close(state);</text><ellipse cx="643.5" cy="883.5386" fill="none" rx="10" ry="10" style="stroke:#222222;stroke-width:1.5;"/><line style="stroke:#222222;stroke-width:2.5;" x1="637.3128" x2="649.6872" y1="877.3514" y2="889.7258"/><line style="stroke:#222222;stroke-width:2.5;" x1="649.6872" x2="637.3128" y1="877.3514" y2="889.7258"/><path d="M673.5,903.5386 L673.5,912.105 L653.5,916.105 L673.5,920.105 L673.5,928.6714 A0,0 0 0 0 673.5,928.6714 L749.5,928.6714 A0,0 0 0 0 749.5,928.6714 L749.5,913.5386 L739.5,903.5386 L673.5,903.5386 A0,0 0 0 0 673.5,903.5386 " fill="#FEFFDD" style="stroke:#181818;stroke-width:0.5;"/><path d="M739.5,903.5386 L739.5,913.5386 L749.5,913.5386 L739.5,903.5386 " fill="#FEFFDD" style="stroke:#181818;stroke-width:0.5;"/><text fill="#000000" font-family="sans-serif" font-size="13" lengthAdjust="spacing" textLength="55" x="679.5" y="920.6055">intread()</text><ellipse cx="643.5" cy="916.105" fill="#222222" rx="10" ry="10" style="stroke:#222222;stroke-width:1.0;"/><rect fill="#F1F1F1" height="33.9688" rx="12.5" ry="12.5" style="stroke:#181818;stroke-width:0.5;" width="340" x="473.5" y="997.0737"/><text fill="#000000" font-family="sans-serif" font-size="12" lengthAdjust="spacing" textLength="320" x="483.5" y="1018.2124">remainingBufferBytes=read(buffer,0,buffer.length);</text><rect fill="#F1F1F1" height="33.9688" rx="12.5" ry="12.5" style="stroke:#181818;stroke-width:0.5;" width="116" x="585.5" y="1051.0425"/><text fill="#000000" font-family="sans-serif" font-size="12" lengthAdjust="spacing" textLength="96" x="595.5" y="1072.1812">bufferOffset=0;</text><rect fill="#F1F1F1" height="33.9688" rx="12.5" ry="12.5" style="stroke:#181818;stroke-width:0.5;" width="79" x="604" y="1153.4136"/><text fill="#000000" font-family="sans-serif" font-size="12" lengthAdjust="spacing" textLength="59" x="614" y="1174.5522">return -1;</text><ellipse cx="643.5" cy="1226.8979" fill="none" rx="11" ry="11" style="stroke:#222222;stroke-width:1.0;"/><ellipse cx="643.5" cy="1226.8979" fill="#222222" rx="6" ry="6" style="stroke:#111111;stroke-width:1.0;"/><polygon fill="#F1F1F1" points="567,1105.0112,720,1105.0112,732,1117.0112,720,1129.0112,567,1129.0112,555,1117.0112,567,1105.0112" style="stroke:#181818;stroke-width:0.5;"/><text fill="#000000" font-family="sans-serif" font-size="11" lengthAdjust="spacing" textLength="20" x="647.5" y="1139.2217">yes</text><text fill="#000000" font-family="sans-serif" font-size="11" lengthAdjust="spacing" textLength="153" x="567" y="1120.8193">remainingBufferBytes==-1</text><polygon fill="#F1F1F1" points="538,948.6714,749,948.6714,761,960.6714,749,972.6714,538,972.6714,526,960.6714,538,948.6714" style="stroke:#181818;stroke-width:0.5;"/><text fill="#000000" font-family="sans-serif" font-size="11" lengthAdjust="spacing" textLength="20" x="647.5" y="982.8818">yes</text><text fill="#000000" font-family="sans-serif" font-size="11" lengthAdjust="spacing" textLength="211" x="538" y="964.4795">bufferOffset&gt;=remainingBufferBytes</text><polygon fill="#F1F1F1" points="643.5,1279.8979,655.5,1291.8979,643.5,1303.8979,631.5,1291.8979,643.5,1279.8979" style="stroke:#181818;stroke-width:0.5;"/><rect fill="#F1F1F1" height="33.9688" rx="12.5" ry="12.5" style="stroke:#181818;stroke-width:0.5;" width="246" x="520.5" y="1323.8979"/><text fill="#000000" font-family="sans-serif" font-size="12" lengthAdjust="spacing" textLength="226" x="530.5" y="1345.0366">return buffer[bufferOffset++]&amp;0xFF;</text><ellipse cx="643.5" cy="1388.8667" fill="none" rx="11" ry="11" style="stroke:#222222;stroke-width:1.0;"/><ellipse cx="643.5" cy="1388.8667" fill="#222222" rx="6" ry="6" style="stroke:#111111;stroke-width:1.0;"/><ellipse cx="643.5" cy="1419.8667" fill="none" rx="10" ry="10" style="stroke:#222222;stroke-width:1.5;"/><line style="stroke:#222222;stroke-width:2.5;" x1="637.3128" x2="649.6872" y1="1413.6795" y2="1426.0539"/><line style="stroke:#222222;stroke-width:2.5;" x1="649.6872" x2="637.3128" y1="1413.6795" y2="1426.0539"/><path d="M673.5,1439.8667 L673.5,1448.4331 L653.5,1452.4331 L673.5,1456.4331 L673.5,1464.9995 A0,0 0 0 0 673.5,1464.9995 L1010.5,1464.9995 A0,0 0 0 0 1010.5,1464.9995 L1010.5,1449.8667 L1000.5,1439.8667 L673.5,1439.8667 A0,0 0 0 0 673.5,1439.8667 " fill="#FEFFDD" style="stroke:#181818;stroke-width:0.5;"/><path d="M1000.5,1439.8667 L1000.5,1449.8667 L1010.5,1449.8667 L1000.5,1439.8667 " fill="#FEFFDD" style="stroke:#181818;stroke-width:0.5;"/><text fill="#000000" font-family="sans-serif" font-size="13" lengthAdjust="spacing" textLength="316" x="679.5" y="1456.9336">intread(byte[]destBuffer,intdestOffset,intdestLen)</text><ellipse cx="643.5" cy="1452.4331" fill="#222222" rx="10" ry="10" style="stroke:#222222;stroke-width:1.0;"/><polygon fill="#F1F1F1" points="144.5,1484.9995,220.5,1484.9995,232.5,1496.9995,220.5,1508.9995,144.5,1508.9995,132.5,1496.9995,144.5,1484.9995" style="stroke:#181818;stroke-width:0.5;"/><text fill="#000000" font-family="sans-serif" font-size="11" lengthAdjust="spacing" textLength="20" x="186.5" y="1519.21">yes</text><text fill="#000000" font-family="sans-serif" font-size="11" lengthAdjust="spacing" textLength="76" x="144.5" y="1500.8076">destOffset&lt;0</text><rect fill="#F1F1F1" height="47.9375" rx="12.5" ry="12.5" style="stroke:#181818;stroke-width:0.5;" width="343" x="11" y="1540.71"/><text fill="#000000" font-family="sans-serif" font-size="12" lengthAdjust="spacing" textLength="323" x="21" y="1561.8486">throw new IllegalArgumentException("Bad offset: "+</text><text fill="#000000" font-family="sans-serif" font-size="12" lengthAdjust="spacing" textLength="74" x="21" y="1575.8174">destOffset);</text><ellipse cx="182.5" cy="1633.6162" fill="none" rx="11" ry="11" style="stroke:#222222;stroke-width:1.0;"/><ellipse cx="182.5" cy="1633.6162" fill="#222222" rx="6" ry="6" style="stroke:#111111;stroke-width:1.0;"/><polygon fill="#F1F1F1" points="517,1484.9995,578,1484.9995,590,1496.9995,578,1508.9995,517,1508.9995,505,1496.9995,517,1484.9995" style="stroke:#181818;stroke-width:0.5;"/><text fill="#000000" font-family="sans-serif" font-size="11" lengthAdjust="spacing" textLength="20" x="551.5" y="1519.21">yes</text><text fill="#000000" font-family="sans-serif" font-size="11" lengthAdjust="spacing" textLength="61" x="517" y="1500.8076">destLen&lt;0</text><rect fill="#F1F1F1" height="47.9375" rx="12.5" ry="12.5" style="stroke:#181818;stroke-width:0.5;" width="347" x="374" y="1540.71"/><text fill="#000000" font-family="sans-serif" font-size="12" lengthAdjust="spacing" textLength="327" x="384" y="1561.8486">throw new IllegalArgumentException("Bad length: "+</text><text fill="#000000" font-family="sans-serif" font-size="12" lengthAdjust="spacing" textLength="59" x="384" y="1575.8174">destLen);</text><ellipse cx="547.5" cy="1633.6162" fill="none" rx="11" ry="11" style="stroke:#222222;stroke-width:1.0;"/><ellipse cx="547.5" cy="1633.6162" fill="#222222" rx="6" ry="6" style="stroke:#111111;stroke-width:1.0;"/><polygon fill="#F1F1F1" points="815.5,1484.9995,1037.5,1484.9995,1049.5,1496.9995,1037.5,1508.9995,815.5,1508.9995,803.5,1496.9995,815.5,1484.9995" style="stroke:#181818;stroke-width:0.5;"/><text fill="#000000" font-family="sans-serif" font-size="11" lengthAdjust="spacing" textLength="20" x="930.5" y="1519.21">yes</text><text fill="#000000" font-family="sans-serif" font-size="11" lengthAdjust="spacing" textLength="222" x="815.5" y="1500.8076">destOffset+destLen&gt;destBuffer.length</text><rect fill="#F1F1F1" height="47.9375" rx="12.5" ry="12.5" style="stroke:#181818;stroke-width:0.5;" width="371" x="741" y="1540.71"/><text fill="#000000" font-family="sans-serif" font-size="12" lengthAdjust="spacing" textLength="351" x="751" y="1561.8486">throw new IllegalArgumentException("Buffer overflow: "+</text><text fill="#000000" font-family="sans-serif" font-size="12" lengthAdjust="spacing" textLength="301" x="751" y="1575.8174">(destOffset+destLen)+" &gt; "+destBuffer.length);</text><ellipse cx="926.5" cy="1633.6162" fill="none" rx="11" ry="11" style="stroke:#222222;stroke-width:1.0;"/><ellipse cx="926.5" cy="1633.6162" fill="#222222" rx="6" ry="6" style="stroke:#111111;stroke-width:1.0;"/><polygon fill="#F1F1F1" points="1144,1484.9995,1214,1484.9995,1226,1496.9995,1214,1508.9995,1144,1508.9995,1132,1496.9995,1144,1484.9995" style="stroke:#181818;stroke-width:0.5;"/><text fill="#000000" font-family="sans-serif" font-size="11" lengthAdjust="spacing" textLength="20" x="1183" y="1519.21">yes</text><text fill="#000000" font-family="sans-serif" font-size="11" lengthAdjust="spacing" textLength="70" x="1144" y="1500.8076">destLen==0</text><rect fill="#F1F1F1" height="33.9688" rx="12.5" ry="12.5" style="stroke:#181818;stroke-width:0.5;" width="75" x="1141.5" y="1540.71"/><text fill="#000000" font-family="sans-serif" font-size="12" lengthAdjust="spacing" textLength="55" x="1151.5" y="1561.8486">return 0;</text><ellipse cx="1179" cy="1619.6475" fill="none" rx="11" ry="11" style="stroke:#222222;stroke-width:1.0;"/><ellipse cx="1179" cy="1619.6475" fill="#222222" rx="6" ry="6" style="stroke:#111111;stroke-width:1.0;"/><rect fill="#F1F1F1" height="33.9688" rx="12.5" ry="12.5" style="stroke:#181818;stroke-width:0.5;" width="394" x="446.5" y="1664.6162"/><text fill="#000000" font-family="sans-serif" font-size="12" lengthAdjust="spacing" textLength="374" x="456.5" y="1685.7549">intcopyLen=Math.max(remainingBufferBytes-bufferOffset,0);</text><rect fill="#F1F1F1" height="33.9688" rx="12.5" ry="12.5" style="stroke:#181818;stroke-width:0.5;" width="257" x="515" y="1766.9873"/><text fill="#000000" font-family="sans-serif" font-size="12" lengthAdjust="spacing" textLength="237" x="525" y="1788.126">copyLen=Math.min(copyLen,destLen);</text><rect fill="#F1F1F1" height="47.9375" rx="12.5" ry="12.5" style="stroke:#181818;stroke-width:0.5;" width="323" x="482" y="1820.9561"/><text fill="#000000" font-family="sans-serif" font-size="12" lengthAdjust="spacing" textLength="303" x="492" y="1842.0947">System.arraycopy(buffer,bufferOffset,destBuffer,</text><text fill="#000000" font-family="sans-serif" font-size="12" lengthAdjust="spacing" textLength="129" x="492" y="1856.0635">destOffset,copyLen);</text><rect fill="#F1F1F1" height="33.9688" rx="12.5" ry="12.5" style="stroke:#181818;stroke-width:0.5;" width="169" x="559" y="1888.8936"/><text fill="#000000" font-family="sans-serif" font-size="12" lengthAdjust="spacing" textLength="149" x="569" y="1910.0322">bufferOffset+=copyLen;</text><rect fill="#F1F1F1" height="33.9688" rx="12.5" ry="12.5" style="stroke:#181818;stroke-width:0.5;" width="160" x="563.5" y="1942.8623"/><text fill="#000000" font-family="sans-serif" font-size="12" lengthAdjust="spacing" textLength="140" x="573.5" y="1964.001">destOffset+=copyLen;</text><rect fill="#F1F1F1" height="33.9688" rx="12.5" ry="12.5" style="stroke:#181818;stroke-width:0.5;" width="139" x="574" y="2006.2803"/><text fill="#000000" font-family="sans-serif" font-size="12" lengthAdjust="spacing" textLength="119" x="584" y="2027.4189">destLen-=copyLen;</text><rect fill="#F1F1F1" height="33.9688" rx="12.5" ry="12.5" style="stroke:#181818;stroke-width:0.5;" width="118" x="584.5" y="2108.6514"/><text fill="#000000" font-family="sans-serif" font-size="12" lengthAdjust="spacing" textLength="98" x="594.5" y="2129.79">return copyLen;</text><ellipse cx="643.5" cy="2182.1357" fill="none" rx="11" ry="11" style="stroke:#222222;stroke-width:1.0;"/><ellipse cx="643.5" cy="2182.1357" fill="#222222" rx="6" ry="6" style="stroke:#111111;stroke-width:1.0;"/><polygon fill="#F1F1F1" points="608.5,2060.249,678.5,2060.249,690.5,2072.249,678.5,2084.249,608.5,2084.249,596.5,2072.249,608.5,2060.249" style="stroke:#181818;stroke-width:0.5;"/><text fill="#000000" font-family="sans-serif" font-size="11" lengthAdjust="spacing" textLength="20" x="647.5" y="2094.4595">yes</text><text fill="#000000" font-family="sans-serif" font-size="11" lengthAdjust="spacing" textLength="70" x="608.5" y="2076.0571">destLen==0</text><polygon fill="#F1F1F1" points="611,1718.585,676,1718.585,688,1730.585,676,1742.585,611,1742.585,599,1730.585,611,1718.585" style="stroke:#181818;stroke-width:0.5;"/><text fill="#000000" font-family="sans-serif" font-size="11" lengthAdjust="spacing" textLength="20" x="647.5" y="1752.7954">yes</text><text fill="#000000" font-family="sans-serif" font-size="11" lengthAdjust="spacing" textLength="65" x="611" y="1734.3931">copyLen!=0</text><polygon fill="#F1F1F1" points="643.5,2235.1357,655.5,2247.1357,643.5,2259.1357,631.5,2247.1357,643.5,2235.1357" style="stroke:#181818;stroke-width:0.5;"/><polygon fill="#F1F1F1" points="602.5,2279.1357,684.5,2279.1357,696.5,2291.1357,684.5,2303.1357,602.5,2303.1357,590.5,2291.1357,602.5,2279.1357" style="stroke:#181818;stroke-width:0.5;"/><text fill="#000000" font-family="sans-serif" font-size="11" lengthAdjust="spacing" textLength="82" x="602.5" y="2294.9438">try/catch block</text><rect fill="#F1F1F1" height="33.9688" rx="12.5" ry="12.5" style="stroke:#181818;stroke-width:0.5;" width="178" x="362" y="2338.7451"/><text fill="#000000" font-family="sans-serif" font-size="12" lengthAdjust="spacing" textLength="158" x="372" y="2359.8838">state.output=destBuffer;</text><rect fill="#F1F1F1" height="33.9688" rx="12.5" ry="12.5" style="stroke:#181818;stroke-width:0.5;" width="215" x="343.5" y="2406.6826"/><text fill="#000000" font-family="sans-serif" font-size="12" lengthAdjust="spacing" textLength="195" x="353.5" y="2427.8213">state.outputOffset=destOffset;</text><rect fill="#F1F1F1" height="33.9688" rx="12.5" ry="12.5" style="stroke:#181818;stroke-width:0.5;" width="206" x="348" y="2462.6514"/><text fill="#000000" font-family="sans-serif" font-size="12" lengthAdjust="spacing" textLength="186" x="358" y="2483.79">state.outputLength=destLen;</text><rect fill="#F1F1F1" height="33.9688" rx="12.5" ry="12.5" style="stroke:#181818;stroke-width:0.5;" width="153" x="374.5" y="2516.6201"/><text fill="#000000" font-family="sans-serif" font-size="12" lengthAdjust="spacing" textLength="133" x="384.5" y="2537.7588">state.outputUsed=0;</text><rect fill="#F1F1F1" height="33.9688" rx="12.5" ry="12.5" style="stroke:#181818;stroke-width:0.5;" width="196" x="353" y="2570.5889"/><text fill="#000000" font-family="sans-serif" font-size="12" lengthAdjust="spacing" textLength="176" x="363" y="2591.7275">Decode.decompress(state);</text><rect fill="#F1F1F1" height="33.9688" rx="12.5" ry="12.5" style="stroke:#181818;stroke-width:0.5;" width="79" x="411.5" y="2672.96"/><text fill="#000000" font-family="sans-serif" font-size="12" lengthAdjust="spacing" textLength="59" x="421.5" y="2694.0986">return -1;</text><ellipse cx="451" cy="2746.4443" fill="none" rx="11" ry="11" style="stroke:#222222;stroke-width:1.0;"/><ellipse cx="451" cy="2746.4443" fill="#222222" rx="6" ry="6" style="stroke:#111111;stroke-width:1.0;"/><polygon fill="#F1F1F1" points="389.5,2624.5576,512.5,2624.5576,524.5,2636.5576,512.5,2648.5576,389.5,2648.5576,377.5,2636.5576,389.5,2624.5576" style="stroke:#181818;stroke-width:0.5;"/><text fill="#000000" font-family="sans-serif" font-size="11" lengthAdjust="spacing" textLength="20" x="455" y="2658.7681">yes</text><text fill="#000000" font-family="sans-serif" font-size="11" lengthAdjust="spacing" textLength="123" x="389.5" y="2640.3657">state.outputUsed==0</text><rect fill="#F1F1F1" height="33.9688" rx="12.5" ry="12.5" style="stroke:#181818;stroke-width:0.5;" width="239" x="331.5" y="2799.4443"/><text fill="#000000" font-family="sans-serif" font-size="12" lengthAdjust="spacing" textLength="219" x="341.5" y="2820.583">return state.outputUsed+copyLen;</text><ellipse cx="451" cy="2864.4131" fill="none" rx="11" ry="11" style="stroke:#222222;stroke-width:1.0;"/><ellipse cx="451" cy="2864.4131" fill="#222222" rx="6" ry="6" style="stroke:#111111;stroke-width:1.0;"/><rect fill="#F1F1F1" height="47.9375" rx="12.5" ry="12.5" style="stroke:#181818;stroke-width:0.5;" width="360" x="590.5" y="2338.7451"/><text fill="#000000" font-family="sans-serif" font-size="12" lengthAdjust="spacing" textLength="340" x="600.5" y="2359.8838">throw new IOException("Brotli stream decoding failed",</text><text fill="#000000" font-family="sans-serif" font-size="12" lengthAdjust="spacing" textLength="23" x="600.5" y="2373.8525">ex);</text><ellipse cx="770.5" cy="2431.6514" fill="none" rx="11" ry="11" style="stroke:#222222;stroke-width:1.0;"/><ellipse cx="770.5" cy="2431.6514" fill="#222222" rx="6" ry="6" style="stroke:#111111;stroke-width:1.0;"/><ellipse cx="643.5" cy="2895.4131" fill="none" rx="10" ry="10" style="stroke:#222222;stroke-width:1.5;"/><line style="stroke:#222222;stroke-width:2.5;" x1="637.3128" x2="649.6872" y1="2889.2259" y2="2901.6003"/><line style="stroke:#222222;stroke-width:2.5;" x1="649.6872" x2="637.3128" y1="2889.2259" y2="2901.6003"/><line style="stroke:#181818;stroke-width:1.0;" x1="643.5" x2="643.5" y1="32.5664" y2="55.1328"/><polygon fill="#181818" points="639.5,45.1328,643.5,55.1328,647.5,45.1328,643.5,49.1328" style="stroke:#181818;stroke-width:1.0;"/><line style="stroke:#181818;stroke-width:1.0;" x1="643.5" x2="643.5" y1="89.1016" y2="109.1016"/><polygon fill="#181818" points="639.5,99.1016,643.5,109.1016,647.5,99.1016,643.5,103.1016" style="stroke:#181818;stroke-width:1.0;"/><line style="stroke:#181818;stroke-width:1.0;" x1="432" x2="432" y1="303.0151" y2="336.9839"/><polygon fill="#181818" points="428,326.9839,432,336.9839,436,326.9839,432,330.9839" style="stroke:#181818;stroke-width:1.0;"/><line style="stroke:#181818;stroke-width:1.0;" x1="812" x2="812" y1="289.0464" y2="323.0151"/><polygon fill="#181818" points="808,313.0151,812,323.0151,816,313.0151,812,317.0151" style="stroke:#181818;stroke-width:1.0;"/><line style="stroke:#181818;stroke-width:1.0;" x1="432" x2="432" y1="223.3672" y2="255.0776"/><polygon fill="#181818" points="428,245.0776,432,255.0776,436,245.0776,432,249.0776" style="stroke:#181818;stroke-width:1.0;"/><line style="stroke:#181818;stroke-width:1.0;" x1="812" x2="812" y1="223.3672" y2="255.0776"/><polygon fill="#181818" points="808,245.0776,812,255.0776,816,245.0776,812,249.0776" style="stroke:#181818;stroke-width:1.0;"/><line style="stroke:#181818;stroke-width:1.0;" x1="511.5" x2="759.5" y1="211.3672" y2="211.3672"/><polygon fill="#181818" points="749.5,207.3672,759.5,211.3672,749.5,215.3672,753.5,211.3672" style="stroke:#181818;stroke-width:1.0;"/><line style="stroke:#181818;stroke-width:1.0;" x1="643.5" x2="643.5" y1="169.2344" y2="184.3672"/><line style="stroke:#181818;stroke-width:1.0;" x1="643.5" x2="432" y1="184.3672" y2="184.3672"/><line style="stroke:#181818;stroke-width:1.0;" x1="432" x2="432" y1="184.3672" y2="199.3672"/><polygon fill="#181818" points="428,189.3672,432,199.3672,436,189.3672,432,193.3672" style="stroke:#181818;stroke-width:1.0;"/><line style="stroke:#181818;stroke-width:1.0;" x1="864.5" x2="1023.5" y1="211.3672" y2="211.3672"/><line style="stroke:#181818;stroke-width:1.0;" x1="1023.5" x2="1023.5" y1="211.3672" y2="363.9839"/><line style="stroke:#181818;stroke-width:1.0;" x1="1023.5" x2="643.5" y1="363.9839" y2="363.9839"/><line style="stroke:#181818;stroke-width:1.0;" x1="643.5" x2="643.5" y1="363.9839" y2="378.9839"/><polygon fill="#181818" points="639.5,368.9839,643.5,378.9839,647.5,368.9839,643.5,372.9839" style="stroke:#181818;stroke-width:1.0;"/><line style="stroke:#181818;stroke-width:1.0;" x1="643.5" x2="643.5" y1="412.9526" y2="432.9526"/><polygon fill="#181818" points="639.5,422.9526,643.5,432.9526,647.5,422.9526,643.5,426.9526" style="stroke:#181818;stroke-width:1.0;"/><line style="stroke:#181818;stroke-width:1.0;" x1="643.5" x2="643.5" y1="466.9214" y2="486.9214"/><polygon fill="#181818" points="639.5,476.9214,643.5,486.9214,647.5,476.9214,643.5,480.9214" style="stroke:#181818;stroke-width:1.0;"/><line style="stroke:#181818;stroke-width:1.0;" x1="763" x2="763" y1="648.437" y2="668.437"/><polygon fill="#181818" points="759,658.437,763,668.437,767,658.437,763,662.437" style="stroke:#181818;stroke-width:1.0;"/><line style="stroke:#181818;stroke-width:1.0;" x1="590.5" x2="442" y1="552.8901" y2="552.8901"/><line style="stroke:#181818;stroke-width:1.0;" x1="442" x2="442" y1="552.8901" y2="600.4995"/><polygon fill="#181818" points="438,590.4995,442,600.4995,446,590.4995,442,594.4995" style="stroke:#181818;stroke-width:1.0;"/><text fill="#000000" font-family="sans-serif" font-size="11" lengthAdjust="spacing" textLength="15" x="442" y="580.5029">try</text><line style="stroke:#181818;stroke-width:1.0;" x1="696.5" x2="763" y1="552.8901" y2="552.8901"/><line style="stroke:#181818;stroke-width:1.0;" x1="763" x2="763" y1="552.8901" y2="600.4995"/><polygon fill="#181818" points="759,590.4995,763,600.4995,767,590.4995,763,594.4995" style="stroke:#181818;stroke-width:1.0;"/><text fill="#000000" font-family="sans-serif" font-size="11" lengthAdjust="spacing" textLength="185" x="763" y="580.5029">catch (BrotliRuntimeExceptionex)</text><line style="stroke:#181818;stroke-width:1.0;" x1="442" x2="442" y1="634.4683" y2="712.437"/><line style="stroke:#181818;stroke-width:1.0;" x1="442" x2="631.5" y1="712.437" y2="712.437"/><polygon fill="#181818" points="621.5,708.437,631.5,712.437,621.5,716.437,625.5,712.437" style="stroke:#181818;stroke-width:1.0;"/><line style="stroke:#181818;stroke-width:1.0;" x1="643.5" x2="643.5" y1="520.8901" y2="540.8901"/><polygon fill="#181818" points="639.5,530.8901,643.5,540.8901,647.5,530.8901,643.5,534.8901" style="stroke:#181818;stroke-width:1.0;"/><line style="stroke:#181818;stroke-width:1.0;" x1="643.5" x2="643.5" y1="724.437" y2="744.437"/><polygon fill="#181818" points="639.5,734.437,643.5,744.437,647.5,734.437,643.5,738.437" style="stroke:#181818;stroke-width:1.0;"/><line style="stroke:#181818;stroke-width:1.0;" x1="643.5" x2="643.5" y1="797.0034" y2="819.5698"/><polygon fill="#181818" points="639.5,809.5698,643.5,819.5698,647.5,809.5698,643.5,813.5698" style="stroke:#181818;stroke-width:1.0;"/><line style="stroke:#181818;stroke-width:1.0;" x1="643.5" x2="643.5" y1="853.5386" y2="873.5386"/><polygon fill="#181818" points="639.5,863.5386,643.5,873.5386,647.5,863.5386,643.5,867.5386" style="stroke:#181818;stroke-width:1.0;"/><line style="stroke:#181818;stroke-width:1.0;" x1="643.5" x2="643.5" y1="1031.0425" y2="1051.0425"/><polygon fill="#181818" points="639.5,1041.0425,643.5,1051.0425,647.5,1041.0425,643.5,1045.0425" style="stroke:#181818;stroke-width:1.0;"/><line style="stroke:#181818;stroke-width:1.0;" x1="643.5" x2="643.5" y1="1187.3823" y2="1215.8979"/><polygon fill="#181818" points="639.5,1205.8979,643.5,1215.8979,647.5,1205.8979,643.5,1209.8979" style="stroke:#181818;stroke-width:1.0;"/><line style="stroke:#181818;stroke-width:1.0;" x1="643.5" x2="643.5" y1="1129.0112" y2="1153.4136"/><polygon fill="#181818" points="639.5,1143.4136,643.5,1153.4136,647.5,1143.4136,643.5,1147.4136" style="stroke:#181818;stroke-width:1.0;"/><line style="stroke:#181818;stroke-width:1.0;" x1="732" x2="744" y1="1117.0112" y2="1117.0112"/><polygon fill="#181818" points="740,1185.8979,744,1195.8979,748,1185.8979,744,1189.8979" style="stroke:#181818;stroke-width:1.0;"/><line style="stroke:#181818;stroke-width:1.0;" x1="744" x2="744" y1="1117.0112" y2="1259.8979"/><line style="stroke:#181818;stroke-width:1.0;" x1="744" x2="643.5" y1="1259.8979" y2="1259.8979"/><line style="stroke:#181818;stroke-width:1.0;" x1="643.5" x2="643.5" y1="1259.8979" y2="1279.8979"/><polygon fill="#181818" points="639.5,1269.8979,643.5,1279.8979,647.5,1269.8979,643.5,1273.8979" style="stroke:#181818;stroke-width:1.0;"/><line style="stroke:#181818;stroke-width:1.0;" x1="643.5" x2="643.5" y1="1085.0112" y2="1105.0112"/><polygon fill="#181818" points="639.5,1095.0112,643.5,1105.0112,647.5,1095.0112,643.5,1099.0112" style="stroke:#181818;stroke-width:1.0;"/><line style="stroke:#181818;stroke-width:1.0;" x1="643.5" x2="643.5" y1="972.6714" y2="997.0737"/><polygon fill="#181818" points="639.5,987.0737,643.5,997.0737,647.5,987.0737,643.5,991.0737" style="stroke:#181818;stroke-width:1.0;"/><line style="stroke:#181818;stroke-width:1.0;" x1="761" x2="823.5" y1="960.6714" y2="960.6714"/><polygon fill="#181818" points="819.5,1110.9292,823.5,1120.9292,827.5,1110.9292,823.5,1114.9292" style="stroke:#181818;stroke-width:1.0;"/><line style="stroke:#181818;stroke-width:1.0;" x1="823.5" x2="823.5" y1="960.6714" y2="1291.8979"/><line style="stroke:#181818;stroke-width:1.0;" x1="823.5" x2="655.5" y1="1291.8979" y2="1291.8979"/><polygon fill="#181818" points="665.5,1287.8979,655.5,1291.8979,665.5,1295.8979,661.5,1291.8979" style="stroke:#181818;stroke-width:1.0;"/><line style="stroke:#181818;stroke-width:1.0;" x1="643.5" x2="643.5" y1="926.105" y2="948.6714"/><polygon fill="#181818" points="639.5,938.6714,643.5,948.6714,647.5,938.6714,643.5,942.6714" style="stroke:#181818;stroke-width:1.0;"/><line style="stroke:#181818;stroke-width:1.0;" x1="643.5" x2="643.5" y1="1303.8979" y2="1323.8979"/><polygon fill="#181818" points="639.5,1313.8979,643.5,1323.8979,647.5,1313.8979,643.5,1317.8979" style="stroke:#181818;stroke-width:1.0;"/><line style="stroke:#181818;stroke-width:1.0;" x1="643.5" x2="643.5" y1="1357.8667" y2="1377.8667"/><polygon fill="#181818" points="639.5,1367.8667,643.5,1377.8667,647.5,1367.8667,643.5,1371.8667" style="stroke:#181818;stroke-width:1.0;"/><line style="stroke:#181818;stroke-width:1.0;" x1="182.5" x2="182.5" y1="1588.6475" y2="1622.6162"/><polygon fill="#181818" points="178.5,1612.6162,182.5,1622.6162,186.5,1612.6162,182.5,1616.6162" style="stroke:#181818;stroke-width:1.0;"/><line style="stroke:#181818;stroke-width:1.0;" x1="547.5" x2="547.5" y1="1588.6475" y2="1622.6162"/><polygon fill="#181818" points="543.5,1612.6162,547.5,1622.6162,551.5,1612.6162,547.5,1616.6162" style="stroke:#181818;stroke-width:1.0;"/><line style="stroke:#181818;stroke-width:1.0;" x1="926.5" x2="926.5" y1="1588.6475" y2="1622.6162"/><polygon fill="#181818" points="922.5,1612.6162,926.5,1622.6162,930.5,1612.6162,926.5,1616.6162" style="stroke:#181818;stroke-width:1.0;"/><line style="stroke:#181818;stroke-width:1.0;" x1="1179" x2="1179" y1="1574.6787" y2="1608.6475"/><polygon fill="#181818" points="1175,1598.6475,1179,1608.6475,1183,1598.6475,1179,1602.6475" style="stroke:#181818;stroke-width:1.0;"/><line style="stroke:#181818;stroke-width:1.0;" x1="182.5" x2="182.5" y1="1508.9995" y2="1540.71"/><polygon fill="#181818" points="178.5,1530.71,182.5,1540.71,186.5,1530.71,182.5,1534.71" style="stroke:#181818;stroke-width:1.0;"/><line style="stroke:#181818;stroke-width:1.0;" x1="547.5" x2="547.5" y1="1508.9995" y2="1540.71"/><polygon fill="#181818" points="543.5,1530.71,547.5,1540.71,551.5,1530.71,547.5,1534.71" style="stroke:#181818;stroke-width:1.0;"/><line style="stroke:#181818;stroke-width:1.0;" x1="926.5" x2="926.5" y1="1508.9995" y2="1540.71"/><polygon fill="#181818" points="922.5,1530.71,926.5,1540.71,930.5,1530.71,926.5,1534.71" style="stroke:#181818;stroke-width:1.0;"/><line style="stroke:#181818;stroke-width:1.0;" x1="1179" x2="1179" y1="1508.9995" y2="1540.71"/><polygon fill="#181818" points="1175,1530.71,1179,1540.71,1183,1530.71,1179,1534.71" style="stroke:#181818;stroke-width:1.0;"/><line style="stroke:#181818;stroke-width:1.0;" x1="232.5" x2="505" y1="1496.9995" y2="1496.9995"/><polygon fill="#181818" points="495,1492.9995,505,1496.9995,495,1500.9995,499,1496.9995" style="stroke:#181818;stroke-width:1.0;"/><line style="stroke:#181818;stroke-width:1.0;" x1="590" x2="803.5" y1="1496.9995" y2="1496.9995"/><polygon fill="#181818" points="793.5,1492.9995,803.5,1496.9995,793.5,1500.9995,797.5,1496.9995" style="stroke:#181818;stroke-width:1.0;"/><line style="stroke:#181818;stroke-width:1.0;" x1="1049.5" x2="1132" y1="1496.9995" y2="1496.9995"/><polygon fill="#181818" points="1122,1492.9995,1132,1496.9995,1122,1500.9995,1126,1496.9995" style="stroke:#181818;stroke-width:1.0;"/><line style="stroke:#181818;stroke-width:1.0;" x1="643.5" x2="643.5" y1="1462.4331" y2="1469.9995"/><line style="stroke:#181818;stroke-width:1.0;" x1="643.5" x2="182.5" y1="1469.9995" y2="1469.9995"/><line style="stroke:#181818;stroke-width:1.0;" x1="182.5" x2="182.5" y1="1469.9995" y2="1484.9995"/><polygon fill="#181818" points="178.5,1474.9995,182.5,1484.9995,186.5,1474.9995,182.5,1478.9995" style="stroke:#181818;stroke-width:1.0;"/><line style="stroke:#181818;stroke-width:1.0;" x1="1226" x2="1261" y1="1496.9995" y2="1496.9995"/><line style="stroke:#181818;stroke-width:1.0;" x1="1261" x2="1261" y1="1496.9995" y2="1649.6162"/><line style="stroke:#181818;stroke-width:1.0;" x1="1261" x2="643.5" y1="1649.6162" y2="1649.6162"/><line style="stroke:#181818;stroke-width:1.0;" x1="643.5" x2="643.5" y1="1649.6162" y2="1664.6162"/><polygon fill="#181818" points="639.5,1654.6162,643.5,1664.6162,647.5,1654.6162,643.5,1658.6162" style="stroke:#181818;stroke-width:1.0;"/><line style="stroke:#181818;stroke-width:1.0;" x1="643.5" x2="643.5" y1="1800.9561" y2="1820.9561"/><polygon fill="#181818" points="639.5,1810.9561,643.5,1820.9561,647.5,1810.9561,643.5,1814.9561" style="stroke:#181818;stroke-width:1.0;"/><line style="stroke:#181818;stroke-width:1.0;" x1="643.5" x2="643.5" y1="1868.8936" y2="1888.8936"/><polygon fill="#181818" points="639.5,1878.8936,643.5,1888.8936,647.5,1878.8936,643.5,1882.8936" style="stroke:#181818;stroke-width:1.0;"/><line style="stroke:#181818;stroke-width:1.0;" x1="643.5" x2="643.5" y1="1922.8623" y2="1942.8623"/><polygon fill="#181818" points="639.5,1932.8623,643.5,1942.8623,647.5,1932.8623,643.5,1936.8623" style="stroke:#181818;stroke-width:1.0;"/><line style="stroke:#181818;stroke-width:1.0;" x1="643.5" x2="643.5" y1="1976.8311" y2="2006.2803"/><polygon fill="#181818" points="639.5,1996.2803,643.5,2006.2803,647.5,1996.2803,643.5,2000.2803" style="stroke:#181818;stroke-width:1.0;"/><line style="stroke:#181818;stroke-width:1.0;" x1="643.5" x2="643.5" y1="2142.6201" y2="2171.1357"/><polygon fill="#181818" points="639.5,2161.1357,643.5,2171.1357,647.5,2161.1357,643.5,2165.1357" style="stroke:#181818;stroke-width:1.0;"/><line style="stroke:#181818;stroke-width:1.0;" x1="643.5" x2="643.5" y1="2084.249" y2="2108.6514"/><polygon fill="#181818" points="639.5,2098.6514,643.5,2108.6514,647.5,2098.6514,643.5,2102.6514" style="stroke:#181818;stroke-width:1.0;"/><line style="stroke:#181818;stroke-width:1.0;" x1="690.5" x2="712.5" y1="2072.249" y2="2072.249"/><polygon fill="#181818" points="708.5,2141.1357,712.5,2151.1357,716.5,2141.1357,712.5,2145.1357" style="stroke:#181818;stroke-width:1.0;"/><line style="stroke:#181818;stroke-width:1.0;" x1="712.5" x2="712.5" y1="2072.249" y2="2215.1357"/><line style="stroke:#181818;stroke-width:1.0;" x1="712.5" x2="643.5" y1="2215.1357" y2="2215.1357"/><line style="stroke:#181818;stroke-width:1.0;" x1="643.5" x2="643.5" y1="2215.1357" y2="2235.1357"/><polygon fill="#181818" points="639.5,2225.1357,643.5,2235.1357,647.5,2225.1357,643.5,2229.1357" style="stroke:#181818;stroke-width:1.0;"/><line style="stroke:#181818;stroke-width:1.0;" x1="643.5" x2="643.5" y1="2040.249" y2="2060.249"/><polygon fill="#181818" points="639.5,2050.249,643.5,2060.249,647.5,2050.249,643.5,2054.249" style="stroke:#181818;stroke-width:1.0;"/><line style="stroke:#181818;stroke-width:1.0;" x1="643.5" x2="643.5" y1="1742.585" y2="1766.9873"/><polygon fill="#181818" points="639.5,1756.9873,643.5,1766.9873,647.5,1756.9873,643.5,1760.9873" style="stroke:#181818;stroke-width:1.0;"/><line style="stroke:#181818;stroke-width:1.0;" x1="688" x2="815" y1="1730.585" y2="1730.585"/><polygon fill="#181818" points="811,1976.2803,815,1986.2803,819,1976.2803,815,1980.2803" style="stroke:#181818;stroke-width:1.0;"/><line style="stroke:#181818;stroke-width:1.0;" x1="815" x2="815" y1="1730.585" y2="2247.1357"/><line style="stroke:#181818;stroke-width:1.0;" x1="815" x2="655.5" y1="2247.1357" y2="2247.1357"/><polygon fill="#181818" points="665.5,2243.1357,655.5,2247.1357,665.5,2251.1357,661.5,2247.1357" style="stroke:#181818;stroke-width:1.0;"/><line style="stroke:#181818;stroke-width:1.0;" x1="643.5" x2="643.5" y1="1698.585" y2="1718.585"/><polygon fill="#181818" points="639.5,1708.585,643.5,1718.585,647.5,1708.585,643.5,1712.585" style="stroke:#181818;stroke-width:1.0;"/><line style="stroke:#181818;stroke-width:1.0;" x1="451" x2="451" y1="2372.7139" y2="2406.6826"/><polygon fill="#181818" points="447,2396.6826,451,2406.6826,455,2396.6826,451,2400.6826" style="stroke:#181818;stroke-width:1.0;"/><line style="stroke:#181818;stroke-width:1.0;" x1="451" x2="451" y1="2440.6514" y2="2462.6514"/><polygon fill="#181818" points="447,2452.6514,451,2462.6514,455,2452.6514,451,2456.6514" style="stroke:#181818;stroke-width:1.0;"/><line style="stroke:#181818;stroke-width:1.0;" x1="451" x2="451" y1="2496.6201" y2="2516.6201"/><polygon fill="#181818" points="447,2506.6201,451,2516.6201,455,2506.6201,451,2510.6201" style="stroke:#181818;stroke-width:1.0;"/><line style="stroke:#181818;stroke-width:1.0;" x1="451" x2="451" y1="2550.5889" y2="2570.5889"/><polygon fill="#181818" points="447,2560.5889,451,2570.5889,455,2560.5889,451,2564.5889" style="stroke:#181818;stroke-width:1.0;"/><line style="stroke:#181818;stroke-width:1.0;" x1="451" x2="451" y1="2706.9287" y2="2735.4443"/><polygon fill="#181818" points="447,2725.4443,451,2735.4443,455,2725.4443,451,2729.4443" style="stroke:#181818;stroke-width:1.0;"/><line style="stroke:#181818;stroke-width:1.0;" x1="451" x2="451" y1="2648.5576" y2="2672.96"/><polygon fill="#181818" points="447,2662.96,451,2672.96,455,2662.96,451,2666.96" style="stroke:#181818;stroke-width:1.0;"/><line style="stroke:#181818;stroke-width:1.0;" x1="524.5" x2="536.5" y1="2636.5576" y2="2636.5576"/><polygon fill="#181818" points="532.5,2705.4443,536.5,2715.4443,540.5,2705.4443,536.5,2709.4443" style="stroke:#181818;stroke-width:1.0;"/><line style="stroke:#181818;stroke-width:1.0;" x1="536.5" x2="536.5" y1="2636.5576" y2="2779.4443"/><line style="stroke:#181818;stroke-width:1.0;" x1="536.5" x2="451" y1="2779.4443" y2="2779.4443"/><line style="stroke:#181818;stroke-width:1.0;" x1="451" x2="451" y1="2779.4443" y2="2799.4443"/><polygon fill="#181818" points="447,2789.4443,451,2799.4443,455,2789.4443,451,2793.4443" style="stroke:#181818;stroke-width:1.0;"/><line style="stroke:#181818;stroke-width:1.0;" x1="451" x2="451" y1="2604.5576" y2="2624.5576"/><polygon fill="#181818" points="447,2614.5576,451,2624.5576,455,2614.5576,451,2618.5576" style="stroke:#181818;stroke-width:1.0;"/><line style="stroke:#181818;stroke-width:1.0;" x1="451" x2="451" y1="2833.4131" y2="2853.4131"/><polygon fill="#181818" points="447,2843.4131,451,2853.4131,455,2843.4131,451,2847.4131" style="stroke:#181818;stroke-width:1.0;"/><line style="stroke:#181818;stroke-width:1.0;" x1="770.5" x2="770.5" y1="2386.6826" y2="2420.6514"/><polygon fill="#181818" points="766.5,2410.6514,770.5,2420.6514,774.5,2410.6514,770.5,2414.6514" style="stroke:#181818;stroke-width:1.0;"/><line style="stroke:#181818;stroke-width:1.0;" x1="590.5" x2="451" y1="2291.1357" y2="2291.1357"/><line style="stroke:#181818;stroke-width:1.0;" x1="451" x2="451" y1="2291.1357" y2="2338.7451"/><polygon fill="#181818" points="447,2328.7451,451,2338.7451,455,2328.7451,451,2332.7451" style="stroke:#181818;stroke-width:1.0;"/><text fill="#000000" font-family="sans-serif" font-size="11" lengthAdjust="spacing" textLength="15" x="451" y="2318.7485">try</text><line style="stroke:#181818;stroke-width:1.0;" x1="696.5" x2="770.5" y1="2291.1357" y2="2291.1357"/><line style="stroke:#181818;stroke-width:1.0;" x1="770.5" x2="770.5" y1="2291.1357" y2="2338.7451"/><polygon fill="#181818" points="766.5,2328.7451,770.5,2338.7451,774.5,2328.7451,770.5,2332.7451" style="stroke:#181818;stroke-width:1.0;"/><text fill="#000000" font-family="sans-serif" font-size="11" lengthAdjust="spacing" textLength="185" x="770.5" y="2318.7485">catch (BrotliRuntimeExceptionex)</text><line style="stroke:#181818;stroke-width:1.0;" x1="643.5" x2="643.5" y1="2259.1357" y2="2279.1357"/><polygon fill="#181818" points="639.5,2269.1357,643.5,2279.1357,647.5,2269.1357,643.5,2273.1357" style="stroke:#181818;stroke-width:1.0;"/><!--MD5=[4a2d441078c73c09b6b37a6fa0a6378e]
@startuml
!pragma layout smetana
start
note right
constructor BrotliInputStream(InputStreamsource)
end note
:this(source,DEFAULT_INTERNAL_BUFFER_SIZE);;
end
start
note right
constructor BrotliInputStream(InputStreamsource,
intbyteReadBufferSize)
end note
if (byteReadBufferSize<=0) then (yes) 
:throw new IllegalArgumentException("Bad buffer size:"+
byteReadBufferSize);;
stop
else if (source==null ) then (yes) 
:throw new IllegalArgumentException("source is null");;
stop
endif 
:this.buffer=new byte[byteReadBufferSize];;
:this.remainingBufferBytes=0;;
:this.bufferOffset=0;;
switch (try/catch block)
case (try)
:Decode.initState(state,source);;
case (catch (BrotliRuntimeExceptionex))
:throw new IOException("Brotli decoder initialization failed",
ex);;
stop
endswitch
end
start
note right
void close()
end note
:Decode.close(state);;
end
start
note right
intread()
end note
if (bufferOffset>=remainingBufferBytes) then (yes) 
:remainingBufferBytes=read(buffer,0,buffer.length);;
:bufferOffset=0;;
if (remainingBufferBytes==-1) then (yes) 
:return -1;;
stop
endif 
endif 
:return buffer[bufferOffset++]&0xFF;;
stop
end
start
note right
intread(byte[]destBuffer,intdestOffset,intdestLen)
end note
if (destOffset<0) then (yes) 
:throw new IllegalArgumentException("Bad offset: "+
destOffset);;
stop
else if (destLen<0) then (yes) 
:throw new IllegalArgumentException("Bad length: "+
destLen);;
stop
else if (destOffset+destLen>destBuffer.length) then (yes) 
:throw new IllegalArgumentException("Buffer overflow: "+
(destOffset+destLen)+" > "+destBuffer.length);;
stop
else if (destLen==0) then (yes) 
:return 0;;
stop
endif 
:intcopyLen=Math.max(remainingBufferBytes-bufferOffset,0);;
if (copyLen!=0) then (yes) 
:copyLen=Math.min(copyLen,destLen);;
:System.arraycopy(buffer,bufferOffset,destBuffer,
destOffset,copyLen);;
:bufferOffset+=copyLen;;
:destOffset+=copyLen;;
:destLen-=copyLen;;
if (destLen==0) then (yes) 
:return copyLen;;
stop
endif 
endif 
switch (try/catch block)
case (try)
:state.output=destBuffer;;
:state.outputOffset=destOffset;;
:state.outputLength=destLen;;
:state.outputUsed=0;;
:Decode.decompress(state);;
if (state.outputUsed==0) then (yes) 
:return -1;;
stop
endif 
:return state.outputUsed+copyLen;;
stop
case (catch (BrotliRuntimeExceptionex))
:throw new IOException("Brotli stream decoding failed",
ex);;
stop
endswitch
end
@enduml

PlantUML version 1.2022.7(Mon Aug 22 17:01:30 UTC 2022)
(GPL source distribution)
Java Runtime: OpenJDK Runtime Environment
JVM: OpenJDK 64-Bit Server VM
Default Encoding: UTF-8
Language: en
Country: null
--></g></svg>