<?xml version="1.0" encoding="UTF-8" standalone="no"?><svg xmlns="http://www.w3.org/2000/svg" xmlns:xlink="http://www.w3.org/1999/xlink" contentStyleType="text/css" height="234px" preserveAspectRatio="none" style="width:376px;height:234px;background:#FFFFFF;" version="1.1" viewBox="0 0 376 234" width="376px" zoomAndPan="magnify"><defs/><g><!--MD5=[a88280bca7c0d510e2ce5047130d3ea1]
cluster net.sourceforge.plantuml.sequencediagram--><g id="cluster_net.sourceforge.plantuml.sequencediagram"><path d="M8.5,63 L356.5,63 A3.75,3.75 0 0 1 359,65.5 L366,85.2969 L366.5,85.2969 A2.5,2.5 0 0 1 369,87.7969 L369,224.5 A2.5,2.5 0 0 1 366.5,227 L8.5,227 A2.5,2.5 0 0 1 6,224.5 L6,65.5 A2.5,2.5 0 0 1 8.5,63 " fill="none" style="stroke:#000000;stroke-width:1.5;"/><line style="stroke:#000000;stroke-width:1.5;" x1="6" x2="366" y1="85.2969" y2="85.2969"/><text fill="#000000" font-family="sans-serif" font-size="14" font-weight="bold" lengthAdjust="spacing" textLength="347" x="10" y="77.9951">net.sourceforge.plantuml.sequencediagram</text></g><!--MD5=[817e5a70c6393d5f2dafdd1d81632e3c]
class AbstractEvent--><g id="elem_AbstractEvent"><rect fill="#F1F1F1" height="48" id="AbstractEvent" rx="2.5" ry="2.5" style="stroke:#181818;stroke-width:0.5;" width="128" x="123" y="6"/><ellipse cx="138" cy="22" fill="#ADD1B2" rx="11" ry="11" style="stroke:#181818;stroke-width:1.0;"/><path d="M140.9688,27.6406 Q140.3906,27.9375 139.75,28.0781 Q139.1094,28.2344 138.4063,28.2344 Q135.9063,28.2344 134.5781,26.5938 Q133.2656,24.9375 133.2656,21.8125 Q133.2656,18.6875 134.5781,17.0313 Q135.9063,15.375 138.4063,15.375 Q139.1094,15.375 139.75,15.5313 Q140.4063,15.6875 140.9688,15.9844 L140.9688,18.7031 Q140.3438,18.125 139.75,17.8594 Q139.1563,17.5781 138.5313,17.5781 Q137.1875,17.5781 136.5,18.6563 Q135.8125,19.7188 135.8125,21.8125 Q135.8125,23.9063 136.5,24.9844 Q137.1875,26.0469 138.5313,26.0469 Q139.1563,26.0469 139.75,25.7813 Q140.3438,25.5 140.9688,24.9219 L140.9688,27.6406 Z " fill="#000000"/><text fill="#000000" font-family="sans-serif" font-size="14" lengthAdjust="spacing" textLength="96" x="152" y="26.8467">AbstractEvent</text><line style="stroke:#181818;stroke-width:0.5;" x1="124" x2="250" y1="38" y2="38"/><line style="stroke:#181818;stroke-width:0.5;" x1="124" x2="250" y1="46" y2="46"/></g><!--MD5=[921f4557a6a729c2eb2e7a7a9b706f9c]
class net.sourceforge.plantuml.sequencediagram.Divider--><g id="elem_net.sourceforge.plantuml.sequencediagram.Divider"><rect codeLine="3" fill="#F1F1F1" height="129.4844" id="net.sourceforge.plantuml.sequencediagram.Divider" rx="2.5" ry="2.5" style="stroke:#181818;stroke-width:0.5;" width="307" x="33.5" y="90"/><ellipse cx="159.25" cy="106" fill="#ADD1B2" rx="11" ry="11" style="stroke:#181818;stroke-width:1.0;"/><path d="M162.2188,111.6406 Q161.6406,111.9375 161,112.0781 Q160.3594,112.2344 159.6563,112.2344 Q157.1563,112.2344 155.8281,110.5938 Q154.5156,108.9375 154.5156,105.8125 Q154.5156,102.6875 155.8281,101.0313 Q157.1563,99.375 159.6563,99.375 Q160.3594,99.375 161,99.5313 Q161.6563,99.6875 162.2188,99.9844 L162.2188,102.7031 Q161.5938,102.125 161,101.8594 Q160.4063,101.5781 159.7813,101.5781 Q158.4375,101.5781 157.75,102.6563 Q157.0625,103.7188 157.0625,105.8125 Q157.0625,107.9063 157.75,108.9844 Q158.4375,110.0469 159.7813,110.0469 Q160.4063,110.0469 161,109.7813 Q161.5938,109.5 162.2188,108.9219 L162.2188,111.6406 Z " fill="#000000"/><text fill="#000000" font-family="sans-serif" font-size="14" lengthAdjust="spacing" textLength="47" x="179.75" y="110.8467">Divider</text><line style="stroke:#181818;stroke-width:0.5;" x1="34.5" x2="339.5" y1="122" y2="122"/><line style="stroke:#181818;stroke-width:0.5;" x1="34.5" x2="339.5" y1="130" y2="130"/><a href="./../../../../../.././qc/src/net/sourceforge/plantuml/sequencediagram/Divider.java.html#51" target="_top" title="./../../../../../.././qc/src/net/sourceforge/plantuml/sequencediagram/Divider.java.html#51" xlink:actuate="onRequest" xlink:href="./../../../../../.././qc/src/net/sourceforge/plantuml/sequencediagram/Divider.java.html#51" xlink:show="new" xlink:title="./../../../../../.././qc/src/net/sourceforge/plantuml/sequencediagram/Divider.java.html#51" xlink:type="simple"><rect fill="#F1F1F1" height="10" style="stroke:none;stroke-width:1.0;" width="20" x="39.5" y="138.6484"/><ellipse cx="44.5" cy="143.6484" fill="#84BE84" rx="3" ry="3" style="stroke:#038048;stroke-width:1.0;"/></a><a href="./../../../../../.././qc/src/net/sourceforge/plantuml/sequencediagram/Divider.java.html#51" target="_top" title="./../../../../../.././qc/src/net/sourceforge/plantuml/sequencediagram/Divider.java.html#51" xlink:actuate="onRequest" xlink:href="./../../../../../.././qc/src/net/sourceforge/plantuml/sequencediagram/Divider.java.html#51" xlink:show="new" xlink:title="./../../../../../.././qc/src/net/sourceforge/plantuml/sequencediagram/Divider.java.html#51" xlink:type="simple"><text fill="#000000" font-family="sans-serif" font-size="14" lengthAdjust="spacing" textLength="281" x="53.5" y="146.9951">getStyleSignature() : StyleSignatureBasic</text></a><a href="./../../../../../.././qc/src/net/sourceforge/plantuml/sequencediagram/Divider.java.html#55" target="_top" title="./../../../../../.././qc/src/net/sourceforge/plantuml/sequencediagram/Divider.java.html#55" xlink:actuate="onRequest" xlink:href="./../../../../../.././qc/src/net/sourceforge/plantuml/sequencediagram/Divider.java.html#55" xlink:show="new" xlink:title="./../../../../../.././qc/src/net/sourceforge/plantuml/sequencediagram/Divider.java.html#55" xlink:type="simple"><rect fill="#F1F1F1" height="10" style="stroke:none;stroke-width:1.0;" width="20" x="39.5" y="154.9453"/><ellipse cx="44.5" cy="159.9453" fill="#84BE84" rx="3" ry="3" style="stroke:#038048;stroke-width:1.0;"/></a><a href="./../../../../../.././qc/src/net/sourceforge/plantuml/sequencediagram/Divider.java.html#55" target="_top" title="./../../../../../.././qc/src/net/sourceforge/plantuml/sequencediagram/Divider.java.html#55" xlink:actuate="onRequest" xlink:href="./../../../../../.././qc/src/net/sourceforge/plantuml/sequencediagram/Divider.java.html#55" xlink:show="new" xlink:title="./../../../../../.././qc/src/net/sourceforge/plantuml/sequencediagram/Divider.java.html#55" xlink:type="simple"><text fill="#000000" font-family="sans-serif" font-size="14" lengthAdjust="spacing" textLength="166" x="53.5" y="163.292">getUsedStyles() : Style[]</text></a><a href="./../../../../../.././qc/src/net/sourceforge/plantuml/sequencediagram/Divider.java.html#59" target="_top" title="./../../../../../.././qc/src/net/sourceforge/plantuml/sequencediagram/Divider.java.html#59" xlink:actuate="onRequest" xlink:href="./../../../../../.././qc/src/net/sourceforge/plantuml/sequencediagram/Divider.java.html#59" xlink:show="new" xlink:title="./../../../../../.././qc/src/net/sourceforge/plantuml/sequencediagram/Divider.java.html#59" xlink:type="simple"><rect fill="#F1F1F1" height="10" style="stroke:none;stroke-width:1.0;" width="20" x="39.5" y="171.2422"/><ellipse cx="44.5" cy="176.2422" fill="#84BE84" rx="3" ry="3" style="stroke:#038048;stroke-width:1.0;"/></a><a href="./../../../../../.././qc/src/net/sourceforge/plantuml/sequencediagram/Divider.java.html#59" target="_top" title="./../../../../../.././qc/src/net/sourceforge/plantuml/sequencediagram/Divider.java.html#59" xlink:actuate="onRequest" xlink:href="./../../../../../.././qc/src/net/sourceforge/plantuml/sequencediagram/Divider.java.html#59" xlink:show="new" xlink:title="./../../../../../.././qc/src/net/sourceforge/plantuml/sequencediagram/Divider.java.html#59" xlink:type="simple"><text fill="#000000" font-family="sans-serif" font-size="14" lengthAdjust="spacing" textLength="252" x="53.5" y="179.5889">Divider(Display;StyleBuilder) : Divider</text></a><a href="./../../../../../.././qc/src/net/sourceforge/plantuml/sequencediagram/Divider.java.html#64" target="_top" title="./../../../../../.././qc/src/net/sourceforge/plantuml/sequencediagram/Divider.java.html#64" xlink:actuate="onRequest" xlink:href="./../../../../../.././qc/src/net/sourceforge/plantuml/sequencediagram/Divider.java.html#64" xlink:show="new" xlink:title="./../../../../../.././qc/src/net/sourceforge/plantuml/sequencediagram/Divider.java.html#64" xlink:type="simple"><rect fill="#F1F1F1" height="10" style="stroke:none;stroke-width:1.0;" width="20" x="39.5" y="187.5391"/><ellipse cx="44.5" cy="192.5391" fill="#84BE84" rx="3" ry="3" style="stroke:#038048;stroke-width:1.0;"/></a><a href="./../../../../../.././qc/src/net/sourceforge/plantuml/sequencediagram/Divider.java.html#64" target="_top" title="./../../../../../.././qc/src/net/sourceforge/plantuml/sequencediagram/Divider.java.html#64" xlink:actuate="onRequest" xlink:href="./../../../../../.././qc/src/net/sourceforge/plantuml/sequencediagram/Divider.java.html#64" xlink:show="new" xlink:title="./../../../../../.././qc/src/net/sourceforge/plantuml/sequencediagram/Divider.java.html#64" xlink:type="simple"><text fill="#000000" font-family="sans-serif" font-size="14" lengthAdjust="spacing" textLength="125" x="53.5" y="195.8857">getText() : Display</text></a><a href="./../../../../../.././qc/src/net/sourceforge/plantuml/sequencediagram/Divider.java.html#68" target="_top" title="./../../../../../.././qc/src/net/sourceforge/plantuml/sequencediagram/Divider.java.html#68" xlink:actuate="onRequest" xlink:href="./../../../../../.././qc/src/net/sourceforge/plantuml/sequencediagram/Divider.java.html#68" xlink:show="new" xlink:title="./../../../../../.././qc/src/net/sourceforge/plantuml/sequencediagram/Divider.java.html#68" xlink:type="simple"><rect fill="#F1F1F1" height="10" style="stroke:none;stroke-width:1.0;" width="20" x="39.5" y="203.8359"/><ellipse cx="44.5" cy="208.8359" fill="#84BE84" rx="3" ry="3" style="stroke:#038048;stroke-width:1.0;"/></a><a href="./../../../../../.././qc/src/net/sourceforge/plantuml/sequencediagram/Divider.java.html#68" target="_top" title="./../../../../../.././qc/src/net/sourceforge/plantuml/sequencediagram/Divider.java.html#68" xlink:actuate="onRequest" xlink:href="./../../../../../.././qc/src/net/sourceforge/plantuml/sequencediagram/Divider.java.html#68" xlink:show="new" xlink:title="./../../../../../.././qc/src/net/sourceforge/plantuml/sequencediagram/Divider.java.html#68" xlink:type="simple"><text fill="#000000" font-family="sans-serif" font-size="14" lengthAdjust="spacing" textLength="210" x="53.5" y="212.1826">dealWith(Participant) : boolean</text></a></g><path d="M187,54.0413 C187,64.3681 187,77.1075 187,89.9808 " fill="none" style="stroke:#181818;stroke-width:1.0;"/><polygon fill="#FFFFFF" points="187,54.0413,181,70.0413,193,70.0413,187,54.0413" style="stroke:#181818;stroke-width:1.0;"/><!--MD5=[834690a8e0d67541ce26d15f3ce8072b]
@startuml
!pragma layout smetana
"AbstractEvent" <|- - "net.sourceforge.plantuml.sequencediagram.Divider"
class net.sourceforge.plantuml.sequencediagram.Divider {
+getStyleSignature() : StyleSignatureBasic [[[./../../../../../.././qc/src/net/sourceforge/plantuml/sequencediagram/Divider.java.html#51]]]
+getUsedStyles() : Style[] [[[./../../../../../.././qc/src/net/sourceforge/plantuml/sequencediagram/Divider.java.html#55]]]
+Divider(Display;StyleBuilder) : Divider [[[./../../../../../.././qc/src/net/sourceforge/plantuml/sequencediagram/Divider.java.html#59]]]
+getText() : Display [[[./../../../../../.././qc/src/net/sourceforge/plantuml/sequencediagram/Divider.java.html#64]]]
+dealWith(Participant) : boolean [[[./../../../../../.././qc/src/net/sourceforge/plantuml/sequencediagram/Divider.java.html#68]]]
} 
@enduml

PlantUML version 1.2022.7(Mon Aug 22 17:01:30 UTC 2022)
(GPL source distribution)
Java Runtime: OpenJDK Runtime Environment
JVM: OpenJDK 64-Bit Server VM
Default Encoding: UTF-8
Language: en
Country: null
--></g></svg>