<?xml version="1.0" encoding="UTF-8" standalone="no"?><svg xmlns="http://www.w3.org/2000/svg" xmlns:xlink="http://www.w3.org/1999/xlink" contentStyleType="text/css" height="323px" preserveAspectRatio="none" style="width:2330px;height:323px;background:#FFFFFF;" version="1.1" viewBox="0 0 2330 323" width="2330px" zoomAndPan="magnify"><defs/><g><path d="M1190.5,10 L1190.5,18.5664 L1170.5,22.5664 L1190.5,26.5664 L1190.5,35.1328 A0,0 0 0 0 1190.5,35.1328 L1405.5,35.1328 A0,0 0 0 0 1405.5,35.1328 L1405.5,20 L1395.5,10 L1190.5,10 A0,0 0 0 0 1190.5,10 " fill="#FEFFDD" style="stroke:#181818;stroke-width:0.5;"/><path d="M1395.5,10 L1395.5,20 L1405.5,20 L1395.5,10 " fill="#FEFFDD" style="stroke:#181818;stroke-width:0.5;"/><text fill="#000000" font-family="sans-serif" font-size="13" lengthAdjust="spacing" textLength="194" x="1196.5" y="27.0669">GroupingTypegetType(Strings)</text><ellipse cx="1160.5" cy="22.5664" fill="#222222" rx="10" ry="10" style="stroke:#222222;stroke-width:1.0;"/><polygon fill="#F1F1F1" points="33.5,55.1328,183.5,55.1328,195.5,67.1328,183.5,79.1328,33.5,79.1328,21.5,67.1328,33.5,55.1328" style="stroke:#181818;stroke-width:0.5;"/><text fill="#000000" font-family="sans-serif" font-size="11" lengthAdjust="spacing" textLength="20" x="112.5" y="89.3433">yes</text><text fill="#000000" font-family="sans-serif" font-size="11" lengthAdjust="spacing" textLength="150" x="33.5" y="70.9409">s.equalsIgnoreCase("opt")</text><rect fill="#F1F1F1" height="33.9688" rx="12.5" ry="12.5" style="stroke:#181818;stroke-width:0.5;" width="195" x="11" y="110.8433"/><text fill="#000000" font-family="sans-serif" font-size="12" lengthAdjust="spacing" textLength="175" x="21" y="131.9819">return GroupingType.START;</text><ellipse cx="108.5" cy="175.812" fill="none" rx="11" ry="11" style="stroke:#222222;stroke-width:1.0;"/><ellipse cx="108.5" cy="175.812" fill="#222222" rx="6" ry="6" style="stroke:#111111;stroke-width:1.0;"/><polygon fill="#F1F1F1" points="240.5,55.1328,386.5,55.1328,398.5,67.1328,386.5,79.1328,240.5,79.1328,228.5,67.1328,240.5,55.1328" style="stroke:#181818;stroke-width:0.5;"/><text fill="#000000" font-family="sans-serif" font-size="11" lengthAdjust="spacing" textLength="20" x="317.5" y="89.3433">yes</text><text fill="#000000" font-family="sans-serif" font-size="11" lengthAdjust="spacing" textLength="146" x="240.5" y="70.9409">s.equalsIgnoreCase("alt")</text><rect fill="#F1F1F1" height="33.9688" rx="12.5" ry="12.5" style="stroke:#181818;stroke-width:0.5;" width="195" x="216" y="110.8433"/><text fill="#000000" font-family="sans-serif" font-size="12" lengthAdjust="spacing" textLength="175" x="226" y="131.9819">return GroupingType.START;</text><ellipse cx="313.5" cy="175.812" fill="none" rx="11" ry="11" style="stroke:#222222;stroke-width:1.0;"/><ellipse cx="313.5" cy="175.812" fill="#222222" rx="6" ry="6" style="stroke:#111111;stroke-width:1.0;"/><polygon fill="#F1F1F1" points="443,55.1328,599,55.1328,611,67.1328,599,79.1328,443,79.1328,431,67.1328,443,55.1328" style="stroke:#181818;stroke-width:0.5;"/><text fill="#000000" font-family="sans-serif" font-size="11" lengthAdjust="spacing" textLength="20" x="525" y="89.3433">yes</text><text fill="#000000" font-family="sans-serif" font-size="11" lengthAdjust="spacing" textLength="156" x="443" y="70.9409">s.equalsIgnoreCase("loop")</text><rect fill="#F1F1F1" height="33.9688" rx="12.5" ry="12.5" style="stroke:#181818;stroke-width:0.5;" width="195" x="423.5" y="110.8433"/><text fill="#000000" font-family="sans-serif" font-size="12" lengthAdjust="spacing" textLength="175" x="433.5" y="131.9819">return GroupingType.START;</text><ellipse cx="521" cy="175.812" fill="none" rx="11" ry="11" style="stroke:#222222;stroke-width:1.0;"/><ellipse cx="521" cy="175.812" fill="#222222" rx="6" ry="6" style="stroke:#111111;stroke-width:1.0;"/><polygon fill="#F1F1F1" points="650.5,55.1328,801.5,55.1328,813.5,67.1328,801.5,79.1328,650.5,79.1328,638.5,67.1328,650.5,55.1328" style="stroke:#181818;stroke-width:0.5;"/><text fill="#000000" font-family="sans-serif" font-size="11" lengthAdjust="spacing" textLength="20" x="730" y="89.3433">yes</text><text fill="#000000" font-family="sans-serif" font-size="11" lengthAdjust="spacing" textLength="151" x="650.5" y="70.9409">s.equalsIgnoreCase("par")</text><rect fill="#F1F1F1" height="33.9688" rx="12.5" ry="12.5" style="stroke:#181818;stroke-width:0.5;" width="195" x="628.5" y="110.8433"/><text fill="#000000" font-family="sans-serif" font-size="12" lengthAdjust="spacing" textLength="175" x="638.5" y="131.9819">return GroupingType.START;</text><ellipse cx="726" cy="175.812" fill="none" rx="11" ry="11" style="stroke:#222222;stroke-width:1.0;"/><ellipse cx="726" cy="175.812" fill="#222222" rx="6" ry="6" style="stroke:#111111;stroke-width:1.0;"/><polygon fill="#F1F1F1" points="855.5,55.1328,1013.5,55.1328,1025.5,67.1328,1013.5,79.1328,855.5,79.1328,843.5,67.1328,855.5,55.1328" style="stroke:#181818;stroke-width:0.5;"/><text fill="#000000" font-family="sans-serif" font-size="11" lengthAdjust="spacing" textLength="20" x="938.5" y="89.3433">yes</text><text fill="#000000" font-family="sans-serif" font-size="11" lengthAdjust="spacing" textLength="158" x="855.5" y="70.9409">s.equalsIgnoreCase("par2")</text><rect fill="#F1F1F1" height="33.9688" rx="12.5" ry="12.5" style="stroke:#181818;stroke-width:0.5;" width="195" x="837" y="110.8433"/><text fill="#000000" font-family="sans-serif" font-size="12" lengthAdjust="spacing" textLength="175" x="847" y="131.9819">return GroupingType.START;</text><ellipse cx="934.5" cy="175.812" fill="none" rx="11" ry="11" style="stroke:#222222;stroke-width:1.0;"/><ellipse cx="934.5" cy="175.812" fill="#222222" rx="6" ry="6" style="stroke:#111111;stroke-width:1.0;"/><polygon fill="#F1F1F1" points="1067.5,55.1328,1231.5,55.1328,1243.5,67.1328,1231.5,79.1328,1067.5,79.1328,1055.5,67.1328,1067.5,55.1328" style="stroke:#181818;stroke-width:0.5;"/><text fill="#000000" font-family="sans-serif" font-size="11" lengthAdjust="spacing" textLength="20" x="1153.5" y="89.3433">yes</text><text fill="#000000" font-family="sans-serif" font-size="11" lengthAdjust="spacing" textLength="164" x="1067.5" y="70.9409">s.equalsIgnoreCase("break")</text><rect fill="#F1F1F1" height="33.9688" rx="12.5" ry="12.5" style="stroke:#181818;stroke-width:0.5;" width="195" x="1052" y="110.8433"/><text fill="#000000" font-family="sans-serif" font-size="12" lengthAdjust="spacing" textLength="175" x="1062" y="131.9819">return GroupingType.START;</text><ellipse cx="1149.5" cy="175.812" fill="none" rx="11" ry="11" style="stroke:#222222;stroke-width:1.0;"/><ellipse cx="1149.5" cy="175.812" fill="#222222" rx="6" ry="6" style="stroke:#111111;stroke-width:1.0;"/><polygon fill="#F1F1F1" points="1282,55.1328,1447,55.1328,1459,67.1328,1447,79.1328,1282,79.1328,1270,67.1328,1282,55.1328" style="stroke:#181818;stroke-width:0.5;"/><text fill="#000000" font-family="sans-serif" font-size="11" lengthAdjust="spacing" textLength="20" x="1368.5" y="89.3433">yes</text><text fill="#000000" font-family="sans-serif" font-size="11" lengthAdjust="spacing" textLength="165" x="1282" y="70.9409">s.equalsIgnoreCase("group")</text><rect fill="#F1F1F1" height="33.9688" rx="12.5" ry="12.5" style="stroke:#181818;stroke-width:0.5;" width="195" x="1267" y="110.8433"/><text fill="#000000" font-family="sans-serif" font-size="12" lengthAdjust="spacing" textLength="175" x="1277" y="131.9819">return GroupingType.START;</text><ellipse cx="1364.5" cy="175.812" fill="none" rx="11" ry="11" style="stroke:#222222;stroke-width:1.0;"/><ellipse cx="1364.5" cy="175.812" fill="#222222" rx="6" ry="6" style="stroke:#111111;stroke-width:1.0;"/><polygon fill="#F1F1F1" points="1494,55.1328,1663,55.1328,1675,67.1328,1663,79.1328,1494,79.1328,1482,67.1328,1494,55.1328" style="stroke:#181818;stroke-width:0.5;"/><text fill="#000000" font-family="sans-serif" font-size="11" lengthAdjust="spacing" textLength="20" x="1582.5" y="89.3433">yes</text><text fill="#000000" font-family="sans-serif" font-size="11" lengthAdjust="spacing" textLength="169" x="1494" y="70.9409">s.equalsIgnoreCase("critical")</text><rect fill="#F1F1F1" height="33.9688" rx="12.5" ry="12.5" style="stroke:#181818;stroke-width:0.5;" width="195" x="1481" y="110.8433"/><text fill="#000000" font-family="sans-serif" font-size="12" lengthAdjust="spacing" textLength="175" x="1491" y="131.9819">return GroupingType.START;</text><ellipse cx="1578.5" cy="175.812" fill="none" rx="11" ry="11" style="stroke:#222222;stroke-width:1.0;"/><ellipse cx="1578.5" cy="175.812" fill="#222222" rx="6" ry="6" style="stroke:#111111;stroke-width:1.0;"/><polygon fill="#F1F1F1" points="1708,55.1328,1864,55.1328,1876,67.1328,1864,79.1328,1708,79.1328,1696,67.1328,1708,55.1328" style="stroke:#181818;stroke-width:0.5;"/><text fill="#000000" font-family="sans-serif" font-size="11" lengthAdjust="spacing" textLength="20" x="1790" y="89.3433">yes</text><text fill="#000000" font-family="sans-serif" font-size="11" lengthAdjust="spacing" textLength="156" x="1708" y="70.9409">s.equalsIgnoreCase("also")</text><rect fill="#F1F1F1" height="33.9688" rx="12.5" ry="12.5" style="stroke:#181818;stroke-width:0.5;" width="187" x="1692.5" y="110.8433"/><text fill="#000000" font-family="sans-serif" font-size="12" lengthAdjust="spacing" textLength="167" x="1702.5" y="131.9819">return GroupingType.ELSE;</text><ellipse cx="1786" cy="175.812" fill="none" rx="11" ry="11" style="stroke:#222222;stroke-width:1.0;"/><ellipse cx="1786" cy="175.812" fill="#222222" rx="6" ry="6" style="stroke:#111111;stroke-width:1.0;"/><polygon fill="#F1F1F1" points="1911.5,55.1328,2067.5,55.1328,2079.5,67.1328,2067.5,79.1328,1911.5,79.1328,1899.5,67.1328,1911.5,55.1328" style="stroke:#181818;stroke-width:0.5;"/><text fill="#000000" font-family="sans-serif" font-size="11" lengthAdjust="spacing" textLength="20" x="1993.5" y="89.3433">yes</text><text fill="#000000" font-family="sans-serif" font-size="11" lengthAdjust="spacing" textLength="156" x="1911.5" y="70.9409">s.equalsIgnoreCase("else")</text><rect fill="#F1F1F1" height="33.9688" rx="12.5" ry="12.5" style="stroke:#181818;stroke-width:0.5;" width="187" x="1896" y="110.8433"/><text fill="#000000" font-family="sans-serif" font-size="12" lengthAdjust="spacing" textLength="167" x="1906" y="131.9819">return GroupingType.ELSE;</text><ellipse cx="1989.5" cy="175.812" fill="none" rx="11" ry="11" style="stroke:#222222;stroke-width:1.0;"/><ellipse cx="1989.5" cy="175.812" fill="#222222" rx="6" ry="6" style="stroke:#111111;stroke-width:1.0;"/><polygon fill="#F1F1F1" points="2115,55.1328,2268,55.1328,2280,67.1328,2268,79.1328,2115,79.1328,2103,67.1328,2115,55.1328" style="stroke:#181818;stroke-width:0.5;"/><text fill="#000000" font-family="sans-serif" font-size="11" lengthAdjust="spacing" textLength="20" x="2195.5" y="89.3433">yes</text><text fill="#000000" font-family="sans-serif" font-size="11" lengthAdjust="spacing" textLength="153" x="2115" y="70.9409">s.equalsIgnoreCase("end")</text><rect fill="#F1F1F1" height="33.9688" rx="12.5" ry="12.5" style="stroke:#181818;stroke-width:0.5;" width="183" x="2100" y="110.8433"/><text fill="#000000" font-family="sans-serif" font-size="12" lengthAdjust="spacing" textLength="163" x="2110" y="131.9819">return GroupingType.END;</text><ellipse cx="2191.5" cy="175.812" fill="none" rx="11" ry="11" style="stroke:#222222;stroke-width:1.0;"/><ellipse cx="2191.5" cy="175.812" fill="#222222" rx="6" ry="6" style="stroke:#111111;stroke-width:1.0;"/><rect fill="#F1F1F1" height="33.9688" rx="12.5" ry="12.5" style="stroke:#181818;stroke-width:0.5;" width="260" x="1030.5" y="206.812"/><text fill="#000000" font-family="sans-serif" font-size="12" lengthAdjust="spacing" textLength="240" x="1040.5" y="227.9507">throw new IllegalArgumentException();</text><ellipse cx="1160.5" cy="271.7808" fill="none" rx="11" ry="11" style="stroke:#222222;stroke-width:1.0;"/><ellipse cx="1160.5" cy="271.7808" fill="#222222" rx="6" ry="6" style="stroke:#111111;stroke-width:1.0;"/><ellipse cx="1160.5" cy="302.7808" fill="none" rx="10" ry="10" style="stroke:#222222;stroke-width:1.5;"/><line style="stroke:#222222;stroke-width:2.5;" x1="1154.3128" x2="1166.6872" y1="296.5936" y2="308.9679"/><line style="stroke:#222222;stroke-width:2.5;" x1="1166.6872" x2="1154.3128" y1="296.5936" y2="308.9679"/><line style="stroke:#181818;stroke-width:1.0;" x1="108.5" x2="108.5" y1="144.812" y2="164.812"/><polygon fill="#181818" points="104.5,154.812,108.5,164.812,112.5,154.812,108.5,158.812" style="stroke:#181818;stroke-width:1.0;"/><line style="stroke:#181818;stroke-width:1.0;" x1="313.5" x2="313.5" y1="144.812" y2="164.812"/><polygon fill="#181818" points="309.5,154.812,313.5,164.812,317.5,154.812,313.5,158.812" style="stroke:#181818;stroke-width:1.0;"/><line style="stroke:#181818;stroke-width:1.0;" x1="521" x2="521" y1="144.812" y2="164.812"/><polygon fill="#181818" points="517,154.812,521,164.812,525,154.812,521,158.812" style="stroke:#181818;stroke-width:1.0;"/><line style="stroke:#181818;stroke-width:1.0;" x1="726" x2="726" y1="144.812" y2="164.812"/><polygon fill="#181818" points="722,154.812,726,164.812,730,154.812,726,158.812" style="stroke:#181818;stroke-width:1.0;"/><line style="stroke:#181818;stroke-width:1.0;" x1="934.5" x2="934.5" y1="144.812" y2="164.812"/><polygon fill="#181818" points="930.5,154.812,934.5,164.812,938.5,154.812,934.5,158.812" style="stroke:#181818;stroke-width:1.0;"/><line style="stroke:#181818;stroke-width:1.0;" x1="1149.5" x2="1149.5" y1="144.812" y2="164.812"/><polygon fill="#181818" points="1145.5,154.812,1149.5,164.812,1153.5,154.812,1149.5,158.812" style="stroke:#181818;stroke-width:1.0;"/><line style="stroke:#181818;stroke-width:1.0;" x1="1364.5" x2="1364.5" y1="144.812" y2="164.812"/><polygon fill="#181818" points="1360.5,154.812,1364.5,164.812,1368.5,154.812,1364.5,158.812" style="stroke:#181818;stroke-width:1.0;"/><line style="stroke:#181818;stroke-width:1.0;" x1="1578.5" x2="1578.5" y1="144.812" y2="164.812"/><polygon fill="#181818" points="1574.5,154.812,1578.5,164.812,1582.5,154.812,1578.5,158.812" style="stroke:#181818;stroke-width:1.0;"/><line style="stroke:#181818;stroke-width:1.0;" x1="1786" x2="1786" y1="144.812" y2="164.812"/><polygon fill="#181818" points="1782,154.812,1786,164.812,1790,154.812,1786,158.812" style="stroke:#181818;stroke-width:1.0;"/><line style="stroke:#181818;stroke-width:1.0;" x1="1989.5" x2="1989.5" y1="144.812" y2="164.812"/><polygon fill="#181818" points="1985.5,154.812,1989.5,164.812,1993.5,154.812,1989.5,158.812" style="stroke:#181818;stroke-width:1.0;"/><line style="stroke:#181818;stroke-width:1.0;" x1="2191.5" x2="2191.5" y1="144.812" y2="164.812"/><polygon fill="#181818" points="2187.5,154.812,2191.5,164.812,2195.5,154.812,2191.5,158.812" style="stroke:#181818;stroke-width:1.0;"/><line style="stroke:#181818;stroke-width:1.0;" x1="108.5" x2="108.5" y1="79.1328" y2="110.8433"/><polygon fill="#181818" points="104.5,100.8433,108.5,110.8433,112.5,100.8433,108.5,104.8433" style="stroke:#181818;stroke-width:1.0;"/><line style="stroke:#181818;stroke-width:1.0;" x1="313.5" x2="313.5" y1="79.1328" y2="110.8433"/><polygon fill="#181818" points="309.5,100.8433,313.5,110.8433,317.5,100.8433,313.5,104.8433" style="stroke:#181818;stroke-width:1.0;"/><line style="stroke:#181818;stroke-width:1.0;" x1="521" x2="521" y1="79.1328" y2="110.8433"/><polygon fill="#181818" points="517,100.8433,521,110.8433,525,100.8433,521,104.8433" style="stroke:#181818;stroke-width:1.0;"/><line style="stroke:#181818;stroke-width:1.0;" x1="726" x2="726" y1="79.1328" y2="110.8433"/><polygon fill="#181818" points="722,100.8433,726,110.8433,730,100.8433,726,104.8433" style="stroke:#181818;stroke-width:1.0;"/><line style="stroke:#181818;stroke-width:1.0;" x1="934.5" x2="934.5" y1="79.1328" y2="110.8433"/><polygon fill="#181818" points="930.5,100.8433,934.5,110.8433,938.5,100.8433,934.5,104.8433" style="stroke:#181818;stroke-width:1.0;"/><line style="stroke:#181818;stroke-width:1.0;" x1="1149.5" x2="1149.5" y1="79.1328" y2="110.8433"/><polygon fill="#181818" points="1145.5,100.8433,1149.5,110.8433,1153.5,100.8433,1149.5,104.8433" style="stroke:#181818;stroke-width:1.0;"/><line style="stroke:#181818;stroke-width:1.0;" x1="1364.5" x2="1364.5" y1="79.1328" y2="110.8433"/><polygon fill="#181818" points="1360.5,100.8433,1364.5,110.8433,1368.5,100.8433,1364.5,104.8433" style="stroke:#181818;stroke-width:1.0;"/><line style="stroke:#181818;stroke-width:1.0;" x1="1578.5" x2="1578.5" y1="79.1328" y2="110.8433"/><polygon fill="#181818" points="1574.5,100.8433,1578.5,110.8433,1582.5,100.8433,1578.5,104.8433" style="stroke:#181818;stroke-width:1.0;"/><line style="stroke:#181818;stroke-width:1.0;" x1="1786" x2="1786" y1="79.1328" y2="110.8433"/><polygon fill="#181818" points="1782,100.8433,1786,110.8433,1790,100.8433,1786,104.8433" style="stroke:#181818;stroke-width:1.0;"/><line style="stroke:#181818;stroke-width:1.0;" x1="1989.5" x2="1989.5" y1="79.1328" y2="110.8433"/><polygon fill="#181818" points="1985.5,100.8433,1989.5,110.8433,1993.5,100.8433,1989.5,104.8433" style="stroke:#181818;stroke-width:1.0;"/><line style="stroke:#181818;stroke-width:1.0;" x1="2191.5" x2="2191.5" y1="79.1328" y2="110.8433"/><polygon fill="#181818" points="2187.5,100.8433,2191.5,110.8433,2195.5,100.8433,2191.5,104.8433" style="stroke:#181818;stroke-width:1.0;"/><line style="stroke:#181818;stroke-width:1.0;" x1="195.5" x2="228.5" y1="67.1328" y2="67.1328"/><polygon fill="#181818" points="218.5,63.1328,228.5,67.1328,218.5,71.1328,222.5,67.1328" style="stroke:#181818;stroke-width:1.0;"/><line style="stroke:#181818;stroke-width:1.0;" x1="398.5" x2="431" y1="67.1328" y2="67.1328"/><polygon fill="#181818" points="421,63.1328,431,67.1328,421,71.1328,425,67.1328" style="stroke:#181818;stroke-width:1.0;"/><line style="stroke:#181818;stroke-width:1.0;" x1="611" x2="638.5" y1="67.1328" y2="67.1328"/><polygon fill="#181818" points="628.5,63.1328,638.5,67.1328,628.5,71.1328,632.5,67.1328" style="stroke:#181818;stroke-width:1.0;"/><line style="stroke:#181818;stroke-width:1.0;" x1="813.5" x2="843.5" y1="67.1328" y2="67.1328"/><polygon fill="#181818" points="833.5,63.1328,843.5,67.1328,833.5,71.1328,837.5,67.1328" style="stroke:#181818;stroke-width:1.0;"/><line style="stroke:#181818;stroke-width:1.0;" x1="1025.5" x2="1055.5" y1="67.1328" y2="67.1328"/><polygon fill="#181818" points="1045.5,63.1328,1055.5,67.1328,1045.5,71.1328,1049.5,67.1328" style="stroke:#181818;stroke-width:1.0;"/><line style="stroke:#181818;stroke-width:1.0;" x1="1243.5" x2="1270" y1="67.1328" y2="67.1328"/><polygon fill="#181818" points="1260,63.1328,1270,67.1328,1260,71.1328,1264,67.1328" style="stroke:#181818;stroke-width:1.0;"/><line style="stroke:#181818;stroke-width:1.0;" x1="1459" x2="1482" y1="67.1328" y2="67.1328"/><polygon fill="#181818" points="1472,63.1328,1482,67.1328,1472,71.1328,1476,67.1328" style="stroke:#181818;stroke-width:1.0;"/><line style="stroke:#181818;stroke-width:1.0;" x1="1675" x2="1696" y1="67.1328" y2="67.1328"/><polygon fill="#181818" points="1686,63.1328,1696,67.1328,1686,71.1328,1690,67.1328" style="stroke:#181818;stroke-width:1.0;"/><line style="stroke:#181818;stroke-width:1.0;" x1="1876" x2="1899.5" y1="67.1328" y2="67.1328"/><polygon fill="#181818" points="1889.5,63.1328,1899.5,67.1328,1889.5,71.1328,1893.5,67.1328" style="stroke:#181818;stroke-width:1.0;"/><line style="stroke:#181818;stroke-width:1.0;" x1="2079.5" x2="2103" y1="67.1328" y2="67.1328"/><polygon fill="#181818" points="2093,63.1328,2103,67.1328,2093,71.1328,2097,67.1328" style="stroke:#181818;stroke-width:1.0;"/><line style="stroke:#181818;stroke-width:1.0;" x1="1160.5" x2="1160.5" y1="32.5664" y2="40.1328"/><line style="stroke:#181818;stroke-width:1.0;" x1="1160.5" x2="108.5" y1="40.1328" y2="40.1328"/><line style="stroke:#181818;stroke-width:1.0;" x1="108.5" x2="108.5" y1="40.1328" y2="55.1328"/><polygon fill="#181818" points="104.5,45.1328,108.5,55.1328,112.5,45.1328,108.5,49.1328" style="stroke:#181818;stroke-width:1.0;"/><line style="stroke:#181818;stroke-width:1.0;" x1="2280" x2="2318" y1="67.1328" y2="67.1328"/><line style="stroke:#181818;stroke-width:1.0;" x1="2318" x2="2318" y1="67.1328" y2="191.812"/><line style="stroke:#181818;stroke-width:1.0;" x1="2318" x2="1160.5" y1="191.812" y2="191.812"/><line style="stroke:#181818;stroke-width:1.0;" x1="1160.5" x2="1160.5" y1="191.812" y2="206.812"/><polygon fill="#181818" points="1156.5,196.812,1160.5,206.812,1164.5,196.812,1160.5,200.812" style="stroke:#181818;stroke-width:1.0;"/><line style="stroke:#181818;stroke-width:1.0;" x1="1160.5" x2="1160.5" y1="240.7808" y2="260.7808"/><polygon fill="#181818" points="1156.5,250.7808,1160.5,260.7808,1164.5,250.7808,1160.5,254.7808" style="stroke:#181818;stroke-width:1.0;"/><!--MD5=[413b28f2addcb2c00ade9901a1c411da]
@startuml
!pragma layout smetana
start
note right
GroupingTypegetType(Strings)
end note
if (s.equalsIgnoreCase("opt")) then (yes) 
:return GroupingType.START;;
stop
else if (s.equalsIgnoreCase("alt")) then (yes) 
:return GroupingType.START;;
stop
else if (s.equalsIgnoreCase("loop")) then (yes) 
:return GroupingType.START;;
stop
else if (s.equalsIgnoreCase("par")) then (yes) 
:return GroupingType.START;;
stop
else if (s.equalsIgnoreCase("par2")) then (yes) 
:return GroupingType.START;;
stop
else if (s.equalsIgnoreCase("break")) then (yes) 
:return GroupingType.START;;
stop
else if (s.equalsIgnoreCase("group")) then (yes) 
:return GroupingType.START;;
stop
else if (s.equalsIgnoreCase("critical")) then (yes) 
:return GroupingType.START;;
stop
else if (s.equalsIgnoreCase("also")) then (yes) 
:return GroupingType.ELSE;;
stop
else if (s.equalsIgnoreCase("else")) then (yes) 
:return GroupingType.ELSE;;
stop
else if (s.equalsIgnoreCase("end")) then (yes) 
:return GroupingType.END;;
stop
endif 
:throw new IllegalArgumentException();;
stop
end
@enduml

PlantUML version 1.2022.7(Mon Aug 22 17:01:30 UTC 2022)
(GPL source distribution)
Java Runtime: OpenJDK Runtime Environment
JVM: OpenJDK 64-Bit Server VM
Default Encoding: UTF-8
Language: en
Country: null
--></g></svg>