<?xml version="1.0" encoding="UTF-8" standalone="no"?><svg xmlns="http://www.w3.org/2000/svg" xmlns:xlink="http://www.w3.org/1999/xlink" contentStyleType="text/css" height="2228px" preserveAspectRatio="none" style="width:635px;height:2228px;background:#FFFFFF;" version="1.1" viewBox="0 0 635 2228" width="635px" zoomAndPan="magnify"><defs/><g><path d="M252,10 L252,33.6992 L232,37.6992 L252,41.6992 L252,65.3984 A0,0 0 0 0 252,65.3984 L623,65.3984 A0,0 0 0 0 623,65.3984 L623,20 L613,10 L252,10 A0,0 0 0 0 252,10 " fill="#FEFFDD" style="stroke:#181818;stroke-width:0.5;"/><path d="M613,10 L613,20 L623,20 L613,10 " fill="#FEFFDD" style="stroke:#181818;stroke-width:0.5;"/><text fill="#000000" font-family="sans-serif" font-size="13" lengthAdjust="spacing" textLength="350" x="258" y="27.0669">constructor GroupingStart(String title,String comment,</text><text fill="#000000" font-family="sans-serif" font-size="13" lengthAdjust="spacing" textLength="331" x="258" y="42.1997">HColor backColorGeneral,HColor backColorElement,</text><text fill="#000000" font-family="sans-serif" font-size="13" lengthAdjust="spacing" textLength="299" x="258" y="57.3325">GroupingStart parent,StyleBuilder styleBuilder)</text><ellipse cx="222" cy="37.6992" fill="#222222" rx="10" ry="10" style="stroke:#222222;stroke-width:1.0;"/><rect fill="#F1F1F1" height="47.9375" rx="12.5" ry="12.5" style="stroke:#181818;stroke-width:0.5;" width="287" x="78.5" y="85.3984"/><text fill="#000000" font-family="sans-serif" font-size="12" lengthAdjust="spacing" textLength="267" x="88.5" y="106.5371">super (title,comment,GroupingType.START,</text><text fill="#000000" font-family="sans-serif" font-size="12" lengthAdjust="spacing" textLength="198" x="88.5" y="120.5059">backColorElement,styleBuilder);</text><rect fill="#F1F1F1" height="33.9688" rx="12.5" ry="12.5" style="stroke:#181818;stroke-width:0.5;" width="283" x="80.5" y="153.3359"/><text fill="#000000" font-family="sans-serif" font-size="12" lengthAdjust="spacing" textLength="263" x="90.5" y="174.4746">this.backColorGeneral=backColorGeneral;</text><rect fill="#F1F1F1" height="33.9688" rx="12.5" ry="12.5" style="stroke:#181818;stroke-width:0.5;" width="145" x="149.5" y="207.3047"/><text fill="#000000" font-family="sans-serif" font-size="12" lengthAdjust="spacing" textLength="125" x="159.5" y="228.4434">this.parent=parent;</text><ellipse cx="222" cy="271.2734" fill="none" rx="10" ry="10" style="stroke:#222222;stroke-width:1.5;"/><line style="stroke:#222222;stroke-width:2.5;" x1="215.8128" x2="228.1872" y1="265.0863" y2="277.4606"/><line style="stroke:#222222;stroke-width:2.5;" x1="228.1872" x2="215.8128" y1="265.0863" y2="277.4606"/><path d="M252,291.2734 L252,299.8398 L232,303.8398 L252,307.8398 L252,316.4063 A0,0 0 0 0 252,316.4063 L422,316.4063 A0,0 0 0 0 422,316.4063 L422,301.2734 L412,291.2734 L252,291.2734 A0,0 0 0 0 252,291.2734 " fill="#FEFFDD" style="stroke:#181818;stroke-width:0.5;"/><path d="M412,291.2734 L412,301.2734 L422,301.2734 L412,291.2734 " fill="#FEFFDD" style="stroke:#181818;stroke-width:0.5;"/><text fill="#000000" font-family="sans-serif" font-size="13" lengthAdjust="spacing" textLength="149" x="258" y="308.3403">Style[] getUsedStyles()</text><ellipse cx="222" cy="303.8398" fill="#222222" rx="10" ry="10" style="stroke:#222222;stroke-width:1.0;"/><rect fill="#F1F1F1" height="33.9688" rx="12.5" ry="12.5" style="stroke:#181818;stroke-width:0.5;" width="288" x="78" y="336.4063"/><text fill="#000000" font-family="sans-serif" font-size="12" lengthAdjust="spacing" textLength="268" x="88" y="357.5449">final Style[] result=super .getUsedStyles();</text><rect fill="#F1F1F1" height="47.9375" rx="12.5" ry="12.5" style="stroke:#181818;stroke-width:0.5;" width="422" x="11" y="438.7773"/><text fill="#000000" font-family="sans-serif" font-size="12" lengthAdjust="spacing" textLength="402" x="21" y="459.916">result[0]=result[0].eventuallyOverride(PName.BackGroundColor,</text><text fill="#000000" font-family="sans-serif" font-size="12" lengthAdjust="spacing" textLength="120" x="21" y="473.8848">backColorGeneral);</text><polygon fill="#F1F1F1" points="180,390.375,264,390.375,276,402.375,264,414.375,180,414.375,168,402.375,180,390.375" style="stroke:#181818;stroke-width:0.5;"/><text fill="#000000" font-family="sans-serif" font-size="11" lengthAdjust="spacing" textLength="20" x="226" y="424.5854">yes</text><text fill="#000000" font-family="sans-serif" font-size="11" lengthAdjust="spacing" textLength="80" x="180" y="406.1831">result[0]!=null</text><polygon fill="#F1F1F1" points="222,506.7148,234,518.7148,222,530.7148,210,518.7148,222,506.7148" style="stroke:#181818;stroke-width:0.5;"/><rect fill="#F1F1F1" height="33.9688" rx="12.5" ry="12.5" style="stroke:#181818;stroke-width:0.5;" width="103" x="170.5" y="550.7148"/><text fill="#000000" font-family="sans-serif" font-size="12" lengthAdjust="spacing" textLength="83" x="180.5" y="571.8535">return result;</text><ellipse cx="222" cy="615.6836" fill="none" rx="11" ry="11" style="stroke:#222222;stroke-width:1.0;"/><ellipse cx="222" cy="615.6836" fill="#222222" rx="6" ry="6" style="stroke:#111111;stroke-width:1.0;"/><ellipse cx="222" cy="646.6836" fill="none" rx="10" ry="10" style="stroke:#222222;stroke-width:1.5;"/><line style="stroke:#222222;stroke-width:2.5;" x1="215.8128" x2="228.1872" y1="640.4964" y2="652.8708"/><line style="stroke:#222222;stroke-width:2.5;" x1="228.1872" x2="215.8128" y1="640.4964" y2="652.8708"/><path d="M252,666.6836 L252,675.25 L232,679.25 L252,683.25 L252,691.8164 A0,0 0 0 0 252,691.8164 L489,691.8164 A0,0 0 0 0 489,691.8164 L489,676.6836 L479,666.6836 L252,666.6836 A0,0 0 0 0 252,666.6836 " fill="#FEFFDD" style="stroke:#181818;stroke-width:0.5;"/><path d="M479,666.6836 L479,676.6836 L489,676.6836 L479,666.6836 " fill="#FEFFDD" style="stroke:#181818;stroke-width:0.5;"/><text fill="#000000" font-family="sans-serif" font-size="13" lengthAdjust="spacing" textLength="216" x="258" y="683.7505">List&lt;GroupingLeaf&gt; getChildren()</text><ellipse cx="222" cy="679.25" fill="#222222" rx="10" ry="10" style="stroke:#222222;stroke-width:1.0;"/><rect fill="#F1F1F1" height="33.9688" rx="12.5" ry="12.5" style="stroke:#181818;stroke-width:0.5;" width="300" x="72" y="711.8164"/><text fill="#000000" font-family="sans-serif" font-size="12" lengthAdjust="spacing" textLength="280" x="82" y="732.9551">return Collections.unmodifiableList(children);</text><ellipse cx="222" cy="776.7852" fill="none" rx="11" ry="11" style="stroke:#222222;stroke-width:1.0;"/><ellipse cx="222" cy="776.7852" fill="#222222" rx="6" ry="6" style="stroke:#111111;stroke-width:1.0;"/><ellipse cx="222" cy="807.7852" fill="none" rx="10" ry="10" style="stroke:#222222;stroke-width:1.5;"/><line style="stroke:#222222;stroke-width:2.5;" x1="215.8128" x2="228.1872" y1="801.598" y2="813.9723"/><line style="stroke:#222222;stroke-width:2.5;" x1="228.1872" x2="215.8128" y1="801.598" y2="813.9723"/><path d="M252,827.7852 L252,836.3516 L232,840.3516 L252,844.3516 L252,852.918 A0,0 0 0 0 252,852.918 L486,852.918 A0,0 0 0 0 486,852.918 L486,837.7852 L476,827.7852 L252,827.7852 A0,0 0 0 0 252,827.7852 " fill="#FEFFDD" style="stroke:#181818;stroke-width:0.5;"/><path d="M476,827.7852 L476,837.7852 L486,837.7852 L476,827.7852 " fill="#FEFFDD" style="stroke:#181818;stroke-width:0.5;"/><text fill="#000000" font-family="sans-serif" font-size="13" lengthAdjust="spacing" textLength="213" x="258" y="844.8521">void addChildren(GroupingLeaf g)</text><ellipse cx="222" cy="840.3516" fill="#222222" rx="10" ry="10" style="stroke:#222222;stroke-width:1.0;"/><rect fill="#F1F1F1" height="33.9688" rx="12.5" ry="12.5" style="stroke:#181818;stroke-width:0.5;" width="120" x="162" y="872.918"/><text fill="#000000" font-family="sans-serif" font-size="12" lengthAdjust="spacing" textLength="100" x="172" y="894.0566">children.add(g);</text><ellipse cx="222" cy="936.8867" fill="none" rx="10" ry="10" style="stroke:#222222;stroke-width:1.5;"/><line style="stroke:#222222;stroke-width:2.5;" x1="215.8128" x2="228.1872" y1="930.6995" y2="943.0739"/><line style="stroke:#222222;stroke-width:2.5;" x1="228.1872" x2="215.8128" y1="930.6995" y2="943.0739"/><path d="M252,956.8867 L252,965.4531 L232,969.4531 L252,973.4531 L252,982.0195 A0,0 0 0 0 252,982.0195 L357,982.0195 A0,0 0 0 0 357,982.0195 L357,966.8867 L347,956.8867 L252,956.8867 A0,0 0 0 0 252,956.8867 " fill="#FEFFDD" style="stroke:#181818;stroke-width:0.5;"/><path d="M347,956.8867 L347,966.8867 L357,966.8867 L347,956.8867 " fill="#FEFFDD" style="stroke:#181818;stroke-width:0.5;"/><text fill="#000000" font-family="sans-serif" font-size="13" lengthAdjust="spacing" textLength="84" x="258" y="973.9536">int getLevel()</text><ellipse cx="222" cy="969.4531" fill="#222222" rx="10" ry="10" style="stroke:#222222;stroke-width:1.0;"/><rect fill="#F1F1F1" height="33.9688" rx="12.5" ry="12.5" style="stroke:#181818;stroke-width:0.5;" width="75" x="184.5" y="1050.4219"/><text fill="#000000" font-family="sans-serif" font-size="12" lengthAdjust="spacing" textLength="55" x="194.5" y="1071.5605">return 0;</text><ellipse cx="222" cy="1123.9063" fill="none" rx="11" ry="11" style="stroke:#222222;stroke-width:1.0;"/><ellipse cx="222" cy="1123.9063" fill="#222222" rx="6" ry="6" style="stroke:#111111;stroke-width:1.0;"/><polygon fill="#F1F1F1" points="182.5,1002.0195,261.5,1002.0195,273.5,1014.0195,261.5,1026.0195,182.5,1026.0195,170.5,1014.0195,182.5,1002.0195" style="stroke:#181818;stroke-width:0.5;"/><text fill="#000000" font-family="sans-serif" font-size="11" lengthAdjust="spacing" textLength="20" x="226" y="1036.23">yes</text><text fill="#000000" font-family="sans-serif" font-size="11" lengthAdjust="spacing" textLength="75" x="182.5" y="1017.8276">parent==null</text><rect fill="#F1F1F1" height="33.9688" rx="12.5" ry="12.5" style="stroke:#181818;stroke-width:0.5;" width="193" x="125.5" y="1176.9063"/><text fill="#000000" font-family="sans-serif" font-size="12" lengthAdjust="spacing" textLength="173" x="135.5" y="1198.0449">return parent.getLevel()+1;</text><ellipse cx="222" cy="1241.875" fill="none" rx="11" ry="11" style="stroke:#222222;stroke-width:1.0;"/><ellipse cx="222" cy="1241.875" fill="#222222" rx="6" ry="6" style="stroke:#111111;stroke-width:1.0;"/><ellipse cx="222" cy="1272.875" fill="none" rx="10" ry="10" style="stroke:#222222;stroke-width:1.5;"/><line style="stroke:#222222;stroke-width:2.5;" x1="215.8128" x2="228.1872" y1="1266.6878" y2="1279.0622"/><line style="stroke:#222222;stroke-width:2.5;" x1="228.1872" x2="215.8128" y1="1266.6878" y2="1279.0622"/><path d="M252,1292.875 L252,1301.4414 L232,1305.4414 L252,1309.4414 L252,1318.0078 A0,0 0 0 0 252,1318.0078 L465,1318.0078 A0,0 0 0 0 465,1318.0078 L465,1302.875 L455,1292.875 L252,1292.875 A0,0 0 0 0 252,1292.875 " fill="#FEFFDD" style="stroke:#181818;stroke-width:0.5;"/><path d="M455,1292.875 L455,1302.875 L465,1302.875 L455,1292.875 " fill="#FEFFDD" style="stroke:#181818;stroke-width:0.5;"/><text fill="#000000" font-family="sans-serif" font-size="13" lengthAdjust="spacing" textLength="192" x="258" y="1309.9419">HColor getBackColorGeneral()</text><ellipse cx="222" cy="1305.4414" fill="#222222" rx="10" ry="10" style="stroke:#222222;stroke-width:1.0;"/><rect fill="#F1F1F1" height="33.9688" rx="12.5" ry="12.5" style="stroke:#181818;stroke-width:0.5;" width="178" x="133" y="1338.0078"/><text fill="#000000" font-family="sans-serif" font-size="12" lengthAdjust="spacing" textLength="158" x="143" y="1359.1465">return backColorGeneral;</text><ellipse cx="222" cy="1402.9766" fill="none" rx="11" ry="11" style="stroke:#222222;stroke-width:1.0;"/><ellipse cx="222" cy="1402.9766" fill="#222222" rx="6" ry="6" style="stroke:#111111;stroke-width:1.0;"/><ellipse cx="222" cy="1433.9766" fill="none" rx="10" ry="10" style="stroke:#222222;stroke-width:1.5;"/><line style="stroke:#222222;stroke-width:2.5;" x1="215.8128" x2="228.1872" y1="1427.7894" y2="1440.1637"/><line style="stroke:#222222;stroke-width:2.5;" x1="228.1872" x2="215.8128" y1="1427.7894" y2="1440.1637"/><path d="M252,1453.9766 L252,1462.543 L232,1466.543 L252,1470.543 L252,1479.1094 A0,0 0 0 0 252,1479.1094 L524,1479.1094 A0,0 0 0 0 524,1479.1094 L524,1463.9766 L514,1453.9766 L252,1453.9766 A0,0 0 0 0 252,1453.9766 " fill="#FEFFDD" style="stroke:#181818;stroke-width:0.5;"/><path d="M514,1453.9766 L514,1463.9766 L524,1463.9766 L514,1453.9766 " fill="#FEFFDD" style="stroke:#181818;stroke-width:0.5;"/><text fill="#000000" font-family="sans-serif" font-size="13" lengthAdjust="spacing" textLength="251" x="258" y="1471.0435">boolean dealWith(Participant someone)</text><ellipse cx="222" cy="1466.543" fill="#222222" rx="10" ry="10" style="stroke:#222222;stroke-width:1.0;"/><rect fill="#F1F1F1" height="33.9688" rx="12.5" ry="12.5" style="stroke:#181818;stroke-width:0.5;" width="97" x="173.5" y="1499.1094"/><text fill="#000000" font-family="sans-serif" font-size="12" lengthAdjust="spacing" textLength="77" x="183.5" y="1520.248">return false;</text><ellipse cx="222" cy="1564.0781" fill="none" rx="11" ry="11" style="stroke:#222222;stroke-width:1.0;"/><ellipse cx="222" cy="1564.0781" fill="#222222" rx="6" ry="6" style="stroke:#111111;stroke-width:1.0;"/><ellipse cx="222" cy="1595.0781" fill="none" rx="10" ry="10" style="stroke:#222222;stroke-width:1.5;"/><line style="stroke:#222222;stroke-width:2.5;" x1="215.8128" x2="228.1872" y1="1588.8909" y2="1601.2653"/><line style="stroke:#222222;stroke-width:2.5;" x1="228.1872" x2="215.8128" y1="1588.8909" y2="1601.2653"/><path d="M252,1615.0781 L252,1623.6445 L232,1627.6445 L252,1631.6445 L252,1640.2109 A0,0 0 0 0 252,1640.2109 L344,1640.2109 A0,0 0 0 0 344,1640.2109 L344,1625.0781 L334,1615.0781 L252,1615.0781 A0,0 0 0 0 252,1615.0781 " fill="#FEFFDD" style="stroke:#181818;stroke-width:0.5;"/><path d="M334,1615.0781 L334,1625.0781 L344,1625.0781 L334,1615.0781 " fill="#FEFFDD" style="stroke:#181818;stroke-width:0.5;"/><text fill="#000000" font-family="sans-serif" font-size="13" lengthAdjust="spacing" textLength="71" x="258" y="1632.145">Url getUrl()</text><ellipse cx="222" cy="1627.6445" fill="#222222" rx="10" ry="10" style="stroke:#222222;stroke-width:1.0;"/><rect fill="#F1F1F1" height="33.9688" rx="12.5" ry="12.5" style="stroke:#181818;stroke-width:0.5;" width="93" x="175.5" y="1660.2109"/><text fill="#000000" font-family="sans-serif" font-size="12" lengthAdjust="spacing" textLength="73" x="185.5" y="1681.3496">return null ;</text><ellipse cx="222" cy="1725.1797" fill="none" rx="11" ry="11" style="stroke:#222222;stroke-width:1.0;"/><ellipse cx="222" cy="1725.1797" fill="#222222" rx="6" ry="6" style="stroke:#111111;stroke-width:1.0;"/><ellipse cx="222" cy="1756.1797" fill="none" rx="10" ry="10" style="stroke:#222222;stroke-width:1.5;"/><line style="stroke:#222222;stroke-width:2.5;" x1="215.8128" x2="228.1872" y1="1749.9925" y2="1762.3669"/><line style="stroke:#222222;stroke-width:2.5;" x1="228.1872" x2="215.8128" y1="1749.9925" y2="1762.3669"/><path d="M252,1776.1797 L252,1784.7461 L232,1788.7461 L252,1792.7461 L252,1801.3125 A0,0 0 0 0 252,1801.3125 L379,1801.3125 A0,0 0 0 0 379,1801.3125 L379,1786.1797 L369,1776.1797 L252,1776.1797 A0,0 0 0 0 252,1776.1797 " fill="#FEFFDD" style="stroke:#181818;stroke-width:0.5;"/><path d="M369,1776.1797 L369,1786.1797 L379,1786.1797 L369,1776.1797 " fill="#FEFFDD" style="stroke:#181818;stroke-width:0.5;"/><text fill="#000000" font-family="sans-serif" font-size="13" lengthAdjust="spacing" textLength="106" x="258" y="1793.2466">boolean hasUrl()</text><ellipse cx="222" cy="1788.7461" fill="#222222" rx="10" ry="10" style="stroke:#222222;stroke-width:1.0;"/><rect fill="#F1F1F1" height="33.9688" rx="12.5" ry="12.5" style="stroke:#181818;stroke-width:0.5;" width="97" x="173.5" y="1821.3125"/><text fill="#000000" font-family="sans-serif" font-size="12" lengthAdjust="spacing" textLength="77" x="183.5" y="1842.4512">return false;</text><ellipse cx="222" cy="1886.2813" fill="none" rx="11" ry="11" style="stroke:#222222;stroke-width:1.0;"/><ellipse cx="222" cy="1886.2813" fill="#222222" rx="6" ry="6" style="stroke:#111111;stroke-width:1.0;"/><ellipse cx="222" cy="1917.2813" fill="none" rx="10" ry="10" style="stroke:#222222;stroke-width:1.5;"/><line style="stroke:#222222;stroke-width:2.5;" x1="215.8128" x2="228.1872" y1="1911.0941" y2="1923.4684"/><line style="stroke:#222222;stroke-width:2.5;" x1="228.1872" x2="215.8128" y1="1911.0941" y2="1923.4684"/><path d="M252,1937.2813 L252,1945.8477 L232,1949.8477 L252,1953.8477 L252,1962.4141 A0,0 0 0 0 252,1962.4141 L394,1962.4141 A0,0 0 0 0 394,1962.4141 L394,1947.2813 L384,1937.2813 L252,1937.2813 A0,0 0 0 0 252,1937.2813 " fill="#FEFFDD" style="stroke:#181818;stroke-width:0.5;"/><path d="M384,1937.2813 L384,1947.2813 L394,1947.2813 L384,1937.2813 " fill="#FEFFDD" style="stroke:#181818;stroke-width:0.5;"/><text fill="#000000" font-family="sans-serif" font-size="13" lengthAdjust="spacing" textLength="121" x="258" y="1954.3481">boolean isParallel()</text><ellipse cx="222" cy="1949.8477" fill="#222222" rx="10" ry="10" style="stroke:#222222;stroke-width:1.0;"/><rect fill="#F1F1F1" height="33.9688" rx="12.5" ry="12.5" style="stroke:#181818;stroke-width:0.5;" width="273" x="85.5" y="1982.4141"/><text fill="#000000" font-family="sans-serif" font-size="12" lengthAdjust="spacing" textLength="253" x="95.5" y="2003.5527">return parallel||getTitle().equals("par2");</text><ellipse cx="222" cy="2047.3828" fill="none" rx="11" ry="11" style="stroke:#222222;stroke-width:1.0;"/><ellipse cx="222" cy="2047.3828" fill="#222222" rx="6" ry="6" style="stroke:#111111;stroke-width:1.0;"/><ellipse cx="222" cy="2078.3828" fill="none" rx="10" ry="10" style="stroke:#222222;stroke-width:1.5;"/><line style="stroke:#222222;stroke-width:2.5;" x1="215.8128" x2="228.1872" y1="2072.1956" y2="2084.57"/><line style="stroke:#222222;stroke-width:2.5;" x1="228.1872" x2="215.8128" y1="2072.1956" y2="2084.57"/><path d="M252,2098.3828 L252,2106.9492 L232,2110.9492 L252,2114.9492 L252,2123.5156 A0,0 0 0 0 252,2123.5156 L375,2123.5156 A0,0 0 0 0 375,2123.5156 L375,2108.3828 L365,2098.3828 L252,2098.3828 A0,0 0 0 0 252,2098.3828 " fill="#FEFFDD" style="stroke:#181818;stroke-width:0.5;"/><path d="M365,2098.3828 L365,2108.3828 L375,2108.3828 L365,2098.3828 " fill="#FEFFDD" style="stroke:#181818;stroke-width:0.5;"/><text fill="#000000" font-family="sans-serif" font-size="13" lengthAdjust="spacing" textLength="102" x="258" y="2115.4497">void goParallel()</text><ellipse cx="222" cy="2110.9492" fill="#222222" rx="10" ry="10" style="stroke:#222222;stroke-width:1.0;"/><rect fill="#F1F1F1" height="33.9688" rx="12.5" ry="12.5" style="stroke:#181818;stroke-width:0.5;" width="133" x="155.5" y="2143.5156"/><text fill="#000000" font-family="sans-serif" font-size="12" lengthAdjust="spacing" textLength="113" x="165.5" y="2164.6543">this.parallel=true;</text><ellipse cx="222" cy="2207.4844" fill="none" rx="10" ry="10" style="stroke:#222222;stroke-width:1.5;"/><line style="stroke:#222222;stroke-width:2.5;" x1="215.8128" x2="228.1872" y1="2201.2972" y2="2213.6716"/><line style="stroke:#222222;stroke-width:2.5;" x1="228.1872" x2="215.8128" y1="2201.2972" y2="2213.6716"/><line style="stroke:#181818;stroke-width:1.0;" x1="222" x2="222" y1="47.6992" y2="85.3984"/><polygon fill="#181818" points="218,75.3984,222,85.3984,226,75.3984,222,79.3984" style="stroke:#181818;stroke-width:1.0;"/><line style="stroke:#181818;stroke-width:1.0;" x1="222" x2="222" y1="133.3359" y2="153.3359"/><polygon fill="#181818" points="218,143.3359,222,153.3359,226,143.3359,222,147.3359" style="stroke:#181818;stroke-width:1.0;"/><line style="stroke:#181818;stroke-width:1.0;" x1="222" x2="222" y1="187.3047" y2="207.3047"/><polygon fill="#181818" points="218,197.3047,222,207.3047,226,197.3047,222,201.3047" style="stroke:#181818;stroke-width:1.0;"/><line style="stroke:#181818;stroke-width:1.0;" x1="222" x2="222" y1="241.2734" y2="261.2734"/><polygon fill="#181818" points="218,251.2734,222,261.2734,226,251.2734,222,255.2734" style="stroke:#181818;stroke-width:1.0;"/><line style="stroke:#181818;stroke-width:1.0;" x1="222" x2="222" y1="313.8398" y2="336.4063"/><polygon fill="#181818" points="218,326.4063,222,336.4063,226,326.4063,222,330.4063" style="stroke:#181818;stroke-width:1.0;"/><line style="stroke:#181818;stroke-width:1.0;" x1="222" x2="222" y1="414.375" y2="438.7773"/><polygon fill="#181818" points="218,428.7773,222,438.7773,226,428.7773,222,432.7773" style="stroke:#181818;stroke-width:1.0;"/><line style="stroke:#181818;stroke-width:1.0;" x1="276" x2="443" y1="402.375" y2="402.375"/><polygon fill="#181818" points="439,452.7461,443,462.7461,447,452.7461,443,456.7461" style="stroke:#181818;stroke-width:1.0;"/><line style="stroke:#181818;stroke-width:1.0;" x1="443" x2="443" y1="402.375" y2="518.7148"/><line style="stroke:#181818;stroke-width:1.0;" x1="443" x2="234" y1="518.7148" y2="518.7148"/><polygon fill="#181818" points="244,514.7148,234,518.7148,244,522.7148,240,518.7148" style="stroke:#181818;stroke-width:1.0;"/><line style="stroke:#181818;stroke-width:1.0;" x1="222" x2="222" y1="486.7148" y2="506.7148"/><polygon fill="#181818" points="218,496.7148,222,506.7148,226,496.7148,222,500.7148" style="stroke:#181818;stroke-width:1.0;"/><line style="stroke:#181818;stroke-width:1.0;" x1="222" x2="222" y1="370.375" y2="390.375"/><polygon fill="#181818" points="218,380.375,222,390.375,226,380.375,222,384.375" style="stroke:#181818;stroke-width:1.0;"/><line style="stroke:#181818;stroke-width:1.0;" x1="222" x2="222" y1="530.7148" y2="550.7148"/><polygon fill="#181818" points="218,540.7148,222,550.7148,226,540.7148,222,544.7148" style="stroke:#181818;stroke-width:1.0;"/><line style="stroke:#181818;stroke-width:1.0;" x1="222" x2="222" y1="584.6836" y2="604.6836"/><polygon fill="#181818" points="218,594.6836,222,604.6836,226,594.6836,222,598.6836" style="stroke:#181818;stroke-width:1.0;"/><line style="stroke:#181818;stroke-width:1.0;" x1="222" x2="222" y1="689.25" y2="711.8164"/><polygon fill="#181818" points="218,701.8164,222,711.8164,226,701.8164,222,705.8164" style="stroke:#181818;stroke-width:1.0;"/><line style="stroke:#181818;stroke-width:1.0;" x1="222" x2="222" y1="745.7852" y2="765.7852"/><polygon fill="#181818" points="218,755.7852,222,765.7852,226,755.7852,222,759.7852" style="stroke:#181818;stroke-width:1.0;"/><line style="stroke:#181818;stroke-width:1.0;" x1="222" x2="222" y1="850.3516" y2="872.918"/><polygon fill="#181818" points="218,862.918,222,872.918,226,862.918,222,866.918" style="stroke:#181818;stroke-width:1.0;"/><line style="stroke:#181818;stroke-width:1.0;" x1="222" x2="222" y1="906.8867" y2="926.8867"/><polygon fill="#181818" points="218,916.8867,222,926.8867,226,916.8867,222,920.8867" style="stroke:#181818;stroke-width:1.0;"/><line style="stroke:#181818;stroke-width:1.0;" x1="222" x2="222" y1="1084.3906" y2="1112.9063"/><polygon fill="#181818" points="218,1102.9063,222,1112.9063,226,1102.9063,222,1106.9063" style="stroke:#181818;stroke-width:1.0;"/><line style="stroke:#181818;stroke-width:1.0;" x1="222" x2="222" y1="1026.0195" y2="1050.4219"/><polygon fill="#181818" points="218,1040.4219,222,1050.4219,226,1040.4219,222,1044.4219" style="stroke:#181818;stroke-width:1.0;"/><line style="stroke:#181818;stroke-width:1.0;" x1="273.5" x2="285.5" y1="1014.0195" y2="1014.0195"/><polygon fill="#181818" points="281.5,1082.9063,285.5,1092.9063,289.5,1082.9063,285.5,1086.9063" style="stroke:#181818;stroke-width:1.0;"/><line style="stroke:#181818;stroke-width:1.0;" x1="285.5" x2="285.5" y1="1014.0195" y2="1156.9063"/><line style="stroke:#181818;stroke-width:1.0;" x1="285.5" x2="222" y1="1156.9063" y2="1156.9063"/><line style="stroke:#181818;stroke-width:1.0;" x1="222" x2="222" y1="1156.9063" y2="1176.9063"/><polygon fill="#181818" points="218,1166.9063,222,1176.9063,226,1166.9063,222,1170.9063" style="stroke:#181818;stroke-width:1.0;"/><line style="stroke:#181818;stroke-width:1.0;" x1="222" x2="222" y1="979.4531" y2="1002.0195"/><polygon fill="#181818" points="218,992.0195,222,1002.0195,226,992.0195,222,996.0195" style="stroke:#181818;stroke-width:1.0;"/><line style="stroke:#181818;stroke-width:1.0;" x1="222" x2="222" y1="1210.875" y2="1230.875"/><polygon fill="#181818" points="218,1220.875,222,1230.875,226,1220.875,222,1224.875" style="stroke:#181818;stroke-width:1.0;"/><line style="stroke:#181818;stroke-width:1.0;" x1="222" x2="222" y1="1315.4414" y2="1338.0078"/><polygon fill="#181818" points="218,1328.0078,222,1338.0078,226,1328.0078,222,1332.0078" style="stroke:#181818;stroke-width:1.0;"/><line style="stroke:#181818;stroke-width:1.0;" x1="222" x2="222" y1="1371.9766" y2="1391.9766"/><polygon fill="#181818" points="218,1381.9766,222,1391.9766,226,1381.9766,222,1385.9766" style="stroke:#181818;stroke-width:1.0;"/><line style="stroke:#181818;stroke-width:1.0;" x1="222" x2="222" y1="1476.543" y2="1499.1094"/><polygon fill="#181818" points="218,1489.1094,222,1499.1094,226,1489.1094,222,1493.1094" style="stroke:#181818;stroke-width:1.0;"/><line style="stroke:#181818;stroke-width:1.0;" x1="222" x2="222" y1="1533.0781" y2="1553.0781"/><polygon fill="#181818" points="218,1543.0781,222,1553.0781,226,1543.0781,222,1547.0781" style="stroke:#181818;stroke-width:1.0;"/><line style="stroke:#181818;stroke-width:1.0;" x1="222" x2="222" y1="1637.6445" y2="1660.2109"/><polygon fill="#181818" points="218,1650.2109,222,1660.2109,226,1650.2109,222,1654.2109" style="stroke:#181818;stroke-width:1.0;"/><line style="stroke:#181818;stroke-width:1.0;" x1="222" x2="222" y1="1694.1797" y2="1714.1797"/><polygon fill="#181818" points="218,1704.1797,222,1714.1797,226,1704.1797,222,1708.1797" style="stroke:#181818;stroke-width:1.0;"/><line style="stroke:#181818;stroke-width:1.0;" x1="222" x2="222" y1="1798.7461" y2="1821.3125"/><polygon fill="#181818" points="218,1811.3125,222,1821.3125,226,1811.3125,222,1815.3125" style="stroke:#181818;stroke-width:1.0;"/><line style="stroke:#181818;stroke-width:1.0;" x1="222" x2="222" y1="1855.2813" y2="1875.2813"/><polygon fill="#181818" points="218,1865.2813,222,1875.2813,226,1865.2813,222,1869.2813" style="stroke:#181818;stroke-width:1.0;"/><line style="stroke:#181818;stroke-width:1.0;" x1="222" x2="222" y1="1959.8477" y2="1982.4141"/><polygon fill="#181818" points="218,1972.4141,222,1982.4141,226,1972.4141,222,1976.4141" style="stroke:#181818;stroke-width:1.0;"/><line style="stroke:#181818;stroke-width:1.0;" x1="222" x2="222" y1="2016.3828" y2="2036.3828"/><polygon fill="#181818" points="218,2026.3828,222,2036.3828,226,2026.3828,222,2030.3828" style="stroke:#181818;stroke-width:1.0;"/><line style="stroke:#181818;stroke-width:1.0;" x1="222" x2="222" y1="2120.9492" y2="2143.5156"/><polygon fill="#181818" points="218,2133.5156,222,2143.5156,226,2133.5156,222,2137.5156" style="stroke:#181818;stroke-width:1.0;"/><line style="stroke:#181818;stroke-width:1.0;" x1="222" x2="222" y1="2177.4844" y2="2197.4844"/><polygon fill="#181818" points="218,2187.4844,222,2197.4844,226,2187.4844,222,2191.4844" style="stroke:#181818;stroke-width:1.0;"/><!--MD5=[f0ac5f92d58d5248b9d9ac6edf6c1af9]
@startuml
!pragma layout smetana
start
note right
constructor GroupingStart(String title,String comment,
HColor backColorGeneral,HColor backColorElement,
GroupingStart parent,StyleBuilder styleBuilder)
end note
:super (title,comment,GroupingType.START,
backColorElement,styleBuilder);;
:this.backColorGeneral=backColorGeneral;;
:this.parent=parent;;
end
start
note right
Style[] getUsedStyles()
end note
:final Style[] result=super .getUsedStyles();;
if (result[0]!=null ) then (yes) 
:result[0]=result[0].eventuallyOverride(PName.BackGroundColor,
backColorGeneral);;
endif 
:return result;;
stop
end
start
note right
List<GroupingLeaf> getChildren()
end note
:return Collections.unmodifiableList(children);;
stop
end
start
note right
void addChildren(GroupingLeaf g)
end note
:children.add(g);;
end
start
note right
int getLevel()
end note
if (parent==null ) then (yes) 
:return 0;;
stop
endif 
:return parent.getLevel()+1;;
stop
end
start
note right
HColor getBackColorGeneral()
end note
:return backColorGeneral;;
stop
end
start
note right
boolean dealWith(Participant someone)
end note
:return false;;
stop
end
start
note right
Url getUrl()
end note
:return null ;;
stop
end
start
note right
boolean hasUrl()
end note
:return false;;
stop
end
start
note right
boolean isParallel()
end note
:return parallel||getTitle().equals("par2");;
stop
end
start
note right
void goParallel()
end note
:this.parallel=true;;
end
@enduml

PlantUML version 1.2022.7(Mon Aug 22 17:01:30 UTC 2022)
(GPL source distribution)
Java Runtime: OpenJDK Runtime Environment
JVM: OpenJDK 64-Bit Server VM
Default Encoding: UTF-8
Language: en
Country: null
--></g></svg>