<?xml version="1.0" encoding="UTF-8" standalone="no"?><svg xmlns="http://www.w3.org/2000/svg" xmlns:xlink="http://www.w3.org/1999/xlink" contentStyleType="text/css" height="236px" preserveAspectRatio="none" style="width:451px;height:236px;background:#FFFFFF;" version="1.1" viewBox="0 0 451 236" width="451px" zoomAndPan="magnify"><defs/><g><!--MD5=[aa8f7b917213fcc1c2766e2d59b49067]
cluster java.lang--><g id="cluster_java.lang"><path d="M180.5,6 L250.5,6 A3.75,3.75 0 0 1 253,8.5 L260,28.2969 L269.5,28.2969 A2.5,2.5 0 0 1 272,30.7969 L272,86.5 A2.5,2.5 0 0 1 269.5,89 L180.5,89 A2.5,2.5 0 0 1 178,86.5 L178,8.5 A2.5,2.5 0 0 1 180.5,6 " fill="none" style="stroke:#000000;stroke-width:1.5;"/><line style="stroke:#000000;stroke-width:1.5;" x1="178" x2="260" y1="28.2969" y2="28.2969"/><text fill="#000000" font-family="sans-serif" font-size="14" font-weight="bold" lengthAdjust="spacing" textLength="69" x="182" y="20.9951">java.lang</text></g><!--MD5=[8bf2e124e1a2e2465618f1f6608ff0be]
cluster net.sourceforge.plantuml.sequencediagram.puma--><g id="cluster_net.sourceforge.plantuml.sequencediagram.puma"><path d="M8.5,97 L404.5,97 A3.75,3.75 0 0 1 407,99.5 L414,119.2969 L441.5,119.2969 A2.5,2.5 0 0 1 444,121.7969 L444,226.5 A2.5,2.5 0 0 1 441.5,229 L8.5,229 A2.5,2.5 0 0 1 6,226.5 L6,99.5 A2.5,2.5 0 0 1 8.5,97 " fill="none" style="stroke:#000000;stroke-width:1.5;"/><line style="stroke:#000000;stroke-width:1.5;" x1="6" x2="414" y1="119.2969" y2="119.2969"/><text fill="#000000" font-family="sans-serif" font-size="14" font-weight="bold" lengthAdjust="spacing" textLength="395" x="10" y="111.9951">net.sourceforge.plantuml.sequencediagram.puma</text></g><!--MD5=[274ad5661286b626a93603d287cbf95a]
class java.lang.Object--><g id="elem_java.lang.Object"><rect fill="#F1F1F1" height="48" id="java.lang.Object" rx="2.5" ry="2.5" style="stroke:#181818;stroke-width:0.5;" width="77" x="186.5" y="33"/><ellipse cx="201.5" cy="49" fill="#ADD1B2" rx="11" ry="11" style="stroke:#181818;stroke-width:1.0;"/><path d="M204.4688,54.6406 Q203.8906,54.9375 203.25,55.0781 Q202.6094,55.2344 201.9063,55.2344 Q199.4063,55.2344 198.0781,53.5938 Q196.7656,51.9375 196.7656,48.8125 Q196.7656,45.6875 198.0781,44.0313 Q199.4063,42.375 201.9063,42.375 Q202.6094,42.375 203.25,42.5313 Q203.9063,42.6875 204.4688,42.9844 L204.4688,45.7031 Q203.8438,45.125 203.25,44.8594 Q202.6563,44.5781 202.0313,44.5781 Q200.6875,44.5781 200,45.6563 Q199.3125,46.7188 199.3125,48.8125 Q199.3125,50.9063 200,51.9844 Q200.6875,53.0469 202.0313,53.0469 Q202.6563,53.0469 203.25,52.7813 Q203.8438,52.5 204.4688,51.9219 L204.4688,54.6406 Z " fill="#000000"/><text fill="#000000" font-family="sans-serif" font-size="14" lengthAdjust="spacing" textLength="45" x="215.5" y="53.8467">Object</text><line style="stroke:#181818;stroke-width:0.5;" x1="187.5" x2="262.5" y1="65" y2="65"/><line style="stroke:#181818;stroke-width:0.5;" x1="187.5" x2="262.5" y1="73" y2="73"/></g><!--MD5=[d1ae8b1852190d9edc10e5e13a9c989c]
class net.sourceforge.plantuml.sequencediagram.puma.PUnivers--><g id="elem_net.sourceforge.plantuml.sequencediagram.puma.PUnivers"><rect codeLine="3" fill="#F1F1F1" height="96.8906" id="net.sourceforge.plantuml.sequencediagram.puma.PUnivers" rx="2.5" ry="2.5" style="stroke:#181818;stroke-width:0.5;" width="421" x="14.5" y="124"/><ellipse cx="190.75" cy="140" fill="#ADD1B2" rx="11" ry="11" style="stroke:#181818;stroke-width:1.0;"/><path d="M193.7188,145.6406 Q193.1406,145.9375 192.5,146.0781 Q191.8594,146.2344 191.1563,146.2344 Q188.6563,146.2344 187.3281,144.5938 Q186.0156,142.9375 186.0156,139.8125 Q186.0156,136.6875 187.3281,135.0313 Q188.6563,133.375 191.1563,133.375 Q191.8594,133.375 192.5,133.5313 Q193.1563,133.6875 193.7188,133.9844 L193.7188,136.7031 Q193.0938,136.125 192.5,135.8594 Q191.9063,135.5781 191.2813,135.5781 Q189.9375,135.5781 189.25,136.6563 Q188.5625,137.7188 188.5625,139.8125 Q188.5625,141.9063 189.25,142.9844 Q189.9375,144.0469 191.2813,144.0469 Q191.9063,144.0469 192.5,143.7813 Q193.0938,143.5 193.7188,142.9219 L193.7188,145.6406 Z " fill="#000000"/><text fill="#000000" font-family="sans-serif" font-size="14" lengthAdjust="spacing" textLength="60" x="211.25" y="144.8467">PUnivers</text><line style="stroke:#181818;stroke-width:0.5;" x1="15.5" x2="434.5" y1="156" y2="156"/><line style="stroke:#181818;stroke-width:0.5;" x1="15.5" x2="434.5" y1="164" y2="164"/><a href="./../../../../../../.././qc/src/net/sourceforge/plantuml/sequencediagram/puma/PUnivers.java.html#46" target="_top" title="./../../../../../../.././qc/src/net/sourceforge/plantuml/sequencediagram/puma/PUnivers.java.html#46" xlink:actuate="onRequest" xlink:href="./../../../../../../.././qc/src/net/sourceforge/plantuml/sequencediagram/puma/PUnivers.java.html#46" xlink:show="new" xlink:title="./../../../../../../.././qc/src/net/sourceforge/plantuml/sequencediagram/puma/PUnivers.java.html#46" xlink:type="simple"><rect fill="#F1F1F1" height="10" style="stroke:none;stroke-width:1.0;" width="20" x="20.5" y="172.6484"/><ellipse cx="25.5" cy="177.6484" fill="#84BE84" rx="3" ry="3" style="stroke:#038048;stroke-width:1.0;"/></a><a href="./../../../../../../.././qc/src/net/sourceforge/plantuml/sequencediagram/puma/PUnivers.java.html#46" target="_top" title="./../../../../../../.././qc/src/net/sourceforge/plantuml/sequencediagram/puma/PUnivers.java.html#46" xlink:actuate="onRequest" xlink:href="./../../../../../../.././qc/src/net/sourceforge/plantuml/sequencediagram/puma/PUnivers.java.html#46" xlink:show="new" xlink:title="./../../../../../../.././qc/src/net/sourceforge/plantuml/sequencediagram/puma/PUnivers.java.html#46" xlink:type="simple"><text fill="#000000" font-family="sans-serif" font-size="14" lengthAdjust="spacing" textLength="259" x="34.5" y="180.9951">createPSegment(double) : PSegment</text></a><a href="./../../../../../../.././qc/src/net/sourceforge/plantuml/sequencediagram/puma/PUnivers.java.html#52" target="_top" title="./../../../../../../.././qc/src/net/sourceforge/plantuml/sequencediagram/puma/PUnivers.java.html#52" xlink:actuate="onRequest" xlink:href="./../../../../../../.././qc/src/net/sourceforge/plantuml/sequencediagram/puma/PUnivers.java.html#52" xlink:show="new" xlink:title="./../../../../../../.././qc/src/net/sourceforge/plantuml/sequencediagram/puma/PUnivers.java.html#52" xlink:type="simple"><rect fill="#F1F1F1" height="10" style="stroke:none;stroke-width:1.0;" width="20" x="20.5" y="188.9453"/><ellipse cx="25.5" cy="193.9453" fill="#84BE84" rx="3" ry="3" style="stroke:#038048;stroke-width:1.0;"/></a><a href="./../../../../../../.././qc/src/net/sourceforge/plantuml/sequencediagram/puma/PUnivers.java.html#52" target="_top" title="./../../../../../../.././qc/src/net/sourceforge/plantuml/sequencediagram/puma/PUnivers.java.html#52" xlink:actuate="onRequest" xlink:href="./../../../../../../.././qc/src/net/sourceforge/plantuml/sequencediagram/puma/PUnivers.java.html#52" xlink:show="new" xlink:title="./../../../../../../.././qc/src/net/sourceforge/plantuml/sequencediagram/puma/PUnivers.java.html#52" xlink:type="simple"><text fill="#000000" font-family="sans-serif" font-size="14" lengthAdjust="spacing" textLength="395" x="34.5" y="197.292">addFixedLink(PSegment;double;PSegment;double) : void</text></a><a href="./../../../../../../.././qc/src/net/sourceforge/plantuml/sequencediagram/puma/PUnivers.java.html#59" target="_top" title="./../../../../../../.././qc/src/net/sourceforge/plantuml/sequencediagram/puma/PUnivers.java.html#59" xlink:actuate="onRequest" xlink:href="./../../../../../../.././qc/src/net/sourceforge/plantuml/sequencediagram/puma/PUnivers.java.html#59" xlink:show="new" xlink:title="./../../../../../../.././qc/src/net/sourceforge/plantuml/sequencediagram/puma/PUnivers.java.html#59" xlink:type="simple"><rect fill="#F1F1F1" height="10" style="stroke:none;stroke-width:1.0;" width="20" x="20.5" y="205.2422"/><ellipse cx="25.5" cy="210.2422" fill="#84BE84" rx="3" ry="3" style="stroke:#038048;stroke-width:1.0;"/></a><a href="./../../../../../../.././qc/src/net/sourceforge/plantuml/sequencediagram/puma/PUnivers.java.html#59" target="_top" title="./../../../../../../.././qc/src/net/sourceforge/plantuml/sequencediagram/puma/PUnivers.java.html#59" xlink:actuate="onRequest" xlink:href="./../../../../../../.././qc/src/net/sourceforge/plantuml/sequencediagram/puma/PUnivers.java.html#59" xlink:show="new" xlink:title="./../../../../../../.././qc/src/net/sourceforge/plantuml/sequencediagram/puma/PUnivers.java.html#59" xlink:type="simple"><text fill="#000000" font-family="sans-serif" font-size="14" lengthAdjust="spacing" textLength="87" x="34.5" y="213.5889">solve() : void</text></a></g><path d="M225,81.2423 C225,93.5648 225,109.1711 225,123.9272 " fill="none" style="stroke:#181818;stroke-width:1.0;"/><polygon fill="#FFFFFF" points="225,81.2423,219,97.2423,231,97.2423,225,81.2423" style="stroke:#181818;stroke-width:1.0;"/><!--MD5=[0b541757e0744f2593b8318081f2d87c]
@startuml
!pragma layout smetana
"java.lang.Object" <|- - "net.sourceforge.plantuml.sequencediagram.puma.PUnivers"
class net.sourceforge.plantuml.sequencediagram.puma.PUnivers {
+createPSegment(double) : PSegment [[[./../../../../../../.././qc/src/net/sourceforge/plantuml/sequencediagram/puma/PUnivers.java.html#46]]]
+addFixedLink(PSegment;double;PSegment;double) : void [[[./../../../../../../.././qc/src/net/sourceforge/plantuml/sequencediagram/puma/PUnivers.java.html#52]]]
+solve() : void [[[./../../../../../../.././qc/src/net/sourceforge/plantuml/sequencediagram/puma/PUnivers.java.html#59]]]
} 
@enduml

PlantUML version 1.2022.7(Mon Aug 22 17:01:30 UTC 2022)
(GPL source distribution)
Java Runtime: OpenJDK Runtime Environment
JVM: OpenJDK 64-Bit Server VM
Default Encoding: UTF-8
Language: en
Country: null
--></g></svg>