<?xml version="1.0" encoding="UTF-8" standalone="no"?><svg xmlns="http://www.w3.org/2000/svg" xmlns:xlink="http://www.w3.org/1999/xlink" contentStyleType="text/css" height="234px" preserveAspectRatio="none" style="width:507px;height:234px;background:#FFFFFF;" version="1.1" viewBox="0 0 507 234" width="507px" zoomAndPan="magnify"><defs/><g><!--MD5=[6c6b0bd21b4859648a2aaeabccb62cd0]
cluster net.sourceforge.plantuml.wbs--><g id="cluster_net.sourceforge.plantuml.wbs"><path d="M8.5,63 L248.5,63 A3.75,3.75 0 0 1 251,65.5 L258,85.2969 L497.5,85.2969 A2.5,2.5 0 0 1 500,87.7969 L500,224.5 A2.5,2.5 0 0 1 497.5,227 L8.5,227 A2.5,2.5 0 0 1 6,224.5 L6,65.5 A2.5,2.5 0 0 1 8.5,63 " fill="none" style="stroke:#000000;stroke-width:1.5;"/><line style="stroke:#000000;stroke-width:1.5;" x1="6" x2="258" y1="85.2969" y2="85.2969"/><text fill="#000000" font-family="sans-serif" font-size="14" font-weight="bold" lengthAdjust="spacing" textLength="239" x="10" y="77.9951">net.sourceforge.plantuml.wbs</text></g><!--MD5=[f274e7f446eac6d3158f4838ea51976e]
class CommandMultilines2<WBSDiagram>--><g id="elem_CommandMultilines2&lt;WBSDiagram&gt;"><rect fill="#F1F1F1" height="48" id="CommandMultilines2&lt;WBSDiagram&gt;" rx="2.5" ry="2.5" style="stroke:#181818;stroke-width:0.5;" width="289" x="108.5" y="6"/><ellipse cx="123.5" cy="22" fill="#ADD1B2" rx="11" ry="11" style="stroke:#181818;stroke-width:1.0;"/><path d="M126.4688,27.6406 Q125.8906,27.9375 125.25,28.0781 Q124.6094,28.2344 123.9063,28.2344 Q121.4063,28.2344 120.0781,26.5938 Q118.7656,24.9375 118.7656,21.8125 Q118.7656,18.6875 120.0781,17.0313 Q121.4063,15.375 123.9063,15.375 Q124.6094,15.375 125.25,15.5313 Q125.9063,15.6875 126.4688,15.9844 L126.4688,18.7031 Q125.8438,18.125 125.25,17.8594 Q124.6563,17.5781 124.0313,17.5781 Q122.6875,17.5781 122,18.6563 Q121.3125,19.7188 121.3125,21.8125 Q121.3125,23.9063 122,24.9844 Q122.6875,26.0469 124.0313,26.0469 Q124.6563,26.0469 125.25,25.7813 Q125.8438,25.5 126.4688,24.9219 L126.4688,27.6406 Z " fill="#000000"/><text fill="#000000" font-family="sans-serif" font-size="14" lengthAdjust="spacing" textLength="257" x="137.5" y="26.8467">CommandMultilines2&lt;WBSDiagram&gt;</text><line style="stroke:#181818;stroke-width:0.5;" x1="109.5" x2="396.5" y1="38" y2="38"/><line style="stroke:#181818;stroke-width:0.5;" x1="109.5" x2="396.5" y1="46" y2="46"/></g><!--MD5=[dd774283201fc9c87e32f1fc62bcbc15]
class net.sourceforge.plantuml.wbs.CommandWBSItemMultiline--><g id="elem_net.sourceforge.plantuml.wbs.CommandWBSItemMultiline"><rect codeLine="3" fill="#F1F1F1" height="129.4844" id="net.sourceforge.plantuml.wbs.CommandWBSItemMultiline" rx="2.5" ry="2.5" style="stroke:#181818;stroke-width:0.5;" width="478" x="14" y="90"/><ellipse cx="154.25" cy="106" fill="#ADD1B2" rx="11" ry="11" style="stroke:#181818;stroke-width:1.0;"/><path d="M157.2188,111.6406 Q156.6406,111.9375 156,112.0781 Q155.3594,112.2344 154.6563,112.2344 Q152.1563,112.2344 150.8281,110.5938 Q149.5156,108.9375 149.5156,105.8125 Q149.5156,102.6875 150.8281,101.0313 Q152.1563,99.375 154.6563,99.375 Q155.3594,99.375 156,99.5313 Q156.6563,99.6875 157.2188,99.9844 L157.2188,102.7031 Q156.5938,102.125 156,101.8594 Q155.4063,101.5781 154.7813,101.5781 Q153.4375,101.5781 152.75,102.6563 Q152.0625,103.7188 152.0625,105.8125 Q152.0625,107.9063 152.75,108.9844 Q153.4375,110.0469 154.7813,110.0469 Q155.4063,110.0469 156,109.7813 Q156.5938,109.5 157.2188,108.9219 L157.2188,111.6406 Z " fill="#000000"/><text fill="#000000" font-family="sans-serif" font-size="14" lengthAdjust="spacing" textLength="189" x="174.75" y="110.8467">CommandWBSItemMultiline</text><line style="stroke:#181818;stroke-width:0.5;" x1="15" x2="491" y1="122" y2="122"/><line style="stroke:#181818;stroke-width:0.5;" x1="15" x2="491" y1="130" y2="130"/><a href="./../../../../../.././qc/src/net/sourceforge/plantuml/wbs/CommandWBSItemMultiline.java.html#59" target="_top" title="./../../../../../.././qc/src/net/sourceforge/plantuml/wbs/CommandWBSItemMultiline.java.html#59" xlink:actuate="onRequest" xlink:href="./../../../../../.././qc/src/net/sourceforge/plantuml/wbs/CommandWBSItemMultiline.java.html#59" xlink:show="new" xlink:title="./../../../../../.././qc/src/net/sourceforge/plantuml/wbs/CommandWBSItemMultiline.java.html#59" xlink:type="simple"><rect fill="#F1F1F1" height="10" style="stroke:none;stroke-width:1.0;" width="20" x="20" y="138.6484"/><ellipse cx="25" cy="143.6484" fill="#84BE84" rx="3" ry="3" style="stroke:#038048;stroke-width:1.0;"/></a><a href="./../../../../../.././qc/src/net/sourceforge/plantuml/wbs/CommandWBSItemMultiline.java.html#59" target="_top" title="./../../../../../.././qc/src/net/sourceforge/plantuml/wbs/CommandWBSItemMultiline.java.html#59" xlink:actuate="onRequest" xlink:href="./../../../../../.././qc/src/net/sourceforge/plantuml/wbs/CommandWBSItemMultiline.java.html#59" xlink:show="new" xlink:title="./../../../../../.././qc/src/net/sourceforge/plantuml/wbs/CommandWBSItemMultiline.java.html#59" xlink:type="simple"><text fill="#000000" font-family="sans-serif" font-size="14" lengthAdjust="spacing" textLength="401" x="34" y="146.9951">CommandWBSItemMultiline() : CommandWBSItemMultiline</text></a><a href="./../../../../../.././qc/src/net/sourceforge/plantuml/wbs/CommandWBSItemMultiline.java.html#63" target="_top" title="./../../../../../.././qc/src/net/sourceforge/plantuml/wbs/CommandWBSItemMultiline.java.html#63" xlink:actuate="onRequest" xlink:href="./../../../../../.././qc/src/net/sourceforge/plantuml/wbs/CommandWBSItemMultiline.java.html#63" xlink:show="new" xlink:title="./../../../../../.././qc/src/net/sourceforge/plantuml/wbs/CommandWBSItemMultiline.java.html#63" xlink:type="simple"><text fill="#000000" font-family="sans-serif" font-size="14" lengthAdjust="spacing" textLength="186" x="34" y="163.292">getRegexConcat() : IRegex</text></a><a href="./../../../../../.././qc/src/net/sourceforge/plantuml/wbs/CommandWBSItemMultiline.java.html#74" target="_top" title="./../../../../../.././qc/src/net/sourceforge/plantuml/wbs/CommandWBSItemMultiline.java.html#74" xlink:actuate="onRequest" xlink:href="./../../../../../.././qc/src/net/sourceforge/plantuml/wbs/CommandWBSItemMultiline.java.html#74" xlink:show="new" xlink:title="./../../../../../.././qc/src/net/sourceforge/plantuml/wbs/CommandWBSItemMultiline.java.html#74" xlink:type="simple"><rect fill="#F1F1F1" height="10" style="stroke:none;stroke-width:1.0;" width="20" x="20" y="171.2422"/><ellipse cx="25" cy="176.2422" fill="#84BE84" rx="3" ry="3" style="stroke:#038048;stroke-width:1.0;"/></a><a href="./../../../../../.././qc/src/net/sourceforge/plantuml/wbs/CommandWBSItemMultiline.java.html#74" target="_top" title="./../../../../../.././qc/src/net/sourceforge/plantuml/wbs/CommandWBSItemMultiline.java.html#74" xlink:actuate="onRequest" xlink:href="./../../../../../.././qc/src/net/sourceforge/plantuml/wbs/CommandWBSItemMultiline.java.html#74" xlink:show="new" xlink:title="./../../../../../.././qc/src/net/sourceforge/plantuml/wbs/CommandWBSItemMultiline.java.html#74" xlink:type="simple"><text fill="#000000" font-family="sans-serif" font-size="14" lengthAdjust="spacing" textLength="163" x="34" y="179.5889">getPatternEnd() : String</text></a><a href="./../../../../../.././qc/src/net/sourceforge/plantuml/wbs/CommandWBSItemMultiline.java.html#78" target="_top" title="./../../../../../.././qc/src/net/sourceforge/plantuml/wbs/CommandWBSItemMultiline.java.html#78" xlink:actuate="onRequest" xlink:href="./../../../../../.././qc/src/net/sourceforge/plantuml/wbs/CommandWBSItemMultiline.java.html#78" xlink:show="new" xlink:title="./../../../../../.././qc/src/net/sourceforge/plantuml/wbs/CommandWBSItemMultiline.java.html#78" xlink:type="simple"><text fill="#000000" font-family="sans-serif" font-size="14" lengthAdjust="spacing" textLength="209" x="34" y="195.8857">getRegexConcatOld() : IRegex</text></a><a href="./../../../../../.././qc/src/net/sourceforge/plantuml/wbs/CommandWBSItemMultiline.java.html#89" target="_top" title="./../../../../../.././qc/src/net/sourceforge/plantuml/wbs/CommandWBSItemMultiline.java.html#89" xlink:actuate="onRequest" xlink:href="./../../../../../.././qc/src/net/sourceforge/plantuml/wbs/CommandWBSItemMultiline.java.html#89" xlink:show="new" xlink:title="./../../../../../.././qc/src/net/sourceforge/plantuml/wbs/CommandWBSItemMultiline.java.html#89" xlink:type="simple"><text fill="#000000" font-family="sans-serif" font-size="14" lengthAdjust="spacing" textLength="452" x="34" y="212.1826">executeNow(WBSDiagram;BlocLines) : CommandExecutionResult</text></a></g><path d="M253,54.0413 C253,64.3681 253,77.1075 253,89.9808 " fill="none" style="stroke:#181818;stroke-width:1.0;"/><polygon fill="#FFFFFF" points="253,54.0413,247,70.0413,259,70.0413,253,54.0413" style="stroke:#181818;stroke-width:1.0;"/><!--MD5=[96649829a33b2163d587fb001c4ef381]
@startuml
!pragma layout smetana
"CommandMultilines2<WBSDiagram>" <|- - "net.sourceforge.plantuml.wbs.CommandWBSItemMultiline"
class net.sourceforge.plantuml.wbs.CommandWBSItemMultiline {
+CommandWBSItemMultiline() : CommandWBSItemMultiline [[[./../../../../../.././qc/src/net/sourceforge/plantuml/wbs/CommandWBSItemMultiline.java.html#59]]]
getRegexConcat() : IRegex [[[./../../../../../.././qc/src/net/sourceforge/plantuml/wbs/CommandWBSItemMultiline.java.html#63]]]
+getPatternEnd() : String [[[./../../../../../.././qc/src/net/sourceforge/plantuml/wbs/CommandWBSItemMultiline.java.html#74]]]
getRegexConcatOld() : IRegex [[[./../../../../../.././qc/src/net/sourceforge/plantuml/wbs/CommandWBSItemMultiline.java.html#78]]]
executeNow(WBSDiagram;BlocLines) : CommandExecutionResult [[[./../../../../../.././qc/src/net/sourceforge/plantuml/wbs/CommandWBSItemMultiline.java.html#89]]]
} 
@enduml

PlantUML version 1.2022.7(Mon Aug 22 17:01:30 UTC 2022)
(GPL source distribution)
Java Runtime: OpenJDK Runtime Environment
JVM: OpenJDK 64-Bit Server VM
Default Encoding: UTF-8
Language: en
Country: null
--></g></svg>