<?xml version="1.0" encoding="UTF-8" standalone="no"?><svg xmlns="http://www.w3.org/2000/svg" xmlns:xlink="http://www.w3.org/1999/xlink" contentStyleType="text/css" height="186px" preserveAspectRatio="none" style="width:859px;height:186px;background:#FFFFFF;" version="1.1" viewBox="0 0 859 186" width="859px" zoomAndPan="magnify"><defs/><g><!--MD5=[f22aa1276fcfb3c4d42eb5887263dd81]
cluster net.sourceforge.plantuml.ugraphic.comp--><g id="cluster_net.sourceforge.plantuml.ugraphic.comp"><path d="M8.5,63 L332.5,63 A3.75,3.75 0 0 1 335,65.5 L342,85.2969 L849.5,85.2969 A2.5,2.5 0 0 1 852,87.7969 L852,176.5 A2.5,2.5 0 0 1 849.5,179 L8.5,179 A2.5,2.5 0 0 1 6,176.5 L6,65.5 A2.5,2.5 0 0 1 8.5,63 " fill="none" style="stroke:#000000;stroke-width:1.5;"/><line style="stroke:#000000;stroke-width:1.5;" x1="6" x2="342" y1="85.2969" y2="85.2969"/><text fill="#000000" font-family="sans-serif" font-size="14" font-weight="bold" lengthAdjust="spacing" textLength="323" x="10" y="77.9951">net.sourceforge.plantuml.ugraphic.comp</text></g><!--MD5=[04e023cf7c6fe957059b06d8d0ffd142]
class PiecewiseAffineTransform--><g id="elem_PiecewiseAffineTransform"><rect fill="#F1F1F1" height="48" id="PiecewiseAffineTransform" rx="2.5" ry="2.5" style="stroke:#181818;stroke-width:0.5;" width="209" x="324.5" y="6"/><ellipse cx="339.5" cy="22" fill="#ADD1B2" rx="11" ry="11" style="stroke:#181818;stroke-width:1.0;"/><path d="M342.4688,27.6406 Q341.8906,27.9375 341.25,28.0781 Q340.6094,28.2344 339.9063,28.2344 Q337.4063,28.2344 336.0781,26.5938 Q334.7656,24.9375 334.7656,21.8125 Q334.7656,18.6875 336.0781,17.0313 Q337.4063,15.375 339.9063,15.375 Q340.6094,15.375 341.25,15.5313 Q341.9063,15.6875 342.4688,15.9844 L342.4688,18.7031 Q341.8438,18.125 341.25,17.8594 Q340.6563,17.5781 340.0313,17.5781 Q338.6875,17.5781 338,18.6563 Q337.3125,19.7188 337.3125,21.8125 Q337.3125,23.9063 338,24.9844 Q338.6875,26.0469 340.0313,26.0469 Q340.6563,26.0469 341.25,25.7813 Q341.8438,25.5 342.4688,24.9219 L342.4688,27.6406 Z " fill="#000000"/><text fill="#000000" font-family="sans-serif" font-size="14" lengthAdjust="spacing" textLength="177" x="353.5" y="26.8467">PiecewiseAffineTransform</text><line style="stroke:#181818;stroke-width:0.5;" x1="325.5" x2="532.5" y1="38" y2="38"/><line style="stroke:#181818;stroke-width:0.5;" x1="325.5" x2="532.5" y1="46" y2="46"/></g><!--MD5=[0bc2eaa3ce92f08d97c8e167b0f282dd]
class net.sourceforge.plantuml.ugraphic.comp.PiecewiseAffineComposition--><g id="elem_net.sourceforge.plantuml.ugraphic.comp.PiecewiseAffineComposition"><rect codeLine="3" fill="#F1F1F1" height="80.5938" id="net.sourceforge.plantuml.ugraphic.comp.PiecewiseAffineComposition" rx="2.5" ry="2.5" style="stroke:#181818;stroke-width:0.5;" width="830" x="14" y="90"/><ellipse cx="327.75" cy="106" fill="#ADD1B2" rx="11" ry="11" style="stroke:#181818;stroke-width:1.0;"/><path d="M330.7188,111.6406 Q330.1406,111.9375 329.5,112.0781 Q328.8594,112.2344 328.1563,112.2344 Q325.6563,112.2344 324.3281,110.5938 Q323.0156,108.9375 323.0156,105.8125 Q323.0156,102.6875 324.3281,101.0313 Q325.6563,99.375 328.1563,99.375 Q328.8594,99.375 329.5,99.5313 Q330.1563,99.6875 330.7188,99.9844 L330.7188,102.7031 Q330.0938,102.125 329.5,101.8594 Q328.9063,101.5781 328.2813,101.5781 Q326.9375,101.5781 326.25,102.6563 Q325.5625,103.7188 325.5625,105.8125 Q325.5625,107.9063 326.25,108.9844 Q326.9375,110.0469 328.2813,110.0469 Q328.9063,110.0469 329.5,109.7813 Q330.0938,109.5 330.7188,108.9219 L330.7188,111.6406 Z " fill="#000000"/><text fill="#000000" font-family="sans-serif" font-size="14" lengthAdjust="spacing" textLength="194" x="348.25" y="110.8467">PiecewiseAffineComposition</text><line style="stroke:#181818;stroke-width:0.5;" x1="15" x2="843" y1="122" y2="122"/><line style="stroke:#181818;stroke-width:0.5;" x1="15" x2="843" y1="130" y2="130"/><a href="./../../../../../../.././qc/src/net/sourceforge/plantuml/ugraphic/comp/PiecewiseAffineComposition.java.html#43" target="_top" title="./../../../../../../.././qc/src/net/sourceforge/plantuml/ugraphic/comp/PiecewiseAffineComposition.java.html#43" xlink:actuate="onRequest" xlink:href="./../../../../../../.././qc/src/net/sourceforge/plantuml/ugraphic/comp/PiecewiseAffineComposition.java.html#43" xlink:show="new" xlink:title="./../../../../../../.././qc/src/net/sourceforge/plantuml/ugraphic/comp/PiecewiseAffineComposition.java.html#43" xlink:type="simple"><rect fill="#F1F1F1" height="10" style="stroke:none;stroke-width:1.0;" width="20" x="20" y="138.6484"/><ellipse cx="25" cy="143.6484" fill="#84BE84" rx="3" ry="3" style="stroke:#038048;stroke-width:1.0;"/></a><a href="./../../../../../../.././qc/src/net/sourceforge/plantuml/ugraphic/comp/PiecewiseAffineComposition.java.html#43" target="_top" title="./../../../../../../.././qc/src/net/sourceforge/plantuml/ugraphic/comp/PiecewiseAffineComposition.java.html#43" xlink:actuate="onRequest" xlink:href="./../../../../../../.././qc/src/net/sourceforge/plantuml/ugraphic/comp/PiecewiseAffineComposition.java.html#43" xlink:show="new" xlink:title="./../../../../../../.././qc/src/net/sourceforge/plantuml/ugraphic/comp/PiecewiseAffineComposition.java.html#43" xlink:type="simple"><text fill="#000000" font-family="sans-serif" font-size="14" lengthAdjust="spacing" textLength="804" x="34" y="146.9951">PiecewiseAffineComposition(PiecewiseAffineComposition;PiecewiseAffineComposition) : PiecewiseAffineComposition</text></a><a href="./../../../../../../.././qc/src/net/sourceforge/plantuml/ugraphic/comp/PiecewiseAffineComposition.java.html#48" target="_top" title="./../../../../../../.././qc/src/net/sourceforge/plantuml/ugraphic/comp/PiecewiseAffineComposition.java.html#48" xlink:actuate="onRequest" xlink:href="./../../../../../../.././qc/src/net/sourceforge/plantuml/ugraphic/comp/PiecewiseAffineComposition.java.html#48" xlink:show="new" xlink:title="./../../../../../../.././qc/src/net/sourceforge/plantuml/ugraphic/comp/PiecewiseAffineComposition.java.html#48" xlink:type="simple"><rect fill="#F1F1F1" height="10" style="stroke:none;stroke-width:1.0;" width="20" x="20" y="154.9453"/><ellipse cx="25" cy="159.9453" fill="#84BE84" rx="3" ry="3" style="stroke:#038048;stroke-width:1.0;"/></a><a href="./../../../../../../.././qc/src/net/sourceforge/plantuml/ugraphic/comp/PiecewiseAffineComposition.java.html#48" target="_top" title="./../../../../../../.././qc/src/net/sourceforge/plantuml/ugraphic/comp/PiecewiseAffineComposition.java.html#48" xlink:actuate="onRequest" xlink:href="./../../../../../../.././qc/src/net/sourceforge/plantuml/ugraphic/comp/PiecewiseAffineComposition.java.html#48" xlink:show="new" xlink:title="./../../../../../../.././qc/src/net/sourceforge/plantuml/ugraphic/comp/PiecewiseAffineComposition.java.html#48" xlink:type="simple"><text fill="#000000" font-family="sans-serif" font-size="14" lengthAdjust="spacing" textLength="185" x="34" y="163.292">transform(double) : double</text></a></g><path d="M429,54.0939 C429,64.784 429,77.7904 429,89.9706 " fill="none" style="stroke:#181818;stroke-width:1.0;"/><polygon fill="#FFFFFF" points="429,54.0939,423,70.0939,435,70.0939,429,54.0939" style="stroke:#181818;stroke-width:1.0;"/><!--MD5=[4b64f41608eb95859f74e48347ce05da]
@startuml
!pragma layout smetana
"PiecewiseAffineTransform" <|- - "net.sourceforge.plantuml.ugraphic.comp.PiecewiseAffineComposition"
class net.sourceforge.plantuml.ugraphic.comp.PiecewiseAffineComposition {
+PiecewiseAffineComposition(PiecewiseAffineComposition;PiecewiseAffineComposition) : PiecewiseAffineComposition [[[./../../../../../../.././qc/src/net/sourceforge/plantuml/ugraphic/comp/PiecewiseAffineComposition.java.html#43]]]
+transform(double) : double [[[./../../../../../../.././qc/src/net/sourceforge/plantuml/ugraphic/comp/PiecewiseAffineComposition.java.html#48]]]
} 
@enduml

PlantUML version 1.2022.7(Mon Aug 22 17:01:30 UTC 2022)
(GPL source distribution)
Java Runtime: OpenJDK Runtime Environment
JVM: OpenJDK 64-Bit Server VM
Default Encoding: UTF-8
Language: en
Country: null
--></g></svg>