<?xml version="1.0" encoding="UTF-8" standalone="no"?><svg xmlns="http://www.w3.org/2000/svg" xmlns:xlink="http://www.w3.org/1999/xlink" contentStyleType="text/css" height="1643px" preserveAspectRatio="none" style="width:901px;height:1643px;background:#FFFFFF;" version="1.1" viewBox="0 0 901 1643" width="901px" zoomAndPan="magnify"><defs/><g><path d="M448,10 L448,18.5664 L428,22.5664 L448,26.5664 L448,35.1328 A0,0 0 0 0 448,35.1328 L792,35.1328 A0,0 0 0 0 792,35.1328 L792,20 L782,10 L448,10 A0,0 0 0 0 448,10 " fill="#FEFFDD" style="stroke:#181818;stroke-width:0.5;"/><path d="M782,10 L782,20 L792,20 L782,10 " fill="#FEFFDD" style="stroke:#181818;stroke-width:0.5;"/><text fill="#000000" font-family="sans-serif" font-size="13" lengthAdjust="spacing" textLength="323" x="454" y="27.0669">constructor CommandMindMapOrgmodeMultiline()</text><ellipse cx="418" cy="22.5664" fill="#222222" rx="10" ry="10" style="stroke:#222222;stroke-width:1.0;"/><rect fill="#F1F1F1" height="47.9375" rx="12.5" ry="12.5" style="stroke:#181818;stroke-width:0.5;" width="465" x="185.5" y="55.1328"/><text fill="#000000" font-family="sans-serif" font-size="12" lengthAdjust="spacing" textLength="445" x="195.5" y="76.2715">super (getRegexConcat(),MultilinesStrategy.REMOVE_STARTING_QUOTE,</text><text fill="#000000" font-family="sans-serif" font-size="12" lengthAdjust="spacing" textLength="72" x="195.5" y="90.2402">Trim.BOTH);</text><ellipse cx="418" cy="133.0703" fill="none" rx="10" ry="10" style="stroke:#222222;stroke-width:1.5;"/><line style="stroke:#222222;stroke-width:2.5;" x1="411.8128" x2="424.1872" y1="126.8831" y2="139.2575"/><line style="stroke:#222222;stroke-width:2.5;" x1="424.1872" x2="411.8128" y1="126.8831" y2="139.2575"/><path d="M448,153.0703 L448,161.6367 L428,165.6367 L448,169.6367 L448,178.2031 A0,0 0 0 0 448,178.2031 L626,178.2031 A0,0 0 0 0 626,178.2031 L626,163.0703 L616,153.0703 L448,153.0703 A0,0 0 0 0 448,153.0703 " fill="#FEFFDD" style="stroke:#181818;stroke-width:0.5;"/><path d="M616,153.0703 L616,163.0703 L626,163.0703 L616,153.0703 " fill="#FEFFDD" style="stroke:#181818;stroke-width:0.5;"/><text fill="#000000" font-family="sans-serif" font-size="13" lengthAdjust="spacing" textLength="157" x="454" y="170.1372">IRegexgetRegexConcat()</text><ellipse cx="418" cy="165.6367" fill="#222222" rx="10" ry="10" style="stroke:#222222;stroke-width:1.0;"/><rect fill="#F1F1F1" height="75.875" rx="12.5" ry="12.5" style="stroke:#181818;stroke-width:0.5;" width="814" x="11" y="198.2031"/><text fill="#000000" font-family="sans-serif" font-size="12" lengthAdjust="spacing" textLength="794" x="21" y="219.3418">return RegexConcat.build(CommandMindMapOrgmodeMultiline.class .getName(),RegexLeaf.start(),new RegexLeaf("TYPE","([*]+</text><text fill="#000000" font-family="sans-serif" font-size="12" lengthAdjust="spacing" textLength="386" x="21" y="233.3105">)"),new RegexOptional(new RegexLeaf("BACKCOLOR","\\[(#\\w+</text><text fill="#000000" font-family="sans-serif" font-size="12" lengthAdjust="spacing" textLength="352" x="21" y="247.2793">)\\]")),new RegexLeaf("SHAPE","(_)?"),new RegexLeaf(":"),</text><text fill="#000000" font-family="sans-serif" font-size="12" lengthAdjust="spacing" textLength="294" x="21" y="261.248">new RegexLeaf("DATA","(.*)"),RegexLeaf.end());</text><ellipse cx="418" cy="305.0781" fill="none" rx="11" ry="11" style="stroke:#222222;stroke-width:1.0;"/><ellipse cx="418" cy="305.0781" fill="#222222" rx="6" ry="6" style="stroke:#111111;stroke-width:1.0;"/><ellipse cx="418" cy="336.0781" fill="none" rx="10" ry="10" style="stroke:#222222;stroke-width:1.5;"/><line style="stroke:#222222;stroke-width:2.5;" x1="411.8128" x2="424.1872" y1="329.8909" y2="342.2653"/><line style="stroke:#222222;stroke-width:2.5;" x1="424.1872" x2="411.8128" y1="329.8909" y2="342.2653"/><path d="M448,356.0781 L448,364.6445 L428,368.6445 L448,372.6445 L448,381.2109 A0,0 0 0 0 448,381.2109 L609,381.2109 A0,0 0 0 0 609,381.2109 L609,366.0781 L599,356.0781 L448,356.0781 A0,0 0 0 0 448,356.0781 " fill="#FEFFDD" style="stroke:#181818;stroke-width:0.5;"/><path d="M599,356.0781 L599,366.0781 L609,366.0781 L599,356.0781 " fill="#FEFFDD" style="stroke:#181818;stroke-width:0.5;"/><text fill="#000000" font-family="sans-serif" font-size="13" lengthAdjust="spacing" textLength="140" x="454" y="373.145">StringgetPatternEnd()</text><ellipse cx="418" cy="368.6445" fill="#222222" rx="10" ry="10" style="stroke:#222222;stroke-width:1.0;"/><rect fill="#F1F1F1" height="33.9688" rx="12.5" ry="12.5" style="stroke:#181818;stroke-width:0.5;" width="242" x="297" y="401.2109"/><text fill="#000000" font-family="sans-serif" font-size="12" lengthAdjust="spacing" textLength="222" x="307" y="422.3496">return "^(.*);(?:\s*\&lt;\&lt;(.+)\&gt;\&gt;)?$";</text><ellipse cx="418" cy="466.1797" fill="none" rx="11" ry="11" style="stroke:#222222;stroke-width:1.0;"/><ellipse cx="418" cy="466.1797" fill="#222222" rx="6" ry="6" style="stroke:#111111;stroke-width:1.0;"/><ellipse cx="418" cy="497.1797" fill="none" rx="10" ry="10" style="stroke:#222222;stroke-width:1.5;"/><line style="stroke:#222222;stroke-width:2.5;" x1="411.8128" x2="424.1872" y1="490.9925" y2="503.3669"/><line style="stroke:#222222;stroke-width:2.5;" x1="424.1872" x2="411.8128" y1="490.9925" y2="503.3669"/><path d="M448,517.1797 L448,533.3125 L428,537.3125 L448,541.3125 L448,557.4453 A0,0 0 0 0 448,557.4453 L889,557.4453 A0,0 0 0 0 889,557.4453 L889,527.1797 L879,517.1797 L448,517.1797 A0,0 0 0 0 448,517.1797 " fill="#FEFFDD" style="stroke:#181818;stroke-width:0.5;"/><path d="M879,517.1797 L879,527.1797 L889,527.1797 L879,517.1797 " fill="#FEFFDD" style="stroke:#181818;stroke-width:0.5;"/><text fill="#000000" font-family="sans-serif" font-size="13" lengthAdjust="spacing" textLength="420" x="454" y="534.2466">CommandExecutionResultexecuteNow(MindMapDiagramdiagram,</text><text fill="#000000" font-family="sans-serif" font-size="13" lengthAdjust="spacing" textLength="94" x="454" y="549.3794">BlocLineslines)</text><ellipse cx="418" cy="537.3125" fill="#222222" rx="10" ry="10" style="stroke:#222222;stroke-width:1.0;"/><rect fill="#F1F1F1" height="47.9375" rx="12.5" ry="12.5" style="stroke:#181818;stroke-width:0.5;" width="341" x="247.5" y="577.4453"/><text fill="#000000" font-family="sans-serif" font-size="12" lengthAdjust="spacing" textLength="275" x="257.5" y="598.584">final RegexResultline0=getStartingPattern()</text><text fill="#000000" font-family="sans-serif" font-size="12" lengthAdjust="spacing" textLength="321" x="257.5" y="612.5527">.matcher(lines.getFirst().getTrimmed().getString());</text><rect fill="#F1F1F1" height="47.9375" rx="12.5" ry="12.5" style="stroke:#181818;stroke-width:0.5;" width="530" x="153" y="645.3828"/><text fill="#000000" font-family="sans-serif" font-size="12" lengthAdjust="spacing" textLength="510" x="163" y="666.5215">final List&lt;String&gt;lineLast=StringUtils.getSplit(MyPattern.cmpile(getPatternEnd()),</text><text fill="#000000" font-family="sans-serif" font-size="12" lengthAdjust="spacing" textLength="171" x="163" y="680.4902">lines.getLast().getString());</text><rect fill="#F1F1F1" height="47.9375" rx="12.5" ry="12.5" style="stroke:#181818;stroke-width:0.5;" width="366" x="235" y="713.3203"/><text fill="#000000" font-family="sans-serif" font-size="12" lengthAdjust="spacing" textLength="346" x="245" y="734.459">lines=lines.removeStartingAndEnding(line0.get("DATA",</text><text fill="#000000" font-family="sans-serif" font-size="12" lengthAdjust="spacing" textLength="34" x="245" y="748.4277">0),1);</text><rect fill="#F1F1F1" height="33.9688" rx="12.5" ry="12.5" style="stroke:#181818;stroke-width:0.5;" width="260" x="288" y="781.2578"/><text fill="#000000" font-family="sans-serif" font-size="12" lengthAdjust="spacing" textLength="240" x="298" y="802.3965">final Stringstereotype=lineLast.get(1);</text><rect fill="#F1F1F1" height="33.9688" rx="12.5" ry="12.5" style="stroke:#181818;stroke-width:0.5;" width="299" x="268.5" y="883.6289"/><text fill="#000000" font-family="sans-serif" font-size="12" lengthAdjust="spacing" textLength="279" x="278.5" y="904.7676">lines=lines.overrideLastLine(lineLast.get(0));</text><polygon fill="#F1F1F1" points="369.5,835.2266,466.5,835.2266,478.5,847.2266,466.5,859.2266,369.5,859.2266,357.5,847.2266,369.5,835.2266" style="stroke:#181818;stroke-width:0.5;"/><text fill="#000000" font-family="sans-serif" font-size="11" lengthAdjust="spacing" textLength="20" x="422" y="869.437">yes</text><text fill="#000000" font-family="sans-serif" font-size="11" lengthAdjust="spacing" textLength="93" x="369.5" y="851.0347">stereotype!=null</text><polygon fill="#F1F1F1" points="418,937.5977,430,949.5977,418,961.5977,406,949.5977,418,937.5977" style="stroke:#181818;stroke-width:0.5;"/><rect fill="#F1F1F1" height="33.9688" rx="12.5" ry="12.5" style="stroke:#181818;stroke-width:0.5;" width="245" x="295.5" y="981.5977"/><text fill="#000000" font-family="sans-serif" font-size="12" lengthAdjust="spacing" textLength="225" x="305.5" y="1002.7363">final Stringtype=line0.get("TYPE",0);</text><rect fill="#F1F1F1" height="33.9688" rx="12.5" ry="12.5" style="stroke:#181818;stroke-width:0.5;" width="327" x="254.5" y="1035.5664"/><text fill="#000000" font-family="sans-serif" font-size="12" lengthAdjust="spacing" textLength="307" x="264.5" y="1056.7051">final StringstringColor=line0.get("BACKCOLOR",0);</text><rect fill="#F1F1F1" height="33.9688" rx="12.5" ry="12.5" style="stroke:#181818;stroke-width:0.5;" width="163" x="336.5" y="1089.5352"/><text fill="#000000" font-family="sans-serif" font-size="12" lengthAdjust="spacing" textLength="143" x="346.5" y="1110.6738">HColorbackColor=null ;</text><rect fill="#F1F1F1" height="47.9375" rx="12.5" ry="12.5" style="stroke:#181818;stroke-width:0.5;" width="363" x="236.5" y="1191.9063"/><text fill="#000000" font-family="sans-serif" font-size="12" lengthAdjust="spacing" textLength="343" x="246.5" y="1213.0449">backColor=diagram.getSkinParam().getIHtmlColorSet()</text><text fill="#000000" font-family="sans-serif" font-size="12" lengthAdjust="spacing" textLength="139" x="246.5" y="1227.0137">.getColor(stringColor);</text><polygon fill="#F1F1F1" points="368.5,1143.5039,467.5,1143.5039,479.5,1155.5039,467.5,1167.5039,368.5,1167.5039,356.5,1155.5039,368.5,1143.5039" style="stroke:#181818;stroke-width:0.5;"/><text fill="#000000" font-family="sans-serif" font-size="11" lengthAdjust="spacing" textLength="20" x="422" y="1177.7144">yes</text><text fill="#000000" font-family="sans-serif" font-size="11" lengthAdjust="spacing" textLength="95" x="368.5" y="1159.312">stringColor!=null</text><polygon fill="#F1F1F1" points="418,1259.8438,430,1271.8438,418,1283.8438,406,1271.8438,418,1259.8438" style="stroke:#181818;stroke-width:0.5;"/><rect fill="#F1F1F1" height="61.9063" rx="12.5" ry="12.5" style="stroke:#181818;stroke-width:0.5;" width="374" x="231" y="1352.2461"/><text fill="#000000" font-family="sans-serif" font-size="12" lengthAdjust="spacing" textLength="317" x="241" y="1373.3848">return diagram.addIdea(backColor,type.length()-1,</text><text fill="#000000" font-family="sans-serif" font-size="12" lengthAdjust="spacing" textLength="354" x="241" y="1387.3535">lines.toDisplay(),IdeaShape.fromDesc(line0.get("SHAPE",</text><text fill="#000000" font-family="sans-serif" font-size="12" lengthAdjust="spacing" textLength="27" x="241" y="1401.3223">0)));</text><ellipse cx="418" cy="1445.1523" fill="none" rx="11" ry="11" style="stroke:#222222;stroke-width:1.0;"/><ellipse cx="418" cy="1445.1523" fill="#222222" rx="6" ry="6" style="stroke:#111111;stroke-width:1.0;"/><polygon fill="#F1F1F1" points="366.5,1303.8438,469.5,1303.8438,481.5,1315.8438,469.5,1327.8438,366.5,1327.8438,354.5,1315.8438,366.5,1303.8438" style="stroke:#181818;stroke-width:0.5;"/><text fill="#000000" font-family="sans-serif" font-size="11" lengthAdjust="spacing" textLength="20" x="422" y="1338.0542">yes</text><text fill="#000000" font-family="sans-serif" font-size="11" lengthAdjust="spacing" textLength="99" x="366.5" y="1319.6519">stereotype==null</text><rect fill="#F1F1F1" height="61.9063" rx="12.5" ry="12.5" style="stroke:#181818;stroke-width:0.5;" width="471" x="182.5" y="1498.1523"/><text fill="#000000" font-family="sans-serif" font-size="12" lengthAdjust="spacing" textLength="292" x="192.5" y="1519.291">return diagram.addIdea(stereotype,backColor,</text><text fill="#000000" font-family="sans-serif" font-size="12" lengthAdjust="spacing" textLength="451" x="192.5" y="1533.2598">type.length()-1,lines.toDisplay(),IdeaShape.fromDesc(line0.get("SHAPE",</text><text fill="#000000" font-family="sans-serif" font-size="12" lengthAdjust="spacing" textLength="27" x="192.5" y="1547.2285">0)));</text><ellipse cx="418" cy="1591.0586" fill="none" rx="11" ry="11" style="stroke:#222222;stroke-width:1.0;"/><ellipse cx="418" cy="1591.0586" fill="#222222" rx="6" ry="6" style="stroke:#111111;stroke-width:1.0;"/><ellipse cx="418" cy="1622.0586" fill="none" rx="10" ry="10" style="stroke:#222222;stroke-width:1.5;"/><line style="stroke:#222222;stroke-width:2.5;" x1="411.8128" x2="424.1872" y1="1615.8714" y2="1628.2458"/><line style="stroke:#222222;stroke-width:2.5;" x1="424.1872" x2="411.8128" y1="1615.8714" y2="1628.2458"/><line style="stroke:#181818;stroke-width:1.0;" x1="418" x2="418" y1="32.5664" y2="55.1328"/><polygon fill="#181818" points="414,45.1328,418,55.1328,422,45.1328,418,49.1328" style="stroke:#181818;stroke-width:1.0;"/><line style="stroke:#181818;stroke-width:1.0;" x1="418" x2="418" y1="103.0703" y2="123.0703"/><polygon fill="#181818" points="414,113.0703,418,123.0703,422,113.0703,418,117.0703" style="stroke:#181818;stroke-width:1.0;"/><line style="stroke:#181818;stroke-width:1.0;" x1="418" x2="418" y1="175.6367" y2="198.2031"/><polygon fill="#181818" points="414,188.2031,418,198.2031,422,188.2031,418,192.2031" style="stroke:#181818;stroke-width:1.0;"/><line style="stroke:#181818;stroke-width:1.0;" x1="418" x2="418" y1="274.0781" y2="294.0781"/><polygon fill="#181818" points="414,284.0781,418,294.0781,422,284.0781,418,288.0781" style="stroke:#181818;stroke-width:1.0;"/><line style="stroke:#181818;stroke-width:1.0;" x1="418" x2="418" y1="378.6445" y2="401.2109"/><polygon fill="#181818" points="414,391.2109,418,401.2109,422,391.2109,418,395.2109" style="stroke:#181818;stroke-width:1.0;"/><line style="stroke:#181818;stroke-width:1.0;" x1="418" x2="418" y1="435.1797" y2="455.1797"/><polygon fill="#181818" points="414,445.1797,418,455.1797,422,445.1797,418,449.1797" style="stroke:#181818;stroke-width:1.0;"/><line style="stroke:#181818;stroke-width:1.0;" x1="418" x2="418" y1="547.3125" y2="577.4453"/><polygon fill="#181818" points="414,567.4453,418,577.4453,422,567.4453,418,571.4453" style="stroke:#181818;stroke-width:1.0;"/><line style="stroke:#181818;stroke-width:1.0;" x1="418" x2="418" y1="625.3828" y2="645.3828"/><polygon fill="#181818" points="414,635.3828,418,645.3828,422,635.3828,418,639.3828" style="stroke:#181818;stroke-width:1.0;"/><line style="stroke:#181818;stroke-width:1.0;" x1="418" x2="418" y1="693.3203" y2="713.3203"/><polygon fill="#181818" points="414,703.3203,418,713.3203,422,703.3203,418,707.3203" style="stroke:#181818;stroke-width:1.0;"/><line style="stroke:#181818;stroke-width:1.0;" x1="418" x2="418" y1="761.2578" y2="781.2578"/><polygon fill="#181818" points="414,771.2578,418,781.2578,422,771.2578,418,775.2578" style="stroke:#181818;stroke-width:1.0;"/><line style="stroke:#181818;stroke-width:1.0;" x1="418" x2="418" y1="859.2266" y2="883.6289"/><polygon fill="#181818" points="414,873.6289,418,883.6289,422,873.6289,418,877.6289" style="stroke:#181818;stroke-width:1.0;"/><line style="stroke:#181818;stroke-width:1.0;" x1="478.5" x2="577.5" y1="847.2266" y2="847.2266"/><polygon fill="#181818" points="573.5,890.6133,577.5,900.6133,581.5,890.6133,577.5,894.6133" style="stroke:#181818;stroke-width:1.0;"/><line style="stroke:#181818;stroke-width:1.0;" x1="577.5" x2="577.5" y1="847.2266" y2="949.5977"/><line style="stroke:#181818;stroke-width:1.0;" x1="577.5" x2="430" y1="949.5977" y2="949.5977"/><polygon fill="#181818" points="440,945.5977,430,949.5977,440,953.5977,436,949.5977" style="stroke:#181818;stroke-width:1.0;"/><line style="stroke:#181818;stroke-width:1.0;" x1="418" x2="418" y1="917.5977" y2="937.5977"/><polygon fill="#181818" points="414,927.5977,418,937.5977,422,927.5977,418,931.5977" style="stroke:#181818;stroke-width:1.0;"/><line style="stroke:#181818;stroke-width:1.0;" x1="418" x2="418" y1="815.2266" y2="835.2266"/><polygon fill="#181818" points="414,825.2266,418,835.2266,422,825.2266,418,829.2266" style="stroke:#181818;stroke-width:1.0;"/><line style="stroke:#181818;stroke-width:1.0;" x1="418" x2="418" y1="961.5977" y2="981.5977"/><polygon fill="#181818" points="414,971.5977,418,981.5977,422,971.5977,418,975.5977" style="stroke:#181818;stroke-width:1.0;"/><line style="stroke:#181818;stroke-width:1.0;" x1="418" x2="418" y1="1015.5664" y2="1035.5664"/><polygon fill="#181818" points="414,1025.5664,418,1035.5664,422,1025.5664,418,1029.5664" style="stroke:#181818;stroke-width:1.0;"/><line style="stroke:#181818;stroke-width:1.0;" x1="418" x2="418" y1="1069.5352" y2="1089.5352"/><polygon fill="#181818" points="414,1079.5352,418,1089.5352,422,1079.5352,418,1083.5352" style="stroke:#181818;stroke-width:1.0;"/><line style="stroke:#181818;stroke-width:1.0;" x1="418" x2="418" y1="1167.5039" y2="1191.9063"/><polygon fill="#181818" points="414,1181.9063,418,1191.9063,422,1181.9063,418,1185.9063" style="stroke:#181818;stroke-width:1.0;"/><line style="stroke:#181818;stroke-width:1.0;" x1="479.5" x2="609.5" y1="1155.5039" y2="1155.5039"/><polygon fill="#181818" points="605.5,1205.875,609.5,1215.875,613.5,1205.875,609.5,1209.875" style="stroke:#181818;stroke-width:1.0;"/><line style="stroke:#181818;stroke-width:1.0;" x1="609.5" x2="609.5" y1="1155.5039" y2="1271.8438"/><line style="stroke:#181818;stroke-width:1.0;" x1="609.5" x2="430" y1="1271.8438" y2="1271.8438"/><polygon fill="#181818" points="440,1267.8438,430,1271.8438,440,1275.8438,436,1271.8438" style="stroke:#181818;stroke-width:1.0;"/><line style="stroke:#181818;stroke-width:1.0;" x1="418" x2="418" y1="1239.8438" y2="1259.8438"/><polygon fill="#181818" points="414,1249.8438,418,1259.8438,422,1249.8438,418,1253.8438" style="stroke:#181818;stroke-width:1.0;"/><line style="stroke:#181818;stroke-width:1.0;" x1="418" x2="418" y1="1123.5039" y2="1143.5039"/><polygon fill="#181818" points="414,1133.5039,418,1143.5039,422,1133.5039,418,1137.5039" style="stroke:#181818;stroke-width:1.0;"/><line style="stroke:#181818;stroke-width:1.0;" x1="418" x2="418" y1="1414.1523" y2="1434.1523"/><polygon fill="#181818" points="414,1424.1523,418,1434.1523,422,1424.1523,418,1428.1523" style="stroke:#181818;stroke-width:1.0;"/><line style="stroke:#181818;stroke-width:1.0;" x1="418" x2="418" y1="1327.8438" y2="1352.2461"/><polygon fill="#181818" points="414,1342.2461,418,1352.2461,422,1342.2461,418,1346.2461" style="stroke:#181818;stroke-width:1.0;"/><line style="stroke:#181818;stroke-width:1.0;" x1="481.5" x2="615" y1="1315.8438" y2="1315.8438"/><polygon fill="#181818" points="611,1398.6992,615,1408.6992,619,1398.6992,615,1402.6992" style="stroke:#181818;stroke-width:1.0;"/><line style="stroke:#181818;stroke-width:1.0;" x1="615" x2="615" y1="1315.8438" y2="1478.1523"/><line style="stroke:#181818;stroke-width:1.0;" x1="615" x2="418" y1="1478.1523" y2="1478.1523"/><line style="stroke:#181818;stroke-width:1.0;" x1="418" x2="418" y1="1478.1523" y2="1498.1523"/><polygon fill="#181818" points="414,1488.1523,418,1498.1523,422,1488.1523,418,1492.1523" style="stroke:#181818;stroke-width:1.0;"/><line style="stroke:#181818;stroke-width:1.0;" x1="418" x2="418" y1="1283.8438" y2="1303.8438"/><polygon fill="#181818" points="414,1293.8438,418,1303.8438,422,1293.8438,418,1297.8438" style="stroke:#181818;stroke-width:1.0;"/><line style="stroke:#181818;stroke-width:1.0;" x1="418" x2="418" y1="1560.0586" y2="1580.0586"/><polygon fill="#181818" points="414,1570.0586,418,1580.0586,422,1570.0586,418,1574.0586" style="stroke:#181818;stroke-width:1.0;"/><!--MD5=[5c8dba7655782454c1dd7224b9a12d6f]
@startuml
!pragma layout smetana
start
note right
constructor CommandMindMapOrgmodeMultiline()
end note
:super (getRegexConcat(),MultilinesStrategy.REMOVE_STARTING_QUOTE,
Trim.BOTH);;
end
start
note right
IRegexgetRegexConcat()
end note
:return RegexConcat.build(CommandMindMapOrgmodeMultiline.class .getName(),RegexLeaf.start(),new RegexLeaf("TYPE","([*]+
)"),new RegexOptional(new RegexLeaf("BACKCOLOR","\\[(#\\w+
)\\]")),new RegexLeaf("SHAPE","(_)?"),new RegexLeaf(":"),
new RegexLeaf("DATA","(.*)"),RegexLeaf.end());;
stop
end
start
note right
StringgetPatternEnd()
end note
:return "^(.*);(?:\\s*\\<\\<(.+)\\>\\>)?$";;
stop
end
start
note right
CommandExecutionResultexecuteNow(MindMapDiagramdiagram,
BlocLineslines)
end note
:final RegexResultline0=getStartingPattern()
.matcher(lines.getFirst().getTrimmed().getString());;
:final List<String>lineLast=StringUtils.getSplit(MyPattern.cmpile(getPatternEnd()),
lines.getLast().getString());;
:lines=lines.removeStartingAndEnding(line0.get("DATA",
0),1);;
:final Stringstereotype=lineLast.get(1);;
if (stereotype!=null ) then (yes) 
:lines=lines.overrideLastLine(lineLast.get(0));;
endif 
:final Stringtype=line0.get("TYPE",0);;
:final StringstringColor=line0.get("BACKCOLOR",0);;
:HColorbackColor=null ;;
if (stringColor!=null ) then (yes) 
:backColor=diagram.getSkinParam().getIHtmlColorSet()
.getColor(stringColor);;
endif 
if (stereotype==null ) then (yes) 
:return diagram.addIdea(backColor,type.length()-1,
lines.toDisplay(),IdeaShape.fromDesc(line0.get("SHAPE",
0)));;
stop
endif 
:return diagram.addIdea(stereotype,backColor,
type.length()-1,lines.toDisplay(),IdeaShape.fromDesc(line0.get("SHAPE",
0)));;
stop
end
@enduml

PlantUML version 1.2022.7(Mon Aug 22 17:01:30 UTC 2022)
(GPL source distribution)
Java Runtime: OpenJDK Runtime Environment
JVM: OpenJDK 64-Bit Server VM
Default Encoding: UTF-8
Language: en
Country: null
--></g></svg>