<?xml version="1.0" encoding="UTF-8" standalone="no"?><svg xmlns="http://www.w3.org/2000/svg" xmlns:xlink="http://www.w3.org/1999/xlink" contentStyleType="text/css" height="1688px" preserveAspectRatio="none" style="width:571px;height:1688px;background:#FFFFFF;" version="1.1" viewBox="0 0 571 1688" width="571px" zoomAndPan="magnify"><defs/><g><path d="M257,10 L257,18.5664 L237,22.5664 L257,26.5664 L257,35.1328 A0,0 0 0 0 257,35.1328 L416,35.1328 A0,0 0 0 0 416,35.1328 L416,20 L406,10 L257,10 A0,0 0 0 0 257,10 " fill="#FEFFDD" style="stroke:#181818;stroke-width:0.5;"/><path d="M406,10 L406,20 L416,20 L406,10 " fill="#FEFFDD" style="stroke:#181818;stroke-width:0.5;"/><text fill="#000000" font-family="sans-serif" font-size="13" lengthAdjust="spacing" textLength="138" x="263" y="27.0669">String startingChars()</text><ellipse cx="227" cy="22.5664" fill="#222222" rx="10" ry="10" style="stroke:#222222;stroke-width:1.0;"/><rect fill="#F1F1F1" height="33.9688" rx="12.5" ry="12.5" style="stroke:#181818;stroke-width:0.5;" width="87" x="183.5" y="55.1328"/><text fill="#000000" font-family="sans-serif" font-size="12" lengthAdjust="spacing" textLength="67" x="193.5" y="76.2715">return "&lt;";</text><ellipse cx="227" cy="120.1016" fill="none" rx="11" ry="11" style="stroke:#222222;stroke-width:1.0;"/><ellipse cx="227" cy="120.1016" fill="#222222" rx="6" ry="6" style="stroke:#111111;stroke-width:1.0;"/><ellipse cx="227" cy="151.1016" fill="none" rx="10" ry="10" style="stroke:#222222;stroke-width:1.5;"/><line style="stroke:#222222;stroke-width:2.5;" x1="220.8128" x2="233.1872" y1="144.9144" y2="157.2887"/><line style="stroke:#222222;stroke-width:2.5;" x1="233.1872" x2="220.8128" y1="144.9144" y2="157.2887"/><path d="M257,171.1016 L257,179.668 L237,183.668 L257,187.668 L257,196.2344 A0,0 0 0 0 257,196.2344 L511,196.2344 A0,0 0 0 0 511,196.2344 L511,181.1016 L501,171.1016 L257,171.1016 A0,0 0 0 0 257,171.1016 " fill="#FEFFDD" style="stroke:#181818;stroke-width:0.5;"/><path d="M501,171.1016 L501,181.1016 L511,181.1016 L501,171.1016 " fill="#FEFFDD" style="stroke:#181818;stroke-width:0.5;"/><text fill="#000000" font-family="sans-serif" font-size="13" lengthAdjust="spacing" textLength="233" x="263" y="188.1685">constructor CommandCreoleSprite()</text><ellipse cx="227" cy="183.668" fill="#222222" rx="10" ry="10" style="stroke:#222222;stroke-width:1.0;"/><ellipse cx="227" cy="226.2344" fill="none" rx="10" ry="10" style="stroke:#222222;stroke-width:1.5;"/><line style="stroke:#222222;stroke-width:2.5;" x1="220.8128" x2="233.1872" y1="220.0472" y2="232.4216"/><line style="stroke:#222222;stroke-width:2.5;" x1="233.1872" x2="220.8128" y1="220.0472" y2="232.4216"/><path d="M257,246.2344 L257,254.8008 L237,258.8008 L257,262.8008 L257,271.3672 A0,0 0 0 0 257,271.3672 L400,271.3672 A0,0 0 0 0 400,271.3672 L400,256.2344 L390,246.2344 L257,246.2344 A0,0 0 0 0 257,246.2344 " fill="#FEFFDD" style="stroke:#181818;stroke-width:0.5;"/><path d="M390,246.2344 L390,256.2344 L400,256.2344 L390,246.2344 " fill="#FEFFDD" style="stroke:#181818;stroke-width:0.5;"/><text fill="#000000" font-family="sans-serif" font-size="13" lengthAdjust="spacing" textLength="122" x="263" y="263.3013">Command create()</text><ellipse cx="227" cy="258.8008" fill="#222222" rx="10" ry="10" style="stroke:#222222;stroke-width:1.0;"/><rect fill="#F1F1F1" height="33.9688" rx="12.5" ry="12.5" style="stroke:#181818;stroke-width:0.5;" width="245" x="104.5" y="291.3672"/><text fill="#000000" font-family="sans-serif" font-size="12" lengthAdjust="spacing" textLength="225" x="114.5" y="312.5059">return new CommandCreoleSprite();</text><ellipse cx="227" cy="356.3359" fill="none" rx="11" ry="11" style="stroke:#222222;stroke-width:1.0;"/><ellipse cx="227" cy="356.3359" fill="#222222" rx="6" ry="6" style="stroke:#111111;stroke-width:1.0;"/><ellipse cx="227" cy="387.3359" fill="none" rx="10" ry="10" style="stroke:#222222;stroke-width:1.5;"/><line style="stroke:#222222;stroke-width:2.5;" x1="220.8128" x2="233.1872" y1="381.1488" y2="393.5231"/><line style="stroke:#222222;stroke-width:2.5;" x1="233.1872" x2="220.8128" y1="381.1488" y2="393.5231"/><path d="M257,407.3359 L257,415.9023 L237,419.9023 L257,423.9023 L257,432.4688 A0,0 0 0 0 257,432.4688 L459,432.4688 A0,0 0 0 0 459,432.4688 L459,417.3359 L449,407.3359 L257,407.3359 A0,0 0 0 0 257,407.3359 " fill="#FEFFDD" style="stroke:#181818;stroke-width:0.5;"/><path d="M449,407.3359 L449,417.3359 L459,417.3359 L449,407.3359 " fill="#FEFFDD" style="stroke:#181818;stroke-width:0.5;"/><text fill="#000000" font-family="sans-serif" font-size="13" lengthAdjust="spacing" textLength="181" x="263" y="424.4028">int matchingSize(String line)</text><ellipse cx="227" cy="419.9023" fill="#222222" rx="10" ry="10" style="stroke:#222222;stroke-width:1.0;"/><rect fill="#F1F1F1" height="33.9688" rx="12.5" ry="12.5" style="stroke:#181818;stroke-width:0.5;" width="273" x="90.5" y="452.4688"/><text fill="#000000" font-family="sans-serif" font-size="12" lengthAdjust="spacing" textLength="253" x="100.5" y="473.6074">final Matcher2 m=pattern.matcher(line);</text><rect fill="#F1F1F1" height="33.9688" rx="12.5" ry="12.5" style="stroke:#181818;stroke-width:0.5;" width="75" x="189.5" y="554.8398"/><text fill="#000000" font-family="sans-serif" font-size="12" lengthAdjust="spacing" textLength="55" x="199.5" y="575.9785">return 0;</text><ellipse cx="227" cy="628.3242" fill="none" rx="11" ry="11" style="stroke:#222222;stroke-width:1.0;"/><ellipse cx="227" cy="628.3242" fill="#222222" rx="6" ry="6" style="stroke:#111111;stroke-width:1.0;"/><polygon fill="#F1F1F1" points="182,506.4375,272,506.4375,284,518.4375,272,530.4375,182,530.4375,170,518.4375,182,506.4375" style="stroke:#181818;stroke-width:0.5;"/><text fill="#000000" font-family="sans-serif" font-size="11" lengthAdjust="spacing" textLength="20" x="231" y="540.6479">yes</text><text fill="#000000" font-family="sans-serif" font-size="11" lengthAdjust="spacing" textLength="90" x="182" y="522.2456">m.find()==false</text><rect fill="#F1F1F1" height="33.9688" rx="12.5" ry="12.5" style="stroke:#181818;stroke-width:0.5;" width="191" x="131.5" y="681.3242"/><text fill="#000000" font-family="sans-serif" font-size="12" lengthAdjust="spacing" textLength="171" x="141.5" y="702.4629">return m.group(1).length();</text><ellipse cx="227" cy="746.293" fill="none" rx="11" ry="11" style="stroke:#222222;stroke-width:1.0;"/><ellipse cx="227" cy="746.293" fill="#222222" rx="6" ry="6" style="stroke:#111111;stroke-width:1.0;"/><ellipse cx="227" cy="777.293" fill="none" rx="10" ry="10" style="stroke:#222222;stroke-width:1.5;"/><line style="stroke:#222222;stroke-width:2.5;" x1="220.8128" x2="233.1872" y1="771.1058" y2="783.4802"/><line style="stroke:#222222;stroke-width:2.5;" x1="233.1872" x2="220.8128" y1="771.1058" y2="783.4802"/><path d="M257,797.293 L257,813.4258 L237,817.4258 L257,821.4258 L257,837.5586 A0,0 0 0 0 257,837.5586 L559,837.5586 A0,0 0 0 0 559,837.5586 L559,807.293 L549,797.293 L257,797.293 A0,0 0 0 0 257,797.293 " fill="#FEFFDD" style="stroke:#181818;stroke-width:0.5;"/><path d="M549,797.293 L549,807.293 L559,807.293 L549,797.293 " fill="#FEFFDD" style="stroke:#181818;stroke-width:0.5;"/><text fill="#000000" font-family="sans-serif" font-size="13" lengthAdjust="spacing" textLength="281" x="263" y="814.3599">String executeAndGetRemaining(String line,</text><text fill="#000000" font-family="sans-serif" font-size="13" lengthAdjust="spacing" textLength="127" x="263" y="829.4927">StripeSimple stripe)</text><ellipse cx="227" cy="817.4258" fill="#222222" rx="10" ry="10" style="stroke:#222222;stroke-width:1.0;"/><rect fill="#F1F1F1" height="33.9688" rx="12.5" ry="12.5" style="stroke:#181818;stroke-width:0.5;" width="273" x="90.5" y="857.5586"/><text fill="#000000" font-family="sans-serif" font-size="12" lengthAdjust="spacing" textLength="253" x="100.5" y="878.6973">final Matcher2 m=pattern.matcher(line);</text><rect fill="#F1F1F1" height="33.9688" rx="12.5" ry="12.5" style="stroke:#181818;stroke-width:0.5;" width="233" x="110.5" y="959.9297"/><text fill="#000000" font-family="sans-serif" font-size="12" lengthAdjust="spacing" textLength="213" x="120.5" y="981.0684">throw new IllegalStateException();</text><ellipse cx="227" cy="1033.4141" fill="none" rx="11" ry="11" style="stroke:#222222;stroke-width:1.0;"/><ellipse cx="227" cy="1033.4141" fill="#222222" rx="6" ry="6" style="stroke:#111111;stroke-width:1.0;"/><polygon fill="#F1F1F1" points="182,911.5273,272,911.5273,284,923.5273,272,935.5273,182,935.5273,170,923.5273,182,911.5273" style="stroke:#181818;stroke-width:0.5;"/><text fill="#000000" font-family="sans-serif" font-size="11" lengthAdjust="spacing" textLength="20" x="231" y="945.7378">yes</text><text fill="#000000" font-family="sans-serif" font-size="11" lengthAdjust="spacing" textLength="90" x="182" y="927.3354">m.find()==false</text><rect fill="#F1F1F1" height="33.9688" rx="12.5" ry="12.5" style="stroke:#181818;stroke-width:0.5;" width="194" x="130" y="1086.4141"/><text fill="#000000" font-family="sans-serif" font-size="12" lengthAdjust="spacing" textLength="174" x="140" y="1107.5527">final String src=m.group(2);</text><rect fill="#F1F1F1" height="33.9688" rx="12.5" ry="12.5" style="stroke:#181818;stroke-width:0.5;" width="336" x="59" y="1140.3828"/><text fill="#000000" font-family="sans-serif" font-size="12" lengthAdjust="spacing" textLength="316" x="69" y="1161.5215">final double scale=Parser.getScale(m.group(3),1);</text><rect fill="#F1F1F1" height="33.9688" rx="12.5" ry="12.5" style="stroke:#181818;stroke-width:0.5;" width="350" x="52" y="1194.3516"/><text fill="#000000" font-family="sans-serif" font-size="12" lengthAdjust="spacing" textLength="330" x="62" y="1215.4902">final String colorName=Parser.getColor(m.group(3));</text><rect fill="#F1F1F1" height="33.9688" rx="12.5" ry="12.5" style="stroke:#181818;stroke-width:0.5;" width="136" x="159" y="1248.3203"/><text fill="#000000" font-family="sans-serif" font-size="12" lengthAdjust="spacing" textLength="116" x="169" y="1269.459">HColor color=null ;</text><rect fill="#F1F1F1" height="33.9688" rx="12.5" ry="12.5" style="stroke:#181818;stroke-width:0.5;" width="340" x="57" y="1350.6914"/><text fill="#000000" font-family="sans-serif" font-size="12" lengthAdjust="spacing" textLength="320" x="67" y="1371.8301">final ISkinSimple skinParam=stripe.getSkinParam();</text><rect fill="#F1F1F1" height="33.9688" rx="12.5" ry="12.5" style="stroke:#181818;stroke-width:0.5;" width="432" x="11" y="1419.6602"/><text fill="#000000" font-family="sans-serif" font-size="12" lengthAdjust="spacing" textLength="412" x="21" y="1440.7988">color=skinParam.getIHtmlColorSet().getColorOrWhite(colorName);</text><polygon fill="#F1F1F1" points="178.5,1302.2891,275.5,1302.2891,287.5,1314.2891,275.5,1326.2891,178.5,1326.2891,166.5,1314.2891,178.5,1302.2891" style="stroke:#181818;stroke-width:0.5;"/><text fill="#000000" font-family="sans-serif" font-size="11" lengthAdjust="spacing" textLength="20" x="231" y="1336.4995">yes</text><text fill="#000000" font-family="sans-serif" font-size="11" lengthAdjust="spacing" textLength="93" x="178.5" y="1318.0972">colorName!=null</text><polygon fill="#F1F1F1" points="227,1473.6289,239,1485.6289,227,1497.6289,215,1485.6289,227,1473.6289" style="stroke:#181818;stroke-width:0.5;"/><rect fill="#F1F1F1" height="33.9688" rx="12.5" ry="12.5" style="stroke:#181818;stroke-width:0.5;" width="226" x="114" y="1517.6289"/><text fill="#000000" font-family="sans-serif" font-size="12" lengthAdjust="spacing" textLength="206" x="124" y="1538.7676">stripe.addSprite(src,scale,color);</text><rect fill="#F1F1F1" height="33.9688" rx="12.5" ry="12.5" style="stroke:#181818;stroke-width:0.5;" width="286" x="84" y="1571.5977"/><text fill="#000000" font-family="sans-serif" font-size="12" lengthAdjust="spacing" textLength="266" x="94" y="1592.7363">return line.substring(m.group(1).length());</text><ellipse cx="227" cy="1636.5664" fill="none" rx="11" ry="11" style="stroke:#222222;stroke-width:1.0;"/><ellipse cx="227" cy="1636.5664" fill="#222222" rx="6" ry="6" style="stroke:#111111;stroke-width:1.0;"/><ellipse cx="227" cy="1667.5664" fill="none" rx="10" ry="10" style="stroke:#222222;stroke-width:1.5;"/><line style="stroke:#222222;stroke-width:2.5;" x1="220.8128" x2="233.1872" y1="1661.3792" y2="1673.7536"/><line style="stroke:#222222;stroke-width:2.5;" x1="233.1872" x2="220.8128" y1="1661.3792" y2="1673.7536"/><line style="stroke:#181818;stroke-width:1.0;" x1="227" x2="227" y1="32.5664" y2="55.1328"/><polygon fill="#181818" points="223,45.1328,227,55.1328,231,45.1328,227,49.1328" style="stroke:#181818;stroke-width:1.0;"/><line style="stroke:#181818;stroke-width:1.0;" x1="227" x2="227" y1="89.1016" y2="109.1016"/><polygon fill="#181818" points="223,99.1016,227,109.1016,231,99.1016,227,103.1016" style="stroke:#181818;stroke-width:1.0;"/><line style="stroke:#181818;stroke-width:1.0;" x1="227" x2="227" y1="193.668" y2="216.2344"/><polygon fill="#181818" points="223,206.2344,227,216.2344,231,206.2344,227,210.2344" style="stroke:#181818;stroke-width:1.0;"/><line style="stroke:#181818;stroke-width:1.0;" x1="227" x2="227" y1="268.8008" y2="291.3672"/><polygon fill="#181818" points="223,281.3672,227,291.3672,231,281.3672,227,285.3672" style="stroke:#181818;stroke-width:1.0;"/><line style="stroke:#181818;stroke-width:1.0;" x1="227" x2="227" y1="325.3359" y2="345.3359"/><polygon fill="#181818" points="223,335.3359,227,345.3359,231,335.3359,227,339.3359" style="stroke:#181818;stroke-width:1.0;"/><line style="stroke:#181818;stroke-width:1.0;" x1="227" x2="227" y1="429.9023" y2="452.4688"/><polygon fill="#181818" points="223,442.4688,227,452.4688,231,442.4688,227,446.4688" style="stroke:#181818;stroke-width:1.0;"/><line style="stroke:#181818;stroke-width:1.0;" x1="227" x2="227" y1="588.8086" y2="617.3242"/><polygon fill="#181818" points="223,607.3242,227,617.3242,231,607.3242,227,611.3242" style="stroke:#181818;stroke-width:1.0;"/><line style="stroke:#181818;stroke-width:1.0;" x1="227" x2="227" y1="530.4375" y2="554.8398"/><polygon fill="#181818" points="223,544.8398,227,554.8398,231,544.8398,227,548.8398" style="stroke:#181818;stroke-width:1.0;"/><line style="stroke:#181818;stroke-width:1.0;" x1="284" x2="296" y1="518.4375" y2="518.4375"/><polygon fill="#181818" points="292,587.3242,296,597.3242,300,587.3242,296,591.3242" style="stroke:#181818;stroke-width:1.0;"/><line style="stroke:#181818;stroke-width:1.0;" x1="296" x2="296" y1="518.4375" y2="661.3242"/><line style="stroke:#181818;stroke-width:1.0;" x1="296" x2="227" y1="661.3242" y2="661.3242"/><line style="stroke:#181818;stroke-width:1.0;" x1="227" x2="227" y1="661.3242" y2="681.3242"/><polygon fill="#181818" points="223,671.3242,227,681.3242,231,671.3242,227,675.3242" style="stroke:#181818;stroke-width:1.0;"/><line style="stroke:#181818;stroke-width:1.0;" x1="227" x2="227" y1="486.4375" y2="506.4375"/><polygon fill="#181818" points="223,496.4375,227,506.4375,231,496.4375,227,500.4375" style="stroke:#181818;stroke-width:1.0;"/><line style="stroke:#181818;stroke-width:1.0;" x1="227" x2="227" y1="715.293" y2="735.293"/><polygon fill="#181818" points="223,725.293,227,735.293,231,725.293,227,729.293" style="stroke:#181818;stroke-width:1.0;"/><line style="stroke:#181818;stroke-width:1.0;" x1="227" x2="227" y1="827.4258" y2="857.5586"/><polygon fill="#181818" points="223,847.5586,227,857.5586,231,847.5586,227,851.5586" style="stroke:#181818;stroke-width:1.0;"/><line style="stroke:#181818;stroke-width:1.0;" x1="227" x2="227" y1="993.8984" y2="1022.4141"/><polygon fill="#181818" points="223,1012.4141,227,1022.4141,231,1012.4141,227,1016.4141" style="stroke:#181818;stroke-width:1.0;"/><line style="stroke:#181818;stroke-width:1.0;" x1="227" x2="227" y1="935.5273" y2="959.9297"/><polygon fill="#181818" points="223,949.9297,227,959.9297,231,949.9297,227,953.9297" style="stroke:#181818;stroke-width:1.0;"/><line style="stroke:#181818;stroke-width:1.0;" x1="284" x2="353.5" y1="923.5273" y2="923.5273"/><polygon fill="#181818" points="349.5,992.4141,353.5,1002.4141,357.5,992.4141,353.5,996.4141" style="stroke:#181818;stroke-width:1.0;"/><line style="stroke:#181818;stroke-width:1.0;" x1="353.5" x2="353.5" y1="923.5273" y2="1066.4141"/><line style="stroke:#181818;stroke-width:1.0;" x1="353.5" x2="227" y1="1066.4141" y2="1066.4141"/><line style="stroke:#181818;stroke-width:1.0;" x1="227" x2="227" y1="1066.4141" y2="1086.4141"/><polygon fill="#181818" points="223,1076.4141,227,1086.4141,231,1076.4141,227,1080.4141" style="stroke:#181818;stroke-width:1.0;"/><line style="stroke:#181818;stroke-width:1.0;" x1="227" x2="227" y1="891.5273" y2="911.5273"/><polygon fill="#181818" points="223,901.5273,227,911.5273,231,901.5273,227,905.5273" style="stroke:#181818;stroke-width:1.0;"/><line style="stroke:#181818;stroke-width:1.0;" x1="227" x2="227" y1="1120.3828" y2="1140.3828"/><polygon fill="#181818" points="223,1130.3828,227,1140.3828,231,1130.3828,227,1134.3828" style="stroke:#181818;stroke-width:1.0;"/><line style="stroke:#181818;stroke-width:1.0;" x1="227" x2="227" y1="1174.3516" y2="1194.3516"/><polygon fill="#181818" points="223,1184.3516,227,1194.3516,231,1184.3516,227,1188.3516" style="stroke:#181818;stroke-width:1.0;"/><line style="stroke:#181818;stroke-width:1.0;" x1="227" x2="227" y1="1228.3203" y2="1248.3203"/><polygon fill="#181818" points="223,1238.3203,227,1248.3203,231,1238.3203,227,1242.3203" style="stroke:#181818;stroke-width:1.0;"/><line style="stroke:#181818;stroke-width:1.0;" x1="227" x2="227" y1="1384.6602" y2="1419.6602"/><polygon fill="#181818" points="223,1409.6602,227,1419.6602,231,1409.6602,227,1413.6602" style="stroke:#181818;stroke-width:1.0;"/><line style="stroke:#181818;stroke-width:1.0;" x1="227" x2="227" y1="1326.2891" y2="1350.6914"/><polygon fill="#181818" points="223,1340.6914,227,1350.6914,231,1340.6914,227,1344.6914" style="stroke:#181818;stroke-width:1.0;"/><line style="stroke:#181818;stroke-width:1.0;" x1="287.5" x2="453" y1="1314.2891" y2="1314.2891"/><polygon fill="#181818" points="449,1392.1602,453,1402.1602,457,1392.1602,453,1396.1602" style="stroke:#181818;stroke-width:1.0;"/><line style="stroke:#181818;stroke-width:1.0;" x1="453" x2="453" y1="1314.2891" y2="1485.6289"/><line style="stroke:#181818;stroke-width:1.0;" x1="453" x2="239" y1="1485.6289" y2="1485.6289"/><polygon fill="#181818" points="249,1481.6289,239,1485.6289,249,1489.6289,245,1485.6289" style="stroke:#181818;stroke-width:1.0;"/><line style="stroke:#181818;stroke-width:1.0;" x1="227" x2="227" y1="1453.6289" y2="1473.6289"/><polygon fill="#181818" points="223,1463.6289,227,1473.6289,231,1463.6289,227,1467.6289" style="stroke:#181818;stroke-width:1.0;"/><line style="stroke:#181818;stroke-width:1.0;" x1="227" x2="227" y1="1282.2891" y2="1302.2891"/><polygon fill="#181818" points="223,1292.2891,227,1302.2891,231,1292.2891,227,1296.2891" style="stroke:#181818;stroke-width:1.0;"/><line style="stroke:#181818;stroke-width:1.0;" x1="227" x2="227" y1="1497.6289" y2="1517.6289"/><polygon fill="#181818" points="223,1507.6289,227,1517.6289,231,1507.6289,227,1511.6289" style="stroke:#181818;stroke-width:1.0;"/><line style="stroke:#181818;stroke-width:1.0;" x1="227" x2="227" y1="1551.5977" y2="1571.5977"/><polygon fill="#181818" points="223,1561.5977,227,1571.5977,231,1561.5977,227,1565.5977" style="stroke:#181818;stroke-width:1.0;"/><line style="stroke:#181818;stroke-width:1.0;" x1="227" x2="227" y1="1605.5664" y2="1625.5664"/><polygon fill="#181818" points="223,1615.5664,227,1625.5664,231,1615.5664,227,1619.5664" style="stroke:#181818;stroke-width:1.0;"/><!--MD5=[804f6378e4abe373046ed7633f87db21]
@startuml
!pragma layout smetana
start
note right
String startingChars()
end note
:return "<";;
stop
end
start
note right
constructor CommandCreoleSprite()
end note
end
start
note right
Command create()
end note
:return new CommandCreoleSprite();;
stop
end
start
note right
int matchingSize(String line)
end note
:final Matcher2 m=pattern.matcher(line);;
if (m.find()==false) then (yes) 
:return 0;;
stop
endif 
:return m.group(1).length();;
stop
end
start
note right
String executeAndGetRemaining(String line,
StripeSimple stripe)
end note
:final Matcher2 m=pattern.matcher(line);;
if (m.find()==false) then (yes) 
:throw new IllegalStateException();;
stop
endif 
:final String src=m.group(2);;
:final double scale=Parser.getScale(m.group(3),1);;
:final String colorName=Parser.getColor(m.group(3));;
:HColor color=null ;;
if (colorName!=null ) then (yes) 
:final ISkinSimple skinParam=stripe.getSkinParam();;
:color=skinParam.getIHtmlColorSet().getColorOrWhite(colorName);;
endif 
:stripe.addSprite(src,scale,color);;
:return line.substring(m.group(1).length());;
stop
end
@enduml

PlantUML version 1.2022.7(Mon Aug 22 17:01:30 UTC 2022)
(GPL source distribution)
Java Runtime: OpenJDK Runtime Environment
JVM: OpenJDK 64-Bit Server VM
Default Encoding: UTF-8
Language: en
Country: null
--></g></svg>