<?xml version="1.0" encoding="UTF-8" standalone="no"?><svg xmlns="http://www.w3.org/2000/svg" xmlns:xlink="http://www.w3.org/1999/xlink" contentStyleType="text/css" height="1509px" preserveAspectRatio="none" style="width:572px;height:1509px;background:#FFFFFF;" version="1.1" viewBox="0 0 572 1509" width="572px" zoomAndPan="magnify"><defs/><g><path d="M219.5,10 L219.5,18.5664 L199.5,22.5664 L219.5,26.5664 L219.5,35.1328 A0,0 0 0 0 219.5,35.1328 L551.5,35.1328 A0,0 0 0 0 551.5,35.1328 L551.5,20 L541.5,10 L219.5,10 A0,0 0 0 0 219.5,10 " fill="#FEFFDD" style="stroke:#181818;stroke-width:0.5;"/><path d="M541.5,10 L541.5,20 L551.5,20 L541.5,10 " fill="#FEFFDD" style="stroke:#181818;stroke-width:0.5;"/><text fill="#000000" font-family="sans-serif" font-size="13" lengthAdjust="spacing" textLength="311" x="225.5" y="27.0669">constructor ImageDataSimple(intwidth,intheight)</text><ellipse cx="189.5" cy="22.5664" fill="#222222" rx="10" ry="10" style="stroke:#222222;stroke-width:1.0;"/><rect fill="#F1F1F1" height="33.9688" rx="12.5" ry="12.5" style="stroke:#181818;stroke-width:0.5;" width="151" x="114" y="55.1328"/><text fill="#000000" font-family="sans-serif" font-size="12" lengthAdjust="spacing" textLength="131" x="124" y="76.2715">super (width,height);</text><ellipse cx="189.5" cy="119.1016" fill="none" rx="10" ry="10" style="stroke:#222222;stroke-width:1.5;"/><line style="stroke:#222222;stroke-width:2.5;" x1="183.3128" x2="195.6872" y1="112.9144" y2="125.2887"/><line style="stroke:#222222;stroke-width:2.5;" x1="195.6872" x2="183.3128" y1="112.9144" y2="125.2887"/><path d="M219.5,139.1016 L219.5,147.668 L199.5,151.668 L219.5,155.668 L219.5,164.2344 A0,0 0 0 0 219.5,164.2344 L560.5,164.2344 A0,0 0 0 0 560.5,164.2344 L560.5,149.1016 L550.5,139.1016 L219.5,139.1016 A0,0 0 0 0 219.5,139.1016 " fill="#FEFFDD" style="stroke:#181818;stroke-width:0.5;"/><path d="M550.5,139.1016 L550.5,149.1016 L560.5,149.1016 L550.5,139.1016 " fill="#FEFFDD" style="stroke:#181818;stroke-width:0.5;"/><text fill="#000000" font-family="sans-serif" font-size="13" lengthAdjust="spacing" textLength="320" x="225.5" y="156.1685">constructor ImageDataSimple(XDimension2Ddim)</text><ellipse cx="189.5" cy="151.668" fill="#222222" rx="10" ry="10" style="stroke:#222222;stroke-width:1.0;"/><rect fill="#F1F1F1" height="33.9688" rx="12.5" ry="12.5" style="stroke:#181818;stroke-width:0.5;" width="96" x="141.5" y="184.2344"/><text fill="#000000" font-family="sans-serif" font-size="12" lengthAdjust="spacing" textLength="76" x="151.5" y="205.373">super (dim);</text><ellipse cx="189.5" cy="248.2031" fill="none" rx="10" ry="10" style="stroke:#222222;stroke-width:1.5;"/><line style="stroke:#222222;stroke-width:2.5;" x1="183.3128" x2="195.6872" y1="242.0159" y2="254.3903"/><line style="stroke:#222222;stroke-width:2.5;" x1="195.6872" x2="183.3128" y1="242.0159" y2="254.3903"/><path d="M219.5,268.2031 L219.5,284.3359 L199.5,288.3359 L219.5,292.3359 L219.5,308.4688 A0,0 0 0 0 219.5,308.4688 L559.5,308.4688 A0,0 0 0 0 559.5,308.4688 L559.5,278.2031 L549.5,268.2031 L219.5,268.2031 A0,0 0 0 0 219.5,268.2031 " fill="#FEFFDD" style="stroke:#181818;stroke-width:0.5;"/><path d="M549.5,268.2031 L549.5,278.2031 L559.5,278.2031 L549.5,268.2031 " fill="#FEFFDD" style="stroke:#181818;stroke-width:0.5;"/><text fill="#000000" font-family="sans-serif" font-size="13" lengthAdjust="spacing" textLength="319" x="225.5" y="285.27">constructor ImageDataSimple(XDimension2Ddim,</text><text fill="#000000" font-family="sans-serif" font-size="13" lengthAdjust="spacing" textLength="61" x="225.5" y="300.4028">intstatus)</text><ellipse cx="189.5" cy="288.3359" fill="#222222" rx="10" ry="10" style="stroke:#222222;stroke-width:1.0;"/><rect fill="#F1F1F1" height="33.9688" rx="12.5" ry="12.5" style="stroke:#181818;stroke-width:0.5;" width="96" x="141.5" y="328.4688"/><text fill="#000000" font-family="sans-serif" font-size="12" lengthAdjust="spacing" textLength="76" x="151.5" y="349.6074">super (dim);</text><rect fill="#F1F1F1" height="33.9688" rx="12.5" ry="12.5" style="stroke:#181818;stroke-width:0.5;" width="135" x="122" y="382.4375"/><text fill="#000000" font-family="sans-serif" font-size="12" lengthAdjust="spacing" textLength="115" x="132" y="403.5762">setStatus(status);</text><ellipse cx="189.5" cy="446.4063" fill="none" rx="10" ry="10" style="stroke:#222222;stroke-width:1.5;"/><line style="stroke:#222222;stroke-width:2.5;" x1="183.3128" x2="195.6872" y1="440.2191" y2="452.5934"/><line style="stroke:#222222;stroke-width:2.5;" x1="195.6872" x2="183.3128" y1="440.2191" y2="452.5934"/><path d="M219.5,466.4063 L219.5,474.9727 L199.5,478.9727 L219.5,482.9727 L219.5,491.5391 A0,0 0 0 0 219.5,491.5391 L442.5,491.5391 A0,0 0 0 0 442.5,491.5391 L442.5,476.4063 L432.5,466.4063 L219.5,466.4063 A0,0 0 0 0 219.5,466.4063 " fill="#FEFFDD" style="stroke:#181818;stroke-width:0.5;"/><path d="M432.5,466.4063 L432.5,476.4063 L442.5,476.4063 L432.5,466.4063 " fill="#FEFFDD" style="stroke:#181818;stroke-width:0.5;"/><text fill="#000000" font-family="sans-serif" font-size="13" lengthAdjust="spacing" textLength="202" x="225.5" y="483.4731">constructor ImageDataSimple()</text><ellipse cx="189.5" cy="478.9727" fill="#222222" rx="10" ry="10" style="stroke:#222222;stroke-width:1.0;"/><rect fill="#F1F1F1" height="33.9688" rx="12.5" ry="12.5" style="stroke:#181818;stroke-width:0.5;" width="77" x="151" y="511.5391"/><text fill="#000000" font-family="sans-serif" font-size="12" lengthAdjust="spacing" textLength="57" x="161" y="532.6777">this(0,0);</text><ellipse cx="189.5" cy="575.5078" fill="none" rx="10" ry="10" style="stroke:#222222;stroke-width:1.5;"/><line style="stroke:#222222;stroke-width:2.5;" x1="183.3128" x2="195.6872" y1="569.3206" y2="581.695"/><line style="stroke:#222222;stroke-width:2.5;" x1="195.6872" x2="183.3128" y1="569.3206" y2="581.695"/><path d="M219.5,595.5078 L219.5,604.0742 L199.5,608.0742 L219.5,612.0742 L219.5,620.6406 A0,0 0 0 0 219.5,620.6406 L422.5,620.6406 A0,0 0 0 0 422.5,620.6406 L422.5,605.5078 L412.5,595.5078 L219.5,595.5078 A0,0 0 0 0 219.5,595.5078 " fill="#FEFFDD" style="stroke:#181818;stroke-width:0.5;"/><path d="M412.5,595.5078 L412.5,605.5078 L422.5,605.5078 L412.5,595.5078 " fill="#FEFFDD" style="stroke:#181818;stroke-width:0.5;"/><text fill="#000000" font-family="sans-serif" font-size="13" lengthAdjust="spacing" textLength="182" x="225.5" y="612.5747">booleancontainsCMapData()</text><ellipse cx="189.5" cy="608.0742" fill="#222222" rx="10" ry="10" style="stroke:#222222;stroke-width:1.0;"/><rect fill="#F1F1F1" height="33.9688" rx="12.5" ry="12.5" style="stroke:#181818;stroke-width:0.5;" width="97" x="141" y="640.6406"/><text fill="#000000" font-family="sans-serif" font-size="12" lengthAdjust="spacing" textLength="77" x="151" y="661.7793">return false;</text><ellipse cx="189.5" cy="705.6094" fill="none" rx="11" ry="11" style="stroke:#222222;stroke-width:1.0;"/><ellipse cx="189.5" cy="705.6094" fill="#222222" rx="6" ry="6" style="stroke:#111111;stroke-width:1.0;"/><ellipse cx="189.5" cy="736.6094" fill="none" rx="10" ry="10" style="stroke:#222222;stroke-width:1.5;"/><line style="stroke:#222222;stroke-width:2.5;" x1="183.3128" x2="195.6872" y1="730.4222" y2="742.7966"/><line style="stroke:#222222;stroke-width:2.5;" x1="195.6872" x2="183.3128" y1="730.4222" y2="742.7966"/><path d="M219.5,756.6094 L219.5,765.1758 L199.5,769.1758 L219.5,773.1758 L219.5,781.7422 A0,0 0 0 0 219.5,781.7422 L462.5,781.7422 A0,0 0 0 0 462.5,781.7422 L462.5,766.6094 L452.5,756.6094 L219.5,756.6094 A0,0 0 0 0 219.5,756.6094 " fill="#FEFFDD" style="stroke:#181818;stroke-width:0.5;"/><path d="M452.5,756.6094 L452.5,766.6094 L462.5,766.6094 L452.5,756.6094 " fill="#FEFFDD" style="stroke:#181818;stroke-width:0.5;"/><text fill="#000000" font-family="sans-serif" font-size="13" lengthAdjust="spacing" textLength="222" x="225.5" y="773.6763">StringgetCMapData(StringnameId)</text><ellipse cx="189.5" cy="769.1758" fill="#222222" rx="10" ry="10" style="stroke:#222222;stroke-width:1.0;"/><rect fill="#F1F1F1" height="33.9688" rx="12.5" ry="12.5" style="stroke:#181818;stroke-width:0.5;" width="307" x="36" y="801.7422"/><text fill="#000000" font-family="sans-serif" font-size="12" lengthAdjust="spacing" textLength="287" x="46" y="822.8809">throw new UnsupportedOperationException();</text><ellipse cx="189.5" cy="866.7109" fill="none" rx="11" ry="11" style="stroke:#222222;stroke-width:1.0;"/><ellipse cx="189.5" cy="866.7109" fill="#222222" rx="6" ry="6" style="stroke:#111111;stroke-width:1.0;"/><ellipse cx="189.5" cy="897.7109" fill="none" rx="10" ry="10" style="stroke:#222222;stroke-width:1.5;"/><line style="stroke:#222222;stroke-width:2.5;" x1="183.3128" x2="195.6872" y1="891.5238" y2="903.8981"/><line style="stroke:#222222;stroke-width:2.5;" x1="195.6872" x2="183.3128" y1="891.5238" y2="903.8981"/><path d="M219.5,917.7109 L219.5,926.2773 L199.5,930.2773 L219.5,934.2773 L219.5,942.8438 A0,0 0 0 0 219.5,942.8438 L406.5,942.8438 A0,0 0 0 0 406.5,942.8438 L406.5,927.7109 L396.5,917.7109 L219.5,917.7109 A0,0 0 0 0 219.5,917.7109 " fill="#FEFFDD" style="stroke:#181818;stroke-width:0.5;"/><path d="M396.5,917.7109 L396.5,927.7109 L406.5,927.7109 L396.5,917.7109 " fill="#FEFFDD" style="stroke:#181818;stroke-width:0.5;"/><text fill="#000000" font-family="sans-serif" font-size="13" lengthAdjust="spacing" textLength="166" x="225.5" y="934.7778">StringgetWarningOrError()</text><ellipse cx="189.5" cy="930.2773" fill="#222222" rx="10" ry="10" style="stroke:#222222;stroke-width:1.0;"/><rect fill="#F1F1F1" height="33.9688" rx="12.5" ry="12.5" style="stroke:#181818;stroke-width:0.5;" width="93" x="143" y="962.8438"/><text fill="#000000" font-family="sans-serif" font-size="12" lengthAdjust="spacing" textLength="73" x="153" y="983.9824">return null ;</text><ellipse cx="189.5" cy="1027.8125" fill="none" rx="11" ry="11" style="stroke:#222222;stroke-width:1.0;"/><ellipse cx="189.5" cy="1027.8125" fill="#222222" rx="6" ry="6" style="stroke:#111111;stroke-width:1.0;"/><ellipse cx="189.5" cy="1058.8125" fill="none" rx="10" ry="10" style="stroke:#222222;stroke-width:1.5;"/><line style="stroke:#222222;stroke-width:2.5;" x1="183.3128" x2="195.6872" y1="1052.6253" y2="1064.9997"/><line style="stroke:#222222;stroke-width:2.5;" x1="195.6872" x2="183.3128" y1="1052.6253" y2="1064.9997"/><path d="M219.5,1078.8125 L219.5,1087.3789 L199.5,1091.3789 L219.5,1095.3789 L219.5,1103.9453 A0,0 0 0 0 219.5,1103.9453 L352.5,1103.9453 A0,0 0 0 0 352.5,1103.9453 L352.5,1088.8125 L342.5,1078.8125 L219.5,1078.8125 A0,0 0 0 0 219.5,1078.8125 " fill="#FEFFDD" style="stroke:#181818;stroke-width:0.5;"/><path d="M342.5,1078.8125 L342.5,1088.8125 L352.5,1088.8125 L342.5,1078.8125 " fill="#FEFFDD" style="stroke:#181818;stroke-width:0.5;"/><text fill="#000000" font-family="sans-serif" font-size="13" lengthAdjust="spacing" textLength="112" x="225.5" y="1095.8794">ImageDataerror()</text><ellipse cx="189.5" cy="1091.3789" fill="#222222" rx="10" ry="10" style="stroke:#222222;stroke-width:1.0;"/><rect fill="#F1F1F1" height="33.9688" rx="12.5" ry="12.5" style="stroke:#181818;stroke-width:0.5;" width="357" x="11" y="1123.9453"/><text fill="#000000" font-family="sans-serif" font-size="12" lengthAdjust="spacing" textLength="337" x="21" y="1145.084">final ImageDataSimpleresult=new ImageDataSimple();</text><rect fill="#F1F1F1" height="33.9688" rx="12.5" ry="12.5" style="stroke:#181818;stroke-width:0.5;" width="159" x="110" y="1177.9141"/><text fill="#000000" font-family="sans-serif" font-size="12" lengthAdjust="spacing" textLength="139" x="120" y="1199.0527">result.setStatus(503);</text><rect fill="#F1F1F1" height="33.9688" rx="12.5" ry="12.5" style="stroke:#181818;stroke-width:0.5;" width="103" x="138" y="1231.8828"/><text fill="#000000" font-family="sans-serif" font-size="12" lengthAdjust="spacing" textLength="83" x="148" y="1253.0215">return result;</text><ellipse cx="189.5" cy="1296.8516" fill="none" rx="11" ry="11" style="stroke:#222222;stroke-width:1.0;"/><ellipse cx="189.5" cy="1296.8516" fill="#222222" rx="6" ry="6" style="stroke:#111111;stroke-width:1.0;"/><ellipse cx="189.5" cy="1327.8516" fill="none" rx="10" ry="10" style="stroke:#222222;stroke-width:1.5;"/><line style="stroke:#222222;stroke-width:2.5;" x1="183.3128" x2="195.6872" y1="1321.6644" y2="1334.0387"/><line style="stroke:#222222;stroke-width:2.5;" x1="195.6872" x2="183.3128" y1="1321.6644" y2="1334.0387"/><path d="M219.5,1347.8516 L219.5,1356.418 L199.5,1360.418 L219.5,1364.418 L219.5,1372.9844 A0,0 0 0 0 219.5,1372.9844 L336.5,1372.9844 A0,0 0 0 0 336.5,1372.9844 L336.5,1357.8516 L326.5,1347.8516 L219.5,1347.8516 A0,0 0 0 0 219.5,1347.8516 " fill="#FEFFDD" style="stroke:#181818;stroke-width:0.5;"/><path d="M326.5,1347.8516 L326.5,1357.8516 L336.5,1357.8516 L326.5,1347.8516 " fill="#FEFFDD" style="stroke:#181818;stroke-width:0.5;"/><text fill="#000000" font-family="sans-serif" font-size="13" lengthAdjust="spacing" textLength="96" x="225.5" y="1364.9185">ImageDataok()</text><ellipse cx="189.5" cy="1360.418" fill="#222222" rx="10" ry="10" style="stroke:#222222;stroke-width:1.0;"/><rect fill="#F1F1F1" height="33.9688" rx="12.5" ry="12.5" style="stroke:#181818;stroke-width:0.5;" width="215" x="82" y="1392.9844"/><text fill="#000000" font-family="sans-serif" font-size="12" lengthAdjust="spacing" textLength="195" x="92" y="1414.123">return new ImageDataSimple();</text><ellipse cx="189.5" cy="1457.9531" fill="none" rx="11" ry="11" style="stroke:#222222;stroke-width:1.0;"/><ellipse cx="189.5" cy="1457.9531" fill="#222222" rx="6" ry="6" style="stroke:#111111;stroke-width:1.0;"/><ellipse cx="189.5" cy="1488.9531" fill="none" rx="10" ry="10" style="stroke:#222222;stroke-width:1.5;"/><line style="stroke:#222222;stroke-width:2.5;" x1="183.3128" x2="195.6872" y1="1482.7659" y2="1495.1403"/><line style="stroke:#222222;stroke-width:2.5;" x1="195.6872" x2="183.3128" y1="1482.7659" y2="1495.1403"/><line style="stroke:#181818;stroke-width:1.0;" x1="189.5" x2="189.5" y1="32.5664" y2="55.1328"/><polygon fill="#181818" points="185.5,45.1328,189.5,55.1328,193.5,45.1328,189.5,49.1328" style="stroke:#181818;stroke-width:1.0;"/><line style="stroke:#181818;stroke-width:1.0;" x1="189.5" x2="189.5" y1="89.1016" y2="109.1016"/><polygon fill="#181818" points="185.5,99.1016,189.5,109.1016,193.5,99.1016,189.5,103.1016" style="stroke:#181818;stroke-width:1.0;"/><line style="stroke:#181818;stroke-width:1.0;" x1="189.5" x2="189.5" y1="161.668" y2="184.2344"/><polygon fill="#181818" points="185.5,174.2344,189.5,184.2344,193.5,174.2344,189.5,178.2344" style="stroke:#181818;stroke-width:1.0;"/><line style="stroke:#181818;stroke-width:1.0;" x1="189.5" x2="189.5" y1="218.2031" y2="238.2031"/><polygon fill="#181818" points="185.5,228.2031,189.5,238.2031,193.5,228.2031,189.5,232.2031" style="stroke:#181818;stroke-width:1.0;"/><line style="stroke:#181818;stroke-width:1.0;" x1="189.5" x2="189.5" y1="298.3359" y2="328.4688"/><polygon fill="#181818" points="185.5,318.4688,189.5,328.4688,193.5,318.4688,189.5,322.4688" style="stroke:#181818;stroke-width:1.0;"/><line style="stroke:#181818;stroke-width:1.0;" x1="189.5" x2="189.5" y1="362.4375" y2="382.4375"/><polygon fill="#181818" points="185.5,372.4375,189.5,382.4375,193.5,372.4375,189.5,376.4375" style="stroke:#181818;stroke-width:1.0;"/><line style="stroke:#181818;stroke-width:1.0;" x1="189.5" x2="189.5" y1="416.4063" y2="436.4063"/><polygon fill="#181818" points="185.5,426.4063,189.5,436.4063,193.5,426.4063,189.5,430.4063" style="stroke:#181818;stroke-width:1.0;"/><line style="stroke:#181818;stroke-width:1.0;" x1="189.5" x2="189.5" y1="488.9727" y2="511.5391"/><polygon fill="#181818" points="185.5,501.5391,189.5,511.5391,193.5,501.5391,189.5,505.5391" style="stroke:#181818;stroke-width:1.0;"/><line style="stroke:#181818;stroke-width:1.0;" x1="189.5" x2="189.5" y1="545.5078" y2="565.5078"/><polygon fill="#181818" points="185.5,555.5078,189.5,565.5078,193.5,555.5078,189.5,559.5078" style="stroke:#181818;stroke-width:1.0;"/><line style="stroke:#181818;stroke-width:1.0;" x1="189.5" x2="189.5" y1="618.0742" y2="640.6406"/><polygon fill="#181818" points="185.5,630.6406,189.5,640.6406,193.5,630.6406,189.5,634.6406" style="stroke:#181818;stroke-width:1.0;"/><line style="stroke:#181818;stroke-width:1.0;" x1="189.5" x2="189.5" y1="674.6094" y2="694.6094"/><polygon fill="#181818" points="185.5,684.6094,189.5,694.6094,193.5,684.6094,189.5,688.6094" style="stroke:#181818;stroke-width:1.0;"/><line style="stroke:#181818;stroke-width:1.0;" x1="189.5" x2="189.5" y1="779.1758" y2="801.7422"/><polygon fill="#181818" points="185.5,791.7422,189.5,801.7422,193.5,791.7422,189.5,795.7422" style="stroke:#181818;stroke-width:1.0;"/><line style="stroke:#181818;stroke-width:1.0;" x1="189.5" x2="189.5" y1="835.7109" y2="855.7109"/><polygon fill="#181818" points="185.5,845.7109,189.5,855.7109,193.5,845.7109,189.5,849.7109" style="stroke:#181818;stroke-width:1.0;"/><line style="stroke:#181818;stroke-width:1.0;" x1="189.5" x2="189.5" y1="940.2773" y2="962.8438"/><polygon fill="#181818" points="185.5,952.8438,189.5,962.8438,193.5,952.8438,189.5,956.8438" style="stroke:#181818;stroke-width:1.0;"/><line style="stroke:#181818;stroke-width:1.0;" x1="189.5" x2="189.5" y1="996.8125" y2="1016.8125"/><polygon fill="#181818" points="185.5,1006.8125,189.5,1016.8125,193.5,1006.8125,189.5,1010.8125" style="stroke:#181818;stroke-width:1.0;"/><line style="stroke:#181818;stroke-width:1.0;" x1="189.5" x2="189.5" y1="1101.3789" y2="1123.9453"/><polygon fill="#181818" points="185.5,1113.9453,189.5,1123.9453,193.5,1113.9453,189.5,1117.9453" style="stroke:#181818;stroke-width:1.0;"/><line style="stroke:#181818;stroke-width:1.0;" x1="189.5" x2="189.5" y1="1157.9141" y2="1177.9141"/><polygon fill="#181818" points="185.5,1167.9141,189.5,1177.9141,193.5,1167.9141,189.5,1171.9141" style="stroke:#181818;stroke-width:1.0;"/><line style="stroke:#181818;stroke-width:1.0;" x1="189.5" x2="189.5" y1="1211.8828" y2="1231.8828"/><polygon fill="#181818" points="185.5,1221.8828,189.5,1231.8828,193.5,1221.8828,189.5,1225.8828" style="stroke:#181818;stroke-width:1.0;"/><line style="stroke:#181818;stroke-width:1.0;" x1="189.5" x2="189.5" y1="1265.8516" y2="1285.8516"/><polygon fill="#181818" points="185.5,1275.8516,189.5,1285.8516,193.5,1275.8516,189.5,1279.8516" style="stroke:#181818;stroke-width:1.0;"/><line style="stroke:#181818;stroke-width:1.0;" x1="189.5" x2="189.5" y1="1370.418" y2="1392.9844"/><polygon fill="#181818" points="185.5,1382.9844,189.5,1392.9844,193.5,1382.9844,189.5,1386.9844" style="stroke:#181818;stroke-width:1.0;"/><line style="stroke:#181818;stroke-width:1.0;" x1="189.5" x2="189.5" y1="1426.9531" y2="1446.9531"/><polygon fill="#181818" points="185.5,1436.9531,189.5,1446.9531,193.5,1436.9531,189.5,1440.9531" style="stroke:#181818;stroke-width:1.0;"/><!--MD5=[07f449ceb5abe8b0109b49e64574bdea]
@startuml
!pragma layout smetana
start
note right
constructor ImageDataSimple(intwidth,intheight)
end note
:super (width,height);;
end
start
note right
constructor ImageDataSimple(XDimension2Ddim)
end note
:super (dim);;
end
start
note right
constructor ImageDataSimple(XDimension2Ddim,
intstatus)
end note
:super (dim);;
:setStatus(status);;
end
start
note right
constructor ImageDataSimple()
end note
:this(0,0);;
end
start
note right
booleancontainsCMapData()
end note
:return false;;
stop
end
start
note right
StringgetCMapData(StringnameId)
end note
:throw new UnsupportedOperationException();;
stop
end
start
note right
StringgetWarningOrError()
end note
:return null ;;
stop
end
start
note right
ImageDataerror()
end note
:final ImageDataSimpleresult=new ImageDataSimple();;
:result.setStatus(503);;
:return result;;
stop
end
start
note right
ImageDataok()
end note
:return new ImageDataSimple();;
stop
end
@enduml

PlantUML version 1.2022.7(Mon Aug 22 17:01:30 UTC 2022)
(GPL source distribution)
Java Runtime: OpenJDK Runtime Environment
JVM: OpenJDK 64-Bit Server VM
Default Encoding: UTF-8
Language: en
Country: null
--></g></svg>