<?xml version="1.0" encoding="UTF-8" standalone="no"?><svg xmlns="http://www.w3.org/2000/svg" xmlns:xlink="http://www.w3.org/1999/xlink" contentStyleType="text/css" height="220px" preserveAspectRatio="none" style="width:433px;height:220px;background:#FFFFFF;" version="1.1" viewBox="0 0 433 220" width="433px" zoomAndPan="magnify"><defs/><g><!--MD5=[aa8f7b917213fcc1c2766e2d59b49067]
cluster java.lang--><g id="cluster_java.lang"><path d="M171.5,6 L241.5,6 A3.75,3.75 0 0 1 244,8.5 L251,28.2969 L260.5,28.2969 A2.5,2.5 0 0 1 263,30.7969 L263,86.5 A2.5,2.5 0 0 1 260.5,89 L171.5,89 A2.5,2.5 0 0 1 169,86.5 L169,8.5 A2.5,2.5 0 0 1 171.5,6 " fill="none" style="stroke:#000000;stroke-width:1.5;"/><line style="stroke:#000000;stroke-width:1.5;" x1="169" x2="251" y1="28.2969" y2="28.2969"/><text fill="#000000" font-family="sans-serif" font-size="14" font-weight="bold" lengthAdjust="spacing" textLength="69" x="173" y="20.9951">java.lang</text></g><!--MD5=[36aca43c13778064913972a6fb6fc94a]
cluster net.sourceforge.plantuml.api--><g id="cluster_net.sourceforge.plantuml.api"><path d="M8.5,97 L238.5,97 A3.75,3.75 0 0 1 241,99.5 L248,119.2969 L423.5,119.2969 A2.5,2.5 0 0 1 426,121.7969 L426,210.5 A2.5,2.5 0 0 1 423.5,213 L8.5,213 A2.5,2.5 0 0 1 6,210.5 L6,99.5 A2.5,2.5 0 0 1 8.5,97 " fill="none" style="stroke:#000000;stroke-width:1.5;"/><line style="stroke:#000000;stroke-width:1.5;" x1="6" x2="248" y1="119.2969" y2="119.2969"/><text fill="#000000" font-family="sans-serif" font-size="14" font-weight="bold" lengthAdjust="spacing" textLength="229" x="10" y="111.9951">net.sourceforge.plantuml.api</text></g><!--MD5=[274ad5661286b626a93603d287cbf95a]
class java.lang.Object--><g id="elem_java.lang.Object"><rect fill="#F1F1F1" height="48" id="java.lang.Object" rx="2.5" ry="2.5" style="stroke:#181818;stroke-width:0.5;" width="77" x="177.5" y="33"/><ellipse cx="192.5" cy="49" fill="#ADD1B2" rx="11" ry="11" style="stroke:#181818;stroke-width:1.0;"/><path d="M195.4688,54.6406 Q194.8906,54.9375 194.25,55.0781 Q193.6094,55.2344 192.9063,55.2344 Q190.4063,55.2344 189.0781,53.5938 Q187.7656,51.9375 187.7656,48.8125 Q187.7656,45.6875 189.0781,44.0313 Q190.4063,42.375 192.9063,42.375 Q193.6094,42.375 194.25,42.5313 Q194.9063,42.6875 195.4688,42.9844 L195.4688,45.7031 Q194.8438,45.125 194.25,44.8594 Q193.6563,44.5781 193.0313,44.5781 Q191.6875,44.5781 191,45.6563 Q190.3125,46.7188 190.3125,48.8125 Q190.3125,50.9063 191,51.9844 Q191.6875,53.0469 193.0313,53.0469 Q193.6563,53.0469 194.25,52.7813 Q194.8438,52.5 195.4688,51.9219 L195.4688,54.6406 Z " fill="#000000"/><text fill="#000000" font-family="sans-serif" font-size="14" lengthAdjust="spacing" textLength="45" x="206.5" y="53.8467">Object</text><line style="stroke:#181818;stroke-width:0.5;" x1="178.5" x2="253.5" y1="65" y2="65"/><line style="stroke:#181818;stroke-width:0.5;" x1="178.5" x2="253.5" y1="73" y2="73"/></g><!--MD5=[418cff3221de835ee4fdb8be4edfec64]
class net.sourceforge.plantuml.api.PSystemFactory--><g id="elem_net.sourceforge.plantuml.api.PSystemFactory"><rect codeLine="3" fill="#F1F1F1" height="80.5938" id="net.sourceforge.plantuml.api.PSystemFactory" rx="2.5" ry="2.5" style="stroke:#181818;stroke-width:0.5;" width="404" x="14" y="124"/><ellipse cx="156.75" cy="140" fill="#ADD1B2" rx="11" ry="11" style="stroke:#181818;stroke-width:1.0;"/><path d="M159.7188,145.6406 Q159.1406,145.9375 158.5,146.0781 Q157.8594,146.2344 157.1563,146.2344 Q154.6563,146.2344 153.3281,144.5938 Q152.0156,142.9375 152.0156,139.8125 Q152.0156,136.6875 153.3281,135.0313 Q154.6563,133.375 157.1563,133.375 Q157.8594,133.375 158.5,133.5313 Q159.1563,133.6875 159.7188,133.9844 L159.7188,136.7031 Q159.0938,136.125 158.5,135.8594 Q157.9063,135.5781 157.2813,135.5781 Q155.9375,135.5781 155.25,136.6563 Q154.5625,137.7188 154.5625,139.8125 Q154.5625,141.9063 155.25,142.9844 Q155.9375,144.0469 157.2813,144.0469 Q157.9063,144.0469 158.5,143.7813 Q159.0938,143.5 159.7188,142.9219 L159.7188,145.6406 Z " fill="#000000"/><text fill="#000000" font-family="sans-serif" font-size="14" lengthAdjust="spacing" textLength="110" x="177.25" y="144.8467">PSystemFactory</text><line style="stroke:#181818;stroke-width:0.5;" x1="15" x2="417" y1="156" y2="156"/><line style="stroke:#181818;stroke-width:0.5;" x1="15" x2="417" y1="164" y2="164"/><a href="./../../../../../.././qc/src/net/sourceforge/plantuml/api/PSystemFactory.java.html#46" target="_top" title="./../../../../../.././qc/src/net/sourceforge/plantuml/api/PSystemFactory.java.html#46" xlink:actuate="onRequest" xlink:href="./../../../../../.././qc/src/net/sourceforge/plantuml/api/PSystemFactory.java.html#46" xlink:show="new" xlink:title="./../../../../../.././qc/src/net/sourceforge/plantuml/api/PSystemFactory.java.html#46" xlink:type="simple"><text fill="#000000" font-family="sans-serif" font-size="14" lengthAdjust="spacing" textLength="392" x="20" y="180.9951">createSystem(UmlSource;Map&lt;String,String&gt;) : Diagram</text></a><a href="./../../../../../.././qc/src/net/sourceforge/plantuml/api/PSystemFactory.java.html#48" target="_top" title="./../../../../../.././qc/src/net/sourceforge/plantuml/api/PSystemFactory.java.html#48" xlink:actuate="onRequest" xlink:href="./../../../../../.././qc/src/net/sourceforge/plantuml/api/PSystemFactory.java.html#48" xlink:show="new" xlink:title="./../../../../../.././qc/src/net/sourceforge/plantuml/api/PSystemFactory.java.html#48" xlink:type="simple"><text fill="#000000" font-family="sans-serif" font-size="14" lengthAdjust="spacing" textLength="228" x="20" y="197.292">getDiagramType() : DiagramType</text></a></g><path d="M216,81.1524 C216,93.6475 216,109.4184 216,123.8064 " fill="none" style="stroke:#181818;stroke-width:1.0;"/><polygon fill="#FFFFFF" points="216,81.1524,210,97.1524,222,97.1524,216,81.1524" style="stroke:#181818;stroke-width:1.0;"/><!--MD5=[63db329114093432d82a741351e79740]
@startuml
!pragma layout smetana
"java.lang.Object" <|- - "net.sourceforge.plantuml.api.PSystemFactory"
class net.sourceforge.plantuml.api.PSystemFactory {
createSystem(UmlSource;Map<String,String>) : Diagram [[[./../../../../../.././qc/src/net/sourceforge/plantuml/api/PSystemFactory.java.html#46]]]
getDiagramType() : DiagramType [[[./../../../../../.././qc/src/net/sourceforge/plantuml/api/PSystemFactory.java.html#48]]]
} 
@enduml

PlantUML version 1.2022.7(Mon Aug 22 17:01:30 UTC 2022)
(GPL source distribution)
Java Runtime: OpenJDK Runtime Environment
JVM: OpenJDK 64-Bit Server VM
Default Encoding: UTF-8
Language: en
Country: null
--></g></svg>