<?xml version="1.0" encoding="UTF-8" standalone="no"?><svg xmlns="http://www.w3.org/2000/svg" xmlns:xlink="http://www.w3.org/1999/xlink" contentStyleType="text/css" height="1991px" preserveAspectRatio="none" style="width:772px;height:1991px;background:#FFFFFF;" version="1.1" viewBox="0 0 772 1991" width="772px" zoomAndPan="magnify"><defs/><g><path d="M327,10 L327,18.5664 L307,22.5664 L327,26.5664 L327,35.1328 A0,0 0 0 0 327,35.1328 L571,35.1328 A0,0 0 0 0 571,35.1328 L571,20 L561,10 L327,10 A0,0 0 0 0 327,10 " fill="#FEFFDD" style="stroke:#181818;stroke-width:0.5;"/><path d="M561,10 L561,20 L571,20 L561,10 " fill="#FEFFDD" style="stroke:#181818;stroke-width:0.5;"/><text fill="#000000" font-family="sans-serif" font-size="13" lengthAdjust="spacing" textLength="223" x="333" y="27.0669">constructor CommandBackward3()</text><ellipse cx="297" cy="22.5664" fill="#222222" rx="10" ry="10" style="stroke:#222222;stroke-width:1.0;"/><rect fill="#F1F1F1" height="33.9688" rx="12.5" ry="12.5" style="stroke:#181818;stroke-width:0.5;" width="187" x="203.5" y="55.1328"/><text fill="#000000" font-family="sans-serif" font-size="12" lengthAdjust="spacing" textLength="167" x="213.5" y="76.2715">super (getRegexConcat());</text><ellipse cx="297" cy="119.1016" fill="none" rx="10" ry="10" style="stroke:#222222;stroke-width:1.5;"/><line style="stroke:#222222;stroke-width:2.5;" x1="290.8128" x2="303.1872" y1="112.9144" y2="125.2887"/><line style="stroke:#222222;stroke-width:2.5;" x1="303.1872" x2="290.8128" y1="112.9144" y2="125.2887"/><path d="M327,139.1016 L327,147.668 L307,151.668 L327,155.668 L327,164.2344 A0,0 0 0 0 327,164.2344 L505,164.2344 A0,0 0 0 0 505,164.2344 L505,149.1016 L495,139.1016 L327,139.1016 A0,0 0 0 0 327,139.1016 " fill="#FEFFDD" style="stroke:#181818;stroke-width:0.5;"/><path d="M495,139.1016 L495,149.1016 L505,149.1016 L495,139.1016 " fill="#FEFFDD" style="stroke:#181818;stroke-width:0.5;"/><text fill="#000000" font-family="sans-serif" font-size="13" lengthAdjust="spacing" textLength="157" x="333" y="156.1685">IRegexgetRegexConcat()</text><ellipse cx="297" cy="151.668" fill="#222222" rx="10" ry="10" style="stroke:#222222;stroke-width:1.0;"/><rect fill="#F1F1F1" height="215.5625" rx="12.5" ry="12.5" style="stroke:#181818;stroke-width:0.5;" width="572" x="11" y="184.2344"/><text fill="#000000" font-family="sans-serif" font-size="12" lengthAdjust="spacing" textLength="409" x="21" y="205.373">return RegexConcat.build(CommandBackward3.class .getName(),</text><text fill="#000000" font-family="sans-serif" font-size="12" lengthAdjust="spacing" textLength="482" x="21" y="219.3418">RegexLeaf.start(),new RegexOptional(new RegexConcat(new RegexLeaf("\\("),</text><text fill="#000000" font-family="sans-serif" font-size="12" lengthAdjust="spacing" textLength="341" x="21" y="233.3105">new RegexOptional(new RegexOr(new RegexLeaf("-&gt;"),</text><text fill="#000000" font-family="sans-serif" font-size="12" lengthAdjust="spacing" textLength="539" x="21" y="247.2793">new RegexLeaf("INCOMING_COLOR",CommandLinkElement.STYLE_COLORS_MULTIPLES))),</text><text fill="#000000" font-family="sans-serif" font-size="12" lengthAdjust="spacing" textLength="357" x="21" y="261.248">new RegexLeaf("INCOMING","(.*?)"),new RegexLeaf("\\)"))),</text><text fill="#000000" font-family="sans-serif" font-size="12" lengthAdjust="spacing" textLength="372" x="21" y="275.2168">RegexLeaf.spaceZeroOrMore(),new RegexLeaf("backward"),</text><text fill="#000000" font-family="sans-serif" font-size="12" lengthAdjust="spacing" textLength="316" x="21" y="289.1855">RegexLeaf.spaceZeroOrMore(),new RegexLeaf(":"),</text><text fill="#000000" font-family="sans-serif" font-size="12" lengthAdjust="spacing" textLength="341" x="21" y="303.1543">new RegexLeaf("LABEL","(.*?)"),new RegexLeaf("STYLE",</text><text fill="#000000" font-family="sans-serif" font-size="12" lengthAdjust="spacing" textLength="412" x="21" y="317.123">CommandActivity3.endingGroup()),RegexLeaf.spaceZeroOrMore(),</text><text fill="#000000" font-family="sans-serif" font-size="12" lengthAdjust="spacing" textLength="370" x="21" y="331.0918">new RegexOptional(new RegexConcat(new RegexLeaf("\\("),</text><text fill="#000000" font-family="sans-serif" font-size="12" lengthAdjust="spacing" textLength="341" x="21" y="345.0605">new RegexOptional(new RegexOr(new RegexLeaf("-&gt;"),</text><text fill="#000000" font-family="sans-serif" font-size="12" lengthAdjust="spacing" textLength="552" x="21" y="359.0293">new RegexLeaf("OUTCOMING_COLOR",CommandLinkElement.STYLE_COLORS_MULTIPLES))),</text><text fill="#000000" font-family="sans-serif" font-size="12" lengthAdjust="spacing" textLength="370" x="21" y="372.998">new RegexLeaf("OUTCOMING","(.*?)"),new RegexLeaf("\\)"))),</text><text fill="#000000" font-family="sans-serif" font-size="12" lengthAdjust="spacing" textLength="306" x="21" y="386.9668">RegexLeaf.spaceZeroOrMore(),RegexLeaf.end());</text><ellipse cx="297" cy="430.7969" fill="none" rx="11" ry="11" style="stroke:#222222;stroke-width:1.0;"/><ellipse cx="297" cy="430.7969" fill="#222222" rx="6" ry="6" style="stroke:#111111;stroke-width:1.0;"/><ellipse cx="297" cy="461.7969" fill="none" rx="10" ry="10" style="stroke:#222222;stroke-width:1.5;"/><line style="stroke:#222222;stroke-width:2.5;" x1="290.8128" x2="303.1872" y1="455.6097" y2="467.9841"/><line style="stroke:#222222;stroke-width:2.5;" x1="303.1872" x2="290.8128" y1="455.6097" y2="467.9841"/><path d="M327,481.7969 L327,497.9297 L307,501.9297 L327,505.9297 L327,522.0625 A0,0 0 0 0 327,522.0625 L760,522.0625 A0,0 0 0 0 760,522.0625 L760,491.7969 L750,481.7969 L327,481.7969 A0,0 0 0 0 327,481.7969 " fill="#FEFFDD" style="stroke:#181818;stroke-width:0.5;"/><path d="M750,481.7969 L750,491.7969 L760,491.7969 L750,481.7969 " fill="#FEFFDD" style="stroke:#181818;stroke-width:0.5;"/><text fill="#000000" font-family="sans-serif" font-size="13" lengthAdjust="spacing" textLength="412" x="333" y="498.8638">CommandExecutionResultexecuteArg(ActivityDiagram3diagram,</text><text fill="#000000" font-family="sans-serif" font-size="13" lengthAdjust="spacing" textLength="238" x="333" y="513.9966">LineLocationlocation,RegexResultarg)</text><ellipse cx="297" cy="501.9297" fill="#222222" rx="10" ry="10" style="stroke:#222222;stroke-width:1.0;"/><rect fill="#F1F1F1" height="33.9688" rx="12.5" ry="12.5" style="stroke:#181818;stroke-width:0.5;" width="158" x="218" y="542.0625"/><text fill="#000000" font-family="sans-serif" font-size="12" lengthAdjust="spacing" textLength="138" x="228" y="563.2012">final BoxStyleboxStyle;</text><rect fill="#F1F1F1" height="33.9688" rx="12.5" ry="12.5" style="stroke:#181818;stroke-width:0.5;" width="281" x="156.5" y="596.0313"/><text fill="#000000" font-family="sans-serif" font-size="12" lengthAdjust="spacing" textLength="261" x="166.5" y="617.1699">final StringstyleString=arg.get("STYLE",0);</text><polygon fill="#F1F1F1" points="245.5,650,348.5,650,360.5,662,348.5,674,245.5,674,233.5,662,245.5,650" style="stroke:#181818;stroke-width:0.5;"/><text fill="#000000" font-family="sans-serif" font-size="11" lengthAdjust="spacing" textLength="99" x="245.5" y="665.8081">styleString==null</text><text fill="#000000" font-family="sans-serif" font-size="11" lengthAdjust="spacing" textLength="20" x="213.5" y="659.4058">yes</text><text fill="#000000" font-family="sans-serif" font-size="11" lengthAdjust="spacing" textLength="14" x="360.5" y="659.4058">no</text><rect fill="#F1F1F1" height="33.9688" rx="12.5" ry="12.5" style="stroke:#181818;stroke-width:0.5;" width="176" x="70.5" y="684"/><text fill="#000000" font-family="sans-serif" font-size="12" lengthAdjust="spacing" textLength="156" x="80.5" y="705.1387">boxStyle=BoxStyle.PLAIN;</text><rect fill="#F1F1F1" height="33.9688" rx="12.5" ry="12.5" style="stroke:#181818;stroke-width:0.5;" width="338" x="266.5" y="684"/><text fill="#000000" font-family="sans-serif" font-size="12" lengthAdjust="spacing" textLength="318" x="276.5" y="705.1387">boxStyle=BoxStyle.fromChar(styleString.charAt(0));</text><polygon fill="#F1F1F1" points="297,723.9688,309,735.9688,297,747.9688,285,735.9688,297,723.9688" style="stroke:#181818;stroke-width:0.5;"/><rect fill="#F1F1F1" height="47.9375" rx="12.5" ry="12.5" style="stroke:#181818;stroke-width:0.5;" width="391" x="101.5" y="767.9688"/><text fill="#000000" font-family="sans-serif" font-size="12" lengthAdjust="spacing" textLength="371" x="111.5" y="789.1074">final Displaylabel=Display.getWithNewlines(arg.get("LABEL",</text><text fill="#000000" font-family="sans-serif" font-size="12" lengthAdjust="spacing" textLength="22" x="111.5" y="803.0762">0));</text><rect fill="#F1F1F1" height="47.9375" rx="12.5" ry="12.5" style="stroke:#181818;stroke-width:0.5;" width="334" x="130" y="835.9063"/><text fill="#000000" font-family="sans-serif" font-size="12" lengthAdjust="spacing" textLength="314" x="140" y="857.0449">final LinkRenderingin=getBackRendering(diagram,</text><text fill="#000000" font-family="sans-serif" font-size="12" lengthAdjust="spacing" textLength="104" x="140" y="871.0137">arg,"INCOMING");</text><rect fill="#F1F1F1" height="47.9375" rx="12.5" ry="12.5" style="stroke:#181818;stroke-width:0.5;" width="344" x="125" y="903.8438"/><text fill="#000000" font-family="sans-serif" font-size="12" lengthAdjust="spacing" textLength="324" x="135" y="924.9824">final LinkRenderingout=getBackRendering(diagram,</text><text fill="#000000" font-family="sans-serif" font-size="12" lengthAdjust="spacing" textLength="117" x="135" y="938.9512">arg,"OUTCOMING");</text><rect fill="#F1F1F1" height="47.9375" rx="12.5" ry="12.5" style="stroke:#181818;stroke-width:0.5;" width="288" x="153" y="971.7813"/><text fill="#000000" font-family="sans-serif" font-size="12" lengthAdjust="spacing" textLength="268" x="163" y="992.9199">return diagram.backward(label,boxStyle,in,</text><text fill="#000000" font-family="sans-serif" font-size="12" lengthAdjust="spacing" textLength="30" x="163" y="1006.8887">out);</text><ellipse cx="297" cy="1050.7188" fill="none" rx="11" ry="11" style="stroke:#222222;stroke-width:1.0;"/><ellipse cx="297" cy="1050.7188" fill="#222222" rx="6" ry="6" style="stroke:#111111;stroke-width:1.0;"/><ellipse cx="297" cy="1081.7188" fill="none" rx="10" ry="10" style="stroke:#222222;stroke-width:1.5;"/><line style="stroke:#222222;stroke-width:2.5;" x1="290.8128" x2="303.1872" y1="1075.5316" y2="1087.9059"/><line style="stroke:#222222;stroke-width:2.5;" x1="303.1872" x2="290.8128" y1="1075.5316" y2="1087.9059"/><path d="M327,1101.7188 L327,1117.8516 L307,1121.8516 L327,1125.8516 L327,1141.9844 A0,0 0 0 0 327,1141.9844 L724,1141.9844 A0,0 0 0 0 724,1141.9844 L724,1111.7188 L714,1101.7188 L327,1101.7188 A0,0 0 0 0 327,1101.7188 " fill="#FEFFDD" style="stroke:#181818;stroke-width:0.5;"/><path d="M714,1101.7188 L714,1111.7188 L724,1111.7188 L714,1101.7188 " fill="#FEFFDD" style="stroke:#181818;stroke-width:0.5;"/><text fill="#000000" font-family="sans-serif" font-size="13" lengthAdjust="spacing" textLength="376" x="333" y="1118.7856">LinkRenderinggetBackRendering(ActivityDiagram3diagram,</text><text fill="#000000" font-family="sans-serif" font-size="13" lengthAdjust="spacing" textLength="183" x="333" y="1133.9185">RegexResultarg,Stringname)</text><ellipse cx="297" cy="1121.8516" fill="#222222" rx="10" ry="10" style="stroke:#222222;stroke-width:1.0;"/><rect fill="#F1F1F1" height="33.9688" rx="12.5" ry="12.5" style="stroke:#181818;stroke-width:0.5;" width="153" x="220.5" y="1161.9844"/><text fill="#000000" font-family="sans-serif" font-size="12" lengthAdjust="spacing" textLength="133" x="230.5" y="1183.123">final LinkRenderingin;</text><rect fill="#F1F1F1" height="47.9375" rx="12.5" ry="12.5" style="stroke:#181818;stroke-width:0.5;" width="323" x="135.5" y="1215.9531"/><text fill="#000000" font-family="sans-serif" font-size="12" lengthAdjust="spacing" textLength="303" x="145.5" y="1237.0918">final RainbowincomingColor=getRainbow(name+</text><text fill="#000000" font-family="sans-serif" font-size="12" lengthAdjust="spacing" textLength="145" x="145.5" y="1251.0605">"_COLOR",diagram,arg);</text><polygon fill="#F1F1F1" points="235.5,1283.8906,358.5,1283.8906,370.5,1295.8906,358.5,1307.8906,235.5,1307.8906,223.5,1295.8906,235.5,1283.8906" style="stroke:#181818;stroke-width:0.5;"/><text fill="#000000" font-family="sans-serif" font-size="11" lengthAdjust="spacing" textLength="119" x="235.5" y="1299.6987">incomingColor==null</text><text fill="#000000" font-family="sans-serif" font-size="11" lengthAdjust="spacing" textLength="20" x="203.5" y="1293.2964">yes</text><text fill="#000000" font-family="sans-serif" font-size="11" lengthAdjust="spacing" textLength="14" x="370.5" y="1293.2964">no</text><rect fill="#F1F1F1" height="33.9688" rx="12.5" ry="12.5" style="stroke:#181818;stroke-width:0.5;" width="179" x="83.75" y="1317.8906"/><text fill="#000000" font-family="sans-serif" font-size="12" lengthAdjust="spacing" textLength="159" x="93.75" y="1339.0293">in=LinkRendering.none();</text><rect fill="#F1F1F1" height="33.9688" rx="12.5" ry="12.5" style="stroke:#181818;stroke-width:0.5;" width="276" x="282.75" y="1317.8906"/><text fill="#000000" font-family="sans-serif" font-size="12" lengthAdjust="spacing" textLength="256" x="292.75" y="1339.0293">in=LinkRendering.create(incomingColor);</text><polygon fill="#F1F1F1" points="297,1357.8594,309,1369.8594,297,1381.8594,285,1369.8594,297,1357.8594" style="stroke:#181818;stroke-width:0.5;"/><rect fill="#F1F1F1" height="33.9688" rx="12.5" ry="12.5" style="stroke:#181818;stroke-width:0.5;" width="234" x="180" y="1401.8594"/><text fill="#000000" font-family="sans-serif" font-size="12" lengthAdjust="spacing" textLength="214" x="190" y="1422.998">final Stringlabel=arg.get(name,0);</text><rect fill="#F1F1F1" height="33.9688" rx="12.5" ry="12.5" style="stroke:#181818;stroke-width:0.5;" width="352" x="121" y="1455.8281"/><text fill="#000000" font-family="sans-serif" font-size="12" lengthAdjust="spacing" textLength="332" x="131" y="1476.9668">return in.withDisplay(Display.getWithNewlines(label));</text><ellipse cx="297" cy="1520.7969" fill="none" rx="11" ry="11" style="stroke:#222222;stroke-width:1.0;"/><ellipse cx="297" cy="1520.7969" fill="#222222" rx="6" ry="6" style="stroke:#111111;stroke-width:1.0;"/><ellipse cx="297" cy="1551.7969" fill="none" rx="10" ry="10" style="stroke:#222222;stroke-width:1.5;"/><line style="stroke:#222222;stroke-width:2.5;" x1="290.8128" x2="303.1872" y1="1545.6097" y2="1557.9841"/><line style="stroke:#222222;stroke-width:2.5;" x1="303.1872" x2="290.8128" y1="1545.6097" y2="1557.9841"/><path d="M327,1571.7969 L327,1587.9297 L307,1591.9297 L327,1595.9297 L327,1612.0625 A0,0 0 0 0 327,1612.0625 L708,1612.0625 A0,0 0 0 0 708,1612.0625 L708,1581.7969 L698,1571.7969 L327,1571.7969 A0,0 0 0 0 327,1571.7969 " fill="#FEFFDD" style="stroke:#181818;stroke-width:0.5;"/><path d="M698,1571.7969 L698,1581.7969 L708,1581.7969 L698,1571.7969 " fill="#FEFFDD" style="stroke:#181818;stroke-width:0.5;"/><text fill="#000000" font-family="sans-serif" font-size="13" lengthAdjust="spacing" textLength="360" x="333" y="1588.8638">RainbowgetRainbow(Stringkey,ActivityDiagram3diagram,</text><text fill="#000000" font-family="sans-serif" font-size="13" lengthAdjust="spacing" textLength="104" x="333" y="1603.9966">RegexResultarg)</text><ellipse cx="297" cy="1591.9297" fill="#222222" rx="10" ry="10" style="stroke:#222222;stroke-width:1.0;"/><rect fill="#F1F1F1" height="33.9688" rx="12.5" ry="12.5" style="stroke:#181818;stroke-width:0.5;" width="258" x="168" y="1632.0625"/><text fill="#000000" font-family="sans-serif" font-size="12" lengthAdjust="spacing" textLength="238" x="178" y="1653.2012">final StringcolorString=arg.get(key,0);</text><rect fill="#F1F1F1" height="33.9688" rx="12.5" ry="12.5" style="stroke:#181818;stroke-width:0.5;" width="93" x="250.5" y="1734.4336"/><text fill="#000000" font-family="sans-serif" font-size="12" lengthAdjust="spacing" textLength="73" x="260.5" y="1755.5723">return null ;</text><ellipse cx="297" cy="1807.918" fill="none" rx="11" ry="11" style="stroke:#222222;stroke-width:1.0;"/><ellipse cx="297" cy="1807.918" fill="#222222" rx="6" ry="6" style="stroke:#111111;stroke-width:1.0;"/><polygon fill="#F1F1F1" points="245,1686.0313,349,1686.0313,361,1698.0313,349,1710.0313,245,1710.0313,233,1698.0313,245,1686.0313" style="stroke:#181818;stroke-width:0.5;"/><text fill="#000000" font-family="sans-serif" font-size="11" lengthAdjust="spacing" textLength="20" x="301" y="1720.2417">yes</text><text fill="#000000" font-family="sans-serif" font-size="11" lengthAdjust="spacing" textLength="100" x="245" y="1701.8394">colorString==null</text><rect fill="#F1F1F1" height="47.9375" rx="12.5" ry="12.5" style="stroke:#181818;stroke-width:0.5;" width="441" x="76.5" y="1860.918"/><text fill="#000000" font-family="sans-serif" font-size="12" lengthAdjust="spacing" textLength="290" x="86.5" y="1882.0566">return Rainbow.build(diagram.getSkinParam(),</text><text fill="#000000" font-family="sans-serif" font-size="12" lengthAdjust="spacing" textLength="421" x="86.5" y="1896.0254">colorString,diagram.getSkinParam().colorArrowSeparationSpace());</text><ellipse cx="297" cy="1939.8555" fill="none" rx="11" ry="11" style="stroke:#222222;stroke-width:1.0;"/><ellipse cx="297" cy="1939.8555" fill="#222222" rx="6" ry="6" style="stroke:#111111;stroke-width:1.0;"/><ellipse cx="297" cy="1970.8555" fill="none" rx="10" ry="10" style="stroke:#222222;stroke-width:1.5;"/><line style="stroke:#222222;stroke-width:2.5;" x1="290.8128" x2="303.1872" y1="1964.6683" y2="1977.0427"/><line style="stroke:#222222;stroke-width:2.5;" x1="303.1872" x2="290.8128" y1="1964.6683" y2="1977.0427"/><line style="stroke:#181818;stroke-width:1.0;" x1="297" x2="297" y1="32.5664" y2="55.1328"/><polygon fill="#181818" points="293,45.1328,297,55.1328,301,45.1328,297,49.1328" style="stroke:#181818;stroke-width:1.0;"/><line style="stroke:#181818;stroke-width:1.0;" x1="297" x2="297" y1="89.1016" y2="109.1016"/><polygon fill="#181818" points="293,99.1016,297,109.1016,301,99.1016,297,103.1016" style="stroke:#181818;stroke-width:1.0;"/><line style="stroke:#181818;stroke-width:1.0;" x1="297" x2="297" y1="161.668" y2="184.2344"/><polygon fill="#181818" points="293,174.2344,297,184.2344,301,174.2344,297,178.2344" style="stroke:#181818;stroke-width:1.0;"/><line style="stroke:#181818;stroke-width:1.0;" x1="297" x2="297" y1="399.7969" y2="419.7969"/><polygon fill="#181818" points="293,409.7969,297,419.7969,301,409.7969,297,413.7969" style="stroke:#181818;stroke-width:1.0;"/><line style="stroke:#181818;stroke-width:1.0;" x1="297" x2="297" y1="511.9297" y2="542.0625"/><polygon fill="#181818" points="293,532.0625,297,542.0625,301,532.0625,297,536.0625" style="stroke:#181818;stroke-width:1.0;"/><line style="stroke:#181818;stroke-width:1.0;" x1="297" x2="297" y1="576.0313" y2="596.0313"/><polygon fill="#181818" points="293,586.0313,297,596.0313,301,586.0313,297,590.0313" style="stroke:#181818;stroke-width:1.0;"/><line style="stroke:#181818;stroke-width:1.0;" x1="233.5" x2="158.5" y1="662" y2="662"/><line style="stroke:#181818;stroke-width:1.0;" x1="158.5" x2="158.5" y1="662" y2="684"/><polygon fill="#181818" points="154.5,674,158.5,684,162.5,674,158.5,678" style="stroke:#181818;stroke-width:1.0;"/><line style="stroke:#181818;stroke-width:1.0;" x1="360.5" x2="435.5" y1="662" y2="662"/><line style="stroke:#181818;stroke-width:1.0;" x1="435.5" x2="435.5" y1="662" y2="684"/><polygon fill="#181818" points="431.5,674,435.5,684,439.5,674,435.5,678" style="stroke:#181818;stroke-width:1.0;"/><line style="stroke:#181818;stroke-width:1.0;" x1="158.5" x2="158.5" y1="717.9688" y2="735.9688"/><line style="stroke:#181818;stroke-width:1.0;" x1="158.5" x2="285" y1="735.9688" y2="735.9688"/><polygon fill="#181818" points="275,731.9688,285,735.9688,275,739.9688,279,735.9688" style="stroke:#181818;stroke-width:1.0;"/><line style="stroke:#181818;stroke-width:1.0;" x1="435.5" x2="435.5" y1="717.9688" y2="735.9688"/><line style="stroke:#181818;stroke-width:1.0;" x1="435.5" x2="309" y1="735.9688" y2="735.9688"/><polygon fill="#181818" points="319,731.9688,309,735.9688,319,739.9688,315,735.9688" style="stroke:#181818;stroke-width:1.0;"/><line style="stroke:#181818;stroke-width:1.0;" x1="297" x2="297" y1="630" y2="650"/><polygon fill="#181818" points="293,640,297,650,301,640,297,644" style="stroke:#181818;stroke-width:1.0;"/><line style="stroke:#181818;stroke-width:1.0;" x1="297" x2="297" y1="747.9688" y2="767.9688"/><polygon fill="#181818" points="293,757.9688,297,767.9688,301,757.9688,297,761.9688" style="stroke:#181818;stroke-width:1.0;"/><line style="stroke:#181818;stroke-width:1.0;" x1="297" x2="297" y1="815.9063" y2="835.9063"/><polygon fill="#181818" points="293,825.9063,297,835.9063,301,825.9063,297,829.9063" style="stroke:#181818;stroke-width:1.0;"/><line style="stroke:#181818;stroke-width:1.0;" x1="297" x2="297" y1="883.8438" y2="903.8438"/><polygon fill="#181818" points="293,893.8438,297,903.8438,301,893.8438,297,897.8438" style="stroke:#181818;stroke-width:1.0;"/><line style="stroke:#181818;stroke-width:1.0;" x1="297" x2="297" y1="951.7813" y2="971.7813"/><polygon fill="#181818" points="293,961.7813,297,971.7813,301,961.7813,297,965.7813" style="stroke:#181818;stroke-width:1.0;"/><line style="stroke:#181818;stroke-width:1.0;" x1="297" x2="297" y1="1019.7188" y2="1039.7188"/><polygon fill="#181818" points="293,1029.7188,297,1039.7188,301,1029.7188,297,1033.7188" style="stroke:#181818;stroke-width:1.0;"/><line style="stroke:#181818;stroke-width:1.0;" x1="297" x2="297" y1="1131.8516" y2="1161.9844"/><polygon fill="#181818" points="293,1151.9844,297,1161.9844,301,1151.9844,297,1155.9844" style="stroke:#181818;stroke-width:1.0;"/><line style="stroke:#181818;stroke-width:1.0;" x1="297" x2="297" y1="1195.9531" y2="1215.9531"/><polygon fill="#181818" points="293,1205.9531,297,1215.9531,301,1205.9531,297,1209.9531" style="stroke:#181818;stroke-width:1.0;"/><line style="stroke:#181818;stroke-width:1.0;" x1="223.5" x2="173.25" y1="1295.8906" y2="1295.8906"/><line style="stroke:#181818;stroke-width:1.0;" x1="173.25" x2="173.25" y1="1295.8906" y2="1317.8906"/><polygon fill="#181818" points="169.25,1307.8906,173.25,1317.8906,177.25,1307.8906,173.25,1311.8906" style="stroke:#181818;stroke-width:1.0;"/><line style="stroke:#181818;stroke-width:1.0;" x1="370.5" x2="420.75" y1="1295.8906" y2="1295.8906"/><line style="stroke:#181818;stroke-width:1.0;" x1="420.75" x2="420.75" y1="1295.8906" y2="1317.8906"/><polygon fill="#181818" points="416.75,1307.8906,420.75,1317.8906,424.75,1307.8906,420.75,1311.8906" style="stroke:#181818;stroke-width:1.0;"/><line style="stroke:#181818;stroke-width:1.0;" x1="173.25" x2="173.25" y1="1351.8594" y2="1369.8594"/><line style="stroke:#181818;stroke-width:1.0;" x1="173.25" x2="285" y1="1369.8594" y2="1369.8594"/><polygon fill="#181818" points="275,1365.8594,285,1369.8594,275,1373.8594,279,1369.8594" style="stroke:#181818;stroke-width:1.0;"/><line style="stroke:#181818;stroke-width:1.0;" x1="420.75" x2="420.75" y1="1351.8594" y2="1369.8594"/><line style="stroke:#181818;stroke-width:1.0;" x1="420.75" x2="309" y1="1369.8594" y2="1369.8594"/><polygon fill="#181818" points="319,1365.8594,309,1369.8594,319,1373.8594,315,1369.8594" style="stroke:#181818;stroke-width:1.0;"/><line style="stroke:#181818;stroke-width:1.0;" x1="297" x2="297" y1="1263.8906" y2="1283.8906"/><polygon fill="#181818" points="293,1273.8906,297,1283.8906,301,1273.8906,297,1277.8906" style="stroke:#181818;stroke-width:1.0;"/><line style="stroke:#181818;stroke-width:1.0;" x1="297" x2="297" y1="1381.8594" y2="1401.8594"/><polygon fill="#181818" points="293,1391.8594,297,1401.8594,301,1391.8594,297,1395.8594" style="stroke:#181818;stroke-width:1.0;"/><line style="stroke:#181818;stroke-width:1.0;" x1="297" x2="297" y1="1435.8281" y2="1455.8281"/><polygon fill="#181818" points="293,1445.8281,297,1455.8281,301,1445.8281,297,1449.8281" style="stroke:#181818;stroke-width:1.0;"/><line style="stroke:#181818;stroke-width:1.0;" x1="297" x2="297" y1="1489.7969" y2="1509.7969"/><polygon fill="#181818" points="293,1499.7969,297,1509.7969,301,1499.7969,297,1503.7969" style="stroke:#181818;stroke-width:1.0;"/><line style="stroke:#181818;stroke-width:1.0;" x1="297" x2="297" y1="1601.9297" y2="1632.0625"/><polygon fill="#181818" points="293,1622.0625,297,1632.0625,301,1622.0625,297,1626.0625" style="stroke:#181818;stroke-width:1.0;"/><line style="stroke:#181818;stroke-width:1.0;" x1="297" x2="297" y1="1768.4023" y2="1796.918"/><polygon fill="#181818" points="293,1786.918,297,1796.918,301,1786.918,297,1790.918" style="stroke:#181818;stroke-width:1.0;"/><line style="stroke:#181818;stroke-width:1.0;" x1="297" x2="297" y1="1710.0313" y2="1734.4336"/><polygon fill="#181818" points="293,1724.4336,297,1734.4336,301,1724.4336,297,1728.4336" style="stroke:#181818;stroke-width:1.0;"/><line style="stroke:#181818;stroke-width:1.0;" x1="361" x2="373" y1="1698.0313" y2="1698.0313"/><polygon fill="#181818" points="369,1766.918,373,1776.918,377,1766.918,373,1770.918" style="stroke:#181818;stroke-width:1.0;"/><line style="stroke:#181818;stroke-width:1.0;" x1="373" x2="373" y1="1698.0313" y2="1840.918"/><line style="stroke:#181818;stroke-width:1.0;" x1="373" x2="297" y1="1840.918" y2="1840.918"/><line style="stroke:#181818;stroke-width:1.0;" x1="297" x2="297" y1="1840.918" y2="1860.918"/><polygon fill="#181818" points="293,1850.918,297,1860.918,301,1850.918,297,1854.918" style="stroke:#181818;stroke-width:1.0;"/><line style="stroke:#181818;stroke-width:1.0;" x1="297" x2="297" y1="1666.0313" y2="1686.0313"/><polygon fill="#181818" points="293,1676.0313,297,1686.0313,301,1676.0313,297,1680.0313" style="stroke:#181818;stroke-width:1.0;"/><line style="stroke:#181818;stroke-width:1.0;" x1="297" x2="297" y1="1908.8555" y2="1928.8555"/><polygon fill="#181818" points="293,1918.8555,297,1928.8555,301,1918.8555,297,1922.8555" style="stroke:#181818;stroke-width:1.0;"/><!--MD5=[f5e9b8b6813d358a14fd0cd140216bdb]
@startuml
!pragma layout smetana
start
note right
constructor CommandBackward3()
end note
:super (getRegexConcat());;
end
start
note right
IRegexgetRegexConcat()
end note
:return RegexConcat.build(CommandBackward3.class .getName(),
RegexLeaf.start(),new RegexOptional(new RegexConcat(new RegexLeaf("\\("),
new RegexOptional(new RegexOr(new RegexLeaf("->"),
new RegexLeaf("INCOMING_COLOR",CommandLinkElement.STYLE_COLORS_MULTIPLES))),
new RegexLeaf("INCOMING","(.*?)"),new RegexLeaf("\\)"))),
RegexLeaf.spaceZeroOrMore(),new RegexLeaf("backward"),
RegexLeaf.spaceZeroOrMore(),new RegexLeaf(":"),
new RegexLeaf("LABEL","(.*?)"),new RegexLeaf("STYLE",
CommandActivity3.endingGroup()),RegexLeaf.spaceZeroOrMore(),
new RegexOptional(new RegexConcat(new RegexLeaf("\\("),
new RegexOptional(new RegexOr(new RegexLeaf("->"),
new RegexLeaf("OUTCOMING_COLOR",CommandLinkElement.STYLE_COLORS_MULTIPLES))),
new RegexLeaf("OUTCOMING","(.*?)"),new RegexLeaf("\\)"))),
RegexLeaf.spaceZeroOrMore(),RegexLeaf.end());;
stop
end
start
note right
CommandExecutionResultexecuteArg(ActivityDiagram3diagram,
LineLocationlocation,RegexResultarg)
end note
:final BoxStyleboxStyle;;
:final StringstyleString=arg.get("STYLE",0);;
if (styleString==null ) then (yes) 
:boxStyle=BoxStyle.PLAIN;;
else (no)
:boxStyle=BoxStyle.fromChar(styleString.charAt(0));;
endif 
:final Displaylabel=Display.getWithNewlines(arg.get("LABEL",
0));;
:final LinkRenderingin=getBackRendering(diagram,
arg,"INCOMING");;
:final LinkRenderingout=getBackRendering(diagram,
arg,"OUTCOMING");;
:return diagram.backward(label,boxStyle,in,
out);;
stop
end
start
note right
LinkRenderinggetBackRendering(ActivityDiagram3diagram,
RegexResultarg,Stringname)
end note
:final LinkRenderingin;;
:final RainbowincomingColor=getRainbow(name+
"_COLOR",diagram,arg);;
if (incomingColor==null ) then (yes) 
:in=LinkRendering.none();;
else (no)
:in=LinkRendering.create(incomingColor);;
endif 
:final Stringlabel=arg.get(name,0);;
:return in.withDisplay(Display.getWithNewlines(label));;
stop
end
start
note right
RainbowgetRainbow(Stringkey,ActivityDiagram3diagram,
RegexResultarg)
end note
:final StringcolorString=arg.get(key,0);;
if (colorString==null ) then (yes) 
:return null ;;
stop
endif 
:return Rainbow.build(diagram.getSkinParam(),
colorString,diagram.getSkinParam().colorArrowSeparationSpace());;
stop
end
@enduml

PlantUML version 1.2022.7(Mon Aug 22 17:01:30 UTC 2022)
(GPL source distribution)
Java Runtime: OpenJDK Runtime Environment
JVM: OpenJDK 64-Bit Server VM
Default Encoding: UTF-8
Language: en
Country: null
--></g></svg>