<?xml version="1.0" encoding="UTF-8" standalone="no"?><svg xmlns="http://www.w3.org/2000/svg" xmlns:xlink="http://www.w3.org/1999/xlink" contentStyleType="text/css" height="1191px" preserveAspectRatio="none" style="width:1303px;height:1191px;background:#FFFFFF;" version="1.1" viewBox="0 0 1303 1191" width="1303px" zoomAndPan="magnify"><defs/><g><path d="M681.5,10 L681.5,18.5664 L661.5,22.5664 L681.5,26.5664 L681.5,35.1328 A0,0 0 0 0 681.5,35.1328 L871.5,35.1328 A0,0 0 0 0 871.5,35.1328 L871.5,20 L861.5,10 L681.5,10 A0,0 0 0 0 681.5,10 " fill="#FEFFDD" style="stroke:#181818;stroke-width:0.5;"/><path d="M861.5,10 L861.5,20 L871.5,20 L861.5,10 " fill="#FEFFDD" style="stroke:#181818;stroke-width:0.5;"/><text fill="#000000" font-family="sans-serif" font-size="13" lengthAdjust="spacing" textLength="169" x="687.5" y="27.0669">constructor CommandIf2()</text><ellipse cx="651.5" cy="22.5664" fill="#222222" rx="10" ry="10" style="stroke:#222222;stroke-width:1.0;"/><rect fill="#F1F1F1" height="33.9688" rx="12.5" ry="12.5" style="stroke:#181818;stroke-width:0.5;" width="187" x="558" y="55.1328"/><text fill="#000000" font-family="sans-serif" font-size="12" lengthAdjust="spacing" textLength="167" x="568" y="76.2715">super (getRegexConcat());</text><ellipse cx="651.5" cy="119.1016" fill="none" rx="10" ry="10" style="stroke:#222222;stroke-width:1.5;"/><line style="stroke:#222222;stroke-width:2.5;" x1="645.3128" x2="657.6872" y1="112.9144" y2="125.2887"/><line style="stroke:#222222;stroke-width:2.5;" x1="657.6872" x2="645.3128" y1="112.9144" y2="125.2887"/><path d="M681.5,139.1016 L681.5,147.668 L661.5,151.668 L681.5,155.668 L681.5,164.2344 A0,0 0 0 0 681.5,164.2344 L859.5,164.2344 A0,0 0 0 0 859.5,164.2344 L859.5,149.1016 L849.5,139.1016 L681.5,139.1016 A0,0 0 0 0 681.5,139.1016 " fill="#FEFFDD" style="stroke:#181818;stroke-width:0.5;"/><path d="M849.5,139.1016 L849.5,149.1016 L859.5,149.1016 L849.5,139.1016 " fill="#FEFFDD" style="stroke:#181818;stroke-width:0.5;"/><text fill="#000000" font-family="sans-serif" font-size="13" lengthAdjust="spacing" textLength="157" x="687.5" y="156.1685">IRegexgetRegexConcat()</text><ellipse cx="651.5" cy="151.668" fill="#222222" rx="10" ry="10" style="stroke:#222222;stroke-width:1.0;"/><rect fill="#F1F1F1" height="103.8125" rx="12.5" ry="12.5" style="stroke:#181818;stroke-width:0.5;" width="1281" x="11" y="184.2344"/><text fill="#000000" font-family="sans-serif" font-size="12" lengthAdjust="spacing" textLength="628" x="21" y="205.373">return RegexConcat.build(CommandIf2.class .getName(),RegexLeaf.start(),new RegexLeaf("URL","("+</text><text fill="#000000" font-family="sans-serif" font-size="12" lengthAdjust="spacing" textLength="302" x="21" y="219.3418">UrlBuilder.getRegexp()+")?"),ColorParser.exp4(),</text><text fill="#000000" font-family="sans-serif" font-size="12" lengthAdjust="spacing" textLength="319" x="21" y="233.3105">new RegexLeaf("if"),RegexLeaf.spaceZeroOrMore(),</text><text fill="#000000" font-family="sans-serif" font-size="12" lengthAdjust="spacing" textLength="272" x="21" y="247.2793">new RegexLeaf("\\("),new RegexLeaf("TEST",</text><text fill="#000000" font-family="sans-serif" font-size="12" lengthAdjust="spacing" textLength="1261" x="21" y="261.248">"(.*?)"),new RegexLeaf("\\)"),RegexLeaf.spaceZeroOrMore(),new RegexOptional(new RegexConcat(new RegexLeaf("then"),RegexLeaf.spaceZeroOrMore(),new RegexOptional(new RegexLeaf("WHEN","\\((.+</text><text fill="#000000" font-family="sans-serif" font-size="12" lengthAdjust="spacing" textLength="291" x="21" y="275.2168">?)\\)")))),new RegexLeaf(";?"),RegexLeaf.end());</text><ellipse cx="651.5" cy="319.0469" fill="none" rx="11" ry="11" style="stroke:#222222;stroke-width:1.0;"/><ellipse cx="651.5" cy="319.0469" fill="#222222" rx="6" ry="6" style="stroke:#111111;stroke-width:1.0;"/><ellipse cx="651.5" cy="350.0469" fill="none" rx="10" ry="10" style="stroke:#222222;stroke-width:1.5;"/><line style="stroke:#222222;stroke-width:2.5;" x1="645.3128" x2="657.6872" y1="343.8597" y2="356.2341"/><line style="stroke:#222222;stroke-width:2.5;" x1="657.6872" x2="645.3128" y1="343.8597" y2="356.2341"/><path d="M681.5,370.0469 L681.5,386.1797 L661.5,390.1797 L681.5,394.1797 L681.5,410.3125 A0,0 0 0 0 681.5,410.3125 L1114.5,410.3125 A0,0 0 0 0 1114.5,410.3125 L1114.5,380.0469 L1104.5,370.0469 L681.5,370.0469 A0,0 0 0 0 681.5,370.0469 " fill="#FEFFDD" style="stroke:#181818;stroke-width:0.5;"/><path d="M1104.5,370.0469 L1104.5,380.0469 L1114.5,380.0469 L1104.5,370.0469 " fill="#FEFFDD" style="stroke:#181818;stroke-width:0.5;"/><text fill="#000000" font-family="sans-serif" font-size="13" lengthAdjust="spacing" textLength="412" x="687.5" y="387.1138">CommandExecutionResultexecuteArg(ActivityDiagram3diagram,</text><text fill="#000000" font-family="sans-serif" font-size="13" lengthAdjust="spacing" textLength="238" x="687.5" y="402.2466">LineLocationlocation,RegexResultarg)</text><ellipse cx="651.5" cy="390.1797" fill="#222222" rx="10" ry="10" style="stroke:#222222;stroke-width:1.0;"/><rect fill="#F1F1F1" height="33.9688" rx="12.5" ry="12.5" style="stroke:#181818;stroke-width:0.5;" width="226" x="538.5" y="430.3125"/><text fill="#000000" font-family="sans-serif" font-size="12" lengthAdjust="spacing" textLength="206" x="548.5" y="451.4512">final Strings=arg.get("COLOR",0);</text><rect fill="#F1F1F1" height="47.9375" rx="12.5" ry="12.5" style="stroke:#181818;stroke-width:0.5;" width="377" x="463" y="484.2813"/><text fill="#000000" font-family="sans-serif" font-size="12" lengthAdjust="spacing" textLength="357" x="473" y="505.4199">final HColorcolor=s==null ? null :diagram.getSkinParam()</text><text fill="#000000" font-family="sans-serif" font-size="12" lengthAdjust="spacing" textLength="197" x="473" y="519.3887">.getIHtmlColorSet().getColor(s);</text><rect fill="#F1F1F1" height="33.9688" rx="12.5" ry="12.5" style="stroke:#181818;stroke-width:0.5;" width="204" x="549.5" y="552.2188"/><text fill="#000000" font-family="sans-serif" font-size="12" lengthAdjust="spacing" textLength="184" x="559.5" y="573.3574">Stringtest=arg.get("TEST",0);</text><rect fill="#F1F1F1" height="33.9688" rx="12.5" ry="12.5" style="stroke:#181818;stroke-width:0.5;" width="85" x="609" y="654.5898"/><text fill="#000000" font-family="sans-serif" font-size="12" lengthAdjust="spacing" textLength="65" x="619" y="675.7285">test=null ;</text><polygon fill="#F1F1F1" points="604.5,606.1875,698.5,606.1875,710.5,618.1875,698.5,630.1875,604.5,630.1875,592.5,618.1875,604.5,606.1875" style="stroke:#181818;stroke-width:0.5;"/><text fill="#000000" font-family="sans-serif" font-size="11" lengthAdjust="spacing" textLength="20" x="655.5" y="640.3979">yes</text><text fill="#000000" font-family="sans-serif" font-size="11" lengthAdjust="spacing" textLength="94" x="604.5" y="621.9956">test.length()==0</text><polygon fill="#F1F1F1" points="651.5,708.5586,663.5,720.5586,651.5,732.5586,639.5,720.5586,651.5,708.5586" style="stroke:#181818;stroke-width:0.5;"/><rect fill="#F1F1F1" height="33.9688" rx="12.5" ry="12.5" style="stroke:#181818;stroke-width:0.5;" width="87" x="608" y="752.5586"/><text fill="#000000" font-family="sans-serif" font-size="12" lengthAdjust="spacing" textLength="67" x="618" y="773.6973">final Urlurl;</text><polygon fill="#F1F1F1" points="585,806.5273,718,806.5273,730,818.5273,718,830.5273,585,830.5273,573,818.5273,585,806.5273" style="stroke:#181818;stroke-width:0.5;"/><text fill="#000000" font-family="sans-serif" font-size="11" lengthAdjust="spacing" textLength="129" x="585" y="822.3354">arg.get("URL",0)==null</text><text fill="#000000" font-family="sans-serif" font-size="11" lengthAdjust="spacing" textLength="20" x="553" y="815.9331">yes</text><text fill="#000000" font-family="sans-serif" font-size="11" lengthAdjust="spacing" textLength="14" x="730" y="815.9331">no</text><rect fill="#F1F1F1" height="33.9688" rx="12.5" ry="12.5" style="stroke:#181818;stroke-width:0.5;" width="76" x="448" y="840.5273"/><text fill="#000000" font-family="sans-serif" font-size="12" lengthAdjust="spacing" textLength="56" x="458" y="861.666">url=null ;</text><rect fill="#F1F1F1" height="47.9375" rx="12.5" ry="12.5" style="stroke:#181818;stroke-width:0.5;" width="546" x="544" y="840.5273"/><text fill="#000000" font-family="sans-serif" font-size="12" lengthAdjust="spacing" textLength="526" x="554" y="861.666">final UrlBuilderurlBuilder=new UrlBuilder(diagram.getSkinParam().getValue("topurl"),</text><text fill="#000000" font-family="sans-serif" font-size="12" lengthAdjust="spacing" textLength="105" x="554" y="875.6348">UrlMode.STRICT);</text><rect fill="#F1F1F1" height="33.9688" rx="12.5" ry="12.5" style="stroke:#181818;stroke-width:0.5;" width="262" x="686" y="908.4648"/><text fill="#000000" font-family="sans-serif" font-size="12" lengthAdjust="spacing" textLength="242" x="696" y="929.6035">url=urlBuilder.getUrl(arg.get("URL",0));</text><polygon fill="#F1F1F1" points="651.5,948.4336,663.5,960.4336,651.5,972.4336,639.5,960.4336,651.5,948.4336" style="stroke:#181818;stroke-width:0.5;"/><rect fill="#F1F1F1" height="61.9063" rx="12.5" ry="12.5" style="stroke:#181818;stroke-width:0.5;" width="307" x="498" y="992.4336"/><text fill="#000000" font-family="sans-serif" font-size="12" lengthAdjust="spacing" textLength="287" x="508" y="1013.5723">diagram.startIf(Display.getWithNewlines(test),</text><text fill="#000000" font-family="sans-serif" font-size="12" lengthAdjust="spacing" textLength="280" x="508" y="1027.541">Display.getWithNewlines(arg.get("WHEN",0)),</text><text fill="#000000" font-family="sans-serif" font-size="12" lengthAdjust="spacing" textLength="60" x="508" y="1041.5098">color,url);</text><rect fill="#F1F1F1" height="33.9688" rx="12.5" ry="12.5" style="stroke:#181818;stroke-width:0.5;" width="258" x="522.5" y="1074.3398"/><text fill="#000000" font-family="sans-serif" font-size="12" lengthAdjust="spacing" textLength="238" x="532.5" y="1095.4785">return CommandExecutionResult.ok();</text><ellipse cx="651.5" cy="1139.3086" fill="none" rx="11" ry="11" style="stroke:#222222;stroke-width:1.0;"/><ellipse cx="651.5" cy="1139.3086" fill="#222222" rx="6" ry="6" style="stroke:#111111;stroke-width:1.0;"/><ellipse cx="651.5" cy="1170.3086" fill="none" rx="10" ry="10" style="stroke:#222222;stroke-width:1.5;"/><line style="stroke:#222222;stroke-width:2.5;" x1="645.3128" x2="657.6872" y1="1164.1214" y2="1176.4958"/><line style="stroke:#222222;stroke-width:2.5;" x1="657.6872" x2="645.3128" y1="1164.1214" y2="1176.4958"/><line style="stroke:#181818;stroke-width:1.0;" x1="651.5" x2="651.5" y1="32.5664" y2="55.1328"/><polygon fill="#181818" points="647.5,45.1328,651.5,55.1328,655.5,45.1328,651.5,49.1328" style="stroke:#181818;stroke-width:1.0;"/><line style="stroke:#181818;stroke-width:1.0;" x1="651.5" x2="651.5" y1="89.1016" y2="109.1016"/><polygon fill="#181818" points="647.5,99.1016,651.5,109.1016,655.5,99.1016,651.5,103.1016" style="stroke:#181818;stroke-width:1.0;"/><line style="stroke:#181818;stroke-width:1.0;" x1="651.5" x2="651.5" y1="161.668" y2="184.2344"/><polygon fill="#181818" points="647.5,174.2344,651.5,184.2344,655.5,174.2344,651.5,178.2344" style="stroke:#181818;stroke-width:1.0;"/><line style="stroke:#181818;stroke-width:1.0;" x1="651.5" x2="651.5" y1="288.0469" y2="308.0469"/><polygon fill="#181818" points="647.5,298.0469,651.5,308.0469,655.5,298.0469,651.5,302.0469" style="stroke:#181818;stroke-width:1.0;"/><line style="stroke:#181818;stroke-width:1.0;" x1="651.5" x2="651.5" y1="400.1797" y2="430.3125"/><polygon fill="#181818" points="647.5,420.3125,651.5,430.3125,655.5,420.3125,651.5,424.3125" style="stroke:#181818;stroke-width:1.0;"/><line style="stroke:#181818;stroke-width:1.0;" x1="651.5" x2="651.5" y1="464.2813" y2="484.2813"/><polygon fill="#181818" points="647.5,474.2813,651.5,484.2813,655.5,474.2813,651.5,478.2813" style="stroke:#181818;stroke-width:1.0;"/><line style="stroke:#181818;stroke-width:1.0;" x1="651.5" x2="651.5" y1="532.2188" y2="552.2188"/><polygon fill="#181818" points="647.5,542.2188,651.5,552.2188,655.5,542.2188,651.5,546.2188" style="stroke:#181818;stroke-width:1.0;"/><line style="stroke:#181818;stroke-width:1.0;" x1="651.5" x2="651.5" y1="630.1875" y2="654.5898"/><polygon fill="#181818" points="647.5,644.5898,651.5,654.5898,655.5,644.5898,651.5,648.5898" style="stroke:#181818;stroke-width:1.0;"/><line style="stroke:#181818;stroke-width:1.0;" x1="710.5" x2="722.5" y1="618.1875" y2="618.1875"/><polygon fill="#181818" points="718.5,661.5742,722.5,671.5742,726.5,661.5742,722.5,665.5742" style="stroke:#181818;stroke-width:1.0;"/><line style="stroke:#181818;stroke-width:1.0;" x1="722.5" x2="722.5" y1="618.1875" y2="720.5586"/><line style="stroke:#181818;stroke-width:1.0;" x1="722.5" x2="663.5" y1="720.5586" y2="720.5586"/><polygon fill="#181818" points="673.5,716.5586,663.5,720.5586,673.5,724.5586,669.5,720.5586" style="stroke:#181818;stroke-width:1.0;"/><line style="stroke:#181818;stroke-width:1.0;" x1="651.5" x2="651.5" y1="688.5586" y2="708.5586"/><polygon fill="#181818" points="647.5,698.5586,651.5,708.5586,655.5,698.5586,651.5,702.5586" style="stroke:#181818;stroke-width:1.0;"/><line style="stroke:#181818;stroke-width:1.0;" x1="651.5" x2="651.5" y1="586.1875" y2="606.1875"/><polygon fill="#181818" points="647.5,596.1875,651.5,606.1875,655.5,596.1875,651.5,600.1875" style="stroke:#181818;stroke-width:1.0;"/><line style="stroke:#181818;stroke-width:1.0;" x1="651.5" x2="651.5" y1="732.5586" y2="752.5586"/><polygon fill="#181818" points="647.5,742.5586,651.5,752.5586,655.5,742.5586,651.5,746.5586" style="stroke:#181818;stroke-width:1.0;"/><line style="stroke:#181818;stroke-width:1.0;" x1="817" x2="817" y1="888.4648" y2="908.4648"/><polygon fill="#181818" points="813,898.4648,817,908.4648,821,898.4648,817,902.4648" style="stroke:#181818;stroke-width:1.0;"/><line style="stroke:#181818;stroke-width:1.0;" x1="573" x2="486" y1="818.5273" y2="818.5273"/><line style="stroke:#181818;stroke-width:1.0;" x1="486" x2="486" y1="818.5273" y2="840.5273"/><polygon fill="#181818" points="482,830.5273,486,840.5273,490,830.5273,486,834.5273" style="stroke:#181818;stroke-width:1.0;"/><line style="stroke:#181818;stroke-width:1.0;" x1="730" x2="817" y1="818.5273" y2="818.5273"/><line style="stroke:#181818;stroke-width:1.0;" x1="817" x2="817" y1="818.5273" y2="840.5273"/><polygon fill="#181818" points="813,830.5273,817,840.5273,821,830.5273,817,834.5273" style="stroke:#181818;stroke-width:1.0;"/><line style="stroke:#181818;stroke-width:1.0;" x1="486" x2="486" y1="874.4961" y2="960.4336"/><line style="stroke:#181818;stroke-width:1.0;" x1="486" x2="639.5" y1="960.4336" y2="960.4336"/><polygon fill="#181818" points="629.5,956.4336,639.5,960.4336,629.5,964.4336,633.5,960.4336" style="stroke:#181818;stroke-width:1.0;"/><line style="stroke:#181818;stroke-width:1.0;" x1="817" x2="817" y1="942.4336" y2="960.4336"/><line style="stroke:#181818;stroke-width:1.0;" x1="817" x2="663.5" y1="960.4336" y2="960.4336"/><polygon fill="#181818" points="673.5,956.4336,663.5,960.4336,673.5,964.4336,669.5,960.4336" style="stroke:#181818;stroke-width:1.0;"/><line style="stroke:#181818;stroke-width:1.0;" x1="651.5" x2="651.5" y1="786.5273" y2="806.5273"/><polygon fill="#181818" points="647.5,796.5273,651.5,806.5273,655.5,796.5273,651.5,800.5273" style="stroke:#181818;stroke-width:1.0;"/><line style="stroke:#181818;stroke-width:1.0;" x1="651.5" x2="651.5" y1="972.4336" y2="992.4336"/><polygon fill="#181818" points="647.5,982.4336,651.5,992.4336,655.5,982.4336,651.5,986.4336" style="stroke:#181818;stroke-width:1.0;"/><line style="stroke:#181818;stroke-width:1.0;" x1="651.5" x2="651.5" y1="1054.3398" y2="1074.3398"/><polygon fill="#181818" points="647.5,1064.3398,651.5,1074.3398,655.5,1064.3398,651.5,1068.3398" style="stroke:#181818;stroke-width:1.0;"/><line style="stroke:#181818;stroke-width:1.0;" x1="651.5" x2="651.5" y1="1108.3086" y2="1128.3086"/><polygon fill="#181818" points="647.5,1118.3086,651.5,1128.3086,655.5,1118.3086,651.5,1122.3086" style="stroke:#181818;stroke-width:1.0;"/><!--MD5=[cffa248c938218c59826d6fd38b49067]
@startuml
!pragma layout smetana
start
note right
constructor CommandIf2()
end note
:super (getRegexConcat());;
end
start
note right
IRegexgetRegexConcat()
end note
:return RegexConcat.build(CommandIf2.class .getName(),RegexLeaf.start(),new RegexLeaf("URL","("+
UrlBuilder.getRegexp()+")?"),ColorParser.exp4(),
new RegexLeaf("if"),RegexLeaf.spaceZeroOrMore(),
new RegexLeaf("\\("),new RegexLeaf("TEST",
"(.*?)"),new RegexLeaf("\\)"),RegexLeaf.spaceZeroOrMore(),new RegexOptional(new RegexConcat(new RegexLeaf("then"),RegexLeaf.spaceZeroOrMore(),new RegexOptional(new RegexLeaf("WHEN","\\((.+
?)\\)")))),new RegexLeaf(";?"),RegexLeaf.end());;
stop
end
start
note right
CommandExecutionResultexecuteArg(ActivityDiagram3diagram,
LineLocationlocation,RegexResultarg)
end note
:final Strings=arg.get("COLOR",0);;
:final HColorcolor=s==null ? null :diagram.getSkinParam()
.getIHtmlColorSet().getColor(s);;
:Stringtest=arg.get("TEST",0);;
if (test.length()==0) then (yes) 
:test=null ;;
endif 
:final Urlurl;;
if (arg.get("URL",0)==null ) then (yes) 
:url=null ;;
else (no)
:final UrlBuilderurlBuilder=new UrlBuilder(diagram.getSkinParam().getValue("topurl"),
UrlMode.STRICT);;
:url=urlBuilder.getUrl(arg.get("URL",0));;
endif 
:diagram.startIf(Display.getWithNewlines(test),
Display.getWithNewlines(arg.get("WHEN",0)),
color,url);;
:return CommandExecutionResult.ok();;
stop
end
@enduml

PlantUML version 1.2022.7(Mon Aug 22 17:01:30 UTC 2022)
(GPL source distribution)
Java Runtime: OpenJDK Runtime Environment
JVM: OpenJDK 64-Bit Server VM
Default Encoding: UTF-8
Language: en
Country: null
--></g></svg>