<?xml version="1.0" encoding="UTF-8" standalone="no"?><svg xmlns="http://www.w3.org/2000/svg" xmlns:xlink="http://www.w3.org/1999/xlink" contentStyleType="text/css" height="2117px" preserveAspectRatio="none" style="width:504px;height:2117px;background:#FFFFFF;" version="1.1" viewBox="0 0 504 2117" width="504px" zoomAndPan="magnify"><defs/><g><path d="M199.5,10 L199.5,26.1328 L179.5,30.1328 L199.5,34.1328 L199.5,50.2656 A0,0 0 0 0 199.5,50.2656 L491.5,50.2656 A0,0 0 0 0 491.5,50.2656 L491.5,20 L481.5,10 L199.5,10 A0,0 0 0 0 199.5,10 " fill="#FEFFDD" style="stroke:#181818;stroke-width:0.5;"/><path d="M481.5,10 L481.5,20 L491.5,20 L481.5,10 " fill="#FEFFDD" style="stroke:#181818;stroke-width:0.5;"/><text fill="#000000" font-family="sans-serif" font-size="13" lengthAdjust="spacing" textLength="271" x="205.5" y="27.0669">constructor GPoint(Gtile gtile,String name,</text><text fill="#000000" font-family="sans-serif" font-size="13" lengthAdjust="spacing" textLength="183" x="205.5" y="42.1997">LinkRendering linkRendering)</text><ellipse cx="169.5" cy="30.1328" fill="#222222" rx="10" ry="10" style="stroke:#222222;stroke-width:1.0;"/><rect fill="#F1F1F1" height="33.9688" rx="12.5" ry="12.5" style="stroke:#181818;stroke-width:0.5;" width="218" x="60.5" y="118.668"/><text fill="#000000" font-family="sans-serif" font-size="12" lengthAdjust="spacing" textLength="198" x="70.5" y="139.8066">System.err.println("Warning 1");</text><polygon fill="#F1F1F1" points="91.5,70.2656,247.5,70.2656,259.5,82.2656,247.5,94.2656,91.5,94.2656,79.5,82.2656,91.5,70.2656" style="stroke:#181818;stroke-width:0.5;"/><text fill="#000000" font-family="sans-serif" font-size="11" lengthAdjust="spacing" textLength="20" x="173.5" y="104.4761">yes</text><text fill="#000000" font-family="sans-serif" font-size="11" lengthAdjust="spacing" textLength="152" x="91.5" y="86.0737">gtile instanceof GtileEmpty</text><polygon fill="#F1F1F1" points="169.5,172.6367,181.5,184.6367,169.5,196.6367,157.5,184.6367,169.5,172.6367" style="stroke:#181818;stroke-width:0.5;"/><rect fill="#F1F1F1" height="33.9688" rx="12.5" ry="12.5" style="stroke:#181818;stroke-width:0.5;" width="115" x="112" y="216.6367"/><text fill="#000000" font-family="sans-serif" font-size="12" lengthAdjust="spacing" textLength="95" x="122" y="237.7754">this.gtile=gtile;</text><rect fill="#F1F1F1" height="33.9688" rx="12.5" ry="12.5" style="stroke:#181818;stroke-width:0.5;" width="131" x="104" y="270.6055"/><text fill="#000000" font-family="sans-serif" font-size="12" lengthAdjust="spacing" textLength="111" x="114" y="291.7441">this.name=name;</text><rect fill="#F1F1F1" height="33.9688" rx="12.5" ry="12.5" style="stroke:#181818;stroke-width:0.5;" width="231" x="54" y="324.5742"/><text fill="#000000" font-family="sans-serif" font-size="12" lengthAdjust="spacing" textLength="211" x="64" y="345.7129">this.linkRendering=linkRendering;</text><ellipse cx="169.5" cy="388.543" fill="none" rx="10" ry="10" style="stroke:#222222;stroke-width:1.5;"/><line style="stroke:#222222;stroke-width:2.5;" x1="163.3128" x2="175.6872" y1="382.3558" y2="394.7302"/><line style="stroke:#222222;stroke-width:2.5;" x1="175.6872" x2="163.3128" y1="382.3558" y2="394.7302"/><path d="M199.5,408.543 L199.5,417.1094 L179.5,421.1094 L199.5,425.1094 L199.5,433.6758 A0,0 0 0 0 199.5,433.6758 L492.5,433.6758 A0,0 0 0 0 492.5,433.6758 L492.5,418.543 L482.5,408.543 L199.5,408.543 A0,0 0 0 0 199.5,408.543 " fill="#FEFFDD" style="stroke:#181818;stroke-width:0.5;"/><path d="M482.5,408.543 L482.5,418.543 L492.5,418.543 L482.5,408.543 " fill="#FEFFDD" style="stroke:#181818;stroke-width:0.5;"/><text fill="#000000" font-family="sans-serif" font-size="13" lengthAdjust="spacing" textLength="272" x="205.5" y="425.6099">constructor GPoint(Gtile gtile,String name)</text><ellipse cx="169.5" cy="421.1094" fill="#222222" rx="10" ry="10" style="stroke:#222222;stroke-width:1.0;"/><rect fill="#F1F1F1" height="33.9688" rx="12.5" ry="12.5" style="stroke:#181818;stroke-width:0.5;" width="261" x="39" y="453.6758"/><text fill="#000000" font-family="sans-serif" font-size="12" lengthAdjust="spacing" textLength="241" x="49" y="474.8145">this(gtile,name,LinkRendering.none());</text><ellipse cx="169.5" cy="517.6445" fill="none" rx="10" ry="10" style="stroke:#222222;stroke-width:1.5;"/><line style="stroke:#222222;stroke-width:2.5;" x1="163.3128" x2="175.6872" y1="511.4573" y2="523.8317"/><line style="stroke:#222222;stroke-width:2.5;" x1="175.6872" x2="163.3128" y1="511.4573" y2="523.8317"/><path d="M199.5,537.6445 L199.5,546.2109 L179.5,550.2109 L199.5,554.2109 L199.5,562.7773 A0,0 0 0 0 199.5,562.7773 L323.5,562.7773 A0,0 0 0 0 323.5,562.7773 L323.5,547.6445 L313.5,537.6445 L199.5,537.6445 A0,0 0 0 0 199.5,537.6445 " fill="#FEFFDD" style="stroke:#181818;stroke-width:0.5;"/><path d="M313.5,537.6445 L313.5,547.6445 L323.5,547.6445 L313.5,537.6445 " fill="#FEFFDD" style="stroke:#181818;stroke-width:0.5;"/><text fill="#000000" font-family="sans-serif" font-size="13" lengthAdjust="spacing" textLength="103" x="205.5" y="554.7114">String toString()</text><ellipse cx="169.5" cy="550.2109" fill="#222222" rx="10" ry="10" style="stroke:#222222;stroke-width:1.0;"/><rect fill="#F1F1F1" height="33.9688" rx="12.5" ry="12.5" style="stroke:#181818;stroke-width:0.5;" width="172" x="83.5" y="582.7773"/><text fill="#000000" font-family="sans-serif" font-size="12" lengthAdjust="spacing" textLength="152" x="93.5" y="603.916">return gtile+"@"+name;</text><ellipse cx="169.5" cy="647.7461" fill="none" rx="11" ry="11" style="stroke:#222222;stroke-width:1.0;"/><ellipse cx="169.5" cy="647.7461" fill="#222222" rx="6" ry="6" style="stroke:#111111;stroke-width:1.0;"/><ellipse cx="169.5" cy="678.7461" fill="none" rx="10" ry="10" style="stroke:#222222;stroke-width:1.5;"/><line style="stroke:#222222;stroke-width:2.5;" x1="163.3128" x2="175.6872" y1="672.5589" y2="684.9333"/><line style="stroke:#222222;stroke-width:2.5;" x1="175.6872" x2="163.3128" y1="672.5589" y2="684.9333"/><path d="M199.5,698.7461 L199.5,707.3125 L179.5,711.3125 L199.5,715.3125 L199.5,723.8789 A0,0 0 0 0 199.5,723.8789 L313.5,723.8789 A0,0 0 0 0 313.5,723.8789 L313.5,708.7461 L303.5,698.7461 L199.5,698.7461 A0,0 0 0 0 199.5,698.7461 " fill="#FEFFDD" style="stroke:#181818;stroke-width:0.5;"/><path d="M303.5,698.7461 L303.5,708.7461 L313.5,708.7461 L303.5,698.7461 " fill="#FEFFDD" style="stroke:#181818;stroke-width:0.5;"/><text fill="#000000" font-family="sans-serif" font-size="13" lengthAdjust="spacing" textLength="93" x="205.5" y="715.813">Gtile getGtile()</text><ellipse cx="169.5" cy="711.3125" fill="#222222" rx="10" ry="10" style="stroke:#222222;stroke-width:1.0;"/><rect fill="#F1F1F1" height="33.9688" rx="12.5" ry="12.5" style="stroke:#181818;stroke-width:0.5;" width="94" x="122.5" y="743.8789"/><text fill="#000000" font-family="sans-serif" font-size="12" lengthAdjust="spacing" textLength="74" x="132.5" y="765.0176">return gtile;</text><ellipse cx="169.5" cy="808.8477" fill="none" rx="11" ry="11" style="stroke:#222222;stroke-width:1.0;"/><ellipse cx="169.5" cy="808.8477" fill="#222222" rx="6" ry="6" style="stroke:#111111;stroke-width:1.0;"/><ellipse cx="169.5" cy="839.8477" fill="none" rx="10" ry="10" style="stroke:#222222;stroke-width:1.5;"/><line style="stroke:#222222;stroke-width:2.5;" x1="163.3128" x2="175.6872" y1="833.6605" y2="846.0348"/><line style="stroke:#222222;stroke-width:2.5;" x1="175.6872" x2="163.3128" y1="833.6605" y2="846.0348"/><path d="M199.5,859.8477 L199.5,868.4141 L179.5,872.4141 L199.5,876.4141 L199.5,884.9805 A0,0 0 0 0 199.5,884.9805 L332.5,884.9805 A0,0 0 0 0 332.5,884.9805 L332.5,869.8477 L322.5,859.8477 L199.5,859.8477 A0,0 0 0 0 199.5,859.8477 " fill="#FEFFDD" style="stroke:#181818;stroke-width:0.5;"/><path d="M322.5,859.8477 L322.5,869.8477 L332.5,869.8477 L322.5,859.8477 " fill="#FEFFDD" style="stroke:#181818;stroke-width:0.5;"/><text fill="#000000" font-family="sans-serif" font-size="13" lengthAdjust="spacing" textLength="112" x="205.5" y="876.9146">String getName()</text><ellipse cx="169.5" cy="872.4141" fill="#222222" rx="10" ry="10" style="stroke:#222222;stroke-width:1.0;"/><rect fill="#F1F1F1" height="33.9688" rx="12.5" ry="12.5" style="stroke:#181818;stroke-width:0.5;" width="102" x="118.5" y="904.9805"/><text fill="#000000" font-family="sans-serif" font-size="12" lengthAdjust="spacing" textLength="82" x="128.5" y="926.1191">return name;</text><ellipse cx="169.5" cy="969.9492" fill="none" rx="11" ry="11" style="stroke:#222222;stroke-width:1.0;"/><ellipse cx="169.5" cy="969.9492" fill="#222222" rx="6" ry="6" style="stroke:#111111;stroke-width:1.0;"/><ellipse cx="169.5" cy="1000.9492" fill="none" rx="10" ry="10" style="stroke:#222222;stroke-width:1.5;"/><line style="stroke:#222222;stroke-width:2.5;" x1="163.3128" x2="175.6872" y1="994.762" y2="1007.1364"/><line style="stroke:#222222;stroke-width:2.5;" x1="175.6872" x2="163.3128" y1="994.762" y2="1007.1364"/><path d="M199.5,1020.9492 L199.5,1029.5156 L179.5,1033.5156 L199.5,1037.5156 L199.5,1046.082 A0,0 0 0 0 199.5,1046.082 L362.5,1046.082 A0,0 0 0 0 362.5,1046.082 L362.5,1030.9492 L352.5,1020.9492 L199.5,1020.9492 A0,0 0 0 0 199.5,1020.9492 " fill="#FEFFDD" style="stroke:#181818;stroke-width:0.5;"/><path d="M352.5,1020.9492 L352.5,1030.9492 L362.5,1030.9492 L352.5,1020.9492 " fill="#FEFFDD" style="stroke:#181818;stroke-width:0.5;"/><text fill="#000000" font-family="sans-serif" font-size="13" lengthAdjust="spacing" textLength="142" x="205.5" y="1038.0161">UTranslate getCoord()</text><ellipse cx="169.5" cy="1033.5156" fill="#222222" rx="10" ry="10" style="stroke:#222222;stroke-width:1.0;"/><rect fill="#F1F1F1" height="33.9688" rx="12.5" ry="12.5" style="stroke:#181818;stroke-width:0.5;" width="201" x="69" y="1066.082"/><text fill="#000000" font-family="sans-serif" font-size="12" lengthAdjust="spacing" textLength="181" x="79" y="1087.2207">return gtile.getCoord(name);</text><ellipse cx="169.5" cy="1131.0508" fill="none" rx="11" ry="11" style="stroke:#222222;stroke-width:1.0;"/><ellipse cx="169.5" cy="1131.0508" fill="#222222" rx="6" ry="6" style="stroke:#111111;stroke-width:1.0;"/><ellipse cx="169.5" cy="1162.0508" fill="none" rx="10" ry="10" style="stroke:#222222;stroke-width:1.5;"/><line style="stroke:#222222;stroke-width:2.5;" x1="163.3128" x2="175.6872" y1="1155.8636" y2="1168.238"/><line style="stroke:#222222;stroke-width:2.5;" x1="175.6872" x2="163.3128" y1="1155.8636" y2="1168.238"/><path d="M199.5,1182.0508 L199.5,1190.6172 L179.5,1194.6172 L199.5,1198.6172 L199.5,1207.1836 A0,0 0 0 0 199.5,1207.1836 L363.5,1207.1836 A0,0 0 0 0 363.5,1207.1836 L363.5,1192.0508 L353.5,1182.0508 L199.5,1182.0508 A0,0 0 0 0 199.5,1182.0508 " fill="#FEFFDD" style="stroke:#181818;stroke-width:0.5;"/><path d="M353.5,1182.0508 L353.5,1192.0508 L363.5,1192.0508 L353.5,1182.0508 " fill="#FEFFDD" style="stroke:#181818;stroke-width:0.5;"/><text fill="#000000" font-family="sans-serif" font-size="13" lengthAdjust="spacing" textLength="143" x="205.5" y="1199.1177">XPoint2D getPoint2D()</text><ellipse cx="169.5" cy="1194.6172" fill="#222222" rx="10" ry="10" style="stroke:#222222;stroke-width:1.0;"/><rect fill="#F1F1F1" height="33.9688" rx="12.5" ry="12.5" style="stroke:#181818;stroke-width:0.5;" width="220" x="59.5" y="1227.1836"/><text fill="#000000" font-family="sans-serif" font-size="12" lengthAdjust="spacing" textLength="200" x="69.5" y="1248.3223">return getCoord().getPosition();</text><ellipse cx="169.5" cy="1292.1523" fill="none" rx="11" ry="11" style="stroke:#222222;stroke-width:1.0;"/><ellipse cx="169.5" cy="1292.1523" fill="#222222" rx="6" ry="6" style="stroke:#111111;stroke-width:1.0;"/><ellipse cx="169.5" cy="1323.1523" fill="none" rx="10" ry="10" style="stroke:#222222;stroke-width:1.5;"/><line style="stroke:#222222;stroke-width:2.5;" x1="163.3128" x2="175.6872" y1="1316.9652" y2="1329.3395"/><line style="stroke:#222222;stroke-width:2.5;" x1="175.6872" x2="163.3128" y1="1316.9652" y2="1329.3395"/><path d="M199.5,1343.1523 L199.5,1351.7188 L179.5,1355.7188 L199.5,1359.7188 L199.5,1368.2852 A0,0 0 0 0 199.5,1368.2852 L433.5,1368.2852 A0,0 0 0 0 433.5,1368.2852 L433.5,1353.1523 L423.5,1343.1523 L199.5,1343.1523 A0,0 0 0 0 199.5,1343.1523 " fill="#FEFFDD" style="stroke:#181818;stroke-width:0.5;"/><path d="M423.5,1343.1523 L423.5,1353.1523 L433.5,1353.1523 L423.5,1343.1523 " fill="#FEFFDD" style="stroke:#181818;stroke-width:0.5;"/><text fill="#000000" font-family="sans-serif" font-size="13" lengthAdjust="spacing" textLength="213" x="205.5" y="1360.2192">LinkRendering getLinkRendering()</text><ellipse cx="169.5" cy="1355.7188" fill="#222222" rx="10" ry="10" style="stroke:#222222;stroke-width:1.0;"/><rect fill="#F1F1F1" height="33.9688" rx="12.5" ry="12.5" style="stroke:#181818;stroke-width:0.5;" width="152" x="93.5" y="1388.2852"/><text fill="#000000" font-family="sans-serif" font-size="12" lengthAdjust="spacing" textLength="132" x="103.5" y="1409.4238">return linkRendering;</text><ellipse cx="169.5" cy="1453.2539" fill="none" rx="11" ry="11" style="stroke:#222222;stroke-width:1.0;"/><ellipse cx="169.5" cy="1453.2539" fill="#222222" rx="6" ry="6" style="stroke:#111111;stroke-width:1.0;"/><ellipse cx="169.5" cy="1484.2539" fill="none" rx="10" ry="10" style="stroke:#222222;stroke-width:1.5;"/><line style="stroke:#222222;stroke-width:2.5;" x1="163.3128" x2="175.6872" y1="1478.0667" y2="1490.4411"/><line style="stroke:#222222;stroke-width:2.5;" x1="175.6872" x2="163.3128" y1="1478.0667" y2="1490.4411"/><path d="M199.5,1504.2539 L199.5,1512.8203 L179.5,1516.8203 L199.5,1520.8203 L199.5,1529.3867 A0,0 0 0 0 199.5,1529.3867 L450.5,1529.3867 A0,0 0 0 0 450.5,1529.3867 L450.5,1514.2539 L440.5,1504.2539 L199.5,1504.2539 A0,0 0 0 0 199.5,1504.2539 " fill="#FEFFDD" style="stroke:#181818;stroke-width:0.5;"/><path d="M440.5,1504.2539 L440.5,1514.2539 L450.5,1514.2539 L440.5,1504.2539 " fill="#FEFFDD" style="stroke:#181818;stroke-width:0.5;"/><text fill="#000000" font-family="sans-serif" font-size="13" lengthAdjust="spacing" textLength="230" x="205.5" y="1521.3208">boolean match(Swimlane swimlane)</text><ellipse cx="169.5" cy="1516.8203" fill="#222222" rx="10" ry="10" style="stroke:#222222;stroke-width:1.0;"/><rect fill="#F1F1F1" height="33.9688" rx="12.5" ry="12.5" style="stroke:#181818;stroke-width:0.5;" width="305" x="17" y="1549.3867"/><text fill="#000000" font-family="sans-serif" font-size="12" lengthAdjust="spacing" textLength="285" x="27" y="1570.5254">final Swimlane tmp=gtile.getSwimlane(name);</text><rect fill="#F1F1F1" height="33.9688" rx="12.5" ry="12.5" style="stroke:#181818;stroke-width:0.5;" width="168" x="85.5" y="1603.3555"/><text fill="#000000" font-family="sans-serif" font-size="12" lengthAdjust="spacing" textLength="148" x="95.5" y="1624.4941">return tmp==swimlane;</text><ellipse cx="169.5" cy="1668.3242" fill="none" rx="11" ry="11" style="stroke:#222222;stroke-width:1.0;"/><ellipse cx="169.5" cy="1668.3242" fill="#222222" rx="6" ry="6" style="stroke:#111111;stroke-width:1.0;"/><ellipse cx="169.5" cy="1699.3242" fill="none" rx="10" ry="10" style="stroke:#222222;stroke-width:1.5;"/><line style="stroke:#222222;stroke-width:2.5;" x1="163.3128" x2="175.6872" y1="1693.137" y2="1705.5114"/><line style="stroke:#222222;stroke-width:2.5;" x1="175.6872" x2="163.3128" y1="1693.137" y2="1705.5114"/><path d="M199.5,1719.3242 L199.5,1727.8906 L179.5,1731.8906 L199.5,1735.8906 L199.5,1744.457 A0,0 0 0 0 199.5,1744.457 L377.5,1744.457 A0,0 0 0 0 377.5,1744.457 L377.5,1729.3242 L367.5,1719.3242 L199.5,1719.3242 A0,0 0 0 0 199.5,1719.3242 " fill="#FEFFDD" style="stroke:#181818;stroke-width:0.5;"/><path d="M367.5,1719.3242 L367.5,1729.3242 L377.5,1729.3242 L367.5,1719.3242 " fill="#FEFFDD" style="stroke:#181818;stroke-width:0.5;"/><text fill="#000000" font-family="sans-serif" font-size="13" lengthAdjust="spacing" textLength="157" x="205.5" y="1736.3911">Swimlane getSwimlane()</text><ellipse cx="169.5" cy="1731.8906" fill="#222222" rx="10" ry="10" style="stroke:#222222;stroke-width:1.0;"/><rect fill="#F1F1F1" height="33.9688" rx="12.5" ry="12.5" style="stroke:#181818;stroke-width:0.5;" width="317" x="11" y="1764.457"/><text fill="#000000" font-family="sans-serif" font-size="12" lengthAdjust="spacing" textLength="297" x="21" y="1785.5957">final Swimlane result=gtile.getSwimlane(name);</text><rect fill="#F1F1F1" height="47.9375" rx="12.5" ry="12.5" style="stroke:#181818;stroke-width:0.5;" width="293" x="23" y="1866.8281"/><text fill="#000000" font-family="sans-serif" font-size="12" lengthAdjust="spacing" textLength="273" x="33" y="1887.9668">throw new IllegalStateException(name+" "+</text><text fill="#000000" font-family="sans-serif" font-size="12" lengthAdjust="spacing" textLength="229" x="33" y="1901.9355">gtile.getClass().toString()+" "+gtile);</text><ellipse cx="169.5" cy="1947.2969" fill="none" rx="11" ry="11" style="stroke:#222222;stroke-width:1.0;"/><ellipse cx="169.5" cy="1947.2969" fill="#222222" rx="6" ry="6" style="stroke:#111111;stroke-width:1.0;"/><polygon fill="#F1F1F1" points="132,1818.4258,207,1818.4258,219,1830.4258,207,1842.4258,132,1842.4258,120,1830.4258,132,1818.4258" style="stroke:#181818;stroke-width:0.5;"/><text fill="#000000" font-family="sans-serif" font-size="11" lengthAdjust="spacing" textLength="20" x="173.5" y="1852.6362">yes</text><text fill="#000000" font-family="sans-serif" font-size="11" lengthAdjust="spacing" textLength="71" x="132" y="1834.2339">result==null</text><rect fill="#F1F1F1" height="33.9688" rx="12.5" ry="12.5" style="stroke:#181818;stroke-width:0.5;" width="103" x="118" y="2000.2969"/><text fill="#000000" font-family="sans-serif" font-size="12" lengthAdjust="spacing" textLength="83" x="128" y="2021.4355">return result;</text><ellipse cx="169.5" cy="2065.2656" fill="none" rx="11" ry="11" style="stroke:#222222;stroke-width:1.0;"/><ellipse cx="169.5" cy="2065.2656" fill="#222222" rx="6" ry="6" style="stroke:#111111;stroke-width:1.0;"/><ellipse cx="169.5" cy="2096.2656" fill="none" rx="10" ry="10" style="stroke:#222222;stroke-width:1.5;"/><line style="stroke:#222222;stroke-width:2.5;" x1="163.3128" x2="175.6872" y1="2090.0784" y2="2102.4528"/><line style="stroke:#222222;stroke-width:2.5;" x1="175.6872" x2="163.3128" y1="2090.0784" y2="2102.4528"/><line style="stroke:#181818;stroke-width:1.0;" x1="169.5" x2="169.5" y1="94.2656" y2="118.668"/><polygon fill="#181818" points="165.5,108.668,169.5,118.668,173.5,108.668,169.5,112.668" style="stroke:#181818;stroke-width:1.0;"/><line style="stroke:#181818;stroke-width:1.0;" x1="259.5" x2="288.5" y1="82.2656" y2="82.2656"/><polygon fill="#181818" points="284.5,125.6523,288.5,135.6523,292.5,125.6523,288.5,129.6523" style="stroke:#181818;stroke-width:1.0;"/><line style="stroke:#181818;stroke-width:1.0;" x1="288.5" x2="288.5" y1="82.2656" y2="184.6367"/><line style="stroke:#181818;stroke-width:1.0;" x1="288.5" x2="181.5" y1="184.6367" y2="184.6367"/><polygon fill="#181818" points="191.5,180.6367,181.5,184.6367,191.5,188.6367,187.5,184.6367" style="stroke:#181818;stroke-width:1.0;"/><line style="stroke:#181818;stroke-width:1.0;" x1="169.5" x2="169.5" y1="152.6367" y2="172.6367"/><polygon fill="#181818" points="165.5,162.6367,169.5,172.6367,173.5,162.6367,169.5,166.6367" style="stroke:#181818;stroke-width:1.0;"/><line style="stroke:#181818;stroke-width:1.0;" x1="169.5" x2="169.5" y1="40.1328" y2="70.2656"/><polygon fill="#181818" points="165.5,60.2656,169.5,70.2656,173.5,60.2656,169.5,64.2656" style="stroke:#181818;stroke-width:1.0;"/><line style="stroke:#181818;stroke-width:1.0;" x1="169.5" x2="169.5" y1="196.6367" y2="216.6367"/><polygon fill="#181818" points="165.5,206.6367,169.5,216.6367,173.5,206.6367,169.5,210.6367" style="stroke:#181818;stroke-width:1.0;"/><line style="stroke:#181818;stroke-width:1.0;" x1="169.5" x2="169.5" y1="250.6055" y2="270.6055"/><polygon fill="#181818" points="165.5,260.6055,169.5,270.6055,173.5,260.6055,169.5,264.6055" style="stroke:#181818;stroke-width:1.0;"/><line style="stroke:#181818;stroke-width:1.0;" x1="169.5" x2="169.5" y1="304.5742" y2="324.5742"/><polygon fill="#181818" points="165.5,314.5742,169.5,324.5742,173.5,314.5742,169.5,318.5742" style="stroke:#181818;stroke-width:1.0;"/><line style="stroke:#181818;stroke-width:1.0;" x1="169.5" x2="169.5" y1="358.543" y2="378.543"/><polygon fill="#181818" points="165.5,368.543,169.5,378.543,173.5,368.543,169.5,372.543" style="stroke:#181818;stroke-width:1.0;"/><line style="stroke:#181818;stroke-width:1.0;" x1="169.5" x2="169.5" y1="431.1094" y2="453.6758"/><polygon fill="#181818" points="165.5,443.6758,169.5,453.6758,173.5,443.6758,169.5,447.6758" style="stroke:#181818;stroke-width:1.0;"/><line style="stroke:#181818;stroke-width:1.0;" x1="169.5" x2="169.5" y1="487.6445" y2="507.6445"/><polygon fill="#181818" points="165.5,497.6445,169.5,507.6445,173.5,497.6445,169.5,501.6445" style="stroke:#181818;stroke-width:1.0;"/><line style="stroke:#181818;stroke-width:1.0;" x1="169.5" x2="169.5" y1="560.2109" y2="582.7773"/><polygon fill="#181818" points="165.5,572.7773,169.5,582.7773,173.5,572.7773,169.5,576.7773" style="stroke:#181818;stroke-width:1.0;"/><line style="stroke:#181818;stroke-width:1.0;" x1="169.5" x2="169.5" y1="616.7461" y2="636.7461"/><polygon fill="#181818" points="165.5,626.7461,169.5,636.7461,173.5,626.7461,169.5,630.7461" style="stroke:#181818;stroke-width:1.0;"/><line style="stroke:#181818;stroke-width:1.0;" x1="169.5" x2="169.5" y1="721.3125" y2="743.8789"/><polygon fill="#181818" points="165.5,733.8789,169.5,743.8789,173.5,733.8789,169.5,737.8789" style="stroke:#181818;stroke-width:1.0;"/><line style="stroke:#181818;stroke-width:1.0;" x1="169.5" x2="169.5" y1="777.8477" y2="797.8477"/><polygon fill="#181818" points="165.5,787.8477,169.5,797.8477,173.5,787.8477,169.5,791.8477" style="stroke:#181818;stroke-width:1.0;"/><line style="stroke:#181818;stroke-width:1.0;" x1="169.5" x2="169.5" y1="882.4141" y2="904.9805"/><polygon fill="#181818" points="165.5,894.9805,169.5,904.9805,173.5,894.9805,169.5,898.9805" style="stroke:#181818;stroke-width:1.0;"/><line style="stroke:#181818;stroke-width:1.0;" x1="169.5" x2="169.5" y1="938.9492" y2="958.9492"/><polygon fill="#181818" points="165.5,948.9492,169.5,958.9492,173.5,948.9492,169.5,952.9492" style="stroke:#181818;stroke-width:1.0;"/><line style="stroke:#181818;stroke-width:1.0;" x1="169.5" x2="169.5" y1="1043.5156" y2="1066.082"/><polygon fill="#181818" points="165.5,1056.082,169.5,1066.082,173.5,1056.082,169.5,1060.082" style="stroke:#181818;stroke-width:1.0;"/><line style="stroke:#181818;stroke-width:1.0;" x1="169.5" x2="169.5" y1="1100.0508" y2="1120.0508"/><polygon fill="#181818" points="165.5,1110.0508,169.5,1120.0508,173.5,1110.0508,169.5,1114.0508" style="stroke:#181818;stroke-width:1.0;"/><line style="stroke:#181818;stroke-width:1.0;" x1="169.5" x2="169.5" y1="1204.6172" y2="1227.1836"/><polygon fill="#181818" points="165.5,1217.1836,169.5,1227.1836,173.5,1217.1836,169.5,1221.1836" style="stroke:#181818;stroke-width:1.0;"/><line style="stroke:#181818;stroke-width:1.0;" x1="169.5" x2="169.5" y1="1261.1523" y2="1281.1523"/><polygon fill="#181818" points="165.5,1271.1523,169.5,1281.1523,173.5,1271.1523,169.5,1275.1523" style="stroke:#181818;stroke-width:1.0;"/><line style="stroke:#181818;stroke-width:1.0;" x1="169.5" x2="169.5" y1="1365.7188" y2="1388.2852"/><polygon fill="#181818" points="165.5,1378.2852,169.5,1388.2852,173.5,1378.2852,169.5,1382.2852" style="stroke:#181818;stroke-width:1.0;"/><line style="stroke:#181818;stroke-width:1.0;" x1="169.5" x2="169.5" y1="1422.2539" y2="1442.2539"/><polygon fill="#181818" points="165.5,1432.2539,169.5,1442.2539,173.5,1432.2539,169.5,1436.2539" style="stroke:#181818;stroke-width:1.0;"/><line style="stroke:#181818;stroke-width:1.0;" x1="169.5" x2="169.5" y1="1526.8203" y2="1549.3867"/><polygon fill="#181818" points="165.5,1539.3867,169.5,1549.3867,173.5,1539.3867,169.5,1543.3867" style="stroke:#181818;stroke-width:1.0;"/><line style="stroke:#181818;stroke-width:1.0;" x1="169.5" x2="169.5" y1="1583.3555" y2="1603.3555"/><polygon fill="#181818" points="165.5,1593.3555,169.5,1603.3555,173.5,1593.3555,169.5,1597.3555" style="stroke:#181818;stroke-width:1.0;"/><line style="stroke:#181818;stroke-width:1.0;" x1="169.5" x2="169.5" y1="1637.3242" y2="1657.3242"/><polygon fill="#181818" points="165.5,1647.3242,169.5,1657.3242,173.5,1647.3242,169.5,1651.3242" style="stroke:#181818;stroke-width:1.0;"/><line style="stroke:#181818;stroke-width:1.0;" x1="169.5" x2="169.5" y1="1741.8906" y2="1764.457"/><polygon fill="#181818" points="165.5,1754.457,169.5,1764.457,173.5,1754.457,169.5,1758.457" style="stroke:#181818;stroke-width:1.0;"/><line style="stroke:#181818;stroke-width:1.0;" x1="169.5" x2="169.5" y1="1914.7656" y2="1936.2969"/><polygon fill="#181818" points="165.5,1926.2969,169.5,1936.2969,173.5,1926.2969,169.5,1930.2969" style="stroke:#181818;stroke-width:1.0;"/><line style="stroke:#181818;stroke-width:1.0;" x1="169.5" x2="169.5" y1="1842.4258" y2="1866.8281"/><polygon fill="#181818" points="165.5,1856.8281,169.5,1866.8281,173.5,1856.8281,169.5,1860.8281" style="stroke:#181818;stroke-width:1.0;"/><line style="stroke:#181818;stroke-width:1.0;" x1="219" x2="326" y1="1830.4258" y2="1830.4258"/><polygon fill="#181818" points="322,1906.2969,326,1916.2969,330,1906.2969,326,1910.2969" style="stroke:#181818;stroke-width:1.0;"/><line style="stroke:#181818;stroke-width:1.0;" x1="326" x2="326" y1="1830.4258" y2="1980.2969"/><line style="stroke:#181818;stroke-width:1.0;" x1="326" x2="169.5" y1="1980.2969" y2="1980.2969"/><line style="stroke:#181818;stroke-width:1.0;" x1="169.5" x2="169.5" y1="1980.2969" y2="2000.2969"/><polygon fill="#181818" points="165.5,1990.2969,169.5,2000.2969,173.5,1990.2969,169.5,1994.2969" style="stroke:#181818;stroke-width:1.0;"/><line style="stroke:#181818;stroke-width:1.0;" x1="169.5" x2="169.5" y1="1798.4258" y2="1818.4258"/><polygon fill="#181818" points="165.5,1808.4258,169.5,1818.4258,173.5,1808.4258,169.5,1812.4258" style="stroke:#181818;stroke-width:1.0;"/><line style="stroke:#181818;stroke-width:1.0;" x1="169.5" x2="169.5" y1="2034.2656" y2="2054.2656"/><polygon fill="#181818" points="165.5,2044.2656,169.5,2054.2656,173.5,2044.2656,169.5,2048.2656" style="stroke:#181818;stroke-width:1.0;"/><!--MD5=[5649f2c6907a7f7dd61a570880e521ca]
@startuml
!pragma layout smetana
start
note right
constructor GPoint(Gtile gtile,String name,
LinkRendering linkRendering)
end note
if (gtile instanceof GtileEmpty ) then (yes) 
:System.err.println("Warning 1");;
endif 
:this.gtile=gtile;;
:this.name=name;;
:this.linkRendering=linkRendering;;
end
start
note right
constructor GPoint(Gtile gtile,String name)
end note
:this(gtile,name,LinkRendering.none());;
end
start
note right
String toString()
end note
:return gtile+"@"+name;;
stop
end
start
note right
Gtile getGtile()
end note
:return gtile;;
stop
end
start
note right
String getName()
end note
:return name;;
stop
end
start
note right
UTranslate getCoord()
end note
:return gtile.getCoord(name);;
stop
end
start
note right
XPoint2D getPoint2D()
end note
:return getCoord().getPosition();;
stop
end
start
note right
LinkRendering getLinkRendering()
end note
:return linkRendering;;
stop
end
start
note right
boolean match(Swimlane swimlane)
end note
:final Swimlane tmp=gtile.getSwimlane(name);;
:return tmp==swimlane;;
stop
end
start
note right
Swimlane getSwimlane()
end note
:final Swimlane result=gtile.getSwimlane(name);;
if (result==null ) then (yes) 
:throw new IllegalStateException(name+" "+
gtile.getClass().toString()+" "+gtile);;
stop
endif 
:return result;;
stop
end
@enduml

PlantUML version 1.2022.7(Mon Aug 22 17:01:30 UTC 2022)
(GPL source distribution)
Java Runtime: OpenJDK Runtime Environment
JVM: OpenJDK 64-Bit Server VM
Default Encoding: UTF-8
Language: en
Country: null
--></g></svg>