<?xml version="1.0" encoding="UTF-8" standalone="no"?><svg xmlns="http://www.w3.org/2000/svg" xmlns:xlink="http://www.w3.org/1999/xlink" contentStyleType="text/css" height="3143px" preserveAspectRatio="none" style="width:1110px;height:3143px;background:#FFFFFF;" version="1.1" viewBox="0 0 1110 3143" width="1110px" zoomAndPan="magnify"><defs/><g><path d="M589.5,10 L589.5,18.5664 L569.5,22.5664 L589.5,26.5664 L589.5,35.1328 A0,0 0 0 0 589.5,35.1328 L867.5,35.1328 A0,0 0 0 0 867.5,35.1328 L867.5,20 L857.5,10 L589.5,10 A0,0 0 0 0 589.5,10 " fill="#FEFFDD" style="stroke:#181818;stroke-width:0.5;"/><path d="M857.5,10 L857.5,20 L867.5,20 L857.5,10 " fill="#FEFFDD" style="stroke:#181818;stroke-width:0.5;"/><text fill="#000000" font-family="sans-serif" font-size="13" lengthAdjust="spacing" textLength="257" x="595.5" y="27.0669">StyleSignatureBasic getStyleSignature()</text><ellipse cx="559.5" cy="22.5664" fill="#222222" rx="10" ry="10" style="stroke:#222222;stroke-width:1.0;"/><rect fill="#F1F1F1" height="47.9375" rx="12.5" ry="12.5" style="stroke:#181818;stroke-width:0.5;" width="356" x="381.5" y="55.1328"/><text fill="#000000" font-family="sans-serif" font-size="12" lengthAdjust="spacing" textLength="266" x="391.5" y="76.2715">return StyleSignatureBasic.of(SName.root,</text><text fill="#000000" font-family="sans-serif" font-size="12" lengthAdjust="spacing" textLength="336" x="391.5" y="90.2402">SName.element,SName.activityDiagram,SName.note);</text><ellipse cx="559.5" cy="134.0703" fill="none" rx="11" ry="11" style="stroke:#222222;stroke-width:1.0;"/><ellipse cx="559.5" cy="134.0703" fill="#222222" rx="6" ry="6" style="stroke:#111111;stroke-width:1.0;"/><ellipse cx="559.5" cy="165.0703" fill="none" rx="10" ry="10" style="stroke:#222222;stroke-width:1.5;"/><line style="stroke:#222222;stroke-width:2.5;" x1="553.3128" x2="565.6872" y1="158.8831" y2="171.2575"/><line style="stroke:#222222;stroke-width:2.5;" x1="565.6872" x2="553.3128" y1="158.8831" y2="171.2575"/><path d="M589.5,185.0703 L589.5,193.6367 L569.5,197.6367 L589.5,201.6367 L589.5,210.2031 A0,0 0 0 0 589.5,210.2031 L841.5,210.2031 A0,0 0 0 0 841.5,210.2031 L841.5,195.0703 L831.5,185.0703 L589.5,185.0703 A0,0 0 0 0 589.5,185.0703 " fill="#FEFFDD" style="stroke:#181818;stroke-width:0.5;"/><path d="M831.5,185.0703 L831.5,195.0703 L841.5,195.0703 L831.5,185.0703 " fill="#FEFFDD" style="stroke:#181818;stroke-width:0.5;"/><text fill="#000000" font-family="sans-serif" font-size="13" lengthAdjust="spacing" textLength="231" x="595.5" y="202.1372">Swimlane getSwimlane(String point)</text><ellipse cx="559.5" cy="197.6367" fill="#222222" rx="10" ry="10" style="stroke:#222222;stroke-width:1.0;"/><rect fill="#F1F1F1" height="33.9688" rx="12.5" ry="12.5" style="stroke:#181818;stroke-width:0.5;" width="211" x="454" y="230.2031"/><text fill="#000000" font-family="sans-serif" font-size="12" lengthAdjust="spacing" textLength="191" x="464" y="251.3418">return tile.getSwimlane(point);</text><ellipse cx="559.5" cy="295.1719" fill="none" rx="11" ry="11" style="stroke:#222222;stroke-width:1.0;"/><ellipse cx="559.5" cy="295.1719" fill="#222222" rx="6" ry="6" style="stroke:#111111;stroke-width:1.0;"/><ellipse cx="559.5" cy="326.1719" fill="none" rx="10" ry="10" style="stroke:#222222;stroke-width:1.5;"/><line style="stroke:#222222;stroke-width:2.5;" x1="553.3128" x2="565.6872" y1="319.9847" y2="332.3591"/><line style="stroke:#222222;stroke-width:2.5;" x1="565.6872" x2="553.3128" y1="319.9847" y2="332.3591"/><path d="M589.5,346.1719 L589.5,354.7383 L569.5,358.7383 L589.5,362.7383 L589.5,371.3047 A0,0 0 0 0 589.5,371.3047 L818.5,371.3047 A0,0 0 0 0 818.5,371.3047 L818.5,356.1719 L808.5,346.1719 L589.5,346.1719 A0,0 0 0 0 589.5,346.1719 " fill="#FEFFDD" style="stroke:#181818;stroke-width:0.5;"/><path d="M808.5,346.1719 L808.5,356.1719 L818.5,356.1719 L808.5,346.1719 " fill="#FEFFDD" style="stroke:#181818;stroke-width:0.5;"/><text fill="#000000" font-family="sans-serif" font-size="13" lengthAdjust="spacing" textLength="208" x="595.5" y="363.2388">Set&lt;Swimlane&gt; getSwimlanes()</text><ellipse cx="559.5" cy="358.7383" fill="#222222" rx="10" ry="10" style="stroke:#222222;stroke-width:1.0;"/><rect fill="#F1F1F1" height="33.9688" rx="12.5" ry="12.5" style="stroke:#181818;stroke-width:0.5;" width="186" x="466.5" y="391.3047"/><text fill="#000000" font-family="sans-serif" font-size="12" lengthAdjust="spacing" textLength="166" x="476.5" y="412.4434">return tile.getSwimlanes();</text><ellipse cx="559.5" cy="456.2734" fill="none" rx="11" ry="11" style="stroke:#222222;stroke-width:1.0;"/><ellipse cx="559.5" cy="456.2734" fill="#222222" rx="6" ry="6" style="stroke:#111111;stroke-width:1.0;"/><ellipse cx="559.5" cy="487.2734" fill="none" rx="10" ry="10" style="stroke:#222222;stroke-width:1.5;"/><line style="stroke:#222222;stroke-width:2.5;" x1="553.3128" x2="565.6872" y1="481.0863" y2="493.4606"/><line style="stroke:#222222;stroke-width:2.5;" x1="565.6872" x2="553.3128" y1="481.0863" y2="493.4606"/><path d="M589.5,507.2734 L589.5,530.9727 L569.5,534.9727 L589.5,538.9727 L589.5,562.6719 A0,0 0 0 0 589.5,562.6719 L891.5,562.6719 A0,0 0 0 0 891.5,562.6719 L891.5,517.2734 L881.5,507.2734 L589.5,507.2734 A0,0 0 0 0 589.5,507.2734 " fill="#FEFFDD" style="stroke:#181818;stroke-width:0.5;"/><path d="M881.5,507.2734 L881.5,517.2734 L891.5,517.2734 L881.5,507.2734 " fill="#FEFFDD" style="stroke:#181818;stroke-width:0.5;"/><text fill="#000000" font-family="sans-serif" font-size="13" lengthAdjust="spacing" textLength="262" x="595.5" y="524.3403">constructor GtileWithNoteOpale(Gtile tile,</text><text fill="#000000" font-family="sans-serif" font-size="13" lengthAdjust="spacing" textLength="281" x="595.5" y="539.4731">PositionedNote note,ISkinParam skinParam,</text><text fill="#000000" font-family="sans-serif" font-size="13" lengthAdjust="spacing" textLength="110" x="595.5" y="554.606">boolean withLink)</text><ellipse cx="559.5" cy="534.9727" fill="#222222" rx="10" ry="10" style="stroke:#222222;stroke-width:1.0;"/><rect fill="#F1F1F1" height="33.9688" rx="12.5" ry="12.5" style="stroke:#181818;stroke-width:0.5;" width="320" x="399.5" y="582.6719"/><text fill="#000000" font-family="sans-serif" font-size="12" lengthAdjust="spacing" textLength="300" x="409.5" y="603.8105">super (tile.getStringBounder(),tile.skinParam());</text><rect fill="#F1F1F1" height="33.9688" rx="12.5" ry="12.5" style="stroke:#181818;stroke-width:0.5;" width="300" x="409.5" y="636.6406"/><text fill="#000000" font-family="sans-serif" font-size="12" lengthAdjust="spacing" textLength="280" x="419.5" y="657.7793">this.swimlaneNote=note.getSwimlaneNote();</text><rect fill="#F1F1F1" height="33.9688" rx="12.5" ry="12.5" style="stroke:#181818;stroke-width:0.5;" width="313" x="403" y="739.0117"/><text fill="#000000" font-family="sans-serif" font-size="12" lengthAdjust="spacing" textLength="293" x="413" y="760.1504">skinParam=note.getColors().mute(skinParam);</text><polygon fill="#F1F1F1" points="495.5,690.6094,623.5,690.6094,635.5,702.6094,623.5,714.6094,495.5,714.6094,483.5,702.6094,495.5,690.6094" style="stroke:#181818;stroke-width:0.5;"/><text fill="#000000" font-family="sans-serif" font-size="11" lengthAdjust="spacing" textLength="20" x="563.5" y="724.8198">yes</text><text fill="#000000" font-family="sans-serif" font-size="11" lengthAdjust="spacing" textLength="124" x="495.5" y="706.4175">note.getColors()!=null</text><polygon fill="#F1F1F1" points="559.5,792.9805,571.5,804.9805,559.5,816.9805,547.5,804.9805,559.5,792.9805" style="stroke:#181818;stroke-width:0.5;"/><rect fill="#F1F1F1" height="33.9688" rx="12.5" ry="12.5" style="stroke:#181818;stroke-width:0.5;" width="99" x="510" y="836.9805"/><text fill="#000000" font-family="sans-serif" font-size="12" lengthAdjust="spacing" textLength="79" x="520" y="858.1191">this.tile=tile;</text><rect fill="#F1F1F1" height="33.9688" rx="12.5" ry="12.5" style="stroke:#181818;stroke-width:0.5;" width="284" x="417.5" y="890.9492"/><text fill="#000000" font-family="sans-serif" font-size="12" lengthAdjust="spacing" textLength="264" x="427.5" y="912.0879">this.notePosition=note.getNotePosition();</text><rect fill="#F1F1F1" height="33.9688" rx="12.5" ry="12.5" style="stroke:#181818;stroke-width:0.5;" width="113" x="503" y="993.3203"/><text fill="#000000" font-family="sans-serif" font-size="12" lengthAdjust="spacing" textLength="93" x="513" y="1014.459">withLink=false;</text><polygon fill="#F1F1F1" points="435,944.918,684,944.918,696,956.918,684,968.918,435,968.918,423,956.918,435,944.918" style="stroke:#181818;stroke-width:0.5;"/><text fill="#000000" font-family="sans-serif" font-size="11" lengthAdjust="spacing" textLength="20" x="563.5" y="979.1284">yes</text><text fill="#000000" font-family="sans-serif" font-size="11" lengthAdjust="spacing" textLength="249" x="435" y="960.7261">note.getType()==NoteType.FLOATING_NOTE</text><polygon fill="#F1F1F1" points="559.5,1047.2891,571.5,1059.2891,559.5,1071.2891,547.5,1059.2891,559.5,1047.2891" style="stroke:#181818;stroke-width:0.5;"/><rect fill="#F1F1F1" height="47.9375" rx="12.5" ry="12.5" style="stroke:#181818;stroke-width:0.5;" width="577" x="271" y="1091.2891"/><text fill="#000000" font-family="sans-serif" font-size="12" lengthAdjust="spacing" textLength="557" x="281" y="1112.4277">final Style style=getStyleSignature().getMergedStyle(skinParam.getCurrentStyleBuilder())</text><text fill="#000000" font-family="sans-serif" font-size="12" lengthAdjust="spacing" textLength="236" x="281" y="1126.3965">.eventuallyOverride(note.getColors());</text><rect fill="#F1F1F1" height="47.9375" rx="12.5" ry="12.5" style="stroke:#181818;stroke-width:0.5;" width="473" x="323" y="1159.2266"/><text fill="#000000" font-family="sans-serif" font-size="12" lengthAdjust="spacing" textLength="453" x="333" y="1180.3652">final HColor noteBackgroundColor=style.value(PName.BackGroundColor)</text><text fill="#000000" font-family="sans-serif" font-size="12" lengthAdjust="spacing" textLength="180" x="333" y="1194.334">.asColor(getIHtmlColorSet());</text><rect fill="#F1F1F1" height="47.9375" rx="12.5" ry="12.5" style="stroke:#181818;stroke-width:0.5;" width="360" x="379.5" y="1227.1641"/><text fill="#000000" font-family="sans-serif" font-size="12" lengthAdjust="spacing" textLength="340" x="389.5" y="1248.3027">final HColor borderColor=style.value(PName.LineColor)</text><text fill="#000000" font-family="sans-serif" font-size="12" lengthAdjust="spacing" textLength="180" x="389.5" y="1262.2715">.asColor(getIHtmlColorSet());</text><rect fill="#F1F1F1" height="33.9688" rx="12.5" ry="12.5" style="stroke:#181818;stroke-width:0.5;" width="482" x="318.5" y="1295.1016"/><text fill="#000000" font-family="sans-serif" font-size="12" lengthAdjust="spacing" textLength="462" x="328.5" y="1316.2402">final FontConfiguration fc=style.getFontConfiguration(getIHtmlColorSet());</text><rect fill="#F1F1F1" height="47.9375" rx="12.5" ry="12.5" style="stroke:#181818;stroke-width:0.5;" width="366" x="376.5" y="1349.0703"/><text fill="#000000" font-family="sans-serif" font-size="12" lengthAdjust="spacing" textLength="346" x="386.5" y="1370.209">final double shadowing=style.value(PName.Shadowing)</text><text fill="#000000" font-family="sans-serif" font-size="12" lengthAdjust="spacing" textLength="77" x="386.5" y="1384.1777">.asDouble();</text><rect fill="#F1F1F1" height="33.9688" rx="12.5" ry="12.5" style="stroke:#181818;stroke-width:0.5;" width="355" x="382" y="1417.0078"/><text fill="#000000" font-family="sans-serif" font-size="12" lengthAdjust="spacing" textLength="335" x="392" y="1438.1465">final LineBreakStrategy wrapWidth=style.wrapWidth();</text><rect fill="#F1F1F1" height="33.9688" rx="12.5" ry="12.5" style="stroke:#181818;stroke-width:0.5;" width="263" x="428" y="1470.9766"/><text fill="#000000" font-family="sans-serif" font-size="12" lengthAdjust="spacing" textLength="243" x="438" y="1492.1152">final UStroke stroke=style.getStroke();</text><rect fill="#F1F1F1" height="47.9375" rx="12.5" ry="12.5" style="stroke:#181818;stroke-width:0.5;" width="664" x="227.5" y="1524.9453"/><text fill="#000000" font-family="sans-serif" font-size="12" lengthAdjust="spacing" textLength="644" x="237.5" y="1546.084">final HorizontalAlignment align=skinParam.getHorizontalAlignment(AlignmentParam.noteTextAlignment,</text><text fill="#000000" font-family="sans-serif" font-size="12" lengthAdjust="spacing" textLength="99" x="237.5" y="1560.0527">null ,false,null );</text><rect fill="#F1F1F1" height="47.9375" rx="12.5" ry="12.5" style="stroke:#181818;stroke-width:0.5;" width="404" x="357.5" y="1592.8828"/><text fill="#000000" font-family="sans-serif" font-size="12" lengthAdjust="spacing" textLength="246" x="367.5" y="1614.0215">final Sheet sheet=Parser.build(fc,align,</text><text fill="#000000" font-family="sans-serif" font-size="12" lengthAdjust="spacing" textLength="384" x="367.5" y="1627.9902">skinParam,CreoleMode.FULL).createSheet(note.getDisplay());</text><rect fill="#F1F1F1" height="47.9375" rx="12.5" ry="12.5" style="stroke:#181818;stroke-width:0.5;" width="411" x="354" y="1660.8203"/><text fill="#000000" font-family="sans-serif" font-size="12" lengthAdjust="spacing" textLength="391" x="364" y="1681.959">final TextBlock text=new SheetBlock2(new SheetBlock1(sheet,</text><text fill="#000000" font-family="sans-serif" font-size="12" lengthAdjust="spacing" textLength="362" x="364" y="1695.9277">wrapWidth,skinParam.getPadding()),this,new UStroke(1));</text><rect fill="#F1F1F1" height="47.9375" rx="12.5" ry="12.5" style="stroke:#181818;stroke-width:0.5;" width="311" x="404" y="1728.7578"/><text fill="#000000" font-family="sans-serif" font-size="12" lengthAdjust="spacing" textLength="291" x="414" y="1749.8965">this.opale=new Opale(shadowing,borderColor,</text><text fill="#000000" font-family="sans-serif" font-size="12" lengthAdjust="spacing" textLength="270" x="414" y="1763.8652">noteBackgroundColor,text,withLink,stroke);</text><rect fill="#F1F1F1" height="33.9688" rx="12.5" ry="12.5" style="stroke:#181818;stroke-width:0.5;" width="373" x="373" y="1796.6953"/><text fill="#000000" font-family="sans-serif" font-size="12" lengthAdjust="spacing" textLength="353" x="383" y="1817.834">this.dimNote=opale.calculateDimension(stringBounder);</text><rect fill="#F1F1F1" height="33.9688" rx="12.5" ry="12.5" style="stroke:#181818;stroke-width:0.5;" width="348" x="385.5" y="1850.6641"/><text fill="#000000" font-family="sans-serif" font-size="12" lengthAdjust="spacing" textLength="328" x="395.5" y="1871.8027">this.dimTile=tile.calculateDimension(stringBounder);</text><rect fill="#F1F1F1" height="33.9688" rx="12.5" ry="12.5" style="stroke:#181818;stroke-width:0.5;" width="431" x="344" y="1904.6328"/><text fill="#000000" font-family="sans-serif" font-size="12" lengthAdjust="spacing" textLength="411" x="354" y="1925.7715">final XDimension2D dimTotal=calculateDimension(stringBounder);</text><polygon fill="#F1F1F1" points="437,1958.6016,682,1958.6016,694,1970.6016,682,1982.6016,437,1982.6016,425,1970.6016,437,1958.6016" style="stroke:#181818;stroke-width:0.5;"/><text fill="#000000" font-family="sans-serif" font-size="11" lengthAdjust="spacing" textLength="245" x="437" y="1974.4097">note.getNotePosition()==NotePosition.LEFT</text><text fill="#000000" font-family="sans-serif" font-size="11" lengthAdjust="spacing" textLength="20" x="405" y="1968.0073">yes</text><text fill="#000000" font-family="sans-serif" font-size="11" lengthAdjust="spacing" textLength="14" x="694" y="1968.0073">no</text><rect fill="#F1F1F1" height="33.9688" rx="12.5" ry="12.5" style="stroke:#181818;stroke-width:0.5;" width="543" x="11" y="1992.6016"/><text fill="#000000" font-family="sans-serif" font-size="12" lengthAdjust="spacing" textLength="523" x="21" y="2013.7402">this.positionNote=new UTranslate(0,(dimTotal.getHeight()-dimNote.getHeight())/2);</text><rect fill="#F1F1F1" height="47.9375" rx="12.5" ry="12.5" style="stroke:#181818;stroke-width:0.5;" width="377" x="94" y="2060.5391"/><text fill="#000000" font-family="sans-serif" font-size="12" lengthAdjust="spacing" textLength="342" x="104" y="2081.6777">this.positionTile=new UTranslate(dimNote.getWidth()+</text><text fill="#000000" font-family="sans-serif" font-size="12" lengthAdjust="spacing" textLength="357" x="104" y="2095.6465">suppSpace,(dimTotal.getHeight()-dimTile.getHeight())/2);</text><rect fill="#F1F1F1" height="47.9375" rx="12.5" ry="12.5" style="stroke:#181818;stroke-width:0.5;" width="386" x="643.5" y="1992.6016"/><text fill="#000000" font-family="sans-serif" font-size="12" lengthAdjust="spacing" textLength="342" x="653.5" y="2013.7402">this.positionNote=new UTranslate(dimTile.getWidth()+</text><text fill="#000000" font-family="sans-serif" font-size="12" lengthAdjust="spacing" textLength="366" x="653.5" y="2027.709">suppSpace,(dimTotal.getHeight()-dimNote.getHeight())/2);</text><rect fill="#F1F1F1" height="33.9688" rx="12.5" ry="12.5" style="stroke:#181818;stroke-width:0.5;" width="525" x="574" y="2074.5078"/><text fill="#000000" font-family="sans-serif" font-size="12" lengthAdjust="spacing" textLength="505" x="584" y="2095.6465">this.positionTile=new UTranslate(0,(dimTotal.getHeight()-dimTile.getHeight())/2);</text><polygon fill="#F1F1F1" points="559.5,2114.4766,571.5,2126.4766,559.5,2138.4766,547.5,2126.4766,559.5,2114.4766" style="stroke:#181818;stroke-width:0.5;"/><ellipse cx="559.5" cy="2168.4766" fill="none" rx="10" ry="10" style="stroke:#222222;stroke-width:1.5;"/><line style="stroke:#222222;stroke-width:2.5;" x1="553.3128" x2="565.6872" y1="2162.2894" y2="2174.6637"/><line style="stroke:#222222;stroke-width:2.5;" x1="565.6872" x2="553.3128" y1="2162.2894" y2="2174.6637"/><path d="M589.5,2188.4766 L589.5,2197.043 L569.5,2201.043 L589.5,2205.043 L589.5,2213.6094 A0,0 0 0 0 589.5,2213.6094 L858.5,2213.6094 A0,0 0 0 0 858.5,2213.6094 L858.5,2198.4766 L848.5,2188.4766 L589.5,2188.4766 A0,0 0 0 0 589.5,2188.4766 " fill="#FEFFDD" style="stroke:#181818;stroke-width:0.5;"/><path d="M848.5,2188.4766 L848.5,2198.4766 L858.5,2198.4766 L848.5,2188.4766 " fill="#FEFFDD" style="stroke:#181818;stroke-width:0.5;"/><text fill="#000000" font-family="sans-serif" font-size="13" lengthAdjust="spacing" textLength="248" x="595.5" y="2205.5435">UTranslate getCoordImpl(String name)</text><ellipse cx="559.5" cy="2201.043" fill="#222222" rx="10" ry="10" style="stroke:#222222;stroke-width:1.0;"/><rect fill="#F1F1F1" height="33.9688" rx="12.5" ry="12.5" style="stroke:#181818;stroke-width:0.5;" width="335" x="392" y="2233.6094"/><text fill="#000000" font-family="sans-serif" font-size="12" lengthAdjust="spacing" textLength="315" x="402" y="2254.748">return tile.getCoord(name).compose(positionTile);</text><ellipse cx="559.5" cy="2298.5781" fill="none" rx="11" ry="11" style="stroke:#222222;stroke-width:1.0;"/><ellipse cx="559.5" cy="2298.5781" fill="#222222" rx="6" ry="6" style="stroke:#111111;stroke-width:1.0;"/><ellipse cx="559.5" cy="2329.5781" fill="none" rx="10" ry="10" style="stroke:#222222;stroke-width:1.5;"/><line style="stroke:#222222;stroke-width:2.5;" x1="553.3128" x2="565.6872" y1="2323.3909" y2="2335.7653"/><line style="stroke:#222222;stroke-width:2.5;" x1="565.6872" x2="553.3128" y1="2323.3909" y2="2335.7653"/><path d="M589.5,2349.5781 L589.5,2358.1445 L569.5,2362.1445 L589.5,2366.1445 L589.5,2374.7109 A0,0 0 0 0 589.5,2374.7109 L1029.5,2374.7109 A0,0 0 0 0 1029.5,2374.7109 L1029.5,2359.5781 L1019.5,2349.5781 L589.5,2349.5781 A0,0 0 0 0 589.5,2349.5781 " fill="#FEFFDD" style="stroke:#181818;stroke-width:0.5;"/><path d="M1019.5,2349.5781 L1019.5,2359.5781 L1029.5,2359.5781 L1019.5,2349.5781 " fill="#FEFFDD" style="stroke:#181818;stroke-width:0.5;"/><text fill="#000000" font-family="sans-serif" font-size="13" lengthAdjust="spacing" textLength="419" x="595.5" y="2366.645">XDimension2D calculateDimension(StringBounder stringBounder)</text><ellipse cx="559.5" cy="2362.1445" fill="#222222" rx="10" ry="10" style="stroke:#222222;stroke-width:1.0;"/><rect fill="#F1F1F1" height="47.9375" rx="12.5" ry="12.5" style="stroke:#181818;stroke-width:0.5;" width="344" x="387.5" y="2394.7109"/><text fill="#000000" font-family="sans-serif" font-size="12" lengthAdjust="spacing" textLength="324" x="397.5" y="2415.8496">final double height=Math.max(dimNote.getHeight(),</text><text fill="#000000" font-family="sans-serif" font-size="12" lengthAdjust="spacing" textLength="128" x="397.5" y="2429.8184">dimTile.getHeight());</text><rect fill="#F1F1F1" height="47.9375" rx="12.5" ry="12.5" style="stroke:#181818;stroke-width:0.5;" width="309" x="405" y="2462.6484"/><text fill="#000000" font-family="sans-serif" font-size="12" lengthAdjust="spacing" textLength="289" x="415" y="2483.7871">return new XDimension2D(dimTile.getWidth()+</text><text fill="#000000" font-family="sans-serif" font-size="12" lengthAdjust="spacing" textLength="255" x="415" y="2497.7559">dimNote.getWidth()+suppSpace,height);</text><ellipse cx="559.5" cy="2541.5859" fill="none" rx="11" ry="11" style="stroke:#222222;stroke-width:1.0;"/><ellipse cx="559.5" cy="2541.5859" fill="#222222" rx="6" ry="6" style="stroke:#111111;stroke-width:1.0;"/><ellipse cx="559.5" cy="2572.5859" fill="none" rx="10" ry="10" style="stroke:#222222;stroke-width:1.5;"/><line style="stroke:#222222;stroke-width:2.5;" x1="553.3128" x2="565.6872" y1="2566.3988" y2="2578.7731"/><line style="stroke:#222222;stroke-width:2.5;" x1="565.6872" x2="553.3128" y1="2566.3988" y2="2578.7731"/><path d="M589.5,2592.5859 L589.5,2601.1523 L569.5,2605.1523 L589.5,2609.1523 L589.5,2617.7188 A0,0 0 0 0 589.5,2617.7188 L817.5,2617.7188 A0,0 0 0 0 817.5,2617.7188 L817.5,2602.5859 L807.5,2592.5859 L589.5,2592.5859 A0,0 0 0 0 589.5,2592.5859 " fill="#FEFFDD" style="stroke:#181818;stroke-width:0.5;"/><path d="M807.5,2592.5859 L807.5,2602.5859 L817.5,2602.5859 L807.5,2592.5859 " fill="#FEFFDD" style="stroke:#181818;stroke-width:0.5;"/><text fill="#000000" font-family="sans-serif" font-size="13" lengthAdjust="spacing" textLength="207" x="595.5" y="2609.6528">void drawUInternal(UGraphic ug)</text><ellipse cx="559.5" cy="2605.1523" fill="#222222" rx="10" ry="10" style="stroke:#222222;stroke-width:1.0;"/><rect fill="#F1F1F1" height="33.9688" rx="12.5" ry="12.5" style="stroke:#181818;stroke-width:0.5;" width="255" x="432" y="2637.7188"/><text fill="#000000" font-family="sans-serif" font-size="12" lengthAdjust="spacing" textLength="235" x="442" y="2658.8574">opale.drawU(ug.apply(positionNote));</text><rect fill="#F1F1F1" height="33.9688" rx="12.5" ry="12.5" style="stroke:#181818;stroke-width:0.5;" width="230" x="444.5" y="2691.6875"/><text fill="#000000" font-family="sans-serif" font-size="12" lengthAdjust="spacing" textLength="210" x="454.5" y="2712.8262">tile.drawU(ug.apply(positionTile));</text><ellipse cx="559.5" cy="2755.6563" fill="none" rx="10" ry="10" style="stroke:#222222;stroke-width:1.5;"/><line style="stroke:#222222;stroke-width:2.5;" x1="553.3128" x2="565.6872" y1="2749.4691" y2="2761.8434"/><line style="stroke:#222222;stroke-width:2.5;" x1="565.6872" x2="553.3128" y1="2749.4691" y2="2761.8434"/><path d="M589.5,2775.6563 L589.5,2791.7891 L569.5,2795.7891 L589.5,2799.7891 L589.5,2815.9219 A0,0 0 0 0 589.5,2815.9219 L932.5,2815.9219 A0,0 0 0 0 932.5,2815.9219 L932.5,2785.6563 L922.5,2775.6563 L589.5,2775.6563 A0,0 0 0 0 589.5,2775.6563 " fill="#FEFFDD" style="stroke:#181818;stroke-width:0.5;"/><path d="M922.5,2775.6563 L922.5,2785.6563 L932.5,2785.6563 L922.5,2775.6563 " fill="#FEFFDD" style="stroke:#181818;stroke-width:0.5;"/><text fill="#000000" font-family="sans-serif" font-size="13" lengthAdjust="spacing" textLength="322" x="595.5" y="2792.7231">double getStartingX(StringBounder stringBounder,</text><text fill="#000000" font-family="sans-serif" font-size="13" lengthAdjust="spacing" textLength="59" x="595.5" y="2807.856">double y)</text><ellipse cx="559.5" cy="2795.7891" fill="#222222" rx="10" ry="10" style="stroke:#222222;stroke-width:1.0;"/><rect fill="#F1F1F1" height="33.9688" rx="12.5" ry="12.5" style="stroke:#181818;stroke-width:0.5;" width="198" x="460.5" y="2835.9219"/><text fill="#000000" font-family="sans-serif" font-size="12" lengthAdjust="spacing" textLength="178" x="470.5" y="2857.0605">return -opale.getMarginX1();</text><ellipse cx="559.5" cy="2900.8906" fill="none" rx="11" ry="11" style="stroke:#222222;stroke-width:1.0;"/><ellipse cx="559.5" cy="2900.8906" fill="#222222" rx="6" ry="6" style="stroke:#111111;stroke-width:1.0;"/><ellipse cx="559.5" cy="2931.8906" fill="none" rx="10" ry="10" style="stroke:#222222;stroke-width:1.5;"/><line style="stroke:#222222;stroke-width:2.5;" x1="553.3128" x2="565.6872" y1="2925.7034" y2="2938.0778"/><line style="stroke:#222222;stroke-width:2.5;" x1="565.6872" x2="553.3128" y1="2925.7034" y2="2938.0778"/><path d="M589.5,2951.8906 L589.5,2968.0234 L569.5,2972.0234 L589.5,2976.0234 L589.5,2992.1563 A0,0 0 0 0 589.5,2992.1563 L924.5,2992.1563 A0,0 0 0 0 924.5,2992.1563 L924.5,2961.8906 L914.5,2951.8906 L589.5,2951.8906 A0,0 0 0 0 589.5,2951.8906 " fill="#FEFFDD" style="stroke:#181818;stroke-width:0.5;"/><path d="M914.5,2951.8906 L914.5,2961.8906 L924.5,2961.8906 L914.5,2951.8906 " fill="#FEFFDD" style="stroke:#181818;stroke-width:0.5;"/><text fill="#000000" font-family="sans-serif" font-size="13" lengthAdjust="spacing" textLength="314" x="595.5" y="2968.9575">double getEndingX(StringBounder stringBounder,</text><text fill="#000000" font-family="sans-serif" font-size="13" lengthAdjust="spacing" textLength="59" x="595.5" y="2984.0903">double y)</text><ellipse cx="559.5" cy="2972.0234" fill="#222222" rx="10" ry="10" style="stroke:#222222;stroke-width:1.0;"/><rect fill="#F1F1F1" height="47.9375" rx="12.5" ry="12.5" style="stroke:#181818;stroke-width:0.5;" width="323" x="398" y="3012.1563"/><text fill="#000000" font-family="sans-serif" font-size="12" lengthAdjust="spacing" textLength="303" x="408" y="3033.2949">return opale.calculateDimension(stringBounder)</text><text fill="#000000" font-family="sans-serif" font-size="12" lengthAdjust="spacing" textLength="205" x="408" y="3047.2637">.getWidth()-opale.getMarginX1();</text><ellipse cx="559.5" cy="3091.0938" fill="none" rx="11" ry="11" style="stroke:#222222;stroke-width:1.0;"/><ellipse cx="559.5" cy="3091.0938" fill="#222222" rx="6" ry="6" style="stroke:#111111;stroke-width:1.0;"/><ellipse cx="559.5" cy="3122.0938" fill="none" rx="10" ry="10" style="stroke:#222222;stroke-width:1.5;"/><line style="stroke:#222222;stroke-width:2.5;" x1="553.3128" x2="565.6872" y1="3115.9066" y2="3128.2809"/><line style="stroke:#222222;stroke-width:2.5;" x1="565.6872" x2="553.3128" y1="3115.9066" y2="3128.2809"/><line style="stroke:#181818;stroke-width:1.0;" x1="559.5" x2="559.5" y1="32.5664" y2="55.1328"/><polygon fill="#181818" points="555.5,45.1328,559.5,55.1328,563.5,45.1328,559.5,49.1328" style="stroke:#181818;stroke-width:1.0;"/><line style="stroke:#181818;stroke-width:1.0;" x1="559.5" x2="559.5" y1="103.0703" y2="123.0703"/><polygon fill="#181818" points="555.5,113.0703,559.5,123.0703,563.5,113.0703,559.5,117.0703" style="stroke:#181818;stroke-width:1.0;"/><line style="stroke:#181818;stroke-width:1.0;" x1="559.5" x2="559.5" y1="207.6367" y2="230.2031"/><polygon fill="#181818" points="555.5,220.2031,559.5,230.2031,563.5,220.2031,559.5,224.2031" style="stroke:#181818;stroke-width:1.0;"/><line style="stroke:#181818;stroke-width:1.0;" x1="559.5" x2="559.5" y1="264.1719" y2="284.1719"/><polygon fill="#181818" points="555.5,274.1719,559.5,284.1719,563.5,274.1719,559.5,278.1719" style="stroke:#181818;stroke-width:1.0;"/><line style="stroke:#181818;stroke-width:1.0;" x1="559.5" x2="559.5" y1="368.7383" y2="391.3047"/><polygon fill="#181818" points="555.5,381.3047,559.5,391.3047,563.5,381.3047,559.5,385.3047" style="stroke:#181818;stroke-width:1.0;"/><line style="stroke:#181818;stroke-width:1.0;" x1="559.5" x2="559.5" y1="425.2734" y2="445.2734"/><polygon fill="#181818" points="555.5,435.2734,559.5,445.2734,563.5,435.2734,559.5,439.2734" style="stroke:#181818;stroke-width:1.0;"/><line style="stroke:#181818;stroke-width:1.0;" x1="559.5" x2="559.5" y1="544.9727" y2="582.6719"/><polygon fill="#181818" points="555.5,572.6719,559.5,582.6719,563.5,572.6719,559.5,576.6719" style="stroke:#181818;stroke-width:1.0;"/><line style="stroke:#181818;stroke-width:1.0;" x1="559.5" x2="559.5" y1="616.6406" y2="636.6406"/><polygon fill="#181818" points="555.5,626.6406,559.5,636.6406,563.5,626.6406,559.5,630.6406" style="stroke:#181818;stroke-width:1.0;"/><line style="stroke:#181818;stroke-width:1.0;" x1="559.5" x2="559.5" y1="714.6094" y2="739.0117"/><polygon fill="#181818" points="555.5,729.0117,559.5,739.0117,563.5,729.0117,559.5,733.0117" style="stroke:#181818;stroke-width:1.0;"/><line style="stroke:#181818;stroke-width:1.0;" x1="635.5" x2="726" y1="702.6094" y2="702.6094"/><polygon fill="#181818" points="722,745.9961,726,755.9961,730,745.9961,726,749.9961" style="stroke:#181818;stroke-width:1.0;"/><line style="stroke:#181818;stroke-width:1.0;" x1="726" x2="726" y1="702.6094" y2="804.9805"/><line style="stroke:#181818;stroke-width:1.0;" x1="726" x2="571.5" y1="804.9805" y2="804.9805"/><polygon fill="#181818" points="581.5,800.9805,571.5,804.9805,581.5,808.9805,577.5,804.9805" style="stroke:#181818;stroke-width:1.0;"/><line style="stroke:#181818;stroke-width:1.0;" x1="559.5" x2="559.5" y1="772.9805" y2="792.9805"/><polygon fill="#181818" points="555.5,782.9805,559.5,792.9805,563.5,782.9805,559.5,786.9805" style="stroke:#181818;stroke-width:1.0;"/><line style="stroke:#181818;stroke-width:1.0;" x1="559.5" x2="559.5" y1="670.6094" y2="690.6094"/><polygon fill="#181818" points="555.5,680.6094,559.5,690.6094,563.5,680.6094,559.5,684.6094" style="stroke:#181818;stroke-width:1.0;"/><line style="stroke:#181818;stroke-width:1.0;" x1="559.5" x2="559.5" y1="816.9805" y2="836.9805"/><polygon fill="#181818" points="555.5,826.9805,559.5,836.9805,563.5,826.9805,559.5,830.9805" style="stroke:#181818;stroke-width:1.0;"/><line style="stroke:#181818;stroke-width:1.0;" x1="559.5" x2="559.5" y1="870.9492" y2="890.9492"/><polygon fill="#181818" points="555.5,880.9492,559.5,890.9492,563.5,880.9492,559.5,884.9492" style="stroke:#181818;stroke-width:1.0;"/><line style="stroke:#181818;stroke-width:1.0;" x1="559.5" x2="559.5" y1="968.918" y2="993.3203"/><polygon fill="#181818" points="555.5,983.3203,559.5,993.3203,563.5,983.3203,559.5,987.3203" style="stroke:#181818;stroke-width:1.0;"/><line style="stroke:#181818;stroke-width:1.0;" x1="696" x2="708" y1="956.918" y2="956.918"/><polygon fill="#181818" points="704,1000.3047,708,1010.3047,712,1000.3047,708,1004.3047" style="stroke:#181818;stroke-width:1.0;"/><line style="stroke:#181818;stroke-width:1.0;" x1="708" x2="708" y1="956.918" y2="1059.2891"/><line style="stroke:#181818;stroke-width:1.0;" x1="708" x2="571.5" y1="1059.2891" y2="1059.2891"/><polygon fill="#181818" points="581.5,1055.2891,571.5,1059.2891,581.5,1063.2891,577.5,1059.2891" style="stroke:#181818;stroke-width:1.0;"/><line style="stroke:#181818;stroke-width:1.0;" x1="559.5" x2="559.5" y1="1027.2891" y2="1047.2891"/><polygon fill="#181818" points="555.5,1037.2891,559.5,1047.2891,563.5,1037.2891,559.5,1041.2891" style="stroke:#181818;stroke-width:1.0;"/><line style="stroke:#181818;stroke-width:1.0;" x1="559.5" x2="559.5" y1="924.918" y2="944.918"/><polygon fill="#181818" points="555.5,934.918,559.5,944.918,563.5,934.918,559.5,938.918" style="stroke:#181818;stroke-width:1.0;"/><line style="stroke:#181818;stroke-width:1.0;" x1="559.5" x2="559.5" y1="1071.2891" y2="1091.2891"/><polygon fill="#181818" points="555.5,1081.2891,559.5,1091.2891,563.5,1081.2891,559.5,1085.2891" style="stroke:#181818;stroke-width:1.0;"/><line style="stroke:#181818;stroke-width:1.0;" x1="559.5" x2="559.5" y1="1139.2266" y2="1159.2266"/><polygon fill="#181818" points="555.5,1149.2266,559.5,1159.2266,563.5,1149.2266,559.5,1153.2266" style="stroke:#181818;stroke-width:1.0;"/><line style="stroke:#181818;stroke-width:1.0;" x1="559.5" x2="559.5" y1="1207.1641" y2="1227.1641"/><polygon fill="#181818" points="555.5,1217.1641,559.5,1227.1641,563.5,1217.1641,559.5,1221.1641" style="stroke:#181818;stroke-width:1.0;"/><line style="stroke:#181818;stroke-width:1.0;" x1="559.5" x2="559.5" y1="1275.1016" y2="1295.1016"/><polygon fill="#181818" points="555.5,1285.1016,559.5,1295.1016,563.5,1285.1016,559.5,1289.1016" style="stroke:#181818;stroke-width:1.0;"/><line style="stroke:#181818;stroke-width:1.0;" x1="559.5" x2="559.5" y1="1329.0703" y2="1349.0703"/><polygon fill="#181818" points="555.5,1339.0703,559.5,1349.0703,563.5,1339.0703,559.5,1343.0703" style="stroke:#181818;stroke-width:1.0;"/><line style="stroke:#181818;stroke-width:1.0;" x1="559.5" x2="559.5" y1="1397.0078" y2="1417.0078"/><polygon fill="#181818" points="555.5,1407.0078,559.5,1417.0078,563.5,1407.0078,559.5,1411.0078" style="stroke:#181818;stroke-width:1.0;"/><line style="stroke:#181818;stroke-width:1.0;" x1="559.5" x2="559.5" y1="1450.9766" y2="1470.9766"/><polygon fill="#181818" points="555.5,1460.9766,559.5,1470.9766,563.5,1460.9766,559.5,1464.9766" style="stroke:#181818;stroke-width:1.0;"/><line style="stroke:#181818;stroke-width:1.0;" x1="559.5" x2="559.5" y1="1504.9453" y2="1524.9453"/><polygon fill="#181818" points="555.5,1514.9453,559.5,1524.9453,563.5,1514.9453,559.5,1518.9453" style="stroke:#181818;stroke-width:1.0;"/><line style="stroke:#181818;stroke-width:1.0;" x1="559.5" x2="559.5" y1="1572.8828" y2="1592.8828"/><polygon fill="#181818" points="555.5,1582.8828,559.5,1592.8828,563.5,1582.8828,559.5,1586.8828" style="stroke:#181818;stroke-width:1.0;"/><line style="stroke:#181818;stroke-width:1.0;" x1="559.5" x2="559.5" y1="1640.8203" y2="1660.8203"/><polygon fill="#181818" points="555.5,1650.8203,559.5,1660.8203,563.5,1650.8203,559.5,1654.8203" style="stroke:#181818;stroke-width:1.0;"/><line style="stroke:#181818;stroke-width:1.0;" x1="559.5" x2="559.5" y1="1708.7578" y2="1728.7578"/><polygon fill="#181818" points="555.5,1718.7578,559.5,1728.7578,563.5,1718.7578,559.5,1722.7578" style="stroke:#181818;stroke-width:1.0;"/><line style="stroke:#181818;stroke-width:1.0;" x1="559.5" x2="559.5" y1="1776.6953" y2="1796.6953"/><polygon fill="#181818" points="555.5,1786.6953,559.5,1796.6953,563.5,1786.6953,559.5,1790.6953" style="stroke:#181818;stroke-width:1.0;"/><line style="stroke:#181818;stroke-width:1.0;" x1="559.5" x2="559.5" y1="1830.6641" y2="1850.6641"/><polygon fill="#181818" points="555.5,1840.6641,559.5,1850.6641,563.5,1840.6641,559.5,1844.6641" style="stroke:#181818;stroke-width:1.0;"/><line style="stroke:#181818;stroke-width:1.0;" x1="559.5" x2="559.5" y1="1884.6328" y2="1904.6328"/><polygon fill="#181818" points="555.5,1894.6328,559.5,1904.6328,563.5,1894.6328,559.5,1898.6328" style="stroke:#181818;stroke-width:1.0;"/><line style="stroke:#181818;stroke-width:1.0;" x1="282.5" x2="282.5" y1="2026.5703" y2="2060.5391"/><polygon fill="#181818" points="278.5,2050.5391,282.5,2060.5391,286.5,2050.5391,282.5,2054.5391" style="stroke:#181818;stroke-width:1.0;"/><line style="stroke:#181818;stroke-width:1.0;" x1="836.5" x2="836.5" y1="2040.5391" y2="2074.5078"/><polygon fill="#181818" points="832.5,2064.5078,836.5,2074.5078,840.5,2064.5078,836.5,2068.5078" style="stroke:#181818;stroke-width:1.0;"/><line style="stroke:#181818;stroke-width:1.0;" x1="425" x2="282.5" y1="1970.6016" y2="1970.6016"/><line style="stroke:#181818;stroke-width:1.0;" x1="282.5" x2="282.5" y1="1970.6016" y2="1992.6016"/><polygon fill="#181818" points="278.5,1982.6016,282.5,1992.6016,286.5,1982.6016,282.5,1986.6016" style="stroke:#181818;stroke-width:1.0;"/><line style="stroke:#181818;stroke-width:1.0;" x1="694" x2="836.5" y1="1970.6016" y2="1970.6016"/><line style="stroke:#181818;stroke-width:1.0;" x1="836.5" x2="836.5" y1="1970.6016" y2="1992.6016"/><polygon fill="#181818" points="832.5,1982.6016,836.5,1992.6016,840.5,1982.6016,836.5,1986.6016" style="stroke:#181818;stroke-width:1.0;"/><line style="stroke:#181818;stroke-width:1.0;" x1="282.5" x2="282.5" y1="2108.4766" y2="2126.4766"/><line style="stroke:#181818;stroke-width:1.0;" x1="282.5" x2="547.5" y1="2126.4766" y2="2126.4766"/><polygon fill="#181818" points="537.5,2122.4766,547.5,2126.4766,537.5,2130.4766,541.5,2126.4766" style="stroke:#181818;stroke-width:1.0;"/><line style="stroke:#181818;stroke-width:1.0;" x1="836.5" x2="836.5" y1="2108.4766" y2="2126.4766"/><line style="stroke:#181818;stroke-width:1.0;" x1="836.5" x2="571.5" y1="2126.4766" y2="2126.4766"/><polygon fill="#181818" points="581.5,2122.4766,571.5,2126.4766,581.5,2130.4766,577.5,2126.4766" style="stroke:#181818;stroke-width:1.0;"/><line style="stroke:#181818;stroke-width:1.0;" x1="559.5" x2="559.5" y1="1938.6016" y2="1958.6016"/><polygon fill="#181818" points="555.5,1948.6016,559.5,1958.6016,563.5,1948.6016,559.5,1952.6016" style="stroke:#181818;stroke-width:1.0;"/><line style="stroke:#181818;stroke-width:1.0;" x1="559.5" x2="559.5" y1="2138.4766" y2="2158.4766"/><polygon fill="#181818" points="555.5,2148.4766,559.5,2158.4766,563.5,2148.4766,559.5,2152.4766" style="stroke:#181818;stroke-width:1.0;"/><line style="stroke:#181818;stroke-width:1.0;" x1="559.5" x2="559.5" y1="2211.043" y2="2233.6094"/><polygon fill="#181818" points="555.5,2223.6094,559.5,2233.6094,563.5,2223.6094,559.5,2227.6094" style="stroke:#181818;stroke-width:1.0;"/><line style="stroke:#181818;stroke-width:1.0;" x1="559.5" x2="559.5" y1="2267.5781" y2="2287.5781"/><polygon fill="#181818" points="555.5,2277.5781,559.5,2287.5781,563.5,2277.5781,559.5,2281.5781" style="stroke:#181818;stroke-width:1.0;"/><line style="stroke:#181818;stroke-width:1.0;" x1="559.5" x2="559.5" y1="2372.1445" y2="2394.7109"/><polygon fill="#181818" points="555.5,2384.7109,559.5,2394.7109,563.5,2384.7109,559.5,2388.7109" style="stroke:#181818;stroke-width:1.0;"/><line style="stroke:#181818;stroke-width:1.0;" x1="559.5" x2="559.5" y1="2442.6484" y2="2462.6484"/><polygon fill="#181818" points="555.5,2452.6484,559.5,2462.6484,563.5,2452.6484,559.5,2456.6484" style="stroke:#181818;stroke-width:1.0;"/><line style="stroke:#181818;stroke-width:1.0;" x1="559.5" x2="559.5" y1="2510.5859" y2="2530.5859"/><polygon fill="#181818" points="555.5,2520.5859,559.5,2530.5859,563.5,2520.5859,559.5,2524.5859" style="stroke:#181818;stroke-width:1.0;"/><line style="stroke:#181818;stroke-width:1.0;" x1="559.5" x2="559.5" y1="2615.1523" y2="2637.7188"/><polygon fill="#181818" points="555.5,2627.7188,559.5,2637.7188,563.5,2627.7188,559.5,2631.7188" style="stroke:#181818;stroke-width:1.0;"/><line style="stroke:#181818;stroke-width:1.0;" x1="559.5" x2="559.5" y1="2671.6875" y2="2691.6875"/><polygon fill="#181818" points="555.5,2681.6875,559.5,2691.6875,563.5,2681.6875,559.5,2685.6875" style="stroke:#181818;stroke-width:1.0;"/><line style="stroke:#181818;stroke-width:1.0;" x1="559.5" x2="559.5" y1="2725.6563" y2="2745.6563"/><polygon fill="#181818" points="555.5,2735.6563,559.5,2745.6563,563.5,2735.6563,559.5,2739.6563" style="stroke:#181818;stroke-width:1.0;"/><line style="stroke:#181818;stroke-width:1.0;" x1="559.5" x2="559.5" y1="2805.7891" y2="2835.9219"/><polygon fill="#181818" points="555.5,2825.9219,559.5,2835.9219,563.5,2825.9219,559.5,2829.9219" style="stroke:#181818;stroke-width:1.0;"/><line style="stroke:#181818;stroke-width:1.0;" x1="559.5" x2="559.5" y1="2869.8906" y2="2889.8906"/><polygon fill="#181818" points="555.5,2879.8906,559.5,2889.8906,563.5,2879.8906,559.5,2883.8906" style="stroke:#181818;stroke-width:1.0;"/><line style="stroke:#181818;stroke-width:1.0;" x1="559.5" x2="559.5" y1="2982.0234" y2="3012.1563"/><polygon fill="#181818" points="555.5,3002.1563,559.5,3012.1563,563.5,3002.1563,559.5,3006.1563" style="stroke:#181818;stroke-width:1.0;"/><line style="stroke:#181818;stroke-width:1.0;" x1="559.5" x2="559.5" y1="3060.0938" y2="3080.0938"/><polygon fill="#181818" points="555.5,3070.0938,559.5,3080.0938,563.5,3070.0938,559.5,3074.0938" style="stroke:#181818;stroke-width:1.0;"/><!--MD5=[8b45233968a472aed7dc6b30d5335eab]
@startuml
!pragma layout smetana
start
note right
StyleSignatureBasic getStyleSignature()
end note
:return StyleSignatureBasic.of(SName.root,
SName.element,SName.activityDiagram,SName.note);;
stop
end
start
note right
Swimlane getSwimlane(String point)
end note
:return tile.getSwimlane(point);;
stop
end
start
note right
Set<Swimlane> getSwimlanes()
end note
:return tile.getSwimlanes();;
stop
end
start
note right
constructor GtileWithNoteOpale(Gtile tile,
PositionedNote note,ISkinParam skinParam,
boolean withLink)
end note
:super (tile.getStringBounder(),tile.skinParam());;
:this.swimlaneNote=note.getSwimlaneNote();;
if (note.getColors()!=null ) then (yes) 
:skinParam=note.getColors().mute(skinParam);;
endif 
:this.tile=tile;;
:this.notePosition=note.getNotePosition();;
if (note.getType()==NoteType.FLOATING_NOTE) then (yes) 
:withLink=false;;
endif 
:final Style style=getStyleSignature().getMergedStyle(skinParam.getCurrentStyleBuilder())
.eventuallyOverride(note.getColors());;
:final HColor noteBackgroundColor=style.value(PName.BackGroundColor)
.asColor(getIHtmlColorSet());;
:final HColor borderColor=style.value(PName.LineColor)
.asColor(getIHtmlColorSet());;
:final FontConfiguration fc=style.getFontConfiguration(getIHtmlColorSet());;
:final double shadowing=style.value(PName.Shadowing)
.asDouble();;
:final LineBreakStrategy wrapWidth=style.wrapWidth();;
:final UStroke stroke=style.getStroke();;
:final HorizontalAlignment align=skinParam.getHorizontalAlignment(AlignmentParam.noteTextAlignment,
null ,false,null );;
:final Sheet sheet=Parser.build(fc,align,
skinParam,CreoleMode.FULL).createSheet(note.getDisplay());;
:final TextBlock text=new SheetBlock2(new SheetBlock1(sheet,
wrapWidth,skinParam.getPadding()),this,new UStroke(1));;
:this.opale=new Opale(shadowing,borderColor,
noteBackgroundColor,text,withLink,stroke);;
:this.dimNote=opale.calculateDimension(stringBounder);;
:this.dimTile=tile.calculateDimension(stringBounder);;
:final XDimension2D dimTotal=calculateDimension(stringBounder);;
if (note.getNotePosition()==NotePosition.LEFT) then (yes) 
:this.positionNote=new UTranslate(0,(dimTotal.getHeight()-dimNote.getHeight())/2);;
:this.positionTile=new UTranslate(dimNote.getWidth()+
suppSpace,(dimTotal.getHeight()-dimTile.getHeight())/2);;
else (no)
:this.positionNote=new UTranslate(dimTile.getWidth()+
suppSpace,(dimTotal.getHeight()-dimNote.getHeight())/2);;
:this.positionTile=new UTranslate(0,(dimTotal.getHeight()-dimTile.getHeight())/2);;
endif 
end
start
note right
UTranslate getCoordImpl(String name)
end note
:return tile.getCoord(name).compose(positionTile);;
stop
end
start
note right
XDimension2D calculateDimension(StringBounder stringBounder)
end note
:final double height=Math.max(dimNote.getHeight(),
dimTile.getHeight());;
:return new XDimension2D(dimTile.getWidth()+
dimNote.getWidth()+suppSpace,height);;
stop
end
start
note right
void drawUInternal(UGraphic ug)
end note
:opale.drawU(ug.apply(positionNote));;
:tile.drawU(ug.apply(positionTile));;
end
start
note right
double getStartingX(StringBounder stringBounder,
double y)
end note
:return -opale.getMarginX1();;
stop
end
start
note right
double getEndingX(StringBounder stringBounder,
double y)
end note
:return opale.calculateDimension(stringBounder)
.getWidth()-opale.getMarginX1();;
stop
end
@enduml

PlantUML version 1.2022.7(Mon Aug 22 17:01:30 UTC 2022)
(GPL source distribution)
Java Runtime: OpenJDK Runtime Environment
JVM: OpenJDK 64-Bit Server VM
Default Encoding: UTF-8
Language: en
Country: null
--></g></svg>