<?xml version="1.0" encoding="UTF-8" standalone="no"?><svg xmlns="http://www.w3.org/2000/svg" xmlns:xlink="http://www.w3.org/1999/xlink" contentStyleType="text/css" height="317px" preserveAspectRatio="none" style="width:423px;height:317px;background:#FFFFFF;" version="1.1" viewBox="0 0 423 317" width="423px" zoomAndPan="magnify"><defs/><g><!--MD5=[aa8f7b917213fcc1c2766e2d59b49067]
cluster java.lang--><g id="cluster_java.lang"><path d="M166.5,6 L236.5,6 A3.75,3.75 0 0 1 239,8.5 L246,28.2969 L255.5,28.2969 A2.5,2.5 0 0 1 258,30.7969 L258,86.5 A2.5,2.5 0 0 1 255.5,89 L166.5,89 A2.5,2.5 0 0 1 164,86.5 L164,8.5 A2.5,2.5 0 0 1 166.5,6 " fill="none" style="stroke:#000000;stroke-width:1.5;"/><line style="stroke:#000000;stroke-width:1.5;" x1="164" x2="246" y1="28.2969" y2="28.2969"/><text fill="#000000" font-family="sans-serif" font-size="14" font-weight="bold" lengthAdjust="spacing" textLength="69" x="168" y="20.9951">java.lang</text></g><!--MD5=[8f2c5435d1f3d30cfbd03645d875cfdb]
cluster gen.lib.common--><g id="cluster_gen.lib.common"><path d="M8.5,97 L134.5,97 A3.75,3.75 0 0 1 137,99.5 L144,119.2969 L413.5,119.2969 A2.5,2.5 0 0 1 416,121.7969 L416,307.5 A2.5,2.5 0 0 1 413.5,310 L8.5,310 A2.5,2.5 0 0 1 6,307.5 L6,99.5 A2.5,2.5 0 0 1 8.5,97 " fill="none" style="stroke:#000000;stroke-width:1.5;"/><line style="stroke:#000000;stroke-width:1.5;" x1="6" x2="144" y1="119.2969" y2="119.2969"/><text fill="#000000" font-family="sans-serif" font-size="14" font-weight="bold" lengthAdjust="spacing" textLength="125" x="10" y="111.9951">gen.lib.common</text></g><!--MD5=[274ad5661286b626a93603d287cbf95a]
class java.lang.Object--><g id="elem_java.lang.Object"><rect fill="#F1F1F1" height="48" id="java.lang.Object" rx="2.5" ry="2.5" style="stroke:#181818;stroke-width:0.5;" width="77" x="172.5" y="33"/><ellipse cx="187.5" cy="49" fill="#ADD1B2" rx="11" ry="11" style="stroke:#181818;stroke-width:1.0;"/><path d="M190.4688,54.6406 Q189.8906,54.9375 189.25,55.0781 Q188.6094,55.2344 187.9063,55.2344 Q185.4063,55.2344 184.0781,53.5938 Q182.7656,51.9375 182.7656,48.8125 Q182.7656,45.6875 184.0781,44.0313 Q185.4063,42.375 187.9063,42.375 Q188.6094,42.375 189.25,42.5313 Q189.9063,42.6875 190.4688,42.9844 L190.4688,45.7031 Q189.8438,45.125 189.25,44.8594 Q188.6563,44.5781 188.0313,44.5781 Q186.6875,44.5781 186,45.6563 Q185.3125,46.7188 185.3125,48.8125 Q185.3125,50.9063 186,51.9844 Q186.6875,53.0469 188.0313,53.0469 Q188.6563,53.0469 189.25,52.7813 Q189.8438,52.5 190.4688,51.9219 L190.4688,54.6406 Z " fill="#000000"/><text fill="#000000" font-family="sans-serif" font-size="14" lengthAdjust="spacing" textLength="45" x="201.5" y="53.8467">Object</text><line style="stroke:#181818;stroke-width:0.5;" x1="173.5" x2="248.5" y1="65" y2="65"/><line style="stroke:#181818;stroke-width:0.5;" x1="173.5" x2="248.5" y1="73" y2="73"/></g><!--MD5=[ceeea563d58df537836535fcf44f8537]
class gen.lib.common.geom__c--><g id="elem_gen.lib.common.geom__c"><rect codeLine="3" fill="#F1F1F1" height="178.375" id="gen.lib.common.geom__c" rx="2.5" ry="2.5" style="stroke:#181818;stroke-width:0.5;" width="393" x="14.5" y="124"/><ellipse cx="175.75" cy="140" fill="#ADD1B2" rx="11" ry="11" style="stroke:#181818;stroke-width:1.0;"/><path d="M178.7188,145.6406 Q178.1406,145.9375 177.5,146.0781 Q176.8594,146.2344 176.1563,146.2344 Q173.6563,146.2344 172.3281,144.5938 Q171.0156,142.9375 171.0156,139.8125 Q171.0156,136.6875 172.3281,135.0313 Q173.6563,133.375 176.1563,133.375 Q176.8594,133.375 177.5,133.5313 Q178.1563,133.6875 178.7188,133.9844 L178.7188,136.7031 Q178.0938,136.125 177.5,135.8594 Q176.9063,135.5781 176.2813,135.5781 Q174.9375,135.5781 174.25,136.6563 Q173.5625,137.7188 173.5625,139.8125 Q173.5625,141.9063 174.25,142.9844 Q174.9375,144.0469 176.2813,144.0469 Q176.9063,144.0469 177.5,143.7813 Q178.0938,143.5 178.7188,142.9219 L178.7188,145.6406 Z " fill="#000000"/><text fill="#000000" font-family="sans-serif" font-size="14" lengthAdjust="spacing" textLength="62" x="196.25" y="144.8467">geom__c</text><line style="stroke:#181818;stroke-width:0.5;" x1="15.5" x2="406.5" y1="156" y2="156"/><line style="stroke:#181818;stroke-width:0.5;" x1="15.5" x2="406.5" y1="164" y2="164"/><a href="./../../../../.././qc/src/gen/lib/common/geom__c.java.html#64" target="_top" title="./../../../../.././qc/src/gen/lib/common/geom__c.java.html#64" xlink:actuate="onRequest" xlink:href="./../../../../.././qc/src/gen/lib/common/geom__c.java.html#64" xlink:show="new" xlink:title="./../../../../.././qc/src/gen/lib/common/geom__c.java.html#64" xlink:type="simple"><rect fill="#F1F1F1" height="10" style="stroke:none;stroke-width:1.0;" width="20" x="20.5" y="172.6484"/><ellipse cx="25.5" cy="177.6484" fill="#84BE84" rx="3" ry="3" style="stroke:#038048;stroke-width:1.0;"/></a><a href="./../../../../.././qc/src/gen/lib/common/geom__c.java.html#64" target="_top" title="./../../../../.././qc/src/gen/lib/common/geom__c.java.html#64" xlink:actuate="onRequest" xlink:href="./../../../../.././qc/src/gen/lib/common/geom__c.java.html#64" xlink:show="new" xlink:title="./../../../../.././qc/src/gen/lib/common/geom__c.java.html#64" xlink:type="simple"><text fill="#000000" font-family="sans-serif" font-size="14" lengthAdjust="spacing" textLength="227" x="34.5" y="180.9951">rotatepf(ST_pointf;int) : ST_pointf</text></a><a href="./../../../../.././qc/src/gen/lib/common/geom__c.java.html#68" target="_top" title="./../../../../.././qc/src/gen/lib/common/geom__c.java.html#68" xlink:actuate="onRequest" xlink:href="./../../../../.././qc/src/gen/lib/common/geom__c.java.html#68" xlink:show="new" xlink:title="./../../../../.././qc/src/gen/lib/common/geom__c.java.html#68" xlink:type="simple"><rect fill="#F1F1F1" height="10" style="stroke:none;stroke-width:1.0;" width="20" x="20.5" y="188.9453"/><rect fill="#F24D5C" height="6" style="stroke:#C82930;stroke-width:1.0;" width="6" x="22.5" y="190.9453"/></a><a href="./../../../../.././qc/src/gen/lib/common/geom__c.java.html#68" target="_top" title="./../../../../.././qc/src/gen/lib/common/geom__c.java.html#68" xlink:actuate="onRequest" xlink:href="./../../../../.././qc/src/gen/lib/common/geom__c.java.html#68" xlink:show="new" xlink:title="./../../../../.././qc/src/gen/lib/common/geom__c.java.html#68" xlink:type="simple"><text fill="#000000" font-family="sans-serif" font-size="14" lengthAdjust="spacing" textLength="252" x="34.5" y="197.292">rotatepf_w_(ST_pointf;int) : ST_pointf</text></a><a href="./../../../../.././qc/src/gen/lib/common/geom__c.java.html#98" target="_top" title="./../../../../.././qc/src/gen/lib/common/geom__c.java.html#98" xlink:actuate="onRequest" xlink:href="./../../../../.././qc/src/gen/lib/common/geom__c.java.html#98" xlink:show="new" xlink:title="./../../../../.././qc/src/gen/lib/common/geom__c.java.html#98" xlink:type="simple"><rect fill="#F1F1F1" height="10" style="stroke:none;stroke-width:1.0;" width="20" x="20.5" y="205.2422"/><ellipse cx="25.5" cy="210.2422" fill="#84BE84" rx="3" ry="3" style="stroke:#038048;stroke-width:1.0;"/></a><a href="./../../../../.././qc/src/gen/lib/common/geom__c.java.html#98" target="_top" title="./../../../../.././qc/src/gen/lib/common/geom__c.java.html#98" xlink:actuate="onRequest" xlink:href="./../../../../.././qc/src/gen/lib/common/geom__c.java.html#98" xlink:show="new" xlink:title="./../../../../.././qc/src/gen/lib/common/geom__c.java.html#98" xlink:type="simple"><text fill="#000000" font-family="sans-serif" font-size="14" lengthAdjust="spacing" textLength="246" x="34.5" y="213.5889">cwrotatepf(ST_pointf;int) : ST_pointf</text></a><a href="./../../../../.././qc/src/gen/lib/common/geom__c.java.html#102" target="_top" title="./../../../../.././qc/src/gen/lib/common/geom__c.java.html#102" xlink:actuate="onRequest" xlink:href="./../../../../.././qc/src/gen/lib/common/geom__c.java.html#102" xlink:show="new" xlink:title="./../../../../.././qc/src/gen/lib/common/geom__c.java.html#102" xlink:type="simple"><rect fill="#F1F1F1" height="10" style="stroke:none;stroke-width:1.0;" width="20" x="20.5" y="221.5391"/><rect fill="#F24D5C" height="6" style="stroke:#C82930;stroke-width:1.0;" width="6" x="22.5" y="223.5391"/></a><a href="./../../../../.././qc/src/gen/lib/common/geom__c.java.html#102" target="_top" title="./../../../../.././qc/src/gen/lib/common/geom__c.java.html#102" xlink:actuate="onRequest" xlink:href="./../../../../.././qc/src/gen/lib/common/geom__c.java.html#102" xlink:show="new" xlink:title="./../../../../.././qc/src/gen/lib/common/geom__c.java.html#102" xlink:type="simple"><text fill="#000000" font-family="sans-serif" font-size="14" lengthAdjust="spacing" textLength="271" x="34.5" y="229.8857">cwrotatepf_w_(ST_pointf;int) : ST_pointf</text></a><a href="./../../../../.././qc/src/gen/lib/common/geom__c.java.html#143" target="_top" title="./../../../../.././qc/src/gen/lib/common/geom__c.java.html#143" xlink:actuate="onRequest" xlink:href="./../../../../.././qc/src/gen/lib/common/geom__c.java.html#143" xlink:show="new" xlink:title="./../../../../.././qc/src/gen/lib/common/geom__c.java.html#143" xlink:type="simple"><rect fill="#F1F1F1" height="10" style="stroke:none;stroke-width:1.0;" width="20" x="20.5" y="237.8359"/><ellipse cx="25.5" cy="242.8359" fill="#84BE84" rx="3" ry="3" style="stroke:#038048;stroke-width:1.0;"/></a><a href="./../../../../.././qc/src/gen/lib/common/geom__c.java.html#143" target="_top" title="./../../../../.././qc/src/gen/lib/common/geom__c.java.html#143" xlink:actuate="onRequest" xlink:href="./../../../../.././qc/src/gen/lib/common/geom__c.java.html#143" xlink:show="new" xlink:title="./../../../../.././qc/src/gen/lib/common/geom__c.java.html#143" xlink:type="simple"><text fill="#000000" font-family="sans-serif" font-size="14" lengthAdjust="spacing" textLength="254" x="34.5" y="246.1826">ccwrotatepf(ST_pointf;int) : ST_pointf</text></a><a href="./../../../../.././qc/src/gen/lib/common/geom__c.java.html#147" target="_top" title="./../../../../.././qc/src/gen/lib/common/geom__c.java.html#147" xlink:actuate="onRequest" xlink:href="./../../../../.././qc/src/gen/lib/common/geom__c.java.html#147" xlink:show="new" xlink:title="./../../../../.././qc/src/gen/lib/common/geom__c.java.html#147" xlink:type="simple"><rect fill="#F1F1F1" height="10" style="stroke:none;stroke-width:1.0;" width="20" x="20.5" y="254.1328"/><rect fill="#F24D5C" height="6" style="stroke:#C82930;stroke-width:1.0;" width="6" x="22.5" y="256.1328"/></a><a href="./../../../../.././qc/src/gen/lib/common/geom__c.java.html#147" target="_top" title="./../../../../.././qc/src/gen/lib/common/geom__c.java.html#147" xlink:actuate="onRequest" xlink:href="./../../../../.././qc/src/gen/lib/common/geom__c.java.html#147" xlink:show="new" xlink:title="./../../../../.././qc/src/gen/lib/common/geom__c.java.html#147" xlink:type="simple"><text fill="#000000" font-family="sans-serif" font-size="14" lengthAdjust="spacing" textLength="279" x="34.5" y="262.4795">ccwrotatepf_w_(ST_pointf;int) : ST_pointf</text></a><a href="./../../../../.././qc/src/gen/lib/common/geom__c.java.html#187" target="_top" title="./../../../../.././qc/src/gen/lib/common/geom__c.java.html#187" xlink:actuate="onRequest" xlink:href="./../../../../.././qc/src/gen/lib/common/geom__c.java.html#187" xlink:show="new" xlink:title="./../../../../.././qc/src/gen/lib/common/geom__c.java.html#187" xlink:type="simple"><rect fill="#F1F1F1" height="10" style="stroke:none;stroke-width:1.0;" width="20" x="20.5" y="270.4297"/><ellipse cx="25.5" cy="275.4297" fill="#84BE84" rx="3" ry="3" style="stroke:#038048;stroke-width:1.0;"/></a><a href="./../../../../.././qc/src/gen/lib/common/geom__c.java.html#187" target="_top" title="./../../../../.././qc/src/gen/lib/common/geom__c.java.html#187" xlink:actuate="onRequest" xlink:href="./../../../../.././qc/src/gen/lib/common/geom__c.java.html#187" xlink:show="new" xlink:title="./../../../../.././qc/src/gen/lib/common/geom__c.java.html#187" xlink:type="simple"><text fill="#000000" font-family="sans-serif" font-size="14" lengthAdjust="spacing" textLength="342" x="34.5" y="278.7764">ptToLine2(ST_pointf;ST_pointf;ST_pointf) : double</text></a><a href="./../../../../.././qc/src/gen/lib/common/geom__c.java.html#191" target="_top" title="./../../../../.././qc/src/gen/lib/common/geom__c.java.html#191" xlink:actuate="onRequest" xlink:href="./../../../../.././qc/src/gen/lib/common/geom__c.java.html#191" xlink:show="new" xlink:title="./../../../../.././qc/src/gen/lib/common/geom__c.java.html#191" xlink:type="simple"><rect fill="#F1F1F1" height="10" style="stroke:none;stroke-width:1.0;" width="20" x="20.5" y="286.7266"/><rect fill="#F24D5C" height="6" style="stroke:#C82930;stroke-width:1.0;" width="6" x="22.5" y="288.7266"/></a><a href="./../../../../.././qc/src/gen/lib/common/geom__c.java.html#191" target="_top" title="./../../../../.././qc/src/gen/lib/common/geom__c.java.html#191" xlink:actuate="onRequest" xlink:href="./../../../../.././qc/src/gen/lib/common/geom__c.java.html#191" xlink:show="new" xlink:title="./../../../../.././qc/src/gen/lib/common/geom__c.java.html#191" xlink:type="simple"><text fill="#000000" font-family="sans-serif" font-size="14" lengthAdjust="spacing" textLength="367" x="34.5" y="295.0732">ptToLine2_w_(ST_pointf;ST_pointf;ST_pointf) : double</text></a></g><path d="M211,81.0554 C211,92.8025 211,107.9158 211,123.6763 " fill="none" style="stroke:#181818;stroke-width:1.0;"/><polygon fill="#FFFFFF" points="211,81.0554,205,97.0554,217,97.0554,211,81.0554" style="stroke:#181818;stroke-width:1.0;"/><!--MD5=[7158c6a2b3058046702608d60e66b6f5]
@startuml
!pragma layout smetana
"java.lang.Object" <|- - "gen.lib.common.geom__c"
class gen.lib.common.geom__c {
+rotatepf(ST_pointf;int) : ST_pointf [[[./../../../../.././qc/src/gen/lib/common/geom__c.java.html#64]]]
-rotatepf_w_(ST_pointf;int) : ST_pointf [[[./../../../../.././qc/src/gen/lib/common/geom__c.java.html#68]]]
+cwrotatepf(ST_pointf;int) : ST_pointf [[[./../../../../.././qc/src/gen/lib/common/geom__c.java.html#98]]]
-cwrotatepf_w_(ST_pointf;int) : ST_pointf [[[./../../../../.././qc/src/gen/lib/common/geom__c.java.html#102]]]
+ccwrotatepf(ST_pointf;int) : ST_pointf [[[./../../../../.././qc/src/gen/lib/common/geom__c.java.html#143]]]
-ccwrotatepf_w_(ST_pointf;int) : ST_pointf [[[./../../../../.././qc/src/gen/lib/common/geom__c.java.html#147]]]
+ptToLine2(ST_pointf;ST_pointf;ST_pointf) : double [[[./../../../../.././qc/src/gen/lib/common/geom__c.java.html#187]]]
-ptToLine2_w_(ST_pointf;ST_pointf;ST_pointf) : double [[[./../../../../.././qc/src/gen/lib/common/geom__c.java.html#191]]]
} 
@enduml

PlantUML version 1.2022.7(Mon Aug 22 17:01:30 UTC 2022)
(GPL source distribution)
Java Runtime: OpenJDK Runtime Environment
JVM: OpenJDK 64-Bit Server VM
Default Encoding: UTF-8
Language: en
Country: null
--></g></svg>