<?xml version="1.0" encoding="UTF-8" standalone="no"?><svg xmlns="http://www.w3.org/2000/svg" xmlns:xlink="http://www.w3.org/1999/xlink" contentStyleType="text/css" height="268px" preserveAspectRatio="none" style="width:569px;height:268px;background:#FFFFFF;" version="1.1" viewBox="0 0 569 268" width="569px" zoomAndPan="magnify"><defs/><g><!--MD5=[aa8f7b917213fcc1c2766e2d59b49067]
cluster java.lang--><g id="cluster_java.lang"><path d="M239.5,6 L309.5,6 A3.75,3.75 0 0 1 312,8.5 L319,28.2969 L328.5,28.2969 A2.5,2.5 0 0 1 331,30.7969 L331,86.5 A2.5,2.5 0 0 1 328.5,89 L239.5,89 A2.5,2.5 0 0 1 237,86.5 L237,8.5 A2.5,2.5 0 0 1 239.5,6 " fill="none" style="stroke:#000000;stroke-width:1.5;"/><line style="stroke:#000000;stroke-width:1.5;" x1="237" x2="319" y1="28.2969" y2="28.2969"/><text fill="#000000" font-family="sans-serif" font-size="14" font-weight="bold" lengthAdjust="spacing" textLength="69" x="241" y="20.9951">java.lang</text></g><!--MD5=[8f2c5435d1f3d30cfbd03645d875cfdb]
cluster gen.lib.common--><g id="cluster_gen.lib.common"><path d="M8.5,97 L134.5,97 A3.75,3.75 0 0 1 137,99.5 L144,119.2969 L559.5,119.2969 A2.5,2.5 0 0 1 562,121.7969 L562,258.5 A2.5,2.5 0 0 1 559.5,261 L8.5,261 A2.5,2.5 0 0 1 6,258.5 L6,99.5 A2.5,2.5 0 0 1 8.5,97 " fill="none" style="stroke:#000000;stroke-width:1.5;"/><line style="stroke:#000000;stroke-width:1.5;" x1="6" x2="144" y1="119.2969" y2="119.2969"/><text fill="#000000" font-family="sans-serif" font-size="14" font-weight="bold" lengthAdjust="spacing" textLength="125" x="10" y="111.9951">gen.lib.common</text></g><!--MD5=[274ad5661286b626a93603d287cbf95a]
class java.lang.Object--><g id="elem_java.lang.Object"><rect fill="#F1F1F1" height="48" id="java.lang.Object" rx="2.5" ry="2.5" style="stroke:#181818;stroke-width:0.5;" width="77" x="245.5" y="33"/><ellipse cx="260.5" cy="49" fill="#ADD1B2" rx="11" ry="11" style="stroke:#181818;stroke-width:1.0;"/><path d="M263.4688,54.6406 Q262.8906,54.9375 262.25,55.0781 Q261.6094,55.2344 260.9063,55.2344 Q258.4063,55.2344 257.0781,53.5938 Q255.7656,51.9375 255.7656,48.8125 Q255.7656,45.6875 257.0781,44.0313 Q258.4063,42.375 260.9063,42.375 Q261.6094,42.375 262.25,42.5313 Q262.9063,42.6875 263.4688,42.9844 L263.4688,45.7031 Q262.8438,45.125 262.25,44.8594 Q261.6563,44.5781 261.0313,44.5781 Q259.6875,44.5781 259,45.6563 Q258.3125,46.7188 258.3125,48.8125 Q258.3125,50.9063 259,51.9844 Q259.6875,53.0469 261.0313,53.0469 Q261.6563,53.0469 262.25,52.7813 Q262.8438,52.5 263.4688,51.9219 L263.4688,54.6406 Z " fill="#000000"/><text fill="#000000" font-family="sans-serif" font-size="14" lengthAdjust="spacing" textLength="45" x="274.5" y="53.8467">Object</text><line style="stroke:#181818;stroke-width:0.5;" x1="246.5" x2="321.5" y1="65" y2="65"/><line style="stroke:#181818;stroke-width:0.5;" x1="246.5" x2="321.5" y1="73" y2="73"/></g><!--MD5=[54a5c454b2d40692463215c518bbf066]
class gen.lib.common.labels__c--><g id="elem_gen.lib.common.labels__c"><rect codeLine="3" fill="#F1F1F1" height="129.4844" id="gen.lib.common.labels__c" rx="2.5" ry="2.5" style="stroke:#181818;stroke-width:0.5;" width="540" x="14" y="124"/><ellipse cx="248.75" cy="140" fill="#ADD1B2" rx="11" ry="11" style="stroke:#181818;stroke-width:1.0;"/><path d="M251.7188,145.6406 Q251.1406,145.9375 250.5,146.0781 Q249.8594,146.2344 249.1563,146.2344 Q246.6563,146.2344 245.3281,144.5938 Q244.0156,142.9375 244.0156,139.8125 Q244.0156,136.6875 245.3281,135.0313 Q246.6563,133.375 249.1563,133.375 Q249.8594,133.375 250.5,133.5313 Q251.1563,133.6875 251.7188,133.9844 L251.7188,136.7031 Q251.0938,136.125 250.5,135.8594 Q249.9063,135.5781 249.2813,135.5781 Q247.9375,135.5781 247.25,136.6563 Q246.5625,137.7188 246.5625,139.8125 Q246.5625,141.9063 247.25,142.9844 Q247.9375,144.0469 249.2813,144.0469 Q249.9063,144.0469 250.5,143.7813 Q251.0938,143.5 251.7188,142.9219 L251.7188,145.6406 Z " fill="#000000"/><text fill="#000000" font-family="sans-serif" font-size="14" lengthAdjust="spacing" textLength="62" x="269.25" y="144.8467">labels__c</text><line style="stroke:#181818;stroke-width:0.5;" x1="15" x2="553" y1="156" y2="156"/><line style="stroke:#181818;stroke-width:0.5;" x1="15" x2="553" y1="164" y2="164"/><a href="./../../../../.././qc/src/gen/lib/common/labels__c.java.html#107" target="_top" title="./../../../../.././qc/src/gen/lib/common/labels__c.java.html#107" xlink:actuate="onRequest" xlink:href="./../../../../.././qc/src/gen/lib/common/labels__c.java.html#107" xlink:show="new" xlink:title="./../../../../.././qc/src/gen/lib/common/labels__c.java.html#107" xlink:type="simple"><rect fill="#F1F1F1" height="10" style="stroke:none;stroke-width:1.0;" width="20" x="20" y="172.6484"/><ellipse cx="25" cy="177.6484" fill="#84BE84" rx="3" ry="3" style="stroke:#038048;stroke-width:1.0;"/></a><a href="./../../../../.././qc/src/gen/lib/common/labels__c.java.html#107" target="_top" title="./../../../../.././qc/src/gen/lib/common/labels__c.java.html#107" xlink:actuate="onRequest" xlink:href="./../../../../.././qc/src/gen/lib/common/labels__c.java.html#107" xlink:show="new" xlink:title="./../../../../.././qc/src/gen/lib/common/labels__c.java.html#107" xlink:type="simple"><text fill="#000000" font-family="sans-serif" font-size="14" lengthAdjust="spacing" textLength="371" x="34" y="180.9951">storeline(ST_GVC_s;ST_textlabel_t;CString;char) : void</text></a><a href="./../../../../.././qc/src/gen/lib/common/labels__c.java.html#145" target="_top" title="./../../../../.././qc/src/gen/lib/common/labels__c.java.html#145" xlink:actuate="onRequest" xlink:href="./../../../../.././qc/src/gen/lib/common/labels__c.java.html#145" xlink:show="new" xlink:title="./../../../../.././qc/src/gen/lib/common/labels__c.java.html#145" xlink:type="simple"><rect fill="#F1F1F1" height="10" style="stroke:none;stroke-width:1.0;" width="20" x="20" y="188.9453"/><ellipse cx="25" cy="193.9453" fill="#84BE84" rx="3" ry="3" style="stroke:#038048;stroke-width:1.0;"/></a><a href="./../../../../.././qc/src/gen/lib/common/labels__c.java.html#145" target="_top" title="./../../../../.././qc/src/gen/lib/common/labels__c.java.html#145" xlink:actuate="onRequest" xlink:href="./../../../../.././qc/src/gen/lib/common/labels__c.java.html#145" xlink:show="new" xlink:title="./../../../../.././qc/src/gen/lib/common/labels__c.java.html#145" xlink:type="simple"><text fill="#000000" font-family="sans-serif" font-size="14" lengthAdjust="spacing" textLength="350" x="34" y="197.292">make_simple_label(ST_GVC_s;ST_textlabel_t) : void</text></a><a href="./../../../../.././qc/src/gen/lib/common/labels__c.java.html#222" target="_top" title="./../../../../.././qc/src/gen/lib/common/labels__c.java.html#222" xlink:actuate="onRequest" xlink:href="./../../../../.././qc/src/gen/lib/common/labels__c.java.html#222" xlink:show="new" xlink:title="./../../../../.././qc/src/gen/lib/common/labels__c.java.html#222" xlink:type="simple"><rect fill="#F1F1F1" height="10" style="stroke:none;stroke-width:1.0;" width="20" x="20" y="205.2422"/><ellipse cx="25" cy="210.2422" fill="#84BE84" rx="3" ry="3" style="stroke:#038048;stroke-width:1.0;"/></a><a href="./../../../../.././qc/src/gen/lib/common/labels__c.java.html#222" target="_top" title="./../../../../.././qc/src/gen/lib/common/labels__c.java.html#222" xlink:actuate="onRequest" xlink:href="./../../../../.././qc/src/gen/lib/common/labels__c.java.html#222" xlink:show="new" xlink:title="./../../../../.././qc/src/gen/lib/common/labels__c.java.html#222" xlink:type="simple"><text fill="#000000" font-family="sans-serif" font-size="14" lengthAdjust="spacing" textLength="514" x="34" y="213.5889">make_label(ST_Agobj_s;CString;int;double;CString;CString) : ST_textlabel_t</text></a><a href="./../../../../.././qc/src/gen/lib/common/labels__c.java.html#310" target="_top" title="./../../../../.././qc/src/gen/lib/common/labels__c.java.html#310" xlink:actuate="onRequest" xlink:href="./../../../../.././qc/src/gen/lib/common/labels__c.java.html#310" xlink:show="new" xlink:title="./../../../../.././qc/src/gen/lib/common/labels__c.java.html#310" xlink:type="simple"><rect fill="#F1F1F1" height="10" style="stroke:none;stroke-width:1.0;" width="20" x="20" y="221.5391"/><ellipse cx="25" cy="226.5391" fill="#84BE84" rx="3" ry="3" style="stroke:#038048;stroke-width:1.0;"/></a><a href="./../../../../.././qc/src/gen/lib/common/labels__c.java.html#310" target="_top" title="./../../../../.././qc/src/gen/lib/common/labels__c.java.html#310" xlink:actuate="onRequest" xlink:href="./../../../../.././qc/src/gen/lib/common/labels__c.java.html#310" xlink:show="new" xlink:title="./../../../../.././qc/src/gen/lib/common/labels__c.java.html#310" xlink:type="simple"><text fill="#000000" font-family="sans-serif" font-size="14" lengthAdjust="spacing" textLength="390" x="34" y="229.8857">strdup_and_subst_obj0(CString;ST_Agobj_s;int) : CString</text></a><a href="./../../../../.././qc/src/gen/lib/common/labels__c.java.html#501" target="_top" title="./../../../../.././qc/src/gen/lib/common/labels__c.java.html#501" xlink:actuate="onRequest" xlink:href="./../../../../.././qc/src/gen/lib/common/labels__c.java.html#501" xlink:show="new" xlink:title="./../../../../.././qc/src/gen/lib/common/labels__c.java.html#501" xlink:type="simple"><rect fill="#F1F1F1" height="10" style="stroke:none;stroke-width:1.0;" width="20" x="20" y="237.8359"/><ellipse cx="25" cy="242.8359" fill="#84BE84" rx="3" ry="3" style="stroke:#038048;stroke-width:1.0;"/></a><a href="./../../../../.././qc/src/gen/lib/common/labels__c.java.html#501" target="_top" title="./../../../../.././qc/src/gen/lib/common/labels__c.java.html#501" xlink:actuate="onRequest" xlink:href="./../../../../.././qc/src/gen/lib/common/labels__c.java.html#501" xlink:show="new" xlink:title="./../../../../.././qc/src/gen/lib/common/labels__c.java.html#501" xlink:type="simple"><text fill="#000000" font-family="sans-serif" font-size="14" lengthAdjust="spacing" textLength="327" x="34" y="246.1826">strdup_and_subst_obj(CString;__ptr__) : CString</text></a></g><path d="M284,81.152 C284,93.2288 284,108.6536 284,123.9859 " fill="none" style="stroke:#181818;stroke-width:1.0;"/><polygon fill="#FFFFFF" points="284,81.152,278,97.152,290,97.152,284,81.152" style="stroke:#181818;stroke-width:1.0;"/><!--MD5=[80733acddc8f1810da089edb61a8249b]
@startuml
!pragma layout smetana
"java.lang.Object" <|- - "gen.lib.common.labels__c"
class gen.lib.common.labels__c {
+storeline(ST_GVC_s;ST_textlabel_t;CString;char) : void [[[./../../../../.././qc/src/gen/lib/common/labels__c.java.html#107]]]
+make_simple_label(ST_GVC_s;ST_textlabel_t) : void [[[./../../../../.././qc/src/gen/lib/common/labels__c.java.html#145]]]
+make_label(ST_Agobj_s;CString;int;double;CString;CString) : ST_textlabel_t [[[./../../../../.././qc/src/gen/lib/common/labels__c.java.html#222]]]
+strdup_and_subst_obj0(CString;ST_Agobj_s;int) : CString [[[./../../../../.././qc/src/gen/lib/common/labels__c.java.html#310]]]
+strdup_and_subst_obj(CString;__ptr__) : CString [[[./../../../../.././qc/src/gen/lib/common/labels__c.java.html#501]]]
} 
@enduml

PlantUML version 1.2022.7(Mon Aug 22 17:01:30 UTC 2022)
(GPL source distribution)
Java Runtime: OpenJDK Runtime Environment
JVM: OpenJDK 64-Bit Server VM
Default Encoding: UTF-8
Language: en
Country: null
--></g></svg>