<?xml version="1.0" encoding="UTF-8" standalone="no"?><svg xmlns="http://www.w3.org/2000/svg" xmlns:xlink="http://www.w3.org/1999/xlink" contentStyleType="text/css" height="186px" preserveAspectRatio="none" style="width:571px;height:186px;background:#FFFFFF;" version="1.1" viewBox="0 0 571 186" width="571px" zoomAndPan="magnify"><defs/><g><!--MD5=[851f3060a92564a2cb37be18558af1cb]
cluster net.sourceforge.plantuml.ugraphic.html5--><g id="cluster_net.sourceforge.plantuml.ugraphic.html5"><path d="M8.5,63 L333.5,63 A3.75,3.75 0 0 1 336,65.5 L343,85.2969 L561.5,85.2969 A2.5,2.5 0 0 1 564,87.7969 L564,176.5 A2.5,2.5 0 0 1 561.5,179 L8.5,179 A2.5,2.5 0 0 1 6,176.5 L6,65.5 A2.5,2.5 0 0 1 8.5,63 " fill="none" style="stroke:#000000;stroke-width:1.5;"/><line style="stroke:#000000;stroke-width:1.5;" x1="6" x2="343" y1="85.2969" y2="85.2969"/><text fill="#000000" font-family="sans-serif" font-size="14" font-weight="bold" lengthAdjust="spacing" textLength="324" x="10" y="77.9951">net.sourceforge.plantuml.ugraphic.html5</text></g><!--MD5=[4f0a5ef6a7bd407287b8757da4cfbc7b]
class UDriver<URectangle,Html5Drawer>--><g id="elem_UDriver&lt;URectangle,Html5Drawer&gt;"><rect fill="#F1F1F1" height="48" id="UDriver&lt;URectangle,Html5Drawer&gt;" rx="2.5" ry="2.5" style="stroke:#181818;stroke-width:0.5;" width="279" x="145.5" y="6"/><ellipse cx="160.5" cy="22" fill="#ADD1B2" rx="11" ry="11" style="stroke:#181818;stroke-width:1.0;"/><path d="M163.4688,27.6406 Q162.8906,27.9375 162.25,28.0781 Q161.6094,28.2344 160.9063,28.2344 Q158.4063,28.2344 157.0781,26.5938 Q155.7656,24.9375 155.7656,21.8125 Q155.7656,18.6875 157.0781,17.0313 Q158.4063,15.375 160.9063,15.375 Q161.6094,15.375 162.25,15.5313 Q162.9063,15.6875 163.4688,15.9844 L163.4688,18.7031 Q162.8438,18.125 162.25,17.8594 Q161.6563,17.5781 161.0313,17.5781 Q159.6875,17.5781 159,18.6563 Q158.3125,19.7188 158.3125,21.8125 Q158.3125,23.9063 159,24.9844 Q159.6875,26.0469 161.0313,26.0469 Q161.6563,26.0469 162.25,25.7813 Q162.8438,25.5 163.4688,24.9219 L163.4688,27.6406 Z " fill="#000000"/><text fill="#000000" font-family="sans-serif" font-size="14" lengthAdjust="spacing" textLength="247" x="174.5" y="26.8467">UDriver&lt;URectangle,Html5Drawer&gt;</text><line style="stroke:#181818;stroke-width:0.5;" x1="146.5" x2="423.5" y1="38" y2="38"/><line style="stroke:#181818;stroke-width:0.5;" x1="146.5" x2="423.5" y1="46" y2="46"/></g><!--MD5=[c6d2727a4f1132262f178471bfe32e4a]
class net.sourceforge.plantuml.ugraphic.html5.DriverRectangleHtml5--><g id="elem_net.sourceforge.plantuml.ugraphic.html5.DriverRectangleHtml5"><rect codeLine="3" fill="#F1F1F1" height="80.5938" id="net.sourceforge.plantuml.ugraphic.html5.DriverRectangleHtml5" rx="2.5" ry="2.5" style="stroke:#181818;stroke-width:0.5;" width="541" x="14.5" y="90"/><ellipse cx="205.75" cy="106" fill="#ADD1B2" rx="11" ry="11" style="stroke:#181818;stroke-width:1.0;"/><path d="M208.7188,111.6406 Q208.1406,111.9375 207.5,112.0781 Q206.8594,112.2344 206.1563,112.2344 Q203.6563,112.2344 202.3281,110.5938 Q201.0156,108.9375 201.0156,105.8125 Q201.0156,102.6875 202.3281,101.0313 Q203.6563,99.375 206.1563,99.375 Q206.8594,99.375 207.5,99.5313 Q208.1563,99.6875 208.7188,99.9844 L208.7188,102.7031 Q208.0938,102.125 207.5,101.8594 Q206.9063,101.5781 206.2813,101.5781 Q204.9375,101.5781 204.25,102.6563 Q203.5625,103.7188 203.5625,105.8125 Q203.5625,107.9063 204.25,108.9844 Q204.9375,110.0469 206.2813,110.0469 Q206.9063,110.0469 207.5,109.7813 Q208.0938,109.5 208.7188,108.9219 L208.7188,111.6406 Z " fill="#000000"/><text fill="#000000" font-family="sans-serif" font-size="14" lengthAdjust="spacing" textLength="150" x="226.25" y="110.8467">DriverRectangleHtml5</text><line style="stroke:#181818;stroke-width:0.5;" x1="15.5" x2="554.5" y1="122" y2="122"/><line style="stroke:#181818;stroke-width:0.5;" x1="15.5" x2="554.5" y1="130" y2="130"/><a href="./../../../../../../.././qc/src/net/sourceforge/plantuml/ugraphic/html5/DriverRectangleHtml5.java.html#52" target="_top" title="./../../../../../../.././qc/src/net/sourceforge/plantuml/ugraphic/html5/DriverRectangleHtml5.java.html#52" xlink:actuate="onRequest" xlink:href="./../../../../../../.././qc/src/net/sourceforge/plantuml/ugraphic/html5/DriverRectangleHtml5.java.html#52" xlink:show="new" xlink:title="./../../../../../../.././qc/src/net/sourceforge/plantuml/ugraphic/html5/DriverRectangleHtml5.java.html#52" xlink:type="simple"><rect fill="#F1F1F1" height="10" style="stroke:none;stroke-width:1.0;" width="20" x="20.5" y="138.6484"/><ellipse cx="25.5" cy="143.6484" fill="#84BE84" rx="3" ry="3" style="stroke:#038048;stroke-width:1.0;"/></a><a href="./../../../../../../.././qc/src/net/sourceforge/plantuml/ugraphic/html5/DriverRectangleHtml5.java.html#52" target="_top" title="./../../../../../../.././qc/src/net/sourceforge/plantuml/ugraphic/html5/DriverRectangleHtml5.java.html#52" xlink:actuate="onRequest" xlink:href="./../../../../../../.././qc/src/net/sourceforge/plantuml/ugraphic/html5/DriverRectangleHtml5.java.html#52" xlink:show="new" xlink:title="./../../../../../../.././qc/src/net/sourceforge/plantuml/ugraphic/html5/DriverRectangleHtml5.java.html#52" xlink:type="simple"><text fill="#000000" font-family="sans-serif" font-size="14" lengthAdjust="spacing" textLength="415" x="34.5" y="146.9951">DriverRectangleHtml5(ClipContainer) : DriverRectangleHtml5</text></a><a href="./../../../../../../.././qc/src/net/sourceforge/plantuml/ugraphic/html5/DriverRectangleHtml5.java.html#56" target="_top" title="./../../../../../../.././qc/src/net/sourceforge/plantuml/ugraphic/html5/DriverRectangleHtml5.java.html#56" xlink:actuate="onRequest" xlink:href="./../../../../../../.././qc/src/net/sourceforge/plantuml/ugraphic/html5/DriverRectangleHtml5.java.html#56" xlink:show="new" xlink:title="./../../../../../../.././qc/src/net/sourceforge/plantuml/ugraphic/html5/DriverRectangleHtml5.java.html#56" xlink:type="simple"><rect fill="#F1F1F1" height="10" style="stroke:none;stroke-width:1.0;" width="20" x="20.5" y="154.9453"/><ellipse cx="25.5" cy="159.9453" fill="#84BE84" rx="3" ry="3" style="stroke:#038048;stroke-width:1.0;"/></a><a href="./../../../../../../.././qc/src/net/sourceforge/plantuml/ugraphic/html5/DriverRectangleHtml5.java.html#56" target="_top" title="./../../../../../../.././qc/src/net/sourceforge/plantuml/ugraphic/html5/DriverRectangleHtml5.java.html#56" xlink:actuate="onRequest" xlink:href="./../../../../../../.././qc/src/net/sourceforge/plantuml/ugraphic/html5/DriverRectangleHtml5.java.html#56" xlink:show="new" xlink:title="./../../../../../../.././qc/src/net/sourceforge/plantuml/ugraphic/html5/DriverRectangleHtml5.java.html#56" xlink:type="simple"><text fill="#000000" font-family="sans-serif" font-size="14" lengthAdjust="spacing" textLength="515" x="34.5" y="163.292">draw(URectangle;double;double;ColorMapper;UParam;Html5Drawer) : void</text></a></g><path d="M285,54.0939 C285,64.784 285,77.7904 285,89.9706 " fill="none" style="stroke:#181818;stroke-width:1.0;"/><polygon fill="#FFFFFF" points="285,54.0939,279,70.0939,291,70.0939,285,54.0939" style="stroke:#181818;stroke-width:1.0;"/><!--MD5=[26509917e0e83c8ae929979f5167c899]
@startuml
!pragma layout smetana
"UDriver<URectangle,Html5Drawer>" <|- - "net.sourceforge.plantuml.ugraphic.html5.DriverRectangleHtml5"
class net.sourceforge.plantuml.ugraphic.html5.DriverRectangleHtml5 {
+DriverRectangleHtml5(ClipContainer) : DriverRectangleHtml5 [[[./../../../../../../.././qc/src/net/sourceforge/plantuml/ugraphic/html5/DriverRectangleHtml5.java.html#52]]]
+draw(URectangle;double;double;ColorMapper;UParam;Html5Drawer) : void [[[./../../../../../../.././qc/src/net/sourceforge/plantuml/ugraphic/html5/DriverRectangleHtml5.java.html#56]]]
} 
@enduml

PlantUML version 1.2022.7(Mon Aug 22 17:01:30 UTC 2022)
(GPL source distribution)
Java Runtime: OpenJDK Runtime Environment
JVM: OpenJDK 64-Bit Server VM
Default Encoding: UTF-8
Language: en
Country: null
--></g></svg>