<?xml version="1.0" encoding="UTF-8" standalone="no"?><svg xmlns="http://www.w3.org/2000/svg" xmlns:xlink="http://www.w3.org/1999/xlink" contentStyleType="text/css" height="2072px" preserveAspectRatio="none" style="width:890px;height:2072px;background:#FFFFFF;" version="1.1" viewBox="0 0 890 2072" width="890px" zoomAndPan="magnify"><defs/><g><path d="M464,10 L464,18.5664 L444,22.5664 L464,26.5664 L464,35.1328 A0,0 0 0 0 464,35.1328 L869,35.1328 A0,0 0 0 0 869,35.1328 L869,20 L859,10 L464,10 A0,0 0 0 0 464,10 " fill="#FEFFDD" style="stroke:#181818;stroke-width:0.5;"/><path d="M859,10 L859,20 L869,20 L859,10 " fill="#FEFFDD" style="stroke:#181818;stroke-width:0.5;"/><text fill="#000000" font-family="sans-serif" font-size="13" lengthAdjust="spacing" textLength="384" x="470" y="27.0669">constructor DriverRectangleSvg(ClipContainer clipContainer)</text><ellipse cx="434" cy="22.5664" fill="#222222" rx="10" ry="10" style="stroke:#222222;stroke-width:1.0;"/><rect fill="#F1F1F1" height="33.9688" rx="12.5" ry="12.5" style="stroke:#181818;stroke-width:0.5;" width="225" x="321.5" y="55.1328"/><text fill="#000000" font-family="sans-serif" font-size="12" lengthAdjust="spacing" textLength="205" x="331.5" y="76.2715">this.clipContainer=clipContainer;</text><ellipse cx="434" cy="119.1016" fill="none" rx="10" ry="10" style="stroke:#222222;stroke-width:1.5;"/><line style="stroke:#222222;stroke-width:2.5;" x1="427.8128" x2="440.1872" y1="112.9144" y2="125.2887"/><line style="stroke:#222222;stroke-width:2.5;" x1="440.1872" x2="427.8128" y1="112.9144" y2="125.2887"/><path d="M464,139.1016 L464,155.2344 L444,159.2344 L464,163.2344 L464,179.3672 A0,0 0 0 0 464,179.3672 L837,179.3672 A0,0 0 0 0 837,179.3672 L837,149.1016 L827,139.1016 L464,139.1016 A0,0 0 0 0 464,139.1016 " fill="#FEFFDD" style="stroke:#181818;stroke-width:0.5;"/><path d="M827,139.1016 L827,149.1016 L837,149.1016 L827,139.1016 " fill="#FEFFDD" style="stroke:#181818;stroke-width:0.5;"/><text fill="#000000" font-family="sans-serif" font-size="13" lengthAdjust="spacing" textLength="287" x="470" y="156.1685">void draw(URectangle rect,double x,double y,</text><text fill="#000000" font-family="sans-serif" font-size="13" lengthAdjust="spacing" textLength="352" x="470" y="171.3013">ColorMapper mapper,UParam param,SvgGraphics svg)</text><ellipse cx="434" cy="159.2344" fill="#222222" rx="10" ry="10" style="stroke:#222222;stroke-width:1.0;"/><rect fill="#F1F1F1" height="33.9688" rx="12.5" ry="12.5" style="stroke:#181818;stroke-width:0.5;" width="196" x="336" y="199.3672"/><text fill="#000000" font-family="sans-serif" font-size="12" lengthAdjust="spacing" textLength="176" x="346" y="220.5059">final double rx=rect.getRx();</text><rect fill="#F1F1F1" height="33.9688" rx="12.5" ry="12.5" style="stroke:#181818;stroke-width:0.5;" width="196" x="336" y="253.3359"/><text fill="#000000" font-family="sans-serif" font-size="12" lengthAdjust="spacing" textLength="176" x="346" y="274.4746">final double ry=rect.getRy();</text><rect fill="#F1F1F1" height="33.9688" rx="12.5" ry="12.5" style="stroke:#181818;stroke-width:0.5;" width="209" x="329.5" y="307.3047"/><text fill="#000000" font-family="sans-serif" font-size="12" lengthAdjust="spacing" textLength="189" x="339.5" y="328.4434">double width=rect.getWidth();</text><rect fill="#F1F1F1" height="33.9688" rx="12.5" ry="12.5" style="stroke:#181818;stroke-width:0.5;" width="222" x="323" y="361.2734"/><text fill="#000000" font-family="sans-serif" font-size="12" lengthAdjust="spacing" textLength="202" x="333" y="382.4121">double height=rect.getHeight();</text><rect fill="#F1F1F1" height="33.9688" rx="12.5" ry="12.5" style="stroke:#181818;stroke-width:0.5;" width="232" x="318" y="415.2422"/><text fill="#000000" font-family="sans-serif" font-size="12" lengthAdjust="spacing" textLength="212" x="328" y="436.3809">applyFillColor(svg,mapper,param);</text><rect fill="#F1F1F1" height="33.9688" rx="12.5" ry="12.5" style="stroke:#181818;stroke-width:0.5;" width="257" x="305.5" y="469.2109"/><text fill="#000000" font-family="sans-serif" font-size="12" lengthAdjust="spacing" textLength="237" x="315.5" y="490.3496">applyStrokeColor(svg,mapper,param);</text><rect fill="#F1F1F1" height="47.9375" rx="12.5" ry="12.5" style="stroke:#181818;stroke-width:0.5;" width="363" x="252.5" y="523.1797"/><text fill="#000000" font-family="sans-serif" font-size="12" lengthAdjust="spacing" textLength="343" x="262.5" y="544.3184">svg.setStrokeWidth(param.getStroke().getThickness(),</text><text fill="#000000" font-family="sans-serif" font-size="12" lengthAdjust="spacing" textLength="246" x="262.5" y="558.2871">param.getStroke().getDasharraySvg());</text><rect fill="#F1F1F1" height="33.9688" rx="12.5" ry="12.5" style="stroke:#181818;stroke-width:0.5;" width="259" x="304.5" y="591.1172"/><text fill="#000000" font-family="sans-serif" font-size="12" lengthAdjust="spacing" textLength="239" x="314.5" y="612.2559">final UClip clip=clipContainer.getClip();</text><rect fill="#F1F1F1" height="47.9375" rx="12.5" ry="12.5" style="stroke:#181818;stroke-width:0.5;" width="529" x="169.5" y="693.4883"/><text fill="#000000" font-family="sans-serif" font-size="12" lengthAdjust="spacing" textLength="509" x="179.5" y="714.627">final Rectangle2D.Double r=clip.getClippedRectangle(new Rectangle2D.Double(x,</text><text fill="#000000" font-family="sans-serif" font-size="12" lengthAdjust="spacing" textLength="101" x="179.5" y="728.5957">y,width,height));</text><rect fill="#F1F1F1" height="33.9688" rx="12.5" ry="12.5" style="stroke:#181818;stroke-width:0.5;" width="55" x="406.5" y="761.4258"/><text fill="#000000" font-family="sans-serif" font-size="12" lengthAdjust="spacing" textLength="35" x="416.5" y="782.5645">x=r.x;</text><rect fill="#F1F1F1" height="33.9688" rx="12.5" ry="12.5" style="stroke:#181818;stroke-width:0.5;" width="55" x="406.5" y="815.3945"/><text fill="#000000" font-family="sans-serif" font-size="12" lengthAdjust="spacing" textLength="35" x="416.5" y="836.5332">y=r.y;</text><rect fill="#F1F1F1" height="33.9688" rx="12.5" ry="12.5" style="stroke:#181818;stroke-width:0.5;" width="109" x="379.5" y="869.3633"/><text fill="#000000" font-family="sans-serif" font-size="12" lengthAdjust="spacing" textLength="89" x="389.5" y="890.502">width=r.width;</text><rect fill="#F1F1F1" height="33.9688" rx="12.5" ry="12.5" style="stroke:#181818;stroke-width:0.5;" width="123" x="372.5" y="932.7813"/><text fill="#000000" font-family="sans-serif" font-size="12" lengthAdjust="spacing" textLength="103" x="382.5" y="953.9199">height=r.height;</text><rect fill="#F1F1F1" height="33.9688" rx="12.5" ry="12.5" style="stroke:#181818;stroke-width:0.5;" width="67" x="400.5" y="1035.1523"/><text fill="#000000" font-family="sans-serif" font-size="12" lengthAdjust="spacing" textLength="47" x="410.5" y="1056.291">return ;</text><ellipse cx="434" cy="1108.6367" fill="none" rx="11" ry="11" style="stroke:#222222;stroke-width:1.0;"/><ellipse cx="434" cy="1108.6367" fill="#222222" rx="6" ry="6" style="stroke:#111111;stroke-width:1.0;"/><polygon fill="#F1F1F1" points="404,986.75,464,986.75,476,998.75,464,1010.75,404,1010.75,392,998.75,404,986.75" style="stroke:#181818;stroke-width:0.5;"/><text fill="#000000" font-family="sans-serif" font-size="11" lengthAdjust="spacing" textLength="20" x="438" y="1020.9604">yes</text><text fill="#000000" font-family="sans-serif" font-size="11" lengthAdjust="spacing" textLength="60" x="404" y="1002.5581">height&lt;=0</text><polygon fill="#F1F1F1" points="406.5,645.0859,461.5,645.0859,473.5,657.0859,461.5,669.0859,406.5,669.0859,394.5,657.0859,406.5,645.0859" style="stroke:#181818;stroke-width:0.5;"/><text fill="#000000" font-family="sans-serif" font-size="11" lengthAdjust="spacing" textLength="20" x="438" y="679.2964">yes</text><text fill="#000000" font-family="sans-serif" font-size="11" lengthAdjust="spacing" textLength="51" x="406.5" y="660.894">clip!=null</text><polygon fill="#F1F1F1" points="434,1161.6367,446,1173.6367,434,1185.6367,422,1173.6367,434,1161.6367" style="stroke:#181818;stroke-width:0.5;"/><rect fill="#F1F1F1" height="47.9375" rx="12.5" ry="12.5" style="stroke:#181818;stroke-width:0.5;" width="415" x="226.5" y="1205.6367"/><text fill="#000000" font-family="sans-serif" font-size="12" lengthAdjust="spacing" textLength="269" x="236.5" y="1226.7754">svg.svgRectangle(x,y,width,height,rx/2,ry/2,</text><text fill="#000000" font-family="sans-serif" font-size="12" lengthAdjust="spacing" textLength="395" x="236.5" y="1240.7441">rect.getDeltaShadow(),rect.getComment(),rect.getCodeLine());</text><ellipse cx="434" cy="1283.5742" fill="none" rx="10" ry="10" style="stroke:#222222;stroke-width:1.5;"/><line style="stroke:#222222;stroke-width:2.5;" x1="427.8128" x2="440.1872" y1="1277.387" y2="1289.7614"/><line style="stroke:#222222;stroke-width:2.5;" x1="440.1872" x2="427.8128" y1="1277.387" y2="1289.7614"/><path d="M464,1303.5742 L464,1319.707 L444,1323.707 L464,1327.707 L464,1343.8398 A0,0 0 0 0 464,1343.8398 L852,1343.8398 A0,0 0 0 0 852,1343.8398 L852,1313.5742 L842,1303.5742 L464,1303.5742 A0,0 0 0 0 464,1303.5742 " fill="#FEFFDD" style="stroke:#181818;stroke-width:0.5;"/><path d="M842,1303.5742 L842,1313.5742 L852,1313.5742 L842,1303.5742 " fill="#FEFFDD" style="stroke:#181818;stroke-width:0.5;"/><text fill="#000000" font-family="sans-serif" font-size="13" lengthAdjust="spacing" textLength="367" x="470" y="1320.6411">void applyFillColor(SvgGraphics svg,ColorMapper mapper,</text><text fill="#000000" font-family="sans-serif" font-size="13" lengthAdjust="spacing" textLength="103" x="470" y="1335.7739">UParam param)</text><ellipse cx="434" cy="1323.707" fill="#222222" rx="10" ry="10" style="stroke:#222222;stroke-width:1.0;"/><rect fill="#F1F1F1" height="33.9688" rx="12.5" ry="12.5" style="stroke:#181818;stroke-width:0.5;" width="320" x="274" y="1363.8398"/><text fill="#000000" font-family="sans-serif" font-size="12" lengthAdjust="spacing" textLength="300" x="284" y="1384.9785">final HColor background=param.getBackcolor();</text><polygon fill="#F1F1F1" points="322,1417.8086,546,1417.8086,558,1429.8086,546,1441.8086,322,1441.8086,310,1429.8086,322,1417.8086" style="stroke:#181818;stroke-width:0.5;"/><text fill="#000000" font-family="sans-serif" font-size="11" lengthAdjust="spacing" textLength="220" x="322" y="1433.6167">background instanceof HColorGradient</text><text fill="#000000" font-family="sans-serif" font-size="11" lengthAdjust="spacing" textLength="20" x="290" y="1427.2144">yes</text><text fill="#000000" font-family="sans-serif" font-size="11" lengthAdjust="spacing" textLength="14" x="558" y="1427.2144">no</text><rect fill="#F1F1F1" height="33.9688" rx="12.5" ry="12.5" style="stroke:#181818;stroke-width:0.5;" width="360" x="56.5" y="1451.8086"/><text fill="#000000" font-family="sans-serif" font-size="12" lengthAdjust="spacing" textLength="340" x="66.5" y="1472.9473">final HColorGradient gr=(HColorGradient )background;</text><rect fill="#F1F1F1" height="47.9375" rx="12.5" ry="12.5" style="stroke:#181818;stroke-width:0.5;" width="451" x="11" y="1505.7773"/><text fill="#000000" font-family="sans-serif" font-size="12" lengthAdjust="spacing" textLength="431" x="21" y="1526.916">final String id=svg.createSvgGradient(gr.getColor1().toRGB(mapper),</text><text fill="#000000" font-family="sans-serif" font-size="12" lengthAdjust="spacing" textLength="284" x="21" y="1540.8848">gr.getColor2().toRGB(mapper),gr.getPolicy());</text><rect fill="#F1F1F1" height="33.9688" rx="12.5" ry="12.5" style="stroke:#181818;stroke-width:0.5;" width="214" x="129.5" y="1573.7148"/><text fill="#000000" font-family="sans-serif" font-size="12" lengthAdjust="spacing" textLength="194" x="139.5" y="1594.8535">svg.setFillColor("url(#"+id+")");</text><rect fill="#F1F1F1" height="33.9688" rx="12.5" ry="12.5" style="stroke:#181818;stroke-width:0.5;" width="299" x="482" y="1451.8086"/><text fill="#000000" font-family="sans-serif" font-size="12" lengthAdjust="spacing" textLength="279" x="492" y="1472.9473">svg.setFillColor(background.toSvg(mapper));</text><polygon fill="#F1F1F1" points="434,1613.6836,446,1625.6836,434,1637.6836,422,1625.6836,434,1613.6836" style="stroke:#181818;stroke-width:0.5;"/><ellipse cx="434" cy="1667.6836" fill="none" rx="10" ry="10" style="stroke:#222222;stroke-width:1.5;"/><line style="stroke:#222222;stroke-width:2.5;" x1="427.8128" x2="440.1872" y1="1661.4964" y2="1673.8708"/><line style="stroke:#222222;stroke-width:2.5;" x1="440.1872" x2="427.8128" y1="1661.4964" y2="1673.8708"/><path d="M464,1687.6836 L464,1703.8164 L444,1707.8164 L464,1711.8164 L464,1727.9492 A0,0 0 0 0 464,1727.9492 L878,1727.9492 A0,0 0 0 0 878,1727.9492 L878,1697.6836 L868,1687.6836 L464,1687.6836 A0,0 0 0 0 464,1687.6836 " fill="#FEFFDD" style="stroke:#181818;stroke-width:0.5;"/><path d="M868,1687.6836 L868,1697.6836 L878,1697.6836 L868,1687.6836 " fill="#FEFFDD" style="stroke:#181818;stroke-width:0.5;"/><text fill="#000000" font-family="sans-serif" font-size="13" lengthAdjust="spacing" textLength="393" x="470" y="1704.7505">void applyStrokeColor(SvgGraphics svg,ColorMapper mapper,</text><text fill="#000000" font-family="sans-serif" font-size="13" lengthAdjust="spacing" textLength="103" x="470" y="1719.8833">UParam param)</text><ellipse cx="434" cy="1707.8164" fill="#222222" rx="10" ry="10" style="stroke:#222222;stroke-width:1.0;"/><rect fill="#F1F1F1" height="33.9688" rx="12.5" ry="12.5" style="stroke:#181818;stroke-width:0.5;" width="247" x="310.5" y="1747.9492"/><text fill="#000000" font-family="sans-serif" font-size="12" lengthAdjust="spacing" textLength="227" x="320.5" y="1769.0879">final HColor color=param.getColor();</text><polygon fill="#F1F1F1" points="341,1801.918,527,1801.918,539,1813.918,527,1825.918,341,1825.918,329,1813.918,341,1801.918" style="stroke:#181818;stroke-width:0.5;"/><text fill="#000000" font-family="sans-serif" font-size="11" lengthAdjust="spacing" textLength="182" x="341" y="1817.7261">color instanceof HColorGradient</text><text fill="#000000" font-family="sans-serif" font-size="11" lengthAdjust="spacing" textLength="20" x="309" y="1811.3237">yes</text><text fill="#000000" font-family="sans-serif" font-size="11" lengthAdjust="spacing" textLength="14" x="539" y="1811.3237">no</text><rect fill="#F1F1F1" height="33.9688" rx="12.5" ry="12.5" style="stroke:#181818;stroke-width:0.5;" width="316" x="83.25" y="1835.918"/><text fill="#000000" font-family="sans-serif" font-size="12" lengthAdjust="spacing" textLength="296" x="93.25" y="1857.0566">final HColorGradient gr=(HColorGradient )color;</text><rect fill="#F1F1F1" height="47.9375" rx="12.5" ry="12.5" style="stroke:#181818;stroke-width:0.5;" width="451" x="15.75" y="1889.8867"/><text fill="#000000" font-family="sans-serif" font-size="12" lengthAdjust="spacing" textLength="431" x="25.75" y="1911.0254">final String id=svg.createSvgGradient(gr.getColor1().toRGB(mapper),</text><text fill="#000000" font-family="sans-serif" font-size="12" lengthAdjust="spacing" textLength="284" x="25.75" y="1924.9941">gr.getColor2().toRGB(mapper),gr.getPolicy());</text><rect fill="#F1F1F1" height="33.9688" rx="12.5" ry="12.5" style="stroke:#181818;stroke-width:0.5;" width="239" x="121.75" y="1957.8242"/><text fill="#000000" font-family="sans-serif" font-size="12" lengthAdjust="spacing" textLength="219" x="131.75" y="1978.9629">svg.setStrokeColor("url(#"+id+")");</text><rect fill="#F1F1F1" height="33.9688" rx="12.5" ry="12.5" style="stroke:#181818;stroke-width:0.5;" width="280" x="486.75" y="1835.918"/><text fill="#000000" font-family="sans-serif" font-size="12" lengthAdjust="spacing" textLength="260" x="496.75" y="1857.0566">svg.setStrokeColor(color.toSvg(mapper));</text><polygon fill="#F1F1F1" points="434,1997.793,446,2009.793,434,2021.793,422,2009.793,434,1997.793" style="stroke:#181818;stroke-width:0.5;"/><ellipse cx="434" cy="2051.793" fill="none" rx="10" ry="10" style="stroke:#222222;stroke-width:1.5;"/><line style="stroke:#222222;stroke-width:2.5;" x1="427.8128" x2="440.1872" y1="2045.6058" y2="2057.9802"/><line style="stroke:#222222;stroke-width:2.5;" x1="440.1872" x2="427.8128" y1="2045.6058" y2="2057.9802"/><line style="stroke:#181818;stroke-width:1.0;" x1="434" x2="434" y1="32.5664" y2="55.1328"/><polygon fill="#181818" points="430,45.1328,434,55.1328,438,45.1328,434,49.1328" style="stroke:#181818;stroke-width:1.0;"/><line style="stroke:#181818;stroke-width:1.0;" x1="434" x2="434" y1="89.1016" y2="109.1016"/><polygon fill="#181818" points="430,99.1016,434,109.1016,438,99.1016,434,103.1016" style="stroke:#181818;stroke-width:1.0;"/><line style="stroke:#181818;stroke-width:1.0;" x1="434" x2="434" y1="169.2344" y2="199.3672"/><polygon fill="#181818" points="430,189.3672,434,199.3672,438,189.3672,434,193.3672" style="stroke:#181818;stroke-width:1.0;"/><line style="stroke:#181818;stroke-width:1.0;" x1="434" x2="434" y1="233.3359" y2="253.3359"/><polygon fill="#181818" points="430,243.3359,434,253.3359,438,243.3359,434,247.3359" style="stroke:#181818;stroke-width:1.0;"/><line style="stroke:#181818;stroke-width:1.0;" x1="434" x2="434" y1="287.3047" y2="307.3047"/><polygon fill="#181818" points="430,297.3047,434,307.3047,438,297.3047,434,301.3047" style="stroke:#181818;stroke-width:1.0;"/><line style="stroke:#181818;stroke-width:1.0;" x1="434" x2="434" y1="341.2734" y2="361.2734"/><polygon fill="#181818" points="430,351.2734,434,361.2734,438,351.2734,434,355.2734" style="stroke:#181818;stroke-width:1.0;"/><line style="stroke:#181818;stroke-width:1.0;" x1="434" x2="434" y1="395.2422" y2="415.2422"/><polygon fill="#181818" points="430,405.2422,434,415.2422,438,405.2422,434,409.2422" style="stroke:#181818;stroke-width:1.0;"/><line style="stroke:#181818;stroke-width:1.0;" x1="434" x2="434" y1="449.2109" y2="469.2109"/><polygon fill="#181818" points="430,459.2109,434,469.2109,438,459.2109,434,463.2109" style="stroke:#181818;stroke-width:1.0;"/><line style="stroke:#181818;stroke-width:1.0;" x1="434" x2="434" y1="503.1797" y2="523.1797"/><polygon fill="#181818" points="430,513.1797,434,523.1797,438,513.1797,434,517.1797" style="stroke:#181818;stroke-width:1.0;"/><line style="stroke:#181818;stroke-width:1.0;" x1="434" x2="434" y1="571.1172" y2="591.1172"/><polygon fill="#181818" points="430,581.1172,434,591.1172,438,581.1172,434,585.1172" style="stroke:#181818;stroke-width:1.0;"/><line style="stroke:#181818;stroke-width:1.0;" x1="434" x2="434" y1="741.4258" y2="761.4258"/><polygon fill="#181818" points="430,751.4258,434,761.4258,438,751.4258,434,755.4258" style="stroke:#181818;stroke-width:1.0;"/><line style="stroke:#181818;stroke-width:1.0;" x1="434" x2="434" y1="795.3945" y2="815.3945"/><polygon fill="#181818" points="430,805.3945,434,815.3945,438,805.3945,434,809.3945" style="stroke:#181818;stroke-width:1.0;"/><line style="stroke:#181818;stroke-width:1.0;" x1="434" x2="434" y1="849.3633" y2="869.3633"/><polygon fill="#181818" points="430,859.3633,434,869.3633,438,859.3633,434,863.3633" style="stroke:#181818;stroke-width:1.0;"/><line style="stroke:#181818;stroke-width:1.0;" x1="434" x2="434" y1="903.332" y2="932.7813"/><polygon fill="#181818" points="430,922.7813,434,932.7813,438,922.7813,434,926.7813" style="stroke:#181818;stroke-width:1.0;"/><line style="stroke:#181818;stroke-width:1.0;" x1="434" x2="434" y1="1069.1211" y2="1097.6367"/><polygon fill="#181818" points="430,1087.6367,434,1097.6367,438,1087.6367,434,1091.6367" style="stroke:#181818;stroke-width:1.0;"/><line style="stroke:#181818;stroke-width:1.0;" x1="434" x2="434" y1="1010.75" y2="1035.1523"/><polygon fill="#181818" points="430,1025.1523,434,1035.1523,438,1025.1523,434,1029.1523" style="stroke:#181818;stroke-width:1.0;"/><line style="stroke:#181818;stroke-width:1.0;" x1="476" x2="488" y1="998.75" y2="998.75"/><polygon fill="#181818" points="484,1067.6367,488,1077.6367,492,1067.6367,488,1071.6367" style="stroke:#181818;stroke-width:1.0;"/><line style="stroke:#181818;stroke-width:1.0;" x1="488" x2="488" y1="998.75" y2="1141.6367"/><line style="stroke:#181818;stroke-width:1.0;" x1="488" x2="434" y1="1141.6367" y2="1141.6367"/><line style="stroke:#181818;stroke-width:1.0;" x1="434" x2="434" y1="1141.6367" y2="1161.6367"/><polygon fill="#181818" points="430,1151.6367,434,1161.6367,438,1151.6367,434,1155.6367" style="stroke:#181818;stroke-width:1.0;"/><line style="stroke:#181818;stroke-width:1.0;" x1="434" x2="434" y1="966.75" y2="986.75"/><polygon fill="#181818" points="430,976.75,434,986.75,438,976.75,434,980.75" style="stroke:#181818;stroke-width:1.0;"/><line style="stroke:#181818;stroke-width:1.0;" x1="434" x2="434" y1="669.0859" y2="693.4883"/><polygon fill="#181818" points="430,683.4883,434,693.4883,438,683.4883,434,687.4883" style="stroke:#181818;stroke-width:1.0;"/><line style="stroke:#181818;stroke-width:1.0;" x1="473.5" x2="708.5" y1="657.0859" y2="657.0859"/><polygon fill="#181818" points="704.5,902.7813,708.5,912.7813,712.5,902.7813,708.5,906.7813" style="stroke:#181818;stroke-width:1.0;"/><line style="stroke:#181818;stroke-width:1.0;" x1="708.5" x2="708.5" y1="657.0859" y2="1173.6367"/><line style="stroke:#181818;stroke-width:1.0;" x1="708.5" x2="446" y1="1173.6367" y2="1173.6367"/><polygon fill="#181818" points="456,1169.6367,446,1173.6367,456,1177.6367,452,1173.6367" style="stroke:#181818;stroke-width:1.0;"/><line style="stroke:#181818;stroke-width:1.0;" x1="434" x2="434" y1="625.0859" y2="645.0859"/><polygon fill="#181818" points="430,635.0859,434,645.0859,438,635.0859,434,639.0859" style="stroke:#181818;stroke-width:1.0;"/><line style="stroke:#181818;stroke-width:1.0;" x1="434" x2="434" y1="1185.6367" y2="1205.6367"/><polygon fill="#181818" points="430,1195.6367,434,1205.6367,438,1195.6367,434,1199.6367" style="stroke:#181818;stroke-width:1.0;"/><line style="stroke:#181818;stroke-width:1.0;" x1="434" x2="434" y1="1253.5742" y2="1273.5742"/><polygon fill="#181818" points="430,1263.5742,434,1273.5742,438,1263.5742,434,1267.5742" style="stroke:#181818;stroke-width:1.0;"/><line style="stroke:#181818;stroke-width:1.0;" x1="434" x2="434" y1="1333.707" y2="1363.8398"/><polygon fill="#181818" points="430,1353.8398,434,1363.8398,438,1353.8398,434,1357.8398" style="stroke:#181818;stroke-width:1.0;"/><line style="stroke:#181818;stroke-width:1.0;" x1="236.5" x2="236.5" y1="1485.7773" y2="1505.7773"/><polygon fill="#181818" points="232.5,1495.7773,236.5,1505.7773,240.5,1495.7773,236.5,1499.7773" style="stroke:#181818;stroke-width:1.0;"/><line style="stroke:#181818;stroke-width:1.0;" x1="236.5" x2="236.5" y1="1553.7148" y2="1573.7148"/><polygon fill="#181818" points="232.5,1563.7148,236.5,1573.7148,240.5,1563.7148,236.5,1567.7148" style="stroke:#181818;stroke-width:1.0;"/><line style="stroke:#181818;stroke-width:1.0;" x1="310" x2="236.5" y1="1429.8086" y2="1429.8086"/><line style="stroke:#181818;stroke-width:1.0;" x1="236.5" x2="236.5" y1="1429.8086" y2="1451.8086"/><polygon fill="#181818" points="232.5,1441.8086,236.5,1451.8086,240.5,1441.8086,236.5,1445.8086" style="stroke:#181818;stroke-width:1.0;"/><line style="stroke:#181818;stroke-width:1.0;" x1="558" x2="631.5" y1="1429.8086" y2="1429.8086"/><line style="stroke:#181818;stroke-width:1.0;" x1="631.5" x2="631.5" y1="1429.8086" y2="1451.8086"/><polygon fill="#181818" points="627.5,1441.8086,631.5,1451.8086,635.5,1441.8086,631.5,1445.8086" style="stroke:#181818;stroke-width:1.0;"/><line style="stroke:#181818;stroke-width:1.0;" x1="236.5" x2="236.5" y1="1607.6836" y2="1625.6836"/><line style="stroke:#181818;stroke-width:1.0;" x1="236.5" x2="422" y1="1625.6836" y2="1625.6836"/><polygon fill="#181818" points="412,1621.6836,422,1625.6836,412,1629.6836,416,1625.6836" style="stroke:#181818;stroke-width:1.0;"/><line style="stroke:#181818;stroke-width:1.0;" x1="631.5" x2="631.5" y1="1485.7773" y2="1625.6836"/><line style="stroke:#181818;stroke-width:1.0;" x1="631.5" x2="446" y1="1625.6836" y2="1625.6836"/><polygon fill="#181818" points="456,1621.6836,446,1625.6836,456,1629.6836,452,1625.6836" style="stroke:#181818;stroke-width:1.0;"/><line style="stroke:#181818;stroke-width:1.0;" x1="434" x2="434" y1="1397.8086" y2="1417.8086"/><polygon fill="#181818" points="430,1407.8086,434,1417.8086,438,1407.8086,434,1411.8086" style="stroke:#181818;stroke-width:1.0;"/><line style="stroke:#181818;stroke-width:1.0;" x1="434" x2="434" y1="1637.6836" y2="1657.6836"/><polygon fill="#181818" points="430,1647.6836,434,1657.6836,438,1647.6836,434,1651.6836" style="stroke:#181818;stroke-width:1.0;"/><line style="stroke:#181818;stroke-width:1.0;" x1="434" x2="434" y1="1717.8164" y2="1747.9492"/><polygon fill="#181818" points="430,1737.9492,434,1747.9492,438,1737.9492,434,1741.9492" style="stroke:#181818;stroke-width:1.0;"/><line style="stroke:#181818;stroke-width:1.0;" x1="241.25" x2="241.25" y1="1869.8867" y2="1889.8867"/><polygon fill="#181818" points="237.25,1879.8867,241.25,1889.8867,245.25,1879.8867,241.25,1883.8867" style="stroke:#181818;stroke-width:1.0;"/><line style="stroke:#181818;stroke-width:1.0;" x1="241.25" x2="241.25" y1="1937.8242" y2="1957.8242"/><polygon fill="#181818" points="237.25,1947.8242,241.25,1957.8242,245.25,1947.8242,241.25,1951.8242" style="stroke:#181818;stroke-width:1.0;"/><line style="stroke:#181818;stroke-width:1.0;" x1="329" x2="241.25" y1="1813.918" y2="1813.918"/><line style="stroke:#181818;stroke-width:1.0;" x1="241.25" x2="241.25" y1="1813.918" y2="1835.918"/><polygon fill="#181818" points="237.25,1825.918,241.25,1835.918,245.25,1825.918,241.25,1829.918" style="stroke:#181818;stroke-width:1.0;"/><line style="stroke:#181818;stroke-width:1.0;" x1="539" x2="626.75" y1="1813.918" y2="1813.918"/><line style="stroke:#181818;stroke-width:1.0;" x1="626.75" x2="626.75" y1="1813.918" y2="1835.918"/><polygon fill="#181818" points="622.75,1825.918,626.75,1835.918,630.75,1825.918,626.75,1829.918" style="stroke:#181818;stroke-width:1.0;"/><line style="stroke:#181818;stroke-width:1.0;" x1="241.25" x2="241.25" y1="1991.793" y2="2009.793"/><line style="stroke:#181818;stroke-width:1.0;" x1="241.25" x2="422" y1="2009.793" y2="2009.793"/><polygon fill="#181818" points="412,2005.793,422,2009.793,412,2013.793,416,2009.793" style="stroke:#181818;stroke-width:1.0;"/><line style="stroke:#181818;stroke-width:1.0;" x1="626.75" x2="626.75" y1="1869.8867" y2="2009.793"/><line style="stroke:#181818;stroke-width:1.0;" x1="626.75" x2="446" y1="2009.793" y2="2009.793"/><polygon fill="#181818" points="456,2005.793,446,2009.793,456,2013.793,452,2009.793" style="stroke:#181818;stroke-width:1.0;"/><line style="stroke:#181818;stroke-width:1.0;" x1="434" x2="434" y1="1781.918" y2="1801.918"/><polygon fill="#181818" points="430,1791.918,434,1801.918,438,1791.918,434,1795.918" style="stroke:#181818;stroke-width:1.0;"/><line style="stroke:#181818;stroke-width:1.0;" x1="434" x2="434" y1="2021.793" y2="2041.793"/><polygon fill="#181818" points="430,2031.793,434,2041.793,438,2031.793,434,2035.793" style="stroke:#181818;stroke-width:1.0;"/><!--MD5=[8f667cbdfd238ae63cca037807164a56]
@startuml
!pragma layout smetana
start
note right
constructor DriverRectangleSvg(ClipContainer clipContainer)
end note
:this.clipContainer=clipContainer;;
end
start
note right
void draw(URectangle rect,double x,double y,
ColorMapper mapper,UParam param,SvgGraphics svg)
end note
:final double rx=rect.getRx();;
:final double ry=rect.getRy();;
:double width=rect.getWidth();;
:double height=rect.getHeight();;
:applyFillColor(svg,mapper,param);;
:applyStrokeColor(svg,mapper,param);;
:svg.setStrokeWidth(param.getStroke().getThickness(),
param.getStroke().getDasharraySvg());;
:final UClip clip=clipContainer.getClip();;
if (clip!=null ) then (yes) 
:final Rectangle2D.Double r=clip.getClippedRectangle(new Rectangle2D.Double(x,
y,width,height));;
:x=r.x;;
:y=r.y;;
:width=r.width;;
:height=r.height;;
if (height<=0) then (yes) 
:return ;;
stop
endif 
endif 
:svg.svgRectangle(x,y,width,height,rx/2,ry/2,
rect.getDeltaShadow(),rect.getComment(),rect.getCodeLine());;
end
start
note right
void applyFillColor(SvgGraphics svg,ColorMapper mapper,
UParam param)
end note
:final HColor background=param.getBackcolor();;
if (background instanceof HColorGradient ) then (yes) 
:final HColorGradient gr=(HColorGradient )background;;
:final String id=svg.createSvgGradient(gr.getColor1().toRGB(mapper),
gr.getColor2().toRGB(mapper),gr.getPolicy());;
:svg.setFillColor("url(#"+id+")");;
else (no)
:svg.setFillColor(background.toSvg(mapper));;
endif 
end
start
note right
void applyStrokeColor(SvgGraphics svg,ColorMapper mapper,
UParam param)
end note
:final HColor color=param.getColor();;
if (color instanceof HColorGradient ) then (yes) 
:final HColorGradient gr=(HColorGradient )color;;
:final String id=svg.createSvgGradient(gr.getColor1().toRGB(mapper),
gr.getColor2().toRGB(mapper),gr.getPolicy());;
:svg.setStrokeColor("url(#"+id+")");;
else (no)
:svg.setStrokeColor(color.toSvg(mapper));;
endif 
end
@enduml

PlantUML version 1.2022.7(Mon Aug 22 17:01:30 UTC 2022)
(GPL source distribution)
Java Runtime: OpenJDK Runtime Environment
JVM: OpenJDK 64-Bit Server VM
Default Encoding: UTF-8
Language: en
Country: null
--></g></svg>