<?xml version="1.0" encoding="UTF-8" standalone="no"?><svg xmlns="http://www.w3.org/2000/svg" xmlns:xlink="http://www.w3.org/1999/xlink" contentStyleType="text/css" height="3295px" preserveAspectRatio="none" style="width:691px;height:3295px;background:#FFFFFF;" version="1.1" viewBox="0 0 691 3295" width="691px" zoomAndPan="magnify"><defs/><g><path d="M194.5,10 L194.5,26.1328 L174.5,30.1328 L194.5,34.1328 L194.5,50.2656 A0,0 0 0 0 194.5,50.2656 L467.5,50.2656 A0,0 0 0 0 467.5,50.2656 L467.5,20 L457.5,10 L194.5,10 A0,0 0 0 0 194.5,10 " fill="#FEFFDD" style="stroke:#181818;stroke-width:0.5;"/><path d="M457.5,10 L457.5,20 L467.5,20 L457.5,10 " fill="#FEFFDD" style="stroke:#181818;stroke-width:0.5;"/><text fill="#000000" font-family="sans-serif" font-size="13" lengthAdjust="spacing" textLength="252" x="200.5" y="27.0669">void drawBoxSimple(int x,int y,int width,</text><text fill="#000000" font-family="sans-serif" font-size="13" lengthAdjust="spacing" textLength="65" x="200.5" y="42.1997">int height)</text><ellipse cx="164.5" cy="30.1328" fill="#222222" rx="10" ry="10" style="stroke:#222222;stroke-width:1.0;"/><rect fill="#F1F1F1" height="33.9688" rx="12.5" ry="12.5" style="stroke:#181818;stroke-width:0.5;" width="238" x="45.5" y="70.2656"/><text fill="#000000" font-family="sans-serif" font-size="12" lengthAdjust="spacing" textLength="218" x="55.5" y="91.4043">this.drawHLine('-',y,x+1,x+width-1);</text><rect fill="#F1F1F1" height="33.9688" rx="12.5" ry="12.5" style="stroke:#181818;stroke-width:0.5;" width="300" x="14.5" y="124.2344"/><text fill="#000000" font-family="sans-serif" font-size="12" lengthAdjust="spacing" textLength="280" x="24.5" y="145.373">this.drawHLine('-',y+height-1,x+1,x+width-1);</text><rect fill="#F1F1F1" height="33.9688" rx="12.5" ry="12.5" style="stroke:#181818;stroke-width:0.5;" width="244" x="42.5" y="178.2031"/><text fill="#000000" font-family="sans-serif" font-size="12" lengthAdjust="spacing" textLength="224" x="52.5" y="199.3418">this.drawVLine('|',x,y+1,y+height-1);</text><rect fill="#F1F1F1" height="33.9688" rx="12.5" ry="12.5" style="stroke:#181818;stroke-width:0.5;" width="299" x="15" y="232.1719"/><text fill="#000000" font-family="sans-serif" font-size="12" lengthAdjust="spacing" textLength="279" x="25" y="253.3105">this.drawVLine('|',x+width-1,y+1,y+height-1);</text><rect fill="#F1F1F1" height="33.9688" rx="12.5" ry="12.5" style="stroke:#181818;stroke-width:0.5;" width="150" x="89.5" y="286.1406"/><text fill="#000000" font-family="sans-serif" font-size="12" lengthAdjust="spacing" textLength="130" x="99.5" y="307.2793">this.drawChar(',',x,y);</text><rect fill="#F1F1F1" height="33.9688" rx="12.5" ry="12.5" style="stroke:#181818;stroke-width:0.5;" width="205" x="62" y="340.1094"/><text fill="#000000" font-family="sans-serif" font-size="12" lengthAdjust="spacing" textLength="185" x="72" y="361.248">this.drawChar('.',x+width-1,y);</text><rect fill="#F1F1F1" height="33.9688" rx="12.5" ry="12.5" style="stroke:#181818;stroke-width:0.5;" width="212" x="58.5" y="394.0781"/><text fill="#000000" font-family="sans-serif" font-size="12" lengthAdjust="spacing" textLength="192" x="68.5" y="415.2168">this.drawChar(' ',x,y+height-1);</text><rect fill="#F1F1F1" height="33.9688" rx="12.5" ry="12.5" style="stroke:#181818;stroke-width:0.5;" width="270" x="29.5" y="448.0469"/><text fill="#000000" font-family="sans-serif" font-size="12" lengthAdjust="spacing" textLength="250" x="39.5" y="469.1855">this.drawChar('\'',x+width-1,y+height-1);</text><ellipse cx="164.5" cy="512.0156" fill="none" rx="10" ry="10" style="stroke:#222222;stroke-width:1.5;"/><line style="stroke:#222222;stroke-width:2.5;" x1="158.3128" x2="170.6872" y1="505.8284" y2="518.2028"/><line style="stroke:#222222;stroke-width:2.5;" x1="170.6872" x2="158.3128" y1="505.8284" y2="518.2028"/><path d="M194.5,532.0156 L194.5,548.1484 L174.5,552.1484 L194.5,556.1484 L194.5,572.2813 A0,0 0 0 0 194.5,572.2813 L519.5,572.2813 A0,0 0 0 0 519.5,572.2813 L519.5,542.0156 L509.5,532.0156 L194.5,532.0156 A0,0 0 0 0 194.5,532.0156 " fill="#FEFFDD" style="stroke:#181818;stroke-width:0.5;"/><path d="M509.5,532.0156 L509.5,542.0156 L519.5,542.0156 L509.5,532.0156 " fill="#FEFFDD" style="stroke:#181818;stroke-width:0.5;"/><text fill="#000000" font-family="sans-serif" font-size="13" lengthAdjust="spacing" textLength="304" x="200.5" y="549.0825">void drawBoxSimpleUnicode(int x,int y,int width,</text><text fill="#000000" font-family="sans-serif" font-size="13" lengthAdjust="spacing" textLength="65" x="200.5" y="564.2153">int height)</text><ellipse cx="164.5" cy="552.1484" fill="#222222" rx="10" ry="10" style="stroke:#222222;stroke-width:1.0;"/><rect fill="#F1F1F1" height="33.9688" rx="12.5" ry="12.5" style="stroke:#181818;stroke-width:0.5;" width="278" x="25.5" y="592.2813"/><text fill="#000000" font-family="sans-serif" font-size="12" lengthAdjust="spacing" textLength="258" x="35.5" y="613.4199">this.drawHLine('\u2500',y,x+1,x+width-1);</text><rect fill="#F1F1F1" height="47.9375" rx="12.5" ry="12.5" style="stroke:#181818;stroke-width:0.5;" width="286" x="21.5" y="646.25"/><text fill="#000000" font-family="sans-serif" font-size="12" lengthAdjust="spacing" textLength="266" x="31.5" y="667.3887">this.drawHLine('\u2500',y+height-1,x+1,x+</text><text fill="#000000" font-family="sans-serif" font-size="12" lengthAdjust="spacing" textLength="54" x="31.5" y="681.3574">width-1);</text><rect fill="#F1F1F1" height="33.9688" rx="12.5" ry="12.5" style="stroke:#181818;stroke-width:0.5;" width="284" x="22.5" y="714.1875"/><text fill="#000000" font-family="sans-serif" font-size="12" lengthAdjust="spacing" textLength="264" x="32.5" y="735.3262">this.drawVLine('\u2502',x,y+1,y+height-1);</text><rect fill="#F1F1F1" height="47.9375" rx="12.5" ry="12.5" style="stroke:#181818;stroke-width:0.5;" width="278" x="25.5" y="768.1563"/><text fill="#000000" font-family="sans-serif" font-size="12" lengthAdjust="spacing" textLength="258" x="35.5" y="789.2949">this.drawVLine('\u2502',x+width-1,y+1,y+</text><text fill="#000000" font-family="sans-serif" font-size="12" lengthAdjust="spacing" textLength="61" x="35.5" y="803.2637">height-1);</text><rect fill="#F1F1F1" height="33.9688" rx="12.5" ry="12.5" style="stroke:#181818;stroke-width:0.5;" width="189" x="70" y="836.0938"/><text fill="#000000" font-family="sans-serif" font-size="12" lengthAdjust="spacing" textLength="169" x="80" y="857.2324">this.drawChar('\u250c',x,y);</text><rect fill="#F1F1F1" height="33.9688" rx="12.5" ry="12.5" style="stroke:#181818;stroke-width:0.5;" width="245" x="42" y="890.0625"/><text fill="#000000" font-family="sans-serif" font-size="12" lengthAdjust="spacing" textLength="225" x="52" y="911.2012">this.drawChar('\u2510',x+width-1,y);</text><rect fill="#F1F1F1" height="33.9688" rx="12.5" ry="12.5" style="stroke:#181818;stroke-width:0.5;" width="252" x="38.5" y="944.0313"/><text fill="#000000" font-family="sans-serif" font-size="12" lengthAdjust="spacing" textLength="232" x="48.5" y="965.1699">this.drawChar('\u2514',x,y+height-1);</text><rect fill="#F1F1F1" height="33.9688" rx="12.5" ry="12.5" style="stroke:#181818;stroke-width:0.5;" width="307" x="11" y="998"/><text fill="#000000" font-family="sans-serif" font-size="12" lengthAdjust="spacing" textLength="287" x="21" y="1019.1387">this.drawChar('\u2518',x+width-1,y+height-1);</text><ellipse cx="164.5" cy="1061.9688" fill="none" rx="10" ry="10" style="stroke:#222222;stroke-width:1.5;"/><line style="stroke:#222222;stroke-width:2.5;" x1="158.3128" x2="170.6872" y1="1055.7816" y2="1068.1559"/><line style="stroke:#222222;stroke-width:2.5;" x1="170.6872" x2="158.3128" y1="1055.7816" y2="1068.1559"/><path d="M194.5,1081.9688 L194.5,1090.5352 L174.5,1094.5352 L194.5,1098.5352 L194.5,1107.1016 A0,0 0 0 0 194.5,1107.1016 L501.5,1107.1016 A0,0 0 0 0 501.5,1107.1016 L501.5,1091.9688 L491.5,1081.9688 L194.5,1081.9688 A0,0 0 0 0 194.5,1081.9688 " fill="#FEFFDD" style="stroke:#181818;stroke-width:0.5;"/><path d="M491.5,1081.9688 L491.5,1091.9688 L501.5,1091.9688 L491.5,1081.9688 " fill="#FEFFDD" style="stroke:#181818;stroke-width:0.5;"/><text fill="#000000" font-family="sans-serif" font-size="13" lengthAdjust="spacing" textLength="286" x="200.5" y="1099.0356">void drawShape(AsciiShape shape,int x,int y)</text><ellipse cx="164.5" cy="1094.5352" fill="#222222" rx="10" ry="10" style="stroke:#222222;stroke-width:1.0;"/><rect fill="#F1F1F1" height="33.9688" rx="12.5" ry="12.5" style="stroke:#181818;stroke-width:0.5;" width="150" x="89.5" y="1127.1016"/><text fill="#000000" font-family="sans-serif" font-size="12" lengthAdjust="spacing" textLength="130" x="99.5" y="1148.2402">shape.draw(this,x,y);</text><ellipse cx="164.5" cy="1191.0703" fill="none" rx="10" ry="10" style="stroke:#222222;stroke-width:1.5;"/><line style="stroke:#222222;stroke-width:2.5;" x1="158.3128" x2="170.6872" y1="1184.8831" y2="1197.2575"/><line style="stroke:#222222;stroke-width:2.5;" x1="170.6872" x2="158.3128" y1="1184.8831" y2="1197.2575"/><path d="M194.5,1211.0703 L194.5,1227.2031 L174.5,1231.2031 L194.5,1235.2031 L194.5,1251.3359 A0,0 0 0 0 194.5,1251.3359 L671.5,1251.3359 A0,0 0 0 0 671.5,1251.3359 L671.5,1221.0703 L661.5,1211.0703 L194.5,1211.0703 A0,0 0 0 0 194.5,1211.0703 " fill="#FEFFDD" style="stroke:#181818;stroke-width:0.5;"/><path d="M661.5,1211.0703 L661.5,1221.0703 L671.5,1221.0703 L661.5,1211.0703 " fill="#FEFFDD" style="stroke:#181818;stroke-width:0.5;"/><text fill="#000000" font-family="sans-serif" font-size="13" lengthAdjust="spacing" textLength="456" x="200.5" y="1228.1372">void drawStringsLRSimple(Collection&lt;?extendsCharSequence&gt; strings,</text><text fill="#000000" font-family="sans-serif" font-size="13" lengthAdjust="spacing" textLength="63" x="200.5" y="1243.27">int x,int y)</text><ellipse cx="164.5" cy="1231.2031" fill="#222222" rx="10" ry="10" style="stroke:#222222;stroke-width:1.0;"/><rect fill="#F1F1F1" height="33.9688" rx="12.5" ry="12.5" style="stroke:#181818;stroke-width:0.5;" width="65" x="132" y="1271.3359"/><text fill="#000000" font-family="sans-serif" font-size="12" lengthAdjust="spacing" textLength="45" x="142" y="1292.4746">int i=0;</text><rect fill="#F1F1F1" height="33.9688" rx="12.5" ry="12.5" style="stroke:#181818;stroke-width:0.5;" width="48" x="140.5" y="1373.707"/><text fill="#000000" font-family="sans-serif" font-size="12" lengthAdjust="spacing" textLength="28" x="150.5" y="1394.8457">x=0;</text><polygon fill="#F1F1F1" points="152.5,1325.3047,176.5,1325.3047,188.5,1337.3047,176.5,1349.3047,152.5,1349.3047,140.5,1337.3047,152.5,1325.3047" style="stroke:#181818;stroke-width:0.5;"/><text fill="#000000" font-family="sans-serif" font-size="11" lengthAdjust="spacing" textLength="20" x="168.5" y="1359.5151">yes</text><text fill="#000000" font-family="sans-serif" font-size="11" lengthAdjust="spacing" textLength="22" x="153.5" y="1341.1128">x&lt;0</text><polygon fill="#F1F1F1" points="164.5,1427.6758,176.5,1439.6758,164.5,1451.6758,152.5,1439.6758,164.5,1427.6758" style="stroke:#181818;stroke-width:0.5;"/><rect fill="#F1F1F1" height="33.9688" rx="12.5" ry="12.5" style="stroke:#181818;stroke-width:0.5;" width="286" x="21.5" y="1520.0781"/><text fill="#000000" font-family="sans-serif" font-size="12" lengthAdjust="spacing" textLength="266" x="31.5" y="1541.2168">s=((MessageNumber )s).getNumberRaw();</text><polygon fill="#F1F1F1" points="77.5,1471.6758,251.5,1471.6758,263.5,1483.6758,251.5,1495.6758,77.5,1495.6758,65.5,1483.6758,77.5,1471.6758" style="stroke:#181818;stroke-width:0.5;"/><text fill="#000000" font-family="sans-serif" font-size="11" lengthAdjust="spacing" textLength="20" x="168.5" y="1505.8862">yes</text><text fill="#000000" font-family="sans-serif" font-size="11" lengthAdjust="spacing" textLength="170" x="77.5" y="1487.4839">s instanceof MessageNumber</text><polygon fill="#F1F1F1" points="164.5,1574.0469,176.5,1586.0469,164.5,1598.0469,152.5,1586.0469,164.5,1574.0469" style="stroke:#181818;stroke-width:0.5;"/><rect fill="#F1F1F1" height="33.9688" rx="12.5" ry="12.5" style="stroke:#181818;stroke-width:0.5;" width="246" x="41.5" y="1618.0469"/><text fill="#000000" font-family="sans-serif" font-size="12" lengthAdjust="spacing" textLength="226" x="51.5" y="1639.1855">this.drawStringLR(s.toString(),x,y+i);</text><rect fill="#F1F1F1" height="33.9688" rx="12.5" ry="12.5" style="stroke:#181818;stroke-width:0.5;" width="47" x="141" y="1672.0156"/><text fill="#000000" font-family="sans-serif" font-size="12" lengthAdjust="spacing" textLength="27" x="151" y="1693.1543">i++;</text><ellipse cx="164.5" cy="1735.9844" fill="none" rx="10" ry="10" style="stroke:#222222;stroke-width:1.5;"/><line style="stroke:#222222;stroke-width:2.5;" x1="158.3128" x2="170.6872" y1="1729.7972" y2="1742.1716"/><line style="stroke:#222222;stroke-width:2.5;" x1="170.6872" x2="158.3128" y1="1729.7972" y2="1742.1716"/><path d="M194.5,1755.9844 L194.5,1772.1172 L174.5,1776.1172 L194.5,1780.1172 L194.5,1796.25 A0,0 0 0 0 194.5,1796.25 L679.5,1796.25 A0,0 0 0 0 679.5,1796.25 L679.5,1765.9844 L669.5,1755.9844 L194.5,1755.9844 A0,0 0 0 0 194.5,1755.9844 " fill="#FEFFDD" style="stroke:#181818;stroke-width:0.5;"/><path d="M669.5,1755.9844 L669.5,1765.9844 L679.5,1765.9844 L669.5,1755.9844 " fill="#FEFFDD" style="stroke:#181818;stroke-width:0.5;"/><text fill="#000000" font-family="sans-serif" font-size="13" lengthAdjust="spacing" textLength="464" x="200.5" y="1773.0513">void drawStringsLRUnicode(Collection&lt;?extendsCharSequence&gt; strings,</text><text fill="#000000" font-family="sans-serif" font-size="13" lengthAdjust="spacing" textLength="63" x="200.5" y="1788.1841">int x,int y)</text><ellipse cx="164.5" cy="1776.1172" fill="#222222" rx="10" ry="10" style="stroke:#222222;stroke-width:1.0;"/><rect fill="#F1F1F1" height="33.9688" rx="12.5" ry="12.5" style="stroke:#181818;stroke-width:0.5;" width="65" x="132" y="1816.25"/><text fill="#000000" font-family="sans-serif" font-size="12" lengthAdjust="spacing" textLength="45" x="142" y="1837.3887">int i=0;</text><rect fill="#F1F1F1" height="33.9688" rx="12.5" ry="12.5" style="stroke:#181818;stroke-width:0.5;" width="48" x="140.5" y="1918.6211"/><text fill="#000000" font-family="sans-serif" font-size="12" lengthAdjust="spacing" textLength="28" x="150.5" y="1939.7598">x=0;</text><polygon fill="#F1F1F1" points="152.5,1870.2188,176.5,1870.2188,188.5,1882.2188,176.5,1894.2188,152.5,1894.2188,140.5,1882.2188,152.5,1870.2188" style="stroke:#181818;stroke-width:0.5;"/><text fill="#000000" font-family="sans-serif" font-size="11" lengthAdjust="spacing" textLength="20" x="168.5" y="1904.4292">yes</text><text fill="#000000" font-family="sans-serif" font-size="11" lengthAdjust="spacing" textLength="22" x="153.5" y="1886.0269">x&lt;0</text><polygon fill="#F1F1F1" points="164.5,1972.5898,176.5,1984.5898,164.5,1996.5898,152.5,1984.5898,164.5,1972.5898" style="stroke:#181818;stroke-width:0.5;"/><rect fill="#F1F1F1" height="33.9688" rx="12.5" ry="12.5" style="stroke:#181818;stroke-width:0.5;" width="246" x="41.5" y="2016.5898"/><text fill="#000000" font-family="sans-serif" font-size="12" lengthAdjust="spacing" textLength="226" x="51.5" y="2037.7285">this.drawStringLR(s.toString(),x,y+i);</text><rect fill="#F1F1F1" height="33.9688" rx="12.5" ry="12.5" style="stroke:#181818;stroke-width:0.5;" width="47" x="141" y="2070.5586"/><text fill="#000000" font-family="sans-serif" font-size="12" lengthAdjust="spacing" textLength="27" x="151" y="2091.6973">i++;</text><ellipse cx="164.5" cy="2134.5273" fill="none" rx="10" ry="10" style="stroke:#222222;stroke-width:1.5;"/><line style="stroke:#222222;stroke-width:2.5;" x1="158.3128" x2="170.6872" y1="2128.3402" y2="2140.7145"/><line style="stroke:#222222;stroke-width:2.5;" x1="170.6872" x2="158.3128" y1="2128.3402" y2="2140.7145"/><path d="M194.5,2154.5273 L194.5,2170.6602 L174.5,2174.6602 L194.5,2178.6602 L194.5,2194.793 A0,0 0 0 0 194.5,2194.793 L474.5,2194.793 A0,0 0 0 0 474.5,2194.793 L474.5,2164.5273 L464.5,2154.5273 L194.5,2154.5273 A0,0 0 0 0 194.5,2154.5273 " fill="#FEFFDD" style="stroke:#181818;stroke-width:0.5;"/><path d="M464.5,2154.5273 L464.5,2164.5273 L474.5,2164.5273 L464.5,2154.5273 " fill="#FEFFDD" style="stroke:#181818;stroke-width:0.5;"/><text fill="#000000" font-family="sans-serif" font-size="13" lengthAdjust="spacing" textLength="259" x="200.5" y="2171.5942">void drawNoteSimple(int x,int y,int width,</text><text fill="#000000" font-family="sans-serif" font-size="13" lengthAdjust="spacing" textLength="65" x="200.5" y="2186.7271">int height)</text><ellipse cx="164.5" cy="2174.6602" fill="#222222" rx="10" ry="10" style="stroke:#222222;stroke-width:1.0;"/><rect fill="#F1F1F1" height="33.9688" rx="12.5" ry="12.5" style="stroke:#181818;stroke-width:0.5;" width="238" x="45.5" y="2214.793"/><text fill="#000000" font-family="sans-serif" font-size="12" lengthAdjust="spacing" textLength="218" x="55.5" y="2235.9316">this.drawHLine('-',y,x+1,x+width-1);</text><rect fill="#F1F1F1" height="33.9688" rx="12.5" ry="12.5" style="stroke:#181818;stroke-width:0.5;" width="300" x="14.5" y="2268.7617"/><text fill="#000000" font-family="sans-serif" font-size="12" lengthAdjust="spacing" textLength="280" x="24.5" y="2289.9004">this.drawHLine('-',y+height-1,x+1,x+width-1);</text><rect fill="#F1F1F1" height="33.9688" rx="12.5" ry="12.5" style="stroke:#181818;stroke-width:0.5;" width="244" x="42.5" y="2322.7305"/><text fill="#000000" font-family="sans-serif" font-size="12" lengthAdjust="spacing" textLength="224" x="52.5" y="2343.8691">this.drawVLine('|',x,y+1,y+height-1);</text><rect fill="#F1F1F1" height="33.9688" rx="12.5" ry="12.5" style="stroke:#181818;stroke-width:0.5;" width="299" x="15" y="2376.6992"/><text fill="#000000" font-family="sans-serif" font-size="12" lengthAdjust="spacing" textLength="279" x="25" y="2397.8379">this.drawVLine('|',x+width-1,y+1,y+height-1);</text><rect fill="#F1F1F1" height="33.9688" rx="12.5" ry="12.5" style="stroke:#181818;stroke-width:0.5;" width="150" x="89.5" y="2430.668"/><text fill="#000000" font-family="sans-serif" font-size="12" lengthAdjust="spacing" textLength="130" x="99.5" y="2451.8066">this.drawChar(',',x,y);</text><rect fill="#F1F1F1" height="33.9688" rx="12.5" ry="12.5" style="stroke:#181818;stroke-width:0.5;" width="240" x="44.5" y="2484.6367"/><text fill="#000000" font-family="sans-serif" font-size="12" lengthAdjust="spacing" textLength="220" x="54.5" y="2505.7754">this.drawStringLR("!. ",x+width-3,y);</text><rect fill="#F1F1F1" height="33.9688" rx="12.5" ry="12.5" style="stroke:#181818;stroke-width:0.5;" width="259" x="35" y="2538.6055"/><text fill="#000000" font-family="sans-serif" font-size="12" lengthAdjust="spacing" textLength="239" x="45" y="2559.7441">this.drawStringLR("|_\",x+width-3,y+1);</text><rect fill="#F1F1F1" height="33.9688" rx="12.5" ry="12.5" style="stroke:#181818;stroke-width:0.5;" width="212" x="58.5" y="2592.5742"/><text fill="#000000" font-family="sans-serif" font-size="12" lengthAdjust="spacing" textLength="192" x="68.5" y="2613.7129">this.drawChar(' ',x,y+height-1);</text><rect fill="#F1F1F1" height="33.9688" rx="12.5" ry="12.5" style="stroke:#181818;stroke-width:0.5;" width="270" x="29.5" y="2646.543"/><text fill="#000000" font-family="sans-serif" font-size="12" lengthAdjust="spacing" textLength="250" x="39.5" y="2667.6816">this.drawChar('\'',x+width-1,y+height-1);</text><ellipse cx="164.5" cy="2710.5117" fill="none" rx="10" ry="10" style="stroke:#222222;stroke-width:1.5;"/><line style="stroke:#222222;stroke-width:2.5;" x1="158.3128" x2="170.6872" y1="2704.3245" y2="2716.6989"/><line style="stroke:#222222;stroke-width:2.5;" x1="170.6872" x2="158.3128" y1="2704.3245" y2="2716.6989"/><path d="M194.5,2730.5117 L194.5,2746.6445 L174.5,2750.6445 L194.5,2754.6445 L194.5,2770.7773 A0,0 0 0 0 194.5,2770.7773 L526.5,2770.7773 A0,0 0 0 0 526.5,2770.7773 L526.5,2740.5117 L516.5,2730.5117 L194.5,2730.5117 A0,0 0 0 0 194.5,2730.5117 " fill="#FEFFDD" style="stroke:#181818;stroke-width:0.5;"/><path d="M516.5,2730.5117 L516.5,2740.5117 L526.5,2740.5117 L516.5,2730.5117 " fill="#FEFFDD" style="stroke:#181818;stroke-width:0.5;"/><text fill="#000000" font-family="sans-serif" font-size="13" lengthAdjust="spacing" textLength="311" x="200.5" y="2747.5786">void drawNoteSimpleUnicode(int x,int y,int width,</text><text fill="#000000" font-family="sans-serif" font-size="13" lengthAdjust="spacing" textLength="65" x="200.5" y="2762.7114">int height)</text><ellipse cx="164.5" cy="2750.6445" fill="#222222" rx="10" ry="10" style="stroke:#222222;stroke-width:1.0;"/><rect fill="#F1F1F1" height="33.9688" rx="12.5" ry="12.5" style="stroke:#181818;stroke-width:0.5;" width="263" x="33" y="2790.7773"/><text fill="#000000" font-family="sans-serif" font-size="12" lengthAdjust="spacing" textLength="243" x="43" y="2811.916">this.drawChar('\u2591',x+width-2,y+1);</text><rect fill="#F1F1F1" height="61.9063" rx="12.5" ry="12.5" style="stroke:#181818;stroke-width:0.5;" width="290" x="19.5" y="2844.7461"/><text fill="#000000" font-family="sans-serif" font-size="12" lengthAdjust="spacing" textLength="253" x="29.5" y="2865.8848">this.drawHLine('\u2550',y,x+1,x+width-1,</text><text fill="#000000" font-family="sans-serif" font-size="12" lengthAdjust="spacing" textLength="270" x="29.5" y="2879.8535">:this.drawHLine('\u2550',y+height-1,x+1,x+</text><text fill="#000000" font-family="sans-serif" font-size="12" lengthAdjust="spacing" textLength="162" x="29.5" y="2893.8223">width-1,'\u2502','\u2564');</text><rect fill="#F1F1F1" height="33.9688" rx="12.5" ry="12.5" style="stroke:#181818;stroke-width:0.5;" width="284" x="22.5" y="2926.6523"/><text fill="#000000" font-family="sans-serif" font-size="12" lengthAdjust="spacing" textLength="264" x="32.5" y="2947.791">this.drawVLine('\u2551',x,y+1,y+height-1);</text><rect fill="#F1F1F1" height="47.9375" rx="12.5" ry="12.5" style="stroke:#181818;stroke-width:0.5;" width="278" x="25.5" y="2980.6211"/><text fill="#000000" font-family="sans-serif" font-size="12" lengthAdjust="spacing" textLength="258" x="35.5" y="3001.7598">this.drawVLine('\u2551',x+width-1,y+1,y+</text><text fill="#000000" font-family="sans-serif" font-size="12" lengthAdjust="spacing" textLength="61" x="35.5" y="3015.7285">height-1);</text><rect fill="#F1F1F1" height="33.9688" rx="12.5" ry="12.5" style="stroke:#181818;stroke-width:0.5;" width="190" x="69.5" y="3048.5586"/><text fill="#000000" font-family="sans-serif" font-size="12" lengthAdjust="spacing" textLength="170" x="79.5" y="3069.6973">this.drawChar('\u2554',x,y);</text><rect fill="#F1F1F1" height="33.9688" rx="12.5" ry="12.5" style="stroke:#181818;stroke-width:0.5;" width="245" x="42" y="3102.5273"/><text fill="#000000" font-family="sans-serif" font-size="12" lengthAdjust="spacing" textLength="225" x="52" y="3123.666">this.drawChar('\u2557',x+width-1,y);</text><rect fill="#F1F1F1" height="33.9688" rx="12.5" ry="12.5" style="stroke:#181818;stroke-width:0.5;" width="252" x="38.5" y="3156.4961"/><text fill="#000000" font-family="sans-serif" font-size="12" lengthAdjust="spacing" textLength="232" x="48.5" y="3177.6348">this.drawChar('\u255a',x,y+height-1);</text><rect fill="#F1F1F1" height="33.9688" rx="12.5" ry="12.5" style="stroke:#181818;stroke-width:0.5;" width="307" x="11" y="3210.4648"/><text fill="#000000" font-family="sans-serif" font-size="12" lengthAdjust="spacing" textLength="287" x="21" y="3231.6035">this.drawChar('\u255d',x+width-1,y+height-1);</text><ellipse cx="164.5" cy="3274.4336" fill="none" rx="10" ry="10" style="stroke:#222222;stroke-width:1.5;"/><line style="stroke:#222222;stroke-width:2.5;" x1="158.3128" x2="170.6872" y1="3268.2464" y2="3280.6208"/><line style="stroke:#222222;stroke-width:2.5;" x1="170.6872" x2="158.3128" y1="3268.2464" y2="3280.6208"/><line style="stroke:#181818;stroke-width:1.0;" x1="164.5" x2="164.5" y1="40.1328" y2="70.2656"/><polygon fill="#181818" points="160.5,60.2656,164.5,70.2656,168.5,60.2656,164.5,64.2656" style="stroke:#181818;stroke-width:1.0;"/><line style="stroke:#181818;stroke-width:1.0;" x1="164.5" x2="164.5" y1="104.2344" y2="124.2344"/><polygon fill="#181818" points="160.5,114.2344,164.5,124.2344,168.5,114.2344,164.5,118.2344" style="stroke:#181818;stroke-width:1.0;"/><line style="stroke:#181818;stroke-width:1.0;" x1="164.5" x2="164.5" y1="158.2031" y2="178.2031"/><polygon fill="#181818" points="160.5,168.2031,164.5,178.2031,168.5,168.2031,164.5,172.2031" style="stroke:#181818;stroke-width:1.0;"/><line style="stroke:#181818;stroke-width:1.0;" x1="164.5" x2="164.5" y1="212.1719" y2="232.1719"/><polygon fill="#181818" points="160.5,222.1719,164.5,232.1719,168.5,222.1719,164.5,226.1719" style="stroke:#181818;stroke-width:1.0;"/><line style="stroke:#181818;stroke-width:1.0;" x1="164.5" x2="164.5" y1="266.1406" y2="286.1406"/><polygon fill="#181818" points="160.5,276.1406,164.5,286.1406,168.5,276.1406,164.5,280.1406" style="stroke:#181818;stroke-width:1.0;"/><line style="stroke:#181818;stroke-width:1.0;" x1="164.5" x2="164.5" y1="320.1094" y2="340.1094"/><polygon fill="#181818" points="160.5,330.1094,164.5,340.1094,168.5,330.1094,164.5,334.1094" style="stroke:#181818;stroke-width:1.0;"/><line style="stroke:#181818;stroke-width:1.0;" x1="164.5" x2="164.5" y1="374.0781" y2="394.0781"/><polygon fill="#181818" points="160.5,384.0781,164.5,394.0781,168.5,384.0781,164.5,388.0781" style="stroke:#181818;stroke-width:1.0;"/><line style="stroke:#181818;stroke-width:1.0;" x1="164.5" x2="164.5" y1="428.0469" y2="448.0469"/><polygon fill="#181818" points="160.5,438.0469,164.5,448.0469,168.5,438.0469,164.5,442.0469" style="stroke:#181818;stroke-width:1.0;"/><line style="stroke:#181818;stroke-width:1.0;" x1="164.5" x2="164.5" y1="482.0156" y2="502.0156"/><polygon fill="#181818" points="160.5,492.0156,164.5,502.0156,168.5,492.0156,164.5,496.0156" style="stroke:#181818;stroke-width:1.0;"/><line style="stroke:#181818;stroke-width:1.0;" x1="164.5" x2="164.5" y1="562.1484" y2="592.2813"/><polygon fill="#181818" points="160.5,582.2813,164.5,592.2813,168.5,582.2813,164.5,586.2813" style="stroke:#181818;stroke-width:1.0;"/><line style="stroke:#181818;stroke-width:1.0;" x1="164.5" x2="164.5" y1="626.25" y2="646.25"/><polygon fill="#181818" points="160.5,636.25,164.5,646.25,168.5,636.25,164.5,640.25" style="stroke:#181818;stroke-width:1.0;"/><line style="stroke:#181818;stroke-width:1.0;" x1="164.5" x2="164.5" y1="694.1875" y2="714.1875"/><polygon fill="#181818" points="160.5,704.1875,164.5,714.1875,168.5,704.1875,164.5,708.1875" style="stroke:#181818;stroke-width:1.0;"/><line style="stroke:#181818;stroke-width:1.0;" x1="164.5" x2="164.5" y1="748.1563" y2="768.1563"/><polygon fill="#181818" points="160.5,758.1563,164.5,768.1563,168.5,758.1563,164.5,762.1563" style="stroke:#181818;stroke-width:1.0;"/><line style="stroke:#181818;stroke-width:1.0;" x1="164.5" x2="164.5" y1="816.0938" y2="836.0938"/><polygon fill="#181818" points="160.5,826.0938,164.5,836.0938,168.5,826.0938,164.5,830.0938" style="stroke:#181818;stroke-width:1.0;"/><line style="stroke:#181818;stroke-width:1.0;" x1="164.5" x2="164.5" y1="870.0625" y2="890.0625"/><polygon fill="#181818" points="160.5,880.0625,164.5,890.0625,168.5,880.0625,164.5,884.0625" style="stroke:#181818;stroke-width:1.0;"/><line style="stroke:#181818;stroke-width:1.0;" x1="164.5" x2="164.5" y1="924.0313" y2="944.0313"/><polygon fill="#181818" points="160.5,934.0313,164.5,944.0313,168.5,934.0313,164.5,938.0313" style="stroke:#181818;stroke-width:1.0;"/><line style="stroke:#181818;stroke-width:1.0;" x1="164.5" x2="164.5" y1="978" y2="998"/><polygon fill="#181818" points="160.5,988,164.5,998,168.5,988,164.5,992" style="stroke:#181818;stroke-width:1.0;"/><line style="stroke:#181818;stroke-width:1.0;" x1="164.5" x2="164.5" y1="1031.9688" y2="1051.9688"/><polygon fill="#181818" points="160.5,1041.9688,164.5,1051.9688,168.5,1041.9688,164.5,1045.9688" style="stroke:#181818;stroke-width:1.0;"/><line style="stroke:#181818;stroke-width:1.0;" x1="164.5" x2="164.5" y1="1104.5352" y2="1127.1016"/><polygon fill="#181818" points="160.5,1117.1016,164.5,1127.1016,168.5,1117.1016,164.5,1121.1016" style="stroke:#181818;stroke-width:1.0;"/><line style="stroke:#181818;stroke-width:1.0;" x1="164.5" x2="164.5" y1="1161.0703" y2="1181.0703"/><polygon fill="#181818" points="160.5,1171.0703,164.5,1181.0703,168.5,1171.0703,164.5,1175.0703" style="stroke:#181818;stroke-width:1.0;"/><line style="stroke:#181818;stroke-width:1.0;" x1="164.5" x2="164.5" y1="1241.2031" y2="1271.3359"/><polygon fill="#181818" points="160.5,1261.3359,164.5,1271.3359,168.5,1261.3359,164.5,1265.3359" style="stroke:#181818;stroke-width:1.0;"/><line style="stroke:#181818;stroke-width:1.0;" x1="164.5" x2="164.5" y1="1349.3047" y2="1373.707"/><polygon fill="#181818" points="160.5,1363.707,164.5,1373.707,168.5,1363.707,164.5,1367.707" style="stroke:#181818;stroke-width:1.0;"/><line style="stroke:#181818;stroke-width:1.0;" x1="188.5" x2="200.5" y1="1337.3047" y2="1337.3047"/><polygon fill="#181818" points="196.5,1380.6914,200.5,1390.6914,204.5,1380.6914,200.5,1384.6914" style="stroke:#181818;stroke-width:1.0;"/><line style="stroke:#181818;stroke-width:1.0;" x1="200.5" x2="200.5" y1="1337.3047" y2="1439.6758"/><line style="stroke:#181818;stroke-width:1.0;" x1="200.5" x2="176.5" y1="1439.6758" y2="1439.6758"/><polygon fill="#181818" points="186.5,1435.6758,176.5,1439.6758,186.5,1443.6758,182.5,1439.6758" style="stroke:#181818;stroke-width:1.0;"/><line style="stroke:#181818;stroke-width:1.0;" x1="164.5" x2="164.5" y1="1407.6758" y2="1427.6758"/><polygon fill="#181818" points="160.5,1417.6758,164.5,1427.6758,168.5,1417.6758,164.5,1421.6758" style="stroke:#181818;stroke-width:1.0;"/><line style="stroke:#181818;stroke-width:1.0;" x1="164.5" x2="164.5" y1="1305.3047" y2="1325.3047"/><polygon fill="#181818" points="160.5,1315.3047,164.5,1325.3047,168.5,1315.3047,164.5,1319.3047" style="stroke:#181818;stroke-width:1.0;"/><line style="stroke:#181818;stroke-width:1.0;" x1="164.5" x2="164.5" y1="1495.6758" y2="1520.0781"/><polygon fill="#181818" points="160.5,1510.0781,164.5,1520.0781,168.5,1510.0781,164.5,1514.0781" style="stroke:#181818;stroke-width:1.0;"/><line style="stroke:#181818;stroke-width:1.0;" x1="263.5" x2="317.5" y1="1483.6758" y2="1483.6758"/><polygon fill="#181818" points="313.5,1527.0625,317.5,1537.0625,321.5,1527.0625,317.5,1531.0625" style="stroke:#181818;stroke-width:1.0;"/><line style="stroke:#181818;stroke-width:1.0;" x1="317.5" x2="317.5" y1="1483.6758" y2="1586.0469"/><line style="stroke:#181818;stroke-width:1.0;" x1="317.5" x2="176.5" y1="1586.0469" y2="1586.0469"/><polygon fill="#181818" points="186.5,1582.0469,176.5,1586.0469,186.5,1590.0469,182.5,1586.0469" style="stroke:#181818;stroke-width:1.0;"/><line style="stroke:#181818;stroke-width:1.0;" x1="164.5" x2="164.5" y1="1554.0469" y2="1574.0469"/><polygon fill="#181818" points="160.5,1564.0469,164.5,1574.0469,168.5,1564.0469,164.5,1568.0469" style="stroke:#181818;stroke-width:1.0;"/><line style="stroke:#181818;stroke-width:1.0;" x1="164.5" x2="164.5" y1="1451.6758" y2="1471.6758"/><polygon fill="#181818" points="160.5,1461.6758,164.5,1471.6758,168.5,1461.6758,164.5,1465.6758" style="stroke:#181818;stroke-width:1.0;"/><line style="stroke:#181818;stroke-width:1.0;" x1="164.5" x2="164.5" y1="1598.0469" y2="1618.0469"/><polygon fill="#181818" points="160.5,1608.0469,164.5,1618.0469,168.5,1608.0469,164.5,1612.0469" style="stroke:#181818;stroke-width:1.0;"/><line style="stroke:#181818;stroke-width:1.0;" x1="164.5" x2="164.5" y1="1652.0156" y2="1672.0156"/><polygon fill="#181818" points="160.5,1662.0156,164.5,1672.0156,168.5,1662.0156,164.5,1666.0156" style="stroke:#181818;stroke-width:1.0;"/><line style="stroke:#181818;stroke-width:1.0;" x1="164.5" x2="164.5" y1="1705.9844" y2="1725.9844"/><polygon fill="#181818" points="160.5,1715.9844,164.5,1725.9844,168.5,1715.9844,164.5,1719.9844" style="stroke:#181818;stroke-width:1.0;"/><line style="stroke:#181818;stroke-width:1.0;" x1="164.5" x2="164.5" y1="1786.1172" y2="1816.25"/><polygon fill="#181818" points="160.5,1806.25,164.5,1816.25,168.5,1806.25,164.5,1810.25" style="stroke:#181818;stroke-width:1.0;"/><line style="stroke:#181818;stroke-width:1.0;" x1="164.5" x2="164.5" y1="1894.2188" y2="1918.6211"/><polygon fill="#181818" points="160.5,1908.6211,164.5,1918.6211,168.5,1908.6211,164.5,1912.6211" style="stroke:#181818;stroke-width:1.0;"/><line style="stroke:#181818;stroke-width:1.0;" x1="188.5" x2="200.5" y1="1882.2188" y2="1882.2188"/><polygon fill="#181818" points="196.5,1925.6055,200.5,1935.6055,204.5,1925.6055,200.5,1929.6055" style="stroke:#181818;stroke-width:1.0;"/><line style="stroke:#181818;stroke-width:1.0;" x1="200.5" x2="200.5" y1="1882.2188" y2="1984.5898"/><line style="stroke:#181818;stroke-width:1.0;" x1="200.5" x2="176.5" y1="1984.5898" y2="1984.5898"/><polygon fill="#181818" points="186.5,1980.5898,176.5,1984.5898,186.5,1988.5898,182.5,1984.5898" style="stroke:#181818;stroke-width:1.0;"/><line style="stroke:#181818;stroke-width:1.0;" x1="164.5" x2="164.5" y1="1952.5898" y2="1972.5898"/><polygon fill="#181818" points="160.5,1962.5898,164.5,1972.5898,168.5,1962.5898,164.5,1966.5898" style="stroke:#181818;stroke-width:1.0;"/><line style="stroke:#181818;stroke-width:1.0;" x1="164.5" x2="164.5" y1="1850.2188" y2="1870.2188"/><polygon fill="#181818" points="160.5,1860.2188,164.5,1870.2188,168.5,1860.2188,164.5,1864.2188" style="stroke:#181818;stroke-width:1.0;"/><line style="stroke:#181818;stroke-width:1.0;" x1="164.5" x2="164.5" y1="1996.5898" y2="2016.5898"/><polygon fill="#181818" points="160.5,2006.5898,164.5,2016.5898,168.5,2006.5898,164.5,2010.5898" style="stroke:#181818;stroke-width:1.0;"/><line style="stroke:#181818;stroke-width:1.0;" x1="164.5" x2="164.5" y1="2050.5586" y2="2070.5586"/><polygon fill="#181818" points="160.5,2060.5586,164.5,2070.5586,168.5,2060.5586,164.5,2064.5586" style="stroke:#181818;stroke-width:1.0;"/><line style="stroke:#181818;stroke-width:1.0;" x1="164.5" x2="164.5" y1="2104.5273" y2="2124.5273"/><polygon fill="#181818" points="160.5,2114.5273,164.5,2124.5273,168.5,2114.5273,164.5,2118.5273" style="stroke:#181818;stroke-width:1.0;"/><line style="stroke:#181818;stroke-width:1.0;" x1="164.5" x2="164.5" y1="2184.6602" y2="2214.793"/><polygon fill="#181818" points="160.5,2204.793,164.5,2214.793,168.5,2204.793,164.5,2208.793" style="stroke:#181818;stroke-width:1.0;"/><line style="stroke:#181818;stroke-width:1.0;" x1="164.5" x2="164.5" y1="2248.7617" y2="2268.7617"/><polygon fill="#181818" points="160.5,2258.7617,164.5,2268.7617,168.5,2258.7617,164.5,2262.7617" style="stroke:#181818;stroke-width:1.0;"/><line style="stroke:#181818;stroke-width:1.0;" x1="164.5" x2="164.5" y1="2302.7305" y2="2322.7305"/><polygon fill="#181818" points="160.5,2312.7305,164.5,2322.7305,168.5,2312.7305,164.5,2316.7305" style="stroke:#181818;stroke-width:1.0;"/><line style="stroke:#181818;stroke-width:1.0;" x1="164.5" x2="164.5" y1="2356.6992" y2="2376.6992"/><polygon fill="#181818" points="160.5,2366.6992,164.5,2376.6992,168.5,2366.6992,164.5,2370.6992" style="stroke:#181818;stroke-width:1.0;"/><line style="stroke:#181818;stroke-width:1.0;" x1="164.5" x2="164.5" y1="2410.668" y2="2430.668"/><polygon fill="#181818" points="160.5,2420.668,164.5,2430.668,168.5,2420.668,164.5,2424.668" style="stroke:#181818;stroke-width:1.0;"/><line style="stroke:#181818;stroke-width:1.0;" x1="164.5" x2="164.5" y1="2464.6367" y2="2484.6367"/><polygon fill="#181818" points="160.5,2474.6367,164.5,2484.6367,168.5,2474.6367,164.5,2478.6367" style="stroke:#181818;stroke-width:1.0;"/><line style="stroke:#181818;stroke-width:1.0;" x1="164.5" x2="164.5" y1="2518.6055" y2="2538.6055"/><polygon fill="#181818" points="160.5,2528.6055,164.5,2538.6055,168.5,2528.6055,164.5,2532.6055" style="stroke:#181818;stroke-width:1.0;"/><line style="stroke:#181818;stroke-width:1.0;" x1="164.5" x2="164.5" y1="2572.5742" y2="2592.5742"/><polygon fill="#181818" points="160.5,2582.5742,164.5,2592.5742,168.5,2582.5742,164.5,2586.5742" style="stroke:#181818;stroke-width:1.0;"/><line style="stroke:#181818;stroke-width:1.0;" x1="164.5" x2="164.5" y1="2626.543" y2="2646.543"/><polygon fill="#181818" points="160.5,2636.543,164.5,2646.543,168.5,2636.543,164.5,2640.543" style="stroke:#181818;stroke-width:1.0;"/><line style="stroke:#181818;stroke-width:1.0;" x1="164.5" x2="164.5" y1="2680.5117" y2="2700.5117"/><polygon fill="#181818" points="160.5,2690.5117,164.5,2700.5117,168.5,2690.5117,164.5,2694.5117" style="stroke:#181818;stroke-width:1.0;"/><line style="stroke:#181818;stroke-width:1.0;" x1="164.5" x2="164.5" y1="2760.6445" y2="2790.7773"/><polygon fill="#181818" points="160.5,2780.7773,164.5,2790.7773,168.5,2780.7773,164.5,2784.7773" style="stroke:#181818;stroke-width:1.0;"/><line style="stroke:#181818;stroke-width:1.0;" x1="164.5" x2="164.5" y1="2824.7461" y2="2844.7461"/><polygon fill="#181818" points="160.5,2834.7461,164.5,2844.7461,168.5,2834.7461,164.5,2838.7461" style="stroke:#181818;stroke-width:1.0;"/><line style="stroke:#181818;stroke-width:1.0;" x1="164.5" x2="164.5" y1="2906.6523" y2="2926.6523"/><polygon fill="#181818" points="160.5,2916.6523,164.5,2926.6523,168.5,2916.6523,164.5,2920.6523" style="stroke:#181818;stroke-width:1.0;"/><line style="stroke:#181818;stroke-width:1.0;" x1="164.5" x2="164.5" y1="2960.6211" y2="2980.6211"/><polygon fill="#181818" points="160.5,2970.6211,164.5,2980.6211,168.5,2970.6211,164.5,2974.6211" style="stroke:#181818;stroke-width:1.0;"/><line style="stroke:#181818;stroke-width:1.0;" x1="164.5" x2="164.5" y1="3028.5586" y2="3048.5586"/><polygon fill="#181818" points="160.5,3038.5586,164.5,3048.5586,168.5,3038.5586,164.5,3042.5586" style="stroke:#181818;stroke-width:1.0;"/><line style="stroke:#181818;stroke-width:1.0;" x1="164.5" x2="164.5" y1="3082.5273" y2="3102.5273"/><polygon fill="#181818" points="160.5,3092.5273,164.5,3102.5273,168.5,3092.5273,164.5,3096.5273" style="stroke:#181818;stroke-width:1.0;"/><line style="stroke:#181818;stroke-width:1.0;" x1="164.5" x2="164.5" y1="3136.4961" y2="3156.4961"/><polygon fill="#181818" points="160.5,3146.4961,164.5,3156.4961,168.5,3146.4961,164.5,3150.4961" style="stroke:#181818;stroke-width:1.0;"/><line style="stroke:#181818;stroke-width:1.0;" x1="164.5" x2="164.5" y1="3190.4648" y2="3210.4648"/><polygon fill="#181818" points="160.5,3200.4648,164.5,3210.4648,168.5,3200.4648,164.5,3204.4648" style="stroke:#181818;stroke-width:1.0;"/><line style="stroke:#181818;stroke-width:1.0;" x1="164.5" x2="164.5" y1="3244.4336" y2="3264.4336"/><polygon fill="#181818" points="160.5,3254.4336,164.5,3264.4336,168.5,3254.4336,164.5,3258.4336" style="stroke:#181818;stroke-width:1.0;"/><!--MD5=[8ac66af48d26f901195a0337266eddf5]
@startuml
!pragma layout smetana
start
note right
void drawBoxSimple(int x,int y,int width,
int height)
end note
:this.drawHLine('-',y,x+1,x+width-1);;
:this.drawHLine('-',y+height-1,x+1,x+width-1);;
:this.drawVLine('|',x,y+1,y+height-1);;
:this.drawVLine('|',x+width-1,y+1,y+height-1);;
:this.drawChar(',',x,y);;
:this.drawChar('.',x+width-1,y);;
:this.drawChar(' ',x,y+height-1);;
:this.drawChar('\'',x+width-1,y+height-1);;
end
start
note right
void drawBoxSimpleUnicode(int x,int y,int width,
int height)
end note
:this.drawHLine('\u2500',y,x+1,x+width-1);;
:this.drawHLine('\u2500',y+height-1,x+1,x+
width-1);;
:this.drawVLine('\u2502',x,y+1,y+height-1);;
:this.drawVLine('\u2502',x+width-1,y+1,y+
height-1);;
:this.drawChar('\u250c',x,y);;
:this.drawChar('\u2510',x+width-1,y);;
:this.drawChar('\u2514',x,y+height-1);;
:this.drawChar('\u2518',x+width-1,y+height-1);;
end
start
note right
void drawShape(AsciiShape shape,int x,int y)
end note
:shape.draw(this,x,y);;
end
start
note right
void drawStringsLRSimple(Collection<?extendsCharSequence> strings,
int x,int y)
end note
:int i=0;;
if (x<0) then (yes) 
:x=0;;
endif 
if (s instanceof MessageNumber ) then (yes) 
:s=((MessageNumber )s).getNumberRaw();;
endif 
:this.drawStringLR(s.toString(),x,y+i);;
:i++;;
end
start
note right
void drawStringsLRUnicode(Collection<?extendsCharSequence> strings,
int x,int y)
end note
:int i=0;;
if (x<0) then (yes) 
:x=0;;
endif 
:this.drawStringLR(s.toString(),x,y+i);;
:i++;;
end
start
note right
void drawNoteSimple(int x,int y,int width,
int height)
end note
:this.drawHLine('-',y,x+1,x+width-1);;
:this.drawHLine('-',y+height-1,x+1,x+width-1);;
:this.drawVLine('|',x,y+1,y+height-1);;
:this.drawVLine('|',x+width-1,y+1,y+height-1);;
:this.drawChar(',',x,y);;
:this.drawStringLR("!. ",x+width-3,y);;
:this.drawStringLR("|_\\",x+width-3,y+1);;
:this.drawChar(' ',x,y+height-1);;
:this.drawChar('\'',x+width-1,y+height-1);;
end
start
note right
void drawNoteSimpleUnicode(int x,int y,int width,
int height)
end note
:this.drawChar('\u2591',x+width-2,y+1);;
:this.drawHLine('\u2550',y,x+1,x+width-1,
'\u2502','\u2567');;
:this.drawHLine('\u2550',y+height-1,x+1,x+
width-1,'\u2502','\u2564');;
:this.drawVLine('\u2551',x,y+1,y+height-1);;
:this.drawVLine('\u2551',x+width-1,y+1,y+
height-1);;
:this.drawChar('\u2554',x,y);;
:this.drawChar('\u2557',x+width-1,y);;
:this.drawChar('\u255a',x,y+height-1);;
:this.drawChar('\u255d',x+width-1,y+height-1);;
end
@enduml

@startuml
!pragma layout smetana
start
note right
void drawBoxSimple(int x,int y,int width,
int height)
end note
:this.drawHLine('-',y,x+1,x+width-1);;
:this.drawHLine('-',y+height-1,x+1,x+width-1);;
:this.drawVLine('|',x,y+1,y+height-1);;
:this.drawVLine('|',x+width-1,y+1,y+height-1);;
:this.drawChar(',',x,y);;
:this.drawChar('.',x+width-1,y);;
:this.drawChar(' ',x,y+height-1);;
:this.drawChar('\'',x+width-1,y+height-1);;
end
start
note right
void drawBoxSimpleUnicode(int x,int y,int width,
int height)
end note
:this.drawHLine('\u2500',y,x+1,x+width-1);;
:this.drawHLine('\u2500',y+height-1,x+1,x+
width-1);;
:this.drawVLine('\u2502',x,y+1,y+height-1);;
:this.drawVLine('\u2502',x+width-1,y+1,y+
height-1);;
:this.drawChar('\u250c',x,y);;
:this.drawChar('\u2510',x+width-1,y);;
:this.drawChar('\u2514',x,y+height-1);;
:this.drawChar('\u2518',x+width-1,y+height-1);;
end
start
note right
void drawShape(AsciiShape shape,int x,int y)
end note
:shape.draw(this,x,y);;
end
start
note right
void drawStringsLRSimple(Collection<?extendsCharSequence> strings,
int x,int y)
end note
:int i=0;;
if (x<0) then (yes) 
:x=0;;
endif 
if (s instanceof MessageNumber ) then (yes) 
:s=((MessageNumber )s).getNumberRaw();;
endif 
:this.drawStringLR(s.toString(),x,y+i);;
:i++;;
end
start
note right
void drawStringsLRUnicode(Collection<?extendsCharSequence> strings,
int x,int y)
end note
:int i=0;;
if (x<0) then (yes) 
:x=0;;
endif 
:this.drawStringLR(s.toString(),x,y+i);;
:i++;;
end
start
note right
void drawNoteSimple(int x,int y,int width,
int height)
end note
:this.drawHLine('-',y,x+1,x+width-1);;
:this.drawHLine('-',y+height-1,x+1,x+width-1);;
:this.drawVLine('|',x,y+1,y+height-1);;
:this.drawVLine('|',x+width-1,y+1,y+height-1);;
:this.drawChar(',',x,y);;
:this.drawStringLR("!. ",x+width-3,y);;
:this.drawStringLR("|_\\",x+width-3,y+1);;
:this.drawChar(' ',x,y+height-1);;
:this.drawChar('\'',x+width-1,y+height-1);;
end
start
note right
void drawNoteSimpleUnicode(int x,int y,int width,
int height)
end note
:this.drawChar('\u2591',x+width-2,y+1);;
:this.drawHLine('\u2550',y,x+1,x+width-1,
:this.drawHLine('\u2550',y+height-1,x+1,x+
width-1,'\u2502','\u2564');;
:this.drawVLine('\u2551',x,y+1,y+height-1);;
:this.drawVLine('\u2551',x+width-1,y+1,y+
height-1);;
:this.drawChar('\u2554',x,y);;
:this.drawChar('\u2557',x+width-1,y);;
:this.drawChar('\u255a',x,y+height-1);;
:this.drawChar('\u255d',x+width-1,y+height-1);;
end
@enduml

PlantUML version 1.2022.7(Mon Aug 22 17:01:30 UTC 2022)
(GPL source distribution)
Java Runtime: OpenJDK Runtime Environment
JVM: OpenJDK 64-Bit Server VM
Default Encoding: UTF-8
Language: en
Country: null
--></g></svg>