<?xml version="1.0" encoding="UTF-8" standalone="no"?><svg xmlns="http://www.w3.org/2000/svg" xmlns:xlink="http://www.w3.org/1999/xlink" contentStyleType="text/css" height="236px" preserveAspectRatio="none" style="width:292px;height:236px;background:#FFFFFF;" version="1.1" viewBox="0 0 292 236" width="292px" zoomAndPan="magnify"><defs/><g><!--MD5=[aa8f7b917213fcc1c2766e2d59b49067]
cluster java.lang--><g id="cluster_java.lang"><path d="M100.5,6 L170.5,6 A3.75,3.75 0 0 1 173,8.5 L180,28.2969 L189.5,28.2969 A2.5,2.5 0 0 1 192,30.7969 L192,86.5 A2.5,2.5 0 0 1 189.5,89 L100.5,89 A2.5,2.5 0 0 1 98,86.5 L98,8.5 A2.5,2.5 0 0 1 100.5,6 " fill="none" style="stroke:#000000;stroke-width:1.5;"/><line style="stroke:#000000;stroke-width:1.5;" x1="98" x2="180" y1="28.2969" y2="28.2969"/><text fill="#000000" font-family="sans-serif" font-size="14" font-weight="bold" lengthAdjust="spacing" textLength="69" x="102" y="20.9951">java.lang</text></g><!--MD5=[9fa75e32692aeb577bcef9a1970e41e6]
cluster net.sourceforge.plantuml.asciiart--><g id="cluster_net.sourceforge.plantuml.asciiart"><path d="M8.5,97 L272.5,97 A3.75,3.75 0 0 1 275,99.5 L282,119.2969 L282.5,119.2969 A2.5,2.5 0 0 1 285,121.7969 L285,226.5 A2.5,2.5 0 0 1 282.5,229 L8.5,229 A2.5,2.5 0 0 1 6,226.5 L6,99.5 A2.5,2.5 0 0 1 8.5,97 " fill="none" style="stroke:#000000;stroke-width:1.5;"/><line style="stroke:#000000;stroke-width:1.5;" x1="6" x2="282" y1="119.2969" y2="119.2969"/><text fill="#000000" font-family="sans-serif" font-size="14" font-weight="bold" lengthAdjust="spacing" textLength="263" x="10" y="111.9951">net.sourceforge.plantuml.asciiart</text></g><!--MD5=[274ad5661286b626a93603d287cbf95a]
class java.lang.Object--><g id="elem_java.lang.Object"><rect fill="#F1F1F1" height="48" id="java.lang.Object" rx="2.5" ry="2.5" style="stroke:#181818;stroke-width:0.5;" width="77" x="106.5" y="33"/><ellipse cx="121.5" cy="49" fill="#ADD1B2" rx="11" ry="11" style="stroke:#181818;stroke-width:1.0;"/><path d="M124.4688,54.6406 Q123.8906,54.9375 123.25,55.0781 Q122.6094,55.2344 121.9063,55.2344 Q119.4063,55.2344 118.0781,53.5938 Q116.7656,51.9375 116.7656,48.8125 Q116.7656,45.6875 118.0781,44.0313 Q119.4063,42.375 121.9063,42.375 Q122.6094,42.375 123.25,42.5313 Q123.9063,42.6875 124.4688,42.9844 L124.4688,45.7031 Q123.8438,45.125 123.25,44.8594 Q122.6563,44.5781 122.0313,44.5781 Q120.6875,44.5781 120,45.6563 Q119.3125,46.7188 119.3125,48.8125 Q119.3125,50.9063 120,51.9844 Q120.6875,53.0469 122.0313,53.0469 Q122.6563,53.0469 123.25,52.7813 Q123.8438,52.5 124.4688,51.9219 L124.4688,54.6406 Z " fill="#000000"/><text fill="#000000" font-family="sans-serif" font-size="14" lengthAdjust="spacing" textLength="45" x="135.5" y="53.8467">Object</text><line style="stroke:#181818;stroke-width:0.5;" x1="107.5" x2="182.5" y1="65" y2="65"/><line style="stroke:#181818;stroke-width:0.5;" x1="107.5" x2="182.5" y1="73" y2="73"/></g><!--MD5=[383232b806ac9671cc230c8d7acec1c5]
class net.sourceforge.plantuml.asciiart.Wcwidth--><g id="elem_net.sourceforge.plantuml.asciiart.Wcwidth"><rect codeLine="3" fill="#F1F1F1" height="96.8906" id="net.sourceforge.plantuml.asciiart.Wcwidth" rx="2.5" ry="2.5" style="stroke:#181818;stroke-width:0.5;" width="213" x="38.5" y="124"/><ellipse cx="111.75" cy="140" fill="#ADD1B2" rx="11" ry="11" style="stroke:#181818;stroke-width:1.0;"/><path d="M114.7188,145.6406 Q114.1406,145.9375 113.5,146.0781 Q112.8594,146.2344 112.1563,146.2344 Q109.6563,146.2344 108.3281,144.5938 Q107.0156,142.9375 107.0156,139.8125 Q107.0156,136.6875 108.3281,135.0313 Q109.6563,133.375 112.1563,133.375 Q112.8594,133.375 113.5,133.5313 Q114.1563,133.6875 114.7188,133.9844 L114.7188,136.7031 Q114.0938,136.125 113.5,135.8594 Q112.9063,135.5781 112.2813,135.5781 Q110.9375,135.5781 110.25,136.6563 Q109.5625,137.7188 109.5625,139.8125 Q109.5625,141.9063 110.25,142.9844 Q110.9375,144.0469 112.2813,144.0469 Q112.9063,144.0469 113.5,143.7813 Q114.0938,143.5 114.7188,142.9219 L114.7188,145.6406 Z " fill="#000000"/><text fill="#000000" font-family="sans-serif" font-size="14" lengthAdjust="spacing" textLength="58" x="132.25" y="144.8467">Wcwidth</text><line style="stroke:#181818;stroke-width:0.5;" x1="39.5" x2="250.5" y1="156" y2="156"/><line style="stroke:#181818;stroke-width:0.5;" x1="39.5" x2="250.5" y1="164" y2="164"/><a href="./../../../../../.././qc/src/net/sourceforge/plantuml/asciiart/Wcwidth.java.html#1" target="_top" title="./../../../../../.././qc/src/net/sourceforge/plantuml/asciiart/Wcwidth.java.html#1" xlink:actuate="onRequest" xlink:href="./../../../../../.././qc/src/net/sourceforge/plantuml/asciiart/Wcwidth.java.html#1" xlink:show="new" xlink:title="./../../../../../.././qc/src/net/sourceforge/plantuml/asciiart/Wcwidth.java.html#1" xlink:type="simple"><text fill="#000000" font-family="sans-serif" font-size="14" lengthAdjust="spacing" textLength="155" x="58.5" y="180.9951">bisearch(int) : boolean</text></a><a href="./../../../../../.././qc/src/net/sourceforge/plantuml/asciiart/Wcwidth.java.html#1" target="_top" title="./../../../../../.././qc/src/net/sourceforge/plantuml/asciiart/Wcwidth.java.html#1" xlink:actuate="onRequest" xlink:href="./../../../../../.././qc/src/net/sourceforge/plantuml/asciiart/Wcwidth.java.html#1" xlink:show="new" xlink:title="./../../../../../.././qc/src/net/sourceforge/plantuml/asciiart/Wcwidth.java.html#1" xlink:type="simple"><rect fill="#F1F1F1" height="10" style="stroke:none;stroke-width:1.0;" width="20" x="44.5" y="188.9453"/><ellipse cx="49.5" cy="193.9453" fill="#84BE84" rx="3" ry="3" style="stroke:#038048;stroke-width:1.0;"/></a><a href="./../../../../../.././qc/src/net/sourceforge/plantuml/asciiart/Wcwidth.java.html#1" target="_top" title="./../../../../../.././qc/src/net/sourceforge/plantuml/asciiart/Wcwidth.java.html#1" xlink:actuate="onRequest" xlink:href="./../../../../../.././qc/src/net/sourceforge/plantuml/asciiart/Wcwidth.java.html#1" xlink:show="new" xlink:title="./../../../../../.././qc/src/net/sourceforge/plantuml/asciiart/Wcwidth.java.html#1" xlink:type="simple"><text fill="#000000" font-family="sans-serif" font-size="14" lengthAdjust="spacing" textLength="70" x="58.5" y="197.292">of(int) : int</text></a><a href="./../../../../../.././qc/src/net/sourceforge/plantuml/asciiart/Wcwidth.java.html#1" target="_top" title="./../../../../../.././qc/src/net/sourceforge/plantuml/asciiart/Wcwidth.java.html#1" xlink:actuate="onRequest" xlink:href="./../../../../../.././qc/src/net/sourceforge/plantuml/asciiart/Wcwidth.java.html#1" xlink:show="new" xlink:title="./../../../../../.././qc/src/net/sourceforge/plantuml/asciiart/Wcwidth.java.html#1" xlink:type="simple"><rect fill="#F1F1F1" height="10" style="stroke:none;stroke-width:1.0;" width="20" x="44.5" y="205.2422"/><ellipse cx="49.5" cy="210.2422" fill="#84BE84" rx="3" ry="3" style="stroke:#038048;stroke-width:1.0;"/></a><a href="./../../../../../.././qc/src/net/sourceforge/plantuml/asciiart/Wcwidth.java.html#1" target="_top" title="./../../../../../.././qc/src/net/sourceforge/plantuml/asciiart/Wcwidth.java.html#1" xlink:actuate="onRequest" xlink:href="./../../../../../.././qc/src/net/sourceforge/plantuml/asciiart/Wcwidth.java.html#1" xlink:show="new" xlink:title="./../../../../../.././qc/src/net/sourceforge/plantuml/asciiart/Wcwidth.java.html#1" xlink:type="simple"><text fill="#000000" font-family="sans-serif" font-size="14" lengthAdjust="spacing" textLength="187" x="58.5" y="213.5889">length(CharSequence) : int</text></a></g><path d="M145,81.2423 C145,93.5648 145,109.1711 145,123.9272 " fill="none" style="stroke:#181818;stroke-width:1.0;"/><polygon fill="#FFFFFF" points="145,81.2423,139,97.2423,151,97.2423,145,81.2423" style="stroke:#181818;stroke-width:1.0;"/><!--MD5=[6ff809267d2be963daad977530faad2b]
@startuml
!pragma layout smetana
"java.lang.Object" <|- - "net.sourceforge.plantuml.asciiart.Wcwidth"
class net.sourceforge.plantuml.asciiart.Wcwidth {
bisearch(int) : boolean [[[./../../../../../.././qc/src/net/sourceforge/plantuml/asciiart/Wcwidth.java.html#1]]]
+of(int) : int [[[./../../../../../.././qc/src/net/sourceforge/plantuml/asciiart/Wcwidth.java.html#1]]]
+length(CharSequence) : int [[[./../../../../../.././qc/src/net/sourceforge/plantuml/asciiart/Wcwidth.java.html#1]]]
} 
@enduml

PlantUML version 1.2022.7(Mon Aug 22 17:01:30 UTC 2022)
(GPL source distribution)
Java Runtime: OpenJDK Runtime Environment
JVM: OpenJDK 64-Bit Server VM
Default Encoding: UTF-8
Language: en
Country: null
--></g></svg>