<?xml version="1.0" encoding="UTF-8" standalone="no"?><svg xmlns="http://www.w3.org/2000/svg" xmlns:xlink="http://www.w3.org/1999/xlink" contentStyleType="text/css" height="2601px" preserveAspectRatio="none" style="width:2398px;height:2601px;background:#FFFFFF;" version="1.1" viewBox="0 0 2398 2601" width="2398px" zoomAndPan="magnify"><defs/><g><path d="M1240.5,10 L1240.5,26.1328 L1220.5,30.1328 L1240.5,34.1328 L1240.5,50.2656 A0,0 0 0 0 1240.5,50.2656 L1554.5,50.2656 A0,0 0 0 0 1554.5,50.2656 L1554.5,20 L1544.5,10 L1240.5,10 A0,0 0 0 0 1240.5,10 " fill="#FEFFDD" style="stroke:#181818;stroke-width:0.5;"/><path d="M1544.5,10 L1544.5,20 L1554.5,20 L1544.5,10 " fill="#FEFFDD" style="stroke:#181818;stroke-width:0.5;"/><text fill="#000000" font-family="sans-serif" font-size="13" lengthAdjust="spacing" textLength="293" x="1246.5" y="27.0669">constructor EaterFunctionCall(StringLocateds,</text><text fill="#000000" font-family="sans-serif" font-size="13" lengthAdjust="spacing" textLength="268" x="1246.5" y="42.1997">booleanisLegacyDefine,booleanunquoted)</text><ellipse cx="1210.5" cy="30.1328" fill="#222222" rx="10" ry="10" style="stroke:#222222;stroke-width:1.0;"/><rect fill="#F1F1F1" height="33.9688" rx="12.5" ry="12.5" style="stroke:#181818;stroke-width:0.5;" width="81" x="1170" y="70.2656"/><text fill="#000000" font-family="sans-serif" font-size="12" lengthAdjust="spacing" textLength="61" x="1180" y="91.4043">super (s);</text><rect fill="#F1F1F1" height="33.9688" rx="12.5" ry="12.5" style="stroke:#181818;stroke-width:0.5;" width="247" x="1087" y="124.2344"/><text fill="#000000" font-family="sans-serif" font-size="12" lengthAdjust="spacing" textLength="227" x="1097" y="145.373">this.isLegacyDefine=isLegacyDefine;</text><rect fill="#F1F1F1" height="33.9688" rx="12.5" ry="12.5" style="stroke:#181818;stroke-width:0.5;" width="183" x="1119" y="178.2031"/><text fill="#000000" font-family="sans-serif" font-size="12" lengthAdjust="spacing" textLength="163" x="1129" y="199.3418">this.unquoted=unquoted;</text><ellipse cx="1210.5" cy="242.1719" fill="none" rx="10" ry="10" style="stroke:#222222;stroke-width:1.5;"/><line style="stroke:#222222;stroke-width:2.5;" x1="1204.3128" x2="1216.6872" y1="235.9847" y2="248.3591"/><line style="stroke:#222222;stroke-width:2.5;" x1="1216.6872" x2="1204.3128" y1="235.9847" y2="248.3591"/><path d="M1240.5,262.1719 L1240.5,270.7383 L1220.5,274.7383 L1240.5,278.7383 L1240.5,287.3047 A0,0 0 0 0 1240.5,287.3047 L1572.5,287.3047 A0,0 0 0 0 1572.5,287.3047 L1572.5,272.1719 L1562.5,262.1719 L1240.5,262.1719 A0,0 0 0 0 1240.5,262.1719 " fill="#FEFFDD" style="stroke:#181818;stroke-width:0.5;"/><path d="M1562.5,262.1719 L1562.5,272.1719 L1572.5,272.1719 L1562.5,262.1719 " fill="#FEFFDD" style="stroke:#181818;stroke-width:0.5;"/><text fill="#000000" font-family="sans-serif" font-size="13" lengthAdjust="spacing" textLength="311" x="1246.5" y="279.2388">void analyze(TContextcontext,TMemorymemory)</text><ellipse cx="1210.5" cy="274.7383" fill="#222222" rx="10" ry="10" style="stroke:#222222;stroke-width:1.0;"/><rect fill="#F1F1F1" height="33.9688" rx="12.5" ry="12.5" style="stroke:#181818;stroke-width:0.5;" width="127" x="1147" y="307.3047"/><text fill="#000000" font-family="sans-serif" font-size="12" lengthAdjust="spacing" textLength="107" x="1157" y="328.4434">skipUntilChar('(');</text><rect fill="#F1F1F1" height="33.9688" rx="12.5" ry="12.5" style="stroke:#181818;stroke-width:0.5;" width="156" x="1132.5" y="361.2734"/><text fill="#000000" font-family="sans-serif" font-size="12" lengthAdjust="spacing" textLength="136" x="1142.5" y="382.4121">checkAndEatChar('(');</text><rect fill="#F1F1F1" height="33.9688" rx="12.5" ry="12.5" style="stroke:#181818;stroke-width:0.5;" width="105" x="1158" y="415.2422"/><text fill="#000000" font-family="sans-serif" font-size="12" lengthAdjust="spacing" textLength="85" x="1168" y="436.3809">skipSpaces();</text><rect fill="#F1F1F1" height="33.9688" rx="12.5" ry="12.5" style="stroke:#181818;stroke-width:0.5;" width="156" x="1132.5" y="517.6133"/><text fill="#000000" font-family="sans-serif" font-size="12" lengthAdjust="spacing" textLength="136" x="1142.5" y="538.752">checkAndEatChar(')');</text><rect fill="#F1F1F1" height="33.9688" rx="12.5" ry="12.5" style="stroke:#181818;stroke-width:0.5;" width="67" x="1177" y="571.582"/><text fill="#000000" font-family="sans-serif" font-size="12" lengthAdjust="spacing" textLength="47" x="1187" y="592.7207">return ;</text><ellipse cx="1210.5" cy="636.5508" fill="none" rx="11" ry="11" style="stroke:#222222;stroke-width:1.0;"/><ellipse cx="1210.5" cy="636.5508" fill="#222222" rx="6" ry="6" style="stroke:#111111;stroke-width:1.0;"/><polygon fill="#F1F1F1" points="1165.5,469.2109,1255.5,469.2109,1267.5,481.2109,1255.5,493.2109,1165.5,493.2109,1153.5,481.2109,1165.5,469.2109" style="stroke:#181818;stroke-width:0.5;"/><text fill="#000000" font-family="sans-serif" font-size="11" lengthAdjust="spacing" textLength="20" x="1214.5" y="503.4214">yes</text><text fill="#000000" font-family="sans-serif" font-size="11" lengthAdjust="spacing" textLength="90" x="1165.5" y="485.019">peekChar()==')'</text><rect fill="#F1F1F1" height="33.9688" rx="12.5" ry="12.5" style="stroke:#181818;stroke-width:0.5;" width="105" x="1158" y="733.5508"/><text fill="#000000" font-family="sans-serif" font-size="12" lengthAdjust="spacing" textLength="85" x="1168" y="754.6895">skipSpaces();</text><polygon fill="#F1F1F1" points="209,787.5195,294,787.5195,306,799.5195,294,811.5195,209,811.5195,197,799.5195,209,787.5195" style="stroke:#181818;stroke-width:0.5;"/><text fill="#000000" font-family="sans-serif" font-size="11" lengthAdjust="spacing" textLength="20" x="255.5" y="821.73">yes</text><text fill="#000000" font-family="sans-serif" font-size="11" lengthAdjust="spacing" textLength="85" x="209" y="803.3276">isLegacyDefine</text><rect fill="#F1F1F1" height="33.9688" rx="12.5" ry="12.5" style="stroke:#181818;stroke-width:0.5;" width="342" x="80.5" y="844.3242"/><text fill="#000000" font-family="sans-serif" font-size="12" lengthAdjust="spacing" textLength="322" x="90.5" y="865.4629">final Stringread=eatAndGetOptionalQuotedString();</text><rect fill="#F1F1F1" height="47.9375" rx="12.5" ry="12.5" style="stroke:#181818;stroke-width:0.5;" width="415" x="44" y="913.293"/><text fill="#000000" font-family="sans-serif" font-size="12" lengthAdjust="spacing" textLength="395" x="54" y="934.4316">final Stringvalue=context.applyFunctionsAndVariables(memory,</text><text fill="#000000" font-family="sans-serif" font-size="12" lengthAdjust="spacing" textLength="151" x="54" y="948.4004">getLineLocation(),read);</text><rect fill="#F1F1F1" height="33.9688" rx="12.5" ry="12.5" style="stroke:#181818;stroke-width:0.5;" width="296" x="103.5" y="996.2305"/><text fill="#000000" font-family="sans-serif" font-size="12" lengthAdjust="spacing" textLength="276" x="113.5" y="1017.3691">final TValueresult=TValue.fromString(value);</text><rect fill="#F1F1F1" height="33.9688" rx="12.5" ry="12.5" style="stroke:#181818;stroke-width:0.5;" width="138" x="182.5" y="1065.1992"/><text fill="#000000" font-family="sans-serif" font-size="12" lengthAdjust="spacing" textLength="118" x="192.5" y="1086.3379">values.add(result);</text><polygon fill="#F1F1F1" points="867.5,787.5195,920.5,787.5195,932.5,799.5195,920.5,811.5195,867.5,811.5195,855.5,799.5195,867.5,787.5195" style="stroke:#181818;stroke-width:0.5;"/><text fill="#000000" font-family="sans-serif" font-size="11" lengthAdjust="spacing" textLength="20" x="898" y="821.73">yes</text><text fill="#000000" font-family="sans-serif" font-size="11" lengthAdjust="spacing" textLength="53" x="867.5" y="803.3276">unquoted</text><text fill="#000000" font-family="sans-serif" font-size="11" lengthAdjust="spacing" textLength="14" x="932.5" y="796.9253">no</text><polygon fill="#F1F1F1" points="842.5,844.3242,945.5,844.3242,957.5,856.3242,945.5,868.3242,842.5,868.3242,830.5,856.3242,842.5,844.3242" style="stroke:#181818;stroke-width:0.5;"/><text fill="#000000" font-family="sans-serif" font-size="11" lengthAdjust="spacing" textLength="103" x="842.5" y="860.1323">matchAffectation()</text><text fill="#000000" font-family="sans-serif" font-size="11" lengthAdjust="spacing" textLength="20" x="810.5" y="853.73">yes</text><text fill="#000000" font-family="sans-serif" font-size="11" lengthAdjust="spacing" textLength="14" x="957.5" y="853.73">no</text><rect fill="#F1F1F1" height="33.9688" rx="12.5" ry="12.5" style="stroke:#181818;stroke-width:0.5;" width="288" x="532.5" y="878.3242"/><text fill="#000000" font-family="sans-serif" font-size="12" lengthAdjust="spacing" textLength="268" x="542.5" y="899.4629">final Stringvarname=eatAndGetVarname();</text><rect fill="#F1F1F1" height="33.9688" rx="12.5" ry="12.5" style="stroke:#181818;stroke-width:0.5;" width="105" x="624" y="947.293"/><text fill="#000000" font-family="sans-serif" font-size="12" lengthAdjust="spacing" textLength="85" x="634" y="968.4316">skipSpaces();</text><rect fill="#F1F1F1" height="33.9688" rx="12.5" ry="12.5" style="stroke:#181818;stroke-width:0.5;" width="161" x="596" y="1016.2617"/><text fill="#000000" font-family="sans-serif" font-size="12" lengthAdjust="spacing" textLength="141" x="606" y="1037.4004">checkAndEatChar('=');</text><rect fill="#F1F1F1" height="33.9688" rx="12.5" ry="12.5" style="stroke:#181818;stroke-width:0.5;" width="105" x="624" y="1085.2305"/><text fill="#000000" font-family="sans-serif" font-size="12" lengthAdjust="spacing" textLength="85" x="634" y="1106.3691">skipSpaces();</text><rect fill="#F1F1F1" height="33.9688" rx="12.5" ry="12.5" style="stroke:#181818;stroke-width:0.5;" width="342" x="505.5" y="1154.1992"/><text fill="#000000" font-family="sans-serif" font-size="12" lengthAdjust="spacing" textLength="322" x="515.5" y="1175.3379">final Stringread=eatAndGetOptionalQuotedString();</text><rect fill="#F1F1F1" height="47.9375" rx="12.5" ry="12.5" style="stroke:#181818;stroke-width:0.5;" width="415" x="469" y="1211.75"/><text fill="#000000" font-family="sans-serif" font-size="12" lengthAdjust="spacing" textLength="395" x="479" y="1232.8887">final Stringvalue=context.applyFunctionsAndVariables(memory,</text><text fill="#000000" font-family="sans-serif" font-size="12" lengthAdjust="spacing" textLength="151" x="479" y="1246.8574">getLineLocation(),read);</text><rect fill="#F1F1F1" height="33.9688" rx="12.5" ry="12.5" style="stroke:#181818;stroke-width:0.5;" width="296" x="528.5" y="1290.0742"/><text fill="#000000" font-family="sans-serif" font-size="12" lengthAdjust="spacing" textLength="276" x="538.5" y="1311.2129">final TValueresult=TValue.fromString(value);</text><rect fill="#F1F1F1" height="33.9688" rx="12.5" ry="12.5" style="stroke:#181818;stroke-width:0.5;" width="264" x="544.5" y="1347.625"/><text fill="#000000" font-family="sans-serif" font-size="12" lengthAdjust="spacing" textLength="244" x="554.5" y="1368.7637">namedArguments.put(varname,result);</text><rect fill="#F1F1F1" height="33.9688" rx="12.5" ry="12.5" style="stroke:#181818;stroke-width:0.5;" width="342" x="940.5" y="878.3242"/><text fill="#000000" font-family="sans-serif" font-size="12" lengthAdjust="spacing" textLength="322" x="950.5" y="899.4629">final Stringread=eatAndGetOptionalQuotedString();</text><rect fill="#F1F1F1" height="47.9375" rx="12.5" ry="12.5" style="stroke:#181818;stroke-width:0.5;" width="415" x="904" y="947.293"/><text fill="#000000" font-family="sans-serif" font-size="12" lengthAdjust="spacing" textLength="395" x="914" y="968.4316">final Stringvalue=context.applyFunctionsAndVariables(memory,</text><text fill="#000000" font-family="sans-serif" font-size="12" lengthAdjust="spacing" textLength="151" x="914" y="982.4004">getLineLocation(),read);</text><rect fill="#F1F1F1" height="33.9688" rx="12.5" ry="12.5" style="stroke:#181818;stroke-width:0.5;" width="296" x="963.5" y="1030.2305"/><text fill="#000000" font-family="sans-serif" font-size="12" lengthAdjust="spacing" textLength="276" x="973.5" y="1051.3691">final TValueresult=TValue.fromString(value);</text><rect fill="#F1F1F1" height="33.9688" rx="12.5" ry="12.5" style="stroke:#181818;stroke-width:0.5;" width="138" x="1042.5" y="1099.1992"/><text fill="#000000" font-family="sans-serif" font-size="12" lengthAdjust="spacing" textLength="118" x="1052.5" y="1120.3379">values.add(result);</text><polygon fill="#F1F1F1" points="894,1387.5938,906,1399.5938,894,1411.5938,882,1399.5938,894,1387.5938" style="stroke:#181818;stroke-width:0.5;"/><polygon fill="#F1F1F1" points="1821.5,833.9375,1924.5,833.9375,1936.5,845.9375,1924.5,857.9375,1821.5,857.9375,1809.5,845.9375,1821.5,833.9375" style="stroke:#181818;stroke-width:0.5;"/><text fill="#000000" font-family="sans-serif" font-size="11" lengthAdjust="spacing" textLength="103" x="1821.5" y="849.7456">matchAffectation()</text><text fill="#000000" font-family="sans-serif" font-size="11" lengthAdjust="spacing" textLength="20" x="1789.5" y="843.3433">yes</text><text fill="#000000" font-family="sans-serif" font-size="11" lengthAdjust="spacing" textLength="14" x="1936.5" y="843.3433">no</text><rect fill="#F1F1F1" height="33.9688" rx="12.5" ry="12.5" style="stroke:#181818;stroke-width:0.5;" width="288" x="1467" y="867.9375"/><text fill="#000000" font-family="sans-serif" font-size="12" lengthAdjust="spacing" textLength="268" x="1477" y="889.0762">final Stringvarname=eatAndGetVarname();</text><rect fill="#F1F1F1" height="33.9688" rx="12.5" ry="12.5" style="stroke:#181818;stroke-width:0.5;" width="105" x="1558.5" y="936.9063"/><text fill="#000000" font-family="sans-serif" font-size="12" lengthAdjust="spacing" textLength="85" x="1568.5" y="958.0449">skipSpaces();</text><rect fill="#F1F1F1" height="33.9688" rx="12.5" ry="12.5" style="stroke:#181818;stroke-width:0.5;" width="161" x="1530.5" y="1005.875"/><text fill="#000000" font-family="sans-serif" font-size="12" lengthAdjust="spacing" textLength="141" x="1540.5" y="1027.0137">checkAndEatChar('=');</text><rect fill="#F1F1F1" height="33.9688" rx="12.5" ry="12.5" style="stroke:#181818;stroke-width:0.5;" width="105" x="1558.5" y="1074.8438"/><text fill="#000000" font-family="sans-serif" font-size="12" lengthAdjust="spacing" textLength="85" x="1568.5" y="1095.9824">skipSpaces();</text><rect fill="#F1F1F1" height="47.9375" rx="12.5" ry="12.5" style="stroke:#181818;stroke-width:0.5;" width="504" x="1359" y="1143.8125"/><text fill="#000000" font-family="sans-serif" font-size="12" lengthAdjust="spacing" textLength="484" x="1369" y="1164.9512">final TokenStacktokens=TokenStack.eatUntilCloseParenthesisOrComma(this)</text><text fill="#000000" font-family="sans-serif" font-size="12" lengthAdjust="spacing" textLength="103" x="1369" y="1178.9199">.withoutSpace();</text><rect fill="#F1F1F1" height="33.9688" rx="12.5" ry="12.5" style="stroke:#181818;stroke-width:0.5;" width="180" x="1521" y="1215.332"/><text fill="#000000" font-family="sans-serif" font-size="12" lengthAdjust="spacing" textLength="160" x="1531" y="1236.4707">tokens.guessFunctions();</text><rect fill="#F1F1F1" height="47.9375" rx="12.5" ry="12.5" style="stroke:#181818;stroke-width:0.5;" width="363" x="1429.5" y="1279.6875"/><text fill="#000000" font-family="sans-serif" font-size="12" lengthAdjust="spacing" textLength="343" x="1439.5" y="1300.8262">final TValueresult=tokens.getResult(getLineLocation(),</text><text fill="#000000" font-family="sans-serif" font-size="12" lengthAdjust="spacing" textLength="109" x="1439.5" y="1314.7949">context,memory);</text><rect fill="#F1F1F1" height="33.9688" rx="12.5" ry="12.5" style="stroke:#181818;stroke-width:0.5;" width="264" x="1479" y="1351.207"/><text fill="#000000" font-family="sans-serif" font-size="12" lengthAdjust="spacing" textLength="244" x="1489" y="1372.3457">namedArguments.put(varname,result);</text><rect fill="#F1F1F1" height="47.9375" rx="12.5" ry="12.5" style="stroke:#181818;stroke-width:0.5;" width="504" x="1883" y="867.9375"/><text fill="#000000" font-family="sans-serif" font-size="12" lengthAdjust="spacing" textLength="484" x="1893" y="889.0762">final TokenStacktokens=TokenStack.eatUntilCloseParenthesisOrComma(this)</text><text fill="#000000" font-family="sans-serif" font-size="12" lengthAdjust="spacing" textLength="103" x="1893" y="903.0449">.withoutSpace();</text><rect fill="#F1F1F1" height="33.9688" rx="12.5" ry="12.5" style="stroke:#181818;stroke-width:0.5;" width="180" x="2045" y="950.875"/><text fill="#000000" font-family="sans-serif" font-size="12" lengthAdjust="spacing" textLength="160" x="2055" y="972.0137">tokens.guessFunctions();</text><rect fill="#F1F1F1" height="47.9375" rx="12.5" ry="12.5" style="stroke:#181818;stroke-width:0.5;" width="363" x="1953.5" y="1019.8438"/><text fill="#000000" font-family="sans-serif" font-size="12" lengthAdjust="spacing" textLength="343" x="1963.5" y="1040.9824">final TValueresult=tokens.getResult(getLineLocation(),</text><text fill="#000000" font-family="sans-serif" font-size="12" lengthAdjust="spacing" textLength="109" x="1963.5" y="1054.9512">context,memory);</text><rect fill="#F1F1F1" height="33.9688" rx="12.5" ry="12.5" style="stroke:#181818;stroke-width:0.5;" width="138" x="2066" y="1102.7813"/><text fill="#000000" font-family="sans-serif" font-size="12" lengthAdjust="spacing" textLength="118" x="2076" y="1123.9199">values.add(result);</text><polygon fill="#F1F1F1" points="1873,1391.1758,1885,1403.1758,1873,1415.1758,1861,1403.1758,1873,1391.1758" style="stroke:#181818;stroke-width:0.5;"/><rect fill="#F1F1F1" height="33.9688" rx="12.5" ry="12.5" style="stroke:#181818;stroke-width:0.5;" width="105" x="1158" y="1455.1758"/><text fill="#000000" font-family="sans-serif" font-size="12" lengthAdjust="spacing" textLength="85" x="1168" y="1476.3145">skipSpaces();</text><rect fill="#F1F1F1" height="33.9688" rx="12.5" ry="12.5" style="stroke:#181818;stroke-width:0.5;" width="192" x="1114.5" y="1509.1445"/><text fill="#000000" font-family="sans-serif" font-size="12" lengthAdjust="spacing" textLength="172" x="1124.5" y="1530.2832">final charch=eatOneChar();</text><rect fill="#F1F1F1" height="33.9688" rx="12.5" ry="12.5" style="stroke:#181818;stroke-width:0.5;" width="83" x="1169" y="1611.5156"/><text fill="#000000" font-family="sans-serif" font-size="12" lengthAdjust="spacing" textLength="63" x="1179" y="1632.6543">continue ;</text><polygon fill="#F1F1F1" points="1190,1563.1133,1231,1563.1133,1243,1575.1133,1231,1587.1133,1190,1587.1133,1178,1575.1133,1190,1563.1133" style="stroke:#181818;stroke-width:0.5;"/><text fill="#000000" font-family="sans-serif" font-size="11" lengthAdjust="spacing" textLength="20" x="1214.5" y="1597.3237">yes</text><text fill="#000000" font-family="sans-serif" font-size="11" lengthAdjust="spacing" textLength="41" x="1190" y="1578.9214">ch==','</text><polygon fill="#F1F1F1" points="1210.5,1665.4844,1222.5,1677.4844,1210.5,1689.4844,1198.5,1677.4844,1210.5,1665.4844" style="stroke:#181818;stroke-width:0.5;"/><rect fill="#F1F1F1" height="33.9688" rx="12.5" ry="12.5" style="stroke:#181818;stroke-width:0.5;" width="64" x="1178.5" y="1757.8867"/><text fill="#000000" font-family="sans-serif" font-size="12" lengthAdjust="spacing" textLength="44" x="1188.5" y="1779.0254">break ;</text><polygon fill="#F1F1F1" points="1190,1709.4844,1231,1709.4844,1243,1721.4844,1231,1733.4844,1190,1733.4844,1178,1721.4844,1190,1709.4844" style="stroke:#181818;stroke-width:0.5;"/><text fill="#000000" font-family="sans-serif" font-size="11" lengthAdjust="spacing" textLength="20" x="1214.5" y="1743.6948">yes</text><text fill="#000000" font-family="sans-serif" font-size="11" lengthAdjust="spacing" textLength="41" x="1190" y="1725.2925">ch==')'</text><polygon fill="#F1F1F1" points="1210.5,1811.8555,1222.5,1823.8555,1210.5,1835.8555,1198.5,1823.8555,1210.5,1811.8555" style="stroke:#181818;stroke-width:0.5;"/><rect fill="#F1F1F1" height="33.9688" rx="12.5" ry="12.5" style="stroke:#181818;stroke-width:0.5;" width="565" x="928" y="1904.2578"/><text fill="#000000" font-family="sans-serif" font-size="12" lengthAdjust="spacing" textLength="545" x="938" y="1925.3965">throw EaterException.located("unquoted function/procedure cannot use expression.");</text><ellipse cx="1210.5" cy="1977.7422" fill="none" rx="11" ry="11" style="stroke:#222222;stroke-width:1.0;"/><ellipse cx="1210.5" cy="1977.7422" fill="#222222" rx="6" ry="6" style="stroke:#111111;stroke-width:1.0;"/><polygon fill="#F1F1F1" points="1184,1855.8555,1237,1855.8555,1249,1867.8555,1237,1879.8555,1184,1879.8555,1172,1867.8555,1184,1855.8555" style="stroke:#181818;stroke-width:0.5;"/><text fill="#000000" font-family="sans-serif" font-size="11" lengthAdjust="spacing" textLength="20" x="1214.5" y="1890.0659">yes</text><text fill="#000000" font-family="sans-serif" font-size="11" lengthAdjust="spacing" textLength="53" x="1184" y="1871.6636">unquoted</text><rect fill="#F1F1F1" height="33.9688" rx="12.5" ry="12.5" style="stroke:#181818;stroke-width:0.5;" width="274" x="1073.5" y="2030.7422"/><text fill="#000000" font-family="sans-serif" font-size="12" lengthAdjust="spacing" textLength="254" x="1083.5" y="2051.8809">throw EaterException.located("call001");</text><ellipse cx="1210.5" cy="2095.7109" fill="none" rx="11" ry="11" style="stroke:#222222;stroke-width:1.0;"/><ellipse cx="1210.5" cy="2095.7109" fill="#222222" rx="6" ry="6" style="stroke:#111111;stroke-width:1.0;"/><polygon fill="#F1F1F1" points="1198.5,689.5508,1222.5,689.5508,1234.5,701.5508,1222.5,713.5508,1198.5,713.5508,1186.5,701.5508,1198.5,689.5508" style="stroke:#181818;stroke-width:0.5;"/><text fill="#000000" font-family="sans-serif" font-size="11" lengthAdjust="spacing" textLength="23" x="1199" y="705.3589">true</text><ellipse cx="24" cy="743.5508" fill="none" rx="10" ry="10" style="stroke:#222222;stroke-width:1.5;"/><line style="stroke:#222222;stroke-width:2.5;" x1="17.8128" x2="30.1872" y1="737.3636" y2="749.738"/><line style="stroke:#222222;stroke-width:2.5;" x1="30.1872" x2="17.8128" y1="737.3636" y2="749.738"/><path d="M1240.5,2116.7109 L1240.5,2125.2773 L1220.5,2129.2773 L1240.5,2133.2773 L1240.5,2141.8438 A0,0 0 0 0 1240.5,2141.8438 L1422.5,2141.8438 A0,0 0 0 0 1422.5,2141.8438 L1422.5,2126.7109 L1412.5,2116.7109 L1240.5,2116.7109 A0,0 0 0 0 1240.5,2116.7109 " fill="#FEFFDD" style="stroke:#181818;stroke-width:0.5;"/><path d="M1412.5,2116.7109 L1412.5,2126.7109 L1422.5,2126.7109 L1412.5,2116.7109 " fill="#FEFFDD" style="stroke:#181818;stroke-width:0.5;"/><text fill="#000000" font-family="sans-serif" font-size="13" lengthAdjust="spacing" textLength="161" x="1246.5" y="2133.7778">List&lt;TValue&gt;getValues()</text><ellipse cx="1210.5" cy="2129.2773" fill="#222222" rx="10" ry="10" style="stroke:#222222;stroke-width:1.0;"/><rect fill="#F1F1F1" height="33.9688" rx="12.5" ry="12.5" style="stroke:#181818;stroke-width:0.5;" width="290" x="1065.5" y="2161.8438"/><text fill="#000000" font-family="sans-serif" font-size="12" lengthAdjust="spacing" textLength="270" x="1075.5" y="2182.9824">return Collections.unmodifiableList(values);</text><ellipse cx="1210.5" cy="2226.8125" fill="none" rx="11" ry="11" style="stroke:#222222;stroke-width:1.0;"/><ellipse cx="1210.5" cy="2226.8125" fill="#222222" rx="6" ry="6" style="stroke:#111111;stroke-width:1.0;"/><ellipse cx="1210.5" cy="2257.8125" fill="none" rx="10" ry="10" style="stroke:#222222;stroke-width:1.5;"/><line style="stroke:#222222;stroke-width:2.5;" x1="1204.3128" x2="1216.6872" y1="2251.6253" y2="2263.9997"/><line style="stroke:#222222;stroke-width:2.5;" x1="1216.6872" x2="1204.3128" y1="2251.6253" y2="2263.9997"/><path d="M1240.5,2277.8125 L1240.5,2286.3789 L1220.5,2290.3789 L1240.5,2294.3789 L1240.5,2302.9453 A0,0 0 0 0 1240.5,2302.9453 L1544.5,2302.9453 A0,0 0 0 0 1544.5,2302.9453 L1544.5,2287.8125 L1534.5,2277.8125 L1240.5,2277.8125 A0,0 0 0 0 1240.5,2277.8125 " fill="#FEFFDD" style="stroke:#181818;stroke-width:0.5;"/><path d="M1534.5,2277.8125 L1534.5,2287.8125 L1544.5,2287.8125 L1534.5,2277.8125 " fill="#FEFFDD" style="stroke:#181818;stroke-width:0.5;"/><text fill="#000000" font-family="sans-serif" font-size="13" lengthAdjust="spacing" textLength="283" x="1246.5" y="2294.8794">Map&lt;String,TValue&gt;getNamedArguments()</text><ellipse cx="1210.5" cy="2290.3789" fill="#222222" rx="10" ry="10" style="stroke:#222222;stroke-width:1.0;"/><rect fill="#F1F1F1" height="33.9688" rx="12.5" ry="12.5" style="stroke:#181818;stroke-width:0.5;" width="366" x="1027.5" y="2322.9453"/><text fill="#000000" font-family="sans-serif" font-size="12" lengthAdjust="spacing" textLength="346" x="1037.5" y="2344.084">return Collections.unmodifiableMap(namedArguments);</text><ellipse cx="1210.5" cy="2387.9141" fill="none" rx="11" ry="11" style="stroke:#222222;stroke-width:1.0;"/><ellipse cx="1210.5" cy="2387.9141" fill="#222222" rx="6" ry="6" style="stroke:#111111;stroke-width:1.0;"/><ellipse cx="1210.5" cy="2418.9141" fill="none" rx="10" ry="10" style="stroke:#222222;stroke-width:1.5;"/><line style="stroke:#222222;stroke-width:2.5;" x1="1204.3128" x2="1216.6872" y1="2412.7269" y2="2425.1012"/><line style="stroke:#222222;stroke-width:2.5;" x1="1216.6872" x2="1204.3128" y1="2412.7269" y2="2425.1012"/><path d="M1240.5,2438.9141 L1240.5,2447.4805 L1220.5,2451.4805 L1240.5,2455.4805 L1240.5,2464.0469 A0,0 0 0 0 1240.5,2464.0469 L1394.5,2464.0469 A0,0 0 0 0 1394.5,2464.0469 L1394.5,2448.9141 L1384.5,2438.9141 L1240.5,2438.9141 A0,0 0 0 0 1240.5,2438.9141 " fill="#FEFFDD" style="stroke:#181818;stroke-width:0.5;"/><path d="M1384.5,2438.9141 L1384.5,2448.9141 L1394.5,2448.9141 L1384.5,2438.9141 " fill="#FEFFDD" style="stroke:#181818;stroke-width:0.5;"/><text fill="#000000" font-family="sans-serif" font-size="13" lengthAdjust="spacing" textLength="133" x="1246.5" y="2455.981">StringgetEndOfLine()</text><ellipse cx="1210.5" cy="2451.4805" fill="#222222" rx="10" ry="10" style="stroke:#222222;stroke-width:1.0;"/><rect fill="#F1F1F1" height="33.9688" rx="12.5" ry="12.5" style="stroke:#181818;stroke-width:0.5;" width="178" x="1121.5" y="2484.0469"/><text fill="#000000" font-family="sans-serif" font-size="12" lengthAdjust="spacing" textLength="158" x="1131.5" y="2505.1855">return this.eatAllToEnd();</text><ellipse cx="1210.5" cy="2549.0156" fill="none" rx="11" ry="11" style="stroke:#222222;stroke-width:1.0;"/><ellipse cx="1210.5" cy="2549.0156" fill="#222222" rx="6" ry="6" style="stroke:#111111;stroke-width:1.0;"/><ellipse cx="1210.5" cy="2580.0156" fill="none" rx="10" ry="10" style="stroke:#222222;stroke-width:1.5;"/><line style="stroke:#222222;stroke-width:2.5;" x1="1204.3128" x2="1216.6872" y1="2573.8284" y2="2586.2028"/><line style="stroke:#222222;stroke-width:2.5;" x1="1216.6872" x2="1204.3128" y1="2573.8284" y2="2586.2028"/><line style="stroke:#181818;stroke-width:1.0;" x1="1210.5" x2="1210.5" y1="40.1328" y2="70.2656"/><polygon fill="#181818" points="1206.5,60.2656,1210.5,70.2656,1214.5,60.2656,1210.5,64.2656" style="stroke:#181818;stroke-width:1.0;"/><line style="stroke:#181818;stroke-width:1.0;" x1="1210.5" x2="1210.5" y1="104.2344" y2="124.2344"/><polygon fill="#181818" points="1206.5,114.2344,1210.5,124.2344,1214.5,114.2344,1210.5,118.2344" style="stroke:#181818;stroke-width:1.0;"/><line style="stroke:#181818;stroke-width:1.0;" x1="1210.5" x2="1210.5" y1="158.2031" y2="178.2031"/><polygon fill="#181818" points="1206.5,168.2031,1210.5,178.2031,1214.5,168.2031,1210.5,172.2031" style="stroke:#181818;stroke-width:1.0;"/><line style="stroke:#181818;stroke-width:1.0;" x1="1210.5" x2="1210.5" y1="212.1719" y2="232.1719"/><polygon fill="#181818" points="1206.5,222.1719,1210.5,232.1719,1214.5,222.1719,1210.5,226.1719" style="stroke:#181818;stroke-width:1.0;"/><line style="stroke:#181818;stroke-width:1.0;" x1="1210.5" x2="1210.5" y1="284.7383" y2="307.3047"/><polygon fill="#181818" points="1206.5,297.3047,1210.5,307.3047,1214.5,297.3047,1210.5,301.3047" style="stroke:#181818;stroke-width:1.0;"/><line style="stroke:#181818;stroke-width:1.0;" x1="1210.5" x2="1210.5" y1="341.2734" y2="361.2734"/><polygon fill="#181818" points="1206.5,351.2734,1210.5,361.2734,1214.5,351.2734,1210.5,355.2734" style="stroke:#181818;stroke-width:1.0;"/><line style="stroke:#181818;stroke-width:1.0;" x1="1210.5" x2="1210.5" y1="395.2422" y2="415.2422"/><polygon fill="#181818" points="1206.5,405.2422,1210.5,415.2422,1214.5,405.2422,1210.5,409.2422" style="stroke:#181818;stroke-width:1.0;"/><line style="stroke:#181818;stroke-width:1.0;" x1="1210.5" x2="1210.5" y1="551.582" y2="571.582"/><polygon fill="#181818" points="1206.5,561.582,1210.5,571.582,1214.5,561.582,1210.5,565.582" style="stroke:#181818;stroke-width:1.0;"/><line style="stroke:#181818;stroke-width:1.0;" x1="1210.5" x2="1210.5" y1="605.5508" y2="625.5508"/><polygon fill="#181818" points="1206.5,615.5508,1210.5,625.5508,1214.5,615.5508,1210.5,619.5508" style="stroke:#181818;stroke-width:1.0;"/><line style="stroke:#181818;stroke-width:1.0;" x1="1210.5" x2="1210.5" y1="493.2109" y2="517.6133"/><polygon fill="#181818" points="1206.5,507.6133,1210.5,517.6133,1214.5,507.6133,1210.5,511.6133" style="stroke:#181818;stroke-width:1.0;"/><line style="stroke:#181818;stroke-width:1.0;" x1="1267.5" x2="1298.5" y1="481.2109" y2="481.2109"/><polygon fill="#181818" points="1294.5,569.582,1298.5,579.582,1302.5,569.582,1298.5,573.582" style="stroke:#181818;stroke-width:1.0;"/><line style="stroke:#181818;stroke-width:1.0;" x1="1298.5" x2="1298.5" y1="481.2109" y2="669.5508"/><line style="stroke:#181818;stroke-width:1.0;" x1="1298.5" x2="1210.5" y1="669.5508" y2="669.5508"/><line style="stroke:#181818;stroke-width:1.0;" x1="1210.5" x2="1210.5" y1="669.5508" y2="689.5508"/><polygon fill="#181818" points="1206.5,679.5508,1210.5,689.5508,1214.5,679.5508,1210.5,683.5508" style="stroke:#181818;stroke-width:1.0;"/><line style="stroke:#181818;stroke-width:1.0;" x1="1210.5" x2="1210.5" y1="449.2109" y2="469.2109"/><polygon fill="#181818" points="1206.5,459.2109,1210.5,469.2109,1214.5,459.2109,1210.5,463.2109" style="stroke:#181818;stroke-width:1.0;"/><line style="stroke:#181818;stroke-width:1.0;" x1="251.5" x2="251.5" y1="878.293" y2="913.293"/><polygon fill="#181818" points="247.5,903.293,251.5,913.293,255.5,903.293,251.5,907.293" style="stroke:#181818;stroke-width:1.0;"/><line style="stroke:#181818;stroke-width:1.0;" x1="251.5" x2="251.5" y1="961.2305" y2="996.2305"/><polygon fill="#181818" points="247.5,986.2305,251.5,996.2305,255.5,986.2305,251.5,990.2305" style="stroke:#181818;stroke-width:1.0;"/><line style="stroke:#181818;stroke-width:1.0;" x1="251.5" x2="251.5" y1="1030.1992" y2="1065.1992"/><polygon fill="#181818" points="247.5,1055.1992,251.5,1065.1992,255.5,1055.1992,251.5,1059.1992" style="stroke:#181818;stroke-width:1.0;"/><line style="stroke:#181818;stroke-width:1.0;" x1="676.5" x2="676.5" y1="912.293" y2="947.293"/><polygon fill="#181818" points="672.5,937.293,676.5,947.293,680.5,937.293,676.5,941.293" style="stroke:#181818;stroke-width:1.0;"/><line style="stroke:#181818;stroke-width:1.0;" x1="676.5" x2="676.5" y1="981.2617" y2="1016.2617"/><polygon fill="#181818" points="672.5,1006.2617,676.5,1016.2617,680.5,1006.2617,676.5,1010.2617" style="stroke:#181818;stroke-width:1.0;"/><line style="stroke:#181818;stroke-width:1.0;" x1="676.5" x2="676.5" y1="1050.2305" y2="1085.2305"/><polygon fill="#181818" points="672.5,1075.2305,676.5,1085.2305,680.5,1075.2305,676.5,1079.2305" style="stroke:#181818;stroke-width:1.0;"/><line style="stroke:#181818;stroke-width:1.0;" x1="676.5" x2="676.5" y1="1119.1992" y2="1154.1992"/><polygon fill="#181818" points="672.5,1144.1992,676.5,1154.1992,680.5,1144.1992,676.5,1148.1992" style="stroke:#181818;stroke-width:1.0;"/><line style="stroke:#181818;stroke-width:1.0;" x1="676.5" x2="676.5" y1="1188.168" y2="1211.75"/><polygon fill="#181818" points="672.5,1201.75,676.5,1211.75,680.5,1201.75,676.5,1205.75" style="stroke:#181818;stroke-width:1.0;"/><line style="stroke:#181818;stroke-width:1.0;" x1="676.5" x2="676.5" y1="1259.6875" y2="1290.0742"/><polygon fill="#181818" points="672.5,1280.0742,676.5,1290.0742,680.5,1280.0742,676.5,1284.0742" style="stroke:#181818;stroke-width:1.0;"/><line style="stroke:#181818;stroke-width:1.0;" x1="676.5" x2="676.5" y1="1324.043" y2="1347.625"/><polygon fill="#181818" points="672.5,1337.625,676.5,1347.625,680.5,1337.625,676.5,1341.625" style="stroke:#181818;stroke-width:1.0;"/><line style="stroke:#181818;stroke-width:1.0;" x1="1111.5" x2="1111.5" y1="912.293" y2="947.293"/><polygon fill="#181818" points="1107.5,937.293,1111.5,947.293,1115.5,937.293,1111.5,941.293" style="stroke:#181818;stroke-width:1.0;"/><line style="stroke:#181818;stroke-width:1.0;" x1="1111.5" x2="1111.5" y1="995.2305" y2="1030.2305"/><polygon fill="#181818" points="1107.5,1020.2305,1111.5,1030.2305,1115.5,1020.2305,1111.5,1024.2305" style="stroke:#181818;stroke-width:1.0;"/><line style="stroke:#181818;stroke-width:1.0;" x1="1111.5" x2="1111.5" y1="1064.1992" y2="1099.1992"/><polygon fill="#181818" points="1107.5,1089.1992,1111.5,1099.1992,1115.5,1089.1992,1111.5,1093.1992" style="stroke:#181818;stroke-width:1.0;"/><line style="stroke:#181818;stroke-width:1.0;" x1="830.5" x2="676.5" y1="856.3242" y2="856.3242"/><line style="stroke:#181818;stroke-width:1.0;" x1="676.5" x2="676.5" y1="856.3242" y2="878.3242"/><polygon fill="#181818" points="672.5,868.3242,676.5,878.3242,680.5,868.3242,676.5,872.3242" style="stroke:#181818;stroke-width:1.0;"/><line style="stroke:#181818;stroke-width:1.0;" x1="957.5" x2="1111.5" y1="856.3242" y2="856.3242"/><line style="stroke:#181818;stroke-width:1.0;" x1="1111.5" x2="1111.5" y1="856.3242" y2="878.3242"/><polygon fill="#181818" points="1107.5,868.3242,1111.5,878.3242,1115.5,868.3242,1111.5,872.3242" style="stroke:#181818;stroke-width:1.0;"/><line style="stroke:#181818;stroke-width:1.0;" x1="676.5" x2="676.5" y1="1381.5938" y2="1399.5938"/><line style="stroke:#181818;stroke-width:1.0;" x1="676.5" x2="882" y1="1399.5938" y2="1399.5938"/><polygon fill="#181818" points="872,1395.5938,882,1399.5938,872,1403.5938,876,1399.5938" style="stroke:#181818;stroke-width:1.0;"/><line style="stroke:#181818;stroke-width:1.0;" x1="1111.5" x2="1111.5" y1="1133.168" y2="1399.5938"/><line style="stroke:#181818;stroke-width:1.0;" x1="1111.5" x2="906" y1="1399.5938" y2="1399.5938"/><polygon fill="#181818" points="916,1395.5938,906,1399.5938,916,1403.5938,912,1399.5938" style="stroke:#181818;stroke-width:1.0;"/><line style="stroke:#181818;stroke-width:1.0;" x1="1611" x2="1611" y1="901.9063" y2="936.9063"/><polygon fill="#181818" points="1607,926.9063,1611,936.9063,1615,926.9063,1611,930.9063" style="stroke:#181818;stroke-width:1.0;"/><line style="stroke:#181818;stroke-width:1.0;" x1="1611" x2="1611" y1="970.875" y2="1005.875"/><polygon fill="#181818" points="1607,995.875,1611,1005.875,1615,995.875,1611,999.875" style="stroke:#181818;stroke-width:1.0;"/><line style="stroke:#181818;stroke-width:1.0;" x1="1611" x2="1611" y1="1039.8438" y2="1074.8438"/><polygon fill="#181818" points="1607,1064.8438,1611,1074.8438,1615,1064.8438,1611,1068.8438" style="stroke:#181818;stroke-width:1.0;"/><line style="stroke:#181818;stroke-width:1.0;" x1="1611" x2="1611" y1="1108.8125" y2="1143.8125"/><polygon fill="#181818" points="1607,1133.8125,1611,1143.8125,1615,1133.8125,1611,1137.8125" style="stroke:#181818;stroke-width:1.0;"/><line style="stroke:#181818;stroke-width:1.0;" x1="1611" x2="1611" y1="1191.75" y2="1215.332"/><polygon fill="#181818" points="1607,1205.332,1611,1215.332,1615,1205.332,1611,1209.332" style="stroke:#181818;stroke-width:1.0;"/><line style="stroke:#181818;stroke-width:1.0;" x1="1611" x2="1611" y1="1249.3008" y2="1279.6875"/><polygon fill="#181818" points="1607,1269.6875,1611,1279.6875,1615,1269.6875,1611,1273.6875" style="stroke:#181818;stroke-width:1.0;"/><line style="stroke:#181818;stroke-width:1.0;" x1="1611" x2="1611" y1="1327.625" y2="1351.207"/><polygon fill="#181818" points="1607,1341.207,1611,1351.207,1615,1341.207,1611,1345.207" style="stroke:#181818;stroke-width:1.0;"/><line style="stroke:#181818;stroke-width:1.0;" x1="2135" x2="2135" y1="915.875" y2="950.875"/><polygon fill="#181818" points="2131,940.875,2135,950.875,2139,940.875,2135,944.875" style="stroke:#181818;stroke-width:1.0;"/><line style="stroke:#181818;stroke-width:1.0;" x1="2135" x2="2135" y1="984.8438" y2="1019.8438"/><polygon fill="#181818" points="2131,1009.8438,2135,1019.8438,2139,1009.8438,2135,1013.8438" style="stroke:#181818;stroke-width:1.0;"/><line style="stroke:#181818;stroke-width:1.0;" x1="2135" x2="2135" y1="1067.7813" y2="1102.7813"/><polygon fill="#181818" points="2131,1092.7813,2135,1102.7813,2139,1092.7813,2135,1096.7813" style="stroke:#181818;stroke-width:1.0;"/><line style="stroke:#181818;stroke-width:1.0;" x1="1809.5" x2="1611" y1="845.9375" y2="845.9375"/><line style="stroke:#181818;stroke-width:1.0;" x1="1611" x2="1611" y1="845.9375" y2="867.9375"/><polygon fill="#181818" points="1607,857.9375,1611,867.9375,1615,857.9375,1611,861.9375" style="stroke:#181818;stroke-width:1.0;"/><line style="stroke:#181818;stroke-width:1.0;" x1="1936.5" x2="2135" y1="845.9375" y2="845.9375"/><line style="stroke:#181818;stroke-width:1.0;" x1="2135" x2="2135" y1="845.9375" y2="867.9375"/><polygon fill="#181818" points="2131,857.9375,2135,867.9375,2139,857.9375,2135,861.9375" style="stroke:#181818;stroke-width:1.0;"/><line style="stroke:#181818;stroke-width:1.0;" x1="1611" x2="1611" y1="1385.1758" y2="1403.1758"/><line style="stroke:#181818;stroke-width:1.0;" x1="1611" x2="1861" y1="1403.1758" y2="1403.1758"/><polygon fill="#181818" points="1851,1399.1758,1861,1403.1758,1851,1407.1758,1855,1403.1758" style="stroke:#181818;stroke-width:1.0;"/><line style="stroke:#181818;stroke-width:1.0;" x1="2135" x2="2135" y1="1136.75" y2="1403.1758"/><line style="stroke:#181818;stroke-width:1.0;" x1="2135" x2="1885" y1="1403.1758" y2="1403.1758"/><polygon fill="#181818" points="1895,1399.1758,1885,1403.1758,1895,1407.1758,1891,1403.1758" style="stroke:#181818;stroke-width:1.0;"/><line style="stroke:#181818;stroke-width:1.0;" x1="251.5" x2="251.5" y1="811.5195" y2="844.3242"/><polygon fill="#181818" points="247.5,834.3242,251.5,844.3242,255.5,834.3242,251.5,838.3242" style="stroke:#181818;stroke-width:1.0;"/><line style="stroke:#181818;stroke-width:1.0;" x1="251.5" x2="251.5" y1="1099.168" y2="1435.1758"/><polygon fill="#181818" points="247.5,1425.1758,251.5,1435.1758,255.5,1425.1758,251.5,1429.1758" style="stroke:#181818;stroke-width:1.0;"/><line style="stroke:#181818;stroke-width:1.0;" x1="894" x2="894" y1="811.5195" y2="844.3242"/><polygon fill="#181818" points="890,834.3242,894,844.3242,898,834.3242,894,838.3242" style="stroke:#181818;stroke-width:1.0;"/><line style="stroke:#181818;stroke-width:1.0;" x1="894" x2="894" y1="1411.5938" y2="1435.1758"/><polygon fill="#181818" points="890,1425.1758,894,1435.1758,898,1425.1758,894,1429.1758" style="stroke:#181818;stroke-width:1.0;"/><line style="stroke:#181818;stroke-width:1.0;" x1="306" x2="855.5" y1="799.5195" y2="799.5195"/><polygon fill="#181818" points="845.5,795.5195,855.5,799.5195,845.5,803.5195,849.5,799.5195" style="stroke:#181818;stroke-width:1.0;"/><line style="stroke:#181818;stroke-width:1.0;" x1="1210.5" x2="1210.5" y1="767.5195" y2="772.5195"/><line style="stroke:#181818;stroke-width:1.0;" x1="1210.5" x2="251.5" y1="772.5195" y2="772.5195"/><line style="stroke:#181818;stroke-width:1.0;" x1="251.5" x2="251.5" y1="772.5195" y2="787.5195"/><polygon fill="#181818" points="247.5,777.5195,251.5,787.5195,255.5,777.5195,251.5,781.5195" style="stroke:#181818;stroke-width:1.0;"/><line style="stroke:#181818;stroke-width:1.0;" x1="932.5" x2="1873" y1="799.5195" y2="799.5195"/><line style="stroke:#181818;stroke-width:1.0;" x1="1873" x2="1873" y1="799.5195" y2="833.9375"/><polygon fill="#181818" points="1869,823.9375,1873,833.9375,1877,823.9375,1873,827.9375" style="stroke:#181818;stroke-width:1.0;"/><line style="stroke:#181818;stroke-width:1.0;" x1="1873" x2="1873" y1="1415.1758" y2="1435.1758"/><polygon fill="#181818" points="1869,1425.1758,1873,1435.1758,1877,1425.1758,1873,1429.1758" style="stroke:#181818;stroke-width:1.0;"/><line style="stroke:#181818;stroke-width:1.0;" x1="251.5" x2="1873" y1="1435.1758" y2="1435.1758"/><line style="stroke:#181818;stroke-width:1.0;" x1="1210.5" x2="1210.5" y1="1435.1758" y2="1455.1758"/><polygon fill="#181818" points="1206.5,1445.1758,1210.5,1455.1758,1214.5,1445.1758,1210.5,1449.1758" style="stroke:#181818;stroke-width:1.0;"/><line style="stroke:#181818;stroke-width:1.0;" x1="1210.5" x2="1210.5" y1="1489.1445" y2="1509.1445"/><polygon fill="#181818" points="1206.5,1499.1445,1210.5,1509.1445,1214.5,1499.1445,1210.5,1503.1445" style="stroke:#181818;stroke-width:1.0;"/><line style="stroke:#181818;stroke-width:1.0;" x1="1210.5" x2="1210.5" y1="1587.1133" y2="1611.5156"/><polygon fill="#181818" points="1206.5,1601.5156,1210.5,1611.5156,1214.5,1601.5156,1210.5,1605.5156" style="stroke:#181818;stroke-width:1.0;"/><line style="stroke:#181818;stroke-width:1.0;" x1="1243" x2="1262" y1="1575.1133" y2="1575.1133"/><polygon fill="#181818" points="1258,1618.5,1262,1628.5,1266,1618.5,1262,1622.5" style="stroke:#181818;stroke-width:1.0;"/><line style="stroke:#181818;stroke-width:1.0;" x1="1262" x2="1262" y1="1575.1133" y2="1677.4844"/><line style="stroke:#181818;stroke-width:1.0;" x1="1262" x2="1222.5" y1="1677.4844" y2="1677.4844"/><polygon fill="#181818" points="1232.5,1673.4844,1222.5,1677.4844,1232.5,1681.4844,1228.5,1677.4844" style="stroke:#181818;stroke-width:1.0;"/><line style="stroke:#181818;stroke-width:1.0;" x1="1210.5" x2="1210.5" y1="1645.4844" y2="1665.4844"/><polygon fill="#181818" points="1206.5,1655.4844,1210.5,1665.4844,1214.5,1655.4844,1210.5,1659.4844" style="stroke:#181818;stroke-width:1.0;"/><line style="stroke:#181818;stroke-width:1.0;" x1="1210.5" x2="1210.5" y1="1543.1133" y2="1563.1133"/><polygon fill="#181818" points="1206.5,1553.1133,1210.5,1563.1133,1214.5,1553.1133,1210.5,1557.1133" style="stroke:#181818;stroke-width:1.0;"/><line style="stroke:#181818;stroke-width:1.0;" x1="1210.5" x2="1210.5" y1="1733.4844" y2="1757.8867"/><polygon fill="#181818" points="1206.5,1747.8867,1210.5,1757.8867,1214.5,1747.8867,1210.5,1751.8867" style="stroke:#181818;stroke-width:1.0;"/><line style="stroke:#181818;stroke-width:1.0;" x1="1243" x2="1255" y1="1721.4844" y2="1721.4844"/><polygon fill="#181818" points="1251,1764.8711,1255,1774.8711,1259,1764.8711,1255,1768.8711" style="stroke:#181818;stroke-width:1.0;"/><line style="stroke:#181818;stroke-width:1.0;" x1="1255" x2="1255" y1="1721.4844" y2="1823.8555"/><line style="stroke:#181818;stroke-width:1.0;" x1="1255" x2="1222.5" y1="1823.8555" y2="1823.8555"/><polygon fill="#181818" points="1232.5,1819.8555,1222.5,1823.8555,1232.5,1827.8555,1228.5,1823.8555" style="stroke:#181818;stroke-width:1.0;"/><line style="stroke:#181818;stroke-width:1.0;" x1="1210.5" x2="1210.5" y1="1791.8555" y2="1811.8555"/><polygon fill="#181818" points="1206.5,1801.8555,1210.5,1811.8555,1214.5,1801.8555,1210.5,1805.8555" style="stroke:#181818;stroke-width:1.0;"/><line style="stroke:#181818;stroke-width:1.0;" x1="1210.5" x2="1210.5" y1="1689.4844" y2="1709.4844"/><polygon fill="#181818" points="1206.5,1699.4844,1210.5,1709.4844,1214.5,1699.4844,1210.5,1703.4844" style="stroke:#181818;stroke-width:1.0;"/><line style="stroke:#181818;stroke-width:1.0;" x1="1210.5" x2="1210.5" y1="1938.2266" y2="1966.7422"/><polygon fill="#181818" points="1206.5,1956.7422,1210.5,1966.7422,1214.5,1956.7422,1210.5,1960.7422" style="stroke:#181818;stroke-width:1.0;"/><line style="stroke:#181818;stroke-width:1.0;" x1="1210.5" x2="1210.5" y1="1879.8555" y2="1904.2578"/><polygon fill="#181818" points="1206.5,1894.2578,1210.5,1904.2578,1214.5,1894.2578,1210.5,1898.2578" style="stroke:#181818;stroke-width:1.0;"/><line style="stroke:#181818;stroke-width:1.0;" x1="1249" x2="1503" y1="1867.8555" y2="1867.8555"/><polygon fill="#181818" points="1499,1936.7422,1503,1946.7422,1507,1936.7422,1503,1940.7422" style="stroke:#181818;stroke-width:1.0;"/><line style="stroke:#181818;stroke-width:1.0;" x1="1503" x2="1503" y1="1867.8555" y2="2010.7422"/><line style="stroke:#181818;stroke-width:1.0;" x1="1503" x2="1210.5" y1="2010.7422" y2="2010.7422"/><line style="stroke:#181818;stroke-width:1.0;" x1="1210.5" x2="1210.5" y1="2010.7422" y2="2030.7422"/><polygon fill="#181818" points="1206.5,2020.7422,1210.5,2030.7422,1214.5,2020.7422,1210.5,2024.7422" style="stroke:#181818;stroke-width:1.0;"/><line style="stroke:#181818;stroke-width:1.0;" x1="1210.5" x2="1210.5" y1="1835.8555" y2="1855.8555"/><polygon fill="#181818" points="1206.5,1845.8555,1210.5,1855.8555,1214.5,1845.8555,1210.5,1849.8555" style="stroke:#181818;stroke-width:1.0;"/><line style="stroke:#181818;stroke-width:1.0;" x1="1210.5" x2="1210.5" y1="2064.7109" y2="2084.7109"/><polygon fill="#181818" points="1206.5,2074.7109,1210.5,2084.7109,1214.5,2074.7109,1210.5,2078.7109" style="stroke:#181818;stroke-width:1.0;"/><line style="stroke:#181818;stroke-width:1.0;" x1="1210.5" x2="1210.5" y1="713.5508" y2="733.5508"/><polygon fill="#181818" points="1206.5,723.5508,1210.5,733.5508,1214.5,723.5508,1210.5,727.5508" style="stroke:#181818;stroke-width:1.0;"/><line style="stroke:#181818;stroke-width:1.0;" x1="1186.5" x2="24" y1="701.5508" y2="701.5508"/><line style="stroke:#181818;stroke-width:1.0;" x1="24" x2="24" y1="701.5508" y2="733.5508"/><polygon fill="#181818" points="20,723.5508,24,733.5508,28,723.5508,24,727.5508" style="stroke:#181818;stroke-width:1.0;"/><line style="stroke:#181818;stroke-width:1.0;" x1="1210.5" x2="1210.5" y1="2139.2773" y2="2161.8438"/><polygon fill="#181818" points="1206.5,2151.8438,1210.5,2161.8438,1214.5,2151.8438,1210.5,2155.8438" style="stroke:#181818;stroke-width:1.0;"/><line style="stroke:#181818;stroke-width:1.0;" x1="1210.5" x2="1210.5" y1="2195.8125" y2="2215.8125"/><polygon fill="#181818" points="1206.5,2205.8125,1210.5,2215.8125,1214.5,2205.8125,1210.5,2209.8125" style="stroke:#181818;stroke-width:1.0;"/><line style="stroke:#181818;stroke-width:1.0;" x1="1210.5" x2="1210.5" y1="2300.3789" y2="2322.9453"/><polygon fill="#181818" points="1206.5,2312.9453,1210.5,2322.9453,1214.5,2312.9453,1210.5,2316.9453" style="stroke:#181818;stroke-width:1.0;"/><line style="stroke:#181818;stroke-width:1.0;" x1="1210.5" x2="1210.5" y1="2356.9141" y2="2376.9141"/><polygon fill="#181818" points="1206.5,2366.9141,1210.5,2376.9141,1214.5,2366.9141,1210.5,2370.9141" style="stroke:#181818;stroke-width:1.0;"/><line style="stroke:#181818;stroke-width:1.0;" x1="1210.5" x2="1210.5" y1="2461.4805" y2="2484.0469"/><polygon fill="#181818" points="1206.5,2474.0469,1210.5,2484.0469,1214.5,2474.0469,1210.5,2478.0469" style="stroke:#181818;stroke-width:1.0;"/><line style="stroke:#181818;stroke-width:1.0;" x1="1210.5" x2="1210.5" y1="2518.0156" y2="2538.0156"/><polygon fill="#181818" points="1206.5,2528.0156,1210.5,2538.0156,1214.5,2528.0156,1210.5,2532.0156" style="stroke:#181818;stroke-width:1.0;"/><!--MD5=[61068967399cf1f9e774143d68d0bf95]
@startuml
!pragma layout smetana
start
note right
constructor EaterFunctionCall(StringLocateds,
booleanisLegacyDefine,booleanunquoted)
end note
:super (s);;
:this.isLegacyDefine=isLegacyDefine;;
:this.unquoted=unquoted;;
end
start
note right
void analyze(TContextcontext,TMemorymemory)
end note
:skipUntilChar('(');;
:checkAndEatChar('(');;
:skipSpaces();;
if (peekChar()==')') then (yes) 
:checkAndEatChar(')');;
:return ;;
stop
endif 
while (true)
:skipSpaces();;
if (isLegacyDefine) then (yes) 
:final Stringread=eatAndGetOptionalQuotedString();;
:final Stringvalue=context.applyFunctionsAndVariables(memory,
getLineLocation(),read);;
:final TValueresult=TValue.fromString(value);;
:values.add(result);;
else if (unquoted) then (yes) 
if (matchAffectation()) then (yes) 
:final Stringvarname=eatAndGetVarname();;
:skipSpaces();;
:checkAndEatChar('=');;
:skipSpaces();;
:final Stringread=eatAndGetOptionalQuotedString();;
:final Stringvalue=context.applyFunctionsAndVariables(memory,
getLineLocation(),read);;
:final TValueresult=TValue.fromString(value);;
:namedArguments.put(varname,result);;
else (no)
:final Stringread=eatAndGetOptionalQuotedString();;
:final Stringvalue=context.applyFunctionsAndVariables(memory,
getLineLocation(),read);;
:final TValueresult=TValue.fromString(value);;
:values.add(result);;
endif 
else (no)
if (matchAffectation()) then (yes) 
:final Stringvarname=eatAndGetVarname();;
:skipSpaces();;
:checkAndEatChar('=');;
:skipSpaces();;
:final TokenStacktokens=TokenStack.eatUntilCloseParenthesisOrComma(this)
.withoutSpace();;
:tokens.guessFunctions();;
:final TValueresult=tokens.getResult(getLineLocation(),
context,memory);;
:namedArguments.put(varname,result);;
else (no)
:final TokenStacktokens=TokenStack.eatUntilCloseParenthesisOrComma(this)
.withoutSpace();;
:tokens.guessFunctions();;
:final TValueresult=tokens.getResult(getLineLocation(),
context,memory);;
:values.add(result);;
endif 
endif 
:skipSpaces();;
:final charch=eatOneChar();;
if (ch==',') then (yes) 
:continue ;;
endif 
if (ch==')') then (yes) 
:break ;;
endif 
if (unquoted) then (yes) 
:throw EaterException.located("unquoted function/procedure cannot use expression.");;
stop
endif 
:throw EaterException.located("call001");;
stop
endwhile
end
start
note right
List<TValue>getValues()
end note
:return Collections.unmodifiableList(values);;
stop
end
start
note right
Map<String,TValue>getNamedArguments()
end note
:return Collections.unmodifiableMap(namedArguments);;
stop
end
start
note right
StringgetEndOfLine()
end note
:return this.eatAllToEnd();;
stop
end
@enduml

PlantUML version 1.2022.7(Mon Aug 22 17:01:30 UTC 2022)
(GPL source distribution)
Java Runtime: OpenJDK Runtime Environment
JVM: OpenJDK 64-Bit Server VM
Default Encoding: UTF-8
Language: en
Country: null
--></g></svg>