<?xml version="1.0" encoding="UTF-8" standalone="no"?><svg xmlns="http://www.w3.org/2000/svg" xmlns:xlink="http://www.w3.org/1999/xlink" contentStyleType="text/css" height="186px" preserveAspectRatio="none" style="width:295px;height:186px;background:#FFFFFF;" version="1.1" viewBox="0 0 295 186" width="295px" zoomAndPan="magnify"><defs/><g><!--MD5=[b4891304327d63df23ecbbf370c81341]
cluster net.sourceforge.plantuml.tim--><g id="cluster_net.sourceforge.plantuml.tim"><path d="M8.5,63 L239.5,63 A3.75,3.75 0 0 1 242,65.5 L249,85.2969 L285.5,85.2969 A2.5,2.5 0 0 1 288,87.7969 L288,176.5 A2.5,2.5 0 0 1 285.5,179 L8.5,179 A2.5,2.5 0 0 1 6,176.5 L6,65.5 A2.5,2.5 0 0 1 8.5,63 " fill="none" style="stroke:#000000;stroke-width:1.5;"/><line style="stroke:#000000;stroke-width:1.5;" x1="6" x2="249" y1="85.2969" y2="85.2969"/><text fill="#000000" font-family="sans-serif" font-size="14" font-weight="bold" lengthAdjust="spacing" textLength="230" x="10" y="77.9951">net.sourceforge.plantuml.tim</text></g><!--MD5=[0a1baec791a65b5d09495333c87c93bf]
class Eater--><g id="elem_Eater"><rect fill="#F1F1F1" height="48" id="Eater" rx="2.5" ry="2.5" style="stroke:#181818;stroke-width:0.5;" width="68" x="113" y="6"/><ellipse cx="128" cy="22" fill="#ADD1B2" rx="11" ry="11" style="stroke:#181818;stroke-width:1.0;"/><path d="M130.9688,27.6406 Q130.3906,27.9375 129.75,28.0781 Q129.1094,28.2344 128.4063,28.2344 Q125.9063,28.2344 124.5781,26.5938 Q123.2656,24.9375 123.2656,21.8125 Q123.2656,18.6875 124.5781,17.0313 Q125.9063,15.375 128.4063,15.375 Q129.1094,15.375 129.75,15.5313 Q130.4063,15.6875 130.9688,15.9844 L130.9688,18.7031 Q130.3438,18.125 129.75,17.8594 Q129.1563,17.5781 128.5313,17.5781 Q127.1875,17.5781 126.5,18.6563 Q125.8125,19.7188 125.8125,21.8125 Q125.8125,23.9063 126.5,24.9844 Q127.1875,26.0469 128.5313,26.0469 Q129.1563,26.0469 129.75,25.7813 Q130.3438,25.5 130.9688,24.9219 L130.9688,27.6406 Z " fill="#000000"/><text fill="#000000" font-family="sans-serif" font-size="14" lengthAdjust="spacing" textLength="36" x="142" y="26.8467">Eater</text><line style="stroke:#181818;stroke-width:0.5;" x1="114" x2="180" y1="38" y2="38"/><line style="stroke:#181818;stroke-width:0.5;" x1="114" x2="180" y1="46" y2="46"/></g><!--MD5=[6f396aca0e132d08e0f4cf3601f2c66f]
class net.sourceforge.plantuml.tim.EaterLog--><g id="elem_net.sourceforge.plantuml.tim.EaterLog"><rect codeLine="3" fill="#F1F1F1" height="80.5938" id="net.sourceforge.plantuml.tim.EaterLog" rx="2.5" ry="2.5" style="stroke:#181818;stroke-width:0.5;" width="266" x="14" y="90"/><ellipse cx="112.25" cy="106" fill="#ADD1B2" rx="11" ry="11" style="stroke:#181818;stroke-width:1.0;"/><path d="M115.2188,111.6406 Q114.6406,111.9375 114,112.0781 Q113.3594,112.2344 112.6563,112.2344 Q110.1563,112.2344 108.8281,110.5938 Q107.5156,108.9375 107.5156,105.8125 Q107.5156,102.6875 108.8281,101.0313 Q110.1563,99.375 112.6563,99.375 Q113.3594,99.375 114,99.5313 Q114.6563,99.6875 115.2188,99.9844 L115.2188,102.7031 Q114.5938,102.125 114,101.8594 Q113.4063,101.5781 112.7813,101.5781 Q111.4375,101.5781 110.75,102.6563 Q110.0625,103.7188 110.0625,105.8125 Q110.0625,107.9063 110.75,108.9844 Q111.4375,110.0469 112.7813,110.0469 Q113.4063,110.0469 114,109.7813 Q114.5938,109.5 115.2188,108.9219 L115.2188,111.6406 Z " fill="#000000"/><text fill="#000000" font-family="sans-serif" font-size="14" lengthAdjust="spacing" textLength="61" x="132.75" y="110.8467">EaterLog</text><line style="stroke:#181818;stroke-width:0.5;" x1="15" x2="279" y1="122" y2="122"/><line style="stroke:#181818;stroke-width:0.5;" x1="15" x2="279" y1="130" y2="130"/><a href="./../../../../../.././qc/src/net/sourceforge/plantuml/tim/EaterLog.java.html#42" target="_top" title="./../../../../../.././qc/src/net/sourceforge/plantuml/tim/EaterLog.java.html#42" xlink:actuate="onRequest" xlink:href="./../../../../../.././qc/src/net/sourceforge/plantuml/tim/EaterLog.java.html#42" xlink:show="new" xlink:title="./../../../../../.././qc/src/net/sourceforge/plantuml/tim/EaterLog.java.html#42" xlink:type="simple"><rect fill="#F1F1F1" height="10" style="stroke:none;stroke-width:1.0;" width="20" x="20" y="138.6484"/><ellipse cx="25" cy="143.6484" fill="#84BE84" rx="3" ry="3" style="stroke:#038048;stroke-width:1.0;"/></a><a href="./../../../../../.././qc/src/net/sourceforge/plantuml/tim/EaterLog.java.html#42" target="_top" title="./../../../../../.././qc/src/net/sourceforge/plantuml/tim/EaterLog.java.html#42" xlink:actuate="onRequest" xlink:href="./../../../../../.././qc/src/net/sourceforge/plantuml/tim/EaterLog.java.html#42" xlink:show="new" xlink:title="./../../../../../.././qc/src/net/sourceforge/plantuml/tim/EaterLog.java.html#42" xlink:type="simple"><text fill="#000000" font-family="sans-serif" font-size="14" lengthAdjust="spacing" textLength="240" x="34" y="146.9951">EaterLog(StringLocated) : EaterLog</text></a><a href="./../../../../../.././qc/src/net/sourceforge/plantuml/tim/EaterLog.java.html#47" target="_top" title="./../../../../../.././qc/src/net/sourceforge/plantuml/tim/EaterLog.java.html#47" xlink:actuate="onRequest" xlink:href="./../../../../../.././qc/src/net/sourceforge/plantuml/tim/EaterLog.java.html#47" xlink:show="new" xlink:title="./../../../../../.././qc/src/net/sourceforge/plantuml/tim/EaterLog.java.html#47" xlink:type="simple"><rect fill="#F1F1F1" height="10" style="stroke:none;stroke-width:1.0;" width="20" x="20" y="154.9453"/><ellipse cx="25" cy="159.9453" fill="#84BE84" rx="3" ry="3" style="stroke:#038048;stroke-width:1.0;"/></a><a href="./../../../../../.././qc/src/net/sourceforge/plantuml/tim/EaterLog.java.html#47" target="_top" title="./../../../../../.././qc/src/net/sourceforge/plantuml/tim/EaterLog.java.html#47" xlink:actuate="onRequest" xlink:href="./../../../../../.././qc/src/net/sourceforge/plantuml/tim/EaterLog.java.html#47" xlink:show="new" xlink:title="./../../../../../.././qc/src/net/sourceforge/plantuml/tim/EaterLog.java.html#47" xlink:type="simple"><text fill="#000000" font-family="sans-serif" font-size="14" lengthAdjust="spacing" textLength="235" x="34" y="163.292">analyze(TContext;TMemory) : void</text></a></g><path d="M147,54.0939 C147,64.784 147,77.7904 147,89.9706 " fill="none" style="stroke:#181818;stroke-width:1.0;"/><polygon fill="#FFFFFF" points="147,54.0939,141,70.0939,153,70.0939,147,54.0939" style="stroke:#181818;stroke-width:1.0;"/><!--MD5=[65c2235162a83fe65f71eab353e8380f]
@startuml
!pragma layout smetana
"Eater" <|- - "net.sourceforge.plantuml.tim.EaterLog"
class net.sourceforge.plantuml.tim.EaterLog {
+EaterLog(StringLocated) : EaterLog [[[./../../../../../.././qc/src/net/sourceforge/plantuml/tim/EaterLog.java.html#42]]]
+analyze(TContext;TMemory) : void [[[./../../../../../.././qc/src/net/sourceforge/plantuml/tim/EaterLog.java.html#47]]]
} 
@enduml

PlantUML version 1.2022.7(Mon Aug 22 17:01:30 UTC 2022)
(GPL source distribution)
Java Runtime: OpenJDK Runtime Environment
JVM: OpenJDK 64-Bit Server VM
Default Encoding: UTF-8
Language: en
Country: null
--></g></svg>