<?xml version="1.0" encoding="UTF-8" standalone="no"?><svg xmlns="http://www.w3.org/2000/svg" xmlns:xlink="http://www.w3.org/1999/xlink" contentStyleType="text/css" height="218px" preserveAspectRatio="none" style="width:441px;height:218px;background:#FFFFFF;" version="1.1" viewBox="0 0 441 218" width="441px" zoomAndPan="magnify"><defs/><g><!--MD5=[b4891304327d63df23ecbbf370c81341]
cluster net.sourceforge.plantuml.tim--><g id="cluster_net.sourceforge.plantuml.tim"><path d="M8.5,63 L239.5,63 A3.75,3.75 0 0 1 242,65.5 L249,85.2969 L431.5,85.2969 A2.5,2.5 0 0 1 434,87.7969 L434,208.5 A2.5,2.5 0 0 1 431.5,211 L8.5,211 A2.5,2.5 0 0 1 6,208.5 L6,65.5 A2.5,2.5 0 0 1 8.5,63 " fill="none" style="stroke:#000000;stroke-width:1.5;"/><line style="stroke:#000000;stroke-width:1.5;" x1="6" x2="249" y1="85.2969" y2="85.2969"/><text fill="#000000" font-family="sans-serif" font-size="14" font-weight="bold" lengthAdjust="spacing" textLength="230" x="10" y="77.9951">net.sourceforge.plantuml.tim</text></g><!--MD5=[0a1baec791a65b5d09495333c87c93bf]
class Eater--><g id="elem_Eater"><rect fill="#F1F1F1" height="48" id="Eater" rx="2.5" ry="2.5" style="stroke:#181818;stroke-width:0.5;" width="68" x="186" y="6"/><ellipse cx="201" cy="22" fill="#ADD1B2" rx="11" ry="11" style="stroke:#181818;stroke-width:1.0;"/><path d="M203.9688,27.6406 Q203.3906,27.9375 202.75,28.0781 Q202.1094,28.2344 201.4063,28.2344 Q198.9063,28.2344 197.5781,26.5938 Q196.2656,24.9375 196.2656,21.8125 Q196.2656,18.6875 197.5781,17.0313 Q198.9063,15.375 201.4063,15.375 Q202.1094,15.375 202.75,15.5313 Q203.4063,15.6875 203.9688,15.9844 L203.9688,18.7031 Q203.3438,18.125 202.75,17.8594 Q202.1563,17.5781 201.5313,17.5781 Q200.1875,17.5781 199.5,18.6563 Q198.8125,19.7188 198.8125,21.8125 Q198.8125,23.9063 199.5,24.9844 Q200.1875,26.0469 201.5313,26.0469 Q202.1563,26.0469 202.75,25.7813 Q203.3438,25.5 203.9688,24.9219 L203.9688,27.6406 Z " fill="#000000"/><text fill="#000000" font-family="sans-serif" font-size="14" lengthAdjust="spacing" textLength="36" x="215" y="26.8467">Eater</text><line style="stroke:#181818;stroke-width:0.5;" x1="187" x2="253" y1="38" y2="38"/><line style="stroke:#181818;stroke-width:0.5;" x1="187" x2="253" y1="46" y2="46"/></g><!--MD5=[a932210533917c8f713a6f16764e8d5c]
class net.sourceforge.plantuml.tim.EaterTheme--><g id="elem_net.sourceforge.plantuml.tim.EaterTheme"><rect codeLine="3" fill="#F1F1F1" height="113.1875" id="net.sourceforge.plantuml.tim.EaterTheme" rx="2.5" ry="2.5" style="stroke:#181818;stroke-width:0.5;" width="412" x="14" y="90"/><ellipse cx="173.25" cy="106" fill="#ADD1B2" rx="11" ry="11" style="stroke:#181818;stroke-width:1.0;"/><path d="M176.2188,111.6406 Q175.6406,111.9375 175,112.0781 Q174.3594,112.2344 173.6563,112.2344 Q171.1563,112.2344 169.8281,110.5938 Q168.5156,108.9375 168.5156,105.8125 Q168.5156,102.6875 169.8281,101.0313 Q171.1563,99.375 173.6563,99.375 Q174.3594,99.375 175,99.5313 Q175.6563,99.6875 176.2188,99.9844 L176.2188,102.7031 Q175.5938,102.125 175,101.8594 Q174.4063,101.5781 173.7813,101.5781 Q172.4375,101.5781 171.75,102.6563 Q171.0625,103.7188 171.0625,105.8125 Q171.0625,107.9063 171.75,108.9844 Q172.4375,110.0469 173.7813,110.0469 Q174.4063,110.0469 175,109.7813 Q175.5938,109.5 176.2188,108.9219 L176.2188,111.6406 Z " fill="#000000"/><text fill="#000000" font-family="sans-serif" font-size="14" lengthAdjust="spacing" textLength="85" x="193.75" y="110.8467">EaterTheme</text><line style="stroke:#181818;stroke-width:0.5;" x1="15" x2="425" y1="122" y2="122"/><line style="stroke:#181818;stroke-width:0.5;" x1="15" x2="425" y1="130" y2="130"/><a href="./../../../../../.././qc/src/net/sourceforge/plantuml/tim/EaterTheme.java.html#63" target="_top" title="./../../../../../.././qc/src/net/sourceforge/plantuml/tim/EaterTheme.java.html#63" xlink:actuate="onRequest" xlink:href="./../../../../../.././qc/src/net/sourceforge/plantuml/tim/EaterTheme.java.html#63" xlink:show="new" xlink:title="./../../../../../.././qc/src/net/sourceforge/plantuml/tim/EaterTheme.java.html#63" xlink:type="simple"><rect fill="#F1F1F1" height="10" style="stroke:none;stroke-width:1.0;" width="20" x="20" y="138.6484"/><ellipse cx="25" cy="143.6484" fill="#84BE84" rx="3" ry="3" style="stroke:#038048;stroke-width:1.0;"/></a><a href="./../../../../../.././qc/src/net/sourceforge/plantuml/tim/EaterTheme.java.html#63" target="_top" title="./../../../../../.././qc/src/net/sourceforge/plantuml/tim/EaterTheme.java.html#63" xlink:actuate="onRequest" xlink:href="./../../../../../.././qc/src/net/sourceforge/plantuml/tim/EaterTheme.java.html#63" xlink:show="new" xlink:title="./../../../../../.././qc/src/net/sourceforge/plantuml/tim/EaterTheme.java.html#63" xlink:type="simple"><text fill="#000000" font-family="sans-serif" font-size="14" lengthAdjust="spacing" textLength="386" x="34" y="146.9951">EaterTheme(StringLocated;ImportedFiles) : EaterTheme</text></a><a href="./../../../../../.././qc/src/net/sourceforge/plantuml/tim/EaterTheme.java.html#69" target="_top" title="./../../../../../.././qc/src/net/sourceforge/plantuml/tim/EaterTheme.java.html#69" xlink:actuate="onRequest" xlink:href="./../../../../../.././qc/src/net/sourceforge/plantuml/tim/EaterTheme.java.html#69" xlink:show="new" xlink:title="./../../../../../.././qc/src/net/sourceforge/plantuml/tim/EaterTheme.java.html#69" xlink:type="simple"><rect fill="#F1F1F1" height="10" style="stroke:none;stroke-width:1.0;" width="20" x="20" y="154.9453"/><ellipse cx="25" cy="159.9453" fill="#84BE84" rx="3" ry="3" style="stroke:#038048;stroke-width:1.0;"/></a><a href="./../../../../../.././qc/src/net/sourceforge/plantuml/tim/EaterTheme.java.html#69" target="_top" title="./../../../../../.././qc/src/net/sourceforge/plantuml/tim/EaterTheme.java.html#69" xlink:actuate="onRequest" xlink:href="./../../../../../.././qc/src/net/sourceforge/plantuml/tim/EaterTheme.java.html#69" xlink:show="new" xlink:title="./../../../../../.././qc/src/net/sourceforge/plantuml/tim/EaterTheme.java.html#69" xlink:type="simple"><text fill="#000000" font-family="sans-serif" font-size="14" lengthAdjust="spacing" textLength="235" x="34" y="163.292">analyze(TContext;TMemory) : void</text></a><a href="./../../../../../.././qc/src/net/sourceforge/plantuml/tim/EaterTheme.java.html#86" target="_top" title="./../../../../../.././qc/src/net/sourceforge/plantuml/tim/EaterTheme.java.html#86" xlink:actuate="onRequest" xlink:href="./../../../../../.././qc/src/net/sourceforge/plantuml/tim/EaterTheme.java.html#86" xlink:show="new" xlink:title="./../../../../../.././qc/src/net/sourceforge/plantuml/tim/EaterTheme.java.html#86" xlink:type="simple"><rect fill="#F1F1F1" height="10" style="stroke:none;stroke-width:1.0;" width="20" x="20" y="171.2422"/><ellipse cx="25" cy="176.2422" fill="#84BE84" rx="3" ry="3" style="stroke:#038048;stroke-width:1.0;"/></a><a href="./../../../../../.././qc/src/net/sourceforge/plantuml/tim/EaterTheme.java.html#86" target="_top" title="./../../../../../.././qc/src/net/sourceforge/plantuml/tim/EaterTheme.java.html#86" xlink:actuate="onRequest" xlink:href="./../../../../../.././qc/src/net/sourceforge/plantuml/tim/EaterTheme.java.html#86" xlink:show="new" xlink:title="./../../../../../.././qc/src/net/sourceforge/plantuml/tim/EaterTheme.java.html#86" xlink:type="simple"><text fill="#000000" font-family="sans-serif" font-size="14" lengthAdjust="spacing" textLength="159" x="34" y="179.5889">getTheme() : ReadLine</text></a><a href="./../../../../../.././qc/src/net/sourceforge/plantuml/tim/EaterTheme.java.html#131" target="_top" title="./../../../../../.././qc/src/net/sourceforge/plantuml/tim/EaterTheme.java.html#131" xlink:actuate="onRequest" xlink:href="./../../../../../.././qc/src/net/sourceforge/plantuml/tim/EaterTheme.java.html#131" xlink:show="new" xlink:title="./../../../../../.././qc/src/net/sourceforge/plantuml/tim/EaterTheme.java.html#131" xlink:type="simple"><rect fill="#F1F1F1" height="10" style="stroke:none;stroke-width:1.0;" width="20" x="20" y="187.5391"/><ellipse cx="25" cy="192.5391" fill="#84BE84" rx="3" ry="3" style="stroke:#038048;stroke-width:1.0;"/></a><a href="./../../../../../.././qc/src/net/sourceforge/plantuml/tim/EaterTheme.java.html#131" target="_top" title="./../../../../../.././qc/src/net/sourceforge/plantuml/tim/EaterTheme.java.html#131" xlink:actuate="onRequest" xlink:href="./../../../../../.././qc/src/net/sourceforge/plantuml/tim/EaterTheme.java.html#131" xlink:show="new" xlink:title="./../../../../../.././qc/src/net/sourceforge/plantuml/tim/EaterTheme.java.html#131" xlink:type="simple"><text fill="#000000" font-family="sans-serif" font-size="14" lengthAdjust="spacing" textLength="126" x="34" y="195.8857">getName() : String</text></a></g><path d="M220,54.1708 C220,64.4955 220,77.1452 220,89.7017 " fill="none" style="stroke:#181818;stroke-width:1.0;"/><polygon fill="#FFFFFF" points="220,54.1708,214,70.1708,226,70.1708,220,54.1708" style="stroke:#181818;stroke-width:1.0;"/><!--MD5=[03ee060c72f6ead0eadd70a0cd1d14ee]
@startuml
!pragma layout smetana
"Eater" <|- - "net.sourceforge.plantuml.tim.EaterTheme"
class net.sourceforge.plantuml.tim.EaterTheme {
+EaterTheme(StringLocated;ImportedFiles) : EaterTheme [[[./../../../../../.././qc/src/net/sourceforge/plantuml/tim/EaterTheme.java.html#63]]]
+analyze(TContext;TMemory) : void [[[./../../../../../.././qc/src/net/sourceforge/plantuml/tim/EaterTheme.java.html#69]]]
+getTheme() : ReadLine [[[./../../../../../.././qc/src/net/sourceforge/plantuml/tim/EaterTheme.java.html#86]]]
+getName() : String [[[./../../../../../.././qc/src/net/sourceforge/plantuml/tim/EaterTheme.java.html#131]]]
} 
@enduml

PlantUML version 1.2022.7(Mon Aug 22 17:01:30 UTC 2022)
(GPL source distribution)
Java Runtime: OpenJDK Runtime Environment
JVM: OpenJDK 64-Bit Server VM
Default Encoding: UTF-8
Language: en
Country: null
--></g></svg>