<?xml version="1.0" encoding="UTF-8" standalone="no"?><svg xmlns="http://www.w3.org/2000/svg" xmlns:xlink="http://www.w3.org/1999/xlink" contentStyleType="text/css" height="1815px" preserveAspectRatio="none" style="width:744px;height:1815px;background:#FFFFFF;" version="1.1" viewBox="0 0 744 1815" width="744px" zoomAndPan="magnify"><defs/><g><path d="M355,10 L355,18.5664 L335,22.5664 L355,26.5664 L355,35.1328 A0,0 0 0 0 355,35.1328 L596,35.1328 A0,0 0 0 0 596,35.1328 L596,20 L586,10 L355,10 A0,0 0 0 0 355,10 " fill="#FEFFDD" style="stroke:#181818;stroke-width:0.5;"/><path d="M586,10 L586,20 L596,20 L586,10 " fill="#FEFFDD" style="stroke:#181818;stroke-width:0.5;"/><text fill="#000000" font-family="sans-serif" font-size="13" lengthAdjust="spacing" textLength="220" x="361" y="27.0669">constructor YamlDiagramFactory()</text><ellipse cx="325" cy="22.5664" fill="#222222" rx="10" ry="10" style="stroke:#222222;stroke-width:1.0;"/><rect fill="#F1F1F1" height="33.9688" rx="12.5" ry="12.5" style="stroke:#181818;stroke-width:0.5;" width="190" x="230" y="55.1328"/><text fill="#000000" font-family="sans-serif" font-size="12" lengthAdjust="spacing" textLength="170" x="240" y="76.2715">super (DiagramType.YAML);</text><ellipse cx="325" cy="119.1016" fill="none" rx="10" ry="10" style="stroke:#222222;stroke-width:1.5;"/><line style="stroke:#222222;stroke-width:2.5;" x1="318.8128" x2="331.1872" y1="112.9144" y2="125.2887"/><line style="stroke:#222222;stroke-width:2.5;" x1="331.1872" x2="318.8128" y1="112.9144" y2="125.2887"/><path d="M355,139.1016 L355,155.2344 L335,159.2344 L355,163.2344 L355,179.3672 A0,0 0 0 0 355,179.3672 L732,179.3672 A0,0 0 0 0 732,179.3672 L732,149.1016 L722,139.1016 L355,139.1016 A0,0 0 0 0 355,139.1016 " fill="#FEFFDD" style="stroke:#181818;stroke-width:0.5;"/><path d="M722,139.1016 L722,149.1016 L732,149.1016 L722,139.1016 " fill="#FEFFDD" style="stroke:#181818;stroke-width:0.5;"/><text fill="#000000" font-family="sans-serif" font-size="13" lengthAdjust="spacing" textLength="356" x="361" y="156.1685">Diagram createSystem(UmlSource source,Map&lt;String,</text><text fill="#000000" font-family="sans-serif" font-size="13" lengthAdjust="spacing" textLength="125" x="361" y="171.3013">String&gt; skinParam)</text><ellipse cx="325" cy="159.2344" fill="#222222" rx="10" ry="10" style="stroke:#222222;stroke-width:1.0;"/><rect fill="#F1F1F1" height="33.9688" rx="12.5" ry="12.5" style="stroke:#181818;stroke-width:0.5;" width="328" x="161" y="199.3672"/><text fill="#000000" font-family="sans-serif" font-size="12" lengthAdjust="spacing" textLength="308" x="171" y="220.5059">final List&lt;String&gt; highlighted=new ArrayList&lt;&gt;();</text><rect fill="#F1F1F1" height="33.9688" rx="12.5" ry="12.5" style="stroke:#181818;stroke-width:0.5;" width="153" x="248.5" y="253.3359"/><text fill="#000000" font-family="sans-serif" font-size="12" lengthAdjust="spacing" textLength="133" x="258.5" y="274.4746">JsonValue yaml=null ;</text><rect fill="#F1F1F1" height="33.9688" rx="12.5" ry="12.5" style="stroke:#181818;stroke-width:0.5;" width="237" x="206.5" y="307.3047"/><text fill="#000000" font-family="sans-serif" font-size="12" lengthAdjust="spacing" textLength="217" x="216.5" y="328.4434">StyleExtractor styleExtractor=null ;</text><polygon fill="#F1F1F1" points="284,361.2734,366,361.2734,378,373.2734,366,385.2734,284,385.2734,272,373.2734,284,361.2734" style="stroke:#181818;stroke-width:0.5;"/><text fill="#000000" font-family="sans-serif" font-size="11" lengthAdjust="spacing" textLength="82" x="284" y="377.0815">try/catch block</text><rect fill="#F1F1F1" height="33.9688" rx="12.5" ry="12.5" style="stroke:#181818;stroke-width:0.5;" width="276" x="94" y="420.8828"/><text fill="#000000" font-family="sans-serif" font-size="12" lengthAdjust="spacing" textLength="256" x="104" y="442.0215">final List&lt;String&gt; list=new ArrayList&lt;&gt;();</text><rect fill="#F1F1F1" height="33.9688" rx="12.5" ry="12.5" style="stroke:#181818;stroke-width:0.5;" width="358" x="53" y="474.8516"/><text fill="#000000" font-family="sans-serif" font-size="12" lengthAdjust="spacing" textLength="338" x="63" y="495.9902">styleExtractor=new StyleExtractor(source.iterator2());</text><rect fill="#F1F1F1" height="33.9688" rx="12.5" ry="12.5" style="stroke:#181818;stroke-width:0.5;" width="348" x="58" y="528.8203"/><text fill="#000000" font-family="sans-serif" font-size="12" lengthAdjust="spacing" textLength="328" x="68" y="549.959">final Iterator&lt;String&gt; it=styleExtractor.getIterator();</text><rect fill="#F1F1F1" height="33.9688" rx="12.5" ry="12.5" style="stroke:#181818;stroke-width:0.5;" width="73" x="195.5" y="582.7891"/><text fill="#000000" font-family="sans-serif" font-size="12" lengthAdjust="spacing" textLength="53" x="205.5" y="603.9277">it.next();</text><rect fill="#F1F1F1" height="33.9688" rx="12.5" ry="12.5" style="stroke:#181818;stroke-width:0.5;" width="176" x="144" y="680.7578"/><text fill="#000000" font-family="sans-serif" font-size="12" lengthAdjust="spacing" textLength="156" x="154" y="701.8965">final String line=it.next();</text><rect fill="#F1F1F1" height="33.9688" rx="12.5" ry="12.5" style="stroke:#181818;stroke-width:0.5;" width="64" x="200" y="783.1289"/><text fill="#000000" font-family="sans-serif" font-size="12" lengthAdjust="spacing" textLength="44" x="210" y="804.2676">break ;</text><polygon fill="#F1F1F1" points="176.5,734.7266,287.5,734.7266,299.5,746.7266,287.5,758.7266,176.5,758.7266,164.5,746.7266,176.5,734.7266" style="stroke:#181818;stroke-width:0.5;"/><text fill="#000000" font-family="sans-serif" font-size="11" lengthAdjust="spacing" textLength="20" x="236" y="768.937">yes</text><text fill="#000000" font-family="sans-serif" font-size="11" lengthAdjust="spacing" textLength="111" x="176.5" y="750.5347">it.hasNext()==false</text><polygon fill="#F1F1F1" points="232,837.0977,244,849.0977,232,861.0977,220,849.0977,232,837.0977" style="stroke:#181818;stroke-width:0.5;"/><rect fill="#F1F1F1" height="47.9375" rx="12.5" ry="12.5" style="stroke:#181818;stroke-width:0.5;" width="388" x="38" y="929.5"/><text fill="#000000" font-family="sans-serif" font-size="12" lengthAdjust="spacing" textLength="368" x="48" y="950.6387">highlighted.add(line.substring(String.valueOf("#highlight ")</text><text fill="#000000" font-family="sans-serif" font-size="12" lengthAdjust="spacing" textLength="106" x="48" y="964.6074">.length()).trim());</text><rect fill="#F1F1F1" height="33.9688" rx="12.5" ry="12.5" style="stroke:#181818;stroke-width:0.5;" width="83" x="190.5" y="1007.9531"/><text fill="#000000" font-family="sans-serif" font-size="12" lengthAdjust="spacing" textLength="63" x="200.5" y="1029.0918">continue ;</text><polygon fill="#F1F1F1" points="152,881.0977,312,881.0977,324,893.0977,312,905.0977,152,905.0977,140,893.0977,152,881.0977" style="stroke:#181818;stroke-width:0.5;"/><text fill="#000000" font-family="sans-serif" font-size="11" lengthAdjust="spacing" textLength="20" x="236" y="915.3081">yes</text><text fill="#000000" font-family="sans-serif" font-size="11" lengthAdjust="spacing" textLength="160" x="152" y="896.9058">line.startsWith("#highlight ")</text><polygon fill="#F1F1F1" points="232,1061.9219,244,1073.9219,232,1085.9219,220,1073.9219,232,1061.9219" style="stroke:#181818;stroke-width:0.5;"/><rect fill="#F1F1F1" height="33.9688" rx="12.5" ry="12.5" style="stroke:#181818;stroke-width:0.5;" width="102" x="181" y="1105.9219"/><text fill="#000000" font-family="sans-serif" font-size="12" lengthAdjust="spacing" textLength="82" x="191" y="1127.0605">list.add(line);</text><polygon fill="#F1F1F1" points="220,636.7578,244,636.7578,256,648.7578,244,660.7578,220,660.7578,208,648.7578,220,636.7578" style="stroke:#181818;stroke-width:0.5;"/><text fill="#000000" font-family="sans-serif" font-size="11" lengthAdjust="spacing" textLength="23" x="220.5" y="652.5659">true</text><rect fill="#F1F1F1" height="33.9688" rx="12.5" ry="12.5" style="stroke:#181818;stroke-width:0.5;" width="280" x="92" y="1181.8906"/><text fill="#000000" font-family="sans-serif" font-size="12" lengthAdjust="spacing" textLength="260" x="102" y="1203.0293">yaml=new SimpleYamlParser().parse(list);</text><rect fill="#F1F1F1" height="33.9688" rx="12.5" ry="12.5" style="stroke:#181818;stroke-width:0.5;" width="118" x="480" y="420.8828"/><text fill="#000000" font-family="sans-serif" font-size="12" lengthAdjust="spacing" textLength="98" x="490" y="442.0215">Logme.error(e);</text><polygon fill="#F1F1F1" points="325,1225.8594,325,1225.8594,337,1237.8594,325,1249.8594,325,1249.8594,313,1237.8594,325,1225.8594" style="stroke:#181818;stroke-width:0.5;"/><rect fill="#F1F1F1" height="47.9375" rx="12.5" ry="12.5" style="stroke:#181818;stroke-width:0.5;" width="337" x="156.5" y="1269.8594"/><text fill="#000000" font-family="sans-serif" font-size="12" lengthAdjust="spacing" textLength="317" x="166.5" y="1290.998">final JsonDiagram result=new JsonDiagram(source,</text><text fill="#000000" font-family="sans-serif" font-size="12" lengthAdjust="spacing" textLength="254" x="166.5" y="1304.9668">UmlDiagramType.YAML,yaml,highlighted);</text><rect fill="#F1F1F1" height="33.9688" rx="12.5" ry="12.5" style="stroke:#181818;stroke-width:0.5;" width="331" x="159.5" y="1386.1992"/><text fill="#000000" font-family="sans-serif" font-size="12" lengthAdjust="spacing" textLength="311" x="169.5" y="1407.3379">styleExtractor.applyStyles(result.getSkinParam());</text><rect fill="#F1F1F1" height="33.9688" rx="12.5" ry="12.5" style="stroke:#181818;stroke-width:0.5;" width="276" x="187" y="1440.168"/><text fill="#000000" font-family="sans-serif" font-size="12" lengthAdjust="spacing" textLength="256" x="197" y="1461.3066">final String title=styleExtractor.getTitle();</text><rect fill="#F1F1F1" height="47.9375" rx="12.5" ry="12.5" style="stroke:#181818;stroke-width:0.5;" width="456" x="97" y="1542.5391"/><text fill="#000000" font-family="sans-serif" font-size="12" lengthAdjust="spacing" textLength="436" x="107" y="1563.6777">result.setTitle(DisplayPositioned.single(Display.getWithNewlines(title),</text><text fill="#000000" font-family="sans-serif" font-size="12" lengthAdjust="spacing" textLength="355" x="107" y="1577.6465">HorizontalAlignment.CENTER,VerticalAlignment.CENTER));</text><polygon fill="#F1F1F1" points="296.5,1494.1367,353.5,1494.1367,365.5,1506.1367,353.5,1518.1367,296.5,1518.1367,284.5,1506.1367,296.5,1494.1367" style="stroke:#181818;stroke-width:0.5;"/><text fill="#000000" font-family="sans-serif" font-size="11" lengthAdjust="spacing" textLength="20" x="329" y="1528.3472">yes</text><text fill="#000000" font-family="sans-serif" font-size="11" lengthAdjust="spacing" textLength="53" x="296.5" y="1509.9448">title!=null</text><polygon fill="#F1F1F1" points="325,1610.4766,337,1622.4766,325,1634.4766,313,1622.4766,325,1610.4766" style="stroke:#181818;stroke-width:0.5;"/><polygon fill="#F1F1F1" points="268,1337.7969,382,1337.7969,394,1349.7969,382,1361.7969,268,1361.7969,256,1349.7969,268,1337.7969" style="stroke:#181818;stroke-width:0.5;"/><text fill="#000000" font-family="sans-serif" font-size="11" lengthAdjust="spacing" textLength="20" x="329" y="1372.0073">yes</text><text fill="#000000" font-family="sans-serif" font-size="11" lengthAdjust="spacing" textLength="110" x="268" y="1353.605">styleExtractor!=null</text><polygon fill="#F1F1F1" points="325,1654.4766,337,1666.4766,325,1678.4766,313,1666.4766,325,1654.4766" style="stroke:#181818;stroke-width:0.5;"/><rect fill="#F1F1F1" height="33.9688" rx="12.5" ry="12.5" style="stroke:#181818;stroke-width:0.5;" width="103" x="273.5" y="1698.4766"/><text fill="#000000" font-family="sans-serif" font-size="12" lengthAdjust="spacing" textLength="83" x="283.5" y="1719.6152">return result;</text><ellipse cx="325" cy="1763.4453" fill="none" rx="11" ry="11" style="stroke:#222222;stroke-width:1.0;"/><ellipse cx="325" cy="1763.4453" fill="#222222" rx="6" ry="6" style="stroke:#111111;stroke-width:1.0;"/><ellipse cx="325" cy="1794.4453" fill="none" rx="10" ry="10" style="stroke:#222222;stroke-width:1.5;"/><line style="stroke:#222222;stroke-width:2.5;" x1="318.8128" x2="331.1872" y1="1788.2581" y2="1800.6325"/><line style="stroke:#222222;stroke-width:2.5;" x1="331.1872" x2="318.8128" y1="1788.2581" y2="1800.6325"/><line style="stroke:#181818;stroke-width:1.0;" x1="325" x2="325" y1="32.5664" y2="55.1328"/><polygon fill="#181818" points="321,45.1328,325,55.1328,329,45.1328,325,49.1328" style="stroke:#181818;stroke-width:1.0;"/><line style="stroke:#181818;stroke-width:1.0;" x1="325" x2="325" y1="89.1016" y2="109.1016"/><polygon fill="#181818" points="321,99.1016,325,109.1016,329,99.1016,325,103.1016" style="stroke:#181818;stroke-width:1.0;"/><line style="stroke:#181818;stroke-width:1.0;" x1="325" x2="325" y1="169.2344" y2="199.3672"/><polygon fill="#181818" points="321,189.3672,325,199.3672,329,189.3672,325,193.3672" style="stroke:#181818;stroke-width:1.0;"/><line style="stroke:#181818;stroke-width:1.0;" x1="325" x2="325" y1="233.3359" y2="253.3359"/><polygon fill="#181818" points="321,243.3359,325,253.3359,329,243.3359,325,247.3359" style="stroke:#181818;stroke-width:1.0;"/><line style="stroke:#181818;stroke-width:1.0;" x1="325" x2="325" y1="287.3047" y2="307.3047"/><polygon fill="#181818" points="321,297.3047,325,307.3047,329,297.3047,325,301.3047" style="stroke:#181818;stroke-width:1.0;"/><line style="stroke:#181818;stroke-width:1.0;" x1="232" x2="232" y1="454.8516" y2="474.8516"/><polygon fill="#181818" points="228,464.8516,232,474.8516,236,464.8516,232,468.8516" style="stroke:#181818;stroke-width:1.0;"/><line style="stroke:#181818;stroke-width:1.0;" x1="232" x2="232" y1="508.8203" y2="528.8203"/><polygon fill="#181818" points="228,518.8203,232,528.8203,236,518.8203,232,522.8203" style="stroke:#181818;stroke-width:1.0;"/><line style="stroke:#181818;stroke-width:1.0;" x1="232" x2="232" y1="562.7891" y2="582.7891"/><polygon fill="#181818" points="228,572.7891,232,582.7891,236,572.7891,232,576.7891" style="stroke:#181818;stroke-width:1.0;"/><line style="stroke:#181818;stroke-width:1.0;" x1="232" x2="232" y1="758.7266" y2="783.1289"/><polygon fill="#181818" points="228,773.1289,232,783.1289,236,773.1289,232,777.1289" style="stroke:#181818;stroke-width:1.0;"/><line style="stroke:#181818;stroke-width:1.0;" x1="299.5" x2="311.5" y1="746.7266" y2="746.7266"/><polygon fill="#181818" points="307.5,790.1133,311.5,800.1133,315.5,790.1133,311.5,794.1133" style="stroke:#181818;stroke-width:1.0;"/><line style="stroke:#181818;stroke-width:1.0;" x1="311.5" x2="311.5" y1="746.7266" y2="849.0977"/><line style="stroke:#181818;stroke-width:1.0;" x1="311.5" x2="244" y1="849.0977" y2="849.0977"/><polygon fill="#181818" points="254,845.0977,244,849.0977,254,853.0977,250,849.0977" style="stroke:#181818;stroke-width:1.0;"/><line style="stroke:#181818;stroke-width:1.0;" x1="232" x2="232" y1="817.0977" y2="837.0977"/><polygon fill="#181818" points="228,827.0977,232,837.0977,236,827.0977,232,831.0977" style="stroke:#181818;stroke-width:1.0;"/><line style="stroke:#181818;stroke-width:1.0;" x1="232" x2="232" y1="714.7266" y2="734.7266"/><polygon fill="#181818" points="228,724.7266,232,734.7266,236,724.7266,232,728.7266" style="stroke:#181818;stroke-width:1.0;"/><line style="stroke:#181818;stroke-width:1.0;" x1="232" x2="232" y1="977.4375" y2="1007.9531"/><polygon fill="#181818" points="228,997.9531,232,1007.9531,236,997.9531,232,1001.9531" style="stroke:#181818;stroke-width:1.0;"/><line style="stroke:#181818;stroke-width:1.0;" x1="232" x2="232" y1="905.0977" y2="929.5"/><polygon fill="#181818" points="228,919.5,232,929.5,236,919.5,232,923.5" style="stroke:#181818;stroke-width:1.0;"/><line style="stroke:#181818;stroke-width:1.0;" x1="324" x2="436" y1="893.0977" y2="893.0977"/><polygon fill="#181818" points="432,977.9531,436,987.9531,440,977.9531,436,981.9531" style="stroke:#181818;stroke-width:1.0;"/><line style="stroke:#181818;stroke-width:1.0;" x1="436" x2="436" y1="893.0977" y2="1073.9219"/><line style="stroke:#181818;stroke-width:1.0;" x1="436" x2="244" y1="1073.9219" y2="1073.9219"/><polygon fill="#181818" points="254,1069.9219,244,1073.9219,254,1077.9219,250,1073.9219" style="stroke:#181818;stroke-width:1.0;"/><line style="stroke:#181818;stroke-width:1.0;" x1="232" x2="232" y1="1041.9219" y2="1061.9219"/><polygon fill="#181818" points="228,1051.9219,232,1061.9219,236,1051.9219,232,1055.9219" style="stroke:#181818;stroke-width:1.0;"/><line style="stroke:#181818;stroke-width:1.0;" x1="232" x2="232" y1="861.0977" y2="881.0977"/><polygon fill="#181818" points="228,871.0977,232,881.0977,236,871.0977,232,875.0977" style="stroke:#181818;stroke-width:1.0;"/><line style="stroke:#181818;stroke-width:1.0;" x1="232" x2="232" y1="1085.9219" y2="1105.9219"/><polygon fill="#181818" points="228,1095.9219,232,1105.9219,236,1095.9219,232,1099.9219" style="stroke:#181818;stroke-width:1.0;"/><line style="stroke:#181818;stroke-width:1.0;" x1="232" x2="232" y1="660.7578" y2="680.7578"/><polygon fill="#181818" points="228,670.7578,232,680.7578,236,670.7578,232,674.7578" style="stroke:#181818;stroke-width:1.0;"/><line style="stroke:#181818;stroke-width:1.0;" x1="232" x2="232" y1="1139.8906" y2="1149.8906"/><line style="stroke:#181818;stroke-width:1.0;" x1="232" x2="460" y1="1149.8906" y2="1149.8906"/><polygon fill="#181818" points="456,903.0664,460,893.0664,464,903.0664,460,899.0664" style="stroke:#181818;stroke-width:1.0;"/><line style="stroke:#181818;stroke-width:1.0;" x1="460" x2="460" y1="648.7578" y2="1149.8906"/><line style="stroke:#181818;stroke-width:1.0;" x1="460" x2="256" y1="648.7578" y2="648.7578"/><polygon fill="#181818" points="266,644.7578,256,648.7578,266,652.7578,262,648.7578" style="stroke:#181818;stroke-width:1.0;"/><line style="stroke:#181818;stroke-width:1.0;" x1="208" x2="24" y1="648.7578" y2="648.7578"/><polygon fill="#181818" points="20,889.0664,24,899.0664,28,889.0664,24,893.0664" style="stroke:#181818;stroke-width:1.0;"/><line style="stroke:#181818;stroke-width:1.0;" x1="24" x2="24" y1="648.7578" y2="1161.8906"/><line style="stroke:#181818;stroke-width:1.0;" x1="24" x2="232" y1="1161.8906" y2="1161.8906"/><line style="stroke:#181818;stroke-width:1.0;" x1="232" x2="232" y1="1161.8906" y2="1181.8906"/><polygon fill="#181818" points="228,1171.8906,232,1181.8906,236,1171.8906,232,1175.8906" style="stroke:#181818;stroke-width:1.0;"/><line style="stroke:#181818;stroke-width:1.0;" x1="232" x2="232" y1="616.7578" y2="636.7578"/><polygon fill="#181818" points="228,626.7578,232,636.7578,236,626.7578,232,630.7578" style="stroke:#181818;stroke-width:1.0;"/><line style="stroke:#181818;stroke-width:1.0;" x1="272" x2="232" y1="373.2734" y2="373.2734"/><line style="stroke:#181818;stroke-width:1.0;" x1="232" x2="232" y1="373.2734" y2="420.8828"/><polygon fill="#181818" points="228,410.8828,232,420.8828,236,410.8828,232,414.8828" style="stroke:#181818;stroke-width:1.0;"/><text fill="#000000" font-family="sans-serif" font-size="11" lengthAdjust="spacing" textLength="15" x="232" y="400.8862">try</text><line style="stroke:#181818;stroke-width:1.0;" x1="378" x2="539" y1="373.2734" y2="373.2734"/><line style="stroke:#181818;stroke-width:1.0;" x1="539" x2="539" y1="373.2734" y2="420.8828"/><polygon fill="#181818" points="535,410.8828,539,420.8828,543,410.8828,539,414.8828" style="stroke:#181818;stroke-width:1.0;"/><text fill="#000000" font-family="sans-serif" font-size="11" lengthAdjust="spacing" textLength="107" x="539" y="400.8862">catch (Exception e)</text><line style="stroke:#181818;stroke-width:1.0;" x1="232" x2="232" y1="1215.8594" y2="1237.8594"/><line style="stroke:#181818;stroke-width:1.0;" x1="232" x2="313" y1="1237.8594" y2="1237.8594"/><polygon fill="#181818" points="303,1233.8594,313,1237.8594,303,1241.8594,307,1237.8594" style="stroke:#181818;stroke-width:1.0;"/><line style="stroke:#181818;stroke-width:1.0;" x1="539" x2="539" y1="454.8516" y2="1237.8594"/><line style="stroke:#181818;stroke-width:1.0;" x1="539" x2="337" y1="1237.8594" y2="1237.8594"/><polygon fill="#181818" points="347,1233.8594,337,1237.8594,347,1241.8594,343,1237.8594" style="stroke:#181818;stroke-width:1.0;"/><line style="stroke:#181818;stroke-width:1.0;" x1="325" x2="325" y1="341.2734" y2="361.2734"/><polygon fill="#181818" points="321,351.2734,325,361.2734,329,351.2734,325,355.2734" style="stroke:#181818;stroke-width:1.0;"/><line style="stroke:#181818;stroke-width:1.0;" x1="325" x2="325" y1="1249.8594" y2="1269.8594"/><polygon fill="#181818" points="321,1259.8594,325,1269.8594,329,1259.8594,325,1263.8594" style="stroke:#181818;stroke-width:1.0;"/><line style="stroke:#181818;stroke-width:1.0;" x1="325" x2="325" y1="1420.168" y2="1440.168"/><polygon fill="#181818" points="321,1430.168,325,1440.168,329,1430.168,325,1434.168" style="stroke:#181818;stroke-width:1.0;"/><line style="stroke:#181818;stroke-width:1.0;" x1="325" x2="325" y1="1518.1367" y2="1542.5391"/><polygon fill="#181818" points="321,1532.5391,325,1542.5391,329,1532.5391,325,1536.5391" style="stroke:#181818;stroke-width:1.0;"/><line style="stroke:#181818;stroke-width:1.0;" x1="365.5" x2="563" y1="1506.1367" y2="1506.1367"/><polygon fill="#181818" points="559,1556.5078,563,1566.5078,567,1556.5078,563,1560.5078" style="stroke:#181818;stroke-width:1.0;"/><line style="stroke:#181818;stroke-width:1.0;" x1="563" x2="563" y1="1506.1367" y2="1622.4766"/><line style="stroke:#181818;stroke-width:1.0;" x1="563" x2="337" y1="1622.4766" y2="1622.4766"/><polygon fill="#181818" points="347,1618.4766,337,1622.4766,347,1626.4766,343,1622.4766" style="stroke:#181818;stroke-width:1.0;"/><line style="stroke:#181818;stroke-width:1.0;" x1="325" x2="325" y1="1590.4766" y2="1610.4766"/><polygon fill="#181818" points="321,1600.4766,325,1610.4766,329,1600.4766,325,1604.4766" style="stroke:#181818;stroke-width:1.0;"/><line style="stroke:#181818;stroke-width:1.0;" x1="325" x2="325" y1="1474.1367" y2="1494.1367"/><polygon fill="#181818" points="321,1484.1367,325,1494.1367,329,1484.1367,325,1488.1367" style="stroke:#181818;stroke-width:1.0;"/><line style="stroke:#181818;stroke-width:1.0;" x1="325" x2="325" y1="1361.7969" y2="1386.1992"/><polygon fill="#181818" points="321,1376.1992,325,1386.1992,329,1376.1992,325,1380.1992" style="stroke:#181818;stroke-width:1.0;"/><line style="stroke:#181818;stroke-width:1.0;" x1="394" x2="585" y1="1349.7969" y2="1349.7969"/><polygon fill="#181818" points="581,1487.5391,585,1497.5391,589,1487.5391,585,1491.5391" style="stroke:#181818;stroke-width:1.0;"/><line style="stroke:#181818;stroke-width:1.0;" x1="585" x2="585" y1="1349.7969" y2="1666.4766"/><line style="stroke:#181818;stroke-width:1.0;" x1="585" x2="337" y1="1666.4766" y2="1666.4766"/><polygon fill="#181818" points="347,1662.4766,337,1666.4766,347,1670.4766,343,1666.4766" style="stroke:#181818;stroke-width:1.0;"/><line style="stroke:#181818;stroke-width:1.0;" x1="325" x2="325" y1="1634.4766" y2="1654.4766"/><polygon fill="#181818" points="321,1644.4766,325,1654.4766,329,1644.4766,325,1648.4766" style="stroke:#181818;stroke-width:1.0;"/><line style="stroke:#181818;stroke-width:1.0;" x1="325" x2="325" y1="1317.7969" y2="1337.7969"/><polygon fill="#181818" points="321,1327.7969,325,1337.7969,329,1327.7969,325,1331.7969" style="stroke:#181818;stroke-width:1.0;"/><line style="stroke:#181818;stroke-width:1.0;" x1="325" x2="325" y1="1678.4766" y2="1698.4766"/><polygon fill="#181818" points="321,1688.4766,325,1698.4766,329,1688.4766,325,1692.4766" style="stroke:#181818;stroke-width:1.0;"/><line style="stroke:#181818;stroke-width:1.0;" x1="325" x2="325" y1="1732.4453" y2="1752.4453"/><polygon fill="#181818" points="321,1742.4453,325,1752.4453,329,1742.4453,325,1746.4453" style="stroke:#181818;stroke-width:1.0;"/><!--MD5=[7f875e8935d5585a4837dfc559669d04]
@startuml
!pragma layout smetana
start
note right
constructor YamlDiagramFactory()
end note
:super (DiagramType.YAML);;
end
start
note right
Diagram createSystem(UmlSource source,Map<String,
String> skinParam)
end note
:final List<String> highlighted=new ArrayList<>();;
:JsonValue yaml=null ;;
:StyleExtractor styleExtractor=null ;;
switch (try/catch block)
case (try)
:final List<String> list=new ArrayList<>();;
:styleExtractor=new StyleExtractor(source.iterator2());;
:final Iterator<String> it=styleExtractor.getIterator();;
:it.next();;
while (true)
:final String line=it.next();;
if (it.hasNext()==false) then (yes) 
:break ;;
endif 
if (line.startsWith("#highlight ")) then (yes) 
:highlighted.add(line.substring(String.valueOf("#highlight ")
.length()).trim());;
:continue ;;
endif 
:list.add(line);;
endwhile
:yaml=new SimpleYamlParser().parse(list);;
case (catch (Exception e))
:Logme.error(e);;
endswitch
:final JsonDiagram result=new JsonDiagram(source,
UmlDiagramType.YAML,yaml,highlighted);;
if (styleExtractor!=null ) then (yes) 
:styleExtractor.applyStyles(result.getSkinParam());;
:final String title=styleExtractor.getTitle();;
if (title!=null ) then (yes) 
:result.setTitle(DisplayPositioned.single(Display.getWithNewlines(title),
HorizontalAlignment.CENTER,VerticalAlignment.CENTER));;
endif 
endif 
:return result;;
stop
end
@enduml

PlantUML version 1.2022.7(Mon Aug 22 17:01:30 UTC 2022)
(GPL source distribution)
Java Runtime: OpenJDK Runtime Environment
JVM: OpenJDK 64-Bit Server VM
Default Encoding: UTF-8
Language: en
Country: null
--></g></svg>