<?xml version="1.0" encoding="UTF-8" standalone="no"?><svg xmlns="http://www.w3.org/2000/svg" xmlns:xlink="http://www.w3.org/1999/xlink" contentStyleType="text/css" height="218px" preserveAspectRatio="none" style="width:525px;height:218px;background:#FFFFFF;" version="1.1" viewBox="0 0 525 218" width="525px" zoomAndPan="magnify"><defs/><g><!--MD5=[34e282ae1f2b261216ea6d3fe01fc951]
cluster net.sourceforge.plantuml.logo--><g id="cluster_net.sourceforge.plantuml.logo"><path d="M8.5,63 L249.5,63 A3.75,3.75 0 0 1 252,65.5 L259,85.2969 L515.5,85.2969 A2.5,2.5 0 0 1 518,87.7969 L518,208.5 A2.5,2.5 0 0 1 515.5,211 L8.5,211 A2.5,2.5 0 0 1 6,208.5 L6,65.5 A2.5,2.5 0 0 1 8.5,63 " fill="none" style="stroke:#000000;stroke-width:1.5;"/><line style="stroke:#000000;stroke-width:1.5;" x1="6" x2="259" y1="85.2969" y2="85.2969"/><text fill="#000000" font-family="sans-serif" font-size="14" font-weight="bold" lengthAdjust="spacing" textLength="240" x="10" y="77.9951">net.sourceforge.plantuml.logo</text></g><!--MD5=[75bab69663b9cbe6059cb37b9047eb5d]
class AbstractPSystem--><g id="elem_AbstractPSystem"><rect fill="#F1F1F1" height="48" id="AbstractPSystem" rx="2.5" ry="2.5" style="stroke:#181818;stroke-width:0.5;" width="149" x="187.5" y="6"/><ellipse cx="202.5" cy="22" fill="#ADD1B2" rx="11" ry="11" style="stroke:#181818;stroke-width:1.0;"/><path d="M205.4688,27.6406 Q204.8906,27.9375 204.25,28.0781 Q203.6094,28.2344 202.9063,28.2344 Q200.4063,28.2344 199.0781,26.5938 Q197.7656,24.9375 197.7656,21.8125 Q197.7656,18.6875 199.0781,17.0313 Q200.4063,15.375 202.9063,15.375 Q203.6094,15.375 204.25,15.5313 Q204.9063,15.6875 205.4688,15.9844 L205.4688,18.7031 Q204.8438,18.125 204.25,17.8594 Q203.6563,17.5781 203.0313,17.5781 Q201.6875,17.5781 201,18.6563 Q200.3125,19.7188 200.3125,21.8125 Q200.3125,23.9063 201,24.9844 Q201.6875,26.0469 203.0313,26.0469 Q203.6563,26.0469 204.25,25.7813 Q204.8438,25.5 205.4688,24.9219 L205.4688,27.6406 Z " fill="#000000"/><text fill="#000000" font-family="sans-serif" font-size="14" lengthAdjust="spacing" textLength="117" x="216.5" y="26.8467">AbstractPSystem</text><line style="stroke:#181818;stroke-width:0.5;" x1="188.5" x2="335.5" y1="38" y2="38"/><line style="stroke:#181818;stroke-width:0.5;" x1="188.5" x2="335.5" y1="46" y2="46"/></g><!--MD5=[302fff4452cbc93ed087ddccbe87c2fc]
class net.sourceforge.plantuml.logo.PSystemLogo--><g id="elem_net.sourceforge.plantuml.logo.PSystemLogo"><rect codeLine="3" fill="#F1F1F1" height="113.1875" id="net.sourceforge.plantuml.logo.PSystemLogo" rx="2.5" ry="2.5" style="stroke:#181818;stroke-width:0.5;" width="495" x="14.5" y="90"/><ellipse cx="210.75" cy="106" fill="#ADD1B2" rx="11" ry="11" style="stroke:#181818;stroke-width:1.0;"/><path d="M213.7188,111.6406 Q213.1406,111.9375 212.5,112.0781 Q211.8594,112.2344 211.1563,112.2344 Q208.6563,112.2344 207.3281,110.5938 Q206.0156,108.9375 206.0156,105.8125 Q206.0156,102.6875 207.3281,101.0313 Q208.6563,99.375 211.1563,99.375 Q211.8594,99.375 212.5,99.5313 Q213.1563,99.6875 213.7188,99.9844 L213.7188,102.7031 Q213.0938,102.125 212.5,101.8594 Q211.9063,101.5781 211.2813,101.5781 Q209.9375,101.5781 209.25,102.6563 Q208.5625,103.7188 208.5625,105.8125 Q208.5625,107.9063 209.25,108.9844 Q209.9375,110.0469 211.2813,110.0469 Q211.9063,110.0469 212.5,109.7813 Q213.0938,109.5 213.7188,108.9219 L213.7188,111.6406 Z " fill="#000000"/><text fill="#000000" font-family="sans-serif" font-size="14" lengthAdjust="spacing" textLength="94" x="231.25" y="110.8467">PSystemLogo</text><line style="stroke:#181818;stroke-width:0.5;" x1="15.5" x2="508.5" y1="122" y2="122"/><line style="stroke:#181818;stroke-width:0.5;" x1="15.5" x2="508.5" y1="130" y2="130"/><a href="./../../../../../.././qc/src/net/sourceforge/plantuml/logo/PSystemLogo.java.html#64" target="_top" title="./../../../../../.././qc/src/net/sourceforge/plantuml/logo/PSystemLogo.java.html#64" xlink:actuate="onRequest" xlink:href="./../../../../../.././qc/src/net/sourceforge/plantuml/logo/PSystemLogo.java.html#64" xlink:show="new" xlink:title="./../../../../../.././qc/src/net/sourceforge/plantuml/logo/PSystemLogo.java.html#64" xlink:type="simple"><rect fill="#F1F1F1" height="10" style="stroke:none;stroke-width:1.0;" width="20" x="20.5" y="138.6484"/><ellipse cx="25.5" cy="143.6484" fill="#84BE84" rx="3" ry="3" style="stroke:#038048;stroke-width:1.0;"/></a><a href="./../../../../../.././qc/src/net/sourceforge/plantuml/logo/PSystemLogo.java.html#64" target="_top" title="./../../../../../.././qc/src/net/sourceforge/plantuml/logo/PSystemLogo.java.html#64" xlink:actuate="onRequest" xlink:href="./../../../../../.././qc/src/net/sourceforge/plantuml/logo/PSystemLogo.java.html#64" xlink:show="new" xlink:title="./../../../../../.././qc/src/net/sourceforge/plantuml/logo/PSystemLogo.java.html#64" xlink:type="simple"><text fill="#000000" font-family="sans-serif" font-size="14" lengthAdjust="spacing" textLength="286" x="34.5" y="146.9951">PSystemLogo(UmlSource) : PSystemLogo</text></a><a href="./../../../../../.././qc/src/net/sourceforge/plantuml/logo/PSystemLogo.java.html#69" target="_top" title="./../../../../../.././qc/src/net/sourceforge/plantuml/logo/PSystemLogo.java.html#69" xlink:actuate="onRequest" xlink:href="./../../../../../.././qc/src/net/sourceforge/plantuml/logo/PSystemLogo.java.html#69" xlink:show="new" xlink:title="./../../../../../.././qc/src/net/sourceforge/plantuml/logo/PSystemLogo.java.html#69" xlink:type="simple"><text fill="#000000" font-family="sans-serif" font-size="14" lengthAdjust="spacing" textLength="469" x="34.5" y="163.292">exportDiagramNow(OutputStream;int;FileFormatOption) : ImageData</text></a><a href="./../../../../../.././qc/src/net/sourceforge/plantuml/logo/PSystemLogo.java.html#99" target="_top" title="./../../../../../.././qc/src/net/sourceforge/plantuml/logo/PSystemLogo.java.html#99" xlink:actuate="onRequest" xlink:href="./../../../../../.././qc/src/net/sourceforge/plantuml/logo/PSystemLogo.java.html#99" xlink:show="new" xlink:title="./../../../../../.././qc/src/net/sourceforge/plantuml/logo/PSystemLogo.java.html#99" xlink:type="simple"><rect fill="#F1F1F1" height="10" style="stroke:none;stroke-width:1.0;" width="20" x="20.5" y="171.2422"/><ellipse cx="25.5" cy="176.2422" fill="#84BE84" rx="3" ry="3" style="stroke:#038048;stroke-width:1.0;"/></a><a href="./../../../../../.././qc/src/net/sourceforge/plantuml/logo/PSystemLogo.java.html#99" target="_top" title="./../../../../../.././qc/src/net/sourceforge/plantuml/logo/PSystemLogo.java.html#99" xlink:actuate="onRequest" xlink:href="./../../../../../.././qc/src/net/sourceforge/plantuml/logo/PSystemLogo.java.html#99" xlink:show="new" xlink:title="./../../../../../.././qc/src/net/sourceforge/plantuml/logo/PSystemLogo.java.html#99" xlink:type="simple"><text fill="#000000" font-family="sans-serif" font-size="14" lengthAdjust="spacing" textLength="261" x="34.5" y="179.5889">getDescription() : DiagramDescription</text></a><a href="./../../../../../.././qc/src/net/sourceforge/plantuml/logo/PSystemLogo.java.html#103" target="_top" title="./../../../../../.././qc/src/net/sourceforge/plantuml/logo/PSystemLogo.java.html#103" xlink:actuate="onRequest" xlink:href="./../../../../../.././qc/src/net/sourceforge/plantuml/logo/PSystemLogo.java.html#103" xlink:show="new" xlink:title="./../../../../../.././qc/src/net/sourceforge/plantuml/logo/PSystemLogo.java.html#103" xlink:type="simple"><rect fill="#F1F1F1" height="10" style="stroke:none;stroke-width:1.0;" width="20" x="20.5" y="187.5391"/><ellipse cx="25.5" cy="192.5391" fill="#84BE84" rx="3" ry="3" style="stroke:#038048;stroke-width:1.0;"/></a><a href="./../../../../../.././qc/src/net/sourceforge/plantuml/logo/PSystemLogo.java.html#103" target="_top" title="./../../../../../.././qc/src/net/sourceforge/plantuml/logo/PSystemLogo.java.html#103" xlink:actuate="onRequest" xlink:href="./../../../../../.././qc/src/net/sourceforge/plantuml/logo/PSystemLogo.java.html#103" xlink:show="new" xlink:title="./../../../../../.././qc/src/net/sourceforge/plantuml/logo/PSystemLogo.java.html#103" xlink:type="simple"><text fill="#000000" font-family="sans-serif" font-size="14" lengthAdjust="spacing" textLength="208" x="34.5" y="195.8857">doCommandLine(String) : void</text></a></g><path d="M262,54.1708 C262,64.4955 262,77.1452 262,89.7017 " fill="none" style="stroke:#181818;stroke-width:1.0;"/><polygon fill="#FFFFFF" points="262,54.1708,256,70.1708,268,70.1708,262,54.1708" style="stroke:#181818;stroke-width:1.0;"/><!--MD5=[dee221cf5812bd56bfb65860a926bd24]
@startuml
!pragma layout smetana
"AbstractPSystem" <|- - "net.sourceforge.plantuml.logo.PSystemLogo"
class net.sourceforge.plantuml.logo.PSystemLogo {
+PSystemLogo(UmlSource) : PSystemLogo [[[./../../../../../.././qc/src/net/sourceforge/plantuml/logo/PSystemLogo.java.html#64]]]
exportDiagramNow(OutputStream;int;FileFormatOption) : ImageData [[[./../../../../../.././qc/src/net/sourceforge/plantuml/logo/PSystemLogo.java.html#69]]]
+getDescription() : DiagramDescription [[[./../../../../../.././qc/src/net/sourceforge/plantuml/logo/PSystemLogo.java.html#99]]]
+doCommandLine(String) : void [[[./../../../../../.././qc/src/net/sourceforge/plantuml/logo/PSystemLogo.java.html#103]]]
} 
@enduml

PlantUML version 1.2022.7(Mon Aug 22 17:01:30 UTC 2022)
(GPL source distribution)
Java Runtime: OpenJDK Runtime Environment
JVM: OpenJDK 64-Bit Server VM
Default Encoding: UTF-8
Language: en
Country: null
--></g></svg>