<?xml version="1.0" encoding="UTF-8" standalone="no"?><svg xmlns="http://www.w3.org/2000/svg" xmlns:xlink="http://www.w3.org/1999/xlink" contentStyleType="text/css" height="285px" preserveAspectRatio="none" style="width:283px;height:285px;background:#FFFFFF;" version="1.1" viewBox="0 0 283 285" width="283px" zoomAndPan="magnify"><defs/><g><!--MD5=[aa8f7b917213fcc1c2766e2d59b49067]
cluster java.lang--><g id="cluster_java.lang"><path d="M96.5,6 L166.5,6 A3.75,3.75 0 0 1 169,8.5 L176,28.2969 L185.5,28.2969 A2.5,2.5 0 0 1 188,30.7969 L188,86.5 A2.5,2.5 0 0 1 185.5,89 L96.5,89 A2.5,2.5 0 0 1 94,86.5 L94,8.5 A2.5,2.5 0 0 1 96.5,6 " fill="none" style="stroke:#000000;stroke-width:1.5;"/><line style="stroke:#000000;stroke-width:1.5;" x1="94" x2="176" y1="28.2969" y2="28.2969"/><text fill="#000000" font-family="sans-serif" font-size="14" font-weight="bold" lengthAdjust="spacing" textLength="69" x="98" y="20.9951">java.lang</text></g><!--MD5=[ef341349c381dee4ee7269b260b7cdc2]
cluster net.sourceforge.plantuml.golem--><g id="cluster_net.sourceforge.plantuml.golem"><path d="M8.5,97 L263.5,97 A3.75,3.75 0 0 1 266,99.5 L273,119.2969 L273.5,119.2969 A2.5,2.5 0 0 1 276,121.7969 L276,275.5 A2.5,2.5 0 0 1 273.5,278 L8.5,278 A2.5,2.5 0 0 1 6,275.5 L6,99.5 A2.5,2.5 0 0 1 8.5,97 " fill="none" style="stroke:#000000;stroke-width:1.5;"/><line style="stroke:#000000;stroke-width:1.5;" x1="6" x2="273" y1="119.2969" y2="119.2969"/><text fill="#000000" font-family="sans-serif" font-size="14" font-weight="bold" lengthAdjust="spacing" textLength="254" x="10" y="111.9951">net.sourceforge.plantuml.golem</text></g><!--MD5=[274ad5661286b626a93603d287cbf95a]
class java.lang.Object--><g id="elem_java.lang.Object"><rect fill="#F1F1F1" height="48" id="java.lang.Object" rx="2.5" ry="2.5" style="stroke:#181818;stroke-width:0.5;" width="77" x="102.5" y="33"/><ellipse cx="117.5" cy="49" fill="#ADD1B2" rx="11" ry="11" style="stroke:#181818;stroke-width:1.0;"/><path d="M120.4688,54.6406 Q119.8906,54.9375 119.25,55.0781 Q118.6094,55.2344 117.9063,55.2344 Q115.4063,55.2344 114.0781,53.5938 Q112.7656,51.9375 112.7656,48.8125 Q112.7656,45.6875 114.0781,44.0313 Q115.4063,42.375 117.9063,42.375 Q118.6094,42.375 119.25,42.5313 Q119.9063,42.6875 120.4688,42.9844 L120.4688,45.7031 Q119.8438,45.125 119.25,44.8594 Q118.6563,44.5781 118.0313,44.5781 Q116.6875,44.5781 116,45.6563 Q115.3125,46.7188 115.3125,48.8125 Q115.3125,50.9063 116,51.9844 Q116.6875,53.0469 118.0313,53.0469 Q118.6563,53.0469 119.25,52.7813 Q119.8438,52.5 120.4688,51.9219 L120.4688,54.6406 Z " fill="#000000"/><text fill="#000000" font-family="sans-serif" font-size="14" lengthAdjust="spacing" textLength="45" x="131.5" y="53.8467">Object</text><line style="stroke:#181818;stroke-width:0.5;" x1="103.5" x2="178.5" y1="65" y2="65"/><line style="stroke:#181818;stroke-width:0.5;" x1="103.5" x2="178.5" y1="73" y2="73"/></g><!--MD5=[825b0a269aad8a564977ef12d65013d2]
class net.sourceforge.plantuml.golem.MinMaxGolem--><g id="elem_net.sourceforge.plantuml.golem.MinMaxGolem"><rect codeLine="3" fill="#F1F1F1" height="145.7813" id="net.sourceforge.plantuml.golem.MinMaxGolem" rx="2.5" ry="2.5" style="stroke:#181818;stroke-width:0.5;" width="188" x="47" y="124"/><ellipse cx="89" cy="140" fill="#ADD1B2" rx="11" ry="11" style="stroke:#181818;stroke-width:1.0;"/><path d="M91.9688,145.6406 Q91.3906,145.9375 90.75,146.0781 Q90.1094,146.2344 89.4063,146.2344 Q86.9063,146.2344 85.5781,144.5938 Q84.2656,142.9375 84.2656,139.8125 Q84.2656,136.6875 85.5781,135.0313 Q86.9063,133.375 89.4063,133.375 Q90.1094,133.375 90.75,133.5313 Q91.4063,133.6875 91.9688,133.9844 L91.9688,136.7031 Q91.3438,136.125 90.75,135.8594 Q90.1563,135.5781 89.5313,135.5781 Q88.1875,135.5781 87.5,136.6563 Q86.8125,137.7188 86.8125,139.8125 Q86.8125,141.9063 87.5,142.9844 Q88.1875,144.0469 89.5313,144.0469 Q90.1563,144.0469 90.75,143.7813 Q91.3438,143.5 91.9688,142.9219 L91.9688,145.6406 Z " fill="#000000"/><text fill="#000000" font-family="sans-serif" font-size="14" lengthAdjust="spacing" textLength="96" x="109" y="144.8467">MinMaxGolem</text><line style="stroke:#181818;stroke-width:0.5;" x1="48" x2="234" y1="156" y2="156"/><line style="stroke:#181818;stroke-width:0.5;" x1="48" x2="234" y1="164" y2="164"/><a href="./../../../../../.././qc/src/net/sourceforge/plantuml/golem/MinMaxGolem.java.html#45" target="_top" title="./../../../../../.././qc/src/net/sourceforge/plantuml/golem/MinMaxGolem.java.html#45" xlink:actuate="onRequest" xlink:href="./../../../../../.././qc/src/net/sourceforge/plantuml/golem/MinMaxGolem.java.html#45" xlink:show="new" xlink:title="./../../../../../.././qc/src/net/sourceforge/plantuml/golem/MinMaxGolem.java.html#45" xlink:type="simple"><rect fill="#F1F1F1" height="10" style="stroke:none;stroke-width:1.0;" width="20" x="53" y="172.6484"/><ellipse cx="58" cy="177.6484" fill="#84BE84" rx="3" ry="3" style="stroke:#038048;stroke-width:1.0;"/></a><a href="./../../../../../.././qc/src/net/sourceforge/plantuml/golem/MinMaxGolem.java.html#45" target="_top" title="./../../../../../.././qc/src/net/sourceforge/plantuml/golem/MinMaxGolem.java.html#45" xlink:actuate="onRequest" xlink:href="./../../../../../.././qc/src/net/sourceforge/plantuml/golem/MinMaxGolem.java.html#45" xlink:show="new" xlink:title="./../../../../../.././qc/src/net/sourceforge/plantuml/golem/MinMaxGolem.java.html#45" xlink:type="simple"><text fill="#000000" font-family="sans-serif" font-size="14" lengthAdjust="spacing" textLength="146" x="67" y="180.9951">manage(int;int) : void</text></a><a href="./../../../../../.././qc/src/net/sourceforge/plantuml/golem/MinMaxGolem.java.html#60" target="_top" title="./../../../../../.././qc/src/net/sourceforge/plantuml/golem/MinMaxGolem.java.html#60" xlink:actuate="onRequest" xlink:href="./../../../../../.././qc/src/net/sourceforge/plantuml/golem/MinMaxGolem.java.html#60" xlink:show="new" xlink:title="./../../../../../.././qc/src/net/sourceforge/plantuml/golem/MinMaxGolem.java.html#60" xlink:type="simple"><rect fill="#F1F1F1" height="10" style="stroke:none;stroke-width:1.0;" width="20" x="53" y="188.9453"/><ellipse cx="58" cy="193.9453" fill="#84BE84" rx="3" ry="3" style="stroke:#038048;stroke-width:1.0;"/></a><a href="./../../../../../.././qc/src/net/sourceforge/plantuml/golem/MinMaxGolem.java.html#60" target="_top" title="./../../../../../.././qc/src/net/sourceforge/plantuml/golem/MinMaxGolem.java.html#60" xlink:actuate="onRequest" xlink:href="./../../../../../.././qc/src/net/sourceforge/plantuml/golem/MinMaxGolem.java.html#60" xlink:show="new" xlink:title="./../../../../../.././qc/src/net/sourceforge/plantuml/golem/MinMaxGolem.java.html#60" xlink:type="simple"><text fill="#000000" font-family="sans-serif" font-size="14" lengthAdjust="spacing" textLength="162" x="67" y="197.292">manage(Position) : void</text></a><a href="./../../../../../.././qc/src/net/sourceforge/plantuml/golem/MinMaxGolem.java.html#65" target="_top" title="./../../../../../.././qc/src/net/sourceforge/plantuml/golem/MinMaxGolem.java.html#65" xlink:actuate="onRequest" xlink:href="./../../../../../.././qc/src/net/sourceforge/plantuml/golem/MinMaxGolem.java.html#65" xlink:show="new" xlink:title="./../../../../../.././qc/src/net/sourceforge/plantuml/golem/MinMaxGolem.java.html#65" xlink:type="simple"><rect fill="#F1F1F1" height="10" style="stroke:none;stroke-width:1.0;" width="20" x="53" y="205.2422"/><ellipse cx="58" cy="210.2422" fill="#84BE84" rx="3" ry="3" style="stroke:#038048;stroke-width:1.0;"/></a><a href="./../../../../../.././qc/src/net/sourceforge/plantuml/golem/MinMaxGolem.java.html#65" target="_top" title="./../../../../../.././qc/src/net/sourceforge/plantuml/golem/MinMaxGolem.java.html#65" xlink:actuate="onRequest" xlink:href="./../../../../../.././qc/src/net/sourceforge/plantuml/golem/MinMaxGolem.java.html#65" xlink:show="new" xlink:title="./../../../../../.././qc/src/net/sourceforge/plantuml/golem/MinMaxGolem.java.html#65" xlink:type="simple"><text fill="#000000" font-family="sans-serif" font-size="14" lengthAdjust="spacing" textLength="96" x="67" y="213.5889">getMinX() : int</text></a><a href="./../../../../../.././qc/src/net/sourceforge/plantuml/golem/MinMaxGolem.java.html#69" target="_top" title="./../../../../../.././qc/src/net/sourceforge/plantuml/golem/MinMaxGolem.java.html#69" xlink:actuate="onRequest" xlink:href="./../../../../../.././qc/src/net/sourceforge/plantuml/golem/MinMaxGolem.java.html#69" xlink:show="new" xlink:title="./../../../../../.././qc/src/net/sourceforge/plantuml/golem/MinMaxGolem.java.html#69" xlink:type="simple"><rect fill="#F1F1F1" height="10" style="stroke:none;stroke-width:1.0;" width="20" x="53" y="221.5391"/><ellipse cx="58" cy="226.5391" fill="#84BE84" rx="3" ry="3" style="stroke:#038048;stroke-width:1.0;"/></a><a href="./../../../../../.././qc/src/net/sourceforge/plantuml/golem/MinMaxGolem.java.html#69" target="_top" title="./../../../../../.././qc/src/net/sourceforge/plantuml/golem/MinMaxGolem.java.html#69" xlink:actuate="onRequest" xlink:href="./../../../../../.././qc/src/net/sourceforge/plantuml/golem/MinMaxGolem.java.html#69" xlink:show="new" xlink:title="./../../../../../.././qc/src/net/sourceforge/plantuml/golem/MinMaxGolem.java.html#69" xlink:type="simple"><text fill="#000000" font-family="sans-serif" font-size="14" lengthAdjust="spacing" textLength="96" x="67" y="229.8857">getMinY() : int</text></a><a href="./../../../../../.././qc/src/net/sourceforge/plantuml/golem/MinMaxGolem.java.html#73" target="_top" title="./../../../../../.././qc/src/net/sourceforge/plantuml/golem/MinMaxGolem.java.html#73" xlink:actuate="onRequest" xlink:href="./../../../../../.././qc/src/net/sourceforge/plantuml/golem/MinMaxGolem.java.html#73" xlink:show="new" xlink:title="./../../../../../.././qc/src/net/sourceforge/plantuml/golem/MinMaxGolem.java.html#73" xlink:type="simple"><rect fill="#F1F1F1" height="10" style="stroke:none;stroke-width:1.0;" width="20" x="53" y="237.8359"/><ellipse cx="58" cy="242.8359" fill="#84BE84" rx="3" ry="3" style="stroke:#038048;stroke-width:1.0;"/></a><a href="./../../../../../.././qc/src/net/sourceforge/plantuml/golem/MinMaxGolem.java.html#73" target="_top" title="./../../../../../.././qc/src/net/sourceforge/plantuml/golem/MinMaxGolem.java.html#73" xlink:actuate="onRequest" xlink:href="./../../../../../.././qc/src/net/sourceforge/plantuml/golem/MinMaxGolem.java.html#73" xlink:show="new" xlink:title="./../../../../../.././qc/src/net/sourceforge/plantuml/golem/MinMaxGolem.java.html#73" xlink:type="simple"><text fill="#000000" font-family="sans-serif" font-size="14" lengthAdjust="spacing" textLength="102" x="67" y="246.1826">getWidth() : int</text></a><a href="./../../../../../.././qc/src/net/sourceforge/plantuml/golem/MinMaxGolem.java.html#77" target="_top" title="./../../../../../.././qc/src/net/sourceforge/plantuml/golem/MinMaxGolem.java.html#77" xlink:actuate="onRequest" xlink:href="./../../../../../.././qc/src/net/sourceforge/plantuml/golem/MinMaxGolem.java.html#77" xlink:show="new" xlink:title="./../../../../../.././qc/src/net/sourceforge/plantuml/golem/MinMaxGolem.java.html#77" xlink:type="simple"><rect fill="#F1F1F1" height="10" style="stroke:none;stroke-width:1.0;" width="20" x="53" y="254.1328"/><ellipse cx="58" cy="259.1328" fill="#84BE84" rx="3" ry="3" style="stroke:#038048;stroke-width:1.0;"/></a><a href="./../../../../../.././qc/src/net/sourceforge/plantuml/golem/MinMaxGolem.java.html#77" target="_top" title="./../../../../../.././qc/src/net/sourceforge/plantuml/golem/MinMaxGolem.java.html#77" xlink:actuate="onRequest" xlink:href="./../../../../../.././qc/src/net/sourceforge/plantuml/golem/MinMaxGolem.java.html#77" xlink:show="new" xlink:title="./../../../../../.././qc/src/net/sourceforge/plantuml/golem/MinMaxGolem.java.html#77" xlink:type="simple"><text fill="#000000" font-family="sans-serif" font-size="14" lengthAdjust="spacing" textLength="108" x="67" y="262.4795">getHeight() : int</text></a></g><path d="M141,81.0981 C141,93.0678 141,108.4103 141,123.9592 " fill="none" style="stroke:#181818;stroke-width:1.0;"/><polygon fill="#FFFFFF" points="141,81.0981,135,97.0981,147,97.0981,141,81.0981" style="stroke:#181818;stroke-width:1.0;"/><!--MD5=[54cd1b154b3687084bf0af22ec1414e6]
@startuml
!pragma layout smetana
"java.lang.Object" <|- - "net.sourceforge.plantuml.golem.MinMaxGolem"
class net.sourceforge.plantuml.golem.MinMaxGolem {
+manage(int;int) : void [[[./../../../../../.././qc/src/net/sourceforge/plantuml/golem/MinMaxGolem.java.html#45]]]
+manage(Position) : void [[[./../../../../../.././qc/src/net/sourceforge/plantuml/golem/MinMaxGolem.java.html#60]]]
+getMinX() : int [[[./../../../../../.././qc/src/net/sourceforge/plantuml/golem/MinMaxGolem.java.html#65]]]
+getMinY() : int [[[./../../../../../.././qc/src/net/sourceforge/plantuml/golem/MinMaxGolem.java.html#69]]]
+getWidth() : int [[[./../../../../../.././qc/src/net/sourceforge/plantuml/golem/MinMaxGolem.java.html#73]]]
+getHeight() : int [[[./../../../../../.././qc/src/net/sourceforge/plantuml/golem/MinMaxGolem.java.html#77]]]
} 
@enduml

PlantUML version 1.2022.7(Mon Aug 22 17:01:30 UTC 2022)
(GPL source distribution)
Java Runtime: OpenJDK Runtime Environment
JVM: OpenJDK 64-Bit Server VM
Default Encoding: UTF-8
Language: en
Country: null
--></g></svg>