<?xml version="1.0" encoding="UTF-8" standalone="no"?><svg xmlns="http://www.w3.org/2000/svg" xmlns:xlink="http://www.w3.org/1999/xlink" contentStyleType="text/css" height="202px" preserveAspectRatio="none" style="width:357px;height:202px;background:#FFFFFF;" version="1.1" viewBox="0 0 357 202" width="357px" zoomAndPan="magnify"><defs/><g><!--MD5=[13bd21ce31e5bb65dfa29c8b7421dbda]
cluster net.sourceforge.plantuml.svek.image--><g id="cluster_net.sourceforge.plantuml.svek.image"><path d="M8.5,63 L304.5,63 A3.75,3.75 0 0 1 307,65.5 L314,85.2969 L347.5,85.2969 A2.5,2.5 0 0 1 350,87.7969 L350,192.5 A2.5,2.5 0 0 1 347.5,195 L8.5,195 A2.5,2.5 0 0 1 6,192.5 L6,65.5 A2.5,2.5 0 0 1 8.5,63 " fill="none" style="stroke:#000000;stroke-width:1.5;"/><line style="stroke:#000000;stroke-width:1.5;" x1="6" x2="314" y1="85.2969" y2="85.2969"/><text fill="#000000" font-family="sans-serif" font-size="14" font-weight="bold" lengthAdjust="spacing" textLength="295" x="10" y="77.9951">net.sourceforge.plantuml.svek.image</text></g><!--MD5=[b201e46a8245076685538de9e34f9803]
class UDrawable--><g id="elem_UDrawable"><rect fill="#F1F1F1" height="48" id="UDrawable" rx="2.5" ry="2.5" style="stroke:#181818;stroke-width:0.5;" width="106" x="125" y="6"/><ellipse cx="140" cy="22" fill="#ADD1B2" rx="11" ry="11" style="stroke:#181818;stroke-width:1.0;"/><path d="M142.9688,27.6406 Q142.3906,27.9375 141.75,28.0781 Q141.1094,28.2344 140.4063,28.2344 Q137.9063,28.2344 136.5781,26.5938 Q135.2656,24.9375 135.2656,21.8125 Q135.2656,18.6875 136.5781,17.0313 Q137.9063,15.375 140.4063,15.375 Q141.1094,15.375 141.75,15.5313 Q142.4063,15.6875 142.9688,15.9844 L142.9688,18.7031 Q142.3438,18.125 141.75,17.8594 Q141.1563,17.5781 140.5313,17.5781 Q139.1875,17.5781 138.5,18.6563 Q137.8125,19.7188 137.8125,21.8125 Q137.8125,23.9063 138.5,24.9844 Q139.1875,26.0469 140.5313,26.0469 Q141.1563,26.0469 141.75,25.7813 Q142.3438,25.5 142.9688,24.9219 L142.9688,27.6406 Z " fill="#000000"/><text fill="#000000" font-family="sans-serif" font-size="14" lengthAdjust="spacing" textLength="74" x="154" y="26.8467">UDrawable</text><line style="stroke:#181818;stroke-width:0.5;" x1="126" x2="230" y1="38" y2="38"/><line style="stroke:#181818;stroke-width:0.5;" x1="126" x2="230" y1="46" y2="46"/></g><!--MD5=[0ca3d51e5d16df4a5b9260c642630900]
class net.sourceforge.plantuml.svek.image.ConnectedCircle--><g id="elem_net.sourceforge.plantuml.svek.image.ConnectedCircle"><rect codeLine="3" fill="#F1F1F1" height="96.8906" id="net.sourceforge.plantuml.svek.image.ConnectedCircle" rx="2.5" ry="2.5" style="stroke:#181818;stroke-width:0.5;" width="327" x="14.5" y="90"/><ellipse cx="116.25" cy="106" fill="#ADD1B2" rx="11" ry="11" style="stroke:#181818;stroke-width:1.0;"/><path d="M119.2188,111.6406 Q118.6406,111.9375 118,112.0781 Q117.3594,112.2344 116.6563,112.2344 Q114.1563,112.2344 112.8281,110.5938 Q111.5156,108.9375 111.5156,105.8125 Q111.5156,102.6875 112.8281,101.0313 Q114.1563,99.375 116.6563,99.375 Q117.3594,99.375 118,99.5313 Q118.6563,99.6875 119.2188,99.9844 L119.2188,102.7031 Q118.5938,102.125 118,101.8594 Q117.4063,101.5781 116.7813,101.5781 Q115.4375,101.5781 114.75,102.6563 Q114.0625,103.7188 114.0625,105.8125 Q114.0625,107.9063 114.75,108.9844 Q115.4375,110.0469 116.7813,110.0469 Q117.4063,110.0469 118,109.7813 Q118.5938,109.5 119.2188,108.9219 L119.2188,111.6406 Z " fill="#000000"/><text fill="#000000" font-family="sans-serif" font-size="14" lengthAdjust="spacing" textLength="115" x="136.75" y="110.8467">ConnectedCircle</text><line style="stroke:#181818;stroke-width:0.5;" x1="15.5" x2="340.5" y1="122" y2="122"/><line style="stroke:#181818;stroke-width:0.5;" x1="15.5" x2="340.5" y1="130" y2="130"/><a href="./../../../../../../.././qc/src/net/sourceforge/plantuml/svek/image/ConnectedCircle.java.html#54" target="_top" title="./../../../../../../.././qc/src/net/sourceforge/plantuml/svek/image/ConnectedCircle.java.html#54" xlink:actuate="onRequest" xlink:href="./../../../../../../.././qc/src/net/sourceforge/plantuml/svek/image/ConnectedCircle.java.html#54" xlink:show="new" xlink:title="./../../../../../../.././qc/src/net/sourceforge/plantuml/svek/image/ConnectedCircle.java.html#54" xlink:type="simple"><rect fill="#F1F1F1" height="10" style="stroke:none;stroke-width:1.0;" width="20" x="20.5" y="138.6484"/><ellipse cx="25.5" cy="143.6484" fill="#84BE84" rx="3" ry="3" style="stroke:#038048;stroke-width:1.0;"/></a><a href="./../../../../../../.././qc/src/net/sourceforge/plantuml/svek/image/ConnectedCircle.java.html#54" target="_top" title="./../../../../../../.././qc/src/net/sourceforge/plantuml/svek/image/ConnectedCircle.java.html#54" xlink:actuate="onRequest" xlink:href="./../../../../../../.././qc/src/net/sourceforge/plantuml/svek/image/ConnectedCircle.java.html#54" xlink:show="new" xlink:title="./../../../../../../.././qc/src/net/sourceforge/plantuml/svek/image/ConnectedCircle.java.html#54" xlink:type="simple"><text fill="#000000" font-family="sans-serif" font-size="14" lengthAdjust="spacing" textLength="301" x="34.5" y="146.9951">ConnectedCircle(double) : ConnectedCircle</text></a><a href="./../../../../../../.././qc/src/net/sourceforge/plantuml/svek/image/ConnectedCircle.java.html#58" target="_top" title="./../../../../../../.././qc/src/net/sourceforge/plantuml/svek/image/ConnectedCircle.java.html#58" xlink:actuate="onRequest" xlink:href="./../../../../../../.././qc/src/net/sourceforge/plantuml/svek/image/ConnectedCircle.java.html#58" xlink:show="new" xlink:title="./../../../../../../.././qc/src/net/sourceforge/plantuml/svek/image/ConnectedCircle.java.html#58" xlink:type="simple"><rect fill="#F1F1F1" height="10" style="stroke:none;stroke-width:1.0;" width="20" x="20.5" y="154.9453"/><ellipse cx="25.5" cy="159.9453" fill="#84BE84" rx="3" ry="3" style="stroke:#038048;stroke-width:1.0;"/></a><a href="./../../../../../../.././qc/src/net/sourceforge/plantuml/svek/image/ConnectedCircle.java.html#58" target="_top" title="./../../../../../../.././qc/src/net/sourceforge/plantuml/svek/image/ConnectedCircle.java.html#58" xlink:actuate="onRequest" xlink:href="./../../../../../../.././qc/src/net/sourceforge/plantuml/svek/image/ConnectedCircle.java.html#58" xlink:show="new" xlink:title="./../../../../../../.././qc/src/net/sourceforge/plantuml/svek/image/ConnectedCircle.java.html#58" xlink:type="simple"><text fill="#000000" font-family="sans-serif" font-size="14" lengthAdjust="spacing" textLength="157" x="34.5" y="163.292">drawU(UGraphic) : void</text></a><a href="./../../../../../../.././qc/src/net/sourceforge/plantuml/svek/image/ConnectedCircle.java.html#74" target="_top" title="./../../../../../../.././qc/src/net/sourceforge/plantuml/svek/image/ConnectedCircle.java.html#74" xlink:actuate="onRequest" xlink:href="./../../../../../../.././qc/src/net/sourceforge/plantuml/svek/image/ConnectedCircle.java.html#74" xlink:show="new" xlink:title="./../../../../../../.././qc/src/net/sourceforge/plantuml/svek/image/ConnectedCircle.java.html#74" xlink:type="simple"><rect fill="#F1F1F1" height="10" style="stroke:none;stroke-width:1.0;" width="20" x="20.5" y="171.2422"/><ellipse cx="25.5" cy="176.2422" fill="#84BE84" rx="3" ry="3" style="stroke:#038048;stroke-width:1.0;"/></a><a href="./../../../../../../.././qc/src/net/sourceforge/plantuml/svek/image/ConnectedCircle.java.html#74" target="_top" title="./../../../../../../.././qc/src/net/sourceforge/plantuml/svek/image/ConnectedCircle.java.html#74" xlink:actuate="onRequest" xlink:href="./../../../../../../.././qc/src/net/sourceforge/plantuml/svek/image/ConnectedCircle.java.html#74" xlink:show="new" xlink:title="./../../../../../../.././qc/src/net/sourceforge/plantuml/svek/image/ConnectedCircle.java.html#74" xlink:type="simple"><text fill="#000000" font-family="sans-serif" font-size="14" lengthAdjust="spacing" textLength="294" x="34.5" y="179.5889">addSecondaryConnection(XPoint2D) : void</text></a></g><path d="M178,54.1089 C178,64.6313 178,77.495 178,89.9394 " fill="none" style="stroke:#181818;stroke-width:1.0;"/><polygon fill="#FFFFFF" points="178,54.1089,172,70.1089,184,70.1089,178,54.1089" style="stroke:#181818;stroke-width:1.0;"/><!--MD5=[c8925353eddd69efe9f439034819aca8]
@startuml
!pragma layout smetana
"UDrawable" <|- - "net.sourceforge.plantuml.svek.image.ConnectedCircle"
class net.sourceforge.plantuml.svek.image.ConnectedCircle {
+ConnectedCircle(double) : ConnectedCircle [[[./../../../../../../.././qc/src/net/sourceforge/plantuml/svek/image/ConnectedCircle.java.html#54]]]
+drawU(UGraphic) : void [[[./../../../../../../.././qc/src/net/sourceforge/plantuml/svek/image/ConnectedCircle.java.html#58]]]
+addSecondaryConnection(XPoint2D) : void [[[./../../../../../../.././qc/src/net/sourceforge/plantuml/svek/image/ConnectedCircle.java.html#74]]]
} 
@enduml

PlantUML version 1.2022.7(Mon Aug 22 17:01:30 UTC 2022)
(GPL source distribution)
Java Runtime: OpenJDK Runtime Environment
JVM: OpenJDK 64-Bit Server VM
Default Encoding: UTF-8
Language: en
Country: null
--></g></svg>