<?xml version="1.0" encoding="UTF-8" standalone="no"?><svg xmlns="http://www.w3.org/2000/svg" xmlns:xlink="http://www.w3.org/1999/xlink" contentStyleType="text/css" height="1810px" preserveAspectRatio="none" style="width:756px;height:1810px;background:#FFFFFF;" version="1.1" viewBox="0 0 756 1810" width="756px" zoomAndPan="magnify"><defs/><g><path d="M304.5,10 L304.5,26.1328 L284.5,30.1328 L304.5,34.1328 L304.5,50.2656 A0,0 0 0 0 304.5,50.2656 L602.5,50.2656 A0,0 0 0 0 602.5,50.2656 L602.5,20 L592.5,10 L304.5,10 A0,0 0 0 0 304.5,10 " fill="#FEFFDD" style="stroke:#181818;stroke-width:0.5;"/><path d="M592.5,10 L592.5,20 L602.5,20 L592.5,10 " fill="#FEFFDD" style="stroke:#181818;stroke-width:0.5;"/><text fill="#000000" font-family="sans-serif" font-size="13" lengthAdjust="spacing" textLength="277" x="310.5" y="27.0669">constructor EntityImageBranch(ILeaf entity,</text><text fill="#000000" font-family="sans-serif" font-size="13" lengthAdjust="spacing" textLength="148" x="310.5" y="42.1997">ISkinParam skinParam)</text><ellipse cx="274.5" cy="30.1328" fill="#222222" rx="10" ry="10" style="stroke:#222222;stroke-width:1.0;"/><rect fill="#F1F1F1" height="33.9688" rx="12.5" ry="12.5" style="stroke:#181818;stroke-width:0.5;" width="178" x="185.5" y="70.2656"/><text fill="#000000" font-family="sans-serif" font-size="12" lengthAdjust="spacing" textLength="158" x="195.5" y="91.4043">super (entity,skinParam);</text><ellipse cx="274.5" cy="134.2344" fill="none" rx="10" ry="10" style="stroke:#222222;stroke-width:1.5;"/><line style="stroke:#222222;stroke-width:2.5;" x1="268.3128" x2="280.6872" y1="128.0472" y2="140.4216"/><line style="stroke:#222222;stroke-width:2.5;" x1="280.6872" x2="268.3128" y1="128.0472" y2="140.4216"/><path d="M304.5,154.2344 L304.5,162.8008 L284.5,166.8008 L304.5,170.8008 L304.5,179.3672 A0,0 0 0 0 304.5,179.3672 L626.5,179.3672 A0,0 0 0 0 626.5,179.3672 L626.5,164.2344 L616.5,154.2344 L304.5,154.2344 A0,0 0 0 0 304.5,154.2344 " fill="#FEFFDD" style="stroke:#181818;stroke-width:0.5;"/><path d="M616.5,154.2344 L616.5,164.2344 L626.5,164.2344 L616.5,154.2344 " fill="#FEFFDD" style="stroke:#181818;stroke-width:0.5;"/><text fill="#000000" font-family="sans-serif" font-size="13" lengthAdjust="spacing" textLength="301" x="310.5" y="171.3013">StyleSignatureBasic getDefaultStyleDefinition()</text><ellipse cx="274.5" cy="166.8008" fill="#222222" rx="10" ry="10" style="stroke:#222222;stroke-width:1.0;"/><rect fill="#F1F1F1" height="61.9063" rx="12.5" ry="12.5" style="stroke:#181818;stroke-width:0.5;" width="365" x="92" y="199.3672"/><text fill="#000000" font-family="sans-serif" font-size="12" lengthAdjust="spacing" textLength="266" x="102" y="220.5059">return StyleSignatureBasic.of(SName.root,</text><text fill="#000000" font-family="sans-serif" font-size="12" lengthAdjust="spacing" textLength="345" x="102" y="234.4746">SName.element,SName.activityDiagram,SName.activity,</text><text fill="#000000" font-family="sans-serif" font-size="12" lengthAdjust="spacing" textLength="111" x="102" y="248.4434">SName.diamond);</text><ellipse cx="274.5" cy="292.2734" fill="none" rx="11" ry="11" style="stroke:#222222;stroke-width:1.0;"/><ellipse cx="274.5" cy="292.2734" fill="#222222" rx="6" ry="6" style="stroke:#111111;stroke-width:1.0;"/><ellipse cx="274.5" cy="323.2734" fill="none" rx="10" ry="10" style="stroke:#222222;stroke-width:1.5;"/><line style="stroke:#222222;stroke-width:2.5;" x1="268.3128" x2="280.6872" y1="317.0863" y2="329.4606"/><line style="stroke:#222222;stroke-width:2.5;" x1="280.6872" x2="268.3128" y1="317.0863" y2="329.4606"/><path d="M304.5,343.2734 L304.5,351.8398 L284.5,355.8398 L304.5,359.8398 L304.5,368.4063 A0,0 0 0 0 304.5,368.4063 L744.5,368.4063 A0,0 0 0 0 744.5,368.4063 L744.5,353.2734 L734.5,343.2734 L304.5,343.2734 A0,0 0 0 0 304.5,343.2734 " fill="#FEFFDD" style="stroke:#181818;stroke-width:0.5;"/><path d="M734.5,343.2734 L734.5,353.2734 L744.5,353.2734 L734.5,343.2734 " fill="#FEFFDD" style="stroke:#181818;stroke-width:0.5;"/><text fill="#000000" font-family="sans-serif" font-size="13" lengthAdjust="spacing" textLength="419" x="310.5" y="360.3403">XDimension2D calculateDimension(StringBounder stringBounder)</text><ellipse cx="274.5" cy="355.8398" fill="#222222" rx="10" ry="10" style="stroke:#222222;stroke-width:1.0;"/><rect fill="#F1F1F1" height="33.9688" rx="12.5" ry="12.5" style="stroke:#181818;stroke-width:0.5;" width="283" x="133" y="388.4063"/><text fill="#000000" font-family="sans-serif" font-size="12" lengthAdjust="spacing" textLength="263" x="143" y="409.5449">return new XDimension2D(SIZE*2,SIZE*2);</text><ellipse cx="274.5" cy="453.375" fill="none" rx="11" ry="11" style="stroke:#222222;stroke-width:1.0;"/><ellipse cx="274.5" cy="453.375" fill="#222222" rx="6" ry="6" style="stroke:#111111;stroke-width:1.0;"/><ellipse cx="274.5" cy="484.375" fill="none" rx="10" ry="10" style="stroke:#222222;stroke-width:1.5;"/><line style="stroke:#222222;stroke-width:2.5;" x1="268.3128" x2="280.6872" y1="478.1878" y2="490.5622"/><line style="stroke:#222222;stroke-width:2.5;" x1="280.6872" x2="268.3128" y1="478.1878" y2="490.5622"/><path d="M304.5,504.375 L304.5,512.9414 L284.5,516.9414 L304.5,520.9414 L304.5,529.5078 A0,0 0 0 0 304.5,529.5078 L484.5,529.5078 A0,0 0 0 0 484.5,529.5078 L484.5,514.375 L474.5,504.375 L304.5,504.375 A0,0 0 0 0 304.5,504.375 " fill="#FEFFDD" style="stroke:#181818;stroke-width:0.5;"/><path d="M474.5,504.375 L474.5,514.375 L484.5,514.375 L474.5,504.375 " fill="#FEFFDD" style="stroke:#181818;stroke-width:0.5;"/><text fill="#000000" font-family="sans-serif" font-size="13" lengthAdjust="spacing" textLength="159" x="310.5" y="521.4419">void drawU(UGraphic ug)</text><ellipse cx="274.5" cy="516.9414" fill="#222222" rx="10" ry="10" style="stroke:#222222;stroke-width:1.0;"/><rect fill="#F1F1F1" height="33.9688" rx="12.5" ry="12.5" style="stroke:#181818;stroke-width:0.5;" width="260" x="144.5" y="549.5078"/><text fill="#000000" font-family="sans-serif" font-size="12" lengthAdjust="spacing" textLength="240" x="154.5" y="570.6465">final UPolygon diams=new UPolygon();</text><rect fill="#F1F1F1" height="33.9688" rx="12.5" ry="12.5" style="stroke:#181818;stroke-width:0.5;" width="171" x="189" y="603.4766"/><text fill="#000000" font-family="sans-serif" font-size="12" lengthAdjust="spacing" textLength="151" x="199" y="624.6152">diams.addPoint(SIZE,0);</text><rect fill="#F1F1F1" height="33.9688" rx="12.5" ry="12.5" style="stroke:#181818;stroke-width:0.5;" width="205" x="172" y="657.4453"/><text fill="#000000" font-family="sans-serif" font-size="12" lengthAdjust="spacing" textLength="185" x="182" y="678.584">diams.addPoint(SIZE*2,SIZE);</text><rect fill="#F1F1F1" height="33.9688" rx="12.5" ry="12.5" style="stroke:#181818;stroke-width:0.5;" width="205" x="172" y="711.4141"/><text fill="#000000" font-family="sans-serif" font-size="12" lengthAdjust="spacing" textLength="185" x="182" y="732.5527">diams.addPoint(SIZE,SIZE*2);</text><rect fill="#F1F1F1" height="33.9688" rx="12.5" ry="12.5" style="stroke:#181818;stroke-width:0.5;" width="171" x="189" y="765.3828"/><text fill="#000000" font-family="sans-serif" font-size="12" lengthAdjust="spacing" textLength="151" x="199" y="786.5215">diams.addPoint(0,SIZE);</text><rect fill="#F1F1F1" height="33.9688" rx="12.5" ry="12.5" style="stroke:#181818;stroke-width:0.5;" width="171" x="189" y="819.3516"/><text fill="#000000" font-family="sans-serif" font-size="12" lengthAdjust="spacing" textLength="151" x="199" y="840.4902">diams.addPoint(SIZE,0);</text><rect fill="#F1F1F1" height="47.9375" rx="12.5" ry="12.5" style="stroke:#181818;stroke-width:0.5;" width="388" x="80.5" y="873.3203"/><text fill="#000000" font-family="sans-serif" font-size="12" lengthAdjust="spacing" textLength="268" x="90.5" y="894.459">final Style style=getDefaultStyleDefinition()</text><text fill="#000000" font-family="sans-serif" font-size="12" lengthAdjust="spacing" textLength="368" x="90.5" y="908.4277">.getMergedStyle(getSkinParam().getCurrentStyleBuilder());</text><rect fill="#F1F1F1" height="47.9375" rx="12.5" ry="12.5" style="stroke:#181818;stroke-width:0.5;" width="328" x="110.5" y="941.2578"/><text fill="#000000" font-family="sans-serif" font-size="12" lengthAdjust="spacing" textLength="308" x="120.5" y="962.3965">final HColor border=style.value(PName.LineColor)</text><text fill="#000000" font-family="sans-serif" font-size="12" lengthAdjust="spacing" textLength="281" x="120.5" y="976.3652">.asColor(getSkinParam().getIHtmlColorSet());</text><rect fill="#F1F1F1" height="47.9375" rx="12.5" ry="12.5" style="stroke:#181818;stroke-width:0.5;" width="367" x="91" y="1009.1953"/><text fill="#000000" font-family="sans-serif" font-size="12" lengthAdjust="spacing" textLength="347" x="101" y="1030.334">final HColor back=style.value(PName.BackGroundColor)</text><text fill="#000000" font-family="sans-serif" font-size="12" lengthAdjust="spacing" textLength="281" x="101" y="1044.3027">.asColor(getSkinParam().getIHtmlColorSet());</text><rect fill="#F1F1F1" height="33.9688" rx="12.5" ry="12.5" style="stroke:#181818;stroke-width:0.5;" width="263" x="143" y="1077.1328"/><text fill="#000000" font-family="sans-serif" font-size="12" lengthAdjust="spacing" textLength="243" x="153" y="1098.2715">final UStroke stroke=style.getStroke();</text><rect fill="#F1F1F1" height="47.9375" rx="12.5" ry="12.5" style="stroke:#181818;stroke-width:0.5;" width="366" x="91.5" y="1131.1016"/><text fill="#000000" font-family="sans-serif" font-size="12" lengthAdjust="spacing" textLength="346" x="101.5" y="1152.2402">final double shadowing=style.value(PName.Shadowing)</text><text fill="#000000" font-family="sans-serif" font-size="12" lengthAdjust="spacing" textLength="77" x="101.5" y="1166.209">.asDouble();</text><rect fill="#F1F1F1" height="33.9688" rx="12.5" ry="12.5" style="stroke:#181818;stroke-width:0.5;" width="244" x="152.5" y="1199.0391"/><text fill="#000000" font-family="sans-serif" font-size="12" lengthAdjust="spacing" textLength="224" x="162.5" y="1220.1777">diams.setDeltaShadow(shadowing);</text><rect fill="#F1F1F1" height="33.9688" rx="12.5" ry="12.5" style="stroke:#181818;stroke-width:0.5;" width="527" x="11" y="1253.0078"/><text fill="#000000" font-family="sans-serif" font-size="12" lengthAdjust="spacing" textLength="507" x="21" y="1274.1465">final Map&lt;UGroupType,String&gt; typeIDent=new EnumMap&lt;&gt;(UGroupType.class );</text><rect fill="#F1F1F1" height="47.9375" rx="12.5" ry="12.5" style="stroke:#181818;stroke-width:0.5;" width="429" x="60" y="1306.9766"/><text fill="#000000" font-family="sans-serif" font-size="12" lengthAdjust="spacing" textLength="409" x="70" y="1328.1152">typeIDent.put(UGroupType.CLASS,"elem "+getEntity().getCode()+</text><text fill="#000000" font-family="sans-serif" font-size="12" lengthAdjust="spacing" textLength="77" x="70" y="1342.084">" selected");</text><rect fill="#F1F1F1" height="47.9375" rx="12.5" ry="12.5" style="stroke:#181818;stroke-width:0.5;" width="328" x="110.5" y="1374.9141"/><text fill="#000000" font-family="sans-serif" font-size="12" lengthAdjust="spacing" textLength="308" x="120.5" y="1396.0527">typeIDent.put(UGroupType.ID,"elem_"+getEntity()</text><text fill="#000000" font-family="sans-serif" font-size="12" lengthAdjust="spacing" textLength="76" x="120.5" y="1410.0215">.getCode());</text><rect fill="#F1F1F1" height="33.9688" rx="12.5" ry="12.5" style="stroke:#181818;stroke-width:0.5;" width="182" x="183.5" y="1442.8516"/><text fill="#000000" font-family="sans-serif" font-size="12" lengthAdjust="spacing" textLength="162" x="193.5" y="1463.9902">ug.startGroup(typeIDent);</text><rect fill="#F1F1F1" height="47.9375" rx="12.5" ry="12.5" style="stroke:#181818;stroke-width:0.5;" width="319" x="115" y="1496.8203"/><text fill="#000000" font-family="sans-serif" font-size="12" lengthAdjust="spacing" textLength="299" x="125" y="1517.959">ug.apply(border).apply(back.bg()).apply(stroke)</text><text fill="#000000" font-family="sans-serif" font-size="12" lengthAdjust="spacing" textLength="85" x="125" y="1531.9277">.draw(diams);</text><rect fill="#F1F1F1" height="33.9688" rx="12.5" ry="12.5" style="stroke:#181818;stroke-width:0.5;" width="125" x="212" y="1564.7578"/><text fill="#000000" font-family="sans-serif" font-size="12" lengthAdjust="spacing" textLength="105" x="222" y="1585.8965">ug.closeGroup();</text><ellipse cx="274.5" cy="1628.7266" fill="none" rx="10" ry="10" style="stroke:#222222;stroke-width:1.5;"/><line style="stroke:#222222;stroke-width:2.5;" x1="268.3128" x2="280.6872" y1="1622.5394" y2="1634.9137"/><line style="stroke:#222222;stroke-width:2.5;" x1="280.6872" x2="268.3128" y1="1622.5394" y2="1634.9137"/><path d="M304.5,1648.7266 L304.5,1657.293 L284.5,1661.293 L304.5,1665.293 L304.5,1673.8594 A0,0 0 0 0 304.5,1673.8594 L502.5,1673.8594 A0,0 0 0 0 502.5,1673.8594 L502.5,1658.7266 L492.5,1648.7266 L304.5,1648.7266 A0,0 0 0 0 304.5,1648.7266 " fill="#FEFFDD" style="stroke:#181818;stroke-width:0.5;"/><path d="M492.5,1648.7266 L492.5,1658.7266 L502.5,1658.7266 L492.5,1648.7266 " fill="#FEFFDD" style="stroke:#181818;stroke-width:0.5;"/><text fill="#000000" font-family="sans-serif" font-size="13" lengthAdjust="spacing" textLength="177" x="310.5" y="1665.7935">ShapeType getShapeType()</text><ellipse cx="274.5" cy="1661.293" fill="#222222" rx="10" ry="10" style="stroke:#222222;stroke-width:1.0;"/><rect fill="#F1F1F1" height="33.9688" rx="12.5" ry="12.5" style="stroke:#181818;stroke-width:0.5;" width="197" x="176" y="1693.8594"/><text fill="#000000" font-family="sans-serif" font-size="12" lengthAdjust="spacing" textLength="177" x="186" y="1714.998">return ShapeType.DIAMOND;</text><ellipse cx="274.5" cy="1758.8281" fill="none" rx="11" ry="11" style="stroke:#222222;stroke-width:1.0;"/><ellipse cx="274.5" cy="1758.8281" fill="#222222" rx="6" ry="6" style="stroke:#111111;stroke-width:1.0;"/><ellipse cx="274.5" cy="1789.8281" fill="none" rx="10" ry="10" style="stroke:#222222;stroke-width:1.5;"/><line style="stroke:#222222;stroke-width:2.5;" x1="268.3128" x2="280.6872" y1="1783.6409" y2="1796.0153"/><line style="stroke:#222222;stroke-width:2.5;" x1="280.6872" x2="268.3128" y1="1783.6409" y2="1796.0153"/><line style="stroke:#181818;stroke-width:1.0;" x1="274.5" x2="274.5" y1="40.1328" y2="70.2656"/><polygon fill="#181818" points="270.5,60.2656,274.5,70.2656,278.5,60.2656,274.5,64.2656" style="stroke:#181818;stroke-width:1.0;"/><line style="stroke:#181818;stroke-width:1.0;" x1="274.5" x2="274.5" y1="104.2344" y2="124.2344"/><polygon fill="#181818" points="270.5,114.2344,274.5,124.2344,278.5,114.2344,274.5,118.2344" style="stroke:#181818;stroke-width:1.0;"/><line style="stroke:#181818;stroke-width:1.0;" x1="274.5" x2="274.5" y1="176.8008" y2="199.3672"/><polygon fill="#181818" points="270.5,189.3672,274.5,199.3672,278.5,189.3672,274.5,193.3672" style="stroke:#181818;stroke-width:1.0;"/><line style="stroke:#181818;stroke-width:1.0;" x1="274.5" x2="274.5" y1="261.2734" y2="281.2734"/><polygon fill="#181818" points="270.5,271.2734,274.5,281.2734,278.5,271.2734,274.5,275.2734" style="stroke:#181818;stroke-width:1.0;"/><line style="stroke:#181818;stroke-width:1.0;" x1="274.5" x2="274.5" y1="365.8398" y2="388.4063"/><polygon fill="#181818" points="270.5,378.4063,274.5,388.4063,278.5,378.4063,274.5,382.4063" style="stroke:#181818;stroke-width:1.0;"/><line style="stroke:#181818;stroke-width:1.0;" x1="274.5" x2="274.5" y1="422.375" y2="442.375"/><polygon fill="#181818" points="270.5,432.375,274.5,442.375,278.5,432.375,274.5,436.375" style="stroke:#181818;stroke-width:1.0;"/><line style="stroke:#181818;stroke-width:1.0;" x1="274.5" x2="274.5" y1="526.9414" y2="549.5078"/><polygon fill="#181818" points="270.5,539.5078,274.5,549.5078,278.5,539.5078,274.5,543.5078" style="stroke:#181818;stroke-width:1.0;"/><line style="stroke:#181818;stroke-width:1.0;" x1="274.5" x2="274.5" y1="583.4766" y2="603.4766"/><polygon fill="#181818" points="270.5,593.4766,274.5,603.4766,278.5,593.4766,274.5,597.4766" style="stroke:#181818;stroke-width:1.0;"/><line style="stroke:#181818;stroke-width:1.0;" x1="274.5" x2="274.5" y1="637.4453" y2="657.4453"/><polygon fill="#181818" points="270.5,647.4453,274.5,657.4453,278.5,647.4453,274.5,651.4453" style="stroke:#181818;stroke-width:1.0;"/><line style="stroke:#181818;stroke-width:1.0;" x1="274.5" x2="274.5" y1="691.4141" y2="711.4141"/><polygon fill="#181818" points="270.5,701.4141,274.5,711.4141,278.5,701.4141,274.5,705.4141" style="stroke:#181818;stroke-width:1.0;"/><line style="stroke:#181818;stroke-width:1.0;" x1="274.5" x2="274.5" y1="745.3828" y2="765.3828"/><polygon fill="#181818" points="270.5,755.3828,274.5,765.3828,278.5,755.3828,274.5,759.3828" style="stroke:#181818;stroke-width:1.0;"/><line style="stroke:#181818;stroke-width:1.0;" x1="274.5" x2="274.5" y1="799.3516" y2="819.3516"/><polygon fill="#181818" points="270.5,809.3516,274.5,819.3516,278.5,809.3516,274.5,813.3516" style="stroke:#181818;stroke-width:1.0;"/><line style="stroke:#181818;stroke-width:1.0;" x1="274.5" x2="274.5" y1="853.3203" y2="873.3203"/><polygon fill="#181818" points="270.5,863.3203,274.5,873.3203,278.5,863.3203,274.5,867.3203" style="stroke:#181818;stroke-width:1.0;"/><line style="stroke:#181818;stroke-width:1.0;" x1="274.5" x2="274.5" y1="921.2578" y2="941.2578"/><polygon fill="#181818" points="270.5,931.2578,274.5,941.2578,278.5,931.2578,274.5,935.2578" style="stroke:#181818;stroke-width:1.0;"/><line style="stroke:#181818;stroke-width:1.0;" x1="274.5" x2="274.5" y1="989.1953" y2="1009.1953"/><polygon fill="#181818" points="270.5,999.1953,274.5,1009.1953,278.5,999.1953,274.5,1003.1953" style="stroke:#181818;stroke-width:1.0;"/><line style="stroke:#181818;stroke-width:1.0;" x1="274.5" x2="274.5" y1="1057.1328" y2="1077.1328"/><polygon fill="#181818" points="270.5,1067.1328,274.5,1077.1328,278.5,1067.1328,274.5,1071.1328" style="stroke:#181818;stroke-width:1.0;"/><line style="stroke:#181818;stroke-width:1.0;" x1="274.5" x2="274.5" y1="1111.1016" y2="1131.1016"/><polygon fill="#181818" points="270.5,1121.1016,274.5,1131.1016,278.5,1121.1016,274.5,1125.1016" style="stroke:#181818;stroke-width:1.0;"/><line style="stroke:#181818;stroke-width:1.0;" x1="274.5" x2="274.5" y1="1179.0391" y2="1199.0391"/><polygon fill="#181818" points="270.5,1189.0391,274.5,1199.0391,278.5,1189.0391,274.5,1193.0391" style="stroke:#181818;stroke-width:1.0;"/><line style="stroke:#181818;stroke-width:1.0;" x1="274.5" x2="274.5" y1="1233.0078" y2="1253.0078"/><polygon fill="#181818" points="270.5,1243.0078,274.5,1253.0078,278.5,1243.0078,274.5,1247.0078" style="stroke:#181818;stroke-width:1.0;"/><line style="stroke:#181818;stroke-width:1.0;" x1="274.5" x2="274.5" y1="1286.9766" y2="1306.9766"/><polygon fill="#181818" points="270.5,1296.9766,274.5,1306.9766,278.5,1296.9766,274.5,1300.9766" style="stroke:#181818;stroke-width:1.0;"/><line style="stroke:#181818;stroke-width:1.0;" x1="274.5" x2="274.5" y1="1354.9141" y2="1374.9141"/><polygon fill="#181818" points="270.5,1364.9141,274.5,1374.9141,278.5,1364.9141,274.5,1368.9141" style="stroke:#181818;stroke-width:1.0;"/><line style="stroke:#181818;stroke-width:1.0;" x1="274.5" x2="274.5" y1="1422.8516" y2="1442.8516"/><polygon fill="#181818" points="270.5,1432.8516,274.5,1442.8516,278.5,1432.8516,274.5,1436.8516" style="stroke:#181818;stroke-width:1.0;"/><line style="stroke:#181818;stroke-width:1.0;" x1="274.5" x2="274.5" y1="1476.8203" y2="1496.8203"/><polygon fill="#181818" points="270.5,1486.8203,274.5,1496.8203,278.5,1486.8203,274.5,1490.8203" style="stroke:#181818;stroke-width:1.0;"/><line style="stroke:#181818;stroke-width:1.0;" x1="274.5" x2="274.5" y1="1544.7578" y2="1564.7578"/><polygon fill="#181818" points="270.5,1554.7578,274.5,1564.7578,278.5,1554.7578,274.5,1558.7578" style="stroke:#181818;stroke-width:1.0;"/><line style="stroke:#181818;stroke-width:1.0;" x1="274.5" x2="274.5" y1="1598.7266" y2="1618.7266"/><polygon fill="#181818" points="270.5,1608.7266,274.5,1618.7266,278.5,1608.7266,274.5,1612.7266" style="stroke:#181818;stroke-width:1.0;"/><line style="stroke:#181818;stroke-width:1.0;" x1="274.5" x2="274.5" y1="1671.293" y2="1693.8594"/><polygon fill="#181818" points="270.5,1683.8594,274.5,1693.8594,278.5,1683.8594,274.5,1687.8594" style="stroke:#181818;stroke-width:1.0;"/><line style="stroke:#181818;stroke-width:1.0;" x1="274.5" x2="274.5" y1="1727.8281" y2="1747.8281"/><polygon fill="#181818" points="270.5,1737.8281,274.5,1747.8281,278.5,1737.8281,274.5,1741.8281" style="stroke:#181818;stroke-width:1.0;"/><!--MD5=[1697d362a85a2e361ec7847ec45b7a9d]
@startuml
!pragma layout smetana
start
note right
constructor EntityImageBranch(ILeaf entity,
ISkinParam skinParam)
end note
:super (entity,skinParam);;
end
start
note right
StyleSignatureBasic getDefaultStyleDefinition()
end note
:return StyleSignatureBasic.of(SName.root,
SName.element,SName.activityDiagram,SName.activity,
SName.diamond);;
stop
end
start
note right
XDimension2D calculateDimension(StringBounder stringBounder)
end note
:return new XDimension2D(SIZE*2,SIZE*2);;
stop
end
start
note right
void drawU(UGraphic ug)
end note
:final UPolygon diams=new UPolygon();;
:diams.addPoint(SIZE,0);;
:diams.addPoint(SIZE*2,SIZE);;
:diams.addPoint(SIZE,SIZE*2);;
:diams.addPoint(0,SIZE);;
:diams.addPoint(SIZE,0);;
:final Style style=getDefaultStyleDefinition()
.getMergedStyle(getSkinParam().getCurrentStyleBuilder());;
:final HColor border=style.value(PName.LineColor)
.asColor(getSkinParam().getIHtmlColorSet());;
:final HColor back=style.value(PName.BackGroundColor)
.asColor(getSkinParam().getIHtmlColorSet());;
:final UStroke stroke=style.getStroke();;
:final double shadowing=style.value(PName.Shadowing)
.asDouble();;
:diams.setDeltaShadow(shadowing);;
:final Map<UGroupType,String> typeIDent=new EnumMap<>(UGroupType.class );;
:typeIDent.put(UGroupType.CLASS,"elem "+getEntity().getCode()+
" selected");;
:typeIDent.put(UGroupType.ID,"elem_"+getEntity()
.getCode());;
:ug.startGroup(typeIDent);;
:ug.apply(border).apply(back.bg()).apply(stroke)
.draw(diams);;
:ug.closeGroup();;
end
start
note right
ShapeType getShapeType()
end note
:return ShapeType.DIAMOND;;
stop
end
@enduml

PlantUML version 1.2022.7(Mon Aug 22 17:01:30 UTC 2022)
(GPL source distribution)
Java Runtime: OpenJDK Runtime Environment
JVM: OpenJDK 64-Bit Server VM
Default Encoding: UTF-8
Language: en
Country: null
--></g></svg>