<?xml version="1.0" encoding="UTF-8" standalone="no"?><svg xmlns="http://www.w3.org/2000/svg" xmlns:xlink="http://www.w3.org/1999/xlink" contentStyleType="text/css" height="1946px" preserveAspectRatio="none" style="width:512px;height:1946px;background:#FFFFFF;" version="1.1" viewBox="0 0 512 1946" width="512px" zoomAndPan="magnify"><defs/><g><path d="M206.5,10 L206.5,18.5664 L186.5,22.5664 L206.5,26.5664 L206.5,35.1328 A0,0 0 0 0 206.5,35.1328 L363.5,35.1328 A0,0 0 0 0 363.5,35.1328 L363.5,20 L353.5,10 L206.5,10 A0,0 0 0 0 206.5,10 " fill="#FEFFDD" style="stroke:#181818;stroke-width:0.5;"/><path d="M353.5,10 L353.5,20 L363.5,20 L353.5,10 " fill="#FEFFDD" style="stroke:#181818;stroke-width:0.5;"/><text fill="#000000" font-family="sans-serif" font-size="13" lengthAdjust="spacing" textLength="136" x="212.5" y="27.0669">constructor RBlocks()</text><ellipse cx="176.5" cy="22.5664" fill="#222222" rx="10" ry="10" style="stroke:#222222;stroke-width:1.0;"/><ellipse cx="176.5" cy="65.1328" fill="none" rx="10" ry="10" style="stroke:#222222;stroke-width:1.5;"/><line style="stroke:#222222;stroke-width:2.5;" x1="170.3128" x2="182.6872" y1="58.9456" y2="71.32"/><line style="stroke:#222222;stroke-width:2.5;" x1="182.6872" x2="170.3128" y1="58.9456" y2="71.32"/><path d="M206.5,85.1328 L206.5,93.6992 L186.5,97.6992 L206.5,101.6992 L206.5,110.2656 A0,0 0 0 0 206.5,110.2656 L326.5,110.2656 A0,0 0 0 0 326.5,110.2656 L326.5,95.1328 L316.5,85.1328 L206.5,85.1328 A0,0 0 0 0 206.5,85.1328 " fill="#FEFFDD" style="stroke:#181818;stroke-width:0.5;"/><path d="M316.5,85.1328 L316.5,95.1328 L326.5,95.1328 L316.5,85.1328 " fill="#FEFFDD" style="stroke:#181818;stroke-width:0.5;"/><text fill="#000000" font-family="sans-serif" font-size="13" lengthAdjust="spacing" textLength="99" x="212.5" y="102.1997">StringtoString()</text><ellipse cx="176.5" cy="97.6992" fill="#222222" rx="10" ry="10" style="stroke:#222222;stroke-width:1.0;"/><rect fill="#F1F1F1" height="33.9688" rx="12.5" ry="12.5" style="stroke:#181818;stroke-width:0.5;" width="278" x="37.5" y="130.2656"/><text fill="#000000" font-family="sans-serif" font-size="12" lengthAdjust="spacing" textLength="258" x="47.5" y="151.4043">final StringBuildersb=new StringBuilder();</text><rect fill="#F1F1F1" height="33.9688" rx="12.5" ry="12.5" style="stroke:#181818;stroke-width:0.5;" width="152" x="100.5" y="184.2344"/><text fill="#000000" font-family="sans-serif" font-size="12" lengthAdjust="spacing" textLength="132" x="110.5" y="205.373">sb.append(all.size());</text><rect fill="#F1F1F1" height="33.9688" rx="12.5" ry="12.5" style="stroke:#181818;stroke-width:0.5;" width="123" x="115" y="238.2031"/><text fill="#000000" font-family="sans-serif" font-size="12" lengthAdjust="spacing" textLength="103" x="125" y="259.3418">sb.append(" - ");</text><rect fill="#F1F1F1" height="33.9688" rx="12.5" ry="12.5" style="stroke:#181818;stroke-width:0.5;" width="198" x="77.5" y="292.1719"/><text fill="#000000" font-family="sans-serif" font-size="12" lengthAdjust="spacing" textLength="178" x="87.5" y="313.3105">sb.append(block.toString());</text><rect fill="#F1F1F1" height="33.9688" rx="12.5" ry="12.5" style="stroke:#181818;stroke-width:0.5;" width="146" x="103.5" y="346.1406"/><text fill="#000000" font-family="sans-serif" font-size="12" lengthAdjust="spacing" textLength="126" x="113.5" y="367.2793">return sb.toString();</text><ellipse cx="176.5" cy="411.1094" fill="none" rx="11" ry="11" style="stroke:#222222;stroke-width:1.0;"/><ellipse cx="176.5" cy="411.1094" fill="#222222" rx="6" ry="6" style="stroke:#111111;stroke-width:1.0;"/><ellipse cx="176.5" cy="442.1094" fill="none" rx="10" ry="10" style="stroke:#222222;stroke-width:1.5;"/><line style="stroke:#222222;stroke-width:2.5;" x1="170.3128" x2="182.6872" y1="435.9222" y2="448.2966"/><line style="stroke:#222222;stroke-width:2.5;" x1="182.6872" x2="170.3128" y1="435.9222" y2="448.2966"/><path d="M206.5,462.1094 L206.5,470.6758 L186.5,474.6758 L206.5,478.6758 L206.5,487.2422 A0,0 0 0 0 206.5,487.2422 L500.5,487.2422 A0,0 0 0 0 500.5,487.2422 L500.5,472.1094 L490.5,462.1094 L206.5,462.1094 A0,0 0 0 0 206.5,462.1094 " fill="#FEFFDD" style="stroke:#181818;stroke-width:0.5;"/><path d="M490.5,462.1094 L490.5,472.1094 L500.5,472.1094 L490.5,462.1094 " fill="#FEFFDD" style="stroke:#181818;stroke-width:0.5;"/><text fill="#000000" font-family="sans-serif" font-size="13" lengthAdjust="spacing" textLength="273" x="212.5" y="479.1763">RBlocksreadFrom(byte[]fileContent,intsize)</text><ellipse cx="176.5" cy="474.6758" fill="#222222" rx="10" ry="10" style="stroke:#222222;stroke-width:1.0;"/><rect fill="#F1F1F1" height="33.9688" rx="12.5" ry="12.5" style="stroke:#181818;stroke-width:0.5;" width="235" x="59" y="507.2422"/><text fill="#000000" font-family="sans-serif" font-size="12" lengthAdjust="spacing" textLength="215" x="69" y="528.3809">final RBlocksresult=new RBlocks();</text><rect fill="#F1F1F1" height="33.9688" rx="12.5" ry="12.5" style="stroke:#181818;stroke-width:0.5;" width="88" x="132.5" y="561.2109"/><text fill="#000000" font-family="sans-serif" font-size="12" lengthAdjust="spacing" textLength="68" x="142.5" y="582.3496">intstart=0;</text><rect fill="#F1F1F1" height="47.9375" rx="12.5" ry="12.5" style="stroke:#181818;stroke-width:0.5;" width="281" x="36" y="659.1797"/><text fill="#000000" font-family="sans-serif" font-size="12" lengthAdjust="spacing" textLength="261" x="46" y="680.3184">final RBlockblock=new RBlock(fileContent,</text><text fill="#000000" font-family="sans-serif" font-size="12" lengthAdjust="spacing" textLength="66" x="46" y="694.2871">start,size);</text><rect fill="#F1F1F1" height="33.9688" rx="12.5" ry="12.5" style="stroke:#181818;stroke-width:0.5;" width="97" x="128" y="727.1172"/><text fill="#000000" font-family="sans-serif" font-size="12" lengthAdjust="spacing" textLength="77" x="138" y="748.2559">start+=size;</text><rect fill="#F1F1F1" height="33.9688" rx="12.5" ry="12.5" style="stroke:#181818;stroke-width:0.5;" width="149" x="102" y="781.0859"/><text fill="#000000" font-family="sans-serif" font-size="12" lengthAdjust="spacing" textLength="129" x="112" y="802.2246">result.all.add(block);</text><polygon fill="#F1F1F1" points="108.5,615.1797,244.5,615.1797,256.5,627.1797,244.5,639.1797,108.5,639.1797,96.5,627.1797,108.5,615.1797" style="stroke:#181818;stroke-width:0.5;"/><text fill="#000000" font-family="sans-serif" font-size="11" lengthAdjust="spacing" textLength="136" x="108.5" y="630.9878">start&lt;fileContent.length</text><rect fill="#F1F1F1" height="33.9688" rx="12.5" ry="12.5" style="stroke:#181818;stroke-width:0.5;" width="103" x="125" y="857.0547"/><text fill="#000000" font-family="sans-serif" font-size="12" lengthAdjust="spacing" textLength="83" x="135" y="878.1934">return result;</text><ellipse cx="176.5" cy="922.0234" fill="none" rx="11" ry="11" style="stroke:#222222;stroke-width:1.0;"/><ellipse cx="176.5" cy="922.0234" fill="#222222" rx="6" ry="6" style="stroke:#111111;stroke-width:1.0;"/><ellipse cx="176.5" cy="953.0234" fill="none" rx="10" ry="10" style="stroke:#222222;stroke-width:1.5;"/><line style="stroke:#222222;stroke-width:2.5;" x1="170.3128" x2="182.6872" y1="946.8363" y2="959.2106"/><line style="stroke:#222222;stroke-width:2.5;" x1="182.6872" x2="170.3128" y1="946.8363" y2="959.2106"/><path d="M206.5,973.0234 L206.5,981.5898 L186.5,985.5898 L206.5,989.5898 L206.5,998.1563 A0,0 0 0 0 206.5,998.1563 L485.5,998.1563 A0,0 0 0 0 485.5,998.1563 L485.5,983.0234 L475.5,973.0234 L206.5,973.0234 A0,0 0 0 0 206.5,973.0234 " fill="#FEFFDD" style="stroke:#181818;stroke-width:0.5;"/><path d="M475.5,973.0234 L475.5,983.0234 L485.5,983.0234 L475.5,973.0234 " fill="#FEFFDD" style="stroke:#181818;stroke-width:0.5;"/><text fill="#000000" font-family="sans-serif" font-size="13" lengthAdjust="spacing" textLength="258" x="212.5" y="990.0903">RBlockschange(BigIntegerE,BigIntegerN)</text><ellipse cx="176.5" cy="985.5898" fill="#222222" rx="10" ry="10" style="stroke:#222222;stroke-width:1.0;"/><rect fill="#F1F1F1" height="33.9688" rx="12.5" ry="12.5" style="stroke:#181818;stroke-width:0.5;" width="235" x="59" y="1018.1563"/><text fill="#000000" font-family="sans-serif" font-size="12" lengthAdjust="spacing" textLength="215" x="69" y="1039.2949">final RBlocksresult=new RBlocks();</text><rect fill="#F1F1F1" height="33.9688" rx="12.5" ry="12.5" style="stroke:#181818;stroke-width:0.5;" width="218" x="67.5" y="1072.125"/><text fill="#000000" font-family="sans-serif" font-size="12" lengthAdjust="spacing" textLength="198" x="77.5" y="1093.2637">result.all.add(rsa.change(E,N));</text><rect fill="#F1F1F1" height="33.9688" rx="12.5" ry="12.5" style="stroke:#181818;stroke-width:0.5;" width="103" x="125" y="1126.0938"/><text fill="#000000" font-family="sans-serif" font-size="12" lengthAdjust="spacing" textLength="83" x="135" y="1147.2324">return result;</text><ellipse cx="176.5" cy="1191.0625" fill="none" rx="11" ry="11" style="stroke:#222222;stroke-width:1.0;"/><ellipse cx="176.5" cy="1191.0625" fill="#222222" rx="6" ry="6" style="stroke:#111111;stroke-width:1.0;"/><ellipse cx="176.5" cy="1222.0625" fill="none" rx="10" ry="10" style="stroke:#222222;stroke-width:1.5;"/><line style="stroke:#222222;stroke-width:2.5;" x1="170.3128" x2="182.6872" y1="1215.8753" y2="1228.2497"/><line style="stroke:#222222;stroke-width:2.5;" x1="182.6872" x2="170.3128" y1="1215.8753" y2="1228.2497"/><path d="M206.5,1242.0625 L206.5,1250.6289 L186.5,1254.6289 L206.5,1258.6289 L206.5,1267.1953 A0,0 0 0 0 206.5,1267.1953 L407.5,1267.1953 A0,0 0 0 0 407.5,1267.1953 L407.5,1252.0625 L397.5,1242.0625 L206.5,1242.0625 A0,0 0 0 0 206.5,1242.0625 " fill="#FEFFDD" style="stroke:#181818;stroke-width:0.5;"/><path d="M397.5,1242.0625 L397.5,1252.0625 L407.5,1252.0625 L397.5,1242.0625 " fill="#FEFFDD" style="stroke:#181818;stroke-width:0.5;"/><text fill="#000000" font-family="sans-serif" font-size="13" lengthAdjust="spacing" textLength="180" x="212.5" y="1259.1294">void writeTo(Pathout,intsize)</text><ellipse cx="176.5" cy="1254.6289" fill="#222222" rx="10" ry="10" style="stroke:#222222;stroke-width:1.0;"/><rect fill="#F1F1F1" height="47.9375" rx="12.5" ry="12.5" style="stroke:#181818;stroke-width:0.5;" width="291" x="31" y="1287.1953"/><text fill="#000000" font-family="sans-serif" font-size="12" lengthAdjust="spacing" textLength="271" x="41" y="1308.334">writeTo(new FileOutputStream(out.toFile()),</text><text fill="#000000" font-family="sans-serif" font-size="12" lengthAdjust="spacing" textLength="32" x="41" y="1322.3027">size);</text><ellipse cx="176.5" cy="1365.1328" fill="none" rx="10" ry="10" style="stroke:#222222;stroke-width:1.5;"/><line style="stroke:#222222;stroke-width:2.5;" x1="170.3128" x2="182.6872" y1="1358.9456" y2="1371.32"/><line style="stroke:#222222;stroke-width:2.5;" x1="182.6872" x2="170.3128" y1="1358.9456" y2="1371.32"/><path d="M206.5,1385.1328 L206.5,1393.6992 L186.5,1397.6992 L206.5,1401.6992 L206.5,1410.2656 A0,0 0 0 0 206.5,1410.2656 L392.5,1410.2656 A0,0 0 0 0 392.5,1410.2656 L392.5,1395.1328 L382.5,1385.1328 L206.5,1385.1328 A0,0 0 0 0 206.5,1385.1328 " fill="#FEFFDD" style="stroke:#181818;stroke-width:0.5;"/><path d="M382.5,1385.1328 L382.5,1395.1328 L392.5,1395.1328 L382.5,1385.1328 " fill="#FEFFDD" style="stroke:#181818;stroke-width:0.5;"/><text fill="#000000" font-family="sans-serif" font-size="13" lengthAdjust="spacing" textLength="165" x="212.5" y="1402.1997">byte[]toByteArray(intsize)</text><ellipse cx="176.5" cy="1397.6992" fill="#222222" rx="10" ry="10" style="stroke:#222222;stroke-width:1.0;"/><rect fill="#F1F1F1" height="33.9688" rx="12.5" ry="12.5" style="stroke:#181818;stroke-width:0.5;" width="283" x="35" y="1430.2656"/><text fill="#000000" font-family="sans-serif" font-size="12" lengthAdjust="spacing" textLength="263" x="45" y="1451.4043">final byte[]result=new byte[size*all.size()];</text><rect fill="#F1F1F1" height="33.9688" rx="12.5" ry="12.5" style="stroke:#181818;stroke-width:0.5;" width="265" x="44" y="1484.2344"/><text fill="#000000" font-family="sans-serif" font-size="12" lengthAdjust="spacing" textLength="245" x="54" y="1505.373">final byte[]tmp=all.get(i).getData(size);</text><rect fill="#F1F1F1" height="33.9688" rx="12.5" ry="12.5" style="stroke:#181818;stroke-width:0.5;" width="328" x="12.5" y="1538.2031"/><text fill="#000000" font-family="sans-serif" font-size="12" lengthAdjust="spacing" textLength="308" x="22.5" y="1559.3418">System.arraycopy(tmp,0,result,i*size,tmp.length);</text><rect fill="#F1F1F1" height="33.9688" rx="12.5" ry="12.5" style="stroke:#181818;stroke-width:0.5;" width="103" x="125" y="1592.1719"/><text fill="#000000" font-family="sans-serif" font-size="12" lengthAdjust="spacing" textLength="83" x="135" y="1613.3105">return result;</text><ellipse cx="176.5" cy="1657.1406" fill="none" rx="11" ry="11" style="stroke:#222222;stroke-width:1.0;"/><ellipse cx="176.5" cy="1657.1406" fill="#222222" rx="6" ry="6" style="stroke:#111111;stroke-width:1.0;"/><ellipse cx="176.5" cy="1688.1406" fill="none" rx="10" ry="10" style="stroke:#222222;stroke-width:1.5;"/><line style="stroke:#222222;stroke-width:2.5;" x1="170.3128" x2="182.6872" y1="1681.9534" y2="1694.3278"/><line style="stroke:#222222;stroke-width:2.5;" x1="182.6872" x2="170.3128" y1="1681.9534" y2="1694.3278"/><path d="M206.5,1708.1406 L206.5,1716.707 L186.5,1720.707 L206.5,1724.707 L206.5,1733.2734 A0,0 0 0 0 206.5,1733.2734 L464.5,1733.2734 A0,0 0 0 0 464.5,1733.2734 L464.5,1718.1406 L454.5,1708.1406 L206.5,1708.1406 A0,0 0 0 0 206.5,1708.1406 " fill="#FEFFDD" style="stroke:#181818;stroke-width:0.5;"/><path d="M454.5,1708.1406 L454.5,1718.1406 L464.5,1718.1406 L454.5,1708.1406 " fill="#FEFFDD" style="stroke:#181818;stroke-width:0.5;"/><text fill="#000000" font-family="sans-serif" font-size="13" lengthAdjust="spacing" textLength="237" x="212.5" y="1725.2075">void writeTo(OutputStreamos,intsize)</text><ellipse cx="176.5" cy="1720.707" fill="#222222" rx="10" ry="10" style="stroke:#222222;stroke-width:1.0;"/><rect fill="#F1F1F1" height="33.9688" rx="12.5" ry="12.5" style="stroke:#181818;stroke-width:0.5;" width="233" x="60" y="1753.2734"/><text fill="#000000" font-family="sans-serif" font-size="12" lengthAdjust="spacing" textLength="213" x="70" y="1774.4121">final byte[]tmp=rsa.getData(size);</text><rect fill="#F1F1F1" height="33.9688" rx="12.5" ry="12.5" style="stroke:#181818;stroke-width:0.5;" width="107" x="123" y="1807.2422"/><text fill="#000000" font-family="sans-serif" font-size="12" lengthAdjust="spacing" textLength="87" x="133" y="1828.3809">os.write(tmp);</text><rect fill="#F1F1F1" height="33.9688" rx="12.5" ry="12.5" style="stroke:#181818;stroke-width:0.5;" width="86" x="133.5" y="1861.2109"/><text fill="#000000" font-family="sans-serif" font-size="12" lengthAdjust="spacing" textLength="66" x="143.5" y="1882.3496">os.close();</text><ellipse cx="176.5" cy="1925.1797" fill="none" rx="10" ry="10" style="stroke:#222222;stroke-width:1.5;"/><line style="stroke:#222222;stroke-width:2.5;" x1="170.3128" x2="182.6872" y1="1918.9925" y2="1931.3669"/><line style="stroke:#222222;stroke-width:2.5;" x1="182.6872" x2="170.3128" y1="1918.9925" y2="1931.3669"/><line style="stroke:#181818;stroke-width:1.0;" x1="176.5" x2="176.5" y1="32.5664" y2="55.1328"/><polygon fill="#181818" points="172.5,45.1328,176.5,55.1328,180.5,45.1328,176.5,49.1328" style="stroke:#181818;stroke-width:1.0;"/><line style="stroke:#181818;stroke-width:1.0;" x1="176.5" x2="176.5" y1="107.6992" y2="130.2656"/><polygon fill="#181818" points="172.5,120.2656,176.5,130.2656,180.5,120.2656,176.5,124.2656" style="stroke:#181818;stroke-width:1.0;"/><line style="stroke:#181818;stroke-width:1.0;" x1="176.5" x2="176.5" y1="164.2344" y2="184.2344"/><polygon fill="#181818" points="172.5,174.2344,176.5,184.2344,180.5,174.2344,176.5,178.2344" style="stroke:#181818;stroke-width:1.0;"/><line style="stroke:#181818;stroke-width:1.0;" x1="176.5" x2="176.5" y1="218.2031" y2="238.2031"/><polygon fill="#181818" points="172.5,228.2031,176.5,238.2031,180.5,228.2031,176.5,232.2031" style="stroke:#181818;stroke-width:1.0;"/><line style="stroke:#181818;stroke-width:1.0;" x1="176.5" x2="176.5" y1="272.1719" y2="292.1719"/><polygon fill="#181818" points="172.5,282.1719,176.5,292.1719,180.5,282.1719,176.5,286.1719" style="stroke:#181818;stroke-width:1.0;"/><line style="stroke:#181818;stroke-width:1.0;" x1="176.5" x2="176.5" y1="326.1406" y2="346.1406"/><polygon fill="#181818" points="172.5,336.1406,176.5,346.1406,180.5,336.1406,176.5,340.1406" style="stroke:#181818;stroke-width:1.0;"/><line style="stroke:#181818;stroke-width:1.0;" x1="176.5" x2="176.5" y1="380.1094" y2="400.1094"/><polygon fill="#181818" points="172.5,390.1094,176.5,400.1094,180.5,390.1094,176.5,394.1094" style="stroke:#181818;stroke-width:1.0;"/><line style="stroke:#181818;stroke-width:1.0;" x1="176.5" x2="176.5" y1="484.6758" y2="507.2422"/><polygon fill="#181818" points="172.5,497.2422,176.5,507.2422,180.5,497.2422,176.5,501.2422" style="stroke:#181818;stroke-width:1.0;"/><line style="stroke:#181818;stroke-width:1.0;" x1="176.5" x2="176.5" y1="541.2109" y2="561.2109"/><polygon fill="#181818" points="172.5,551.2109,176.5,561.2109,180.5,551.2109,176.5,555.2109" style="stroke:#181818;stroke-width:1.0;"/><line style="stroke:#181818;stroke-width:1.0;" x1="176.5" x2="176.5" y1="707.1172" y2="727.1172"/><polygon fill="#181818" points="172.5,717.1172,176.5,727.1172,180.5,717.1172,176.5,721.1172" style="stroke:#181818;stroke-width:1.0;"/><line style="stroke:#181818;stroke-width:1.0;" x1="176.5" x2="176.5" y1="761.0859" y2="781.0859"/><polygon fill="#181818" points="172.5,771.0859,176.5,781.0859,180.5,771.0859,176.5,775.0859" style="stroke:#181818;stroke-width:1.0;"/><line style="stroke:#181818;stroke-width:1.0;" x1="176.5" x2="176.5" y1="639.1797" y2="659.1797"/><polygon fill="#181818" points="172.5,649.1797,176.5,659.1797,180.5,649.1797,176.5,653.1797" style="stroke:#181818;stroke-width:1.0;"/><line style="stroke:#181818;stroke-width:1.0;" x1="176.5" x2="176.5" y1="815.0547" y2="825.0547"/><line style="stroke:#181818;stroke-width:1.0;" x1="176.5" x2="329" y1="825.0547" y2="825.0547"/><polygon fill="#181818" points="325,735.1172,329,725.1172,333,735.1172,329,731.1172" style="stroke:#181818;stroke-width:1.0;"/><line style="stroke:#181818;stroke-width:1.0;" x1="329" x2="329" y1="627.1797" y2="825.0547"/><line style="stroke:#181818;stroke-width:1.0;" x1="329" x2="256.5" y1="627.1797" y2="627.1797"/><polygon fill="#181818" points="266.5,623.1797,256.5,627.1797,266.5,631.1797,262.5,627.1797" style="stroke:#181818;stroke-width:1.0;"/><line style="stroke:#181818;stroke-width:1.0;" x1="96.5" x2="24" y1="627.1797" y2="627.1797"/><polygon fill="#181818" points="20,721.1172,24,731.1172,28,721.1172,24,725.1172" style="stroke:#181818;stroke-width:1.0;"/><line style="stroke:#181818;stroke-width:1.0;" x1="24" x2="24" y1="627.1797" y2="837.0547"/><line style="stroke:#181818;stroke-width:1.0;" x1="24" x2="176.5" y1="837.0547" y2="837.0547"/><line style="stroke:#181818;stroke-width:1.0;" x1="176.5" x2="176.5" y1="837.0547" y2="857.0547"/><polygon fill="#181818" points="172.5,847.0547,176.5,857.0547,180.5,847.0547,176.5,851.0547" style="stroke:#181818;stroke-width:1.0;"/><line style="stroke:#181818;stroke-width:1.0;" x1="176.5" x2="176.5" y1="595.1797" y2="615.1797"/><polygon fill="#181818" points="172.5,605.1797,176.5,615.1797,180.5,605.1797,176.5,609.1797" style="stroke:#181818;stroke-width:1.0;"/><line style="stroke:#181818;stroke-width:1.0;" x1="176.5" x2="176.5" y1="891.0234" y2="911.0234"/><polygon fill="#181818" points="172.5,901.0234,176.5,911.0234,180.5,901.0234,176.5,905.0234" style="stroke:#181818;stroke-width:1.0;"/><line style="stroke:#181818;stroke-width:1.0;" x1="176.5" x2="176.5" y1="995.5898" y2="1018.1563"/><polygon fill="#181818" points="172.5,1008.1563,176.5,1018.1563,180.5,1008.1563,176.5,1012.1563" style="stroke:#181818;stroke-width:1.0;"/><line style="stroke:#181818;stroke-width:1.0;" x1="176.5" x2="176.5" y1="1052.125" y2="1072.125"/><polygon fill="#181818" points="172.5,1062.125,176.5,1072.125,180.5,1062.125,176.5,1066.125" style="stroke:#181818;stroke-width:1.0;"/><line style="stroke:#181818;stroke-width:1.0;" x1="176.5" x2="176.5" y1="1106.0938" y2="1126.0938"/><polygon fill="#181818" points="172.5,1116.0938,176.5,1126.0938,180.5,1116.0938,176.5,1120.0938" style="stroke:#181818;stroke-width:1.0;"/><line style="stroke:#181818;stroke-width:1.0;" x1="176.5" x2="176.5" y1="1160.0625" y2="1180.0625"/><polygon fill="#181818" points="172.5,1170.0625,176.5,1180.0625,180.5,1170.0625,176.5,1174.0625" style="stroke:#181818;stroke-width:1.0;"/><line style="stroke:#181818;stroke-width:1.0;" x1="176.5" x2="176.5" y1="1264.6289" y2="1287.1953"/><polygon fill="#181818" points="172.5,1277.1953,176.5,1287.1953,180.5,1277.1953,176.5,1281.1953" style="stroke:#181818;stroke-width:1.0;"/><line style="stroke:#181818;stroke-width:1.0;" x1="176.5" x2="176.5" y1="1335.1328" y2="1355.1328"/><polygon fill="#181818" points="172.5,1345.1328,176.5,1355.1328,180.5,1345.1328,176.5,1349.1328" style="stroke:#181818;stroke-width:1.0;"/><line style="stroke:#181818;stroke-width:1.0;" x1="176.5" x2="176.5" y1="1407.6992" y2="1430.2656"/><polygon fill="#181818" points="172.5,1420.2656,176.5,1430.2656,180.5,1420.2656,176.5,1424.2656" style="stroke:#181818;stroke-width:1.0;"/><line style="stroke:#181818;stroke-width:1.0;" x1="176.5" x2="176.5" y1="1464.2344" y2="1484.2344"/><polygon fill="#181818" points="172.5,1474.2344,176.5,1484.2344,180.5,1474.2344,176.5,1478.2344" style="stroke:#181818;stroke-width:1.0;"/><line style="stroke:#181818;stroke-width:1.0;" x1="176.5" x2="176.5" y1="1518.2031" y2="1538.2031"/><polygon fill="#181818" points="172.5,1528.2031,176.5,1538.2031,180.5,1528.2031,176.5,1532.2031" style="stroke:#181818;stroke-width:1.0;"/><line style="stroke:#181818;stroke-width:1.0;" x1="176.5" x2="176.5" y1="1572.1719" y2="1592.1719"/><polygon fill="#181818" points="172.5,1582.1719,176.5,1592.1719,180.5,1582.1719,176.5,1586.1719" style="stroke:#181818;stroke-width:1.0;"/><line style="stroke:#181818;stroke-width:1.0;" x1="176.5" x2="176.5" y1="1626.1406" y2="1646.1406"/><polygon fill="#181818" points="172.5,1636.1406,176.5,1646.1406,180.5,1636.1406,176.5,1640.1406" style="stroke:#181818;stroke-width:1.0;"/><line style="stroke:#181818;stroke-width:1.0;" x1="176.5" x2="176.5" y1="1730.707" y2="1753.2734"/><polygon fill="#181818" points="172.5,1743.2734,176.5,1753.2734,180.5,1743.2734,176.5,1747.2734" style="stroke:#181818;stroke-width:1.0;"/><line style="stroke:#181818;stroke-width:1.0;" x1="176.5" x2="176.5" y1="1787.2422" y2="1807.2422"/><polygon fill="#181818" points="172.5,1797.2422,176.5,1807.2422,180.5,1797.2422,176.5,1801.2422" style="stroke:#181818;stroke-width:1.0;"/><line style="stroke:#181818;stroke-width:1.0;" x1="176.5" x2="176.5" y1="1841.2109" y2="1861.2109"/><polygon fill="#181818" points="172.5,1851.2109,176.5,1861.2109,180.5,1851.2109,176.5,1855.2109" style="stroke:#181818;stroke-width:1.0;"/><line style="stroke:#181818;stroke-width:1.0;" x1="176.5" x2="176.5" y1="1895.1797" y2="1915.1797"/><polygon fill="#181818" points="172.5,1905.1797,176.5,1915.1797,180.5,1905.1797,176.5,1909.1797" style="stroke:#181818;stroke-width:1.0;"/><!--MD5=[7d567a3dff43c93e78b9772f567ff533]
@startuml
!pragma layout smetana
start
note right
constructor RBlocks()
end note
end
start
note right
StringtoString()
end note
:final StringBuildersb=new StringBuilder();;
:sb.append(all.size());;
:sb.append(" - ");;
:sb.append(block.toString());;
:return sb.toString();;
stop
end
start
note right
RBlocksreadFrom(byte[]fileContent,intsize)
end note
:final RBlocksresult=new RBlocks();;
:intstart=0;;
while (start<fileContent.length)
:final RBlockblock=new RBlock(fileContent,
start,size);;
:start+=size;;
:result.all.add(block);;
endwhile
:return result;;
stop
end
start
note right
RBlockschange(BigIntegerE,BigIntegerN)
end note
:final RBlocksresult=new RBlocks();;
:result.all.add(rsa.change(E,N));;
:return result;;
stop
end
start
note right
void writeTo(Pathout,intsize)
end note
:writeTo(new FileOutputStream(out.toFile()),
size);;
end
start
note right
byte[]toByteArray(intsize)
end note
:final byte[]result=new byte[size*all.size()];;
:final byte[]tmp=all.get(i).getData(size);;
:System.arraycopy(tmp,0,result,i*size,tmp.length);;
:return result;;
stop
end
start
note right
void writeTo(OutputStreamos,intsize)
end note
:final byte[]tmp=rsa.getData(size);;
:os.write(tmp);;
:os.close();;
end
@enduml

PlantUML version 1.2022.7(Mon Aug 22 17:01:30 UTC 2022)
(GPL source distribution)
Java Runtime: OpenJDK Runtime Environment
JVM: OpenJDK 64-Bit Server VM
Default Encoding: UTF-8
Language: en
Country: null
--></g></svg>