<?xml version="1.0" encoding="UTF-8" standalone="no"?><svg xmlns="http://www.w3.org/2000/svg" xmlns:xlink="http://www.w3.org/1999/xlink" contentStyleType="text/css" height="355px" preserveAspectRatio="none" style="width:381px;height:355px;background:#FFFFFF;" version="1.1" viewBox="0 0 381 355" width="381px" zoomAndPan="magnify"><defs/><g><path d="M155.5,10 L155.5,18.5664 L135.5,22.5664 L155.5,26.5664 L155.5,35.1328 A0,0 0 0 0 155.5,35.1328 L336.5,35.1328 A0,0 0 0 0 336.5,35.1328 L336.5,20 L326.5,10 L155.5,10 A0,0 0 0 0 155.5,10 " fill="#FEFFDD" style="stroke:#181818;stroke-width:0.5;"/><path d="M326.5,10 L326.5,20 L336.5,20 L326.5,10 " fill="#FEFFDD" style="stroke:#181818;stroke-width:0.5;"/><text fill="#000000" font-family="sans-serif" font-size="13" lengthAdjust="spacing" textLength="160" x="161.5" y="27.0669">boolean hasBeenCalled()</text><ellipse cx="125.5" cy="22.5664" fill="#222222" rx="10" ry="10" style="stroke:#222222;stroke-width:1.0;"/><rect fill="#F1F1F1" height="33.9688" rx="12.5" ry="12.5" style="stroke:#181818;stroke-width:0.5;" width="229" x="11" y="55.1328"/><text fill="#000000" font-family="sans-serif" font-size="12" lengthAdjust="spacing" textLength="209" x="21" y="76.2715">UNSUPPORTED("hasBeenCalled");</text><rect fill="#F1F1F1" height="33.9688" rx="12.5" ry="12.5" style="stroke:#181818;stroke-width:0.5;" width="160" x="45.5" y="109.1016"/><text fill="#000000" font-family="sans-serif" font-size="12" lengthAdjust="spacing" textLength="140" x="55.5" y="130.2402">return hasBeenCalled;</text><ellipse cx="125.5" cy="174.0703" fill="none" rx="11" ry="11" style="stroke:#222222;stroke-width:1.0;"/><ellipse cx="125.5" cy="174.0703" fill="#222222" rx="6" ry="6" style="stroke:#111111;stroke-width:1.0;"/><ellipse cx="125.5" cy="205.0703" fill="none" rx="10" ry="10" style="stroke:#222222;stroke-width:1.5;"/><line style="stroke:#222222;stroke-width:2.5;" x1="119.3128" x2="131.6872" y1="198.8831" y2="211.2575"/><line style="stroke:#222222;stroke-width:2.5;" x1="131.6872" x2="119.3128" y1="198.8831" y2="211.2575"/><path d="M155.5,225.0703 L155.5,233.6367 L135.5,237.6367 L155.5,241.6367 L155.5,250.2031 A0,0 0 0 0 155.5,250.2031 L369.5,250.2031 A0,0 0 0 0 369.5,250.2031 L369.5,235.0703 L359.5,225.0703 L155.5,225.0703 A0,0 0 0 0 155.5,225.0703 " fill="#FEFFDD" style="stroke:#181818;stroke-width:0.5;"/><path d="M359.5,225.0703 L359.5,235.0703 L369.5,235.0703 L359.5,225.0703 " fill="#FEFFDD" style="stroke:#181818;stroke-width:0.5;"/><text fill="#000000" font-family="sans-serif" font-size="13" lengthAdjust="spacing" textLength="193" x="161.5" y="242.1372">void saveCallingEnvironment()</text><ellipse cx="125.5" cy="237.6367" fill="#222222" rx="10" ry="10" style="stroke:#222222;stroke-width:1.0;"/><rect fill="#F1F1F1" height="33.9688" rx="12.5" ry="12.5" style="stroke:#181818;stroke-width:0.5;" width="153" x="49" y="270.2031"/><text fill="#000000" font-family="sans-serif" font-size="12" lengthAdjust="spacing" textLength="133" x="59" y="291.3418">hasBeenCalled=true;</text><ellipse cx="125.5" cy="334.1719" fill="none" rx="10" ry="10" style="stroke:#222222;stroke-width:1.5;"/><line style="stroke:#222222;stroke-width:2.5;" x1="119.3128" x2="131.6872" y1="327.9847" y2="340.3591"/><line style="stroke:#222222;stroke-width:2.5;" x1="131.6872" x2="119.3128" y1="327.9847" y2="340.3591"/><line style="stroke:#181818;stroke-width:1.0;" x1="125.5" x2="125.5" y1="32.5664" y2="55.1328"/><polygon fill="#181818" points="121.5,45.1328,125.5,55.1328,129.5,45.1328,125.5,49.1328" style="stroke:#181818;stroke-width:1.0;"/><line style="stroke:#181818;stroke-width:1.0;" x1="125.5" x2="125.5" y1="89.1016" y2="109.1016"/><polygon fill="#181818" points="121.5,99.1016,125.5,109.1016,129.5,99.1016,125.5,103.1016" style="stroke:#181818;stroke-width:1.0;"/><line style="stroke:#181818;stroke-width:1.0;" x1="125.5" x2="125.5" y1="143.0703" y2="163.0703"/><polygon fill="#181818" points="121.5,153.0703,125.5,163.0703,129.5,153.0703,125.5,157.0703" style="stroke:#181818;stroke-width:1.0;"/><line style="stroke:#181818;stroke-width:1.0;" x1="125.5" x2="125.5" y1="247.6367" y2="270.2031"/><polygon fill="#181818" points="121.5,260.2031,125.5,270.2031,129.5,260.2031,125.5,264.2031" style="stroke:#181818;stroke-width:1.0;"/><line style="stroke:#181818;stroke-width:1.0;" x1="125.5" x2="125.5" y1="304.1719" y2="324.1719"/><polygon fill="#181818" points="121.5,314.1719,125.5,324.1719,129.5,314.1719,125.5,318.1719" style="stroke:#181818;stroke-width:1.0;"/><!--MD5=[7d18ebd7584fe7dc37324d8d2014af5f]
@startuml
!pragma layout smetana
start
note right
boolean hasBeenCalled()
end note
:UNSUPPORTED("hasBeenCalled");;
:return hasBeenCalled;;
stop
end
start
note right
void saveCallingEnvironment()
end note
:hasBeenCalled=true;;
end
@enduml

PlantUML version 1.2022.7(Mon Aug 22 17:01:30 UTC 2022)
(GPL source distribution)
Java Runtime: OpenJDK Runtime Environment
JVM: OpenJDK 64-Bit Server VM
Default Encoding: UTF-8
Language: en
Country: null
--></g></svg>