<?xml version="1.0" encoding="UTF-8" standalone="no"?><svg xmlns="http://www.w3.org/2000/svg" xmlns:xlink="http://www.w3.org/1999/xlink" contentStyleType="text/css" height="218px" preserveAspectRatio="none" style="width:493px;height:218px;background:#FFFFFF;" version="1.1" viewBox="0 0 493 218" width="493px" zoomAndPan="magnify"><defs/><g><!--MD5=[618bade7fa0b4e48006b4fe3a106cd5e]
cluster net.sourceforge.plantuml.command--><g id="cluster_net.sourceforge.plantuml.command"><path d="M8.5,63 L291.5,63 A3.75,3.75 0 0 1 294,65.5 L301,85.2969 L483.5,85.2969 A2.5,2.5 0 0 1 486,87.7969 L486,208.5 A2.5,2.5 0 0 1 483.5,211 L8.5,211 A2.5,2.5 0 0 1 6,208.5 L6,65.5 A2.5,2.5 0 0 1 8.5,63 " fill="none" style="stroke:#000000;stroke-width:1.5;"/><line style="stroke:#000000;stroke-width:1.5;" x1="6" x2="301" y1="85.2969" y2="85.2969"/><text fill="#000000" font-family="sans-serif" font-size="14" font-weight="bold" lengthAdjust="spacing" textLength="282" x="10" y="77.9951">net.sourceforge.plantuml.command</text></g><!--MD5=[501aed17f7ddd8ac41a068fb4a5d51f9]
class CommandMultilinesBracket<TitledDiagram>--><g id="elem_CommandMultilinesBracket&lt;TitledDiagram&gt;"><rect fill="#F1F1F1" height="48" id="CommandMultilinesBracket&lt;TitledDiagram&gt;" rx="2.5" ry="2.5" style="stroke:#181818;stroke-width:0.5;" width="339" x="76.5" y="6"/><ellipse cx="91.5" cy="22" fill="#ADD1B2" rx="11" ry="11" style="stroke:#181818;stroke-width:1.0;"/><path d="M94.4688,27.6406 Q93.8906,27.9375 93.25,28.0781 Q92.6094,28.2344 91.9063,28.2344 Q89.4063,28.2344 88.0781,26.5938 Q86.7656,24.9375 86.7656,21.8125 Q86.7656,18.6875 88.0781,17.0313 Q89.4063,15.375 91.9063,15.375 Q92.6094,15.375 93.25,15.5313 Q93.9063,15.6875 94.4688,15.9844 L94.4688,18.7031 Q93.8438,18.125 93.25,17.8594 Q92.6563,17.5781 92.0313,17.5781 Q90.6875,17.5781 90,18.6563 Q89.3125,19.7188 89.3125,21.8125 Q89.3125,23.9063 90,24.9844 Q90.6875,26.0469 92.0313,26.0469 Q92.6563,26.0469 93.25,25.7813 Q93.8438,25.5 94.4688,24.9219 L94.4688,27.6406 Z " fill="#000000"/><text fill="#000000" font-family="sans-serif" font-size="14" lengthAdjust="spacing" textLength="307" x="105.5" y="26.8467">CommandMultilinesBracket&lt;TitledDiagram&gt;</text><line style="stroke:#181818;stroke-width:0.5;" x1="77.5" x2="414.5" y1="38" y2="38"/><line style="stroke:#181818;stroke-width:0.5;" x1="77.5" x2="414.5" y1="46" y2="46"/></g><!--MD5=[232bd7cfe53d83d6a961778e8953fc07]
class net.sourceforge.plantuml.command.CommandSkinParamMultilines--><g id="elem_net.sourceforge.plantuml.command.CommandSkinParamMultilines"><rect codeLine="3" fill="#F1F1F1" height="113.1875" id="net.sourceforge.plantuml.command.CommandSkinParamMultilines" rx="2.5" ry="2.5" style="stroke:#181818;stroke-width:0.5;" width="463" x="14.5" y="90"/><ellipse cx="138.25" cy="106" fill="#ADD1B2" rx="11" ry="11" style="stroke:#181818;stroke-width:1.0;"/><path d="M141.2188,111.6406 Q140.6406,111.9375 140,112.0781 Q139.3594,112.2344 138.6563,112.2344 Q136.1563,112.2344 134.8281,110.5938 Q133.5156,108.9375 133.5156,105.8125 Q133.5156,102.6875 134.8281,101.0313 Q136.1563,99.375 138.6563,99.375 Q139.3594,99.375 140,99.5313 Q140.6563,99.6875 141.2188,99.9844 L141.2188,102.7031 Q140.5938,102.125 140,101.8594 Q139.4063,101.5781 138.7813,101.5781 Q137.4375,101.5781 136.75,102.6563 Q136.0625,103.7188 136.0625,105.8125 Q136.0625,107.9063 136.75,108.9844 Q137.4375,110.0469 138.7813,110.0469 Q139.4063,110.0469 140,109.7813 Q140.5938,109.5 141.2188,108.9219 L141.2188,111.6406 Z " fill="#000000"/><text fill="#000000" font-family="sans-serif" font-size="14" lengthAdjust="spacing" textLength="207" x="158.75" y="110.8467">CommandSkinParamMultilines</text><line style="stroke:#181818;stroke-width:0.5;" x1="15.5" x2="476.5" y1="122" y2="122"/><line style="stroke:#181818;stroke-width:0.5;" x1="15.5" x2="476.5" y1="130" y2="130"/><a href="./../../../../../.././qc/src/net/sourceforge/plantuml/command/CommandSkinParamMultilines.java.html#45" target="_top" title="./../../../../../.././qc/src/net/sourceforge/plantuml/command/CommandSkinParamMultilines.java.html#45" xlink:actuate="onRequest" xlink:href="./../../../../../.././qc/src/net/sourceforge/plantuml/command/CommandSkinParamMultilines.java.html#45" xlink:show="new" xlink:title="./../../../../../.././qc/src/net/sourceforge/plantuml/command/CommandSkinParamMultilines.java.html#45" xlink:type="simple"><rect fill="#F1F1F1" height="10" style="stroke:none;stroke-width:1.0;" width="20" x="20.5" y="138.6484"/><ellipse cx="25.5" cy="143.6484" fill="#84BE84" rx="3" ry="3" style="stroke:#038048;stroke-width:1.0;"/></a><a href="./../../../../../.././qc/src/net/sourceforge/plantuml/command/CommandSkinParamMultilines.java.html#45" target="_top" title="./../../../../../.././qc/src/net/sourceforge/plantuml/command/CommandSkinParamMultilines.java.html#45" xlink:actuate="onRequest" xlink:href="./../../../../../.././qc/src/net/sourceforge/plantuml/command/CommandSkinParamMultilines.java.html#45" xlink:show="new" xlink:title="./../../../../../.././qc/src/net/sourceforge/plantuml/command/CommandSkinParamMultilines.java.html#45" xlink:type="simple"><text fill="#000000" font-family="sans-serif" font-size="14" lengthAdjust="spacing" textLength="437" x="34.5" y="146.9951">CommandSkinParamMultilines() : CommandSkinParamMultilines</text></a><a href="./../../../../../.././qc/src/net/sourceforge/plantuml/command/CommandSkinParamMultilines.java.html#50" target="_top" title="./../../../../../.././qc/src/net/sourceforge/plantuml/command/CommandSkinParamMultilines.java.html#50" xlink:actuate="onRequest" xlink:href="./../../../../../.././qc/src/net/sourceforge/plantuml/command/CommandSkinParamMultilines.java.html#50" xlink:show="new" xlink:title="./../../../../../.././qc/src/net/sourceforge/plantuml/command/CommandSkinParamMultilines.java.html#50" xlink:type="simple"><text fill="#000000" font-family="sans-serif" font-size="14" lengthAdjust="spacing" textLength="255" x="34.5" y="163.292">isLineConsistent(String;int) : boolean</text></a><a href="./../../../../../.././qc/src/net/sourceforge/plantuml/command/CommandSkinParamMultilines.java.html#58" target="_top" title="./../../../../../.././qc/src/net/sourceforge/plantuml/command/CommandSkinParamMultilines.java.html#58" xlink:actuate="onRequest" xlink:href="./../../../../../.././qc/src/net/sourceforge/plantuml/command/CommandSkinParamMultilines.java.html#58" xlink:show="new" xlink:title="./../../../../../.././qc/src/net/sourceforge/plantuml/command/CommandSkinParamMultilines.java.html#58" xlink:type="simple"><rect fill="#F1F1F1" height="10" style="stroke:none;stroke-width:1.0;" width="20" x="20.5" y="171.2422"/><rect fill="#F24D5C" height="6" style="stroke:#C82930;stroke-width:1.0;" width="6" x="22.5" y="173.2422"/></a><a href="./../../../../../.././qc/src/net/sourceforge/plantuml/command/CommandSkinParamMultilines.java.html#58" target="_top" title="./../../../../../.././qc/src/net/sourceforge/plantuml/command/CommandSkinParamMultilines.java.html#58" xlink:actuate="onRequest" xlink:href="./../../../../../.././qc/src/net/sourceforge/plantuml/command/CommandSkinParamMultilines.java.html#58" xlink:show="new" xlink:title="./../../../../../.././qc/src/net/sourceforge/plantuml/command/CommandSkinParamMultilines.java.html#58" xlink:type="simple"><text fill="#000000" font-family="sans-serif" font-size="14" lengthAdjust="spacing" textLength="303" x="34.5" y="179.5889">hasStartingQuote(CharSequence) : boolean</text></a><a href="./../../../../../.././qc/src/net/sourceforge/plantuml/command/CommandSkinParamMultilines.java.html#63" target="_top" title="./../../../../../.././qc/src/net/sourceforge/plantuml/command/CommandSkinParamMultilines.java.html#63" xlink:actuate="onRequest" xlink:href="./../../../../../.././qc/src/net/sourceforge/plantuml/command/CommandSkinParamMultilines.java.html#63" xlink:show="new" xlink:title="./../../../../../.././qc/src/net/sourceforge/plantuml/command/CommandSkinParamMultilines.java.html#63" xlink:type="simple"><rect fill="#F1F1F1" height="10" style="stroke:none;stroke-width:1.0;" width="20" x="20.5" y="187.5391"/><ellipse cx="25.5" cy="192.5391" fill="#84BE84" rx="3" ry="3" style="stroke:#038048;stroke-width:1.0;"/></a><a href="./../../../../../.././qc/src/net/sourceforge/plantuml/command/CommandSkinParamMultilines.java.html#63" target="_top" title="./../../../../../.././qc/src/net/sourceforge/plantuml/command/CommandSkinParamMultilines.java.html#63" xlink:actuate="onRequest" xlink:href="./../../../../../.././qc/src/net/sourceforge/plantuml/command/CommandSkinParamMultilines.java.html#63" xlink:show="new" xlink:title="./../../../../../.././qc/src/net/sourceforge/plantuml/command/CommandSkinParamMultilines.java.html#63" xlink:type="simple"><text fill="#000000" font-family="sans-serif" font-size="14" lengthAdjust="spacing" textLength="428" x="34.5" y="195.8857">execute(TitledDiagram;BlocLines) : CommandExecutionResult</text></a></g><path d="M246,54.1708 C246,64.4955 246,77.1452 246,89.7017 " fill="none" style="stroke:#181818;stroke-width:1.0;"/><polygon fill="#FFFFFF" points="246,54.1708,240,70.1708,252,70.1708,246,54.1708" style="stroke:#181818;stroke-width:1.0;"/><!--MD5=[5724f8f3132973a85d1dacd64e6ed84b]
@startuml
!pragma layout smetana
"CommandMultilinesBracket<TitledDiagram>" <|- - "net.sourceforge.plantuml.command.CommandSkinParamMultilines"
class net.sourceforge.plantuml.command.CommandSkinParamMultilines {
+CommandSkinParamMultilines() : CommandSkinParamMultilines [[[./../../../../../.././qc/src/net/sourceforge/plantuml/command/CommandSkinParamMultilines.java.html#45]]]
isLineConsistent(String;int) : boolean [[[./../../../../../.././qc/src/net/sourceforge/plantuml/command/CommandSkinParamMultilines.java.html#50]]]
-hasStartingQuote(CharSequence) : boolean [[[./../../../../../.././qc/src/net/sourceforge/plantuml/command/CommandSkinParamMultilines.java.html#58]]]
+execute(TitledDiagram;BlocLines) : CommandExecutionResult [[[./../../../../../.././qc/src/net/sourceforge/plantuml/command/CommandSkinParamMultilines.java.html#63]]]
} 
@enduml

PlantUML version 1.2022.7(Mon Aug 22 17:01:30 UTC 2022)
(GPL source distribution)
Java Runtime: OpenJDK Runtime Environment
JVM: OpenJDK 64-Bit Server VM
Default Encoding: UTF-8
Language: en
Country: null
--></g></svg>