<?xml version="1.0" encoding="UTF-8" standalone="no"?><svg xmlns="http://www.w3.org/2000/svg" xmlns:xlink="http://www.w3.org/1999/xlink" contentStyleType="text/css" height="1915px" preserveAspectRatio="none" style="width:1062px;height:1915px;background:#FFFFFF;" version="1.1" viewBox="0 0 1062 1915" width="1062px" zoomAndPan="magnify"><defs/><g><path d="M561,10 L561,18.5664 L541,22.5664 L561,26.5664 L561,35.1328 A0,0 0 0 0 561,35.1328 L813,35.1328 A0,0 0 0 0 813,35.1328 L813,20 L803,10 L561,10 A0,0 0 0 0 561,10 " fill="#FEFFDD" style="stroke:#181818;stroke-width:0.5;"/><path d="M803,10 L803,20 L813,20 L803,10 " fill="#FEFFDD" style="stroke:#181818;stroke-width:0.5;"/><text fill="#000000" font-family="sans-serif" font-size="13" lengthAdjust="spacing" textLength="231" x="567" y="27.0669">constructor CommandNamespace()</text><ellipse cx="531" cy="22.5664" fill="#222222" rx="10" ry="10" style="stroke:#222222;stroke-width:1.0;"/><rect fill="#F1F1F1" height="33.9688" rx="12.5" ry="12.5" style="stroke:#181818;stroke-width:0.5;" width="187" x="437.5" y="55.1328"/><text fill="#000000" font-family="sans-serif" font-size="12" lengthAdjust="spacing" textLength="167" x="447.5" y="76.2715">super (getRegexConcat());</text><ellipse cx="531" cy="119.1016" fill="none" rx="10" ry="10" style="stroke:#222222;stroke-width:1.5;"/><line style="stroke:#222222;stroke-width:2.5;" x1="524.8128" x2="537.1872" y1="112.9144" y2="125.2887"/><line style="stroke:#222222;stroke-width:2.5;" x1="537.1872" x2="524.8128" y1="112.9144" y2="125.2887"/><path d="M561,139.1016 L561,147.668 L541,151.668 L561,155.668 L561,164.2344 A0,0 0 0 0 561,164.2344 L743,164.2344 A0,0 0 0 0 743,164.2344 L743,149.1016 L733,139.1016 L561,139.1016 A0,0 0 0 0 561,139.1016 " fill="#FEFFDD" style="stroke:#181818;stroke-width:0.5;"/><path d="M733,139.1016 L733,149.1016 L743,149.1016 L733,139.1016 " fill="#FEFFDD" style="stroke:#181818;stroke-width:0.5;"/><text fill="#000000" font-family="sans-serif" font-size="13" lengthAdjust="spacing" textLength="161" x="567" y="156.1685">IRegex getRegexConcat()</text><ellipse cx="531" cy="151.668" fill="#222222" rx="10" ry="10" style="stroke:#222222;stroke-width:1.0;"/><rect fill="#F1F1F1" height="117.7813" rx="12.5" ry="12.5" style="stroke:#181818;stroke-width:0.5;" width="1040" x="11" y="184.2344"/><text fill="#000000" font-family="sans-serif" font-size="12" lengthAdjust="spacing" textLength="415" x="21" y="205.373">return RegexConcat.build(CommandNamespace.class .getName(),</text><text fill="#000000" font-family="sans-serif" font-size="12" lengthAdjust="spacing" textLength="302" x="21" y="219.3418">RegexLeaf.start(),new RegexLeaf("namespace"),</text><text fill="#000000" font-family="sans-serif" font-size="12" lengthAdjust="spacing" textLength="337" x="21" y="233.3105">RegexLeaf.spaceOneOrMore(),new RegexLeaf("NAME",</text><text fill="#000000" font-family="sans-serif" font-size="12" lengthAdjust="spacing" textLength="1020" x="21" y="247.2793">"([%pLN_][-%pLN_.:\\\\]*)"),RegexLeaf.spaceZeroOrMore(),new RegexLeaf("STEREOTYPE","(\\&lt;\\&lt;.*\\&gt;\\&gt;)?"),RegexLeaf.spaceZeroOrMore(),new RegexLeaf("URL","("+</text><text fill="#000000" font-family="sans-serif" font-size="12" lengthAdjust="spacing" textLength="376" x="21" y="261.248">UrlBuilder.getRegexp()+")?"),RegexLeaf.spaceZeroOrMore(),</text><text fill="#000000" font-family="sans-serif" font-size="12" lengthAdjust="spacing" textLength="316" x="21" y="275.2168">ColorParser.exp1(),RegexLeaf.spaceZeroOrMore(),</text><text fill="#000000" font-family="sans-serif" font-size="12" lengthAdjust="spacing" textLength="244" x="21" y="289.1855">new RegexLeaf("\\{"),RegexLeaf.end());</text><ellipse cx="531" cy="333.0156" fill="none" rx="11" ry="11" style="stroke:#222222;stroke-width:1.0;"/><ellipse cx="531" cy="333.0156" fill="#222222" rx="6" ry="6" style="stroke:#111111;stroke-width:1.0;"/><ellipse cx="531" cy="364.0156" fill="none" rx="10" ry="10" style="stroke:#222222;stroke-width:1.5;"/><line style="stroke:#222222;stroke-width:2.5;" x1="524.8128" x2="537.1872" y1="357.8284" y2="370.2028"/><line style="stroke:#222222;stroke-width:2.5;" x1="537.1872" x2="524.8128" y1="357.8284" y2="370.2028"/><path d="M561,384.0156 L561,400.1484 L541,404.1484 L561,408.1484 L561,424.2813 A0,0 0 0 0 561,424.2813 L982,424.2813 A0,0 0 0 0 982,424.2813 L982,394.0156 L972,384.0156 L561,384.0156 A0,0 0 0 0 561,384.0156 " fill="#FEFFDD" style="stroke:#181818;stroke-width:0.5;"/><path d="M972,384.0156 L972,394.0156 L982,394.0156 L972,384.0156 " fill="#FEFFDD" style="stroke:#181818;stroke-width:0.5;"/><text fill="#000000" font-family="sans-serif" font-size="13" lengthAdjust="spacing" textLength="400" x="567" y="401.0825">CommandExecutionResult executeArg(ClassDiagram diagram,</text><text fill="#000000" font-family="sans-serif" font-size="13" lengthAdjust="spacing" textLength="246" x="567" y="416.2153">LineLocation location,RegexResult arg)</text><ellipse cx="531" cy="404.1484" fill="#222222" rx="10" ry="10" style="stroke:#222222;stroke-width:1.0;"/><rect fill="#F1F1F1" height="33.9688" rx="12.5" ry="12.5" style="stroke:#181818;stroke-width:0.5;" width="263" x="399.5" y="444.2813"/><text fill="#000000" font-family="sans-serif" font-size="12" lengthAdjust="spacing" textLength="243" x="409.5" y="465.4199">final String idShort=arg.get("NAME",0);</text><rect fill="#F1F1F1" height="33.9688" rx="12.5" ry="12.5" style="stroke:#181818;stroke-width:0.5;" width="121" x="470.5" y="498.25"/><text fill="#000000" font-family="sans-serif" font-size="12" lengthAdjust="spacing" textLength="101" x="480.5" y="519.3887">final Code code;</text><rect fill="#F1F1F1" height="33.9688" rx="12.5" ry="12.5" style="stroke:#181818;stroke-width:0.5;" width="199" x="431.5" y="552.2188"/><text fill="#000000" font-family="sans-serif" font-size="12" lengthAdjust="spacing" textLength="179" x="441.5" y="573.3574">final IGroup currentPackage;</text><rect fill="#F1F1F1" height="33.9688" rx="12.5" ry="12.5" style="stroke:#181818;stroke-width:0.5;" width="145" x="458.5" y="606.1875"/><text fill="#000000" font-family="sans-serif" font-size="12" lengthAdjust="spacing" textLength="125" x="468.5" y="627.3262">final Display display;</text><rect fill="#F1F1F1" height="33.9688" rx="12.5" ry="12.5" style="stroke:#181818;stroke-width:0.5;" width="365" x="348.5" y="660.1563"/><text fill="#000000" font-family="sans-serif" font-size="12" lengthAdjust="spacing" textLength="345" x="358.5" y="681.2949">final Ident idNewLong=diagram.buildLeafIdent(idShort);</text><polygon fill="#F1F1F1" points="484,714.125,578,714.125,590,726.125,578,738.125,484,738.125,472,726.125,484,714.125" style="stroke:#181818;stroke-width:0.5;"/><text fill="#000000" font-family="sans-serif" font-size="11" lengthAdjust="spacing" textLength="94" x="484" y="729.9331">diagram.V1972()</text><text fill="#000000" font-family="sans-serif" font-size="11" lengthAdjust="spacing" textLength="20" x="452" y="723.5308">yes</text><text fill="#000000" font-family="sans-serif" font-size="11" lengthAdjust="spacing" textLength="14" x="590" y="723.5308">no</text><rect fill="#F1F1F1" height="33.9688" rx="12.5" ry="12.5" style="stroke:#181818;stroke-width:0.5;" width="91" x="305.25" y="748.125"/><text fill="#000000" font-family="sans-serif" font-size="12" lengthAdjust="spacing" textLength="71" x="315.25" y="769.2637">code=null ;</text><rect fill="#F1F1F1" height="33.9688" rx="12.5" ry="12.5" style="stroke:#181818;stroke-width:0.5;" width="160" x="270.75" y="802.0938"/><text fill="#000000" font-family="sans-serif" font-size="12" lengthAdjust="spacing" textLength="140" x="280.75" y="823.2324">currentPackage=null ;</text><rect fill="#F1F1F1" height="33.9688" rx="12.5" ry="12.5" style="stroke:#181818;stroke-width:0.5;" width="376" x="162.75" y="856.0625"/><text fill="#000000" font-family="sans-serif" font-size="12" lengthAdjust="spacing" textLength="356" x="172.75" y="877.2012">display=Display.getWithNewlines(idNewLong.getName());</text><rect fill="#F1F1F1" height="33.9688" rx="12.5" ry="12.5" style="stroke:#181818;stroke-width:0.5;" width="237" x="592.75" y="748.125"/><text fill="#000000" font-family="sans-serif" font-size="12" lengthAdjust="spacing" textLength="217" x="602.75" y="769.2637">code=diagram.buildCode(idShort);</text><rect fill="#F1F1F1" height="33.9688" rx="12.5" ry="12.5" style="stroke:#181818;stroke-width:0.5;" width="305" x="558.75" y="802.0938"/><text fill="#000000" font-family="sans-serif" font-size="12" lengthAdjust="spacing" textLength="285" x="568.75" y="823.2324">currentPackage=diagram.getCurrentGroup();</text><rect fill="#F1F1F1" height="33.9688" rx="12.5" ry="12.5" style="stroke:#181818;stroke-width:0.5;" width="269" x="576.75" y="856.0625"/><text fill="#000000" font-family="sans-serif" font-size="12" lengthAdjust="spacing" textLength="249" x="586.75" y="877.2012">display=Display.getWithNewlines(code);</text><polygon fill="#F1F1F1" points="531,896.0313,543,908.0313,531,920.0313,519,908.0313,531,896.0313" style="stroke:#181818;stroke-width:0.5;"/><rect fill="#F1F1F1" height="47.9375" rx="12.5" ry="12.5" style="stroke:#181818;stroke-width:0.5;" width="452" x="305" y="940.0313"/><text fill="#000000" font-family="sans-serif" font-size="12" lengthAdjust="spacing" textLength="280" x="315" y="961.1699">diagram.gotoGroup(idNewLong,code,display,</text><text fill="#000000" font-family="sans-serif" font-size="12" lengthAdjust="spacing" textLength="432" x="315" y="975.1387">GroupType.PACKAGE,currentPackage,NamespaceStrategy.MULTIPLE);</text><rect fill="#F1F1F1" height="33.9688" rx="12.5" ry="12.5" style="stroke:#181818;stroke-width:0.5;" width="285" x="388.5" y="1007.9688"/><text fill="#000000" font-family="sans-serif" font-size="12" lengthAdjust="spacing" textLength="265" x="398.5" y="1029.1074">final IEntity p=diagram.getCurrentGroup();</text><rect fill="#F1F1F1" height="33.9688" rx="12.5" ry="12.5" style="stroke:#181818;stroke-width:0.5;" width="329" x="366.5" y="1061.9375"/><text fill="#000000" font-family="sans-serif" font-size="12" lengthAdjust="spacing" textLength="309" x="376.5" y="1083.0762">final String stereotype=arg.get("STEREOTYPE",0);</text><rect fill="#F1F1F1" height="33.9688" rx="12.5" ry="12.5" style="stroke:#181818;stroke-width:0.5;" width="316" x="373" y="1164.3086"/><text fill="#000000" font-family="sans-serif" font-size="12" lengthAdjust="spacing" textLength="296" x="383" y="1185.4473">p.setStereotype(Stereotype.build(stereotype));</text><polygon fill="#F1F1F1" points="482.5,1115.9063,579.5,1115.9063,591.5,1127.9063,579.5,1139.9063,482.5,1139.9063,470.5,1127.9063,482.5,1115.9063" style="stroke:#181818;stroke-width:0.5;"/><text fill="#000000" font-family="sans-serif" font-size="11" lengthAdjust="spacing" textLength="20" x="535" y="1150.1167">yes</text><text fill="#000000" font-family="sans-serif" font-size="11" lengthAdjust="spacing" textLength="93" x="482.5" y="1131.7144">stereotype!=null</text><polygon fill="#F1F1F1" points="531,1218.2773,543,1230.2773,531,1242.2773,519,1230.2773,531,1218.2773" style="stroke:#181818;stroke-width:0.5;"/><rect fill="#F1F1F1" height="33.9688" rx="12.5" ry="12.5" style="stroke:#181818;stroke-width:0.5;" width="259" x="401.5" y="1262.2773"/><text fill="#000000" font-family="sans-serif" font-size="12" lengthAdjust="spacing" textLength="239" x="411.5" y="1283.416">final String urlString=arg.get("URL",0);</text><rect fill="#F1F1F1" height="47.9375" rx="12.5" ry="12.5" style="stroke:#181818;stroke-width:0.5;" width="550" x="256" y="1364.6484"/><text fill="#000000" font-family="sans-serif" font-size="12" lengthAdjust="spacing" textLength="530" x="266" y="1385.7871">final UrlBuilder urlBuilder=new UrlBuilder(diagram.getSkinParam().getValue("topurl"),</text><text fill="#000000" font-family="sans-serif" font-size="12" lengthAdjust="spacing" textLength="105" x="266" y="1399.7559">UrlMode.STRICT);</text><rect fill="#F1F1F1" height="33.9688" rx="12.5" ry="12.5" style="stroke:#181818;stroke-width:0.5;" width="265" x="398.5" y="1432.5859"/><text fill="#000000" font-family="sans-serif" font-size="12" lengthAdjust="spacing" textLength="245" x="408.5" y="1453.7246">final Url url=urlBuilder.getUrl(urlString);</text><rect fill="#F1F1F1" height="33.9688" rx="12.5" ry="12.5" style="stroke:#181818;stroke-width:0.5;" width="103" x="479.5" y="1486.5547"/><text fill="#000000" font-family="sans-serif" font-size="12" lengthAdjust="spacing" textLength="83" x="489.5" y="1507.6934">p.addUrl(url);</text><polygon fill="#F1F1F1" points="488.5,1316.2461,573.5,1316.2461,585.5,1328.2461,573.5,1340.2461,488.5,1340.2461,476.5,1328.2461,488.5,1316.2461" style="stroke:#181818;stroke-width:0.5;"/><text fill="#000000" font-family="sans-serif" font-size="11" lengthAdjust="spacing" textLength="20" x="535" y="1350.4565">yes</text><text fill="#000000" font-family="sans-serif" font-size="11" lengthAdjust="spacing" textLength="81" x="488.5" y="1332.0542">urlString!=null</text><polygon fill="#F1F1F1" points="531,1540.5234,543,1552.5234,531,1564.5234,519,1552.5234,531,1540.5234" style="stroke:#181818;stroke-width:0.5;"/><rect fill="#F1F1F1" height="33.9688" rx="12.5" ry="12.5" style="stroke:#181818;stroke-width:0.5;" width="254" x="404" y="1584.5234"/><text fill="#000000" font-family="sans-serif" font-size="12" lengthAdjust="spacing" textLength="234" x="414" y="1605.6621">final String color=arg.get("COLOR",0);</text><rect fill="#F1F1F1" height="47.9375" rx="12.5" ry="12.5" style="stroke:#181818;stroke-width:0.5;" width="398" x="332" y="1686.8945"/><text fill="#000000" font-family="sans-serif" font-size="12" lengthAdjust="spacing" textLength="309" x="342" y="1708.0332">p.setSpecificColorTOBEREMOVED(ColorType.BACK,</text><text fill="#000000" font-family="sans-serif" font-size="12" lengthAdjust="spacing" textLength="378" x="342" y="1722.002">diagram.getSkinParam().getIHtmlColorSet().getColor(color));</text><polygon fill="#F1F1F1" points="499,1638.4922,563,1638.4922,575,1650.4922,563,1662.4922,499,1662.4922,487,1650.4922,499,1638.4922" style="stroke:#181818;stroke-width:0.5;"/><text fill="#000000" font-family="sans-serif" font-size="11" lengthAdjust="spacing" textLength="20" x="535" y="1672.7026">yes</text><text fill="#000000" font-family="sans-serif" font-size="11" lengthAdjust="spacing" textLength="60" x="499" y="1654.3003">color!=null</text><polygon fill="#F1F1F1" points="531,1754.832,543,1766.832,531,1778.832,519,1766.832,531,1754.832" style="stroke:#181818;stroke-width:0.5;"/><rect fill="#F1F1F1" height="33.9688" rx="12.5" ry="12.5" style="stroke:#181818;stroke-width:0.5;" width="258" x="402" y="1798.832"/><text fill="#000000" font-family="sans-serif" font-size="12" lengthAdjust="spacing" textLength="238" x="412" y="1819.9707">return CommandExecutionResult.ok();</text><ellipse cx="531" cy="1863.8008" fill="none" rx="11" ry="11" style="stroke:#222222;stroke-width:1.0;"/><ellipse cx="531" cy="1863.8008" fill="#222222" rx="6" ry="6" style="stroke:#111111;stroke-width:1.0;"/><ellipse cx="531" cy="1894.8008" fill="none" rx="10" ry="10" style="stroke:#222222;stroke-width:1.5;"/><line style="stroke:#222222;stroke-width:2.5;" x1="524.8128" x2="537.1872" y1="1888.6136" y2="1900.988"/><line style="stroke:#222222;stroke-width:2.5;" x1="537.1872" x2="524.8128" y1="1888.6136" y2="1900.988"/><line style="stroke:#181818;stroke-width:1.0;" x1="531" x2="531" y1="32.5664" y2="55.1328"/><polygon fill="#181818" points="527,45.1328,531,55.1328,535,45.1328,531,49.1328" style="stroke:#181818;stroke-width:1.0;"/><line style="stroke:#181818;stroke-width:1.0;" x1="531" x2="531" y1="89.1016" y2="109.1016"/><polygon fill="#181818" points="527,99.1016,531,109.1016,535,99.1016,531,103.1016" style="stroke:#181818;stroke-width:1.0;"/><line style="stroke:#181818;stroke-width:1.0;" x1="531" x2="531" y1="161.668" y2="184.2344"/><polygon fill="#181818" points="527,174.2344,531,184.2344,535,174.2344,531,178.2344" style="stroke:#181818;stroke-width:1.0;"/><line style="stroke:#181818;stroke-width:1.0;" x1="531" x2="531" y1="302.0156" y2="322.0156"/><polygon fill="#181818" points="527,312.0156,531,322.0156,535,312.0156,531,316.0156" style="stroke:#181818;stroke-width:1.0;"/><line style="stroke:#181818;stroke-width:1.0;" x1="531" x2="531" y1="414.1484" y2="444.2813"/><polygon fill="#181818" points="527,434.2813,531,444.2813,535,434.2813,531,438.2813" style="stroke:#181818;stroke-width:1.0;"/><line style="stroke:#181818;stroke-width:1.0;" x1="531" x2="531" y1="478.25" y2="498.25"/><polygon fill="#181818" points="527,488.25,531,498.25,535,488.25,531,492.25" style="stroke:#181818;stroke-width:1.0;"/><line style="stroke:#181818;stroke-width:1.0;" x1="531" x2="531" y1="532.2188" y2="552.2188"/><polygon fill="#181818" points="527,542.2188,531,552.2188,535,542.2188,531,546.2188" style="stroke:#181818;stroke-width:1.0;"/><line style="stroke:#181818;stroke-width:1.0;" x1="531" x2="531" y1="586.1875" y2="606.1875"/><polygon fill="#181818" points="527,596.1875,531,606.1875,535,596.1875,531,600.1875" style="stroke:#181818;stroke-width:1.0;"/><line style="stroke:#181818;stroke-width:1.0;" x1="531" x2="531" y1="640.1563" y2="660.1563"/><polygon fill="#181818" points="527,650.1563,531,660.1563,535,650.1563,531,654.1563" style="stroke:#181818;stroke-width:1.0;"/><line style="stroke:#181818;stroke-width:1.0;" x1="350.75" x2="350.75" y1="782.0938" y2="802.0938"/><polygon fill="#181818" points="346.75,792.0938,350.75,802.0938,354.75,792.0938,350.75,796.0938" style="stroke:#181818;stroke-width:1.0;"/><line style="stroke:#181818;stroke-width:1.0;" x1="350.75" x2="350.75" y1="836.0625" y2="856.0625"/><polygon fill="#181818" points="346.75,846.0625,350.75,856.0625,354.75,846.0625,350.75,850.0625" style="stroke:#181818;stroke-width:1.0;"/><line style="stroke:#181818;stroke-width:1.0;" x1="711.25" x2="711.25" y1="782.0938" y2="802.0938"/><polygon fill="#181818" points="707.25,792.0938,711.25,802.0938,715.25,792.0938,711.25,796.0938" style="stroke:#181818;stroke-width:1.0;"/><line style="stroke:#181818;stroke-width:1.0;" x1="711.25" x2="711.25" y1="836.0625" y2="856.0625"/><polygon fill="#181818" points="707.25,846.0625,711.25,856.0625,715.25,846.0625,711.25,850.0625" style="stroke:#181818;stroke-width:1.0;"/><line style="stroke:#181818;stroke-width:1.0;" x1="472" x2="350.75" y1="726.125" y2="726.125"/><line style="stroke:#181818;stroke-width:1.0;" x1="350.75" x2="350.75" y1="726.125" y2="748.125"/><polygon fill="#181818" points="346.75,738.125,350.75,748.125,354.75,738.125,350.75,742.125" style="stroke:#181818;stroke-width:1.0;"/><line style="stroke:#181818;stroke-width:1.0;" x1="590" x2="711.25" y1="726.125" y2="726.125"/><line style="stroke:#181818;stroke-width:1.0;" x1="711.25" x2="711.25" y1="726.125" y2="748.125"/><polygon fill="#181818" points="707.25,738.125,711.25,748.125,715.25,738.125,711.25,742.125" style="stroke:#181818;stroke-width:1.0;"/><line style="stroke:#181818;stroke-width:1.0;" x1="350.75" x2="350.75" y1="890.0313" y2="908.0313"/><line style="stroke:#181818;stroke-width:1.0;" x1="350.75" x2="519" y1="908.0313" y2="908.0313"/><polygon fill="#181818" points="509,904.0313,519,908.0313,509,912.0313,513,908.0313" style="stroke:#181818;stroke-width:1.0;"/><line style="stroke:#181818;stroke-width:1.0;" x1="711.25" x2="711.25" y1="890.0313" y2="908.0313"/><line style="stroke:#181818;stroke-width:1.0;" x1="711.25" x2="543" y1="908.0313" y2="908.0313"/><polygon fill="#181818" points="553,904.0313,543,908.0313,553,912.0313,549,908.0313" style="stroke:#181818;stroke-width:1.0;"/><line style="stroke:#181818;stroke-width:1.0;" x1="531" x2="531" y1="694.125" y2="714.125"/><polygon fill="#181818" points="527,704.125,531,714.125,535,704.125,531,708.125" style="stroke:#181818;stroke-width:1.0;"/><line style="stroke:#181818;stroke-width:1.0;" x1="531" x2="531" y1="920.0313" y2="940.0313"/><polygon fill="#181818" points="527,930.0313,531,940.0313,535,930.0313,531,934.0313" style="stroke:#181818;stroke-width:1.0;"/><line style="stroke:#181818;stroke-width:1.0;" x1="531" x2="531" y1="987.9688" y2="1007.9688"/><polygon fill="#181818" points="527,997.9688,531,1007.9688,535,997.9688,531,1001.9688" style="stroke:#181818;stroke-width:1.0;"/><line style="stroke:#181818;stroke-width:1.0;" x1="531" x2="531" y1="1041.9375" y2="1061.9375"/><polygon fill="#181818" points="527,1051.9375,531,1061.9375,535,1051.9375,531,1055.9375" style="stroke:#181818;stroke-width:1.0;"/><line style="stroke:#181818;stroke-width:1.0;" x1="531" x2="531" y1="1139.9063" y2="1164.3086"/><polygon fill="#181818" points="527,1154.3086,531,1164.3086,535,1154.3086,531,1158.3086" style="stroke:#181818;stroke-width:1.0;"/><line style="stroke:#181818;stroke-width:1.0;" x1="591.5" x2="699" y1="1127.9063" y2="1127.9063"/><polygon fill="#181818" points="695,1171.293,699,1181.293,703,1171.293,699,1175.293" style="stroke:#181818;stroke-width:1.0;"/><line style="stroke:#181818;stroke-width:1.0;" x1="699" x2="699" y1="1127.9063" y2="1230.2773"/><line style="stroke:#181818;stroke-width:1.0;" x1="699" x2="543" y1="1230.2773" y2="1230.2773"/><polygon fill="#181818" points="553,1226.2773,543,1230.2773,553,1234.2773,549,1230.2773" style="stroke:#181818;stroke-width:1.0;"/><line style="stroke:#181818;stroke-width:1.0;" x1="531" x2="531" y1="1198.2773" y2="1218.2773"/><polygon fill="#181818" points="527,1208.2773,531,1218.2773,535,1208.2773,531,1212.2773" style="stroke:#181818;stroke-width:1.0;"/><line style="stroke:#181818;stroke-width:1.0;" x1="531" x2="531" y1="1095.9063" y2="1115.9063"/><polygon fill="#181818" points="527,1105.9063,531,1115.9063,535,1105.9063,531,1109.9063" style="stroke:#181818;stroke-width:1.0;"/><line style="stroke:#181818;stroke-width:1.0;" x1="531" x2="531" y1="1242.2773" y2="1262.2773"/><polygon fill="#181818" points="527,1252.2773,531,1262.2773,535,1252.2773,531,1256.2773" style="stroke:#181818;stroke-width:1.0;"/><line style="stroke:#181818;stroke-width:1.0;" x1="531" x2="531" y1="1412.5859" y2="1432.5859"/><polygon fill="#181818" points="527,1422.5859,531,1432.5859,535,1422.5859,531,1426.5859" style="stroke:#181818;stroke-width:1.0;"/><line style="stroke:#181818;stroke-width:1.0;" x1="531" x2="531" y1="1466.5547" y2="1486.5547"/><polygon fill="#181818" points="527,1476.5547,531,1486.5547,535,1476.5547,531,1480.5547" style="stroke:#181818;stroke-width:1.0;"/><line style="stroke:#181818;stroke-width:1.0;" x1="531" x2="531" y1="1340.2461" y2="1364.6484"/><polygon fill="#181818" points="527,1354.6484,531,1364.6484,535,1354.6484,531,1358.6484" style="stroke:#181818;stroke-width:1.0;"/><line style="stroke:#181818;stroke-width:1.0;" x1="585.5" x2="816" y1="1328.2461" y2="1328.2461"/><polygon fill="#181818" points="812,1432.5859,816,1442.5859,820,1432.5859,816,1436.5859" style="stroke:#181818;stroke-width:1.0;"/><line style="stroke:#181818;stroke-width:1.0;" x1="816" x2="816" y1="1328.2461" y2="1552.5234"/><line style="stroke:#181818;stroke-width:1.0;" x1="816" x2="543" y1="1552.5234" y2="1552.5234"/><polygon fill="#181818" points="553,1548.5234,543,1552.5234,553,1556.5234,549,1552.5234" style="stroke:#181818;stroke-width:1.0;"/><line style="stroke:#181818;stroke-width:1.0;" x1="531" x2="531" y1="1520.5234" y2="1540.5234"/><polygon fill="#181818" points="527,1530.5234,531,1540.5234,535,1530.5234,531,1534.5234" style="stroke:#181818;stroke-width:1.0;"/><line style="stroke:#181818;stroke-width:1.0;" x1="531" x2="531" y1="1296.2461" y2="1316.2461"/><polygon fill="#181818" points="527,1306.2461,531,1316.2461,535,1306.2461,531,1310.2461" style="stroke:#181818;stroke-width:1.0;"/><line style="stroke:#181818;stroke-width:1.0;" x1="531" x2="531" y1="1564.5234" y2="1584.5234"/><polygon fill="#181818" points="527,1574.5234,531,1584.5234,535,1574.5234,531,1578.5234" style="stroke:#181818;stroke-width:1.0;"/><line style="stroke:#181818;stroke-width:1.0;" x1="531" x2="531" y1="1662.4922" y2="1686.8945"/><polygon fill="#181818" points="527,1676.8945,531,1686.8945,535,1676.8945,531,1680.8945" style="stroke:#181818;stroke-width:1.0;"/><line style="stroke:#181818;stroke-width:1.0;" x1="575" x2="740" y1="1650.4922" y2="1650.4922"/><polygon fill="#181818" points="736,1700.8633,740,1710.8633,744,1700.8633,740,1704.8633" style="stroke:#181818;stroke-width:1.0;"/><line style="stroke:#181818;stroke-width:1.0;" x1="740" x2="740" y1="1650.4922" y2="1766.832"/><line style="stroke:#181818;stroke-width:1.0;" x1="740" x2="543" y1="1766.832" y2="1766.832"/><polygon fill="#181818" points="553,1762.832,543,1766.832,553,1770.832,549,1766.832" style="stroke:#181818;stroke-width:1.0;"/><line style="stroke:#181818;stroke-width:1.0;" x1="531" x2="531" y1="1734.832" y2="1754.832"/><polygon fill="#181818" points="527,1744.832,531,1754.832,535,1744.832,531,1748.832" style="stroke:#181818;stroke-width:1.0;"/><line style="stroke:#181818;stroke-width:1.0;" x1="531" x2="531" y1="1618.4922" y2="1638.4922"/><polygon fill="#181818" points="527,1628.4922,531,1638.4922,535,1628.4922,531,1632.4922" style="stroke:#181818;stroke-width:1.0;"/><line style="stroke:#181818;stroke-width:1.0;" x1="531" x2="531" y1="1778.832" y2="1798.832"/><polygon fill="#181818" points="527,1788.832,531,1798.832,535,1788.832,531,1792.832" style="stroke:#181818;stroke-width:1.0;"/><line style="stroke:#181818;stroke-width:1.0;" x1="531" x2="531" y1="1832.8008" y2="1852.8008"/><polygon fill="#181818" points="527,1842.8008,531,1852.8008,535,1842.8008,531,1846.8008" style="stroke:#181818;stroke-width:1.0;"/><!--MD5=[91c5bd1ccf6d25e9873f3af38e34840b]
@startuml
!pragma layout smetana
start
note right
constructor CommandNamespace()
end note
:super (getRegexConcat());;
end
start
note right
IRegex getRegexConcat()
end note
:return RegexConcat.build(CommandNamespace.class .getName(),
RegexLeaf.start(),new RegexLeaf("namespace"),
RegexLeaf.spaceOneOrMore(),new RegexLeaf("NAME",
"([%pLN_][-%pLN_.:\\\\]*)"),RegexLeaf.spaceZeroOrMore(),new RegexLeaf("STEREOTYPE","(\\<\\<.*\\>\\>)?"),RegexLeaf.spaceZeroOrMore(),new RegexLeaf("URL","("+
UrlBuilder.getRegexp()+")?"),RegexLeaf.spaceZeroOrMore(),
ColorParser.exp1(),RegexLeaf.spaceZeroOrMore(),
new RegexLeaf("\\{"),RegexLeaf.end());;
stop
end
start
note right
CommandExecutionResult executeArg(ClassDiagram diagram,
LineLocation location,RegexResult arg)
end note
:final String idShort=arg.get("NAME",0);;
:final Code code;;
:final IGroup currentPackage;;
:final Display display;;
:final Ident idNewLong=diagram.buildLeafIdent(idShort);;
if (diagram.V1972()) then (yes) 
:code=null ;;
:currentPackage=null ;;
:display=Display.getWithNewlines(idNewLong.getName());;
else (no)
:code=diagram.buildCode(idShort);;
:currentPackage=diagram.getCurrentGroup();;
:display=Display.getWithNewlines(code);;
endif 
:diagram.gotoGroup(idNewLong,code,display,
GroupType.PACKAGE,currentPackage,NamespaceStrategy.MULTIPLE);;
:final IEntity p=diagram.getCurrentGroup();;
:final String stereotype=arg.get("STEREOTYPE",0);;
if (stereotype!=null ) then (yes) 
:p.setStereotype(Stereotype.build(stereotype));;
endif 
:final String urlString=arg.get("URL",0);;
if (urlString!=null ) then (yes) 
:final UrlBuilder urlBuilder=new UrlBuilder(diagram.getSkinParam().getValue("topurl"),
UrlMode.STRICT);;
:final Url url=urlBuilder.getUrl(urlString);;
:p.addUrl(url);;
endif 
:final String color=arg.get("COLOR",0);;
if (color!=null ) then (yes) 
:p.setSpecificColorTOBEREMOVED(ColorType.BACK,
diagram.getSkinParam().getIHtmlColorSet().getColor(color));;
endif 
:return CommandExecutionResult.ok();;
stop
end
@enduml

PlantUML version 1.2022.7(Mon Aug 22 17:01:30 UTC 2022)
(GPL source distribution)
Java Runtime: OpenJDK Runtime Environment
JVM: OpenJDK 64-Bit Server VM
Default Encoding: UTF-8
Language: en
Country: null
--></g></svg>