<?xml version="1.0" encoding="UTF-8" standalone="no"?><svg xmlns="http://www.w3.org/2000/svg" xmlns:xlink="http://www.w3.org/1999/xlink" contentStyleType="text/css" height="681px" preserveAspectRatio="none" style="width:1257px;height:681px;background:#FFFFFF;" version="1.1" viewBox="0 0 1257 681" width="1257px" zoomAndPan="magnify"><defs/><g><path d="M658.5,10 L658.5,18.5664 L638.5,22.5664 L658.5,26.5664 L658.5,35.1328 A0,0 0 0 0 658.5,35.1328 L895.5,35.1328 A0,0 0 0 0 895.5,35.1328 L895.5,20 L885.5,10 L658.5,10 A0,0 0 0 0 658.5,10 " fill="#FEFFDD" style="stroke:#181818;stroke-width:0.5;"/><path d="M885.5,10 L885.5,20 L895.5,20 L885.5,10 " fill="#FEFFDD" style="stroke:#181818;stroke-width:0.5;"/><text fill="#000000" font-family="sans-serif" font-size="13" lengthAdjust="spacing" textLength="216" x="664.5" y="27.0669">constructor CommandSpriteSvg()</text><ellipse cx="628.5" cy="22.5664" fill="#222222" rx="10" ry="10" style="stroke:#222222;stroke-width:1.0;"/><rect fill="#F1F1F1" height="33.9688" rx="12.5" ry="12.5" style="stroke:#181818;stroke-width:0.5;" width="187" x="535" y="55.1328"/><text fill="#000000" font-family="sans-serif" font-size="12" lengthAdjust="spacing" textLength="167" x="545" y="76.2715">super (getRegexConcat());</text><ellipse cx="628.5" cy="119.1016" fill="none" rx="10" ry="10" style="stroke:#222222;stroke-width:1.5;"/><line style="stroke:#222222;stroke-width:2.5;" x1="622.3128" x2="634.6872" y1="112.9144" y2="125.2887"/><line style="stroke:#222222;stroke-width:2.5;" x1="634.6872" x2="622.3128" y1="112.9144" y2="125.2887"/><path d="M658.5,139.1016 L658.5,147.668 L638.5,151.668 L658.5,155.668 L658.5,164.2344 A0,0 0 0 0 658.5,164.2344 L836.5,164.2344 A0,0 0 0 0 836.5,164.2344 L836.5,149.1016 L826.5,139.1016 L658.5,139.1016 A0,0 0 0 0 658.5,139.1016 " fill="#FEFFDD" style="stroke:#181818;stroke-width:0.5;"/><path d="M826.5,139.1016 L826.5,149.1016 L836.5,149.1016 L826.5,139.1016 " fill="#FEFFDD" style="stroke:#181818;stroke-width:0.5;"/><text fill="#000000" font-family="sans-serif" font-size="13" lengthAdjust="spacing" textLength="157" x="664.5" y="156.1685">IRegexgetRegexConcat()</text><ellipse cx="628.5" cy="151.668" fill="#222222" rx="10" ry="10" style="stroke:#222222;stroke-width:1.0;"/><rect fill="#F1F1F1" height="61.9063" rx="12.5" ry="12.5" style="stroke:#181818;stroke-width:0.5;" width="1235" x="11" y="184.2344"/><text fill="#000000" font-family="sans-serif" font-size="12" lengthAdjust="spacing" textLength="1215" x="21" y="205.373">return RegexConcat.build(CommandSpriteSvg.class .getName(),RegexLeaf.start(),new RegexLeaf("sprite"),RegexLeaf.spaceOneOrMore(),new RegexLeaf("\\$?"),new RegexLeaf("NAME","([-%pLN_]+</text><text fill="#000000" font-family="sans-serif" font-size="12" lengthAdjust="spacing" textLength="346" x="21" y="219.3418">)"),RegexLeaf.spaceOneOrMore(),new RegexLeaf("SVG",</text><text fill="#000000" font-family="sans-serif" font-size="12" lengthAdjust="spacing" textLength="266" x="21" y="233.3105">"(\\&lt;svg\\b.*\\&lt;/svg\\&gt;)"),RegexLeaf.end());</text><ellipse cx="628.5" cy="277.1406" fill="none" rx="11" ry="11" style="stroke:#222222;stroke-width:1.0;"/><ellipse cx="628.5" cy="277.1406" fill="#222222" rx="6" ry="6" style="stroke:#111111;stroke-width:1.0;"/><ellipse cx="628.5" cy="308.1406" fill="none" rx="10" ry="10" style="stroke:#222222;stroke-width:1.5;"/><line style="stroke:#222222;stroke-width:2.5;" x1="622.3128" x2="634.6872" y1="301.9534" y2="314.3278"/><line style="stroke:#222222;stroke-width:2.5;" x1="634.6872" x2="622.3128" y1="301.9534" y2="314.3278"/><path d="M658.5,328.1406 L658.5,344.2734 L638.5,348.2734 L658.5,352.2734 L658.5,368.4063 A0,0 0 0 0 658.5,368.4063 L1065.5,368.4063 A0,0 0 0 0 1065.5,368.4063 L1065.5,338.1406 L1055.5,328.1406 L658.5,328.1406 A0,0 0 0 0 658.5,328.1406 " fill="#FEFFDD" style="stroke:#181818;stroke-width:0.5;"/><path d="M1055.5,328.1406 L1055.5,338.1406 L1065.5,338.1406 L1055.5,328.1406 " fill="#FEFFDD" style="stroke:#181818;stroke-width:0.5;"/><text fill="#000000" font-family="sans-serif" font-size="13" lengthAdjust="spacing" textLength="386" x="664.5" y="345.2075">CommandExecutionResultexecuteArg(TitledDiagramsystem,</text><text fill="#000000" font-family="sans-serif" font-size="13" lengthAdjust="spacing" textLength="238" x="664.5" y="360.3403">LineLocationlocation,RegexResultarg)</text><ellipse cx="628.5" cy="348.2734" fill="#222222" rx="10" ry="10" style="stroke:#222222;stroke-width:1.0;"/><rect fill="#F1F1F1" height="33.9688" rx="12.5" ry="12.5" style="stroke:#181818;stroke-width:0.5;" width="225" x="516" y="388.4063"/><text fill="#000000" font-family="sans-serif" font-size="12" lengthAdjust="spacing" textLength="205" x="526" y="409.5449">final Stringsvg=arg.get("SVG",0);</text><rect fill="#F1F1F1" height="47.9375" rx="12.5" ry="12.5" style="stroke:#181818;stroke-width:0.5;" width="384" x="436.5" y="442.375"/><text fill="#000000" font-family="sans-serif" font-size="12" lengthAdjust="spacing" textLength="364" x="446.5" y="463.5137">final SvgNanoParsernanoParser=new SvgNanoParser(svg,</text><text fill="#000000" font-family="sans-serif" font-size="12" lengthAdjust="spacing" textLength="35" x="446.5" y="477.4824">true);</text><rect fill="#F1F1F1" height="33.9688" rx="12.5" ry="12.5" style="stroke:#181818;stroke-width:0.5;" width="333" x="462" y="510.3125"/><text fill="#000000" font-family="sans-serif" font-size="12" lengthAdjust="spacing" textLength="313" x="472" y="531.4512">system.addSprite(arg.get("NAME",0),nanoParser);</text><rect fill="#F1F1F1" height="33.9688" rx="12.5" ry="12.5" style="stroke:#181818;stroke-width:0.5;" width="258" x="499.5" y="564.2813"/><text fill="#000000" font-family="sans-serif" font-size="12" lengthAdjust="spacing" textLength="238" x="509.5" y="585.4199">return CommandExecutionResult.ok();</text><ellipse cx="628.5" cy="629.25" fill="none" rx="11" ry="11" style="stroke:#222222;stroke-width:1.0;"/><ellipse cx="628.5" cy="629.25" fill="#222222" rx="6" ry="6" style="stroke:#111111;stroke-width:1.0;"/><ellipse cx="628.5" cy="660.25" fill="none" rx="10" ry="10" style="stroke:#222222;stroke-width:1.5;"/><line style="stroke:#222222;stroke-width:2.5;" x1="622.3128" x2="634.6872" y1="654.0628" y2="666.4372"/><line style="stroke:#222222;stroke-width:2.5;" x1="634.6872" x2="622.3128" y1="654.0628" y2="666.4372"/><line style="stroke:#181818;stroke-width:1.0;" x1="628.5" x2="628.5" y1="32.5664" y2="55.1328"/><polygon fill="#181818" points="624.5,45.1328,628.5,55.1328,632.5,45.1328,628.5,49.1328" style="stroke:#181818;stroke-width:1.0;"/><line style="stroke:#181818;stroke-width:1.0;" x1="628.5" x2="628.5" y1="89.1016" y2="109.1016"/><polygon fill="#181818" points="624.5,99.1016,628.5,109.1016,632.5,99.1016,628.5,103.1016" style="stroke:#181818;stroke-width:1.0;"/><line style="stroke:#181818;stroke-width:1.0;" x1="628.5" x2="628.5" y1="161.668" y2="184.2344"/><polygon fill="#181818" points="624.5,174.2344,628.5,184.2344,632.5,174.2344,628.5,178.2344" style="stroke:#181818;stroke-width:1.0;"/><line style="stroke:#181818;stroke-width:1.0;" x1="628.5" x2="628.5" y1="246.1406" y2="266.1406"/><polygon fill="#181818" points="624.5,256.1406,628.5,266.1406,632.5,256.1406,628.5,260.1406" style="stroke:#181818;stroke-width:1.0;"/><line style="stroke:#181818;stroke-width:1.0;" x1="628.5" x2="628.5" y1="358.2734" y2="388.4063"/><polygon fill="#181818" points="624.5,378.4063,628.5,388.4063,632.5,378.4063,628.5,382.4063" style="stroke:#181818;stroke-width:1.0;"/><line style="stroke:#181818;stroke-width:1.0;" x1="628.5" x2="628.5" y1="422.375" y2="442.375"/><polygon fill="#181818" points="624.5,432.375,628.5,442.375,632.5,432.375,628.5,436.375" style="stroke:#181818;stroke-width:1.0;"/><line style="stroke:#181818;stroke-width:1.0;" x1="628.5" x2="628.5" y1="490.3125" y2="510.3125"/><polygon fill="#181818" points="624.5,500.3125,628.5,510.3125,632.5,500.3125,628.5,504.3125" style="stroke:#181818;stroke-width:1.0;"/><line style="stroke:#181818;stroke-width:1.0;" x1="628.5" x2="628.5" y1="544.2813" y2="564.2813"/><polygon fill="#181818" points="624.5,554.2813,628.5,564.2813,632.5,554.2813,628.5,558.2813" style="stroke:#181818;stroke-width:1.0;"/><line style="stroke:#181818;stroke-width:1.0;" x1="628.5" x2="628.5" y1="598.25" y2="618.25"/><polygon fill="#181818" points="624.5,608.25,628.5,618.25,632.5,608.25,628.5,612.25" style="stroke:#181818;stroke-width:1.0;"/><!--MD5=[0958436d56efeb4353b7d31c4ed07e4a]
@startuml
!pragma layout smetana
start
note right
constructor CommandSpriteSvg()
end note
:super (getRegexConcat());;
end
start
note right
IRegexgetRegexConcat()
end note
:return RegexConcat.build(CommandSpriteSvg.class .getName(),RegexLeaf.start(),new RegexLeaf("sprite"),RegexLeaf.spaceOneOrMore(),new RegexLeaf("\\$?"),new RegexLeaf("NAME","([-%pLN_]+
)"),RegexLeaf.spaceOneOrMore(),new RegexLeaf("SVG",
"(\\<svg\\b.*\\</svg\\>)"),RegexLeaf.end());;
stop
end
start
note right
CommandExecutionResultexecuteArg(TitledDiagramsystem,
LineLocationlocation,RegexResultarg)
end note
:final Stringsvg=arg.get("SVG",0);;
:final SvgNanoParsernanoParser=new SvgNanoParser(svg,
true);;
:system.addSprite(arg.get("NAME",0),nanoParser);;
:return CommandExecutionResult.ok();;
stop
end
@enduml

PlantUML version 1.2022.7(Mon Aug 22 17:01:30 UTC 2022)
(GPL source distribution)
Java Runtime: OpenJDK Runtime Environment
JVM: OpenJDK 64-Bit Server VM
Default Encoding: UTF-8
Language: en
Country: null
--></g></svg>