<?xml version="1.0" encoding="UTF-8" standalone="no"?><svg xmlns="http://www.w3.org/2000/svg" xmlns:xlink="http://www.w3.org/1999/xlink" contentStyleType="text/css" height="1594px" preserveAspectRatio="none" style="width:1302px;height:1594px;background:#FFFFFF;" version="1.1" viewBox="0 0 1302 1594" width="1302px" zoomAndPan="magnify"><defs/><g><path d="M539.75,10 L539.75,18.5664 L519.75,22.5664 L539.75,26.5664 L539.75,35.1328 A0,0 0 0 0 539.75,35.1328 L764.75,35.1328 A0,0 0 0 0 764.75,35.1328 L764.75,20 L754.75,10 L539.75,10 A0,0 0 0 0 539.75,10 " fill="#FEFFDD" style="stroke:#181818;stroke-width:0.5;"/><path d="M754.75,10 L754.75,20 L764.75,20 L754.75,10 " fill="#FEFFDD" style="stroke:#181818;stroke-width:0.5;"/><text fill="#000000" font-family="sans-serif" font-size="13" lengthAdjust="spacing" textLength="204" x="545.75" y="27.0669">constructor CommandPragma()</text><ellipse cx="509.75" cy="22.5664" fill="#222222" rx="10" ry="10" style="stroke:#222222;stroke-width:1.0;"/><rect fill="#F1F1F1" height="33.9688" rx="12.5" ry="12.5" style="stroke:#181818;stroke-width:0.5;" width="187" x="416.25" y="55.1328"/><text fill="#000000" font-family="sans-serif" font-size="12" lengthAdjust="spacing" textLength="167" x="426.25" y="76.2715">super (getRegexConcat());</text><ellipse cx="509.75" cy="119.1016" fill="none" rx="10" ry="10" style="stroke:#222222;stroke-width:1.5;"/><line style="stroke:#222222;stroke-width:2.5;" x1="503.5628" x2="515.9372" y1="112.9144" y2="125.2887"/><line style="stroke:#222222;stroke-width:2.5;" x1="515.9372" x2="503.5628" y1="112.9144" y2="125.2887"/><path d="M539.75,139.1016 L539.75,147.668 L519.75,151.668 L539.75,155.668 L539.75,164.2344 A0,0 0 0 0 539.75,164.2344 L721.75,164.2344 A0,0 0 0 0 721.75,164.2344 L721.75,149.1016 L711.75,139.1016 L539.75,139.1016 A0,0 0 0 0 539.75,139.1016 " fill="#FEFFDD" style="stroke:#181818;stroke-width:0.5;"/><path d="M711.75,139.1016 L711.75,149.1016 L721.75,149.1016 L711.75,139.1016 " fill="#FEFFDD" style="stroke:#181818;stroke-width:0.5;"/><text fill="#000000" font-family="sans-serif" font-size="13" lengthAdjust="spacing" textLength="161" x="545.75" y="156.1685">IRegex getRegexConcat()</text><ellipse cx="509.75" cy="151.668" fill="#222222" rx="10" ry="10" style="stroke:#222222;stroke-width:1.0;"/><rect fill="#F1F1F1" height="89.8438" rx="12.5" ry="12.5" style="stroke:#181818;stroke-width:0.5;" width="613" x="203.25" y="184.2344"/><text fill="#000000" font-family="sans-serif" font-size="12" lengthAdjust="spacing" textLength="389" x="213.25" y="205.373">return RegexConcat.build(CommandPragma.class .getName(),</text><text fill="#000000" font-family="sans-serif" font-size="12" lengthAdjust="spacing" textLength="282" x="213.25" y="219.3418">RegexLeaf.start(),new RegexLeaf("!pragma"),</text><text fill="#000000" font-family="sans-serif" font-size="12" lengthAdjust="spacing" textLength="337" x="213.25" y="233.3105">RegexLeaf.spaceOneOrMore(),new RegexLeaf("NAME",</text><text fill="#000000" font-family="sans-serif" font-size="12" lengthAdjust="spacing" textLength="593" x="213.25" y="247.2793">"([A-Za-z_][A-Za-z_0-9]*)"),new RegexOptional(new RegexConcat(RegexLeaf.spaceOneOrMore(),</text><text fill="#000000" font-family="sans-serif" font-size="12" lengthAdjust="spacing" textLength="311" x="213.25" y="261.248">new RegexLeaf("VALUE","(.*)"))),RegexLeaf.end());</text><ellipse cx="509.75" cy="305.0781" fill="none" rx="11" ry="11" style="stroke:#222222;stroke-width:1.0;"/><ellipse cx="509.75" cy="305.0781" fill="#222222" rx="6" ry="6" style="stroke:#111111;stroke-width:1.0;"/><ellipse cx="509.75" cy="336.0781" fill="none" rx="10" ry="10" style="stroke:#222222;stroke-width:1.5;"/><line style="stroke:#222222;stroke-width:2.5;" x1="503.5628" x2="515.9372" y1="329.8909" y2="342.2653"/><line style="stroke:#222222;stroke-width:2.5;" x1="515.9372" x2="503.5628" y1="329.8909" y2="342.2653"/><path d="M539.75,356.0781 L539.75,372.2109 L519.75,376.2109 L539.75,380.2109 L539.75,396.3438 A0,0 0 0 0 539.75,396.3438 L954.75,396.3438 A0,0 0 0 0 954.75,396.3438 L954.75,366.0781 L944.75,356.0781 L539.75,356.0781 A0,0 0 0 0 539.75,356.0781 " fill="#FEFFDD" style="stroke:#181818;stroke-width:0.5;"/><path d="M944.75,356.0781 L944.75,366.0781 L954.75,366.0781 L944.75,356.0781 " fill="#FEFFDD" style="stroke:#181818;stroke-width:0.5;"/><text fill="#000000" font-family="sans-serif" font-size="13" lengthAdjust="spacing" textLength="394" x="545.75" y="373.145">CommandExecutionResult executeArg(TitledDiagram system,</text><text fill="#000000" font-family="sans-serif" font-size="13" lengthAdjust="spacing" textLength="246" x="545.75" y="388.2778">LineLocation location,RegexResult arg)</text><ellipse cx="509.75" cy="376.2109" fill="#222222" rx="10" ry="10" style="stroke:#222222;stroke-width:1.0;"/><rect fill="#F1F1F1" height="47.9375" rx="12.5" ry="12.5" style="stroke:#181818;stroke-width:0.5;" width="392" x="313.75" y="416.3438"/><text fill="#000000" font-family="sans-serif" font-size="12" lengthAdjust="spacing" textLength="372" x="323.75" y="437.4824">final String name=StringUtils.goLowerCase(arg.get("NAME",</text><text fill="#000000" font-family="sans-serif" font-size="12" lengthAdjust="spacing" textLength="22" x="323.75" y="451.4512">0));</text><rect fill="#F1F1F1" height="33.9688" rx="12.5" ry="12.5" style="stroke:#181818;stroke-width:0.5;" width="255" x="382.25" y="484.2813"/><text fill="#000000" font-family="sans-serif" font-size="12" lengthAdjust="spacing" textLength="235" x="392.25" y="505.4199">final String value=arg.get("VALUE",0);</text><polygon fill="#F1F1F1" points="410.25,538.25,609.25,538.25,621.25,550.25,609.25,562.25,410.25,562.25,398.25,550.25,410.25,538.25" style="stroke:#181818;stroke-width:0.5;"/><text fill="#000000" font-family="sans-serif" font-size="11" lengthAdjust="spacing" textLength="199" x="410.25" y="554.0581">name.equalsIgnoreCase("svgsize")</text><text fill="#000000" font-family="sans-serif" font-size="11" lengthAdjust="spacing" textLength="20" x="378.25" y="547.6558">yes</text><text fill="#000000" font-family="sans-serif" font-size="11" lengthAdjust="spacing" textLength="14" x="621.25" y="547.6558">no</text><rect fill="#F1F1F1" height="33.9688" rx="12.5" ry="12.5" style="stroke:#181818;stroke-width:0.5;" width="344" x="11" y="620.6523"/><text fill="#000000" font-family="sans-serif" font-size="12" lengthAdjust="spacing" textLength="324" x="21" y="641.791">final StringTokenizer st=new StringTokenizer(value);</text><rect fill="#F1F1F1" height="47.9375" rx="12.5" ry="12.5" style="stroke:#181818;stroke-width:0.5;" width="335" x="15.5" y="689.6211"/><text fill="#000000" font-family="sans-serif" font-size="12" lengthAdjust="spacing" textLength="315" x="25.5" y="710.7598">system.getSkinParam().setSvgSize(st.nextToken(),</text><text fill="#000000" font-family="sans-serif" font-size="12" lengthAdjust="spacing" textLength="100" x="25.5" y="724.7285">st.nextToken());</text><polygon fill="#F1F1F1" points="131,572.25,235,572.25,247,584.25,235,596.25,131,596.25,119,584.25,131,572.25" style="stroke:#181818;stroke-width:0.5;"/><text fill="#000000" font-family="sans-serif" font-size="11" lengthAdjust="spacing" textLength="20" x="187" y="606.4604">yes</text><text fill="#000000" font-family="sans-serif" font-size="11" lengthAdjust="spacing" textLength="104" x="131" y="588.0581">value.contains(" ")</text><polygon fill="#F1F1F1" points="183,760.9297,195,772.9297,183,784.9297,171,772.9297,183,760.9297" style="stroke:#181818;stroke-width:0.5;"/><rect fill="#F1F1F1" height="33.9688" rx="12.5" ry="12.5" style="stroke:#181818;stroke-width:0.5;" width="276" x="698.5" y="572.25"/><text fill="#000000" font-family="sans-serif" font-size="12" lengthAdjust="spacing" textLength="256" x="708.5" y="593.3887">system.getPragma().define(name,value);</text><rect fill="#F1F1F1" height="33.9688" rx="12.5" ry="12.5" style="stroke:#181818;stroke-width:0.5;" width="859" x="407" y="689.6211"/><text fill="#000000" font-family="sans-serif" font-size="12" lengthAdjust="spacing" textLength="839" x="417" y="710.7598">return CommandExecutionResult.error("This directive has been renamed to '!pragma layout smetana'. Please update your diagram.");</text><ellipse cx="836.5" cy="768.5586" fill="none" rx="11" ry="11" style="stroke:#222222;stroke-width:1.0;"/><ellipse cx="836.5" cy="768.5586" fill="#222222" rx="6" ry="6" style="stroke:#111111;stroke-width:1.0;"/><polygon fill="#F1F1F1" points="624.5,641.2188,1048.5,641.2188,1060.5,653.2188,1048.5,665.2188,624.5,665.2188,612.5,653.2188,624.5,641.2188" style="stroke:#181818;stroke-width:0.5;"/><text fill="#000000" font-family="sans-serif" font-size="11" lengthAdjust="spacing" textLength="20" x="840.5" y="675.4292">yes</text><text fill="#000000" font-family="sans-serif" font-size="11" lengthAdjust="spacing" textLength="424" x="624.5" y="657.0269">name.equalsIgnoreCase("graphviz_dot")&amp;&amp;value.equalsIgnoreCase("jdot")</text><rect fill="#F1F1F1" height="47.9375" rx="12.5" ry="12.5" style="stroke:#181818;stroke-width:0.5;" width="613" x="530" y="875.332"/><text fill="#000000" font-family="sans-serif" font-size="12" lengthAdjust="spacing" textLength="593" x="540" y="896.4707">return CommandExecutionResult.error("This directive has been renamed to '!pragma layout "+</text><text fill="#000000" font-family="sans-serif" font-size="12" lengthAdjust="spacing" textLength="254" x="540" y="910.4395">value+"'. Please update your diagram.");</text><ellipse cx="836.5" cy="955.8008" fill="none" rx="11" ry="11" style="stroke:#222222;stroke-width:1.0;"/><ellipse cx="836.5" cy="955.8008" fill="#222222" rx="6" ry="6" style="stroke:#111111;stroke-width:1.0;"/><polygon fill="#F1F1F1" points="722.5,826.9297,950.5,826.9297,962.5,838.9297,950.5,850.9297,722.5,850.9297,710.5,838.9297,722.5,826.9297" style="stroke:#181818;stroke-width:0.5;"/><text fill="#000000" font-family="sans-serif" font-size="11" lengthAdjust="spacing" textLength="20" x="840.5" y="861.1401">yes</text><text fill="#000000" font-family="sans-serif" font-size="11" lengthAdjust="spacing" textLength="228" x="722.5" y="842.7378">name.equalsIgnoreCase("graphviz_dot")</text><rect fill="#F1F1F1" height="33.9688" rx="12.5" ry="12.5" style="stroke:#181818;stroke-width:0.5;" width="208" x="732.5" y="1057.2031"/><text fill="#000000" font-family="sans-serif" font-size="12" lengthAdjust="spacing" textLength="188" x="742.5" y="1078.3418">system.setUseSmetana(true);</text><polygon fill="#F1F1F1" points="628.5,1008.8008,1044.5,1008.8008,1056.5,1020.8008,1044.5,1032.8008,628.5,1032.8008,616.5,1020.8008,628.5,1008.8008" style="stroke:#181818;stroke-width:0.5;"/><text fill="#000000" font-family="sans-serif" font-size="11" lengthAdjust="spacing" textLength="20" x="840.5" y="1043.0112">yes</text><text fill="#000000" font-family="sans-serif" font-size="11" lengthAdjust="spacing" textLength="416" x="628.5" y="1024.6089">name.equalsIgnoreCase("layout")&amp;&amp;value.equalsIgnoreCase("smetana")</text><polygon fill="#F1F1F1" points="836.5,1111.1719,848.5,1123.1719,836.5,1135.1719,824.5,1123.1719,836.5,1111.1719" style="stroke:#181818;stroke-width:0.5;"/><rect fill="#F1F1F1" height="33.9688" rx="12.5" ry="12.5" style="stroke:#181818;stroke-width:0.5;" width="170" x="751.5" y="1203.5742"/><text fill="#000000" font-family="sans-serif" font-size="12" lengthAdjust="spacing" textLength="150" x="761.5" y="1224.7129">system.setUseElk(true);</text><polygon fill="#F1F1F1" points="645.5,1155.1719,1027.5,1155.1719,1039.5,1167.1719,1027.5,1179.1719,645.5,1179.1719,633.5,1167.1719,645.5,1155.1719" style="stroke:#181818;stroke-width:0.5;"/><text fill="#000000" font-family="sans-serif" font-size="11" lengthAdjust="spacing" textLength="20" x="840.5" y="1189.3823">yes</text><text fill="#000000" font-family="sans-serif" font-size="11" lengthAdjust="spacing" textLength="382" x="645.5" y="1170.98">name.equalsIgnoreCase("layout")&amp;&amp;value.equalsIgnoreCase("elk")</text><polygon fill="#F1F1F1" points="836.5,1257.543,848.5,1269.543,836.5,1281.543,824.5,1269.543,836.5,1257.543" style="stroke:#181818;stroke-width:0.5;"/><rect fill="#F1F1F1" height="33.9688" rx="12.5" ry="12.5" style="stroke:#181818;stroke-width:0.5;" width="279" x="697" y="1349.9453"/><text fill="#000000" font-family="sans-serif" font-size="12" lengthAdjust="spacing" textLength="259" x="707" y="1371.084">system.getSkinParam().setUseVizJs(true);</text><polygon fill="#F1F1F1" points="604.5,1301.543,1068.5,1301.543,1080.5,1313.543,1068.5,1325.543,604.5,1325.543,592.5,1313.543,604.5,1301.543" style="stroke:#181818;stroke-width:0.5;"/><text fill="#000000" font-family="sans-serif" font-size="11" lengthAdjust="spacing" textLength="20" x="840.5" y="1335.7534">yes</text><text fill="#000000" font-family="sans-serif" font-size="11" lengthAdjust="spacing" textLength="464" x="604.5" y="1317.3511">name.equalsIgnoreCase("layout")&amp;&amp;value.equalsIgnoreCase(GraphvizUtils.VIZJS)</text><polygon fill="#F1F1F1" points="836.5,1403.9141,848.5,1415.9141,836.5,1427.9141,824.5,1415.9141,836.5,1403.9141" style="stroke:#181818;stroke-width:0.5;"/><polygon fill="#F1F1F1" points="509.75,1433.9141,521.75,1445.9141,509.75,1457.9141,497.75,1445.9141,509.75,1433.9141" style="stroke:#181818;stroke-width:0.5;"/><rect fill="#F1F1F1" height="33.9688" rx="12.5" ry="12.5" style="stroke:#181818;stroke-width:0.5;" width="258" x="380.75" y="1477.9141"/><text fill="#000000" font-family="sans-serif" font-size="12" lengthAdjust="spacing" textLength="238" x="390.75" y="1499.0527">return CommandExecutionResult.ok();</text><ellipse cx="509.75" cy="1542.8828" fill="none" rx="11" ry="11" style="stroke:#222222;stroke-width:1.0;"/><ellipse cx="509.75" cy="1542.8828" fill="#222222" rx="6" ry="6" style="stroke:#111111;stroke-width:1.0;"/><ellipse cx="509.75" cy="1573.8828" fill="none" rx="10" ry="10" style="stroke:#222222;stroke-width:1.5;"/><line style="stroke:#222222;stroke-width:2.5;" x1="503.5628" x2="515.9372" y1="1567.6956" y2="1580.07"/><line style="stroke:#222222;stroke-width:2.5;" x1="515.9372" x2="503.5628" y1="1567.6956" y2="1580.07"/><line style="stroke:#181818;stroke-width:1.0;" x1="509.75" x2="509.75" y1="32.5664" y2="55.1328"/><polygon fill="#181818" points="505.75,45.1328,509.75,55.1328,513.75,45.1328,509.75,49.1328" style="stroke:#181818;stroke-width:1.0;"/><line style="stroke:#181818;stroke-width:1.0;" x1="509.75" x2="509.75" y1="89.1016" y2="109.1016"/><polygon fill="#181818" points="505.75,99.1016,509.75,109.1016,513.75,99.1016,509.75,103.1016" style="stroke:#181818;stroke-width:1.0;"/><line style="stroke:#181818;stroke-width:1.0;" x1="509.75" x2="509.75" y1="161.668" y2="184.2344"/><polygon fill="#181818" points="505.75,174.2344,509.75,184.2344,513.75,174.2344,509.75,178.2344" style="stroke:#181818;stroke-width:1.0;"/><line style="stroke:#181818;stroke-width:1.0;" x1="509.75" x2="509.75" y1="274.0781" y2="294.0781"/><polygon fill="#181818" points="505.75,284.0781,509.75,294.0781,513.75,284.0781,509.75,288.0781" style="stroke:#181818;stroke-width:1.0;"/><line style="stroke:#181818;stroke-width:1.0;" x1="509.75" x2="509.75" y1="386.2109" y2="416.3438"/><polygon fill="#181818" points="505.75,406.3438,509.75,416.3438,513.75,406.3438,509.75,410.3438" style="stroke:#181818;stroke-width:1.0;"/><line style="stroke:#181818;stroke-width:1.0;" x1="509.75" x2="509.75" y1="464.2813" y2="484.2813"/><polygon fill="#181818" points="505.75,474.2813,509.75,484.2813,513.75,474.2813,509.75,478.2813" style="stroke:#181818;stroke-width:1.0;"/><line style="stroke:#181818;stroke-width:1.0;" x1="183" x2="183" y1="654.6211" y2="689.6211"/><polygon fill="#181818" points="179,679.6211,183,689.6211,187,679.6211,183,683.6211" style="stroke:#181818;stroke-width:1.0;"/><line style="stroke:#181818;stroke-width:1.0;" x1="183" x2="183" y1="596.25" y2="620.6523"/><polygon fill="#181818" points="179,610.6523,183,620.6523,187,610.6523,183,614.6523" style="stroke:#181818;stroke-width:1.0;"/><line style="stroke:#181818;stroke-width:1.0;" x1="247" x2="365" y1="584.25" y2="584.25"/><polygon fill="#181818" points="361,669.1055,365,679.1055,369,669.1055,365,673.1055" style="stroke:#181818;stroke-width:1.0;"/><line style="stroke:#181818;stroke-width:1.0;" x1="365" x2="365" y1="584.25" y2="772.9297"/><line style="stroke:#181818;stroke-width:1.0;" x1="365" x2="195" y1="772.9297" y2="772.9297"/><polygon fill="#181818" points="205,768.9297,195,772.9297,205,776.9297,201,772.9297" style="stroke:#181818;stroke-width:1.0;"/><line style="stroke:#181818;stroke-width:1.0;" x1="183" x2="183" y1="737.5586" y2="760.9297"/><polygon fill="#181818" points="179,750.9297,183,760.9297,187,750.9297,183,754.9297" style="stroke:#181818;stroke-width:1.0;"/><line style="stroke:#181818;stroke-width:1.0;" x1="836.5" x2="836.5" y1="723.5898" y2="757.5586"/><polygon fill="#181818" points="832.5,747.5586,836.5,757.5586,840.5,747.5586,836.5,751.5586" style="stroke:#181818;stroke-width:1.0;"/><line style="stroke:#181818;stroke-width:1.0;" x1="836.5" x2="836.5" y1="665.2188" y2="689.6211"/><polygon fill="#181818" points="832.5,679.6211,836.5,689.6211,840.5,679.6211,836.5,683.6211" style="stroke:#181818;stroke-width:1.0;"/><line style="stroke:#181818;stroke-width:1.0;" x1="1060.5" x2="1276" y1="653.2188" y2="653.2188"/><polygon fill="#181818" points="1272,722.1055,1276,732.1055,1280,722.1055,1276,726.1055" style="stroke:#181818;stroke-width:1.0;"/><line style="stroke:#181818;stroke-width:1.0;" x1="1276" x2="1276" y1="653.2188" y2="806.9297"/><line style="stroke:#181818;stroke-width:1.0;" x1="1276" x2="836.5" y1="806.9297" y2="806.9297"/><line style="stroke:#181818;stroke-width:1.0;" x1="836.5" x2="836.5" y1="806.9297" y2="826.9297"/><polygon fill="#181818" points="832.5,816.9297,836.5,826.9297,840.5,816.9297,836.5,820.9297" style="stroke:#181818;stroke-width:1.0;"/><line style="stroke:#181818;stroke-width:1.0;" x1="836.5" x2="836.5" y1="606.2188" y2="641.2188"/><polygon fill="#181818" points="832.5,631.2188,836.5,641.2188,840.5,631.2188,836.5,635.2188" style="stroke:#181818;stroke-width:1.0;"/><line style="stroke:#181818;stroke-width:1.0;" x1="836.5" x2="836.5" y1="923.2695" y2="944.8008"/><polygon fill="#181818" points="832.5,934.8008,836.5,944.8008,840.5,934.8008,836.5,938.8008" style="stroke:#181818;stroke-width:1.0;"/><line style="stroke:#181818;stroke-width:1.0;" x1="836.5" x2="836.5" y1="850.9297" y2="875.332"/><polygon fill="#181818" points="832.5,865.332,836.5,875.332,840.5,865.332,836.5,869.332" style="stroke:#181818;stroke-width:1.0;"/><line style="stroke:#181818;stroke-width:1.0;" x1="962.5" x2="1153" y1="838.9297" y2="838.9297"/><polygon fill="#181818" points="1149,914.8008,1153,924.8008,1157,914.8008,1153,918.8008" style="stroke:#181818;stroke-width:1.0;"/><line style="stroke:#181818;stroke-width:1.0;" x1="1153" x2="1153" y1="838.9297" y2="988.8008"/><line style="stroke:#181818;stroke-width:1.0;" x1="1153" x2="836.5" y1="988.8008" y2="988.8008"/><line style="stroke:#181818;stroke-width:1.0;" x1="836.5" x2="836.5" y1="988.8008" y2="1008.8008"/><polygon fill="#181818" points="832.5,998.8008,836.5,1008.8008,840.5,998.8008,836.5,1002.8008" style="stroke:#181818;stroke-width:1.0;"/><line style="stroke:#181818;stroke-width:1.0;" x1="836.5" x2="836.5" y1="1032.8008" y2="1057.2031"/><polygon fill="#181818" points="832.5,1047.2031,836.5,1057.2031,840.5,1047.2031,836.5,1051.2031" style="stroke:#181818;stroke-width:1.0;"/><line style="stroke:#181818;stroke-width:1.0;" x1="1056.5" x2="1068.5" y1="1020.8008" y2="1020.8008"/><polygon fill="#181818" points="1064.5,1064.1875,1068.5,1074.1875,1072.5,1064.1875,1068.5,1068.1875" style="stroke:#181818;stroke-width:1.0;"/><line style="stroke:#181818;stroke-width:1.0;" x1="1068.5" x2="1068.5" y1="1020.8008" y2="1123.1719"/><line style="stroke:#181818;stroke-width:1.0;" x1="1068.5" x2="848.5" y1="1123.1719" y2="1123.1719"/><polygon fill="#181818" points="858.5,1119.1719,848.5,1123.1719,858.5,1127.1719,854.5,1123.1719" style="stroke:#181818;stroke-width:1.0;"/><line style="stroke:#181818;stroke-width:1.0;" x1="836.5" x2="836.5" y1="1091.1719" y2="1111.1719"/><polygon fill="#181818" points="832.5,1101.1719,836.5,1111.1719,840.5,1101.1719,836.5,1105.1719" style="stroke:#181818;stroke-width:1.0;"/><line style="stroke:#181818;stroke-width:1.0;" x1="836.5" x2="836.5" y1="1179.1719" y2="1203.5742"/><polygon fill="#181818" points="832.5,1193.5742,836.5,1203.5742,840.5,1193.5742,836.5,1197.5742" style="stroke:#181818;stroke-width:1.0;"/><line style="stroke:#181818;stroke-width:1.0;" x1="1039.5" x2="1051.5" y1="1167.1719" y2="1167.1719"/><polygon fill="#181818" points="1047.5,1210.5586,1051.5,1220.5586,1055.5,1210.5586,1051.5,1214.5586" style="stroke:#181818;stroke-width:1.0;"/><line style="stroke:#181818;stroke-width:1.0;" x1="1051.5" x2="1051.5" y1="1167.1719" y2="1269.543"/><line style="stroke:#181818;stroke-width:1.0;" x1="1051.5" x2="848.5" y1="1269.543" y2="1269.543"/><polygon fill="#181818" points="858.5,1265.543,848.5,1269.543,858.5,1273.543,854.5,1269.543" style="stroke:#181818;stroke-width:1.0;"/><line style="stroke:#181818;stroke-width:1.0;" x1="836.5" x2="836.5" y1="1237.543" y2="1257.543"/><polygon fill="#181818" points="832.5,1247.543,836.5,1257.543,840.5,1247.543,836.5,1251.543" style="stroke:#181818;stroke-width:1.0;"/><line style="stroke:#181818;stroke-width:1.0;" x1="836.5" x2="836.5" y1="1135.1719" y2="1155.1719"/><polygon fill="#181818" points="832.5,1145.1719,836.5,1155.1719,840.5,1145.1719,836.5,1149.1719" style="stroke:#181818;stroke-width:1.0;"/><line style="stroke:#181818;stroke-width:1.0;" x1="836.5" x2="836.5" y1="1325.543" y2="1349.9453"/><polygon fill="#181818" points="832.5,1339.9453,836.5,1349.9453,840.5,1339.9453,836.5,1343.9453" style="stroke:#181818;stroke-width:1.0;"/><line style="stroke:#181818;stroke-width:1.0;" x1="1080.5" x2="1092.5" y1="1313.543" y2="1313.543"/><polygon fill="#181818" points="1088.5,1356.9297,1092.5,1366.9297,1096.5,1356.9297,1092.5,1360.9297" style="stroke:#181818;stroke-width:1.0;"/><line style="stroke:#181818;stroke-width:1.0;" x1="1092.5" x2="1092.5" y1="1313.543" y2="1415.9141"/><line style="stroke:#181818;stroke-width:1.0;" x1="1092.5" x2="848.5" y1="1415.9141" y2="1415.9141"/><polygon fill="#181818" points="858.5,1411.9141,848.5,1415.9141,858.5,1419.9141,854.5,1415.9141" style="stroke:#181818;stroke-width:1.0;"/><line style="stroke:#181818;stroke-width:1.0;" x1="836.5" x2="836.5" y1="1383.9141" y2="1403.9141"/><polygon fill="#181818" points="832.5,1393.9141,836.5,1403.9141,840.5,1393.9141,836.5,1397.9141" style="stroke:#181818;stroke-width:1.0;"/><line style="stroke:#181818;stroke-width:1.0;" x1="836.5" x2="836.5" y1="1281.543" y2="1301.543"/><polygon fill="#181818" points="832.5,1291.543,836.5,1301.543,840.5,1291.543,836.5,1295.543" style="stroke:#181818;stroke-width:1.0;"/><line style="stroke:#181818;stroke-width:1.0;" x1="398.25" x2="183" y1="550.25" y2="550.25"/><line style="stroke:#181818;stroke-width:1.0;" x1="183" x2="183" y1="550.25" y2="572.25"/><polygon fill="#181818" points="179,562.25,183,572.25,187,562.25,183,566.25" style="stroke:#181818;stroke-width:1.0;"/><line style="stroke:#181818;stroke-width:1.0;" x1="621.25" x2="836.5" y1="550.25" y2="550.25"/><line style="stroke:#181818;stroke-width:1.0;" x1="836.5" x2="836.5" y1="550.25" y2="572.25"/><polygon fill="#181818" points="832.5,562.25,836.5,572.25,840.5,562.25,836.5,566.25" style="stroke:#181818;stroke-width:1.0;"/><line style="stroke:#181818;stroke-width:1.0;" x1="183" x2="183" y1="784.9297" y2="1445.9141"/><line style="stroke:#181818;stroke-width:1.0;" x1="183" x2="497.75" y1="1445.9141" y2="1445.9141"/><polygon fill="#181818" points="487.75,1441.9141,497.75,1445.9141,487.75,1449.9141,491.75,1445.9141" style="stroke:#181818;stroke-width:1.0;"/><line style="stroke:#181818;stroke-width:1.0;" x1="836.5" x2="836.5" y1="1427.9141" y2="1445.9141"/><line style="stroke:#181818;stroke-width:1.0;" x1="836.5" x2="521.75" y1="1445.9141" y2="1445.9141"/><polygon fill="#181818" points="531.75,1441.9141,521.75,1445.9141,531.75,1449.9141,527.75,1445.9141" style="stroke:#181818;stroke-width:1.0;"/><line style="stroke:#181818;stroke-width:1.0;" x1="509.75" x2="509.75" y1="518.25" y2="538.25"/><polygon fill="#181818" points="505.75,528.25,509.75,538.25,513.75,528.25,509.75,532.25" style="stroke:#181818;stroke-width:1.0;"/><line style="stroke:#181818;stroke-width:1.0;" x1="509.75" x2="509.75" y1="1457.9141" y2="1477.9141"/><polygon fill="#181818" points="505.75,1467.9141,509.75,1477.9141,513.75,1467.9141,509.75,1471.9141" style="stroke:#181818;stroke-width:1.0;"/><line style="stroke:#181818;stroke-width:1.0;" x1="509.75" x2="509.75" y1="1511.8828" y2="1531.8828"/><polygon fill="#181818" points="505.75,1521.8828,509.75,1531.8828,513.75,1521.8828,509.75,1525.8828" style="stroke:#181818;stroke-width:1.0;"/><!--MD5=[fad98e7763c940e7df58badcd9d47d27]
@startuml
!pragma layout smetana
start
note right
constructor CommandPragma()
end note
:super (getRegexConcat());;
end
start
note right
IRegex getRegexConcat()
end note
:return RegexConcat.build(CommandPragma.class .getName(),
RegexLeaf.start(),new RegexLeaf("!pragma"),
RegexLeaf.spaceOneOrMore(),new RegexLeaf("NAME",
"([A-Za-z_][A-Za-z_0-9]*)"),new RegexOptional(new RegexConcat(RegexLeaf.spaceOneOrMore(),
new RegexLeaf("VALUE","(.*)"))),RegexLeaf.end());;
stop
end
start
note right
CommandExecutionResult executeArg(TitledDiagram system,
LineLocation location,RegexResult arg)
end note
:final String name=StringUtils.goLowerCase(arg.get("NAME",
0));;
:final String value=arg.get("VALUE",0);;
if (name.equalsIgnoreCase("svgsize")) then (yes) 
if (value.contains(" ")) then (yes) 
:final StringTokenizer st=new StringTokenizer(value);;
:system.getSkinParam().setSvgSize(st.nextToken(),
st.nextToken());;
endif 
else (no)
:system.getPragma().define(name,value);;
if (name.equalsIgnoreCase("graphviz_dot")&&value.equalsIgnoreCase("jdot")) then (yes) 
:return CommandExecutionResult.error("This directive has been renamed to '!pragma layout smetana'. Please update your diagram.");;
stop
endif 
if (name.equalsIgnoreCase("graphviz_dot")) then (yes) 
:return CommandExecutionResult.error("This directive has been renamed to '!pragma layout "+
value+"'. Please update your diagram.");;
stop
endif 
if (name.equalsIgnoreCase("layout")&&value.equalsIgnoreCase("smetana")) then (yes) 
:system.setUseSmetana(true);;
endif 
if (name.equalsIgnoreCase("layout")&&value.equalsIgnoreCase("elk")) then (yes) 
:system.setUseElk(true);;
endif 
if (name.equalsIgnoreCase("layout")&&value.equalsIgnoreCase(GraphvizUtils.VIZJS)) then (yes) 
:system.getSkinParam().setUseVizJs(true);;
endif 
endif 
:return CommandExecutionResult.ok();;
stop
end
@enduml

PlantUML version 1.2022.7(Mon Aug 22 17:01:30 UTC 2022)
(GPL source distribution)
Java Runtime: OpenJDK Runtime Environment
JVM: OpenJDK 64-Bit Server VM
Default Encoding: UTF-8
Language: en
Country: null
--></g></svg>