<?xml version="1.0" encoding="UTF-8" standalone="no"?><svg xmlns="http://www.w3.org/2000/svg" xmlns:xlink="http://www.w3.org/1999/xlink" contentStyleType="text/css" height="979px" preserveAspectRatio="none" style="width:752px;height:979px;background:#FFFFFF;" version="1.1" viewBox="0 0 752 979" width="752px" zoomAndPan="magnify"><defs/><g><path d="M327,10 L327,18.5664 L307,22.5664 L327,26.5664 L327,35.1328 A0,0 0 0 0 327,35.1328 L543,35.1328 A0,0 0 0 0 543,35.1328 L543,20 L533,10 L327,10 A0,0 0 0 0 327,10 " fill="#FEFFDD" style="stroke:#181818;stroke-width:0.5;"/><path d="M533,10 L533,20 L543,20 L533,10 " fill="#FEFFDD" style="stroke:#181818;stroke-width:0.5;"/><text fill="#000000" font-family="sans-serif" font-size="13" lengthAdjust="spacing" textLength="195" x="333" y="27.0669">constructor CommandFooter()</text><ellipse cx="297" cy="22.5664" fill="#222222" rx="10" ry="10" style="stroke:#222222;stroke-width:1.0;"/><rect fill="#F1F1F1" height="33.9688" rx="12.5" ry="12.5" style="stroke:#181818;stroke-width:0.5;" width="187" x="203.5" y="55.1328"/><text fill="#000000" font-family="sans-serif" font-size="12" lengthAdjust="spacing" textLength="167" x="213.5" y="76.2715">super (getRegexConcat());</text><ellipse cx="297" cy="119.1016" fill="none" rx="10" ry="10" style="stroke:#222222;stroke-width:1.5;"/><line style="stroke:#222222;stroke-width:2.5;" x1="290.8128" x2="303.1872" y1="112.9144" y2="125.2887"/><line style="stroke:#222222;stroke-width:2.5;" x1="303.1872" x2="290.8128" y1="112.9144" y2="125.2887"/><path d="M327,139.1016 L327,147.668 L307,151.668 L327,155.668 L327,164.2344 A0,0 0 0 0 327,164.2344 L505,164.2344 A0,0 0 0 0 505,164.2344 L505,149.1016 L495,139.1016 L327,139.1016 A0,0 0 0 0 327,139.1016 " fill="#FEFFDD" style="stroke:#181818;stroke-width:0.5;"/><path d="M495,139.1016 L495,149.1016 L505,149.1016 L495,139.1016 " fill="#FEFFDD" style="stroke:#181818;stroke-width:0.5;"/><text fill="#000000" font-family="sans-serif" font-size="13" lengthAdjust="spacing" textLength="157" x="333" y="156.1685">IRegexgetRegexConcat()</text><ellipse cx="297" cy="151.668" fill="#222222" rx="10" ry="10" style="stroke:#222222;stroke-width:1.0;"/><rect fill="#F1F1F1" height="131.75" rx="12.5" ry="12.5" style="stroke:#181818;stroke-width:0.5;" width="572" x="11" y="184.2344"/><text fill="#000000" font-family="sans-serif" font-size="12" lengthAdjust="spacing" textLength="382" x="21" y="205.373">return RegexConcat.build(CommandFooter.class .getName(),</text><text fill="#000000" font-family="sans-serif" font-size="12" lengthAdjust="spacing" textLength="404" x="21" y="219.3418">RegexLeaf.start(),new RegexOptional(new RegexLeaf("POSITION",</text><text fill="#000000" font-family="sans-serif" font-size="12" lengthAdjust="spacing" textLength="327" x="21" y="233.3105">"(left|right|center)")),RegexLeaf.spaceZeroOrMore(),</text><text fill="#000000" font-family="sans-serif" font-size="12" lengthAdjust="spacing" textLength="552" x="21" y="247.2793">new RegexLeaf("footer"),new RegexOr(new RegexConcat(RegexLeaf.spaceZeroOrMore(),</text><text fill="#000000" font-family="sans-serif" font-size="12" lengthAdjust="spacing" textLength="321" x="21" y="261.248">new RegexLeaf(":"),RegexLeaf.spaceZeroOrMore()),</text><text fill="#000000" font-family="sans-serif" font-size="12" lengthAdjust="spacing" textLength="437" x="21" y="275.2168">RegexLeaf.spaceOneOrMore()),new RegexOr(new RegexLeaf("LABEL1",</text><text fill="#000000" font-family="sans-serif" font-size="12" lengthAdjust="spacing" textLength="361" x="21" y="289.1855">"[%g](.*)[%g]"),new RegexLeaf("LABEL2","(.*[%pLN_.].*)")),</text><text fill="#000000" font-family="sans-serif" font-size="12" lengthAdjust="spacing" textLength="111" x="21" y="303.1543">RegexLeaf.end());</text><ellipse cx="297" cy="346.9844" fill="none" rx="11" ry="11" style="stroke:#222222;stroke-width:1.0;"/><ellipse cx="297" cy="346.9844" fill="#222222" rx="6" ry="6" style="stroke:#111111;stroke-width:1.0;"/><ellipse cx="297" cy="377.9844" fill="none" rx="10" ry="10" style="stroke:#222222;stroke-width:1.5;"/><line style="stroke:#222222;stroke-width:2.5;" x1="290.8128" x2="303.1872" y1="371.7972" y2="384.1716"/><line style="stroke:#222222;stroke-width:2.5;" x1="303.1872" x2="290.8128" y1="371.7972" y2="384.1716"/><path d="M327,397.9844 L327,414.1172 L307,418.1172 L327,422.1172 L327,438.25 A0,0 0 0 0 327,438.25 L740,438.25 A0,0 0 0 0 740,438.25 L740,407.9844 L730,397.9844 L327,397.9844 A0,0 0 0 0 327,397.9844 " fill="#FEFFDD" style="stroke:#181818;stroke-width:0.5;"/><path d="M730,397.9844 L730,407.9844 L740,407.9844 L730,397.9844 " fill="#FEFFDD" style="stroke:#181818;stroke-width:0.5;"/><text fill="#000000" font-family="sans-serif" font-size="13" lengthAdjust="spacing" textLength="392" x="333" y="415.0513">CommandExecutionResultexecuteArg(TitledDiagramdiagram,</text><text fill="#000000" font-family="sans-serif" font-size="13" lengthAdjust="spacing" textLength="238" x="333" y="430.1841">LineLocationlocation,RegexResultarg)</text><ellipse cx="297" cy="418.1172" fill="#222222" rx="10" ry="10" style="stroke:#222222;stroke-width:1.0;"/><rect fill="#F1F1F1" height="33.9688" rx="12.5" ry="12.5" style="stroke:#181818;stroke-width:0.5;" width="265" x="164.5" y="458.25"/><text fill="#000000" font-family="sans-serif" font-size="12" lengthAdjust="spacing" textLength="245" x="174.5" y="479.3887">final Stringalign=arg.get("POSITION",0);</text><rect fill="#F1F1F1" height="47.9375" rx="12.5" ry="12.5" style="stroke:#181818;stroke-width:0.5;" width="402" x="96" y="512.2188"/><text fill="#000000" font-family="sans-serif" font-size="12" lengthAdjust="spacing" textLength="382" x="106" y="533.3574">HorizontalAlignmentha=HorizontalAlignment.fromString(align,</text><text fill="#000000" font-family="sans-serif" font-size="12" lengthAdjust="spacing" textLength="185" x="106" y="547.3262">HorizontalAlignment.CENTER);</text><rect fill="#F1F1F1" height="47.9375" rx="12.5" ry="12.5" style="stroke:#181818;stroke-width:0.5;" width="501" x="46.5" y="628.5586"/><text fill="#000000" font-family="sans-serif" font-size="12" lengthAdjust="spacing" textLength="296" x="56.5" y="649.6973">ha=FontParam.FOOTER.getStyleDefinition(null )</text><text fill="#000000" font-family="sans-serif" font-size="12" lengthAdjust="spacing" textLength="481" x="56.5" y="663.666">.getMergedStyle(diagram.getCurrentStyleBuilder()).getHorizontalAlignment();</text><polygon fill="#F1F1F1" points="262.5,580.1563,331.5,580.1563,343.5,592.1563,331.5,604.1563,262.5,604.1563,250.5,592.1563,262.5,580.1563" style="stroke:#181818;stroke-width:0.5;"/><text fill="#000000" font-family="sans-serif" font-size="11" lengthAdjust="spacing" textLength="20" x="301" y="614.3667">yes</text><text fill="#000000" font-family="sans-serif" font-size="11" lengthAdjust="spacing" textLength="65" x="262.5" y="595.9644">align==null</text><polygon fill="#F1F1F1" points="297,696.4961,309,708.4961,297,720.4961,285,708.4961,297,696.4961" style="stroke:#181818;stroke-width:0.5;"/><rect fill="#F1F1F1" height="47.9375" rx="12.5" ry="12.5" style="stroke:#181818;stroke-width:0.5;" width="398" x="98" y="740.4961"/><text fill="#000000" font-family="sans-serif" font-size="12" lengthAdjust="spacing" textLength="378" x="108" y="761.6348">final Displays=Display.getWithNewlines(arg.getLazzy("LABEL",</text><text fill="#000000" font-family="sans-serif" font-size="12" lengthAdjust="spacing" textLength="22" x="108" y="775.6035">0));</text><rect fill="#F1F1F1" height="33.9688" rx="12.5" ry="12.5" style="stroke:#181818;stroke-width:0.5;" width="257" x="168.5" y="808.4336"/><text fill="#000000" font-family="sans-serif" font-size="12" lengthAdjust="spacing" textLength="237" x="178.5" y="829.5723">diagram.getFooter().putDisplay(s,ha);</text><rect fill="#F1F1F1" height="33.9688" rx="12.5" ry="12.5" style="stroke:#181818;stroke-width:0.5;" width="258" x="168" y="862.4023"/><text fill="#000000" font-family="sans-serif" font-size="12" lengthAdjust="spacing" textLength="238" x="178" y="883.541">return CommandExecutionResult.ok();</text><ellipse cx="297" cy="927.3711" fill="none" rx="11" ry="11" style="stroke:#222222;stroke-width:1.0;"/><ellipse cx="297" cy="927.3711" fill="#222222" rx="6" ry="6" style="stroke:#111111;stroke-width:1.0;"/><ellipse cx="297" cy="958.3711" fill="none" rx="10" ry="10" style="stroke:#222222;stroke-width:1.5;"/><line style="stroke:#222222;stroke-width:2.5;" x1="290.8128" x2="303.1872" y1="952.1839" y2="964.5583"/><line style="stroke:#222222;stroke-width:2.5;" x1="303.1872" x2="290.8128" y1="952.1839" y2="964.5583"/><line style="stroke:#181818;stroke-width:1.0;" x1="297" x2="297" y1="32.5664" y2="55.1328"/><polygon fill="#181818" points="293,45.1328,297,55.1328,301,45.1328,297,49.1328" style="stroke:#181818;stroke-width:1.0;"/><line style="stroke:#181818;stroke-width:1.0;" x1="297" x2="297" y1="89.1016" y2="109.1016"/><polygon fill="#181818" points="293,99.1016,297,109.1016,301,99.1016,297,103.1016" style="stroke:#181818;stroke-width:1.0;"/><line style="stroke:#181818;stroke-width:1.0;" x1="297" x2="297" y1="161.668" y2="184.2344"/><polygon fill="#181818" points="293,174.2344,297,184.2344,301,174.2344,297,178.2344" style="stroke:#181818;stroke-width:1.0;"/><line style="stroke:#181818;stroke-width:1.0;" x1="297" x2="297" y1="315.9844" y2="335.9844"/><polygon fill="#181818" points="293,325.9844,297,335.9844,301,325.9844,297,329.9844" style="stroke:#181818;stroke-width:1.0;"/><line style="stroke:#181818;stroke-width:1.0;" x1="297" x2="297" y1="428.1172" y2="458.25"/><polygon fill="#181818" points="293,448.25,297,458.25,301,448.25,297,452.25" style="stroke:#181818;stroke-width:1.0;"/><line style="stroke:#181818;stroke-width:1.0;" x1="297" x2="297" y1="492.2188" y2="512.2188"/><polygon fill="#181818" points="293,502.2188,297,512.2188,301,502.2188,297,506.2188" style="stroke:#181818;stroke-width:1.0;"/><line style="stroke:#181818;stroke-width:1.0;" x1="297" x2="297" y1="604.1563" y2="628.5586"/><polygon fill="#181818" points="293,618.5586,297,628.5586,301,618.5586,297,622.5586" style="stroke:#181818;stroke-width:1.0;"/><line style="stroke:#181818;stroke-width:1.0;" x1="343.5" x2="557.5" y1="592.1563" y2="592.1563"/><polygon fill="#181818" points="553.5,642.5273,557.5,652.5273,561.5,642.5273,557.5,646.5273" style="stroke:#181818;stroke-width:1.0;"/><line style="stroke:#181818;stroke-width:1.0;" x1="557.5" x2="557.5" y1="592.1563" y2="708.4961"/><line style="stroke:#181818;stroke-width:1.0;" x1="557.5" x2="309" y1="708.4961" y2="708.4961"/><polygon fill="#181818" points="319,704.4961,309,708.4961,319,712.4961,315,708.4961" style="stroke:#181818;stroke-width:1.0;"/><line style="stroke:#181818;stroke-width:1.0;" x1="297" x2="297" y1="676.4961" y2="696.4961"/><polygon fill="#181818" points="293,686.4961,297,696.4961,301,686.4961,297,690.4961" style="stroke:#181818;stroke-width:1.0;"/><line style="stroke:#181818;stroke-width:1.0;" x1="297" x2="297" y1="560.1563" y2="580.1563"/><polygon fill="#181818" points="293,570.1563,297,580.1563,301,570.1563,297,574.1563" style="stroke:#181818;stroke-width:1.0;"/><line style="stroke:#181818;stroke-width:1.0;" x1="297" x2="297" y1="720.4961" y2="740.4961"/><polygon fill="#181818" points="293,730.4961,297,740.4961,301,730.4961,297,734.4961" style="stroke:#181818;stroke-width:1.0;"/><line style="stroke:#181818;stroke-width:1.0;" x1="297" x2="297" y1="788.4336" y2="808.4336"/><polygon fill="#181818" points="293,798.4336,297,808.4336,301,798.4336,297,802.4336" style="stroke:#181818;stroke-width:1.0;"/><line style="stroke:#181818;stroke-width:1.0;" x1="297" x2="297" y1="842.4023" y2="862.4023"/><polygon fill="#181818" points="293,852.4023,297,862.4023,301,852.4023,297,856.4023" style="stroke:#181818;stroke-width:1.0;"/><line style="stroke:#181818;stroke-width:1.0;" x1="297" x2="297" y1="896.3711" y2="916.3711"/><polygon fill="#181818" points="293,906.3711,297,916.3711,301,906.3711,297,910.3711" style="stroke:#181818;stroke-width:1.0;"/><!--MD5=[4cb44eb3f97ec0b6840753ac229a6fc1]
@startuml
!pragma layout smetana
start
note right
constructor CommandFooter()
end note
:super (getRegexConcat());;
end
start
note right
IRegexgetRegexConcat()
end note
:return RegexConcat.build(CommandFooter.class .getName(),
RegexLeaf.start(),new RegexOptional(new RegexLeaf("POSITION",
"(left|right|center)")),RegexLeaf.spaceZeroOrMore(),
new RegexLeaf("footer"),new RegexOr(new RegexConcat(RegexLeaf.spaceZeroOrMore(),
new RegexLeaf(":"),RegexLeaf.spaceZeroOrMore()),
RegexLeaf.spaceOneOrMore()),new RegexOr(new RegexLeaf("LABEL1",
"[%g](.*)[%g]"),new RegexLeaf("LABEL2","(.*[%pLN_.].*)")),
RegexLeaf.end());;
stop
end
start
note right
CommandExecutionResultexecuteArg(TitledDiagramdiagram,
LineLocationlocation,RegexResultarg)
end note
:final Stringalign=arg.get("POSITION",0);;
:HorizontalAlignmentha=HorizontalAlignment.fromString(align,
HorizontalAlignment.CENTER);;
if (align==null ) then (yes) 
:ha=FontParam.FOOTER.getStyleDefinition(null )
.getMergedStyle(diagram.getCurrentStyleBuilder()).getHorizontalAlignment();;
endif 
:final Displays=Display.getWithNewlines(arg.getLazzy("LABEL",
0));;
:diagram.getFooter().putDisplay(s,ha);;
:return CommandExecutionResult.ok();;
stop
end
@enduml

PlantUML version 1.2022.7(Mon Aug 22 17:01:30 UTC 2022)
(GPL source distribution)
Java Runtime: OpenJDK Runtime Environment
JVM: OpenJDK 64-Bit Server VM
Default Encoding: UTF-8
Language: en
Country: null
--></g></svg>