<?xml version="1.0" encoding="UTF-8" standalone="no"?><svg xmlns="http://www.w3.org/2000/svg" xmlns:xlink="http://www.w3.org/1999/xlink" contentStyleType="text/css" height="1728px" preserveAspectRatio="none" style="width:634px;height:1728px;background:#FFFFFF;" version="1.1" viewBox="0 0 634 1728" width="634px" zoomAndPan="magnify"><defs/><g><path d="M245,10 L245,18.5664 L225,22.5664 L245,26.5664 L245,35.1328 A0,0 0 0 0 245,35.1328 L522,35.1328 A0,0 0 0 0 522,35.1328 L522,20 L512,10 L245,10 A0,0 0 0 0 245,10 " fill="#FEFFDD" style="stroke:#181818;stroke-width:0.5;"/><path d="M512,10 L512,20 L522,20 L512,10 " fill="#FEFFDD" style="stroke:#181818;stroke-width:0.5;"/><text fill="#000000" font-family="sans-serif" font-size="13" lengthAdjust="spacing" textLength="256" x="251" y="27.0669">constructor PSystemSingleLineFactory()</text><ellipse cx="215" cy="22.5664" fill="#222222" rx="10" ry="10" style="stroke:#222222;stroke-width:1.0;"/><rect fill="#F1F1F1" height="33.9688" rx="12.5" ry="12.5" style="stroke:#181818;stroke-width:0.5;" width="184" x="123" y="55.1328"/><text fill="#000000" font-family="sans-serif" font-size="12" lengthAdjust="spacing" textLength="164" x="133" y="76.2715">super (DiagramType.UML);</text><ellipse cx="215" cy="119.1016" fill="none" rx="10" ry="10" style="stroke:#222222;stroke-width:1.5;"/><line style="stroke:#222222;stroke-width:2.5;" x1="208.8128" x2="221.1872" y1="112.9144" y2="125.2887"/><line style="stroke:#222222;stroke-width:2.5;" x1="221.1872" x2="208.8128" y1="112.9144" y2="125.2887"/><path d="M245,139.1016 L245,155.2344 L225,159.2344 L245,163.2344 L245,179.3672 A0,0 0 0 0 245,179.3672 L622,179.3672 A0,0 0 0 0 622,179.3672 L622,149.1016 L612,139.1016 L245,139.1016 A0,0 0 0 0 245,139.1016 " fill="#FEFFDD" style="stroke:#181818;stroke-width:0.5;"/><path d="M612,139.1016 L612,149.1016 L622,149.1016 L612,139.1016 " fill="#FEFFDD" style="stroke:#181818;stroke-width:0.5;"/><text fill="#000000" font-family="sans-serif" font-size="13" lengthAdjust="spacing" textLength="356" x="251" y="156.1685">Diagram createSystem(UmlSource source,Map&lt;String,</text><text fill="#000000" font-family="sans-serif" font-size="13" lengthAdjust="spacing" textLength="125" x="251" y="171.3013">String&gt; skinParam)</text><ellipse cx="215" cy="159.2344" fill="#222222" rx="10" ry="10" style="stroke:#222222;stroke-width:1.0;"/><rect fill="#F1F1F1" height="33.9688" rx="12.5" ry="12.5" style="stroke:#181818;stroke-width:0.5;" width="93" x="168.5" y="247.7695"/><text fill="#000000" font-family="sans-serif" font-size="12" lengthAdjust="spacing" textLength="73" x="178.5" y="268.9082">return null ;</text><ellipse cx="215" cy="321.2539" fill="none" rx="11" ry="11" style="stroke:#222222;stroke-width:1.0;"/><ellipse cx="215" cy="321.2539" fill="#222222" rx="6" ry="6" style="stroke:#111111;stroke-width:1.0;"/><polygon fill="#F1F1F1" points="129,199.3672,301,199.3672,313,211.3672,301,223.3672,129,223.3672,117,211.3672,129,199.3672" style="stroke:#181818;stroke-width:0.5;"/><text fill="#000000" font-family="sans-serif" font-size="11" lengthAdjust="spacing" textLength="20" x="219" y="233.5776">yes</text><text fill="#000000" font-family="sans-serif" font-size="11" lengthAdjust="spacing" textLength="172" x="129" y="215.1753">source.getTotalLineCount()!=3</text><rect fill="#F1F1F1" height="33.9688" rx="12.5" ry="12.5" style="stroke:#181818;stroke-width:0.5;" width="293" x="68.5" y="374.2539"/><text fill="#000000" font-family="sans-serif" font-size="12" lengthAdjust="spacing" textLength="273" x="78.5" y="395.3926">final IteratorCounter2 it=source.iterator2();</text><rect fill="#F1F1F1" height="33.9688" rx="12.5" ry="12.5" style="stroke:#181818;stroke-width:0.5;" width="333" x="48.5" y="476.625"/><text fill="#000000" font-family="sans-serif" font-size="12" lengthAdjust="spacing" textLength="313" x="58.5" y="497.7637">final LineLocation location=it.next().getLocation();</text><rect fill="#F1F1F1" height="33.9688" rx="12.5" ry="12.5" style="stroke:#181818;stroke-width:0.5;" width="355" x="37.5" y="530.5938"/><text fill="#000000" font-family="sans-serif" font-size="12" lengthAdjust="spacing" textLength="335" x="47.5" y="551.7324">return buildEmptyError(source,location,it.getTrace());</text><ellipse cx="215" cy="595.5625" fill="none" rx="11" ry="11" style="stroke:#222222;stroke-width:1.0;"/><ellipse cx="215" cy="595.5625" fill="#222222" rx="6" ry="6" style="stroke:#111111;stroke-width:1.0;"/><polygon fill="#F1F1F1" points="167,428.2227,263,428.2227,275,440.2227,263,452.2227,167,452.2227,155,440.2227,167,428.2227" style="stroke:#181818;stroke-width:0.5;"/><text fill="#000000" font-family="sans-serif" font-size="11" lengthAdjust="spacing" textLength="20" x="219" y="462.4331">yes</text><text fill="#000000" font-family="sans-serif" font-size="11" lengthAdjust="spacing" textLength="96" x="167" y="444.0308">source.isEmpty()</text><rect fill="#F1F1F1" height="33.9688" rx="12.5" ry="12.5" style="stroke:#181818;stroke-width:0.5;" width="259" x="85.5" y="648.5625"/><text fill="#000000" font-family="sans-serif" font-size="12" lengthAdjust="spacing" textLength="239" x="95.5" y="669.7012">final StringLocated startLine=it.next();</text><rect fill="#F1F1F1" height="33.9688" rx="12.5" ry="12.5" style="stroke:#181818;stroke-width:0.5;" width="307" x="61.5" y="750.9336"/><text fill="#000000" font-family="sans-serif" font-size="12" lengthAdjust="spacing" textLength="287" x="71.5" y="772.0723">throw new UnsupportedOperationException();</text><ellipse cx="215" cy="824.418" fill="none" rx="11" ry="11" style="stroke:#222222;stroke-width:1.0;"/><ellipse cx="215" cy="824.418" fill="#222222" rx="6" ry="6" style="stroke:#111111;stroke-width:1.0;"/><polygon fill="#F1F1F1" points="36,702.5313,394,702.5313,406,714.5313,394,726.5313,36,726.5313,24,714.5313,36,702.5313" style="stroke:#181818;stroke-width:0.5;"/><text fill="#000000" font-family="sans-serif" font-size="11" lengthAdjust="spacing" textLength="20" x="219" y="736.7417">yes</text><text fill="#000000" font-family="sans-serif" font-size="11" lengthAdjust="spacing" textLength="358" x="36" y="718.3394">StartUtils.isArobaseStartDiagram(startLine.getString())==false</text><rect fill="#F1F1F1" height="47.9375" rx="12.5" ry="12.5" style="stroke:#181818;stroke-width:0.5;" width="361" x="34.5" y="925.8203"/><text fill="#000000" font-family="sans-serif" font-size="12" lengthAdjust="spacing" textLength="341" x="44.5" y="946.959">return buildEmptyError(source,startLine.getLocation(),</text><text fill="#000000" font-family="sans-serif" font-size="12" lengthAdjust="spacing" textLength="87" x="44.5" y="960.9277">it.getTrace());</text><ellipse cx="215" cy="1006.2891" fill="none" rx="11" ry="11" style="stroke:#222222;stroke-width:1.0;"/><ellipse cx="215" cy="1006.2891" fill="#222222" rx="6" ry="6" style="stroke:#111111;stroke-width:1.0;"/><polygon fill="#F1F1F1" points="159.5,877.418,270.5,877.418,282.5,889.418,270.5,901.418,159.5,901.418,147.5,889.418,159.5,877.418" style="stroke:#181818;stroke-width:0.5;"/><text fill="#000000" font-family="sans-serif" font-size="11" lengthAdjust="spacing" textLength="20" x="219" y="911.6284">yes</text><text fill="#000000" font-family="sans-serif" font-size="11" lengthAdjust="spacing" textLength="111" x="159.5" y="893.2261">it.hasNext()==false</text><rect fill="#F1F1F1" height="33.9688" rx="12.5" ry="12.5" style="stroke:#181818;stroke-width:0.5;" width="211" x="109.5" y="1059.2891"/><text fill="#000000" font-family="sans-serif" font-size="12" lengthAdjust="spacing" textLength="191" x="119.5" y="1080.4277">final StringLocated s=it.next();</text><rect fill="#F1F1F1" height="47.9375" rx="12.5" ry="12.5" style="stroke:#181818;stroke-width:0.5;" width="313" x="58.5" y="1161.6602"/><text fill="#000000" font-family="sans-serif" font-size="12" lengthAdjust="spacing" textLength="293" x="68.5" y="1182.7988">return buildEmptyError(source,s.getLocation(),</text><text fill="#000000" font-family="sans-serif" font-size="12" lengthAdjust="spacing" textLength="87" x="68.5" y="1196.7676">it.getTrace());</text><ellipse cx="215" cy="1242.1289" fill="none" rx="11" ry="11" style="stroke:#222222;stroke-width:1.0;"/><ellipse cx="215" cy="1242.1289" fill="#222222" rx="6" ry="6" style="stroke:#111111;stroke-width:1.0;"/><polygon fill="#F1F1F1" points="84,1113.2578,346,1113.2578,358,1125.2578,346,1137.2578,84,1137.2578,72,1125.2578,84,1113.2578" style="stroke:#181818;stroke-width:0.5;"/><text fill="#000000" font-family="sans-serif" font-size="11" lengthAdjust="spacing" textLength="20" x="219" y="1147.4683">yes</text><text fill="#000000" font-family="sans-serif" font-size="11" lengthAdjust="spacing" textLength="262" x="84" y="1129.0659">StartUtils.isArobaseEndDiagram(s.getString())</text><rect fill="#F1F1F1" height="47.9375" rx="12.5" ry="12.5" style="stroke:#181818;stroke-width:0.5;" width="317" x="56.5" y="1295.1289"/><text fill="#000000" font-family="sans-serif" font-size="12" lengthAdjust="spacing" textLength="297" x="66.5" y="1316.2676">final AbstractPSystem sys=executeLine(source,</text><text fill="#000000" font-family="sans-serif" font-size="12" lengthAdjust="spacing" textLength="88" x="66.5" y="1330.2363">s.getString());</text><rect fill="#F1F1F1" height="47.9375" rx="12.5" ry="12.5" style="stroke:#181818;stroke-width:0.5;" width="408" x="11" y="1411.4688"/><text fill="#000000" font-family="sans-serif" font-size="12" lengthAdjust="spacing" textLength="388" x="21" y="1432.6074">final ErrorUml err=new ErrorUml(ErrorUmlType.SYNTAX_ERROR,</text><text fill="#000000" font-family="sans-serif" font-size="12" lengthAdjust="spacing" textLength="212" x="21" y="1446.5762">"Syntax Error?",0,s.getLocation());</text><rect fill="#F1F1F1" height="47.9375" rx="12.5" ry="12.5" style="stroke:#181818;stroke-width:0.5;" width="276" x="77" y="1479.4063"/><text fill="#000000" font-family="sans-serif" font-size="12" lengthAdjust="spacing" textLength="256" x="87" y="1500.5449">return PSystemErrorUtils.buildV2(source,</text><text fill="#000000" font-family="sans-serif" font-size="12" lengthAdjust="spacing" textLength="139" x="87" y="1514.5137">err,null ,it.getTrace());</text><ellipse cx="215" cy="1558.3438" fill="none" rx="11" ry="11" style="stroke:#222222;stroke-width:1.0;"/><ellipse cx="215" cy="1558.3438" fill="#222222" rx="6" ry="6" style="stroke:#111111;stroke-width:1.0;"/><polygon fill="#F1F1F1" points="184,1363.0664,246,1363.0664,258,1375.0664,246,1387.0664,184,1387.0664,172,1375.0664,184,1363.0664" style="stroke:#181818;stroke-width:0.5;"/><text fill="#000000" font-family="sans-serif" font-size="11" lengthAdjust="spacing" textLength="20" x="219" y="1397.2769">yes</text><text fill="#000000" font-family="sans-serif" font-size="11" lengthAdjust="spacing" textLength="58" x="184" y="1378.8745">sys==null</text><rect fill="#F1F1F1" height="33.9688" rx="12.5" ry="12.5" style="stroke:#181818;stroke-width:0.5;" width="87" x="171.5" y="1611.3438"/><text fill="#000000" font-family="sans-serif" font-size="12" lengthAdjust="spacing" textLength="67" x="181.5" y="1632.4824">return sys;</text><ellipse cx="215" cy="1676.3125" fill="none" rx="11" ry="11" style="stroke:#222222;stroke-width:1.0;"/><ellipse cx="215" cy="1676.3125" fill="#222222" rx="6" ry="6" style="stroke:#111111;stroke-width:1.0;"/><ellipse cx="215" cy="1707.3125" fill="none" rx="10" ry="10" style="stroke:#222222;stroke-width:1.5;"/><line style="stroke:#222222;stroke-width:2.5;" x1="208.8128" x2="221.1872" y1="1701.1253" y2="1713.4997"/><line style="stroke:#222222;stroke-width:2.5;" x1="221.1872" x2="208.8128" y1="1701.1253" y2="1713.4997"/><line style="stroke:#181818;stroke-width:1.0;" x1="215" x2="215" y1="32.5664" y2="55.1328"/><polygon fill="#181818" points="211,45.1328,215,55.1328,219,45.1328,215,49.1328" style="stroke:#181818;stroke-width:1.0;"/><line style="stroke:#181818;stroke-width:1.0;" x1="215" x2="215" y1="89.1016" y2="109.1016"/><polygon fill="#181818" points="211,99.1016,215,109.1016,219,99.1016,215,103.1016" style="stroke:#181818;stroke-width:1.0;"/><line style="stroke:#181818;stroke-width:1.0;" x1="215" x2="215" y1="281.7383" y2="310.2539"/><polygon fill="#181818" points="211,300.2539,215,310.2539,219,300.2539,215,304.2539" style="stroke:#181818;stroke-width:1.0;"/><line style="stroke:#181818;stroke-width:1.0;" x1="215" x2="215" y1="223.3672" y2="247.7695"/><polygon fill="#181818" points="211,237.7695,215,247.7695,219,237.7695,215,241.7695" style="stroke:#181818;stroke-width:1.0;"/><line style="stroke:#181818;stroke-width:1.0;" x1="313" x2="325" y1="211.3672" y2="211.3672"/><polygon fill="#181818" points="321,280.2539,325,290.2539,329,280.2539,325,284.2539" style="stroke:#181818;stroke-width:1.0;"/><line style="stroke:#181818;stroke-width:1.0;" x1="325" x2="325" y1="211.3672" y2="354.2539"/><line style="stroke:#181818;stroke-width:1.0;" x1="325" x2="215" y1="354.2539" y2="354.2539"/><line style="stroke:#181818;stroke-width:1.0;" x1="215" x2="215" y1="354.2539" y2="374.2539"/><polygon fill="#181818" points="211,364.2539,215,374.2539,219,364.2539,215,368.2539" style="stroke:#181818;stroke-width:1.0;"/><line style="stroke:#181818;stroke-width:1.0;" x1="215" x2="215" y1="169.2344" y2="199.3672"/><polygon fill="#181818" points="211,189.3672,215,199.3672,219,189.3672,215,193.3672" style="stroke:#181818;stroke-width:1.0;"/><line style="stroke:#181818;stroke-width:1.0;" x1="215" x2="215" y1="510.5938" y2="530.5938"/><polygon fill="#181818" points="211,520.5938,215,530.5938,219,520.5938,215,524.5938" style="stroke:#181818;stroke-width:1.0;"/><line style="stroke:#181818;stroke-width:1.0;" x1="215" x2="215" y1="564.5625" y2="584.5625"/><polygon fill="#181818" points="211,574.5625,215,584.5625,219,574.5625,215,578.5625" style="stroke:#181818;stroke-width:1.0;"/><line style="stroke:#181818;stroke-width:1.0;" x1="215" x2="215" y1="452.2227" y2="476.625"/><polygon fill="#181818" points="211,466.625,215,476.625,219,466.625,215,470.625" style="stroke:#181818;stroke-width:1.0;"/><line style="stroke:#181818;stroke-width:1.0;" x1="275" x2="402.5" y1="440.2227" y2="440.2227"/><polygon fill="#181818" points="398.5,528.5938,402.5,538.5938,406.5,528.5938,402.5,532.5938" style="stroke:#181818;stroke-width:1.0;"/><line style="stroke:#181818;stroke-width:1.0;" x1="402.5" x2="402.5" y1="440.2227" y2="628.5625"/><line style="stroke:#181818;stroke-width:1.0;" x1="402.5" x2="215" y1="628.5625" y2="628.5625"/><line style="stroke:#181818;stroke-width:1.0;" x1="215" x2="215" y1="628.5625" y2="648.5625"/><polygon fill="#181818" points="211,638.5625,215,648.5625,219,638.5625,215,642.5625" style="stroke:#181818;stroke-width:1.0;"/><line style="stroke:#181818;stroke-width:1.0;" x1="215" x2="215" y1="408.2227" y2="428.2227"/><polygon fill="#181818" points="211,418.2227,215,428.2227,219,418.2227,215,422.2227" style="stroke:#181818;stroke-width:1.0;"/><line style="stroke:#181818;stroke-width:1.0;" x1="215" x2="215" y1="784.9023" y2="813.418"/><polygon fill="#181818" points="211,803.418,215,813.418,219,803.418,215,807.418" style="stroke:#181818;stroke-width:1.0;"/><line style="stroke:#181818;stroke-width:1.0;" x1="215" x2="215" y1="726.5313" y2="750.9336"/><polygon fill="#181818" points="211,740.9336,215,750.9336,219,740.9336,215,744.9336" style="stroke:#181818;stroke-width:1.0;"/><line style="stroke:#181818;stroke-width:1.0;" x1="406" x2="418" y1="714.5313" y2="714.5313"/><polygon fill="#181818" points="414,783.418,418,793.418,422,783.418,418,787.418" style="stroke:#181818;stroke-width:1.0;"/><line style="stroke:#181818;stroke-width:1.0;" x1="418" x2="418" y1="714.5313" y2="857.418"/><line style="stroke:#181818;stroke-width:1.0;" x1="418" x2="215" y1="857.418" y2="857.418"/><line style="stroke:#181818;stroke-width:1.0;" x1="215" x2="215" y1="857.418" y2="877.418"/><polygon fill="#181818" points="211,867.418,215,877.418,219,867.418,215,871.418" style="stroke:#181818;stroke-width:1.0;"/><line style="stroke:#181818;stroke-width:1.0;" x1="215" x2="215" y1="682.5313" y2="702.5313"/><polygon fill="#181818" points="211,692.5313,215,702.5313,219,692.5313,215,696.5313" style="stroke:#181818;stroke-width:1.0;"/><line style="stroke:#181818;stroke-width:1.0;" x1="215" x2="215" y1="973.7578" y2="995.2891"/><polygon fill="#181818" points="211,985.2891,215,995.2891,219,985.2891,215,989.2891" style="stroke:#181818;stroke-width:1.0;"/><line style="stroke:#181818;stroke-width:1.0;" x1="215" x2="215" y1="901.418" y2="925.8203"/><polygon fill="#181818" points="211,915.8203,215,925.8203,219,915.8203,215,919.8203" style="stroke:#181818;stroke-width:1.0;"/><line style="stroke:#181818;stroke-width:1.0;" x1="282.5" x2="405.5" y1="889.418" y2="889.418"/><polygon fill="#181818" points="401.5,965.2891,405.5,975.2891,409.5,965.2891,405.5,969.2891" style="stroke:#181818;stroke-width:1.0;"/><line style="stroke:#181818;stroke-width:1.0;" x1="405.5" x2="405.5" y1="889.418" y2="1039.2891"/><line style="stroke:#181818;stroke-width:1.0;" x1="405.5" x2="215" y1="1039.2891" y2="1039.2891"/><line style="stroke:#181818;stroke-width:1.0;" x1="215" x2="215" y1="1039.2891" y2="1059.2891"/><polygon fill="#181818" points="211,1049.2891,215,1059.2891,219,1049.2891,215,1053.2891" style="stroke:#181818;stroke-width:1.0;"/><line style="stroke:#181818;stroke-width:1.0;" x1="215" x2="215" y1="1209.5977" y2="1231.1289"/><polygon fill="#181818" points="211,1221.1289,215,1231.1289,219,1221.1289,215,1225.1289" style="stroke:#181818;stroke-width:1.0;"/><line style="stroke:#181818;stroke-width:1.0;" x1="215" x2="215" y1="1137.2578" y2="1161.6602"/><polygon fill="#181818" points="211,1151.6602,215,1161.6602,219,1151.6602,215,1155.6602" style="stroke:#181818;stroke-width:1.0;"/><line style="stroke:#181818;stroke-width:1.0;" x1="358" x2="381.5" y1="1125.2578" y2="1125.2578"/><polygon fill="#181818" points="377.5,1201.1289,381.5,1211.1289,385.5,1201.1289,381.5,1205.1289" style="stroke:#181818;stroke-width:1.0;"/><line style="stroke:#181818;stroke-width:1.0;" x1="381.5" x2="381.5" y1="1125.2578" y2="1275.1289"/><line style="stroke:#181818;stroke-width:1.0;" x1="381.5" x2="215" y1="1275.1289" y2="1275.1289"/><line style="stroke:#181818;stroke-width:1.0;" x1="215" x2="215" y1="1275.1289" y2="1295.1289"/><polygon fill="#181818" points="211,1285.1289,215,1295.1289,219,1285.1289,215,1289.1289" style="stroke:#181818;stroke-width:1.0;"/><line style="stroke:#181818;stroke-width:1.0;" x1="215" x2="215" y1="1093.2578" y2="1113.2578"/><polygon fill="#181818" points="211,1103.2578,215,1113.2578,219,1103.2578,215,1107.2578" style="stroke:#181818;stroke-width:1.0;"/><line style="stroke:#181818;stroke-width:1.0;" x1="215" x2="215" y1="1459.4063" y2="1479.4063"/><polygon fill="#181818" points="211,1469.4063,215,1479.4063,219,1469.4063,215,1473.4063" style="stroke:#181818;stroke-width:1.0;"/><line style="stroke:#181818;stroke-width:1.0;" x1="215" x2="215" y1="1527.3438" y2="1547.3438"/><polygon fill="#181818" points="211,1537.3438,215,1547.3438,219,1537.3438,215,1541.3438" style="stroke:#181818;stroke-width:1.0;"/><line style="stroke:#181818;stroke-width:1.0;" x1="215" x2="215" y1="1387.0664" y2="1411.4688"/><polygon fill="#181818" points="211,1401.4688,215,1411.4688,219,1401.4688,215,1405.4688" style="stroke:#181818;stroke-width:1.0;"/><line style="stroke:#181818;stroke-width:1.0;" x1="258" x2="429" y1="1375.0664" y2="1375.0664"/><polygon fill="#181818" points="425,1477.4063,429,1487.4063,433,1477.4063,429,1481.4063" style="stroke:#181818;stroke-width:1.0;"/><line style="stroke:#181818;stroke-width:1.0;" x1="429" x2="429" y1="1375.0664" y2="1591.3438"/><line style="stroke:#181818;stroke-width:1.0;" x1="429" x2="215" y1="1591.3438" y2="1591.3438"/><line style="stroke:#181818;stroke-width:1.0;" x1="215" x2="215" y1="1591.3438" y2="1611.3438"/><polygon fill="#181818" points="211,1601.3438,215,1611.3438,219,1601.3438,215,1605.3438" style="stroke:#181818;stroke-width:1.0;"/><line style="stroke:#181818;stroke-width:1.0;" x1="215" x2="215" y1="1343.0664" y2="1363.0664"/><polygon fill="#181818" points="211,1353.0664,215,1363.0664,219,1353.0664,215,1357.0664" style="stroke:#181818;stroke-width:1.0;"/><line style="stroke:#181818;stroke-width:1.0;" x1="215" x2="215" y1="1645.3125" y2="1665.3125"/><polygon fill="#181818" points="211,1655.3125,215,1665.3125,219,1655.3125,215,1659.3125" style="stroke:#181818;stroke-width:1.0;"/><!--MD5=[7a2083fe2469a536d205654b162c6022]
@startuml
!pragma layout smetana
start
note right
constructor PSystemSingleLineFactory()
end note
:super (DiagramType.UML);;
end
start
note right
Diagram createSystem(UmlSource source,Map<String,
String> skinParam)
end note
if (source.getTotalLineCount()!=3) then (yes) 
:return null ;;
stop
endif 
:final IteratorCounter2 it=source.iterator2();;
if (source.isEmpty()) then (yes) 
:final LineLocation location=it.next().getLocation();;
:return buildEmptyError(source,location,it.getTrace());;
stop
endif 
:final StringLocated startLine=it.next();;
if (StartUtils.isArobaseStartDiagram(startLine.getString())==false) then (yes) 
:throw new UnsupportedOperationException();;
stop
endif 
if (it.hasNext()==false) then (yes) 
:return buildEmptyError(source,startLine.getLocation(),
it.getTrace());;
stop
endif 
:final StringLocated s=it.next();;
if (StartUtils.isArobaseEndDiagram(s.getString())) then (yes) 
:return buildEmptyError(source,s.getLocation(),
it.getTrace());;
stop
endif 
:final AbstractPSystem sys=executeLine(source,
s.getString());;
if (sys==null ) then (yes) 
:final ErrorUml err=new ErrorUml(ErrorUmlType.SYNTAX_ERROR,
"Syntax Error?",0,s.getLocation());;
:return PSystemErrorUtils.buildV2(source,
err,null ,it.getTrace());;
stop
endif 
:return sys;;
stop
end
@enduml

PlantUML version 1.2022.7(Mon Aug 22 17:01:30 UTC 2022)
(GPL source distribution)
Java Runtime: OpenJDK Runtime Environment
JVM: OpenJDK 64-Bit Server VM
Default Encoding: UTF-8
Language: en
Country: null
--></g></svg>