<?xml version="1.0" encoding="UTF-8" standalone="no"?><svg xmlns="http://www.w3.org/2000/svg" xmlns:xlink="http://www.w3.org/1999/xlink" contentStyleType="text/css" height="1713px" preserveAspectRatio="none" style="width:539px;height:1713px;background:#FFFFFF;" version="1.1" viewBox="0 0 539 1713" width="539px" zoomAndPan="magnify"><defs/><g><path d="M287.75,10 L287.75,18.5664 L267.75,22.5664 L287.75,26.5664 L287.75,35.1328 A0,0 0 0 0 287.75,35.1328 L469.75,35.1328 A0,0 0 0 0 469.75,35.1328 L469.75,20 L459.75,10 L287.75,10 A0,0 0 0 0 287.75,10 " fill="#FEFFDD" style="stroke:#181818;stroke-width:0.5;"/><path d="M459.75,10 L459.75,20 L469.75,20 L459.75,10 " fill="#FEFFDD" style="stroke:#181818;stroke-width:0.5;"/><text fill="#000000" font-family="sans-serif" font-size="13" lengthAdjust="spacing" textLength="161" x="293.75" y="27.0669">ColorgetColor(Colorcolor)</text><ellipse cx="257.75" cy="22.5664" fill="#222222" rx="10" ry="10" style="stroke:#222222;stroke-width:1.0;"/><rect fill="#F1F1F1" height="47.9375" rx="12.5" ry="12.5" style="stroke:#181818;stroke-width:0.5;" width="331" x="92.25" y="103.5352"/><text fill="#000000" font-family="sans-serif" font-size="12" lengthAdjust="spacing" textLength="311" x="102.25" y="124.6738">return new Color(color.getRed(),color.getGreen(),</text><text fill="#000000" font-family="sans-serif" font-size="12" lengthAdjust="spacing" textLength="102" x="102.25" y="138.6426">color.getBlue());</text><ellipse cx="257.75" cy="184.0039" fill="none" rx="11" ry="11" style="stroke:#222222;stroke-width:1.0;"/><ellipse cx="257.75" cy="184.0039" fill="#222222" rx="6" ry="6" style="stroke:#111111;stroke-width:1.0;"/><polygon fill="#F1F1F1" points="226.25,55.1328,289.25,55.1328,301.25,67.1328,289.25,79.1328,226.25,79.1328,214.25,67.1328,226.25,55.1328" style="stroke:#181818;stroke-width:0.5;"/><text fill="#000000" font-family="sans-serif" font-size="11" lengthAdjust="spacing" textLength="20" x="261.75" y="89.3433">yes</text><text fill="#000000" font-family="sans-serif" font-size="11" lengthAdjust="spacing" textLength="63" x="226.25" y="70.9409">this==RGB</text><rect fill="#F1F1F1" height="47.9375" rx="12.5" ry="12.5" style="stroke:#181818;stroke-width:0.5;" width="320" x="97.75" y="285.4063"/><text fill="#000000" font-family="sans-serif" font-size="12" lengthAdjust="spacing" textLength="300" x="107.75" y="306.5449">return new Color(color.getRed(),color.getBlue(),</text><text fill="#000000" font-family="sans-serif" font-size="12" lengthAdjust="spacing" textLength="113" x="107.75" y="320.5137">color.getGreen());</text><ellipse cx="257.75" cy="365.875" fill="none" rx="11" ry="11" style="stroke:#222222;stroke-width:1.0;"/><ellipse cx="257.75" cy="365.875" fill="#222222" rx="6" ry="6" style="stroke:#111111;stroke-width:1.0;"/><polygon fill="#F1F1F1" points="226.25,237.0039,289.25,237.0039,301.25,249.0039,289.25,261.0039,226.25,261.0039,214.25,249.0039,226.25,237.0039" style="stroke:#181818;stroke-width:0.5;"/><text fill="#000000" font-family="sans-serif" font-size="11" lengthAdjust="spacing" textLength="20" x="261.75" y="271.2144">yes</text><text fill="#000000" font-family="sans-serif" font-size="11" lengthAdjust="spacing" textLength="63" x="226.25" y="252.812">this==RBG</text><rect fill="#F1F1F1" height="47.9375" rx="12.5" ry="12.5" style="stroke:#181818;stroke-width:0.5;" width="331" x="92.25" y="467.2773"/><text fill="#000000" font-family="sans-serif" font-size="12" lengthAdjust="spacing" textLength="311" x="102.25" y="488.416">return new Color(color.getGreen(),color.getRed(),</text><text fill="#000000" font-family="sans-serif" font-size="12" lengthAdjust="spacing" textLength="102" x="102.25" y="502.3848">color.getBlue());</text><ellipse cx="257.75" cy="547.7461" fill="none" rx="11" ry="11" style="stroke:#222222;stroke-width:1.0;"/><ellipse cx="257.75" cy="547.7461" fill="#222222" rx="6" ry="6" style="stroke:#111111;stroke-width:1.0;"/><polygon fill="#F1F1F1" points="226.25,418.875,289.25,418.875,301.25,430.875,289.25,442.875,226.25,442.875,214.25,430.875,226.25,418.875" style="stroke:#181818;stroke-width:0.5;"/><text fill="#000000" font-family="sans-serif" font-size="11" lengthAdjust="spacing" textLength="20" x="261.75" y="453.0854">yes</text><text fill="#000000" font-family="sans-serif" font-size="11" lengthAdjust="spacing" textLength="63" x="226.25" y="434.6831">this==GRB</text><rect fill="#F1F1F1" height="47.9375" rx="12.5" ry="12.5" style="stroke:#181818;stroke-width:0.5;" width="334" x="90.75" y="649.1484"/><text fill="#000000" font-family="sans-serif" font-size="12" lengthAdjust="spacing" textLength="314" x="100.75" y="670.2871">return new Color(color.getGreen(),color.getBlue(),</text><text fill="#000000" font-family="sans-serif" font-size="12" lengthAdjust="spacing" textLength="99" x="100.75" y="684.2559">color.getRed());</text><ellipse cx="257.75" cy="729.6172" fill="none" rx="11" ry="11" style="stroke:#222222;stroke-width:1.0;"/><ellipse cx="257.75" cy="729.6172" fill="#222222" rx="6" ry="6" style="stroke:#111111;stroke-width:1.0;"/><polygon fill="#F1F1F1" points="226.25,600.7461,289.25,600.7461,301.25,612.7461,289.25,624.7461,226.25,624.7461,214.25,612.7461,226.25,600.7461" style="stroke:#181818;stroke-width:0.5;"/><text fill="#000000" font-family="sans-serif" font-size="11" lengthAdjust="spacing" textLength="20" x="261.75" y="634.9565">yes</text><text fill="#000000" font-family="sans-serif" font-size="11" lengthAdjust="spacing" textLength="63" x="226.25" y="616.5542">this==GBR</text><rect fill="#F1F1F1" height="47.9375" rx="12.5" ry="12.5" style="stroke:#181818;stroke-width:0.5;" width="320" x="97.75" y="831.0195"/><text fill="#000000" font-family="sans-serif" font-size="12" lengthAdjust="spacing" textLength="300" x="107.75" y="852.1582">return new Color(color.getBlue(),color.getRed(),</text><text fill="#000000" font-family="sans-serif" font-size="12" lengthAdjust="spacing" textLength="113" x="107.75" y="866.127">color.getGreen());</text><ellipse cx="257.75" cy="911.4883" fill="none" rx="11" ry="11" style="stroke:#222222;stroke-width:1.0;"/><ellipse cx="257.75" cy="911.4883" fill="#222222" rx="6" ry="6" style="stroke:#111111;stroke-width:1.0;"/><polygon fill="#F1F1F1" points="226.25,782.6172,289.25,782.6172,301.25,794.6172,289.25,806.6172,226.25,806.6172,214.25,794.6172,226.25,782.6172" style="stroke:#181818;stroke-width:0.5;"/><text fill="#000000" font-family="sans-serif" font-size="11" lengthAdjust="spacing" textLength="20" x="261.75" y="816.8276">yes</text><text fill="#000000" font-family="sans-serif" font-size="11" lengthAdjust="spacing" textLength="63" x="226.25" y="798.4253">this==BRG</text><rect fill="#F1F1F1" height="47.9375" rx="12.5" ry="12.5" style="stroke:#181818;stroke-width:0.5;" width="334" x="90.75" y="1012.8906"/><text fill="#000000" font-family="sans-serif" font-size="12" lengthAdjust="spacing" textLength="314" x="100.75" y="1034.0293">return new Color(color.getBlue(),color.getGreen(),</text><text fill="#000000" font-family="sans-serif" font-size="12" lengthAdjust="spacing" textLength="99" x="100.75" y="1047.998">color.getRed());</text><ellipse cx="257.75" cy="1093.3594" fill="none" rx="11" ry="11" style="stroke:#222222;stroke-width:1.0;"/><ellipse cx="257.75" cy="1093.3594" fill="#222222" rx="6" ry="6" style="stroke:#111111;stroke-width:1.0;"/><polygon fill="#F1F1F1" points="226.25,964.4883,289.25,964.4883,301.25,976.4883,289.25,988.4883,226.25,988.4883,214.25,976.4883,226.25,964.4883" style="stroke:#181818;stroke-width:0.5;"/><text fill="#000000" font-family="sans-serif" font-size="11" lengthAdjust="spacing" textLength="20" x="261.75" y="998.6987">yes</text><text fill="#000000" font-family="sans-serif" font-size="11" lengthAdjust="spacing" textLength="63" x="226.25" y="980.2964">this==BGR</text><rect fill="#F1F1F1" height="33.9688" rx="12.5" ry="12.5" style="stroke:#181818;stroke-width:0.5;" width="233" x="141.25" y="1146.3594"/><text fill="#000000" font-family="sans-serif" font-size="12" lengthAdjust="spacing" textLength="213" x="151.25" y="1167.498">throw new IllegalStateException();</text><ellipse cx="257.75" cy="1211.3281" fill="none" rx="11" ry="11" style="stroke:#222222;stroke-width:1.0;"/><ellipse cx="257.75" cy="1211.3281" fill="#222222" rx="6" ry="6" style="stroke:#111111;stroke-width:1.0;"/><ellipse cx="257.75" cy="1242.3281" fill="none" rx="10" ry="10" style="stroke:#222222;stroke-width:1.5;"/><line style="stroke:#222222;stroke-width:2.5;" x1="251.5628" x2="263.9372" y1="1236.1409" y2="1248.5153"/><line style="stroke:#222222;stroke-width:2.5;" x1="263.9372" x2="251.5628" y1="1236.1409" y2="1248.5153"/><path d="M287.75,1262.3281 L287.75,1270.8945 L267.75,1274.8945 L287.75,1278.8945 L287.75,1287.4609 A0,0 0 0 0 287.75,1287.4609 L487.75,1287.4609 A0,0 0 0 0 487.75,1287.4609 L487.75,1272.3281 L477.75,1262.3281 L287.75,1262.3281 A0,0 0 0 0 287.75,1262.3281 " fill="#FEFFDD" style="stroke:#181818;stroke-width:0.5;"/><path d="M477.75,1262.3281 L477.75,1272.3281 L487.75,1272.3281 L477.75,1262.3281 " fill="#FEFFDD" style="stroke:#181818;stroke-width:0.5;"/><text fill="#000000" font-family="sans-serif" font-size="13" lengthAdjust="spacing" textLength="179" x="293.75" y="1279.395">ColorgetReverse(Colorcolor)</text><ellipse cx="257.75" cy="1274.8945" fill="#222222" rx="10" ry="10" style="stroke:#222222;stroke-width:1.0;"/><rect fill="#F1F1F1" height="33.9688" rx="12.5" ry="12.5" style="stroke:#181818;stroke-width:0.5;" width="186" x="164.75" y="1307.4609"/><text fill="#000000" font-family="sans-serif" font-size="12" lengthAdjust="spacing" textLength="166" x="174.75" y="1328.5996">color=this.getColor(color);</text><rect fill="#F1F1F1" height="47.9375" rx="12.5" ry="12.5" style="stroke:#181818;stroke-width:0.5;" width="387" x="64.25" y="1361.4297"/><text fill="#000000" font-family="sans-serif" font-size="12" lengthAdjust="spacing" textLength="367" x="74.25" y="1382.5684">return new Color(255-color.getRed(),255-color.getGreen(),</text><text fill="#000000" font-family="sans-serif" font-size="12" lengthAdjust="spacing" textLength="130" x="74.25" y="1396.5371">255-color.getBlue());</text><ellipse cx="257.75" cy="1440.3672" fill="none" rx="11" ry="11" style="stroke:#222222;stroke-width:1.0;"/><ellipse cx="257.75" cy="1440.3672" fill="#222222" rx="6" ry="6" style="stroke:#111111;stroke-width:1.0;"/><ellipse cx="257.75" cy="1471.3672" fill="none" rx="10" ry="10" style="stroke:#222222;stroke-width:1.5;"/><line style="stroke:#222222;stroke-width:2.5;" x1="251.5628" x2="263.9372" y1="1465.18" y2="1477.5544"/><line style="stroke:#222222;stroke-width:2.5;" x1="263.9372" x2="251.5628" y1="1465.18" y2="1477.5544"/><path d="M287.75,1491.3672 L287.75,1499.9336 L267.75,1503.9336 L287.75,1507.9336 L287.75,1516.5 A0,0 0 0 0 287.75,1516.5 L527.75,1516.5 A0,0 0 0 0 527.75,1516.5 L527.75,1501.3672 L517.75,1491.3672 L287.75,1491.3672 A0,0 0 0 0 287.75,1491.3672 " fill="#FEFFDD" style="stroke:#181818;stroke-width:0.5;"/><path d="M517.75,1491.3672 L517.75,1501.3672 L527.75,1501.3672 L517.75,1491.3672 " fill="#FEFFDD" style="stroke:#181818;stroke-width:0.5;"/><text fill="#000000" font-family="sans-serif" font-size="13" lengthAdjust="spacing" textLength="219" x="293.75" y="1508.4341">ColorOrderfromString(Stringorder)</text><ellipse cx="257.75" cy="1503.9336" fill="#222222" rx="10" ry="10" style="stroke:#222222;stroke-width:1.0;"/><polygon fill="#F1F1F1" points="216.75,1536.5,298.75,1536.5,310.75,1548.5,298.75,1560.5,216.75,1560.5,204.75,1548.5,216.75,1536.5" style="stroke:#181818;stroke-width:0.5;"/><text fill="#000000" font-family="sans-serif" font-size="11" lengthAdjust="spacing" textLength="82" x="216.75" y="1552.3081">try/catch block</text><rect fill="#F1F1F1" height="33.9688" rx="12.5" ry="12.5" style="stroke:#181818;stroke-width:0.5;" width="324" x="11" y="1596.1094"/><text fill="#000000" font-family="sans-serif" font-size="12" lengthAdjust="spacing" textLength="304" x="21" y="1617.248">return ColorOrder.valueOf(order.toUpperCase());</text><ellipse cx="173" cy="1661.0781" fill="none" rx="11" ry="11" style="stroke:#222222;stroke-width:1.0;"/><ellipse cx="173" cy="1661.0781" fill="#222222" rx="6" ry="6" style="stroke:#111111;stroke-width:1.0;"/><rect fill="#F1F1F1" height="33.9688" rx="12.5" ry="12.5" style="stroke:#181818;stroke-width:0.5;" width="93" x="355" y="1596.1094"/><text fill="#000000" font-family="sans-serif" font-size="12" lengthAdjust="spacing" textLength="73" x="365" y="1617.248">return null ;</text><ellipse cx="401.5" cy="1661.0781" fill="none" rx="11" ry="11" style="stroke:#222222;stroke-width:1.0;"/><ellipse cx="401.5" cy="1661.0781" fill="#222222" rx="6" ry="6" style="stroke:#111111;stroke-width:1.0;"/><ellipse cx="257.75" cy="1692.0781" fill="none" rx="10" ry="10" style="stroke:#222222;stroke-width:1.5;"/><line style="stroke:#222222;stroke-width:2.5;" x1="251.5628" x2="263.9372" y1="1685.8909" y2="1698.2653"/><line style="stroke:#222222;stroke-width:2.5;" x1="263.9372" x2="251.5628" y1="1685.8909" y2="1698.2653"/><line style="stroke:#181818;stroke-width:1.0;" x1="257.75" x2="257.75" y1="151.4727" y2="173.0039"/><polygon fill="#181818" points="253.75,163.0039,257.75,173.0039,261.75,163.0039,257.75,167.0039" style="stroke:#181818;stroke-width:1.0;"/><line style="stroke:#181818;stroke-width:1.0;" x1="257.75" x2="257.75" y1="79.1328" y2="103.5352"/><polygon fill="#181818" points="253.75,93.5352,257.75,103.5352,261.75,93.5352,257.75,97.5352" style="stroke:#181818;stroke-width:1.0;"/><line style="stroke:#181818;stroke-width:1.0;" x1="301.25" x2="433.25" y1="67.1328" y2="67.1328"/><polygon fill="#181818" points="429.25,143.0039,433.25,153.0039,437.25,143.0039,433.25,147.0039" style="stroke:#181818;stroke-width:1.0;"/><line style="stroke:#181818;stroke-width:1.0;" x1="433.25" x2="433.25" y1="67.1328" y2="217.0039"/><line style="stroke:#181818;stroke-width:1.0;" x1="433.25" x2="257.75" y1="217.0039" y2="217.0039"/><line style="stroke:#181818;stroke-width:1.0;" x1="257.75" x2="257.75" y1="217.0039" y2="237.0039"/><polygon fill="#181818" points="253.75,227.0039,257.75,237.0039,261.75,227.0039,257.75,231.0039" style="stroke:#181818;stroke-width:1.0;"/><line style="stroke:#181818;stroke-width:1.0;" x1="257.75" x2="257.75" y1="32.5664" y2="55.1328"/><polygon fill="#181818" points="253.75,45.1328,257.75,55.1328,261.75,45.1328,257.75,49.1328" style="stroke:#181818;stroke-width:1.0;"/><line style="stroke:#181818;stroke-width:1.0;" x1="257.75" x2="257.75" y1="333.3438" y2="354.875"/><polygon fill="#181818" points="253.75,344.875,257.75,354.875,261.75,344.875,257.75,348.875" style="stroke:#181818;stroke-width:1.0;"/><line style="stroke:#181818;stroke-width:1.0;" x1="257.75" x2="257.75" y1="261.0039" y2="285.4063"/><polygon fill="#181818" points="253.75,275.4063,257.75,285.4063,261.75,275.4063,257.75,279.4063" style="stroke:#181818;stroke-width:1.0;"/><line style="stroke:#181818;stroke-width:1.0;" x1="301.25" x2="427.75" y1="249.0039" y2="249.0039"/><polygon fill="#181818" points="423.75,324.875,427.75,334.875,431.75,324.875,427.75,328.875" style="stroke:#181818;stroke-width:1.0;"/><line style="stroke:#181818;stroke-width:1.0;" x1="427.75" x2="427.75" y1="249.0039" y2="398.875"/><line style="stroke:#181818;stroke-width:1.0;" x1="427.75" x2="257.75" y1="398.875" y2="398.875"/><line style="stroke:#181818;stroke-width:1.0;" x1="257.75" x2="257.75" y1="398.875" y2="418.875"/><polygon fill="#181818" points="253.75,408.875,257.75,418.875,261.75,408.875,257.75,412.875" style="stroke:#181818;stroke-width:1.0;"/><line style="stroke:#181818;stroke-width:1.0;" x1="257.75" x2="257.75" y1="515.2148" y2="536.7461"/><polygon fill="#181818" points="253.75,526.7461,257.75,536.7461,261.75,526.7461,257.75,530.7461" style="stroke:#181818;stroke-width:1.0;"/><line style="stroke:#181818;stroke-width:1.0;" x1="257.75" x2="257.75" y1="442.875" y2="467.2773"/><polygon fill="#181818" points="253.75,457.2773,257.75,467.2773,261.75,457.2773,257.75,461.2773" style="stroke:#181818;stroke-width:1.0;"/><line style="stroke:#181818;stroke-width:1.0;" x1="301.25" x2="433.25" y1="430.875" y2="430.875"/><polygon fill="#181818" points="429.25,506.7461,433.25,516.7461,437.25,506.7461,433.25,510.7461" style="stroke:#181818;stroke-width:1.0;"/><line style="stroke:#181818;stroke-width:1.0;" x1="433.25" x2="433.25" y1="430.875" y2="580.7461"/><line style="stroke:#181818;stroke-width:1.0;" x1="433.25" x2="257.75" y1="580.7461" y2="580.7461"/><line style="stroke:#181818;stroke-width:1.0;" x1="257.75" x2="257.75" y1="580.7461" y2="600.7461"/><polygon fill="#181818" points="253.75,590.7461,257.75,600.7461,261.75,590.7461,257.75,594.7461" style="stroke:#181818;stroke-width:1.0;"/><line style="stroke:#181818;stroke-width:1.0;" x1="257.75" x2="257.75" y1="697.0859" y2="718.6172"/><polygon fill="#181818" points="253.75,708.6172,257.75,718.6172,261.75,708.6172,257.75,712.6172" style="stroke:#181818;stroke-width:1.0;"/><line style="stroke:#181818;stroke-width:1.0;" x1="257.75" x2="257.75" y1="624.7461" y2="649.1484"/><polygon fill="#181818" points="253.75,639.1484,257.75,649.1484,261.75,639.1484,257.75,643.1484" style="stroke:#181818;stroke-width:1.0;"/><line style="stroke:#181818;stroke-width:1.0;" x1="301.25" x2="434.75" y1="612.7461" y2="612.7461"/><polygon fill="#181818" points="430.75,688.6172,434.75,698.6172,438.75,688.6172,434.75,692.6172" style="stroke:#181818;stroke-width:1.0;"/><line style="stroke:#181818;stroke-width:1.0;" x1="434.75" x2="434.75" y1="612.7461" y2="762.6172"/><line style="stroke:#181818;stroke-width:1.0;" x1="434.75" x2="257.75" y1="762.6172" y2="762.6172"/><line style="stroke:#181818;stroke-width:1.0;" x1="257.75" x2="257.75" y1="762.6172" y2="782.6172"/><polygon fill="#181818" points="253.75,772.6172,257.75,782.6172,261.75,772.6172,257.75,776.6172" style="stroke:#181818;stroke-width:1.0;"/><line style="stroke:#181818;stroke-width:1.0;" x1="257.75" x2="257.75" y1="878.957" y2="900.4883"/><polygon fill="#181818" points="253.75,890.4883,257.75,900.4883,261.75,890.4883,257.75,894.4883" style="stroke:#181818;stroke-width:1.0;"/><line style="stroke:#181818;stroke-width:1.0;" x1="257.75" x2="257.75" y1="806.6172" y2="831.0195"/><polygon fill="#181818" points="253.75,821.0195,257.75,831.0195,261.75,821.0195,257.75,825.0195" style="stroke:#181818;stroke-width:1.0;"/><line style="stroke:#181818;stroke-width:1.0;" x1="301.25" x2="427.75" y1="794.6172" y2="794.6172"/><polygon fill="#181818" points="423.75,870.4883,427.75,880.4883,431.75,870.4883,427.75,874.4883" style="stroke:#181818;stroke-width:1.0;"/><line style="stroke:#181818;stroke-width:1.0;" x1="427.75" x2="427.75" y1="794.6172" y2="944.4883"/><line style="stroke:#181818;stroke-width:1.0;" x1="427.75" x2="257.75" y1="944.4883" y2="944.4883"/><line style="stroke:#181818;stroke-width:1.0;" x1="257.75" x2="257.75" y1="944.4883" y2="964.4883"/><polygon fill="#181818" points="253.75,954.4883,257.75,964.4883,261.75,954.4883,257.75,958.4883" style="stroke:#181818;stroke-width:1.0;"/><line style="stroke:#181818;stroke-width:1.0;" x1="257.75" x2="257.75" y1="1060.8281" y2="1082.3594"/><polygon fill="#181818" points="253.75,1072.3594,257.75,1082.3594,261.75,1072.3594,257.75,1076.3594" style="stroke:#181818;stroke-width:1.0;"/><line style="stroke:#181818;stroke-width:1.0;" x1="257.75" x2="257.75" y1="988.4883" y2="1012.8906"/><polygon fill="#181818" points="253.75,1002.8906,257.75,1012.8906,261.75,1002.8906,257.75,1006.8906" style="stroke:#181818;stroke-width:1.0;"/><line style="stroke:#181818;stroke-width:1.0;" x1="301.25" x2="434.75" y1="976.4883" y2="976.4883"/><polygon fill="#181818" points="430.75,1052.3594,434.75,1062.3594,438.75,1052.3594,434.75,1056.3594" style="stroke:#181818;stroke-width:1.0;"/><line style="stroke:#181818;stroke-width:1.0;" x1="434.75" x2="434.75" y1="976.4883" y2="1126.3594"/><line style="stroke:#181818;stroke-width:1.0;" x1="434.75" x2="257.75" y1="1126.3594" y2="1126.3594"/><line style="stroke:#181818;stroke-width:1.0;" x1="257.75" x2="257.75" y1="1126.3594" y2="1146.3594"/><polygon fill="#181818" points="253.75,1136.3594,257.75,1146.3594,261.75,1136.3594,257.75,1140.3594" style="stroke:#181818;stroke-width:1.0;"/><line style="stroke:#181818;stroke-width:1.0;" x1="257.75" x2="257.75" y1="1180.3281" y2="1200.3281"/><polygon fill="#181818" points="253.75,1190.3281,257.75,1200.3281,261.75,1190.3281,257.75,1194.3281" style="stroke:#181818;stroke-width:1.0;"/><line style="stroke:#181818;stroke-width:1.0;" x1="257.75" x2="257.75" y1="1284.8945" y2="1307.4609"/><polygon fill="#181818" points="253.75,1297.4609,257.75,1307.4609,261.75,1297.4609,257.75,1301.4609" style="stroke:#181818;stroke-width:1.0;"/><line style="stroke:#181818;stroke-width:1.0;" x1="257.75" x2="257.75" y1="1341.4297" y2="1361.4297"/><polygon fill="#181818" points="253.75,1351.4297,257.75,1361.4297,261.75,1351.4297,257.75,1355.4297" style="stroke:#181818;stroke-width:1.0;"/><line style="stroke:#181818;stroke-width:1.0;" x1="257.75" x2="257.75" y1="1409.3672" y2="1429.3672"/><polygon fill="#181818" points="253.75,1419.3672,257.75,1429.3672,261.75,1419.3672,257.75,1423.3672" style="stroke:#181818;stroke-width:1.0;"/><line style="stroke:#181818;stroke-width:1.0;" x1="173" x2="173" y1="1630.0781" y2="1650.0781"/><polygon fill="#181818" points="169,1640.0781,173,1650.0781,177,1640.0781,173,1644.0781" style="stroke:#181818;stroke-width:1.0;"/><line style="stroke:#181818;stroke-width:1.0;" x1="401.5" x2="401.5" y1="1630.0781" y2="1650.0781"/><polygon fill="#181818" points="397.5,1640.0781,401.5,1650.0781,405.5,1640.0781,401.5,1644.0781" style="stroke:#181818;stroke-width:1.0;"/><line style="stroke:#181818;stroke-width:1.0;" x1="204.75" x2="173" y1="1548.5" y2="1548.5"/><line style="stroke:#181818;stroke-width:1.0;" x1="173" x2="173" y1="1548.5" y2="1596.1094"/><polygon fill="#181818" points="169,1586.1094,173,1596.1094,177,1586.1094,173,1590.1094" style="stroke:#181818;stroke-width:1.0;"/><text fill="#000000" font-family="sans-serif" font-size="11" lengthAdjust="spacing" textLength="15" x="173" y="1576.1128">try</text><line style="stroke:#181818;stroke-width:1.0;" x1="310.75" x2="401.5" y1="1548.5" y2="1548.5"/><line style="stroke:#181818;stroke-width:1.0;" x1="401.5" x2="401.5" y1="1548.5" y2="1596.1094"/><polygon fill="#181818" points="397.5,1586.1094,401.5,1596.1094,405.5,1586.1094,401.5,1590.1094" style="stroke:#181818;stroke-width:1.0;"/><text fill="#000000" font-family="sans-serif" font-size="11" lengthAdjust="spacing" textLength="103" x="401.5" y="1576.1128">catch (Exceptione)</text><line style="stroke:#181818;stroke-width:1.0;" x1="257.75" x2="257.75" y1="1513.9336" y2="1536.5"/><polygon fill="#181818" points="253.75,1526.5,257.75,1536.5,261.75,1526.5,257.75,1530.5" style="stroke:#181818;stroke-width:1.0;"/><!--MD5=[ada99f7e70cd1b1439f1d7b9c470537c]
@startuml
!pragma layout smetana
start
note right
ColorgetColor(Colorcolor)
end note
if (this==RGB) then (yes) 
:return new Color(color.getRed(),color.getGreen(),
color.getBlue());;
stop
endif 
if (this==RBG) then (yes) 
:return new Color(color.getRed(),color.getBlue(),
color.getGreen());;
stop
endif 
if (this==GRB) then (yes) 
:return new Color(color.getGreen(),color.getRed(),
color.getBlue());;
stop
endif 
if (this==GBR) then (yes) 
:return new Color(color.getGreen(),color.getBlue(),
color.getRed());;
stop
endif 
if (this==BRG) then (yes) 
:return new Color(color.getBlue(),color.getRed(),
color.getGreen());;
stop
endif 
if (this==BGR) then (yes) 
:return new Color(color.getBlue(),color.getGreen(),
color.getRed());;
stop
endif 
:throw new IllegalStateException();;
stop
end
start
note right
ColorgetReverse(Colorcolor)
end note
:color=this.getColor(color);;
:return new Color(255-color.getRed(),255-color.getGreen(),
255-color.getBlue());;
stop
end
start
note right
ColorOrderfromString(Stringorder)
end note
switch (try/catch block)
case (try)
:return ColorOrder.valueOf(order.toUpperCase());;
stop
case (catch (Exceptione))
:return null ;;
stop
endswitch
end
@enduml

PlantUML version 1.2022.7(Mon Aug 22 17:01:30 UTC 2022)
(GPL source distribution)
Java Runtime: OpenJDK Runtime Environment
JVM: OpenJDK 64-Bit Server VM
Default Encoding: UTF-8
Language: en
Country: null
--></g></svg>