<?xml version="1.0" encoding="UTF-8" standalone="no"?><svg xmlns="http://www.w3.org/2000/svg" xmlns:xlink="http://www.w3.org/1999/xlink" contentStyleType="text/css" height="172px" preserveAspectRatio="none" style="width:412px;height:172px;background:#FFFFFF;" version="1.1" viewBox="0 0 412 172" width="412px" zoomAndPan="magnify"><defs/><g><path d="M124,10 L124,18.5664 L104,22.5664 L124,26.5664 L124,35.1328 A0,0 0 0 0 124,35.1328 L400,35.1328 A0,0 0 0 0 400,35.1328 L400,20 L390,10 L124,10 A0,0 0 0 0 124,10 " fill="#FEFFDD" style="stroke:#181818;stroke-width:0.5;"/><path d="M390,10 L390,20 L400,20 L390,10 " fill="#FEFFDD" style="stroke:#181818;stroke-width:0.5;"/><text fill="#000000" font-family="sans-serif" font-size="13" lengthAdjust="spacing" textLength="255" x="130" y="27.0669">HColorgetAppropriateColor(HColorback)</text><ellipse cx="94" cy="22.5664" fill="#222222" rx="10" ry="10" style="stroke:#222222;stroke-width:1.0;"/><rect fill="#F1F1F1" height="33.9688" rx="12.5" ry="12.5" style="stroke:#181818;stroke-width:0.5;" width="166" x="11" y="55.1328"/><text fill="#000000" font-family="sans-serif" font-size="12" lengthAdjust="spacing" textLength="146" x="21" y="76.2715">return back.opposite();</text><ellipse cx="94" cy="120.1016" fill="none" rx="11" ry="11" style="stroke:#222222;stroke-width:1.0;"/><ellipse cx="94" cy="120.1016" fill="#222222" rx="6" ry="6" style="stroke:#111111;stroke-width:1.0;"/><ellipse cx="94" cy="151.1016" fill="none" rx="10" ry="10" style="stroke:#222222;stroke-width:1.5;"/><line style="stroke:#222222;stroke-width:2.5;" x1="87.8128" x2="100.1872" y1="144.9144" y2="157.2887"/><line style="stroke:#222222;stroke-width:2.5;" x1="100.1872" x2="87.8128" y1="144.9144" y2="157.2887"/><line style="stroke:#181818;stroke-width:1.0;" x1="94" x2="94" y1="32.5664" y2="55.1328"/><polygon fill="#181818" points="90,45.1328,94,55.1328,98,45.1328,94,49.1328" style="stroke:#181818;stroke-width:1.0;"/><line style="stroke:#181818;stroke-width:1.0;" x1="94" x2="94" y1="89.1016" y2="109.1016"/><polygon fill="#181818" points="90,99.1016,94,109.1016,98,99.1016,94,103.1016" style="stroke:#181818;stroke-width:1.0;"/><!--MD5=[e41d160ba08379be372cd19ce00b02e2]
@startuml
!pragma layout smetana
start
note right
HColorgetAppropriateColor(HColorback)
end note
:return back.opposite();;
stop
end
@enduml

PlantUML version 1.2022.7(Mon Aug 22 17:01:30 UTC 2022)
(GPL source distribution)
Java Runtime: OpenJDK Runtime Environment
JVM: OpenJDK 64-Bit Server VM
Default Encoding: UTF-8
Language: en
Country: null
--></g></svg>