<?xml version="1.0" encoding="UTF-8" standalone="no"?><svg xmlns="http://www.w3.org/2000/svg" xmlns:xlink="http://www.w3.org/1999/xlink" contentStyleType="text/css" height="934px" preserveAspectRatio="none" style="width:1337px;height:934px;background:#FFFFFF;" version="1.1" viewBox="0 0 1337 934" width="1337px" zoomAndPan="magnify"><defs/><g><path d="M698.5,10 L698.5,18.5664 L678.5,22.5664 L698.5,26.5664 L698.5,35.1328 A0,0 0 0 0 698.5,35.1328 L913.5,35.1328 A0,0 0 0 0 913.5,35.1328 L913.5,20 L903.5,10 L698.5,10 A0,0 0 0 0 698.5,10 " fill="#FEFFDD" style="stroke:#181818;stroke-width:0.5;"/><path d="M903.5,10 L903.5,20 L913.5,20 L903.5,10 " fill="#FEFFDD" style="stroke:#181818;stroke-width:0.5;"/><text fill="#000000" font-family="sans-serif" font-size="13" lengthAdjust="spacing" textLength="194" x="704.5" y="27.0669">constructor CommandBinary()</text><ellipse cx="668.5" cy="22.5664" fill="#222222" rx="10" ry="10" style="stroke:#222222;stroke-width:1.0;"/><rect fill="#F1F1F1" height="33.9688" rx="12.5" ry="12.5" style="stroke:#181818;stroke-width:0.5;" width="187" x="575" y="55.1328"/><text fill="#000000" font-family="sans-serif" font-size="12" lengthAdjust="spacing" textLength="167" x="585" y="76.2715">super (getRegexConcat());</text><ellipse cx="668.5" cy="119.1016" fill="none" rx="10" ry="10" style="stroke:#222222;stroke-width:1.5;"/><line style="stroke:#222222;stroke-width:2.5;" x1="662.3128" x2="674.6872" y1="112.9144" y2="125.2887"/><line style="stroke:#222222;stroke-width:2.5;" x1="674.6872" x2="662.3128" y1="112.9144" y2="125.2887"/><path d="M698.5,139.1016 L698.5,147.668 L678.5,151.668 L698.5,155.668 L698.5,164.2344 A0,0 0 0 0 698.5,164.2344 L876.5,164.2344 A0,0 0 0 0 876.5,164.2344 L876.5,149.1016 L866.5,139.1016 L698.5,139.1016 A0,0 0 0 0 698.5,139.1016 " fill="#FEFFDD" style="stroke:#181818;stroke-width:0.5;"/><path d="M866.5,139.1016 L866.5,149.1016 L876.5,149.1016 L866.5,139.1016 " fill="#FEFFDD" style="stroke:#181818;stroke-width:0.5;"/><text fill="#000000" font-family="sans-serif" font-size="13" lengthAdjust="spacing" textLength="157" x="704.5" y="156.1685">IRegexgetRegexConcat()</text><ellipse cx="668.5" cy="151.668" fill="#222222" rx="10" ry="10" style="stroke:#222222;stroke-width:1.0;"/><rect fill="#F1F1F1" height="117.7813" rx="12.5" ry="12.5" style="stroke:#181818;stroke-width:0.5;" width="1315" x="11" y="184.2344"/><text fill="#000000" font-family="sans-serif" font-size="12" lengthAdjust="spacing" textLength="379" x="21" y="205.373">return RegexConcat.build(CommandBinary.class .getName(),</text><text fill="#000000" font-family="sans-serif" font-size="12" lengthAdjust="spacing" textLength="522" x="21" y="219.3418">RegexLeaf.start(),new RegexOptional(new RegexConcat(new RegexLeaf("COMPACT",</text><text fill="#000000" font-family="sans-serif" font-size="12" lengthAdjust="spacing" textLength="856" x="21" y="233.3105">"(compact)"),RegexLeaf.spaceOneOrMore())),new RegexLeaf("binary"),RegexLeaf.spaceOneOrMore(),new RegexLeaf("FULL","[%g]([^%g]+</text><text fill="#000000" font-family="sans-serif" font-size="12" lengthAdjust="spacing" textLength="1295" x="21" y="247.2793">)[%g]"),RegexLeaf.spaceZeroOrMore(),new RegexLeaf("STEREOTYPE","(\\&lt;\\&lt;.*\\&gt;\\&gt;)?"),RegexLeaf.spaceOneOrMore(),new RegexLeaf("as"),RegexLeaf.spaceOneOrMore(),new RegexLeaf("CODE","([%pLN_.@]+</text><text fill="#000000" font-family="sans-serif" font-size="12" lengthAdjust="spacing" textLength="412" x="21" y="261.248">)"),RegexLeaf.spaceZeroOrMore(),new RegexLeaf("STEREOTYPE2",</text><text fill="#000000" font-family="sans-serif" font-size="12" lengthAdjust="spacing" textLength="312" x="21" y="275.2168">"(\\&lt;\\&lt;.*\\&gt;\\&gt;)?"),RegexLeaf.spaceZeroOrMore(),</text><text fill="#000000" font-family="sans-serif" font-size="12" lengthAdjust="spacing" textLength="111" x="21" y="289.1855">RegexLeaf.end());</text><ellipse cx="668.5" cy="333.0156" fill="none" rx="11" ry="11" style="stroke:#222222;stroke-width:1.0;"/><ellipse cx="668.5" cy="333.0156" fill="#222222" rx="6" ry="6" style="stroke:#111111;stroke-width:1.0;"/><ellipse cx="668.5" cy="364.0156" fill="none" rx="10" ry="10" style="stroke:#222222;stroke-width:1.5;"/><line style="stroke:#222222;stroke-width:2.5;" x1="662.3128" x2="674.6872" y1="357.8284" y2="370.2028"/><line style="stroke:#222222;stroke-width:2.5;" x1="674.6872" x2="662.3128" y1="357.8284" y2="370.2028"/><path d="M698.5,384.0156 L698.5,400.1484 L678.5,404.1484 L698.5,408.1484 L698.5,424.2813 A0,0 0 0 0 698.5,424.2813 L1119.5,424.2813 A0,0 0 0 0 1119.5,424.2813 L1119.5,394.0156 L1109.5,384.0156 L698.5,384.0156 A0,0 0 0 0 698.5,384.0156 " fill="#FEFFDD" style="stroke:#181818;stroke-width:0.5;"/><path d="M1109.5,384.0156 L1109.5,394.0156 L1119.5,394.0156 L1109.5,384.0156 " fill="#FEFFDD" style="stroke:#181818;stroke-width:0.5;"/><text fill="#000000" font-family="sans-serif" font-size="13" lengthAdjust="spacing" textLength="400" x="704.5" y="401.0825">CommandExecutionResultexecuteArg(TimingDiagramdiagram,</text><text fill="#000000" font-family="sans-serif" font-size="13" lengthAdjust="spacing" textLength="238" x="704.5" y="416.2153">LineLocationlocation,RegexResultarg)</text><ellipse cx="668.5" cy="404.1484" fill="#222222" rx="10" ry="10" style="stroke:#222222;stroke-width:1.0;"/><rect fill="#F1F1F1" height="33.9688" rx="12.5" ry="12.5" style="stroke:#181818;stroke-width:0.5;" width="291" x="523" y="444.2813"/><text fill="#000000" font-family="sans-serif" font-size="12" lengthAdjust="spacing" textLength="271" x="533" y="465.4199">final Stringcompact=arg.get("COMPACT",0);</text><rect fill="#F1F1F1" height="33.9688" rx="12.5" ry="12.5" style="stroke:#181818;stroke-width:0.5;" width="244" x="546.5" y="498.25"/><text fill="#000000" font-family="sans-serif" font-size="12" lengthAdjust="spacing" textLength="224" x="556.5" y="519.3887">final Stringcode=arg.get("CODE",0);</text><rect fill="#F1F1F1" height="33.9688" rx="12.5" ry="12.5" style="stroke:#181818;stroke-width:0.5;" width="225" x="556" y="552.2188"/><text fill="#000000" font-family="sans-serif" font-size="12" lengthAdjust="spacing" textLength="205" x="566" y="573.3574">final Stringfull=arg.get("FULL",0);</text><rect fill="#F1F1F1" height="33.9688" rx="12.5" ry="12.5" style="stroke:#181818;stroke-width:0.5;" width="197" x="570" y="606.1875"/><text fill="#000000" font-family="sans-serif" font-size="12" lengthAdjust="spacing" textLength="177" x="580" y="627.3262">Stereotypestereotype=null ;</text><polygon fill="#F1F1F1" points="365.5,660.1563,544.5,660.1563,556.5,672.1563,544.5,684.1563,365.5,684.1563,353.5,672.1563,365.5,660.1563" style="stroke:#181818;stroke-width:0.5;"/><text fill="#000000" font-family="sans-serif" font-size="11" lengthAdjust="spacing" textLength="20" x="459" y="694.3667">yes</text><text fill="#000000" font-family="sans-serif" font-size="11" lengthAdjust="spacing" textLength="175" x="365.5" y="675.9644">arg.get("STEREOTYPE",0)!=null</text><rect fill="#F1F1F1" height="47.9375" rx="12.5" ry="12.5" style="stroke:#181818;stroke-width:0.5;" width="349" x="280.5" y="715.8667"/><text fill="#000000" font-family="sans-serif" font-size="12" lengthAdjust="spacing" textLength="329" x="290.5" y="737.0054">stereotype=Stereotype.build(arg.get("STEREOTYPE",</text><text fill="#000000" font-family="sans-serif" font-size="12" lengthAdjust="spacing" textLength="22" x="290.5" y="750.9741">0));</text><polygon fill="#F1F1F1" points="735,660.1563,921,660.1563,933,672.1563,921,684.1563,735,684.1563,723,672.1563,735,660.1563" style="stroke:#181818;stroke-width:0.5;"/><text fill="#000000" font-family="sans-serif" font-size="11" lengthAdjust="spacing" textLength="20" x="832" y="694.3667">yes</text><text fill="#000000" font-family="sans-serif" font-size="11" lengthAdjust="spacing" textLength="182" x="735" y="675.9644">arg.get("STEREOTYPE2",0)!=null</text><rect fill="#F1F1F1" height="47.9375" rx="12.5" ry="12.5" style="stroke:#181818;stroke-width:0.5;" width="357" x="649.5" y="715.8667"/><text fill="#000000" font-family="sans-serif" font-size="12" lengthAdjust="spacing" textLength="337" x="659.5" y="737.0054">stereotype=Stereotype.build(arg.get("STEREOTYPE2",</text><text fill="#000000" font-family="sans-serif" font-size="12" lengthAdjust="spacing" textLength="22" x="659.5" y="750.9741">0));</text><rect fill="#F1F1F1" height="47.9375" rx="12.5" ry="12.5" style="stroke:#181818;stroke-width:0.5;" width="358" x="489.5" y="803.8042"/><text fill="#000000" font-family="sans-serif" font-size="12" lengthAdjust="spacing" textLength="338" x="499.5" y="824.9429">return diagram.createBinary(code,full,compact!=null ,</text><text fill="#000000" font-family="sans-serif" font-size="12" lengthAdjust="spacing" textLength="77" x="499.5" y="838.9116">stereotype);</text><ellipse cx="668.5" cy="882.7417" fill="none" rx="11" ry="11" style="stroke:#222222;stroke-width:1.0;"/><ellipse cx="668.5" cy="882.7417" fill="#222222" rx="6" ry="6" style="stroke:#111111;stroke-width:1.0;"/><ellipse cx="668.5" cy="913.7417" fill="none" rx="10" ry="10" style="stroke:#222222;stroke-width:1.5;"/><line style="stroke:#222222;stroke-width:2.5;" x1="662.3128" x2="674.6872" y1="907.5545" y2="919.9289"/><line style="stroke:#222222;stroke-width:2.5;" x1="674.6872" x2="662.3128" y1="907.5545" y2="919.9289"/><line style="stroke:#181818;stroke-width:1.0;" x1="668.5" x2="668.5" y1="32.5664" y2="55.1328"/><polygon fill="#181818" points="664.5,45.1328,668.5,55.1328,672.5,45.1328,668.5,49.1328" style="stroke:#181818;stroke-width:1.0;"/><line style="stroke:#181818;stroke-width:1.0;" x1="668.5" x2="668.5" y1="89.1016" y2="109.1016"/><polygon fill="#181818" points="664.5,99.1016,668.5,109.1016,672.5,99.1016,668.5,103.1016" style="stroke:#181818;stroke-width:1.0;"/><line style="stroke:#181818;stroke-width:1.0;" x1="668.5" x2="668.5" y1="161.668" y2="184.2344"/><polygon fill="#181818" points="664.5,174.2344,668.5,184.2344,672.5,174.2344,668.5,178.2344" style="stroke:#181818;stroke-width:1.0;"/><line style="stroke:#181818;stroke-width:1.0;" x1="668.5" x2="668.5" y1="302.0156" y2="322.0156"/><polygon fill="#181818" points="664.5,312.0156,668.5,322.0156,672.5,312.0156,668.5,316.0156" style="stroke:#181818;stroke-width:1.0;"/><line style="stroke:#181818;stroke-width:1.0;" x1="668.5" x2="668.5" y1="414.1484" y2="444.2813"/><polygon fill="#181818" points="664.5,434.2813,668.5,444.2813,672.5,434.2813,668.5,438.2813" style="stroke:#181818;stroke-width:1.0;"/><line style="stroke:#181818;stroke-width:1.0;" x1="668.5" x2="668.5" y1="478.25" y2="498.25"/><polygon fill="#181818" points="664.5,488.25,668.5,498.25,672.5,488.25,668.5,492.25" style="stroke:#181818;stroke-width:1.0;"/><line style="stroke:#181818;stroke-width:1.0;" x1="668.5" x2="668.5" y1="532.2188" y2="552.2188"/><polygon fill="#181818" points="664.5,542.2188,668.5,552.2188,672.5,542.2188,668.5,546.2188" style="stroke:#181818;stroke-width:1.0;"/><line style="stroke:#181818;stroke-width:1.0;" x1="668.5" x2="668.5" y1="586.1875" y2="606.1875"/><polygon fill="#181818" points="664.5,596.1875,668.5,606.1875,672.5,596.1875,668.5,600.1875" style="stroke:#181818;stroke-width:1.0;"/><line style="stroke:#181818;stroke-width:1.0;" x1="455" x2="455" y1="684.1563" y2="715.8667"/><polygon fill="#181818" points="451,705.8667,455,715.8667,459,705.8667,455,709.8667" style="stroke:#181818;stroke-width:1.0;"/><line style="stroke:#181818;stroke-width:1.0;" x1="455" x2="455" y1="763.8042" y2="783.8042"/><polygon fill="#181818" points="451,773.8042,455,783.8042,459,773.8042,455,777.8042" style="stroke:#181818;stroke-width:1.0;"/><line style="stroke:#181818;stroke-width:1.0;" x1="828" x2="828" y1="684.1563" y2="715.8667"/><polygon fill="#181818" points="824,705.8667,828,715.8667,832,705.8667,828,709.8667" style="stroke:#181818;stroke-width:1.0;"/><line style="stroke:#181818;stroke-width:1.0;" x1="828" x2="828" y1="763.8042" y2="783.8042"/><polygon fill="#181818" points="824,773.8042,828,783.8042,832,773.8042,828,777.8042" style="stroke:#181818;stroke-width:1.0;"/><line style="stroke:#181818;stroke-width:1.0;" x1="556.5" x2="723" y1="672.1563" y2="672.1563"/><polygon fill="#181818" points="713,668.1563,723,672.1563,713,676.1563,717,672.1563" style="stroke:#181818;stroke-width:1.0;"/><line style="stroke:#181818;stroke-width:1.0;" x1="668.5" x2="668.5" y1="640.1563" y2="645.1563"/><line style="stroke:#181818;stroke-width:1.0;" x1="668.5" x2="455" y1="645.1563" y2="645.1563"/><line style="stroke:#181818;stroke-width:1.0;" x1="455" x2="455" y1="645.1563" y2="660.1563"/><polygon fill="#181818" points="451,650.1563,455,660.1563,459,650.1563,455,654.1563" style="stroke:#181818;stroke-width:1.0;"/><line style="stroke:#181818;stroke-width:1.0;" x1="933" x2="1041.5" y1="672.1563" y2="672.1563"/><line style="stroke:#181818;stroke-width:1.0;" x1="1041.5" x2="1041.5" y1="672.1563" y2="783.8042"/><polygon fill="#181818" points="1037.5,773.8042,1041.5,783.8042,1045.5,773.8042,1041.5,777.8042" style="stroke:#181818;stroke-width:1.0;"/><line style="stroke:#181818;stroke-width:1.0;" x1="455" x2="1041.5" y1="783.8042" y2="783.8042"/><line style="stroke:#181818;stroke-width:1.0;" x1="668.5" x2="668.5" y1="783.8042" y2="803.8042"/><polygon fill="#181818" points="664.5,793.8042,668.5,803.8042,672.5,793.8042,668.5,797.8042" style="stroke:#181818;stroke-width:1.0;"/><line style="stroke:#181818;stroke-width:1.0;" x1="668.5" x2="668.5" y1="851.7417" y2="871.7417"/><polygon fill="#181818" points="664.5,861.7417,668.5,871.7417,672.5,861.7417,668.5,865.7417" style="stroke:#181818;stroke-width:1.0;"/><!--MD5=[f0c85a616280a5ec516881c40eaa37db]
@startuml
!pragma layout smetana
start
note right
constructor CommandBinary()
end note
:super (getRegexConcat());;
end
start
note right
IRegexgetRegexConcat()
end note
:return RegexConcat.build(CommandBinary.class .getName(),
RegexLeaf.start(),new RegexOptional(new RegexConcat(new RegexLeaf("COMPACT",
"(compact)"),RegexLeaf.spaceOneOrMore())),new RegexLeaf("binary"),RegexLeaf.spaceOneOrMore(),new RegexLeaf("FULL","[%g]([^%g]+
)[%g]"),RegexLeaf.spaceZeroOrMore(),new RegexLeaf("STEREOTYPE","(\\<\\<.*\\>\\>)?"),RegexLeaf.spaceOneOrMore(),new RegexLeaf("as"),RegexLeaf.spaceOneOrMore(),new RegexLeaf("CODE","([%pLN_.@]+
)"),RegexLeaf.spaceZeroOrMore(),new RegexLeaf("STEREOTYPE2",
"(\\<\\<.*\\>\\>)?"),RegexLeaf.spaceZeroOrMore(),
RegexLeaf.end());;
stop
end
start
note right
CommandExecutionResultexecuteArg(TimingDiagramdiagram,
LineLocationlocation,RegexResultarg)
end note
:final Stringcompact=arg.get("COMPACT",0);;
:final Stringcode=arg.get("CODE",0);;
:final Stringfull=arg.get("FULL",0);;
:Stereotypestereotype=null ;;
if (arg.get("STEREOTYPE",0)!=null ) then (yes) 
:stereotype=Stereotype.build(arg.get("STEREOTYPE",
0));;
else if (arg.get("STEREOTYPE2",0)!=null ) then (yes) 
:stereotype=Stereotype.build(arg.get("STEREOTYPE2",
0));;
endif 
:return diagram.createBinary(code,full,compact!=null ,
stereotype);;
stop
end
@enduml

PlantUML version 1.2022.7(Mon Aug 22 17:01:30 UTC 2022)
(GPL source distribution)
Java Runtime: OpenJDK Runtime Environment
JVM: OpenJDK 64-Bit Server VM
Default Encoding: UTF-8
Language: en
Country: null
--></g></svg>