<?xml version="1.0" encoding="UTF-8" standalone="no"?><svg xmlns="http://www.w3.org/2000/svg" xmlns:xlink="http://www.w3.org/1999/xlink" contentStyleType="text/css" height="2072px" preserveAspectRatio="none" style="width:766px;height:2072px;background:#FFFFFF;" version="1.1" viewBox="0 0 766 2072" width="766px" zoomAndPan="magnify"><defs/><g><path d="M322,10 L322,18.5664 L302,22.5664 L322,26.5664 L322,35.1328 A0,0 0 0 0 322,35.1328 L726,35.1328 A0,0 0 0 0 726,35.1328 L726,20 L716,10 L322,10 A0,0 0 0 0 322,10 " fill="#FEFFDD" style="stroke:#181818;stroke-width:0.5;"/><path d="M716,10 L716,20 L726,20 L716,10 " fill="#FEFFDD" style="stroke:#181818;stroke-width:0.5;"/><text fill="#000000" font-family="sans-serif" font-size="13" lengthAdjust="spacing" textLength="383" x="328" y="27.0669">constructor StripeLatex(FontConfigurationfontConfiguration)</text><ellipse cx="292" cy="22.5664" fill="#222222" rx="10" ry="10" style="stroke:#222222;stroke-width:1.0;"/><rect fill="#F1F1F1" height="33.9688" rx="12.5" ry="12.5" style="stroke:#181818;stroke-width:0.5;" width="279" x="152.5" y="55.1328"/><text fill="#000000" font-family="sans-serif" font-size="12" lengthAdjust="spacing" textLength="259" x="162.5" y="76.2715">this.fontConfiguration=fontConfiguration;</text><ellipse cx="292" cy="119.1016" fill="none" rx="10" ry="10" style="stroke:#222222;stroke-width:1.5;"/><line style="stroke:#222222;stroke-width:2.5;" x1="285.8128" x2="298.1872" y1="112.9144" y2="125.2887"/><line style="stroke:#222222;stroke-width:2.5;" x1="298.1872" x2="285.8128" y1="112.9144" y2="125.2887"/><path d="M322,139.1016 L322,147.668 L302,151.668 L322,155.668 L322,164.2344 A0,0 0 0 0 322,164.2344 L495,164.2344 A0,0 0 0 0 495,164.2344 L495,149.1016 L485,139.1016 L322,139.1016 A0,0 0 0 0 322,139.1016 " fill="#FEFFDD" style="stroke:#181818;stroke-width:0.5;"/><path d="M485,139.1016 L485,149.1016 L495,149.1016 L485,139.1016 " fill="#FEFFDD" style="stroke:#181818;stroke-width:0.5;"/><text fill="#000000" font-family="sans-serif" font-size="13" lengthAdjust="spacing" textLength="152" x="328" y="156.1685">List&lt;Atom&gt;getAtoms()</text><ellipse cx="292" cy="151.668" fill="#222222" rx="10" ry="10" style="stroke:#222222;stroke-width:1.0;"/><rect fill="#F1F1F1" height="33.9688" rx="12.5" ry="12.5" style="stroke:#181818;stroke-width:0.5;" width="303" x="140.5" y="184.2344"/><text fill="#000000" font-family="sans-serif" font-size="12" lengthAdjust="spacing" textLength="283" x="150.5" y="205.373">return Collections.&lt;Atom&gt;singletonList(this);</text><ellipse cx="292" cy="249.2031" fill="none" rx="11" ry="11" style="stroke:#222222;stroke-width:1.0;"/><ellipse cx="292" cy="249.2031" fill="#222222" rx="6" ry="6" style="stroke:#111111;stroke-width:1.0;"/><ellipse cx="292" cy="280.2031" fill="none" rx="10" ry="10" style="stroke:#222222;stroke-width:1.5;"/><line style="stroke:#222222;stroke-width:2.5;" x1="285.8128" x2="298.1872" y1="274.0159" y2="286.3903"/><line style="stroke:#222222;stroke-width:2.5;" x1="298.1872" x2="285.8128" y1="274.0159" y2="286.3903"/><path d="M322,300.2031 L322,308.7695 L302,312.7695 L322,316.7695 L322,325.3359 A0,0 0 0 0 322,325.3359 L463,325.3359 A0,0 0 0 0 463,325.3359 L463,310.2031 L453,300.2031 L322,300.2031 A0,0 0 0 0 322,300.2031 " fill="#FEFFDD" style="stroke:#181818;stroke-width:0.5;"/><path d="M453,300.2031 L453,310.2031 L463,310.2031 L453,300.2031 " fill="#FEFFDD" style="stroke:#181818;stroke-width:0.5;"/><text fill="#000000" font-family="sans-serif" font-size="13" lengthAdjust="spacing" textLength="120" x="328" y="317.27">AtomgetLHeader()</text><ellipse cx="292" cy="312.7695" fill="#222222" rx="10" ry="10" style="stroke:#222222;stroke-width:1.0;"/><rect fill="#F1F1F1" height="33.9688" rx="12.5" ry="12.5" style="stroke:#181818;stroke-width:0.5;" width="93" x="245.5" y="345.3359"/><text fill="#000000" font-family="sans-serif" font-size="12" lengthAdjust="spacing" textLength="73" x="255.5" y="366.4746">return null ;</text><ellipse cx="292" cy="410.3047" fill="none" rx="11" ry="11" style="stroke:#222222;stroke-width:1.0;"/><ellipse cx="292" cy="410.3047" fill="#222222" rx="6" ry="6" style="stroke:#111111;stroke-width:1.0;"/><ellipse cx="292" cy="441.3047" fill="none" rx="10" ry="10" style="stroke:#222222;stroke-width:1.5;"/><line style="stroke:#222222;stroke-width:2.5;" x1="285.8128" x2="298.1872" y1="435.1175" y2="447.4919"/><line style="stroke:#222222;stroke-width:2.5;" x1="298.1872" x2="285.8128" y1="435.1175" y2="447.4919"/><path d="M322,461.3047 L322,469.8711 L302,473.8711 L322,477.8711 L322,486.4375 A0,0 0 0 0 322,486.4375 L628,486.4375 A0,0 0 0 0 628,486.4375 L628,471.3047 L618,461.3047 L322,461.3047 A0,0 0 0 0 322,461.3047 " fill="#FEFFDD" style="stroke:#181818;stroke-width:0.5;"/><path d="M618,461.3047 L618,471.3047 L628,471.3047 L618,461.3047 " fill="#FEFFDD" style="stroke:#181818;stroke-width:0.5;"/><text fill="#000000" font-family="sans-serif" font-size="13" lengthAdjust="spacing" textLength="285" x="328" y="478.3716">booleanaddAndCheckTermination(Stringline)</text><ellipse cx="292" cy="473.8711" fill="#222222" rx="10" ry="10" style="stroke:#222222;stroke-width:1.0;"/><rect fill="#F1F1F1" height="33.9688" rx="12.5" ry="12.5" style="stroke:#181818;stroke-width:0.5;" width="156" x="214" y="554.8398"/><text fill="#000000" font-family="sans-serif" font-size="12" lengthAdjust="spacing" textLength="136" x="224" y="575.9785">this.terminated=true;</text><rect fill="#F1F1F1" height="33.9688" rx="12.5" ry="12.5" style="stroke:#181818;stroke-width:0.5;" width="93" x="245.5" y="608.8086"/><text fill="#000000" font-family="sans-serif" font-size="12" lengthAdjust="spacing" textLength="73" x="255.5" y="629.9473">return true;</text><ellipse cx="292" cy="673.7773" fill="none" rx="11" ry="11" style="stroke:#222222;stroke-width:1.0;"/><ellipse cx="292" cy="673.7773" fill="#222222" rx="6" ry="6" style="stroke:#111111;stroke-width:1.0;"/><polygon fill="#F1F1F1" points="226.5,506.4375,357.5,506.4375,369.5,518.4375,357.5,530.4375,226.5,530.4375,214.5,518.4375,226.5,506.4375" style="stroke:#181818;stroke-width:0.5;"/><text fill="#000000" font-family="sans-serif" font-size="11" lengthAdjust="spacing" textLength="20" x="296" y="540.6479">yes</text><text fill="#000000" font-family="sans-serif" font-size="11" lengthAdjust="spacing" textLength="131" x="226.5" y="522.2456">Parser.isLatexEnd(line)</text><rect fill="#F1F1F1" height="33.9688" rx="12.5" ry="12.5" style="stroke:#181818;stroke-width:0.5;" width="182" x="201" y="726.7773"/><text fill="#000000" font-family="sans-serif" font-size="12" lengthAdjust="spacing" textLength="162" x="211" y="747.916">this.formula.append(line);</text><rect fill="#F1F1F1" height="33.9688" rx="12.5" ry="12.5" style="stroke:#181818;stroke-width:0.5;" width="97" x="243.5" y="780.7461"/><text fill="#000000" font-family="sans-serif" font-size="12" lengthAdjust="spacing" textLength="77" x="253.5" y="801.8848">return false;</text><ellipse cx="292" cy="845.7148" fill="none" rx="11" ry="11" style="stroke:#222222;stroke-width:1.0;"/><ellipse cx="292" cy="845.7148" fill="#222222" rx="6" ry="6" style="stroke:#111111;stroke-width:1.0;"/><ellipse cx="292" cy="876.7148" fill="none" rx="10" ry="10" style="stroke:#222222;stroke-width:1.5;"/><line style="stroke:#222222;stroke-width:2.5;" x1="285.8128" x2="298.1872" y1="870.5277" y2="882.902"/><line style="stroke:#222222;stroke-width:2.5;" x1="298.1872" x2="285.8128" y1="870.5277" y2="882.902"/><path d="M322,896.7148 L322,905.2813 L302,909.2813 L322,913.2813 L322,921.8477 A0,0 0 0 0 322,921.8477 L487,921.8477 A0,0 0 0 0 487,921.8477 L487,906.7148 L477,896.7148 L322,896.7148 A0,0 0 0 0 322,896.7148 " fill="#FEFFDD" style="stroke:#181818;stroke-width:0.5;"/><path d="M477,896.7148 L477,906.7148 L487,906.7148 L477,896.7148 " fill="#FEFFDD" style="stroke:#181818;stroke-width:0.5;"/><text fill="#000000" font-family="sans-serif" font-size="13" lengthAdjust="spacing" textLength="144" x="328" y="913.7817">booleanisTerminated()</text><ellipse cx="292" cy="909.2813" fill="#222222" rx="10" ry="10" style="stroke:#222222;stroke-width:1.0;"/><rect fill="#F1F1F1" height="33.9688" rx="12.5" ry="12.5" style="stroke:#181818;stroke-width:0.5;" width="136" x="224" y="941.8477"/><text fill="#000000" font-family="sans-serif" font-size="12" lengthAdjust="spacing" textLength="116" x="234" y="962.9863">return terminated;</text><ellipse cx="292" cy="1006.8164" fill="none" rx="11" ry="11" style="stroke:#222222;stroke-width:1.0;"/><ellipse cx="292" cy="1006.8164" fill="#222222" rx="6" ry="6" style="stroke:#111111;stroke-width:1.0;"/><ellipse cx="292" cy="1037.8164" fill="none" rx="10" ry="10" style="stroke:#222222;stroke-width:1.5;"/><line style="stroke:#222222;stroke-width:2.5;" x1="285.8128" x2="298.1872" y1="1031.6292" y2="1044.0036"/><line style="stroke:#222222;stroke-width:2.5;" x1="298.1872" x2="285.8128" y1="1031.6292" y2="1044.0036"/><path d="M322,1057.8164 L322,1066.3828 L302,1070.3828 L322,1074.3828 L322,1082.9492 A0,0 0 0 0 322,1082.9492 L444,1082.9492 A0,0 0 0 0 444,1082.9492 L444,1067.8164 L434,1057.8164 L322,1057.8164 A0,0 0 0 0 322,1057.8164 " fill="#FEFFDD" style="stroke:#181818;stroke-width:0.5;"/><path d="M434,1057.8164 L434,1067.8164 L444,1067.8164 L434,1057.8164 " fill="#FEFFDD" style="stroke:#181818;stroke-width:0.5;"/><text fill="#000000" font-family="sans-serif" font-size="13" lengthAdjust="spacing" textLength="101" x="328" y="1074.8833">AtomgetAtom()</text><ellipse cx="292" cy="1070.3828" fill="#222222" rx="10" ry="10" style="stroke:#222222;stroke-width:1.0;"/><rect fill="#F1F1F1" height="33.9688" rx="12.5" ry="12.5" style="stroke:#181818;stroke-width:0.5;" width="562" x="11" y="1151.3516"/><text fill="#000000" font-family="sans-serif" font-size="12" lengthAdjust="spacing" textLength="542" x="21" y="1172.4902">final ScientificEquationSafemath=ScientificEquationSafe.fromLatex(formula.toString());</text><rect fill="#F1F1F1" height="47.9375" rx="12.5" ry="12.5" style="stroke:#181818;stroke-width:0.5;" width="375" x="104.5" y="1215.8359"/><text fill="#000000" font-family="sans-serif" font-size="12" lengthAdjust="spacing" textLength="355" x="114.5" y="1236.9746">atom=new AtomMath(math,fontConfiguration.getColor(),</text><text fill="#000000" font-family="sans-serif" font-size="12" lengthAdjust="spacing" textLength="244" x="114.5" y="1250.9434">fontConfiguration.getExtendedColor());</text><polygon fill="#F1F1F1" points="256.5,1102.9492,327.5,1102.9492,339.5,1114.9492,327.5,1126.9492,256.5,1126.9492,244.5,1114.9492,256.5,1102.9492" style="stroke:#181818;stroke-width:0.5;"/><text fill="#000000" font-family="sans-serif" font-size="11" lengthAdjust="spacing" textLength="20" x="296" y="1137.1597">yes</text><text fill="#000000" font-family="sans-serif" font-size="11" lengthAdjust="spacing" textLength="67" x="256.5" y="1118.7573">atom==null</text><polygon fill="#F1F1F1" points="292,1283.7734,304,1295.7734,292,1307.7734,280,1295.7734,292,1283.7734" style="stroke:#181818;stroke-width:0.5;"/><rect fill="#F1F1F1" height="33.9688" rx="12.5" ry="12.5" style="stroke:#181818;stroke-width:0.5;" width="99" x="242.5" y="1327.7734"/><text fill="#000000" font-family="sans-serif" font-size="12" lengthAdjust="spacing" textLength="79" x="252.5" y="1348.9121">return atom;</text><ellipse cx="292" cy="1392.7422" fill="none" rx="11" ry="11" style="stroke:#222222;stroke-width:1.0;"/><ellipse cx="292" cy="1392.7422" fill="#222222" rx="6" ry="6" style="stroke:#111111;stroke-width:1.0;"/><ellipse cx="292" cy="1423.7422" fill="none" rx="10" ry="10" style="stroke:#222222;stroke-width:1.5;"/><line style="stroke:#222222;stroke-width:2.5;" x1="285.8128" x2="298.1872" y1="1417.555" y2="1429.9294"/><line style="stroke:#222222;stroke-width:2.5;" x1="298.1872" x2="285.8128" y1="1417.555" y2="1429.9294"/><path d="M322,1443.7422 L322,1452.3086 L302,1456.3086 L322,1460.3086 L322,1468.875 A0,0 0 0 0 322,1468.875 L754,1468.875 A0,0 0 0 0 754,1468.875 L754,1453.7422 L744,1443.7422 L322,1443.7422 A0,0 0 0 0 322,1443.7422 " fill="#FEFFDD" style="stroke:#181818;stroke-width:0.5;"/><path d="M744,1443.7422 L744,1453.7422 L754,1453.7422 L744,1443.7422 " fill="#FEFFDD" style="stroke:#181818;stroke-width:0.5;"/><text fill="#000000" font-family="sans-serif" font-size="13" lengthAdjust="spacing" textLength="411" x="328" y="1460.8091">XDimension2DcalculateDimension(StringBounderstringBounder)</text><ellipse cx="292" cy="1456.3086" fill="#222222" rx="10" ry="10" style="stroke:#222222;stroke-width:1.0;"/><rect fill="#F1F1F1" height="33.9688" rx="12.5" ry="12.5" style="stroke:#181818;stroke-width:0.5;" width="355" x="114.5" y="1488.875"/><text fill="#000000" font-family="sans-serif" font-size="12" lengthAdjust="spacing" textLength="335" x="124.5" y="1510.0137">return getAtom().calculateDimension(stringBounder);</text><ellipse cx="292" cy="1553.8438" fill="none" rx="11" ry="11" style="stroke:#222222;stroke-width:1.0;"/><ellipse cx="292" cy="1553.8438" fill="#222222" rx="6" ry="6" style="stroke:#111111;stroke-width:1.0;"/><ellipse cx="292" cy="1584.8438" fill="none" rx="10" ry="10" style="stroke:#222222;stroke-width:1.5;"/><line style="stroke:#222222;stroke-width:2.5;" x1="285.8128" x2="298.1872" y1="1578.6566" y2="1591.0309"/><line style="stroke:#222222;stroke-width:2.5;" x1="298.1872" x2="285.8128" y1="1578.6566" y2="1591.0309"/><path d="M322,1604.8438 L322,1613.4102 L302,1617.4102 L322,1621.4102 L322,1629.9766 A0,0 0 0 0 322,1629.9766 L699,1629.9766 A0,0 0 0 0 699,1629.9766 L699,1614.8438 L689,1604.8438 L322,1604.8438 A0,0 0 0 0 322,1604.8438 " fill="#FEFFDD" style="stroke:#181818;stroke-width:0.5;"/><path d="M689,1604.8438 L689,1614.8438 L699,1614.8438 L689,1604.8438 " fill="#FEFFDD" style="stroke:#181818;stroke-width:0.5;"/><text fill="#000000" font-family="sans-serif" font-size="13" lengthAdjust="spacing" textLength="356" x="328" y="1621.9106">doublegetStartingAltitude(StringBounderstringBounder)</text><ellipse cx="292" cy="1617.4102" fill="#222222" rx="10" ry="10" style="stroke:#222222;stroke-width:1.0;"/><rect fill="#F1F1F1" height="33.9688" rx="12.5" ry="12.5" style="stroke:#181818;stroke-width:0.5;" width="75" x="254.5" y="1649.9766"/><text fill="#000000" font-family="sans-serif" font-size="12" lengthAdjust="spacing" textLength="55" x="264.5" y="1671.1152">return 0;</text><ellipse cx="292" cy="1714.9453" fill="none" rx="11" ry="11" style="stroke:#222222;stroke-width:1.0;"/><ellipse cx="292" cy="1714.9453" fill="#222222" rx="6" ry="6" style="stroke:#111111;stroke-width:1.0;"/><ellipse cx="292" cy="1745.9453" fill="none" rx="10" ry="10" style="stroke:#222222;stroke-width:1.5;"/><line style="stroke:#222222;stroke-width:2.5;" x1="285.8128" x2="298.1872" y1="1739.7581" y2="1752.1325"/><line style="stroke:#222222;stroke-width:2.5;" x1="298.1872" x2="285.8128" y1="1739.7581" y2="1752.1325"/><path d="M322,1765.9453 L322,1774.5117 L302,1778.5117 L322,1782.5117 L322,1791.0781 A0,0 0 0 0 322,1791.0781 L498,1791.0781 A0,0 0 0 0 498,1791.0781 L498,1775.9453 L488,1765.9453 L322,1765.9453 A0,0 0 0 0 322,1765.9453 " fill="#FEFFDD" style="stroke:#181818;stroke-width:0.5;"/><path d="M488,1765.9453 L488,1775.9453 L498,1775.9453 L488,1765.9453 " fill="#FEFFDD" style="stroke:#181818;stroke-width:0.5;"/><text fill="#000000" font-family="sans-serif" font-size="13" lengthAdjust="spacing" textLength="155" x="328" y="1783.0122">void drawU(UGraphicug)</text><ellipse cx="292" cy="1778.5117" fill="#222222" rx="10" ry="10" style="stroke:#222222;stroke-width:1.0;"/><rect fill="#F1F1F1" height="33.9688" rx="12.5" ry="12.5" style="stroke:#181818;stroke-width:0.5;" width="156" x="214" y="1811.0781"/><text fill="#000000" font-family="sans-serif" font-size="12" lengthAdjust="spacing" textLength="136" x="224" y="1832.2168">getAtom().drawU(ug);</text><ellipse cx="292" cy="1875.0469" fill="none" rx="10" ry="10" style="stroke:#222222;stroke-width:1.5;"/><line style="stroke:#222222;stroke-width:2.5;" x1="285.8128" x2="298.1872" y1="1868.8597" y2="1881.2341"/><line style="stroke:#222222;stroke-width:2.5;" x1="298.1872" x2="285.8128" y1="1868.8597" y2="1881.2341"/><path d="M322,1895.0469 L322,1911.1797 L302,1915.1797 L322,1919.1797 L322,1935.3125 A0,0 0 0 0 322,1935.3125 L674,1935.3125 A0,0 0 0 0 674,1935.3125 L674,1905.0469 L664,1895.0469 L322,1895.0469 A0,0 0 0 0 322,1895.0469 " fill="#FEFFDD" style="stroke:#181818;stroke-width:0.5;"/><path d="M664,1895.0469 L664,1905.0469 L674,1905.0469 L664,1895.0469 " fill="#FEFFDD" style="stroke:#181818;stroke-width:0.5;"/><text fill="#000000" font-family="sans-serif" font-size="13" lengthAdjust="spacing" textLength="331" x="328" y="1912.1138">List&lt;Atom&gt;splitInTwo(StringBounderstringBounder,</text><text fill="#000000" font-family="sans-serif" font-size="13" lengthAdjust="spacing" textLength="81" x="328" y="1927.2466">doublewidth)</text><ellipse cx="292" cy="1915.1797" fill="#222222" rx="10" ry="10" style="stroke:#222222;stroke-width:1.0;"/><rect fill="#F1F1F1" height="33.9688" rx="12.5" ry="12.5" style="stroke:#181818;stroke-width:0.5;" width="221" x="181.5" y="1955.3125"/><text fill="#000000" font-family="sans-serif" font-size="12" lengthAdjust="spacing" textLength="201" x="191.5" y="1976.4512">return Arrays.asList((Atom)this);</text><ellipse cx="292" cy="2020.2813" fill="none" rx="11" ry="11" style="stroke:#222222;stroke-width:1.0;"/><ellipse cx="292" cy="2020.2813" fill="#222222" rx="6" ry="6" style="stroke:#111111;stroke-width:1.0;"/><ellipse cx="292" cy="2051.2813" fill="none" rx="10" ry="10" style="stroke:#222222;stroke-width:1.5;"/><line style="stroke:#222222;stroke-width:2.5;" x1="285.8128" x2="298.1872" y1="2045.0941" y2="2057.4684"/><line style="stroke:#222222;stroke-width:2.5;" x1="298.1872" x2="285.8128" y1="2045.0941" y2="2057.4684"/><line style="stroke:#181818;stroke-width:1.0;" x1="292" x2="292" y1="32.5664" y2="55.1328"/><polygon fill="#181818" points="288,45.1328,292,55.1328,296,45.1328,292,49.1328" style="stroke:#181818;stroke-width:1.0;"/><line style="stroke:#181818;stroke-width:1.0;" x1="292" x2="292" y1="89.1016" y2="109.1016"/><polygon fill="#181818" points="288,99.1016,292,109.1016,296,99.1016,292,103.1016" style="stroke:#181818;stroke-width:1.0;"/><line style="stroke:#181818;stroke-width:1.0;" x1="292" x2="292" y1="161.668" y2="184.2344"/><polygon fill="#181818" points="288,174.2344,292,184.2344,296,174.2344,292,178.2344" style="stroke:#181818;stroke-width:1.0;"/><line style="stroke:#181818;stroke-width:1.0;" x1="292" x2="292" y1="218.2031" y2="238.2031"/><polygon fill="#181818" points="288,228.2031,292,238.2031,296,228.2031,292,232.2031" style="stroke:#181818;stroke-width:1.0;"/><line style="stroke:#181818;stroke-width:1.0;" x1="292" x2="292" y1="322.7695" y2="345.3359"/><polygon fill="#181818" points="288,335.3359,292,345.3359,296,335.3359,292,339.3359" style="stroke:#181818;stroke-width:1.0;"/><line style="stroke:#181818;stroke-width:1.0;" x1="292" x2="292" y1="379.3047" y2="399.3047"/><polygon fill="#181818" points="288,389.3047,292,399.3047,296,389.3047,292,393.3047" style="stroke:#181818;stroke-width:1.0;"/><line style="stroke:#181818;stroke-width:1.0;" x1="292" x2="292" y1="588.8086" y2="608.8086"/><polygon fill="#181818" points="288,598.8086,292,608.8086,296,598.8086,292,602.8086" style="stroke:#181818;stroke-width:1.0;"/><line style="stroke:#181818;stroke-width:1.0;" x1="292" x2="292" y1="642.7773" y2="662.7773"/><polygon fill="#181818" points="288,652.7773,292,662.7773,296,652.7773,292,656.7773" style="stroke:#181818;stroke-width:1.0;"/><line style="stroke:#181818;stroke-width:1.0;" x1="292" x2="292" y1="530.4375" y2="554.8398"/><polygon fill="#181818" points="288,544.8398,292,554.8398,296,544.8398,292,548.8398" style="stroke:#181818;stroke-width:1.0;"/><line style="stroke:#181818;stroke-width:1.0;" x1="369.5" x2="381.5" y1="518.4375" y2="518.4375"/><polygon fill="#181818" points="377.5,606.8086,381.5,616.8086,385.5,606.8086,381.5,610.8086" style="stroke:#181818;stroke-width:1.0;"/><line style="stroke:#181818;stroke-width:1.0;" x1="381.5" x2="381.5" y1="518.4375" y2="706.7773"/><line style="stroke:#181818;stroke-width:1.0;" x1="381.5" x2="292" y1="706.7773" y2="706.7773"/><line style="stroke:#181818;stroke-width:1.0;" x1="292" x2="292" y1="706.7773" y2="726.7773"/><polygon fill="#181818" points="288,716.7773,292,726.7773,296,716.7773,292,720.7773" style="stroke:#181818;stroke-width:1.0;"/><line style="stroke:#181818;stroke-width:1.0;" x1="292" x2="292" y1="483.8711" y2="506.4375"/><polygon fill="#181818" points="288,496.4375,292,506.4375,296,496.4375,292,500.4375" style="stroke:#181818;stroke-width:1.0;"/><line style="stroke:#181818;stroke-width:1.0;" x1="292" x2="292" y1="760.7461" y2="780.7461"/><polygon fill="#181818" points="288,770.7461,292,780.7461,296,770.7461,292,774.7461" style="stroke:#181818;stroke-width:1.0;"/><line style="stroke:#181818;stroke-width:1.0;" x1="292" x2="292" y1="814.7148" y2="834.7148"/><polygon fill="#181818" points="288,824.7148,292,834.7148,296,824.7148,292,828.7148" style="stroke:#181818;stroke-width:1.0;"/><line style="stroke:#181818;stroke-width:1.0;" x1="292" x2="292" y1="919.2813" y2="941.8477"/><polygon fill="#181818" points="288,931.8477,292,941.8477,296,931.8477,292,935.8477" style="stroke:#181818;stroke-width:1.0;"/><line style="stroke:#181818;stroke-width:1.0;" x1="292" x2="292" y1="975.8164" y2="995.8164"/><polygon fill="#181818" points="288,985.8164,292,995.8164,296,985.8164,292,989.8164" style="stroke:#181818;stroke-width:1.0;"/><line style="stroke:#181818;stroke-width:1.0;" x1="292" x2="292" y1="1185.3203" y2="1215.8359"/><polygon fill="#181818" points="288,1205.8359,292,1215.8359,296,1205.8359,292,1209.8359" style="stroke:#181818;stroke-width:1.0;"/><line style="stroke:#181818;stroke-width:1.0;" x1="292" x2="292" y1="1126.9492" y2="1151.3516"/><polygon fill="#181818" points="288,1141.3516,292,1151.3516,296,1141.3516,292,1145.3516" style="stroke:#181818;stroke-width:1.0;"/><line style="stroke:#181818;stroke-width:1.0;" x1="339.5" x2="583" y1="1114.9492" y2="1114.9492"/><polygon fill="#181818" points="579,1195.3203,583,1205.3203,587,1195.3203,583,1199.3203" style="stroke:#181818;stroke-width:1.0;"/><line style="stroke:#181818;stroke-width:1.0;" x1="583" x2="583" y1="1114.9492" y2="1295.7734"/><line style="stroke:#181818;stroke-width:1.0;" x1="583" x2="304" y1="1295.7734" y2="1295.7734"/><polygon fill="#181818" points="314,1291.7734,304,1295.7734,314,1299.7734,310,1295.7734" style="stroke:#181818;stroke-width:1.0;"/><line style="stroke:#181818;stroke-width:1.0;" x1="292" x2="292" y1="1263.7734" y2="1283.7734"/><polygon fill="#181818" points="288,1273.7734,292,1283.7734,296,1273.7734,292,1277.7734" style="stroke:#181818;stroke-width:1.0;"/><line style="stroke:#181818;stroke-width:1.0;" x1="292" x2="292" y1="1080.3828" y2="1102.9492"/><polygon fill="#181818" points="288,1092.9492,292,1102.9492,296,1092.9492,292,1096.9492" style="stroke:#181818;stroke-width:1.0;"/><line style="stroke:#181818;stroke-width:1.0;" x1="292" x2="292" y1="1307.7734" y2="1327.7734"/><polygon fill="#181818" points="288,1317.7734,292,1327.7734,296,1317.7734,292,1321.7734" style="stroke:#181818;stroke-width:1.0;"/><line style="stroke:#181818;stroke-width:1.0;" x1="292" x2="292" y1="1361.7422" y2="1381.7422"/><polygon fill="#181818" points="288,1371.7422,292,1381.7422,296,1371.7422,292,1375.7422" style="stroke:#181818;stroke-width:1.0;"/><line style="stroke:#181818;stroke-width:1.0;" x1="292" x2="292" y1="1466.3086" y2="1488.875"/><polygon fill="#181818" points="288,1478.875,292,1488.875,296,1478.875,292,1482.875" style="stroke:#181818;stroke-width:1.0;"/><line style="stroke:#181818;stroke-width:1.0;" x1="292" x2="292" y1="1522.8438" y2="1542.8438"/><polygon fill="#181818" points="288,1532.8438,292,1542.8438,296,1532.8438,292,1536.8438" style="stroke:#181818;stroke-width:1.0;"/><line style="stroke:#181818;stroke-width:1.0;" x1="292" x2="292" y1="1627.4102" y2="1649.9766"/><polygon fill="#181818" points="288,1639.9766,292,1649.9766,296,1639.9766,292,1643.9766" style="stroke:#181818;stroke-width:1.0;"/><line style="stroke:#181818;stroke-width:1.0;" x1="292" x2="292" y1="1683.9453" y2="1703.9453"/><polygon fill="#181818" points="288,1693.9453,292,1703.9453,296,1693.9453,292,1697.9453" style="stroke:#181818;stroke-width:1.0;"/><line style="stroke:#181818;stroke-width:1.0;" x1="292" x2="292" y1="1788.5117" y2="1811.0781"/><polygon fill="#181818" points="288,1801.0781,292,1811.0781,296,1801.0781,292,1805.0781" style="stroke:#181818;stroke-width:1.0;"/><line style="stroke:#181818;stroke-width:1.0;" x1="292" x2="292" y1="1845.0469" y2="1865.0469"/><polygon fill="#181818" points="288,1855.0469,292,1865.0469,296,1855.0469,292,1859.0469" style="stroke:#181818;stroke-width:1.0;"/><line style="stroke:#181818;stroke-width:1.0;" x1="292" x2="292" y1="1925.1797" y2="1955.3125"/><polygon fill="#181818" points="288,1945.3125,292,1955.3125,296,1945.3125,292,1949.3125" style="stroke:#181818;stroke-width:1.0;"/><line style="stroke:#181818;stroke-width:1.0;" x1="292" x2="292" y1="1989.2813" y2="2009.2813"/><polygon fill="#181818" points="288,1999.2813,292,2009.2813,296,1999.2813,292,2003.2813" style="stroke:#181818;stroke-width:1.0;"/><!--MD5=[5d152495229459702c9186a126847baf]
@startuml
!pragma layout smetana
start
note right
constructor StripeLatex(FontConfigurationfontConfiguration)
end note
:this.fontConfiguration=fontConfiguration;;
end
start
note right
List<Atom>getAtoms()
end note
:return Collections.<Atom>singletonList(this);;
stop
end
start
note right
AtomgetLHeader()
end note
:return null ;;
stop
end
start
note right
booleanaddAndCheckTermination(Stringline)
end note
if (Parser.isLatexEnd(line)) then (yes) 
:this.terminated=true;;
:return true;;
stop
endif 
:this.formula.append(line);;
:return false;;
stop
end
start
note right
booleanisTerminated()
end note
:return terminated;;
stop
end
start
note right
AtomgetAtom()
end note
if (atom==null ) then (yes) 
:final ScientificEquationSafemath=ScientificEquationSafe.fromLatex(formula.toString());;
:atom=new AtomMath(math,fontConfiguration.getColor(),
fontConfiguration.getExtendedColor());;
endif 
:return atom;;
stop
end
start
note right
XDimension2DcalculateDimension(StringBounderstringBounder)
end note
:return getAtom().calculateDimension(stringBounder);;
stop
end
start
note right
doublegetStartingAltitude(StringBounderstringBounder)
end note
:return 0;;
stop
end
start
note right
void drawU(UGraphicug)
end note
:getAtom().drawU(ug);;
end
start
note right
List<Atom>splitInTwo(StringBounderstringBounder,
doublewidth)
end note
:return Arrays.asList((Atom)this);;
stop
end
@enduml

PlantUML version 1.2022.7(Mon Aug 22 17:01:30 UTC 2022)
(GPL source distribution)
Java Runtime: OpenJDK Runtime Environment
JVM: OpenJDK 64-Bit Server VM
Default Encoding: UTF-8
Language: en
Country: null
--></g></svg>