<?xml version="1.0" encoding="UTF-8" standalone="no"?><svg xmlns="http://www.w3.org/2000/svg" xmlns:xlink="http://www.w3.org/1999/xlink" contentStyleType="text/css" height="2240px" preserveAspectRatio="none" style="width:776px;height:2240px;background:#FFFFFF;" version="1.1" viewBox="0 0 776 2240" width="776px" zoomAndPan="magnify"><defs/><g><path d="M332.5,10 L332.5,18.5664 L312.5,22.5664 L332.5,26.5664 L332.5,35.1328 A0,0 0 0 0 332.5,35.1328 L734.5,35.1328 A0,0 0 0 0 734.5,35.1328 L734.5,20 L724.5,10 L332.5,10 A0,0 0 0 0 332.5,10 " fill="#FEFFDD" style="stroke:#181818;stroke-width:0.5;"/><path d="M724.5,10 L724.5,20 L734.5,20 L724.5,10 " fill="#FEFFDD" style="stroke:#181818;stroke-width:0.5;"/><text fill="#000000" font-family="sans-serif" font-size="13" lengthAdjust="spacing" textLength="381" x="338.5" y="27.0669">constructor StripeCode(FontConfigurationfontConfiguration)</text><ellipse cx="302.5" cy="22.5664" fill="#222222" rx="10" ry="10" style="stroke:#222222;stroke-width:1.0;"/><rect fill="#F1F1F1" height="33.9688" rx="12.5" ry="12.5" style="stroke:#181818;stroke-width:0.5;" width="279" x="163" y="55.1328"/><text fill="#000000" font-family="sans-serif" font-size="12" lengthAdjust="spacing" textLength="259" x="173" y="76.2715">this.fontConfiguration=fontConfiguration;</text><ellipse cx="302.5" cy="119.1016" fill="none" rx="10" ry="10" style="stroke:#222222;stroke-width:1.5;"/><line style="stroke:#222222;stroke-width:2.5;" x1="296.3128" x2="308.6872" y1="112.9144" y2="125.2887"/><line style="stroke:#222222;stroke-width:2.5;" x1="308.6872" x2="296.3128" y1="112.9144" y2="125.2887"/><path d="M332.5,139.1016 L332.5,147.668 L312.5,151.668 L332.5,155.668 L332.5,164.2344 A0,0 0 0 0 332.5,164.2344 L505.5,164.2344 A0,0 0 0 0 505.5,164.2344 L505.5,149.1016 L495.5,139.1016 L332.5,139.1016 A0,0 0 0 0 332.5,139.1016 " fill="#FEFFDD" style="stroke:#181818;stroke-width:0.5;"/><path d="M495.5,139.1016 L495.5,149.1016 L505.5,149.1016 L495.5,139.1016 " fill="#FEFFDD" style="stroke:#181818;stroke-width:0.5;"/><text fill="#000000" font-family="sans-serif" font-size="13" lengthAdjust="spacing" textLength="152" x="338.5" y="156.1685">List&lt;Atom&gt;getAtoms()</text><ellipse cx="302.5" cy="151.668" fill="#222222" rx="10" ry="10" style="stroke:#222222;stroke-width:1.0;"/><rect fill="#F1F1F1" height="33.9688" rx="12.5" ry="12.5" style="stroke:#181818;stroke-width:0.5;" width="303" x="151" y="184.2344"/><text fill="#000000" font-family="sans-serif" font-size="12" lengthAdjust="spacing" textLength="283" x="161" y="205.373">return Collections.&lt;Atom&gt;singletonList(this);</text><ellipse cx="302.5" cy="249.2031" fill="none" rx="11" ry="11" style="stroke:#222222;stroke-width:1.0;"/><ellipse cx="302.5" cy="249.2031" fill="#222222" rx="6" ry="6" style="stroke:#111111;stroke-width:1.0;"/><ellipse cx="302.5" cy="280.2031" fill="none" rx="10" ry="10" style="stroke:#222222;stroke-width:1.5;"/><line style="stroke:#222222;stroke-width:2.5;" x1="296.3128" x2="308.6872" y1="274.0159" y2="286.3903"/><line style="stroke:#222222;stroke-width:2.5;" x1="308.6872" x2="296.3128" y1="274.0159" y2="286.3903"/><path d="M332.5,300.2031 L332.5,308.7695 L312.5,312.7695 L332.5,316.7695 L332.5,325.3359 A0,0 0 0 0 332.5,325.3359 L473.5,325.3359 A0,0 0 0 0 473.5,325.3359 L473.5,310.2031 L463.5,300.2031 L332.5,300.2031 A0,0 0 0 0 332.5,300.2031 " fill="#FEFFDD" style="stroke:#181818;stroke-width:0.5;"/><path d="M463.5,300.2031 L463.5,310.2031 L473.5,310.2031 L463.5,300.2031 " fill="#FEFFDD" style="stroke:#181818;stroke-width:0.5;"/><text fill="#000000" font-family="sans-serif" font-size="13" lengthAdjust="spacing" textLength="120" x="338.5" y="317.27">AtomgetLHeader()</text><ellipse cx="302.5" cy="312.7695" fill="#222222" rx="10" ry="10" style="stroke:#222222;stroke-width:1.0;"/><rect fill="#F1F1F1" height="33.9688" rx="12.5" ry="12.5" style="stroke:#181818;stroke-width:0.5;" width="93" x="256" y="345.3359"/><text fill="#000000" font-family="sans-serif" font-size="12" lengthAdjust="spacing" textLength="73" x="266" y="366.4746">return null ;</text><ellipse cx="302.5" cy="410.3047" fill="none" rx="11" ry="11" style="stroke:#222222;stroke-width:1.0;"/><ellipse cx="302.5" cy="410.3047" fill="#222222" rx="6" ry="6" style="stroke:#111111;stroke-width:1.0;"/><ellipse cx="302.5" cy="441.3047" fill="none" rx="10" ry="10" style="stroke:#222222;stroke-width:1.5;"/><line style="stroke:#222222;stroke-width:2.5;" x1="296.3128" x2="308.6872" y1="435.1175" y2="447.4919"/><line style="stroke:#222222;stroke-width:2.5;" x1="308.6872" x2="296.3128" y1="435.1175" y2="447.4919"/><path d="M332.5,461.3047 L332.5,469.8711 L312.5,473.8711 L332.5,477.8711 L332.5,486.4375 A0,0 0 0 0 332.5,486.4375 L638.5,486.4375 A0,0 0 0 0 638.5,486.4375 L638.5,471.3047 L628.5,461.3047 L332.5,461.3047 A0,0 0 0 0 332.5,461.3047 " fill="#FEFFDD" style="stroke:#181818;stroke-width:0.5;"/><path d="M628.5,461.3047 L628.5,471.3047 L638.5,471.3047 L628.5,461.3047 " fill="#FEFFDD" style="stroke:#181818;stroke-width:0.5;"/><text fill="#000000" font-family="sans-serif" font-size="13" lengthAdjust="spacing" textLength="285" x="338.5" y="478.3716">booleanaddAndCheckTermination(Stringline)</text><ellipse cx="302.5" cy="473.8711" fill="#222222" rx="10" ry="10" style="stroke:#222222;stroke-width:1.0;"/><rect fill="#F1F1F1" height="33.9688" rx="12.5" ry="12.5" style="stroke:#181818;stroke-width:0.5;" width="156" x="224.5" y="554.8398"/><text fill="#000000" font-family="sans-serif" font-size="12" lengthAdjust="spacing" textLength="136" x="234.5" y="575.9785">this.terminated=true;</text><rect fill="#F1F1F1" height="33.9688" rx="12.5" ry="12.5" style="stroke:#181818;stroke-width:0.5;" width="93" x="256" y="608.8086"/><text fill="#000000" font-family="sans-serif" font-size="12" lengthAdjust="spacing" textLength="73" x="266" y="629.9473">return true;</text><ellipse cx="302.5" cy="673.7773" fill="none" rx="11" ry="11" style="stroke:#222222;stroke-width:1.0;"/><ellipse cx="302.5" cy="673.7773" fill="#222222" rx="6" ry="6" style="stroke:#111111;stroke-width:1.0;"/><polygon fill="#F1F1F1" points="237.5,506.4375,367.5,506.4375,379.5,518.4375,367.5,530.4375,237.5,530.4375,225.5,518.4375,237.5,506.4375" style="stroke:#181818;stroke-width:0.5;"/><text fill="#000000" font-family="sans-serif" font-size="11" lengthAdjust="spacing" textLength="20" x="306.5" y="540.6479">yes</text><text fill="#000000" font-family="sans-serif" font-size="11" lengthAdjust="spacing" textLength="130" x="237.5" y="522.2456">Parser.isCodeEnd(line)</text><rect fill="#F1F1F1" height="33.9688" rx="12.5" ry="12.5" style="stroke:#181818;stroke-width:0.5;" width="133" x="236" y="726.7773"/><text fill="#000000" font-family="sans-serif" font-size="12" lengthAdjust="spacing" textLength="113" x="246" y="747.916">this.raw.add(line);</text><rect fill="#F1F1F1" height="33.9688" rx="12.5" ry="12.5" style="stroke:#181818;stroke-width:0.5;" width="97" x="254" y="780.7461"/><text fill="#000000" font-family="sans-serif" font-size="12" lengthAdjust="spacing" textLength="77" x="264" y="801.8848">return false;</text><ellipse cx="302.5" cy="845.7148" fill="none" rx="11" ry="11" style="stroke:#222222;stroke-width:1.0;"/><ellipse cx="302.5" cy="845.7148" fill="#222222" rx="6" ry="6" style="stroke:#111111;stroke-width:1.0;"/><ellipse cx="302.5" cy="876.7148" fill="none" rx="10" ry="10" style="stroke:#222222;stroke-width:1.5;"/><line style="stroke:#222222;stroke-width:2.5;" x1="296.3128" x2="308.6872" y1="870.5277" y2="882.902"/><line style="stroke:#222222;stroke-width:2.5;" x1="308.6872" x2="296.3128" y1="870.5277" y2="882.902"/><path d="M332.5,896.7148 L332.5,905.2813 L312.5,909.2813 L332.5,913.2813 L332.5,921.8477 A0,0 0 0 0 332.5,921.8477 L497.5,921.8477 A0,0 0 0 0 497.5,921.8477 L497.5,906.7148 L487.5,896.7148 L332.5,896.7148 A0,0 0 0 0 332.5,896.7148 " fill="#FEFFDD" style="stroke:#181818;stroke-width:0.5;"/><path d="M487.5,896.7148 L487.5,906.7148 L497.5,906.7148 L487.5,896.7148 " fill="#FEFFDD" style="stroke:#181818;stroke-width:0.5;"/><text fill="#000000" font-family="sans-serif" font-size="13" lengthAdjust="spacing" textLength="144" x="338.5" y="913.7817">booleanisTerminated()</text><ellipse cx="302.5" cy="909.2813" fill="#222222" rx="10" ry="10" style="stroke:#222222;stroke-width:1.0;"/><rect fill="#F1F1F1" height="33.9688" rx="12.5" ry="12.5" style="stroke:#181818;stroke-width:0.5;" width="136" x="234.5" y="941.8477"/><text fill="#000000" font-family="sans-serif" font-size="12" lengthAdjust="spacing" textLength="116" x="244.5" y="962.9863">return terminated;</text><ellipse cx="302.5" cy="1006.8164" fill="none" rx="11" ry="11" style="stroke:#222222;stroke-width:1.0;"/><ellipse cx="302.5" cy="1006.8164" fill="#222222" rx="6" ry="6" style="stroke:#111111;stroke-width:1.0;"/><ellipse cx="302.5" cy="1037.8164" fill="none" rx="10" ry="10" style="stroke:#222222;stroke-width:1.5;"/><line style="stroke:#222222;stroke-width:2.5;" x1="296.3128" x2="308.6872" y1="1031.6292" y2="1044.0036"/><line style="stroke:#222222;stroke-width:2.5;" x1="308.6872" x2="296.3128" y1="1031.6292" y2="1044.0036"/><path d="M332.5,1057.8164 L332.5,1066.3828 L312.5,1070.3828 L332.5,1074.3828 L332.5,1082.9492 A0,0 0 0 0 332.5,1082.9492 L764.5,1082.9492 A0,0 0 0 0 764.5,1082.9492 L764.5,1067.8164 L754.5,1057.8164 L332.5,1057.8164 A0,0 0 0 0 332.5,1057.8164 " fill="#FEFFDD" style="stroke:#181818;stroke-width:0.5;"/><path d="M754.5,1057.8164 L754.5,1067.8164 L764.5,1067.8164 L754.5,1057.8164 " fill="#FEFFDD" style="stroke:#181818;stroke-width:0.5;"/><text fill="#000000" font-family="sans-serif" font-size="13" lengthAdjust="spacing" textLength="411" x="338.5" y="1074.8833">XDimension2DcalculateDimension(StringBounderstringBounder)</text><ellipse cx="302.5" cy="1070.3828" fill="#222222" rx="10" ry="10" style="stroke:#222222;stroke-width:1.0;"/><rect fill="#F1F1F1" height="33.9688" rx="12.5" ry="12.5" style="stroke:#181818;stroke-width:0.5;" width="118" x="243.5" y="1102.9492"/><text fill="#000000" font-family="sans-serif" font-size="12" lengthAdjust="spacing" textLength="98" x="253.5" y="1124.0879">doublewidth=0;</text><rect fill="#F1F1F1" height="33.9688" rx="12.5" ry="12.5" style="stroke:#181818;stroke-width:0.5;" width="125" x="240" y="1156.918"/><text fill="#000000" font-family="sans-serif" font-size="12" lengthAdjust="spacing" textLength="105" x="250" y="1178.0566">doubleheight=0;</text><rect fill="#F1F1F1" height="33.9688" rx="12.5" ry="12.5" style="stroke:#181818;stroke-width:0.5;" width="583" x="11" y="1210.8867"/><text fill="#000000" font-family="sans-serif" font-size="12" lengthAdjust="spacing" textLength="563" x="21" y="1232.0254">final XDimension2Ddim=stringBounder.calculateDimension(fontConfiguration.getFont(),s);</text><rect fill="#F1F1F1" height="33.9688" rx="12.5" ry="12.5" style="stroke:#181818;stroke-width:0.5;" width="266" x="169.5" y="1264.8555"/><text fill="#000000" font-family="sans-serif" font-size="12" lengthAdjust="spacing" textLength="246" x="179.5" y="1285.9941">width=Math.max(width,dim.getWidth());</text><rect fill="#F1F1F1" height="33.9688" rx="12.5" ry="12.5" style="stroke:#181818;stroke-width:0.5;" width="182" x="211.5" y="1318.8242"/><text fill="#000000" font-family="sans-serif" font-size="12" lengthAdjust="spacing" textLength="162" x="221.5" y="1339.9629">height+=dim.getHeight();</text><rect fill="#F1F1F1" height="33.9688" rx="12.5" ry="12.5" style="stroke:#181818;stroke-width:0.5;" width="272" x="166.5" y="1372.793"/><text fill="#000000" font-family="sans-serif" font-size="12" lengthAdjust="spacing" textLength="252" x="176.5" y="1393.9316">return new XDimension2D(width,height);</text><ellipse cx="302.5" cy="1437.7617" fill="none" rx="11" ry="11" style="stroke:#222222;stroke-width:1.0;"/><ellipse cx="302.5" cy="1437.7617" fill="#222222" rx="6" ry="6" style="stroke:#111111;stroke-width:1.0;"/><ellipse cx="302.5" cy="1468.7617" fill="none" rx="10" ry="10" style="stroke:#222222;stroke-width:1.5;"/><line style="stroke:#222222;stroke-width:2.5;" x1="296.3128" x2="308.6872" y1="1462.5745" y2="1474.9489"/><line style="stroke:#222222;stroke-width:2.5;" x1="308.6872" x2="296.3128" y1="1462.5745" y2="1474.9489"/><path d="M332.5,1488.7617 L332.5,1497.3281 L312.5,1501.3281 L332.5,1505.3281 L332.5,1513.8945 A0,0 0 0 0 332.5,1513.8945 L709.5,1513.8945 A0,0 0 0 0 709.5,1513.8945 L709.5,1498.7617 L699.5,1488.7617 L332.5,1488.7617 A0,0 0 0 0 332.5,1488.7617 " fill="#FEFFDD" style="stroke:#181818;stroke-width:0.5;"/><path d="M699.5,1488.7617 L699.5,1498.7617 L709.5,1498.7617 L699.5,1488.7617 " fill="#FEFFDD" style="stroke:#181818;stroke-width:0.5;"/><text fill="#000000" font-family="sans-serif" font-size="13" lengthAdjust="spacing" textLength="356" x="338.5" y="1505.8286">doublegetStartingAltitude(StringBounderstringBounder)</text><ellipse cx="302.5" cy="1501.3281" fill="#222222" rx="10" ry="10" style="stroke:#222222;stroke-width:1.0;"/><rect fill="#F1F1F1" height="33.9688" rx="12.5" ry="12.5" style="stroke:#181818;stroke-width:0.5;" width="75" x="265" y="1533.8945"/><text fill="#000000" font-family="sans-serif" font-size="12" lengthAdjust="spacing" textLength="55" x="275" y="1555.0332">return 0;</text><ellipse cx="302.5" cy="1598.8633" fill="none" rx="11" ry="11" style="stroke:#222222;stroke-width:1.0;"/><ellipse cx="302.5" cy="1598.8633" fill="#222222" rx="6" ry="6" style="stroke:#111111;stroke-width:1.0;"/><ellipse cx="302.5" cy="1629.8633" fill="none" rx="10" ry="10" style="stroke:#222222;stroke-width:1.5;"/><line style="stroke:#222222;stroke-width:2.5;" x1="296.3128" x2="308.6872" y1="1623.6761" y2="1636.0505"/><line style="stroke:#222222;stroke-width:2.5;" x1="308.6872" x2="296.3128" y1="1623.6761" y2="1636.0505"/><path d="M332.5,1649.8633 L332.5,1658.4297 L312.5,1662.4297 L332.5,1666.4297 L332.5,1674.9961 A0,0 0 0 0 332.5,1674.9961 L508.5,1674.9961 A0,0 0 0 0 508.5,1674.9961 L508.5,1659.8633 L498.5,1649.8633 L332.5,1649.8633 A0,0 0 0 0 332.5,1649.8633 " fill="#FEFFDD" style="stroke:#181818;stroke-width:0.5;"/><path d="M498.5,1649.8633 L498.5,1659.8633 L508.5,1659.8633 L498.5,1649.8633 " fill="#FEFFDD" style="stroke:#181818;stroke-width:0.5;"/><text fill="#000000" font-family="sans-serif" font-size="13" lengthAdjust="spacing" textLength="155" x="338.5" y="1666.9302">void drawU(UGraphicug)</text><ellipse cx="302.5" cy="1662.4297" fill="#222222" rx="10" ry="10" style="stroke:#222222;stroke-width:1.0;"/><rect fill="#F1F1F1" height="33.9688" rx="12.5" ry="12.5" style="stroke:#181818;stroke-width:0.5;" width="91" x="257" y="1694.9961"/><text fill="#000000" font-family="sans-serif" font-size="12" lengthAdjust="spacing" textLength="71" x="267" y="1716.1348">doubley=0;</text><rect fill="#F1F1F1" height="33.9688" rx="12.5" ry="12.5" style="stroke:#181818;stroke-width:0.5;" width="332" x="136.5" y="1748.9648"/><text fill="#000000" font-family="sans-serif" font-size="12" lengthAdjust="spacing" textLength="312" x="146.5" y="1770.1035">final UTextshape=new UText(s,fontConfiguration);</text><rect fill="#F1F1F1" height="33.9688" rx="12.5" ry="12.5" style="stroke:#181818;stroke-width:0.5;" width="384" x="110.5" y="1802.9336"/><text fill="#000000" font-family="sans-serif" font-size="12" lengthAdjust="spacing" textLength="364" x="120.5" y="1824.0723">final StringBounderstringBounder=ug.getStringBounder();</text><rect fill="#F1F1F1" height="33.9688" rx="12.5" ry="12.5" style="stroke:#181818;stroke-width:0.5;" width="583" x="11" y="1856.9023"/><text fill="#000000" font-family="sans-serif" font-size="12" lengthAdjust="spacing" textLength="563" x="21" y="1878.041">final XDimension2Ddim=stringBounder.calculateDimension(fontConfiguration.getFont(),s);</text><rect fill="#F1F1F1" height="33.9688" rx="12.5" ry="12.5" style="stroke:#181818;stroke-width:0.5;" width="148" x="228.5" y="1910.8711"/><text fill="#000000" font-family="sans-serif" font-size="12" lengthAdjust="spacing" textLength="128" x="238.5" y="1932.0098">y+=dim.getHeight();</text><rect fill="#F1F1F1" height="47.9375" rx="12.5" ry="12.5" style="stroke:#181818;stroke-width:0.5;" width="404" x="100.5" y="1964.8398"/><text fill="#000000" font-family="sans-serif" font-size="12" lengthAdjust="spacing" textLength="384" x="110.5" y="1985.9785">ug.apply(UTranslate.dy(y-shape.getDescent(stringBounder)))</text><text fill="#000000" font-family="sans-serif" font-size="12" lengthAdjust="spacing" textLength="87" x="110.5" y="1999.9473">.draw(shape);</text><ellipse cx="302.5" cy="2042.7773" fill="none" rx="10" ry="10" style="stroke:#222222;stroke-width:1.5;"/><line style="stroke:#222222;stroke-width:2.5;" x1="296.3128" x2="308.6872" y1="2036.5902" y2="2048.9645"/><line style="stroke:#222222;stroke-width:2.5;" x1="308.6872" x2="296.3128" y1="2036.5902" y2="2048.9645"/><path d="M332.5,2062.7773 L332.5,2078.9102 L312.5,2082.9102 L332.5,2086.9102 L332.5,2103.043 A0,0 0 0 0 332.5,2103.043 L684.5,2103.043 A0,0 0 0 0 684.5,2103.043 L684.5,2072.7773 L674.5,2062.7773 L332.5,2062.7773 A0,0 0 0 0 332.5,2062.7773 " fill="#FEFFDD" style="stroke:#181818;stroke-width:0.5;"/><path d="M674.5,2062.7773 L674.5,2072.7773 L684.5,2072.7773 L674.5,2062.7773 " fill="#FEFFDD" style="stroke:#181818;stroke-width:0.5;"/><text fill="#000000" font-family="sans-serif" font-size="13" lengthAdjust="spacing" textLength="331" x="338.5" y="2079.8442">List&lt;Atom&gt;splitInTwo(StringBounderstringBounder,</text><text fill="#000000" font-family="sans-serif" font-size="13" lengthAdjust="spacing" textLength="81" x="338.5" y="2094.9771">doublewidth)</text><ellipse cx="302.5" cy="2082.9102" fill="#222222" rx="10" ry="10" style="stroke:#222222;stroke-width:1.0;"/><rect fill="#F1F1F1" height="33.9688" rx="12.5" ry="12.5" style="stroke:#181818;stroke-width:0.5;" width="221" x="192" y="2123.043"/><text fill="#000000" font-family="sans-serif" font-size="12" lengthAdjust="spacing" textLength="201" x="202" y="2144.1816">return Arrays.asList((Atom)this);</text><ellipse cx="302.5" cy="2188.0117" fill="none" rx="11" ry="11" style="stroke:#222222;stroke-width:1.0;"/><ellipse cx="302.5" cy="2188.0117" fill="#222222" rx="6" ry="6" style="stroke:#111111;stroke-width:1.0;"/><ellipse cx="302.5" cy="2219.0117" fill="none" rx="10" ry="10" style="stroke:#222222;stroke-width:1.5;"/><line style="stroke:#222222;stroke-width:2.5;" x1="296.3128" x2="308.6872" y1="2212.8245" y2="2225.1989"/><line style="stroke:#222222;stroke-width:2.5;" x1="308.6872" x2="296.3128" y1="2212.8245" y2="2225.1989"/><line style="stroke:#181818;stroke-width:1.0;" x1="302.5" x2="302.5" y1="32.5664" y2="55.1328"/><polygon fill="#181818" points="298.5,45.1328,302.5,55.1328,306.5,45.1328,302.5,49.1328" style="stroke:#181818;stroke-width:1.0;"/><line style="stroke:#181818;stroke-width:1.0;" x1="302.5" x2="302.5" y1="89.1016" y2="109.1016"/><polygon fill="#181818" points="298.5,99.1016,302.5,109.1016,306.5,99.1016,302.5,103.1016" style="stroke:#181818;stroke-width:1.0;"/><line style="stroke:#181818;stroke-width:1.0;" x1="302.5" x2="302.5" y1="161.668" y2="184.2344"/><polygon fill="#181818" points="298.5,174.2344,302.5,184.2344,306.5,174.2344,302.5,178.2344" style="stroke:#181818;stroke-width:1.0;"/><line style="stroke:#181818;stroke-width:1.0;" x1="302.5" x2="302.5" y1="218.2031" y2="238.2031"/><polygon fill="#181818" points="298.5,228.2031,302.5,238.2031,306.5,228.2031,302.5,232.2031" style="stroke:#181818;stroke-width:1.0;"/><line style="stroke:#181818;stroke-width:1.0;" x1="302.5" x2="302.5" y1="322.7695" y2="345.3359"/><polygon fill="#181818" points="298.5,335.3359,302.5,345.3359,306.5,335.3359,302.5,339.3359" style="stroke:#181818;stroke-width:1.0;"/><line style="stroke:#181818;stroke-width:1.0;" x1="302.5" x2="302.5" y1="379.3047" y2="399.3047"/><polygon fill="#181818" points="298.5,389.3047,302.5,399.3047,306.5,389.3047,302.5,393.3047" style="stroke:#181818;stroke-width:1.0;"/><line style="stroke:#181818;stroke-width:1.0;" x1="302.5" x2="302.5" y1="588.8086" y2="608.8086"/><polygon fill="#181818" points="298.5,598.8086,302.5,608.8086,306.5,598.8086,302.5,602.8086" style="stroke:#181818;stroke-width:1.0;"/><line style="stroke:#181818;stroke-width:1.0;" x1="302.5" x2="302.5" y1="642.7773" y2="662.7773"/><polygon fill="#181818" points="298.5,652.7773,302.5,662.7773,306.5,652.7773,302.5,656.7773" style="stroke:#181818;stroke-width:1.0;"/><line style="stroke:#181818;stroke-width:1.0;" x1="302.5" x2="302.5" y1="530.4375" y2="554.8398"/><polygon fill="#181818" points="298.5,544.8398,302.5,554.8398,306.5,544.8398,302.5,548.8398" style="stroke:#181818;stroke-width:1.0;"/><line style="stroke:#181818;stroke-width:1.0;" x1="379.5" x2="391.5" y1="518.4375" y2="518.4375"/><polygon fill="#181818" points="387.5,606.8086,391.5,616.8086,395.5,606.8086,391.5,610.8086" style="stroke:#181818;stroke-width:1.0;"/><line style="stroke:#181818;stroke-width:1.0;" x1="391.5" x2="391.5" y1="518.4375" y2="706.7773"/><line style="stroke:#181818;stroke-width:1.0;" x1="391.5" x2="302.5" y1="706.7773" y2="706.7773"/><line style="stroke:#181818;stroke-width:1.0;" x1="302.5" x2="302.5" y1="706.7773" y2="726.7773"/><polygon fill="#181818" points="298.5,716.7773,302.5,726.7773,306.5,716.7773,302.5,720.7773" style="stroke:#181818;stroke-width:1.0;"/><line style="stroke:#181818;stroke-width:1.0;" x1="302.5" x2="302.5" y1="483.8711" y2="506.4375"/><polygon fill="#181818" points="298.5,496.4375,302.5,506.4375,306.5,496.4375,302.5,500.4375" style="stroke:#181818;stroke-width:1.0;"/><line style="stroke:#181818;stroke-width:1.0;" x1="302.5" x2="302.5" y1="760.7461" y2="780.7461"/><polygon fill="#181818" points="298.5,770.7461,302.5,780.7461,306.5,770.7461,302.5,774.7461" style="stroke:#181818;stroke-width:1.0;"/><line style="stroke:#181818;stroke-width:1.0;" x1="302.5" x2="302.5" y1="814.7148" y2="834.7148"/><polygon fill="#181818" points="298.5,824.7148,302.5,834.7148,306.5,824.7148,302.5,828.7148" style="stroke:#181818;stroke-width:1.0;"/><line style="stroke:#181818;stroke-width:1.0;" x1="302.5" x2="302.5" y1="919.2813" y2="941.8477"/><polygon fill="#181818" points="298.5,931.8477,302.5,941.8477,306.5,931.8477,302.5,935.8477" style="stroke:#181818;stroke-width:1.0;"/><line style="stroke:#181818;stroke-width:1.0;" x1="302.5" x2="302.5" y1="975.8164" y2="995.8164"/><polygon fill="#181818" points="298.5,985.8164,302.5,995.8164,306.5,985.8164,302.5,989.8164" style="stroke:#181818;stroke-width:1.0;"/><line style="stroke:#181818;stroke-width:1.0;" x1="302.5" x2="302.5" y1="1080.3828" y2="1102.9492"/><polygon fill="#181818" points="298.5,1092.9492,302.5,1102.9492,306.5,1092.9492,302.5,1096.9492" style="stroke:#181818;stroke-width:1.0;"/><line style="stroke:#181818;stroke-width:1.0;" x1="302.5" x2="302.5" y1="1136.918" y2="1156.918"/><polygon fill="#181818" points="298.5,1146.918,302.5,1156.918,306.5,1146.918,302.5,1150.918" style="stroke:#181818;stroke-width:1.0;"/><line style="stroke:#181818;stroke-width:1.0;" x1="302.5" x2="302.5" y1="1190.8867" y2="1210.8867"/><polygon fill="#181818" points="298.5,1200.8867,302.5,1210.8867,306.5,1200.8867,302.5,1204.8867" style="stroke:#181818;stroke-width:1.0;"/><line style="stroke:#181818;stroke-width:1.0;" x1="302.5" x2="302.5" y1="1244.8555" y2="1264.8555"/><polygon fill="#181818" points="298.5,1254.8555,302.5,1264.8555,306.5,1254.8555,302.5,1258.8555" style="stroke:#181818;stroke-width:1.0;"/><line style="stroke:#181818;stroke-width:1.0;" x1="302.5" x2="302.5" y1="1298.8242" y2="1318.8242"/><polygon fill="#181818" points="298.5,1308.8242,302.5,1318.8242,306.5,1308.8242,302.5,1312.8242" style="stroke:#181818;stroke-width:1.0;"/><line style="stroke:#181818;stroke-width:1.0;" x1="302.5" x2="302.5" y1="1352.793" y2="1372.793"/><polygon fill="#181818" points="298.5,1362.793,302.5,1372.793,306.5,1362.793,302.5,1366.793" style="stroke:#181818;stroke-width:1.0;"/><line style="stroke:#181818;stroke-width:1.0;" x1="302.5" x2="302.5" y1="1406.7617" y2="1426.7617"/><polygon fill="#181818" points="298.5,1416.7617,302.5,1426.7617,306.5,1416.7617,302.5,1420.7617" style="stroke:#181818;stroke-width:1.0;"/><line style="stroke:#181818;stroke-width:1.0;" x1="302.5" x2="302.5" y1="1511.3281" y2="1533.8945"/><polygon fill="#181818" points="298.5,1523.8945,302.5,1533.8945,306.5,1523.8945,302.5,1527.8945" style="stroke:#181818;stroke-width:1.0;"/><line style="stroke:#181818;stroke-width:1.0;" x1="302.5" x2="302.5" y1="1567.8633" y2="1587.8633"/><polygon fill="#181818" points="298.5,1577.8633,302.5,1587.8633,306.5,1577.8633,302.5,1581.8633" style="stroke:#181818;stroke-width:1.0;"/><line style="stroke:#181818;stroke-width:1.0;" x1="302.5" x2="302.5" y1="1672.4297" y2="1694.9961"/><polygon fill="#181818" points="298.5,1684.9961,302.5,1694.9961,306.5,1684.9961,302.5,1688.9961" style="stroke:#181818;stroke-width:1.0;"/><line style="stroke:#181818;stroke-width:1.0;" x1="302.5" x2="302.5" y1="1728.9648" y2="1748.9648"/><polygon fill="#181818" points="298.5,1738.9648,302.5,1748.9648,306.5,1738.9648,302.5,1742.9648" style="stroke:#181818;stroke-width:1.0;"/><line style="stroke:#181818;stroke-width:1.0;" x1="302.5" x2="302.5" y1="1782.9336" y2="1802.9336"/><polygon fill="#181818" points="298.5,1792.9336,302.5,1802.9336,306.5,1792.9336,302.5,1796.9336" style="stroke:#181818;stroke-width:1.0;"/><line style="stroke:#181818;stroke-width:1.0;" x1="302.5" x2="302.5" y1="1836.9023" y2="1856.9023"/><polygon fill="#181818" points="298.5,1846.9023,302.5,1856.9023,306.5,1846.9023,302.5,1850.9023" style="stroke:#181818;stroke-width:1.0;"/><line style="stroke:#181818;stroke-width:1.0;" x1="302.5" x2="302.5" y1="1890.8711" y2="1910.8711"/><polygon fill="#181818" points="298.5,1900.8711,302.5,1910.8711,306.5,1900.8711,302.5,1904.8711" style="stroke:#181818;stroke-width:1.0;"/><line style="stroke:#181818;stroke-width:1.0;" x1="302.5" x2="302.5" y1="1944.8398" y2="1964.8398"/><polygon fill="#181818" points="298.5,1954.8398,302.5,1964.8398,306.5,1954.8398,302.5,1958.8398" style="stroke:#181818;stroke-width:1.0;"/><line style="stroke:#181818;stroke-width:1.0;" x1="302.5" x2="302.5" y1="2012.7773" y2="2032.7773"/><polygon fill="#181818" points="298.5,2022.7773,302.5,2032.7773,306.5,2022.7773,302.5,2026.7773" style="stroke:#181818;stroke-width:1.0;"/><line style="stroke:#181818;stroke-width:1.0;" x1="302.5" x2="302.5" y1="2092.9102" y2="2123.043"/><polygon fill="#181818" points="298.5,2113.043,302.5,2123.043,306.5,2113.043,302.5,2117.043" style="stroke:#181818;stroke-width:1.0;"/><line style="stroke:#181818;stroke-width:1.0;" x1="302.5" x2="302.5" y1="2157.0117" y2="2177.0117"/><polygon fill="#181818" points="298.5,2167.0117,302.5,2177.0117,306.5,2167.0117,302.5,2171.0117" style="stroke:#181818;stroke-width:1.0;"/><!--MD5=[6fca6a682e833b1be77867e413126f8c]
@startuml
!pragma layout smetana
start
note right
constructor StripeCode(FontConfigurationfontConfiguration)
end note
:this.fontConfiguration=fontConfiguration;;
end
start
note right
List<Atom>getAtoms()
end note
:return Collections.<Atom>singletonList(this);;
stop
end
start
note right
AtomgetLHeader()
end note
:return null ;;
stop
end
start
note right
booleanaddAndCheckTermination(Stringline)
end note
if (Parser.isCodeEnd(line)) then (yes) 
:this.terminated=true;;
:return true;;
stop
endif 
:this.raw.add(line);;
:return false;;
stop
end
start
note right
booleanisTerminated()
end note
:return terminated;;
stop
end
start
note right
XDimension2DcalculateDimension(StringBounderstringBounder)
end note
:doublewidth=0;;
:doubleheight=0;;
:final XDimension2Ddim=stringBounder.calculateDimension(fontConfiguration.getFont(),s);;
:width=Math.max(width,dim.getWidth());;
:height+=dim.getHeight();;
:return new XDimension2D(width,height);;
stop
end
start
note right
doublegetStartingAltitude(StringBounderstringBounder)
end note
:return 0;;
stop
end
start
note right
void drawU(UGraphicug)
end note
:doubley=0;;
:final UTextshape=new UText(s,fontConfiguration);;
:final StringBounderstringBounder=ug.getStringBounder();;
:final XDimension2Ddim=stringBounder.calculateDimension(fontConfiguration.getFont(),s);;
:y+=dim.getHeight();;
:ug.apply(UTranslate.dy(y-shape.getDescent(stringBounder)))
.draw(shape);;
end
start
note right
List<Atom>splitInTwo(StringBounderstringBounder,
doublewidth)
end note
:return Arrays.asList((Atom)this);;
stop
end
@enduml

PlantUML version 1.2022.7(Mon Aug 22 17:01:30 UTC 2022)
(GPL source distribution)
Java Runtime: OpenJDK Runtime Environment
JVM: OpenJDK 64-Bit Server VM
Default Encoding: UTF-8
Language: en
Country: null
--></g></svg>