<?xml version="1.0" encoding="UTF-8" standalone="no"?><svg xmlns="http://www.w3.org/2000/svg" xmlns:xlink="http://www.w3.org/1999/xlink" contentStyleType="text/css" height="268px" preserveAspectRatio="none" style="width:591px;height:268px;background:#FFFFFF;" version="1.1" viewBox="0 0 591 268" width="591px" zoomAndPan="magnify"><defs/><g><!--MD5=[aa8f7b917213fcc1c2766e2d59b49067]
cluster java.lang--><g id="cluster_java.lang"><path d="M250.5,6 L320.5,6 A3.75,3.75 0 0 1 323,8.5 L330,28.2969 L339.5,28.2969 A2.5,2.5 0 0 1 342,30.7969 L342,86.5 A2.5,2.5 0 0 1 339.5,89 L250.5,89 A2.5,2.5 0 0 1 248,86.5 L248,8.5 A2.5,2.5 0 0 1 250.5,6 " fill="none" style="stroke:#000000;stroke-width:1.5;"/><line style="stroke:#000000;stroke-width:1.5;" x1="248" x2="330" y1="28.2969" y2="28.2969"/><text fill="#000000" font-family="sans-serif" font-size="14" font-weight="bold" lengthAdjust="spacing" textLength="69" x="252" y="20.9951">java.lang</text></g><!--MD5=[74cd41e6f56dbd786dc16baa88c242c4]
cluster net.sourceforge.plantuml.posimo--><g id="cluster_net.sourceforge.plantuml.posimo"><path d="M8.5,97 L272.5,97 A3.75,3.75 0 0 1 275,99.5 L282,119.2969 L581.5,119.2969 A2.5,2.5 0 0 1 584,121.7969 L584,258.5 A2.5,2.5 0 0 1 581.5,261 L8.5,261 A2.5,2.5 0 0 1 6,258.5 L6,99.5 A2.5,2.5 0 0 1 8.5,97 " fill="none" style="stroke:#000000;stroke-width:1.5;"/><line style="stroke:#000000;stroke-width:1.5;" x1="6" x2="282" y1="119.2969" y2="119.2969"/><text fill="#000000" font-family="sans-serif" font-size="14" font-weight="bold" lengthAdjust="spacing" textLength="263" x="10" y="111.9951">net.sourceforge.plantuml.posimo</text></g><!--MD5=[274ad5661286b626a93603d287cbf95a]
class java.lang.Object--><g id="elem_java.lang.Object"><rect fill="#F1F1F1" height="48" id="java.lang.Object" rx="2.5" ry="2.5" style="stroke:#181818;stroke-width:0.5;" width="77" x="256.5" y="33"/><ellipse cx="271.5" cy="49" fill="#ADD1B2" rx="11" ry="11" style="stroke:#181818;stroke-width:1.0;"/><path d="M274.4688,54.6406 Q273.8906,54.9375 273.25,55.0781 Q272.6094,55.2344 271.9063,55.2344 Q269.4063,55.2344 268.0781,53.5938 Q266.7656,51.9375 266.7656,48.8125 Q266.7656,45.6875 268.0781,44.0313 Q269.4063,42.375 271.9063,42.375 Q272.6094,42.375 273.25,42.5313 Q273.9063,42.6875 274.4688,42.9844 L274.4688,45.7031 Q273.8438,45.125 273.25,44.8594 Q272.6563,44.5781 272.0313,44.5781 Q270.6875,44.5781 270,45.6563 Q269.3125,46.7188 269.3125,48.8125 Q269.3125,50.9063 270,51.9844 Q270.6875,53.0469 272.0313,53.0469 Q272.6563,53.0469 273.25,52.7813 Q273.8438,52.5 274.4688,51.9219 L274.4688,54.6406 Z " fill="#000000"/><text fill="#000000" font-family="sans-serif" font-size="14" lengthAdjust="spacing" textLength="45" x="285.5" y="53.8467">Object</text><line style="stroke:#181818;stroke-width:0.5;" x1="257.5" x2="332.5" y1="65" y2="65"/><line style="stroke:#181818;stroke-width:0.5;" x1="257.5" x2="332.5" y1="73" y2="73"/></g><!--MD5=[eb966b4f129304ec773c3fe697244f39]
class net.sourceforge.plantuml.posimo.MargedBlock--><g id="elem_net.sourceforge.plantuml.posimo.MargedBlock"><rect codeLine="3" fill="#F1F1F1" height="129.4844" id="net.sourceforge.plantuml.posimo.MargedBlock" rx="2.5" ry="2.5" style="stroke:#181818;stroke-width:0.5;" width="562" x="14" y="124"/><ellipse cx="245.75" cy="140" fill="#ADD1B2" rx="11" ry="11" style="stroke:#181818;stroke-width:1.0;"/><path d="M248.7188,145.6406 Q248.1406,145.9375 247.5,146.0781 Q246.8594,146.2344 246.1563,146.2344 Q243.6563,146.2344 242.3281,144.5938 Q241.0156,142.9375 241.0156,139.8125 Q241.0156,136.6875 242.3281,135.0313 Q243.6563,133.375 246.1563,133.375 Q246.8594,133.375 247.5,133.5313 Q248.1563,133.6875 248.7188,133.9844 L248.7188,136.7031 Q248.0938,136.125 247.5,135.8594 Q246.9063,135.5781 246.2813,135.5781 Q244.9375,135.5781 244.25,136.6563 Q243.5625,137.7188 243.5625,139.8125 Q243.5625,141.9063 244.25,142.9844 Q244.9375,144.0469 246.2813,144.0469 Q246.9063,144.0469 247.5,143.7813 Q248.0938,143.5 248.7188,142.9219 L248.7188,145.6406 Z " fill="#000000"/><text fill="#000000" font-family="sans-serif" font-size="14" lengthAdjust="spacing" textLength="90" x="266.25" y="144.8467">MargedBlock</text><line style="stroke:#181818;stroke-width:0.5;" x1="15" x2="575" y1="156" y2="156"/><line style="stroke:#181818;stroke-width:0.5;" x1="15" x2="575" y1="164" y2="164"/><a href="./../../../../../.././qc/src/net/sourceforge/plantuml/posimo/MargedBlock.java.html#51" target="_top" title="./../../../../../.././qc/src/net/sourceforge/plantuml/posimo/MargedBlock.java.html#51" xlink:actuate="onRequest" xlink:href="./../../../../../.././qc/src/net/sourceforge/plantuml/posimo/MargedBlock.java.html#51" xlink:show="new" xlink:title="./../../../../../.././qc/src/net/sourceforge/plantuml/posimo/MargedBlock.java.html#51" xlink:type="simple"><rect fill="#F1F1F1" height="10" style="stroke:none;stroke-width:1.0;" width="20" x="20" y="172.6484"/><ellipse cx="25" cy="177.6484" fill="#84BE84" rx="3" ry="3" style="stroke:#038048;stroke-width:1.0;"/></a><a href="./../../../../../.././qc/src/net/sourceforge/plantuml/posimo/MargedBlock.java.html#51" target="_top" title="./../../../../../.././qc/src/net/sourceforge/plantuml/posimo/MargedBlock.java.html#51" xlink:actuate="onRequest" xlink:href="./../../../../../.././qc/src/net/sourceforge/plantuml/posimo/MargedBlock.java.html#51" xlink:show="new" xlink:title="./../../../../../.././qc/src/net/sourceforge/plantuml/posimo/MargedBlock.java.html#51" xlink:type="simple"><text fill="#000000" font-family="sans-serif" font-size="14" lengthAdjust="spacing" textLength="536" x="34" y="180.9951">MargedBlock(StringBounder;IEntityImageBlock;double;Cluster) : MargedBlock</text></a><a href="./../../../../../.././qc/src/net/sourceforge/plantuml/posimo/MargedBlock.java.html#59" target="_top" title="./../../../../../.././qc/src/net/sourceforge/plantuml/posimo/MargedBlock.java.html#59" xlink:actuate="onRequest" xlink:href="./../../../../../.././qc/src/net/sourceforge/plantuml/posimo/MargedBlock.java.html#59" xlink:show="new" xlink:title="./../../../../../.././qc/src/net/sourceforge/plantuml/posimo/MargedBlock.java.html#59" xlink:type="simple"><rect fill="#F1F1F1" height="10" style="stroke:none;stroke-width:1.0;" width="20" x="20" y="188.9453"/><ellipse cx="25" cy="193.9453" fill="#84BE84" rx="3" ry="3" style="stroke:#038048;stroke-width:1.0;"/></a><a href="./../../../../../.././qc/src/net/sourceforge/plantuml/posimo/MargedBlock.java.html#59" target="_top" title="./../../../../../.././qc/src/net/sourceforge/plantuml/posimo/MargedBlock.java.html#59" xlink:actuate="onRequest" xlink:href="./../../../../../.././qc/src/net/sourceforge/plantuml/posimo/MargedBlock.java.html#59" xlink:show="new" xlink:title="./../../../../../.././qc/src/net/sourceforge/plantuml/posimo/MargedBlock.java.html#59" xlink:type="simple"><text fill="#000000" font-family="sans-serif" font-size="14" lengthAdjust="spacing" textLength="122" x="34" y="197.292">getBlock() : Block</text></a><a href="./../../../../../.././qc/src/net/sourceforge/plantuml/posimo/MargedBlock.java.html#63" target="_top" title="./../../../../../.././qc/src/net/sourceforge/plantuml/posimo/MargedBlock.java.html#63" xlink:actuate="onRequest" xlink:href="./../../../../../.././qc/src/net/sourceforge/plantuml/posimo/MargedBlock.java.html#63" xlink:show="new" xlink:title="./../../../../../.././qc/src/net/sourceforge/plantuml/posimo/MargedBlock.java.html#63" xlink:type="simple"><rect fill="#F1F1F1" height="10" style="stroke:none;stroke-width:1.0;" width="20" x="20" y="205.2422"/><ellipse cx="25" cy="210.2422" fill="#84BE84" rx="3" ry="3" style="stroke:#038048;stroke-width:1.0;"/></a><a href="./../../../../../.././qc/src/net/sourceforge/plantuml/posimo/MargedBlock.java.html#63" target="_top" title="./../../../../../.././qc/src/net/sourceforge/plantuml/posimo/MargedBlock.java.html#63" xlink:actuate="onRequest" xlink:href="./../../../../../.././qc/src/net/sourceforge/plantuml/posimo/MargedBlock.java.html#63" xlink:show="new" xlink:title="./../../../../../.././qc/src/net/sourceforge/plantuml/posimo/MargedBlock.java.html#63" xlink:type="simple"><text fill="#000000" font-family="sans-serif" font-size="14" lengthAdjust="spacing" textLength="209" x="34" y="213.5889">getMarginDecorator() : double</text></a><a href="./../../../../../.././qc/src/net/sourceforge/plantuml/posimo/MargedBlock.java.html#67" target="_top" title="./../../../../../.././qc/src/net/sourceforge/plantuml/posimo/MargedBlock.java.html#67" xlink:actuate="onRequest" xlink:href="./../../../../../.././qc/src/net/sourceforge/plantuml/posimo/MargedBlock.java.html#67" xlink:show="new" xlink:title="./../../../../../.././qc/src/net/sourceforge/plantuml/posimo/MargedBlock.java.html#67" xlink:type="simple"><rect fill="#F1F1F1" height="10" style="stroke:none;stroke-width:1.0;" width="20" x="20" y="221.5391"/><ellipse cx="25" cy="226.5391" fill="#84BE84" rx="3" ry="3" style="stroke:#038048;stroke-width:1.0;"/></a><a href="./../../../../../.././qc/src/net/sourceforge/plantuml/posimo/MargedBlock.java.html#67" target="_top" title="./../../../../../.././qc/src/net/sourceforge/plantuml/posimo/MargedBlock.java.html#67" xlink:actuate="onRequest" xlink:href="./../../../../../.././qc/src/net/sourceforge/plantuml/posimo/MargedBlock.java.html#67" xlink:show="new" xlink:title="./../../../../../.././qc/src/net/sourceforge/plantuml/posimo/MargedBlock.java.html#67" xlink:type="simple"><text fill="#000000" font-family="sans-serif" font-size="14" lengthAdjust="spacing" textLength="247" x="34" y="229.8857">getImageBlock() : IEntityImageBlock</text></a><a href="./../../../../../.././qc/src/net/sourceforge/plantuml/posimo/MargedBlock.java.html#71" target="_top" title="./../../../../../.././qc/src/net/sourceforge/plantuml/posimo/MargedBlock.java.html#71" xlink:actuate="onRequest" xlink:href="./../../../../../.././qc/src/net/sourceforge/plantuml/posimo/MargedBlock.java.html#71" xlink:show="new" xlink:title="./../../../../../.././qc/src/net/sourceforge/plantuml/posimo/MargedBlock.java.html#71" xlink:type="simple"><rect fill="#F1F1F1" height="10" style="stroke:none;stroke-width:1.0;" width="20" x="20" y="237.8359"/><ellipse cx="25" cy="242.8359" fill="#84BE84" rx="3" ry="3" style="stroke:#038048;stroke-width:1.0;"/></a><a href="./../../../../../.././qc/src/net/sourceforge/plantuml/posimo/MargedBlock.java.html#71" target="_top" title="./../../../../../.././qc/src/net/sourceforge/plantuml/posimo/MargedBlock.java.html#71" xlink:actuate="onRequest" xlink:href="./../../../../../.././qc/src/net/sourceforge/plantuml/posimo/MargedBlock.java.html#71" xlink:show="new" xlink:title="./../../../../../.././qc/src/net/sourceforge/plantuml/posimo/MargedBlock.java.html#71" xlink:type="simple"><text fill="#000000" font-family="sans-serif" font-size="14" lengthAdjust="spacing" textLength="227" x="34" y="246.1826">getImagePosition() : Positionable</text></a></g><path d="M295,81.152 C295,93.2288 295,108.6536 295,123.9859 " fill="none" style="stroke:#181818;stroke-width:1.0;"/><polygon fill="#FFFFFF" points="295,81.152,289,97.152,301,97.152,295,81.152" style="stroke:#181818;stroke-width:1.0;"/><!--MD5=[917eac5bc2943d32d6fe88535113e74b]
@startuml
!pragma layout smetana
"java.lang.Object" <|- - "net.sourceforge.plantuml.posimo.MargedBlock"
class net.sourceforge.plantuml.posimo.MargedBlock {
+MargedBlock(StringBounder;IEntityImageBlock;double;Cluster) : MargedBlock [[[./../../../../../.././qc/src/net/sourceforge/plantuml/posimo/MargedBlock.java.html#51]]]
+getBlock() : Block [[[./../../../../../.././qc/src/net/sourceforge/plantuml/posimo/MargedBlock.java.html#59]]]
+getMarginDecorator() : double [[[./../../../../../.././qc/src/net/sourceforge/plantuml/posimo/MargedBlock.java.html#63]]]
+getImageBlock() : IEntityImageBlock [[[./../../../../../.././qc/src/net/sourceforge/plantuml/posimo/MargedBlock.java.html#67]]]
+getImagePosition() : Positionable [[[./../../../../../.././qc/src/net/sourceforge/plantuml/posimo/MargedBlock.java.html#71]]]
} 
@enduml

PlantUML version 1.2022.7(Mon Aug 22 17:01:30 UTC 2022)
(GPL source distribution)
Java Runtime: OpenJDK Runtime Environment
JVM: OpenJDK 64-Bit Server VM
Default Encoding: UTF-8
Language: en
Country: null
--></g></svg>