<?xml version="1.0" encoding="UTF-8" standalone="no"?><svg xmlns="http://www.w3.org/2000/svg" xmlns:xlink="http://www.w3.org/1999/xlink" contentStyleType="text/css" height="1203px" preserveAspectRatio="none" style="width:1199px;height:1203px;background:#FFFFFF;" version="1.1" viewBox="0 0 1199 1203" width="1199px" zoomAndPan="magnify"><defs/><g><path d="M629.5,10 L629.5,18.5664 L609.5,22.5664 L629.5,26.5664 L629.5,35.1328 A0,0 0 0 0 629.5,35.1328 L822.5,35.1328 A0,0 0 0 0 822.5,35.1328 L822.5,20 L812.5,10 L629.5,10 A0,0 0 0 0 629.5,10 " fill="#FEFFDD" style="stroke:#181818;stroke-width:0.5;"/><path d="M812.5,10 L812.5,20 L822.5,20 L812.5,10 " fill="#FEFFDD" style="stroke:#181818;stroke-width:0.5;"/><text fill="#000000" font-family="sans-serif" font-size="13" lengthAdjust="spacing" textLength="172" x="635.5" y="27.0669">constructor CommandUrl()</text><ellipse cx="599.5" cy="22.5664" fill="#222222" rx="10" ry="10" style="stroke:#222222;stroke-width:1.0;"/><rect fill="#F1F1F1" height="33.9688" rx="12.5" ry="12.5" style="stroke:#181818;stroke-width:0.5;" width="187" x="506" y="55.1328"/><text fill="#000000" font-family="sans-serif" font-size="12" lengthAdjust="spacing" textLength="167" x="516" y="76.2715">super (getRegexConcat());</text><ellipse cx="599.5" cy="119.1016" fill="none" rx="10" ry="10" style="stroke:#222222;stroke-width:1.5;"/><line style="stroke:#222222;stroke-width:2.5;" x1="593.3128" x2="605.6872" y1="112.9144" y2="125.2887"/><line style="stroke:#222222;stroke-width:2.5;" x1="605.6872" x2="593.3128" y1="112.9144" y2="125.2887"/><path d="M629.5,139.1016 L629.5,147.668 L609.5,151.668 L629.5,155.668 L629.5,164.2344 A0,0 0 0 0 629.5,164.2344 L811.5,164.2344 A0,0 0 0 0 811.5,164.2344 L811.5,149.1016 L801.5,139.1016 L629.5,139.1016 A0,0 0 0 0 629.5,139.1016 " fill="#FEFFDD" style="stroke:#181818;stroke-width:0.5;"/><path d="M801.5,139.1016 L801.5,149.1016 L811.5,149.1016 L801.5,139.1016 " fill="#FEFFDD" style="stroke:#181818;stroke-width:0.5;"/><text fill="#000000" font-family="sans-serif" font-size="13" lengthAdjust="spacing" textLength="161" x="635.5" y="156.1685">IRegex getRegexConcat()</text><ellipse cx="599.5" cy="151.668" fill="#222222" rx="10" ry="10" style="stroke:#222222;stroke-width:1.0;"/><rect fill="#F1F1F1" height="75.875" rx="12.5" ry="12.5" style="stroke:#181818;stroke-width:0.5;" width="1149" x="25" y="184.2344"/><text fill="#000000" font-family="sans-serif" font-size="12" lengthAdjust="spacing" textLength="358" x="35" y="205.373">return RegexConcat.build(CommandUrl.class .getName(),</text><text fill="#000000" font-family="sans-serif" font-size="12" lengthAdjust="spacing" textLength="1129" x="35" y="219.3418">RegexLeaf.start(),new RegexLeaf("url"),RegexLeaf.spaceZeroOrMore(),new RegexOptional(new RegexLeaf("of|for")),RegexLeaf.spaceOneOrMore(),new RegexLeaf("CODE","([%pLN_.]+</text><text fill="#000000" font-family="sans-serif" font-size="12" lengthAdjust="spacing" textLength="931" x="35" y="233.3105">|[%g][^%g]+[%g])"),RegexLeaf.spaceOneOrMore(),new RegexOptional(new RegexLeaf("is")),RegexLeaf.spaceZeroOrMore(),new RegexLeaf("URL","("+</text><text fill="#000000" font-family="sans-serif" font-size="12" lengthAdjust="spacing" textLength="286" x="35" y="247.2793">UrlBuilder.getRegexp()+")"),RegexLeaf.end());</text><ellipse cx="599.5" cy="291.1094" fill="none" rx="11" ry="11" style="stroke:#222222;stroke-width:1.0;"/><ellipse cx="599.5" cy="291.1094" fill="#222222" rx="6" ry="6" style="stroke:#111111;stroke-width:1.0;"/><ellipse cx="599.5" cy="322.1094" fill="none" rx="10" ry="10" style="stroke:#222222;stroke-width:1.5;"/><line style="stroke:#222222;stroke-width:2.5;" x1="593.3128" x2="605.6872" y1="315.9222" y2="328.2966"/><line style="stroke:#222222;stroke-width:2.5;" x1="605.6872" x2="593.3128" y1="315.9222" y2="328.2966"/><path d="M629.5,342.1094 L629.5,358.2422 L609.5,362.2422 L629.5,366.2422 L629.5,382.375 A0,0 0 0 0 629.5,382.375 L1106.5,382.375 A0,0 0 0 0 1106.5,382.375 L1106.5,352.1094 L1096.5,342.1094 L629.5,342.1094 A0,0 0 0 0 629.5,342.1094 " fill="#FEFFDD" style="stroke:#181818;stroke-width:0.5;"/><path d="M1096.5,342.1094 L1096.5,352.1094 L1106.5,352.1094 L1096.5,342.1094 " fill="#FEFFDD" style="stroke:#181818;stroke-width:0.5;"/><text fill="#000000" font-family="sans-serif" font-size="13" lengthAdjust="spacing" textLength="456" x="635.5" y="359.1763">CommandExecutionResult executeArg(AbstractEntityDiagram diagram,</text><text fill="#000000" font-family="sans-serif" font-size="13" lengthAdjust="spacing" textLength="246" x="635.5" y="374.3091">LineLocation location,RegexResult arg)</text><ellipse cx="599.5" cy="362.2422" fill="#222222" rx="10" ry="10" style="stroke:#222222;stroke-width:1.0;"/><rect fill="#F1F1F1" height="33.9688" rx="12.5" ry="12.5" style="stroke:#181818;stroke-width:0.5;" width="262" x="468.5" y="402.375"/><text fill="#000000" font-family="sans-serif" font-size="12" lengthAdjust="spacing" textLength="242" x="478.5" y="423.5137">final String idShort=arg.get("CODE",0);</text><rect fill="#F1F1F1" height="33.9688" rx="12.5" ry="12.5" style="stroke:#181818;stroke-width:0.5;" width="330" x="434.5" y="456.3438"/><text fill="#000000" font-family="sans-serif" font-size="12" lengthAdjust="spacing" textLength="310" x="444.5" y="477.4824">final Ident ident=diagram.buildLeafIdent(idShort);</text><rect fill="#F1F1F1" height="33.9688" rx="12.5" ry="12.5" style="stroke:#181818;stroke-width:0.5;" width="454" x="372.5" y="510.3125"/><text fill="#000000" font-family="sans-serif" font-size="12" lengthAdjust="spacing" textLength="434" x="382.5" y="531.4512">final Code code=diagram.V1972()? ident:diagram.buildCode(idShort);</text><rect fill="#F1F1F1" height="33.9688" rx="12.5" ry="12.5" style="stroke:#181818;stroke-width:0.5;" width="259" x="470" y="564.2813"/><text fill="#000000" font-family="sans-serif" font-size="12" lengthAdjust="spacing" textLength="239" x="480" y="585.4199">final String urlString=arg.get("URL",0);</text><rect fill="#F1F1F1" height="33.9688" rx="12.5" ry="12.5" style="stroke:#181818;stroke-width:0.5;" width="131" x="534" y="618.25"/><text fill="#000000" font-family="sans-serif" font-size="12" lengthAdjust="spacing" textLength="111" x="544" y="639.3887">final IEntity entity;</text><rect fill="#F1F1F1" height="33.9688" rx="12.5" ry="12.5" style="stroke:#181818;stroke-width:0.5;" width="624" x="287.5" y="672.2188"/><text fill="#000000" font-family="sans-serif" font-size="12" lengthAdjust="spacing" textLength="604" x="297.5" y="693.3574">final boolean leafExist=diagram.V1972()? diagram.leafExistSmart(ident):diagram.leafExist(code);</text><polygon fill="#F1F1F1" points="136.5,726.1875,184.5,726.1875,196.5,738.1875,184.5,750.1875,136.5,750.1875,124.5,738.1875,136.5,726.1875" style="stroke:#181818;stroke-width:0.5;"/><text fill="#000000" font-family="sans-serif" font-size="11" lengthAdjust="spacing" textLength="20" x="164.5" y="760.3979">yes</text><text fill="#000000" font-family="sans-serif" font-size="11" lengthAdjust="spacing" textLength="48" x="136.5" y="741.9956">leafExist</text><rect fill="#F1F1F1" height="47.9375" rx="12.5" ry="12.5" style="stroke:#181818;stroke-width:0.5;" width="299" x="11" y="782.9922"/><text fill="#000000" font-family="sans-serif" font-size="12" lengthAdjust="spacing" textLength="279" x="21" y="804.1309">entity=diagram.getOrCreateLeaf(ident,code,</text><text fill="#000000" font-family="sans-serif" font-size="12" lengthAdjust="spacing" textLength="65" x="21" y="818.0996">null ,null );</text><polygon fill="#F1F1F1" points="395.5,726.1875,796.5,726.1875,808.5,738.1875,796.5,750.1875,395.5,750.1875,383.5,738.1875,395.5,726.1875" style="stroke:#181818;stroke-width:0.5;"/><text fill="#000000" font-family="sans-serif" font-size="11" lengthAdjust="spacing" textLength="20" x="600" y="760.3979">yes</text><text fill="#000000" font-family="sans-serif" font-size="11" lengthAdjust="spacing" textLength="401" x="395.5" y="741.9956">diagram.V1972()? diagram.isGroupStrict(ident):diagram.isGroup(code)</text><text fill="#000000" font-family="sans-serif" font-size="11" lengthAdjust="spacing" textLength="14" x="808.5" y="735.5933">no</text><rect fill="#F1F1F1" height="33.9688" rx="12.5" ry="12.5" style="stroke:#181818;stroke-width:0.5;" width="532" x="330" y="782.9922"/><text fill="#000000" font-family="sans-serif" font-size="12" lengthAdjust="spacing" textLength="512" x="340" y="804.1309">entity=diagram.V1972()? diagram.getGroupStrict(ident):diagram.getGroup(code);</text><rect fill="#F1F1F1" height="47.9375" rx="12.5" ry="12.5" style="stroke:#181818;stroke-width:0.5;" width="306" x="882" y="765.3887"/><text fill="#000000" font-family="sans-serif" font-size="12" lengthAdjust="spacing" textLength="286" x="892" y="786.5273">return CommandExecutionResult.error(code+</text><text fill="#000000" font-family="sans-serif" font-size="12" lengthAdjust="spacing" textLength="112" x="892" y="800.4961">" does not exist");</text><ellipse cx="1035" cy="859.3262" fill="none" rx="11" ry="11" style="stroke:#222222;stroke-width:1.0;"/><ellipse cx="1035" cy="859.3262" fill="#222222" rx="6" ry="6" style="stroke:#111111;stroke-width:1.0;"/><rect fill="#F1F1F1" height="47.9375" rx="12.5" ry="12.5" style="stroke:#181818;stroke-width:0.5;" width="550" x="324.5" y="910.3262"/><text fill="#000000" font-family="sans-serif" font-size="12" lengthAdjust="spacing" textLength="530" x="334.5" y="931.4648">final UrlBuilder urlBuilder=new UrlBuilder(diagram.getSkinParam().getValue("topurl"),</text><text fill="#000000" font-family="sans-serif" font-size="12" lengthAdjust="spacing" textLength="105" x="334.5" y="945.4336">UrlMode.STRICT);</text><rect fill="#F1F1F1" height="33.9688" rx="12.5" ry="12.5" style="stroke:#181818;stroke-width:0.5;" width="265" x="467" y="978.2637"/><text fill="#000000" font-family="sans-serif" font-size="12" lengthAdjust="spacing" textLength="245" x="477" y="999.4023">final Url url=urlBuilder.getUrl(urlString);</text><rect fill="#F1F1F1" height="33.9688" rx="12.5" ry="12.5" style="stroke:#181818;stroke-width:0.5;" width="130" x="534.5" y="1032.2324"/><text fill="#000000" font-family="sans-serif" font-size="12" lengthAdjust="spacing" textLength="110" x="544.5" y="1053.3711">entity.addUrl(url);</text><rect fill="#F1F1F1" height="33.9688" rx="12.5" ry="12.5" style="stroke:#181818;stroke-width:0.5;" width="258" x="470.5" y="1086.2012"/><text fill="#000000" font-family="sans-serif" font-size="12" lengthAdjust="spacing" textLength="238" x="480.5" y="1107.3398">return CommandExecutionResult.ok();</text><ellipse cx="599.5" cy="1151.1699" fill="none" rx="11" ry="11" style="stroke:#222222;stroke-width:1.0;"/><ellipse cx="599.5" cy="1151.1699" fill="#222222" rx="6" ry="6" style="stroke:#111111;stroke-width:1.0;"/><ellipse cx="599.5" cy="1182.1699" fill="none" rx="10" ry="10" style="stroke:#222222;stroke-width:1.5;"/><line style="stroke:#222222;stroke-width:2.5;" x1="593.3128" x2="605.6872" y1="1175.9827" y2="1188.3571"/><line style="stroke:#222222;stroke-width:2.5;" x1="605.6872" x2="593.3128" y1="1175.9827" y2="1188.3571"/><line style="stroke:#181818;stroke-width:1.0;" x1="599.5" x2="599.5" y1="32.5664" y2="55.1328"/><polygon fill="#181818" points="595.5,45.1328,599.5,55.1328,603.5,45.1328,599.5,49.1328" style="stroke:#181818;stroke-width:1.0;"/><line style="stroke:#181818;stroke-width:1.0;" x1="599.5" x2="599.5" y1="89.1016" y2="109.1016"/><polygon fill="#181818" points="595.5,99.1016,599.5,109.1016,603.5,99.1016,599.5,103.1016" style="stroke:#181818;stroke-width:1.0;"/><line style="stroke:#181818;stroke-width:1.0;" x1="599.5" x2="599.5" y1="161.668" y2="184.2344"/><polygon fill="#181818" points="595.5,174.2344,599.5,184.2344,603.5,174.2344,599.5,178.2344" style="stroke:#181818;stroke-width:1.0;"/><line style="stroke:#181818;stroke-width:1.0;" x1="599.5" x2="599.5" y1="260.1094" y2="280.1094"/><polygon fill="#181818" points="595.5,270.1094,599.5,280.1094,603.5,270.1094,599.5,274.1094" style="stroke:#181818;stroke-width:1.0;"/><line style="stroke:#181818;stroke-width:1.0;" x1="599.5" x2="599.5" y1="372.2422" y2="402.375"/><polygon fill="#181818" points="595.5,392.375,599.5,402.375,603.5,392.375,599.5,396.375" style="stroke:#181818;stroke-width:1.0;"/><line style="stroke:#181818;stroke-width:1.0;" x1="599.5" x2="599.5" y1="436.3438" y2="456.3438"/><polygon fill="#181818" points="595.5,446.3438,599.5,456.3438,603.5,446.3438,599.5,450.3438" style="stroke:#181818;stroke-width:1.0;"/><line style="stroke:#181818;stroke-width:1.0;" x1="599.5" x2="599.5" y1="490.3125" y2="510.3125"/><polygon fill="#181818" points="595.5,500.3125,599.5,510.3125,603.5,500.3125,599.5,504.3125" style="stroke:#181818;stroke-width:1.0;"/><line style="stroke:#181818;stroke-width:1.0;" x1="599.5" x2="599.5" y1="544.2813" y2="564.2813"/><polygon fill="#181818" points="595.5,554.2813,599.5,564.2813,603.5,554.2813,599.5,558.2813" style="stroke:#181818;stroke-width:1.0;"/><line style="stroke:#181818;stroke-width:1.0;" x1="599.5" x2="599.5" y1="598.25" y2="618.25"/><polygon fill="#181818" points="595.5,608.25,599.5,618.25,603.5,608.25,599.5,612.25" style="stroke:#181818;stroke-width:1.0;"/><line style="stroke:#181818;stroke-width:1.0;" x1="599.5" x2="599.5" y1="652.2188" y2="672.2188"/><polygon fill="#181818" points="595.5,662.2188,599.5,672.2188,603.5,662.2188,599.5,666.2188" style="stroke:#181818;stroke-width:1.0;"/><line style="stroke:#181818;stroke-width:1.0;" x1="1035" x2="1035" y1="813.3262" y2="848.3262"/><polygon fill="#181818" points="1031,838.3262,1035,848.3262,1039,838.3262,1035,842.3262" style="stroke:#181818;stroke-width:1.0;"/><line style="stroke:#181818;stroke-width:1.0;" x1="160.5" x2="160.5" y1="750.1875" y2="782.9922"/><polygon fill="#181818" points="156.5,772.9922,160.5,782.9922,164.5,772.9922,160.5,776.9922" style="stroke:#181818;stroke-width:1.0;"/><line style="stroke:#181818;stroke-width:1.0;" x1="160.5" x2="160.5" y1="830.9297" y2="890.3262"/><polygon fill="#181818" points="156.5,880.3262,160.5,890.3262,164.5,880.3262,160.5,884.3262" style="stroke:#181818;stroke-width:1.0;"/><line style="stroke:#181818;stroke-width:1.0;" x1="596" x2="596" y1="750.1875" y2="782.9922"/><polygon fill="#181818" points="592,772.9922,596,782.9922,600,772.9922,596,776.9922" style="stroke:#181818;stroke-width:1.0;"/><line style="stroke:#181818;stroke-width:1.0;" x1="596" x2="596" y1="816.9609" y2="890.3262"/><polygon fill="#181818" points="592,880.3262,596,890.3262,600,880.3262,596,884.3262" style="stroke:#181818;stroke-width:1.0;"/><line style="stroke:#181818;stroke-width:1.0;" x1="196.5" x2="383.5" y1="738.1875" y2="738.1875"/><polygon fill="#181818" points="373.5,734.1875,383.5,738.1875,373.5,742.1875,377.5,738.1875" style="stroke:#181818;stroke-width:1.0;"/><line style="stroke:#181818;stroke-width:1.0;" x1="599.5" x2="599.5" y1="706.1875" y2="711.1875"/><line style="stroke:#181818;stroke-width:1.0;" x1="599.5" x2="160.5" y1="711.1875" y2="711.1875"/><line style="stroke:#181818;stroke-width:1.0;" x1="160.5" x2="160.5" y1="711.1875" y2="726.1875"/><polygon fill="#181818" points="156.5,716.1875,160.5,726.1875,164.5,716.1875,160.5,720.1875" style="stroke:#181818;stroke-width:1.0;"/><line style="stroke:#181818;stroke-width:1.0;" x1="808.5" x2="1035" y1="738.1875" y2="738.1875"/><line style="stroke:#181818;stroke-width:1.0;" x1="1035" x2="1035" y1="738.1875" y2="765.3887"/><polygon fill="#181818" points="1031,755.3887,1035,765.3887,1039,755.3887,1035,759.3887" style="stroke:#181818;stroke-width:1.0;"/><line style="stroke:#181818;stroke-width:1.0;" x1="160.5" x2="599.5" y1="890.3262" y2="890.3262"/><line style="stroke:#181818;stroke-width:1.0;" x1="599.5" x2="599.5" y1="890.3262" y2="910.3262"/><polygon fill="#181818" points="595.5,900.3262,599.5,910.3262,603.5,900.3262,599.5,904.3262" style="stroke:#181818;stroke-width:1.0;"/><line style="stroke:#181818;stroke-width:1.0;" x1="599.5" x2="599.5" y1="958.2637" y2="978.2637"/><polygon fill="#181818" points="595.5,968.2637,599.5,978.2637,603.5,968.2637,599.5,972.2637" style="stroke:#181818;stroke-width:1.0;"/><line style="stroke:#181818;stroke-width:1.0;" x1="599.5" x2="599.5" y1="1012.2324" y2="1032.2324"/><polygon fill="#181818" points="595.5,1022.2324,599.5,1032.2324,603.5,1022.2324,599.5,1026.2324" style="stroke:#181818;stroke-width:1.0;"/><line style="stroke:#181818;stroke-width:1.0;" x1="599.5" x2="599.5" y1="1066.2012" y2="1086.2012"/><polygon fill="#181818" points="595.5,1076.2012,599.5,1086.2012,603.5,1076.2012,599.5,1080.2012" style="stroke:#181818;stroke-width:1.0;"/><line style="stroke:#181818;stroke-width:1.0;" x1="599.5" x2="599.5" y1="1120.1699" y2="1140.1699"/><polygon fill="#181818" points="595.5,1130.1699,599.5,1140.1699,603.5,1130.1699,599.5,1134.1699" style="stroke:#181818;stroke-width:1.0;"/><!--MD5=[eee8b81a607ec8c6b324078e30ff7cca]
@startuml
!pragma layout smetana
start
note right
constructor CommandUrl()
end note
:super (getRegexConcat());;
end
start
note right
IRegex getRegexConcat()
end note
:return RegexConcat.build(CommandUrl.class .getName(),
RegexLeaf.start(),new RegexLeaf("url"),RegexLeaf.spaceZeroOrMore(),new RegexOptional(new RegexLeaf("of|for")),RegexLeaf.spaceOneOrMore(),new RegexLeaf("CODE","([%pLN_.]+
|[%g][^%g]+[%g])"),RegexLeaf.spaceOneOrMore(),new RegexOptional(new RegexLeaf("is")),RegexLeaf.spaceZeroOrMore(),new RegexLeaf("URL","("+
UrlBuilder.getRegexp()+")"),RegexLeaf.end());;
stop
end
start
note right
CommandExecutionResult executeArg(AbstractEntityDiagram diagram,
LineLocation location,RegexResult arg)
end note
:final String idShort=arg.get("CODE",0);;
:final Ident ident=diagram.buildLeafIdent(idShort);;
:final Code code=diagram.V1972()? ident:diagram.buildCode(idShort);;
:final String urlString=arg.get("URL",0);;
:final IEntity entity;;
:final boolean leafExist=diagram.V1972()? diagram.leafExistSmart(ident):diagram.leafExist(code);;
if (leafExist) then (yes) 
:entity=diagram.getOrCreateLeaf(ident,code,
null ,null );;
else if (diagram.V1972()? diagram.isGroupStrict(ident):diagram.isGroup(code)) then (yes) 
:entity=diagram.V1972()? diagram.getGroupStrict(ident):diagram.getGroup(code);;
else (no)
:return CommandExecutionResult.error(code+
" does not exist");;
stop
endif 
:final UrlBuilder urlBuilder=new UrlBuilder(diagram.getSkinParam().getValue("topurl"),
UrlMode.STRICT);;
:final Url url=urlBuilder.getUrl(urlString);;
:entity.addUrl(url);;
:return CommandExecutionResult.ok();;
stop
end
@enduml

PlantUML version 1.2022.7(Mon Aug 22 17:01:30 UTC 2022)
(GPL source distribution)
Java Runtime: OpenJDK Runtime Environment
JVM: OpenJDK 64-Bit Server VM
Default Encoding: UTF-8
Language: en
Country: null
--></g></svg>