<?xml version="1.0" encoding="UTF-8" standalone="no"?><svg xmlns="http://www.w3.org/2000/svg" xmlns:xlink="http://www.w3.org/1999/xlink" contentStyleType="text/css" height="234px" preserveAspectRatio="none" style="width:289px;height:234px;background:#FFFFFF;" version="1.1" viewBox="0 0 289 234" width="289px" zoomAndPan="magnify"><defs/><g><!--MD5=[376fde1ef62e7cbb7b77710407a1a273]
cluster net.sourceforge.plantuml.ebnf--><g id="cluster_net.sourceforge.plantuml.ebnf"><path d="M8.5,63 L251.5,63 A3.75,3.75 0 0 1 254,65.5 L261,85.2969 L279.5,85.2969 A2.5,2.5 0 0 1 282,87.7969 L282,224.5 A2.5,2.5 0 0 1 279.5,227 L8.5,227 A2.5,2.5 0 0 1 6,224.5 L6,65.5 A2.5,2.5 0 0 1 8.5,63 " fill="none" style="stroke:#000000;stroke-width:1.5;"/><line style="stroke:#000000;stroke-width:1.5;" x1="6" x2="261" y1="85.2969" y2="85.2969"/><text fill="#000000" font-family="sans-serif" font-size="14" font-weight="bold" lengthAdjust="spacing" textLength="242" x="10" y="77.9951">net.sourceforge.plantuml.ebnf</text></g><!--MD5=[f7bd852a078e7c7adf6c0a2021e51fe9]
class ETile--><g id="elem_ETile"><rect fill="#F1F1F1" height="48" id="ETile" rx="2.5" ry="2.5" style="stroke:#181818;stroke-width:0.5;" width="65" x="111.5" y="6"/><ellipse cx="126.5" cy="22" fill="#ADD1B2" rx="11" ry="11" style="stroke:#181818;stroke-width:1.0;"/><path d="M129.4688,27.6406 Q128.8906,27.9375 128.25,28.0781 Q127.6094,28.2344 126.9063,28.2344 Q124.4063,28.2344 123.0781,26.5938 Q121.7656,24.9375 121.7656,21.8125 Q121.7656,18.6875 123.0781,17.0313 Q124.4063,15.375 126.9063,15.375 Q127.6094,15.375 128.25,15.5313 Q128.9063,15.6875 129.4688,15.9844 L129.4688,18.7031 Q128.8438,18.125 128.25,17.8594 Q127.6563,17.5781 127.0313,17.5781 Q125.6875,17.5781 125,18.6563 Q124.3125,19.7188 124.3125,21.8125 Q124.3125,23.9063 125,24.9844 Q125.6875,26.0469 127.0313,26.0469 Q127.6563,26.0469 128.25,25.7813 Q128.8438,25.5 129.4688,24.9219 L129.4688,27.6406 Z " fill="#000000"/><text fill="#000000" font-family="sans-serif" font-size="14" lengthAdjust="spacing" textLength="33" x="140.5" y="26.8467">ETile</text><line style="stroke:#181818;stroke-width:0.5;" x1="112.5" x2="175.5" y1="38" y2="38"/><line style="stroke:#181818;stroke-width:0.5;" x1="112.5" x2="175.5" y1="46" y2="46"/></g><!--MD5=[19f1eef01ade3c37c507350085fdbadf]
class net.sourceforge.plantuml.ebnf.ETileEmpty--><g id="elem_net.sourceforge.plantuml.ebnf.ETileEmpty"><rect codeLine="3" fill="#F1F1F1" height="129.4844" id="net.sourceforge.plantuml.ebnf.ETileEmpty" rx="2.5" ry="2.5" style="stroke:#181818;stroke-width:0.5;" width="259" x="14.5" y="90"/><ellipse cx="101.75" cy="106" fill="#ADD1B2" rx="11" ry="11" style="stroke:#181818;stroke-width:1.0;"/><path d="M104.7188,111.6406 Q104.1406,111.9375 103.5,112.0781 Q102.8594,112.2344 102.1563,112.2344 Q99.6563,112.2344 98.3281,110.5938 Q97.0156,108.9375 97.0156,105.8125 Q97.0156,102.6875 98.3281,101.0313 Q99.6563,99.375 102.1563,99.375 Q102.8594,99.375 103.5,99.5313 Q104.1563,99.6875 104.7188,99.9844 L104.7188,102.7031 Q104.0938,102.125 103.5,101.8594 Q102.9063,101.5781 102.2813,101.5781 Q100.9375,101.5781 100.25,102.6563 Q99.5625,103.7188 99.5625,105.8125 Q99.5625,107.9063 100.25,108.9844 Q100.9375,110.0469 102.2813,110.0469 Q102.9063,110.0469 103.5,109.7813 Q104.0938,109.5 104.7188,108.9219 L104.7188,111.6406 Z " fill="#000000"/><text fill="#000000" font-family="sans-serif" font-size="14" lengthAdjust="spacing" textLength="76" x="122.25" y="110.8467">ETileEmpty</text><line style="stroke:#181818;stroke-width:0.5;" x1="15.5" x2="272.5" y1="122" y2="122"/><line style="stroke:#181818;stroke-width:0.5;" x1="15.5" x2="272.5" y1="130" y2="130"/><a href="./../../../../../.././qc/src/net/sourceforge/plantuml/ebnf/ETileEmpty.java.html#44" target="_top" title="./../../../../../.././qc/src/net/sourceforge/plantuml/ebnf/ETileEmpty.java.html#44" xlink:actuate="onRequest" xlink:href="./../../../../../.././qc/src/net/sourceforge/plantuml/ebnf/ETileEmpty.java.html#44" xlink:show="new" xlink:title="./../../../../../.././qc/src/net/sourceforge/plantuml/ebnf/ETileEmpty.java.html#44" xlink:type="simple"><rect fill="#F1F1F1" height="10" style="stroke:none;stroke-width:1.0;" width="20" x="20.5" y="138.6484"/><ellipse cx="25.5" cy="143.6484" fill="#84BE84" rx="3" ry="3" style="stroke:#038048;stroke-width:1.0;"/></a><a href="./../../../../../.././qc/src/net/sourceforge/plantuml/ebnf/ETileEmpty.java.html#44" target="_top" title="./../../../../../.././qc/src/net/sourceforge/plantuml/ebnf/ETileEmpty.java.html#44" xlink:actuate="onRequest" xlink:href="./../../../../../.././qc/src/net/sourceforge/plantuml/ebnf/ETileEmpty.java.html#44" xlink:show="new" xlink:title="./../../../../../.././qc/src/net/sourceforge/plantuml/ebnf/ETileEmpty.java.html#44" xlink:type="simple"><text fill="#000000" font-family="sans-serif" font-size="14" lengthAdjust="spacing" textLength="157" x="34.5" y="146.9951">drawU(UGraphic) : void</text></a><a href="./../../../../../.././qc/src/net/sourceforge/plantuml/ebnf/ETileEmpty.java.html#48" target="_top" title="./../../../../../.././qc/src/net/sourceforge/plantuml/ebnf/ETileEmpty.java.html#48" xlink:actuate="onRequest" xlink:href="./../../../../../.././qc/src/net/sourceforge/plantuml/ebnf/ETileEmpty.java.html#48" xlink:show="new" xlink:title="./../../../../../.././qc/src/net/sourceforge/plantuml/ebnf/ETileEmpty.java.html#48" xlink:type="simple"><rect fill="#F1F1F1" height="10" style="stroke:none;stroke-width:1.0;" width="20" x="20.5" y="154.9453"/><ellipse cx="25.5" cy="159.9453" fill="#84BE84" rx="3" ry="3" style="stroke:#038048;stroke-width:1.0;"/></a><a href="./../../../../../.././qc/src/net/sourceforge/plantuml/ebnf/ETileEmpty.java.html#48" target="_top" title="./../../../../../.././qc/src/net/sourceforge/plantuml/ebnf/ETileEmpty.java.html#48" xlink:actuate="onRequest" xlink:href="./../../../../../.././qc/src/net/sourceforge/plantuml/ebnf/ETileEmpty.java.html#48" xlink:show="new" xlink:title="./../../../../../.././qc/src/net/sourceforge/plantuml/ebnf/ETileEmpty.java.html#48" xlink:type="simple"><text fill="#000000" font-family="sans-serif" font-size="14" lengthAdjust="spacing" textLength="119" x="34.5" y="163.292">push(ETile) : void</text></a><a href="./../../../../../.././qc/src/net/sourceforge/plantuml/ebnf/ETileEmpty.java.html#53" target="_top" title="./../../../../../.././qc/src/net/sourceforge/plantuml/ebnf/ETileEmpty.java.html#53" xlink:actuate="onRequest" xlink:href="./../../../../../.././qc/src/net/sourceforge/plantuml/ebnf/ETileEmpty.java.html#53" xlink:show="new" xlink:title="./../../../../../.././qc/src/net/sourceforge/plantuml/ebnf/ETileEmpty.java.html#53" xlink:type="simple"><rect fill="#F1F1F1" height="10" style="stroke:none;stroke-width:1.0;" width="20" x="20.5" y="171.2422"/><ellipse cx="25.5" cy="176.2422" fill="#84BE84" rx="3" ry="3" style="stroke:#038048;stroke-width:1.0;"/></a><a href="./../../../../../.././qc/src/net/sourceforge/plantuml/ebnf/ETileEmpty.java.html#53" target="_top" title="./../../../../../.././qc/src/net/sourceforge/plantuml/ebnf/ETileEmpty.java.html#53" xlink:actuate="onRequest" xlink:href="./../../../../../.././qc/src/net/sourceforge/plantuml/ebnf/ETileEmpty.java.html#53" xlink:show="new" xlink:title="./../../../../../.././qc/src/net/sourceforge/plantuml/ebnf/ETileEmpty.java.html#53" xlink:type="simple"><text fill="#000000" font-family="sans-serif" font-size="14" lengthAdjust="spacing" textLength="233" x="34.5" y="179.5889">getWidth(StringBounder) : double</text></a><a href="./../../../../../.././qc/src/net/sourceforge/plantuml/ebnf/ETileEmpty.java.html#58" target="_top" title="./../../../../../.././qc/src/net/sourceforge/plantuml/ebnf/ETileEmpty.java.html#58" xlink:actuate="onRequest" xlink:href="./../../../../../.././qc/src/net/sourceforge/plantuml/ebnf/ETileEmpty.java.html#58" xlink:show="new" xlink:title="./../../../../../.././qc/src/net/sourceforge/plantuml/ebnf/ETileEmpty.java.html#58" xlink:type="simple"><rect fill="#F1F1F1" height="10" style="stroke:none;stroke-width:1.0;" width="20" x="20.5" y="187.5391"/><ellipse cx="25.5" cy="192.5391" fill="#84BE84" rx="3" ry="3" style="stroke:#038048;stroke-width:1.0;"/></a><a href="./../../../../../.././qc/src/net/sourceforge/plantuml/ebnf/ETileEmpty.java.html#58" target="_top" title="./../../../../../.././qc/src/net/sourceforge/plantuml/ebnf/ETileEmpty.java.html#58" xlink:actuate="onRequest" xlink:href="./../../../../../.././qc/src/net/sourceforge/plantuml/ebnf/ETileEmpty.java.html#58" xlink:show="new" xlink:title="./../../../../../.././qc/src/net/sourceforge/plantuml/ebnf/ETileEmpty.java.html#58" xlink:type="simple"><text fill="#000000" font-family="sans-serif" font-size="14" lengthAdjust="spacing" textLength="213" x="34.5" y="195.8857">getH1(StringBounder) : double</text></a><a href="./../../../../../.././qc/src/net/sourceforge/plantuml/ebnf/ETileEmpty.java.html#63" target="_top" title="./../../../../../.././qc/src/net/sourceforge/plantuml/ebnf/ETileEmpty.java.html#63" xlink:actuate="onRequest" xlink:href="./../../../../../.././qc/src/net/sourceforge/plantuml/ebnf/ETileEmpty.java.html#63" xlink:show="new" xlink:title="./../../../../../.././qc/src/net/sourceforge/plantuml/ebnf/ETileEmpty.java.html#63" xlink:type="simple"><rect fill="#F1F1F1" height="10" style="stroke:none;stroke-width:1.0;" width="20" x="20.5" y="203.8359"/><ellipse cx="25.5" cy="208.8359" fill="#84BE84" rx="3" ry="3" style="stroke:#038048;stroke-width:1.0;"/></a><a href="./../../../../../.././qc/src/net/sourceforge/plantuml/ebnf/ETileEmpty.java.html#63" target="_top" title="./../../../../../.././qc/src/net/sourceforge/plantuml/ebnf/ETileEmpty.java.html#63" xlink:actuate="onRequest" xlink:href="./../../../../../.././qc/src/net/sourceforge/plantuml/ebnf/ETileEmpty.java.html#63" xlink:show="new" xlink:title="./../../../../../.././qc/src/net/sourceforge/plantuml/ebnf/ETileEmpty.java.html#63" xlink:type="simple"><text fill="#000000" font-family="sans-serif" font-size="14" lengthAdjust="spacing" textLength="213" x="34.5" y="212.1826">getH2(StringBounder) : double</text></a></g><path d="M144,54.0413 C144,64.3681 144,77.1075 144,89.9808 " fill="none" style="stroke:#181818;stroke-width:1.0;"/><polygon fill="#FFFFFF" points="144,54.0413,138,70.0413,150,70.0413,144,54.0413" style="stroke:#181818;stroke-width:1.0;"/><!--MD5=[ad5fea744a8b1c94031cd6ece9c834b7]
@startuml
!pragma layout smetana
"ETile" <|- - "net.sourceforge.plantuml.ebnf.ETileEmpty"
class net.sourceforge.plantuml.ebnf.ETileEmpty {
+drawU(UGraphic) : void [[[./../../../../../.././qc/src/net/sourceforge/plantuml/ebnf/ETileEmpty.java.html#44]]]
+push(ETile) : void [[[./../../../../../.././qc/src/net/sourceforge/plantuml/ebnf/ETileEmpty.java.html#48]]]
+getWidth(StringBounder) : double [[[./../../../../../.././qc/src/net/sourceforge/plantuml/ebnf/ETileEmpty.java.html#53]]]
+getH1(StringBounder) : double [[[./../../../../../.././qc/src/net/sourceforge/plantuml/ebnf/ETileEmpty.java.html#58]]]
+getH2(StringBounder) : double [[[./../../../../../.././qc/src/net/sourceforge/plantuml/ebnf/ETileEmpty.java.html#63]]]
} 
@enduml

PlantUML version 1.2022.7(Mon Aug 22 17:01:30 UTC 2022)
(GPL source distribution)
Java Runtime: OpenJDK Runtime Environment
JVM: OpenJDK 64-Bit Server VM
Default Encoding: UTF-8
Language: en
Country: null
--></g></svg>