<?xml version="1.0" encoding="UTF-8" standalone="no"?><svg xmlns="http://www.w3.org/2000/svg" xmlns:xlink="http://www.w3.org/1999/xlink" contentStyleType="text/css" height="798px" preserveAspectRatio="none" style="width:458px;height:798px;background:#FFFFFF;" version="1.1" viewBox="0 0 458 798" width="458px" zoomAndPan="magnify"><defs/><g><path d="M191,10 L191,18.5664 L171,22.5664 L191,26.5664 L191,35.1328 A0,0 0 0 0 191,35.1328 L446,35.1328 A0,0 0 0 0 446,35.1328 L446,20 L436,10 L191,10 A0,0 0 0 0 191,10 " fill="#FEFFDD" style="stroke:#181818;stroke-width:0.5;"/><path d="M436,10 L436,20 L446,20 L436,10 " fill="#FEFFDD" style="stroke:#181818;stroke-width:0.5;"/><text fill="#000000" font-family="sans-serif" font-size="13" lengthAdjust="spacing" textLength="234" x="197" y="27.0669">constructor ElkBendPoint(Object obj)</text><ellipse cx="161" cy="22.5664" fill="#222222" rx="10" ry="10" style="stroke:#222222;stroke-width:1.0;"/><rect fill="#F1F1F1" height="33.9688" rx="12.5" ry="12.5" style="stroke:#181818;stroke-width:0.5;" width="253" x="34.5" y="55.1328"/><text fill="#000000" font-family="sans-serif" font-size="12" lengthAdjust="spacing" textLength="233" x="44.5" y="76.2715">this.obj=Objects.requireNonNull(obj);</text><ellipse cx="161" cy="119.1016" fill="none" rx="10" ry="10" style="stroke:#222222;stroke-width:1.5;"/><line style="stroke:#222222;stroke-width:2.5;" x1="154.8128" x2="167.1872" y1="112.9144" y2="125.2887"/><line style="stroke:#222222;stroke-width:2.5;" x1="167.1872" x2="154.8128" y1="112.9144" y2="125.2887"/><path d="M191,139.1016 L191,147.668 L171,151.668 L191,155.668 L191,164.2344 A0,0 0 0 0 191,164.2344 L306,164.2344 A0,0 0 0 0 306,164.2344 L306,149.1016 L296,139.1016 L191,139.1016 A0,0 0 0 0 191,139.1016 " fill="#FEFFDD" style="stroke:#181818;stroke-width:0.5;"/><path d="M296,139.1016 L296,149.1016 L306,149.1016 L296,139.1016 " fill="#FEFFDD" style="stroke:#181818;stroke-width:0.5;"/><text fill="#000000" font-family="sans-serif" font-size="13" lengthAdjust="spacing" textLength="94" x="197" y="156.1685">int hashCode()</text><ellipse cx="161" cy="151.668" fill="#222222" rx="10" ry="10" style="stroke:#222222;stroke-width:1.0;"/><rect fill="#F1F1F1" height="33.9688" rx="12.5" ry="12.5" style="stroke:#181818;stroke-width:0.5;" width="190" x="66" y="184.2344"/><text fill="#000000" font-family="sans-serif" font-size="12" lengthAdjust="spacing" textLength="170" x="76" y="205.373">return this.obj.hashCode();</text><ellipse cx="161" cy="249.2031" fill="none" rx="11" ry="11" style="stroke:#222222;stroke-width:1.0;"/><ellipse cx="161" cy="249.2031" fill="#222222" rx="6" ry="6" style="stroke:#111111;stroke-width:1.0;"/><ellipse cx="161" cy="280.2031" fill="none" rx="10" ry="10" style="stroke:#222222;stroke-width:1.5;"/><line style="stroke:#222222;stroke-width:2.5;" x1="154.8128" x2="167.1872" y1="274.0159" y2="286.3903"/><line style="stroke:#222222;stroke-width:2.5;" x1="167.1872" x2="154.8128" y1="274.0159" y2="286.3903"/><path d="M191,300.2031 L191,308.7695 L171,312.7695 L191,316.7695 L191,325.3359 A0,0 0 0 0 191,325.3359 L398,325.3359 A0,0 0 0 0 398,325.3359 L398,310.2031 L388,300.2031 L191,300.2031 A0,0 0 0 0 191,300.2031 " fill="#FEFFDD" style="stroke:#181818;stroke-width:0.5;"/><path d="M388,300.2031 L388,310.2031 L398,310.2031 L388,300.2031 " fill="#FEFFDD" style="stroke:#181818;stroke-width:0.5;"/><text fill="#000000" font-family="sans-serif" font-size="13" lengthAdjust="spacing" textLength="186" x="197" y="317.27">boolean equals(Object other)</text><ellipse cx="161" cy="312.7695" fill="#222222" rx="10" ry="10" style="stroke:#222222;stroke-width:1.0;"/><rect fill="#F1F1F1" height="47.9375" rx="12.5" ry="12.5" style="stroke:#181818;stroke-width:0.5;" width="300" x="11" y="345.3359"/><text fill="#000000" font-family="sans-serif" font-size="12" lengthAdjust="spacing" textLength="280" x="21" y="366.4746">return this.obj.equals(((ElkBendPoint )other)</text><text fill="#000000" font-family="sans-serif" font-size="12" lengthAdjust="spacing" textLength="32" x="21" y="380.4434">.obj);</text><ellipse cx="161" cy="424.2734" fill="none" rx="11" ry="11" style="stroke:#222222;stroke-width:1.0;"/><ellipse cx="161" cy="424.2734" fill="#222222" rx="6" ry="6" style="stroke:#111111;stroke-width:1.0;"/><ellipse cx="161" cy="455.2734" fill="none" rx="10" ry="10" style="stroke:#222222;stroke-width:1.5;"/><line style="stroke:#222222;stroke-width:2.5;" x1="154.8128" x2="167.1872" y1="449.0863" y2="461.4606"/><line style="stroke:#222222;stroke-width:2.5;" x1="167.1872" x2="154.8128" y1="449.0863" y2="461.4606"/><path d="M191,475.2734 L191,483.8398 L171,487.8398 L191,491.8398 L191,500.4063 A0,0 0 0 0 191,500.4063 L298,500.4063 A0,0 0 0 0 298,500.4063 L298,485.2734 L288,475.2734 L191,475.2734 A0,0 0 0 0 191,475.2734 " fill="#FEFFDD" style="stroke:#181818;stroke-width:0.5;"/><path d="M288,475.2734 L288,485.2734 L298,485.2734 L288,475.2734 " fill="#FEFFDD" style="stroke:#181818;stroke-width:0.5;"/><text fill="#000000" font-family="sans-serif" font-size="13" lengthAdjust="spacing" textLength="86" x="197" y="492.3403">double getX()</text><ellipse cx="161" cy="487.8398" fill="#222222" rx="10" ry="10" style="stroke:#222222;stroke-width:1.0;"/><rect fill="#F1F1F1" height="33.9688" rx="12.5" ry="12.5" style="stroke:#181818;stroke-width:0.5;" width="264" x="29" y="520.4063"/><text fill="#000000" font-family="sans-serif" font-size="12" lengthAdjust="spacing" textLength="244" x="39" y="541.5449">return (Double )Reflect.call(obj,"getX");</text><ellipse cx="161" cy="585.375" fill="none" rx="11" ry="11" style="stroke:#222222;stroke-width:1.0;"/><ellipse cx="161" cy="585.375" fill="#222222" rx="6" ry="6" style="stroke:#111111;stroke-width:1.0;"/><ellipse cx="161" cy="616.375" fill="none" rx="10" ry="10" style="stroke:#222222;stroke-width:1.5;"/><line style="stroke:#222222;stroke-width:2.5;" x1="154.8128" x2="167.1872" y1="610.1878" y2="622.5622"/><line style="stroke:#222222;stroke-width:2.5;" x1="167.1872" x2="154.8128" y1="610.1878" y2="622.5622"/><path d="M191,636.375 L191,644.9414 L171,648.9414 L191,652.9414 L191,661.5078 A0,0 0 0 0 191,661.5078 L297,661.5078 A0,0 0 0 0 297,661.5078 L297,646.375 L287,636.375 L191,636.375 A0,0 0 0 0 191,636.375 " fill="#FEFFDD" style="stroke:#181818;stroke-width:0.5;"/><path d="M287,636.375 L287,646.375 L297,646.375 L287,636.375 " fill="#FEFFDD" style="stroke:#181818;stroke-width:0.5;"/><text fill="#000000" font-family="sans-serif" font-size="13" lengthAdjust="spacing" textLength="85" x="197" y="653.4419">double getY()</text><ellipse cx="161" cy="648.9414" fill="#222222" rx="10" ry="10" style="stroke:#222222;stroke-width:1.0;"/><rect fill="#F1F1F1" height="33.9688" rx="12.5" ry="12.5" style="stroke:#181818;stroke-width:0.5;" width="264" x="29" y="681.5078"/><text fill="#000000" font-family="sans-serif" font-size="12" lengthAdjust="spacing" textLength="244" x="39" y="702.6465">return (Double )Reflect.call(obj,"getY");</text><ellipse cx="161" cy="746.4766" fill="none" rx="11" ry="11" style="stroke:#222222;stroke-width:1.0;"/><ellipse cx="161" cy="746.4766" fill="#222222" rx="6" ry="6" style="stroke:#111111;stroke-width:1.0;"/><ellipse cx="161" cy="777.4766" fill="none" rx="10" ry="10" style="stroke:#222222;stroke-width:1.5;"/><line style="stroke:#222222;stroke-width:2.5;" x1="154.8128" x2="167.1872" y1="771.2894" y2="783.6637"/><line style="stroke:#222222;stroke-width:2.5;" x1="167.1872" x2="154.8128" y1="771.2894" y2="783.6637"/><line style="stroke:#181818;stroke-width:1.0;" x1="161" x2="161" y1="32.5664" y2="55.1328"/><polygon fill="#181818" points="157,45.1328,161,55.1328,165,45.1328,161,49.1328" style="stroke:#181818;stroke-width:1.0;"/><line style="stroke:#181818;stroke-width:1.0;" x1="161" x2="161" y1="89.1016" y2="109.1016"/><polygon fill="#181818" points="157,99.1016,161,109.1016,165,99.1016,161,103.1016" style="stroke:#181818;stroke-width:1.0;"/><line style="stroke:#181818;stroke-width:1.0;" x1="161" x2="161" y1="161.668" y2="184.2344"/><polygon fill="#181818" points="157,174.2344,161,184.2344,165,174.2344,161,178.2344" style="stroke:#181818;stroke-width:1.0;"/><line style="stroke:#181818;stroke-width:1.0;" x1="161" x2="161" y1="218.2031" y2="238.2031"/><polygon fill="#181818" points="157,228.2031,161,238.2031,165,228.2031,161,232.2031" style="stroke:#181818;stroke-width:1.0;"/><line style="stroke:#181818;stroke-width:1.0;" x1="161" x2="161" y1="322.7695" y2="345.3359"/><polygon fill="#181818" points="157,335.3359,161,345.3359,165,335.3359,161,339.3359" style="stroke:#181818;stroke-width:1.0;"/><line style="stroke:#181818;stroke-width:1.0;" x1="161" x2="161" y1="393.2734" y2="413.2734"/><polygon fill="#181818" points="157,403.2734,161,413.2734,165,403.2734,161,407.2734" style="stroke:#181818;stroke-width:1.0;"/><line style="stroke:#181818;stroke-width:1.0;" x1="161" x2="161" y1="497.8398" y2="520.4063"/><polygon fill="#181818" points="157,510.4063,161,520.4063,165,510.4063,161,514.4063" style="stroke:#181818;stroke-width:1.0;"/><line style="stroke:#181818;stroke-width:1.0;" x1="161" x2="161" y1="554.375" y2="574.375"/><polygon fill="#181818" points="157,564.375,161,574.375,165,564.375,161,568.375" style="stroke:#181818;stroke-width:1.0;"/><line style="stroke:#181818;stroke-width:1.0;" x1="161" x2="161" y1="658.9414" y2="681.5078"/><polygon fill="#181818" points="157,671.5078,161,681.5078,165,671.5078,161,675.5078" style="stroke:#181818;stroke-width:1.0;"/><line style="stroke:#181818;stroke-width:1.0;" x1="161" x2="161" y1="715.4766" y2="735.4766"/><polygon fill="#181818" points="157,725.4766,161,735.4766,165,725.4766,161,729.4766" style="stroke:#181818;stroke-width:1.0;"/><!--MD5=[f763db25f3946085f655665e4f15653b]
@startuml
!pragma layout smetana
start
note right
constructor ElkBendPoint(Object obj)
end note
:this.obj=Objects.requireNonNull(obj);;
end
start
note right
int hashCode()
end note
:return this.obj.hashCode();;
stop
end
start
note right
boolean equals(Object other)
end note
:return this.obj.equals(((ElkBendPoint )other)
.obj);;
stop
end
start
note right
double getX()
end note
:return (Double )Reflect.call(obj,"getX");;
stop
end
start
note right
double getY()
end note
:return (Double )Reflect.call(obj,"getY");;
stop
end
@enduml

PlantUML version 1.2022.7(Mon Aug 22 17:01:30 UTC 2022)
(GPL source distribution)
Java Runtime: OpenJDK Runtime Environment
JVM: OpenJDK 64-Bit Server VM
Default Encoding: UTF-8
Language: en
Country: null
--></g></svg>