<?xml version="1.0" encoding="UTF-8" standalone="no"?><svg xmlns="http://www.w3.org/2000/svg" xmlns:xlink="http://www.w3.org/1999/xlink" contentStyleType="text/css" height="186px" preserveAspectRatio="none" style="width:437px;height:186px;background:#FFFFFF;" version="1.1" viewBox="0 0 437 186" width="437px" zoomAndPan="magnify"><defs/><g><!--MD5=[c1cb9ebc68bcd63b9c6e247965d3201f]
cluster net.sourceforge.plantuml.elk.proxy.core.math--><g id="cluster_net.sourceforge.plantuml.elk.proxy.core.math"><path d="M8.5,63 L373.5,63 A3.75,3.75 0 0 1 376,65.5 L383,85.2969 L427.5,85.2969 A2.5,2.5 0 0 1 430,87.7969 L430,176.5 A2.5,2.5 0 0 1 427.5,179 L8.5,179 A2.5,2.5 0 0 1 6,176.5 L6,65.5 A2.5,2.5 0 0 1 8.5,63 " fill="none" style="stroke:#000000;stroke-width:1.5;"/><line style="stroke:#000000;stroke-width:1.5;" x1="6" x2="383" y1="85.2969" y2="85.2969"/><text fill="#000000" font-family="sans-serif" font-size="14" font-weight="bold" lengthAdjust="spacing" textLength="364" x="10" y="77.9951">net.sourceforge.plantuml.elk.proxy.core.math</text></g><!--MD5=[335aa7b043e828113be46e580f1422e1]
class ElkObjectProxy--><g id="elem_ElkObjectProxy"><rect fill="#F1F1F1" height="48" id="ElkObjectProxy" rx="2.5" ry="2.5" style="stroke:#181818;stroke-width:0.5;" width="134" x="151" y="6"/><ellipse cx="166" cy="22" fill="#ADD1B2" rx="11" ry="11" style="stroke:#181818;stroke-width:1.0;"/><path d="M168.9688,27.6406 Q168.3906,27.9375 167.75,28.0781 Q167.1094,28.2344 166.4063,28.2344 Q163.9063,28.2344 162.5781,26.5938 Q161.2656,24.9375 161.2656,21.8125 Q161.2656,18.6875 162.5781,17.0313 Q163.9063,15.375 166.4063,15.375 Q167.1094,15.375 167.75,15.5313 Q168.4063,15.6875 168.9688,15.9844 L168.9688,18.7031 Q168.3438,18.125 167.75,17.8594 Q167.1563,17.5781 166.5313,17.5781 Q165.1875,17.5781 164.5,18.6563 Q163.8125,19.7188 163.8125,21.8125 Q163.8125,23.9063 164.5,24.9844 Q165.1875,26.0469 166.5313,26.0469 Q167.1563,26.0469 167.75,25.7813 Q168.3438,25.5 168.9688,24.9219 L168.9688,27.6406 Z " fill="#000000"/><text fill="#000000" font-family="sans-serif" font-size="14" lengthAdjust="spacing" textLength="102" x="180" y="26.8467">ElkObjectProxy</text><line style="stroke:#181818;stroke-width:0.5;" x1="152" x2="284" y1="38" y2="38"/><line style="stroke:#181818;stroke-width:0.5;" x1="152" x2="284" y1="46" y2="46"/></g><!--MD5=[21a5f30e885e94daa49c78aa1d3fffad]
class net.sourceforge.plantuml.elk.proxy.core.math.ElkPadding--><g id="elem_net.sourceforge.plantuml.elk.proxy.core.math.ElkPadding"><rect codeLine="3" fill="#F1F1F1" height="80.5938" id="net.sourceforge.plantuml.elk.proxy.core.math.ElkPadding" rx="2.5" ry="2.5" style="stroke:#181818;stroke-width:0.5;" width="408" x="14" y="90"/><ellipse cx="175.75" cy="106" fill="#ADD1B2" rx="11" ry="11" style="stroke:#181818;stroke-width:1.0;"/><path d="M178.7188,111.6406 Q178.1406,111.9375 177.5,112.0781 Q176.8594,112.2344 176.1563,112.2344 Q173.6563,112.2344 172.3281,110.5938 Q171.0156,108.9375 171.0156,105.8125 Q171.0156,102.6875 172.3281,101.0313 Q173.6563,99.375 176.1563,99.375 Q176.8594,99.375 177.5,99.5313 Q178.1563,99.6875 178.7188,99.9844 L178.7188,102.7031 Q178.0938,102.125 177.5,101.8594 Q176.9063,101.5781 176.2813,101.5781 Q174.9375,101.5781 174.25,102.6563 Q173.5625,103.7188 173.5625,105.8125 Q173.5625,107.9063 174.25,108.9844 Q174.9375,110.0469 176.2813,110.0469 Q176.9063,110.0469 177.5,109.7813 Q178.0938,109.5 178.7188,108.9219 L178.7188,111.6406 Z " fill="#000000"/><text fill="#000000" font-family="sans-serif" font-size="14" lengthAdjust="spacing" textLength="76" x="196.25" y="110.8467">ElkPadding</text><line style="stroke:#181818;stroke-width:0.5;" x1="15" x2="421" y1="122" y2="122"/><line style="stroke:#181818;stroke-width:0.5;" x1="15" x2="421" y1="130" y2="130"/><a href="./../../../../../../../../.././qc/src/net/sourceforge/plantuml/elk/proxy/core/math/ElkPadding.java.html#10" target="_top" title="./../../../../../../../../.././qc/src/net/sourceforge/plantuml/elk/proxy/core/math/ElkPadding.java.html#10" xlink:actuate="onRequest" xlink:href="./../../../../../../../../.././qc/src/net/sourceforge/plantuml/elk/proxy/core/math/ElkPadding.java.html#10" xlink:show="new" xlink:title="./../../../../../../../../.././qc/src/net/sourceforge/plantuml/elk/proxy/core/math/ElkPadding.java.html#10" xlink:type="simple"><rect fill="#F1F1F1" height="10" style="stroke:none;stroke-width:1.0;" width="20" x="20" y="138.6484"/><ellipse cx="25" cy="143.6484" fill="#84BE84" rx="3" ry="3" style="stroke:#038048;stroke-width:1.0;"/></a><a href="./../../../../../../../../.././qc/src/net/sourceforge/plantuml/elk/proxy/core/math/ElkPadding.java.html#10" target="_top" title="./../../../../../../../../.././qc/src/net/sourceforge/plantuml/elk/proxy/core/math/ElkPadding.java.html#10" xlink:actuate="onRequest" xlink:href="./../../../../../../../../.././qc/src/net/sourceforge/plantuml/elk/proxy/core/math/ElkPadding.java.html#10" xlink:show="new" xlink:title="./../../../../../../../../.././qc/src/net/sourceforge/plantuml/elk/proxy/core/math/ElkPadding.java.html#10" xlink:type="simple"><text fill="#000000" font-family="sans-serif" font-size="14" lengthAdjust="spacing" textLength="382" x="34" y="146.9951">ElkPadding(double;double;double;double) : ElkPadding</text></a><a href="./../../../../../../../../.././qc/src/net/sourceforge/plantuml/elk/proxy/core/math/ElkPadding.java.html#15" target="_top" title="./../../../../../../../../.././qc/src/net/sourceforge/plantuml/elk/proxy/core/math/ElkPadding.java.html#15" xlink:actuate="onRequest" xlink:href="./../../../../../../../../.././qc/src/net/sourceforge/plantuml/elk/proxy/core/math/ElkPadding.java.html#15" xlink:show="new" xlink:title="./../../../../../../../../.././qc/src/net/sourceforge/plantuml/elk/proxy/core/math/ElkPadding.java.html#15" xlink:type="simple"><rect fill="#F1F1F1" height="10" style="stroke:none;stroke-width:1.0;" width="20" x="20" y="154.9453"/><ellipse cx="25" cy="159.9453" fill="#84BE84" rx="3" ry="3" style="stroke:#038048;stroke-width:1.0;"/></a><a href="./../../../../../../../../.././qc/src/net/sourceforge/plantuml/elk/proxy/core/math/ElkPadding.java.html#15" target="_top" title="./../../../../../../../../.././qc/src/net/sourceforge/plantuml/elk/proxy/core/math/ElkPadding.java.html#15" xlink:actuate="onRequest" xlink:href="./../../../../../../../../.././qc/src/net/sourceforge/plantuml/elk/proxy/core/math/ElkPadding.java.html#15" xlink:show="new" xlink:title="./../../../../../../../../.././qc/src/net/sourceforge/plantuml/elk/proxy/core/math/ElkPadding.java.html#15" xlink:type="simple"><text fill="#000000" font-family="sans-serif" font-size="14" lengthAdjust="spacing" textLength="168" x="34" y="163.292">getTrueObject() : Object</text></a></g><path d="M218,54.0939 C218,64.784 218,77.7904 218,89.9706 " fill="none" style="stroke:#181818;stroke-width:1.0;"/><polygon fill="#FFFFFF" points="218,54.0939,212,70.0939,224,70.0939,218,54.0939" style="stroke:#181818;stroke-width:1.0;"/><!--MD5=[f9dfd12a546d664fbfb1948e0e882114]
@startuml
!pragma layout smetana
"ElkObjectProxy" <|- - "net.sourceforge.plantuml.elk.proxy.core.math.ElkPadding"
class net.sourceforge.plantuml.elk.proxy.core.math.ElkPadding {
+ElkPadding(double;double;double;double) : ElkPadding [[[./../../../../../../../../.././qc/src/net/sourceforge/plantuml/elk/proxy/core/math/ElkPadding.java.html#10]]]
+getTrueObject() : Object [[[./../../../../../../../../.././qc/src/net/sourceforge/plantuml/elk/proxy/core/math/ElkPadding.java.html#15]]]
} 
@enduml

PlantUML version 1.2022.7(Mon Aug 22 17:01:30 UTC 2022)
(GPL source distribution)
Java Runtime: OpenJDK Runtime Environment
JVM: OpenJDK 64-Bit Server VM
Default Encoding: UTF-8
Language: en
Country: null
--></g></svg>