<?xml version="1.0" encoding="UTF-8" standalone="no"?><svg xmlns="http://www.w3.org/2000/svg" xmlns:xlink="http://www.w3.org/1999/xlink" contentStyleType="text/css" height="330px" preserveAspectRatio="none" style="width:595px;height:330px;background:#FFFFFF;" version="1.1" viewBox="0 0 595 330" width="595px" zoomAndPan="magnify"><defs/><g><path d="M267.5,10 L267.5,26.1328 L247.5,30.1328 L267.5,34.1328 L267.5,50.2656 A0,0 0 0 0 267.5,50.2656 L583.5,50.2656 A0,0 0 0 0 583.5,50.2656 L583.5,20 L573.5,10 L267.5,10 A0,0 0 0 0 267.5,10 " fill="#FEFFDD" style="stroke:#181818;stroke-width:0.5;"/><path d="M573.5,10 L573.5,20 L583.5,20 L573.5,10 " fill="#FEFFDD" style="stroke:#181818;stroke-width:0.5;"/><text fill="#000000" font-family="sans-serif" font-size="13" lengthAdjust="spacing" textLength="295" x="273.5" y="27.0669">constructor ElkPadding(doubletop,doubleright,</text><text fill="#000000" font-family="sans-serif" font-size="13" lengthAdjust="spacing" textLength="162" x="273.5" y="42.1997">doublebottom,doubleleft)</text><ellipse cx="237.5" cy="30.1328" fill="#222222" rx="10" ry="10" style="stroke:#222222;stroke-width:1.0;"/><rect fill="#F1F1F1" height="47.9375" rx="12.5" ry="12.5" style="stroke:#181818;stroke-width:0.5;" width="453" x="11" y="70.2656"/><text fill="#000000" font-family="sans-serif" font-size="12" lengthAdjust="spacing" textLength="433" x="21" y="91.4043">this.obj=Reflect.newInstance("org.eclipse.elk.core.math.ElkPadding",</text><text fill="#000000" font-family="sans-serif" font-size="12" lengthAdjust="spacing" textLength="136" x="21" y="105.373">top,right,bottom,left);</text><ellipse cx="237.5" cy="148.2031" fill="none" rx="10" ry="10" style="stroke:#222222;stroke-width:1.5;"/><line style="stroke:#222222;stroke-width:2.5;" x1="231.3128" x2="243.6872" y1="142.0159" y2="154.3903"/><line style="stroke:#222222;stroke-width:2.5;" x1="243.6872" x2="231.3128" y1="142.0159" y2="154.3903"/><path d="M267.5,168.2031 L267.5,176.7695 L247.5,180.7695 L267.5,184.7695 L267.5,193.3359 A0,0 0 0 0 267.5,193.3359 L429.5,193.3359 A0,0 0 0 0 429.5,193.3359 L429.5,178.2031 L419.5,168.2031 L267.5,168.2031 A0,0 0 0 0 267.5,168.2031 " fill="#FEFFDD" style="stroke:#181818;stroke-width:0.5;"/><path d="M419.5,168.2031 L419.5,178.2031 L429.5,178.2031 L419.5,168.2031 " fill="#FEFFDD" style="stroke:#181818;stroke-width:0.5;"/><text fill="#000000" font-family="sans-serif" font-size="13" lengthAdjust="spacing" textLength="141" x="273.5" y="185.27">ObjectgetTrueObject()</text><ellipse cx="237.5" cy="180.7695" fill="#222222" rx="10" ry="10" style="stroke:#222222;stroke-width:1.0;"/><rect fill="#F1F1F1" height="33.9688" rx="12.5" ry="12.5" style="stroke:#181818;stroke-width:0.5;" width="86" x="194.5" y="213.3359"/><text fill="#000000" font-family="sans-serif" font-size="12" lengthAdjust="spacing" textLength="66" x="204.5" y="234.4746">return obj;</text><ellipse cx="237.5" cy="278.3047" fill="none" rx="11" ry="11" style="stroke:#222222;stroke-width:1.0;"/><ellipse cx="237.5" cy="278.3047" fill="#222222" rx="6" ry="6" style="stroke:#111111;stroke-width:1.0;"/><ellipse cx="237.5" cy="309.3047" fill="none" rx="10" ry="10" style="stroke:#222222;stroke-width:1.5;"/><line style="stroke:#222222;stroke-width:2.5;" x1="231.3128" x2="243.6872" y1="303.1175" y2="315.4919"/><line style="stroke:#222222;stroke-width:2.5;" x1="243.6872" x2="231.3128" y1="303.1175" y2="315.4919"/><line style="stroke:#181818;stroke-width:1.0;" x1="237.5" x2="237.5" y1="40.1328" y2="70.2656"/><polygon fill="#181818" points="233.5,60.2656,237.5,70.2656,241.5,60.2656,237.5,64.2656" style="stroke:#181818;stroke-width:1.0;"/><line style="stroke:#181818;stroke-width:1.0;" x1="237.5" x2="237.5" y1="118.2031" y2="138.2031"/><polygon fill="#181818" points="233.5,128.2031,237.5,138.2031,241.5,128.2031,237.5,132.2031" style="stroke:#181818;stroke-width:1.0;"/><line style="stroke:#181818;stroke-width:1.0;" x1="237.5" x2="237.5" y1="190.7695" y2="213.3359"/><polygon fill="#181818" points="233.5,203.3359,237.5,213.3359,241.5,203.3359,237.5,207.3359" style="stroke:#181818;stroke-width:1.0;"/><line style="stroke:#181818;stroke-width:1.0;" x1="237.5" x2="237.5" y1="247.3047" y2="267.3047"/><polygon fill="#181818" points="233.5,257.3047,237.5,267.3047,241.5,257.3047,237.5,261.3047" style="stroke:#181818;stroke-width:1.0;"/><!--MD5=[6b3fa18a34534729e729bef83f329c8a]
@startuml
!pragma layout smetana
start
note right
constructor ElkPadding(doubletop,doubleright,
doublebottom,doubleleft)
end note
:this.obj=Reflect.newInstance("org.eclipse.elk.core.math.ElkPadding",
top,right,bottom,left);;
end
start
note right
ObjectgetTrueObject()
end note
:return obj;;
stop
end
@enduml

PlantUML version 1.2022.7(Mon Aug 22 17:01:30 UTC 2022)
(GPL source distribution)
Java Runtime: OpenJDK Runtime Environment
JVM: OpenJDK 64-Bit Server VM
Default Encoding: UTF-8
Language: en
Country: null
--></g></svg>