<?xml version="1.0" encoding="UTF-8" standalone="no"?><svg xmlns="http://www.w3.org/2000/svg" xmlns:xlink="http://www.w3.org/1999/xlink" contentStyleType="text/css" height="202px" preserveAspectRatio="none" style="width:759px;height:202px;background:#FFFFFF;" version="1.1" viewBox="0 0 759 202" width="759px" zoomAndPan="magnify"><defs/><g><!--MD5=[1719c890f62458e4784e563b78703335]
cluster net.sourceforge.plantuml.tim.stdlib--><g id="cluster_net.sourceforge.plantuml.tim.stdlib"><path d="M8.5,63 L287.5,63 A3.75,3.75 0 0 1 290,65.5 L297,85.2969 L749.5,85.2969 A2.5,2.5 0 0 1 752,87.7969 L752,192.5 A2.5,2.5 0 0 1 749.5,195 L8.5,195 A2.5,2.5 0 0 1 6,192.5 L6,65.5 A2.5,2.5 0 0 1 8.5,63 " fill="none" style="stroke:#000000;stroke-width:1.5;"/><line style="stroke:#000000;stroke-width:1.5;" x1="6" x2="297" y1="85.2969" y2="85.2969"/><text fill="#000000" font-family="sans-serif" font-size="14" font-weight="bold" lengthAdjust="spacing" textLength="278" x="10" y="77.9951">net.sourceforge.plantuml.tim.stdlib</text></g><!--MD5=[06bf8bc5e78cef84afbcb1abe5fc5fb5]
class SimpleReturnFunction--><g id="elem_SimpleReturnFunction"><rect fill="#F1F1F1" height="48" id="SimpleReturnFunction" rx="2.5" ry="2.5" style="stroke:#181818;stroke-width:0.5;" width="185" x="286.5" y="6"/><ellipse cx="301.5" cy="22" fill="#ADD1B2" rx="11" ry="11" style="stroke:#181818;stroke-width:1.0;"/><path d="M304.4688,27.6406 Q303.8906,27.9375 303.25,28.0781 Q302.6094,28.2344 301.9063,28.2344 Q299.4063,28.2344 298.0781,26.5938 Q296.7656,24.9375 296.7656,21.8125 Q296.7656,18.6875 298.0781,17.0313 Q299.4063,15.375 301.9063,15.375 Q302.6094,15.375 303.25,15.5313 Q303.9063,15.6875 304.4688,15.9844 L304.4688,18.7031 Q303.8438,18.125 303.25,17.8594 Q302.6563,17.5781 302.0313,17.5781 Q300.6875,17.5781 300,18.6563 Q299.3125,19.7188 299.3125,21.8125 Q299.3125,23.9063 300,24.9844 Q300.6875,26.0469 302.0313,26.0469 Q302.6563,26.0469 303.25,25.7813 Q303.8438,25.5 304.4688,24.9219 L304.4688,27.6406 Z " fill="#000000"/><text fill="#000000" font-family="sans-serif" font-size="14" lengthAdjust="spacing" textLength="153" x="315.5" y="26.8467">SimpleReturnFunction</text><line style="stroke:#181818;stroke-width:0.5;" x1="287.5" x2="470.5" y1="38" y2="38"/><line style="stroke:#181818;stroke-width:0.5;" x1="287.5" x2="470.5" y1="46" y2="46"/></g><!--MD5=[af317b18a07d35cba8d87ddc34e04f22]
class net.sourceforge.plantuml.tim.stdlib.AlwaysFalse--><g id="elem_net.sourceforge.plantuml.tim.stdlib.AlwaysFalse"><rect codeLine="3" fill="#F1F1F1" height="96.8906" id="net.sourceforge.plantuml.tim.stdlib.AlwaysFalse" rx="2.5" ry="2.5" style="stroke:#181818;stroke-width:0.5;" width="730" x="14" y="90"/><ellipse cx="333.75" cy="106" fill="#ADD1B2" rx="11" ry="11" style="stroke:#181818;stroke-width:1.0;"/><path d="M336.7188,111.6406 Q336.1406,111.9375 335.5,112.0781 Q334.8594,112.2344 334.1563,112.2344 Q331.6563,112.2344 330.3281,110.5938 Q329.0156,108.9375 329.0156,105.8125 Q329.0156,102.6875 330.3281,101.0313 Q331.6563,99.375 334.1563,99.375 Q334.8594,99.375 335.5,99.5313 Q336.1563,99.6875 336.7188,99.9844 L336.7188,102.7031 Q336.0938,102.125 335.5,101.8594 Q334.9063,101.5781 334.2813,101.5781 Q332.9375,101.5781 332.25,102.6563 Q331.5625,103.7188 331.5625,105.8125 Q331.5625,107.9063 332.25,108.9844 Q332.9375,110.0469 334.2813,110.0469 Q334.9063,110.0469 335.5,109.7813 Q336.0938,109.5 336.7188,108.9219 L336.7188,111.6406 Z " fill="#000000"/><text fill="#000000" font-family="sans-serif" font-size="14" lengthAdjust="spacing" textLength="82" x="354.25" y="110.8467">AlwaysFalse</text><line style="stroke:#181818;stroke-width:0.5;" x1="15" x2="743" y1="122" y2="122"/><line style="stroke:#181818;stroke-width:0.5;" x1="15" x2="743" y1="130" y2="130"/><a href="./../../../../../../.././qc/src/net/sourceforge/plantuml/tim/stdlib/AlwaysFalse.java.html#51" target="_top" title="./../../../../../../.././qc/src/net/sourceforge/plantuml/tim/stdlib/AlwaysFalse.java.html#51" xlink:actuate="onRequest" xlink:href="./../../../../../../.././qc/src/net/sourceforge/plantuml/tim/stdlib/AlwaysFalse.java.html#51" xlink:show="new" xlink:title="./../../../../../../.././qc/src/net/sourceforge/plantuml/tim/stdlib/AlwaysFalse.java.html#51" xlink:type="simple"><rect fill="#F1F1F1" height="10" style="stroke:none;stroke-width:1.0;" width="20" x="20" y="138.6484"/><ellipse cx="25" cy="143.6484" fill="#84BE84" rx="3" ry="3" style="stroke:#038048;stroke-width:1.0;"/></a><a href="./../../../../../../.././qc/src/net/sourceforge/plantuml/tim/stdlib/AlwaysFalse.java.html#51" target="_top" title="./../../../../../../.././qc/src/net/sourceforge/plantuml/tim/stdlib/AlwaysFalse.java.html#51" xlink:actuate="onRequest" xlink:href="./../../../../../../.././qc/src/net/sourceforge/plantuml/tim/stdlib/AlwaysFalse.java.html#51" xlink:show="new" xlink:title="./../../../../../../.././qc/src/net/sourceforge/plantuml/tim/stdlib/AlwaysFalse.java.html#51" xlink:type="simple"><text fill="#000000" font-family="sans-serif" font-size="14" lengthAdjust="spacing" textLength="247" x="34" y="146.9951">getSignature() : TFunctionSignature</text></a><a href="./../../../../../../.././qc/src/net/sourceforge/plantuml/tim/stdlib/AlwaysFalse.java.html#55" target="_top" title="./../../../../../../.././qc/src/net/sourceforge/plantuml/tim/stdlib/AlwaysFalse.java.html#55" xlink:actuate="onRequest" xlink:href="./../../../../../../.././qc/src/net/sourceforge/plantuml/tim/stdlib/AlwaysFalse.java.html#55" xlink:show="new" xlink:title="./../../../../../../.././qc/src/net/sourceforge/plantuml/tim/stdlib/AlwaysFalse.java.html#55" xlink:type="simple"><rect fill="#F1F1F1" height="10" style="stroke:none;stroke-width:1.0;" width="20" x="20" y="154.9453"/><ellipse cx="25" cy="159.9453" fill="#84BE84" rx="3" ry="3" style="stroke:#038048;stroke-width:1.0;"/></a><a href="./../../../../../../.././qc/src/net/sourceforge/plantuml/tim/stdlib/AlwaysFalse.java.html#55" target="_top" title="./../../../../../../.././qc/src/net/sourceforge/plantuml/tim/stdlib/AlwaysFalse.java.html#55" xlink:actuate="onRequest" xlink:href="./../../../../../../.././qc/src/net/sourceforge/plantuml/tim/stdlib/AlwaysFalse.java.html#55" xlink:show="new" xlink:title="./../../../../../../.././qc/src/net/sourceforge/plantuml/tim/stdlib/AlwaysFalse.java.html#55" xlink:type="simple"><text fill="#000000" font-family="sans-serif" font-size="14" lengthAdjust="spacing" textLength="253" x="34" y="163.292">canCover(int;Set&lt;String&gt;) : boolean</text></a><a href="./../../../../../../.././qc/src/net/sourceforge/plantuml/tim/stdlib/AlwaysFalse.java.html#59" target="_top" title="./../../../../../../.././qc/src/net/sourceforge/plantuml/tim/stdlib/AlwaysFalse.java.html#59" xlink:actuate="onRequest" xlink:href="./../../../../../../.././qc/src/net/sourceforge/plantuml/tim/stdlib/AlwaysFalse.java.html#59" xlink:show="new" xlink:title="./../../../../../../.././qc/src/net/sourceforge/plantuml/tim/stdlib/AlwaysFalse.java.html#59" xlink:type="simple"><rect fill="#F1F1F1" height="10" style="stroke:none;stroke-width:1.0;" width="20" x="20" y="171.2422"/><ellipse cx="25" cy="176.2422" fill="#84BE84" rx="3" ry="3" style="stroke:#038048;stroke-width:1.0;"/></a><a href="./../../../../../../.././qc/src/net/sourceforge/plantuml/tim/stdlib/AlwaysFalse.java.html#59" target="_top" title="./../../../../../../.././qc/src/net/sourceforge/plantuml/tim/stdlib/AlwaysFalse.java.html#59" xlink:actuate="onRequest" xlink:href="./../../../../../../.././qc/src/net/sourceforge/plantuml/tim/stdlib/AlwaysFalse.java.html#59" xlink:show="new" xlink:title="./../../../../../../.././qc/src/net/sourceforge/plantuml/tim/stdlib/AlwaysFalse.java.html#59" xlink:type="simple"><text fill="#000000" font-family="sans-serif" font-size="14" lengthAdjust="spacing" textLength="704" x="34" y="179.5889">executeReturnFunction(TContext;TMemory;LineLocation;List&lt;TValue&gt;;Map&lt;String,TValue&gt;) : TValue</text></a></g><path d="M379,54.1089 C379,64.6313 379,77.495 379,89.9394 " fill="none" style="stroke:#181818;stroke-width:1.0;"/><polygon fill="#FFFFFF" points="379,54.1089,373,70.1089,385,70.1089,379,54.1089" style="stroke:#181818;stroke-width:1.0;"/><!--MD5=[4738bbf0d39a0f1e57a03d608b2b043e]
@startuml
!pragma layout smetana
"SimpleReturnFunction" <|- - "net.sourceforge.plantuml.tim.stdlib.AlwaysFalse"
class net.sourceforge.plantuml.tim.stdlib.AlwaysFalse {
+getSignature() : TFunctionSignature [[[./../../../../../../.././qc/src/net/sourceforge/plantuml/tim/stdlib/AlwaysFalse.java.html#51]]]
+canCover(int;Set<String>) : boolean [[[./../../../../../../.././qc/src/net/sourceforge/plantuml/tim/stdlib/AlwaysFalse.java.html#55]]]
+executeReturnFunction(TContext;TMemory;LineLocation;List<TValue>;Map<String,TValue>) : TValue [[[./../../../../../../.././qc/src/net/sourceforge/plantuml/tim/stdlib/AlwaysFalse.java.html#59]]]
} 
@enduml

PlantUML version 1.2022.7(Mon Aug 22 17:01:30 UTC 2022)
(GPL source distribution)
Java Runtime: OpenJDK Runtime Environment
JVM: OpenJDK 64-Bit Server VM
Default Encoding: UTF-8
Language: en
Country: null
--></g></svg>