<?xml version="1.0" encoding="UTF-8" standalone="no"?><svg xmlns="http://www.w3.org/2000/svg" xmlns:xlink="http://www.w3.org/1999/xlink" contentStyleType="text/css" height="202px" preserveAspectRatio="none" style="width:549px;height:202px;background:#FFFFFF;" version="1.1" viewBox="0 0 549 202" width="549px" zoomAndPan="magnify"><defs/><g><!--MD5=[cb2163e785cfff9b832473241ff53ca2]
cluster net.sourceforge.plantuml.salt.element--><g id="cluster_net.sourceforge.plantuml.salt.element"><path d="M8.5,63 L312.5,63 A3.75,3.75 0 0 1 315,65.5 L322,85.2969 L539.5,85.2969 A2.5,2.5 0 0 1 542,87.7969 L542,192.5 A2.5,2.5 0 0 1 539.5,195 L8.5,195 A2.5,2.5 0 0 1 6,192.5 L6,65.5 A2.5,2.5 0 0 1 8.5,63 " fill="none" style="stroke:#000000;stroke-width:1.5;"/><line style="stroke:#000000;stroke-width:1.5;" x1="6" x2="322" y1="85.2969" y2="85.2969"/><text fill="#000000" font-family="sans-serif" font-size="14" font-weight="bold" lengthAdjust="spacing" textLength="303" x="10" y="77.9951">net.sourceforge.plantuml.salt.element</text></g><!--MD5=[3ac19e2e208cdcc1f3d374325d871fff]
class AbstractElementText--><g id="elem_AbstractElementText"><rect fill="#F1F1F1" height="48" id="AbstractElementText" rx="2.5" ry="2.5" style="stroke:#181818;stroke-width:0.5;" width="176" x="186" y="6"/><ellipse cx="201" cy="22" fill="#ADD1B2" rx="11" ry="11" style="stroke:#181818;stroke-width:1.0;"/><path d="M203.9688,27.6406 Q203.3906,27.9375 202.75,28.0781 Q202.1094,28.2344 201.4063,28.2344 Q198.9063,28.2344 197.5781,26.5938 Q196.2656,24.9375 196.2656,21.8125 Q196.2656,18.6875 197.5781,17.0313 Q198.9063,15.375 201.4063,15.375 Q202.1094,15.375 202.75,15.5313 Q203.4063,15.6875 203.9688,15.9844 L203.9688,18.7031 Q203.3438,18.125 202.75,17.8594 Q202.1563,17.5781 201.5313,17.5781 Q200.1875,17.5781 199.5,18.6563 Q198.8125,19.7188 198.8125,21.8125 Q198.8125,23.9063 199.5,24.9844 Q200.1875,26.0469 201.5313,26.0469 Q202.1563,26.0469 202.75,25.7813 Q203.3438,25.5 203.9688,24.9219 L203.9688,27.6406 Z " fill="#000000"/><text fill="#000000" font-family="sans-serif" font-size="14" lengthAdjust="spacing" textLength="144" x="215" y="26.8467">AbstractElementText</text><line style="stroke:#181818;stroke-width:0.5;" x1="187" x2="361" y1="38" y2="38"/><line style="stroke:#181818;stroke-width:0.5;" x1="187" x2="361" y1="46" y2="46"/></g><!--MD5=[cd901949329b707d0a83fcd6978f9dc3]
class net.sourceforge.plantuml.salt.element.ElementTextField--><g id="elem_net.sourceforge.plantuml.salt.element.ElementTextField"><rect codeLine="3" fill="#F1F1F1" height="96.8906" id="net.sourceforge.plantuml.salt.element.ElementTextField" rx="2.5" ry="2.5" style="stroke:#181818;stroke-width:0.5;" width="519" x="14.5" y="90"/><ellipse cx="210.25" cy="106" fill="#ADD1B2" rx="11" ry="11" style="stroke:#181818;stroke-width:1.0;"/><path d="M213.2188,111.6406 Q212.6406,111.9375 212,112.0781 Q211.3594,112.2344 210.6563,112.2344 Q208.1563,112.2344 206.8281,110.5938 Q205.5156,108.9375 205.5156,105.8125 Q205.5156,102.6875 206.8281,101.0313 Q208.1563,99.375 210.6563,99.375 Q211.3594,99.375 212,99.5313 Q212.6563,99.6875 213.2188,99.9844 L213.2188,102.7031 Q212.5938,102.125 212,101.8594 Q211.4063,101.5781 210.7813,101.5781 Q209.4375,101.5781 208.75,102.6563 Q208.0625,103.7188 208.0625,105.8125 Q208.0625,107.9063 208.75,108.9844 Q209.4375,110.0469 210.7813,110.0469 Q211.4063,110.0469 212,109.7813 Q212.5938,109.5 213.2188,108.9219 L213.2188,111.6406 Z " fill="#000000"/><text fill="#000000" font-family="sans-serif" font-size="14" lengthAdjust="spacing" textLength="119" x="230.75" y="110.8467">ElementTextField</text><line style="stroke:#181818;stroke-width:0.5;" x1="15.5" x2="532.5" y1="122" y2="122"/><line style="stroke:#181818;stroke-width:0.5;" x1="15.5" x2="532.5" y1="130" y2="130"/><a href="./../../../../../../.././qc/src/net/sourceforge/plantuml/salt/element/ElementTextField.java.html#48" target="_top" title="./../../../../../../.././qc/src/net/sourceforge/plantuml/salt/element/ElementTextField.java.html#48" xlink:actuate="onRequest" xlink:href="./../../../../../../.././qc/src/net/sourceforge/plantuml/salt/element/ElementTextField.java.html#48" xlink:show="new" xlink:title="./../../../../../../.././qc/src/net/sourceforge/plantuml/salt/element/ElementTextField.java.html#48" xlink:type="simple"><rect fill="#F1F1F1" height="10" style="stroke:none;stroke-width:1.0;" width="20" x="20.5" y="138.6484"/><ellipse cx="25.5" cy="143.6484" fill="#84BE84" rx="3" ry="3" style="stroke:#038048;stroke-width:1.0;"/></a><a href="./../../../../../../.././qc/src/net/sourceforge/plantuml/salt/element/ElementTextField.java.html#48" target="_top" title="./../../../../../../.././qc/src/net/sourceforge/plantuml/salt/element/ElementTextField.java.html#48" xlink:actuate="onRequest" xlink:href="./../../../../../../.././qc/src/net/sourceforge/plantuml/salt/element/ElementTextField.java.html#48" xlink:show="new" xlink:title="./../../../../../../.././qc/src/net/sourceforge/plantuml/salt/element/ElementTextField.java.html#48" xlink:type="simple"><text fill="#000000" font-family="sans-serif" font-size="14" lengthAdjust="spacing" textLength="430" x="34.5" y="146.9951">ElementTextField(String;UFont;ISkinSimple) : ElementTextField</text></a><a href="./../../../../../../.././qc/src/net/sourceforge/plantuml/salt/element/ElementTextField.java.html#52" target="_top" title="./../../../../../../.././qc/src/net/sourceforge/plantuml/salt/element/ElementTextField.java.html#52" xlink:actuate="onRequest" xlink:href="./../../../../../../.././qc/src/net/sourceforge/plantuml/salt/element/ElementTextField.java.html#52" xlink:show="new" xlink:title="./../../../../../../.././qc/src/net/sourceforge/plantuml/salt/element/ElementTextField.java.html#52" xlink:type="simple"><rect fill="#F1F1F1" height="10" style="stroke:none;stroke-width:1.0;" width="20" x="20.5" y="154.9453"/><ellipse cx="25.5" cy="159.9453" fill="#84BE84" rx="3" ry="3" style="stroke:#038048;stroke-width:1.0;"/></a><a href="./../../../../../../.././qc/src/net/sourceforge/plantuml/salt/element/ElementTextField.java.html#52" target="_top" title="./../../../../../../.././qc/src/net/sourceforge/plantuml/salt/element/ElementTextField.java.html#52" xlink:actuate="onRequest" xlink:href="./../../../../../../.././qc/src/net/sourceforge/plantuml/salt/element/ElementTextField.java.html#52" xlink:show="new" xlink:title="./../../../../../../.././qc/src/net/sourceforge/plantuml/salt/element/ElementTextField.java.html#52" xlink:type="simple"><text fill="#000000" font-family="sans-serif" font-size="14" lengthAdjust="spacing" textLength="493" x="34.5" y="163.292">getPreferredDimension(StringBounder;double;double) : XDimension2D</text></a><a href="./../../../../../../.././qc/src/net/sourceforge/plantuml/salt/element/ElementTextField.java.html#57" target="_top" title="./../../../../../../.././qc/src/net/sourceforge/plantuml/salt/element/ElementTextField.java.html#57" xlink:actuate="onRequest" xlink:href="./../../../../../../.././qc/src/net/sourceforge/plantuml/salt/element/ElementTextField.java.html#57" xlink:show="new" xlink:title="./../../../../../../.././qc/src/net/sourceforge/plantuml/salt/element/ElementTextField.java.html#57" xlink:type="simple"><rect fill="#F1F1F1" height="10" style="stroke:none;stroke-width:1.0;" width="20" x="20.5" y="171.2422"/><ellipse cx="25.5" cy="176.2422" fill="#84BE84" rx="3" ry="3" style="stroke:#038048;stroke-width:1.0;"/></a><a href="./../../../../../../.././qc/src/net/sourceforge/plantuml/salt/element/ElementTextField.java.html#57" target="_top" title="./../../../../../../.././qc/src/net/sourceforge/plantuml/salt/element/ElementTextField.java.html#57" xlink:actuate="onRequest" xlink:href="./../../../../../../.././qc/src/net/sourceforge/plantuml/salt/element/ElementTextField.java.html#57" xlink:show="new" xlink:title="./../../../../../../.././qc/src/net/sourceforge/plantuml/salt/element/ElementTextField.java.html#57" xlink:type="simple"><text fill="#000000" font-family="sans-serif" font-size="14" lengthAdjust="spacing" textLength="287" x="34.5" y="179.5889">drawU(UGraphic;int;XDimension2D) : void</text></a></g><path d="M274,54.1089 C274,64.6313 274,77.495 274,89.9394 " fill="none" style="stroke:#181818;stroke-width:1.0;"/><polygon fill="#FFFFFF" points="274,54.1089,268,70.1089,280,70.1089,274,54.1089" style="stroke:#181818;stroke-width:1.0;"/><!--MD5=[6344531f4be01d0bc57dd5439ecdf42c]
@startuml
!pragma layout smetana
"AbstractElementText" <|- - "net.sourceforge.plantuml.salt.element.ElementTextField"
class net.sourceforge.plantuml.salt.element.ElementTextField {
+ElementTextField(String;UFont;ISkinSimple) : ElementTextField [[[./../../../../../../.././qc/src/net/sourceforge/plantuml/salt/element/ElementTextField.java.html#48]]]
+getPreferredDimension(StringBounder;double;double) : XDimension2D [[[./../../../../../../.././qc/src/net/sourceforge/plantuml/salt/element/ElementTextField.java.html#52]]]
+drawU(UGraphic;int;XDimension2D) : void [[[./../../../../../../.././qc/src/net/sourceforge/plantuml/salt/element/ElementTextField.java.html#57]]]
} 
@enduml

PlantUML version 1.2022.7(Mon Aug 22 17:01:30 UTC 2022)
(GPL source distribution)
Java Runtime: OpenJDK Runtime Environment
JVM: OpenJDK 64-Bit Server VM
Default Encoding: UTF-8
Language: en
Country: null
--></g></svg>