<?xml version="1.0" encoding="UTF-8" standalone="no"?><svg xmlns="http://www.w3.org/2000/svg" xmlns:xlink="http://www.w3.org/1999/xlink" contentStyleType="text/css" height="2878px" preserveAspectRatio="none" style="width:771px;height:2878px;background:#FFFFFF;" version="1.1" viewBox="0 0 771 2878" width="771px" zoomAndPan="magnify"><defs/><g><path d="M294.5,10 L294.5,18.5664 L274.5,22.5664 L294.5,26.5664 L294.5,35.1328 A0,0 0 0 0 294.5,35.1328 L759.5,35.1328 A0,0 0 0 0 759.5,35.1328 L759.5,20 L749.5,10 L294.5,10 A0,0 0 0 0 294.5,10 " fill="#FEFFDD" style="stroke:#181818;stroke-width:0.5;"/><path d="M749.5,10 L749.5,20 L759.5,20 L749.5,10 " fill="#FEFFDD" style="stroke:#181818;stroke-width:0.5;"/><text fill="#000000" font-family="sans-serif" font-size="13" lengthAdjust="spacing" textLength="444" x="300.5" y="27.0669">constructor ElementMenuBar(UFont font,ISkinSimple spriteContainer)</text><ellipse cx="264.5" cy="22.5664" fill="#222222" rx="10" ry="10" style="stroke:#222222;stroke-width:1.0;"/><rect fill="#F1F1F1" height="33.9688" rx="12.5" ry="12.5" style="stroke:#181818;stroke-width:0.5;" width="111" x="209" y="55.1328"/><text fill="#000000" font-family="sans-serif" font-size="12" lengthAdjust="spacing" textLength="91" x="219" y="76.2715">this.font=font;</text><rect fill="#F1F1F1" height="33.9688" rx="12.5" ry="12.5" style="stroke:#181818;stroke-width:0.5;" width="255" x="137" y="109.1016"/><text fill="#000000" font-family="sans-serif" font-size="12" lengthAdjust="spacing" textLength="235" x="147" y="130.2402">this.spriteContainer=spriteContainer;</text><ellipse cx="264.5" cy="173.0703" fill="none" rx="10" ry="10" style="stroke:#222222;stroke-width:1.5;"/><line style="stroke:#222222;stroke-width:2.5;" x1="258.3128" x2="270.6872" y1="166.8831" y2="179.2575"/><line style="stroke:#222222;stroke-width:2.5;" x1="270.6872" x2="258.3128" y1="166.8831" y2="179.2575"/><path d="M294.5,193.0703 L294.5,201.6367 L274.5,205.6367 L294.5,209.6367 L294.5,218.2031 A0,0 0 0 0 294.5,218.2031 L461.5,218.2031 A0,0 0 0 0 461.5,218.2031 L461.5,203.0703 L451.5,193.0703 L294.5,193.0703 A0,0 0 0 0 294.5,193.0703 " fill="#FEFFDD" style="stroke:#181818;stroke-width:0.5;"/><path d="M451.5,193.0703 L451.5,203.0703 L461.5,203.0703 L451.5,193.0703 " fill="#FEFFDD" style="stroke:#181818;stroke-width:0.5;"/><text fill="#000000" font-family="sans-serif" font-size="13" lengthAdjust="spacing" textLength="146" x="300.5" y="210.1372">void addEntry(String s)</text><ellipse cx="264.5" cy="205.6367" fill="#222222" rx="10" ry="10" style="stroke:#222222;stroke-width:1.0;"/><rect fill="#F1F1F1" height="47.9375" rx="12.5" ry="12.5" style="stroke:#181818;stroke-width:0.5;" width="288" x="120.5" y="238.2031"/><text fill="#000000" font-family="sans-serif" font-size="12" lengthAdjust="spacing" textLength="268" x="130.5" y="259.3418">entries.add(new ElementMenuEntry(s,font,</text><text fill="#000000" font-family="sans-serif" font-size="12" lengthAdjust="spacing" textLength="111" x="130.5" y="273.3105">spriteContainer));</text><ellipse cx="264.5" cy="316.1406" fill="none" rx="10" ry="10" style="stroke:#222222;stroke-width:1.5;"/><line style="stroke:#222222;stroke-width:2.5;" x1="258.3128" x2="270.6872" y1="309.9534" y2="322.3278"/><line style="stroke:#222222;stroke-width:2.5;" x1="270.6872" x2="258.3128" y1="309.9534" y2="322.3278"/><path d="M294.5,336.1406 L294.5,344.707 L274.5,348.707 L294.5,352.707 L294.5,361.2734 A0,0 0 0 0 294.5,361.2734 L555.5,361.2734 A0,0 0 0 0 555.5,361.2734 L555.5,346.1406 L545.5,336.1406 L294.5,336.1406 A0,0 0 0 0 294.5,336.1406 " fill="#FEFFDD" style="stroke:#181818;stroke-width:0.5;"/><path d="M545.5,336.1406 L545.5,346.1406 L555.5,346.1406 L545.5,336.1406 " fill="#FEFFDD" style="stroke:#181818;stroke-width:0.5;"/><text fill="#000000" font-family="sans-serif" font-size="13" lengthAdjust="spacing" textLength="240" x="300.5" y="353.2075">void addSubEntry(String s,String sub)</text><ellipse cx="264.5" cy="348.707" fill="#222222" rx="10" ry="10" style="stroke:#222222;stroke-width:1.0;"/><rect fill="#F1F1F1" height="33.9688" rx="12.5" ry="12.5" style="stroke:#181818;stroke-width:0.5;" width="459" x="35" y="381.2734"/><text fill="#000000" font-family="sans-serif" font-size="12" lengthAdjust="spacing" textLength="439" x="45" y="402.4121">final ElementMenuPopup popup=getPopup(getElementMenuEntry(s));</text><rect fill="#F1F1F1" height="33.9688" rx="12.5" ry="12.5" style="stroke:#181818;stroke-width:0.5;" width="157" x="186" y="435.2422"/><text fill="#000000" font-family="sans-serif" font-size="12" lengthAdjust="spacing" textLength="137" x="196" y="456.3809">popup.addEntry(sub);</text><ellipse cx="264.5" cy="499.2109" fill="none" rx="10" ry="10" style="stroke:#222222;stroke-width:1.5;"/><line style="stroke:#222222;stroke-width:2.5;" x1="258.3128" x2="270.6872" y1="493.0238" y2="505.3981"/><line style="stroke:#222222;stroke-width:2.5;" x1="270.6872" x2="258.3128" y1="493.0238" y2="505.3981"/><path d="M294.5,519.2109 L294.5,527.7773 L274.5,531.7773 L294.5,535.7773 L294.5,544.3438 A0,0 0 0 0 294.5,544.3438 L650.5,544.3438 A0,0 0 0 0 650.5,544.3438 L650.5,529.2109 L640.5,519.2109 L294.5,519.2109 A0,0 0 0 0 294.5,519.2109 " fill="#FEFFDD" style="stroke:#181818;stroke-width:0.5;"/><path d="M640.5,519.2109 L640.5,529.2109 L650.5,529.2109 L640.5,519.2109 " fill="#FEFFDD" style="stroke:#181818;stroke-width:0.5;"/><text fill="#000000" font-family="sans-serif" font-size="13" lengthAdjust="spacing" textLength="335" x="300.5" y="536.2778">ElementMenuPopup getPopup(ElementMenuEntry s)</text><ellipse cx="264.5" cy="531.7773" fill="#222222" rx="10" ry="10" style="stroke:#222222;stroke-width:1.0;"/><rect fill="#F1F1F1" height="33.9688" rx="12.5" ry="12.5" style="stroke:#181818;stroke-width:0.5;" width="292" x="118.5" y="564.3438"/><text fill="#000000" font-family="sans-serif" font-size="12" lengthAdjust="spacing" textLength="272" x="128.5" y="585.4824">ElementMenuPopup popup=popups.get(s);</text><rect fill="#F1F1F1" height="33.9688" rx="12.5" ry="12.5" style="stroke:#181818;stroke-width:0.5;" width="364" x="82.5" y="666.7148"/><text fill="#000000" font-family="sans-serif" font-size="12" lengthAdjust="spacing" textLength="344" x="92.5" y="687.8535">popup=new ElementMenuPopup(font,spriteContainer);</text><rect fill="#F1F1F1" height="33.9688" rx="12.5" ry="12.5" style="stroke:#181818;stroke-width:0.5;" width="157" x="186" y="735.6836"/><text fill="#000000" font-family="sans-serif" font-size="12" lengthAdjust="spacing" textLength="137" x="196" y="756.8223">popups.put(s,popup);</text><polygon fill="#F1F1F1" points="226,618.3125,303,618.3125,315,630.3125,303,642.3125,226,642.3125,214,630.3125,226,618.3125" style="stroke:#181818;stroke-width:0.5;"/><text fill="#000000" font-family="sans-serif" font-size="11" lengthAdjust="spacing" textLength="20" x="268.5" y="652.5229">yes</text><text fill="#000000" font-family="sans-serif" font-size="11" lengthAdjust="spacing" textLength="73" x="226" y="634.1206">popup==null</text><polygon fill="#F1F1F1" points="264.5,789.6523,276.5,801.6523,264.5,813.6523,252.5,801.6523,264.5,789.6523" style="stroke:#181818;stroke-width:0.5;"/><rect fill="#F1F1F1" height="33.9688" rx="12.5" ry="12.5" style="stroke:#181818;stroke-width:0.5;" width="107" x="211" y="833.6523"/><text fill="#000000" font-family="sans-serif" font-size="12" lengthAdjust="spacing" textLength="87" x="221" y="854.791">return popup;</text><ellipse cx="264.5" cy="898.6211" fill="none" rx="11" ry="11" style="stroke:#222222;stroke-width:1.0;"/><ellipse cx="264.5" cy="898.6211" fill="#222222" rx="6" ry="6" style="stroke:#111111;stroke-width:1.0;"/><ellipse cx="264.5" cy="929.6211" fill="none" rx="10" ry="10" style="stroke:#222222;stroke-width:1.5;"/><line style="stroke:#222222;stroke-width:2.5;" x1="258.3128" x2="270.6872" y1="923.4339" y2="935.8083"/><line style="stroke:#222222;stroke-width:2.5;" x1="270.6872" x2="258.3128" y1="923.4339" y2="935.8083"/><path d="M294.5,949.6211 L294.5,958.1875 L274.5,962.1875 L294.5,966.1875 L294.5,974.7539 A0,0 0 0 0 294.5,974.7539 L642.5,974.7539 A0,0 0 0 0 642.5,974.7539 L642.5,959.6211 L632.5,949.6211 L294.5,949.6211 A0,0 0 0 0 294.5,949.6211 " fill="#FEFFDD" style="stroke:#181818;stroke-width:0.5;"/><path d="M632.5,949.6211 L632.5,959.6211 L642.5,959.6211 L632.5,949.6211 " fill="#FEFFDD" style="stroke:#181818;stroke-width:0.5;"/><text fill="#000000" font-family="sans-serif" font-size="13" lengthAdjust="spacing" textLength="327" x="300.5" y="966.688">ElementMenuEntry getElementMenuEntry(String n)</text><ellipse cx="264.5" cy="962.1875" fill="#222222" rx="10" ry="10" style="stroke:#222222;stroke-width:1.0;"/><rect fill="#F1F1F1" height="33.9688" rx="12.5" ry="12.5" style="stroke:#181818;stroke-width:0.5;" width="99" x="215" y="1043.1563"/><text fill="#000000" font-family="sans-serif" font-size="12" lengthAdjust="spacing" textLength="79" x="225" y="1064.2949">return entry;</text><ellipse cx="264.5" cy="1116.6406" fill="none" rx="11" ry="11" style="stroke:#222222;stroke-width:1.0;"/><ellipse cx="264.5" cy="1116.6406" fill="#222222" rx="6" ry="6" style="stroke:#111111;stroke-width:1.0;"/><polygon fill="#F1F1F1" points="194.5,994.7539,334.5,994.7539,346.5,1006.7539,334.5,1018.7539,194.5,1018.7539,182.5,1006.7539,194.5,994.7539" style="stroke:#181818;stroke-width:0.5;"/><text fill="#000000" font-family="sans-serif" font-size="11" lengthAdjust="spacing" textLength="20" x="268.5" y="1028.9644">yes</text><text fill="#000000" font-family="sans-serif" font-size="11" lengthAdjust="spacing" textLength="140" x="194.5" y="1010.562">entry.getText().equals(n)</text><rect fill="#F1F1F1" height="33.9688" rx="12.5" ry="12.5" style="stroke:#181818;stroke-width:0.5;" width="260" x="134.5" y="1169.6406"/><text fill="#000000" font-family="sans-serif" font-size="12" lengthAdjust="spacing" textLength="240" x="144.5" y="1190.7793">throw new IllegalArgumentException();</text><ellipse cx="264.5" cy="1234.6094" fill="none" rx="11" ry="11" style="stroke:#222222;stroke-width:1.0;"/><ellipse cx="264.5" cy="1234.6094" fill="#222222" rx="6" ry="6" style="stroke:#111111;stroke-width:1.0;"/><ellipse cx="264.5" cy="1265.6094" fill="none" rx="10" ry="10" style="stroke:#222222;stroke-width:1.5;"/><line style="stroke:#222222;stroke-width:2.5;" x1="258.3128" x2="270.6872" y1="1259.4222" y2="1271.7966"/><line style="stroke:#222222;stroke-width:2.5;" x1="270.6872" x2="258.3128" y1="1259.4222" y2="1271.7966"/><path d="M294.5,1285.6094 L294.5,1301.7422 L274.5,1305.7422 L294.5,1309.7422 L294.5,1325.875 A0,0 0 0 0 294.5,1325.875 L756.5,1325.875 A0,0 0 0 0 756.5,1325.875 L756.5,1295.6094 L746.5,1285.6094 L294.5,1285.6094 A0,0 0 0 0 294.5,1285.6094 " fill="#FEFFDD" style="stroke:#181818;stroke-width:0.5;"/><path d="M746.5,1285.6094 L746.5,1295.6094 L756.5,1295.6094 L746.5,1285.6094 " fill="#FEFFDD" style="stroke:#181818;stroke-width:0.5;"/><text fill="#000000" font-family="sans-serif" font-size="13" lengthAdjust="spacing" textLength="441" x="300.5" y="1302.6763">XDimension2D getPreferredDimension(StringBounder stringBounder,</text><text fill="#000000" font-family="sans-serif" font-size="13" lengthAdjust="spacing" textLength="117" x="300.5" y="1317.8091">double x,double y)</text><ellipse cx="264.5" cy="1305.7422" fill="#222222" rx="10" ry="10" style="stroke:#222222;stroke-width:1.0;"/><rect fill="#F1F1F1" height="33.9688" rx="12.5" ry="12.5" style="stroke:#181818;stroke-width:0.5;" width="98" x="215.5" y="1345.875"/><text fill="#000000" font-family="sans-serif" font-size="12" lengthAdjust="spacing" textLength="78" x="225.5" y="1367.0137">double w=0;</text><rect fill="#F1F1F1" height="33.9688" rx="12.5" ry="12.5" style="stroke:#181818;stroke-width:0.5;" width="97" x="216" y="1399.8438"/><text fill="#000000" font-family="sans-serif" font-size="12" lengthAdjust="spacing" textLength="77" x="226" y="1420.9824">double h=0;</text><rect fill="#F1F1F1" height="47.9375" rx="12.5" ry="12.5" style="stroke:#181818;stroke-width:0.5;" width="454" x="37.5" y="1453.8125"/><text fill="#000000" font-family="sans-serif" font-size="12" lengthAdjust="spacing" textLength="434" x="47.5" y="1474.9512">final XDimension2D dim=entry.getPreferredDimension(stringBounder,</text><text fill="#000000" font-family="sans-serif" font-size="12" lengthAdjust="spacing" textLength="25" x="47.5" y="1488.9199">x,y);</text><rect fill="#F1F1F1" height="33.9688" rx="12.5" ry="12.5" style="stroke:#181818;stroke-width:0.5;" width="171" x="179" y="1521.75"/><text fill="#000000" font-family="sans-serif" font-size="12" lengthAdjust="spacing" textLength="151" x="189" y="1542.8887">w+=dim.getWidth()+10;</text><rect fill="#F1F1F1" height="33.9688" rx="12.5" ry="12.5" style="stroke:#181818;stroke-width:0.5;" width="222" x="153.5" y="1575.7188"/><text fill="#000000" font-family="sans-serif" font-size="12" lengthAdjust="spacing" textLength="202" x="163.5" y="1596.8574">h=Math.max(h,dim.getHeight());</text><rect fill="#F1F1F1" height="33.9688" rx="12.5" ry="12.5" style="stroke:#181818;stroke-width:0.5;" width="216" x="156.5" y="1629.6875"/><text fill="#000000" font-family="sans-serif" font-size="12" lengthAdjust="spacing" textLength="196" x="166.5" y="1650.8262">return new XDimension2D(w,h);</text><ellipse cx="264.5" cy="1694.6563" fill="none" rx="11" ry="11" style="stroke:#222222;stroke-width:1.0;"/><ellipse cx="264.5" cy="1694.6563" fill="#222222" rx="6" ry="6" style="stroke:#111111;stroke-width:1.0;"/><ellipse cx="264.5" cy="1725.6563" fill="none" rx="10" ry="10" style="stroke:#222222;stroke-width:1.5;"/><line style="stroke:#222222;stroke-width:2.5;" x1="258.3128" x2="270.6872" y1="1719.4691" y2="1731.8434"/><line style="stroke:#222222;stroke-width:2.5;" x1="270.6872" x2="258.3128" y1="1719.4691" y2="1731.8434"/><path d="M294.5,1745.6563 L294.5,1754.2227 L274.5,1758.2227 L294.5,1762.2227 L294.5,1770.7891 A0,0 0 0 0 294.5,1770.7891 L705.5,1770.7891 A0,0 0 0 0 705.5,1770.7891 L705.5,1755.6563 L695.5,1745.6563 L294.5,1745.6563 A0,0 0 0 0 294.5,1745.6563 " fill="#FEFFDD" style="stroke:#181818;stroke-width:0.5;"/><path d="M695.5,1745.6563 L695.5,1755.6563 L705.5,1755.6563 L695.5,1745.6563 " fill="#FEFFDD" style="stroke:#181818;stroke-width:0.5;"/><text fill="#000000" font-family="sans-serif" font-size="13" lengthAdjust="spacing" textLength="390" x="300.5" y="1762.7231">void drawU(UGraphic ug,int zIndex,XDimension2D dimToUse)</text><ellipse cx="264.5" cy="1758.2227" fill="#222222" rx="10" ry="10" style="stroke:#222222;stroke-width:1.0;"/><rect fill="#F1F1F1" height="47.9375" rx="12.5" ry="12.5" style="stroke:#181818;stroke-width:0.5;" width="507" x="11" y="1790.7891"/><text fill="#000000" font-family="sans-serif" font-size="12" lengthAdjust="spacing" textLength="487" x="21" y="1811.9277">final XDimension2D preferred=getPreferredDimension(ug.getStringBounder(),</text><text fill="#000000" font-family="sans-serif" font-size="12" lengthAdjust="spacing" textLength="29" x="21" y="1825.8965">0,0);</text><rect fill="#F1F1F1" height="33.9688" rx="12.5" ry="12.5" style="stroke:#181818;stroke-width:0.5;" width="177" x="176" y="1858.7266"/><text fill="#000000" font-family="sans-serif" font-size="12" lengthAdjust="spacing" textLength="157" x="186" y="1879.8652">ug=ug.apply(getBlack());</text><rect fill="#F1F1F1" height="33.9688" rx="12.5" ry="12.5" style="stroke:#181818;stroke-width:0.5;" width="103" x="213" y="1912.6953"/><text fill="#000000" font-family="sans-serif" font-size="12" lengthAdjust="spacing" textLength="83" x="223" y="1933.834">double x1=0;</text><rect fill="#F1F1F1" height="47.9375" rx="12.5" ry="12.5" style="stroke:#181818;stroke-width:0.5;" width="474" x="27.5" y="2015.0664"/><text fill="#000000" font-family="sans-serif" font-size="12" lengthAdjust="spacing" textLength="454" x="37.5" y="2036.2051">ug.apply(getColorDD().bg()).draw(new URectangle(dimToUse.getWidth(),</text><text fill="#000000" font-family="sans-serif" font-size="12" lengthAdjust="spacing" textLength="151" x="37.5" y="2050.1738">dimToUse.getHeight()));</text><rect fill="#F1F1F1" height="47.9375" rx="12.5" ry="12.5" style="stroke:#181818;stroke-width:0.5;" width="277" x="126" y="2083.0039"/><text fill="#000000" font-family="sans-serif" font-size="12" lengthAdjust="spacing" textLength="257" x="136" y="2104.1426">entry.drawU(ug.apply(UTranslate.dx(x1)),</text><text fill="#000000" font-family="sans-serif" font-size="12" lengthAdjust="spacing" textLength="112" x="136" y="2118.1113">zIndex,dimToUse);</text><rect fill="#F1F1F1" height="47.9375" rx="12.5" ry="12.5" style="stroke:#181818;stroke-width:0.5;" width="447" x="41" y="2150.9414"/><text fill="#000000" font-family="sans-serif" font-size="12" lengthAdjust="spacing" textLength="427" x="51" y="2172.0801">final double w=entry.getPreferredDimension(ug.getStringBounder(),</text><text fill="#000000" font-family="sans-serif" font-size="12" lengthAdjust="spacing" textLength="105" x="51" y="2186.0488">x1,0).getWidth();</text><rect fill="#F1F1F1" height="33.9688" rx="12.5" ry="12.5" style="stroke:#181818;stroke-width:0.5;" width="111" x="209" y="2231.832"/><text fill="#000000" font-family="sans-serif" font-size="12" lengthAdjust="spacing" textLength="91" x="219" y="2252.9707">entry.setX(x1);</text><rect fill="#F1F1F1" height="33.9688" rx="12.5" ry="12.5" style="stroke:#181818;stroke-width:0.5;" width="93" x="218" y="2285.8008"/><text fill="#000000" font-family="sans-serif" font-size="12" lengthAdjust="spacing" textLength="73" x="228" y="2306.9395">x1+=w+10;</text><rect fill="#F1F1F1" height="33.9688" rx="12.5" ry="12.5" style="stroke:#181818;stroke-width:0.5;" width="67" x="231" y="2339.7695"/><text fill="#000000" font-family="sans-serif" font-size="12" lengthAdjust="spacing" textLength="47" x="241" y="2360.9082">return ;</text><ellipse cx="264.5" cy="2404.7383" fill="none" rx="11" ry="11" style="stroke:#222222;stroke-width:1.0;"/><ellipse cx="264.5" cy="2404.7383" fill="#222222" rx="6" ry="6" style="stroke:#111111;stroke-width:1.0;"/><polygon fill="#F1F1F1" points="234.5,1966.6641,294.5,1966.6641,306.5,1978.6641,294.5,1990.6641,234.5,1990.6641,222.5,1978.6641,234.5,1966.6641" style="stroke:#181818;stroke-width:0.5;"/><text fill="#000000" font-family="sans-serif" font-size="11" lengthAdjust="spacing" textLength="20" x="268.5" y="2000.8745">yes</text><text fill="#000000" font-family="sans-serif" font-size="11" lengthAdjust="spacing" textLength="60" x="234.5" y="1982.4722">zIndex==0</text><rect fill="#F1F1F1" height="33.9688" rx="12.5" ry="12.5" style="stroke:#181818;stroke-width:0.5;" width="244" x="142.5" y="2506.1406"/><text fill="#000000" font-family="sans-serif" font-size="12" lengthAdjust="spacing" textLength="224" x="152.5" y="2527.2793">entry.setBackground(getColorBB());</text><rect fill="#F1F1F1" height="33.9688" rx="12.5" ry="12.5" style="stroke:#181818;stroke-width:0.5;" width="260" x="134.5" y="2560.1094"/><text fill="#000000" font-family="sans-serif" font-size="12" lengthAdjust="spacing" textLength="240" x="144.5" y="2581.248">final double y1=preferred.getHeight();</text><rect fill="#F1F1F1" height="33.9688" rx="12.5" ry="12.5" style="stroke:#181818;stroke-width:0.5;" width="292" x="118.5" y="2614.0781"/><text fill="#000000" font-family="sans-serif" font-size="12" lengthAdjust="spacing" textLength="272" x="128.5" y="2635.2168">final ElementMenuPopup p=ent.getValue();</text><rect fill="#F1F1F1" height="33.9688" rx="12.5" ry="12.5" style="stroke:#181818;stroke-width:0.5;" width="276" x="126.5" y="2668.0469"/><text fill="#000000" font-family="sans-serif" font-size="12" lengthAdjust="spacing" textLength="256" x="136.5" y="2689.1855">final double xpopup=ent.getKey().getX();</text><rect fill="#F1F1F1" height="61.9063" rx="12.5" ry="12.5" style="stroke:#181818;stroke-width:0.5;" width="369" x="80" y="2722.0156"/><text fill="#000000" font-family="sans-serif" font-size="12" lengthAdjust="spacing" textLength="294" x="90" y="2743.1543">p.drawU(ug.apply(new UTranslate(xpopup,y1)),</text><text fill="#000000" font-family="sans-serif" font-size="12" lengthAdjust="spacing" textLength="349" x="90" y="2757.123">zIndex,p.getPreferredDimension(ug.getStringBounder(),</text><text fill="#000000" font-family="sans-serif" font-size="12" lengthAdjust="spacing" textLength="78" x="90" y="2771.0918">xpopup,y1));</text><polygon fill="#F1F1F1" points="234.5,2457.7383,294.5,2457.7383,306.5,2469.7383,294.5,2481.7383,234.5,2481.7383,222.5,2469.7383,234.5,2457.7383" style="stroke:#181818;stroke-width:0.5;"/><text fill="#000000" font-family="sans-serif" font-size="11" lengthAdjust="spacing" textLength="20" x="268.5" y="2491.9487">yes</text><text fill="#000000" font-family="sans-serif" font-size="11" lengthAdjust="spacing" textLength="60" x="234.5" y="2473.5464">zIndex==1</text><polygon fill="#F1F1F1" points="264.5,2803.9219,276.5,2815.9219,264.5,2827.9219,252.5,2815.9219,264.5,2803.9219" style="stroke:#181818;stroke-width:0.5;"/><ellipse cx="264.5" cy="2857.9219" fill="none" rx="10" ry="10" style="stroke:#222222;stroke-width:1.5;"/><line style="stroke:#222222;stroke-width:2.5;" x1="258.3128" x2="270.6872" y1="2851.7347" y2="2864.1091"/><line style="stroke:#222222;stroke-width:2.5;" x1="270.6872" x2="258.3128" y1="2851.7347" y2="2864.1091"/><line style="stroke:#181818;stroke-width:1.0;" x1="264.5" x2="264.5" y1="32.5664" y2="55.1328"/><polygon fill="#181818" points="260.5,45.1328,264.5,55.1328,268.5,45.1328,264.5,49.1328" style="stroke:#181818;stroke-width:1.0;"/><line style="stroke:#181818;stroke-width:1.0;" x1="264.5" x2="264.5" y1="89.1016" y2="109.1016"/><polygon fill="#181818" points="260.5,99.1016,264.5,109.1016,268.5,99.1016,264.5,103.1016" style="stroke:#181818;stroke-width:1.0;"/><line style="stroke:#181818;stroke-width:1.0;" x1="264.5" x2="264.5" y1="143.0703" y2="163.0703"/><polygon fill="#181818" points="260.5,153.0703,264.5,163.0703,268.5,153.0703,264.5,157.0703" style="stroke:#181818;stroke-width:1.0;"/><line style="stroke:#181818;stroke-width:1.0;" x1="264.5" x2="264.5" y1="215.6367" y2="238.2031"/><polygon fill="#181818" points="260.5,228.2031,264.5,238.2031,268.5,228.2031,264.5,232.2031" style="stroke:#181818;stroke-width:1.0;"/><line style="stroke:#181818;stroke-width:1.0;" x1="264.5" x2="264.5" y1="286.1406" y2="306.1406"/><polygon fill="#181818" points="260.5,296.1406,264.5,306.1406,268.5,296.1406,264.5,300.1406" style="stroke:#181818;stroke-width:1.0;"/><line style="stroke:#181818;stroke-width:1.0;" x1="264.5" x2="264.5" y1="358.707" y2="381.2734"/><polygon fill="#181818" points="260.5,371.2734,264.5,381.2734,268.5,371.2734,264.5,375.2734" style="stroke:#181818;stroke-width:1.0;"/><line style="stroke:#181818;stroke-width:1.0;" x1="264.5" x2="264.5" y1="415.2422" y2="435.2422"/><polygon fill="#181818" points="260.5,425.2422,264.5,435.2422,268.5,425.2422,264.5,429.2422" style="stroke:#181818;stroke-width:1.0;"/><line style="stroke:#181818;stroke-width:1.0;" x1="264.5" x2="264.5" y1="469.2109" y2="489.2109"/><polygon fill="#181818" points="260.5,479.2109,264.5,489.2109,268.5,479.2109,264.5,483.2109" style="stroke:#181818;stroke-width:1.0;"/><line style="stroke:#181818;stroke-width:1.0;" x1="264.5" x2="264.5" y1="541.7773" y2="564.3438"/><polygon fill="#181818" points="260.5,554.3438,264.5,564.3438,268.5,554.3438,264.5,558.3438" style="stroke:#181818;stroke-width:1.0;"/><line style="stroke:#181818;stroke-width:1.0;" x1="264.5" x2="264.5" y1="700.6836" y2="735.6836"/><polygon fill="#181818" points="260.5,725.6836,264.5,735.6836,268.5,725.6836,264.5,729.6836" style="stroke:#181818;stroke-width:1.0;"/><line style="stroke:#181818;stroke-width:1.0;" x1="264.5" x2="264.5" y1="642.3125" y2="666.7148"/><polygon fill="#181818" points="260.5,656.7148,264.5,666.7148,268.5,656.7148,264.5,660.7148" style="stroke:#181818;stroke-width:1.0;"/><line style="stroke:#181818;stroke-width:1.0;" x1="315" x2="456.5" y1="630.3125" y2="630.3125"/><polygon fill="#181818" points="452.5,708.1836,456.5,718.1836,460.5,708.1836,456.5,712.1836" style="stroke:#181818;stroke-width:1.0;"/><line style="stroke:#181818;stroke-width:1.0;" x1="456.5" x2="456.5" y1="630.3125" y2="801.6523"/><line style="stroke:#181818;stroke-width:1.0;" x1="456.5" x2="276.5" y1="801.6523" y2="801.6523"/><polygon fill="#181818" points="286.5,797.6523,276.5,801.6523,286.5,805.6523,282.5,801.6523" style="stroke:#181818;stroke-width:1.0;"/><line style="stroke:#181818;stroke-width:1.0;" x1="264.5" x2="264.5" y1="769.6523" y2="789.6523"/><polygon fill="#181818" points="260.5,779.6523,264.5,789.6523,268.5,779.6523,264.5,783.6523" style="stroke:#181818;stroke-width:1.0;"/><line style="stroke:#181818;stroke-width:1.0;" x1="264.5" x2="264.5" y1="598.3125" y2="618.3125"/><polygon fill="#181818" points="260.5,608.3125,264.5,618.3125,268.5,608.3125,264.5,612.3125" style="stroke:#181818;stroke-width:1.0;"/><line style="stroke:#181818;stroke-width:1.0;" x1="264.5" x2="264.5" y1="813.6523" y2="833.6523"/><polygon fill="#181818" points="260.5,823.6523,264.5,833.6523,268.5,823.6523,264.5,827.6523" style="stroke:#181818;stroke-width:1.0;"/><line style="stroke:#181818;stroke-width:1.0;" x1="264.5" x2="264.5" y1="867.6211" y2="887.6211"/><polygon fill="#181818" points="260.5,877.6211,264.5,887.6211,268.5,877.6211,264.5,881.6211" style="stroke:#181818;stroke-width:1.0;"/><line style="stroke:#181818;stroke-width:1.0;" x1="264.5" x2="264.5" y1="1077.125" y2="1105.6406"/><polygon fill="#181818" points="260.5,1095.6406,264.5,1105.6406,268.5,1095.6406,264.5,1099.6406" style="stroke:#181818;stroke-width:1.0;"/><line style="stroke:#181818;stroke-width:1.0;" x1="264.5" x2="264.5" y1="1018.7539" y2="1043.1563"/><polygon fill="#181818" points="260.5,1033.1563,264.5,1043.1563,268.5,1033.1563,264.5,1037.1563" style="stroke:#181818;stroke-width:1.0;"/><line style="stroke:#181818;stroke-width:1.0;" x1="346.5" x2="358.5" y1="1006.7539" y2="1006.7539"/><polygon fill="#181818" points="354.5,1075.6406,358.5,1085.6406,362.5,1075.6406,358.5,1079.6406" style="stroke:#181818;stroke-width:1.0;"/><line style="stroke:#181818;stroke-width:1.0;" x1="358.5" x2="358.5" y1="1006.7539" y2="1149.6406"/><line style="stroke:#181818;stroke-width:1.0;" x1="358.5" x2="264.5" y1="1149.6406" y2="1149.6406"/><line style="stroke:#181818;stroke-width:1.0;" x1="264.5" x2="264.5" y1="1149.6406" y2="1169.6406"/><polygon fill="#181818" points="260.5,1159.6406,264.5,1169.6406,268.5,1159.6406,264.5,1163.6406" style="stroke:#181818;stroke-width:1.0;"/><line style="stroke:#181818;stroke-width:1.0;" x1="264.5" x2="264.5" y1="972.1875" y2="994.7539"/><polygon fill="#181818" points="260.5,984.7539,264.5,994.7539,268.5,984.7539,264.5,988.7539" style="stroke:#181818;stroke-width:1.0;"/><line style="stroke:#181818;stroke-width:1.0;" x1="264.5" x2="264.5" y1="1203.6094" y2="1223.6094"/><polygon fill="#181818" points="260.5,1213.6094,264.5,1223.6094,268.5,1213.6094,264.5,1217.6094" style="stroke:#181818;stroke-width:1.0;"/><line style="stroke:#181818;stroke-width:1.0;" x1="264.5" x2="264.5" y1="1315.7422" y2="1345.875"/><polygon fill="#181818" points="260.5,1335.875,264.5,1345.875,268.5,1335.875,264.5,1339.875" style="stroke:#181818;stroke-width:1.0;"/><line style="stroke:#181818;stroke-width:1.0;" x1="264.5" x2="264.5" y1="1379.8438" y2="1399.8438"/><polygon fill="#181818" points="260.5,1389.8438,264.5,1399.8438,268.5,1389.8438,264.5,1393.8438" style="stroke:#181818;stroke-width:1.0;"/><line style="stroke:#181818;stroke-width:1.0;" x1="264.5" x2="264.5" y1="1433.8125" y2="1453.8125"/><polygon fill="#181818" points="260.5,1443.8125,264.5,1453.8125,268.5,1443.8125,264.5,1447.8125" style="stroke:#181818;stroke-width:1.0;"/><line style="stroke:#181818;stroke-width:1.0;" x1="264.5" x2="264.5" y1="1501.75" y2="1521.75"/><polygon fill="#181818" points="260.5,1511.75,264.5,1521.75,268.5,1511.75,264.5,1515.75" style="stroke:#181818;stroke-width:1.0;"/><line style="stroke:#181818;stroke-width:1.0;" x1="264.5" x2="264.5" y1="1555.7188" y2="1575.7188"/><polygon fill="#181818" points="260.5,1565.7188,264.5,1575.7188,268.5,1565.7188,264.5,1569.7188" style="stroke:#181818;stroke-width:1.0;"/><line style="stroke:#181818;stroke-width:1.0;" x1="264.5" x2="264.5" y1="1609.6875" y2="1629.6875"/><polygon fill="#181818" points="260.5,1619.6875,264.5,1629.6875,268.5,1619.6875,264.5,1623.6875" style="stroke:#181818;stroke-width:1.0;"/><line style="stroke:#181818;stroke-width:1.0;" x1="264.5" x2="264.5" y1="1663.6563" y2="1683.6563"/><polygon fill="#181818" points="260.5,1673.6563,264.5,1683.6563,268.5,1673.6563,264.5,1677.6563" style="stroke:#181818;stroke-width:1.0;"/><line style="stroke:#181818;stroke-width:1.0;" x1="264.5" x2="264.5" y1="1768.2227" y2="1790.7891"/><polygon fill="#181818" points="260.5,1780.7891,264.5,1790.7891,268.5,1780.7891,264.5,1784.7891" style="stroke:#181818;stroke-width:1.0;"/><line style="stroke:#181818;stroke-width:1.0;" x1="264.5" x2="264.5" y1="1838.7266" y2="1858.7266"/><polygon fill="#181818" points="260.5,1848.7266,264.5,1858.7266,268.5,1848.7266,264.5,1852.7266" style="stroke:#181818;stroke-width:1.0;"/><line style="stroke:#181818;stroke-width:1.0;" x1="264.5" x2="264.5" y1="1892.6953" y2="1912.6953"/><polygon fill="#181818" points="260.5,1902.6953,264.5,1912.6953,268.5,1902.6953,264.5,1906.6953" style="stroke:#181818;stroke-width:1.0;"/><line style="stroke:#181818;stroke-width:1.0;" x1="264.5" x2="264.5" y1="2063.0039" y2="2083.0039"/><polygon fill="#181818" points="260.5,2073.0039,264.5,2083.0039,268.5,2073.0039,264.5,2077.0039" style="stroke:#181818;stroke-width:1.0;"/><line style="stroke:#181818;stroke-width:1.0;" x1="264.5" x2="264.5" y1="2130.9414" y2="2150.9414"/><polygon fill="#181818" points="260.5,2140.9414,264.5,2150.9414,268.5,2140.9414,264.5,2144.9414" style="stroke:#181818;stroke-width:1.0;"/><line style="stroke:#181818;stroke-width:1.0;" x1="264.5" x2="264.5" y1="2198.8789" y2="2231.832"/><polygon fill="#181818" points="260.5,2221.832,264.5,2231.832,268.5,2221.832,264.5,2225.832" style="stroke:#181818;stroke-width:1.0;"/><line style="stroke:#181818;stroke-width:1.0;" x1="264.5" x2="264.5" y1="2265.8008" y2="2285.8008"/><polygon fill="#181818" points="260.5,2275.8008,264.5,2285.8008,268.5,2275.8008,264.5,2279.8008" style="stroke:#181818;stroke-width:1.0;"/><line style="stroke:#181818;stroke-width:1.0;" x1="264.5" x2="264.5" y1="2319.7695" y2="2339.7695"/><polygon fill="#181818" points="260.5,2329.7695,264.5,2339.7695,268.5,2329.7695,264.5,2333.7695" style="stroke:#181818;stroke-width:1.0;"/><line style="stroke:#181818;stroke-width:1.0;" x1="264.5" x2="264.5" y1="2373.7383" y2="2393.7383"/><polygon fill="#181818" points="260.5,2383.7383,264.5,2393.7383,268.5,2383.7383,264.5,2387.7383" style="stroke:#181818;stroke-width:1.0;"/><line style="stroke:#181818;stroke-width:1.0;" x1="264.5" x2="264.5" y1="1990.6641" y2="2015.0664"/><polygon fill="#181818" points="260.5,2005.0664,264.5,2015.0664,268.5,2005.0664,264.5,2009.0664" style="stroke:#181818;stroke-width:1.0;"/><line style="stroke:#181818;stroke-width:1.0;" x1="306.5" x2="511.5" y1="1978.6641" y2="1978.6641"/><polygon fill="#181818" points="507.5,2208.8789,511.5,2218.8789,515.5,2208.8789,511.5,2212.8789" style="stroke:#181818;stroke-width:1.0;"/><line style="stroke:#181818;stroke-width:1.0;" x1="511.5" x2="511.5" y1="1978.6641" y2="2437.7383"/><line style="stroke:#181818;stroke-width:1.0;" x1="511.5" x2="264.5" y1="2437.7383" y2="2437.7383"/><line style="stroke:#181818;stroke-width:1.0;" x1="264.5" x2="264.5" y1="2437.7383" y2="2457.7383"/><polygon fill="#181818" points="260.5,2447.7383,264.5,2457.7383,268.5,2447.7383,264.5,2451.7383" style="stroke:#181818;stroke-width:1.0;"/><line style="stroke:#181818;stroke-width:1.0;" x1="264.5" x2="264.5" y1="1946.6641" y2="1966.6641"/><polygon fill="#181818" points="260.5,1956.6641,264.5,1966.6641,268.5,1956.6641,264.5,1960.6641" style="stroke:#181818;stroke-width:1.0;"/><line style="stroke:#181818;stroke-width:1.0;" x1="264.5" x2="264.5" y1="2540.1094" y2="2560.1094"/><polygon fill="#181818" points="260.5,2550.1094,264.5,2560.1094,268.5,2550.1094,264.5,2554.1094" style="stroke:#181818;stroke-width:1.0;"/><line style="stroke:#181818;stroke-width:1.0;" x1="264.5" x2="264.5" y1="2594.0781" y2="2614.0781"/><polygon fill="#181818" points="260.5,2604.0781,264.5,2614.0781,268.5,2604.0781,264.5,2608.0781" style="stroke:#181818;stroke-width:1.0;"/><line style="stroke:#181818;stroke-width:1.0;" x1="264.5" x2="264.5" y1="2648.0469" y2="2668.0469"/><polygon fill="#181818" points="260.5,2658.0469,264.5,2668.0469,268.5,2658.0469,264.5,2662.0469" style="stroke:#181818;stroke-width:1.0;"/><line style="stroke:#181818;stroke-width:1.0;" x1="264.5" x2="264.5" y1="2702.0156" y2="2722.0156"/><polygon fill="#181818" points="260.5,2712.0156,264.5,2722.0156,268.5,2712.0156,264.5,2716.0156" style="stroke:#181818;stroke-width:1.0;"/><line style="stroke:#181818;stroke-width:1.0;" x1="264.5" x2="264.5" y1="2481.7383" y2="2506.1406"/><polygon fill="#181818" points="260.5,2496.1406,264.5,2506.1406,268.5,2496.1406,264.5,2500.1406" style="stroke:#181818;stroke-width:1.0;"/><line style="stroke:#181818;stroke-width:1.0;" x1="306.5" x2="459" y1="2469.7383" y2="2469.7383"/><polygon fill="#181818" points="455,2635.0313,459,2645.0313,463,2635.0313,459,2639.0313" style="stroke:#181818;stroke-width:1.0;"/><line style="stroke:#181818;stroke-width:1.0;" x1="459" x2="459" y1="2469.7383" y2="2815.9219"/><line style="stroke:#181818;stroke-width:1.0;" x1="459" x2="276.5" y1="2815.9219" y2="2815.9219"/><polygon fill="#181818" points="286.5,2811.9219,276.5,2815.9219,286.5,2819.9219,282.5,2815.9219" style="stroke:#181818;stroke-width:1.0;"/><line style="stroke:#181818;stroke-width:1.0;" x1="264.5" x2="264.5" y1="2783.9219" y2="2803.9219"/><polygon fill="#181818" points="260.5,2793.9219,264.5,2803.9219,268.5,2793.9219,264.5,2797.9219" style="stroke:#181818;stroke-width:1.0;"/><line style="stroke:#181818;stroke-width:1.0;" x1="264.5" x2="264.5" y1="2827.9219" y2="2847.9219"/><polygon fill="#181818" points="260.5,2837.9219,264.5,2847.9219,268.5,2837.9219,264.5,2841.9219" style="stroke:#181818;stroke-width:1.0;"/><!--MD5=[f706daefbc602c8448c4c30f0ee0ec10]
@startuml
!pragma layout smetana
start
note right
constructor ElementMenuBar(UFont font,ISkinSimple spriteContainer)
end note
:this.font=font;;
:this.spriteContainer=spriteContainer;;
end
start
note right
void addEntry(String s)
end note
:entries.add(new ElementMenuEntry(s,font,
spriteContainer));;
end
start
note right
void addSubEntry(String s,String sub)
end note
:final ElementMenuPopup popup=getPopup(getElementMenuEntry(s));;
:popup.addEntry(sub);;
end
start
note right
ElementMenuPopup getPopup(ElementMenuEntry s)
end note
:ElementMenuPopup popup=popups.get(s);;
if (popup==null ) then (yes) 
:popup=new ElementMenuPopup(font,spriteContainer);;
:popups.put(s,popup);;
endif 
:return popup;;
stop
end
start
note right
ElementMenuEntry getElementMenuEntry(String n)
end note
if (entry.getText().equals(n)) then (yes) 
:return entry;;
stop
endif 
:throw new IllegalArgumentException();;
stop
end
start
note right
XDimension2D getPreferredDimension(StringBounder stringBounder,
double x,double y)
end note
:double w=0;;
:double h=0;;
:final XDimension2D dim=entry.getPreferredDimension(stringBounder,
x,y);;
:w+=dim.getWidth()+10;;
:h=Math.max(h,dim.getHeight());;
:return new XDimension2D(w,h);;
stop
end
start
note right
void drawU(UGraphic ug,int zIndex,XDimension2D dimToUse)
end note
:final XDimension2D preferred=getPreferredDimension(ug.getStringBounder(),
0,0);;
:ug=ug.apply(getBlack());;
:double x1=0;;
if (zIndex==0) then (yes) 
:ug.apply(getColorDD().bg()).draw(new URectangle(dimToUse.getWidth(),
dimToUse.getHeight()));;
:entry.drawU(ug.apply(UTranslate.dx(x1)),
zIndex,dimToUse);;
:final double w=entry.getPreferredDimension(ug.getStringBounder(),
x1,0).getWidth();;
:entry.setX(x1);;
:x1+=w+10;;
:return ;;
stop
endif 
if (zIndex==1) then (yes) 
:entry.setBackground(getColorBB());;
:final double y1=preferred.getHeight();;
:final ElementMenuPopup p=ent.getValue();;
:final double xpopup=ent.getKey().getX();;
:p.drawU(ug.apply(new UTranslate(xpopup,y1)),
zIndex,p.getPreferredDimension(ug.getStringBounder(),
xpopup,y1));;
endif 
end
@enduml

PlantUML version 1.2022.7(Mon Aug 22 17:01:30 UTC 2022)
(GPL source distribution)
Java Runtime: OpenJDK Runtime Environment
JVM: OpenJDK 64-Bit Server VM
Default Encoding: UTF-8
Language: en
Country: null
--></g></svg>