<?xml version="1.0" encoding="UTF-8" standalone="no"?><svg xmlns="http://www.w3.org/2000/svg" xmlns:xlink="http://www.w3.org/1999/xlink" contentStyleType="text/css" height="2437px" preserveAspectRatio="none" style="width:854px;height:2437px;background:#FFFFFF;" version="1.1" viewBox="0 0 854 2437" width="854px" zoomAndPan="magnify"><defs/><g><path d="M448,10 L448,26.1328 L428,30.1328 L448,34.1328 L448,50.2656 A0,0 0 0 0 448,50.2656 L809,50.2656 A0,0 0 0 0 809,50.2656 L809,20 L799,10 L448,10 A0,0 0 0 0 448,10 " fill="#FEFFDD" style="stroke:#181818;stroke-width:0.5;"/><path d="M799,10 L799,20 L809,20 L799,10 " fill="#FEFFDD" style="stroke:#181818;stroke-width:0.5;"/><text fill="#000000" font-family="sans-serif" font-size="13" lengthAdjust="spacing" textLength="340" x="454" y="27.0669">constructor Grid(double[]rowsStart,double[]colsStart,</text><text fill="#000000" font-family="sans-serif" font-size="13" lengthAdjust="spacing" textLength="236" x="454" y="42.1997">TableStrategystrategy,TextBlocktitle)</text><ellipse cx="418" cy="30.1328" fill="#222222" rx="10" ry="10" style="stroke:#222222;stroke-width:1.0;"/><rect fill="#F1F1F1" height="33.9688" rx="12.5" ry="12.5" style="stroke:#181818;stroke-width:0.5;" width="109" x="363.5" y="70.2656"/><text fill="#000000" font-family="sans-serif" font-size="12" lengthAdjust="spacing" textLength="89" x="373.5" y="91.4043">this.title=title;</text><rect fill="#F1F1F1" height="33.9688" rx="12.5" ry="12.5" style="stroke:#181818;stroke-width:0.5;" width="181" x="327.5" y="124.2344"/><text fill="#000000" font-family="sans-serif" font-size="12" lengthAdjust="spacing" textLength="161" x="337.5" y="145.373">this.rowsStart=rowsStart;</text><rect fill="#F1F1F1" height="33.9688" rx="12.5" ry="12.5" style="stroke:#181818;stroke-width:0.5;" width="173" x="331.5" y="178.2031"/><text fill="#000000" font-family="sans-serif" font-size="12" lengthAdjust="spacing" textLength="153" x="341.5" y="199.3418">this.colsStart=colsStart;</text><rect fill="#F1F1F1" height="33.9688" rx="12.5" ry="12.5" style="stroke:#181818;stroke-width:0.5;" width="165" x="335.5" y="232.1719"/><text fill="#000000" font-family="sans-serif" font-size="12" lengthAdjust="spacing" textLength="145" x="345.5" y="253.3105">this.strategy=strategy;</text><rect fill="#F1F1F1" height="33.9688" rx="12.5" ry="12.5" style="stroke:#181818;stroke-width:0.5;" width="106" x="365" y="334.543"/><text fill="#000000" font-family="sans-serif" font-size="12" lengthAdjust="spacing" textLength="86" x="375" y="355.6816">addOutside();</text><polygon fill="#F1F1F1" points="38.5,286.1406,797.5,286.1406,809.5,298.1406,797.5,310.1406,38.5,310.1406,26.5,298.1406,38.5,286.1406" style="stroke:#181818;stroke-width:0.5;"/><text fill="#000000" font-family="sans-serif" font-size="11" lengthAdjust="spacing" textLength="20" x="422" y="320.3511">yes</text><text fill="#000000" font-family="sans-serif" font-size="11" lengthAdjust="spacing" textLength="759" x="38.5" y="301.9487">strategy==TableStrategy.DRAW_OUTSIDE||strategy==TableStrategy.DRAW_OUTSIDE_WITH_TITLE||strategy==TableStrategy.DRAW_ALL</text><polygon fill="#F1F1F1" points="418,388.5117,430,400.5117,418,412.5117,406,400.5117,418,388.5117" style="stroke:#181818;stroke-width:0.5;"/><ellipse cx="418" cy="442.5117" fill="none" rx="10" ry="10" style="stroke:#222222;stroke-width:1.5;"/><line style="stroke:#222222;stroke-width:2.5;" x1="411.8128" x2="424.1872" y1="436.3245" y2="448.6989"/><line style="stroke:#222222;stroke-width:2.5;" x1="424.1872" x2="411.8128" y1="436.3245" y2="448.6989"/><path d="M448,462.5117 L448,471.0781 L428,475.0781 L448,479.0781 L448,487.6445 A0,0 0 0 0 448,487.6445 L582,487.6445 A0,0 0 0 0 582,487.6445 L582,472.5117 L572,462.5117 L448,462.5117 A0,0 0 0 0 448,462.5117 " fill="#FEFFDD" style="stroke:#181818;stroke-width:0.5;"/><path d="M572,462.5117 L572,472.5117 L582,472.5117 L572,462.5117 " fill="#FEFFDD" style="stroke:#181818;stroke-width:0.5;"/><text fill="#000000" font-family="sans-serif" font-size="13" lengthAdjust="spacing" textLength="113" x="454" y="479.5786">void addOutside()</text><ellipse cx="418" cy="475.0781" fill="#222222" rx="10" ry="10" style="stroke:#222222;stroke-width:1.0;"/><rect fill="#F1F1F1" height="33.9688" rx="12.5" ry="12.5" style="stroke:#181818;stroke-width:0.5;" width="225" x="305.5" y="507.6445"/><text fill="#000000" font-family="sans-serif" font-size="12" lengthAdjust="spacing" textLength="205" x="315.5" y="528.7832">final intnbRow=rowsStart.length;</text><rect fill="#F1F1F1" height="33.9688" rx="12.5" ry="12.5" style="stroke:#181818;stroke-width:0.5;" width="215" x="310.5" y="561.6133"/><text fill="#000000" font-family="sans-serif" font-size="12" lengthAdjust="spacing" textLength="195" x="320.5" y="582.752">final intnbCol=colsStart.length;</text><rect fill="#F1F1F1" height="33.9688" rx="12.5" ry="12.5" style="stroke:#181818;stroke-width:0.5;" width="244" x="296" y="615.582"/><text fill="#000000" font-family="sans-serif" font-size="12" lengthAdjust="spacing" textLength="224" x="306" y="636.7207">horizontals.add(new Segment(0,c));</text><rect fill="#F1F1F1" height="33.9688" rx="12.5" ry="12.5" style="stroke:#181818;stroke-width:0.5;" width="289" x="273.5" y="669.5508"/><text fill="#000000" font-family="sans-serif" font-size="12" lengthAdjust="spacing" textLength="269" x="283.5" y="690.6895">horizontals.add(new Segment(nbRow-1,c));</text><rect fill="#F1F1F1" height="33.9688" rx="12.5" ry="12.5" style="stroke:#181818;stroke-width:0.5;" width="226" x="305" y="723.5195"/><text fill="#000000" font-family="sans-serif" font-size="12" lengthAdjust="spacing" textLength="206" x="315" y="744.6582">verticals.add(new Segment(r,0));</text><rect fill="#F1F1F1" height="33.9688" rx="12.5" ry="12.5" style="stroke:#181818;stroke-width:0.5;" width="265" x="285.5" y="777.4883"/><text fill="#000000" font-family="sans-serif" font-size="12" lengthAdjust="spacing" textLength="245" x="295.5" y="798.627">verticals.add(new Segment(r,nbCol-1));</text><ellipse cx="418" cy="841.457" fill="none" rx="10" ry="10" style="stroke:#222222;stroke-width:1.5;"/><line style="stroke:#222222;stroke-width:2.5;" x1="411.8128" x2="424.1872" y1="835.2698" y2="847.6442"/><line style="stroke:#222222;stroke-width:2.5;" x1="424.1872" x2="411.8128" y1="835.2698" y2="847.6442"/><path d="M448,861.457 L448,870.0234 L428,874.0234 L448,878.0234 L448,886.5898 A0,0 0 0 0 448,886.5898 L812,886.5898 A0,0 0 0 0 812,886.5898 L812,871.457 L802,861.457 L448,861.457 A0,0 0 0 0 448,861.457 " fill="#FEFFDD" style="stroke:#181818;stroke-width:0.5;"/><path d="M802,861.457 L802,871.457 L812,871.457 L802,861.457 " fill="#FEFFDD" style="stroke:#181818;stroke-width:0.5;"/><text fill="#000000" font-family="sans-serif" font-size="13" lengthAdjust="spacing" textLength="343" x="454" y="878.5239">void drawU(UGraphicug,doublex,doubley,HColorwhite)</text><ellipse cx="418" cy="874.0234" fill="#222222" rx="10" ry="10" style="stroke:#222222;stroke-width:1.0;"/><rect fill="#F1F1F1" height="33.9688" rx="12.5" ry="12.5" style="stroke:#181818;stroke-width:0.5;" width="193" x="321.5" y="906.5898"/><text fill="#000000" font-family="sans-serif" font-size="12" lengthAdjust="spacing" textLength="173" x="331.5" y="927.7285">final introw1=seg.getRow();</text><rect fill="#F1F1F1" height="33.9688" rx="12.5" ry="12.5" style="stroke:#181818;stroke-width:0.5;" width="183" x="326.5" y="960.5586"/><text fill="#000000" font-family="sans-serif" font-size="12" lengthAdjust="spacing" textLength="163" x="336.5" y="981.6973">final intcol1=seg.getCol();</text><rect fill="#F1F1F1" height="33.9688" rx="12.5" ry="12.5" style="stroke:#181818;stroke-width:0.5;" width="346" x="245" y="1014.5273"/><text fill="#000000" font-family="sans-serif" font-size="12" lengthAdjust="spacing" textLength="326" x="255" y="1035.666">final doublewidth=colsStart[col1+1]-colsStart[col1];</text><rect fill="#F1F1F1" height="47.9375" rx="12.5" ry="12.5" style="stroke:#181818;stroke-width:0.5;" width="308" x="264" y="1068.4961"/><text fill="#000000" font-family="sans-serif" font-size="12" lengthAdjust="spacing" textLength="288" x="274" y="1089.6348">ug.apply(new UTranslate(x+colsStart[col1],y+</text><text fill="#000000" font-family="sans-serif" font-size="12" lengthAdjust="spacing" textLength="269" x="274" y="1103.6035">rowsStart[row1])).draw(ULine.hline(width));</text><rect fill="#F1F1F1" height="33.9688" rx="12.5" ry="12.5" style="stroke:#181818;stroke-width:0.5;" width="193" x="321.5" y="1136.4336"/><text fill="#000000" font-family="sans-serif" font-size="12" lengthAdjust="spacing" textLength="173" x="331.5" y="1157.5723">final introw1=seg.getRow();</text><rect fill="#F1F1F1" height="33.9688" rx="12.5" ry="12.5" style="stroke:#181818;stroke-width:0.5;" width="183" x="326.5" y="1190.4023"/><text fill="#000000" font-family="sans-serif" font-size="12" lengthAdjust="spacing" textLength="163" x="336.5" y="1211.541">final intcol1=seg.getCol();</text><rect fill="#F1F1F1" height="33.9688" rx="12.5" ry="12.5" style="stroke:#181818;stroke-width:0.5;" width="369" x="233.5" y="1244.3711"/><text fill="#000000" font-family="sans-serif" font-size="12" lengthAdjust="spacing" textLength="349" x="243.5" y="1265.5098">final doubleheight=rowsStart[row1+1]-rowsStart[row1];</text><rect fill="#F1F1F1" height="47.9375" rx="12.5" ry="12.5" style="stroke:#181818;stroke-width:0.5;" width="308" x="264" y="1298.3398"/><text fill="#000000" font-family="sans-serif" font-size="12" lengthAdjust="spacing" textLength="288" x="274" y="1319.4785">ug.apply(new UTranslate(x+colsStart[col1],y+</text><text fill="#000000" font-family="sans-serif" font-size="12" lengthAdjust="spacing" textLength="274" x="274" y="1333.4473">rowsStart[row1])).draw(ULine.vline(height));</text><rect fill="#F1F1F1" height="33.9688" rx="12.5" ry="12.5" style="stroke:#181818;stroke-width:0.5;" width="476" x="180" y="1366.2773"/><text fill="#000000" font-family="sans-serif" font-size="12" lengthAdjust="spacing" textLength="456" x="190" y="1387.416">final XDimension2Ddim=title.calculateDimension(ug.getStringBounder());</text><rect fill="#F1F1F1" height="47.9375" rx="12.5" ry="12.5" style="stroke:#181818;stroke-width:0.5;" width="317" x="259.5" y="1468.6484"/><text fill="#000000" font-family="sans-serif" font-size="12" lengthAdjust="spacing" textLength="297" x="269.5" y="1489.7871">final UGraphicug2=ug.apply(new UTranslate(x+</text><text fill="#000000" font-family="sans-serif" font-size="12" lengthAdjust="spacing" textLength="148" x="269.5" y="1503.7559">6,y-dim.getHeight()*0));</text><rect fill="#F1F1F1" height="33.9688" rx="12.5" ry="12.5" style="stroke:#181818;stroke-width:0.5;" width="415" x="210.5" y="1536.5859"/><text fill="#000000" font-family="sans-serif" font-size="12" lengthAdjust="spacing" textLength="395" x="220.5" y="1557.7246">ug2.apply(white.bg()).apply(white).draw(new URectangle(dim));</text><rect fill="#F1F1F1" height="33.9688" rx="12.5" ry="12.5" style="stroke:#181818;stroke-width:0.5;" width="125" x="355.5" y="1590.5547"/><text fill="#000000" font-family="sans-serif" font-size="12" lengthAdjust="spacing" textLength="105" x="365.5" y="1611.6934">title.drawU(ug2);</text><polygon fill="#F1F1F1" points="308,1420.2461,528,1420.2461,540,1432.2461,528,1444.2461,308,1444.2461,296,1432.2461,308,1420.2461" style="stroke:#181818;stroke-width:0.5;"/><text fill="#000000" font-family="sans-serif" font-size="11" lengthAdjust="spacing" textLength="20" x="422" y="1454.4565">yes</text><text fill="#000000" font-family="sans-serif" font-size="11" lengthAdjust="spacing" textLength="220" x="308" y="1436.0542">dim.getWidth()&gt;0&amp;&amp;dim.getHeight()&gt;0</text><polygon fill="#F1F1F1" points="418,1644.5234,430,1656.5234,418,1668.5234,406,1656.5234,418,1644.5234" style="stroke:#181818;stroke-width:0.5;"/><ellipse cx="418" cy="1698.5234" fill="none" rx="10" ry="10" style="stroke:#222222;stroke-width:1.5;"/><line style="stroke:#222222;stroke-width:2.5;" x1="411.8128" x2="424.1872" y1="1692.3363" y2="1704.7106"/><line style="stroke:#222222;stroke-width:2.5;" x1="424.1872" x2="411.8128" y1="1692.3363" y2="1704.7106"/><path d="M448,1718.5234 L448,1727.0898 L428,1731.0898 L448,1735.0898 L448,1743.6563 A0,0 0 0 0 448,1743.6563 L600,1743.6563 A0,0 0 0 0 600,1743.6563 L600,1728.5234 L590,1718.5234 L448,1718.5234 A0,0 0 0 0 448,1718.5234 " fill="#FEFFDD" style="stroke:#181818;stroke-width:0.5;"/><path d="M590,1718.5234 L590,1728.5234 L600,1728.5234 L590,1718.5234 " fill="#FEFFDD" style="stroke:#181818;stroke-width:0.5;"/><text fill="#000000" font-family="sans-serif" font-size="13" lengthAdjust="spacing" textLength="131" x="454" y="1735.5903">void addCell(Cellcell)</text><ellipse cx="418" cy="1731.0898" fill="#222222" rx="10" ry="10" style="stroke:#222222;stroke-width:1.0;"/><rect fill="#F1F1F1" height="33.9688" rx="12.5" ry="12.5" style="stroke:#181818;stroke-width:0.5;" width="67" x="384.5" y="1812.0586"/><text fill="#000000" font-family="sans-serif" font-size="12" lengthAdjust="spacing" textLength="47" x="394.5" y="1833.1973">return ;</text><ellipse cx="418" cy="1885.543" fill="none" rx="11" ry="11" style="stroke:#222222;stroke-width:1.0;"/><ellipse cx="418" cy="1885.543" fill="#222222" rx="6" ry="6" style="stroke:#111111;stroke-width:1.0;"/><polygon fill="#F1F1F1" points="32,1763.6563,804,1763.6563,816,1775.6563,804,1787.6563,32,1787.6563,20,1775.6563,32,1763.6563" style="stroke:#181818;stroke-width:0.5;"/><text fill="#000000" font-family="sans-serif" font-size="11" lengthAdjust="spacing" textLength="20" x="422" y="1797.8667">yes</text><text fill="#000000" font-family="sans-serif" font-size="11" lengthAdjust="spacing" textLength="772" x="32" y="1779.4644">strategy==TableStrategy.DRAW_NONE||strategy==TableStrategy.DRAW_OUTSIDE||strategy==TableStrategy.DRAW_OUTSIDE_WITH_TITLE</text><rect fill="#F1F1F1" height="47.9375" rx="12.5" ry="12.5" style="stroke:#181818;stroke-width:0.5;" width="317" x="259.5" y="1986.9453"/><text fill="#000000" font-family="sans-serif" font-size="12" lengthAdjust="spacing" textLength="297" x="269.5" y="2008.084">horizontals.add(new Segment(cell.getMinRow(),</text><text fill="#000000" font-family="sans-serif" font-size="12" lengthAdjust="spacing" textLength="21" x="269.5" y="2022.0527">c));</text><rect fill="#F1F1F1" height="47.9375" rx="12.5" ry="12.5" style="stroke:#181818;stroke-width:0.5;" width="326" x="255" y="2069.8828"/><text fill="#000000" font-family="sans-serif" font-size="12" lengthAdjust="spacing" textLength="306" x="265" y="2091.0215">horizontals.add(new Segment(cell.getMaxRow()+</text><text fill="#000000" font-family="sans-serif" font-size="12" lengthAdjust="spacing" textLength="33" x="265" y="2104.9902">1,c));</text><polygon fill="#F1F1F1" points="183,1938.543,653,1938.543,665,1950.543,653,1962.543,183,1962.543,171,1950.543,183,1938.543" style="stroke:#181818;stroke-width:0.5;"/><text fill="#000000" font-family="sans-serif" font-size="11" lengthAdjust="spacing" textLength="20" x="422" y="1972.7534">yes</text><text fill="#000000" font-family="sans-serif" font-size="11" lengthAdjust="spacing" textLength="470" x="183" y="1954.3511">strategy==TableStrategy.DRAW_HORIZONTAL||strategy==TableStrategy.DRAW_ALL</text><polygon fill="#F1F1F1" points="418,2137.8203,430,2149.8203,418,2161.8203,406,2149.8203,418,2137.8203" style="stroke:#181818;stroke-width:0.5;"/><rect fill="#F1F1F1" height="33.9688" rx="12.5" ry="12.5" style="stroke:#181818;stroke-width:0.5;" width="314" x="261" y="2230.2227"/><text fill="#000000" font-family="sans-serif" font-size="12" lengthAdjust="spacing" textLength="294" x="271" y="2251.3613">verticals.add(new Segment(r,cell.getMinCol()));</text><rect fill="#F1F1F1" height="47.9375" rx="12.5" ry="12.5" style="stroke:#181818;stroke-width:0.5;" width="313" x="261.5" y="2294.707"/><text fill="#000000" font-family="sans-serif" font-size="12" lengthAdjust="spacing" textLength="293" x="271.5" y="2315.8457">verticals.add(new Segment(r,cell.getMaxCol()+</text><text fill="#000000" font-family="sans-serif" font-size="12" lengthAdjust="spacing" textLength="22" x="271.5" y="2329.8145">1));</text><polygon fill="#F1F1F1" points="193.5,2181.8203,642.5,2181.8203,654.5,2193.8203,642.5,2205.8203,193.5,2205.8203,181.5,2193.8203,193.5,2181.8203" style="stroke:#181818;stroke-width:0.5;"/><text fill="#000000" font-family="sans-serif" font-size="11" lengthAdjust="spacing" textLength="20" x="422" y="2216.0308">yes</text><text fill="#000000" font-family="sans-serif" font-size="11" lengthAdjust="spacing" textLength="449" x="193.5" y="2197.6284">strategy==TableStrategy.DRAW_VERTICAL||strategy==TableStrategy.DRAW_ALL</text><polygon fill="#F1F1F1" points="418,2362.6445,430,2374.6445,418,2386.6445,406,2374.6445,418,2362.6445" style="stroke:#181818;stroke-width:0.5;"/><ellipse cx="418" cy="2416.6445" fill="none" rx="10" ry="10" style="stroke:#222222;stroke-width:1.5;"/><line style="stroke:#222222;stroke-width:2.5;" x1="411.8128" x2="424.1872" y1="2410.4573" y2="2422.8317"/><line style="stroke:#222222;stroke-width:2.5;" x1="424.1872" x2="411.8128" y1="2410.4573" y2="2422.8317"/><line style="stroke:#181818;stroke-width:1.0;" x1="418" x2="418" y1="40.1328" y2="70.2656"/><polygon fill="#181818" points="414,60.2656,418,70.2656,422,60.2656,418,64.2656" style="stroke:#181818;stroke-width:1.0;"/><line style="stroke:#181818;stroke-width:1.0;" x1="418" x2="418" y1="104.2344" y2="124.2344"/><polygon fill="#181818" points="414,114.2344,418,124.2344,422,114.2344,418,118.2344" style="stroke:#181818;stroke-width:1.0;"/><line style="stroke:#181818;stroke-width:1.0;" x1="418" x2="418" y1="158.2031" y2="178.2031"/><polygon fill="#181818" points="414,168.2031,418,178.2031,422,168.2031,418,172.2031" style="stroke:#181818;stroke-width:1.0;"/><line style="stroke:#181818;stroke-width:1.0;" x1="418" x2="418" y1="212.1719" y2="232.1719"/><polygon fill="#181818" points="414,222.1719,418,232.1719,422,222.1719,418,226.1719" style="stroke:#181818;stroke-width:1.0;"/><line style="stroke:#181818;stroke-width:1.0;" x1="418" x2="418" y1="310.1406" y2="334.543"/><polygon fill="#181818" points="414,324.543,418,334.543,422,324.543,418,328.543" style="stroke:#181818;stroke-width:1.0;"/><line style="stroke:#181818;stroke-width:1.0;" x1="809.5" x2="821.5" y1="298.1406" y2="298.1406"/><polygon fill="#181818" points="817.5,341.5273,821.5,351.5273,825.5,341.5273,821.5,345.5273" style="stroke:#181818;stroke-width:1.0;"/><line style="stroke:#181818;stroke-width:1.0;" x1="821.5" x2="821.5" y1="298.1406" y2="400.5117"/><line style="stroke:#181818;stroke-width:1.0;" x1="821.5" x2="430" y1="400.5117" y2="400.5117"/><polygon fill="#181818" points="440,396.5117,430,400.5117,440,404.5117,436,400.5117" style="stroke:#181818;stroke-width:1.0;"/><line style="stroke:#181818;stroke-width:1.0;" x1="418" x2="418" y1="368.5117" y2="388.5117"/><polygon fill="#181818" points="414,378.5117,418,388.5117,422,378.5117,418,382.5117" style="stroke:#181818;stroke-width:1.0;"/><line style="stroke:#181818;stroke-width:1.0;" x1="418" x2="418" y1="266.1406" y2="286.1406"/><polygon fill="#181818" points="414,276.1406,418,286.1406,422,276.1406,418,280.1406" style="stroke:#181818;stroke-width:1.0;"/><line style="stroke:#181818;stroke-width:1.0;" x1="418" x2="418" y1="412.5117" y2="432.5117"/><polygon fill="#181818" points="414,422.5117,418,432.5117,422,422.5117,418,426.5117" style="stroke:#181818;stroke-width:1.0;"/><line style="stroke:#181818;stroke-width:1.0;" x1="418" x2="418" y1="485.0781" y2="507.6445"/><polygon fill="#181818" points="414,497.6445,418,507.6445,422,497.6445,418,501.6445" style="stroke:#181818;stroke-width:1.0;"/><line style="stroke:#181818;stroke-width:1.0;" x1="418" x2="418" y1="541.6133" y2="561.6133"/><polygon fill="#181818" points="414,551.6133,418,561.6133,422,551.6133,418,555.6133" style="stroke:#181818;stroke-width:1.0;"/><line style="stroke:#181818;stroke-width:1.0;" x1="418" x2="418" y1="595.582" y2="615.582"/><polygon fill="#181818" points="414,605.582,418,615.582,422,605.582,418,609.582" style="stroke:#181818;stroke-width:1.0;"/><line style="stroke:#181818;stroke-width:1.0;" x1="418" x2="418" y1="649.5508" y2="669.5508"/><polygon fill="#181818" points="414,659.5508,418,669.5508,422,659.5508,418,663.5508" style="stroke:#181818;stroke-width:1.0;"/><line style="stroke:#181818;stroke-width:1.0;" x1="418" x2="418" y1="703.5195" y2="723.5195"/><polygon fill="#181818" points="414,713.5195,418,723.5195,422,713.5195,418,717.5195" style="stroke:#181818;stroke-width:1.0;"/><line style="stroke:#181818;stroke-width:1.0;" x1="418" x2="418" y1="757.4883" y2="777.4883"/><polygon fill="#181818" points="414,767.4883,418,777.4883,422,767.4883,418,771.4883" style="stroke:#181818;stroke-width:1.0;"/><line style="stroke:#181818;stroke-width:1.0;" x1="418" x2="418" y1="811.457" y2="831.457"/><polygon fill="#181818" points="414,821.457,418,831.457,422,821.457,418,825.457" style="stroke:#181818;stroke-width:1.0;"/><line style="stroke:#181818;stroke-width:1.0;" x1="418" x2="418" y1="884.0234" y2="906.5898"/><polygon fill="#181818" points="414,896.5898,418,906.5898,422,896.5898,418,900.5898" style="stroke:#181818;stroke-width:1.0;"/><line style="stroke:#181818;stroke-width:1.0;" x1="418" x2="418" y1="940.5586" y2="960.5586"/><polygon fill="#181818" points="414,950.5586,418,960.5586,422,950.5586,418,954.5586" style="stroke:#181818;stroke-width:1.0;"/><line style="stroke:#181818;stroke-width:1.0;" x1="418" x2="418" y1="994.5273" y2="1014.5273"/><polygon fill="#181818" points="414,1004.5273,418,1014.5273,422,1004.5273,418,1008.5273" style="stroke:#181818;stroke-width:1.0;"/><line style="stroke:#181818;stroke-width:1.0;" x1="418" x2="418" y1="1048.4961" y2="1068.4961"/><polygon fill="#181818" points="414,1058.4961,418,1068.4961,422,1058.4961,418,1062.4961" style="stroke:#181818;stroke-width:1.0;"/><line style="stroke:#181818;stroke-width:1.0;" x1="418" x2="418" y1="1116.4336" y2="1136.4336"/><polygon fill="#181818" points="414,1126.4336,418,1136.4336,422,1126.4336,418,1130.4336" style="stroke:#181818;stroke-width:1.0;"/><line style="stroke:#181818;stroke-width:1.0;" x1="418" x2="418" y1="1170.4023" y2="1190.4023"/><polygon fill="#181818" points="414,1180.4023,418,1190.4023,422,1180.4023,418,1184.4023" style="stroke:#181818;stroke-width:1.0;"/><line style="stroke:#181818;stroke-width:1.0;" x1="418" x2="418" y1="1224.3711" y2="1244.3711"/><polygon fill="#181818" points="414,1234.3711,418,1244.3711,422,1234.3711,418,1238.3711" style="stroke:#181818;stroke-width:1.0;"/><line style="stroke:#181818;stroke-width:1.0;" x1="418" x2="418" y1="1278.3398" y2="1298.3398"/><polygon fill="#181818" points="414,1288.3398,418,1298.3398,422,1288.3398,418,1292.3398" style="stroke:#181818;stroke-width:1.0;"/><line style="stroke:#181818;stroke-width:1.0;" x1="418" x2="418" y1="1346.2773" y2="1366.2773"/><polygon fill="#181818" points="414,1356.2773,418,1366.2773,422,1356.2773,418,1360.2773" style="stroke:#181818;stroke-width:1.0;"/><line style="stroke:#181818;stroke-width:1.0;" x1="418" x2="418" y1="1516.5859" y2="1536.5859"/><polygon fill="#181818" points="414,1526.5859,418,1536.5859,422,1526.5859,418,1530.5859" style="stroke:#181818;stroke-width:1.0;"/><line style="stroke:#181818;stroke-width:1.0;" x1="418" x2="418" y1="1570.5547" y2="1590.5547"/><polygon fill="#181818" points="414,1580.5547,418,1590.5547,422,1580.5547,418,1584.5547" style="stroke:#181818;stroke-width:1.0;"/><line style="stroke:#181818;stroke-width:1.0;" x1="418" x2="418" y1="1444.2461" y2="1468.6484"/><polygon fill="#181818" points="414,1458.6484,418,1468.6484,422,1458.6484,418,1462.6484" style="stroke:#181818;stroke-width:1.0;"/><line style="stroke:#181818;stroke-width:1.0;" x1="540" x2="635.5" y1="1432.2461" y2="1432.2461"/><polygon fill="#181818" points="631.5,1536.5859,635.5,1546.5859,639.5,1536.5859,635.5,1540.5859" style="stroke:#181818;stroke-width:1.0;"/><line style="stroke:#181818;stroke-width:1.0;" x1="635.5" x2="635.5" y1="1432.2461" y2="1656.5234"/><line style="stroke:#181818;stroke-width:1.0;" x1="635.5" x2="430" y1="1656.5234" y2="1656.5234"/><polygon fill="#181818" points="440,1652.5234,430,1656.5234,440,1660.5234,436,1656.5234" style="stroke:#181818;stroke-width:1.0;"/><line style="stroke:#181818;stroke-width:1.0;" x1="418" x2="418" y1="1624.5234" y2="1644.5234"/><polygon fill="#181818" points="414,1634.5234,418,1644.5234,422,1634.5234,418,1638.5234" style="stroke:#181818;stroke-width:1.0;"/><line style="stroke:#181818;stroke-width:1.0;" x1="418" x2="418" y1="1400.2461" y2="1420.2461"/><polygon fill="#181818" points="414,1410.2461,418,1420.2461,422,1410.2461,418,1414.2461" style="stroke:#181818;stroke-width:1.0;"/><line style="stroke:#181818;stroke-width:1.0;" x1="418" x2="418" y1="1668.5234" y2="1688.5234"/><polygon fill="#181818" points="414,1678.5234,418,1688.5234,422,1678.5234,418,1682.5234" style="stroke:#181818;stroke-width:1.0;"/><line style="stroke:#181818;stroke-width:1.0;" x1="418" x2="418" y1="1846.0273" y2="1874.543"/><polygon fill="#181818" points="414,1864.543,418,1874.543,422,1864.543,418,1868.543" style="stroke:#181818;stroke-width:1.0;"/><line style="stroke:#181818;stroke-width:1.0;" x1="418" x2="418" y1="1787.6563" y2="1812.0586"/><polygon fill="#181818" points="414,1802.0586,418,1812.0586,422,1802.0586,418,1806.0586" style="stroke:#181818;stroke-width:1.0;"/><line style="stroke:#181818;stroke-width:1.0;" x1="816" x2="828" y1="1775.6563" y2="1775.6563"/><polygon fill="#181818" points="824,1844.543,828,1854.543,832,1844.543,828,1848.543" style="stroke:#181818;stroke-width:1.0;"/><line style="stroke:#181818;stroke-width:1.0;" x1="828" x2="828" y1="1775.6563" y2="1918.543"/><line style="stroke:#181818;stroke-width:1.0;" x1="828" x2="418" y1="1918.543" y2="1918.543"/><line style="stroke:#181818;stroke-width:1.0;" x1="418" x2="418" y1="1918.543" y2="1938.543"/><polygon fill="#181818" points="414,1928.543,418,1938.543,422,1928.543,418,1932.543" style="stroke:#181818;stroke-width:1.0;"/><line style="stroke:#181818;stroke-width:1.0;" x1="418" x2="418" y1="1741.0898" y2="1763.6563"/><polygon fill="#181818" points="414,1753.6563,418,1763.6563,422,1753.6563,418,1757.6563" style="stroke:#181818;stroke-width:1.0;"/><line style="stroke:#181818;stroke-width:1.0;" x1="418" x2="418" y1="2034.8828" y2="2069.8828"/><polygon fill="#181818" points="414,2059.8828,418,2069.8828,422,2059.8828,418,2063.8828" style="stroke:#181818;stroke-width:1.0;"/><line style="stroke:#181818;stroke-width:1.0;" x1="418" x2="418" y1="1962.543" y2="1986.9453"/><polygon fill="#181818" points="414,1976.9453,418,1986.9453,422,1976.9453,418,1980.9453" style="stroke:#181818;stroke-width:1.0;"/><line style="stroke:#181818;stroke-width:1.0;" x1="665" x2="677" y1="1950.543" y2="1950.543"/><polygon fill="#181818" points="673,2042.3828,677,2052.3828,681,2042.3828,677,2046.3828" style="stroke:#181818;stroke-width:1.0;"/><line style="stroke:#181818;stroke-width:1.0;" x1="677" x2="677" y1="1950.543" y2="2149.8203"/><line style="stroke:#181818;stroke-width:1.0;" x1="677" x2="430" y1="2149.8203" y2="2149.8203"/><polygon fill="#181818" points="440,2145.8203,430,2149.8203,440,2153.8203,436,2149.8203" style="stroke:#181818;stroke-width:1.0;"/><line style="stroke:#181818;stroke-width:1.0;" x1="418" x2="418" y1="2117.8203" y2="2137.8203"/><polygon fill="#181818" points="414,2127.8203,418,2137.8203,422,2127.8203,418,2131.8203" style="stroke:#181818;stroke-width:1.0;"/><line style="stroke:#181818;stroke-width:1.0;" x1="418" x2="418" y1="2264.1914" y2="2294.707"/><polygon fill="#181818" points="414,2284.707,418,2294.707,422,2284.707,418,2288.707" style="stroke:#181818;stroke-width:1.0;"/><line style="stroke:#181818;stroke-width:1.0;" x1="418" x2="418" y1="2205.8203" y2="2230.2227"/><polygon fill="#181818" points="414,2220.2227,418,2230.2227,422,2220.2227,418,2224.2227" style="stroke:#181818;stroke-width:1.0;"/><line style="stroke:#181818;stroke-width:1.0;" x1="654.5" x2="666.5" y1="2193.8203" y2="2193.8203"/><polygon fill="#181818" points="662.5,2274.1914,666.5,2284.1914,670.5,2274.1914,666.5,2278.1914" style="stroke:#181818;stroke-width:1.0;"/><line style="stroke:#181818;stroke-width:1.0;" x1="666.5" x2="666.5" y1="2193.8203" y2="2374.6445"/><line style="stroke:#181818;stroke-width:1.0;" x1="666.5" x2="430" y1="2374.6445" y2="2374.6445"/><polygon fill="#181818" points="440,2370.6445,430,2374.6445,440,2378.6445,436,2374.6445" style="stroke:#181818;stroke-width:1.0;"/><line style="stroke:#181818;stroke-width:1.0;" x1="418" x2="418" y1="2342.6445" y2="2362.6445"/><polygon fill="#181818" points="414,2352.6445,418,2362.6445,422,2352.6445,418,2356.6445" style="stroke:#181818;stroke-width:1.0;"/><line style="stroke:#181818;stroke-width:1.0;" x1="418" x2="418" y1="2161.8203" y2="2181.8203"/><polygon fill="#181818" points="414,2171.8203,418,2181.8203,422,2171.8203,418,2175.8203" style="stroke:#181818;stroke-width:1.0;"/><line style="stroke:#181818;stroke-width:1.0;" x1="418" x2="418" y1="2386.6445" y2="2406.6445"/><polygon fill="#181818" points="414,2396.6445,418,2406.6445,422,2396.6445,418,2400.6445" style="stroke:#181818;stroke-width:1.0;"/><!--MD5=[89ed0f0cadb773f0150ae63299e04b85]
@startuml
!pragma layout smetana
start
note right
constructor Grid(double[]rowsStart,double[]colsStart,
TableStrategystrategy,TextBlocktitle)
end note
:this.title=title;;
:this.rowsStart=rowsStart;;
:this.colsStart=colsStart;;
:this.strategy=strategy;;
if (strategy==TableStrategy.DRAW_OUTSIDE||strategy==TableStrategy.DRAW_OUTSIDE_WITH_TITLE||strategy==TableStrategy.DRAW_ALL) then (yes) 
:addOutside();;
endif 
end
start
note right
void addOutside()
end note
:final intnbRow=rowsStart.length;;
:final intnbCol=colsStart.length;;
:horizontals.add(new Segment(0,c));;
:horizontals.add(new Segment(nbRow-1,c));;
:verticals.add(new Segment(r,0));;
:verticals.add(new Segment(r,nbCol-1));;
end
start
note right
void drawU(UGraphicug,doublex,doubley,HColorwhite)
end note
:final introw1=seg.getRow();;
:final intcol1=seg.getCol();;
:final doublewidth=colsStart[col1+1]-colsStart[col1];;
:ug.apply(new UTranslate(x+colsStart[col1],y+
rowsStart[row1])).draw(ULine.hline(width));;
:final introw1=seg.getRow();;
:final intcol1=seg.getCol();;
:final doubleheight=rowsStart[row1+1]-rowsStart[row1];;
:ug.apply(new UTranslate(x+colsStart[col1],y+
rowsStart[row1])).draw(ULine.vline(height));;
:final XDimension2Ddim=title.calculateDimension(ug.getStringBounder());;
if (dim.getWidth()>0&&dim.getHeight()>0) then (yes) 
:final UGraphicug2=ug.apply(new UTranslate(x+
6,y-dim.getHeight()*0));;
:ug2.apply(white.bg()).apply(white).draw(new URectangle(dim));;
:title.drawU(ug2);;
endif 
end
start
note right
void addCell(Cellcell)
end note
if (strategy==TableStrategy.DRAW_NONE||strategy==TableStrategy.DRAW_OUTSIDE||strategy==TableStrategy.DRAW_OUTSIDE_WITH_TITLE) then (yes) 
:return ;;
stop
endif 
if (strategy==TableStrategy.DRAW_HORIZONTAL||strategy==TableStrategy.DRAW_ALL) then (yes) 
:horizontals.add(new Segment(cell.getMinRow(),
c));;
:horizontals.add(new Segment(cell.getMaxRow()+
1,c));;
endif 
if (strategy==TableStrategy.DRAW_VERTICAL||strategy==TableStrategy.DRAW_ALL) then (yes) 
:verticals.add(new Segment(r,cell.getMinCol()));;
:verticals.add(new Segment(r,cell.getMaxCol()+
1));;
endif 
end
@enduml

PlantUML version 1.2022.7(Mon Aug 22 17:01:30 UTC 2022)
(GPL source distribution)
Java Runtime: OpenJDK Runtime Environment
JVM: OpenJDK 64-Bit Server VM
Default Encoding: UTF-8
Language: en
Country: null
--></g></svg>