<?xml version="1.0" encoding="UTF-8" standalone="no"?><svg xmlns="http://www.w3.org/2000/svg" xmlns:xlink="http://www.w3.org/1999/xlink" contentStyleType="text/css" height="2452px" preserveAspectRatio="none" style="width:854px;height:2452px;background:#FFFFFF;" version="1.1" viewBox="0 0 854 2452" width="854px" zoomAndPan="magnify"><defs/><g><path d="M448,10 L448,26.1328 L428,30.1328 L448,34.1328 L448,50.2656 A0,0 0 0 0 448,50.2656 L817,50.2656 A0,0 0 0 0 817,50.2656 L817,20 L807,10 L448,10 A0,0 0 0 0 448,10 " fill="#FEFFDD" style="stroke:#181818;stroke-width:0.5;"/><path d="M807,10 L807,20 L817,20 L807,10 " fill="#FEFFDD" style="stroke:#181818;stroke-width:0.5;"/><text fill="#000000" font-family="sans-serif" font-size="13" lengthAdjust="spacing" textLength="348" x="454" y="27.0669">constructor Grid(double[] rowsStart,double[] colsStart,</text><text fill="#000000" font-family="sans-serif" font-size="13" lengthAdjust="spacing" textLength="244" x="454" y="42.1997">TableStrategy strategy,TextBlock title)</text><ellipse cx="418" cy="30.1328" fill="#222222" rx="10" ry="10" style="stroke:#222222;stroke-width:1.0;"/><rect fill="#F1F1F1" height="33.9688" rx="12.5" ry="12.5" style="stroke:#181818;stroke-width:0.5;" width="109" x="363.5" y="70.2656"/><text fill="#000000" font-family="sans-serif" font-size="12" lengthAdjust="spacing" textLength="89" x="373.5" y="91.4043">this.title=title;</text><rect fill="#F1F1F1" height="33.9688" rx="12.5" ry="12.5" style="stroke:#181818;stroke-width:0.5;" width="181" x="327.5" y="124.2344"/><text fill="#000000" font-family="sans-serif" font-size="12" lengthAdjust="spacing" textLength="161" x="337.5" y="145.373">this.rowsStart=rowsStart;</text><rect fill="#F1F1F1" height="33.9688" rx="12.5" ry="12.5" style="stroke:#181818;stroke-width:0.5;" width="173" x="331.5" y="178.2031"/><text fill="#000000" font-family="sans-serif" font-size="12" lengthAdjust="spacing" textLength="153" x="341.5" y="199.3418">this.colsStart=colsStart;</text><rect fill="#F1F1F1" height="33.9688" rx="12.5" ry="12.5" style="stroke:#181818;stroke-width:0.5;" width="165" x="335.5" y="232.1719"/><text fill="#000000" font-family="sans-serif" font-size="12" lengthAdjust="spacing" textLength="145" x="345.5" y="253.3105">this.strategy=strategy;</text><rect fill="#F1F1F1" height="33.9688" rx="12.5" ry="12.5" style="stroke:#181818;stroke-width:0.5;" width="106" x="365" y="334.543"/><text fill="#000000" font-family="sans-serif" font-size="12" lengthAdjust="spacing" textLength="86" x="375" y="355.6816">addOutside();</text><polygon fill="#F1F1F1" points="38.5,286.1406,797.5,286.1406,809.5,298.1406,797.5,310.1406,38.5,310.1406,26.5,298.1406,38.5,286.1406" style="stroke:#181818;stroke-width:0.5;"/><text fill="#000000" font-family="sans-serif" font-size="11" lengthAdjust="spacing" textLength="20" x="422" y="320.3511">yes</text><text fill="#000000" font-family="sans-serif" font-size="11" lengthAdjust="spacing" textLength="759" x="38.5" y="301.9487">strategy==TableStrategy.DRAW_OUTSIDE||strategy==TableStrategy.DRAW_OUTSIDE_WITH_TITLE||strategy==TableStrategy.DRAW_ALL</text><polygon fill="#F1F1F1" points="418,388.5117,430,400.5117,418,412.5117,406,400.5117,418,388.5117" style="stroke:#181818;stroke-width:0.5;"/><ellipse cx="418" cy="442.5117" fill="none" rx="10" ry="10" style="stroke:#222222;stroke-width:1.5;"/><line style="stroke:#222222;stroke-width:2.5;" x1="411.8128" x2="424.1872" y1="436.3245" y2="448.6989"/><line style="stroke:#222222;stroke-width:2.5;" x1="424.1872" x2="411.8128" y1="436.3245" y2="448.6989"/><path d="M448,462.5117 L448,471.0781 L428,475.0781 L448,479.0781 L448,487.6445 A0,0 0 0 0 448,487.6445 L582,487.6445 A0,0 0 0 0 582,487.6445 L582,472.5117 L572,462.5117 L448,462.5117 A0,0 0 0 0 448,462.5117 " fill="#FEFFDD" style="stroke:#181818;stroke-width:0.5;"/><path d="M572,462.5117 L572,472.5117 L582,472.5117 L572,462.5117 " fill="#FEFFDD" style="stroke:#181818;stroke-width:0.5;"/><text fill="#000000" font-family="sans-serif" font-size="13" lengthAdjust="spacing" textLength="113" x="454" y="479.5786">void addOutside()</text><ellipse cx="418" cy="475.0781" fill="#222222" rx="10" ry="10" style="stroke:#222222;stroke-width:1.0;"/><rect fill="#F1F1F1" height="33.9688" rx="12.5" ry="12.5" style="stroke:#181818;stroke-width:0.5;" width="229" x="303.5" y="507.6445"/><text fill="#000000" font-family="sans-serif" font-size="12" lengthAdjust="spacing" textLength="209" x="313.5" y="528.7832">final int nbRow=rowsStart.length;</text><rect fill="#F1F1F1" height="33.9688" rx="12.5" ry="12.5" style="stroke:#181818;stroke-width:0.5;" width="219" x="308.5" y="561.6133"/><text fill="#000000" font-family="sans-serif" font-size="12" lengthAdjust="spacing" textLength="199" x="318.5" y="582.752">final int nbCol=colsStart.length;</text><rect fill="#F1F1F1" height="33.9688" rx="12.5" ry="12.5" style="stroke:#181818;stroke-width:0.5;" width="244" x="296" y="615.582"/><text fill="#000000" font-family="sans-serif" font-size="12" lengthAdjust="spacing" textLength="224" x="306" y="636.7207">horizontals.add(new Segment(0,c));</text><rect fill="#F1F1F1" height="33.9688" rx="12.5" ry="12.5" style="stroke:#181818;stroke-width:0.5;" width="289" x="273.5" y="669.5508"/><text fill="#000000" font-family="sans-serif" font-size="12" lengthAdjust="spacing" textLength="269" x="283.5" y="690.6895">horizontals.add(new Segment(nbRow-1,c));</text><rect fill="#F1F1F1" height="33.9688" rx="12.5" ry="12.5" style="stroke:#181818;stroke-width:0.5;" width="226" x="305" y="723.5195"/><text fill="#000000" font-family="sans-serif" font-size="12" lengthAdjust="spacing" textLength="206" x="315" y="744.6582">verticals.add(new Segment(r,0));</text><rect fill="#F1F1F1" height="33.9688" rx="12.5" ry="12.5" style="stroke:#181818;stroke-width:0.5;" width="265" x="285.5" y="777.4883"/><text fill="#000000" font-family="sans-serif" font-size="12" lengthAdjust="spacing" textLength="245" x="295.5" y="798.627">verticals.add(new Segment(r,nbCol-1));</text><ellipse cx="418" cy="841.457" fill="none" rx="10" ry="10" style="stroke:#222222;stroke-width:1.5;"/><line style="stroke:#222222;stroke-width:2.5;" x1="411.8128" x2="424.1872" y1="835.2698" y2="847.6442"/><line style="stroke:#222222;stroke-width:2.5;" x1="424.1872" x2="411.8128" y1="835.2698" y2="847.6442"/><path d="M448,861.457 L448,877.5898 L428,881.5898 L448,885.5898 L448,901.7227 A0,0 0 0 0 448,901.7227 L743,901.7227 A0,0 0 0 0 743,901.7227 L743,871.457 L733,861.457 L448,861.457 A0,0 0 0 0 448,861.457 " fill="#FEFFDD" style="stroke:#181818;stroke-width:0.5;"/><path d="M733,861.457 L733,871.457 L743,871.457 L733,861.457 " fill="#FEFFDD" style="stroke:#181818;stroke-width:0.5;"/><text fill="#000000" font-family="sans-serif" font-size="13" lengthAdjust="spacing" textLength="274" x="454" y="878.5239">void drawU(UGraphic ug,double x,double y,</text><text fill="#000000" font-family="sans-serif" font-size="13" lengthAdjust="spacing" textLength="85" x="454" y="893.6567">HColor white)</text><ellipse cx="418" cy="881.5898" fill="#222222" rx="10" ry="10" style="stroke:#222222;stroke-width:1.0;"/><rect fill="#F1F1F1" height="33.9688" rx="12.5" ry="12.5" style="stroke:#181818;stroke-width:0.5;" width="197" x="319.5" y="921.7227"/><text fill="#000000" font-family="sans-serif" font-size="12" lengthAdjust="spacing" textLength="177" x="329.5" y="942.8613">final int row1=seg.getRow();</text><rect fill="#F1F1F1" height="33.9688" rx="12.5" ry="12.5" style="stroke:#181818;stroke-width:0.5;" width="187" x="324.5" y="975.6914"/><text fill="#000000" font-family="sans-serif" font-size="12" lengthAdjust="spacing" textLength="167" x="334.5" y="996.8301">final int col1=seg.getCol();</text><rect fill="#F1F1F1" height="33.9688" rx="12.5" ry="12.5" style="stroke:#181818;stroke-width:0.5;" width="350" x="243" y="1029.6602"/><text fill="#000000" font-family="sans-serif" font-size="12" lengthAdjust="spacing" textLength="330" x="253" y="1050.7988">final double width=colsStart[col1+1]-colsStart[col1];</text><rect fill="#F1F1F1" height="47.9375" rx="12.5" ry="12.5" style="stroke:#181818;stroke-width:0.5;" width="308" x="264" y="1083.6289"/><text fill="#000000" font-family="sans-serif" font-size="12" lengthAdjust="spacing" textLength="288" x="274" y="1104.7676">ug.apply(new UTranslate(x+colsStart[col1],y+</text><text fill="#000000" font-family="sans-serif" font-size="12" lengthAdjust="spacing" textLength="269" x="274" y="1118.7363">rowsStart[row1])).draw(ULine.hline(width));</text><rect fill="#F1F1F1" height="33.9688" rx="12.5" ry="12.5" style="stroke:#181818;stroke-width:0.5;" width="197" x="319.5" y="1151.5664"/><text fill="#000000" font-family="sans-serif" font-size="12" lengthAdjust="spacing" textLength="177" x="329.5" y="1172.7051">final int row1=seg.getRow();</text><rect fill="#F1F1F1" height="33.9688" rx="12.5" ry="12.5" style="stroke:#181818;stroke-width:0.5;" width="187" x="324.5" y="1205.5352"/><text fill="#000000" font-family="sans-serif" font-size="12" lengthAdjust="spacing" textLength="167" x="334.5" y="1226.6738">final int col1=seg.getCol();</text><rect fill="#F1F1F1" height="33.9688" rx="12.5" ry="12.5" style="stroke:#181818;stroke-width:0.5;" width="373" x="231.5" y="1259.5039"/><text fill="#000000" font-family="sans-serif" font-size="12" lengthAdjust="spacing" textLength="353" x="241.5" y="1280.6426">final double height=rowsStart[row1+1]-rowsStart[row1];</text><rect fill="#F1F1F1" height="47.9375" rx="12.5" ry="12.5" style="stroke:#181818;stroke-width:0.5;" width="308" x="264" y="1313.4727"/><text fill="#000000" font-family="sans-serif" font-size="12" lengthAdjust="spacing" textLength="288" x="274" y="1334.6113">ug.apply(new UTranslate(x+colsStart[col1],y+</text><text fill="#000000" font-family="sans-serif" font-size="12" lengthAdjust="spacing" textLength="274" x="274" y="1348.5801">rowsStart[row1])).draw(ULine.vline(height));</text><rect fill="#F1F1F1" height="33.9688" rx="12.5" ry="12.5" style="stroke:#181818;stroke-width:0.5;" width="480" x="178" y="1381.4102"/><text fill="#000000" font-family="sans-serif" font-size="12" lengthAdjust="spacing" textLength="460" x="188" y="1402.5488">final XDimension2D dim=title.calculateDimension(ug.getStringBounder());</text><rect fill="#F1F1F1" height="47.9375" rx="12.5" ry="12.5" style="stroke:#181818;stroke-width:0.5;" width="321" x="257.5" y="1483.7813"/><text fill="#000000" font-family="sans-serif" font-size="12" lengthAdjust="spacing" textLength="301" x="267.5" y="1504.9199">final UGraphic ug2=ug.apply(new UTranslate(x+</text><text fill="#000000" font-family="sans-serif" font-size="12" lengthAdjust="spacing" textLength="148" x="267.5" y="1518.8887">6,y-dim.getHeight()*0));</text><rect fill="#F1F1F1" height="33.9688" rx="12.5" ry="12.5" style="stroke:#181818;stroke-width:0.5;" width="415" x="210.5" y="1551.7188"/><text fill="#000000" font-family="sans-serif" font-size="12" lengthAdjust="spacing" textLength="395" x="220.5" y="1572.8574">ug2.apply(white.bg()).apply(white).draw(new URectangle(dim));</text><rect fill="#F1F1F1" height="33.9688" rx="12.5" ry="12.5" style="stroke:#181818;stroke-width:0.5;" width="125" x="355.5" y="1605.6875"/><text fill="#000000" font-family="sans-serif" font-size="12" lengthAdjust="spacing" textLength="105" x="365.5" y="1626.8262">title.drawU(ug2);</text><polygon fill="#F1F1F1" points="308,1435.3789,528,1435.3789,540,1447.3789,528,1459.3789,308,1459.3789,296,1447.3789,308,1435.3789" style="stroke:#181818;stroke-width:0.5;"/><text fill="#000000" font-family="sans-serif" font-size="11" lengthAdjust="spacing" textLength="20" x="422" y="1469.5894">yes</text><text fill="#000000" font-family="sans-serif" font-size="11" lengthAdjust="spacing" textLength="220" x="308" y="1451.187">dim.getWidth()&gt;0&amp;&amp;dim.getHeight()&gt;0</text><polygon fill="#F1F1F1" points="418,1659.6563,430,1671.6563,418,1683.6563,406,1671.6563,418,1659.6563" style="stroke:#181818;stroke-width:0.5;"/><ellipse cx="418" cy="1713.6563" fill="none" rx="10" ry="10" style="stroke:#222222;stroke-width:1.5;"/><line style="stroke:#222222;stroke-width:2.5;" x1="411.8128" x2="424.1872" y1="1707.4691" y2="1719.8434"/><line style="stroke:#222222;stroke-width:2.5;" x1="424.1872" x2="411.8128" y1="1707.4691" y2="1719.8434"/><path d="M448,1733.6563 L448,1742.2227 L428,1746.2227 L448,1750.2227 L448,1758.7891 A0,0 0 0 0 448,1758.7891 L604,1758.7891 A0,0 0 0 0 604,1758.7891 L604,1743.6563 L594,1733.6563 L448,1733.6563 A0,0 0 0 0 448,1733.6563 " fill="#FEFFDD" style="stroke:#181818;stroke-width:0.5;"/><path d="M594,1733.6563 L594,1743.6563 L604,1743.6563 L594,1733.6563 " fill="#FEFFDD" style="stroke:#181818;stroke-width:0.5;"/><text fill="#000000" font-family="sans-serif" font-size="13" lengthAdjust="spacing" textLength="135" x="454" y="1750.7231">void addCell(Cell cell)</text><ellipse cx="418" cy="1746.2227" fill="#222222" rx="10" ry="10" style="stroke:#222222;stroke-width:1.0;"/><rect fill="#F1F1F1" height="33.9688" rx="12.5" ry="12.5" style="stroke:#181818;stroke-width:0.5;" width="67" x="384.5" y="1827.1914"/><text fill="#000000" font-family="sans-serif" font-size="12" lengthAdjust="spacing" textLength="47" x="394.5" y="1848.3301">return ;</text><ellipse cx="418" cy="1900.6758" fill="none" rx="11" ry="11" style="stroke:#222222;stroke-width:1.0;"/><ellipse cx="418" cy="1900.6758" fill="#222222" rx="6" ry="6" style="stroke:#111111;stroke-width:1.0;"/><polygon fill="#F1F1F1" points="32,1778.7891,804,1778.7891,816,1790.7891,804,1802.7891,32,1802.7891,20,1790.7891,32,1778.7891" style="stroke:#181818;stroke-width:0.5;"/><text fill="#000000" font-family="sans-serif" font-size="11" lengthAdjust="spacing" textLength="20" x="422" y="1812.9995">yes</text><text fill="#000000" font-family="sans-serif" font-size="11" lengthAdjust="spacing" textLength="772" x="32" y="1794.5972">strategy==TableStrategy.DRAW_NONE||strategy==TableStrategy.DRAW_OUTSIDE||strategy==TableStrategy.DRAW_OUTSIDE_WITH_TITLE</text><rect fill="#F1F1F1" height="47.9375" rx="12.5" ry="12.5" style="stroke:#181818;stroke-width:0.5;" width="317" x="259.5" y="2002.0781"/><text fill="#000000" font-family="sans-serif" font-size="12" lengthAdjust="spacing" textLength="297" x="269.5" y="2023.2168">horizontals.add(new Segment(cell.getMinRow(),</text><text fill="#000000" font-family="sans-serif" font-size="12" lengthAdjust="spacing" textLength="21" x="269.5" y="2037.1855">c));</text><rect fill="#F1F1F1" height="47.9375" rx="12.5" ry="12.5" style="stroke:#181818;stroke-width:0.5;" width="326" x="255" y="2085.0156"/><text fill="#000000" font-family="sans-serif" font-size="12" lengthAdjust="spacing" textLength="306" x="265" y="2106.1543">horizontals.add(new Segment(cell.getMaxRow()+</text><text fill="#000000" font-family="sans-serif" font-size="12" lengthAdjust="spacing" textLength="33" x="265" y="2120.123">1,c));</text><polygon fill="#F1F1F1" points="183,1953.6758,653,1953.6758,665,1965.6758,653,1977.6758,183,1977.6758,171,1965.6758,183,1953.6758" style="stroke:#181818;stroke-width:0.5;"/><text fill="#000000" font-family="sans-serif" font-size="11" lengthAdjust="spacing" textLength="20" x="422" y="1987.8862">yes</text><text fill="#000000" font-family="sans-serif" font-size="11" lengthAdjust="spacing" textLength="470" x="183" y="1969.4839">strategy==TableStrategy.DRAW_HORIZONTAL||strategy==TableStrategy.DRAW_ALL</text><polygon fill="#F1F1F1" points="418,2152.9531,430,2164.9531,418,2176.9531,406,2164.9531,418,2152.9531" style="stroke:#181818;stroke-width:0.5;"/><rect fill="#F1F1F1" height="33.9688" rx="12.5" ry="12.5" style="stroke:#181818;stroke-width:0.5;" width="314" x="261" y="2245.3555"/><text fill="#000000" font-family="sans-serif" font-size="12" lengthAdjust="spacing" textLength="294" x="271" y="2266.4941">verticals.add(new Segment(r,cell.getMinCol()));</text><rect fill="#F1F1F1" height="47.9375" rx="12.5" ry="12.5" style="stroke:#181818;stroke-width:0.5;" width="313" x="261.5" y="2309.8398"/><text fill="#000000" font-family="sans-serif" font-size="12" lengthAdjust="spacing" textLength="293" x="271.5" y="2330.9785">verticals.add(new Segment(r,cell.getMaxCol()+</text><text fill="#000000" font-family="sans-serif" font-size="12" lengthAdjust="spacing" textLength="22" x="271.5" y="2344.9473">1));</text><polygon fill="#F1F1F1" points="193.5,2196.9531,642.5,2196.9531,654.5,2208.9531,642.5,2220.9531,193.5,2220.9531,181.5,2208.9531,193.5,2196.9531" style="stroke:#181818;stroke-width:0.5;"/><text fill="#000000" font-family="sans-serif" font-size="11" lengthAdjust="spacing" textLength="20" x="422" y="2231.1636">yes</text><text fill="#000000" font-family="sans-serif" font-size="11" lengthAdjust="spacing" textLength="449" x="193.5" y="2212.7612">strategy==TableStrategy.DRAW_VERTICAL||strategy==TableStrategy.DRAW_ALL</text><polygon fill="#F1F1F1" points="418,2377.7773,430,2389.7773,418,2401.7773,406,2389.7773,418,2377.7773" style="stroke:#181818;stroke-width:0.5;"/><ellipse cx="418" cy="2431.7773" fill="none" rx="10" ry="10" style="stroke:#222222;stroke-width:1.5;"/><line style="stroke:#222222;stroke-width:2.5;" x1="411.8128" x2="424.1872" y1="2425.5902" y2="2437.9645"/><line style="stroke:#222222;stroke-width:2.5;" x1="424.1872" x2="411.8128" y1="2425.5902" y2="2437.9645"/><line style="stroke:#181818;stroke-width:1.0;" x1="418" x2="418" y1="40.1328" y2="70.2656"/><polygon fill="#181818" points="414,60.2656,418,70.2656,422,60.2656,418,64.2656" style="stroke:#181818;stroke-width:1.0;"/><line style="stroke:#181818;stroke-width:1.0;" x1="418" x2="418" y1="104.2344" y2="124.2344"/><polygon fill="#181818" points="414,114.2344,418,124.2344,422,114.2344,418,118.2344" style="stroke:#181818;stroke-width:1.0;"/><line style="stroke:#181818;stroke-width:1.0;" x1="418" x2="418" y1="158.2031" y2="178.2031"/><polygon fill="#181818" points="414,168.2031,418,178.2031,422,168.2031,418,172.2031" style="stroke:#181818;stroke-width:1.0;"/><line style="stroke:#181818;stroke-width:1.0;" x1="418" x2="418" y1="212.1719" y2="232.1719"/><polygon fill="#181818" points="414,222.1719,418,232.1719,422,222.1719,418,226.1719" style="stroke:#181818;stroke-width:1.0;"/><line style="stroke:#181818;stroke-width:1.0;" x1="418" x2="418" y1="310.1406" y2="334.543"/><polygon fill="#181818" points="414,324.543,418,334.543,422,324.543,418,328.543" style="stroke:#181818;stroke-width:1.0;"/><line style="stroke:#181818;stroke-width:1.0;" x1="809.5" x2="821.5" y1="298.1406" y2="298.1406"/><polygon fill="#181818" points="817.5,341.5273,821.5,351.5273,825.5,341.5273,821.5,345.5273" style="stroke:#181818;stroke-width:1.0;"/><line style="stroke:#181818;stroke-width:1.0;" x1="821.5" x2="821.5" y1="298.1406" y2="400.5117"/><line style="stroke:#181818;stroke-width:1.0;" x1="821.5" x2="430" y1="400.5117" y2="400.5117"/><polygon fill="#181818" points="440,396.5117,430,400.5117,440,404.5117,436,400.5117" style="stroke:#181818;stroke-width:1.0;"/><line style="stroke:#181818;stroke-width:1.0;" x1="418" x2="418" y1="368.5117" y2="388.5117"/><polygon fill="#181818" points="414,378.5117,418,388.5117,422,378.5117,418,382.5117" style="stroke:#181818;stroke-width:1.0;"/><line style="stroke:#181818;stroke-width:1.0;" x1="418" x2="418" y1="266.1406" y2="286.1406"/><polygon fill="#181818" points="414,276.1406,418,286.1406,422,276.1406,418,280.1406" style="stroke:#181818;stroke-width:1.0;"/><line style="stroke:#181818;stroke-width:1.0;" x1="418" x2="418" y1="412.5117" y2="432.5117"/><polygon fill="#181818" points="414,422.5117,418,432.5117,422,422.5117,418,426.5117" style="stroke:#181818;stroke-width:1.0;"/><line style="stroke:#181818;stroke-width:1.0;" x1="418" x2="418" y1="485.0781" y2="507.6445"/><polygon fill="#181818" points="414,497.6445,418,507.6445,422,497.6445,418,501.6445" style="stroke:#181818;stroke-width:1.0;"/><line style="stroke:#181818;stroke-width:1.0;" x1="418" x2="418" y1="541.6133" y2="561.6133"/><polygon fill="#181818" points="414,551.6133,418,561.6133,422,551.6133,418,555.6133" style="stroke:#181818;stroke-width:1.0;"/><line style="stroke:#181818;stroke-width:1.0;" x1="418" x2="418" y1="595.582" y2="615.582"/><polygon fill="#181818" points="414,605.582,418,615.582,422,605.582,418,609.582" style="stroke:#181818;stroke-width:1.0;"/><line style="stroke:#181818;stroke-width:1.0;" x1="418" x2="418" y1="649.5508" y2="669.5508"/><polygon fill="#181818" points="414,659.5508,418,669.5508,422,659.5508,418,663.5508" style="stroke:#181818;stroke-width:1.0;"/><line style="stroke:#181818;stroke-width:1.0;" x1="418" x2="418" y1="703.5195" y2="723.5195"/><polygon fill="#181818" points="414,713.5195,418,723.5195,422,713.5195,418,717.5195" style="stroke:#181818;stroke-width:1.0;"/><line style="stroke:#181818;stroke-width:1.0;" x1="418" x2="418" y1="757.4883" y2="777.4883"/><polygon fill="#181818" points="414,767.4883,418,777.4883,422,767.4883,418,771.4883" style="stroke:#181818;stroke-width:1.0;"/><line style="stroke:#181818;stroke-width:1.0;" x1="418" x2="418" y1="811.457" y2="831.457"/><polygon fill="#181818" points="414,821.457,418,831.457,422,821.457,418,825.457" style="stroke:#181818;stroke-width:1.0;"/><line style="stroke:#181818;stroke-width:1.0;" x1="418" x2="418" y1="891.5898" y2="921.7227"/><polygon fill="#181818" points="414,911.7227,418,921.7227,422,911.7227,418,915.7227" style="stroke:#181818;stroke-width:1.0;"/><line style="stroke:#181818;stroke-width:1.0;" x1="418" x2="418" y1="955.6914" y2="975.6914"/><polygon fill="#181818" points="414,965.6914,418,975.6914,422,965.6914,418,969.6914" style="stroke:#181818;stroke-width:1.0;"/><line style="stroke:#181818;stroke-width:1.0;" x1="418" x2="418" y1="1009.6602" y2="1029.6602"/><polygon fill="#181818" points="414,1019.6602,418,1029.6602,422,1019.6602,418,1023.6602" style="stroke:#181818;stroke-width:1.0;"/><line style="stroke:#181818;stroke-width:1.0;" x1="418" x2="418" y1="1063.6289" y2="1083.6289"/><polygon fill="#181818" points="414,1073.6289,418,1083.6289,422,1073.6289,418,1077.6289" style="stroke:#181818;stroke-width:1.0;"/><line style="stroke:#181818;stroke-width:1.0;" x1="418" x2="418" y1="1131.5664" y2="1151.5664"/><polygon fill="#181818" points="414,1141.5664,418,1151.5664,422,1141.5664,418,1145.5664" style="stroke:#181818;stroke-width:1.0;"/><line style="stroke:#181818;stroke-width:1.0;" x1="418" x2="418" y1="1185.5352" y2="1205.5352"/><polygon fill="#181818" points="414,1195.5352,418,1205.5352,422,1195.5352,418,1199.5352" style="stroke:#181818;stroke-width:1.0;"/><line style="stroke:#181818;stroke-width:1.0;" x1="418" x2="418" y1="1239.5039" y2="1259.5039"/><polygon fill="#181818" points="414,1249.5039,418,1259.5039,422,1249.5039,418,1253.5039" style="stroke:#181818;stroke-width:1.0;"/><line style="stroke:#181818;stroke-width:1.0;" x1="418" x2="418" y1="1293.4727" y2="1313.4727"/><polygon fill="#181818" points="414,1303.4727,418,1313.4727,422,1303.4727,418,1307.4727" style="stroke:#181818;stroke-width:1.0;"/><line style="stroke:#181818;stroke-width:1.0;" x1="418" x2="418" y1="1361.4102" y2="1381.4102"/><polygon fill="#181818" points="414,1371.4102,418,1381.4102,422,1371.4102,418,1375.4102" style="stroke:#181818;stroke-width:1.0;"/><line style="stroke:#181818;stroke-width:1.0;" x1="418" x2="418" y1="1531.7188" y2="1551.7188"/><polygon fill="#181818" points="414,1541.7188,418,1551.7188,422,1541.7188,418,1545.7188" style="stroke:#181818;stroke-width:1.0;"/><line style="stroke:#181818;stroke-width:1.0;" x1="418" x2="418" y1="1585.6875" y2="1605.6875"/><polygon fill="#181818" points="414,1595.6875,418,1605.6875,422,1595.6875,418,1599.6875" style="stroke:#181818;stroke-width:1.0;"/><line style="stroke:#181818;stroke-width:1.0;" x1="418" x2="418" y1="1459.3789" y2="1483.7813"/><polygon fill="#181818" points="414,1473.7813,418,1483.7813,422,1473.7813,418,1477.7813" style="stroke:#181818;stroke-width:1.0;"/><line style="stroke:#181818;stroke-width:1.0;" x1="540" x2="635.5" y1="1447.3789" y2="1447.3789"/><polygon fill="#181818" points="631.5,1551.7188,635.5,1561.7188,639.5,1551.7188,635.5,1555.7188" style="stroke:#181818;stroke-width:1.0;"/><line style="stroke:#181818;stroke-width:1.0;" x1="635.5" x2="635.5" y1="1447.3789" y2="1671.6563"/><line style="stroke:#181818;stroke-width:1.0;" x1="635.5" x2="430" y1="1671.6563" y2="1671.6563"/><polygon fill="#181818" points="440,1667.6563,430,1671.6563,440,1675.6563,436,1671.6563" style="stroke:#181818;stroke-width:1.0;"/><line style="stroke:#181818;stroke-width:1.0;" x1="418" x2="418" y1="1639.6563" y2="1659.6563"/><polygon fill="#181818" points="414,1649.6563,418,1659.6563,422,1649.6563,418,1653.6563" style="stroke:#181818;stroke-width:1.0;"/><line style="stroke:#181818;stroke-width:1.0;" x1="418" x2="418" y1="1415.3789" y2="1435.3789"/><polygon fill="#181818" points="414,1425.3789,418,1435.3789,422,1425.3789,418,1429.3789" style="stroke:#181818;stroke-width:1.0;"/><line style="stroke:#181818;stroke-width:1.0;" x1="418" x2="418" y1="1683.6563" y2="1703.6563"/><polygon fill="#181818" points="414,1693.6563,418,1703.6563,422,1693.6563,418,1697.6563" style="stroke:#181818;stroke-width:1.0;"/><line style="stroke:#181818;stroke-width:1.0;" x1="418" x2="418" y1="1861.1602" y2="1889.6758"/><polygon fill="#181818" points="414,1879.6758,418,1889.6758,422,1879.6758,418,1883.6758" style="stroke:#181818;stroke-width:1.0;"/><line style="stroke:#181818;stroke-width:1.0;" x1="418" x2="418" y1="1802.7891" y2="1827.1914"/><polygon fill="#181818" points="414,1817.1914,418,1827.1914,422,1817.1914,418,1821.1914" style="stroke:#181818;stroke-width:1.0;"/><line style="stroke:#181818;stroke-width:1.0;" x1="816" x2="828" y1="1790.7891" y2="1790.7891"/><polygon fill="#181818" points="824,1859.6758,828,1869.6758,832,1859.6758,828,1863.6758" style="stroke:#181818;stroke-width:1.0;"/><line style="stroke:#181818;stroke-width:1.0;" x1="828" x2="828" y1="1790.7891" y2="1933.6758"/><line style="stroke:#181818;stroke-width:1.0;" x1="828" x2="418" y1="1933.6758" y2="1933.6758"/><line style="stroke:#181818;stroke-width:1.0;" x1="418" x2="418" y1="1933.6758" y2="1953.6758"/><polygon fill="#181818" points="414,1943.6758,418,1953.6758,422,1943.6758,418,1947.6758" style="stroke:#181818;stroke-width:1.0;"/><line style="stroke:#181818;stroke-width:1.0;" x1="418" x2="418" y1="1756.2227" y2="1778.7891"/><polygon fill="#181818" points="414,1768.7891,418,1778.7891,422,1768.7891,418,1772.7891" style="stroke:#181818;stroke-width:1.0;"/><line style="stroke:#181818;stroke-width:1.0;" x1="418" x2="418" y1="2050.0156" y2="2085.0156"/><polygon fill="#181818" points="414,2075.0156,418,2085.0156,422,2075.0156,418,2079.0156" style="stroke:#181818;stroke-width:1.0;"/><line style="stroke:#181818;stroke-width:1.0;" x1="418" x2="418" y1="1977.6758" y2="2002.0781"/><polygon fill="#181818" points="414,1992.0781,418,2002.0781,422,1992.0781,418,1996.0781" style="stroke:#181818;stroke-width:1.0;"/><line style="stroke:#181818;stroke-width:1.0;" x1="665" x2="677" y1="1965.6758" y2="1965.6758"/><polygon fill="#181818" points="673,2057.5156,677,2067.5156,681,2057.5156,677,2061.5156" style="stroke:#181818;stroke-width:1.0;"/><line style="stroke:#181818;stroke-width:1.0;" x1="677" x2="677" y1="1965.6758" y2="2164.9531"/><line style="stroke:#181818;stroke-width:1.0;" x1="677" x2="430" y1="2164.9531" y2="2164.9531"/><polygon fill="#181818" points="440,2160.9531,430,2164.9531,440,2168.9531,436,2164.9531" style="stroke:#181818;stroke-width:1.0;"/><line style="stroke:#181818;stroke-width:1.0;" x1="418" x2="418" y1="2132.9531" y2="2152.9531"/><polygon fill="#181818" points="414,2142.9531,418,2152.9531,422,2142.9531,418,2146.9531" style="stroke:#181818;stroke-width:1.0;"/><line style="stroke:#181818;stroke-width:1.0;" x1="418" x2="418" y1="2279.3242" y2="2309.8398"/><polygon fill="#181818" points="414,2299.8398,418,2309.8398,422,2299.8398,418,2303.8398" style="stroke:#181818;stroke-width:1.0;"/><line style="stroke:#181818;stroke-width:1.0;" x1="418" x2="418" y1="2220.9531" y2="2245.3555"/><polygon fill="#181818" points="414,2235.3555,418,2245.3555,422,2235.3555,418,2239.3555" style="stroke:#181818;stroke-width:1.0;"/><line style="stroke:#181818;stroke-width:1.0;" x1="654.5" x2="666.5" y1="2208.9531" y2="2208.9531"/><polygon fill="#181818" points="662.5,2289.3242,666.5,2299.3242,670.5,2289.3242,666.5,2293.3242" style="stroke:#181818;stroke-width:1.0;"/><line style="stroke:#181818;stroke-width:1.0;" x1="666.5" x2="666.5" y1="2208.9531" y2="2389.7773"/><line style="stroke:#181818;stroke-width:1.0;" x1="666.5" x2="430" y1="2389.7773" y2="2389.7773"/><polygon fill="#181818" points="440,2385.7773,430,2389.7773,440,2393.7773,436,2389.7773" style="stroke:#181818;stroke-width:1.0;"/><line style="stroke:#181818;stroke-width:1.0;" x1="418" x2="418" y1="2357.7773" y2="2377.7773"/><polygon fill="#181818" points="414,2367.7773,418,2377.7773,422,2367.7773,418,2371.7773" style="stroke:#181818;stroke-width:1.0;"/><line style="stroke:#181818;stroke-width:1.0;" x1="418" x2="418" y1="2176.9531" y2="2196.9531"/><polygon fill="#181818" points="414,2186.9531,418,2196.9531,422,2186.9531,418,2190.9531" style="stroke:#181818;stroke-width:1.0;"/><line style="stroke:#181818;stroke-width:1.0;" x1="418" x2="418" y1="2401.7773" y2="2421.7773"/><polygon fill="#181818" points="414,2411.7773,418,2421.7773,422,2411.7773,418,2415.7773" style="stroke:#181818;stroke-width:1.0;"/><!--MD5=[e3180883dad63af9e70475967d4659a1]
@startuml
!pragma layout smetana
start
note right
constructor Grid(double[] rowsStart,double[] colsStart,
TableStrategy strategy,TextBlock title)
end note
:this.title=title;;
:this.rowsStart=rowsStart;;
:this.colsStart=colsStart;;
:this.strategy=strategy;;
if (strategy==TableStrategy.DRAW_OUTSIDE||strategy==TableStrategy.DRAW_OUTSIDE_WITH_TITLE||strategy==TableStrategy.DRAW_ALL) then (yes) 
:addOutside();;
endif 
end
start
note right
void addOutside()
end note
:final int nbRow=rowsStart.length;;
:final int nbCol=colsStart.length;;
:horizontals.add(new Segment(0,c));;
:horizontals.add(new Segment(nbRow-1,c));;
:verticals.add(new Segment(r,0));;
:verticals.add(new Segment(r,nbCol-1));;
end
start
note right
void drawU(UGraphic ug,double x,double y,
HColor white)
end note
:final int row1=seg.getRow();;
:final int col1=seg.getCol();;
:final double width=colsStart[col1+1]-colsStart[col1];;
:ug.apply(new UTranslate(x+colsStart[col1],y+
rowsStart[row1])).draw(ULine.hline(width));;
:final int row1=seg.getRow();;
:final int col1=seg.getCol();;
:final double height=rowsStart[row1+1]-rowsStart[row1];;
:ug.apply(new UTranslate(x+colsStart[col1],y+
rowsStart[row1])).draw(ULine.vline(height));;
:final XDimension2D dim=title.calculateDimension(ug.getStringBounder());;
if (dim.getWidth()>0&&dim.getHeight()>0) then (yes) 
:final UGraphic ug2=ug.apply(new UTranslate(x+
6,y-dim.getHeight()*0));;
:ug2.apply(white.bg()).apply(white).draw(new URectangle(dim));;
:title.drawU(ug2);;
endif 
end
start
note right
void addCell(Cell cell)
end note
if (strategy==TableStrategy.DRAW_NONE||strategy==TableStrategy.DRAW_OUTSIDE||strategy==TableStrategy.DRAW_OUTSIDE_WITH_TITLE) then (yes) 
:return ;;
stop
endif 
if (strategy==TableStrategy.DRAW_HORIZONTAL||strategy==TableStrategy.DRAW_ALL) then (yes) 
:horizontals.add(new Segment(cell.getMinRow(),
c));;
:horizontals.add(new Segment(cell.getMaxRow()+
1,c));;
endif 
if (strategy==TableStrategy.DRAW_VERTICAL||strategy==TableStrategy.DRAW_ALL) then (yes) 
:verticals.add(new Segment(r,cell.getMinCol()));;
:verticals.add(new Segment(r,cell.getMaxCol()+
1));;
endif 
end
@enduml

PlantUML version 1.2022.7(Mon Aug 22 17:01:30 UTC 2022)
(GPL source distribution)
Java Runtime: OpenJDK Runtime Environment
JVM: OpenJDK 64-Bit Server VM
Default Encoding: UTF-8
Language: en
Country: null
--></g></svg>