<?xml version="1.0" encoding="UTF-8" standalone="no"?><svg xmlns="http://www.w3.org/2000/svg" xmlns:xlink="http://www.w3.org/1999/xlink" contentStyleType="text/css" height="268px" preserveAspectRatio="none" style="width:332px;height:268px;background:#FFFFFF;" version="1.1" viewBox="0 0 332 268" width="332px" zoomAndPan="magnify"><defs/><g><!--MD5=[aa8f7b917213fcc1c2766e2d59b49067]
cluster java.lang--><g id="cluster_java.lang"><path d="M120.5,6 L190.5,6 A3.75,3.75 0 0 1 193,8.5 L200,28.2969 L209.5,28.2969 A2.5,2.5 0 0 1 212,30.7969 L212,86.5 A2.5,2.5 0 0 1 209.5,89 L120.5,89 A2.5,2.5 0 0 1 118,86.5 L118,8.5 A2.5,2.5 0 0 1 120.5,6 " fill="none" style="stroke:#000000;stroke-width:1.5;"/><line style="stroke:#000000;stroke-width:1.5;" x1="118" x2="200" y1="28.2969" y2="28.2969"/><text fill="#000000" font-family="sans-serif" font-size="14" font-weight="bold" lengthAdjust="spacing" textLength="69" x="122" y="20.9951">java.lang</text></g><!--MD5=[cb2163e785cfff9b832473241ff53ca2]
cluster net.sourceforge.plantuml.salt.element--><g id="cluster_net.sourceforge.plantuml.salt.element"><path d="M8.5,97 L312.5,97 A3.75,3.75 0 0 1 315,99.5 L322,119.2969 L322.5,119.2969 A2.5,2.5 0 0 1 325,121.7969 L325,258.5 A2.5,2.5 0 0 1 322.5,261 L8.5,261 A2.5,2.5 0 0 1 6,258.5 L6,99.5 A2.5,2.5 0 0 1 8.5,97 " fill="none" style="stroke:#000000;stroke-width:1.5;"/><line style="stroke:#000000;stroke-width:1.5;" x1="6" x2="322" y1="119.2969" y2="119.2969"/><text fill="#000000" font-family="sans-serif" font-size="14" font-weight="bold" lengthAdjust="spacing" textLength="303" x="10" y="111.9951">net.sourceforge.plantuml.salt.element</text></g><!--MD5=[274ad5661286b626a93603d287cbf95a]
class java.lang.Object--><g id="elem_java.lang.Object"><rect fill="#F1F1F1" height="48" id="java.lang.Object" rx="2.5" ry="2.5" style="stroke:#181818;stroke-width:0.5;" width="77" x="126.5" y="33"/><ellipse cx="141.5" cy="49" fill="#ADD1B2" rx="11" ry="11" style="stroke:#181818;stroke-width:1.0;"/><path d="M144.4688,54.6406 Q143.8906,54.9375 143.25,55.0781 Q142.6094,55.2344 141.9063,55.2344 Q139.4063,55.2344 138.0781,53.5938 Q136.7656,51.9375 136.7656,48.8125 Q136.7656,45.6875 138.0781,44.0313 Q139.4063,42.375 141.9063,42.375 Q142.6094,42.375 143.25,42.5313 Q143.9063,42.6875 144.4688,42.9844 L144.4688,45.7031 Q143.8438,45.125 143.25,44.8594 Q142.6563,44.5781 142.0313,44.5781 Q140.6875,44.5781 140,45.6563 Q139.3125,46.7188 139.3125,48.8125 Q139.3125,50.9063 140,51.9844 Q140.6875,53.0469 142.0313,53.0469 Q142.6563,53.0469 143.25,52.7813 Q143.8438,52.5 144.4688,51.9219 L144.4688,54.6406 Z " fill="#000000"/><text fill="#000000" font-family="sans-serif" font-size="14" lengthAdjust="spacing" textLength="45" x="155.5" y="53.8467">Object</text><line style="stroke:#181818;stroke-width:0.5;" x1="127.5" x2="202.5" y1="65" y2="65"/><line style="stroke:#181818;stroke-width:0.5;" x1="127.5" x2="202.5" y1="73" y2="73"/></g><!--MD5=[4eaa6edf464ee3566f5d226fbbd8fb03]
class net.sourceforge.plantuml.salt.element.Segment--><g id="elem_net.sourceforge.plantuml.salt.element.Segment"><rect codeLine="3" fill="#F1F1F1" height="129.4844" id="net.sourceforge.plantuml.salt.element.Segment" rx="2.5" ry="2.5" style="stroke:#181818;stroke-width:0.5;" width="214" x="58" y="124"/><ellipse cx="129.25" cy="140" fill="#ADD1B2" rx="11" ry="11" style="stroke:#181818;stroke-width:1.0;"/><path d="M132.2188,145.6406 Q131.6406,145.9375 131,146.0781 Q130.3594,146.2344 129.6563,146.2344 Q127.1563,146.2344 125.8281,144.5938 Q124.5156,142.9375 124.5156,139.8125 Q124.5156,136.6875 125.8281,135.0313 Q127.1563,133.375 129.6563,133.375 Q130.3594,133.375 131,133.5313 Q131.6563,133.6875 132.2188,133.9844 L132.2188,136.7031 Q131.5938,136.125 131,135.8594 Q130.4063,135.5781 129.7813,135.5781 Q128.4375,135.5781 127.75,136.6563 Q127.0625,137.7188 127.0625,139.8125 Q127.0625,141.9063 127.75,142.9844 Q128.4375,144.0469 129.7813,144.0469 Q130.4063,144.0469 131,143.7813 Q131.5938,143.5 132.2188,142.9219 L132.2188,145.6406 Z " fill="#000000"/><text fill="#000000" font-family="sans-serif" font-size="14" lengthAdjust="spacing" textLength="63" x="149.75" y="144.8467">Segment</text><line style="stroke:#181818;stroke-width:0.5;" x1="59" x2="271" y1="156" y2="156"/><line style="stroke:#181818;stroke-width:0.5;" x1="59" x2="271" y1="164" y2="164"/><a href="./../../../../../../.././qc/src/net/sourceforge/plantuml/salt/element/Segment.java.html#43" target="_top" title="./../../../../../../.././qc/src/net/sourceforge/plantuml/salt/element/Segment.java.html#43" xlink:actuate="onRequest" xlink:href="./../../../../../../.././qc/src/net/sourceforge/plantuml/salt/element/Segment.java.html#43" xlink:show="new" xlink:title="./../../../../../../.././qc/src/net/sourceforge/plantuml/salt/element/Segment.java.html#43" xlink:type="simple"><rect fill="#F1F1F1" height="10" style="stroke:none;stroke-width:1.0;" width="20" x="64" y="172.6484"/><ellipse cx="69" cy="177.6484" fill="#84BE84" rx="3" ry="3" style="stroke:#038048;stroke-width:1.0;"/></a><a href="./../../../../../../.././qc/src/net/sourceforge/plantuml/salt/element/Segment.java.html#43" target="_top" title="./../../../../../../.././qc/src/net/sourceforge/plantuml/salt/element/Segment.java.html#43" xlink:actuate="onRequest" xlink:href="./../../../../../../.././qc/src/net/sourceforge/plantuml/salt/element/Segment.java.html#43" xlink:show="new" xlink:title="./../../../../../../.././qc/src/net/sourceforge/plantuml/salt/element/Segment.java.html#43" xlink:type="simple"><text fill="#000000" font-family="sans-serif" font-size="14" lengthAdjust="spacing" textLength="188" x="78" y="180.9951">Segment(int;int) : Segment</text></a><a href="./../../../../../../.././qc/src/net/sourceforge/plantuml/salt/element/Segment.java.html#49" target="_top" title="./../../../../../../.././qc/src/net/sourceforge/plantuml/salt/element/Segment.java.html#49" xlink:actuate="onRequest" xlink:href="./../../../../../../.././qc/src/net/sourceforge/plantuml/salt/element/Segment.java.html#49" xlink:show="new" xlink:title="./../../../../../../.././qc/src/net/sourceforge/plantuml/salt/element/Segment.java.html#49" xlink:type="simple"><rect fill="#F1F1F1" height="10" style="stroke:none;stroke-width:1.0;" width="20" x="64" y="188.9453"/><ellipse cx="69" cy="193.9453" fill="#84BE84" rx="3" ry="3" style="stroke:#038048;stroke-width:1.0;"/></a><a href="./../../../../../../.././qc/src/net/sourceforge/plantuml/salt/element/Segment.java.html#49" target="_top" title="./../../../../../../.././qc/src/net/sourceforge/plantuml/salt/element/Segment.java.html#49" xlink:actuate="onRequest" xlink:href="./../../../../../../.././qc/src/net/sourceforge/plantuml/salt/element/Segment.java.html#49" xlink:show="new" xlink:title="./../../../../../../.././qc/src/net/sourceforge/plantuml/salt/element/Segment.java.html#49" xlink:type="simple"><text fill="#000000" font-family="sans-serif" font-size="14" lengthAdjust="spacing" textLength="111" x="78" y="197.292">hashCode() : int</text></a><a href="./../../../../../../.././qc/src/net/sourceforge/plantuml/salt/element/Segment.java.html#54" target="_top" title="./../../../../../../.././qc/src/net/sourceforge/plantuml/salt/element/Segment.java.html#54" xlink:actuate="onRequest" xlink:href="./../../../../../../.././qc/src/net/sourceforge/plantuml/salt/element/Segment.java.html#54" xlink:show="new" xlink:title="./../../../../../../.././qc/src/net/sourceforge/plantuml/salt/element/Segment.java.html#54" xlink:type="simple"><rect fill="#F1F1F1" height="10" style="stroke:none;stroke-width:1.0;" width="20" x="64" y="205.2422"/><ellipse cx="69" cy="210.2422" fill="#84BE84" rx="3" ry="3" style="stroke:#038048;stroke-width:1.0;"/></a><a href="./../../../../../../.././qc/src/net/sourceforge/plantuml/salt/element/Segment.java.html#54" target="_top" title="./../../../../../../.././qc/src/net/sourceforge/plantuml/salt/element/Segment.java.html#54" xlink:actuate="onRequest" xlink:href="./../../../../../../.././qc/src/net/sourceforge/plantuml/salt/element/Segment.java.html#54" xlink:show="new" xlink:title="./../../../../../../.././qc/src/net/sourceforge/plantuml/salt/element/Segment.java.html#54" xlink:type="simple"><text fill="#000000" font-family="sans-serif" font-size="14" lengthAdjust="spacing" textLength="170" x="78" y="213.5889">equals(Object) : boolean</text></a><a href="./../../../../../../.././qc/src/net/sourceforge/plantuml/salt/element/Segment.java.html#59" target="_top" title="./../../../../../../.././qc/src/net/sourceforge/plantuml/salt/element/Segment.java.html#59" xlink:actuate="onRequest" xlink:href="./../../../../../../.././qc/src/net/sourceforge/plantuml/salt/element/Segment.java.html#59" xlink:show="new" xlink:title="./../../../../../../.././qc/src/net/sourceforge/plantuml/salt/element/Segment.java.html#59" xlink:type="simple"><rect fill="#F1F1F1" height="10" style="stroke:none;stroke-width:1.0;" width="20" x="64" y="221.5391"/><ellipse cx="69" cy="226.5391" fill="#84BE84" rx="3" ry="3" style="stroke:#038048;stroke-width:1.0;"/></a><a href="./../../../../../../.././qc/src/net/sourceforge/plantuml/salt/element/Segment.java.html#59" target="_top" title="./../../../../../../.././qc/src/net/sourceforge/plantuml/salt/element/Segment.java.html#59" xlink:actuate="onRequest" xlink:href="./../../../../../../.././qc/src/net/sourceforge/plantuml/salt/element/Segment.java.html#59" xlink:show="new" xlink:title="./../../../../../../.././qc/src/net/sourceforge/plantuml/salt/element/Segment.java.html#59" xlink:type="simple"><text fill="#000000" font-family="sans-serif" font-size="14" lengthAdjust="spacing" textLength="93" x="78" y="229.8857">getRow() : int</text></a><a href="./../../../../../../.././qc/src/net/sourceforge/plantuml/salt/element/Segment.java.html#63" target="_top" title="./../../../../../../.././qc/src/net/sourceforge/plantuml/salt/element/Segment.java.html#63" xlink:actuate="onRequest" xlink:href="./../../../../../../.././qc/src/net/sourceforge/plantuml/salt/element/Segment.java.html#63" xlink:show="new" xlink:title="./../../../../../../.././qc/src/net/sourceforge/plantuml/salt/element/Segment.java.html#63" xlink:type="simple"><rect fill="#F1F1F1" height="10" style="stroke:none;stroke-width:1.0;" width="20" x="64" y="237.8359"/><ellipse cx="69" cy="242.8359" fill="#84BE84" rx="3" ry="3" style="stroke:#038048;stroke-width:1.0;"/></a><a href="./../../../../../../.././qc/src/net/sourceforge/plantuml/salt/element/Segment.java.html#63" target="_top" title="./../../../../../../.././qc/src/net/sourceforge/plantuml/salt/element/Segment.java.html#63" xlink:actuate="onRequest" xlink:href="./../../../../../../.././qc/src/net/sourceforge/plantuml/salt/element/Segment.java.html#63" xlink:show="new" xlink:title="./../../../../../../.././qc/src/net/sourceforge/plantuml/salt/element/Segment.java.html#63" xlink:type="simple"><text fill="#000000" font-family="sans-serif" font-size="14" lengthAdjust="spacing" textLength="85" x="78" y="246.1826">getCol() : int</text></a></g><path d="M165,81.152 C165,93.2288 165,108.6536 165,123.9859 " fill="none" style="stroke:#181818;stroke-width:1.0;"/><polygon fill="#FFFFFF" points="165,81.152,159,97.152,171,97.152,165,81.152" style="stroke:#181818;stroke-width:1.0;"/><!--MD5=[41676a6d74fbe2f43b887bc7340c28bf]
@startuml
!pragma layout smetana
"java.lang.Object" <|- - "net.sourceforge.plantuml.salt.element.Segment"
class net.sourceforge.plantuml.salt.element.Segment {
+Segment(int;int) : Segment [[[./../../../../../../.././qc/src/net/sourceforge/plantuml/salt/element/Segment.java.html#43]]]
+hashCode() : int [[[./../../../../../../.././qc/src/net/sourceforge/plantuml/salt/element/Segment.java.html#49]]]
+equals(Object) : boolean [[[./../../../../../../.././qc/src/net/sourceforge/plantuml/salt/element/Segment.java.html#54]]]
+getRow() : int [[[./../../../../../../.././qc/src/net/sourceforge/plantuml/salt/element/Segment.java.html#59]]]
+getCol() : int [[[./../../../../../../.././qc/src/net/sourceforge/plantuml/salt/element/Segment.java.html#63]]]
} 
@enduml

PlantUML version 1.2022.7(Mon Aug 22 17:01:30 UTC 2022)
(GPL source distribution)
Java Runtime: OpenJDK Runtime Environment
JVM: OpenJDK 64-Bit Server VM
Default Encoding: UTF-8
Language: en
Country: null
--></g></svg>