<?xml version="1.0" encoding="UTF-8" standalone="no"?><svg xmlns="http://www.w3.org/2000/svg" xmlns:xlink="http://www.w3.org/1999/xlink" contentStyleType="text/css" height="1814px" preserveAspectRatio="none" style="width:571px;height:1814px;background:#FFFFFF;" version="1.1" viewBox="0 0 571 1814" width="571px" zoomAndPan="magnify"><defs/><g><path d="M277.5,10 L277.5,18.5664 L257.5,22.5664 L277.5,26.5664 L277.5,35.1328 A0,0 0 0 0 277.5,35.1328 L525.5,35.1328 A0,0 0 0 0 525.5,35.1328 L525.5,20 L515.5,10 L277.5,10 A0,0 0 0 0 277.5,10 " fill="#FEFFDD" style="stroke:#181818;stroke-width:0.5;"/><path d="M515.5,10 L515.5,20 L525.5,20 L515.5,10 " fill="#FEFFDD" style="stroke:#181818;stroke-width:0.5;"/><text fill="#000000" font-family="sans-serif" font-size="13" lengthAdjust="spacing" textLength="227" x="283.5" y="27.0669">constructor Entry(int level,double y)</text><ellipse cx="247.5" cy="22.5664" fill="#222222" rx="10" ry="10" style="stroke:#222222;stroke-width:1.0;"/><rect fill="#F1F1F1" height="33.9688" rx="12.5" ry="12.5" style="stroke:#181818;stroke-width:0.5;" width="117" x="189" y="55.1328"/><text fill="#000000" font-family="sans-serif" font-size="12" lengthAdjust="spacing" textLength="97" x="199" y="76.2715">this.level=level;</text><rect fill="#F1F1F1" height="33.9688" rx="12.5" ry="12.5" style="stroke:#181818;stroke-width:0.5;" width="96" x="199.5" y="109.1016"/><text fill="#000000" font-family="sans-serif" font-size="12" lengthAdjust="spacing" textLength="76" x="209.5" y="130.2402">this.ypos=y;</text><ellipse cx="247.5" cy="173.0703" fill="none" rx="10" ry="10" style="stroke:#222222;stroke-width:1.5;"/><line style="stroke:#222222;stroke-width:2.5;" x1="241.3128" x2="253.6872" y1="166.8831" y2="179.2575"/><line style="stroke:#222222;stroke-width:2.5;" x1="253.6872" x2="241.3128" y1="166.8831" y2="179.2575"/><path d="M277.5,193.0703 L277.5,201.6367 L257.5,205.6367 L277.5,209.6367 L277.5,218.2031 A0,0 0 0 0 277.5,218.2031 L479.5,218.2031 A0,0 0 0 0 479.5,218.2031 L479.5,203.0703 L469.5,193.0703 L277.5,193.0703 A0,0 0 0 0 277.5,193.0703 " fill="#FEFFDD" style="stroke:#181818;stroke-width:0.5;"/><path d="M469.5,193.0703 L469.5,203.0703 L479.5,203.0703 L469.5,193.0703 " fill="#FEFFDD" style="stroke:#181818;stroke-width:0.5;"/><text fill="#000000" font-family="sans-serif" font-size="13" lengthAdjust="spacing" textLength="181" x="283.5" y="210.1372">void drawHline(UGraphic ug)</text><ellipse cx="247.5" cy="205.6367" fill="#222222" rx="10" ry="10" style="stroke:#222222;stroke-width:1.0;"/><rect fill="#F1F1F1" height="33.9688" rx="12.5" ry="12.5" style="stroke:#181818;stroke-width:0.5;" width="288" x="103.5" y="238.2031"/><text fill="#000000" font-family="sans-serif" font-size="12" lengthAdjust="spacing" textLength="268" x="113.5" y="259.3418">final double xpos=getXStartForLevel(level);</text><rect fill="#F1F1F1" height="47.9375" rx="12.5" ry="12.5" style="stroke:#181818;stroke-width:0.5;" width="473" x="11" y="292.1719"/><text fill="#000000" font-family="sans-serif" font-size="12" lengthAdjust="spacing" textLength="453" x="21" y="313.3105">ug.apply(new UTranslate(xpos+sizeX-1,ypos-1)).draw(new URectangle(2,</text><text fill="#000000" font-family="sans-serif" font-size="12" lengthAdjust="spacing" textLength="22" x="21" y="327.2793">2));</text><rect fill="#F1F1F1" height="33.9688" rx="12.5" ry="12.5" style="stroke:#181818;stroke-width:0.5;" width="408" x="43.5" y="360.1094"/><text fill="#000000" font-family="sans-serif" font-size="12" lengthAdjust="spacing" textLength="388" x="53.5" y="381.248">ug.apply(new UTranslate(xpos,ypos)).draw(ULine.hline(sizeX));</text><ellipse cx="247.5" cy="424.0781" fill="none" rx="10" ry="10" style="stroke:#222222;stroke-width:1.5;"/><line style="stroke:#222222;stroke-width:2.5;" x1="241.3128" x2="253.6872" y1="417.8909" y2="430.2653"/><line style="stroke:#222222;stroke-width:2.5;" x1="253.6872" x2="241.3128" y1="417.8909" y2="430.2653"/><path d="M277.5,444.0781 L277.5,452.6445 L257.5,456.6445 L277.5,460.6445 L277.5,469.2109 A0,0 0 0 0 277.5,469.2109 L559.5,469.2109 A0,0 0 0 0 559.5,469.2109 L559.5,454.0781 L549.5,444.0781 L277.5,444.0781 A0,0 0 0 0 277.5,444.0781 " fill="#FEFFDD" style="stroke:#181818;stroke-width:0.5;"/><path d="M549.5,444.0781 L549.5,454.0781 L559.5,454.0781 L549.5,444.0781 " fill="#FEFFDD" style="stroke:#181818;stroke-width:0.5;"/><text fill="#000000" font-family="sans-serif" font-size="13" lengthAdjust="spacing" textLength="261" x="283.5" y="461.145">void drawVline(UGraphic ug,double lastY)</text><ellipse cx="247.5" cy="456.6445" fill="#222222" rx="10" ry="10" style="stroke:#222222;stroke-width:1.0;"/><rect fill="#F1F1F1" height="33.9688" rx="12.5" ry="12.5" style="stroke:#181818;stroke-width:0.5;" width="288" x="103.5" y="489.2109"/><text fill="#000000" font-family="sans-serif" font-size="12" lengthAdjust="spacing" textLength="268" x="113.5" y="510.3496">final double xpos=getXStartForLevel(level);</text><rect fill="#F1F1F1" height="33.9688" rx="12.5" ry="12.5" style="stroke:#181818;stroke-width:0.5;" width="440" x="27.5" y="543.1797"/><text fill="#000000" font-family="sans-serif" font-size="12" lengthAdjust="spacing" textLength="420" x="37.5" y="564.3184">ug.apply(new UTranslate(xpos,lastY)).draw(ULine.vline(ypos-lastY));</text><ellipse cx="247.5" cy="607.1484" fill="none" rx="10" ry="10" style="stroke:#222222;stroke-width:1.5;"/><line style="stroke:#222222;stroke-width:2.5;" x1="241.3128" x2="253.6872" y1="600.9613" y2="613.3356"/><line style="stroke:#222222;stroke-width:2.5;" x1="253.6872" x2="241.3128" y1="600.9613" y2="613.3356"/><path d="M277.5,627.1484 L277.5,635.7148 L257.5,639.7148 L277.5,643.7148 L277.5,652.2813 A0,0 0 0 0 277.5,652.2813 L469.5,652.2813 A0,0 0 0 0 469.5,652.2813 L469.5,637.1484 L459.5,627.1484 L277.5,627.1484 A0,0 0 0 0 277.5,627.1484 " fill="#FEFFDD" style="stroke:#181818;stroke-width:0.5;"/><path d="M459.5,627.1484 L459.5,637.1484 L469.5,637.1484 L459.5,627.1484 " fill="#FEFFDD" style="stroke:#181818;stroke-width:0.5;"/><text fill="#000000" font-family="sans-serif" font-size="13" lengthAdjust="spacing" textLength="171" x="283.5" y="644.2153">void add(int level,double y)</text><ellipse cx="247.5" cy="639.7148" fill="#222222" rx="10" ry="10" style="stroke:#222222;stroke-width:1.0;"/><rect fill="#F1F1F1" height="33.9688" rx="12.5" ry="12.5" style="stroke:#181818;stroke-width:0.5;" width="215" x="140" y="672.2813"/><text fill="#000000" font-family="sans-serif" font-size="12" lengthAdjust="spacing" textLength="195" x="150" y="693.4199">entries.add(new Entry(level,y));</text><ellipse cx="247.5" cy="736.25" fill="none" rx="10" ry="10" style="stroke:#222222;stroke-width:1.5;"/><line style="stroke:#222222;stroke-width:2.5;" x1="241.3128" x2="253.6872" y1="730.0628" y2="742.4372"/><line style="stroke:#222222;stroke-width:2.5;" x1="253.6872" x2="241.3128" y1="730.0628" y2="742.4372"/><path d="M277.5,756.25 L277.5,764.8164 L257.5,768.8164 L277.5,772.8164 L277.5,781.3828 A0,0 0 0 0 277.5,781.3828 L447.5,781.3828 A0,0 0 0 0 447.5,781.3828 L447.5,766.25 L437.5,756.25 L277.5,756.25 A0,0 0 0 0 277.5,756.25 " fill="#FEFFDD" style="stroke:#181818;stroke-width:0.5;"/><path d="M437.5,756.25 L437.5,766.25 L447.5,766.25 L437.5,756.25 " fill="#FEFFDD" style="stroke:#181818;stroke-width:0.5;"/><text fill="#000000" font-family="sans-serif" font-size="13" lengthAdjust="spacing" textLength="149" x="283.5" y="773.3169">void draw(UGraphic ug)</text><ellipse cx="247.5" cy="768.8164" fill="#222222" rx="10" ry="10" style="stroke:#222222;stroke-width:1.0;"/><rect fill="#F1F1F1" height="33.9688" rx="12.5" ry="12.5" style="stroke:#181818;stroke-width:0.5;" width="198" x="148.5" y="801.3828"/><text fill="#000000" font-family="sans-serif" font-size="12" lengthAdjust="spacing" textLength="178" x="158.5" y="822.5215">final Entry en=entries.get(i);</text><rect fill="#F1F1F1" height="33.9688" rx="12.5" ry="12.5" style="stroke:#181818;stroke-width:0.5;" width="131" x="182" y="855.3516"/><text fill="#000000" font-family="sans-serif" font-size="12" lengthAdjust="spacing" textLength="111" x="192" y="876.4902">en.drawHline(ug);</text><rect fill="#F1F1F1" height="33.9688" rx="12.5" ry="12.5" style="stroke:#181818;stroke-width:0.5;" width="244" x="125.5" y="909.3203"/><text fill="#000000" font-family="sans-serif" font-size="12" lengthAdjust="spacing" textLength="224" x="135.5" y="930.459">final Entry up=getMotherOrSister(i);</text><rect fill="#F1F1F1" height="33.9688" rx="12.5" ry="12.5" style="stroke:#181818;stroke-width:0.5;" width="267" x="114" y="963.2891"/><text fill="#000000" font-family="sans-serif" font-size="12" lengthAdjust="spacing" textLength="247" x="124" y="984.4277">en.drawVline(ug,up==null ? 0:up.ypos);</text><ellipse cx="247.5" cy="1027.2578" fill="none" rx="10" ry="10" style="stroke:#222222;stroke-width:1.5;"/><line style="stroke:#222222;stroke-width:2.5;" x1="241.3128" x2="253.6872" y1="1021.0706" y2="1033.445"/><line style="stroke:#222222;stroke-width:2.5;" x1="253.6872" x2="241.3128" y1="1021.0706" y2="1033.445"/><path d="M277.5,1047.2578 L277.5,1055.8242 L257.5,1059.8242 L277.5,1063.8242 L277.5,1072.3906 A0,0 0 0 0 277.5,1072.3906 L501.5,1072.3906 A0,0 0 0 0 501.5,1072.3906 L501.5,1057.2578 L491.5,1047.2578 L277.5,1047.2578 A0,0 0 0 0 277.5,1047.2578 " fill="#FEFFDD" style="stroke:#181818;stroke-width:0.5;"/><path d="M491.5,1047.2578 L491.5,1057.2578 L501.5,1057.2578 L491.5,1047.2578 " fill="#FEFFDD" style="stroke:#181818;stroke-width:0.5;"/><text fill="#000000" font-family="sans-serif" font-size="13" lengthAdjust="spacing" textLength="203" x="283.5" y="1064.3247">Entry getMotherOrSister(int idx)</text><ellipse cx="247.5" cy="1059.8242" fill="#222222" rx="10" ry="10" style="stroke:#222222;stroke-width:1.0;"/><rect fill="#F1F1F1" height="33.9688" rx="12.5" ry="12.5" style="stroke:#181818;stroke-width:0.5;" width="289" x="103" y="1092.3906"/><text fill="#000000" font-family="sans-serif" font-size="12" lengthAdjust="spacing" textLength="269" x="113" y="1113.5293">final int currentLevel=entries.get(idx).level;</text><rect fill="#F1F1F1" height="33.9688" rx="12.5" ry="12.5" style="stroke:#181818;stroke-width:0.5;" width="263" x="116" y="1146.3594"/><text fill="#000000" font-family="sans-serif" font-size="12" lengthAdjust="spacing" textLength="243" x="126" y="1167.498">final int otherLevel=entries.get(i).level;</text><rect fill="#F1F1F1" height="33.9688" rx="12.5" ry="12.5" style="stroke:#181818;stroke-width:0.5;" width="149" x="173" y="1248.7305"/><text fill="#000000" font-family="sans-serif" font-size="12" lengthAdjust="spacing" textLength="129" x="183" y="1269.8691">return entries.get(i);</text><ellipse cx="247.5" cy="1322.2148" fill="none" rx="11" ry="11" style="stroke:#222222;stroke-width:1.0;"/><ellipse cx="247.5" cy="1322.2148" fill="#222222" rx="6" ry="6" style="stroke:#111111;stroke-width:1.0;"/><polygon fill="#F1F1F1" points="91,1200.3281,404,1200.3281,416,1212.3281,404,1224.3281,91,1224.3281,79,1212.3281,91,1200.3281" style="stroke:#181818;stroke-width:0.5;"/><text fill="#000000" font-family="sans-serif" font-size="11" lengthAdjust="spacing" textLength="20" x="251.5" y="1234.5386">yes</text><text fill="#000000" font-family="sans-serif" font-size="11" lengthAdjust="spacing" textLength="313" x="91" y="1216.1362">otherLevel==currentLevel||otherLevel==currentLevel-1</text><rect fill="#F1F1F1" height="33.9688" rx="12.5" ry="12.5" style="stroke:#181818;stroke-width:0.5;" width="93" x="201" y="1375.2148"/><text fill="#000000" font-family="sans-serif" font-size="12" lengthAdjust="spacing" textLength="73" x="211" y="1396.3535">return null ;</text><ellipse cx="247.5" cy="1440.1836" fill="none" rx="11" ry="11" style="stroke:#222222;stroke-width:1.0;"/><ellipse cx="247.5" cy="1440.1836" fill="#222222" rx="6" ry="6" style="stroke:#111111;stroke-width:1.0;"/><ellipse cx="247.5" cy="1471.1836" fill="none" rx="10" ry="10" style="stroke:#222222;stroke-width:1.5;"/><line style="stroke:#222222;stroke-width:2.5;" x1="241.3128" x2="253.6872" y1="1464.9964" y2="1477.3708"/><line style="stroke:#222222;stroke-width:2.5;" x1="253.6872" x2="241.3128" y1="1464.9964" y2="1477.3708"/><path d="M277.5,1491.1836 L277.5,1499.75 L257.5,1503.75 L277.5,1507.75 L277.5,1516.3164 A0,0 0 0 0 277.5,1516.3164 L518.5,1516.3164 A0,0 0 0 0 518.5,1516.3164 L518.5,1501.1836 L508.5,1491.1836 L277.5,1491.1836 A0,0 0 0 0 277.5,1491.1836 " fill="#FEFFDD" style="stroke:#181818;stroke-width:0.5;"/><path d="M508.5,1491.1836 L508.5,1501.1836 L518.5,1501.1836 L508.5,1491.1836 " fill="#FEFFDD" style="stroke:#181818;stroke-width:0.5;"/><text fill="#000000" font-family="sans-serif" font-size="13" lengthAdjust="spacing" textLength="220" x="283.5" y="1508.2505">double getXStartForLevel(int level)</text><ellipse cx="247.5" cy="1503.75" fill="#222222" rx="10" ry="10" style="stroke:#222222;stroke-width:1.0;"/><rect fill="#F1F1F1" height="33.9688" rx="12.5" ry="12.5" style="stroke:#181818;stroke-width:0.5;" width="131" x="182" y="1536.3164"/><text fill="#000000" font-family="sans-serif" font-size="12" lengthAdjust="spacing" textLength="111" x="192" y="1557.4551">return level*sizeX;</text><ellipse cx="247.5" cy="1601.2852" fill="none" rx="11" ry="11" style="stroke:#222222;stroke-width:1.0;"/><ellipse cx="247.5" cy="1601.2852" fill="#222222" rx="6" ry="6" style="stroke:#111111;stroke-width:1.0;"/><ellipse cx="247.5" cy="1632.2852" fill="none" rx="10" ry="10" style="stroke:#222222;stroke-width:1.5;"/><line style="stroke:#222222;stroke-width:2.5;" x1="241.3128" x2="253.6872" y1="1626.098" y2="1638.4723"/><line style="stroke:#222222;stroke-width:2.5;" x1="253.6872" x2="241.3128" y1="1626.098" y2="1638.4723"/><path d="M277.5,1652.2852 L277.5,1660.8516 L257.5,1664.8516 L277.5,1668.8516 L277.5,1677.418 A0,0 0 0 0 277.5,1677.418 L510.5,1677.418 A0,0 0 0 0 510.5,1677.418 L510.5,1662.2852 L500.5,1652.2852 L277.5,1652.2852 A0,0 0 0 0 277.5,1652.2852 " fill="#FEFFDD" style="stroke:#181818;stroke-width:0.5;"/><path d="M500.5,1652.2852 L500.5,1662.2852 L510.5,1662.2852 L500.5,1652.2852 " fill="#FEFFDD" style="stroke:#181818;stroke-width:0.5;"/><text fill="#000000" font-family="sans-serif" font-size="13" lengthAdjust="spacing" textLength="212" x="283.5" y="1669.3521">double getXEndForLevel(int level)</text><ellipse cx="247.5" cy="1664.8516" fill="#222222" rx="10" ry="10" style="stroke:#222222;stroke-width:1.0;"/><rect fill="#F1F1F1" height="33.9688" rx="12.5" ry="12.5" style="stroke:#181818;stroke-width:0.5;" width="255" x="120" y="1697.418"/><text fill="#000000" font-family="sans-serif" font-size="12" lengthAdjust="spacing" textLength="235" x="130" y="1718.5566">return getXStartForLevel(level)+sizeX;</text><ellipse cx="247.5" cy="1762.3867" fill="none" rx="11" ry="11" style="stroke:#222222;stroke-width:1.0;"/><ellipse cx="247.5" cy="1762.3867" fill="#222222" rx="6" ry="6" style="stroke:#111111;stroke-width:1.0;"/><ellipse cx="247.5" cy="1793.3867" fill="none" rx="10" ry="10" style="stroke:#222222;stroke-width:1.5;"/><line style="stroke:#222222;stroke-width:2.5;" x1="241.3128" x2="253.6872" y1="1787.1995" y2="1799.5739"/><line style="stroke:#222222;stroke-width:2.5;" x1="253.6872" x2="241.3128" y1="1787.1995" y2="1799.5739"/><line style="stroke:#181818;stroke-width:1.0;" x1="247.5" x2="247.5" y1="32.5664" y2="55.1328"/><polygon fill="#181818" points="243.5,45.1328,247.5,55.1328,251.5,45.1328,247.5,49.1328" style="stroke:#181818;stroke-width:1.0;"/><line style="stroke:#181818;stroke-width:1.0;" x1="247.5" x2="247.5" y1="89.1016" y2="109.1016"/><polygon fill="#181818" points="243.5,99.1016,247.5,109.1016,251.5,99.1016,247.5,103.1016" style="stroke:#181818;stroke-width:1.0;"/><line style="stroke:#181818;stroke-width:1.0;" x1="247.5" x2="247.5" y1="143.0703" y2="163.0703"/><polygon fill="#181818" points="243.5,153.0703,247.5,163.0703,251.5,153.0703,247.5,157.0703" style="stroke:#181818;stroke-width:1.0;"/><line style="stroke:#181818;stroke-width:1.0;" x1="247.5" x2="247.5" y1="215.6367" y2="238.2031"/><polygon fill="#181818" points="243.5,228.2031,247.5,238.2031,251.5,228.2031,247.5,232.2031" style="stroke:#181818;stroke-width:1.0;"/><line style="stroke:#181818;stroke-width:1.0;" x1="247.5" x2="247.5" y1="272.1719" y2="292.1719"/><polygon fill="#181818" points="243.5,282.1719,247.5,292.1719,251.5,282.1719,247.5,286.1719" style="stroke:#181818;stroke-width:1.0;"/><line style="stroke:#181818;stroke-width:1.0;" x1="247.5" x2="247.5" y1="340.1094" y2="360.1094"/><polygon fill="#181818" points="243.5,350.1094,247.5,360.1094,251.5,350.1094,247.5,354.1094" style="stroke:#181818;stroke-width:1.0;"/><line style="stroke:#181818;stroke-width:1.0;" x1="247.5" x2="247.5" y1="394.0781" y2="414.0781"/><polygon fill="#181818" points="243.5,404.0781,247.5,414.0781,251.5,404.0781,247.5,408.0781" style="stroke:#181818;stroke-width:1.0;"/><line style="stroke:#181818;stroke-width:1.0;" x1="247.5" x2="247.5" y1="466.6445" y2="489.2109"/><polygon fill="#181818" points="243.5,479.2109,247.5,489.2109,251.5,479.2109,247.5,483.2109" style="stroke:#181818;stroke-width:1.0;"/><line style="stroke:#181818;stroke-width:1.0;" x1="247.5" x2="247.5" y1="523.1797" y2="543.1797"/><polygon fill="#181818" points="243.5,533.1797,247.5,543.1797,251.5,533.1797,247.5,537.1797" style="stroke:#181818;stroke-width:1.0;"/><line style="stroke:#181818;stroke-width:1.0;" x1="247.5" x2="247.5" y1="577.1484" y2="597.1484"/><polygon fill="#181818" points="243.5,587.1484,247.5,597.1484,251.5,587.1484,247.5,591.1484" style="stroke:#181818;stroke-width:1.0;"/><line style="stroke:#181818;stroke-width:1.0;" x1="247.5" x2="247.5" y1="649.7148" y2="672.2813"/><polygon fill="#181818" points="243.5,662.2813,247.5,672.2813,251.5,662.2813,247.5,666.2813" style="stroke:#181818;stroke-width:1.0;"/><line style="stroke:#181818;stroke-width:1.0;" x1="247.5" x2="247.5" y1="706.25" y2="726.25"/><polygon fill="#181818" points="243.5,716.25,247.5,726.25,251.5,716.25,247.5,720.25" style="stroke:#181818;stroke-width:1.0;"/><line style="stroke:#181818;stroke-width:1.0;" x1="247.5" x2="247.5" y1="778.8164" y2="801.3828"/><polygon fill="#181818" points="243.5,791.3828,247.5,801.3828,251.5,791.3828,247.5,795.3828" style="stroke:#181818;stroke-width:1.0;"/><line style="stroke:#181818;stroke-width:1.0;" x1="247.5" x2="247.5" y1="835.3516" y2="855.3516"/><polygon fill="#181818" points="243.5,845.3516,247.5,855.3516,251.5,845.3516,247.5,849.3516" style="stroke:#181818;stroke-width:1.0;"/><line style="stroke:#181818;stroke-width:1.0;" x1="247.5" x2="247.5" y1="889.3203" y2="909.3203"/><polygon fill="#181818" points="243.5,899.3203,247.5,909.3203,251.5,899.3203,247.5,903.3203" style="stroke:#181818;stroke-width:1.0;"/><line style="stroke:#181818;stroke-width:1.0;" x1="247.5" x2="247.5" y1="943.2891" y2="963.2891"/><polygon fill="#181818" points="243.5,953.2891,247.5,963.2891,251.5,953.2891,247.5,957.2891" style="stroke:#181818;stroke-width:1.0;"/><line style="stroke:#181818;stroke-width:1.0;" x1="247.5" x2="247.5" y1="997.2578" y2="1017.2578"/><polygon fill="#181818" points="243.5,1007.2578,247.5,1017.2578,251.5,1007.2578,247.5,1011.2578" style="stroke:#181818;stroke-width:1.0;"/><line style="stroke:#181818;stroke-width:1.0;" x1="247.5" x2="247.5" y1="1069.8242" y2="1092.3906"/><polygon fill="#181818" points="243.5,1082.3906,247.5,1092.3906,251.5,1082.3906,247.5,1086.3906" style="stroke:#181818;stroke-width:1.0;"/><line style="stroke:#181818;stroke-width:1.0;" x1="247.5" x2="247.5" y1="1126.3594" y2="1146.3594"/><polygon fill="#181818" points="243.5,1136.3594,247.5,1146.3594,251.5,1136.3594,247.5,1140.3594" style="stroke:#181818;stroke-width:1.0;"/><line style="stroke:#181818;stroke-width:1.0;" x1="247.5" x2="247.5" y1="1282.6992" y2="1311.2148"/><polygon fill="#181818" points="243.5,1301.2148,247.5,1311.2148,251.5,1301.2148,247.5,1305.2148" style="stroke:#181818;stroke-width:1.0;"/><line style="stroke:#181818;stroke-width:1.0;" x1="247.5" x2="247.5" y1="1224.3281" y2="1248.7305"/><polygon fill="#181818" points="243.5,1238.7305,247.5,1248.7305,251.5,1238.7305,247.5,1242.7305" style="stroke:#181818;stroke-width:1.0;"/><line style="stroke:#181818;stroke-width:1.0;" x1="416" x2="428" y1="1212.3281" y2="1212.3281"/><polygon fill="#181818" points="424,1281.2148,428,1291.2148,432,1281.2148,428,1285.2148" style="stroke:#181818;stroke-width:1.0;"/><line style="stroke:#181818;stroke-width:1.0;" x1="428" x2="428" y1="1212.3281" y2="1355.2148"/><line style="stroke:#181818;stroke-width:1.0;" x1="428" x2="247.5" y1="1355.2148" y2="1355.2148"/><line style="stroke:#181818;stroke-width:1.0;" x1="247.5" x2="247.5" y1="1355.2148" y2="1375.2148"/><polygon fill="#181818" points="243.5,1365.2148,247.5,1375.2148,251.5,1365.2148,247.5,1369.2148" style="stroke:#181818;stroke-width:1.0;"/><line style="stroke:#181818;stroke-width:1.0;" x1="247.5" x2="247.5" y1="1180.3281" y2="1200.3281"/><polygon fill="#181818" points="243.5,1190.3281,247.5,1200.3281,251.5,1190.3281,247.5,1194.3281" style="stroke:#181818;stroke-width:1.0;"/><line style="stroke:#181818;stroke-width:1.0;" x1="247.5" x2="247.5" y1="1409.1836" y2="1429.1836"/><polygon fill="#181818" points="243.5,1419.1836,247.5,1429.1836,251.5,1419.1836,247.5,1423.1836" style="stroke:#181818;stroke-width:1.0;"/><line style="stroke:#181818;stroke-width:1.0;" x1="247.5" x2="247.5" y1="1513.75" y2="1536.3164"/><polygon fill="#181818" points="243.5,1526.3164,247.5,1536.3164,251.5,1526.3164,247.5,1530.3164" style="stroke:#181818;stroke-width:1.0;"/><line style="stroke:#181818;stroke-width:1.0;" x1="247.5" x2="247.5" y1="1570.2852" y2="1590.2852"/><polygon fill="#181818" points="243.5,1580.2852,247.5,1590.2852,251.5,1580.2852,247.5,1584.2852" style="stroke:#181818;stroke-width:1.0;"/><line style="stroke:#181818;stroke-width:1.0;" x1="247.5" x2="247.5" y1="1674.8516" y2="1697.418"/><polygon fill="#181818" points="243.5,1687.418,247.5,1697.418,251.5,1687.418,247.5,1691.418" style="stroke:#181818;stroke-width:1.0;"/><line style="stroke:#181818;stroke-width:1.0;" x1="247.5" x2="247.5" y1="1731.3867" y2="1751.3867"/><polygon fill="#181818" points="243.5,1741.3867,247.5,1751.3867,251.5,1741.3867,247.5,1745.3867" style="stroke:#181818;stroke-width:1.0;"/><!--MD5=[8692573531902235b4c42adf00407ceb]
@startuml
!pragma layout smetana
start
note right
constructor Entry(int level,double y)
end note
:this.level=level;;
:this.ypos=y;;
end
start
note right
void drawHline(UGraphic ug)
end note
:final double xpos=getXStartForLevel(level);;
:ug.apply(new UTranslate(xpos+sizeX-1,ypos-1)).draw(new URectangle(2,
2));;
:ug.apply(new UTranslate(xpos,ypos)).draw(ULine.hline(sizeX));;
end
start
note right
void drawVline(UGraphic ug,double lastY)
end note
:final double xpos=getXStartForLevel(level);;
:ug.apply(new UTranslate(xpos,lastY)).draw(ULine.vline(ypos-lastY));;
end
start
note right
void add(int level,double y)
end note
:entries.add(new Entry(level,y));;
end
start
note right
void draw(UGraphic ug)
end note
:final Entry en=entries.get(i);;
:en.drawHline(ug);;
:final Entry up=getMotherOrSister(i);;
:en.drawVline(ug,up==null ? 0:up.ypos);;
end
start
note right
Entry getMotherOrSister(int idx)
end note
:final int currentLevel=entries.get(idx).level;;
:final int otherLevel=entries.get(i).level;;
if (otherLevel==currentLevel||otherLevel==currentLevel-1) then (yes) 
:return entries.get(i);;
stop
endif 
:return null ;;
stop
end
start
note right
double getXStartForLevel(int level)
end note
:return level*sizeX;;
stop
end
start
note right
double getXEndForLevel(int level)
end note
:return getXStartForLevel(level)+sizeX;;
stop
end
@enduml

PlantUML version 1.2022.7(Mon Aug 22 17:01:30 UTC 2022)
(GPL source distribution)
Java Runtime: OpenJDK Runtime Environment
JVM: OpenJDK 64-Bit Server VM
Default Encoding: UTF-8
Language: en
Country: null
--></g></svg>