<?xml version="1.0" encoding="UTF-8" standalone="no"?><svg xmlns="http://www.w3.org/2000/svg" xmlns:xlink="http://www.w3.org/1999/xlink" contentStyleType="text/css" height="169px" preserveAspectRatio="none" style="width:332px;height:169px;background:#FFFFFF;" version="1.1" viewBox="0 0 332 169" width="332px" zoomAndPan="magnify"><defs/><g><!--MD5=[cb2163e785cfff9b832473241ff53ca2]
cluster net.sourceforge.plantuml.salt.element--><g id="cluster_net.sourceforge.plantuml.salt.element"><path d="M8.5,63 L312.5,63 A3.75,3.75 0 0 1 315,65.5 L322,85.2969 L322.5,85.2969 A2.5,2.5 0 0 1 325,87.7969 L325,159.5 A2.5,2.5 0 0 1 322.5,162 L8.5,162 A2.5,2.5 0 0 1 6,159.5 L6,65.5 A2.5,2.5 0 0 1 8.5,63 " fill="none" style="stroke:#000000;stroke-width:1.5;"/><line style="stroke:#000000;stroke-width:1.5;" x1="6" x2="322" y1="85.2969" y2="85.2969"/><text fill="#000000" font-family="sans-serif" font-size="14" font-weight="bold" lengthAdjust="spacing" textLength="303" x="10" y="77.9951">net.sourceforge.plantuml.salt.element</text></g><!--MD5=[933dd0643dcd7e15f7fc9086761c7080]
class Comparator<Cell>--><g id="elem_Comparator&lt;Cell&gt;"><rect fill="#F1F1F1" height="48" id="Comparator&lt;Cell&gt;" rx="2.5" ry="2.5" style="stroke:#181818;stroke-width:0.5;" width="162" x="84" y="6"/><ellipse cx="99" cy="22" fill="#ADD1B2" rx="11" ry="11" style="stroke:#181818;stroke-width:1.0;"/><path d="M101.9688,27.6406 Q101.3906,27.9375 100.75,28.0781 Q100.1094,28.2344 99.4063,28.2344 Q96.9063,28.2344 95.5781,26.5938 Q94.2656,24.9375 94.2656,21.8125 Q94.2656,18.6875 95.5781,17.0313 Q96.9063,15.375 99.4063,15.375 Q100.1094,15.375 100.75,15.5313 Q101.4063,15.6875 101.9688,15.9844 L101.9688,18.7031 Q101.3438,18.125 100.75,17.8594 Q100.1563,17.5781 99.5313,17.5781 Q98.1875,17.5781 97.5,18.6563 Q96.8125,19.7188 96.8125,21.8125 Q96.8125,23.9063 97.5,24.9844 Q98.1875,26.0469 99.5313,26.0469 Q100.1563,26.0469 100.75,25.7813 Q101.3438,25.5 101.9688,24.9219 L101.9688,27.6406 Z " fill="#000000"/><text fill="#000000" font-family="sans-serif" font-size="14" lengthAdjust="spacing" textLength="130" x="113" y="26.8467">Comparator&lt;Cell&gt;</text><line style="stroke:#181818;stroke-width:0.5;" x1="85" x2="245" y1="38" y2="38"/><line style="stroke:#181818;stroke-width:0.5;" x1="85" x2="245" y1="46" y2="46"/></g><!--MD5=[a33d33a591dc53b9ece3ae05beb60944]
class net.sourceforge.plantuml.salt.element.TopFirst--><g id="elem_net.sourceforge.plantuml.salt.element.TopFirst"><rect codeLine="3" fill="#F1F1F1" height="64.2969" id="net.sourceforge.plantuml.salt.element.TopFirst" rx="2.5" ry="2.5" style="stroke:#181818;stroke-width:0.5;" width="182" x="74" y="90"/><ellipse cx="132.75" cy="106" fill="#ADD1B2" rx="11" ry="11" style="stroke:#181818;stroke-width:1.0;"/><path d="M135.7188,111.6406 Q135.1406,111.9375 134.5,112.0781 Q133.8594,112.2344 133.1563,112.2344 Q130.6563,112.2344 129.3281,110.5938 Q128.0156,108.9375 128.0156,105.8125 Q128.0156,102.6875 129.3281,101.0313 Q130.6563,99.375 133.1563,99.375 Q133.8594,99.375 134.5,99.5313 Q135.1563,99.6875 135.7188,99.9844 L135.7188,102.7031 Q135.0938,102.125 134.5,101.8594 Q133.9063,101.5781 133.2813,101.5781 Q131.9375,101.5781 131.25,102.6563 Q130.5625,103.7188 130.5625,105.8125 Q130.5625,107.9063 131.25,108.9844 Q131.9375,110.0469 133.2813,110.0469 Q133.9063,110.0469 134.5,109.7813 Q135.0938,109.5 135.7188,108.9219 L135.7188,111.6406 Z " fill="#000000"/><text fill="#000000" font-family="sans-serif" font-size="14" lengthAdjust="spacing" textLength="56" x="153.25" y="110.8467">TopFirst</text><line style="stroke:#181818;stroke-width:0.5;" x1="75" x2="255" y1="122" y2="122"/><line style="stroke:#181818;stroke-width:0.5;" x1="75" x2="255" y1="130" y2="130"/><a href="./../../../../../../.././qc/src/net/sourceforge/plantuml/salt/element/TopFirst.java.html#44" target="_top" title="./../../../../../../.././qc/src/net/sourceforge/plantuml/salt/element/TopFirst.java.html#44" xlink:actuate="onRequest" xlink:href="./../../../../../../.././qc/src/net/sourceforge/plantuml/salt/element/TopFirst.java.html#44" xlink:show="new" xlink:title="./../../../../../../.././qc/src/net/sourceforge/plantuml/salt/element/TopFirst.java.html#44" xlink:type="simple"><rect fill="#F1F1F1" height="10" style="stroke:none;stroke-width:1.0;" width="20" x="80" y="138.6484"/><ellipse cx="85" cy="143.6484" fill="#84BE84" rx="3" ry="3" style="stroke:#038048;stroke-width:1.0;"/></a><a href="./../../../../../../.././qc/src/net/sourceforge/plantuml/salt/element/TopFirst.java.html#44" target="_top" title="./../../../../../../.././qc/src/net/sourceforge/plantuml/salt/element/TopFirst.java.html#44" xlink:actuate="onRequest" xlink:href="./../../../../../../.././qc/src/net/sourceforge/plantuml/salt/element/TopFirst.java.html#44" xlink:show="new" xlink:title="./../../../../../../.././qc/src/net/sourceforge/plantuml/salt/element/TopFirst.java.html#44" xlink:type="simple"><text fill="#000000" font-family="sans-serif" font-size="14" lengthAdjust="spacing" textLength="156" x="94" y="146.9951">compare(Cell;Cell) : int</text></a></g><path d="M165,54.1772 C165,65.0104 165,78.07 165,89.7592 " fill="none" style="stroke:#181818;stroke-width:1.0;"/><polygon fill="#FFFFFF" points="165,54.1772,159,70.1772,171,70.1772,165,54.1772" style="stroke:#181818;stroke-width:1.0;"/><!--MD5=[c65330f571a1e8b1d711126498d1659f]
@startuml
!pragma layout smetana
"Comparator<Cell>" <|- - "net.sourceforge.plantuml.salt.element.TopFirst"
class net.sourceforge.plantuml.salt.element.TopFirst {
+compare(Cell;Cell) : int [[[./../../../../../../.././qc/src/net/sourceforge/plantuml/salt/element/TopFirst.java.html#44]]]
} 
@enduml

PlantUML version 1.2022.7(Mon Aug 22 17:01:30 UTC 2022)
(GPL source distribution)
Java Runtime: OpenJDK Runtime Environment
JVM: OpenJDK 64-Bit Server VM
Default Encoding: UTF-8
Language: en
Country: null
--></g></svg>