<?xml version="1.0" encoding="UTF-8" standalone="no"?><svg xmlns="http://www.w3.org/2000/svg" xmlns:xlink="http://www.w3.org/1999/xlink" contentStyleType="text/css" height="202px" preserveAspectRatio="none" style="width:389px;height:202px;background:#FFFFFF;" version="1.1" viewBox="0 0 389 202" width="389px" zoomAndPan="magnify"><defs/><g><!--MD5=[ca49be51c927d64f8600c1acf23d9b85]
cluster net.sourceforge.plantuml.telnet--><g id="cluster_net.sourceforge.plantuml.telnet"><path d="M8.5,63 L261.5,63 A3.75,3.75 0 0 1 264,65.5 L271,85.2969 L379.5,85.2969 A2.5,2.5 0 0 1 382,87.7969 L382,192.5 A2.5,2.5 0 0 1 379.5,195 L8.5,195 A2.5,2.5 0 0 1 6,192.5 L6,65.5 A2.5,2.5 0 0 1 8.5,63 " fill="none" style="stroke:#000000;stroke-width:1.5;"/><line style="stroke:#000000;stroke-width:1.5;" x1="6" x2="271" y1="85.2969" y2="85.2969"/><text fill="#000000" font-family="sans-serif" font-size="14" font-weight="bold" lengthAdjust="spacing" textLength="252" x="10" y="77.9951">net.sourceforge.plantuml.telnet</text></g><!--MD5=[948346f2dfe9866ea883595a582714fa]
class Thread--><g id="elem_Thread"><rect fill="#F1F1F1" height="48" id="Thread" rx="2.5" ry="2.5" style="stroke:#181818;stroke-width:0.5;" width="81" x="153.5" y="6"/><ellipse cx="168.5" cy="22" fill="#ADD1B2" rx="11" ry="11" style="stroke:#181818;stroke-width:1.0;"/><path d="M171.4688,27.6406 Q170.8906,27.9375 170.25,28.0781 Q169.6094,28.2344 168.9063,28.2344 Q166.4063,28.2344 165.0781,26.5938 Q163.7656,24.9375 163.7656,21.8125 Q163.7656,18.6875 165.0781,17.0313 Q166.4063,15.375 168.9063,15.375 Q169.6094,15.375 170.25,15.5313 Q170.9063,15.6875 171.4688,15.9844 L171.4688,18.7031 Q170.8438,18.125 170.25,17.8594 Q169.6563,17.5781 169.0313,17.5781 Q167.6875,17.5781 167,18.6563 Q166.3125,19.7188 166.3125,21.8125 Q166.3125,23.9063 167,24.9844 Q167.6875,26.0469 169.0313,26.0469 Q169.6563,26.0469 170.25,25.7813 Q170.8438,25.5 171.4688,24.9219 L171.4688,27.6406 Z " fill="#000000"/><text fill="#000000" font-family="sans-serif" font-size="14" lengthAdjust="spacing" textLength="49" x="182.5" y="26.8467">Thread</text><line style="stroke:#181818;stroke-width:0.5;" x1="154.5" x2="233.5" y1="38" y2="38"/><line style="stroke:#181818;stroke-width:0.5;" x1="154.5" x2="233.5" y1="46" y2="46"/></g><!--MD5=[04e05a9af96edb0d0a77a9f287dcff18]
class net.sourceforge.plantuml.telnet.AcceptTelnetClient--><g id="elem_net.sourceforge.plantuml.telnet.AcceptTelnetClient"><rect codeLine="3" fill="#F1F1F1" height="96.8906" id="net.sourceforge.plantuml.telnet.AcceptTelnetClient" rx="2.5" ry="2.5" style="stroke:#181818;stroke-width:0.5;" width="359" x="14.5" y="90"/><ellipse cx="124.25" cy="106" fill="#ADD1B2" rx="11" ry="11" style="stroke:#181818;stroke-width:1.0;"/><path d="M127.2188,111.6406 Q126.6406,111.9375 126,112.0781 Q125.3594,112.2344 124.6563,112.2344 Q122.1563,112.2344 120.8281,110.5938 Q119.5156,108.9375 119.5156,105.8125 Q119.5156,102.6875 120.8281,101.0313 Q122.1563,99.375 124.6563,99.375 Q125.3594,99.375 126,99.5313 Q126.6563,99.6875 127.2188,99.9844 L127.2188,102.7031 Q126.5938,102.125 126,101.8594 Q125.4063,101.5781 124.7813,101.5781 Q123.4375,101.5781 122.75,102.6563 Q122.0625,103.7188 122.0625,105.8125 Q122.0625,107.9063 122.75,108.9844 Q123.4375,110.0469 124.7813,110.0469 Q125.4063,110.0469 126,109.7813 Q126.5938,109.5 127.2188,108.9219 L127.2188,111.6406 Z " fill="#000000"/><text fill="#000000" font-family="sans-serif" font-size="14" lengthAdjust="spacing" textLength="131" x="144.75" y="110.8467">AcceptTelnetClient</text><line style="stroke:#181818;stroke-width:0.5;" x1="15.5" x2="372.5" y1="122" y2="122"/><line style="stroke:#181818;stroke-width:0.5;" x1="15.5" x2="372.5" y1="130" y2="130"/><a href="./../../../../../.././qc/src/net/sourceforge/plantuml/telnet/AcceptTelnetClient.java.html#55" target="_top" title="./../../../../../.././qc/src/net/sourceforge/plantuml/telnet/AcceptTelnetClient.java.html#55" xlink:actuate="onRequest" xlink:href="./../../../../../.././qc/src/net/sourceforge/plantuml/telnet/AcceptTelnetClient.java.html#55" xlink:show="new" xlink:title="./../../../../../.././qc/src/net/sourceforge/plantuml/telnet/AcceptTelnetClient.java.html#55" xlink:type="simple"><text fill="#000000" font-family="sans-serif" font-size="14" lengthAdjust="spacing" textLength="333" x="34.5" y="146.9951">AcceptTelnetClient(Socket) : AcceptTelnetClient</text></a><a href="./../../../../../.././qc/src/net/sourceforge/plantuml/telnet/AcceptTelnetClient.java.html#64" target="_top" title="./../../../../../.././qc/src/net/sourceforge/plantuml/telnet/AcceptTelnetClient.java.html#64" xlink:actuate="onRequest" xlink:href="./../../../../../.././qc/src/net/sourceforge/plantuml/telnet/AcceptTelnetClient.java.html#64" xlink:show="new" xlink:title="./../../../../../.././qc/src/net/sourceforge/plantuml/telnet/AcceptTelnetClient.java.html#64" xlink:type="simple"><rect fill="#F1F1F1" height="10" style="stroke:none;stroke-width:1.0;" width="20" x="20.5" y="154.9453"/><ellipse cx="25.5" cy="159.9453" fill="#84BE84" rx="3" ry="3" style="stroke:#038048;stroke-width:1.0;"/></a><a href="./../../../../../.././qc/src/net/sourceforge/plantuml/telnet/AcceptTelnetClient.java.html#64" target="_top" title="./../../../../../.././qc/src/net/sourceforge/plantuml/telnet/AcceptTelnetClient.java.html#64" xlink:actuate="onRequest" xlink:href="./../../../../../.././qc/src/net/sourceforge/plantuml/telnet/AcceptTelnetClient.java.html#64" xlink:show="new" xlink:title="./../../../../../.././qc/src/net/sourceforge/plantuml/telnet/AcceptTelnetClient.java.html#64" xlink:type="simple"><text fill="#000000" font-family="sans-serif" font-size="14" lengthAdjust="spacing" textLength="137" x="34.5" y="163.292">runInternal() : String</text></a><a href="./../../../../../.././qc/src/net/sourceforge/plantuml/telnet/AcceptTelnetClient.java.html#80" target="_top" title="./../../../../../.././qc/src/net/sourceforge/plantuml/telnet/AcceptTelnetClient.java.html#80" xlink:actuate="onRequest" xlink:href="./../../../../../.././qc/src/net/sourceforge/plantuml/telnet/AcceptTelnetClient.java.html#80" xlink:show="new" xlink:title="./../../../../../.././qc/src/net/sourceforge/plantuml/telnet/AcceptTelnetClient.java.html#80" xlink:type="simple"><rect fill="#F1F1F1" height="10" style="stroke:none;stroke-width:1.0;" width="20" x="20.5" y="171.2422"/><ellipse cx="25.5" cy="176.2422" fill="#84BE84" rx="3" ry="3" style="stroke:#038048;stroke-width:1.0;"/></a><a href="./../../../../../.././qc/src/net/sourceforge/plantuml/telnet/AcceptTelnetClient.java.html#80" target="_top" title="./../../../../../.././qc/src/net/sourceforge/plantuml/telnet/AcceptTelnetClient.java.html#80" xlink:actuate="onRequest" xlink:href="./../../../../../.././qc/src/net/sourceforge/plantuml/telnet/AcceptTelnetClient.java.html#80" xlink:show="new" xlink:title="./../../../../../.././qc/src/net/sourceforge/plantuml/telnet/AcceptTelnetClient.java.html#80" xlink:type="simple"><text fill="#000000" font-family="sans-serif" font-size="14" lengthAdjust="spacing" textLength="74" x="34.5" y="179.5889">run() : void</text></a></g><path d="M194,54.1089 C194,64.6313 194,77.495 194,89.9394 " fill="none" style="stroke:#181818;stroke-width:1.0;"/><polygon fill="#FFFFFF" points="194,54.1089,188,70.1089,200,70.1089,194,54.1089" style="stroke:#181818;stroke-width:1.0;"/><!--MD5=[dbfc6c91f0c0e61e27dccd73a2e2a215]
@startuml
!pragma layout smetana
"Thread" <|- - "net.sourceforge.plantuml.telnet.AcceptTelnetClient"
class net.sourceforge.plantuml.telnet.AcceptTelnetClient {
AcceptTelnetClient(Socket) : AcceptTelnetClient [[[./../../../../../.././qc/src/net/sourceforge/plantuml/telnet/AcceptTelnetClient.java.html#55]]]
+runInternal() : String [[[./../../../../../.././qc/src/net/sourceforge/plantuml/telnet/AcceptTelnetClient.java.html#64]]]
+run() : void [[[./../../../../../.././qc/src/net/sourceforge/plantuml/telnet/AcceptTelnetClient.java.html#80]]]
} 
@enduml

PlantUML version 1.2022.7(Mon Aug 22 17:01:30 UTC 2022)
(GPL source distribution)
Java Runtime: OpenJDK Runtime Environment
JVM: OpenJDK 64-Bit Server VM
Default Encoding: UTF-8
Language: en
Country: null
--></g></svg>