<?xml version="1.0" encoding="UTF-8" standalone="no"?><svg xmlns="http://www.w3.org/2000/svg" xmlns:xlink="http://www.w3.org/1999/xlink" contentStyleType="text/css" height="2782px" preserveAspectRatio="none" style="width:791px;height:2782px;background:#FFFFFF;" version="1.1" viewBox="0 0 791 2782" width="791px" zoomAndPan="magnify"><defs/><g><path d="M354,10 L354,18.5664 L334,22.5664 L354,26.5664 L354,35.1328 A0,0 0 0 0 354,35.1328 L478,35.1328 A0,0 0 0 0 478,35.1328 L478,20 L468,10 L354,10 A0,0 0 0 0 354,10 " fill="#FEFFDD" style="stroke:#181818;stroke-width:0.5;"/><path d="M468,10 L468,20 L478,20 L468,10 " fill="#FEFFDD" style="stroke:#181818;stroke-width:0.5;"/><text fill="#000000" font-family="sans-serif" font-size="13" lengthAdjust="spacing" textLength="103" x="360" y="27.0669">EventgetEvent()</text><ellipse cx="324" cy="22.5664" fill="#222222" rx="10" ry="10" style="stroke:#222222;stroke-width:1.0;"/><rect fill="#F1F1F1" height="33.9688" rx="12.5" ry="12.5" style="stroke:#181818;stroke-width:0.5;" width="124" x="262" y="55.1328"/><text fill="#000000" font-family="sans-serif" font-size="12" lengthAdjust="spacing" textLength="104" x="272" y="76.2715">return message;</text><ellipse cx="324" cy="120.1016" fill="none" rx="11" ry="11" style="stroke:#222222;stroke-width:1.0;"/><ellipse cx="324" cy="120.1016" fill="#222222" rx="6" ry="6" style="stroke:#111111;stroke-width:1.0;"/><ellipse cx="324" cy="151.1016" fill="none" rx="10" ry="10" style="stroke:#222222;stroke-width:1.5;"/><line style="stroke:#222222;stroke-width:2.5;" x1="317.8128" x2="330.1872" y1="144.9144" y2="157.2887"/><line style="stroke:#222222;stroke-width:2.5;" x1="330.1872" x2="317.8128" y1="144.9144" y2="157.2887"/><path d="M354,171.1016 L354,179.668 L334,183.668 L354,187.668 L354,196.2344 A0,0 0 0 0 354,196.2344 L581,196.2344 A0,0 0 0 0 581,196.2344 L581,181.1016 L571,171.1016 L354,171.1016 A0,0 0 0 0 354,171.1016 " fill="#FEFFDD" style="stroke:#181818;stroke-width:0.5;"/><path d="M571,171.1016 L571,181.1016 L581,181.1016 L571,171.1016 " fill="#FEFFDD" style="stroke:#181818;stroke-width:0.5;"/><text fill="#000000" font-family="sans-serif" font-size="13" lengthAdjust="spacing" textLength="206" x="360" y="188.1685">doublegetContactPointRelative()</text><ellipse cx="324" cy="183.668" fill="#222222" rx="10" ry="10" style="stroke:#222222;stroke-width:1.0;"/><rect fill="#F1F1F1" height="33.9688" rx="12.5" ry="12.5" style="stroke:#181818;stroke-width:0.5;" width="251" x="198.5" y="216.2344"/><text fill="#000000" font-family="sans-serif" font-size="12" lengthAdjust="spacing" textLength="231" x="208.5" y="237.373">return tile.getContactPointRelative();</text><ellipse cx="324" cy="281.2031" fill="none" rx="11" ry="11" style="stroke:#222222;stroke-width:1.0;"/><ellipse cx="324" cy="281.2031" fill="#222222" rx="6" ry="6" style="stroke:#111111;stroke-width:1.0;"/><ellipse cx="324" cy="312.2031" fill="none" rx="10" ry="10" style="stroke:#222222;stroke-width:1.5;"/><line style="stroke:#222222;stroke-width:2.5;" x1="317.8128" x2="330.1872" y1="306.0159" y2="318.3903"/><line style="stroke:#222222;stroke-width:2.5;" x1="330.1872" x2="317.8128" y1="306.0159" y2="318.3903"/><path d="M354,332.2031 L354,355.9023 L334,359.9023 L354,363.9023 L354,387.6016 A0,0 0 0 0 354,387.6016 L779,387.6016 A0,0 0 0 0 779,387.6016 L779,342.2031 L769,332.2031 L354,332.2031 A0,0 0 0 0 354,332.2031 " fill="#FEFFDD" style="stroke:#181818;stroke-width:0.5;"/><path d="M769,332.2031 L769,342.2031 L779,342.2031 L769,332.2031 " fill="#FEFFDD" style="stroke:#181818;stroke-width:0.5;"/><text fill="#000000" font-family="sans-serif" font-size="13" lengthAdjust="spacing" textLength="404" x="360" y="349.27">constructor CommunicationTileNoteBottomTopAbstract(Tiletile,</text><text fill="#000000" font-family="sans-serif" font-size="13" lengthAdjust="spacing" textLength="377" x="360" y="364.4028">AbstractMessagemessage,Roseskin,ISkinParamskinParam,</text><text fill="#000000" font-family="sans-serif" font-size="13" lengthAdjust="spacing" textLength="246" x="360" y="379.5356">NotenoteOnMessage,YGaugecurrentY)</text><ellipse cx="324" cy="359.9023" fill="#222222" rx="10" ry="10" style="stroke:#222222;stroke-width:1.0;"/><rect fill="#F1F1F1" height="47.9375" rx="12.5" ry="12.5" style="stroke:#181818;stroke-width:0.5;" width="307" x="170.5" y="407.6016"/><text fill="#000000" font-family="sans-serif" font-size="12" lengthAdjust="spacing" textLength="287" x="180.5" y="428.7402">super (((AbstractTile)tile).getStringBounder(),</text><text fill="#000000" font-family="sans-serif" font-size="12" lengthAdjust="spacing" textLength="62" x="180.5" y="442.709">currentY);</text><rect fill="#F1F1F1" height="33.9688" rx="12.5" ry="12.5" style="stroke:#181818;stroke-width:0.5;" width="99" x="274.5" y="475.5391"/><text fill="#000000" font-family="sans-serif" font-size="12" lengthAdjust="spacing" textLength="79" x="284.5" y="496.6777">this.tile=tile;</text><rect fill="#F1F1F1" height="33.9688" rx="12.5" ry="12.5" style="stroke:#181818;stroke-width:0.5;" width="175" x="236.5" y="529.5078"/><text fill="#000000" font-family="sans-serif" font-size="12" lengthAdjust="spacing" textLength="155" x="246.5" y="550.6465">this.message=message;</text><rect fill="#F1F1F1" height="33.9688" rx="12.5" ry="12.5" style="stroke:#181818;stroke-width:0.5;" width="111" x="268.5" y="583.4766"/><text fill="#000000" font-family="sans-serif" font-size="12" lengthAdjust="spacing" textLength="91" x="278.5" y="604.6152">this.skin=skin;</text><rect fill="#F1F1F1" height="33.9688" rx="12.5" ry="12.5" style="stroke:#181818;stroke-width:0.5;" width="191" x="228.5" y="637.4453"/><text fill="#000000" font-family="sans-serif" font-size="12" lengthAdjust="spacing" textLength="171" x="238.5" y="658.584">this.skinParam=skinParam;</text><rect fill="#F1F1F1" height="33.9688" rx="12.5" ry="12.5" style="stroke:#181818;stroke-width:0.5;" width="265" x="191.5" y="691.4141"/><text fill="#000000" font-family="sans-serif" font-size="12" lengthAdjust="spacing" textLength="245" x="201.5" y="712.5527">this.noteOnMessage=noteOnMessage;</text><rect fill="#F1F1F1" height="47.9375" rx="12.5" ry="12.5" style="stroke:#181818;stroke-width:0.5;" width="318" x="165" y="745.3828"/><text fill="#000000" font-family="sans-serif" font-size="12" lengthAdjust="spacing" textLength="298" x="175" y="766.5215">this.yGauge=YGauge.create(currentY.getMax(),</text><text fill="#000000" font-family="sans-serif" font-size="12" lengthAdjust="spacing" textLength="140" x="175" y="780.4902">getPreferredHeight());</text><ellipse cx="324" cy="823.3203" fill="none" rx="10" ry="10" style="stroke:#222222;stroke-width:1.5;"/><line style="stroke:#222222;stroke-width:2.5;" x1="317.8128" x2="330.1872" y1="817.1331" y2="829.5075"/><line style="stroke:#222222;stroke-width:2.5;" x1="330.1872" x2="317.8128" y1="817.1331" y2="829.5075"/><path d="M354,843.3203 L354,851.8867 L334,855.8867 L354,859.8867 L354,868.4531 A0,0 0 0 0 354,868.4531 L504,868.4531 A0,0 0 0 0 504,868.4531 L504,853.3203 L494,843.3203 L354,843.3203 A0,0 0 0 0 354,843.3203 " fill="#FEFFDD" style="stroke:#181818;stroke-width:0.5;"/><path d="M494,843.3203 L494,853.3203 L504,853.3203 L494,843.3203 " fill="#FEFFDD" style="stroke:#181818;stroke-width:0.5;"/><text fill="#000000" font-family="sans-serif" font-size="13" lengthAdjust="spacing" textLength="129" x="360" y="860.3872">YGaugegetYGauge()</text><ellipse cx="324" cy="855.8867" fill="#222222" rx="10" ry="10" style="stroke:#222222;stroke-width:1.0;"/><rect fill="#F1F1F1" height="33.9688" rx="12.5" ry="12.5" style="stroke:#181818;stroke-width:0.5;" width="114" x="267" y="888.4531"/><text fill="#000000" font-family="sans-serif" font-size="12" lengthAdjust="spacing" textLength="94" x="277" y="909.5918">return yGauge;</text><ellipse cx="324" cy="953.4219" fill="none" rx="11" ry="11" style="stroke:#222222;stroke-width:1.0;"/><ellipse cx="324" cy="953.4219" fill="#222222" rx="6" ry="6" style="stroke:#111111;stroke-width:1.0;"/><ellipse cx="324" cy="984.4219" fill="none" rx="10" ry="10" style="stroke:#222222;stroke-width:1.5;"/><line style="stroke:#222222;stroke-width:2.5;" x1="317.8128" x2="330.1872" y1="978.2347" y2="990.6091"/><line style="stroke:#222222;stroke-width:2.5;" x1="330.1872" x2="317.8128" y1="978.2347" y2="990.6091"/><path d="M354,1004.4219 L354,1012.9883 L334,1016.9883 L354,1020.9883 L354,1029.5547 A0,0 0 0 0 354,1029.5547 L599,1029.5547 A0,0 0 0 0 599,1029.5547 L599,1014.4219 L589,1004.4219 L354,1004.4219 A0,0 0 0 0 354,1004.4219 " fill="#FEFFDD" style="stroke:#181818;stroke-width:0.5;"/><path d="M589,1004.4219 L589,1014.4219 L599,1014.4219 L589,1004.4219 " fill="#FEFFDD" style="stroke:#181818;stroke-width:0.5;"/><text fill="#000000" font-family="sans-serif" font-size="13" lengthAdjust="spacing" textLength="224" x="360" y="1021.4888">void callbackY_internal(TimeHooky)</text><ellipse cx="324" cy="1016.9883" fill="#222222" rx="10" ry="10" style="stroke:#222222;stroke-width:1.0;"/><rect fill="#F1F1F1" height="33.9688" rx="12.5" ry="12.5" style="stroke:#181818;stroke-width:0.5;" width="196" x="226" y="1049.5547"/><text fill="#000000" font-family="sans-serif" font-size="12" lengthAdjust="spacing" textLength="176" x="236" y="1070.6934">super .callbackY_internal(y);</text><rect fill="#F1F1F1" height="33.9688" rx="12.5" ry="12.5" style="stroke:#181818;stroke-width:0.5;" width="121" x="263.5" y="1103.5234"/><text fill="#000000" font-family="sans-serif" font-size="12" lengthAdjust="spacing" textLength="101" x="273.5" y="1124.6621">tile.callbackY(y);</text><ellipse cx="324" cy="1167.4922" fill="none" rx="10" ry="10" style="stroke:#222222;stroke-width:1.5;"/><line style="stroke:#222222;stroke-width:2.5;" x1="317.8128" x2="330.1872" y1="1161.305" y2="1173.6794"/><line style="stroke:#222222;stroke-width:2.5;" x1="330.1872" x2="317.8128" y1="1161.305" y2="1173.6794"/><path d="M354,1187.4922 L354,1196.0586 L334,1200.0586 L354,1204.0586 L354,1212.625 A0,0 0 0 0 354,1212.625 L738,1212.625 A0,0 0 0 0 738,1212.625 L738,1197.4922 L728,1187.4922 L354,1187.4922 A0,0 0 0 0 354,1187.4922 " fill="#FEFFDD" style="stroke:#181818;stroke-width:0.5;"/><path d="M728,1187.4922 L728,1197.4922 L738,1197.4922 L728,1187.4922 " fill="#FEFFDD" style="stroke:#181818;stroke-width:0.5;"/><text fill="#000000" font-family="sans-serif" font-size="13" lengthAdjust="spacing" textLength="363" x="360" y="1204.5591">ComponentgetComponent(StringBounderstringBounder)</text><ellipse cx="324" cy="1200.0586" fill="#222222" rx="10" ry="10" style="stroke:#222222;stroke-width:1.0;"/><rect fill="#F1F1F1" height="61.9063" rx="12.5" ry="12.5" style="stroke:#181818;stroke-width:0.5;" width="553" x="47.5" y="1232.625"/><text fill="#000000" font-family="sans-serif" font-size="12" lengthAdjust="spacing" textLength="533" x="57.5" y="1253.7637">final Componentcomp=skin.createComponentNote(noteOnMessage.getUsedStyles(),</text><text fill="#000000" font-family="sans-serif" font-size="12" lengthAdjust="spacing" textLength="491" x="57.5" y="1267.7324">ComponentType.NOTE,noteOnMessage.getSkinParamBackcolored(skinParam),</text><text fill="#000000" font-family="sans-serif" font-size="12" lengthAdjust="spacing" textLength="370" x="57.5" y="1281.7012">noteOnMessage.getStrings(),noteOnMessage.getColors());</text><rect fill="#F1F1F1" height="33.9688" rx="12.5" ry="12.5" style="stroke:#181818;stroke-width:0.5;" width="101" x="273.5" y="1314.5313"/><text fill="#000000" font-family="sans-serif" font-size="12" lengthAdjust="spacing" textLength="81" x="283.5" y="1335.6699">return comp;</text><ellipse cx="324" cy="1379.5" fill="none" rx="11" ry="11" style="stroke:#222222;stroke-width:1.0;"/><ellipse cx="324" cy="1379.5" fill="#222222" rx="6" ry="6" style="stroke:#111111;stroke-width:1.0;"/><ellipse cx="324" cy="1410.5" fill="none" rx="10" ry="10" style="stroke:#222222;stroke-width:1.5;"/><line style="stroke:#222222;stroke-width:2.5;" x1="317.8128" x2="330.1872" y1="1404.3128" y2="1416.6872"/><line style="stroke:#222222;stroke-width:2.5;" x1="330.1872" x2="317.8128" y1="1404.3128" y2="1416.6872"/><path d="M354,1430.5 L354,1439.0664 L334,1443.0664 L354,1447.0664 L354,1455.6328 A0,0 0 0 0 354,1455.6328 L696,1455.6328 A0,0 0 0 0 696,1455.6328 L696,1440.5 L686,1430.5 L354,1430.5 A0,0 0 0 0 354,1430.5 " fill="#FEFFDD" style="stroke:#181818;stroke-width:0.5;"/><path d="M686,1430.5 L686,1440.5 L696,1440.5 L686,1430.5 " fill="#FEFFDD" style="stroke:#181818;stroke-width:0.5;"/><text fill="#000000" font-family="sans-serif" font-size="13" lengthAdjust="spacing" textLength="321" x="360" y="1447.5669">RealgetNotePosition(StringBounderstringBounder)</text><ellipse cx="324" cy="1443.0664" fill="#222222" rx="10" ry="10" style="stroke:#222222;stroke-width:1.0;"/><rect fill="#F1F1F1" height="33.9688" rx="12.5" ry="12.5" style="stroke:#181818;stroke-width:0.5;" width="202" x="223" y="1475.6328"/><text fill="#000000" font-family="sans-serif" font-size="12" lengthAdjust="spacing" textLength="182" x="233" y="1496.7715">final RealminX=tile.getMinX();</text><rect fill="#F1F1F1" height="33.9688" rx="12.5" ry="12.5" style="stroke:#181818;stroke-width:0.5;" width="96" x="276" y="1529.6016"/><text fill="#000000" font-family="sans-serif" font-size="12" lengthAdjust="spacing" textLength="76" x="286" y="1550.7402">return minX;</text><ellipse cx="324" cy="1594.5703" fill="none" rx="11" ry="11" style="stroke:#222222;stroke-width:1.0;"/><ellipse cx="324" cy="1594.5703" fill="#222222" rx="6" ry="6" style="stroke:#111111;stroke-width:1.0;"/><ellipse cx="324" cy="1625.5703" fill="none" rx="10" ry="10" style="stroke:#222222;stroke-width:1.5;"/><line style="stroke:#222222;stroke-width:2.5;" x1="317.8128" x2="330.1872" y1="1619.3831" y2="1631.7575"/><line style="stroke:#222222;stroke-width:2.5;" x1="330.1872" x2="317.8128" y1="1619.3831" y2="1631.7575"/><path d="M354,1645.5703 L354,1661.7031 L334,1665.7031 L354,1669.7031 L354,1685.8359 A0,0 0 0 0 354,1685.8359 L669,1685.8359 A0,0 0 0 0 669,1685.8359 L669,1655.5703 L659,1645.5703 L354,1645.5703 A0,0 0 0 0 354,1645.5703 " fill="#FEFFDD" style="stroke:#181818;stroke-width:0.5;"/><path d="M659,1645.5703 L659,1655.5703 L669,1655.5703 L659,1645.5703 " fill="#FEFFDD" style="stroke:#181818;stroke-width:0.5;"/><text fill="#000000" font-family="sans-serif" font-size="13" lengthAdjust="spacing" textLength="294" x="360" y="1662.6372">void drawLine(UGraphicug,doublex1,doubley1,</text><text fill="#000000" font-family="sans-serif" font-size="13" lengthAdjust="spacing" textLength="125" x="360" y="1677.77">doublex2,doubley2)</text><ellipse cx="324" cy="1665.7031" fill="#222222" rx="10" ry="10" style="stroke:#222222;stroke-width:1.0;"/><rect fill="#F1F1F1" height="47.9375" rx="12.5" ry="12.5" style="stroke:#181818;stroke-width:0.5;" width="626" x="11" y="1705.8359"/><text fill="#000000" font-family="sans-serif" font-size="12" lengthAdjust="spacing" textLength="322" x="21" y="1726.9746">final Stylestyle=StyleSignatureBasic.of(SName.root,</text><text fill="#000000" font-family="sans-serif" font-size="12" lengthAdjust="spacing" textLength="606" x="21" y="1740.9434">SName.element,SName.sequenceDiagram).getMergedStyle(skinParam.getCurrentStyleBuilder());</text><rect fill="#F1F1F1" height="47.9375" rx="12.5" ry="12.5" style="stroke:#181818;stroke-width:0.5;" width="313" x="167.5" y="1773.7734"/><text fill="#000000" font-family="sans-serif" font-size="12" lengthAdjust="spacing" textLength="293" x="177.5" y="1794.9121">final HColorcolor=style.value(PName.LineColor)</text><text fill="#000000" font-family="sans-serif" font-size="12" lengthAdjust="spacing" textLength="249" x="177.5" y="1808.8809">.asColor(skinParam.getIHtmlColorSet());</text><rect fill="#F1F1F1" height="33.9688" rx="12.5" ry="12.5" style="stroke:#181818;stroke-width:0.5;" width="153" x="247.5" y="1841.7109"/><text fill="#000000" font-family="sans-serif" font-size="12" lengthAdjust="spacing" textLength="133" x="257.5" y="1862.8496">final doubledx=x2-x1;</text><rect fill="#F1F1F1" height="33.9688" rx="12.5" ry="12.5" style="stroke:#181818;stroke-width:0.5;" width="153" x="247.5" y="1895.6797"/><text fill="#000000" font-family="sans-serif" font-size="12" lengthAdjust="spacing" textLength="133" x="257.5" y="1916.8184">final doubledy=y2-y1;</text><rect fill="#F1F1F1" height="47.9375" rx="12.5" ry="12.5" style="stroke:#181818;stroke-width:0.5;" width="438" x="105" y="1949.6484"/><text fill="#000000" font-family="sans-serif" font-size="12" lengthAdjust="spacing" textLength="418" x="115" y="1970.7871">ug.apply(new UTranslate(x1,y1)).apply(color).apply(new UStroke(2,</text><text fill="#000000" font-family="sans-serif" font-size="12" lengthAdjust="spacing" textLength="183" x="115" y="1984.7559">2,1)).draw(new ULine(dx,dy));</text><ellipse cx="324" cy="2027.5859" fill="none" rx="10" ry="10" style="stroke:#222222;stroke-width:1.5;"/><line style="stroke:#222222;stroke-width:2.5;" x1="317.8128" x2="330.1872" y1="2021.3988" y2="2033.7731"/><line style="stroke:#222222;stroke-width:2.5;" x1="330.1872" x2="317.8128" y1="2021.3988" y2="2033.7731"/><path d="M354,2047.5859 L354,2056.1523 L334,2060.1523 L354,2064.1523 L354,2072.7188 A0,0 0 0 0 354,2072.7188 L550,2072.7188 A0,0 0 0 0 550,2072.7188 L550,2057.5859 L540,2047.5859 L354,2047.5859 A0,0 0 0 0 354,2047.5859 " fill="#FEFFDD" style="stroke:#181818;stroke-width:0.5;"/><path d="M540,2047.5859 L540,2057.5859 L550,2057.5859 L540,2047.5859 " fill="#FEFFDD" style="stroke:#181818;stroke-width:0.5;"/><text fill="#000000" font-family="sans-serif" font-size="13" lengthAdjust="spacing" textLength="175" x="360" y="2064.6528">doublegetPreferredHeight()</text><ellipse cx="324" cy="2060.1523" fill="#222222" rx="10" ry="10" style="stroke:#222222;stroke-width:1.0;"/><rect fill="#F1F1F1" height="33.9688" rx="12.5" ry="12.5" style="stroke:#181818;stroke-width:0.5;" width="394" x="127" y="2092.7188"/><text fill="#000000" font-family="sans-serif" font-size="12" lengthAdjust="spacing" textLength="374" x="137" y="2113.8574">final Componentcomp=getComponent(getStringBounder());</text><rect fill="#F1F1F1" height="33.9688" rx="12.5" ry="12.5" style="stroke:#181818;stroke-width:0.5;" width="489" x="79.5" y="2146.6875"/><text fill="#000000" font-family="sans-serif" font-size="12" lengthAdjust="spacing" textLength="469" x="89.5" y="2167.8262">final XDimension2Ddim=comp.getPreferredDimension(getStringBounder());</text><rect fill="#F1F1F1" height="47.9375" rx="12.5" ry="12.5" style="stroke:#181818;stroke-width:0.5;" width="335" x="156.5" y="2200.6563"/><text fill="#000000" font-family="sans-serif" font-size="12" lengthAdjust="spacing" textLength="315" x="166.5" y="2221.7949">return tile.getPreferredHeight()+dim.getHeight()+</text><text fill="#000000" font-family="sans-serif" font-size="12" lengthAdjust="spacing" textLength="48" x="166.5" y="2235.7637">spacey;</text><ellipse cx="324" cy="2279.5938" fill="none" rx="11" ry="11" style="stroke:#222222;stroke-width:1.0;"/><ellipse cx="324" cy="2279.5938" fill="#222222" rx="6" ry="6" style="stroke:#111111;stroke-width:1.0;"/><ellipse cx="324" cy="2310.5938" fill="none" rx="10" ry="10" style="stroke:#222222;stroke-width:1.5;"/><line style="stroke:#222222;stroke-width:2.5;" x1="317.8128" x2="330.1872" y1="2304.4066" y2="2316.7809"/><line style="stroke:#222222;stroke-width:2.5;" x1="330.1872" x2="317.8128" y1="2304.4066" y2="2316.7809"/><path d="M354,2330.5938 L354,2339.1602 L334,2343.1602 L354,2347.1602 L354,2355.7266 A0,0 0 0 0 354,2355.7266 L512,2355.7266 A0,0 0 0 0 512,2355.7266 L512,2340.5938 L502,2330.5938 L354,2330.5938 A0,0 0 0 0 354,2330.5938 " fill="#FEFFDD" style="stroke:#181818;stroke-width:0.5;"/><path d="M502,2330.5938 L502,2340.5938 L512,2340.5938 L502,2330.5938 " fill="#FEFFDD" style="stroke:#181818;stroke-width:0.5;"/><text fill="#000000" font-family="sans-serif" font-size="13" lengthAdjust="spacing" textLength="137" x="360" y="2347.6606">void addConstraints()</text><ellipse cx="324" cy="2343.1602" fill="#222222" rx="10" ry="10" style="stroke:#222222;stroke-width:1.0;"/><rect fill="#F1F1F1" height="33.9688" rx="12.5" ry="12.5" style="stroke:#181818;stroke-width:0.5;" width="153" x="247.5" y="2375.7266"/><text fill="#000000" font-family="sans-serif" font-size="12" lengthAdjust="spacing" textLength="133" x="257.5" y="2396.8652">tile.addConstraints();</text><ellipse cx="324" cy="2439.6953" fill="none" rx="10" ry="10" style="stroke:#222222;stroke-width:1.5;"/><line style="stroke:#222222;stroke-width:2.5;" x1="317.8128" x2="330.1872" y1="2433.5081" y2="2445.8825"/><line style="stroke:#222222;stroke-width:2.5;" x1="330.1872" x2="317.8128" y1="2433.5081" y2="2445.8825"/><path d="M354,2459.6953 L354,2468.2617 L334,2472.2617 L354,2476.2617 L354,2484.8281 A0,0 0 0 0 354,2484.8281 L463,2484.8281 A0,0 0 0 0 463,2484.8281 L463,2469.6953 L453,2459.6953 L354,2459.6953 A0,0 0 0 0 354,2459.6953 " fill="#FEFFDD" style="stroke:#181818;stroke-width:0.5;"/><path d="M453,2459.6953 L453,2469.6953 L463,2469.6953 L453,2459.6953 " fill="#FEFFDD" style="stroke:#181818;stroke-width:0.5;"/><text fill="#000000" font-family="sans-serif" font-size="13" lengthAdjust="spacing" textLength="88" x="360" y="2476.7622">RealgetMinX()</text><ellipse cx="324" cy="2472.2617" fill="#222222" rx="10" ry="10" style="stroke:#222222;stroke-width:1.0;"/><rect fill="#F1F1F1" height="33.9688" rx="12.5" ry="12.5" style="stroke:#181818;stroke-width:0.5;" width="149" x="249.5" y="2504.8281"/><text fill="#000000" font-family="sans-serif" font-size="12" lengthAdjust="spacing" textLength="129" x="259.5" y="2525.9668">return tile.getMinX();</text><ellipse cx="324" cy="2569.7969" fill="none" rx="11" ry="11" style="stroke:#222222;stroke-width:1.0;"/><ellipse cx="324" cy="2569.7969" fill="#222222" rx="6" ry="6" style="stroke:#111111;stroke-width:1.0;"/><ellipse cx="324" cy="2600.7969" fill="none" rx="10" ry="10" style="stroke:#222222;stroke-width:1.5;"/><line style="stroke:#222222;stroke-width:2.5;" x1="317.8128" x2="330.1872" y1="2594.6097" y2="2606.9841"/><line style="stroke:#222222;stroke-width:2.5;" x1="330.1872" x2="317.8128" y1="2594.6097" y2="2606.9841"/><path d="M354,2620.7969 L354,2629.3633 L334,2633.3633 L354,2637.3633 L354,2645.9297 A0,0 0 0 0 354,2645.9297 L467,2645.9297 A0,0 0 0 0 467,2645.9297 L467,2630.7969 L457,2620.7969 L354,2620.7969 A0,0 0 0 0 354,2620.7969 " fill="#FEFFDD" style="stroke:#181818;stroke-width:0.5;"/><path d="M457,2620.7969 L457,2630.7969 L467,2630.7969 L457,2620.7969 " fill="#FEFFDD" style="stroke:#181818;stroke-width:0.5;"/><text fill="#000000" font-family="sans-serif" font-size="13" lengthAdjust="spacing" textLength="92" x="360" y="2637.8638">RealgetMaxX()</text><ellipse cx="324" cy="2633.3633" fill="#222222" rx="10" ry="10" style="stroke:#222222;stroke-width:1.0;"/><rect fill="#F1F1F1" height="33.9688" rx="12.5" ry="12.5" style="stroke:#181818;stroke-width:0.5;" width="152" x="248" y="2665.9297"/><text fill="#000000" font-family="sans-serif" font-size="12" lengthAdjust="spacing" textLength="132" x="258" y="2687.0684">return tile.getMaxX();</text><ellipse cx="324" cy="2730.8984" fill="none" rx="11" ry="11" style="stroke:#222222;stroke-width:1.0;"/><ellipse cx="324" cy="2730.8984" fill="#222222" rx="6" ry="6" style="stroke:#111111;stroke-width:1.0;"/><ellipse cx="324" cy="2761.8984" fill="none" rx="10" ry="10" style="stroke:#222222;stroke-width:1.5;"/><line style="stroke:#222222;stroke-width:2.5;" x1="317.8128" x2="330.1872" y1="2755.7113" y2="2768.0856"/><line style="stroke:#222222;stroke-width:2.5;" x1="330.1872" x2="317.8128" y1="2755.7113" y2="2768.0856"/><line style="stroke:#181818;stroke-width:1.0;" x1="324" x2="324" y1="32.5664" y2="55.1328"/><polygon fill="#181818" points="320,45.1328,324,55.1328,328,45.1328,324,49.1328" style="stroke:#181818;stroke-width:1.0;"/><line style="stroke:#181818;stroke-width:1.0;" x1="324" x2="324" y1="89.1016" y2="109.1016"/><polygon fill="#181818" points="320,99.1016,324,109.1016,328,99.1016,324,103.1016" style="stroke:#181818;stroke-width:1.0;"/><line style="stroke:#181818;stroke-width:1.0;" x1="324" x2="324" y1="193.668" y2="216.2344"/><polygon fill="#181818" points="320,206.2344,324,216.2344,328,206.2344,324,210.2344" style="stroke:#181818;stroke-width:1.0;"/><line style="stroke:#181818;stroke-width:1.0;" x1="324" x2="324" y1="250.2031" y2="270.2031"/><polygon fill="#181818" points="320,260.2031,324,270.2031,328,260.2031,324,264.2031" style="stroke:#181818;stroke-width:1.0;"/><line style="stroke:#181818;stroke-width:1.0;" x1="324" x2="324" y1="369.9023" y2="407.6016"/><polygon fill="#181818" points="320,397.6016,324,407.6016,328,397.6016,324,401.6016" style="stroke:#181818;stroke-width:1.0;"/><line style="stroke:#181818;stroke-width:1.0;" x1="324" x2="324" y1="455.5391" y2="475.5391"/><polygon fill="#181818" points="320,465.5391,324,475.5391,328,465.5391,324,469.5391" style="stroke:#181818;stroke-width:1.0;"/><line style="stroke:#181818;stroke-width:1.0;" x1="324" x2="324" y1="509.5078" y2="529.5078"/><polygon fill="#181818" points="320,519.5078,324,529.5078,328,519.5078,324,523.5078" style="stroke:#181818;stroke-width:1.0;"/><line style="stroke:#181818;stroke-width:1.0;" x1="324" x2="324" y1="563.4766" y2="583.4766"/><polygon fill="#181818" points="320,573.4766,324,583.4766,328,573.4766,324,577.4766" style="stroke:#181818;stroke-width:1.0;"/><line style="stroke:#181818;stroke-width:1.0;" x1="324" x2="324" y1="617.4453" y2="637.4453"/><polygon fill="#181818" points="320,627.4453,324,637.4453,328,627.4453,324,631.4453" style="stroke:#181818;stroke-width:1.0;"/><line style="stroke:#181818;stroke-width:1.0;" x1="324" x2="324" y1="671.4141" y2="691.4141"/><polygon fill="#181818" points="320,681.4141,324,691.4141,328,681.4141,324,685.4141" style="stroke:#181818;stroke-width:1.0;"/><line style="stroke:#181818;stroke-width:1.0;" x1="324" x2="324" y1="725.3828" y2="745.3828"/><polygon fill="#181818" points="320,735.3828,324,745.3828,328,735.3828,324,739.3828" style="stroke:#181818;stroke-width:1.0;"/><line style="stroke:#181818;stroke-width:1.0;" x1="324" x2="324" y1="793.3203" y2="813.3203"/><polygon fill="#181818" points="320,803.3203,324,813.3203,328,803.3203,324,807.3203" style="stroke:#181818;stroke-width:1.0;"/><line style="stroke:#181818;stroke-width:1.0;" x1="324" x2="324" y1="865.8867" y2="888.4531"/><polygon fill="#181818" points="320,878.4531,324,888.4531,328,878.4531,324,882.4531" style="stroke:#181818;stroke-width:1.0;"/><line style="stroke:#181818;stroke-width:1.0;" x1="324" x2="324" y1="922.4219" y2="942.4219"/><polygon fill="#181818" points="320,932.4219,324,942.4219,328,932.4219,324,936.4219" style="stroke:#181818;stroke-width:1.0;"/><line style="stroke:#181818;stroke-width:1.0;" x1="324" x2="324" y1="1026.9883" y2="1049.5547"/><polygon fill="#181818" points="320,1039.5547,324,1049.5547,328,1039.5547,324,1043.5547" style="stroke:#181818;stroke-width:1.0;"/><line style="stroke:#181818;stroke-width:1.0;" x1="324" x2="324" y1="1083.5234" y2="1103.5234"/><polygon fill="#181818" points="320,1093.5234,324,1103.5234,328,1093.5234,324,1097.5234" style="stroke:#181818;stroke-width:1.0;"/><line style="stroke:#181818;stroke-width:1.0;" x1="324" x2="324" y1="1137.4922" y2="1157.4922"/><polygon fill="#181818" points="320,1147.4922,324,1157.4922,328,1147.4922,324,1151.4922" style="stroke:#181818;stroke-width:1.0;"/><line style="stroke:#181818;stroke-width:1.0;" x1="324" x2="324" y1="1210.0586" y2="1232.625"/><polygon fill="#181818" points="320,1222.625,324,1232.625,328,1222.625,324,1226.625" style="stroke:#181818;stroke-width:1.0;"/><line style="stroke:#181818;stroke-width:1.0;" x1="324" x2="324" y1="1294.5313" y2="1314.5313"/><polygon fill="#181818" points="320,1304.5313,324,1314.5313,328,1304.5313,324,1308.5313" style="stroke:#181818;stroke-width:1.0;"/><line style="stroke:#181818;stroke-width:1.0;" x1="324" x2="324" y1="1348.5" y2="1368.5"/><polygon fill="#181818" points="320,1358.5,324,1368.5,328,1358.5,324,1362.5" style="stroke:#181818;stroke-width:1.0;"/><line style="stroke:#181818;stroke-width:1.0;" x1="324" x2="324" y1="1453.0664" y2="1475.6328"/><polygon fill="#181818" points="320,1465.6328,324,1475.6328,328,1465.6328,324,1469.6328" style="stroke:#181818;stroke-width:1.0;"/><line style="stroke:#181818;stroke-width:1.0;" x1="324" x2="324" y1="1509.6016" y2="1529.6016"/><polygon fill="#181818" points="320,1519.6016,324,1529.6016,328,1519.6016,324,1523.6016" style="stroke:#181818;stroke-width:1.0;"/><line style="stroke:#181818;stroke-width:1.0;" x1="324" x2="324" y1="1563.5703" y2="1583.5703"/><polygon fill="#181818" points="320,1573.5703,324,1583.5703,328,1573.5703,324,1577.5703" style="stroke:#181818;stroke-width:1.0;"/><line style="stroke:#181818;stroke-width:1.0;" x1="324" x2="324" y1="1675.7031" y2="1705.8359"/><polygon fill="#181818" points="320,1695.8359,324,1705.8359,328,1695.8359,324,1699.8359" style="stroke:#181818;stroke-width:1.0;"/><line style="stroke:#181818;stroke-width:1.0;" x1="324" x2="324" y1="1753.7734" y2="1773.7734"/><polygon fill="#181818" points="320,1763.7734,324,1773.7734,328,1763.7734,324,1767.7734" style="stroke:#181818;stroke-width:1.0;"/><line style="stroke:#181818;stroke-width:1.0;" x1="324" x2="324" y1="1821.7109" y2="1841.7109"/><polygon fill="#181818" points="320,1831.7109,324,1841.7109,328,1831.7109,324,1835.7109" style="stroke:#181818;stroke-width:1.0;"/><line style="stroke:#181818;stroke-width:1.0;" x1="324" x2="324" y1="1875.6797" y2="1895.6797"/><polygon fill="#181818" points="320,1885.6797,324,1895.6797,328,1885.6797,324,1889.6797" style="stroke:#181818;stroke-width:1.0;"/><line style="stroke:#181818;stroke-width:1.0;" x1="324" x2="324" y1="1929.6484" y2="1949.6484"/><polygon fill="#181818" points="320,1939.6484,324,1949.6484,328,1939.6484,324,1943.6484" style="stroke:#181818;stroke-width:1.0;"/><line style="stroke:#181818;stroke-width:1.0;" x1="324" x2="324" y1="1997.5859" y2="2017.5859"/><polygon fill="#181818" points="320,2007.5859,324,2017.5859,328,2007.5859,324,2011.5859" style="stroke:#181818;stroke-width:1.0;"/><line style="stroke:#181818;stroke-width:1.0;" x1="324" x2="324" y1="2070.1523" y2="2092.7188"/><polygon fill="#181818" points="320,2082.7188,324,2092.7188,328,2082.7188,324,2086.7188" style="stroke:#181818;stroke-width:1.0;"/><line style="stroke:#181818;stroke-width:1.0;" x1="324" x2="324" y1="2126.6875" y2="2146.6875"/><polygon fill="#181818" points="320,2136.6875,324,2146.6875,328,2136.6875,324,2140.6875" style="stroke:#181818;stroke-width:1.0;"/><line style="stroke:#181818;stroke-width:1.0;" x1="324" x2="324" y1="2180.6563" y2="2200.6563"/><polygon fill="#181818" points="320,2190.6563,324,2200.6563,328,2190.6563,324,2194.6563" style="stroke:#181818;stroke-width:1.0;"/><line style="stroke:#181818;stroke-width:1.0;" x1="324" x2="324" y1="2248.5938" y2="2268.5938"/><polygon fill="#181818" points="320,2258.5938,324,2268.5938,328,2258.5938,324,2262.5938" style="stroke:#181818;stroke-width:1.0;"/><line style="stroke:#181818;stroke-width:1.0;" x1="324" x2="324" y1="2353.1602" y2="2375.7266"/><polygon fill="#181818" points="320,2365.7266,324,2375.7266,328,2365.7266,324,2369.7266" style="stroke:#181818;stroke-width:1.0;"/><line style="stroke:#181818;stroke-width:1.0;" x1="324" x2="324" y1="2409.6953" y2="2429.6953"/><polygon fill="#181818" points="320,2419.6953,324,2429.6953,328,2419.6953,324,2423.6953" style="stroke:#181818;stroke-width:1.0;"/><line style="stroke:#181818;stroke-width:1.0;" x1="324" x2="324" y1="2482.2617" y2="2504.8281"/><polygon fill="#181818" points="320,2494.8281,324,2504.8281,328,2494.8281,324,2498.8281" style="stroke:#181818;stroke-width:1.0;"/><line style="stroke:#181818;stroke-width:1.0;" x1="324" x2="324" y1="2538.7969" y2="2558.7969"/><polygon fill="#181818" points="320,2548.7969,324,2558.7969,328,2548.7969,324,2552.7969" style="stroke:#181818;stroke-width:1.0;"/><line style="stroke:#181818;stroke-width:1.0;" x1="324" x2="324" y1="2643.3633" y2="2665.9297"/><polygon fill="#181818" points="320,2655.9297,324,2665.9297,328,2655.9297,324,2659.9297" style="stroke:#181818;stroke-width:1.0;"/><line style="stroke:#181818;stroke-width:1.0;" x1="324" x2="324" y1="2699.8984" y2="2719.8984"/><polygon fill="#181818" points="320,2709.8984,324,2719.8984,328,2709.8984,324,2713.8984" style="stroke:#181818;stroke-width:1.0;"/><!--MD5=[edf7e7f236ad960d7f7ebf876e24efdf]
@startuml
!pragma layout smetana
start
note right
EventgetEvent()
end note
:return message;;
stop
end
start
note right
doublegetContactPointRelative()
end note
:return tile.getContactPointRelative();;
stop
end
start
note right
constructor CommunicationTileNoteBottomTopAbstract(Tiletile,
AbstractMessagemessage,Roseskin,ISkinParamskinParam,
NotenoteOnMessage,YGaugecurrentY)
end note
:super (((AbstractTile)tile).getStringBounder(),
currentY);;
:this.tile=tile;;
:this.message=message;;
:this.skin=skin;;
:this.skinParam=skinParam;;
:this.noteOnMessage=noteOnMessage;;
:this.yGauge=YGauge.create(currentY.getMax(),
getPreferredHeight());;
end
start
note right
YGaugegetYGauge()
end note
:return yGauge;;
stop
end
start
note right
void callbackY_internal(TimeHooky)
end note
:super .callbackY_internal(y);;
:tile.callbackY(y);;
end
start
note right
ComponentgetComponent(StringBounderstringBounder)
end note
:final Componentcomp=skin.createComponentNote(noteOnMessage.getUsedStyles(),
ComponentType.NOTE,noteOnMessage.getSkinParamBackcolored(skinParam),
noteOnMessage.getStrings(),noteOnMessage.getColors());;
:return comp;;
stop
end
start
note right
RealgetNotePosition(StringBounderstringBounder)
end note
:final RealminX=tile.getMinX();;
:return minX;;
stop
end
start
note right
void drawLine(UGraphicug,doublex1,doubley1,
doublex2,doubley2)
end note
:final Stylestyle=StyleSignatureBasic.of(SName.root,
SName.element,SName.sequenceDiagram).getMergedStyle(skinParam.getCurrentStyleBuilder());;
:final HColorcolor=style.value(PName.LineColor)
.asColor(skinParam.getIHtmlColorSet());;
:final doubledx=x2-x1;;
:final doubledy=y2-y1;;
:ug.apply(new UTranslate(x1,y1)).apply(color).apply(new UStroke(2,
2,1)).draw(new ULine(dx,dy));;
end
start
note right
doublegetPreferredHeight()
end note
:final Componentcomp=getComponent(getStringBounder());;
:final XDimension2Ddim=comp.getPreferredDimension(getStringBounder());;
:return tile.getPreferredHeight()+dim.getHeight()+
spacey;;
stop
end
start
note right
void addConstraints()
end note
:tile.addConstraints();;
end
start
note right
RealgetMinX()
end note
:return tile.getMinX();;
stop
end
start
note right
RealgetMaxX()
end note
:return tile.getMaxX();;
stop
end
@enduml

PlantUML version 1.2022.7(Mon Aug 22 17:01:30 UTC 2022)
(GPL source distribution)
Java Runtime: OpenJDK Runtime Environment
JVM: OpenJDK 64-Bit Server VM
Default Encoding: UTF-8
Language: en
Country: null
--></g></svg>