<?xml version="1.0" encoding="UTF-8" standalone="no"?><svg xmlns="http://www.w3.org/2000/svg" xmlns:xlink="http://www.w3.org/1999/xlink" contentStyleType="text/css" height="3090px" preserveAspectRatio="none" style="width:816px;height:3090px;background:#FFFFFF;" version="1.1" viewBox="0 0 816 3090" width="816px" zoomAndPan="magnify"><defs/><g><path d="M319.5,10 L319.5,18.5664 L299.5,22.5664 L319.5,26.5664 L319.5,35.1328 A0,0 0 0 0 319.5,35.1328 L447.5,35.1328 A0,0 0 0 0 447.5,35.1328 L447.5,20 L437.5,10 L319.5,10 A0,0 0 0 0 319.5,10 " fill="#FEFFDD" style="stroke:#181818;stroke-width:0.5;"/><path d="M437.5,10 L437.5,20 L447.5,20 L437.5,10 " fill="#FEFFDD" style="stroke:#181818;stroke-width:0.5;"/><text fill="#000000" font-family="sans-serif" font-size="13" lengthAdjust="spacing" textLength="107" x="325.5" y="27.0669">Event getEvent()</text><ellipse cx="289.5" cy="22.5664" fill="#222222" rx="10" ry="10" style="stroke:#222222;stroke-width:1.0;"/><rect fill="#F1F1F1" height="33.9688" rx="12.5" ry="12.5" style="stroke:#181818;stroke-width:0.5;" width="124" x="227.5" y="55.1328"/><text fill="#000000" font-family="sans-serif" font-size="12" lengthAdjust="spacing" textLength="104" x="237.5" y="76.2715">return message;</text><ellipse cx="289.5" cy="120.1016" fill="none" rx="11" ry="11" style="stroke:#222222;stroke-width:1.0;"/><ellipse cx="289.5" cy="120.1016" fill="#222222" rx="6" ry="6" style="stroke:#111111;stroke-width:1.0;"/><ellipse cx="289.5" cy="151.1016" fill="none" rx="10" ry="10" style="stroke:#222222;stroke-width:1.5;"/><line style="stroke:#222222;stroke-width:2.5;" x1="283.3128" x2="295.6872" y1="144.9144" y2="157.2887"/><line style="stroke:#222222;stroke-width:2.5;" x1="295.6872" x2="283.3128" y1="144.9144" y2="157.2887"/><path d="M319.5,171.1016 L319.5,179.668 L299.5,183.668 L319.5,187.668 L319.5,196.2344 A0,0 0 0 0 319.5,196.2344 L550.5,196.2344 A0,0 0 0 0 550.5,196.2344 L550.5,181.1016 L540.5,171.1016 L319.5,171.1016 A0,0 0 0 0 319.5,171.1016 " fill="#FEFFDD" style="stroke:#181818;stroke-width:0.5;"/><path d="M540.5,171.1016 L540.5,181.1016 L550.5,181.1016 L540.5,171.1016 " fill="#FEFFDD" style="stroke:#181818;stroke-width:0.5;"/><text fill="#000000" font-family="sans-serif" font-size="13" lengthAdjust="spacing" textLength="210" x="325.5" y="188.1685">double getContactPointRelative()</text><ellipse cx="289.5" cy="183.668" fill="#222222" rx="10" ry="10" style="stroke:#222222;stroke-width:1.0;"/><rect fill="#F1F1F1" height="33.9688" rx="12.5" ry="12.5" style="stroke:#181818;stroke-width:0.5;" width="251" x="164" y="216.2344"/><text fill="#000000" font-family="sans-serif" font-size="12" lengthAdjust="spacing" textLength="231" x="174" y="237.373">return tile.getContactPointRelative();</text><ellipse cx="289.5" cy="281.2031" fill="none" rx="11" ry="11" style="stroke:#222222;stroke-width:1.0;"/><ellipse cx="289.5" cy="281.2031" fill="#222222" rx="6" ry="6" style="stroke:#111111;stroke-width:1.0;"/><ellipse cx="289.5" cy="312.2031" fill="none" rx="10" ry="10" style="stroke:#222222;stroke-width:1.5;"/><line style="stroke:#222222;stroke-width:2.5;" x1="283.3128" x2="295.6872" y1="306.0159" y2="318.3903"/><line style="stroke:#222222;stroke-width:2.5;" x1="295.6872" x2="283.3128" y1="306.0159" y2="318.3903"/><path d="M319.5,332.2031 L319.5,355.9023 L299.5,359.9023 L319.5,363.9023 L319.5,387.6016 A0,0 0 0 0 319.5,387.6016 L804.5,387.6016 A0,0 0 0 0 804.5,387.6016 L804.5,342.2031 L794.5,332.2031 L319.5,332.2031 A0,0 0 0 0 319.5,332.2031 " fill="#FEFFDD" style="stroke:#181818;stroke-width:0.5;"/><path d="M794.5,332.2031 L794.5,342.2031 L804.5,342.2031 L794.5,332.2031 " fill="#FEFFDD" style="stroke:#181818;stroke-width:0.5;"/><text fill="#000000" font-family="sans-serif" font-size="13" lengthAdjust="spacing" textLength="464" x="325.5" y="349.27">constructor CommunicationTileSelfNoteRight(CommunicationTileSelf tile,</text><text fill="#000000" font-family="sans-serif" font-size="13" lengthAdjust="spacing" textLength="335" x="325.5" y="364.4028">Message message,Rose skin,ISkinParam skinParam,</text><text fill="#000000" font-family="sans-serif" font-size="13" lengthAdjust="spacing" textLength="254" x="325.5" y="379.5356">Note noteOnMessage,YGauge currentY)</text><ellipse cx="289.5" cy="359.9023" fill="#222222" rx="10" ry="10" style="stroke:#222222;stroke-width:1.0;"/><rect fill="#F1F1F1" height="47.9375" rx="12.5" ry="12.5" style="stroke:#181818;stroke-width:0.5;" width="311" x="134" y="407.6016"/><text fill="#000000" font-family="sans-serif" font-size="12" lengthAdjust="spacing" textLength="291" x="144" y="428.7402">super (((AbstractTile )tile).getStringBounder(),</text><text fill="#000000" font-family="sans-serif" font-size="12" lengthAdjust="spacing" textLength="62" x="144" y="442.709">currentY);</text><rect fill="#F1F1F1" height="33.9688" rx="12.5" ry="12.5" style="stroke:#181818;stroke-width:0.5;" width="99" x="240" y="475.5391"/><text fill="#000000" font-family="sans-serif" font-size="12" lengthAdjust="spacing" textLength="79" x="250" y="496.6777">this.tile=tile;</text><rect fill="#F1F1F1" height="33.9688" rx="12.5" ry="12.5" style="stroke:#181818;stroke-width:0.5;" width="175" x="202" y="529.5078"/><text fill="#000000" font-family="sans-serif" font-size="12" lengthAdjust="spacing" textLength="155" x="212" y="550.6465">this.message=message;</text><rect fill="#F1F1F1" height="33.9688" rx="12.5" ry="12.5" style="stroke:#181818;stroke-width:0.5;" width="111" x="234" y="583.4766"/><text fill="#000000" font-family="sans-serif" font-size="12" lengthAdjust="spacing" textLength="91" x="244" y="604.6152">this.skin=skin;</text><rect fill="#F1F1F1" height="33.9688" rx="12.5" ry="12.5" style="stroke:#181818;stroke-width:0.5;" width="191" x="194" y="637.4453"/><text fill="#000000" font-family="sans-serif" font-size="12" lengthAdjust="spacing" textLength="171" x="204" y="658.584">this.skinParam=skinParam;</text><rect fill="#F1F1F1" height="33.9688" rx="12.5" ry="12.5" style="stroke:#181818;stroke-width:0.5;" width="265" x="157" y="691.4141"/><text fill="#000000" font-family="sans-serif" font-size="12" lengthAdjust="spacing" textLength="245" x="167" y="712.5527">this.noteOnMessage=noteOnMessage;</text><rect fill="#F1F1F1" height="47.9375" rx="12.5" ry="12.5" style="stroke:#181818;stroke-width:0.5;" width="318" x="130.5" y="745.3828"/><text fill="#000000" font-family="sans-serif" font-size="12" lengthAdjust="spacing" textLength="298" x="140.5" y="766.5215">this.yGauge=YGauge.create(currentY.getMax(),</text><text fill="#000000" font-family="sans-serif" font-size="12" lengthAdjust="spacing" textLength="140" x="140.5" y="780.4902">getPreferredHeight());</text><ellipse cx="289.5" cy="823.3203" fill="none" rx="10" ry="10" style="stroke:#222222;stroke-width:1.5;"/><line style="stroke:#222222;stroke-width:2.5;" x1="283.3128" x2="295.6872" y1="817.1331" y2="829.5075"/><line style="stroke:#222222;stroke-width:2.5;" x1="295.6872" x2="283.3128" y1="817.1331" y2="829.5075"/><path d="M319.5,843.3203 L319.5,851.8867 L299.5,855.8867 L319.5,859.8867 L319.5,868.4531 A0,0 0 0 0 319.5,868.4531 L473.5,868.4531 A0,0 0 0 0 473.5,868.4531 L473.5,853.3203 L463.5,843.3203 L319.5,843.3203 A0,0 0 0 0 319.5,843.3203 " fill="#FEFFDD" style="stroke:#181818;stroke-width:0.5;"/><path d="M463.5,843.3203 L463.5,853.3203 L473.5,853.3203 L463.5,843.3203 " fill="#FEFFDD" style="stroke:#181818;stroke-width:0.5;"/><text fill="#000000" font-family="sans-serif" font-size="13" lengthAdjust="spacing" textLength="133" x="325.5" y="860.3872">YGauge getYGauge()</text><ellipse cx="289.5" cy="855.8867" fill="#222222" rx="10" ry="10" style="stroke:#222222;stroke-width:1.0;"/><rect fill="#F1F1F1" height="33.9688" rx="12.5" ry="12.5" style="stroke:#181818;stroke-width:0.5;" width="114" x="232.5" y="888.4531"/><text fill="#000000" font-family="sans-serif" font-size="12" lengthAdjust="spacing" textLength="94" x="242.5" y="909.5918">return yGauge;</text><ellipse cx="289.5" cy="953.4219" fill="none" rx="11" ry="11" style="stroke:#222222;stroke-width:1.0;"/><ellipse cx="289.5" cy="953.4219" fill="#222222" rx="6" ry="6" style="stroke:#111111;stroke-width:1.0;"/><ellipse cx="289.5" cy="984.4219" fill="none" rx="10" ry="10" style="stroke:#222222;stroke-width:1.5;"/><line style="stroke:#222222;stroke-width:2.5;" x1="283.3128" x2="295.6872" y1="978.2347" y2="990.6091"/><line style="stroke:#222222;stroke-width:2.5;" x1="295.6872" x2="283.3128" y1="978.2347" y2="990.6091"/><path d="M319.5,1004.4219 L319.5,1012.9883 L299.5,1016.9883 L319.5,1020.9883 L319.5,1029.5547 A0,0 0 0 0 319.5,1029.5547 L568.5,1029.5547 A0,0 0 0 0 568.5,1029.5547 L568.5,1014.4219 L558.5,1004.4219 L319.5,1004.4219 A0,0 0 0 0 319.5,1004.4219 " fill="#FEFFDD" style="stroke:#181818;stroke-width:0.5;"/><path d="M558.5,1004.4219 L558.5,1014.4219 L568.5,1014.4219 L558.5,1004.4219 " fill="#FEFFDD" style="stroke:#181818;stroke-width:0.5;"/><text fill="#000000" font-family="sans-serif" font-size="13" lengthAdjust="spacing" textLength="228" x="325.5" y="1021.4888">void callbackY_internal(TimeHook y)</text><ellipse cx="289.5" cy="1016.9883" fill="#222222" rx="10" ry="10" style="stroke:#222222;stroke-width:1.0;"/><rect fill="#F1F1F1" height="33.9688" rx="12.5" ry="12.5" style="stroke:#181818;stroke-width:0.5;" width="196" x="191.5" y="1049.5547"/><text fill="#000000" font-family="sans-serif" font-size="12" lengthAdjust="spacing" textLength="176" x="201.5" y="1070.6934">super .callbackY_internal(y);</text><rect fill="#F1F1F1" height="33.9688" rx="12.5" ry="12.5" style="stroke:#181818;stroke-width:0.5;" width="121" x="229" y="1103.5234"/><text fill="#000000" font-family="sans-serif" font-size="12" lengthAdjust="spacing" textLength="101" x="239" y="1124.6621">tile.callbackY(y);</text><ellipse cx="289.5" cy="1167.4922" fill="none" rx="10" ry="10" style="stroke:#222222;stroke-width:1.5;"/><line style="stroke:#222222;stroke-width:2.5;" x1="283.3128" x2="295.6872" y1="1161.305" y2="1173.6794"/><line style="stroke:#222222;stroke-width:2.5;" x1="295.6872" x2="283.3128" y1="1161.305" y2="1173.6794"/><path d="M319.5,1187.4922 L319.5,1196.0586 L299.5,1200.0586 L319.5,1204.0586 L319.5,1212.625 A0,0 0 0 0 319.5,1212.625 L711.5,1212.625 A0,0 0 0 0 711.5,1212.625 L711.5,1197.4922 L701.5,1187.4922 L319.5,1187.4922 A0,0 0 0 0 319.5,1187.4922 " fill="#FEFFDD" style="stroke:#181818;stroke-width:0.5;"/><path d="M701.5,1187.4922 L701.5,1197.4922 L711.5,1197.4922 L701.5,1187.4922 " fill="#FEFFDD" style="stroke:#181818;stroke-width:0.5;"/><text fill="#000000" font-family="sans-serif" font-size="13" lengthAdjust="spacing" textLength="371" x="325.5" y="1204.5591">Component getComponent(StringBounder stringBounder)</text><ellipse cx="289.5" cy="1200.0586" fill="#222222" rx="10" ry="10" style="stroke:#222222;stroke-width:1.0;"/><rect fill="#F1F1F1" height="61.9063" rx="12.5" ry="12.5" style="stroke:#181818;stroke-width:0.5;" width="557" x="11" y="1232.625"/><text fill="#000000" font-family="sans-serif" font-size="12" lengthAdjust="spacing" textLength="537" x="21" y="1253.7637">final Component comp=skin.createComponentNote(noteOnMessage.getUsedStyles(),</text><text fill="#000000" font-family="sans-serif" font-size="12" lengthAdjust="spacing" textLength="491" x="21" y="1267.7324">ComponentType.NOTE,noteOnMessage.getSkinParamBackcolored(skinParam),</text><text fill="#000000" font-family="sans-serif" font-size="12" lengthAdjust="spacing" textLength="370" x="21" y="1281.7012">noteOnMessage.getStrings(),noteOnMessage.getColors());</text><rect fill="#F1F1F1" height="33.9688" rx="12.5" ry="12.5" style="stroke:#181818;stroke-width:0.5;" width="101" x="239" y="1314.5313"/><text fill="#000000" font-family="sans-serif" font-size="12" lengthAdjust="spacing" textLength="81" x="249" y="1335.6699">return comp;</text><ellipse cx="289.5" cy="1379.5" fill="none" rx="11" ry="11" style="stroke:#222222;stroke-width:1.0;"/><ellipse cx="289.5" cy="1379.5" fill="#222222" rx="6" ry="6" style="stroke:#111111;stroke-width:1.0;"/><ellipse cx="289.5" cy="1410.5" fill="none" rx="10" ry="10" style="stroke:#222222;stroke-width:1.5;"/><line style="stroke:#222222;stroke-width:2.5;" x1="283.3128" x2="295.6872" y1="1404.3128" y2="1416.6872"/><line style="stroke:#222222;stroke-width:2.5;" x1="295.6872" x2="283.3128" y1="1404.3128" y2="1416.6872"/><path d="M319.5,1430.5 L319.5,1439.0664 L299.5,1443.0664 L319.5,1447.0664 L319.5,1455.6328 A0,0 0 0 0 319.5,1455.6328 L669.5,1455.6328 A0,0 0 0 0 669.5,1455.6328 L669.5,1440.5 L659.5,1430.5 L319.5,1430.5 A0,0 0 0 0 319.5,1430.5 " fill="#FEFFDD" style="stroke:#181818;stroke-width:0.5;"/><path d="M659.5,1430.5 L659.5,1440.5 L669.5,1440.5 L659.5,1430.5 " fill="#FEFFDD" style="stroke:#181818;stroke-width:0.5;"/><text fill="#000000" font-family="sans-serif" font-size="13" lengthAdjust="spacing" textLength="329" x="325.5" y="1447.5669">Real getNotePosition(StringBounder stringBounder)</text><ellipse cx="289.5" cy="1443.0664" fill="#222222" rx="10" ry="10" style="stroke:#222222;stroke-width:1.0;"/><rect fill="#F1F1F1" height="33.9688" rx="12.5" ry="12.5" style="stroke:#181818;stroke-width:0.5;" width="152" x="213.5" y="1475.6328"/><text fill="#000000" font-family="sans-serif" font-size="12" lengthAdjust="spacing" textLength="132" x="223.5" y="1496.7715">return tile.getMaxX();</text><ellipse cx="289.5" cy="1540.6016" fill="none" rx="11" ry="11" style="stroke:#222222;stroke-width:1.0;"/><ellipse cx="289.5" cy="1540.6016" fill="#222222" rx="6" ry="6" style="stroke:#111111;stroke-width:1.0;"/><ellipse cx="289.5" cy="1571.6016" fill="none" rx="10" ry="10" style="stroke:#222222;stroke-width:1.5;"/><line style="stroke:#222222;stroke-width:2.5;" x1="283.3128" x2="295.6872" y1="1565.4144" y2="1577.7887"/><line style="stroke:#222222;stroke-width:2.5;" x1="295.6872" x2="283.3128" y1="1565.4144" y2="1577.7887"/><path d="M319.5,1591.6016 L319.5,1600.168 L299.5,1604.168 L319.5,1608.168 L319.5,1616.7344 A0,0 0 0 0 319.5,1616.7344 L499.5,1616.7344 A0,0 0 0 0 499.5,1616.7344 L499.5,1601.6016 L489.5,1591.6016 L319.5,1591.6016 A0,0 0 0 0 319.5,1591.6016 " fill="#FEFFDD" style="stroke:#181818;stroke-width:0.5;"/><path d="M489.5,1591.6016 L489.5,1601.6016 L499.5,1601.6016 L489.5,1591.6016 " fill="#FEFFDD" style="stroke:#181818;stroke-width:0.5;"/><text fill="#000000" font-family="sans-serif" font-size="13" lengthAdjust="spacing" textLength="159" x="325.5" y="1608.6685">void drawU(UGraphic ug)</text><ellipse cx="289.5" cy="1604.168" fill="#222222" rx="10" ry="10" style="stroke:#222222;stroke-width:1.0;"/><rect fill="#F1F1F1" height="33.9688" rx="12.5" ry="12.5" style="stroke:#181818;stroke-width:0.5;" width="388" x="95.5" y="1636.7344"/><text fill="#000000" font-family="sans-serif" font-size="12" lengthAdjust="spacing" textLength="368" x="105.5" y="1657.873">final StringBounder stringBounder=ug.getStringBounder();</text><rect fill="#F1F1F1" height="33.9688" rx="12.5" ry="12.5" style="stroke:#181818;stroke-width:0.5;" width="366" x="106.5" y="1690.7031"/><text fill="#000000" font-family="sans-serif" font-size="12" lengthAdjust="spacing" textLength="346" x="116.5" y="1711.8418">final Component comp=getComponent(stringBounder);</text><rect fill="#F1F1F1" height="33.9688" rx="12.5" ry="12.5" style="stroke:#181818;stroke-width:0.5;" width="461" x="59" y="1744.6719"/><text fill="#000000" font-family="sans-serif" font-size="12" lengthAdjust="spacing" textLength="441" x="69" y="1765.8105">final XDimension2D dim=comp.getPreferredDimension(stringBounder);</text><rect fill="#F1F1F1" height="47.9375" rx="12.5" ry="12.5" style="stroke:#181818;stroke-width:0.5;" width="297" x="141" y="1798.6406"/><text fill="#000000" font-family="sans-serif" font-size="12" lengthAdjust="spacing" textLength="277" x="151" y="1819.7793">final Area area=Area.create(dim.getWidth(),</text><text fill="#000000" font-family="sans-serif" font-size="12" lengthAdjust="spacing" textLength="107" x="151" y="1833.748">dim.getHeight());</text><rect fill="#F1F1F1" height="33.9688" rx="12.5" ry="12.5" style="stroke:#181818;stroke-width:0.5;" width="112" x="233.5" y="1866.5781"/><text fill="#000000" font-family="sans-serif" font-size="12" lengthAdjust="spacing" textLength="92" x="243.5" y="1887.7168">tile.drawU(ug);</text><rect fill="#F1F1F1" height="33.9688" rx="12.5" ry="12.5" style="stroke:#181818;stroke-width:0.5;" width="303" x="138" y="1920.5469"/><text fill="#000000" font-family="sans-serif" font-size="12" lengthAdjust="spacing" textLength="283" x="148" y="1941.6855">final Real p=getNotePosition(stringBounder);</text><rect fill="#F1F1F1" height="47.9375" rx="12.5" ry="12.5" style="stroke:#181818;stroke-width:0.5;" width="330" x="124.5" y="2022.918"/><text fill="#000000" font-family="sans-serif" font-size="12" lengthAdjust="spacing" textLength="310" x="134.5" y="2044.0566">ug=ug.apply(UTranslate.dy(getYGauge().getMin()</text><text fill="#000000" font-family="sans-serif" font-size="12" lengthAdjust="spacing" textLength="131" x="134.5" y="2058.0254">.getCurrentValue()));</text><polygon fill="#F1F1F1" points="243,1974.5156,336,1974.5156,348,1986.5156,336,1998.5156,243,1998.5156,231,1986.5156,243,1974.5156" style="stroke:#181818;stroke-width:0.5;"/><text fill="#000000" font-family="sans-serif" font-size="11" lengthAdjust="spacing" textLength="20" x="293.5" y="2008.7261">yes</text><text fill="#000000" font-family="sans-serif" font-size="11" lengthAdjust="spacing" textLength="93" x="243" y="1990.3237">YGauge.USE_ME</text><polygon fill="#F1F1F1" points="289.5,2090.8555,301.5,2102.8555,289.5,2114.8555,277.5,2102.8555,289.5,2090.8555" style="stroke:#181818;stroke-width:0.5;"/><rect fill="#F1F1F1" height="47.9375" rx="12.5" ry="12.5" style="stroke:#181818;stroke-width:0.5;" width="390" x="94.5" y="2134.8555"/><text fill="#000000" font-family="sans-serif" font-size="12" lengthAdjust="spacing" textLength="370" x="104.5" y="2155.9941">comp.drawU(ug.apply(UTranslate.dx(p.getCurrentValue())),</text><text fill="#000000" font-family="sans-serif" font-size="12" lengthAdjust="spacing" textLength="137" x="104.5" y="2169.9629">area,(Context2D )ug);</text><ellipse cx="289.5" cy="2212.793" fill="none" rx="10" ry="10" style="stroke:#222222;stroke-width:1.5;"/><line style="stroke:#222222;stroke-width:2.5;" x1="283.3128" x2="295.6872" y1="2206.6058" y2="2218.9802"/><line style="stroke:#222222;stroke-width:2.5;" x1="295.6872" x2="283.3128" y1="2206.6058" y2="2218.9802"/><path d="M319.5,2232.793 L319.5,2241.3594 L299.5,2245.3594 L319.5,2249.3594 L319.5,2257.9258 A0,0 0 0 0 319.5,2257.9258 L519.5,2257.9258 A0,0 0 0 0 519.5,2257.9258 L519.5,2242.793 L509.5,2232.793 L319.5,2232.793 A0,0 0 0 0 319.5,2232.793 " fill="#FEFFDD" style="stroke:#181818;stroke-width:0.5;"/><path d="M509.5,2232.793 L509.5,2242.793 L519.5,2242.793 L509.5,2232.793 " fill="#FEFFDD" style="stroke:#181818;stroke-width:0.5;"/><text fill="#000000" font-family="sans-serif" font-size="13" lengthAdjust="spacing" textLength="179" x="325.5" y="2249.8599">double getPreferredHeight()</text><ellipse cx="289.5" cy="2245.3594" fill="#222222" rx="10" ry="10" style="stroke:#222222;stroke-width:1.0;"/><rect fill="#F1F1F1" height="33.9688" rx="12.5" ry="12.5" style="stroke:#181818;stroke-width:0.5;" width="398" x="90.5" y="2277.9258"/><text fill="#000000" font-family="sans-serif" font-size="12" lengthAdjust="spacing" textLength="378" x="100.5" y="2299.0645">final Component comp=getComponent(getStringBounder());</text><rect fill="#F1F1F1" height="33.9688" rx="12.5" ry="12.5" style="stroke:#181818;stroke-width:0.5;" width="493" x="43" y="2331.8945"/><text fill="#000000" font-family="sans-serif" font-size="12" lengthAdjust="spacing" textLength="473" x="53" y="2353.0332">final XDimension2D dim=comp.getPreferredDimension(getStringBounder());</text><rect fill="#F1F1F1" height="47.9375" rx="12.5" ry="12.5" style="stroke:#181818;stroke-width:0.5;" width="286" x="146.5" y="2385.8633"/><text fill="#000000" font-family="sans-serif" font-size="12" lengthAdjust="spacing" textLength="266" x="156.5" y="2407.002">return Math.max(tile.getPreferredHeight(),</text><text fill="#000000" font-family="sans-serif" font-size="12" lengthAdjust="spacing" textLength="107" x="156.5" y="2420.9707">dim.getHeight());</text><ellipse cx="289.5" cy="2464.8008" fill="none" rx="11" ry="11" style="stroke:#222222;stroke-width:1.0;"/><ellipse cx="289.5" cy="2464.8008" fill="#222222" rx="6" ry="6" style="stroke:#111111;stroke-width:1.0;"/><ellipse cx="289.5" cy="2495.8008" fill="none" rx="10" ry="10" style="stroke:#222222;stroke-width:1.5;"/><line style="stroke:#222222;stroke-width:2.5;" x1="283.3128" x2="295.6872" y1="2489.6136" y2="2501.988"/><line style="stroke:#222222;stroke-width:2.5;" x1="295.6872" x2="283.3128" y1="2489.6136" y2="2501.988"/><path d="M319.5,2515.8008 L319.5,2524.3672 L299.5,2528.3672 L319.5,2532.3672 L319.5,2540.9336 A0,0 0 0 0 319.5,2540.9336 L477.5,2540.9336 A0,0 0 0 0 477.5,2540.9336 L477.5,2525.8008 L467.5,2515.8008 L319.5,2515.8008 A0,0 0 0 0 319.5,2515.8008 " fill="#FEFFDD" style="stroke:#181818;stroke-width:0.5;"/><path d="M467.5,2515.8008 L467.5,2525.8008 L477.5,2525.8008 L467.5,2515.8008 " fill="#FEFFDD" style="stroke:#181818;stroke-width:0.5;"/><text fill="#000000" font-family="sans-serif" font-size="13" lengthAdjust="spacing" textLength="137" x="325.5" y="2532.8677">void addConstraints()</text><ellipse cx="289.5" cy="2528.3672" fill="#222222" rx="10" ry="10" style="stroke:#222222;stroke-width:1.0;"/><rect fill="#F1F1F1" height="33.9688" rx="12.5" ry="12.5" style="stroke:#181818;stroke-width:0.5;" width="153" x="213" y="2560.9336"/><text fill="#000000" font-family="sans-serif" font-size="12" lengthAdjust="spacing" textLength="133" x="223" y="2582.0723">tile.addConstraints();</text><ellipse cx="289.5" cy="2624.9023" fill="none" rx="10" ry="10" style="stroke:#222222;stroke-width:1.5;"/><line style="stroke:#222222;stroke-width:2.5;" x1="283.3128" x2="295.6872" y1="2618.7152" y2="2631.0895"/><line style="stroke:#222222;stroke-width:2.5;" x1="295.6872" x2="283.3128" y1="2618.7152" y2="2631.0895"/><path d="M319.5,2644.9023 L319.5,2653.4688 L299.5,2657.4688 L319.5,2661.4688 L319.5,2670.0352 A0,0 0 0 0 319.5,2670.0352 L432.5,2670.0352 A0,0 0 0 0 432.5,2670.0352 L432.5,2654.9023 L422.5,2644.9023 L319.5,2644.9023 A0,0 0 0 0 319.5,2644.9023 " fill="#FEFFDD" style="stroke:#181818;stroke-width:0.5;"/><path d="M422.5,2644.9023 L422.5,2654.9023 L432.5,2654.9023 L422.5,2644.9023 " fill="#FEFFDD" style="stroke:#181818;stroke-width:0.5;"/><text fill="#000000" font-family="sans-serif" font-size="13" lengthAdjust="spacing" textLength="92" x="325.5" y="2661.9692">Real getMinX()</text><ellipse cx="289.5" cy="2657.4688" fill="#222222" rx="10" ry="10" style="stroke:#222222;stroke-width:1.0;"/><rect fill="#F1F1F1" height="33.9688" rx="12.5" ry="12.5" style="stroke:#181818;stroke-width:0.5;" width="149" x="215" y="2690.0352"/><text fill="#000000" font-family="sans-serif" font-size="12" lengthAdjust="spacing" textLength="129" x="225" y="2711.1738">return tile.getMinX();</text><ellipse cx="289.5" cy="2755.0039" fill="none" rx="11" ry="11" style="stroke:#222222;stroke-width:1.0;"/><ellipse cx="289.5" cy="2755.0039" fill="#222222" rx="6" ry="6" style="stroke:#111111;stroke-width:1.0;"/><ellipse cx="289.5" cy="2786.0039" fill="none" rx="10" ry="10" style="stroke:#222222;stroke-width:1.5;"/><line style="stroke:#222222;stroke-width:2.5;" x1="283.3128" x2="295.6872" y1="2779.8167" y2="2792.1911"/><line style="stroke:#222222;stroke-width:2.5;" x1="295.6872" x2="283.3128" y1="2779.8167" y2="2792.1911"/><path d="M319.5,2806.0039 L319.5,2814.5703 L299.5,2818.5703 L319.5,2822.5703 L319.5,2831.1367 A0,0 0 0 0 319.5,2831.1367 L436.5,2831.1367 A0,0 0 0 0 436.5,2831.1367 L436.5,2816.0039 L426.5,2806.0039 L319.5,2806.0039 A0,0 0 0 0 319.5,2806.0039 " fill="#FEFFDD" style="stroke:#181818;stroke-width:0.5;"/><path d="M426.5,2806.0039 L426.5,2816.0039 L436.5,2816.0039 L426.5,2806.0039 " fill="#FEFFDD" style="stroke:#181818;stroke-width:0.5;"/><text fill="#000000" font-family="sans-serif" font-size="13" lengthAdjust="spacing" textLength="96" x="325.5" y="2823.0708">Real getMaxX()</text><ellipse cx="289.5" cy="2818.5703" fill="#222222" rx="10" ry="10" style="stroke:#222222;stroke-width:1.0;"/><rect fill="#F1F1F1" height="33.9688" rx="12.5" ry="12.5" style="stroke:#181818;stroke-width:0.5;" width="398" x="90.5" y="2851.1367"/><text fill="#000000" font-family="sans-serif" font-size="12" lengthAdjust="spacing" textLength="378" x="100.5" y="2872.2754">final Component comp=getComponent(getStringBounder());</text><rect fill="#F1F1F1" height="33.9688" rx="12.5" ry="12.5" style="stroke:#181818;stroke-width:0.5;" width="493" x="43" y="2905.1055"/><text fill="#000000" font-family="sans-serif" font-size="12" lengthAdjust="spacing" textLength="473" x="53" y="2926.2441">final XDimension2D dim=comp.getPreferredDimension(getStringBounder());</text><rect fill="#F1F1F1" height="47.9375" rx="12.5" ry="12.5" style="stroke:#181818;stroke-width:0.5;" width="295" x="142" y="2959.0742"/><text fill="#000000" font-family="sans-serif" font-size="12" lengthAdjust="spacing" textLength="275" x="152" y="2980.2129">return getNotePosition(getStringBounder())</text><text fill="#000000" font-family="sans-serif" font-size="12" lengthAdjust="spacing" textLength="166" x="152" y="2994.1816">.addFixed(dim.getWidth());</text><ellipse cx="289.5" cy="3038.0117" fill="none" rx="11" ry="11" style="stroke:#222222;stroke-width:1.0;"/><ellipse cx="289.5" cy="3038.0117" fill="#222222" rx="6" ry="6" style="stroke:#111111;stroke-width:1.0;"/><ellipse cx="289.5" cy="3069.0117" fill="none" rx="10" ry="10" style="stroke:#222222;stroke-width:1.5;"/><line style="stroke:#222222;stroke-width:2.5;" x1="283.3128" x2="295.6872" y1="3062.8245" y2="3075.1989"/><line style="stroke:#222222;stroke-width:2.5;" x1="295.6872" x2="283.3128" y1="3062.8245" y2="3075.1989"/><line style="stroke:#181818;stroke-width:1.0;" x1="289.5" x2="289.5" y1="32.5664" y2="55.1328"/><polygon fill="#181818" points="285.5,45.1328,289.5,55.1328,293.5,45.1328,289.5,49.1328" style="stroke:#181818;stroke-width:1.0;"/><line style="stroke:#181818;stroke-width:1.0;" x1="289.5" x2="289.5" y1="89.1016" y2="109.1016"/><polygon fill="#181818" points="285.5,99.1016,289.5,109.1016,293.5,99.1016,289.5,103.1016" style="stroke:#181818;stroke-width:1.0;"/><line style="stroke:#181818;stroke-width:1.0;" x1="289.5" x2="289.5" y1="193.668" y2="216.2344"/><polygon fill="#181818" points="285.5,206.2344,289.5,216.2344,293.5,206.2344,289.5,210.2344" style="stroke:#181818;stroke-width:1.0;"/><line style="stroke:#181818;stroke-width:1.0;" x1="289.5" x2="289.5" y1="250.2031" y2="270.2031"/><polygon fill="#181818" points="285.5,260.2031,289.5,270.2031,293.5,260.2031,289.5,264.2031" style="stroke:#181818;stroke-width:1.0;"/><line style="stroke:#181818;stroke-width:1.0;" x1="289.5" x2="289.5" y1="369.9023" y2="407.6016"/><polygon fill="#181818" points="285.5,397.6016,289.5,407.6016,293.5,397.6016,289.5,401.6016" style="stroke:#181818;stroke-width:1.0;"/><line style="stroke:#181818;stroke-width:1.0;" x1="289.5" x2="289.5" y1="455.5391" y2="475.5391"/><polygon fill="#181818" points="285.5,465.5391,289.5,475.5391,293.5,465.5391,289.5,469.5391" style="stroke:#181818;stroke-width:1.0;"/><line style="stroke:#181818;stroke-width:1.0;" x1="289.5" x2="289.5" y1="509.5078" y2="529.5078"/><polygon fill="#181818" points="285.5,519.5078,289.5,529.5078,293.5,519.5078,289.5,523.5078" style="stroke:#181818;stroke-width:1.0;"/><line style="stroke:#181818;stroke-width:1.0;" x1="289.5" x2="289.5" y1="563.4766" y2="583.4766"/><polygon fill="#181818" points="285.5,573.4766,289.5,583.4766,293.5,573.4766,289.5,577.4766" style="stroke:#181818;stroke-width:1.0;"/><line style="stroke:#181818;stroke-width:1.0;" x1="289.5" x2="289.5" y1="617.4453" y2="637.4453"/><polygon fill="#181818" points="285.5,627.4453,289.5,637.4453,293.5,627.4453,289.5,631.4453" style="stroke:#181818;stroke-width:1.0;"/><line style="stroke:#181818;stroke-width:1.0;" x1="289.5" x2="289.5" y1="671.4141" y2="691.4141"/><polygon fill="#181818" points="285.5,681.4141,289.5,691.4141,293.5,681.4141,289.5,685.4141" style="stroke:#181818;stroke-width:1.0;"/><line style="stroke:#181818;stroke-width:1.0;" x1="289.5" x2="289.5" y1="725.3828" y2="745.3828"/><polygon fill="#181818" points="285.5,735.3828,289.5,745.3828,293.5,735.3828,289.5,739.3828" style="stroke:#181818;stroke-width:1.0;"/><line style="stroke:#181818;stroke-width:1.0;" x1="289.5" x2="289.5" y1="793.3203" y2="813.3203"/><polygon fill="#181818" points="285.5,803.3203,289.5,813.3203,293.5,803.3203,289.5,807.3203" style="stroke:#181818;stroke-width:1.0;"/><line style="stroke:#181818;stroke-width:1.0;" x1="289.5" x2="289.5" y1="865.8867" y2="888.4531"/><polygon fill="#181818" points="285.5,878.4531,289.5,888.4531,293.5,878.4531,289.5,882.4531" style="stroke:#181818;stroke-width:1.0;"/><line style="stroke:#181818;stroke-width:1.0;" x1="289.5" x2="289.5" y1="922.4219" y2="942.4219"/><polygon fill="#181818" points="285.5,932.4219,289.5,942.4219,293.5,932.4219,289.5,936.4219" style="stroke:#181818;stroke-width:1.0;"/><line style="stroke:#181818;stroke-width:1.0;" x1="289.5" x2="289.5" y1="1026.9883" y2="1049.5547"/><polygon fill="#181818" points="285.5,1039.5547,289.5,1049.5547,293.5,1039.5547,289.5,1043.5547" style="stroke:#181818;stroke-width:1.0;"/><line style="stroke:#181818;stroke-width:1.0;" x1="289.5" x2="289.5" y1="1083.5234" y2="1103.5234"/><polygon fill="#181818" points="285.5,1093.5234,289.5,1103.5234,293.5,1093.5234,289.5,1097.5234" style="stroke:#181818;stroke-width:1.0;"/><line style="stroke:#181818;stroke-width:1.0;" x1="289.5" x2="289.5" y1="1137.4922" y2="1157.4922"/><polygon fill="#181818" points="285.5,1147.4922,289.5,1157.4922,293.5,1147.4922,289.5,1151.4922" style="stroke:#181818;stroke-width:1.0;"/><line style="stroke:#181818;stroke-width:1.0;" x1="289.5" x2="289.5" y1="1210.0586" y2="1232.625"/><polygon fill="#181818" points="285.5,1222.625,289.5,1232.625,293.5,1222.625,289.5,1226.625" style="stroke:#181818;stroke-width:1.0;"/><line style="stroke:#181818;stroke-width:1.0;" x1="289.5" x2="289.5" y1="1294.5313" y2="1314.5313"/><polygon fill="#181818" points="285.5,1304.5313,289.5,1314.5313,293.5,1304.5313,289.5,1308.5313" style="stroke:#181818;stroke-width:1.0;"/><line style="stroke:#181818;stroke-width:1.0;" x1="289.5" x2="289.5" y1="1348.5" y2="1368.5"/><polygon fill="#181818" points="285.5,1358.5,289.5,1368.5,293.5,1358.5,289.5,1362.5" style="stroke:#181818;stroke-width:1.0;"/><line style="stroke:#181818;stroke-width:1.0;" x1="289.5" x2="289.5" y1="1453.0664" y2="1475.6328"/><polygon fill="#181818" points="285.5,1465.6328,289.5,1475.6328,293.5,1465.6328,289.5,1469.6328" style="stroke:#181818;stroke-width:1.0;"/><line style="stroke:#181818;stroke-width:1.0;" x1="289.5" x2="289.5" y1="1509.6016" y2="1529.6016"/><polygon fill="#181818" points="285.5,1519.6016,289.5,1529.6016,293.5,1519.6016,289.5,1523.6016" style="stroke:#181818;stroke-width:1.0;"/><line style="stroke:#181818;stroke-width:1.0;" x1="289.5" x2="289.5" y1="1614.168" y2="1636.7344"/><polygon fill="#181818" points="285.5,1626.7344,289.5,1636.7344,293.5,1626.7344,289.5,1630.7344" style="stroke:#181818;stroke-width:1.0;"/><line style="stroke:#181818;stroke-width:1.0;" x1="289.5" x2="289.5" y1="1670.7031" y2="1690.7031"/><polygon fill="#181818" points="285.5,1680.7031,289.5,1690.7031,293.5,1680.7031,289.5,1684.7031" style="stroke:#181818;stroke-width:1.0;"/><line style="stroke:#181818;stroke-width:1.0;" x1="289.5" x2="289.5" y1="1724.6719" y2="1744.6719"/><polygon fill="#181818" points="285.5,1734.6719,289.5,1744.6719,293.5,1734.6719,289.5,1738.6719" style="stroke:#181818;stroke-width:1.0;"/><line style="stroke:#181818;stroke-width:1.0;" x1="289.5" x2="289.5" y1="1778.6406" y2="1798.6406"/><polygon fill="#181818" points="285.5,1788.6406,289.5,1798.6406,293.5,1788.6406,289.5,1792.6406" style="stroke:#181818;stroke-width:1.0;"/><line style="stroke:#181818;stroke-width:1.0;" x1="289.5" x2="289.5" y1="1846.5781" y2="1866.5781"/><polygon fill="#181818" points="285.5,1856.5781,289.5,1866.5781,293.5,1856.5781,289.5,1860.5781" style="stroke:#181818;stroke-width:1.0;"/><line style="stroke:#181818;stroke-width:1.0;" x1="289.5" x2="289.5" y1="1900.5469" y2="1920.5469"/><polygon fill="#181818" points="285.5,1910.5469,289.5,1920.5469,293.5,1910.5469,289.5,1914.5469" style="stroke:#181818;stroke-width:1.0;"/><line style="stroke:#181818;stroke-width:1.0;" x1="289.5" x2="289.5" y1="1998.5156" y2="2022.918"/><polygon fill="#181818" points="285.5,2012.918,289.5,2022.918,293.5,2012.918,289.5,2016.918" style="stroke:#181818;stroke-width:1.0;"/><line style="stroke:#181818;stroke-width:1.0;" x1="348" x2="464.5" y1="1986.5156" y2="1986.5156"/><polygon fill="#181818" points="460.5,2036.8867,464.5,2046.8867,468.5,2036.8867,464.5,2040.8867" style="stroke:#181818;stroke-width:1.0;"/><line style="stroke:#181818;stroke-width:1.0;" x1="464.5" x2="464.5" y1="1986.5156" y2="2102.8555"/><line style="stroke:#181818;stroke-width:1.0;" x1="464.5" x2="301.5" y1="2102.8555" y2="2102.8555"/><polygon fill="#181818" points="311.5,2098.8555,301.5,2102.8555,311.5,2106.8555,307.5,2102.8555" style="stroke:#181818;stroke-width:1.0;"/><line style="stroke:#181818;stroke-width:1.0;" x1="289.5" x2="289.5" y1="2070.8555" y2="2090.8555"/><polygon fill="#181818" points="285.5,2080.8555,289.5,2090.8555,293.5,2080.8555,289.5,2084.8555" style="stroke:#181818;stroke-width:1.0;"/><line style="stroke:#181818;stroke-width:1.0;" x1="289.5" x2="289.5" y1="1954.5156" y2="1974.5156"/><polygon fill="#181818" points="285.5,1964.5156,289.5,1974.5156,293.5,1964.5156,289.5,1968.5156" style="stroke:#181818;stroke-width:1.0;"/><line style="stroke:#181818;stroke-width:1.0;" x1="289.5" x2="289.5" y1="2114.8555" y2="2134.8555"/><polygon fill="#181818" points="285.5,2124.8555,289.5,2134.8555,293.5,2124.8555,289.5,2128.8555" style="stroke:#181818;stroke-width:1.0;"/><line style="stroke:#181818;stroke-width:1.0;" x1="289.5" x2="289.5" y1="2182.793" y2="2202.793"/><polygon fill="#181818" points="285.5,2192.793,289.5,2202.793,293.5,2192.793,289.5,2196.793" style="stroke:#181818;stroke-width:1.0;"/><line style="stroke:#181818;stroke-width:1.0;" x1="289.5" x2="289.5" y1="2255.3594" y2="2277.9258"/><polygon fill="#181818" points="285.5,2267.9258,289.5,2277.9258,293.5,2267.9258,289.5,2271.9258" style="stroke:#181818;stroke-width:1.0;"/><line style="stroke:#181818;stroke-width:1.0;" x1="289.5" x2="289.5" y1="2311.8945" y2="2331.8945"/><polygon fill="#181818" points="285.5,2321.8945,289.5,2331.8945,293.5,2321.8945,289.5,2325.8945" style="stroke:#181818;stroke-width:1.0;"/><line style="stroke:#181818;stroke-width:1.0;" x1="289.5" x2="289.5" y1="2365.8633" y2="2385.8633"/><polygon fill="#181818" points="285.5,2375.8633,289.5,2385.8633,293.5,2375.8633,289.5,2379.8633" style="stroke:#181818;stroke-width:1.0;"/><line style="stroke:#181818;stroke-width:1.0;" x1="289.5" x2="289.5" y1="2433.8008" y2="2453.8008"/><polygon fill="#181818" points="285.5,2443.8008,289.5,2453.8008,293.5,2443.8008,289.5,2447.8008" style="stroke:#181818;stroke-width:1.0;"/><line style="stroke:#181818;stroke-width:1.0;" x1="289.5" x2="289.5" y1="2538.3672" y2="2560.9336"/><polygon fill="#181818" points="285.5,2550.9336,289.5,2560.9336,293.5,2550.9336,289.5,2554.9336" style="stroke:#181818;stroke-width:1.0;"/><line style="stroke:#181818;stroke-width:1.0;" x1="289.5" x2="289.5" y1="2594.9023" y2="2614.9023"/><polygon fill="#181818" points="285.5,2604.9023,289.5,2614.9023,293.5,2604.9023,289.5,2608.9023" style="stroke:#181818;stroke-width:1.0;"/><line style="stroke:#181818;stroke-width:1.0;" x1="289.5" x2="289.5" y1="2667.4688" y2="2690.0352"/><polygon fill="#181818" points="285.5,2680.0352,289.5,2690.0352,293.5,2680.0352,289.5,2684.0352" style="stroke:#181818;stroke-width:1.0;"/><line style="stroke:#181818;stroke-width:1.0;" x1="289.5" x2="289.5" y1="2724.0039" y2="2744.0039"/><polygon fill="#181818" points="285.5,2734.0039,289.5,2744.0039,293.5,2734.0039,289.5,2738.0039" style="stroke:#181818;stroke-width:1.0;"/><line style="stroke:#181818;stroke-width:1.0;" x1="289.5" x2="289.5" y1="2828.5703" y2="2851.1367"/><polygon fill="#181818" points="285.5,2841.1367,289.5,2851.1367,293.5,2841.1367,289.5,2845.1367" style="stroke:#181818;stroke-width:1.0;"/><line style="stroke:#181818;stroke-width:1.0;" x1="289.5" x2="289.5" y1="2885.1055" y2="2905.1055"/><polygon fill="#181818" points="285.5,2895.1055,289.5,2905.1055,293.5,2895.1055,289.5,2899.1055" style="stroke:#181818;stroke-width:1.0;"/><line style="stroke:#181818;stroke-width:1.0;" x1="289.5" x2="289.5" y1="2939.0742" y2="2959.0742"/><polygon fill="#181818" points="285.5,2949.0742,289.5,2959.0742,293.5,2949.0742,289.5,2953.0742" style="stroke:#181818;stroke-width:1.0;"/><line style="stroke:#181818;stroke-width:1.0;" x1="289.5" x2="289.5" y1="3007.0117" y2="3027.0117"/><polygon fill="#181818" points="285.5,3017.0117,289.5,3027.0117,293.5,3017.0117,289.5,3021.0117" style="stroke:#181818;stroke-width:1.0;"/><!--MD5=[cdd4968e41c7771be8a5bbb05d50d9b0]
@startuml
!pragma layout smetana
start
note right
Event getEvent()
end note
:return message;;
stop
end
start
note right
double getContactPointRelative()
end note
:return tile.getContactPointRelative();;
stop
end
start
note right
constructor CommunicationTileSelfNoteRight(CommunicationTileSelf tile,
Message message,Rose skin,ISkinParam skinParam,
Note noteOnMessage,YGauge currentY)
end note
:super (((AbstractTile )tile).getStringBounder(),
currentY);;
:this.tile=tile;;
:this.message=message;;
:this.skin=skin;;
:this.skinParam=skinParam;;
:this.noteOnMessage=noteOnMessage;;
:this.yGauge=YGauge.create(currentY.getMax(),
getPreferredHeight());;
end
start
note right
YGauge getYGauge()
end note
:return yGauge;;
stop
end
start
note right
void callbackY_internal(TimeHook y)
end note
:super .callbackY_internal(y);;
:tile.callbackY(y);;
end
start
note right
Component getComponent(StringBounder stringBounder)
end note
:final Component comp=skin.createComponentNote(noteOnMessage.getUsedStyles(),
ComponentType.NOTE,noteOnMessage.getSkinParamBackcolored(skinParam),
noteOnMessage.getStrings(),noteOnMessage.getColors());;
:return comp;;
stop
end
start
note right
Real getNotePosition(StringBounder stringBounder)
end note
:return tile.getMaxX();;
stop
end
start
note right
void drawU(UGraphic ug)
end note
:final StringBounder stringBounder=ug.getStringBounder();;
:final Component comp=getComponent(stringBounder);;
:final XDimension2D dim=comp.getPreferredDimension(stringBounder);;
:final Area area=Area.create(dim.getWidth(),
dim.getHeight());;
:tile.drawU(ug);;
:final Real p=getNotePosition(stringBounder);;
if (YGauge.USE_ME) then (yes) 
:ug=ug.apply(UTranslate.dy(getYGauge().getMin()
.getCurrentValue()));;
endif 
:comp.drawU(ug.apply(UTranslate.dx(p.getCurrentValue())),
area,(Context2D )ug);;
end
start
note right
double getPreferredHeight()
end note
:final Component comp=getComponent(getStringBounder());;
:final XDimension2D dim=comp.getPreferredDimension(getStringBounder());;
:return Math.max(tile.getPreferredHeight(),
dim.getHeight());;
stop
end
start
note right
void addConstraints()
end note
:tile.addConstraints();;
end
start
note right
Real getMinX()
end note
:return tile.getMinX();;
stop
end
start
note right
Real getMaxX()
end note
:final Component comp=getComponent(getStringBounder());;
:final XDimension2D dim=comp.getPreferredDimension(getStringBounder());;
:return getNotePosition(getStringBounder())
.addFixed(dim.getWidth());;
stop
end
@enduml

PlantUML version 1.2022.7(Mon Aug 22 17:01:30 UTC 2022)
(GPL source distribution)
Java Runtime: OpenJDK Runtime Environment
JVM: OpenJDK 64-Bit Server VM
Default Encoding: UTF-8
Language: en
Country: null
--></g></svg>