<?xml version="1.0" encoding="UTF-8" standalone="no"?><svg xmlns="http://www.w3.org/2000/svg" xmlns:xlink="http://www.w3.org/1999/xlink" contentStyleType="text/css" height="333px" preserveAspectRatio="none" style="width:634px;height:333px;background:#FFFFFF;" version="1.1" viewBox="0 0 634 333" width="634px" zoomAndPan="magnify"><defs/><g><path d="M154,10 L154,18.5664 L134,22.5664 L154,26.5664 L154,35.1328 A0,0 0 0 0 154,35.1328 L549,35.1328 A0,0 0 0 0 549,35.1328 L549,20 L539,10 L154,10 A0,0 0 0 0 154,10 " fill="#FEFFDD" style="stroke:#181818;stroke-width:0.5;"/><path d="M539,10 L539,20 L549,20 L539,10 " fill="#FEFFDD" style="stroke:#181818;stroke-width:0.5;"/><text fill="#000000" font-family="sans-serif" font-size="13" lengthAdjust="spacing" textLength="374" x="160" y="27.0669">Collection&lt;CustomShapeDefinition&gt;getShapeDefinitions()</text><ellipse cx="124" cy="22.5664" fill="#222222" rx="10" ry="10" style="stroke:#222222;stroke-width:1.0;"/><rect fill="#F1F1F1" height="33.9688" rx="12.5" ry="12.5" style="stroke:#181818;stroke-width:0.5;" width="226" x="11" y="55.1328"/><text fill="#000000" font-family="sans-serif" font-size="12" lengthAdjust="spacing" textLength="206" x="21" y="76.2715">return shapeDefinitions.values();</text><ellipse cx="124" cy="120.1016" fill="none" rx="11" ry="11" style="stroke:#222222;stroke-width:1.0;"/><ellipse cx="124" cy="120.1016" fill="#222222" rx="6" ry="6" style="stroke:#111111;stroke-width:1.0;"/><ellipse cx="124" cy="151.1016" fill="none" rx="10" ry="10" style="stroke:#222222;stroke-width:1.5;"/><line style="stroke:#222222;stroke-width:2.5;" x1="117.8128" x2="130.1872" y1="144.9144" y2="157.2887"/><line style="stroke:#222222;stroke-width:2.5;" x1="130.1872" x2="117.8128" y1="144.9144" y2="157.2887"/><path d="M154,171.1016 L154,179.668 L134,183.668 L154,187.668 L154,196.2344 A0,0 0 0 0 154,196.2344 L622,196.2344 A0,0 0 0 0 622,196.2344 L622,181.1016 L612,171.1016 L154,171.1016 A0,0 0 0 0 154,171.1016 " fill="#FEFFDD" style="stroke:#181818;stroke-width:0.5;"/><path d="M612,171.1016 L612,181.1016 L622,181.1016 L612,171.1016 " fill="#FEFFDD" style="stroke:#181818;stroke-width:0.5;"/><text fill="#000000" font-family="sans-serif" font-size="13" lengthAdjust="spacing" textLength="447" x="160" y="188.1685">HashMap&lt;String,CustomShapeDefinition&gt;getShapeDefinitionsHash()</text><ellipse cx="124" cy="183.668" fill="#222222" rx="10" ry="10" style="stroke:#222222;stroke-width:1.0;"/><rect fill="#F1F1F1" height="33.9688" rx="12.5" ry="12.5" style="stroke:#181818;stroke-width:0.5;" width="172" x="38" y="216.2344"/><text fill="#000000" font-family="sans-serif" font-size="12" lengthAdjust="spacing" textLength="152" x="48" y="237.373">return shapeDefinitions;</text><ellipse cx="124" cy="281.2031" fill="none" rx="11" ry="11" style="stroke:#222222;stroke-width:1.0;"/><ellipse cx="124" cy="281.2031" fill="#222222" rx="6" ry="6" style="stroke:#111111;stroke-width:1.0;"/><ellipse cx="124" cy="312.2031" fill="none" rx="10" ry="10" style="stroke:#222222;stroke-width:1.5;"/><line style="stroke:#222222;stroke-width:2.5;" x1="117.8128" x2="130.1872" y1="306.0159" y2="318.3903"/><line style="stroke:#222222;stroke-width:2.5;" x1="130.1872" x2="117.8128" y1="306.0159" y2="318.3903"/><line style="stroke:#181818;stroke-width:1.0;" x1="124" x2="124" y1="32.5664" y2="55.1328"/><polygon fill="#181818" points="120,45.1328,124,55.1328,128,45.1328,124,49.1328" style="stroke:#181818;stroke-width:1.0;"/><line style="stroke:#181818;stroke-width:1.0;" x1="124" x2="124" y1="89.1016" y2="109.1016"/><polygon fill="#181818" points="120,99.1016,124,109.1016,128,99.1016,124,103.1016" style="stroke:#181818;stroke-width:1.0;"/><line style="stroke:#181818;stroke-width:1.0;" x1="124" x2="124" y1="193.668" y2="216.2344"/><polygon fill="#181818" points="120,206.2344,124,216.2344,128,206.2344,124,210.2344" style="stroke:#181818;stroke-width:1.0;"/><line style="stroke:#181818;stroke-width:1.0;" x1="124" x2="124" y1="250.2031" y2="270.2031"/><polygon fill="#181818" points="120,260.2031,124,270.2031,128,260.2031,124,264.2031" style="stroke:#181818;stroke-width:1.0;"/><!--MD5=[d8602145bcf545e124fbc46f87a8872c]
@startuml
!pragma layout smetana
start
note right
Collection<CustomShapeDefinition>getShapeDefinitions()
end note
:return shapeDefinitions.values();;
stop
end
start
note right
HashMap<String,CustomShapeDefinition>getShapeDefinitionsHash()
end note
:return shapeDefinitions;;
stop
end
@enduml

PlantUML version 1.2022.7(Mon Aug 22 17:01:30 UTC 2022)
(GPL source distribution)
Java Runtime: OpenJDK Runtime Environment
JVM: OpenJDK 64-Bit Server VM
Default Encoding: UTF-8
Language: en
Country: null
--></g></svg>