<?xml version="1.0" encoding="UTF-8" standalone="no"?><svg xmlns="http://www.w3.org/2000/svg" xmlns:xlink="http://www.w3.org/1999/xlink" contentStyleType="text/css" height="220px" preserveAspectRatio="none" style="width:308px;height:220px;background:#FFFFFF;" version="1.1" viewBox="0 0 308 220" width="308px" zoomAndPan="magnify"><defs/><g><!--MD5=[aa8f7b917213fcc1c2766e2d59b49067]
cluster java.lang--><g id="cluster_java.lang"><path d="M108.5,6 L178.5,6 A3.75,3.75 0 0 1 181,8.5 L188,28.2969 L197.5,28.2969 A2.5,2.5 0 0 1 200,30.7969 L200,86.5 A2.5,2.5 0 0 1 197.5,89 L108.5,89 A2.5,2.5 0 0 1 106,86.5 L106,8.5 A2.5,2.5 0 0 1 108.5,6 " fill="none" style="stroke:#000000;stroke-width:1.5;"/><line style="stroke:#000000;stroke-width:1.5;" x1="106" x2="188" y1="28.2969" y2="28.2969"/><text fill="#000000" font-family="sans-serif" font-size="14" font-weight="bold" lengthAdjust="spacing" textLength="69" x="110" y="20.9951">java.lang</text></g><!--MD5=[81e086cd43759d3599597b91683a3649]
cluster net.sourceforge.plantuml.preproc2--><g id="cluster_net.sourceforge.plantuml.preproc2"><path d="M8.5,97 L288.5,97 A3.75,3.75 0 0 1 291,99.5 L298,119.2969 L298.5,119.2969 A2.5,2.5 0 0 1 301,121.7969 L301,210.5 A2.5,2.5 0 0 1 298.5,213 L8.5,213 A2.5,2.5 0 0 1 6,210.5 L6,99.5 A2.5,2.5 0 0 1 8.5,97 " fill="none" style="stroke:#000000;stroke-width:1.5;"/><line style="stroke:#000000;stroke-width:1.5;" x1="6" x2="298" y1="119.2969" y2="119.2969"/><text fill="#000000" font-family="sans-serif" font-size="14" font-weight="bold" lengthAdjust="spacing" textLength="279" x="10" y="111.9951">net.sourceforge.plantuml.preproc2</text></g><!--MD5=[274ad5661286b626a93603d287cbf95a]
class java.lang.Object--><g id="elem_java.lang.Object"><rect fill="#F1F1F1" height="48" id="java.lang.Object" rx="2.5" ry="2.5" style="stroke:#181818;stroke-width:0.5;" width="77" x="114.5" y="33"/><ellipse cx="129.5" cy="49" fill="#ADD1B2" rx="11" ry="11" style="stroke:#181818;stroke-width:1.0;"/><path d="M132.4688,54.6406 Q131.8906,54.9375 131.25,55.0781 Q130.6094,55.2344 129.9063,55.2344 Q127.4063,55.2344 126.0781,53.5938 Q124.7656,51.9375 124.7656,48.8125 Q124.7656,45.6875 126.0781,44.0313 Q127.4063,42.375 129.9063,42.375 Q130.6094,42.375 131.25,42.5313 Q131.9063,42.6875 132.4688,42.9844 L132.4688,45.7031 Q131.8438,45.125 131.25,44.8594 Q130.6563,44.5781 130.0313,44.5781 Q128.6875,44.5781 128,45.6563 Q127.3125,46.7188 127.3125,48.8125 Q127.3125,50.9063 128,51.9844 Q128.6875,53.0469 130.0313,53.0469 Q130.6563,53.0469 131.25,52.7813 Q131.8438,52.5 132.4688,51.9219 L132.4688,54.6406 Z " fill="#000000"/><text fill="#000000" font-family="sans-serif" font-size="14" lengthAdjust="spacing" textLength="45" x="143.5" y="53.8467">Object</text><line style="stroke:#181818;stroke-width:0.5;" x1="115.5" x2="190.5" y1="65" y2="65"/><line style="stroke:#181818;stroke-width:0.5;" x1="115.5" x2="190.5" y1="73" y2="73"/></g><!--MD5=[fa9ed86a830ed6de4733891878a00c12]
class net.sourceforge.plantuml.preproc2.PreprocessorModeSet--><g id="elem_net.sourceforge.plantuml.preproc2.PreprocessorModeSet"><rect codeLine="3" fill="#F1F1F1" height="80.5938" id="net.sourceforge.plantuml.preproc2.PreprocessorModeSet" rx="2.5" ry="2.5" style="stroke:#181818;stroke-width:0.5;" width="258" x="24" y="124"/><ellipse cx="71.25" cy="140" fill="#ADD1B2" rx="11" ry="11" style="stroke:#181818;stroke-width:1.0;"/><path d="M74.2188,145.6406 Q73.6406,145.9375 73,146.0781 Q72.3594,146.2344 71.6563,146.2344 Q69.1563,146.2344 67.8281,144.5938 Q66.5156,142.9375 66.5156,139.8125 Q66.5156,136.6875 67.8281,135.0313 Q69.1563,133.375 71.6563,133.375 Q72.3594,133.375 73,133.5313 Q73.6563,133.6875 74.2188,133.9844 L74.2188,136.7031 Q73.5938,136.125 73,135.8594 Q72.4063,135.5781 71.7813,135.5781 Q70.4375,135.5781 69.75,136.6563 Q69.0625,137.7188 69.0625,139.8125 Q69.0625,141.9063 69.75,142.9844 Q70.4375,144.0469 71.7813,144.0469 Q72.4063,144.0469 73,143.7813 Q73.5938,143.5 74.2188,142.9219 L74.2188,145.6406 Z " fill="#000000"/><text fill="#000000" font-family="sans-serif" font-size="14" lengthAdjust="spacing" textLength="155" x="91.75" y="144.8467">PreprocessorModeSet</text><line style="stroke:#181818;stroke-width:0.5;" x1="25" x2="281" y1="156" y2="156"/><line style="stroke:#181818;stroke-width:0.5;" x1="25" x2="281" y1="164" y2="164"/><a href="./../../../../../.././qc/src/net/sourceforge/plantuml/preproc2/PreprocessorModeSet.java.html#42" target="_top" title="./../../../../../.././qc/src/net/sourceforge/plantuml/preproc2/PreprocessorModeSet.java.html#42" xlink:actuate="onRequest" xlink:href="./../../../../../.././qc/src/net/sourceforge/plantuml/preproc2/PreprocessorModeSet.java.html#42" xlink:show="new" xlink:title="./../../../../../.././qc/src/net/sourceforge/plantuml/preproc2/PreprocessorModeSet.java.html#42" xlink:type="simple"><rect fill="#F1F1F1" height="10" style="stroke:none;stroke-width:1.0;" width="20" x="30" y="172.6484"/><ellipse cx="35" cy="177.6484" fill="#84BE84" rx="3" ry="3" style="stroke:#038048;stroke-width:1.0;"/></a><a href="./../../../../../.././qc/src/net/sourceforge/plantuml/preproc2/PreprocessorModeSet.java.html#42" target="_top" title="./../../../../../.././qc/src/net/sourceforge/plantuml/preproc2/PreprocessorModeSet.java.html#42" xlink:actuate="onRequest" xlink:href="./../../../../../.././qc/src/net/sourceforge/plantuml/preproc2/PreprocessorModeSet.java.html#42" xlink:show="new" xlink:title="./../../../../../.././qc/src/net/sourceforge/plantuml/preproc2/PreprocessorModeSet.java.html#42" xlink:type="simple"><text fill="#000000" font-family="sans-serif" font-size="14" lengthAdjust="spacing" textLength="232" x="44" y="180.9951">getImportedFiles() : ImportedFiles</text></a><a href="./../../../../../.././qc/src/net/sourceforge/plantuml/preproc2/PreprocessorModeSet.java.html#44" target="_top" title="./../../../../../.././qc/src/net/sourceforge/plantuml/preproc2/PreprocessorModeSet.java.html#44" xlink:actuate="onRequest" xlink:href="./../../../../../.././qc/src/net/sourceforge/plantuml/preproc2/PreprocessorModeSet.java.html#44" xlink:show="new" xlink:title="./../../../../../.././qc/src/net/sourceforge/plantuml/preproc2/PreprocessorModeSet.java.html#44" xlink:type="simple"><rect fill="#F1F1F1" height="10" style="stroke:none;stroke-width:1.0;" width="20" x="30" y="188.9453"/><ellipse cx="35" cy="193.9453" fill="#84BE84" rx="3" ry="3" style="stroke:#038048;stroke-width:1.0;"/></a><a href="./../../../../../.././qc/src/net/sourceforge/plantuml/preproc2/PreprocessorModeSet.java.html#44" target="_top" title="./../../../../../.././qc/src/net/sourceforge/plantuml/preproc2/PreprocessorModeSet.java.html#44" xlink:actuate="onRequest" xlink:href="./../../../../../.././qc/src/net/sourceforge/plantuml/preproc2/PreprocessorModeSet.java.html#44" xlink:show="new" xlink:title="./../../../../../.././qc/src/net/sourceforge/plantuml/preproc2/PreprocessorModeSet.java.html#44" xlink:type="simple"><text fill="#000000" font-family="sans-serif" font-size="14" lengthAdjust="spacing" textLength="140" x="44" y="197.292">getCharset() : String</text></a></g><path d="M153,81.1524 C153,93.6475 153,109.4184 153,123.8064 " fill="none" style="stroke:#181818;stroke-width:1.0;"/><polygon fill="#FFFFFF" points="153,81.1524,147,97.1524,159,97.1524,153,81.1524" style="stroke:#181818;stroke-width:1.0;"/><!--MD5=[0267b4eefb32dfd6de03bbb73163ee22]
@startuml
!pragma layout smetana
"java.lang.Object" <|- - "net.sourceforge.plantuml.preproc2.PreprocessorModeSet"
class net.sourceforge.plantuml.preproc2.PreprocessorModeSet {
+getImportedFiles() : ImportedFiles [[[./../../../../../.././qc/src/net/sourceforge/plantuml/preproc2/PreprocessorModeSet.java.html#42]]]
+getCharset() : String [[[./../../../../../.././qc/src/net/sourceforge/plantuml/preproc2/PreprocessorModeSet.java.html#44]]]
} 
@enduml

PlantUML version 1.2022.7(Mon Aug 22 17:01:30 UTC 2022)
(GPL source distribution)
Java Runtime: OpenJDK Runtime Environment
JVM: OpenJDK 64-Bit Server VM
Default Encoding: UTF-8
Language: en
Country: null
--></g></svg>