<?xml version="1.0" encoding="UTF-8" standalone="no"?><svg xmlns="http://www.w3.org/2000/svg" xmlns:xlink="http://www.w3.org/1999/xlink" contentStyleType="text/css" height="186px" preserveAspectRatio="none" style="width:445px;height:186px;background:#FFFFFF;" version="1.1" viewBox="0 0 445 186" width="445px" zoomAndPan="magnify"><defs/><g><!--MD5=[81e086cd43759d3599597b91683a3649]
cluster net.sourceforge.plantuml.preproc2--><g id="cluster_net.sourceforge.plantuml.preproc2"><path d="M8.5,63 L288.5,63 A3.75,3.75 0 0 1 291,65.5 L298,85.2969 L435.5,85.2969 A2.5,2.5 0 0 1 438,87.7969 L438,176.5 A2.5,2.5 0 0 1 435.5,179 L8.5,179 A2.5,2.5 0 0 1 6,176.5 L6,65.5 A2.5,2.5 0 0 1 8.5,63 " fill="none" style="stroke:#000000;stroke-width:1.5;"/><line style="stroke:#000000;stroke-width:1.5;" x1="6" x2="298" y1="85.2969" y2="85.2969"/><text fill="#000000" font-family="sans-serif" font-size="14" font-weight="bold" lengthAdjust="spacing" textLength="279" x="10" y="77.9951">net.sourceforge.plantuml.preproc2</text></g><!--MD5=[8d710251a198b45d2ee55aa15c1d9520]
class ReadFilter--><g id="elem_ReadFilter"><rect fill="#F1F1F1" height="48" id="ReadFilter" rx="2.5" ry="2.5" style="stroke:#181818;stroke-width:0.5;" width="101" x="171.5" y="6"/><ellipse cx="186.5" cy="22" fill="#ADD1B2" rx="11" ry="11" style="stroke:#181818;stroke-width:1.0;"/><path d="M189.4688,27.6406 Q188.8906,27.9375 188.25,28.0781 Q187.6094,28.2344 186.9063,28.2344 Q184.4063,28.2344 183.0781,26.5938 Q181.7656,24.9375 181.7656,21.8125 Q181.7656,18.6875 183.0781,17.0313 Q184.4063,15.375 186.9063,15.375 Q187.6094,15.375 188.25,15.5313 Q188.9063,15.6875 189.4688,15.9844 L189.4688,18.7031 Q188.8438,18.125 188.25,17.8594 Q187.6563,17.5781 187.0313,17.5781 Q185.6875,17.5781 185,18.6563 Q184.3125,19.7188 184.3125,21.8125 Q184.3125,23.9063 185,24.9844 Q185.6875,26.0469 187.0313,26.0469 Q187.6563,26.0469 188.25,25.7813 Q188.8438,25.5 189.4688,24.9219 L189.4688,27.6406 Z " fill="#000000"/><text fill="#000000" font-family="sans-serif" font-size="14" lengthAdjust="spacing" textLength="69" x="200.5" y="26.8467">ReadFilter</text><line style="stroke:#181818;stroke-width:0.5;" x1="172.5" x2="271.5" y1="38" y2="38"/><line style="stroke:#181818;stroke-width:0.5;" x1="172.5" x2="271.5" y1="46" y2="46"/></g><!--MD5=[58eeb2c93e73ebd815d3c4b711ea38d0]
class net.sourceforge.plantuml.preproc2.ReadFilterAddConfig--><g id="elem_net.sourceforge.plantuml.preproc2.ReadFilterAddConfig"><rect codeLine="3" fill="#F1F1F1" height="80.5938" id="net.sourceforge.plantuml.preproc2.ReadFilterAddConfig" rx="2.5" ry="2.5" style="stroke:#181818;stroke-width:0.5;" width="416" x="14" y="90"/><ellipse cx="147.75" cy="106" fill="#ADD1B2" rx="11" ry="11" style="stroke:#181818;stroke-width:1.0;"/><path d="M150.7188,111.6406 Q150.1406,111.9375 149.5,112.0781 Q148.8594,112.2344 148.1563,112.2344 Q145.6563,112.2344 144.3281,110.5938 Q143.0156,108.9375 143.0156,105.8125 Q143.0156,102.6875 144.3281,101.0313 Q145.6563,99.375 148.1563,99.375 Q148.8594,99.375 149.5,99.5313 Q150.1563,99.6875 150.7188,99.9844 L150.7188,102.7031 Q150.0938,102.125 149.5,101.8594 Q148.9063,101.5781 148.2813,101.5781 Q146.9375,101.5781 146.25,102.6563 Q145.5625,103.7188 145.5625,105.8125 Q145.5625,107.9063 146.25,108.9844 Q146.9375,110.0469 148.2813,110.0469 Q148.9063,110.0469 149.5,109.7813 Q150.0938,109.5 150.7188,108.9219 L150.7188,111.6406 Z " fill="#000000"/><text fill="#000000" font-family="sans-serif" font-size="14" lengthAdjust="spacing" textLength="140" x="168.25" y="110.8467">ReadFilterAddConfig</text><line style="stroke:#181818;stroke-width:0.5;" x1="15" x2="429" y1="122" y2="122"/><line style="stroke:#181818;stroke-width:0.5;" x1="15" x2="429" y1="130" y2="130"/><a href="./../../../../../.././qc/src/net/sourceforge/plantuml/preproc2/ReadFilterAddConfig.java.html#50" target="_top" title="./../../../../../.././qc/src/net/sourceforge/plantuml/preproc2/ReadFilterAddConfig.java.html#50" xlink:actuate="onRequest" xlink:href="./../../../../../.././qc/src/net/sourceforge/plantuml/preproc2/ReadFilterAddConfig.java.html#50" xlink:show="new" xlink:title="./../../../../../.././qc/src/net/sourceforge/plantuml/preproc2/ReadFilterAddConfig.java.html#50" xlink:type="simple"><rect fill="#F1F1F1" height="10" style="stroke:none;stroke-width:1.0;" width="20" x="20" y="138.6484"/><ellipse cx="25" cy="143.6484" fill="#84BE84" rx="3" ry="3" style="stroke:#038048;stroke-width:1.0;"/></a><a href="./../../../../../.././qc/src/net/sourceforge/plantuml/preproc2/ReadFilterAddConfig.java.html#50" target="_top" title="./../../../../../.././qc/src/net/sourceforge/plantuml/preproc2/ReadFilterAddConfig.java.html#50" xlink:actuate="onRequest" xlink:href="./../../../../../.././qc/src/net/sourceforge/plantuml/preproc2/ReadFilterAddConfig.java.html#50" xlink:show="new" xlink:title="./../../../../../.././qc/src/net/sourceforge/plantuml/preproc2/ReadFilterAddConfig.java.html#50" xlink:type="simple"><text fill="#000000" font-family="sans-serif" font-size="14" lengthAdjust="spacing" textLength="390" x="34" y="146.9951">ReadFilterAddConfig(List&lt;String&gt;) : ReadFilterAddConfig</text></a><a href="./../../../../../.././qc/src/net/sourceforge/plantuml/preproc2/ReadFilterAddConfig.java.html#54" target="_top" title="./../../../../../.././qc/src/net/sourceforge/plantuml/preproc2/ReadFilterAddConfig.java.html#54" xlink:actuate="onRequest" xlink:href="./../../../../../.././qc/src/net/sourceforge/plantuml/preproc2/ReadFilterAddConfig.java.html#54" xlink:show="new" xlink:title="./../../../../../.././qc/src/net/sourceforge/plantuml/preproc2/ReadFilterAddConfig.java.html#54" xlink:type="simple"><rect fill="#F1F1F1" height="10" style="stroke:none;stroke-width:1.0;" width="20" x="20" y="154.9453"/><ellipse cx="25" cy="159.9453" fill="#84BE84" rx="3" ry="3" style="stroke:#038048;stroke-width:1.0;"/></a><a href="./../../../../../.././qc/src/net/sourceforge/plantuml/preproc2/ReadFilterAddConfig.java.html#54" target="_top" title="./../../../../../.././qc/src/net/sourceforge/plantuml/preproc2/ReadFilterAddConfig.java.html#54" xlink:actuate="onRequest" xlink:href="./../../../../../.././qc/src/net/sourceforge/plantuml/preproc2/ReadFilterAddConfig.java.html#54" xlink:show="new" xlink:title="./../../../../../.././qc/src/net/sourceforge/plantuml/preproc2/ReadFilterAddConfig.java.html#54" xlink:type="simple"><text fill="#000000" font-family="sans-serif" font-size="14" lengthAdjust="spacing" textLength="220" x="34" y="163.292">applyFilter(ReadLine) : ReadLine</text></a></g><path d="M222,54.0939 C222,64.784 222,77.7904 222,89.9706 " fill="none" style="stroke:#181818;stroke-width:1.0;"/><polygon fill="#FFFFFF" points="222,54.0939,216,70.0939,228,70.0939,222,54.0939" style="stroke:#181818;stroke-width:1.0;"/><!--MD5=[623c45a9363c3d821ba2c246665e5034]
@startuml
!pragma layout smetana
"ReadFilter" <|- - "net.sourceforge.plantuml.preproc2.ReadFilterAddConfig"
class net.sourceforge.plantuml.preproc2.ReadFilterAddConfig {
+ReadFilterAddConfig(List<String>) : ReadFilterAddConfig [[[./../../../../../.././qc/src/net/sourceforge/plantuml/preproc2/ReadFilterAddConfig.java.html#50]]]
+applyFilter(ReadLine) : ReadLine [[[./../../../../../.././qc/src/net/sourceforge/plantuml/preproc2/ReadFilterAddConfig.java.html#54]]]
} 
@enduml

PlantUML version 1.2022.7(Mon Aug 22 17:01:30 UTC 2022)
(GPL source distribution)
Java Runtime: OpenJDK Runtime Environment
JVM: OpenJDK 64-Bit Server VM
Default Encoding: UTF-8
Language: en
Country: null
--></g></svg>