<?xml version="1.0" encoding="UTF-8" standalone="no"?><svg xmlns="http://www.w3.org/2000/svg" xmlns:xlink="http://www.w3.org/1999/xlink" contentStyleType="text/css" height="4202px" preserveAspectRatio="none" style="width:573px;height:4202px;background:#FFFFFF;" version="1.1" viewBox="0 0 573 4202" width="573px" zoomAndPan="magnify"><defs/><g><rect fill="#F1F1F1" height="33.9688" rx="12.5" ry="12.5" style="stroke:#181818;stroke-width:0.5;" width="212" x="105" y="11"/><text fill="#000000" font-family="sans-serif" font-size="12" lengthAdjust="spacing" textLength="192" x="115" y="32.1387">encode6bit[b]=encode6bit(b);</text><rect fill="#F1F1F1" height="33.9688" rx="12.5" ry="12.5" style="stroke:#181818;stroke-width:0.5;" width="212" x="105" y="64.9688"/><text fill="#000000" font-family="sans-serif" font-size="12" lengthAdjust="spacing" textLength="192" x="115" y="86.1074">decode6bit[encode6bit[b]]=b;</text><path d="M241,116.3711 L241,124.9375 L221,128.9375 L241,132.9375 L241,141.5039 A0,0 0 0 0 241,141.5039 L424,141.5039 A0,0 0 0 0 424,141.5039 L424,126.3711 L414,116.3711 L241,116.3711 A0,0 0 0 0 241,116.3711 " fill="#FEFFDD" style="stroke:#181818;stroke-width:0.5;"/><path d="M414,116.3711 L414,126.3711 L424,126.3711 L414,116.3711 " fill="#FEFFDD" style="stroke:#181818;stroke-width:0.5;"/><text fill="#000000" font-family="sans-serif" font-size="13" lengthAdjust="spacing" textLength="162" x="247" y="133.438">Stringencode(byte[]data)</text><ellipse cx="211" cy="128.9375" fill="#222222" rx="10" ry="10" style="stroke:#222222;stroke-width:1.0;"/><rect fill="#F1F1F1" height="33.9688" rx="12.5" ry="12.5" style="stroke:#181818;stroke-width:0.5;" width="77" x="172.5" y="209.9063"/><text fill="#000000" font-family="sans-serif" font-size="12" lengthAdjust="spacing" textLength="57" x="182.5" y="231.0449">return "";</text><ellipse cx="211" cy="283.3906" fill="none" rx="11" ry="11" style="stroke:#222222;stroke-width:1.0;"/><ellipse cx="211" cy="283.3906" fill="#222222" rx="6" ry="6" style="stroke:#111111;stroke-width:1.0;"/><polygon fill="#F1F1F1" points="177.5,161.5039,244.5,161.5039,256.5,173.5039,244.5,185.5039,177.5,185.5039,165.5,173.5039,177.5,161.5039" style="stroke:#181818;stroke-width:0.5;"/><text fill="#000000" font-family="sans-serif" font-size="11" lengthAdjust="spacing" textLength="20" x="215" y="195.7144">yes</text><text fill="#000000" font-family="sans-serif" font-size="11" lengthAdjust="spacing" textLength="63" x="177.5" y="177.312">data==null</text><rect fill="#F1F1F1" height="47.9375" rx="12.5" ry="12.5" style="stroke:#181818;stroke-width:0.5;" width="392" x="15" y="336.3906"/><text fill="#000000" font-family="sans-serif" font-size="12" lengthAdjust="spacing" textLength="372" x="25" y="357.5293">final StringBuilderresult=new StringBuilder((data.length*4+</text><text fill="#000000" font-family="sans-serif" font-size="12" lengthAdjust="spacing" textLength="34" x="25" y="371.498">2)/3);</text><rect fill="#F1F1F1" height="47.9375" rx="12.5" ry="12.5" style="stroke:#181818;stroke-width:0.5;" width="400" x="11" y="404.3281"/><text fill="#000000" font-family="sans-serif" font-size="12" lengthAdjust="spacing" textLength="380" x="21" y="425.4668">append3bytes(result,data[i]&amp;0xFF,i+1&lt;data.length? data[i+</text><text fill="#000000" font-family="sans-serif" font-size="12" lengthAdjust="spacing" textLength="300" x="21" y="439.4355">1]&amp;0xFF:0,i+2&lt;data.length? data[i+2]&amp;0xFF:0);</text><rect fill="#F1F1F1" height="33.9688" rx="12.5" ry="12.5" style="stroke:#181818;stroke-width:0.5;" width="167" x="127.5" y="472.2656"/><text fill="#000000" font-family="sans-serif" font-size="12" lengthAdjust="spacing" textLength="147" x="137.5" y="493.4043">return result.toString();</text><ellipse cx="211" cy="537.2344" fill="none" rx="11" ry="11" style="stroke:#222222;stroke-width:1.0;"/><ellipse cx="211" cy="537.2344" fill="#222222" rx="6" ry="6" style="stroke:#111111;stroke-width:1.0;"/><ellipse cx="211" cy="568.2344" fill="none" rx="10" ry="10" style="stroke:#222222;stroke-width:1.5;"/><line style="stroke:#222222;stroke-width:2.5;" x1="204.8128" x2="217.1872" y1="562.0472" y2="574.4216"/><line style="stroke:#222222;stroke-width:2.5;" x1="217.1872" x2="204.8128" y1="562.0472" y2="574.4216"/><path d="M241,588.2344 L241,596.8008 L221,600.8008 L241,604.8008 L241,613.3672 A0,0 0 0 0 241,613.3672 L402,613.3672 A0,0 0 0 0 402,613.3672 L402,598.2344 L392,588.2344 L241,588.2344 A0,0 0 0 0 241,588.2344 " fill="#FEFFDD" style="stroke:#181818;stroke-width:0.5;"/><path d="M392,588.2344 L392,598.2344 L402,598.2344 L392,588.2344 " fill="#FEFFDD" style="stroke:#181818;stroke-width:0.5;"/><text fill="#000000" font-family="sans-serif" font-size="13" lengthAdjust="spacing" textLength="140" x="247" y="605.3013">byte[]decode(Strings)</text><ellipse cx="211" cy="600.8008" fill="#222222" rx="10" ry="10" style="stroke:#222222;stroke-width:1.0;"/><rect fill="#F1F1F1" height="33.9688" rx="12.5" ry="12.5" style="stroke:#181818;stroke-width:0.5;" width="346" x="38" y="633.3672"/><text fill="#000000" font-family="sans-serif" font-size="12" lengthAdjust="spacing" textLength="326" x="48" y="654.5059">final bytedata[]=new byte[computeSize(s.length())];</text><rect fill="#F1F1F1" height="33.9688" rx="12.5" ry="12.5" style="stroke:#181818;stroke-width:0.5;" width="81" x="170.5" y="687.3359"/><text fill="#000000" font-family="sans-serif" font-size="12" lengthAdjust="spacing" textLength="61" x="180.5" y="708.4746">intpos=0;</text><rect fill="#F1F1F1" height="47.9375" rx="12.5" ry="12.5" style="stroke:#181818;stroke-width:0.5;" width="327" x="47.5" y="741.3047"/><text fill="#000000" font-family="sans-serif" font-size="12" lengthAdjust="spacing" textLength="307" x="57.5" y="762.4434">decode3bytes(data,pos,scharAt(s,i),scharAt(s,i+</text><text fill="#000000" font-family="sans-serif" font-size="12" lengthAdjust="spacing" textLength="210" x="57.5" y="776.4121">1),scharAt(s,i+2),scharAt(s,i+3));</text><rect fill="#F1F1F1" height="33.9688" rx="12.5" ry="12.5" style="stroke:#181818;stroke-width:0.5;" width="75" x="173.5" y="809.2422"/><text fill="#000000" font-family="sans-serif" font-size="12" lengthAdjust="spacing" textLength="55" x="183.5" y="830.3809">pos+=3;</text><rect fill="#F1F1F1" height="33.9688" rx="12.5" ry="12.5" style="stroke:#181818;stroke-width:0.5;" width="96" x="163" y="863.2109"/><text fill="#000000" font-family="sans-serif" font-size="12" lengthAdjust="spacing" textLength="76" x="173" y="884.3496">return data;</text><ellipse cx="211" cy="928.1797" fill="none" rx="11" ry="11" style="stroke:#222222;stroke-width:1.0;"/><ellipse cx="211" cy="928.1797" fill="#222222" rx="6" ry="6" style="stroke:#111111;stroke-width:1.0;"/><ellipse cx="211" cy="959.1797" fill="none" rx="10" ry="10" style="stroke:#222222;stroke-width:1.5;"/><line style="stroke:#222222;stroke-width:2.5;" x1="204.8128" x2="217.1872" y1="952.9925" y2="965.3669"/><line style="stroke:#222222;stroke-width:2.5;" x1="217.1872" x2="204.8128" y1="952.9925" y2="965.3669"/><path d="M241,979.1797 L241,987.7461 L221,991.7461 L241,995.7461 L241,1004.3125 A0,0 0 0 0 241,1004.3125 L428,1004.3125 A0,0 0 0 0 428,1004.3125 L428,989.1797 L418,979.1797 L241,979.1797 A0,0 0 0 0 241,979.1797 " fill="#FEFFDD" style="stroke:#181818;stroke-width:0.5;"/><path d="M418,979.1797 L418,989.1797 L428,989.1797 L418,979.1797 " fill="#FEFFDD" style="stroke:#181818;stroke-width:0.5;"/><text fill="#000000" font-family="sans-serif" font-size="13" lengthAdjust="spacing" textLength="166" x="247" y="996.2466">intcomputeSize(intlength)</text><ellipse cx="211" cy="991.7461" fill="#222222" rx="10" ry="10" style="stroke:#222222;stroke-width:1.0;"/><rect fill="#F1F1F1" height="33.9688" rx="12.5" ry="12.5" style="stroke:#181818;stroke-width:0.5;" width="144" x="139" y="1024.3125"/><text fill="#000000" font-family="sans-serif" font-size="12" lengthAdjust="spacing" textLength="124" x="149" y="1045.4512">final intr=length%4;</text><rect fill="#F1F1F1" height="33.9688" rx="12.5" ry="12.5" style="stroke:#181818;stroke-width:0.5;" width="101" x="160.5" y="1126.6836"/><text fill="#000000" font-family="sans-serif" font-size="12" lengthAdjust="spacing" textLength="81" x="170.5" y="1147.8223">length+=4-r;</text><polygon fill="#F1F1F1" points="199,1078.2813,223,1078.2813,235,1090.2813,223,1102.2813,199,1102.2813,187,1090.2813,199,1078.2813" style="stroke:#181818;stroke-width:0.5;"/><text fill="#000000" font-family="sans-serif" font-size="11" lengthAdjust="spacing" textLength="20" x="215" y="1112.4917">yes</text><text fill="#000000" font-family="sans-serif" font-size="11" lengthAdjust="spacing" textLength="24" x="199" y="1094.0894">r!=0</text><polygon fill="#F1F1F1" points="211,1180.6523,223,1192.6523,211,1204.6523,199,1192.6523,211,1180.6523" style="stroke:#181818;stroke-width:0.5;"/><rect fill="#F1F1F1" height="47.9375" rx="12.5" ry="12.5" style="stroke:#181818;stroke-width:0.5;" width="322" x="50" y="1224.6523"/><text fill="#000000" font-family="sans-serif" font-size="12" lengthAdjust="spacing" textLength="302" x="60" y="1245.791">assert length%4==0:String.valueOf("length=")+</text><text fill="#000000" font-family="sans-serif" font-size="12" lengthAdjust="spacing" textLength="44" x="60" y="1259.7598">length;</text><rect fill="#F1F1F1" height="33.9688" rx="12.5" ry="12.5" style="stroke:#181818;stroke-width:0.5;" width="161" x="130.5" y="1292.5898"/><text fill="#000000" font-family="sans-serif" font-size="12" lengthAdjust="spacing" textLength="141" x="140.5" y="1313.7285">return (length*3+3)/4;</text><ellipse cx="211" cy="1357.5586" fill="none" rx="11" ry="11" style="stroke:#222222;stroke-width:1.0;"/><ellipse cx="211" cy="1357.5586" fill="#222222" rx="6" ry="6" style="stroke:#111111;stroke-width:1.0;"/><ellipse cx="211" cy="1388.5586" fill="none" rx="10" ry="10" style="stroke:#222222;stroke-width:1.5;"/><line style="stroke:#222222;stroke-width:2.5;" x1="204.8128" x2="217.1872" y1="1382.3714" y2="1394.7458"/><line style="stroke:#222222;stroke-width:2.5;" x1="217.1872" x2="204.8128" y1="1382.3714" y2="1394.7458"/><path d="M241,1408.5586 L241,1417.125 L221,1421.125 L241,1425.125 L241,1433.6914 A0,0 0 0 0 241,1433.6914 L417,1433.6914 A0,0 0 0 0 417,1433.6914 L417,1418.5586 L407,1408.5586 L241,1408.5586 A0,0 0 0 0 241,1408.5586 " fill="#FEFFDD" style="stroke:#181818;stroke-width:0.5;"/><path d="M407,1408.5586 L407,1418.5586 L417,1418.5586 L407,1408.5586 " fill="#FEFFDD" style="stroke:#181818;stroke-width:0.5;"/><text fill="#000000" font-family="sans-serif" font-size="13" lengthAdjust="spacing" textLength="155" x="247" y="1425.6255">charscharAt(Strings,inti)</text><ellipse cx="211" cy="1421.125" fill="#222222" rx="10" ry="10" style="stroke:#222222;stroke-width:1.0;"/><rect fill="#F1F1F1" height="33.9688" rx="12.5" ry="12.5" style="stroke:#181818;stroke-width:0.5;" width="81" x="170.5" y="1502.0938"/><text fill="#000000" font-family="sans-serif" font-size="12" lengthAdjust="spacing" textLength="61" x="180.5" y="1523.2324">return 'A';</text><ellipse cx="211" cy="1575.5781" fill="none" rx="11" ry="11" style="stroke:#222222;stroke-width:1.0;"/><ellipse cx="211" cy="1575.5781" fill="#222222" rx="6" ry="6" style="stroke:#111111;stroke-width:1.0;"/><polygon fill="#F1F1F1" points="173.5,1453.6914,248.5,1453.6914,260.5,1465.6914,248.5,1477.6914,173.5,1477.6914,161.5,1465.6914,173.5,1453.6914" style="stroke:#181818;stroke-width:0.5;"/><text fill="#000000" font-family="sans-serif" font-size="11" lengthAdjust="spacing" textLength="20" x="215" y="1487.9019">yes</text><text fill="#000000" font-family="sans-serif" font-size="11" lengthAdjust="spacing" textLength="75" x="173.5" y="1469.4995">i&gt;=s.length()</text><rect fill="#F1F1F1" height="33.9688" rx="12.5" ry="12.5" style="stroke:#181818;stroke-width:0.5;" width="132" x="145" y="1628.5781"/><text fill="#000000" font-family="sans-serif" font-size="12" lengthAdjust="spacing" textLength="112" x="155" y="1649.7168">return s.charAt(i);</text><ellipse cx="211" cy="1693.5469" fill="none" rx="11" ry="11" style="stroke:#222222;stroke-width:1.0;"/><ellipse cx="211" cy="1693.5469" fill="#222222" rx="6" ry="6" style="stroke:#111111;stroke-width:1.0;"/><ellipse cx="211" cy="1724.5469" fill="none" rx="10" ry="10" style="stroke:#222222;stroke-width:1.5;"/><line style="stroke:#222222;stroke-width:2.5;" x1="204.8128" x2="217.1872" y1="1718.3597" y2="1730.7341"/><line style="stroke:#222222;stroke-width:2.5;" x1="217.1872" x2="204.8128" y1="1718.3597" y2="1730.7341"/><path d="M241,1744.5469 L241,1753.1133 L221,1757.1133 L241,1761.1133 L241,1769.6797 A0,0 0 0 0 241,1769.6797 L394,1769.6797 A0,0 0 0 0 394,1769.6797 L394,1754.5469 L384,1744.5469 L241,1744.5469 A0,0 0 0 0 241,1744.5469 " fill="#FEFFDD" style="stroke:#181818;stroke-width:0.5;"/><path d="M384,1744.5469 L384,1754.5469 L394,1754.5469 L384,1744.5469 " fill="#FEFFDD" style="stroke:#181818;stroke-width:0.5;"/><text fill="#000000" font-family="sans-serif" font-size="13" lengthAdjust="spacing" textLength="132" x="247" y="1761.6138">intdecode6bit(charc)</text><ellipse cx="211" cy="1757.1133" fill="#222222" rx="10" ry="10" style="stroke:#222222;stroke-width:1.0;"/><rect fill="#F1F1F1" height="33.9688" rx="12.5" ry="12.5" style="stroke:#181818;stroke-width:0.5;" width="155" x="133.5" y="1789.6797"/><text fill="#000000" font-family="sans-serif" font-size="12" lengthAdjust="spacing" textLength="135" x="143.5" y="1810.8184">return decode6bit[c];</text><ellipse cx="211" cy="1854.6484" fill="none" rx="11" ry="11" style="stroke:#222222;stroke-width:1.0;"/><ellipse cx="211" cy="1854.6484" fill="#222222" rx="6" ry="6" style="stroke:#111111;stroke-width:1.0;"/><ellipse cx="211" cy="1885.6484" fill="none" rx="10" ry="10" style="stroke:#222222;stroke-width:1.5;"/><line style="stroke:#222222;stroke-width:2.5;" x1="204.8128" x2="217.1872" y1="1879.4613" y2="1891.8356"/><line style="stroke:#222222;stroke-width:2.5;" x1="217.1872" x2="204.8128" y1="1879.4613" y2="1891.8356"/><path d="M241,1905.6484 L241,1914.2148 L221,1918.2148 L241,1922.2148 L241,1930.7813 A0,0 0 0 0 241,1930.7813 L407,1930.7813 A0,0 0 0 0 407,1930.7813 L407,1915.6484 L397,1905.6484 L241,1905.6484 A0,0 0 0 0 241,1905.6484 " fill="#FEFFDD" style="stroke:#181818;stroke-width:0.5;"/><path d="M397,1905.6484 L397,1915.6484 L407,1915.6484 L397,1905.6484 " fill="#FEFFDD" style="stroke:#181818;stroke-width:0.5;"/><text fill="#000000" font-family="sans-serif" font-size="13" lengthAdjust="spacing" textLength="145" x="247" y="1922.7153">charencode6bit(byteb)</text><ellipse cx="211" cy="1918.2148" fill="#222222" rx="10" ry="10" style="stroke:#222222;stroke-width:1.0;"/><rect fill="#F1F1F1" height="33.9688" rx="12.5" ry="12.5" style="stroke:#181818;stroke-width:0.5;" width="158" x="132" y="1950.7813"/><text fill="#000000" font-family="sans-serif" font-size="12" lengthAdjust="spacing" textLength="138" x="142" y="1971.9199">assert b&gt;=0&amp;&amp;b&lt;64;</text><rect fill="#F1F1F1" height="33.9688" rx="12.5" ry="12.5" style="stroke:#181818;stroke-width:0.5;" width="147" x="137.5" y="2053.1523"/><text fill="#000000" font-family="sans-serif" font-size="12" lengthAdjust="spacing" textLength="127" x="147.5" y="2074.291">return (char)('A'+b);</text><ellipse cx="211" cy="2126.6367" fill="none" rx="11" ry="11" style="stroke:#222222;stroke-width:1.0;"/><ellipse cx="211" cy="2126.6367" fill="#222222" rx="6" ry="6" style="stroke:#111111;stroke-width:1.0;"/><polygon fill="#F1F1F1" points="196,2004.75,226,2004.75,238,2016.75,226,2028.75,196,2028.75,184,2016.75,196,2004.75" style="stroke:#181818;stroke-width:0.5;"/><text fill="#000000" font-family="sans-serif" font-size="11" lengthAdjust="spacing" textLength="20" x="215" y="2038.9604">yes</text><text fill="#000000" font-family="sans-serif" font-size="11" lengthAdjust="spacing" textLength="30" x="196" y="2020.5581">b&lt;26</text><rect fill="#F1F1F1" height="33.9688" rx="12.5" ry="12.5" style="stroke:#181818;stroke-width:0.5;" width="62" x="180" y="2179.6367"/><text fill="#000000" font-family="sans-serif" font-size="12" lengthAdjust="spacing" textLength="42" x="190" y="2200.7754">b-=26;</text><rect fill="#F1F1F1" height="33.9688" rx="12.5" ry="12.5" style="stroke:#181818;stroke-width:0.5;" width="147" x="137.5" y="2282.0078"/><text fill="#000000" font-family="sans-serif" font-size="12" lengthAdjust="spacing" textLength="127" x="147.5" y="2303.1465">return (char)('a'+b);</text><ellipse cx="211" cy="2355.4922" fill="none" rx="11" ry="11" style="stroke:#222222;stroke-width:1.0;"/><ellipse cx="211" cy="2355.4922" fill="#222222" rx="6" ry="6" style="stroke:#111111;stroke-width:1.0;"/><polygon fill="#F1F1F1" points="196,2233.6055,226,2233.6055,238,2245.6055,226,2257.6055,196,2257.6055,184,2245.6055,196,2233.6055" style="stroke:#181818;stroke-width:0.5;"/><text fill="#000000" font-family="sans-serif" font-size="11" lengthAdjust="spacing" textLength="20" x="215" y="2267.8159">yes</text><text fill="#000000" font-family="sans-serif" font-size="11" lengthAdjust="spacing" textLength="30" x="196" y="2249.4136">b&lt;26</text><rect fill="#F1F1F1" height="33.9688" rx="12.5" ry="12.5" style="stroke:#181818;stroke-width:0.5;" width="62" x="180" y="2408.4922"/><text fill="#000000" font-family="sans-serif" font-size="12" lengthAdjust="spacing" textLength="42" x="190" y="2429.6309">b-=26;</text><rect fill="#F1F1F1" height="33.9688" rx="12.5" ry="12.5" style="stroke:#181818;stroke-width:0.5;" width="147" x="137.5" y="2510.8633"/><text fill="#000000" font-family="sans-serif" font-size="12" lengthAdjust="spacing" textLength="127" x="147.5" y="2532.002">return (char)('0'+b);</text><ellipse cx="211" cy="2584.3477" fill="none" rx="11" ry="11" style="stroke:#222222;stroke-width:1.0;"/><ellipse cx="211" cy="2584.3477" fill="#222222" rx="6" ry="6" style="stroke:#111111;stroke-width:1.0;"/><polygon fill="#F1F1F1" points="196,2462.4609,226,2462.4609,238,2474.4609,226,2486.4609,196,2486.4609,184,2474.4609,196,2462.4609" style="stroke:#181818;stroke-width:0.5;"/><text fill="#000000" font-family="sans-serif" font-size="11" lengthAdjust="spacing" textLength="20" x="215" y="2496.6714">yes</text><text fill="#000000" font-family="sans-serif" font-size="11" lengthAdjust="spacing" textLength="30" x="196" y="2478.269">b&lt;10</text><rect fill="#F1F1F1" height="33.9688" rx="12.5" ry="12.5" style="stroke:#181818;stroke-width:0.5;" width="62" x="180" y="2637.3477"/><text fill="#000000" font-family="sans-serif" font-size="12" lengthAdjust="spacing" textLength="42" x="190" y="2658.4863">b-=10;</text><rect fill="#F1F1F1" height="33.9688" rx="12.5" ry="12.5" style="stroke:#181818;stroke-width:0.5;" width="77" x="172.5" y="2739.7188"/><text fill="#000000" font-family="sans-serif" font-size="12" lengthAdjust="spacing" textLength="57" x="182.5" y="2760.8574">return '-';</text><ellipse cx="211" cy="2813.2031" fill="none" rx="11" ry="11" style="stroke:#222222;stroke-width:1.0;"/><ellipse cx="211" cy="2813.2031" fill="#222222" rx="6" ry="6" style="stroke:#111111;stroke-width:1.0;"/><polygon fill="#F1F1F1" points="195,2691.3164,227,2691.3164,239,2703.3164,227,2715.3164,195,2715.3164,183,2703.3164,195,2691.3164" style="stroke:#181818;stroke-width:0.5;"/><text fill="#000000" font-family="sans-serif" font-size="11" lengthAdjust="spacing" textLength="20" x="215" y="2725.5269">yes</text><text fill="#000000" font-family="sans-serif" font-size="11" lengthAdjust="spacing" textLength="32" x="195" y="2707.1245">b==0</text><rect fill="#F1F1F1" height="33.9688" rx="12.5" ry="12.5" style="stroke:#181818;stroke-width:0.5;" width="79" x="171.5" y="2914.6055"/><text fill="#000000" font-family="sans-serif" font-size="12" lengthAdjust="spacing" textLength="59" x="181.5" y="2935.7441">return '_';</text><ellipse cx="211" cy="2988.0898" fill="none" rx="11" ry="11" style="stroke:#222222;stroke-width:1.0;"/><ellipse cx="211" cy="2988.0898" fill="#222222" rx="6" ry="6" style="stroke:#111111;stroke-width:1.0;"/><polygon fill="#F1F1F1" points="195,2866.2031,227,2866.2031,239,2878.2031,227,2890.2031,195,2890.2031,183,2878.2031,195,2866.2031" style="stroke:#181818;stroke-width:0.5;"/><text fill="#000000" font-family="sans-serif" font-size="11" lengthAdjust="spacing" textLength="20" x="215" y="2900.4136">yes</text><text fill="#000000" font-family="sans-serif" font-size="11" lengthAdjust="spacing" textLength="32" x="195" y="2882.0112">b==1</text><rect fill="#F1F1F1" height="33.9688" rx="12.5" ry="12.5" style="stroke:#181818;stroke-width:0.5;" width="98" x="162" y="3041.0898"/><text fill="#000000" font-family="sans-serif" font-size="12" lengthAdjust="spacing" textLength="78" x="172" y="3062.2285">assert false;</text><rect fill="#F1F1F1" height="33.9688" rx="12.5" ry="12.5" style="stroke:#181818;stroke-width:0.5;" width="79" x="171.5" y="3095.0586"/><text fill="#000000" font-family="sans-serif" font-size="12" lengthAdjust="spacing" textLength="59" x="181.5" y="3116.1973">return '?';</text><ellipse cx="211" cy="3160.0273" fill="none" rx="11" ry="11" style="stroke:#222222;stroke-width:1.0;"/><ellipse cx="211" cy="3160.0273" fill="#222222" rx="6" ry="6" style="stroke:#111111;stroke-width:1.0;"/><ellipse cx="211" cy="3191.0273" fill="none" rx="10" ry="10" style="stroke:#222222;stroke-width:1.5;"/><line style="stroke:#222222;stroke-width:2.5;" x1="204.8128" x2="217.1872" y1="3184.8402" y2="3197.2145"/><line style="stroke:#222222;stroke-width:2.5;" x1="217.1872" x2="204.8128" y1="3184.8402" y2="3197.2145"/><path d="M241,3211.0273 L241,3227.1602 L221,3231.1602 L241,3235.1602 L241,3251.293 A0,0 0 0 0 241,3251.293 L561,3251.293 A0,0 0 0 0 561,3251.293 L561,3221.0273 L551,3211.0273 L241,3211.0273 A0,0 0 0 0 241,3211.0273 " fill="#FEFFDD" style="stroke:#181818;stroke-width:0.5;"/><path d="M551,3211.0273 L551,3221.0273 L561,3221.0273 L551,3211.0273 " fill="#FEFFDD" style="stroke:#181818;stroke-width:0.5;"/><text fill="#000000" font-family="sans-serif" font-size="13" lengthAdjust="spacing" textLength="299" x="247" y="3228.0942">void append3bytes(StringBuildersb,intb1,intb2,</text><text fill="#000000" font-family="sans-serif" font-size="13" lengthAdjust="spacing" textLength="37" x="247" y="3243.2271">intb3)</text><ellipse cx="211" cy="3231.1602" fill="#222222" rx="10" ry="10" style="stroke:#222222;stroke-width:1.0;"/><rect fill="#F1F1F1" height="33.9688" rx="12.5" ry="12.5" style="stroke:#181818;stroke-width:0.5;" width="139" x="141.5" y="3271.293"/><text fill="#000000" font-family="sans-serif" font-size="12" lengthAdjust="spacing" textLength="119" x="151.5" y="3292.4316">final intc1=b1&gt;&gt;2;</text><rect fill="#F1F1F1" height="33.9688" rx="12.5" ry="12.5" style="stroke:#181818;stroke-width:0.5;" width="249" x="86.5" y="3325.2617"/><text fill="#000000" font-family="sans-serif" font-size="12" lengthAdjust="spacing" textLength="229" x="96.5" y="3346.4004">final intc2=((b1&amp;0x3)&lt;&lt;4)|(b2&gt;&gt;4);</text><rect fill="#F1F1F1" height="33.9688" rx="12.5" ry="12.5" style="stroke:#181818;stroke-width:0.5;" width="248" x="87" y="3379.2305"/><text fill="#000000" font-family="sans-serif" font-size="12" lengthAdjust="spacing" textLength="228" x="97" y="3400.3691">final intc3=((b2&amp;0xF)&lt;&lt;2)|(b3&gt;&gt;6);</text><rect fill="#F1F1F1" height="33.9688" rx="12.5" ry="12.5" style="stroke:#181818;stroke-width:0.5;" width="150" x="136" y="3433.1992"/><text fill="#000000" font-family="sans-serif" font-size="12" lengthAdjust="spacing" textLength="130" x="146" y="3454.3379">final intc4=b3&amp;0x3F;</text><rect fill="#F1F1F1" height="33.9688" rx="12.5" ry="12.5" style="stroke:#181818;stroke-width:0.5;" width="236" x="93" y="3487.168"/><text fill="#000000" font-family="sans-serif" font-size="12" lengthAdjust="spacing" textLength="216" x="103" y="3508.3066">sb.append(encode6bit[c1&amp;0x3F]);</text><rect fill="#F1F1F1" height="33.9688" rx="12.5" ry="12.5" style="stroke:#181818;stroke-width:0.5;" width="236" x="93" y="3541.1367"/><text fill="#000000" font-family="sans-serif" font-size="12" lengthAdjust="spacing" textLength="216" x="103" y="3562.2754">sb.append(encode6bit[c2&amp;0x3F]);</text><rect fill="#F1F1F1" height="33.9688" rx="12.5" ry="12.5" style="stroke:#181818;stroke-width:0.5;" width="236" x="93" y="3595.1055"/><text fill="#000000" font-family="sans-serif" font-size="12" lengthAdjust="spacing" textLength="216" x="103" y="3616.2441">sb.append(encode6bit[c3&amp;0x3F]);</text><rect fill="#F1F1F1" height="33.9688" rx="12.5" ry="12.5" style="stroke:#181818;stroke-width:0.5;" width="236" x="93" y="3649.0742"/><text fill="#000000" font-family="sans-serif" font-size="12" lengthAdjust="spacing" textLength="216" x="103" y="3670.2129">sb.append(encode6bit[c4&amp;0x3F]);</text><ellipse cx="211" cy="3713.043" fill="none" rx="10" ry="10" style="stroke:#222222;stroke-width:1.5;"/><line style="stroke:#222222;stroke-width:2.5;" x1="204.8128" x2="217.1872" y1="3706.8558" y2="3719.2302"/><line style="stroke:#222222;stroke-width:2.5;" x1="217.1872" x2="204.8128" y1="3706.8558" y2="3719.2302"/><path d="M241,3733.043 L241,3749.1758 L221,3753.1758 L241,3757.1758 L241,3773.3086 A0,0 0 0 0 241,3773.3086 L531,3773.3086 A0,0 0 0 0 531,3773.3086 L531,3743.043 L521,3733.043 L241,3733.043 A0,0 0 0 0 241,3733.043 " fill="#FEFFDD" style="stroke:#181818;stroke-width:0.5;"/><path d="M521,3733.043 L521,3743.043 L531,3743.043 L521,3733.043 " fill="#FEFFDD" style="stroke:#181818;stroke-width:0.5;"/><text fill="#000000" font-family="sans-serif" font-size="13" lengthAdjust="spacing" textLength="269" x="247" y="3750.1099">void decode3bytes(byte[]r,intpos,charcc1,</text><text fill="#000000" font-family="sans-serif" font-size="13" lengthAdjust="spacing" textLength="163" x="247" y="3765.2427">charcc2,charcc3,charcc4)</text><ellipse cx="211" cy="3753.1758" fill="#222222" rx="10" ry="10" style="stroke:#222222;stroke-width:1.0;"/><rect fill="#F1F1F1" height="33.9688" rx="12.5" ry="12.5" style="stroke:#181818;stroke-width:0.5;" width="198" x="112" y="3793.3086"/><text fill="#000000" font-family="sans-serif" font-size="12" lengthAdjust="spacing" textLength="178" x="122" y="3814.4473">final intc1=decode6bit[cc1];</text><rect fill="#F1F1F1" height="33.9688" rx="12.5" ry="12.5" style="stroke:#181818;stroke-width:0.5;" width="198" x="112" y="3847.2773"/><text fill="#000000" font-family="sans-serif" font-size="12" lengthAdjust="spacing" textLength="178" x="122" y="3868.416">final intc2=decode6bit[cc2];</text><rect fill="#F1F1F1" height="33.9688" rx="12.5" ry="12.5" style="stroke:#181818;stroke-width:0.5;" width="198" x="112" y="3901.2461"/><text fill="#000000" font-family="sans-serif" font-size="12" lengthAdjust="spacing" textLength="178" x="122" y="3922.3848">final intc3=decode6bit[cc3];</text><rect fill="#F1F1F1" height="33.9688" rx="12.5" ry="12.5" style="stroke:#181818;stroke-width:0.5;" width="198" x="112" y="3955.2148"/><text fill="#000000" font-family="sans-serif" font-size="12" lengthAdjust="spacing" textLength="178" x="122" y="3976.3535">final intc4=decode6bit[cc4];</text><rect fill="#F1F1F1" height="33.9688" rx="12.5" ry="12.5" style="stroke:#181818;stroke-width:0.5;" width="229" x="96.5" y="4009.1836"/><text fill="#000000" font-family="sans-serif" font-size="12" lengthAdjust="spacing" textLength="209" x="106.5" y="4030.3223">r[pos]=(byte)((c1&lt;&lt;2)|(c2&gt;&gt;4));</text><rect fill="#F1F1F1" height="33.9688" rx="12.5" ry="12.5" style="stroke:#181818;stroke-width:0.5;" width="296" x="63" y="4063.1523"/><text fill="#000000" font-family="sans-serif" font-size="12" lengthAdjust="spacing" textLength="276" x="73" y="4084.291">r[pos+1]=(byte)(((c2&amp;0x0F)&lt;&lt;4)|(c3&gt;&gt;2));</text><rect fill="#F1F1F1" height="33.9688" rx="12.5" ry="12.5" style="stroke:#181818;stroke-width:0.5;" width="251" x="85.5" y="4117.1211"/><text fill="#000000" font-family="sans-serif" font-size="12" lengthAdjust="spacing" textLength="231" x="95.5" y="4138.2598">r[pos+2]=(byte)(((c3&amp;0x3)&lt;&lt;6)|c4);</text><ellipse cx="211" cy="4181.0898" fill="none" rx="10" ry="10" style="stroke:#222222;stroke-width:1.5;"/><line style="stroke:#222222;stroke-width:2.5;" x1="204.8128" x2="217.1872" y1="4174.9027" y2="4187.277"/><line style="stroke:#222222;stroke-width:2.5;" x1="217.1872" x2="204.8128" y1="4174.9027" y2="4187.277"/><line style="stroke:#181818;stroke-width:1.0;" x1="211" x2="211" y1="44.9688" y2="64.9688"/><polygon fill="#181818" points="207,54.9688,211,64.9688,215,54.9688,211,58.9688" style="stroke:#181818;stroke-width:1.0;"/><line style="stroke:#181818;stroke-width:1.0;" x1="211" x2="211" y1="98.9375" y2="118.9375"/><polygon fill="#181818" points="207,108.9375,211,118.9375,215,108.9375,211,112.9375" style="stroke:#181818;stroke-width:1.0;"/><line style="stroke:#181818;stroke-width:1.0;" x1="211" x2="211" y1="243.875" y2="272.3906"/><polygon fill="#181818" points="207,262.3906,211,272.3906,215,262.3906,211,266.3906" style="stroke:#181818;stroke-width:1.0;"/><line style="stroke:#181818;stroke-width:1.0;" x1="211" x2="211" y1="185.5039" y2="209.9063"/><polygon fill="#181818" points="207,199.9063,211,209.9063,215,199.9063,211,203.9063" style="stroke:#181818;stroke-width:1.0;"/><line style="stroke:#181818;stroke-width:1.0;" x1="256.5" x2="268.5" y1="173.5039" y2="173.5039"/><polygon fill="#181818" points="264.5,242.3906,268.5,252.3906,272.5,242.3906,268.5,246.3906" style="stroke:#181818;stroke-width:1.0;"/><line style="stroke:#181818;stroke-width:1.0;" x1="268.5" x2="268.5" y1="173.5039" y2="316.3906"/><line style="stroke:#181818;stroke-width:1.0;" x1="268.5" x2="211" y1="316.3906" y2="316.3906"/><line style="stroke:#181818;stroke-width:1.0;" x1="211" x2="211" y1="316.3906" y2="336.3906"/><polygon fill="#181818" points="207,326.3906,211,336.3906,215,326.3906,211,330.3906" style="stroke:#181818;stroke-width:1.0;"/><line style="stroke:#181818;stroke-width:1.0;" x1="211" x2="211" y1="138.9375" y2="161.5039"/><polygon fill="#181818" points="207,151.5039,211,161.5039,215,151.5039,211,155.5039" style="stroke:#181818;stroke-width:1.0;"/><line style="stroke:#181818;stroke-width:1.0;" x1="211" x2="211" y1="384.3281" y2="404.3281"/><polygon fill="#181818" points="207,394.3281,211,404.3281,215,394.3281,211,398.3281" style="stroke:#181818;stroke-width:1.0;"/><line style="stroke:#181818;stroke-width:1.0;" x1="211" x2="211" y1="452.2656" y2="472.2656"/><polygon fill="#181818" points="207,462.2656,211,472.2656,215,462.2656,211,466.2656" style="stroke:#181818;stroke-width:1.0;"/><line style="stroke:#181818;stroke-width:1.0;" x1="211" x2="211" y1="506.2344" y2="526.2344"/><polygon fill="#181818" points="207,516.2344,211,526.2344,215,516.2344,211,520.2344" style="stroke:#181818;stroke-width:1.0;"/><line style="stroke:#181818;stroke-width:1.0;" x1="211" x2="211" y1="610.8008" y2="633.3672"/><polygon fill="#181818" points="207,623.3672,211,633.3672,215,623.3672,211,627.3672" style="stroke:#181818;stroke-width:1.0;"/><line style="stroke:#181818;stroke-width:1.0;" x1="211" x2="211" y1="667.3359" y2="687.3359"/><polygon fill="#181818" points="207,677.3359,211,687.3359,215,677.3359,211,681.3359" style="stroke:#181818;stroke-width:1.0;"/><line style="stroke:#181818;stroke-width:1.0;" x1="211" x2="211" y1="721.3047" y2="741.3047"/><polygon fill="#181818" points="207,731.3047,211,741.3047,215,731.3047,211,735.3047" style="stroke:#181818;stroke-width:1.0;"/><line style="stroke:#181818;stroke-width:1.0;" x1="211" x2="211" y1="789.2422" y2="809.2422"/><polygon fill="#181818" points="207,799.2422,211,809.2422,215,799.2422,211,803.2422" style="stroke:#181818;stroke-width:1.0;"/><line style="stroke:#181818;stroke-width:1.0;" x1="211" x2="211" y1="843.2109" y2="863.2109"/><polygon fill="#181818" points="207,853.2109,211,863.2109,215,853.2109,211,857.2109" style="stroke:#181818;stroke-width:1.0;"/><line style="stroke:#181818;stroke-width:1.0;" x1="211" x2="211" y1="897.1797" y2="917.1797"/><polygon fill="#181818" points="207,907.1797,211,917.1797,215,907.1797,211,911.1797" style="stroke:#181818;stroke-width:1.0;"/><line style="stroke:#181818;stroke-width:1.0;" x1="211" x2="211" y1="1001.7461" y2="1024.3125"/><polygon fill="#181818" points="207,1014.3125,211,1024.3125,215,1014.3125,211,1018.3125" style="stroke:#181818;stroke-width:1.0;"/><line style="stroke:#181818;stroke-width:1.0;" x1="211" x2="211" y1="1102.2813" y2="1126.6836"/><polygon fill="#181818" points="207,1116.6836,211,1126.6836,215,1116.6836,211,1120.6836" style="stroke:#181818;stroke-width:1.0;"/><line style="stroke:#181818;stroke-width:1.0;" x1="235" x2="271.5" y1="1090.2813" y2="1090.2813"/><polygon fill="#181818" points="267.5,1133.668,271.5,1143.668,275.5,1133.668,271.5,1137.668" style="stroke:#181818;stroke-width:1.0;"/><line style="stroke:#181818;stroke-width:1.0;" x1="271.5" x2="271.5" y1="1090.2813" y2="1192.6523"/><line style="stroke:#181818;stroke-width:1.0;" x1="271.5" x2="223" y1="1192.6523" y2="1192.6523"/><polygon fill="#181818" points="233,1188.6523,223,1192.6523,233,1196.6523,229,1192.6523" style="stroke:#181818;stroke-width:1.0;"/><line style="stroke:#181818;stroke-width:1.0;" x1="211" x2="211" y1="1160.6523" y2="1180.6523"/><polygon fill="#181818" points="207,1170.6523,211,1180.6523,215,1170.6523,211,1174.6523" style="stroke:#181818;stroke-width:1.0;"/><line style="stroke:#181818;stroke-width:1.0;" x1="211" x2="211" y1="1058.2813" y2="1078.2813"/><polygon fill="#181818" points="207,1068.2813,211,1078.2813,215,1068.2813,211,1072.2813" style="stroke:#181818;stroke-width:1.0;"/><line style="stroke:#181818;stroke-width:1.0;" x1="211" x2="211" y1="1204.6523" y2="1224.6523"/><polygon fill="#181818" points="207,1214.6523,211,1224.6523,215,1214.6523,211,1218.6523" style="stroke:#181818;stroke-width:1.0;"/><line style="stroke:#181818;stroke-width:1.0;" x1="211" x2="211" y1="1272.5898" y2="1292.5898"/><polygon fill="#181818" points="207,1282.5898,211,1292.5898,215,1282.5898,211,1286.5898" style="stroke:#181818;stroke-width:1.0;"/><line style="stroke:#181818;stroke-width:1.0;" x1="211" x2="211" y1="1326.5586" y2="1346.5586"/><polygon fill="#181818" points="207,1336.5586,211,1346.5586,215,1336.5586,211,1340.5586" style="stroke:#181818;stroke-width:1.0;"/><line style="stroke:#181818;stroke-width:1.0;" x1="211" x2="211" y1="1536.0625" y2="1564.5781"/><polygon fill="#181818" points="207,1554.5781,211,1564.5781,215,1554.5781,211,1558.5781" style="stroke:#181818;stroke-width:1.0;"/><line style="stroke:#181818;stroke-width:1.0;" x1="211" x2="211" y1="1477.6914" y2="1502.0938"/><polygon fill="#181818" points="207,1492.0938,211,1502.0938,215,1492.0938,211,1496.0938" style="stroke:#181818;stroke-width:1.0;"/><line style="stroke:#181818;stroke-width:1.0;" x1="260.5" x2="272.5" y1="1465.6914" y2="1465.6914"/><polygon fill="#181818" points="268.5,1534.5781,272.5,1544.5781,276.5,1534.5781,272.5,1538.5781" style="stroke:#181818;stroke-width:1.0;"/><line style="stroke:#181818;stroke-width:1.0;" x1="272.5" x2="272.5" y1="1465.6914" y2="1608.5781"/><line style="stroke:#181818;stroke-width:1.0;" x1="272.5" x2="211" y1="1608.5781" y2="1608.5781"/><line style="stroke:#181818;stroke-width:1.0;" x1="211" x2="211" y1="1608.5781" y2="1628.5781"/><polygon fill="#181818" points="207,1618.5781,211,1628.5781,215,1618.5781,211,1622.5781" style="stroke:#181818;stroke-width:1.0;"/><line style="stroke:#181818;stroke-width:1.0;" x1="211" x2="211" y1="1431.125" y2="1453.6914"/><polygon fill="#181818" points="207,1443.6914,211,1453.6914,215,1443.6914,211,1447.6914" style="stroke:#181818;stroke-width:1.0;"/><line style="stroke:#181818;stroke-width:1.0;" x1="211" x2="211" y1="1662.5469" y2="1682.5469"/><polygon fill="#181818" points="207,1672.5469,211,1682.5469,215,1672.5469,211,1676.5469" style="stroke:#181818;stroke-width:1.0;"/><line style="stroke:#181818;stroke-width:1.0;" x1="211" x2="211" y1="1767.1133" y2="1789.6797"/><polygon fill="#181818" points="207,1779.6797,211,1789.6797,215,1779.6797,211,1783.6797" style="stroke:#181818;stroke-width:1.0;"/><line style="stroke:#181818;stroke-width:1.0;" x1="211" x2="211" y1="1823.6484" y2="1843.6484"/><polygon fill="#181818" points="207,1833.6484,211,1843.6484,215,1833.6484,211,1837.6484" style="stroke:#181818;stroke-width:1.0;"/><line style="stroke:#181818;stroke-width:1.0;" x1="211" x2="211" y1="1928.2148" y2="1950.7813"/><polygon fill="#181818" points="207,1940.7813,211,1950.7813,215,1940.7813,211,1944.7813" style="stroke:#181818;stroke-width:1.0;"/><line style="stroke:#181818;stroke-width:1.0;" x1="211" x2="211" y1="2087.1211" y2="2115.6367"/><polygon fill="#181818" points="207,2105.6367,211,2115.6367,215,2105.6367,211,2109.6367" style="stroke:#181818;stroke-width:1.0;"/><line style="stroke:#181818;stroke-width:1.0;" x1="211" x2="211" y1="2028.75" y2="2053.1523"/><polygon fill="#181818" points="207,2043.1523,211,2053.1523,215,2043.1523,211,2047.1523" style="stroke:#181818;stroke-width:1.0;"/><line style="stroke:#181818;stroke-width:1.0;" x1="238" x2="294.5" y1="2016.75" y2="2016.75"/><polygon fill="#181818" points="290.5,2085.6367,294.5,2095.6367,298.5,2085.6367,294.5,2089.6367" style="stroke:#181818;stroke-width:1.0;"/><line style="stroke:#181818;stroke-width:1.0;" x1="294.5" x2="294.5" y1="2016.75" y2="2159.6367"/><line style="stroke:#181818;stroke-width:1.0;" x1="294.5" x2="211" y1="2159.6367" y2="2159.6367"/><line style="stroke:#181818;stroke-width:1.0;" x1="211" x2="211" y1="2159.6367" y2="2179.6367"/><polygon fill="#181818" points="207,2169.6367,211,2179.6367,215,2169.6367,211,2173.6367" style="stroke:#181818;stroke-width:1.0;"/><line style="stroke:#181818;stroke-width:1.0;" x1="211" x2="211" y1="1984.75" y2="2004.75"/><polygon fill="#181818" points="207,1994.75,211,2004.75,215,1994.75,211,1998.75" style="stroke:#181818;stroke-width:1.0;"/><line style="stroke:#181818;stroke-width:1.0;" x1="211" x2="211" y1="2315.9766" y2="2344.4922"/><polygon fill="#181818" points="207,2334.4922,211,2344.4922,215,2334.4922,211,2338.4922" style="stroke:#181818;stroke-width:1.0;"/><line style="stroke:#181818;stroke-width:1.0;" x1="211" x2="211" y1="2257.6055" y2="2282.0078"/><polygon fill="#181818" points="207,2272.0078,211,2282.0078,215,2272.0078,211,2276.0078" style="stroke:#181818;stroke-width:1.0;"/><line style="stroke:#181818;stroke-width:1.0;" x1="238" x2="294.5" y1="2245.6055" y2="2245.6055"/><polygon fill="#181818" points="290.5,2314.4922,294.5,2324.4922,298.5,2314.4922,294.5,2318.4922" style="stroke:#181818;stroke-width:1.0;"/><line style="stroke:#181818;stroke-width:1.0;" x1="294.5" x2="294.5" y1="2245.6055" y2="2388.4922"/><line style="stroke:#181818;stroke-width:1.0;" x1="294.5" x2="211" y1="2388.4922" y2="2388.4922"/><line style="stroke:#181818;stroke-width:1.0;" x1="211" x2="211" y1="2388.4922" y2="2408.4922"/><polygon fill="#181818" points="207,2398.4922,211,2408.4922,215,2398.4922,211,2402.4922" style="stroke:#181818;stroke-width:1.0;"/><line style="stroke:#181818;stroke-width:1.0;" x1="211" x2="211" y1="2213.6055" y2="2233.6055"/><polygon fill="#181818" points="207,2223.6055,211,2233.6055,215,2223.6055,211,2227.6055" style="stroke:#181818;stroke-width:1.0;"/><line style="stroke:#181818;stroke-width:1.0;" x1="211" x2="211" y1="2544.832" y2="2573.3477"/><polygon fill="#181818" points="207,2563.3477,211,2573.3477,215,2563.3477,211,2567.3477" style="stroke:#181818;stroke-width:1.0;"/><line style="stroke:#181818;stroke-width:1.0;" x1="211" x2="211" y1="2486.4609" y2="2510.8633"/><polygon fill="#181818" points="207,2500.8633,211,2510.8633,215,2500.8633,211,2504.8633" style="stroke:#181818;stroke-width:1.0;"/><line style="stroke:#181818;stroke-width:1.0;" x1="238" x2="294.5" y1="2474.4609" y2="2474.4609"/><polygon fill="#181818" points="290.5,2543.3477,294.5,2553.3477,298.5,2543.3477,294.5,2547.3477" style="stroke:#181818;stroke-width:1.0;"/><line style="stroke:#181818;stroke-width:1.0;" x1="294.5" x2="294.5" y1="2474.4609" y2="2617.3477"/><line style="stroke:#181818;stroke-width:1.0;" x1="294.5" x2="211" y1="2617.3477" y2="2617.3477"/><line style="stroke:#181818;stroke-width:1.0;" x1="211" x2="211" y1="2617.3477" y2="2637.3477"/><polygon fill="#181818" points="207,2627.3477,211,2637.3477,215,2627.3477,211,2631.3477" style="stroke:#181818;stroke-width:1.0;"/><line style="stroke:#181818;stroke-width:1.0;" x1="211" x2="211" y1="2442.4609" y2="2462.4609"/><polygon fill="#181818" points="207,2452.4609,211,2462.4609,215,2452.4609,211,2456.4609" style="stroke:#181818;stroke-width:1.0;"/><line style="stroke:#181818;stroke-width:1.0;" x1="211" x2="211" y1="2773.6875" y2="2802.2031"/><polygon fill="#181818" points="207,2792.2031,211,2802.2031,215,2792.2031,211,2796.2031" style="stroke:#181818;stroke-width:1.0;"/><line style="stroke:#181818;stroke-width:1.0;" x1="211" x2="211" y1="2715.3164" y2="2739.7188"/><polygon fill="#181818" points="207,2729.7188,211,2739.7188,215,2729.7188,211,2733.7188" style="stroke:#181818;stroke-width:1.0;"/><line style="stroke:#181818;stroke-width:1.0;" x1="239" x2="259.5" y1="2703.3164" y2="2703.3164"/><polygon fill="#181818" points="255.5,2772.2031,259.5,2782.2031,263.5,2772.2031,259.5,2776.2031" style="stroke:#181818;stroke-width:1.0;"/><line style="stroke:#181818;stroke-width:1.0;" x1="259.5" x2="259.5" y1="2703.3164" y2="2846.2031"/><line style="stroke:#181818;stroke-width:1.0;" x1="259.5" x2="211" y1="2846.2031" y2="2846.2031"/><line style="stroke:#181818;stroke-width:1.0;" x1="211" x2="211" y1="2846.2031" y2="2866.2031"/><polygon fill="#181818" points="207,2856.2031,211,2866.2031,215,2856.2031,211,2860.2031" style="stroke:#181818;stroke-width:1.0;"/><line style="stroke:#181818;stroke-width:1.0;" x1="211" x2="211" y1="2671.3164" y2="2691.3164"/><polygon fill="#181818" points="207,2681.3164,211,2691.3164,215,2681.3164,211,2685.3164" style="stroke:#181818;stroke-width:1.0;"/><line style="stroke:#181818;stroke-width:1.0;" x1="211" x2="211" y1="2948.5742" y2="2977.0898"/><polygon fill="#181818" points="207,2967.0898,211,2977.0898,215,2967.0898,211,2971.0898" style="stroke:#181818;stroke-width:1.0;"/><line style="stroke:#181818;stroke-width:1.0;" x1="211" x2="211" y1="2890.2031" y2="2914.6055"/><polygon fill="#181818" points="207,2904.6055,211,2914.6055,215,2904.6055,211,2908.6055" style="stroke:#181818;stroke-width:1.0;"/><line style="stroke:#181818;stroke-width:1.0;" x1="239" x2="260.5" y1="2878.2031" y2="2878.2031"/><polygon fill="#181818" points="256.5,2947.0898,260.5,2957.0898,264.5,2947.0898,260.5,2951.0898" style="stroke:#181818;stroke-width:1.0;"/><line style="stroke:#181818;stroke-width:1.0;" x1="260.5" x2="260.5" y1="2878.2031" y2="3021.0898"/><line style="stroke:#181818;stroke-width:1.0;" x1="260.5" x2="211" y1="3021.0898" y2="3021.0898"/><line style="stroke:#181818;stroke-width:1.0;" x1="211" x2="211" y1="3021.0898" y2="3041.0898"/><polygon fill="#181818" points="207,3031.0898,211,3041.0898,215,3031.0898,211,3035.0898" style="stroke:#181818;stroke-width:1.0;"/><line style="stroke:#181818;stroke-width:1.0;" x1="211" x2="211" y1="3075.0586" y2="3095.0586"/><polygon fill="#181818" points="207,3085.0586,211,3095.0586,215,3085.0586,211,3089.0586" style="stroke:#181818;stroke-width:1.0;"/><line style="stroke:#181818;stroke-width:1.0;" x1="211" x2="211" y1="3129.0273" y2="3149.0273"/><polygon fill="#181818" points="207,3139.0273,211,3149.0273,215,3139.0273,211,3143.0273" style="stroke:#181818;stroke-width:1.0;"/><line style="stroke:#181818;stroke-width:1.0;" x1="211" x2="211" y1="3241.1602" y2="3271.293"/><polygon fill="#181818" points="207,3261.293,211,3271.293,215,3261.293,211,3265.293" style="stroke:#181818;stroke-width:1.0;"/><line style="stroke:#181818;stroke-width:1.0;" x1="211" x2="211" y1="3305.2617" y2="3325.2617"/><polygon fill="#181818" points="207,3315.2617,211,3325.2617,215,3315.2617,211,3319.2617" style="stroke:#181818;stroke-width:1.0;"/><line style="stroke:#181818;stroke-width:1.0;" x1="211" x2="211" y1="3359.2305" y2="3379.2305"/><polygon fill="#181818" points="207,3369.2305,211,3379.2305,215,3369.2305,211,3373.2305" style="stroke:#181818;stroke-width:1.0;"/><line style="stroke:#181818;stroke-width:1.0;" x1="211" x2="211" y1="3413.1992" y2="3433.1992"/><polygon fill="#181818" points="207,3423.1992,211,3433.1992,215,3423.1992,211,3427.1992" style="stroke:#181818;stroke-width:1.0;"/><line style="stroke:#181818;stroke-width:1.0;" x1="211" x2="211" y1="3467.168" y2="3487.168"/><polygon fill="#181818" points="207,3477.168,211,3487.168,215,3477.168,211,3481.168" style="stroke:#181818;stroke-width:1.0;"/><line style="stroke:#181818;stroke-width:1.0;" x1="211" x2="211" y1="3521.1367" y2="3541.1367"/><polygon fill="#181818" points="207,3531.1367,211,3541.1367,215,3531.1367,211,3535.1367" style="stroke:#181818;stroke-width:1.0;"/><line style="stroke:#181818;stroke-width:1.0;" x1="211" x2="211" y1="3575.1055" y2="3595.1055"/><polygon fill="#181818" points="207,3585.1055,211,3595.1055,215,3585.1055,211,3589.1055" style="stroke:#181818;stroke-width:1.0;"/><line style="stroke:#181818;stroke-width:1.0;" x1="211" x2="211" y1="3629.0742" y2="3649.0742"/><polygon fill="#181818" points="207,3639.0742,211,3649.0742,215,3639.0742,211,3643.0742" style="stroke:#181818;stroke-width:1.0;"/><line style="stroke:#181818;stroke-width:1.0;" x1="211" x2="211" y1="3683.043" y2="3703.043"/><polygon fill="#181818" points="207,3693.043,211,3703.043,215,3693.043,211,3697.043" style="stroke:#181818;stroke-width:1.0;"/><line style="stroke:#181818;stroke-width:1.0;" x1="211" x2="211" y1="3763.1758" y2="3793.3086"/><polygon fill="#181818" points="207,3783.3086,211,3793.3086,215,3783.3086,211,3787.3086" style="stroke:#181818;stroke-width:1.0;"/><line style="stroke:#181818;stroke-width:1.0;" x1="211" x2="211" y1="3827.2773" y2="3847.2773"/><polygon fill="#181818" points="207,3837.2773,211,3847.2773,215,3837.2773,211,3841.2773" style="stroke:#181818;stroke-width:1.0;"/><line style="stroke:#181818;stroke-width:1.0;" x1="211" x2="211" y1="3881.2461" y2="3901.2461"/><polygon fill="#181818" points="207,3891.2461,211,3901.2461,215,3891.2461,211,3895.2461" style="stroke:#181818;stroke-width:1.0;"/><line style="stroke:#181818;stroke-width:1.0;" x1="211" x2="211" y1="3935.2148" y2="3955.2148"/><polygon fill="#181818" points="207,3945.2148,211,3955.2148,215,3945.2148,211,3949.2148" style="stroke:#181818;stroke-width:1.0;"/><line style="stroke:#181818;stroke-width:1.0;" x1="211" x2="211" y1="3989.1836" y2="4009.1836"/><polygon fill="#181818" points="207,3999.1836,211,4009.1836,215,3999.1836,211,4003.1836" style="stroke:#181818;stroke-width:1.0;"/><line style="stroke:#181818;stroke-width:1.0;" x1="211" x2="211" y1="4043.1523" y2="4063.1523"/><polygon fill="#181818" points="207,4053.1523,211,4063.1523,215,4053.1523,211,4057.1523" style="stroke:#181818;stroke-width:1.0;"/><line style="stroke:#181818;stroke-width:1.0;" x1="211" x2="211" y1="4097.1211" y2="4117.1211"/><polygon fill="#181818" points="207,4107.1211,211,4117.1211,215,4107.1211,211,4111.1211" style="stroke:#181818;stroke-width:1.0;"/><line style="stroke:#181818;stroke-width:1.0;" x1="211" x2="211" y1="4151.0898" y2="4171.0898"/><polygon fill="#181818" points="207,4161.0898,211,4171.0898,215,4161.0898,211,4165.0898" style="stroke:#181818;stroke-width:1.0;"/><!--MD5=[c82135af75f38a3f49538c4f8fca52bd]
@startuml
!pragma layout smetana
:encode6bit[b]=encode6bit(b);;
:decode6bit[encode6bit[b]]=b;;
start
note right
Stringencode(byte[]data)
end note
if (data==null ) then (yes) 
:return "";;
stop
endif 
:final StringBuilderresult=new StringBuilder((data.length*4+
2)/3);;
:append3bytes(result,data[i]&0xFF,i+1<data.length? data[i+
1]&0xFF:0,i+2<data.length? data[i+2]&0xFF:0);;
:return result.toString();;
stop
end
start
note right
byte[]decode(Strings)
end note
:final bytedata[]=new byte[computeSize(s.length())];;
:intpos=0;;
:decode3bytes(data,pos,scharAt(s,i),scharAt(s,i+
1),scharAt(s,i+2),scharAt(s,i+3));;
:pos+=3;;
:return data;;
stop
end
start
note right
intcomputeSize(intlength)
end note
:final intr=length%4;;
if (r!=0) then (yes) 
:length+=4-r;;
endif 
:assert length%4==0:String.valueOf("length=")+
length;;
:return (length*3+3)/4;;
stop
end
start
note right
charscharAt(Strings,inti)
end note
if (i>=s.length()) then (yes) 
:return 'A';;
stop
endif 
:return s.charAt(i);;
stop
end
start
note right
intdecode6bit(charc)
end note
:return decode6bit[c];;
stop
end
start
note right
charencode6bit(byteb)
end note
:assert b>=0&&b<64;;
if (b<26) then (yes) 
:return (char)('A'+b);;
stop
endif 
:b-=26;;
if (b<26) then (yes) 
:return (char)('a'+b);;
stop
endif 
:b-=26;;
if (b<10) then (yes) 
:return (char)('0'+b);;
stop
endif 
:b-=10;;
if (b==0) then (yes) 
:return '-';;
stop
endif 
if (b==1) then (yes) 
:return '_';;
stop
endif 
:assert false;;
:return '?';;
stop
end
start
note right
void append3bytes(StringBuildersb,intb1,intb2,
intb3)
end note
:final intc1=b1>>2;;
:final intc2=((b1&0x3)<<4)|(b2>>4);;
:final intc3=((b2&0xF)<<2)|(b3>>6);;
:final intc4=b3&0x3F;;
:sb.append(encode6bit[c1&0x3F]);;
:sb.append(encode6bit[c2&0x3F]);;
:sb.append(encode6bit[c3&0x3F]);;
:sb.append(encode6bit[c4&0x3F]);;
end
start
note right
void decode3bytes(byte[]r,intpos,charcc1,
charcc2,charcc3,charcc4)
end note
:final intc1=decode6bit[cc1];;
:final intc2=decode6bit[cc2];;
:final intc3=decode6bit[cc3];;
:final intc4=decode6bit[cc4];;
:r[pos]=(byte)((c1<<2)|(c2>>4));;
:r[pos+1]=(byte)(((c2&0x0F)<<4)|(c3>>2));;
:r[pos+2]=(byte)(((c3&0x3)<<6)|c4);;
end
@enduml

PlantUML version 1.2022.7(Mon Aug 22 17:01:30 UTC 2022)
(GPL source distribution)
Java Runtime: OpenJDK Runtime Environment
JVM: OpenJDK 64-Bit Server VM
Default Encoding: UTF-8
Language: en
Country: null
--></g></svg>