<?xml version="1.0" encoding="UTF-8" standalone="no"?><svg xmlns="http://www.w3.org/2000/svg" xmlns:xlink="http://www.w3.org/1999/xlink" contentStyleType="text/css" height="203px" preserveAspectRatio="none" style="width:230px;height:203px;background:#FFFFFF;" version="1.1" viewBox="0 0 230 203" width="230px" zoomAndPan="magnify"><defs/><g><!--MD5=[aa8f7b917213fcc1c2766e2d59b49067]
cluster java.lang--><g id="cluster_java.lang"><path d="M69.5,6 L139.5,6 A3.75,3.75 0 0 1 142,8.5 L149,28.2969 L158.5,28.2969 A2.5,2.5 0 0 1 161,30.7969 L161,86.5 A2.5,2.5 0 0 1 158.5,89 L69.5,89 A2.5,2.5 0 0 1 67,86.5 L67,8.5 A2.5,2.5 0 0 1 69.5,6 " fill="none" style="stroke:#000000;stroke-width:1.5;"/><line style="stroke:#000000;stroke-width:1.5;" x1="67" x2="149" y1="28.2969" y2="28.2969"/><text fill="#000000" font-family="sans-serif" font-size="14" font-weight="bold" lengthAdjust="spacing" textLength="69" x="71" y="20.9951">java.lang</text></g><!--MD5=[02e9e194a0548f773f3aa466798987a4]
cluster net.sourceforge.plantuml--><g id="cluster_net.sourceforge.plantuml"><path d="M8.5,97 L210.5,97 A3.75,3.75 0 0 1 213,99.5 L220,119.2969 L220.5,119.2969 A2.5,2.5 0 0 1 223,121.7969 L223,193.5 A2.5,2.5 0 0 1 220.5,196 L8.5,196 A2.5,2.5 0 0 1 6,193.5 L6,99.5 A2.5,2.5 0 0 1 8.5,97 " fill="none" style="stroke:#000000;stroke-width:1.5;"/><line style="stroke:#000000;stroke-width:1.5;" x1="6" x2="220" y1="119.2969" y2="119.2969"/><text fill="#000000" font-family="sans-serif" font-size="14" font-weight="bold" lengthAdjust="spacing" textLength="201" x="10" y="111.9951">net.sourceforge.plantuml</text></g><!--MD5=[274ad5661286b626a93603d287cbf95a]
class java.lang.Object--><g id="elem_java.lang.Object"><rect fill="#F1F1F1" height="48" id="java.lang.Object" rx="2.5" ry="2.5" style="stroke:#181818;stroke-width:0.5;" width="77" x="75.5" y="33"/><ellipse cx="90.5" cy="49" fill="#ADD1B2" rx="11" ry="11" style="stroke:#181818;stroke-width:1.0;"/><path d="M93.4688,54.6406 Q92.8906,54.9375 92.25,55.0781 Q91.6094,55.2344 90.9063,55.2344 Q88.4063,55.2344 87.0781,53.5938 Q85.7656,51.9375 85.7656,48.8125 Q85.7656,45.6875 87.0781,44.0313 Q88.4063,42.375 90.9063,42.375 Q91.6094,42.375 92.25,42.5313 Q92.9063,42.6875 93.4688,42.9844 L93.4688,45.7031 Q92.8438,45.125 92.25,44.8594 Q91.6563,44.5781 91.0313,44.5781 Q89.6875,44.5781 89,45.6563 Q88.3125,46.7188 88.3125,48.8125 Q88.3125,50.9063 89,51.9844 Q89.6875,53.0469 91.0313,53.0469 Q91.6563,53.0469 92.25,52.7813 Q92.8438,52.5 93.4688,51.9219 L93.4688,54.6406 Z " fill="#000000"/><text fill="#000000" font-family="sans-serif" font-size="14" lengthAdjust="spacing" textLength="45" x="104.5" y="53.8467">Object</text><line style="stroke:#181818;stroke-width:0.5;" x1="76.5" x2="151.5" y1="65" y2="65"/><line style="stroke:#181818;stroke-width:0.5;" x1="76.5" x2="151.5" y1="73" y2="73"/></g><!--MD5=[4e038da92b75d7b1566daf62ac3edd7d]
class net.sourceforge.plantuml.AParentFolder--><g id="elem_net.sourceforge.plantuml.AParentFolder"><rect codeLine="3" fill="#F1F1F1" height="64.2969" id="net.sourceforge.plantuml.AParentFolder" rx="2.5" ry="2.5" style="stroke:#181818;stroke-width:0.5;" width="176" x="26" y="124"/><ellipse cx="62.15" cy="140" fill="#ADD1B2" rx="11" ry="11" style="stroke:#181818;stroke-width:1.0;"/><path d="M65.1188,145.6406 Q64.5406,145.9375 63.9,146.0781 Q63.2594,146.2344 62.5563,146.2344 Q60.0563,146.2344 58.7281,144.5938 Q57.4156,142.9375 57.4156,139.8125 Q57.4156,136.6875 58.7281,135.0313 Q60.0563,133.375 62.5563,133.375 Q63.2594,133.375 63.9,133.5313 Q64.5563,133.6875 65.1188,133.9844 L65.1188,136.7031 Q64.4938,136.125 63.9,135.8594 Q63.3063,135.5781 62.6813,135.5781 Q61.3375,135.5781 60.65,136.6563 Q59.9625,137.7188 59.9625,139.8125 Q59.9625,141.9063 60.65,142.9844 Q61.3375,144.0469 62.6813,144.0469 Q63.3063,144.0469 63.9,143.7813 Q64.4938,143.5 65.1188,142.9219 L65.1188,145.6406 Z " fill="#000000"/><text fill="#000000" font-family="sans-serif" font-size="14" lengthAdjust="spacing" textLength="97" x="80.85" y="144.8467">AParentFolder</text><line style="stroke:#181818;stroke-width:0.5;" x1="27" x2="201" y1="156" y2="156"/><line style="stroke:#181818;stroke-width:0.5;" x1="27" x2="201" y1="164" y2="164"/><a href="./../../../../.././qc/src/net/sourceforge/plantuml/AParentFolder.java.html#42" target="_top" title="./../../../../.././qc/src/net/sourceforge/plantuml/AParentFolder.java.html#42" xlink:actuate="onRequest" xlink:href="./../../../../.././qc/src/net/sourceforge/plantuml/AParentFolder.java.html#42" xlink:show="new" xlink:title="./../../../../.././qc/src/net/sourceforge/plantuml/AParentFolder.java.html#42" xlink:type="simple"><rect fill="#F1F1F1" height="10" style="stroke:none;stroke-width:1.0;" width="20" x="32" y="172.6484"/><ellipse cx="37" cy="177.6484" fill="#84BE84" rx="3" ry="3" style="stroke:#038048;stroke-width:1.0;"/></a><a href="./../../../../.././qc/src/net/sourceforge/plantuml/AParentFolder.java.html#42" target="_top" title="./../../../../.././qc/src/net/sourceforge/plantuml/AParentFolder.java.html#42" xlink:actuate="onRequest" xlink:href="./../../../../.././qc/src/net/sourceforge/plantuml/AParentFolder.java.html#42" xlink:show="new" xlink:title="./../../../../.././qc/src/net/sourceforge/plantuml/AParentFolder.java.html#42" xlink:type="simple"><text fill="#000000" font-family="sans-serif" font-size="14" lengthAdjust="spacing" textLength="150" x="46" y="180.9951">getAFile(String) : AFile</text></a></g><path d="M114,81.481 C114,94.1526 114,109.962 114,123.6701 " fill="none" style="stroke:#181818;stroke-width:1.0;"/><polygon fill="#FFFFFF" points="114,81.481,108,97.481,120,97.481,114,81.481" style="stroke:#181818;stroke-width:1.0;"/><!--MD5=[babf0843f5564f583e4d27d9e759658b]
@startuml
!pragma layout smetana
"java.lang.Object" <|- - "net.sourceforge.plantuml.AParentFolder"
class net.sourceforge.plantuml.AParentFolder {
+getAFile(String) : AFile [[[./../../../../.././qc/src/net/sourceforge/plantuml/AParentFolder.java.html#42]]]
} 
@enduml

PlantUML version 1.2022.7(Mon Aug 22 17:01:30 UTC 2022)
(GPL source distribution)
Java Runtime: OpenJDK Runtime Environment
JVM: OpenJDK 64-Bit Server VM
Default Encoding: UTF-8
Language: en
Country: null
--></g></svg>