<?xml version="1.0" encoding="UTF-8" standalone="no"?><svg xmlns="http://www.w3.org/2000/svg" xmlns:xlink="http://www.w3.org/1999/xlink" contentStyleType="text/css" height="2450px" preserveAspectRatio="none" style="width:1027px;height:2450px;background:#FFFFFF;" version="1.1" viewBox="0 0 1027 2450" width="1027px" zoomAndPan="magnify"><defs/><g><path d="M538,10 L538,18.5664 L518,22.5664 L538,26.5664 L538,35.1328 A0,0 0 0 0 538,35.1328 L651,35.1328 A0,0 0 0 0 651,35.1328 L651,20 L641,10 L538,10 A0,0 0 0 0 538,10 " fill="#FEFFDD" style="stroke:#181818;stroke-width:0.5;"/><path d="M641,10 L641,20 L651,20 L641,10 " fill="#FEFFDD" style="stroke:#181818;stroke-width:0.5;"/><text fill="#000000" font-family="sans-serif" font-size="13" lengthAdjust="spacing" textLength="92" x="544" y="27.0669">void runLoop()</text><ellipse cx="508" cy="22.5664" fill="#222222" rx="10" ry="10" style="stroke:#222222;stroke-width:1.0;"/><rect fill="#F1F1F1" height="33.9688" rx="12.5" ry="12.5" style="stroke:#181818;stroke-width:0.5;" width="373" x="321.5" y="55.1328"/><text fill="#000000" font-family="sans-serif" font-size="12" lengthAdjust="spacing" textLength="353" x="331.5" y="76.2715">final ClipboardLoop clipboardLoop=new ClipboardLoop();</text><rect fill="#F1F1F1" height="33.9688" rx="12.5" ry="12.5" style="stroke:#181818;stroke-width:0.5;" width="337" x="339.5" y="153.1016"/><text fill="#000000" font-family="sans-serif" font-size="12" lengthAdjust="spacing" textLength="317" x="349.5" y="174.2402">final String text=clipboardLoop.getClipboardText();</text><rect fill="#F1F1F1" height="33.9688" rx="12.5" ry="12.5" style="stroke:#181818;stroke-width:0.5;" width="197" x="409.5" y="255.4727"/><text fill="#000000" font-family="sans-serif" font-size="12" lengthAdjust="spacing" textLength="177" x="419.5" y="276.6113">clipboardLoop.runText(text);</text><polygon fill="#F1F1F1" points="427.5,207.0703,588.5,207.0703,600.5,219.0703,588.5,231.0703,427.5,231.0703,415.5,219.0703,427.5,207.0703" style="stroke:#181818;stroke-width:0.5;"/><text fill="#000000" font-family="sans-serif" font-size="11" lengthAdjust="spacing" textLength="20" x="512" y="241.2808">yes</text><text fill="#000000" font-family="sans-serif" font-size="11" lengthAdjust="spacing" textLength="161" x="427.5" y="222.8784">clipboardLoop.isTextOk(text)</text><polygon fill="#F1F1F1" points="508,309.4414,520,321.4414,508,333.4414,496,321.4414,508,309.4414" style="stroke:#181818;stroke-width:0.5;"/><rect fill="#F1F1F1" height="33.9688" rx="12.5" ry="12.5" style="stroke:#181818;stroke-width:0.5;" width="162" x="427" y="353.4414"/><text fill="#000000" font-family="sans-serif" font-size="12" lengthAdjust="spacing" textLength="142" x="437" y="374.5801">Thread.sleep(10000L);</text><polygon fill="#F1F1F1" points="496,109.1016,520,109.1016,532,121.1016,520,133.1016,496,133.1016,484,121.1016,496,109.1016" style="stroke:#181818;stroke-width:0.5;"/><text fill="#000000" font-family="sans-serif" font-size="11" lengthAdjust="spacing" textLength="23" x="496.5" y="124.9097">true</text><ellipse cx="317.5" cy="163.1016" fill="none" rx="10" ry="10" style="stroke:#222222;stroke-width:1.5;"/><line style="stroke:#222222;stroke-width:2.5;" x1="311.3128" x2="323.6872" y1="156.9144" y2="169.2887"/><line style="stroke:#222222;stroke-width:2.5;" x1="323.6872" x2="311.3128" y1="156.9144" y2="169.2887"/><path d="M538,419.4102 L538,427.9766 L518,431.9766 L538,435.9766 L538,444.543 A0,0 0 0 0 538,444.543 L653,444.543 A0,0 0 0 0 653,444.543 L653,429.4102 L643,419.4102 L538,419.4102 A0,0 0 0 0 538,419.4102 " fill="#FEFFDD" style="stroke:#181818;stroke-width:0.5;"/><path d="M643,419.4102 L643,429.4102 L653,429.4102 L643,419.4102 " fill="#FEFFDD" style="stroke:#181818;stroke-width:0.5;"/><text fill="#000000" font-family="sans-serif" font-size="13" lengthAdjust="spacing" textLength="94" x="544" y="436.4771">void runOnce()</text><ellipse cx="508" cy="431.9766" fill="#222222" rx="10" ry="10" style="stroke:#222222;stroke-width:1.0;"/><rect fill="#F1F1F1" height="33.9688" rx="12.5" ry="12.5" style="stroke:#181818;stroke-width:0.5;" width="373" x="321.5" y="464.543"/><text fill="#000000" font-family="sans-serif" font-size="12" lengthAdjust="spacing" textLength="353" x="331.5" y="485.6816">final ClipboardLoop clipboardLoop=new ClipboardLoop();</text><rect fill="#F1F1F1" height="33.9688" rx="12.5" ry="12.5" style="stroke:#181818;stroke-width:0.5;" width="337" x="339.5" y="518.5117"/><text fill="#000000" font-family="sans-serif" font-size="12" lengthAdjust="spacing" textLength="317" x="349.5" y="539.6504">final String text=clipboardLoop.getClipboardText();</text><polygon fill="#F1F1F1" points="427.5,572.4805,588.5,572.4805,600.5,584.4805,588.5,596.4805,427.5,596.4805,415.5,584.4805,427.5,572.4805" style="stroke:#181818;stroke-width:0.5;"/><text fill="#000000" font-family="sans-serif" font-size="11" lengthAdjust="spacing" textLength="161" x="427.5" y="588.2886">clipboardLoop.isTextOk(text)</text><text fill="#000000" font-family="sans-serif" font-size="11" lengthAdjust="spacing" textLength="20" x="395.5" y="581.8862">yes</text><text fill="#000000" font-family="sans-serif" font-size="11" lengthAdjust="spacing" textLength="14" x="600.5" y="581.8862">no</text><rect fill="#F1F1F1" height="33.9688" rx="12.5" ry="12.5" style="stroke:#181818;stroke-width:0.5;" width="197" x="255.5" y="606.4805"/><text fill="#000000" font-family="sans-serif" font-size="12" lengthAdjust="spacing" textLength="177" x="265.5" y="627.6191">clipboardLoop.runText(text);</text><rect fill="#F1F1F1" height="47.9375" rx="12.5" ry="12.5" style="stroke:#181818;stroke-width:0.5;" width="379" x="472.5" y="606.4805"/><text fill="#000000" font-family="sans-serif" font-size="12" lengthAdjust="spacing" textLength="359" x="482.5" y="627.6191">clipboardLoop.setClipboardImage(new BufferedImage(10,</text><text fill="#000000" font-family="sans-serif" font-size="12" lengthAdjust="spacing" textLength="223" x="482.5" y="641.5879">10,BufferedImage.TYPE_INT_ARGB));</text><polygon fill="#F1F1F1" points="508,660.418,520,672.418,508,684.418,496,672.418,508,660.418" style="stroke:#181818;stroke-width:0.5;"/><ellipse cx="508" cy="714.418" fill="none" rx="10" ry="10" style="stroke:#222222;stroke-width:1.5;"/><line style="stroke:#222222;stroke-width:2.5;" x1="501.8128" x2="514.1872" y1="708.2308" y2="720.6052"/><line style="stroke:#222222;stroke-width:2.5;" x1="514.1872" x2="501.8128" y1="708.2308" y2="720.6052"/><path d="M538,734.418 L538,742.9844 L518,746.9844 L538,750.9844 L538,759.5508 A0,0 0 0 0 538,759.5508 L745,759.5508 A0,0 0 0 0 745,759.5508 L745,744.418 L735,734.418 L538,734.418 A0,0 0 0 0 538,734.418 " fill="#FEFFDD" style="stroke:#181818;stroke-width:0.5;"/><path d="M735,734.418 L735,744.418 L745,744.418 L735,734.418 " fill="#FEFFDD" style="stroke:#181818;stroke-width:0.5;"/><text fill="#000000" font-family="sans-serif" font-size="13" lengthAdjust="spacing" textLength="186" x="544" y="751.4849">boolean isTextOk(String text)</text><ellipse cx="508" cy="746.9844" fill="#222222" rx="10" ry="10" style="stroke:#222222;stroke-width:1.0;"/><rect fill="#F1F1F1" height="33.9688" rx="12.5" ry="12.5" style="stroke:#181818;stroke-width:0.5;" width="97" x="459.5" y="827.9531"/><text fill="#000000" font-family="sans-serif" font-size="12" lengthAdjust="spacing" textLength="77" x="469.5" y="849.0918">return false;</text><ellipse cx="508" cy="901.4375" fill="none" rx="11" ry="11" style="stroke:#222222;stroke-width:1.0;"/><ellipse cx="508" cy="901.4375" fill="#222222" rx="6" ry="6" style="stroke:#111111;stroke-width:1.0;"/><polygon fill="#F1F1F1" points="476.5,779.5508,539.5,779.5508,551.5,791.5508,539.5,803.5508,476.5,803.5508,464.5,791.5508,476.5,779.5508" style="stroke:#181818;stroke-width:0.5;"/><text fill="#000000" font-family="sans-serif" font-size="11" lengthAdjust="spacing" textLength="20" x="512" y="813.7612">yes</text><text fill="#000000" font-family="sans-serif" font-size="11" lengthAdjust="spacing" textLength="59" x="476.5" y="795.3589">text==null</text><rect fill="#F1F1F1" height="33.9688" rx="12.5" ry="12.5" style="stroke:#181818;stroke-width:0.5;" width="222" x="397" y="954.4375"/><text fill="#000000" font-family="sans-serif" font-size="12" lengthAdjust="spacing" textLength="202" x="407" y="975.5762">return text.startsWith("@start");</text><ellipse cx="508" cy="1019.4063" fill="none" rx="11" ry="11" style="stroke:#222222;stroke-width:1.0;"/><ellipse cx="508" cy="1019.4063" fill="#222222" rx="6" ry="6" style="stroke:#111111;stroke-width:1.0;"/><ellipse cx="508" cy="1050.4063" fill="none" rx="10" ry="10" style="stroke:#222222;stroke-width:1.5;"/><line style="stroke:#222222;stroke-width:2.5;" x1="501.8128" x2="514.1872" y1="1044.2191" y2="1056.5934"/><line style="stroke:#222222;stroke-width:2.5;" x1="514.1872" x2="501.8128" y1="1044.2191" y2="1056.5934"/><path d="M538,1070.4063 L538,1078.9727 L518,1082.9727 L538,1086.9727 L538,1095.5391 A0,0 0 0 0 538,1095.5391 L714,1095.5391 A0,0 0 0 0 714,1095.5391 L714,1080.4063 L704,1070.4063 L538,1070.4063 A0,0 0 0 0 538,1070.4063 " fill="#FEFFDD" style="stroke:#181818;stroke-width:0.5;"/><path d="M704,1070.4063 L704,1080.4063 L714,1080.4063 L704,1070.4063 " fill="#FEFFDD" style="stroke:#181818;stroke-width:0.5;"/><text fill="#000000" font-family="sans-serif" font-size="13" lengthAdjust="spacing" textLength="155" x="544" y="1087.4731">void runText(String text)</text><ellipse cx="508" cy="1082.9727" fill="#222222" rx="10" ry="10" style="stroke:#222222;stroke-width:1.0;"/><rect fill="#F1F1F1" height="33.9688" rx="12.5" ry="12.5" style="stroke:#181818;stroke-width:0.5;" width="299" x="358.5" y="1115.5391"/><text fill="#000000" font-family="sans-serif" font-size="12" lengthAdjust="spacing" textLength="279" x="368.5" y="1136.6777">Log.info("Getting some text from clipboard");</text><rect fill="#F1F1F1" height="33.9688" rx="12.5" ry="12.5" style="stroke:#181818;stroke-width:0.5;" width="426" x="295" y="1169.5078"/><text fill="#000000" font-family="sans-serif" font-size="12" lengthAdjust="spacing" textLength="406" x="305" y="1190.6465">final SourceStringReader source=new SourceStringReader(text);</text><rect fill="#F1F1F1" height="33.9688" rx="12.5" ry="12.5" style="stroke:#181818;stroke-width:0.5;" width="432" x="292" y="1223.4766"/><text fill="#000000" font-family="sans-serif" font-size="12" lengthAdjust="spacing" textLength="412" x="302" y="1244.6152">final ByteArrayOutputStream baos=new ByteArrayOutputStream();</text><rect fill="#F1F1F1" height="33.9688" rx="12.5" ry="12.5" style="stroke:#181818;stroke-width:0.5;" width="389" x="313.5" y="1277.4453"/><text fill="#000000" font-family="sans-serif" font-size="12" lengthAdjust="spacing" textLength="369" x="323.5" y="1298.584">final DiagramDescription desc=source.outputImage(baos);</text><polygon fill="#F1F1F1" points="473.5,1331.4141,542.5,1331.4141,554.5,1343.4141,542.5,1355.4141,473.5,1355.4141,461.5,1343.4141,473.5,1331.4141" style="stroke:#181818;stroke-width:0.5;"/><text fill="#000000" font-family="sans-serif" font-size="11" lengthAdjust="spacing" textLength="65" x="473.5" y="1347.2222">desc==null</text><text fill="#000000" font-family="sans-serif" font-size="11" lengthAdjust="spacing" textLength="20" x="441.5" y="1340.8198">yes</text><text fill="#000000" font-family="sans-serif" font-size="11" lengthAdjust="spacing" textLength="14" x="554.5" y="1340.8198">no</text><rect fill="#F1F1F1" height="33.9688" rx="12.5" ry="12.5" style="stroke:#181818;stroke-width:0.5;" width="222" x="227.75" y="1365.4141"/><text fill="#000000" font-family="sans-serif" font-size="12" lengthAdjust="spacing" textLength="202" x="237.75" y="1386.5527">Log.info("No image generated");</text><rect fill="#F1F1F1" height="33.9688" rx="12.5" ry="12.5" style="stroke:#181818;stroke-width:0.5;" width="300" x="527.25" y="1365.4141"/><text fill="#000000" font-family="sans-serif" font-size="12" lengthAdjust="spacing" textLength="280" x="537.25" y="1386.5527">Log.info("Image ok "+desc.getDescription());</text><rect fill="#F1F1F1" height="33.9688" rx="12.5" ry="12.5" style="stroke:#181818;stroke-width:0.5;" width="102" x="626.25" y="1419.3828"/><text fill="#000000" font-family="sans-serif" font-size="12" lengthAdjust="spacing" textLength="82" x="636.25" y="1440.5215">baos.close();</text><rect fill="#F1F1F1" height="33.9688" rx="12.5" ry="12.5" style="stroke:#181818;stroke-width:0.5;" width="415" x="469.75" y="1473.3516"/><text fill="#000000" font-family="sans-serif" font-size="12" lengthAdjust="spacing" textLength="395" x="479.75" y="1494.4902">final BufferedImage image=SImageIO.read(baos.toByteArray());</text><rect fill="#F1F1F1" height="33.9688" rx="12.5" ry="12.5" style="stroke:#181818;stroke-width:0.5;" width="189" x="582.75" y="1527.3203"/><text fill="#000000" font-family="sans-serif" font-size="12" lengthAdjust="spacing" textLength="169" x="592.75" y="1548.459">setClipboardImage(image);</text><rect fill="#F1F1F1" height="33.9688" rx="12.5" ry="12.5" style="stroke:#181818;stroke-width:0.5;" width="254" x="550.25" y="1581.2891"/><text fill="#000000" font-family="sans-serif" font-size="12" lengthAdjust="spacing" textLength="234" x="560.25" y="1602.4277">Log.info("Image copied in clipboard");</text><polygon fill="#F1F1F1" points="508,1621.2578,520,1633.2578,508,1645.2578,496,1633.2578,508,1621.2578" style="stroke:#181818;stroke-width:0.5;"/><ellipse cx="508" cy="1675.2578" fill="none" rx="10" ry="10" style="stroke:#222222;stroke-width:1.5;"/><line style="stroke:#222222;stroke-width:2.5;" x1="501.8128" x2="514.1872" y1="1669.0706" y2="1681.445"/><line style="stroke:#222222;stroke-width:2.5;" x1="514.1872" x2="501.8128" y1="1669.0706" y2="1681.445"/><path d="M538,1695.2578 L538,1703.8242 L518,1707.8242 L538,1711.8242 L538,1720.3906 A0,0 0 0 0 538,1720.3906 L719,1720.3906 A0,0 0 0 0 719,1720.3906 L719,1705.2578 L709,1695.2578 L538,1695.2578 A0,0 0 0 0 538,1695.2578 " fill="#FEFFDD" style="stroke:#181818;stroke-width:0.5;"/><path d="M709,1695.2578 L709,1705.2578 L719,1705.2578 L709,1695.2578 " fill="#FEFFDD" style="stroke:#181818;stroke-width:0.5;"/><text fill="#000000" font-family="sans-serif" font-size="13" lengthAdjust="spacing" textLength="160" x="544" y="1712.3247">String getClipboardText()</text><ellipse cx="508" cy="1707.8242" fill="#222222" rx="10" ry="10" style="stroke:#222222;stroke-width:1.0;"/><rect fill="#F1F1F1" height="47.9375" rx="12.5" ry="12.5" style="stroke:#181818;stroke-width:0.5;" width="310" x="353" y="1740.3906"/><text fill="#000000" font-family="sans-serif" font-size="12" lengthAdjust="spacing" textLength="290" x="363" y="1761.5293">final Transferable t=Toolkit.getDefaultToolkit()</text><text fill="#000000" font-family="sans-serif" font-size="12" lengthAdjust="spacing" textLength="261" x="363" y="1775.498">.getSystemClipboard().getContents(null );</text><polygon fill="#F1F1F1" points="467,1808.3281,549,1808.3281,561,1820.3281,549,1832.3281,467,1832.3281,455,1820.3281,467,1808.3281" style="stroke:#181818;stroke-width:0.5;"/><text fill="#000000" font-family="sans-serif" font-size="11" lengthAdjust="spacing" textLength="82" x="467" y="1824.1362">try/catch block</text><rect fill="#F1F1F1" height="33.9688" rx="12.5" ry="12.5" style="stroke:#181818;stroke-width:0.5;" width="446" x="11" y="1916.3398"/><text fill="#000000" font-family="sans-serif" font-size="12" lengthAdjust="spacing" textLength="426" x="21" y="1937.4785">final String text=(String )t.getTransferData(DataFlavor.stringFlavor);</text><rect fill="#F1F1F1" height="33.9688" rx="12.5" ry="12.5" style="stroke:#181818;stroke-width:0.5;" width="91" x="188.5" y="1970.3086"/><text fill="#000000" font-family="sans-serif" font-size="12" lengthAdjust="spacing" textLength="71" x="198.5" y="1991.4473">return text;</text><ellipse cx="234" cy="2035.2773" fill="none" rx="11" ry="11" style="stroke:#222222;stroke-width:1.0;"/><ellipse cx="234" cy="2035.2773" fill="#222222" rx="6" ry="6" style="stroke:#111111;stroke-width:1.0;"/><polygon fill="#F1F1F1" points="66,1867.9375,402,1867.9375,414,1879.9375,402,1891.9375,66,1891.9375,54,1879.9375,66,1867.9375" style="stroke:#181818;stroke-width:0.5;"/><text fill="#000000" font-family="sans-serif" font-size="11" lengthAdjust="spacing" textLength="20" x="238" y="1902.1479">yes</text><text fill="#000000" font-family="sans-serif" font-size="11" lengthAdjust="spacing" textLength="336" x="66" y="1883.7456">t!=null &amp;&amp;t.isDataFlavorSupported(DataFlavor.stringFlavor)</text><rect fill="#F1F1F1" height="33.9688" rx="12.5" ry="12.5" style="stroke:#181818;stroke-width:0.5;" width="163" x="499" y="1867.9375"/><text fill="#000000" font-family="sans-serif" font-size="12" lengthAdjust="spacing" textLength="143" x="509" y="1889.0762">Log.error(e.toString());</text><rect fill="#F1F1F1" height="33.9688" rx="12.5" ry="12.5" style="stroke:#181818;stroke-width:0.5;" width="163" x="814.5" y="1867.9375"/><text fill="#000000" font-family="sans-serif" font-size="12" lengthAdjust="spacing" textLength="143" x="824.5" y="1889.0762">Log.error(e.toString());</text><polygon fill="#F1F1F1" points="508,2078.2773,508,2078.2773,520,2090.2773,508,2102.2773,508,2102.2773,496,2090.2773,508,2078.2773" style="stroke:#181818;stroke-width:0.5;"/><rect fill="#F1F1F1" height="33.9688" rx="12.5" ry="12.5" style="stroke:#181818;stroke-width:0.5;" width="93" x="461.5" y="2122.2773"/><text fill="#000000" font-family="sans-serif" font-size="12" lengthAdjust="spacing" textLength="73" x="471.5" y="2143.416">return null ;</text><ellipse cx="508" cy="2187.2461" fill="none" rx="11" ry="11" style="stroke:#222222;stroke-width:1.0;"/><ellipse cx="508" cy="2187.2461" fill="#222222" rx="6" ry="6" style="stroke:#111111;stroke-width:1.0;"/><ellipse cx="508" cy="2218.2461" fill="none" rx="10" ry="10" style="stroke:#222222;stroke-width:1.5;"/><line style="stroke:#222222;stroke-width:2.5;" x1="501.8128" x2="514.1872" y1="2212.0589" y2="2224.4333"/><line style="stroke:#222222;stroke-width:2.5;" x1="514.1872" x2="501.8128" y1="2212.0589" y2="2224.4333"/><path d="M538,2238.2461 L538,2246.8125 L518,2250.8125 L538,2254.8125 L538,2263.3789 A0,0 0 0 0 538,2263.3789 L857,2263.3789 A0,0 0 0 0 857,2263.3789 L857,2248.2461 L847,2238.2461 L538,2238.2461 A0,0 0 0 0 538,2238.2461 " fill="#FEFFDD" style="stroke:#181818;stroke-width:0.5;"/><path d="M847,2238.2461 L847,2248.2461 L857,2248.2461 L847,2238.2461 " fill="#FEFFDD" style="stroke:#181818;stroke-width:0.5;"/><text fill="#000000" font-family="sans-serif" font-size="13" lengthAdjust="spacing" textLength="298" x="544" y="2255.313">void setClipboardImage(BufferedImage image)</text><ellipse cx="508" cy="2250.8125" fill="#222222" rx="10" ry="10" style="stroke:#222222;stroke-width:1.0;"/><rect fill="#F1F1F1" height="47.9375" rx="12.5" ry="12.5" style="stroke:#181818;stroke-width:0.5;" width="343" x="336.5" y="2283.3789"/><text fill="#000000" font-family="sans-serif" font-size="12" lengthAdjust="spacing" textLength="323" x="346.5" y="2304.5176">final Clipboard clipboard=Toolkit.getDefaultToolkit()</text><text fill="#000000" font-family="sans-serif" font-size="12" lengthAdjust="spacing" textLength="143" x="346.5" y="2318.4863">.getSystemClipboard();</text><rect fill="#F1F1F1" height="47.9375" rx="12.5" ry="12.5" style="stroke:#181818;stroke-width:0.5;" width="341" x="337.5" y="2351.3164"/><text fill="#000000" font-family="sans-serif" font-size="12" lengthAdjust="spacing" textLength="321" x="347.5" y="2372.4551">clipboard.setContents(new ImageSelection(image),</text><text fill="#000000" font-family="sans-serif" font-size="12" lengthAdjust="spacing" textLength="35" x="347.5" y="2386.4238">null );</text><ellipse cx="508" cy="2429.2539" fill="none" rx="10" ry="10" style="stroke:#222222;stroke-width:1.5;"/><line style="stroke:#222222;stroke-width:2.5;" x1="501.8128" x2="514.1872" y1="2423.0667" y2="2435.4411"/><line style="stroke:#222222;stroke-width:2.5;" x1="514.1872" x2="501.8128" y1="2423.0667" y2="2435.4411"/><line style="stroke:#181818;stroke-width:1.0;" x1="508" x2="508" y1="32.5664" y2="55.1328"/><polygon fill="#181818" points="504,45.1328,508,55.1328,512,45.1328,508,49.1328" style="stroke:#181818;stroke-width:1.0;"/><line style="stroke:#181818;stroke-width:1.0;" x1="508" x2="508" y1="231.0703" y2="255.4727"/><polygon fill="#181818" points="504,245.4727,508,255.4727,512,245.4727,508,249.4727" style="stroke:#181818;stroke-width:1.0;"/><line style="stroke:#181818;stroke-width:1.0;" x1="600.5" x2="616.5" y1="219.0703" y2="219.0703"/><polygon fill="#181818" points="612.5,262.457,616.5,272.457,620.5,262.457,616.5,266.457" style="stroke:#181818;stroke-width:1.0;"/><line style="stroke:#181818;stroke-width:1.0;" x1="616.5" x2="616.5" y1="219.0703" y2="321.4414"/><line style="stroke:#181818;stroke-width:1.0;" x1="616.5" x2="520" y1="321.4414" y2="321.4414"/><polygon fill="#181818" points="530,317.4414,520,321.4414,530,325.4414,526,321.4414" style="stroke:#181818;stroke-width:1.0;"/><line style="stroke:#181818;stroke-width:1.0;" x1="508" x2="508" y1="289.4414" y2="309.4414"/><polygon fill="#181818" points="504,299.4414,508,309.4414,512,299.4414,508,303.4414" style="stroke:#181818;stroke-width:1.0;"/><line style="stroke:#181818;stroke-width:1.0;" x1="508" x2="508" y1="187.0703" y2="207.0703"/><polygon fill="#181818" points="504,197.0703,508,207.0703,512,197.0703,508,201.0703" style="stroke:#181818;stroke-width:1.0;"/><line style="stroke:#181818;stroke-width:1.0;" x1="508" x2="508" y1="333.4414" y2="353.4414"/><polygon fill="#181818" points="504,343.4414,508,353.4414,512,343.4414,508,347.4414" style="stroke:#181818;stroke-width:1.0;"/><line style="stroke:#181818;stroke-width:1.0;" x1="508" x2="508" y1="133.1016" y2="153.1016"/><polygon fill="#181818" points="504,143.1016,508,153.1016,512,143.1016,508,147.1016" style="stroke:#181818;stroke-width:1.0;"/><line style="stroke:#181818;stroke-width:1.0;" x1="508" x2="508" y1="387.4102" y2="397.4102"/><line style="stroke:#181818;stroke-width:1.0;" x1="508" x2="688.5" y1="397.4102" y2="397.4102"/><polygon fill="#181818" points="684.5,270.457,688.5,260.457,692.5,270.457,688.5,266.457" style="stroke:#181818;stroke-width:1.0;"/><line style="stroke:#181818;stroke-width:1.0;" x1="688.5" x2="688.5" y1="121.1016" y2="397.4102"/><line style="stroke:#181818;stroke-width:1.0;" x1="688.5" x2="532" y1="121.1016" y2="121.1016"/><polygon fill="#181818" points="542,117.1016,532,121.1016,542,125.1016,538,121.1016" style="stroke:#181818;stroke-width:1.0;"/><line style="stroke:#181818;stroke-width:1.0;" x1="484" x2="317.5" y1="121.1016" y2="121.1016"/><line style="stroke:#181818;stroke-width:1.0;" x1="317.5" x2="317.5" y1="121.1016" y2="153.1016"/><polygon fill="#181818" points="313.5,143.1016,317.5,153.1016,321.5,143.1016,317.5,147.1016" style="stroke:#181818;stroke-width:1.0;"/><line style="stroke:#181818;stroke-width:1.0;" x1="508" x2="508" y1="89.1016" y2="109.1016"/><polygon fill="#181818" points="504,99.1016,508,109.1016,512,99.1016,508,103.1016" style="stroke:#181818;stroke-width:1.0;"/><line style="stroke:#181818;stroke-width:1.0;" x1="508" x2="508" y1="441.9766" y2="464.543"/><polygon fill="#181818" points="504,454.543,508,464.543,512,454.543,508,458.543" style="stroke:#181818;stroke-width:1.0;"/><line style="stroke:#181818;stroke-width:1.0;" x1="508" x2="508" y1="498.5117" y2="518.5117"/><polygon fill="#181818" points="504,508.5117,508,518.5117,512,508.5117,508,512.5117" style="stroke:#181818;stroke-width:1.0;"/><line style="stroke:#181818;stroke-width:1.0;" x1="415.5" x2="354" y1="584.4805" y2="584.4805"/><line style="stroke:#181818;stroke-width:1.0;" x1="354" x2="354" y1="584.4805" y2="606.4805"/><polygon fill="#181818" points="350,596.4805,354,606.4805,358,596.4805,354,600.4805" style="stroke:#181818;stroke-width:1.0;"/><line style="stroke:#181818;stroke-width:1.0;" x1="600.5" x2="662" y1="584.4805" y2="584.4805"/><line style="stroke:#181818;stroke-width:1.0;" x1="662" x2="662" y1="584.4805" y2="606.4805"/><polygon fill="#181818" points="658,596.4805,662,606.4805,666,596.4805,662,600.4805" style="stroke:#181818;stroke-width:1.0;"/><line style="stroke:#181818;stroke-width:1.0;" x1="354" x2="354" y1="640.4492" y2="672.418"/><line style="stroke:#181818;stroke-width:1.0;" x1="354" x2="496" y1="672.418" y2="672.418"/><polygon fill="#181818" points="486,668.418,496,672.418,486,676.418,490,672.418" style="stroke:#181818;stroke-width:1.0;"/><line style="stroke:#181818;stroke-width:1.0;" x1="662" x2="662" y1="654.418" y2="672.418"/><line style="stroke:#181818;stroke-width:1.0;" x1="662" x2="520" y1="672.418" y2="672.418"/><polygon fill="#181818" points="530,668.418,520,672.418,530,676.418,526,672.418" style="stroke:#181818;stroke-width:1.0;"/><line style="stroke:#181818;stroke-width:1.0;" x1="508" x2="508" y1="552.4805" y2="572.4805"/><polygon fill="#181818" points="504,562.4805,508,572.4805,512,562.4805,508,566.4805" style="stroke:#181818;stroke-width:1.0;"/><line style="stroke:#181818;stroke-width:1.0;" x1="508" x2="508" y1="684.418" y2="704.418"/><polygon fill="#181818" points="504,694.418,508,704.418,512,694.418,508,698.418" style="stroke:#181818;stroke-width:1.0;"/><line style="stroke:#181818;stroke-width:1.0;" x1="508" x2="508" y1="861.9219" y2="890.4375"/><polygon fill="#181818" points="504,880.4375,508,890.4375,512,880.4375,508,884.4375" style="stroke:#181818;stroke-width:1.0;"/><line style="stroke:#181818;stroke-width:1.0;" x1="508" x2="508" y1="803.5508" y2="827.9531"/><polygon fill="#181818" points="504,817.9531,508,827.9531,512,817.9531,508,821.9531" style="stroke:#181818;stroke-width:1.0;"/><line style="stroke:#181818;stroke-width:1.0;" x1="551.5" x2="566.5" y1="791.5508" y2="791.5508"/><polygon fill="#181818" points="562.5,860.4375,566.5,870.4375,570.5,860.4375,566.5,864.4375" style="stroke:#181818;stroke-width:1.0;"/><line style="stroke:#181818;stroke-width:1.0;" x1="566.5" x2="566.5" y1="791.5508" y2="934.4375"/><line style="stroke:#181818;stroke-width:1.0;" x1="566.5" x2="508" y1="934.4375" y2="934.4375"/><line style="stroke:#181818;stroke-width:1.0;" x1="508" x2="508" y1="934.4375" y2="954.4375"/><polygon fill="#181818" points="504,944.4375,508,954.4375,512,944.4375,508,948.4375" style="stroke:#181818;stroke-width:1.0;"/><line style="stroke:#181818;stroke-width:1.0;" x1="508" x2="508" y1="756.9844" y2="779.5508"/><polygon fill="#181818" points="504,769.5508,508,779.5508,512,769.5508,508,773.5508" style="stroke:#181818;stroke-width:1.0;"/><line style="stroke:#181818;stroke-width:1.0;" x1="508" x2="508" y1="988.4063" y2="1008.4063"/><polygon fill="#181818" points="504,998.4063,508,1008.4063,512,998.4063,508,1002.4063" style="stroke:#181818;stroke-width:1.0;"/><line style="stroke:#181818;stroke-width:1.0;" x1="508" x2="508" y1="1092.9727" y2="1115.5391"/><polygon fill="#181818" points="504,1105.5391,508,1115.5391,512,1105.5391,508,1109.5391" style="stroke:#181818;stroke-width:1.0;"/><line style="stroke:#181818;stroke-width:1.0;" x1="508" x2="508" y1="1149.5078" y2="1169.5078"/><polygon fill="#181818" points="504,1159.5078,508,1169.5078,512,1159.5078,508,1163.5078" style="stroke:#181818;stroke-width:1.0;"/><line style="stroke:#181818;stroke-width:1.0;" x1="508" x2="508" y1="1203.4766" y2="1223.4766"/><polygon fill="#181818" points="504,1213.4766,508,1223.4766,512,1213.4766,508,1217.4766" style="stroke:#181818;stroke-width:1.0;"/><line style="stroke:#181818;stroke-width:1.0;" x1="508" x2="508" y1="1257.4453" y2="1277.4453"/><polygon fill="#181818" points="504,1267.4453,508,1277.4453,512,1267.4453,508,1271.4453" style="stroke:#181818;stroke-width:1.0;"/><line style="stroke:#181818;stroke-width:1.0;" x1="677.25" x2="677.25" y1="1399.3828" y2="1419.3828"/><polygon fill="#181818" points="673.25,1409.3828,677.25,1419.3828,681.25,1409.3828,677.25,1413.3828" style="stroke:#181818;stroke-width:1.0;"/><line style="stroke:#181818;stroke-width:1.0;" x1="677.25" x2="677.25" y1="1453.3516" y2="1473.3516"/><polygon fill="#181818" points="673.25,1463.3516,677.25,1473.3516,681.25,1463.3516,677.25,1467.3516" style="stroke:#181818;stroke-width:1.0;"/><line style="stroke:#181818;stroke-width:1.0;" x1="677.25" x2="677.25" y1="1507.3203" y2="1527.3203"/><polygon fill="#181818" points="673.25,1517.3203,677.25,1527.3203,681.25,1517.3203,677.25,1521.3203" style="stroke:#181818;stroke-width:1.0;"/><line style="stroke:#181818;stroke-width:1.0;" x1="677.25" x2="677.25" y1="1561.2891" y2="1581.2891"/><polygon fill="#181818" points="673.25,1571.2891,677.25,1581.2891,681.25,1571.2891,677.25,1575.2891" style="stroke:#181818;stroke-width:1.0;"/><line style="stroke:#181818;stroke-width:1.0;" x1="461.5" x2="338.75" y1="1343.4141" y2="1343.4141"/><line style="stroke:#181818;stroke-width:1.0;" x1="338.75" x2="338.75" y1="1343.4141" y2="1365.4141"/><polygon fill="#181818" points="334.75,1355.4141,338.75,1365.4141,342.75,1355.4141,338.75,1359.4141" style="stroke:#181818;stroke-width:1.0;"/><line style="stroke:#181818;stroke-width:1.0;" x1="554.5" x2="677.25" y1="1343.4141" y2="1343.4141"/><line style="stroke:#181818;stroke-width:1.0;" x1="677.25" x2="677.25" y1="1343.4141" y2="1365.4141"/><polygon fill="#181818" points="673.25,1355.4141,677.25,1365.4141,681.25,1355.4141,677.25,1359.4141" style="stroke:#181818;stroke-width:1.0;"/><line style="stroke:#181818;stroke-width:1.0;" x1="338.75" x2="338.75" y1="1399.3828" y2="1633.2578"/><line style="stroke:#181818;stroke-width:1.0;" x1="338.75" x2="496" y1="1633.2578" y2="1633.2578"/><polygon fill="#181818" points="486,1629.2578,496,1633.2578,486,1637.2578,490,1633.2578" style="stroke:#181818;stroke-width:1.0;"/><line style="stroke:#181818;stroke-width:1.0;" x1="677.25" x2="677.25" y1="1615.2578" y2="1633.2578"/><line style="stroke:#181818;stroke-width:1.0;" x1="677.25" x2="520" y1="1633.2578" y2="1633.2578"/><polygon fill="#181818" points="530,1629.2578,520,1633.2578,530,1637.2578,526,1633.2578" style="stroke:#181818;stroke-width:1.0;"/><line style="stroke:#181818;stroke-width:1.0;" x1="508" x2="508" y1="1311.4141" y2="1331.4141"/><polygon fill="#181818" points="504,1321.4141,508,1331.4141,512,1321.4141,508,1325.4141" style="stroke:#181818;stroke-width:1.0;"/><line style="stroke:#181818;stroke-width:1.0;" x1="508" x2="508" y1="1645.2578" y2="1665.2578"/><polygon fill="#181818" points="504,1655.2578,508,1665.2578,512,1655.2578,508,1659.2578" style="stroke:#181818;stroke-width:1.0;"/><line style="stroke:#181818;stroke-width:1.0;" x1="508" x2="508" y1="1717.8242" y2="1740.3906"/><polygon fill="#181818" points="504,1730.3906,508,1740.3906,512,1730.3906,508,1734.3906" style="stroke:#181818;stroke-width:1.0;"/><line style="stroke:#181818;stroke-width:1.0;" x1="234" x2="234" y1="1950.3086" y2="1970.3086"/><polygon fill="#181818" points="230,1960.3086,234,1970.3086,238,1960.3086,234,1964.3086" style="stroke:#181818;stroke-width:1.0;"/><line style="stroke:#181818;stroke-width:1.0;" x1="234" x2="234" y1="2004.2773" y2="2024.2773"/><polygon fill="#181818" points="230,2014.2773,234,2024.2773,238,2014.2773,234,2018.2773" style="stroke:#181818;stroke-width:1.0;"/><line style="stroke:#181818;stroke-width:1.0;" x1="234" x2="234" y1="1891.9375" y2="1916.3398"/><polygon fill="#181818" points="230,1906.3398,234,1916.3398,238,1906.3398,234,1910.3398" style="stroke:#181818;stroke-width:1.0;"/><line style="stroke:#181818;stroke-width:1.0;" x1="414" x2="467" y1="1879.9375" y2="1879.9375"/><polygon fill="#181818" points="463,2014.3086,467,2024.3086,471,2014.3086,467,2018.3086" style="stroke:#181818;stroke-width:1.0;"/><line style="stroke:#181818;stroke-width:1.0;" x1="467" x2="467" y1="1879.9375" y2="2090.2773"/><line style="stroke:#181818;stroke-width:1.0;" x1="467" x2="496" y1="2090.2773" y2="2090.2773"/><polygon fill="#181818" points="486,2086.2773,496,2090.2773,486,2094.2773,490,2090.2773" style="stroke:#181818;stroke-width:1.0;"/><line style="stroke:#181818;stroke-width:1.0;" x1="455" x2="234" y1="1820.3281" y2="1820.3281"/><line style="stroke:#181818;stroke-width:1.0;" x1="234" x2="234" y1="1820.3281" y2="1867.9375"/><polygon fill="#181818" points="230,1857.9375,234,1867.9375,238,1857.9375,234,1861.9375" style="stroke:#181818;stroke-width:1.0;"/><text fill="#000000" font-family="sans-serif" font-size="11" lengthAdjust="spacing" textLength="15" x="234" y="1847.9409">try</text><line style="stroke:#181818;stroke-width:1.0;" x1="561" x2="896" y1="1820.3281" y2="1820.3281"/><line style="stroke:#181818;stroke-width:1.0;" x1="896" x2="896" y1="1820.3281" y2="1867.9375"/><polygon fill="#181818" points="892,1857.9375,896,1867.9375,900,1857.9375,896,1861.9375" style="stroke:#181818;stroke-width:1.0;"/><text fill="#000000" font-family="sans-serif" font-size="11" lengthAdjust="spacing" textLength="119" x="896" y="1847.9409">catch (IOException e)</text><line style="stroke:#181818;stroke-width:1.0;" x1="580.5" x2="580.5" y1="1820.3281" y2="1867.9375"/><polygon fill="#181818" points="576.5,1857.9375,580.5,1867.9375,584.5,1857.9375,580.5,1861.9375" style="stroke:#181818;stroke-width:1.0;"/><text fill="#000000" font-family="sans-serif" font-size="11" lengthAdjust="spacing" textLength="214" x="580.5" y="1842.9409">catch (UnsupportedFlavorException e)</text><line style="stroke:#181818;stroke-width:1.0;" x1="896" x2="896" y1="1901.9063" y2="2090.2773"/><line style="stroke:#181818;stroke-width:1.0;" x1="896" x2="520" y1="2090.2773" y2="2090.2773"/><polygon fill="#181818" points="530,2086.2773,520,2090.2773,530,2094.2773,526,2090.2773" style="stroke:#181818;stroke-width:1.0;"/><line style="stroke:#181818;stroke-width:1.0;" x1="580.5" x2="580.5" y1="1901.9063" y2="2090.2773"/><polygon fill="#181818" points="576.5,2080.2773,580.5,2090.2773,584.5,2080.2773,580.5,2084.2773" style="stroke:#181818;stroke-width:1.0;"/><line style="stroke:#181818;stroke-width:1.0;" x1="508" x2="508" y1="1788.3281" y2="1808.3281"/><polygon fill="#181818" points="504,1798.3281,508,1808.3281,512,1798.3281,508,1802.3281" style="stroke:#181818;stroke-width:1.0;"/><line style="stroke:#181818;stroke-width:1.0;" x1="508" x2="508" y1="2102.2773" y2="2122.2773"/><polygon fill="#181818" points="504,2112.2773,508,2122.2773,512,2112.2773,508,2116.2773" style="stroke:#181818;stroke-width:1.0;"/><line style="stroke:#181818;stroke-width:1.0;" x1="508" x2="508" y1="2156.2461" y2="2176.2461"/><polygon fill="#181818" points="504,2166.2461,508,2176.2461,512,2166.2461,508,2170.2461" style="stroke:#181818;stroke-width:1.0;"/><line style="stroke:#181818;stroke-width:1.0;" x1="508" x2="508" y1="2260.8125" y2="2283.3789"/><polygon fill="#181818" points="504,2273.3789,508,2283.3789,512,2273.3789,508,2277.3789" style="stroke:#181818;stroke-width:1.0;"/><line style="stroke:#181818;stroke-width:1.0;" x1="508" x2="508" y1="2331.3164" y2="2351.3164"/><polygon fill="#181818" points="504,2341.3164,508,2351.3164,512,2341.3164,508,2345.3164" style="stroke:#181818;stroke-width:1.0;"/><line style="stroke:#181818;stroke-width:1.0;" x1="508" x2="508" y1="2399.2539" y2="2419.2539"/><polygon fill="#181818" points="504,2409.2539,508,2419.2539,512,2409.2539,508,2413.2539" style="stroke:#181818;stroke-width:1.0;"/><!--MD5=[7f90d8db3fcb550a1933b5735c1ed218]
@startuml
!pragma layout smetana
start
note right
void runLoop()
end note
:final ClipboardLoop clipboardLoop=new ClipboardLoop();;
while (true)
:final String text=clipboardLoop.getClipboardText();;
if (clipboardLoop.isTextOk(text)) then (yes) 
:clipboardLoop.runText(text);;
endif 
:Thread.sleep(10000L);;
endwhile
end
start
note right
void runOnce()
end note
:final ClipboardLoop clipboardLoop=new ClipboardLoop();;
:final String text=clipboardLoop.getClipboardText();;
if (clipboardLoop.isTextOk(text)) then (yes) 
:clipboardLoop.runText(text);;
else (no)
:clipboardLoop.setClipboardImage(new BufferedImage(10,
10,BufferedImage.TYPE_INT_ARGB));;
endif 
end
start
note right
boolean isTextOk(String text)
end note
if (text==null ) then (yes) 
:return false;;
stop
endif 
:return text.startsWith("@start");;
stop
end
start
note right
void runText(String text)
end note
:Log.info("Getting some text from clipboard");;
:final SourceStringReader source=new SourceStringReader(text);;
:final ByteArrayOutputStream baos=new ByteArrayOutputStream();;
:final DiagramDescription desc=source.outputImage(baos);;
if (desc==null ) then (yes) 
:Log.info("No image generated");;
else (no)
:Log.info("Image ok "+desc.getDescription());;
:baos.close();;
:final BufferedImage image=SImageIO.read(baos.toByteArray());;
:setClipboardImage(image);;
:Log.info("Image copied in clipboard");;
endif 
end
start
note right
String getClipboardText()
end note
:final Transferable t=Toolkit.getDefaultToolkit()
.getSystemClipboard().getContents(null );;
switch (try/catch block)
case (try)
if (t!=null &&t.isDataFlavorSupported(DataFlavor.stringFlavor)) then (yes) 
:final String text=(String )t.getTransferData(DataFlavor.stringFlavor);;
:return text;;
stop
endif 
case (catch (UnsupportedFlavorException e))
:Log.error(e.toString());;
case (catch (IOException e))
:Log.error(e.toString());;
endswitch
:return null ;;
stop
end
start
note right
void setClipboardImage(BufferedImage image)
end note
:final Clipboard clipboard=Toolkit.getDefaultToolkit()
.getSystemClipboard();;
:clipboard.setContents(new ImageSelection(image),
null );;
end
@enduml

PlantUML version 1.2022.7(Mon Aug 22 17:01:30 UTC 2022)
(GPL source distribution)
Java Runtime: OpenJDK Runtime Environment
JVM: OpenJDK 64-Bit Server VM
Default Encoding: UTF-8
Language: en
Country: null
--></g></svg>