<?xml version="1.0" encoding="UTF-8" standalone="no"?><svg xmlns="http://www.w3.org/2000/svg" xmlns:xlink="http://www.w3.org/1999/xlink" contentStyleType="text/css" height="1498px" preserveAspectRatio="none" style="width:547px;height:1498px;background:#FFFFFF;" version="1.1" viewBox="0 0 547 1498" width="547px" zoomAndPan="magnify"><defs/><g><path d="M215.5,10 L215.5,26.1328 L195.5,30.1328 L215.5,34.1328 L215.5,50.2656 A0,0 0 0 0 215.5,50.2656 L520.5,50.2656 A0,0 0 0 0 520.5,50.2656 L520.5,20 L510.5,10 L215.5,10 A0,0 0 0 0 215.5,10 " fill="#FEFFDD" style="stroke:#181818;stroke-width:0.5;"/><path d="M510.5,10 L510.5,20 L520.5,20 L510.5,10 " fill="#FEFFDD" style="stroke:#181818;stroke-width:0.5;"/><text fill="#000000" font-family="sans-serif" font-size="13" lengthAdjust="spacing" textLength="284" x="221.5" y="27.0669">constructor ColorParam(HColordefaultValue,</text><text fill="#000000" font-family="sans-serif" font-size="13" lengthAdjust="spacing" textLength="129" x="221.5" y="42.1997">ColorTypecolorType)</text><ellipse cx="185.5" cy="30.1328" fill="#222222" rx="10" ry="10" style="stroke:#222222;stroke-width:1.0;"/><rect fill="#F1F1F1" height="33.9688" rx="12.5" ry="12.5" style="stroke:#181818;stroke-width:0.5;" width="234" x="68.5" y="70.2656"/><text fill="#000000" font-family="sans-serif" font-size="12" lengthAdjust="spacing" textLength="214" x="78.5" y="91.4043">this(defaultValue,false,colorType);</text><ellipse cx="185.5" cy="134.2344" fill="none" rx="10" ry="10" style="stroke:#222222;stroke-width:1.5;"/><line style="stroke:#222222;stroke-width:2.5;" x1="179.3128" x2="191.6872" y1="128.0472" y2="140.4216"/><line style="stroke:#222222;stroke-width:2.5;" x1="191.6872" x2="179.3128" y1="128.0472" y2="140.4216"/><path d="M215.5,154.2344 L215.5,162.8008 L195.5,166.8008 L215.5,170.8008 L215.5,179.3672 A0,0 0 0 0 215.5,179.3672 L521.5,179.3672 A0,0 0 0 0 521.5,179.3672 L521.5,164.2344 L511.5,154.2344 L215.5,154.2344 A0,0 0 0 0 215.5,154.2344 " fill="#FEFFDD" style="stroke:#181818;stroke-width:0.5;"/><path d="M511.5,154.2344 L511.5,164.2344 L521.5,164.2344 L511.5,154.2344 " fill="#FEFFDD" style="stroke:#181818;stroke-width:0.5;"/><text fill="#000000" font-family="sans-serif" font-size="13" lengthAdjust="spacing" textLength="285" x="221.5" y="171.3013">constructor ColorParam(HColordefaultValue)</text><ellipse cx="185.5" cy="166.8008" fill="#222222" rx="10" ry="10" style="stroke:#222222;stroke-width:1.0;"/><rect fill="#F1F1F1" height="33.9688" rx="12.5" ry="12.5" style="stroke:#181818;stroke-width:0.5;" width="200" x="85.5" y="199.3672"/><text fill="#000000" font-family="sans-serif" font-size="12" lengthAdjust="spacing" textLength="180" x="95.5" y="220.5059">this(defaultValue,false,null );</text><ellipse cx="185.5" cy="263.3359" fill="none" rx="10" ry="10" style="stroke:#222222;stroke-width:1.5;"/><line style="stroke:#222222;stroke-width:2.5;" x1="179.3128" x2="191.6872" y1="257.1488" y2="269.5231"/><line style="stroke:#222222;stroke-width:2.5;" x1="191.6872" x2="179.3128" y1="257.1488" y2="269.5231"/><path d="M215.5,283.3359 L215.5,291.9023 L195.5,295.9023 L215.5,299.9023 L215.5,308.4688 A0,0 0 0 0 215.5,308.4688 L398.5,308.4688 A0,0 0 0 0 398.5,308.4688 L398.5,293.3359 L388.5,283.3359 L215.5,283.3359 A0,0 0 0 0 215.5,283.3359 " fill="#FEFFDD" style="stroke:#181818;stroke-width:0.5;"/><path d="M388.5,283.3359 L388.5,293.3359 L398.5,293.3359 L388.5,283.3359 " fill="#FEFFDD" style="stroke:#181818;stroke-width:0.5;"/><text fill="#000000" font-family="sans-serif" font-size="13" lengthAdjust="spacing" textLength="162" x="221.5" y="300.4028">constructor ColorParam()</text><ellipse cx="185.5" cy="295.9023" fill="#222222" rx="10" ry="10" style="stroke:#222222;stroke-width:1.0;"/><rect fill="#F1F1F1" height="33.9688" rx="12.5" ry="12.5" style="stroke:#181818;stroke-width:0.5;" width="147" x="112" y="328.4688"/><text fill="#000000" font-family="sans-serif" font-size="12" lengthAdjust="spacing" textLength="127" x="122" y="349.6074">this(null ,false,null );</text><ellipse cx="185.5" cy="392.4375" fill="none" rx="10" ry="10" style="stroke:#222222;stroke-width:1.5;"/><line style="stroke:#222222;stroke-width:2.5;" x1="179.3128" x2="191.6872" y1="386.2503" y2="398.6247"/><line style="stroke:#222222;stroke-width:2.5;" x1="191.6872" x2="179.3128" y1="386.2503" y2="398.6247"/><path d="M215.5,412.4375 L215.5,421.0039 L195.5,425.0039 L215.5,429.0039 L215.5,437.5703 A0,0 0 0 0 215.5,437.5703 L535.5,437.5703 A0,0 0 0 0 535.5,437.5703 L535.5,422.4375 L525.5,412.4375 L215.5,412.4375 A0,0 0 0 0 215.5,412.4375 " fill="#FEFFDD" style="stroke:#181818;stroke-width:0.5;"/><path d="M525.5,412.4375 L525.5,422.4375 L535.5,422.4375 L525.5,412.4375 " fill="#FEFFDD" style="stroke:#181818;stroke-width:0.5;"/><text fill="#000000" font-family="sans-serif" font-size="13" lengthAdjust="spacing" textLength="299" x="221.5" y="429.5044">constructor ColorParam(booleanisBackground)</text><ellipse cx="185.5" cy="425.0039" fill="#222222" rx="10" ry="10" style="stroke:#222222;stroke-width:1.0;"/><rect fill="#F1F1F1" height="33.9688" rx="12.5" ry="12.5" style="stroke:#181818;stroke-width:0.5;" width="202" x="84.5" y="457.5703"/><text fill="#000000" font-family="sans-serif" font-size="12" lengthAdjust="spacing" textLength="182" x="94.5" y="478.709">this(null ,isBackground,null );</text><ellipse cx="185.5" cy="521.5391" fill="none" rx="10" ry="10" style="stroke:#222222;stroke-width:1.5;"/><line style="stroke:#222222;stroke-width:2.5;" x1="179.3128" x2="191.6872" y1="515.3519" y2="527.7262"/><line style="stroke:#222222;stroke-width:2.5;" x1="191.6872" x2="179.3128" y1="515.3519" y2="527.7262"/><path d="M215.5,541.5391 L215.5,557.6719 L195.5,561.6719 L215.5,565.6719 L215.5,581.8047 A0,0 0 0 0 215.5,581.8047 L520.5,581.8047 A0,0 0 0 0 520.5,581.8047 L520.5,551.5391 L510.5,541.5391 L215.5,541.5391 A0,0 0 0 0 215.5,541.5391 " fill="#FEFFDD" style="stroke:#181818;stroke-width:0.5;"/><path d="M510.5,541.5391 L510.5,551.5391 L520.5,551.5391 L510.5,541.5391 " fill="#FEFFDD" style="stroke:#181818;stroke-width:0.5;"/><text fill="#000000" font-family="sans-serif" font-size="13" lengthAdjust="spacing" textLength="284" x="221.5" y="558.606">constructor ColorParam(HColordefaultValue,</text><text fill="#000000" font-family="sans-serif" font-size="13" lengthAdjust="spacing" textLength="270" x="221.5" y="573.7388">booleanisBackground,ColorTypecolorType)</text><ellipse cx="185.5" cy="561.6719" fill="#222222" rx="10" ry="10" style="stroke:#222222;stroke-width:1.0;"/><rect fill="#F1F1F1" height="33.9688" rx="12.5" ry="12.5" style="stroke:#181818;stroke-width:0.5;" width="231" x="70" y="601.8047"/><text fill="#000000" font-family="sans-serif" font-size="12" lengthAdjust="spacing" textLength="211" x="80" y="622.9434">this.isBackground=isBackground;</text><rect fill="#F1F1F1" height="33.9688" rx="12.5" ry="12.5" style="stroke:#181818;stroke-width:0.5;" width="219" x="76" y="655.7734"/><text fill="#000000" font-family="sans-serif" font-size="12" lengthAdjust="spacing" textLength="199" x="86" y="676.9121">this.defaultValue=defaultValue;</text><rect fill="#F1F1F1" height="33.9688" rx="12.5" ry="12.5" style="stroke:#181818;stroke-width:0.5;" width="181" x="95" y="709.7422"/><text fill="#000000" font-family="sans-serif" font-size="12" lengthAdjust="spacing" textLength="161" x="105" y="730.8809">this.colorType=colorType;</text><rect fill="#F1F1F1" height="33.9688" rx="12.5" ry="12.5" style="stroke:#181818;stroke-width:0.5;" width="168" x="101.5" y="812.1133"/><text fill="#000000" font-family="sans-serif" font-size="12" lengthAdjust="spacing" textLength="148" x="111.5" y="833.252">System.err.println(this);</text><rect fill="#F1F1F1" height="33.9688" rx="12.5" ry="12.5" style="stroke:#181818;stroke-width:0.5;" width="233" x="69" y="866.082"/><text fill="#000000" font-family="sans-serif" font-size="12" lengthAdjust="spacing" textLength="213" x="79" y="887.2207">throw new IllegalStateException();</text><ellipse cx="185.5" cy="931.0508" fill="none" rx="11" ry="11" style="stroke:#222222;stroke-width:1.0;"/><ellipse cx="185.5" cy="931.0508" fill="#222222" rx="6" ry="6" style="stroke:#111111;stroke-width:1.0;"/><polygon fill="#F1F1F1" points="32,763.7109,339,763.7109,351,775.7109,339,787.7109,32,787.7109,20,775.7109,32,763.7109" style="stroke:#181818;stroke-width:0.5;"/><text fill="#000000" font-family="sans-serif" font-size="11" lengthAdjust="spacing" textLength="20" x="189.5" y="797.9214">yes</text><text fill="#000000" font-family="sans-serif" font-size="11" lengthAdjust="spacing" textLength="307" x="32" y="779.519">colorType==ColorType.BACK&amp;&amp;isBackground==false</text><ellipse cx="185.5" cy="994.0508" fill="none" rx="10" ry="10" style="stroke:#222222;stroke-width:1.5;"/><line style="stroke:#222222;stroke-width:2.5;" x1="179.3128" x2="191.6872" y1="987.8636" y2="1000.238"/><line style="stroke:#222222;stroke-width:2.5;" x1="191.6872" x2="179.3128" y1="987.8636" y2="1000.238"/><path d="M215.5,1014.0508 L215.5,1022.6172 L195.5,1026.6172 L215.5,1030.6172 L215.5,1039.1836 A0,0 0 0 0 215.5,1039.1836 L383.5,1039.1836 A0,0 0 0 0 383.5,1039.1836 L383.5,1024.0508 L373.5,1014.0508 L215.5,1014.0508 A0,0 0 0 0 215.5,1014.0508 " fill="#FEFFDD" style="stroke:#181818;stroke-width:0.5;"/><path d="M373.5,1014.0508 L373.5,1024.0508 L383.5,1024.0508 L373.5,1014.0508 " fill="#FEFFDD" style="stroke:#181818;stroke-width:0.5;"/><text fill="#000000" font-family="sans-serif" font-size="13" lengthAdjust="spacing" textLength="147" x="221.5" y="1031.1177">booleanisBackground()</text><ellipse cx="185.5" cy="1026.6172" fill="#222222" rx="10" ry="10" style="stroke:#222222;stroke-width:1.0;"/><rect fill="#F1F1F1" height="33.9688" rx="12.5" ry="12.5" style="stroke:#181818;stroke-width:0.5;" width="152" x="109.5" y="1059.1836"/><text fill="#000000" font-family="sans-serif" font-size="12" lengthAdjust="spacing" textLength="132" x="119.5" y="1080.3223">return isBackground;</text><ellipse cx="185.5" cy="1124.1523" fill="none" rx="11" ry="11" style="stroke:#222222;stroke-width:1.0;"/><ellipse cx="185.5" cy="1124.1523" fill="#222222" rx="6" ry="6" style="stroke:#111111;stroke-width:1.0;"/><ellipse cx="185.5" cy="1155.1523" fill="none" rx="10" ry="10" style="stroke:#222222;stroke-width:1.5;"/><line style="stroke:#222222;stroke-width:2.5;" x1="179.3128" x2="191.6872" y1="1148.9652" y2="1161.3395"/><line style="stroke:#222222;stroke-width:2.5;" x1="191.6872" x2="179.3128" y1="1148.9652" y2="1161.3395"/><path d="M215.5,1175.1523 L215.5,1183.7188 L195.5,1187.7188 L215.5,1191.7188 L215.5,1200.2852 A0,0 0 0 0 215.5,1200.2852 L392.5,1200.2852 A0,0 0 0 0 392.5,1200.2852 L392.5,1185.1523 L382.5,1175.1523 L215.5,1175.1523 A0,0 0 0 0 215.5,1175.1523 " fill="#FEFFDD" style="stroke:#181818;stroke-width:0.5;"/><path d="M382.5,1175.1523 L382.5,1185.1523 L392.5,1185.1523 L382.5,1175.1523 " fill="#FEFFDD" style="stroke:#181818;stroke-width:0.5;"/><text fill="#000000" font-family="sans-serif" font-size="13" lengthAdjust="spacing" textLength="156" x="221.5" y="1192.2192">HColorgetDefaultValue()</text><ellipse cx="185.5" cy="1187.7188" fill="#222222" rx="10" ry="10" style="stroke:#222222;stroke-width:1.0;"/><rect fill="#F1F1F1" height="33.9688" rx="12.5" ry="12.5" style="stroke:#181818;stroke-width:0.5;" width="146" x="112.5" y="1220.2852"/><text fill="#000000" font-family="sans-serif" font-size="12" lengthAdjust="spacing" textLength="126" x="122.5" y="1241.4238">return defaultValue;</text><ellipse cx="185.5" cy="1285.2539" fill="none" rx="11" ry="11" style="stroke:#222222;stroke-width:1.0;"/><ellipse cx="185.5" cy="1285.2539" fill="#222222" rx="6" ry="6" style="stroke:#111111;stroke-width:1.0;"/><ellipse cx="185.5" cy="1316.2539" fill="none" rx="10" ry="10" style="stroke:#222222;stroke-width:1.5;"/><line style="stroke:#222222;stroke-width:2.5;" x1="179.3128" x2="191.6872" y1="1310.0667" y2="1322.4411"/><line style="stroke:#222222;stroke-width:2.5;" x1="191.6872" x2="179.3128" y1="1310.0667" y2="1322.4411"/><path d="M215.5,1336.2539 L215.5,1344.8203 L195.5,1348.8203 L215.5,1352.8203 L215.5,1361.3867 A0,0 0 0 0 215.5,1361.3867 L393.5,1361.3867 A0,0 0 0 0 393.5,1361.3867 L393.5,1346.2539 L383.5,1336.2539 L215.5,1336.2539 A0,0 0 0 0 215.5,1336.2539 " fill="#FEFFDD" style="stroke:#181818;stroke-width:0.5;"/><path d="M383.5,1336.2539 L383.5,1346.2539 L393.5,1346.2539 L383.5,1336.2539 " fill="#FEFFDD" style="stroke:#181818;stroke-width:0.5;"/><text fill="#000000" font-family="sans-serif" font-size="13" lengthAdjust="spacing" textLength="157" x="221.5" y="1353.3208">ColorTypegetColorType()</text><ellipse cx="185.5" cy="1348.8203" fill="#222222" rx="10" ry="10" style="stroke:#222222;stroke-width:1.0;"/><rect fill="#F1F1F1" height="33.9688" rx="12.5" ry="12.5" style="stroke:#181818;stroke-width:0.5;" width="127" x="122" y="1381.3867"/><text fill="#000000" font-family="sans-serif" font-size="12" lengthAdjust="spacing" textLength="107" x="132" y="1402.5254">return colorType;</text><ellipse cx="185.5" cy="1446.3555" fill="none" rx="11" ry="11" style="stroke:#222222;stroke-width:1.0;"/><ellipse cx="185.5" cy="1446.3555" fill="#222222" rx="6" ry="6" style="stroke:#111111;stroke-width:1.0;"/><ellipse cx="185.5" cy="1477.3555" fill="none" rx="10" ry="10" style="stroke:#222222;stroke-width:1.5;"/><line style="stroke:#222222;stroke-width:2.5;" x1="179.3128" x2="191.6872" y1="1471.1683" y2="1483.5427"/><line style="stroke:#222222;stroke-width:2.5;" x1="191.6872" x2="179.3128" y1="1471.1683" y2="1483.5427"/><line style="stroke:#181818;stroke-width:1.0;" x1="185.5" x2="185.5" y1="40.1328" y2="70.2656"/><polygon fill="#181818" points="181.5,60.2656,185.5,70.2656,189.5,60.2656,185.5,64.2656" style="stroke:#181818;stroke-width:1.0;"/><line style="stroke:#181818;stroke-width:1.0;" x1="185.5" x2="185.5" y1="104.2344" y2="124.2344"/><polygon fill="#181818" points="181.5,114.2344,185.5,124.2344,189.5,114.2344,185.5,118.2344" style="stroke:#181818;stroke-width:1.0;"/><line style="stroke:#181818;stroke-width:1.0;" x1="185.5" x2="185.5" y1="176.8008" y2="199.3672"/><polygon fill="#181818" points="181.5,189.3672,185.5,199.3672,189.5,189.3672,185.5,193.3672" style="stroke:#181818;stroke-width:1.0;"/><line style="stroke:#181818;stroke-width:1.0;" x1="185.5" x2="185.5" y1="233.3359" y2="253.3359"/><polygon fill="#181818" points="181.5,243.3359,185.5,253.3359,189.5,243.3359,185.5,247.3359" style="stroke:#181818;stroke-width:1.0;"/><line style="stroke:#181818;stroke-width:1.0;" x1="185.5" x2="185.5" y1="305.9023" y2="328.4688"/><polygon fill="#181818" points="181.5,318.4688,185.5,328.4688,189.5,318.4688,185.5,322.4688" style="stroke:#181818;stroke-width:1.0;"/><line style="stroke:#181818;stroke-width:1.0;" x1="185.5" x2="185.5" y1="362.4375" y2="382.4375"/><polygon fill="#181818" points="181.5,372.4375,185.5,382.4375,189.5,372.4375,185.5,376.4375" style="stroke:#181818;stroke-width:1.0;"/><line style="stroke:#181818;stroke-width:1.0;" x1="185.5" x2="185.5" y1="435.0039" y2="457.5703"/><polygon fill="#181818" points="181.5,447.5703,185.5,457.5703,189.5,447.5703,185.5,451.5703" style="stroke:#181818;stroke-width:1.0;"/><line style="stroke:#181818;stroke-width:1.0;" x1="185.5" x2="185.5" y1="491.5391" y2="511.5391"/><polygon fill="#181818" points="181.5,501.5391,185.5,511.5391,189.5,501.5391,185.5,505.5391" style="stroke:#181818;stroke-width:1.0;"/><line style="stroke:#181818;stroke-width:1.0;" x1="185.5" x2="185.5" y1="571.6719" y2="601.8047"/><polygon fill="#181818" points="181.5,591.8047,185.5,601.8047,189.5,591.8047,185.5,595.8047" style="stroke:#181818;stroke-width:1.0;"/><line style="stroke:#181818;stroke-width:1.0;" x1="185.5" x2="185.5" y1="635.7734" y2="655.7734"/><polygon fill="#181818" points="181.5,645.7734,185.5,655.7734,189.5,645.7734,185.5,649.7734" style="stroke:#181818;stroke-width:1.0;"/><line style="stroke:#181818;stroke-width:1.0;" x1="185.5" x2="185.5" y1="689.7422" y2="709.7422"/><polygon fill="#181818" points="181.5,699.7422,185.5,709.7422,189.5,699.7422,185.5,703.7422" style="stroke:#181818;stroke-width:1.0;"/><line style="stroke:#181818;stroke-width:1.0;" x1="185.5" x2="185.5" y1="846.082" y2="866.082"/><polygon fill="#181818" points="181.5,856.082,185.5,866.082,189.5,856.082,185.5,860.082" style="stroke:#181818;stroke-width:1.0;"/><line style="stroke:#181818;stroke-width:1.0;" x1="185.5" x2="185.5" y1="900.0508" y2="920.0508"/><polygon fill="#181818" points="181.5,910.0508,185.5,920.0508,189.5,910.0508,185.5,914.0508" style="stroke:#181818;stroke-width:1.0;"/><line style="stroke:#181818;stroke-width:1.0;" x1="185.5" x2="185.5" y1="787.7109" y2="812.1133"/><polygon fill="#181818" points="181.5,802.1133,185.5,812.1133,189.5,802.1133,185.5,806.1133" style="stroke:#181818;stroke-width:1.0;"/><line style="stroke:#181818;stroke-width:1.0;" x1="351" x2="363" y1="775.7109" y2="775.7109"/><polygon fill="#181818" points="359,864.082,363,874.082,367,864.082,363,868.082" style="stroke:#181818;stroke-width:1.0;"/><line style="stroke:#181818;stroke-width:1.0;" x1="363" x2="363" y1="775.7109" y2="964.0508"/><line style="stroke:#181818;stroke-width:1.0;" x1="363" x2="185.5" y1="964.0508" y2="964.0508"/><line style="stroke:#181818;stroke-width:1.0;" x1="185.5" x2="185.5" y1="964.0508" y2="984.0508"/><polygon fill="#181818" points="181.5,974.0508,185.5,984.0508,189.5,974.0508,185.5,978.0508" style="stroke:#181818;stroke-width:1.0;"/><line style="stroke:#181818;stroke-width:1.0;" x1="185.5" x2="185.5" y1="743.7109" y2="763.7109"/><polygon fill="#181818" points="181.5,753.7109,185.5,763.7109,189.5,753.7109,185.5,757.7109" style="stroke:#181818;stroke-width:1.0;"/><line style="stroke:#181818;stroke-width:1.0;" x1="185.5" x2="185.5" y1="1036.6172" y2="1059.1836"/><polygon fill="#181818" points="181.5,1049.1836,185.5,1059.1836,189.5,1049.1836,185.5,1053.1836" style="stroke:#181818;stroke-width:1.0;"/><line style="stroke:#181818;stroke-width:1.0;" x1="185.5" x2="185.5" y1="1093.1523" y2="1113.1523"/><polygon fill="#181818" points="181.5,1103.1523,185.5,1113.1523,189.5,1103.1523,185.5,1107.1523" style="stroke:#181818;stroke-width:1.0;"/><line style="stroke:#181818;stroke-width:1.0;" x1="185.5" x2="185.5" y1="1197.7188" y2="1220.2852"/><polygon fill="#181818" points="181.5,1210.2852,185.5,1220.2852,189.5,1210.2852,185.5,1214.2852" style="stroke:#181818;stroke-width:1.0;"/><line style="stroke:#181818;stroke-width:1.0;" x1="185.5" x2="185.5" y1="1254.2539" y2="1274.2539"/><polygon fill="#181818" points="181.5,1264.2539,185.5,1274.2539,189.5,1264.2539,185.5,1268.2539" style="stroke:#181818;stroke-width:1.0;"/><line style="stroke:#181818;stroke-width:1.0;" x1="185.5" x2="185.5" y1="1358.8203" y2="1381.3867"/><polygon fill="#181818" points="181.5,1371.3867,185.5,1381.3867,189.5,1371.3867,185.5,1375.3867" style="stroke:#181818;stroke-width:1.0;"/><line style="stroke:#181818;stroke-width:1.0;" x1="185.5" x2="185.5" y1="1415.3555" y2="1435.3555"/><polygon fill="#181818" points="181.5,1425.3555,185.5,1435.3555,189.5,1425.3555,185.5,1429.3555" style="stroke:#181818;stroke-width:1.0;"/><!--MD5=[7067798d09e14fb8939bf8dd45cff96c]
@startuml
!pragma layout smetana
start
note right
constructor ColorParam(HColordefaultValue,
ColorTypecolorType)
end note
:this(defaultValue,false,colorType);;
end
start
note right
constructor ColorParam(HColordefaultValue)
end note
:this(defaultValue,false,null );;
end
start
note right
constructor ColorParam()
end note
:this(null ,false,null );;
end
start
note right
constructor ColorParam(booleanisBackground)
end note
:this(null ,isBackground,null );;
end
start
note right
constructor ColorParam(HColordefaultValue,
booleanisBackground,ColorTypecolorType)
end note
:this.isBackground=isBackground;;
:this.defaultValue=defaultValue;;
:this.colorType=colorType;;
if (colorType==ColorType.BACK&&isBackground==false) then (yes) 
:System.err.println(this);;
:throw new IllegalStateException();;
stop
endif 
end
start
note right
booleanisBackground()
end note
:return isBackground;;
stop
end
start
note right
HColorgetDefaultValue()
end note
:return defaultValue;;
stop
end
start
note right
ColorTypegetColorType()
end note
:return colorType;;
stop
end
@enduml

PlantUML version 1.2022.7(Mon Aug 22 17:01:30 UTC 2022)
(GPL source distribution)
Java Runtime: OpenJDK Runtime Environment
JVM: OpenJDK 64-Bit Server VM
Default Encoding: UTF-8
Language: en
Country: null
--></g></svg>