<?xml version="1.0" encoding="UTF-8" standalone="no"?><svg xmlns="http://www.w3.org/2000/svg" xmlns:xlink="http://www.w3.org/1999/xlink" contentStyleType="text/css" height="187px" preserveAspectRatio="none" style="width:230px;height:187px;background:#FFFFFF;" version="1.1" viewBox="0 0 230 187" width="230px" zoomAndPan="magnify"><defs/><g><!--MD5=[aa8f7b917213fcc1c2766e2d59b49067]
cluster java.lang--><g id="cluster_java.lang"><path d="M69.5,6 L139.5,6 A3.75,3.75 0 0 1 142,8.5 L149,28.2969 L158.5,28.2969 A2.5,2.5 0 0 1 161,30.7969 L161,86.5 A2.5,2.5 0 0 1 158.5,89 L69.5,89 A2.5,2.5 0 0 1 67,86.5 L67,8.5 A2.5,2.5 0 0 1 69.5,6 " fill="none" style="stroke:#000000;stroke-width:1.5;"/><line style="stroke:#000000;stroke-width:1.5;" x1="67" x2="149" y1="28.2969" y2="28.2969"/><text fill="#000000" font-family="sans-serif" font-size="14" font-weight="bold" lengthAdjust="spacing" textLength="69" x="71" y="20.9951">java.lang</text></g><!--MD5=[02e9e194a0548f773f3aa466798987a4]
cluster net.sourceforge.plantuml--><g id="cluster_net.sourceforge.plantuml"><path d="M8.5,97 L210.5,97 A3.75,3.75 0 0 1 213,99.5 L220,119.2969 L220.5,119.2969 A2.5,2.5 0 0 1 223,121.7969 L223,177.5 A2.5,2.5 0 0 1 220.5,180 L8.5,180 A2.5,2.5 0 0 1 6,177.5 L6,99.5 A2.5,2.5 0 0 1 8.5,97 " fill="none" style="stroke:#000000;stroke-width:1.5;"/><line style="stroke:#000000;stroke-width:1.5;" x1="6" x2="220" y1="119.2969" y2="119.2969"/><text fill="#000000" font-family="sans-serif" font-size="14" font-weight="bold" lengthAdjust="spacing" textLength="201" x="10" y="111.9951">net.sourceforge.plantuml</text></g><!--MD5=[274ad5661286b626a93603d287cbf95a]
class java.lang.Object--><g id="elem_java.lang.Object"><rect fill="#F1F1F1" height="48" id="java.lang.Object" rx="2.5" ry="2.5" style="stroke:#181818;stroke-width:0.5;" width="77" x="75.5" y="33"/><ellipse cx="90.5" cy="49" fill="#ADD1B2" rx="11" ry="11" style="stroke:#181818;stroke-width:1.0;"/><path d="M93.4688,54.6406 Q92.8906,54.9375 92.25,55.0781 Q91.6094,55.2344 90.9063,55.2344 Q88.4063,55.2344 87.0781,53.5938 Q85.7656,51.9375 85.7656,48.8125 Q85.7656,45.6875 87.0781,44.0313 Q88.4063,42.375 90.9063,42.375 Q91.6094,42.375 92.25,42.5313 Q92.9063,42.6875 93.4688,42.9844 L93.4688,45.7031 Q92.8438,45.125 92.25,44.8594 Q91.6563,44.5781 91.0313,44.5781 Q89.6875,44.5781 89,45.6563 Q88.3125,46.7188 88.3125,48.8125 Q88.3125,50.9063 89,51.9844 Q89.6875,53.0469 91.0313,53.0469 Q91.6563,53.0469 92.25,52.7813 Q92.8438,52.5 93.4688,51.9219 L93.4688,54.6406 Z " fill="#000000"/><text fill="#000000" font-family="sans-serif" font-size="14" lengthAdjust="spacing" textLength="45" x="104.5" y="53.8467">Object</text><line style="stroke:#181818;stroke-width:0.5;" x1="76.5" x2="151.5" y1="65" y2="65"/><line style="stroke:#181818;stroke-width:0.5;" x1="76.5" x2="151.5" y1="73" y2="73"/></g><!--MD5=[5490c1df7de4924b9a852d2c44a0877a]
class net.sourceforge.plantuml.FontParamConstant--><g id="elem_net.sourceforge.plantuml.FontParamConstant"><rect codeLine="3" fill="#F1F1F1" height="48" id="net.sourceforge.plantuml.FontParamConstant" rx="2.5" ry="2.5" style="stroke:#181818;stroke-width:0.5;" width="169" x="29.5" y="124"/><ellipse cx="44.5" cy="140" fill="#ADD1B2" rx="11" ry="11" style="stroke:#181818;stroke-width:1.0;"/><path d="M47.4688,145.6406 Q46.8906,145.9375 46.25,146.0781 Q45.6094,146.2344 44.9063,146.2344 Q42.4063,146.2344 41.0781,144.5938 Q39.7656,142.9375 39.7656,139.8125 Q39.7656,136.6875 41.0781,135.0313 Q42.4063,133.375 44.9063,133.375 Q45.6094,133.375 46.25,133.5313 Q46.9063,133.6875 47.4688,133.9844 L47.4688,136.7031 Q46.8438,136.125 46.25,135.8594 Q45.6563,135.5781 45.0313,135.5781 Q43.6875,135.5781 43,136.6563 Q42.3125,137.7188 42.3125,139.8125 Q42.3125,141.9063 43,142.9844 Q43.6875,144.0469 45.0313,144.0469 Q45.6563,144.0469 46.25,143.7813 Q46.8438,143.5 47.4688,142.9219 L47.4688,145.6406 Z " fill="#000000"/><text fill="#000000" font-family="sans-serif" font-size="14" lengthAdjust="spacing" textLength="137" x="58.5" y="144.8467">FontParamConstant</text><line style="stroke:#181818;stroke-width:0.5;" x1="30.5" x2="197.5" y1="156" y2="156"/><line style="stroke:#181818;stroke-width:0.5;" x1="30.5" x2="197.5" y1="164" y2="164"/></g><path d="M114,81.3837 C114,94.4653 114,110.7162 114,123.7725 " fill="none" style="stroke:#181818;stroke-width:1.0;"/><polygon fill="#FFFFFF" points="114,81.3837,108,97.3837,120,97.3837,114,81.3837" style="stroke:#181818;stroke-width:1.0;"/><!--MD5=[ae1f0c5ae738b384e573c2f7eac53e4d]
@startuml
!pragma layout smetana
"java.lang.Object" <|- - "net.sourceforge.plantuml.FontParamConstant"
class net.sourceforge.plantuml.FontParamConstant {
} 
@enduml

PlantUML version 1.2022.7(Mon Aug 22 17:01:30 UTC 2022)
(GPL source distribution)
Java Runtime: OpenJDK Runtime Environment
JVM: OpenJDK 64-Bit Server VM
Default Encoding: UTF-8
Language: en
Country: null
--></g></svg>