<?xml version="1.0" encoding="UTF-8" standalone="no"?><svg xmlns="http://www.w3.org/2000/svg" xmlns:xlink="http://www.w3.org/1999/xlink" contentStyleType="text/css" height="218px" preserveAspectRatio="none" style="width:269px;height:218px;background:#FFFFFF;" version="1.1" viewBox="0 0 269 218" width="269px" zoomAndPan="magnify"><defs/><g><!--MD5=[02e9e194a0548f773f3aa466798987a4]
cluster net.sourceforge.plantuml--><g id="cluster_net.sourceforge.plantuml"><path d="M29,63 L231,63 A3.75,3.75 0 0 1 233.5,65.5 L240.5,85.2969 L241,85.2969 A2.5,2.5 0 0 1 243.5,87.7969 L243.5,208.5 A2.5,2.5 0 0 1 241,211 L29,211 A2.5,2.5 0 0 1 26.5,208.5 L26.5,65.5 A2.5,2.5 0 0 1 29,63 " fill="none" style="stroke:#000000;stroke-width:1.5;"/><line style="stroke:#000000;stroke-width:1.5;" x1="26.5" x2="240.5" y1="85.2969" y2="85.2969"/><text fill="#000000" font-family="sans-serif" font-size="14" font-weight="bold" lengthAdjust="spacing" textLength="201" x="30.5" y="77.9951">net.sourceforge.plantuml</text></g><!--MD5=[98a86b953fe49a718a571474eed73ffe]
class Comparable<GeneratedImage>--><g id="elem_Comparable&lt;GeneratedImage&gt;"><rect fill="#F1F1F1" height="48" id="Comparable&lt;GeneratedImage&gt;" rx="2.5" ry="2.5" style="stroke:#181818;stroke-width:0.5;" width="255" x="7" y="6"/><ellipse cx="22" cy="22" fill="#ADD1B2" rx="11" ry="11" style="stroke:#181818;stroke-width:1.0;"/><path d="M24.9688,27.6406 Q24.3906,27.9375 23.75,28.0781 Q23.1094,28.2344 22.4063,28.2344 Q19.9063,28.2344 18.5781,26.5938 Q17.2656,24.9375 17.2656,21.8125 Q17.2656,18.6875 18.5781,17.0313 Q19.9063,15.375 22.4063,15.375 Q23.1094,15.375 23.75,15.5313 Q24.4063,15.6875 24.9688,15.9844 L24.9688,18.7031 Q24.3438,18.125 23.75,17.8594 Q23.1563,17.5781 22.5313,17.5781 Q21.1875,17.5781 20.5,18.6563 Q19.8125,19.7188 19.8125,21.8125 Q19.8125,23.9063 20.5,24.9844 Q21.1875,26.0469 22.5313,26.0469 Q23.1563,26.0469 23.75,25.7813 Q24.3438,25.5 24.9688,24.9219 L24.9688,27.6406 Z " fill="#000000"/><text fill="#000000" font-family="sans-serif" font-size="14" lengthAdjust="spacing" textLength="223" x="36" y="26.8467">Comparable&lt;GeneratedImage&gt;</text><line style="stroke:#181818;stroke-width:0.5;" x1="8" x2="261" y1="38" y2="38"/><line style="stroke:#181818;stroke-width:0.5;" x1="8" x2="261" y1="46" y2="46"/></g><!--MD5=[dbe6c7f7423fd143a405b4bf6976c941]
class net.sourceforge.plantuml.GeneratedImage--><g id="elem_net.sourceforge.plantuml.GeneratedImage"><rect codeLine="3" fill="#F1F1F1" height="113.1875" id="net.sourceforge.plantuml.GeneratedImage" rx="2.5" ry="2.5" style="stroke:#181818;stroke-width:0.5;" width="191" x="39" y="90"/><ellipse cx="73.35" cy="106" fill="#ADD1B2" rx="11" ry="11" style="stroke:#181818;stroke-width:1.0;"/><path d="M76.3188,111.6406 Q75.7406,111.9375 75.1,112.0781 Q74.4594,112.2344 73.7563,112.2344 Q71.2563,112.2344 69.9281,110.5938 Q68.6156,108.9375 68.6156,105.8125 Q68.6156,102.6875 69.9281,101.0313 Q71.2563,99.375 73.7563,99.375 Q74.4594,99.375 75.1,99.5313 Q75.7563,99.6875 76.3188,99.9844 L76.3188,102.7031 Q75.6938,102.125 75.1,101.8594 Q74.5063,101.5781 73.8813,101.5781 Q72.5375,101.5781 71.85,102.6563 Q71.1625,103.7188 71.1625,105.8125 Q71.1625,107.9063 71.85,108.9844 Q72.5375,110.0469 73.8813,110.0469 Q74.5063,110.0469 75.1,109.7813 Q75.6938,109.5 76.3188,108.9219 L76.3188,111.6406 Z " fill="#000000"/><text fill="#000000" font-family="sans-serif" font-size="14" lengthAdjust="spacing" textLength="116" x="91.65" y="110.8467">GeneratedImage</text><line style="stroke:#181818;stroke-width:0.5;" x1="40" x2="229" y1="122" y2="122"/><line style="stroke:#181818;stroke-width:0.5;" x1="40" x2="229" y1="130" y2="130"/><a href="./../../../../.././qc/src/net/sourceforge/plantuml/GeneratedImage.java.html#42" target="_top" title="./../../../../.././qc/src/net/sourceforge/plantuml/GeneratedImage.java.html#42" xlink:actuate="onRequest" xlink:href="./../../../../.././qc/src/net/sourceforge/plantuml/GeneratedImage.java.html#42" xlink:show="new" xlink:title="./../../../../.././qc/src/net/sourceforge/plantuml/GeneratedImage.java.html#42" xlink:type="simple"><rect fill="#F1F1F1" height="10" style="stroke:none;stroke-width:1.0;" width="20" x="45" y="138.6484"/><ellipse cx="50" cy="143.6484" fill="#84BE84" rx="3" ry="3" style="stroke:#038048;stroke-width:1.0;"/></a><a href="./../../../../.././qc/src/net/sourceforge/plantuml/GeneratedImage.java.html#42" target="_top" title="./../../../../.././qc/src/net/sourceforge/plantuml/GeneratedImage.java.html#42" xlink:actuate="onRequest" xlink:href="./../../../../.././qc/src/net/sourceforge/plantuml/GeneratedImage.java.html#42" xlink:show="new" xlink:title="./../../../../.././qc/src/net/sourceforge/plantuml/GeneratedImage.java.html#42" xlink:type="simple"><text fill="#000000" font-family="sans-serif" font-size="14" lengthAdjust="spacing" textLength="119" x="59" y="146.9951">getPngFile() : File</text></a><a href="./../../../../.././qc/src/net/sourceforge/plantuml/GeneratedImage.java.html#44" target="_top" title="./../../../../.././qc/src/net/sourceforge/plantuml/GeneratedImage.java.html#44" xlink:actuate="onRequest" xlink:href="./../../../../.././qc/src/net/sourceforge/plantuml/GeneratedImage.java.html#44" xlink:show="new" xlink:title="./../../../../.././qc/src/net/sourceforge/plantuml/GeneratedImage.java.html#44" xlink:type="simple"><rect fill="#F1F1F1" height="10" style="stroke:none;stroke-width:1.0;" width="20" x="45" y="154.9453"/><ellipse cx="50" cy="159.9453" fill="#84BE84" rx="3" ry="3" style="stroke:#038048;stroke-width:1.0;"/></a><a href="./../../../../.././qc/src/net/sourceforge/plantuml/GeneratedImage.java.html#44" target="_top" title="./../../../../.././qc/src/net/sourceforge/plantuml/GeneratedImage.java.html#44" xlink:actuate="onRequest" xlink:href="./../../../../.././qc/src/net/sourceforge/plantuml/GeneratedImage.java.html#44" xlink:show="new" xlink:title="./../../../../.././qc/src/net/sourceforge/plantuml/GeneratedImage.java.html#44" xlink:type="simple"><text fill="#000000" font-family="sans-serif" font-size="14" lengthAdjust="spacing" textLength="165" x="59" y="163.292">getDescription() : String</text></a><a href="./../../../../.././qc/src/net/sourceforge/plantuml/GeneratedImage.java.html#46" target="_top" title="./../../../../.././qc/src/net/sourceforge/plantuml/GeneratedImage.java.html#46" xlink:actuate="onRequest" xlink:href="./../../../../.././qc/src/net/sourceforge/plantuml/GeneratedImage.java.html#46" xlink:show="new" xlink:title="./../../../../.././qc/src/net/sourceforge/plantuml/GeneratedImage.java.html#46" xlink:type="simple"><rect fill="#F1F1F1" height="10" style="stroke:none;stroke-width:1.0;" width="20" x="45" y="171.2422"/><ellipse cx="50" cy="176.2422" fill="#84BE84" rx="3" ry="3" style="stroke:#038048;stroke-width:1.0;"/></a><a href="./../../../../.././qc/src/net/sourceforge/plantuml/GeneratedImage.java.html#46" target="_top" title="./../../../../.././qc/src/net/sourceforge/plantuml/GeneratedImage.java.html#46" xlink:actuate="onRequest" xlink:href="./../../../../.././qc/src/net/sourceforge/plantuml/GeneratedImage.java.html#46" xlink:show="new" xlink:title="./../../../../.././qc/src/net/sourceforge/plantuml/GeneratedImage.java.html#46" xlink:type="simple"><text fill="#000000" font-family="sans-serif" font-size="14" lengthAdjust="spacing" textLength="126" x="59" y="179.5889">lineErrorRaw() : int</text></a><a href="./../../../../.././qc/src/net/sourceforge/plantuml/GeneratedImage.java.html#48" target="_top" title="./../../../../.././qc/src/net/sourceforge/plantuml/GeneratedImage.java.html#48" xlink:actuate="onRequest" xlink:href="./../../../../.././qc/src/net/sourceforge/plantuml/GeneratedImage.java.html#48" xlink:show="new" xlink:title="./../../../../.././qc/src/net/sourceforge/plantuml/GeneratedImage.java.html#48" xlink:type="simple"><rect fill="#F1F1F1" height="10" style="stroke:none;stroke-width:1.0;" width="20" x="45" y="187.5391"/><ellipse cx="50" cy="192.5391" fill="#84BE84" rx="3" ry="3" style="stroke:#038048;stroke-width:1.0;"/></a><a href="./../../../../.././qc/src/net/sourceforge/plantuml/GeneratedImage.java.html#48" target="_top" title="./../../../../.././qc/src/net/sourceforge/plantuml/GeneratedImage.java.html#48" xlink:actuate="onRequest" xlink:href="./../../../../.././qc/src/net/sourceforge/plantuml/GeneratedImage.java.html#48" xlink:show="new" xlink:title="./../../../../.././qc/src/net/sourceforge/plantuml/GeneratedImage.java.html#48" xlink:type="simple"><text fill="#000000" font-family="sans-serif" font-size="14" lengthAdjust="spacing" textLength="107" x="59" y="195.8857">getStatus() : int</text></a></g><path d="M134.5,54.1708 C134.5,64.4955 134.5,77.1452 134.5,89.7017 " fill="none" style="stroke:#181818;stroke-width:1.0;"/><polygon fill="#FFFFFF" points="134.5,54.1708,128.5,70.1708,140.5,70.1708,134.5,54.1708" style="stroke:#181818;stroke-width:1.0;"/><!--MD5=[babe7ad73bd2dfcf401d4da439d60206]
@startuml
!pragma layout smetana
"Comparable<GeneratedImage>" <|- - "net.sourceforge.plantuml.GeneratedImage"
class net.sourceforge.plantuml.GeneratedImage {
+getPngFile() : File [[[./../../../../.././qc/src/net/sourceforge/plantuml/GeneratedImage.java.html#42]]]
+getDescription() : String [[[./../../../../.././qc/src/net/sourceforge/plantuml/GeneratedImage.java.html#44]]]
+lineErrorRaw() : int [[[./../../../../.././qc/src/net/sourceforge/plantuml/GeneratedImage.java.html#46]]]
+getStatus() : int [[[./../../../../.././qc/src/net/sourceforge/plantuml/GeneratedImage.java.html#48]]]
} 
@enduml

PlantUML version 1.2022.7(Mon Aug 22 17:01:30 UTC 2022)
(GPL source distribution)
Java Runtime: OpenJDK Runtime Environment
JVM: OpenJDK 64-Bit Server VM
Default Encoding: UTF-8
Language: en
Country: null
--></g></svg>