<?xml version="1.0" encoding="UTF-8" standalone="no"?><svg xmlns="http://www.w3.org/2000/svg" xmlns:xlink="http://www.w3.org/1999/xlink" contentStyleType="text/css" height="236px" preserveAspectRatio="none" style="width:278px;height:236px;background:#FFFFFF;" version="1.1" viewBox="0 0 278 236" width="278px" zoomAndPan="magnify"><defs/><g><path d="M54,10 L54,18.5664 L34,22.5664 L54,26.5664 L54,35.1328 A0,0 0 0 0 54,35.1328 L169,35.1328 A0,0 0 0 0 169,35.1328 L169,20 L159,10 L54,10 A0,0 0 0 0 54,10 " fill="#FEFFDD" style="stroke:#181818;stroke-width:0.5;"/><path d="M159,10 L159,20 L169,20 L159,10 " fill="#FEFFDD" style="stroke:#181818;stroke-width:0.5;"/><text fill="#000000" font-family="sans-serif" font-size="13" lengthAdjust="spacing" textLength="94" x="60" y="27.0669">void write(intb)</text><ellipse cx="24" cy="22.5664" fill="#222222" rx="10" ry="10" style="stroke:#222222;stroke-width:1.0;"/><ellipse cx="24" cy="65.1328" fill="none" rx="10" ry="10" style="stroke:#222222;stroke-width:1.5;"/><line style="stroke:#222222;stroke-width:2.5;" x1="17.8128" x2="30.1872" y1="58.9456" y2="71.32"/><line style="stroke:#222222;stroke-width:2.5;" x1="30.1872" x2="17.8128" y1="58.9456" y2="71.32"/><path d="M54,85.1328 L54,93.6992 L34,97.6992 L54,101.6992 L54,110.2656 A0,0 0 0 0 54,110.2656 L191,110.2656 A0,0 0 0 0 191,110.2656 L191,95.1328 L181,85.1328 L54,85.1328 A0,0 0 0 0 54,85.1328 " fill="#FEFFDD" style="stroke:#181818;stroke-width:0.5;"/><path d="M181,85.1328 L181,95.1328 L191,95.1328 L181,85.1328 " fill="#FEFFDD" style="stroke:#181818;stroke-width:0.5;"/><text fill="#000000" font-family="sans-serif" font-size="13" lengthAdjust="spacing" textLength="116" x="60" y="102.1997">void write(byte[]b)</text><ellipse cx="24" cy="97.6992" fill="#222222" rx="10" ry="10" style="stroke:#222222;stroke-width:1.0;"/><ellipse cx="24" cy="140.2656" fill="none" rx="10" ry="10" style="stroke:#222222;stroke-width:1.5;"/><line style="stroke:#222222;stroke-width:2.5;" x1="17.8128" x2="30.1872" y1="134.0784" y2="146.4528"/><line style="stroke:#222222;stroke-width:2.5;" x1="30.1872" x2="17.8128" y1="134.0784" y2="146.4528"/><path d="M54,160.2656 L54,168.832 L34,172.832 L54,176.832 L54,185.3984 A0,0 0 0 0 54,185.3984 L266,185.3984 A0,0 0 0 0 266,185.3984 L266,170.2656 L256,160.2656 L54,160.2656 A0,0 0 0 0 54,160.2656 " fill="#FEFFDD" style="stroke:#181818;stroke-width:0.5;"/><path d="M256,160.2656 L256,170.2656 L266,170.2656 L256,160.2656 " fill="#FEFFDD" style="stroke:#181818;stroke-width:0.5;"/><text fill="#000000" font-family="sans-serif" font-size="13" lengthAdjust="spacing" textLength="191" x="60" y="177.3325">void write(byte[]b,intoff,intlen)</text><ellipse cx="24" cy="172.832" fill="#222222" rx="10" ry="10" style="stroke:#222222;stroke-width:1.0;"/><ellipse cx="24" cy="215.3984" fill="none" rx="10" ry="10" style="stroke:#222222;stroke-width:1.5;"/><line style="stroke:#222222;stroke-width:2.5;" x1="17.8128" x2="30.1872" y1="209.2113" y2="221.5856"/><line style="stroke:#222222;stroke-width:2.5;" x1="30.1872" x2="17.8128" y1="209.2113" y2="221.5856"/><line style="stroke:#181818;stroke-width:1.0;" x1="24" x2="24" y1="32.5664" y2="55.1328"/><polygon fill="#181818" points="20,45.1328,24,55.1328,28,45.1328,24,49.1328" style="stroke:#181818;stroke-width:1.0;"/><line style="stroke:#181818;stroke-width:1.0;" x1="24" x2="24" y1="107.6992" y2="130.2656"/><polygon fill="#181818" points="20,120.2656,24,130.2656,28,120.2656,24,124.2656" style="stroke:#181818;stroke-width:1.0;"/><line style="stroke:#181818;stroke-width:1.0;" x1="24" x2="24" y1="182.832" y2="205.3984"/><polygon fill="#181818" points="20,195.3984,24,205.3984,28,195.3984,24,199.3984" style="stroke:#181818;stroke-width:1.0;"/><!--MD5=[ef160a937ae30e6391ad76d8ac366b2d]
@startuml
!pragma layout smetana
start
note right
void write(intb)
end note
end
start
note right
void write(byte[]b)
end note
end
start
note right
void write(byte[]b,intoff,intlen)
end note
end
@enduml

PlantUML version 1.2022.7(Mon Aug 22 17:01:30 UTC 2022)
(GPL source distribution)
Java Runtime: OpenJDK Runtime Environment
JVM: OpenJDK 64-Bit Server VM
Default Encoding: UTF-8
Language: en
Country: null
--></g></svg>