<?xml version="1.0" encoding="UTF-8" standalone="no"?><svg xmlns="http://www.w3.org/2000/svg" xmlns:xlink="http://www.w3.org/1999/xlink" contentStyleType="text/css" height="172px" preserveAspectRatio="none" style="width:381px;height:172px;background:#FFFFFF;" version="1.1" viewBox="0 0 381 172" width="381px" zoomAndPan="magnify"><defs/><g><path d="M213,10 L213,18.5664 L193,22.5664 L213,26.5664 L213,35.1328 A0,0 0 0 0 213,35.1328 L369,35.1328 A0,0 0 0 0 369,35.1328 L369,20 L359,10 L213,10 A0,0 0 0 0 213,10 " fill="#FEFFDD" style="stroke:#181818;stroke-width:0.5;"/><path d="M359,10 L359,20 L369,20 L359,10 " fill="#FEFFDD" style="stroke:#181818;stroke-width:0.5;"/><text fill="#000000" font-family="sans-serif" font-size="13" lengthAdjust="spacing" textLength="135" x="219" y="27.0669">StringgetSkinName()</text><ellipse cx="183" cy="22.5664" fill="#222222" rx="10" ry="10" style="stroke:#222222;stroke-width:1.0;"/><rect fill="#F1F1F1" height="33.9688" rx="12.5" ry="12.5" style="stroke:#181818;stroke-width:0.5;" width="344" x="11" y="55.1328"/><text fill="#000000" font-family="sans-serif" font-size="12" lengthAdjust="spacing" textLength="324" x="21" y="76.2715">return StringUtils.goLowerCase(name())+"Padding";</text><ellipse cx="183" cy="120.1016" fill="none" rx="11" ry="11" style="stroke:#222222;stroke-width:1.0;"/><ellipse cx="183" cy="120.1016" fill="#222222" rx="6" ry="6" style="stroke:#111111;stroke-width:1.0;"/><ellipse cx="183" cy="151.1016" fill="none" rx="10" ry="10" style="stroke:#222222;stroke-width:1.5;"/><line style="stroke:#222222;stroke-width:2.5;" x1="176.8128" x2="189.1872" y1="144.9144" y2="157.2887"/><line style="stroke:#222222;stroke-width:2.5;" x1="189.1872" x2="176.8128" y1="144.9144" y2="157.2887"/><line style="stroke:#181818;stroke-width:1.0;" x1="183" x2="183" y1="32.5664" y2="55.1328"/><polygon fill="#181818" points="179,45.1328,183,55.1328,187,45.1328,183,49.1328" style="stroke:#181818;stroke-width:1.0;"/><line style="stroke:#181818;stroke-width:1.0;" x1="183" x2="183" y1="89.1016" y2="109.1016"/><polygon fill="#181818" points="179,99.1016,183,109.1016,187,99.1016,183,103.1016" style="stroke:#181818;stroke-width:1.0;"/><!--MD5=[c311ef5367a549b04880738faba64be4]
@startuml
!pragma layout smetana
start
note right
StringgetSkinName()
end note
:return StringUtils.goLowerCase(name())+"Padding";;
stop
end
@enduml

PlantUML version 1.2022.7(Mon Aug 22 17:01:30 UTC 2022)
(GPL source distribution)
Java Runtime: OpenJDK Runtime Environment
JVM: OpenJDK 64-Bit Server VM
Default Encoding: UTF-8
Language: en
Country: null
--></g></svg>