<?xml version="1.0" encoding="UTF-8" standalone="no"?><svg xmlns="http://www.w3.org/2000/svg" xmlns:xlink="http://www.w3.org/1999/xlink" contentStyleType="text/css" height="317px" preserveAspectRatio="none" style="width:249px;height:317px;background:#FFFFFF;" version="1.1" viewBox="0 0 249 317" width="249px" zoomAndPan="magnify"><defs/><g><!--MD5=[aa8f7b917213fcc1c2766e2d59b49067]
cluster java.lang--><g id="cluster_java.lang"><path d="M79.5,6 L149.5,6 A3.75,3.75 0 0 1 152,8.5 L159,28.2969 L168.5,28.2969 A2.5,2.5 0 0 1 171,30.7969 L171,86.5 A2.5,2.5 0 0 1 168.5,89 L79.5,89 A2.5,2.5 0 0 1 77,86.5 L77,8.5 A2.5,2.5 0 0 1 79.5,6 " fill="none" style="stroke:#000000;stroke-width:1.5;"/><line style="stroke:#000000;stroke-width:1.5;" x1="77" x2="159" y1="28.2969" y2="28.2969"/><text fill="#000000" font-family="sans-serif" font-size="14" font-weight="bold" lengthAdjust="spacing" textLength="69" x="81" y="20.9951">java.lang</text></g><!--MD5=[02e9e194a0548f773f3aa466798987a4]
cluster net.sourceforge.plantuml--><g id="cluster_net.sourceforge.plantuml"><path d="M8.5,97 L210.5,97 A3.75,3.75 0 0 1 213,99.5 L220,119.2969 L239.5,119.2969 A2.5,2.5 0 0 1 242,121.7969 L242,307.5 A2.5,2.5 0 0 1 239.5,310 L8.5,310 A2.5,2.5 0 0 1 6,307.5 L6,99.5 A2.5,2.5 0 0 1 8.5,97 " fill="none" style="stroke:#000000;stroke-width:1.5;"/><line style="stroke:#000000;stroke-width:1.5;" x1="6" x2="220" y1="119.2969" y2="119.2969"/><text fill="#000000" font-family="sans-serif" font-size="14" font-weight="bold" lengthAdjust="spacing" textLength="201" x="10" y="111.9951">net.sourceforge.plantuml</text></g><!--MD5=[274ad5661286b626a93603d287cbf95a]
class java.lang.Object--><g id="elem_java.lang.Object"><rect fill="#F1F1F1" height="48" id="java.lang.Object" rx="2.5" ry="2.5" style="stroke:#181818;stroke-width:0.5;" width="77" x="85.5" y="33"/><ellipse cx="100.5" cy="49" fill="#ADD1B2" rx="11" ry="11" style="stroke:#181818;stroke-width:1.0;"/><path d="M103.4688,54.6406 Q102.8906,54.9375 102.25,55.0781 Q101.6094,55.2344 100.9063,55.2344 Q98.4063,55.2344 97.0781,53.5938 Q95.7656,51.9375 95.7656,48.8125 Q95.7656,45.6875 97.0781,44.0313 Q98.4063,42.375 100.9063,42.375 Q101.6094,42.375 102.25,42.5313 Q102.9063,42.6875 103.4688,42.9844 L103.4688,45.7031 Q102.8438,45.125 102.25,44.8594 Q101.6563,44.5781 101.0313,44.5781 Q99.6875,44.5781 99,45.6563 Q98.3125,46.7188 98.3125,48.8125 Q98.3125,50.9063 99,51.9844 Q99.6875,53.0469 101.0313,53.0469 Q101.6563,53.0469 102.25,52.7813 Q102.8438,52.5 103.4688,51.9219 L103.4688,54.6406 Z " fill="#000000"/><text fill="#000000" font-family="sans-serif" font-size="14" lengthAdjust="spacing" textLength="45" x="114.5" y="53.8467">Object</text><line style="stroke:#181818;stroke-width:0.5;" x1="86.5" x2="161.5" y1="65" y2="65"/><line style="stroke:#181818;stroke-width:0.5;" x1="86.5" x2="161.5" y1="73" y2="73"/></g><!--MD5=[917088f675c53a7d762cef7c7a4cdaba]
class net.sourceforge.plantuml.ProgressBar--><g id="elem_net.sourceforge.plantuml.ProgressBar"><rect codeLine="3" fill="#F1F1F1" height="178.375" id="net.sourceforge.plantuml.ProgressBar" rx="2.5" ry="2.5" style="stroke:#181818;stroke-width:0.5;" width="220" x="14" y="124"/><ellipse cx="77.25" cy="140" fill="#ADD1B2" rx="11" ry="11" style="stroke:#181818;stroke-width:1.0;"/><path d="M80.2188,145.6406 Q79.6406,145.9375 79,146.0781 Q78.3594,146.2344 77.6563,146.2344 Q75.1563,146.2344 73.8281,144.5938 Q72.5156,142.9375 72.5156,139.8125 Q72.5156,136.6875 73.8281,135.0313 Q75.1563,133.375 77.6563,133.375 Q78.3594,133.375 79,133.5313 Q79.6563,133.6875 80.2188,133.9844 L80.2188,136.7031 Q79.5938,136.125 79,135.8594 Q78.4063,135.5781 77.7813,135.5781 Q76.4375,135.5781 75.75,136.6563 Q75.0625,137.7188 75.0625,139.8125 Q75.0625,141.9063 75.75,142.9844 Q76.4375,144.0469 77.7813,144.0469 Q78.4063,144.0469 79,143.7813 Q79.5938,143.5 80.2188,142.9219 L80.2188,145.6406 Z " fill="#000000"/><text fill="#000000" font-family="sans-serif" font-size="14" lengthAdjust="spacing" textLength="85" x="97.75" y="144.8467">ProgressBar</text><line style="stroke:#181818;stroke-width:0.5;" x1="15" x2="233" y1="156" y2="156"/><line style="stroke:#181818;stroke-width:0.5;" x1="15" x2="233" y1="164" y2="164"/><a href="./../../../../.././qc/src/net/sourceforge/plantuml/ProgressBar.java.html#58" target="_top" title="./../../../../.././qc/src/net/sourceforge/plantuml/ProgressBar.java.html#58" xlink:actuate="onRequest" xlink:href="./../../../../.././qc/src/net/sourceforge/plantuml/ProgressBar.java.html#58" xlink:show="new" xlink:title="./../../../../.././qc/src/net/sourceforge/plantuml/ProgressBar.java.html#58" xlink:type="simple"><rect fill="#F1F1F1" height="10" style="stroke:none;stroke-width:1.0;" width="20" x="20" y="172.6484"/><rect fill="#F24D5C" height="6" style="stroke:#C82930;stroke-width:1.0;" width="6" x="22" y="174.6484"/></a><a href="./../../../../.././qc/src/net/sourceforge/plantuml/ProgressBar.java.html#58" target="_top" title="./../../../../.././qc/src/net/sourceforge/plantuml/ProgressBar.java.html#58" xlink:actuate="onRequest" xlink:href="./../../../../.././qc/src/net/sourceforge/plantuml/ProgressBar.java.html#58" xlink:show="new" xlink:title="./../../../../.././qc/src/net/sourceforge/plantuml/ProgressBar.java.html#58" xlink:type="simple"><text fill="#000000" font-family="sans-serif" font-size="14" lengthAdjust="spacing" textLength="122" x="34" y="180.9951">print(String) : void</text></a><a href="./../../../../.././qc/src/net/sourceforge/plantuml/ProgressBar.java.html#63" target="_top" title="./../../../../.././qc/src/net/sourceforge/plantuml/ProgressBar.java.html#63" xlink:actuate="onRequest" xlink:href="./../../../../.././qc/src/net/sourceforge/plantuml/ProgressBar.java.html#63" xlink:show="new" xlink:title="./../../../../.././qc/src/net/sourceforge/plantuml/ProgressBar.java.html#63" xlink:type="simple"><rect fill="#F1F1F1" height="10" style="stroke:none;stroke-width:1.0;" width="20" x="20" y="188.9453"/><ellipse cx="25" cy="193.9453" fill="#84BE84" rx="3" ry="3" style="stroke:#038048;stroke-width:1.0;"/></a><a href="./../../../../.././qc/src/net/sourceforge/plantuml/ProgressBar.java.html#63" target="_top" title="./../../../../.././qc/src/net/sourceforge/plantuml/ProgressBar.java.html#63" xlink:actuate="onRequest" xlink:href="./../../../../.././qc/src/net/sourceforge/plantuml/ProgressBar.java.html#63" xlink:show="new" xlink:title="./../../../../.././qc/src/net/sourceforge/plantuml/ProgressBar.java.html#63" xlink:type="simple"><text fill="#000000" font-family="sans-serif" font-size="14" lengthAdjust="spacing" textLength="84" x="34" y="197.292">clear() : void</text></a><a href="./../../../../.././qc/src/net/sourceforge/plantuml/ProgressBar.java.html#68" target="_top" title="./../../../../.././qc/src/net/sourceforge/plantuml/ProgressBar.java.html#68" xlink:actuate="onRequest" xlink:href="./../../../../.././qc/src/net/sourceforge/plantuml/ProgressBar.java.html#68" xlink:show="new" xlink:title="./../../../../.././qc/src/net/sourceforge/plantuml/ProgressBar.java.html#68" xlink:type="simple"><rect fill="#F1F1F1" height="10" style="stroke:none;stroke-width:1.0;" width="20" x="20" y="205.2422"/><rect fill="#F24D5C" height="6" style="stroke:#C82930;stroke-width:1.0;" width="6" x="22" y="207.2422"/></a><a href="./../../../../.././qc/src/net/sourceforge/plantuml/ProgressBar.java.html#68" target="_top" title="./../../../../.././qc/src/net/sourceforge/plantuml/ProgressBar.java.html#68" xlink:actuate="onRequest" xlink:href="./../../../../.././qc/src/net/sourceforge/plantuml/ProgressBar.java.html#68" xlink:show="new" xlink:title="./../../../../.././qc/src/net/sourceforge/plantuml/ProgressBar.java.html#68" xlink:type="simple"><text fill="#000000" font-family="sans-serif" font-size="14" lengthAdjust="spacing" textLength="194" x="34" y="213.5889">buildClearMessage() : String</text></a><a href="./../../../../.././qc/src/net/sourceforge/plantuml/ProgressBar.java.html#85" target="_top" title="./../../../../.././qc/src/net/sourceforge/plantuml/ProgressBar.java.html#85" xlink:actuate="onRequest" xlink:href="./../../../../.././qc/src/net/sourceforge/plantuml/ProgressBar.java.html#85" xlink:show="new" xlink:title="./../../../../.././qc/src/net/sourceforge/plantuml/ProgressBar.java.html#85" xlink:type="simple"><rect fill="#F1F1F1" height="10" style="stroke:none;stroke-width:1.0;" width="20" x="20" y="221.5391"/><ellipse cx="25" cy="226.5391" fill="#84BE84" rx="3" ry="3" style="stroke:#038048;stroke-width:1.0;"/></a><a href="./../../../../.././qc/src/net/sourceforge/plantuml/ProgressBar.java.html#85" target="_top" title="./../../../../.././qc/src/net/sourceforge/plantuml/ProgressBar.java.html#85" xlink:actuate="onRequest" xlink:href="./../../../../.././qc/src/net/sourceforge/plantuml/ProgressBar.java.html#85" xlink:show="new" xlink:title="./../../../../.././qc/src/net/sourceforge/plantuml/ProgressBar.java.html#85" xlink:type="simple"><text fill="#000000" font-family="sans-serif" font-size="14" lengthAdjust="spacing" textLength="122" x="34" y="229.8857">incTotal(int) : void</text></a><a href="./../../../../.././qc/src/net/sourceforge/plantuml/ProgressBar.java.html#90" target="_top" title="./../../../../.././qc/src/net/sourceforge/plantuml/ProgressBar.java.html#90" xlink:actuate="onRequest" xlink:href="./../../../../.././qc/src/net/sourceforge/plantuml/ProgressBar.java.html#90" xlink:show="new" xlink:title="./../../../../.././qc/src/net/sourceforge/plantuml/ProgressBar.java.html#90" xlink:type="simple"><rect fill="#F1F1F1" height="10" style="stroke:none;stroke-width:1.0;" width="20" x="20" y="237.8359"/><rect fill="#F24D5C" height="6" style="stroke:#C82930;stroke-width:1.0;" width="6" x="22" y="239.8359"/></a><a href="./../../../../.././qc/src/net/sourceforge/plantuml/ProgressBar.java.html#90" target="_top" title="./../../../../.././qc/src/net/sourceforge/plantuml/ProgressBar.java.html#90" xlink:actuate="onRequest" xlink:href="./../../../../.././qc/src/net/sourceforge/plantuml/ProgressBar.java.html#90" xlink:show="new" xlink:title="./../../../../.././qc/src/net/sourceforge/plantuml/ProgressBar.java.html#90" xlink:type="simple"><text fill="#000000" font-family="sans-serif" font-size="14" lengthAdjust="spacing" textLength="144" x="34" y="246.1826">printBar(int;int) : void</text></a><a href="./../../../../.././qc/src/net/sourceforge/plantuml/ProgressBar.java.html#100" target="_top" title="./../../../../.././qc/src/net/sourceforge/plantuml/ProgressBar.java.html#100" xlink:actuate="onRequest" xlink:href="./../../../../.././qc/src/net/sourceforge/plantuml/ProgressBar.java.html#100" xlink:show="new" xlink:title="./../../../../.././qc/src/net/sourceforge/plantuml/ProgressBar.java.html#100" xlink:type="simple"><rect fill="#F1F1F1" height="10" style="stroke:none;stroke-width:1.0;" width="20" x="20" y="254.1328"/><rect fill="#F24D5C" height="6" style="stroke:#C82930;stroke-width:1.0;" width="6" x="22" y="256.1328"/></a><a href="./../../../../.././qc/src/net/sourceforge/plantuml/ProgressBar.java.html#100" target="_top" title="./../../../../.././qc/src/net/sourceforge/plantuml/ProgressBar.java.html#100" xlink:actuate="onRequest" xlink:href="./../../../../.././qc/src/net/sourceforge/plantuml/ProgressBar.java.html#100" xlink:show="new" xlink:title="./../../../../.././qc/src/net/sourceforge/plantuml/ProgressBar.java.html#100" xlink:type="simple"><text fill="#000000" font-family="sans-serif" font-size="14" lengthAdjust="spacing" textLength="148" x="34" y="262.4795">getBar(int;int) : String</text></a><a href="./../../../../.././qc/src/net/sourceforge/plantuml/ProgressBar.java.html#110" target="_top" title="./../../../../.././qc/src/net/sourceforge/plantuml/ProgressBar.java.html#110" xlink:actuate="onRequest" xlink:href="./../../../../.././qc/src/net/sourceforge/plantuml/ProgressBar.java.html#110" xlink:show="new" xlink:title="./../../../../.././qc/src/net/sourceforge/plantuml/ProgressBar.java.html#110" xlink:type="simple"><rect fill="#F1F1F1" height="10" style="stroke:none;stroke-width:1.0;" width="20" x="20" y="270.4297"/><ellipse cx="25" cy="275.4297" fill="#84BE84" rx="3" ry="3" style="stroke:#038048;stroke-width:1.0;"/></a><a href="./../../../../.././qc/src/net/sourceforge/plantuml/ProgressBar.java.html#110" target="_top" title="./../../../../.././qc/src/net/sourceforge/plantuml/ProgressBar.java.html#110" xlink:actuate="onRequest" xlink:href="./../../../../.././qc/src/net/sourceforge/plantuml/ProgressBar.java.html#110" xlink:show="new" xlink:title="./../../../../.././qc/src/net/sourceforge/plantuml/ProgressBar.java.html#110" xlink:type="simple"><text fill="#000000" font-family="sans-serif" font-size="14" lengthAdjust="spacing" textLength="165" x="34" y="278.7764">incDone(boolean) : void</text></a><a href="./../../../../.././qc/src/net/sourceforge/plantuml/ProgressBar.java.html#115" target="_top" title="./../../../../.././qc/src/net/sourceforge/plantuml/ProgressBar.java.html#115" xlink:actuate="onRequest" xlink:href="./../../../../.././qc/src/net/sourceforge/plantuml/ProgressBar.java.html#115" xlink:show="new" xlink:title="./../../../../.././qc/src/net/sourceforge/plantuml/ProgressBar.java.html#115" xlink:type="simple"><rect fill="#F1F1F1" height="10" style="stroke:none;stroke-width:1.0;" width="20" x="20" y="286.7266"/><ellipse cx="25" cy="291.7266" fill="#84BE84" rx="3" ry="3" style="stroke:#038048;stroke-width:1.0;"/></a><a href="./../../../../.././qc/src/net/sourceforge/plantuml/ProgressBar.java.html#115" target="_top" title="./../../../../.././qc/src/net/sourceforge/plantuml/ProgressBar.java.html#115" xlink:actuate="onRequest" xlink:href="./../../../../.././qc/src/net/sourceforge/plantuml/ProgressBar.java.html#115" xlink:show="new" xlink:title="./../../../../.././qc/src/net/sourceforge/plantuml/ProgressBar.java.html#115" xlink:type="simple"><text fill="#000000" font-family="sans-serif" font-size="14" lengthAdjust="spacing" textLength="176" x="34" y="295.0732">setEnable(boolean) : void</text></a></g><path d="M124,81.0554 C124,92.8025 124,107.9158 124,123.6763 " fill="none" style="stroke:#181818;stroke-width:1.0;"/><polygon fill="#FFFFFF" points="124,81.0554,118,97.0554,130,97.0554,124,81.0554" style="stroke:#181818;stroke-width:1.0;"/><!--MD5=[0a0a71ef68a5d1d6be7f6aad39dbf250]
@startuml
!pragma layout smetana
"java.lang.Object" <|- - "net.sourceforge.plantuml.ProgressBar"
class net.sourceforge.plantuml.ProgressBar {
-print(String) : void [[[./../../../../.././qc/src/net/sourceforge/plantuml/ProgressBar.java.html#58]]]
+clear() : void [[[./../../../../.././qc/src/net/sourceforge/plantuml/ProgressBar.java.html#63]]]
-buildClearMessage() : String [[[./../../../../.././qc/src/net/sourceforge/plantuml/ProgressBar.java.html#68]]]
+incTotal(int) : void [[[./../../../../.././qc/src/net/sourceforge/plantuml/ProgressBar.java.html#85]]]
-printBar(int;int) : void [[[./../../../../.././qc/src/net/sourceforge/plantuml/ProgressBar.java.html#90]]]
-getBar(int;int) : String [[[./../../../../.././qc/src/net/sourceforge/plantuml/ProgressBar.java.html#100]]]
+incDone(boolean) : void [[[./../../../../.././qc/src/net/sourceforge/plantuml/ProgressBar.java.html#110]]]
+setEnable(boolean) : void [[[./../../../../.././qc/src/net/sourceforge/plantuml/ProgressBar.java.html#115]]]
} 
@enduml

PlantUML version 1.2022.7(Mon Aug 22 17:01:30 UTC 2022)
(GPL source distribution)
Java Runtime: OpenJDK Runtime Environment
JVM: OpenJDK 64-Bit Server VM
Default Encoding: UTF-8
Language: en
Country: null
--></g></svg>