<?xml version="1.0" encoding="UTF-8" standalone="no"?><svg xmlns="http://www.w3.org/2000/svg" xmlns:xlink="http://www.w3.org/1999/xlink" contentStyleType="text/css" height="186px" preserveAspectRatio="none" style="width:339px;height:186px;background:#FFFFFF;" version="1.1" viewBox="0 0 339 186" width="339px" zoomAndPan="magnify"><defs/><g><!--MD5=[02e9e194a0548f773f3aa466798987a4]
cluster net.sourceforge.plantuml--><g id="cluster_net.sourceforge.plantuml"><path d="M8.5,63 L210.5,63 A3.75,3.75 0 0 1 213,65.5 L220,85.2969 L329.5,85.2969 A2.5,2.5 0 0 1 332,87.7969 L332,176.5 A2.5,2.5 0 0 1 329.5,179 L8.5,179 A2.5,2.5 0 0 1 6,176.5 L6,65.5 A2.5,2.5 0 0 1 8.5,63 " fill="none" style="stroke:#000000;stroke-width:1.5;"/><line style="stroke:#000000;stroke-width:1.5;" x1="6" x2="220" y1="85.2969" y2="85.2969"/><text fill="#000000" font-family="sans-serif" font-size="14" font-weight="bold" lengthAdjust="spacing" textLength="201" x="10" y="77.9951">net.sourceforge.plantuml</text></g><!--MD5=[c70e1900b8fd17e32d843f9c0f9a3994]
class Scale--><g id="elem_Scale"><rect fill="#F1F1F1" height="48" id="Scale" rx="2.5" ry="2.5" style="stroke:#181818;stroke-width:0.5;" width="69" x="134.5" y="6"/><ellipse cx="149.5" cy="22" fill="#ADD1B2" rx="11" ry="11" style="stroke:#181818;stroke-width:1.0;"/><path d="M152.4688,27.6406 Q151.8906,27.9375 151.25,28.0781 Q150.6094,28.2344 149.9063,28.2344 Q147.4063,28.2344 146.0781,26.5938 Q144.7656,24.9375 144.7656,21.8125 Q144.7656,18.6875 146.0781,17.0313 Q147.4063,15.375 149.9063,15.375 Q150.6094,15.375 151.25,15.5313 Q151.9063,15.6875 152.4688,15.9844 L152.4688,18.7031 Q151.8438,18.125 151.25,17.8594 Q150.6563,17.5781 150.0313,17.5781 Q148.6875,17.5781 148,18.6563 Q147.3125,19.7188 147.3125,21.8125 Q147.3125,23.9063 148,24.9844 Q148.6875,26.0469 150.0313,26.0469 Q150.6563,26.0469 151.25,25.7813 Q151.8438,25.5 152.4688,24.9219 L152.4688,27.6406 Z " fill="#000000"/><text fill="#000000" font-family="sans-serif" font-size="14" lengthAdjust="spacing" textLength="37" x="163.5" y="26.8467">Scale</text><line style="stroke:#181818;stroke-width:0.5;" x1="135.5" x2="202.5" y1="38" y2="38"/><line style="stroke:#181818;stroke-width:0.5;" x1="135.5" x2="202.5" y1="46" y2="46"/></g><!--MD5=[7806b6c375b517512f2533fe6eeb18ed]
class net.sourceforge.plantuml.ScaleSimple--><g id="elem_net.sourceforge.plantuml.ScaleSimple"><rect codeLine="3" fill="#F1F1F1" height="80.5938" id="net.sourceforge.plantuml.ScaleSimple" rx="2.5" ry="2.5" style="stroke:#181818;stroke-width:0.5;" width="309" x="14.5" y="90"/><ellipse cx="123.25" cy="106" fill="#ADD1B2" rx="11" ry="11" style="stroke:#181818;stroke-width:1.0;"/><path d="M126.2188,111.6406 Q125.6406,111.9375 125,112.0781 Q124.3594,112.2344 123.6563,112.2344 Q121.1563,112.2344 119.8281,110.5938 Q118.5156,108.9375 118.5156,105.8125 Q118.5156,102.6875 119.8281,101.0313 Q121.1563,99.375 123.6563,99.375 Q124.3594,99.375 125,99.5313 Q125.6563,99.6875 126.2188,99.9844 L126.2188,102.7031 Q125.5938,102.125 125,101.8594 Q124.4063,101.5781 123.7813,101.5781 Q122.4375,101.5781 121.75,102.6563 Q121.0625,103.7188 121.0625,105.8125 Q121.0625,107.9063 121.75,108.9844 Q122.4375,110.0469 123.7813,110.0469 Q124.4063,110.0469 125,109.7813 Q125.5938,109.5 126.2188,108.9219 L126.2188,111.6406 Z " fill="#000000"/><text fill="#000000" font-family="sans-serif" font-size="14" lengthAdjust="spacing" textLength="83" x="143.75" y="110.8467">ScaleSimple</text><line style="stroke:#181818;stroke-width:0.5;" x1="15.5" x2="322.5" y1="122" y2="122"/><line style="stroke:#181818;stroke-width:0.5;" x1="15.5" x2="322.5" y1="130" y2="130"/><a href="./../../../../.././qc/src/net/sourceforge/plantuml/ScaleSimple.java.html#42" target="_top" title="./../../../../.././qc/src/net/sourceforge/plantuml/ScaleSimple.java.html#42" xlink:actuate="onRequest" xlink:href="./../../../../.././qc/src/net/sourceforge/plantuml/ScaleSimple.java.html#42" xlink:show="new" xlink:title="./../../../../.././qc/src/net/sourceforge/plantuml/ScaleSimple.java.html#42" xlink:type="simple"><rect fill="#F1F1F1" height="10" style="stroke:none;stroke-width:1.0;" width="20" x="20.5" y="138.6484"/><ellipse cx="25.5" cy="143.6484" fill="#84BE84" rx="3" ry="3" style="stroke:#038048;stroke-width:1.0;"/></a><a href="./../../../../.././qc/src/net/sourceforge/plantuml/ScaleSimple.java.html#42" target="_top" title="./../../../../.././qc/src/net/sourceforge/plantuml/ScaleSimple.java.html#42" xlink:actuate="onRequest" xlink:href="./../../../../.././qc/src/net/sourceforge/plantuml/ScaleSimple.java.html#42" xlink:show="new" xlink:title="./../../../../.././qc/src/net/sourceforge/plantuml/ScaleSimple.java.html#42" xlink:type="simple"><text fill="#000000" font-family="sans-serif" font-size="14" lengthAdjust="spacing" textLength="237" x="34.5" y="146.9951">ScaleSimple(double) : ScaleSimple</text></a><a href="./../../../../.././qc/src/net/sourceforge/plantuml/ScaleSimple.java.html#46" target="_top" title="./../../../../.././qc/src/net/sourceforge/plantuml/ScaleSimple.java.html#46" xlink:actuate="onRequest" xlink:href="./../../../../.././qc/src/net/sourceforge/plantuml/ScaleSimple.java.html#46" xlink:show="new" xlink:title="./../../../../.././qc/src/net/sourceforge/plantuml/ScaleSimple.java.html#46" xlink:type="simple"><rect fill="#F1F1F1" height="10" style="stroke:none;stroke-width:1.0;" width="20" x="20.5" y="154.9453"/><ellipse cx="25.5" cy="159.9453" fill="#84BE84" rx="3" ry="3" style="stroke:#038048;stroke-width:1.0;"/></a><a href="./../../../../.././qc/src/net/sourceforge/plantuml/ScaleSimple.java.html#46" target="_top" title="./../../../../.././qc/src/net/sourceforge/plantuml/ScaleSimple.java.html#46" xlink:actuate="onRequest" xlink:href="./../../../../.././qc/src/net/sourceforge/plantuml/ScaleSimple.java.html#46" xlink:show="new" xlink:title="./../../../../.././qc/src/net/sourceforge/plantuml/ScaleSimple.java.html#46" xlink:type="simple"><text fill="#000000" font-family="sans-serif" font-size="14" lengthAdjust="spacing" textLength="283" x="34.5" y="163.292">getScaleInternal(double;double) : double</text></a></g><path d="M169,54.0939 C169,64.784 169,77.7904 169,89.9706 " fill="none" style="stroke:#181818;stroke-width:1.0;"/><polygon fill="#FFFFFF" points="169,54.0939,163,70.0939,175,70.0939,169,54.0939" style="stroke:#181818;stroke-width:1.0;"/><!--MD5=[3948187e349d615e6dc8b14a31c9aeb7]
@startuml
!pragma layout smetana
"Scale" <|- - "net.sourceforge.plantuml.ScaleSimple"
class net.sourceforge.plantuml.ScaleSimple {
+ScaleSimple(double) : ScaleSimple [[[./../../../../.././qc/src/net/sourceforge/plantuml/ScaleSimple.java.html#42]]]
+getScaleInternal(double;double) : double [[[./../../../../.././qc/src/net/sourceforge/plantuml/ScaleSimple.java.html#46]]]
} 
@enduml

PlantUML version 1.2022.7(Mon Aug 22 17:01:30 UTC 2022)
(GPL source distribution)
Java Runtime: OpenJDK Runtime Environment
JVM: OpenJDK 64-Bit Server VM
Default Encoding: UTF-8
Language: en
Country: null
--></g></svg>