<?xml version="1.0" encoding="UTF-8" standalone="no"?><svg xmlns="http://www.w3.org/2000/svg" xmlns:xlink="http://www.w3.org/1999/xlink" contentStyleType="text/css" height="186px" preserveAspectRatio="none" style="width:715px;height:186px;background:#FFFFFF;" version="1.1" viewBox="0 0 715 186" width="715px" zoomAndPan="magnify"><defs/><g><!--MD5=[02e9e194a0548f773f3aa466798987a4]
cluster net.sourceforge.plantuml--><g id="cluster_net.sourceforge.plantuml"><path d="M8.5,63 L210.5,63 A3.75,3.75 0 0 1 213,65.5 L220,85.2969 L705.5,85.2969 A2.5,2.5 0 0 1 708,87.7969 L708,176.5 A2.5,2.5 0 0 1 705.5,179 L8.5,179 A2.5,2.5 0 0 1 6,176.5 L6,65.5 A2.5,2.5 0 0 1 8.5,63 " fill="none" style="stroke:#000000;stroke-width:1.5;"/><line style="stroke:#000000;stroke-width:1.5;" x1="6" x2="220" y1="85.2969" y2="85.2969"/><text fill="#000000" font-family="sans-serif" font-size="14" font-weight="bold" lengthAdjust="spacing" textLength="201" x="10" y="77.9951">net.sourceforge.plantuml</text></g><!--MD5=[55333654599313ca3b188f0de65c0f95]
class SkinParamDelegator--><g id="elem_SkinParamDelegator"><rect fill="#F1F1F1" height="48" id="SkinParamDelegator" rx="2.5" ry="2.5" style="stroke:#181818;stroke-width:0.5;" width="172" x="271" y="6"/><ellipse cx="286" cy="22" fill="#ADD1B2" rx="11" ry="11" style="stroke:#181818;stroke-width:1.0;"/><path d="M288.9688,27.6406 Q288.3906,27.9375 287.75,28.0781 Q287.1094,28.2344 286.4063,28.2344 Q283.9063,28.2344 282.5781,26.5938 Q281.2656,24.9375 281.2656,21.8125 Q281.2656,18.6875 282.5781,17.0313 Q283.9063,15.375 286.4063,15.375 Q287.1094,15.375 287.75,15.5313 Q288.4063,15.6875 288.9688,15.9844 L288.9688,18.7031 Q288.3438,18.125 287.75,17.8594 Q287.1563,17.5781 286.5313,17.5781 Q285.1875,17.5781 284.5,18.6563 Q283.8125,19.7188 283.8125,21.8125 Q283.8125,23.9063 284.5,24.9844 Q285.1875,26.0469 286.5313,26.0469 Q287.1563,26.0469 287.75,25.7813 Q288.3438,25.5 288.9688,24.9219 L288.9688,27.6406 Z " fill="#000000"/><text fill="#000000" font-family="sans-serif" font-size="14" lengthAdjust="spacing" textLength="140" x="300" y="26.8467">SkinParamDelegator</text><line style="stroke:#181818;stroke-width:0.5;" x1="272" x2="442" y1="38" y2="38"/><line style="stroke:#181818;stroke-width:0.5;" x1="272" x2="442" y1="46" y2="46"/></g><!--MD5=[4ac5fcf5651d2475a82bf6d59213848a]
class net.sourceforge.plantuml.SkinParamBackcoloredReference--><g id="elem_net.sourceforge.plantuml.SkinParamBackcoloredReference"><rect codeLine="3" fill="#F1F1F1" height="80.5938" id="net.sourceforge.plantuml.SkinParamBackcoloredReference" rx="2.5" ry="2.5" style="stroke:#181818;stroke-width:0.5;" width="686" x="14" y="90"/><ellipse cx="237.75" cy="106" fill="#ADD1B2" rx="11" ry="11" style="stroke:#181818;stroke-width:1.0;"/><path d="M240.7188,111.6406 Q240.1406,111.9375 239.5,112.0781 Q238.8594,112.2344 238.1563,112.2344 Q235.6563,112.2344 234.3281,110.5938 Q233.0156,108.9375 233.0156,105.8125 Q233.0156,102.6875 234.3281,101.0313 Q235.6563,99.375 238.1563,99.375 Q238.8594,99.375 239.5,99.5313 Q240.1563,99.6875 240.7188,99.9844 L240.7188,102.7031 Q240.0938,102.125 239.5,101.8594 Q238.9063,101.5781 238.2813,101.5781 Q236.9375,101.5781 236.25,102.6563 Q235.5625,103.7188 235.5625,105.8125 Q235.5625,107.9063 236.25,108.9844 Q236.9375,110.0469 238.2813,110.0469 Q238.9063,110.0469 239.5,109.7813 Q240.0938,109.5 240.7188,108.9219 L240.7188,111.6406 Z " fill="#000000"/><text fill="#000000" font-family="sans-serif" font-size="14" lengthAdjust="spacing" textLength="230" x="258.25" y="110.8467">SkinParamBackcoloredReference</text><line style="stroke:#181818;stroke-width:0.5;" x1="15" x2="699" y1="122" y2="122"/><line style="stroke:#181818;stroke-width:0.5;" x1="15" x2="699" y1="130" y2="130"/><a href="./../../../../.././qc/src/net/sourceforge/plantuml/SkinParamBackcoloredReference.java.html#46" target="_top" title="./../../../../.././qc/src/net/sourceforge/plantuml/SkinParamBackcoloredReference.java.html#46" xlink:actuate="onRequest" xlink:href="./../../../../.././qc/src/net/sourceforge/plantuml/SkinParamBackcoloredReference.java.html#46" xlink:show="new" xlink:title="./../../../../.././qc/src/net/sourceforge/plantuml/SkinParamBackcoloredReference.java.html#46" xlink:type="simple"><rect fill="#F1F1F1" height="10" style="stroke:none;stroke-width:1.0;" width="20" x="20" y="138.6484"/><ellipse cx="25" cy="143.6484" fill="#84BE84" rx="3" ry="3" style="stroke:#038048;stroke-width:1.0;"/></a><a href="./../../../../.././qc/src/net/sourceforge/plantuml/SkinParamBackcoloredReference.java.html#46" target="_top" title="./../../../../.././qc/src/net/sourceforge/plantuml/SkinParamBackcoloredReference.java.html#46" xlink:actuate="onRequest" xlink:href="./../../../../.././qc/src/net/sourceforge/plantuml/SkinParamBackcoloredReference.java.html#46" xlink:show="new" xlink:title="./../../../../.././qc/src/net/sourceforge/plantuml/SkinParamBackcoloredReference.java.html#46" xlink:type="simple"><text fill="#000000" font-family="sans-serif" font-size="14" lengthAdjust="spacing" textLength="660" x="34" y="146.9951">SkinParamBackcoloredReference(ISkinParam;HColor;HColor) : SkinParamBackcoloredReference</text></a><a href="./../../../../.././qc/src/net/sourceforge/plantuml/SkinParamBackcoloredReference.java.html#54" target="_top" title="./../../../../.././qc/src/net/sourceforge/plantuml/SkinParamBackcoloredReference.java.html#54" xlink:actuate="onRequest" xlink:href="./../../../../.././qc/src/net/sourceforge/plantuml/SkinParamBackcoloredReference.java.html#54" xlink:show="new" xlink:title="./../../../../.././qc/src/net/sourceforge/plantuml/SkinParamBackcoloredReference.java.html#54" xlink:type="simple"><rect fill="#F1F1F1" height="10" style="stroke:none;stroke-width:1.0;" width="20" x="20" y="154.9453"/><ellipse cx="25" cy="159.9453" fill="#84BE84" rx="3" ry="3" style="stroke:#038048;stroke-width:1.0;"/></a><a href="./../../../../.././qc/src/net/sourceforge/plantuml/SkinParamBackcoloredReference.java.html#54" target="_top" title="./../../../../.././qc/src/net/sourceforge/plantuml/SkinParamBackcoloredReference.java.html#54" xlink:actuate="onRequest" xlink:href="./../../../../.././qc/src/net/sourceforge/plantuml/SkinParamBackcoloredReference.java.html#54" xlink:show="new" xlink:title="./../../../../.././qc/src/net/sourceforge/plantuml/SkinParamBackcoloredReference.java.html#54" xlink:type="simple"><text fill="#000000" font-family="sans-serif" font-size="14" lengthAdjust="spacing" textLength="380" x="34" y="163.292">getHtmlColor(ColorParam;Stereotype;boolean) : HColor</text></a></g><path d="M357,54.0939 C357,64.784 357,77.7904 357,89.9706 " fill="none" style="stroke:#181818;stroke-width:1.0;"/><polygon fill="#FFFFFF" points="357,54.0939,351,70.0939,363,70.0939,357,54.0939" style="stroke:#181818;stroke-width:1.0;"/><!--MD5=[322ee12a898cec317a2666cffb07d399]
@startuml
!pragma layout smetana
"SkinParamDelegator" <|- - "net.sourceforge.plantuml.SkinParamBackcoloredReference"
class net.sourceforge.plantuml.SkinParamBackcoloredReference {
+SkinParamBackcoloredReference(ISkinParam;HColor;HColor) : SkinParamBackcoloredReference [[[./../../../../.././qc/src/net/sourceforge/plantuml/SkinParamBackcoloredReference.java.html#46]]]
+getHtmlColor(ColorParam;Stereotype;boolean) : HColor [[[./../../../../.././qc/src/net/sourceforge/plantuml/SkinParamBackcoloredReference.java.html#54]]]
} 
@enduml

PlantUML version 1.2022.7(Mon Aug 22 17:01:30 UTC 2022)
(GPL source distribution)
Java Runtime: OpenJDK Runtime Environment
JVM: OpenJDK 64-Bit Server VM
Default Encoding: UTF-8
Language: en
Country: null
--></g></svg>