<?xml version="1.0" encoding="UTF-8" standalone="no"?><svg xmlns="http://www.w3.org/2000/svg" xmlns:xlink="http://www.w3.org/1999/xlink" contentStyleType="text/css" height="186px" preserveAspectRatio="none" style="width:807px;height:186px;background:#FFFFFF;" version="1.1" viewBox="0 0 807 186" width="807px" zoomAndPan="magnify"><defs/><g><!--MD5=[02e9e194a0548f773f3aa466798987a4]
cluster net.sourceforge.plantuml--><g id="cluster_net.sourceforge.plantuml"><path d="M8.5,63 L210.5,63 A3.75,3.75 0 0 1 213,65.5 L220,85.2969 L797.5,85.2969 A2.5,2.5 0 0 1 800,87.7969 L800,176.5 A2.5,2.5 0 0 1 797.5,179 L8.5,179 A2.5,2.5 0 0 1 6,176.5 L6,65.5 A2.5,2.5 0 0 1 8.5,63 " fill="none" style="stroke:#000000;stroke-width:1.5;"/><line style="stroke:#000000;stroke-width:1.5;" x1="6" x2="220" y1="85.2969" y2="85.2969"/><text fill="#000000" font-family="sans-serif" font-size="14" font-weight="bold" lengthAdjust="spacing" textLength="201" x="10" y="77.9951">net.sourceforge.plantuml</text></g><!--MD5=[22e56908249effa3b13f5b1a19437dfb]
class SourceFileReaderAbstract--><g id="elem_SourceFileReaderAbstract"><rect fill="#F1F1F1" height="48" id="SourceFileReaderAbstract" rx="2.5" ry="2.5" style="stroke:#181818;stroke-width:0.5;" width="211" x="297.5" y="6"/><ellipse cx="312.5" cy="22" fill="#ADD1B2" rx="11" ry="11" style="stroke:#181818;stroke-width:1.0;"/><path d="M315.4688,27.6406 Q314.8906,27.9375 314.25,28.0781 Q313.6094,28.2344 312.9063,28.2344 Q310.4063,28.2344 309.0781,26.5938 Q307.7656,24.9375 307.7656,21.8125 Q307.7656,18.6875 309.0781,17.0313 Q310.4063,15.375 312.9063,15.375 Q313.6094,15.375 314.25,15.5313 Q314.9063,15.6875 315.4688,15.9844 L315.4688,18.7031 Q314.8438,18.125 314.25,17.8594 Q313.6563,17.5781 313.0313,17.5781 Q311.6875,17.5781 311,18.6563 Q310.3125,19.7188 310.3125,21.8125 Q310.3125,23.9063 311,24.9844 Q311.6875,26.0469 313.0313,26.0469 Q313.6563,26.0469 314.25,25.7813 Q314.8438,25.5 315.4688,24.9219 L315.4688,27.6406 Z " fill="#000000"/><text fill="#000000" font-family="sans-serif" font-size="14" lengthAdjust="spacing" textLength="179" x="326.5" y="26.8467">SourceFileReaderAbstract</text><line style="stroke:#181818;stroke-width:0.5;" x1="298.5" x2="507.5" y1="38" y2="38"/><line style="stroke:#181818;stroke-width:0.5;" x1="298.5" x2="507.5" y1="46" y2="46"/></g><!--MD5=[050bd14bb858e39bc601fd7a9328c0f7]
class net.sourceforge.plantuml.SourceFileReaderCopyCat--><g id="elem_net.sourceforge.plantuml.SourceFileReaderCopyCat"><rect codeLine="3" fill="#F1F1F1" height="80.5938" id="net.sourceforge.plantuml.SourceFileReaderCopyCat" rx="2.5" ry="2.5" style="stroke:#181818;stroke-width:0.5;" width="777" x="14.5" y="90"/><ellipse cx="308.75" cy="106" fill="#ADD1B2" rx="11" ry="11" style="stroke:#181818;stroke-width:1.0;"/><path d="M311.7188,111.6406 Q311.1406,111.9375 310.5,112.0781 Q309.8594,112.2344 309.1563,112.2344 Q306.6563,112.2344 305.3281,110.5938 Q304.0156,108.9375 304.0156,105.8125 Q304.0156,102.6875 305.3281,101.0313 Q306.6563,99.375 309.1563,99.375 Q309.8594,99.375 310.5,99.5313 Q311.1563,99.6875 311.7188,99.9844 L311.7188,102.7031 Q311.0938,102.125 310.5,101.8594 Q309.9063,101.5781 309.2813,101.5781 Q307.9375,101.5781 307.25,102.6563 Q306.5625,103.7188 306.5625,105.8125 Q306.5625,107.9063 307.25,108.9844 Q307.9375,110.0469 309.2813,110.0469 Q309.9063,110.0469 310.5,109.7813 Q311.0938,109.5 311.7188,108.9219 L311.7188,111.6406 Z " fill="#000000"/><text fill="#000000" font-family="sans-serif" font-size="14" lengthAdjust="spacing" textLength="180" x="329.25" y="110.8467">SourceFileReaderCopyCat</text><line style="stroke:#181818;stroke-width:0.5;" x1="15.5" x2="790.5" y1="122" y2="122"/><line style="stroke:#181818;stroke-width:0.5;" x1="15.5" x2="790.5" y1="130" y2="130"/><a href="./../../../../.././qc/src/net/sourceforge/plantuml/SourceFileReaderCopyCat.java.html#48" target="_top" title="./../../../../.././qc/src/net/sourceforge/plantuml/SourceFileReaderCopyCat.java.html#48" xlink:actuate="onRequest" xlink:href="./../../../../.././qc/src/net/sourceforge/plantuml/SourceFileReaderCopyCat.java.html#48" xlink:show="new" xlink:title="./../../../../.././qc/src/net/sourceforge/plantuml/SourceFileReaderCopyCat.java.html#48" xlink:type="simple"><rect fill="#F1F1F1" height="10" style="stroke:none;stroke-width:1.0;" width="20" x="20.5" y="138.6484"/><ellipse cx="25.5" cy="143.6484" fill="#84BE84" rx="3" ry="3" style="stroke:#038048;stroke-width:1.0;"/></a><a href="./../../../../.././qc/src/net/sourceforge/plantuml/SourceFileReaderCopyCat.java.html#48" target="_top" title="./../../../../.././qc/src/net/sourceforge/plantuml/SourceFileReaderCopyCat.java.html#48" xlink:actuate="onRequest" xlink:href="./../../../../.././qc/src/net/sourceforge/plantuml/SourceFileReaderCopyCat.java.html#48" xlink:show="new" xlink:title="./../../../../.././qc/src/net/sourceforge/plantuml/SourceFileReaderCopyCat.java.html#48" xlink:type="simple"><text fill="#000000" font-family="sans-serif" font-size="14" lengthAdjust="spacing" textLength="751" x="34.5" y="146.9951">SourceFileReaderCopyCat(Defines;File;File;List&lt;String&gt;;String;FileFormatOption) : SourceFileReaderCopyCat</text></a><a href="./../../../../.././qc/src/net/sourceforge/plantuml/SourceFileReaderCopyCat.java.html#58" target="_top" title="./../../../../.././qc/src/net/sourceforge/plantuml/SourceFileReaderCopyCat.java.html#58" xlink:actuate="onRequest" xlink:href="./../../../../.././qc/src/net/sourceforge/plantuml/SourceFileReaderCopyCat.java.html#58" xlink:show="new" xlink:title="./../../../../.././qc/src/net/sourceforge/plantuml/SourceFileReaderCopyCat.java.html#58" xlink:type="simple"><text fill="#000000" font-family="sans-serif" font-size="14" lengthAdjust="spacing" textLength="308" x="34.5" y="163.292">getSuggestedFile(BlockUml) : SuggestedFile</text></a></g><path d="M403,54.0939 C403,64.784 403,77.7904 403,89.9706 " fill="none" style="stroke:#181818;stroke-width:1.0;"/><polygon fill="#FFFFFF" points="403,54.0939,397,70.0939,409,70.0939,403,54.0939" style="stroke:#181818;stroke-width:1.0;"/><!--MD5=[156a0f88f96511c112dde17c1fc9dc15]
@startuml
!pragma layout smetana
"SourceFileReaderAbstract" <|- - "net.sourceforge.plantuml.SourceFileReaderCopyCat"
class net.sourceforge.plantuml.SourceFileReaderCopyCat {
+SourceFileReaderCopyCat(Defines;File;File;List<String>;String;FileFormatOption) : SourceFileReaderCopyCat [[[./../../../../.././qc/src/net/sourceforge/plantuml/SourceFileReaderCopyCat.java.html#48]]]
getSuggestedFile(BlockUml) : SuggestedFile [[[./../../../../.././qc/src/net/sourceforge/plantuml/SourceFileReaderCopyCat.java.html#58]]]
} 
@enduml

PlantUML version 1.2022.7(Mon Aug 22 17:01:30 UTC 2022)
(GPL source distribution)
Java Runtime: OpenJDK Runtime Environment
JVM: OpenJDK 64-Bit Server VM
Default Encoding: UTF-8
Language: en
Country: null
--></g></svg>