<?xml version="1.0" encoding="UTF-8" standalone="no"?><svg xmlns="http://www.w3.org/2000/svg" xmlns:xlink="http://www.w3.org/1999/xlink" contentStyleType="text/css" height="2233px" preserveAspectRatio="none" style="width:654px;height:2233px;background:#FFFFFF;" version="1.1" viewBox="0 0 654 2233" width="654px" zoomAndPan="magnify"><defs/><g><path d="M298,10 L298,26.1328 L278,30.1328 L298,34.1328 L298,50.2656 A0,0 0 0 0 298,50.2656 L588,50.2656 A0,0 0 0 0 588,50.2656 L588,20 L578,10 L298,10 A0,0 0 0 0 298,10 " fill="#FEFFDD" style="stroke:#181818;stroke-width:0.5;"/><path d="M578,10 L578,20 L588,20 L578,10 " fill="#FEFFDD" style="stroke:#181818;stroke-width:0.5;"/><text fill="#000000" font-family="sans-serif" font-size="13" lengthAdjust="spacing" textLength="269" x="304" y="27.0669">constructor SuggestedFile(SFileoutputFile,</text><text fill="#000000" font-family="sans-serif" font-size="13" lengthAdjust="spacing" textLength="211" x="304" y="42.1997">FileFormatfileFormat,intinitialCpt)</text><ellipse cx="268" cy="30.1328" fill="#222222" rx="10" ry="10" style="stroke:#222222;stroke-width:1.0;"/><rect fill="#F1F1F1" height="33.9688" rx="12.5" ry="12.5" style="stroke:#181818;stroke-width:0.5;" width="260" x="138" y="118.668"/><text fill="#000000" font-family="sans-serif" font-size="12" lengthAdjust="spacing" textLength="240" x="148" y="139.8066">throw new IllegalArgumentException();</text><ellipse cx="268" cy="192.1523" fill="none" rx="11" ry="11" style="stroke:#222222;stroke-width:1.0;"/><ellipse cx="268" cy="192.1523" fill="#222222" rx="6" ry="6" style="stroke:#111111;stroke-width:1.0;"/><polygon fill="#F1F1F1" points="108.5,70.2656,427.5,70.2656,439.5,82.2656,427.5,94.2656,108.5,94.2656,96.5,82.2656,108.5,70.2656" style="stroke:#181818;stroke-width:0.5;"/><text fill="#000000" font-family="sans-serif" font-size="11" lengthAdjust="spacing" textLength="20" x="272" y="104.4761">yes</text><text fill="#000000" font-family="sans-serif" font-size="11" lengthAdjust="spacing" textLength="319" x="108.5" y="86.0737">outputFile.getName().endsWith(fileFormat.getFileSuffix())</text><rect fill="#F1F1F1" height="33.9688" rx="12.5" ry="12.5" style="stroke:#181818;stroke-width:0.5;" width="187" x="174.5" y="245.1523"/><text fill="#000000" font-family="sans-serif" font-size="12" lengthAdjust="spacing" textLength="167" x="184.5" y="266.291">this.outputFile=outputFile;</text><rect fill="#F1F1F1" height="33.9688" rx="12.5" ry="12.5" style="stroke:#181818;stroke-width:0.5;" width="185" x="175.5" y="299.1211"/><text fill="#000000" font-family="sans-serif" font-size="12" lengthAdjust="spacing" textLength="165" x="185.5" y="320.2598">this.fileFormat=fileFormat;</text><rect fill="#F1F1F1" height="33.9688" rx="12.5" ry="12.5" style="stroke:#181818;stroke-width:0.5;" width="169" x="183.5" y="353.0898"/><text fill="#000000" font-family="sans-serif" font-size="12" lengthAdjust="spacing" textLength="149" x="193.5" y="374.2285">this.initialCpt=initialCpt;</text><ellipse cx="268" cy="417.0586" fill="none" rx="10" ry="10" style="stroke:#222222;stroke-width:1.5;"/><line style="stroke:#222222;stroke-width:2.5;" x1="261.8128" x2="274.1872" y1="410.8714" y2="423.2458"/><line style="stroke:#222222;stroke-width:2.5;" x1="274.1872" x2="261.8128" y1="410.8714" y2="423.2458"/><path d="M298,437.0586 L298,445.625 L278,449.625 L298,453.625 L298,462.1914 A0,0 0 0 0 298,462.1914 L539,462.1914 A0,0 0 0 0 539,462.1914 L539,447.0586 L529,437.0586 L298,437.0586 A0,0 0 0 0 298,437.0586 " fill="#FEFFDD" style="stroke:#181818;stroke-width:0.5;"/><path d="M529,437.0586 L529,447.0586 L539,447.0586 L529,437.0586 " fill="#FEFFDD" style="stroke:#181818;stroke-width:0.5;"/><text fill="#000000" font-family="sans-serif" font-size="13" lengthAdjust="spacing" textLength="220" x="304" y="454.1255">SuggestedFilewithPreprocFormat()</text><ellipse cx="268" cy="449.625" fill="#222222" rx="10" ry="10" style="stroke:#222222;stroke-width:1.0;"/><rect fill="#F1F1F1" height="47.9375" rx="12.5" ry="12.5" style="stroke:#181818;stroke-width:0.5;" width="383" x="76.5" y="482.1914"/><text fill="#000000" font-family="sans-serif" font-size="12" lengthAdjust="spacing" textLength="363" x="86.5" y="503.3301">return new SuggestedFile(outputFile,FileFormat.PREPROC,</text><text fill="#000000" font-family="sans-serif" font-size="12" lengthAdjust="spacing" textLength="63" x="86.5" y="517.2988">initialCpt);</text><ellipse cx="268" cy="561.1289" fill="none" rx="11" ry="11" style="stroke:#222222;stroke-width:1.0;"/><ellipse cx="268" cy="561.1289" fill="#222222" rx="6" ry="6" style="stroke:#111111;stroke-width:1.0;"/><ellipse cx="268" cy="592.1289" fill="none" rx="10" ry="10" style="stroke:#222222;stroke-width:1.5;"/><line style="stroke:#222222;stroke-width:2.5;" x1="261.8128" x2="274.1872" y1="585.9417" y2="598.3161"/><line style="stroke:#222222;stroke-width:2.5;" x1="274.1872" x2="261.8128" y1="585.9417" y2="598.3161"/><path d="M298,612.1289 L298,620.6953 L278,624.6953 L298,628.6953 L298,637.2617 A0,0 0 0 0 298,637.2617 L418,637.2617 A0,0 0 0 0 418,637.2617 L418,622.1289 L408,612.1289 L298,612.1289 A0,0 0 0 0 298,612.1289 " fill="#FEFFDD" style="stroke:#181818;stroke-width:0.5;"/><path d="M408,612.1289 L408,622.1289 L418,622.1289 L408,612.1289 " fill="#FEFFDD" style="stroke:#181818;stroke-width:0.5;"/><text fill="#000000" font-family="sans-serif" font-size="13" lengthAdjust="spacing" textLength="99" x="304" y="629.1958">StringtoString()</text><ellipse cx="268" cy="624.6953" fill="#222222" rx="10" ry="10" style="stroke:#222222;stroke-width:1.0;"/><rect fill="#F1F1F1" height="47.9375" rx="12.5" ry="12.5" style="stroke:#181818;stroke-width:0.5;" width="281" x="127.5" y="657.2617"/><text fill="#000000" font-family="sans-serif" font-size="12" lengthAdjust="spacing" textLength="261" x="137.5" y="678.4004">return outputFile.getPrintablePath()+"["+</text><text fill="#000000" font-family="sans-serif" font-size="12" lengthAdjust="spacing" textLength="83" x="137.5" y="692.3691">initialCpt+"]";</text><ellipse cx="268" cy="736.1992" fill="none" rx="11" ry="11" style="stroke:#222222;stroke-width:1.0;"/><ellipse cx="268" cy="736.1992" fill="#222222" rx="6" ry="6" style="stroke:#111111;stroke-width:1.0;"/><ellipse cx="268" cy="767.1992" fill="none" rx="10" ry="10" style="stroke:#222222;stroke-width:1.5;"/><line style="stroke:#222222;stroke-width:2.5;" x1="261.8128" x2="274.1872" y1="761.012" y2="773.3864"/><line style="stroke:#222222;stroke-width:2.5;" x1="274.1872" x2="261.8128" y1="761.012" y2="773.3864"/><path d="M298,787.1992 L298,803.332 L278,807.332 L298,811.332 L298,827.4648 A0,0 0 0 0 298,827.4648 L606,827.4648 A0,0 0 0 0 606,827.4648 L606,797.1992 L596,787.1992 L298,787.1992 A0,0 0 0 0 298,787.1992 " fill="#FEFFDD" style="stroke:#181818;stroke-width:0.5;"/><path d="M596,787.1992 L596,797.1992 L606,797.1992 L596,787.1992 " fill="#FEFFDD" style="stroke:#181818;stroke-width:0.5;"/><text fill="#000000" font-family="sans-serif" font-size="13" lengthAdjust="spacing" textLength="287" x="304" y="804.2661">SuggestedFilefromOutputFile(SFileoutputFile,</text><text fill="#000000" font-family="sans-serif" font-size="13" lengthAdjust="spacing" textLength="136" x="304" y="819.3989">FileFormatfileFormat)</text><ellipse cx="268" cy="807.332" fill="#222222" rx="10" ry="10" style="stroke:#222222;stroke-width:1.0;"/><rect fill="#F1F1F1" height="33.9688" rx="12.5" ry="12.5" style="stroke:#181818;stroke-width:0.5;" width="310" x="113" y="847.4648"/><text fill="#000000" font-family="sans-serif" font-size="12" lengthAdjust="spacing" textLength="290" x="123" y="868.6035">return fromOutputFile(outputFile,fileFormat,0);</text><ellipse cx="268" cy="912.4336" fill="none" rx="11" ry="11" style="stroke:#222222;stroke-width:1.0;"/><ellipse cx="268" cy="912.4336" fill="#222222" rx="6" ry="6" style="stroke:#111111;stroke-width:1.0;"/><ellipse cx="268" cy="943.4336" fill="none" rx="10" ry="10" style="stroke:#222222;stroke-width:1.5;"/><line style="stroke:#222222;stroke-width:2.5;" x1="261.8128" x2="274.1872" y1="937.2464" y2="949.6208"/><line style="stroke:#222222;stroke-width:2.5;" x1="274.1872" x2="261.8128" y1="937.2464" y2="949.6208"/><path d="M298,963.4336 L298,979.5664 L278,983.5664 L298,987.5664 L298,1003.6992 A0,0 0 0 0 298,1003.6992 L642,1003.6992 A0,0 0 0 0 642,1003.6992 L642,973.4336 L632,963.4336 L298,963.4336 A0,0 0 0 0 298,963.4336 " fill="#FEFFDD" style="stroke:#181818;stroke-width:0.5;"/><path d="M632,963.4336 L632,973.4336 L642,973.4336 L632,963.4336 " fill="#FEFFDD" style="stroke:#181818;stroke-width:0.5;"/><text fill="#000000" font-family="sans-serif" font-size="13" lengthAdjust="spacing" textLength="323" x="304" y="980.5005">SuggestedFilefromOutputFile(java.io.FileoutputFile,</text><text fill="#000000" font-family="sans-serif" font-size="13" lengthAdjust="spacing" textLength="136" x="304" y="995.6333">FileFormatfileFormat)</text><ellipse cx="268" cy="983.5664" fill="#222222" rx="10" ry="10" style="stroke:#222222;stroke-width:1.0;"/><rect fill="#F1F1F1" height="33.9688" rx="12.5" ry="12.5" style="stroke:#181818;stroke-width:0.5;" width="310" x="113" y="1023.6992"/><text fill="#000000" font-family="sans-serif" font-size="12" lengthAdjust="spacing" textLength="290" x="123" y="1044.8379">return fromOutputFile(outputFile,fileFormat,0);</text><ellipse cx="268" cy="1088.668" fill="none" rx="11" ry="11" style="stroke:#222222;stroke-width:1.0;"/><ellipse cx="268" cy="1088.668" fill="#222222" rx="6" ry="6" style="stroke:#111111;stroke-width:1.0;"/><ellipse cx="268" cy="1119.668" fill="none" rx="10" ry="10" style="stroke:#222222;stroke-width:1.5;"/><line style="stroke:#222222;stroke-width:2.5;" x1="261.8128" x2="274.1872" y1="1113.4808" y2="1125.8552"/><line style="stroke:#222222;stroke-width:2.5;" x1="274.1872" x2="261.8128" y1="1113.4808" y2="1125.8552"/><path d="M298,1139.668 L298,1148.2344 L278,1152.2344 L298,1156.2344 L298,1164.8008 A0,0 0 0 0 298,1164.8008 L443,1164.8008 A0,0 0 0 0 443,1164.8008 L443,1149.668 L433,1139.668 L298,1139.668 A0,0 0 0 0 298,1139.668 " fill="#FEFFDD" style="stroke:#181818;stroke-width:0.5;"/><path d="M433,1139.668 L433,1149.668 L443,1149.668 L433,1139.668 " fill="#FEFFDD" style="stroke:#181818;stroke-width:0.5;"/><text fill="#000000" font-family="sans-serif" font-size="13" lengthAdjust="spacing" textLength="124" x="304" y="1156.7349">SFilegetParentFile()</text><ellipse cx="268" cy="1152.2344" fill="#222222" rx="10" ry="10" style="stroke:#222222;stroke-width:1.0;"/><rect fill="#F1F1F1" height="33.9688" rx="12.5" ry="12.5" style="stroke:#181818;stroke-width:0.5;" width="228" x="154" y="1184.8008"/><text fill="#000000" font-family="sans-serif" font-size="12" lengthAdjust="spacing" textLength="208" x="164" y="1205.9395">return outputFile.getParentFile();</text><ellipse cx="268" cy="1249.7695" fill="none" rx="11" ry="11" style="stroke:#222222;stroke-width:1.0;"/><ellipse cx="268" cy="1249.7695" fill="#222222" rx="6" ry="6" style="stroke:#111111;stroke-width:1.0;"/><ellipse cx="268" cy="1280.7695" fill="none" rx="10" ry="10" style="stroke:#222222;stroke-width:1.5;"/><line style="stroke:#222222;stroke-width:2.5;" x1="261.8128" x2="274.1872" y1="1274.5823" y2="1286.9567"/><line style="stroke:#222222;stroke-width:2.5;" x1="274.1872" x2="261.8128" y1="1274.5823" y2="1286.9567"/><path d="M298,1300.7695 L298,1309.3359 L278,1313.3359 L298,1317.3359 L298,1325.9023 A0,0 0 0 0 298,1325.9023 L427,1325.9023 A0,0 0 0 0 427,1325.9023 L427,1310.7695 L417,1300.7695 L298,1300.7695 A0,0 0 0 0 298,1300.7695 " fill="#FEFFDD" style="stroke:#181818;stroke-width:0.5;"/><path d="M417,1300.7695 L417,1310.7695 L427,1310.7695 L417,1300.7695 " fill="#FEFFDD" style="stroke:#181818;stroke-width:0.5;"/><text fill="#000000" font-family="sans-serif" font-size="13" lengthAdjust="spacing" textLength="108" x="304" y="1317.8364">StringgetName()</text><ellipse cx="268" cy="1313.3359" fill="#222222" rx="10" ry="10" style="stroke:#222222;stroke-width:1.0;"/><rect fill="#F1F1F1" height="33.9688" rx="12.5" ry="12.5" style="stroke:#181818;stroke-width:0.5;" width="201" x="167.5" y="1345.9023"/><text fill="#000000" font-family="sans-serif" font-size="12" lengthAdjust="spacing" textLength="181" x="177.5" y="1367.041">return outputFile.getName();</text><ellipse cx="268" cy="1410.8711" fill="none" rx="11" ry="11" style="stroke:#222222;stroke-width:1.0;"/><ellipse cx="268" cy="1410.8711" fill="#222222" rx="6" ry="6" style="stroke:#111111;stroke-width:1.0;"/><ellipse cx="268" cy="1441.8711" fill="none" rx="10" ry="10" style="stroke:#222222;stroke-width:1.5;"/><line style="stroke:#222222;stroke-width:2.5;" x1="261.8128" x2="274.1872" y1="1435.6839" y2="1448.0583"/><line style="stroke:#222222;stroke-width:2.5;" x1="274.1872" x2="261.8128" y1="1435.6839" y2="1448.0583"/><path d="M298,1461.8711 L298,1470.4375 L278,1474.4375 L298,1478.4375 L298,1487.0039 A0,0 0 0 0 298,1487.0039 L437,1487.0039 A0,0 0 0 0 437,1487.0039 L437,1471.8711 L427,1461.8711 L298,1461.8711 A0,0 0 0 0 298,1461.8711 " fill="#FEFFDD" style="stroke:#181818;stroke-width:0.5;"/><path d="M427,1461.8711 L427,1471.8711 L437,1471.8711 L427,1461.8711 " fill="#FEFFDD" style="stroke:#181818;stroke-width:0.5;"/><text fill="#000000" font-family="sans-serif" font-size="13" lengthAdjust="spacing" textLength="118" x="304" y="1478.938">SFilegetFile(intcpt)</text><ellipse cx="268" cy="1474.4375" fill="#222222" rx="10" ry="10" style="stroke:#222222;stroke-width:1.0;"/><rect fill="#F1F1F1" height="47.9375" rx="12.5" ry="12.5" style="stroke:#181818;stroke-width:0.5;" width="514" x="11" y="1507.0039"/><text fill="#000000" font-family="sans-serif" font-size="12" lengthAdjust="spacing" textLength="494" x="21" y="1528.1426">final StringnewName=fileFormat.changeName(outputFile.getName(),initialCpt+</text><text fill="#000000" font-family="sans-serif" font-size="12" lengthAdjust="spacing" textLength="29" x="21" y="1542.1113">cpt);</text><rect fill="#F1F1F1" height="33.9688" rx="12.5" ry="12.5" style="stroke:#181818;stroke-width:0.5;" width="321" x="107.5" y="1574.9414"/><text fill="#000000" font-family="sans-serif" font-size="12" lengthAdjust="spacing" textLength="301" x="117.5" y="1596.0801">return outputFile.getParentFile().file(newName);</text><ellipse cx="268" cy="1639.9102" fill="none" rx="11" ry="11" style="stroke:#222222;stroke-width:1.0;"/><ellipse cx="268" cy="1639.9102" fill="#222222" rx="6" ry="6" style="stroke:#111111;stroke-width:1.0;"/><ellipse cx="268" cy="1670.9102" fill="none" rx="10" ry="10" style="stroke:#222222;stroke-width:1.5;"/><line style="stroke:#222222;stroke-width:2.5;" x1="261.8128" x2="274.1872" y1="1664.723" y2="1677.0973"/><line style="stroke:#222222;stroke-width:2.5;" x1="274.1872" x2="261.8128" y1="1664.723" y2="1677.0973"/><path d="M298,1690.9102 L298,1707.043 L278,1711.043 L298,1715.043 L298,1731.1758 A0,0 0 0 0 298,1731.1758 L606,1731.1758 A0,0 0 0 0 606,1731.1758 L606,1700.9102 L596,1690.9102 L298,1690.9102 A0,0 0 0 0 298,1690.9102 " fill="#FEFFDD" style="stroke:#181818;stroke-width:0.5;"/><path d="M596,1690.9102 L596,1700.9102 L606,1700.9102 L596,1690.9102 " fill="#FEFFDD" style="stroke:#181818;stroke-width:0.5;"/><text fill="#000000" font-family="sans-serif" font-size="13" lengthAdjust="spacing" textLength="287" x="304" y="1707.9771">SuggestedFilefromOutputFile(SFileoutputFile,</text><text fill="#000000" font-family="sans-serif" font-size="13" lengthAdjust="spacing" textLength="211" x="304" y="1723.1099">FileFormatfileFormat,intinitialCpt)</text><ellipse cx="268" cy="1711.043" fill="#222222" rx="10" ry="10" style="stroke:#222222;stroke-width:1.0;"/><rect fill="#F1F1F1" height="47.9375" rx="12.5" ry="12.5" style="stroke:#181818;stroke-width:0.5;" width="319" x="108.5" y="1751.1758"/><text fill="#000000" font-family="sans-serif" font-size="12" lengthAdjust="spacing" textLength="299" x="118.5" y="1772.3145">return new SuggestedFile(outputFile,fileFormat,</text><text fill="#000000" font-family="sans-serif" font-size="12" lengthAdjust="spacing" textLength="63" x="118.5" y="1786.2832">initialCpt);</text><ellipse cx="268" cy="1830.1133" fill="none" rx="11" ry="11" style="stroke:#222222;stroke-width:1.0;"/><ellipse cx="268" cy="1830.1133" fill="#222222" rx="6" ry="6" style="stroke:#111111;stroke-width:1.0;"/><ellipse cx="268" cy="1861.1133" fill="none" rx="10" ry="10" style="stroke:#222222;stroke-width:1.5;"/><line style="stroke:#222222;stroke-width:2.5;" x1="261.8128" x2="274.1872" y1="1854.9261" y2="1867.3005"/><line style="stroke:#222222;stroke-width:2.5;" x1="274.1872" x2="261.8128" y1="1854.9261" y2="1867.3005"/><path d="M298,1881.1133 L298,1897.2461 L278,1901.2461 L298,1905.2461 L298,1921.3789 A0,0 0 0 0 298,1921.3789 L642,1921.3789 A0,0 0 0 0 642,1921.3789 L642,1891.1133 L632,1881.1133 L298,1881.1133 A0,0 0 0 0 298,1881.1133 " fill="#FEFFDD" style="stroke:#181818;stroke-width:0.5;"/><path d="M632,1881.1133 L632,1891.1133 L642,1891.1133 L632,1881.1133 " fill="#FEFFDD" style="stroke:#181818;stroke-width:0.5;"/><text fill="#000000" font-family="sans-serif" font-size="13" lengthAdjust="spacing" textLength="323" x="304" y="1898.1802">SuggestedFilefromOutputFile(java.io.FileoutputFile,</text><text fill="#000000" font-family="sans-serif" font-size="13" lengthAdjust="spacing" textLength="211" x="304" y="1913.313">FileFormatfileFormat,intinitialCpt)</text><ellipse cx="268" cy="1901.2461" fill="#222222" rx="10" ry="10" style="stroke:#222222;stroke-width:1.0;"/><rect fill="#F1F1F1" height="47.9375" rx="12.5" ry="12.5" style="stroke:#181818;stroke-width:0.5;" width="345" x="95.5" y="1941.3789"/><text fill="#000000" font-family="sans-serif" font-size="12" lengthAdjust="spacing" textLength="325" x="105.5" y="1962.5176">return new SuggestedFile(SFile.fromFile(outputFile),</text><text fill="#000000" font-family="sans-serif" font-size="12" lengthAdjust="spacing" textLength="129" x="105.5" y="1976.4863">fileFormat,initialCpt);</text><ellipse cx="268" cy="2020.3164" fill="none" rx="11" ry="11" style="stroke:#222222;stroke-width:1.0;"/><ellipse cx="268" cy="2020.3164" fill="#222222" rx="6" ry="6" style="stroke:#111111;stroke-width:1.0;"/><ellipse cx="268" cy="2051.3164" fill="none" rx="10" ry="10" style="stroke:#222222;stroke-width:1.5;"/><line style="stroke:#222222;stroke-width:2.5;" x1="261.8128" x2="274.1872" y1="2045.1292" y2="2057.5036"/><line style="stroke:#222222;stroke-width:2.5;" x1="274.1872" x2="261.8128" y1="2045.1292" y2="2057.5036"/><path d="M298,2071.3164 L298,2079.8828 L278,2083.8828 L298,2087.8828 L298,2096.4492 A0,0 0 0 0 298,2096.4492 L429,2096.4492 A0,0 0 0 0 429,2096.4492 L429,2081.3164 L419,2071.3164 L298,2071.3164 A0,0 0 0 0 298,2071.3164 " fill="#FEFFDD" style="stroke:#181818;stroke-width:0.5;"/><path d="M419,2071.3164 L419,2081.3164 L429,2081.3164 L419,2071.3164 " fill="#FEFFDD" style="stroke:#181818;stroke-width:0.5;"/><text fill="#000000" font-family="sans-serif" font-size="13" lengthAdjust="spacing" textLength="110" x="304" y="2088.3833">SFilegetTmpFile()</text><ellipse cx="268" cy="2083.8828" fill="#222222" rx="10" ry="10" style="stroke:#222222;stroke-width:1.0;"/><rect fill="#F1F1F1" height="33.9688" rx="12.5" ry="12.5" style="stroke:#181818;stroke-width:0.5;" width="308" x="114" y="2116.4492"/><text fill="#000000" font-family="sans-serif" font-size="12" lengthAdjust="spacing" textLength="288" x="124" y="2137.5879">return getParentFile().file(getName()+".tmp");</text><ellipse cx="268" cy="2181.418" fill="none" rx="11" ry="11" style="stroke:#222222;stroke-width:1.0;"/><ellipse cx="268" cy="2181.418" fill="#222222" rx="6" ry="6" style="stroke:#111111;stroke-width:1.0;"/><ellipse cx="268" cy="2212.418" fill="none" rx="10" ry="10" style="stroke:#222222;stroke-width:1.5;"/><line style="stroke:#222222;stroke-width:2.5;" x1="261.8128" x2="274.1872" y1="2206.2308" y2="2218.6052"/><line style="stroke:#222222;stroke-width:2.5;" x1="274.1872" x2="261.8128" y1="2206.2308" y2="2218.6052"/><line style="stroke:#181818;stroke-width:1.0;" x1="268" x2="268" y1="152.6367" y2="181.1523"/><polygon fill="#181818" points="264,171.1523,268,181.1523,272,171.1523,268,175.1523" style="stroke:#181818;stroke-width:1.0;"/><line style="stroke:#181818;stroke-width:1.0;" x1="268" x2="268" y1="94.2656" y2="118.668"/><polygon fill="#181818" points="264,108.668,268,118.668,272,108.668,268,112.668" style="stroke:#181818;stroke-width:1.0;"/><line style="stroke:#181818;stroke-width:1.0;" x1="439.5" x2="451.5" y1="82.2656" y2="82.2656"/><polygon fill="#181818" points="447.5,151.1523,451.5,161.1523,455.5,151.1523,451.5,155.1523" style="stroke:#181818;stroke-width:1.0;"/><line style="stroke:#181818;stroke-width:1.0;" x1="451.5" x2="451.5" y1="82.2656" y2="225.1523"/><line style="stroke:#181818;stroke-width:1.0;" x1="451.5" x2="268" y1="225.1523" y2="225.1523"/><line style="stroke:#181818;stroke-width:1.0;" x1="268" x2="268" y1="225.1523" y2="245.1523"/><polygon fill="#181818" points="264,235.1523,268,245.1523,272,235.1523,268,239.1523" style="stroke:#181818;stroke-width:1.0;"/><line style="stroke:#181818;stroke-width:1.0;" x1="268" x2="268" y1="40.1328" y2="70.2656"/><polygon fill="#181818" points="264,60.2656,268,70.2656,272,60.2656,268,64.2656" style="stroke:#181818;stroke-width:1.0;"/><line style="stroke:#181818;stroke-width:1.0;" x1="268" x2="268" y1="279.1211" y2="299.1211"/><polygon fill="#181818" points="264,289.1211,268,299.1211,272,289.1211,268,293.1211" style="stroke:#181818;stroke-width:1.0;"/><line style="stroke:#181818;stroke-width:1.0;" x1="268" x2="268" y1="333.0898" y2="353.0898"/><polygon fill="#181818" points="264,343.0898,268,353.0898,272,343.0898,268,347.0898" style="stroke:#181818;stroke-width:1.0;"/><line style="stroke:#181818;stroke-width:1.0;" x1="268" x2="268" y1="387.0586" y2="407.0586"/><polygon fill="#181818" points="264,397.0586,268,407.0586,272,397.0586,268,401.0586" style="stroke:#181818;stroke-width:1.0;"/><line style="stroke:#181818;stroke-width:1.0;" x1="268" x2="268" y1="459.625" y2="482.1914"/><polygon fill="#181818" points="264,472.1914,268,482.1914,272,472.1914,268,476.1914" style="stroke:#181818;stroke-width:1.0;"/><line style="stroke:#181818;stroke-width:1.0;" x1="268" x2="268" y1="530.1289" y2="550.1289"/><polygon fill="#181818" points="264,540.1289,268,550.1289,272,540.1289,268,544.1289" style="stroke:#181818;stroke-width:1.0;"/><line style="stroke:#181818;stroke-width:1.0;" x1="268" x2="268" y1="634.6953" y2="657.2617"/><polygon fill="#181818" points="264,647.2617,268,657.2617,272,647.2617,268,651.2617" style="stroke:#181818;stroke-width:1.0;"/><line style="stroke:#181818;stroke-width:1.0;" x1="268" x2="268" y1="705.1992" y2="725.1992"/><polygon fill="#181818" points="264,715.1992,268,725.1992,272,715.1992,268,719.1992" style="stroke:#181818;stroke-width:1.0;"/><line style="stroke:#181818;stroke-width:1.0;" x1="268" x2="268" y1="817.332" y2="847.4648"/><polygon fill="#181818" points="264,837.4648,268,847.4648,272,837.4648,268,841.4648" style="stroke:#181818;stroke-width:1.0;"/><line style="stroke:#181818;stroke-width:1.0;" x1="268" x2="268" y1="881.4336" y2="901.4336"/><polygon fill="#181818" points="264,891.4336,268,901.4336,272,891.4336,268,895.4336" style="stroke:#181818;stroke-width:1.0;"/><line style="stroke:#181818;stroke-width:1.0;" x1="268" x2="268" y1="993.5664" y2="1023.6992"/><polygon fill="#181818" points="264,1013.6992,268,1023.6992,272,1013.6992,268,1017.6992" style="stroke:#181818;stroke-width:1.0;"/><line style="stroke:#181818;stroke-width:1.0;" x1="268" x2="268" y1="1057.668" y2="1077.668"/><polygon fill="#181818" points="264,1067.668,268,1077.668,272,1067.668,268,1071.668" style="stroke:#181818;stroke-width:1.0;"/><line style="stroke:#181818;stroke-width:1.0;" x1="268" x2="268" y1="1162.2344" y2="1184.8008"/><polygon fill="#181818" points="264,1174.8008,268,1184.8008,272,1174.8008,268,1178.8008" style="stroke:#181818;stroke-width:1.0;"/><line style="stroke:#181818;stroke-width:1.0;" x1="268" x2="268" y1="1218.7695" y2="1238.7695"/><polygon fill="#181818" points="264,1228.7695,268,1238.7695,272,1228.7695,268,1232.7695" style="stroke:#181818;stroke-width:1.0;"/><line style="stroke:#181818;stroke-width:1.0;" x1="268" x2="268" y1="1323.3359" y2="1345.9023"/><polygon fill="#181818" points="264,1335.9023,268,1345.9023,272,1335.9023,268,1339.9023" style="stroke:#181818;stroke-width:1.0;"/><line style="stroke:#181818;stroke-width:1.0;" x1="268" x2="268" y1="1379.8711" y2="1399.8711"/><polygon fill="#181818" points="264,1389.8711,268,1399.8711,272,1389.8711,268,1393.8711" style="stroke:#181818;stroke-width:1.0;"/><line style="stroke:#181818;stroke-width:1.0;" x1="268" x2="268" y1="1484.4375" y2="1507.0039"/><polygon fill="#181818" points="264,1497.0039,268,1507.0039,272,1497.0039,268,1501.0039" style="stroke:#181818;stroke-width:1.0;"/><line style="stroke:#181818;stroke-width:1.0;" x1="268" x2="268" y1="1554.9414" y2="1574.9414"/><polygon fill="#181818" points="264,1564.9414,268,1574.9414,272,1564.9414,268,1568.9414" style="stroke:#181818;stroke-width:1.0;"/><line style="stroke:#181818;stroke-width:1.0;" x1="268" x2="268" y1="1608.9102" y2="1628.9102"/><polygon fill="#181818" points="264,1618.9102,268,1628.9102,272,1618.9102,268,1622.9102" style="stroke:#181818;stroke-width:1.0;"/><line style="stroke:#181818;stroke-width:1.0;" x1="268" x2="268" y1="1721.043" y2="1751.1758"/><polygon fill="#181818" points="264,1741.1758,268,1751.1758,272,1741.1758,268,1745.1758" style="stroke:#181818;stroke-width:1.0;"/><line style="stroke:#181818;stroke-width:1.0;" x1="268" x2="268" y1="1799.1133" y2="1819.1133"/><polygon fill="#181818" points="264,1809.1133,268,1819.1133,272,1809.1133,268,1813.1133" style="stroke:#181818;stroke-width:1.0;"/><line style="stroke:#181818;stroke-width:1.0;" x1="268" x2="268" y1="1911.2461" y2="1941.3789"/><polygon fill="#181818" points="264,1931.3789,268,1941.3789,272,1931.3789,268,1935.3789" style="stroke:#181818;stroke-width:1.0;"/><line style="stroke:#181818;stroke-width:1.0;" x1="268" x2="268" y1="1989.3164" y2="2009.3164"/><polygon fill="#181818" points="264,1999.3164,268,2009.3164,272,1999.3164,268,2003.3164" style="stroke:#181818;stroke-width:1.0;"/><line style="stroke:#181818;stroke-width:1.0;" x1="268" x2="268" y1="2093.8828" y2="2116.4492"/><polygon fill="#181818" points="264,2106.4492,268,2116.4492,272,2106.4492,268,2110.4492" style="stroke:#181818;stroke-width:1.0;"/><line style="stroke:#181818;stroke-width:1.0;" x1="268" x2="268" y1="2150.418" y2="2170.418"/><polygon fill="#181818" points="264,2160.418,268,2170.418,272,2160.418,268,2164.418" style="stroke:#181818;stroke-width:1.0;"/><!--MD5=[8468918400a2307ea436dffbeb82ff32]
@startuml
!pragma layout smetana
start
note right
constructor SuggestedFile(SFileoutputFile,
FileFormatfileFormat,intinitialCpt)
end note
if (outputFile.getName().endsWith(fileFormat.getFileSuffix())) then (yes) 
:throw new IllegalArgumentException();;
stop
endif 
:this.outputFile=outputFile;;
:this.fileFormat=fileFormat;;
:this.initialCpt=initialCpt;;
end
start
note right
SuggestedFilewithPreprocFormat()
end note
:return new SuggestedFile(outputFile,FileFormat.PREPROC,
initialCpt);;
stop
end
start
note right
StringtoString()
end note
:return outputFile.getPrintablePath()+"["+
initialCpt+"]";;
stop
end
start
note right
SuggestedFilefromOutputFile(SFileoutputFile,
FileFormatfileFormat)
end note
:return fromOutputFile(outputFile,fileFormat,0);;
stop
end
start
note right
SuggestedFilefromOutputFile(java.io.FileoutputFile,
FileFormatfileFormat)
end note
:return fromOutputFile(outputFile,fileFormat,0);;
stop
end
start
note right
SFilegetParentFile()
end note
:return outputFile.getParentFile();;
stop
end
start
note right
StringgetName()
end note
:return outputFile.getName();;
stop
end
start
note right
SFilegetFile(intcpt)
end note
:final StringnewName=fileFormat.changeName(outputFile.getName(),initialCpt+
cpt);;
:return outputFile.getParentFile().file(newName);;
stop
end
start
note right
SuggestedFilefromOutputFile(SFileoutputFile,
FileFormatfileFormat,intinitialCpt)
end note
:return new SuggestedFile(outputFile,fileFormat,
initialCpt);;
stop
end
start
note right
SuggestedFilefromOutputFile(java.io.FileoutputFile,
FileFormatfileFormat,intinitialCpt)
end note
:return new SuggestedFile(SFile.fromFile(outputFile),
fileFormat,initialCpt);;
stop
end
start
note right
SFilegetTmpFile()
end note
:return getParentFile().file(getName()+".tmp");;
stop
end
@enduml

PlantUML version 1.2022.7(Mon Aug 22 17:01:30 UTC 2022)
(GPL source distribution)
Java Runtime: OpenJDK Runtime Environment
JVM: OpenJDK 64-Bit Server VM
Default Encoding: UTF-8
Language: en
Country: null
--></g></svg>