<?xml version="1.0" encoding="UTF-8" standalone="no"?><svg xmlns="http://www.w3.org/2000/svg" xmlns:xlink="http://www.w3.org/1999/xlink" contentStyleType="text/css" height="3145px" preserveAspectRatio="none" style="width:343px;height:3145px;background:#FFFFFF;" version="1.1" viewBox="0 0 343 3145" width="343px" zoomAndPan="magnify"><defs/><g><path d="M160,10 L160,18.5664 L140,22.5664 L160,26.5664 L160,35.1328 A0,0 0 0 0 160,35.1328 L331,35.1328 A0,0 0 0 0 331,35.1328 L331,20 L321,10 L160,10 A0,0 0 0 0 160,10 " fill="#FEFFDD" style="stroke:#181818;stroke-width:0.5;"/><path d="M321,10 L321,20 L331,20 L321,10 " fill="#FEFFDD" style="stroke:#181818;stroke-width:0.5;"/><text fill="#000000" font-family="sans-serif" font-size="13" lengthAdjust="spacing" textLength="150" x="166" y="27.0669">SNamegetStyleName()</text><ellipse cx="130" cy="22.5664" fill="#222222" rx="10" ry="10" style="stroke:#222222;stroke-width:1.0;"/><rect fill="#F1F1F1" height="33.9688" rx="12.5" ry="12.5" style="stroke:#181818;stroke-width:0.5;" width="229" x="15.5" y="103.5352"/><text fill="#000000" font-family="sans-serif" font-size="12" lengthAdjust="spacing" textLength="209" x="25.5" y="124.6738">return SName.sequenceDiagram;</text><ellipse cx="130" cy="177.0195" fill="none" rx="11" ry="11" style="stroke:#222222;stroke-width:1.0;"/><ellipse cx="130" cy="177.0195" fill="#222222" rx="6" ry="6" style="stroke:#111111;stroke-width:1.0;"/><polygon fill="#F1F1F1" points="79.5,55.1328,180.5,55.1328,192.5,67.1328,180.5,79.1328,79.5,79.1328,67.5,67.1328,79.5,55.1328" style="stroke:#181818;stroke-width:0.5;"/><text fill="#000000" font-family="sans-serif" font-size="11" lengthAdjust="spacing" textLength="20" x="134" y="89.3433">yes</text><text fill="#000000" font-family="sans-serif" font-size="11" lengthAdjust="spacing" textLength="101" x="79.5" y="70.9409">this==SEQUENCE</text><rect fill="#F1F1F1" height="33.9688" rx="12.5" ry="12.5" style="stroke:#181818;stroke-width:0.5;" width="200" x="30" y="278.4219"/><text fill="#000000" font-family="sans-serif" font-size="12" lengthAdjust="spacing" textLength="180" x="40" y="299.5605">return SName.stateDiagram;</text><ellipse cx="130" cy="351.9063" fill="none" rx="11" ry="11" style="stroke:#222222;stroke-width:1.0;"/><ellipse cx="130" cy="351.9063" fill="#222222" rx="6" ry="6" style="stroke:#111111;stroke-width:1.0;"/><polygon fill="#F1F1F1" points="92.5,230.0195,167.5,230.0195,179.5,242.0195,167.5,254.0195,92.5,254.0195,80.5,242.0195,92.5,230.0195" style="stroke:#181818;stroke-width:0.5;"/><text fill="#000000" font-family="sans-serif" font-size="11" lengthAdjust="spacing" textLength="20" x="134" y="264.23">yes</text><text fill="#000000" font-family="sans-serif" font-size="11" lengthAdjust="spacing" textLength="75" x="92.5" y="245.8276">this==STATE</text><rect fill="#F1F1F1" height="33.9688" rx="12.5" ry="12.5" style="stroke:#181818;stroke-width:0.5;" width="199" x="30.5" y="453.3086"/><text fill="#000000" font-family="sans-serif" font-size="12" lengthAdjust="spacing" textLength="179" x="40.5" y="474.4473">return SName.classDiagram;</text><ellipse cx="130" cy="526.793" fill="none" rx="11" ry="11" style="stroke:#222222;stroke-width:1.0;"/><ellipse cx="130" cy="526.793" fill="#222222" rx="6" ry="6" style="stroke:#111111;stroke-width:1.0;"/><polygon fill="#F1F1F1" points="92,404.9063,168,404.9063,180,416.9063,168,428.9063,92,428.9063,80,416.9063,92,404.9063" style="stroke:#181818;stroke-width:0.5;"/><text fill="#000000" font-family="sans-serif" font-size="11" lengthAdjust="spacing" textLength="20" x="134" y="439.1167">yes</text><text fill="#000000" font-family="sans-serif" font-size="11" lengthAdjust="spacing" textLength="76" x="92" y="420.7144">this==CLASS</text><rect fill="#F1F1F1" height="33.9688" rx="12.5" ry="12.5" style="stroke:#181818;stroke-width:0.5;" width="206" x="27" y="628.1953"/><text fill="#000000" font-family="sans-serif" font-size="12" lengthAdjust="spacing" textLength="186" x="37" y="649.334">return SName.objectDiagram;</text><ellipse cx="130" cy="701.6797" fill="none" rx="11" ry="11" style="stroke:#222222;stroke-width:1.0;"/><ellipse cx="130" cy="701.6797" fill="#222222" rx="6" ry="6" style="stroke:#111111;stroke-width:1.0;"/><polygon fill="#F1F1F1" points="89.5,579.793,170.5,579.793,182.5,591.793,170.5,603.793,89.5,603.793,77.5,591.793,89.5,579.793" style="stroke:#181818;stroke-width:0.5;"/><text fill="#000000" font-family="sans-serif" font-size="11" lengthAdjust="spacing" textLength="20" x="134" y="614.0034">yes</text><text fill="#000000" font-family="sans-serif" font-size="11" lengthAdjust="spacing" textLength="81" x="89.5" y="595.6011">this==OBJECT</text><rect fill="#F1F1F1" height="33.9688" rx="12.5" ry="12.5" style="stroke:#181818;stroke-width:0.5;" width="210" x="25" y="803.082"/><text fill="#000000" font-family="sans-serif" font-size="12" lengthAdjust="spacing" textLength="190" x="35" y="824.2207">return SName.activityDiagram;</text><ellipse cx="130" cy="876.5664" fill="none" rx="11" ry="11" style="stroke:#222222;stroke-width:1.0;"/><ellipse cx="130" cy="876.5664" fill="#222222" rx="6" ry="6" style="stroke:#111111;stroke-width:1.0;"/><polygon fill="#F1F1F1" points="86,754.6797,174,754.6797,186,766.6797,174,778.6797,86,778.6797,74,766.6797,86,754.6797" style="stroke:#181818;stroke-width:0.5;"/><text fill="#000000" font-family="sans-serif" font-size="11" lengthAdjust="spacing" textLength="20" x="134" y="788.8901">yes</text><text fill="#000000" font-family="sans-serif" font-size="11" lengthAdjust="spacing" textLength="88" x="86" y="770.4878">this==ACTIVITY</text><rect fill="#F1F1F1" height="33.9688" rx="12.5" ry="12.5" style="stroke:#181818;stroke-width:0.5;" width="238" x="11" y="977.9688"/><text fill="#000000" font-family="sans-serif" font-size="12" lengthAdjust="spacing" textLength="218" x="21" y="999.1074">return SName.componentDiagram;</text><ellipse cx="130" cy="1051.4531" fill="none" rx="11" ry="11" style="stroke:#222222;stroke-width:1.0;"/><ellipse cx="130" cy="1051.4531" fill="#222222" rx="6" ry="6" style="stroke:#111111;stroke-width:1.0;"/><polygon fill="#F1F1F1" points="73,929.5664,187,929.5664,199,941.5664,187,953.5664,73,953.5664,61,941.5664,73,929.5664" style="stroke:#181818;stroke-width:0.5;"/><text fill="#000000" font-family="sans-serif" font-size="11" lengthAdjust="spacing" textLength="20" x="134" y="963.7769">yes</text><text fill="#000000" font-family="sans-serif" font-size="11" lengthAdjust="spacing" textLength="114" x="73" y="945.3745">this==DESCRIPTION</text><rect fill="#F1F1F1" height="33.9688" rx="12.5" ry="12.5" style="stroke:#181818;stroke-width:0.5;" width="238" x="11" y="1152.8555"/><text fill="#000000" font-family="sans-serif" font-size="12" lengthAdjust="spacing" textLength="218" x="21" y="1173.9941">return SName.componentDiagram;</text><ellipse cx="130" cy="1226.3398" fill="none" rx="11" ry="11" style="stroke:#222222;stroke-width:1.0;"/><ellipse cx="130" cy="1226.3398" fill="#222222" rx="6" ry="6" style="stroke:#111111;stroke-width:1.0;"/><polygon fill="#F1F1F1" points="77,1104.4531,183,1104.4531,195,1116.4531,183,1128.4531,77,1128.4531,65,1116.4531,77,1104.4531" style="stroke:#181818;stroke-width:0.5;"/><text fill="#000000" font-family="sans-serif" font-size="11" lengthAdjust="spacing" textLength="20" x="134" y="1138.6636">yes</text><text fill="#000000" font-family="sans-serif" font-size="11" lengthAdjust="spacing" textLength="106" x="77" y="1120.2612">this==COMPOSITE</text><rect fill="#F1F1F1" height="33.9688" rx="12.5" ry="12.5" style="stroke:#181818;stroke-width:0.5;" width="224" x="18" y="1327.7422"/><text fill="#000000" font-family="sans-serif" font-size="12" lengthAdjust="spacing" textLength="204" x="28" y="1348.8809">return SName.mindmapDiagram;</text><ellipse cx="130" cy="1401.2266" fill="none" rx="11" ry="11" style="stroke:#222222;stroke-width:1.0;"/><ellipse cx="130" cy="1401.2266" fill="#222222" rx="6" ry="6" style="stroke:#111111;stroke-width:1.0;"/><polygon fill="#F1F1F1" points="85,1279.3398,175,1279.3398,187,1291.3398,175,1303.3398,85,1303.3398,73,1291.3398,85,1279.3398" style="stroke:#181818;stroke-width:0.5;"/><text fill="#000000" font-family="sans-serif" font-size="11" lengthAdjust="spacing" textLength="20" x="134" y="1313.5503">yes</text><text fill="#000000" font-family="sans-serif" font-size="11" lengthAdjust="spacing" textLength="90" x="85" y="1295.1479">this==MINDMAP</text><rect fill="#F1F1F1" height="33.9688" rx="12.5" ry="12.5" style="stroke:#181818;stroke-width:0.5;" width="191" x="34.5" y="1502.6289"/><text fill="#000000" font-family="sans-serif" font-size="12" lengthAdjust="spacing" textLength="171" x="44.5" y="1523.7676">return SName.wbsDiagram;</text><ellipse cx="130" cy="1576.1133" fill="none" rx="11" ry="11" style="stroke:#222222;stroke-width:1.0;"/><ellipse cx="130" cy="1576.1133" fill="#222222" rx="6" ry="6" style="stroke:#111111;stroke-width:1.0;"/><polygon fill="#F1F1F1" points="98,1454.2266,162,1454.2266,174,1466.2266,162,1478.2266,98,1478.2266,86,1466.2266,98,1454.2266" style="stroke:#181818;stroke-width:0.5;"/><text fill="#000000" font-family="sans-serif" font-size="11" lengthAdjust="spacing" textLength="20" x="134" y="1488.437">yes</text><text fill="#000000" font-family="sans-serif" font-size="11" lengthAdjust="spacing" textLength="64" x="98" y="1470.0347">this==WBS</text><rect fill="#F1F1F1" height="33.9688" rx="12.5" ry="12.5" style="stroke:#181818;stroke-width:0.5;" width="201" x="29.5" y="1677.5156"/><text fill="#000000" font-family="sans-serif" font-size="12" lengthAdjust="spacing" textLength="181" x="39.5" y="1698.6543">return SName.ganttDiagram;</text><ellipse cx="130" cy="1751" fill="none" rx="11" ry="11" style="stroke:#222222;stroke-width:1.0;"/><ellipse cx="130" cy="1751" fill="#222222" rx="6" ry="6" style="stroke:#111111;stroke-width:1.0;"/><polygon fill="#F1F1F1" points="91.5,1629.1133,168.5,1629.1133,180.5,1641.1133,168.5,1653.1133,91.5,1653.1133,79.5,1641.1133,91.5,1629.1133" style="stroke:#181818;stroke-width:0.5;"/><text fill="#000000" font-family="sans-serif" font-size="11" lengthAdjust="spacing" textLength="20" x="134" y="1663.3237">yes</text><text fill="#000000" font-family="sans-serif" font-size="11" lengthAdjust="spacing" textLength="77" x="91.5" y="1644.9214">this==GANTT</text><rect fill="#F1F1F1" height="33.9688" rx="12.5" ry="12.5" style="stroke:#181818;stroke-width:0.5;" width="190" x="35" y="1852.4023"/><text fill="#000000" font-family="sans-serif" font-size="12" lengthAdjust="spacing" textLength="170" x="45" y="1873.541">return SName.saltDiagram;</text><ellipse cx="130" cy="1925.8867" fill="none" rx="11" ry="11" style="stroke:#222222;stroke-width:1.0;"/><ellipse cx="130" cy="1925.8867" fill="#222222" rx="6" ry="6" style="stroke:#111111;stroke-width:1.0;"/><polygon fill="#F1F1F1" points="96.5,1804,163.5,1804,175.5,1816,163.5,1828,96.5,1828,84.5,1816,96.5,1804" style="stroke:#181818;stroke-width:0.5;"/><text fill="#000000" font-family="sans-serif" font-size="11" lengthAdjust="spacing" textLength="20" x="134" y="1838.2104">yes</text><text fill="#000000" font-family="sans-serif" font-size="11" lengthAdjust="spacing" textLength="67" x="96.5" y="1819.8081">this==SALT</text><rect fill="#F1F1F1" height="33.9688" rx="12.5" ry="12.5" style="stroke:#181818;stroke-width:0.5;" width="195" x="32.5" y="2027.2891"/><text fill="#000000" font-family="sans-serif" font-size="12" lengthAdjust="spacing" textLength="175" x="42.5" y="2048.4277">return SName.yamlDiagram;</text><ellipse cx="130" cy="2100.7734" fill="none" rx="11" ry="11" style="stroke:#222222;stroke-width:1.0;"/><ellipse cx="130" cy="2100.7734" fill="#222222" rx="6" ry="6" style="stroke:#111111;stroke-width:1.0;"/><polygon fill="#F1F1F1" points="96,1978.8867,164,1978.8867,176,1990.8867,164,2002.8867,96,2002.8867,84,1990.8867,96,1978.8867" style="stroke:#181818;stroke-width:0.5;"/><text fill="#000000" font-family="sans-serif" font-size="11" lengthAdjust="spacing" textLength="20" x="134" y="2013.0972">yes</text><text fill="#000000" font-family="sans-serif" font-size="11" lengthAdjust="spacing" textLength="68" x="96" y="1994.6948">this==YAML</text><rect fill="#F1F1F1" height="33.9688" rx="12.5" ry="12.5" style="stroke:#181818;stroke-width:0.5;" width="195" x="32.5" y="2202.1758"/><text fill="#000000" font-family="sans-serif" font-size="12" lengthAdjust="spacing" textLength="175" x="42.5" y="2223.3145">return SName.yamlDiagram;</text><ellipse cx="130" cy="2275.6602" fill="none" rx="11" ry="11" style="stroke:#222222;stroke-width:1.0;"/><ellipse cx="130" cy="2275.6602" fill="#222222" rx="6" ry="6" style="stroke:#111111;stroke-width:1.0;"/><polygon fill="#F1F1F1" points="99.5,2153.7734,160.5,2153.7734,172.5,2165.7734,160.5,2177.7734,99.5,2177.7734,87.5,2165.7734,99.5,2153.7734" style="stroke:#181818;stroke-width:0.5;"/><text fill="#000000" font-family="sans-serif" font-size="11" lengthAdjust="spacing" textLength="20" x="134" y="2187.9839">yes</text><text fill="#000000" font-family="sans-serif" font-size="11" lengthAdjust="spacing" textLength="61" x="99.5" y="2169.5815">this==HCL</text><rect fill="#F1F1F1" height="33.9688" rx="12.5" ry="12.5" style="stroke:#181818;stroke-width:0.5;" width="193" x="33.5" y="2377.0625"/><text fill="#000000" font-family="sans-serif" font-size="12" lengthAdjust="spacing" textLength="173" x="43.5" y="2398.2012">return SName.jsonDiagram;</text><ellipse cx="130" cy="2450.5469" fill="none" rx="11" ry="11" style="stroke:#222222;stroke-width:1.0;"/><ellipse cx="130" cy="2450.5469" fill="#222222" rx="6" ry="6" style="stroke:#111111;stroke-width:1.0;"/><polygon fill="#F1F1F1" points="96.5,2328.6602,163.5,2328.6602,175.5,2340.6602,163.5,2352.6602,96.5,2352.6602,84.5,2340.6602,96.5,2328.6602" style="stroke:#181818;stroke-width:0.5;"/><text fill="#000000" font-family="sans-serif" font-size="11" lengthAdjust="spacing" textLength="20" x="134" y="2362.8706">yes</text><text fill="#000000" font-family="sans-serif" font-size="11" lengthAdjust="spacing" textLength="67" x="96.5" y="2344.4683">this==JSON</text><rect fill="#F1F1F1" height="33.9688" rx="12.5" ry="12.5" style="stroke:#181818;stroke-width:0.5;" width="205" x="27.5" y="2551.9492"/><text fill="#000000" font-family="sans-serif" font-size="12" lengthAdjust="spacing" textLength="185" x="37.5" y="2573.0879">return SName.timingDiagram;</text><ellipse cx="130" cy="2625.4336" fill="none" rx="11" ry="11" style="stroke:#222222;stroke-width:1.0;"/><ellipse cx="130" cy="2625.4336" fill="#222222" rx="6" ry="6" style="stroke:#111111;stroke-width:1.0;"/><polygon fill="#F1F1F1" points="91,2503.5469,169,2503.5469,181,2515.5469,169,2527.5469,91,2527.5469,79,2515.5469,91,2503.5469" style="stroke:#181818;stroke-width:0.5;"/><text fill="#000000" font-family="sans-serif" font-size="11" lengthAdjust="spacing" textLength="20" x="134" y="2537.7573">yes</text><text fill="#000000" font-family="sans-serif" font-size="11" lengthAdjust="spacing" textLength="78" x="91" y="2519.355">this==TIMING</text><rect fill="#F1F1F1" height="33.9688" rx="12.5" ry="12.5" style="stroke:#181818;stroke-width:0.5;" width="211" x="24.5" y="2726.8359"/><text fill="#000000" font-family="sans-serif" font-size="12" lengthAdjust="spacing" textLength="191" x="34.5" y="2747.9746">return SName.nwdiagDiagram;</text><ellipse cx="130" cy="2800.3203" fill="none" rx="11" ry="11" style="stroke:#222222;stroke-width:1.0;"/><ellipse cx="130" cy="2800.3203" fill="#222222" rx="6" ry="6" style="stroke:#111111;stroke-width:1.0;"/><polygon fill="#F1F1F1" points="88.5,2678.4336,171.5,2678.4336,183.5,2690.4336,171.5,2702.4336,88.5,2702.4336,76.5,2690.4336,88.5,2678.4336" style="stroke:#181818;stroke-width:0.5;"/><text fill="#000000" font-family="sans-serif" font-size="11" lengthAdjust="spacing" textLength="20" x="134" y="2712.644">yes</text><text fill="#000000" font-family="sans-serif" font-size="11" lengthAdjust="spacing" textLength="83" x="88.5" y="2694.2417">this==NWDIAG</text><rect fill="#F1F1F1" height="33.9688" rx="12.5" ry="12.5" style="stroke:#181818;stroke-width:0.5;" width="143" x="58.5" y="2901.7227"/><text fill="#000000" font-family="sans-serif" font-size="12" lengthAdjust="spacing" textLength="123" x="68.5" y="2922.8613">return SName.ebnf;</text><ellipse cx="130" cy="2975.207" fill="none" rx="11" ry="11" style="stroke:#222222;stroke-width:1.0;"/><ellipse cx="130" cy="2975.207" fill="#222222" rx="6" ry="6" style="stroke:#111111;stroke-width:1.0;"/><polygon fill="#F1F1F1" points="96,2853.3203,164,2853.3203,176,2865.3203,164,2877.3203,96,2877.3203,84,2865.3203,96,2853.3203" style="stroke:#181818;stroke-width:0.5;"/><text fill="#000000" font-family="sans-serif" font-size="11" lengthAdjust="spacing" textLength="20" x="134" y="2887.5308">yes</text><text fill="#000000" font-family="sans-serif" font-size="11" lengthAdjust="spacing" textLength="68" x="96" y="2869.1284">this==EBNF</text><rect fill="#F1F1F1" height="33.9688" rx="12.5" ry="12.5" style="stroke:#181818;stroke-width:0.5;" width="210" x="25" y="3028.207"/><text fill="#000000" font-family="sans-serif" font-size="12" lengthAdjust="spacing" textLength="190" x="35" y="3049.3457">return SName.activityDiagram;</text><ellipse cx="130" cy="3093.1758" fill="none" rx="11" ry="11" style="stroke:#222222;stroke-width:1.0;"/><ellipse cx="130" cy="3093.1758" fill="#222222" rx="6" ry="6" style="stroke:#111111;stroke-width:1.0;"/><ellipse cx="130" cy="3124.1758" fill="none" rx="10" ry="10" style="stroke:#222222;stroke-width:1.5;"/><line style="stroke:#222222;stroke-width:2.5;" x1="123.8128" x2="136.1872" y1="3117.9886" y2="3130.363"/><line style="stroke:#222222;stroke-width:2.5;" x1="136.1872" x2="123.8128" y1="3117.9886" y2="3130.363"/><line style="stroke:#181818;stroke-width:1.0;" x1="130" x2="130" y1="137.5039" y2="166.0195"/><polygon fill="#181818" points="126,156.0195,130,166.0195,134,156.0195,130,160.0195" style="stroke:#181818;stroke-width:1.0;"/><line style="stroke:#181818;stroke-width:1.0;" x1="130" x2="130" y1="79.1328" y2="103.5352"/><polygon fill="#181818" points="126,93.5352,130,103.5352,134,93.5352,130,97.5352" style="stroke:#181818;stroke-width:1.0;"/><line style="stroke:#181818;stroke-width:1.0;" x1="192.5" x2="254.5" y1="67.1328" y2="67.1328"/><polygon fill="#181818" points="250.5,136.0195,254.5,146.0195,258.5,136.0195,254.5,140.0195" style="stroke:#181818;stroke-width:1.0;"/><line style="stroke:#181818;stroke-width:1.0;" x1="254.5" x2="254.5" y1="67.1328" y2="210.0195"/><line style="stroke:#181818;stroke-width:1.0;" x1="254.5" x2="130" y1="210.0195" y2="210.0195"/><line style="stroke:#181818;stroke-width:1.0;" x1="130" x2="130" y1="210.0195" y2="230.0195"/><polygon fill="#181818" points="126,220.0195,130,230.0195,134,220.0195,130,224.0195" style="stroke:#181818;stroke-width:1.0;"/><line style="stroke:#181818;stroke-width:1.0;" x1="130" x2="130" y1="32.5664" y2="55.1328"/><polygon fill="#181818" points="126,45.1328,130,55.1328,134,45.1328,130,49.1328" style="stroke:#181818;stroke-width:1.0;"/><line style="stroke:#181818;stroke-width:1.0;" x1="130" x2="130" y1="312.3906" y2="340.9063"/><polygon fill="#181818" points="126,330.9063,130,340.9063,134,330.9063,130,334.9063" style="stroke:#181818;stroke-width:1.0;"/><line style="stroke:#181818;stroke-width:1.0;" x1="130" x2="130" y1="254.0195" y2="278.4219"/><polygon fill="#181818" points="126,268.4219,130,278.4219,134,268.4219,130,272.4219" style="stroke:#181818;stroke-width:1.0;"/><line style="stroke:#181818;stroke-width:1.0;" x1="179.5" x2="240" y1="242.0195" y2="242.0195"/><polygon fill="#181818" points="236,310.9063,240,320.9063,244,310.9063,240,314.9063" style="stroke:#181818;stroke-width:1.0;"/><line style="stroke:#181818;stroke-width:1.0;" x1="240" x2="240" y1="242.0195" y2="384.9063"/><line style="stroke:#181818;stroke-width:1.0;" x1="240" x2="130" y1="384.9063" y2="384.9063"/><line style="stroke:#181818;stroke-width:1.0;" x1="130" x2="130" y1="384.9063" y2="404.9063"/><polygon fill="#181818" points="126,394.9063,130,404.9063,134,394.9063,130,398.9063" style="stroke:#181818;stroke-width:1.0;"/><line style="stroke:#181818;stroke-width:1.0;" x1="130" x2="130" y1="487.2773" y2="515.793"/><polygon fill="#181818" points="126,505.793,130,515.793,134,505.793,130,509.793" style="stroke:#181818;stroke-width:1.0;"/><line style="stroke:#181818;stroke-width:1.0;" x1="130" x2="130" y1="428.9063" y2="453.3086"/><polygon fill="#181818" points="126,443.3086,130,453.3086,134,443.3086,130,447.3086" style="stroke:#181818;stroke-width:1.0;"/><line style="stroke:#181818;stroke-width:1.0;" x1="180" x2="239.5" y1="416.9063" y2="416.9063"/><polygon fill="#181818" points="235.5,485.793,239.5,495.793,243.5,485.793,239.5,489.793" style="stroke:#181818;stroke-width:1.0;"/><line style="stroke:#181818;stroke-width:1.0;" x1="239.5" x2="239.5" y1="416.9063" y2="559.793"/><line style="stroke:#181818;stroke-width:1.0;" x1="239.5" x2="130" y1="559.793" y2="559.793"/><line style="stroke:#181818;stroke-width:1.0;" x1="130" x2="130" y1="559.793" y2="579.793"/><polygon fill="#181818" points="126,569.793,130,579.793,134,569.793,130,573.793" style="stroke:#181818;stroke-width:1.0;"/><line style="stroke:#181818;stroke-width:1.0;" x1="130" x2="130" y1="662.1641" y2="690.6797"/><polygon fill="#181818" points="126,680.6797,130,690.6797,134,680.6797,130,684.6797" style="stroke:#181818;stroke-width:1.0;"/><line style="stroke:#181818;stroke-width:1.0;" x1="130" x2="130" y1="603.793" y2="628.1953"/><polygon fill="#181818" points="126,618.1953,130,628.1953,134,618.1953,130,622.1953" style="stroke:#181818;stroke-width:1.0;"/><line style="stroke:#181818;stroke-width:1.0;" x1="182.5" x2="243" y1="591.793" y2="591.793"/><polygon fill="#181818" points="239,660.6797,243,670.6797,247,660.6797,243,664.6797" style="stroke:#181818;stroke-width:1.0;"/><line style="stroke:#181818;stroke-width:1.0;" x1="243" x2="243" y1="591.793" y2="734.6797"/><line style="stroke:#181818;stroke-width:1.0;" x1="243" x2="130" y1="734.6797" y2="734.6797"/><line style="stroke:#181818;stroke-width:1.0;" x1="130" x2="130" y1="734.6797" y2="754.6797"/><polygon fill="#181818" points="126,744.6797,130,754.6797,134,744.6797,130,748.6797" style="stroke:#181818;stroke-width:1.0;"/><line style="stroke:#181818;stroke-width:1.0;" x1="130" x2="130" y1="837.0508" y2="865.5664"/><polygon fill="#181818" points="126,855.5664,130,865.5664,134,855.5664,130,859.5664" style="stroke:#181818;stroke-width:1.0;"/><line style="stroke:#181818;stroke-width:1.0;" x1="130" x2="130" y1="778.6797" y2="803.082"/><polygon fill="#181818" points="126,793.082,130,803.082,134,793.082,130,797.082" style="stroke:#181818;stroke-width:1.0;"/><line style="stroke:#181818;stroke-width:1.0;" x1="186" x2="245" y1="766.6797" y2="766.6797"/><polygon fill="#181818" points="241,835.5664,245,845.5664,249,835.5664,245,839.5664" style="stroke:#181818;stroke-width:1.0;"/><line style="stroke:#181818;stroke-width:1.0;" x1="245" x2="245" y1="766.6797" y2="909.5664"/><line style="stroke:#181818;stroke-width:1.0;" x1="245" x2="130" y1="909.5664" y2="909.5664"/><line style="stroke:#181818;stroke-width:1.0;" x1="130" x2="130" y1="909.5664" y2="929.5664"/><polygon fill="#181818" points="126,919.5664,130,929.5664,134,919.5664,130,923.5664" style="stroke:#181818;stroke-width:1.0;"/><line style="stroke:#181818;stroke-width:1.0;" x1="130" x2="130" y1="1011.9375" y2="1040.4531"/><polygon fill="#181818" points="126,1030.4531,130,1040.4531,134,1030.4531,130,1034.4531" style="stroke:#181818;stroke-width:1.0;"/><line style="stroke:#181818;stroke-width:1.0;" x1="130" x2="130" y1="953.5664" y2="977.9688"/><polygon fill="#181818" points="126,967.9688,130,977.9688,134,967.9688,130,971.9688" style="stroke:#181818;stroke-width:1.0;"/><line style="stroke:#181818;stroke-width:1.0;" x1="199" x2="259" y1="941.5664" y2="941.5664"/><polygon fill="#181818" points="255,1010.4531,259,1020.4531,263,1010.4531,259,1014.4531" style="stroke:#181818;stroke-width:1.0;"/><line style="stroke:#181818;stroke-width:1.0;" x1="259" x2="259" y1="941.5664" y2="1084.4531"/><line style="stroke:#181818;stroke-width:1.0;" x1="259" x2="130" y1="1084.4531" y2="1084.4531"/><line style="stroke:#181818;stroke-width:1.0;" x1="130" x2="130" y1="1084.4531" y2="1104.4531"/><polygon fill="#181818" points="126,1094.4531,130,1104.4531,134,1094.4531,130,1098.4531" style="stroke:#181818;stroke-width:1.0;"/><line style="stroke:#181818;stroke-width:1.0;" x1="130" x2="130" y1="1186.8242" y2="1215.3398"/><polygon fill="#181818" points="126,1205.3398,130,1215.3398,134,1205.3398,130,1209.3398" style="stroke:#181818;stroke-width:1.0;"/><line style="stroke:#181818;stroke-width:1.0;" x1="130" x2="130" y1="1128.4531" y2="1152.8555"/><polygon fill="#181818" points="126,1142.8555,130,1152.8555,134,1142.8555,130,1146.8555" style="stroke:#181818;stroke-width:1.0;"/><line style="stroke:#181818;stroke-width:1.0;" x1="195" x2="259" y1="1116.4531" y2="1116.4531"/><polygon fill="#181818" points="255,1185.3398,259,1195.3398,263,1185.3398,259,1189.3398" style="stroke:#181818;stroke-width:1.0;"/><line style="stroke:#181818;stroke-width:1.0;" x1="259" x2="259" y1="1116.4531" y2="1259.3398"/><line style="stroke:#181818;stroke-width:1.0;" x1="259" x2="130" y1="1259.3398" y2="1259.3398"/><line style="stroke:#181818;stroke-width:1.0;" x1="130" x2="130" y1="1259.3398" y2="1279.3398"/><polygon fill="#181818" points="126,1269.3398,130,1279.3398,134,1269.3398,130,1273.3398" style="stroke:#181818;stroke-width:1.0;"/><line style="stroke:#181818;stroke-width:1.0;" x1="130" x2="130" y1="1361.7109" y2="1390.2266"/><polygon fill="#181818" points="126,1380.2266,130,1390.2266,134,1380.2266,130,1384.2266" style="stroke:#181818;stroke-width:1.0;"/><line style="stroke:#181818;stroke-width:1.0;" x1="130" x2="130" y1="1303.3398" y2="1327.7422"/><polygon fill="#181818" points="126,1317.7422,130,1327.7422,134,1317.7422,130,1321.7422" style="stroke:#181818;stroke-width:1.0;"/><line style="stroke:#181818;stroke-width:1.0;" x1="187" x2="252" y1="1291.3398" y2="1291.3398"/><polygon fill="#181818" points="248,1360.2266,252,1370.2266,256,1360.2266,252,1364.2266" style="stroke:#181818;stroke-width:1.0;"/><line style="stroke:#181818;stroke-width:1.0;" x1="252" x2="252" y1="1291.3398" y2="1434.2266"/><line style="stroke:#181818;stroke-width:1.0;" x1="252" x2="130" y1="1434.2266" y2="1434.2266"/><line style="stroke:#181818;stroke-width:1.0;" x1="130" x2="130" y1="1434.2266" y2="1454.2266"/><polygon fill="#181818" points="126,1444.2266,130,1454.2266,134,1444.2266,130,1448.2266" style="stroke:#181818;stroke-width:1.0;"/><line style="stroke:#181818;stroke-width:1.0;" x1="130" x2="130" y1="1536.5977" y2="1565.1133"/><polygon fill="#181818" points="126,1555.1133,130,1565.1133,134,1555.1133,130,1559.1133" style="stroke:#181818;stroke-width:1.0;"/><line style="stroke:#181818;stroke-width:1.0;" x1="130" x2="130" y1="1478.2266" y2="1502.6289"/><polygon fill="#181818" points="126,1492.6289,130,1502.6289,134,1492.6289,130,1496.6289" style="stroke:#181818;stroke-width:1.0;"/><line style="stroke:#181818;stroke-width:1.0;" x1="174" x2="235.5" y1="1466.2266" y2="1466.2266"/><polygon fill="#181818" points="231.5,1535.1133,235.5,1545.1133,239.5,1535.1133,235.5,1539.1133" style="stroke:#181818;stroke-width:1.0;"/><line style="stroke:#181818;stroke-width:1.0;" x1="235.5" x2="235.5" y1="1466.2266" y2="1609.1133"/><line style="stroke:#181818;stroke-width:1.0;" x1="235.5" x2="130" y1="1609.1133" y2="1609.1133"/><line style="stroke:#181818;stroke-width:1.0;" x1="130" x2="130" y1="1609.1133" y2="1629.1133"/><polygon fill="#181818" points="126,1619.1133,130,1629.1133,134,1619.1133,130,1623.1133" style="stroke:#181818;stroke-width:1.0;"/><line style="stroke:#181818;stroke-width:1.0;" x1="130" x2="130" y1="1711.4844" y2="1740"/><polygon fill="#181818" points="126,1730,130,1740,134,1730,130,1734" style="stroke:#181818;stroke-width:1.0;"/><line style="stroke:#181818;stroke-width:1.0;" x1="130" x2="130" y1="1653.1133" y2="1677.5156"/><polygon fill="#181818" points="126,1667.5156,130,1677.5156,134,1667.5156,130,1671.5156" style="stroke:#181818;stroke-width:1.0;"/><line style="stroke:#181818;stroke-width:1.0;" x1="180.5" x2="240.5" y1="1641.1133" y2="1641.1133"/><polygon fill="#181818" points="236.5,1710,240.5,1720,244.5,1710,240.5,1714" style="stroke:#181818;stroke-width:1.0;"/><line style="stroke:#181818;stroke-width:1.0;" x1="240.5" x2="240.5" y1="1641.1133" y2="1784"/><line style="stroke:#181818;stroke-width:1.0;" x1="240.5" x2="130" y1="1784" y2="1784"/><line style="stroke:#181818;stroke-width:1.0;" x1="130" x2="130" y1="1784" y2="1804"/><polygon fill="#181818" points="126,1794,130,1804,134,1794,130,1798" style="stroke:#181818;stroke-width:1.0;"/><line style="stroke:#181818;stroke-width:1.0;" x1="130" x2="130" y1="1886.3711" y2="1914.8867"/><polygon fill="#181818" points="126,1904.8867,130,1914.8867,134,1904.8867,130,1908.8867" style="stroke:#181818;stroke-width:1.0;"/><line style="stroke:#181818;stroke-width:1.0;" x1="130" x2="130" y1="1828" y2="1852.4023"/><polygon fill="#181818" points="126,1842.4023,130,1852.4023,134,1842.4023,130,1846.4023" style="stroke:#181818;stroke-width:1.0;"/><line style="stroke:#181818;stroke-width:1.0;" x1="175.5" x2="235" y1="1816" y2="1816"/><polygon fill="#181818" points="231,1884.8867,235,1894.8867,239,1884.8867,235,1888.8867" style="stroke:#181818;stroke-width:1.0;"/><line style="stroke:#181818;stroke-width:1.0;" x1="235" x2="235" y1="1816" y2="1958.8867"/><line style="stroke:#181818;stroke-width:1.0;" x1="235" x2="130" y1="1958.8867" y2="1958.8867"/><line style="stroke:#181818;stroke-width:1.0;" x1="130" x2="130" y1="1958.8867" y2="1978.8867"/><polygon fill="#181818" points="126,1968.8867,130,1978.8867,134,1968.8867,130,1972.8867" style="stroke:#181818;stroke-width:1.0;"/><line style="stroke:#181818;stroke-width:1.0;" x1="130" x2="130" y1="2061.2578" y2="2089.7734"/><polygon fill="#181818" points="126,2079.7734,130,2089.7734,134,2079.7734,130,2083.7734" style="stroke:#181818;stroke-width:1.0;"/><line style="stroke:#181818;stroke-width:1.0;" x1="130" x2="130" y1="2002.8867" y2="2027.2891"/><polygon fill="#181818" points="126,2017.2891,130,2027.2891,134,2017.2891,130,2021.2891" style="stroke:#181818;stroke-width:1.0;"/><line style="stroke:#181818;stroke-width:1.0;" x1="176" x2="237.5" y1="1990.8867" y2="1990.8867"/><polygon fill="#181818" points="233.5,2059.7734,237.5,2069.7734,241.5,2059.7734,237.5,2063.7734" style="stroke:#181818;stroke-width:1.0;"/><line style="stroke:#181818;stroke-width:1.0;" x1="237.5" x2="237.5" y1="1990.8867" y2="2133.7734"/><line style="stroke:#181818;stroke-width:1.0;" x1="237.5" x2="130" y1="2133.7734" y2="2133.7734"/><line style="stroke:#181818;stroke-width:1.0;" x1="130" x2="130" y1="2133.7734" y2="2153.7734"/><polygon fill="#181818" points="126,2143.7734,130,2153.7734,134,2143.7734,130,2147.7734" style="stroke:#181818;stroke-width:1.0;"/><line style="stroke:#181818;stroke-width:1.0;" x1="130" x2="130" y1="2236.1445" y2="2264.6602"/><polygon fill="#181818" points="126,2254.6602,130,2264.6602,134,2254.6602,130,2258.6602" style="stroke:#181818;stroke-width:1.0;"/><line style="stroke:#181818;stroke-width:1.0;" x1="130" x2="130" y1="2177.7734" y2="2202.1758"/><polygon fill="#181818" points="126,2192.1758,130,2202.1758,134,2192.1758,130,2196.1758" style="stroke:#181818;stroke-width:1.0;"/><line style="stroke:#181818;stroke-width:1.0;" x1="172.5" x2="237.5" y1="2165.7734" y2="2165.7734"/><polygon fill="#181818" points="233.5,2234.6602,237.5,2244.6602,241.5,2234.6602,237.5,2238.6602" style="stroke:#181818;stroke-width:1.0;"/><line style="stroke:#181818;stroke-width:1.0;" x1="237.5" x2="237.5" y1="2165.7734" y2="2308.6602"/><line style="stroke:#181818;stroke-width:1.0;" x1="237.5" x2="130" y1="2308.6602" y2="2308.6602"/><line style="stroke:#181818;stroke-width:1.0;" x1="130" x2="130" y1="2308.6602" y2="2328.6602"/><polygon fill="#181818" points="126,2318.6602,130,2328.6602,134,2318.6602,130,2322.6602" style="stroke:#181818;stroke-width:1.0;"/><line style="stroke:#181818;stroke-width:1.0;" x1="130" x2="130" y1="2411.0313" y2="2439.5469"/><polygon fill="#181818" points="126,2429.5469,130,2439.5469,134,2429.5469,130,2433.5469" style="stroke:#181818;stroke-width:1.0;"/><line style="stroke:#181818;stroke-width:1.0;" x1="130" x2="130" y1="2352.6602" y2="2377.0625"/><polygon fill="#181818" points="126,2367.0625,130,2377.0625,134,2367.0625,130,2371.0625" style="stroke:#181818;stroke-width:1.0;"/><line style="stroke:#181818;stroke-width:1.0;" x1="175.5" x2="236.5" y1="2340.6602" y2="2340.6602"/><polygon fill="#181818" points="232.5,2409.5469,236.5,2419.5469,240.5,2409.5469,236.5,2413.5469" style="stroke:#181818;stroke-width:1.0;"/><line style="stroke:#181818;stroke-width:1.0;" x1="236.5" x2="236.5" y1="2340.6602" y2="2483.5469"/><line style="stroke:#181818;stroke-width:1.0;" x1="236.5" x2="130" y1="2483.5469" y2="2483.5469"/><line style="stroke:#181818;stroke-width:1.0;" x1="130" x2="130" y1="2483.5469" y2="2503.5469"/><polygon fill="#181818" points="126,2493.5469,130,2503.5469,134,2493.5469,130,2497.5469" style="stroke:#181818;stroke-width:1.0;"/><line style="stroke:#181818;stroke-width:1.0;" x1="130" x2="130" y1="2585.918" y2="2614.4336"/><polygon fill="#181818" points="126,2604.4336,130,2614.4336,134,2604.4336,130,2608.4336" style="stroke:#181818;stroke-width:1.0;"/><line style="stroke:#181818;stroke-width:1.0;" x1="130" x2="130" y1="2527.5469" y2="2551.9492"/><polygon fill="#181818" points="126,2541.9492,130,2551.9492,134,2541.9492,130,2545.9492" style="stroke:#181818;stroke-width:1.0;"/><line style="stroke:#181818;stroke-width:1.0;" x1="181" x2="242.5" y1="2515.5469" y2="2515.5469"/><polygon fill="#181818" points="238.5,2584.4336,242.5,2594.4336,246.5,2584.4336,242.5,2588.4336" style="stroke:#181818;stroke-width:1.0;"/><line style="stroke:#181818;stroke-width:1.0;" x1="242.5" x2="242.5" y1="2515.5469" y2="2658.4336"/><line style="stroke:#181818;stroke-width:1.0;" x1="242.5" x2="130" y1="2658.4336" y2="2658.4336"/><line style="stroke:#181818;stroke-width:1.0;" x1="130" x2="130" y1="2658.4336" y2="2678.4336"/><polygon fill="#181818" points="126,2668.4336,130,2678.4336,134,2668.4336,130,2672.4336" style="stroke:#181818;stroke-width:1.0;"/><line style="stroke:#181818;stroke-width:1.0;" x1="130" x2="130" y1="2760.8047" y2="2789.3203"/><polygon fill="#181818" points="126,2779.3203,130,2789.3203,134,2779.3203,130,2783.3203" style="stroke:#181818;stroke-width:1.0;"/><line style="stroke:#181818;stroke-width:1.0;" x1="130" x2="130" y1="2702.4336" y2="2726.8359"/><polygon fill="#181818" points="126,2716.8359,130,2726.8359,134,2716.8359,130,2720.8359" style="stroke:#181818;stroke-width:1.0;"/><line style="stroke:#181818;stroke-width:1.0;" x1="183.5" x2="245.5" y1="2690.4336" y2="2690.4336"/><polygon fill="#181818" points="241.5,2759.3203,245.5,2769.3203,249.5,2759.3203,245.5,2763.3203" style="stroke:#181818;stroke-width:1.0;"/><line style="stroke:#181818;stroke-width:1.0;" x1="245.5" x2="245.5" y1="2690.4336" y2="2833.3203"/><line style="stroke:#181818;stroke-width:1.0;" x1="245.5" x2="130" y1="2833.3203" y2="2833.3203"/><line style="stroke:#181818;stroke-width:1.0;" x1="130" x2="130" y1="2833.3203" y2="2853.3203"/><polygon fill="#181818" points="126,2843.3203,130,2853.3203,134,2843.3203,130,2847.3203" style="stroke:#181818;stroke-width:1.0;"/><line style="stroke:#181818;stroke-width:1.0;" x1="130" x2="130" y1="2935.6914" y2="2964.207"/><polygon fill="#181818" points="126,2954.207,130,2964.207,134,2954.207,130,2958.207" style="stroke:#181818;stroke-width:1.0;"/><line style="stroke:#181818;stroke-width:1.0;" x1="130" x2="130" y1="2877.3203" y2="2901.7227"/><polygon fill="#181818" points="126,2891.7227,130,2901.7227,134,2891.7227,130,2895.7227" style="stroke:#181818;stroke-width:1.0;"/><line style="stroke:#181818;stroke-width:1.0;" x1="176" x2="211.5" y1="2865.3203" y2="2865.3203"/><polygon fill="#181818" points="207.5,2934.207,211.5,2944.207,215.5,2934.207,211.5,2938.207" style="stroke:#181818;stroke-width:1.0;"/><line style="stroke:#181818;stroke-width:1.0;" x1="211.5" x2="211.5" y1="2865.3203" y2="3008.207"/><line style="stroke:#181818;stroke-width:1.0;" x1="211.5" x2="130" y1="3008.207" y2="3008.207"/><line style="stroke:#181818;stroke-width:1.0;" x1="130" x2="130" y1="3008.207" y2="3028.207"/><polygon fill="#181818" points="126,3018.207,130,3028.207,134,3018.207,130,3022.207" style="stroke:#181818;stroke-width:1.0;"/><line style="stroke:#181818;stroke-width:1.0;" x1="130" x2="130" y1="3062.1758" y2="3082.1758"/><polygon fill="#181818" points="126,3072.1758,130,3082.1758,134,3072.1758,130,3076.1758" style="stroke:#181818;stroke-width:1.0;"/><!--MD5=[4e975e19b01847fbdcda61e06b171034]
@startuml
!pragma layout smetana
start
note right
SNamegetStyleName()
end note
if (this==SEQUENCE) then (yes) 
:return SName.sequenceDiagram;;
stop
endif 
if (this==STATE) then (yes) 
:return SName.stateDiagram;;
stop
endif 
if (this==CLASS) then (yes) 
:return SName.classDiagram;;
stop
endif 
if (this==OBJECT) then (yes) 
:return SName.objectDiagram;;
stop
endif 
if (this==ACTIVITY) then (yes) 
:return SName.activityDiagram;;
stop
endif 
if (this==DESCRIPTION) then (yes) 
:return SName.componentDiagram;;
stop
endif 
if (this==COMPOSITE) then (yes) 
:return SName.componentDiagram;;
stop
endif 
if (this==MINDMAP) then (yes) 
:return SName.mindmapDiagram;;
stop
endif 
if (this==WBS) then (yes) 
:return SName.wbsDiagram;;
stop
endif 
if (this==GANTT) then (yes) 
:return SName.ganttDiagram;;
stop
endif 
if (this==SALT) then (yes) 
:return SName.saltDiagram;;
stop
endif 
if (this==YAML) then (yes) 
:return SName.yamlDiagram;;
stop
endif 
if (this==HCL) then (yes) 
:return SName.yamlDiagram;;
stop
endif 
if (this==JSON) then (yes) 
:return SName.jsonDiagram;;
stop
endif 
if (this==TIMING) then (yes) 
:return SName.timingDiagram;;
stop
endif 
if (this==NWDIAG) then (yes) 
:return SName.nwdiagDiagram;;
stop
endif 
if (this==EBNF) then (yes) 
:return SName.ebnf;;
stop
endif 
:return SName.activityDiagram;;
stop
end
@enduml

PlantUML version 1.2022.7(Mon Aug 22 17:01:30 UTC 2022)
(GPL source distribution)
Java Runtime: OpenJDK Runtime Environment
JVM: OpenJDK 64-Bit Server VM
Default Encoding: UTF-8
Language: en
Country: null
--></g></svg>