<?xml version="1.0" encoding="UTF-8" standalone="no"?><svg xmlns="http://www.w3.org/2000/svg" xmlns:xlink="http://www.w3.org/1999/xlink" contentStyleType="text/css" height="2456px" preserveAspectRatio="none" style="width:612px;height:2456px;background:#FFFFFF;" version="1.1" viewBox="0 0 612 2456" width="612px" zoomAndPan="magnify"><defs/><g><path d="M266,10 L266,18.5664 L246,22.5664 L266,26.5664 L266,35.1328 A0,0 0 0 0 266,35.1328 L528,35.1328 A0,0 0 0 0 528,35.1328 L528,20 L518,10 L266,10 A0,0 0 0 0 266,10 " fill="#FEFFDD" style="stroke:#181818;stroke-width:0.5;"/><path d="M518,10 L518,20 L528,20 L518,10 " fill="#FEFFDD" style="stroke:#181818;stroke-width:0.5;"/><text fill="#000000" font-family="sans-serif" font-size="13" lengthAdjust="spacing" textLength="241" x="272" y="27.0669">constructor Url(Stringurl,Stringtooltip)</text><ellipse cx="236" cy="22.5664" fill="#222222" rx="10" ry="10" style="stroke:#222222;stroke-width:1.0;"/><rect fill="#F1F1F1" height="33.9688" rx="12.5" ry="12.5" style="stroke:#181818;stroke-width:0.5;" width="147" x="162.5" y="55.1328"/><text fill="#000000" font-family="sans-serif" font-size="12" lengthAdjust="spacing" textLength="127" x="172.5" y="76.2715">this(url,tooltip,null );</text><ellipse cx="236" cy="119.1016" fill="none" rx="10" ry="10" style="stroke:#222222;stroke-width:1.5;"/><line style="stroke:#222222;stroke-width:2.5;" x1="229.8128" x2="242.1872" y1="112.9144" y2="125.2887"/><line style="stroke:#222222;stroke-width:2.5;" x1="242.1872" x2="229.8128" y1="112.9144" y2="125.2887"/><path d="M266,139.1016 L266,147.668 L246,151.668 L266,155.668 L266,164.2344 A0,0 0 0 0 266,164.2344 L600,164.2344 A0,0 0 0 0 600,164.2344 L600,149.1016 L590,139.1016 L266,139.1016 A0,0 0 0 0 266,139.1016 " fill="#FEFFDD" style="stroke:#181818;stroke-width:0.5;"/><path d="M590,139.1016 L590,149.1016 L600,149.1016 L590,139.1016 " fill="#FEFFDD" style="stroke:#181818;stroke-width:0.5;"/><text fill="#000000" font-family="sans-serif" font-size="13" lengthAdjust="spacing" textLength="313" x="272" y="156.1685">constructor Url(Stringurl,Stringtooltip,Stringlabel)</text><ellipse cx="236" cy="151.668" fill="#222222" rx="10" ry="10" style="stroke:#222222;stroke-width:1.0;"/><rect fill="#F1F1F1" height="47.9375" rx="12.5" ry="12.5" style="stroke:#181818;stroke-width:0.5;" width="450" x="11" y="184.2344"/><text fill="#000000" font-family="sans-serif" font-size="12" lengthAdjust="spacing" textLength="430" x="21" y="205.373">url=StringUtils.eventuallyRemoveStartingAndEndingDoubleQuote(url,</text><text fill="#000000" font-family="sans-serif" font-size="12" lengthAdjust="spacing" textLength="28" x="21" y="219.3418">"\"");</text><rect fill="#F1F1F1" height="33.9688" rx="12.5" ry="12.5" style="stroke:#181818;stroke-width:0.5;" width="93" x="189.5" y="252.1719"/><text fill="#000000" font-family="sans-serif" font-size="12" lengthAdjust="spacing" textLength="73" x="199.5" y="273.3105">this.url=url;</text><polygon fill="#F1F1F1" points="197.5,306.1406,274.5,306.1406,286.5,318.1406,274.5,330.1406,197.5,330.1406,185.5,318.1406,197.5,306.1406" style="stroke:#181818;stroke-width:0.5;"/><text fill="#000000" font-family="sans-serif" font-size="11" lengthAdjust="spacing" textLength="73" x="197.5" y="321.9487">tooltip==null</text><text fill="#000000" font-family="sans-serif" font-size="11" lengthAdjust="spacing" textLength="20" x="165.5" y="315.5464">yes</text><text fill="#000000" font-family="sans-serif" font-size="11" lengthAdjust="spacing" textLength="14" x="286.5" y="315.5464">no</text><rect fill="#F1F1F1" height="33.9688" rx="12.5" ry="12.5" style="stroke:#181818;stroke-width:0.5;" width="117" x="58" y="340.1406"/><text fill="#000000" font-family="sans-serif" font-size="12" lengthAdjust="spacing" textLength="97" x="68" y="361.2793">this.tooltip=url;</text><rect fill="#F1F1F1" height="33.9688" rx="12.5" ry="12.5" style="stroke:#181818;stroke-width:0.5;" width="321" x="195" y="340.1406"/><text fill="#000000" font-family="sans-serif" font-size="12" lengthAdjust="spacing" textLength="301" x="205" y="361.2793">this.tooltip=BackSlash.manageNewLine(tooltip);</text><polygon fill="#F1F1F1" points="236,380.1094,248,392.1094,236,404.1094,224,392.1094,236,380.1094" style="stroke:#181818;stroke-width:0.5;"/><polygon fill="#F1F1F1" points="148,424.1094,324,424.1094,336,436.1094,324,448.1094,148,448.1094,136,436.1094,148,424.1094" style="stroke:#181818;stroke-width:0.5;"/><text fill="#000000" font-family="sans-serif" font-size="11" lengthAdjust="spacing" textLength="176" x="148" y="439.9175">label==null ||label.length()==0</text><text fill="#000000" font-family="sans-serif" font-size="11" lengthAdjust="spacing" textLength="20" x="116" y="433.5151">yes</text><text fill="#000000" font-family="sans-serif" font-size="11" lengthAdjust="spacing" textLength="14" x="336" y="433.5151">no</text><rect fill="#F1F1F1" height="33.9688" rx="12.5" ry="12.5" style="stroke:#181818;stroke-width:0.5;" width="107" x="72.5" y="458.1094"/><text fill="#000000" font-family="sans-serif" font-size="12" lengthAdjust="spacing" textLength="87" x="82.5" y="479.248">this.label=url;</text><rect fill="#F1F1F1" height="33.9688" rx="12.5" ry="12.5" style="stroke:#181818;stroke-width:0.5;" width="121" x="285.5" y="458.1094"/><text fill="#000000" font-family="sans-serif" font-size="12" lengthAdjust="spacing" textLength="101" x="295.5" y="479.248">this.label=label;</text><polygon fill="#F1F1F1" points="236,498.0781,248,510.0781,236,522.0781,224,510.0781,236,498.0781" style="stroke:#181818;stroke-width:0.5;"/><ellipse cx="236" cy="552.0781" fill="none" rx="10" ry="10" style="stroke:#222222;stroke-width:1.5;"/><line style="stroke:#222222;stroke-width:2.5;" x1="229.8128" x2="242.1872" y1="545.8909" y2="558.2653"/><line style="stroke:#222222;stroke-width:2.5;" x1="242.1872" x2="229.8128" y1="545.8909" y2="558.2653"/><path d="M266,572.0781 L266,580.6445 L246,584.6445 L266,588.6445 L266,597.2109 A0,0 0 0 0 266,597.2109 L500,597.2109 A0,0 0 0 0 500,597.2109 L500,582.0781 L490,572.0781 L266,572.0781 A0,0 0 0 0 266,572.0781 " fill="#FEFFDD" style="stroke:#181818;stroke-width:0.5;"/><path d="M490,572.0781 L490,582.0781 L500,582.0781 L490,572.0781 " fill="#FEFFDD" style="stroke:#181818;stroke-width:0.5;"/><text fill="#000000" font-family="sans-serif" font-size="13" lengthAdjust="spacing" textLength="213" x="272" y="589.145">booleanisLatex(StringpendingUrl)</text><ellipse cx="236" cy="584.6445" fill="#222222" rx="10" ry="10" style="stroke:#222222;stroke-width:1.0;"/><rect fill="#F1F1F1" height="33.9688" rx="12.5" ry="12.5" style="stroke:#181818;stroke-width:0.5;" width="265" x="103.5" y="617.2109"/><text fill="#000000" font-family="sans-serif" font-size="12" lengthAdjust="spacing" textLength="245" x="113.5" y="638.3496">return pendingUrl.startsWith("latex://");</text><ellipse cx="236" cy="682.1797" fill="none" rx="11" ry="11" style="stroke:#222222;stroke-width:1.0;"/><ellipse cx="236" cy="682.1797" fill="#222222" rx="6" ry="6" style="stroke:#111111;stroke-width:1.0;"/><ellipse cx="236" cy="713.1797" fill="none" rx="10" ry="10" style="stroke:#222222;stroke-width:1.5;"/><line style="stroke:#222222;stroke-width:2.5;" x1="229.8128" x2="242.1872" y1="706.9925" y2="719.3669"/><line style="stroke:#222222;stroke-width:2.5;" x1="242.1872" x2="229.8128" y1="706.9925" y2="719.3669"/><path d="M266,733.1797 L266,741.7461 L246,745.7461 L266,749.7461 L266,758.3125 A0,0 0 0 0 266,758.3125 L393,758.3125 A0,0 0 0 0 393,758.3125 L393,743.1797 L383,733.1797 L266,733.1797 A0,0 0 0 0 266,733.1797 " fill="#FEFFDD" style="stroke:#181818;stroke-width:0.5;"/><path d="M383,733.1797 L383,743.1797 L393,743.1797 L383,733.1797 " fill="#FEFFDD" style="stroke:#181818;stroke-width:0.5;"/><text fill="#000000" font-family="sans-serif" font-size="13" lengthAdjust="spacing" textLength="106" x="272" y="750.2466">booleanisLatex()</text><ellipse cx="236" cy="745.7461" fill="#222222" rx="10" ry="10" style="stroke:#222222;stroke-width:1.0;"/><rect fill="#F1F1F1" height="33.9688" rx="12.5" ry="12.5" style="stroke:#181818;stroke-width:0.5;" width="136" x="168" y="778.3125"/><text fill="#000000" font-family="sans-serif" font-size="12" lengthAdjust="spacing" textLength="116" x="178" y="799.4512">return isLatex(url);</text><ellipse cx="236" cy="843.2813" fill="none" rx="11" ry="11" style="stroke:#222222;stroke-width:1.0;"/><ellipse cx="236" cy="843.2813" fill="#222222" rx="6" ry="6" style="stroke:#111111;stroke-width:1.0;"/><ellipse cx="236" cy="874.2813" fill="none" rx="10" ry="10" style="stroke:#222222;stroke-width:1.5;"/><line style="stroke:#222222;stroke-width:2.5;" x1="229.8128" x2="242.1872" y1="868.0941" y2="880.4684"/><line style="stroke:#222222;stroke-width:2.5;" x1="242.1872" x2="229.8128" y1="868.0941" y2="880.4684"/><path d="M266,894.2813 L266,902.8477 L246,906.8477 L266,910.8477 L266,919.4141 A0,0 0 0 0 266,919.4141 L374,919.4141 A0,0 0 0 0 374,919.4141 L374,904.2813 L364,894.2813 L266,894.2813 A0,0 0 0 0 266,894.2813 " fill="#FEFFDD" style="stroke:#181818;stroke-width:0.5;"/><path d="M364,894.2813 L364,904.2813 L374,904.2813 L364,894.2813 " fill="#FEFFDD" style="stroke:#181818;stroke-width:0.5;"/><text fill="#000000" font-family="sans-serif" font-size="13" lengthAdjust="spacing" textLength="87" x="272" y="911.3481">StringgetUrl()</text><ellipse cx="236" cy="906.8477" fill="#222222" rx="10" ry="10" style="stroke:#222222;stroke-width:1.0;"/><rect fill="#F1F1F1" height="33.9688" rx="12.5" ry="12.5" style="stroke:#181818;stroke-width:0.5;" width="83" x="194.5" y="939.4141"/><text fill="#000000" font-family="sans-serif" font-size="12" lengthAdjust="spacing" textLength="63" x="204.5" y="960.5527">return url;</text><ellipse cx="236" cy="1004.3828" fill="none" rx="11" ry="11" style="stroke:#222222;stroke-width:1.0;"/><ellipse cx="236" cy="1004.3828" fill="#222222" rx="6" ry="6" style="stroke:#111111;stroke-width:1.0;"/><ellipse cx="236" cy="1035.3828" fill="none" rx="10" ry="10" style="stroke:#222222;stroke-width:1.5;"/><line style="stroke:#222222;stroke-width:2.5;" x1="229.8128" x2="242.1872" y1="1029.1956" y2="1041.57"/><line style="stroke:#222222;stroke-width:2.5;" x1="242.1872" x2="229.8128" y1="1029.1956" y2="1041.57"/><path d="M266,1055.3828 L266,1063.9492 L246,1067.9492 L266,1071.9492 L266,1080.5156 A0,0 0 0 0 266,1080.5156 L398,1080.5156 A0,0 0 0 0 398,1080.5156 L398,1065.3828 L388,1055.3828 L266,1055.3828 A0,0 0 0 0 266,1055.3828 " fill="#FEFFDD" style="stroke:#181818;stroke-width:0.5;"/><path d="M388,1055.3828 L388,1065.3828 L398,1065.3828 L388,1055.3828 " fill="#FEFFDD" style="stroke:#181818;stroke-width:0.5;"/><text fill="#000000" font-family="sans-serif" font-size="13" lengthAdjust="spacing" textLength="111" x="272" y="1072.4497">StringgetTooltip()</text><ellipse cx="236" cy="1067.9492" fill="#222222" rx="10" ry="10" style="stroke:#222222;stroke-width:1.0;"/><rect fill="#F1F1F1" height="33.9688" rx="12.5" ry="12.5" style="stroke:#181818;stroke-width:0.5;" width="107" x="182.5" y="1100.5156"/><text fill="#000000" font-family="sans-serif" font-size="12" lengthAdjust="spacing" textLength="87" x="192.5" y="1121.6543">return tooltip;</text><ellipse cx="236" cy="1165.4844" fill="none" rx="11" ry="11" style="stroke:#222222;stroke-width:1.0;"/><ellipse cx="236" cy="1165.4844" fill="#222222" rx="6" ry="6" style="stroke:#111111;stroke-width:1.0;"/><ellipse cx="236" cy="1196.4844" fill="none" rx="10" ry="10" style="stroke:#222222;stroke-width:1.5;"/><line style="stroke:#222222;stroke-width:2.5;" x1="229.8128" x2="242.1872" y1="1190.2972" y2="1202.6716"/><line style="stroke:#222222;stroke-width:2.5;" x1="242.1872" x2="229.8128" y1="1190.2972" y2="1202.6716"/><path d="M266,1216.4844 L266,1225.0508 L246,1229.0508 L266,1233.0508 L266,1241.6172 A0,0 0 0 0 266,1241.6172 L390,1241.6172 A0,0 0 0 0 390,1241.6172 L390,1226.4844 L380,1216.4844 L266,1216.4844 A0,0 0 0 0 266,1216.4844 " fill="#FEFFDD" style="stroke:#181818;stroke-width:0.5;"/><path d="M380,1216.4844 L380,1226.4844 L390,1226.4844 L380,1216.4844 " fill="#FEFFDD" style="stroke:#181818;stroke-width:0.5;"/><text fill="#000000" font-family="sans-serif" font-size="13" lengthAdjust="spacing" textLength="103" x="272" y="1233.5513">StringgetLabel()</text><ellipse cx="236" cy="1229.0508" fill="#222222" rx="10" ry="10" style="stroke:#222222;stroke-width:1.0;"/><rect fill="#F1F1F1" height="33.9688" rx="12.5" ry="12.5" style="stroke:#181818;stroke-width:0.5;" width="97" x="187.5" y="1261.6172"/><text fill="#000000" font-family="sans-serif" font-size="12" lengthAdjust="spacing" textLength="77" x="197.5" y="1282.7559">return label;</text><ellipse cx="236" cy="1326.5859" fill="none" rx="11" ry="11" style="stroke:#222222;stroke-width:1.0;"/><ellipse cx="236" cy="1326.5859" fill="#222222" rx="6" ry="6" style="stroke:#111111;stroke-width:1.0;"/><ellipse cx="236" cy="1357.5859" fill="none" rx="10" ry="10" style="stroke:#222222;stroke-width:1.5;"/><line style="stroke:#222222;stroke-width:2.5;" x1="229.8128" x2="242.1872" y1="1351.3988" y2="1363.7731"/><line style="stroke:#222222;stroke-width:2.5;" x1="242.1872" x2="229.8128" y1="1351.3988" y2="1363.7731"/><path d="M266,1377.5859 L266,1386.1523 L246,1390.1523 L266,1394.1523 L266,1402.7188 A0,0 0 0 0 266,1402.7188 L386,1402.7188 A0,0 0 0 0 386,1402.7188 L386,1387.5859 L376,1377.5859 L266,1377.5859 A0,0 0 0 0 266,1377.5859 " fill="#FEFFDD" style="stroke:#181818;stroke-width:0.5;"/><path d="M376,1377.5859 L376,1387.5859 L386,1387.5859 L376,1377.5859 " fill="#FEFFDD" style="stroke:#181818;stroke-width:0.5;"/><text fill="#000000" font-family="sans-serif" font-size="13" lengthAdjust="spacing" textLength="99" x="272" y="1394.6528">StringtoString()</text><ellipse cx="236" cy="1390.1523" fill="#222222" rx="10" ry="10" style="stroke:#222222;stroke-width:1.0;"/><rect fill="#F1F1F1" height="33.9688" rx="12.5" ry="12.5" style="stroke:#181818;stroke-width:0.5;" width="392" x="40" y="1422.7188"/><text fill="#000000" font-family="sans-serif" font-size="12" lengthAdjust="spacing" textLength="372" x="50" y="1443.8574">return super .toString()+" "+url+" "+visible.getCoords(1.0);</text><ellipse cx="236" cy="1487.6875" fill="none" rx="11" ry="11" style="stroke:#222222;stroke-width:1.0;"/><ellipse cx="236" cy="1487.6875" fill="#222222" rx="6" ry="6" style="stroke:#111111;stroke-width:1.0;"/><ellipse cx="236" cy="1518.6875" fill="none" rx="10" ry="10" style="stroke:#222222;stroke-width:1.5;"/><line style="stroke:#222222;stroke-width:2.5;" x1="229.8128" x2="242.1872" y1="1512.5003" y2="1524.8747"/><line style="stroke:#222222;stroke-width:2.5;" x1="242.1872" x2="229.8128" y1="1512.5003" y2="1524.8747"/><path d="M266,1538.6875 L266,1547.2539 L246,1551.2539 L266,1555.2539 L266,1563.8203 A0,0 0 0 0 266,1563.8203 L477,1563.8203 A0,0 0 0 0 477,1563.8203 L477,1548.6875 L467,1538.6875 L266,1538.6875 A0,0 0 0 0 266,1538.6875 " fill="#FEFFDD" style="stroke:#181818;stroke-width:0.5;"/><path d="M467,1538.6875 L467,1548.6875 L477,1548.6875 L467,1538.6875 " fill="#FEFFDD" style="stroke:#181818;stroke-width:0.5;"/><text fill="#000000" font-family="sans-serif" font-size="13" lengthAdjust="spacing" textLength="190" x="272" y="1555.7544">StringgetCoords(doublescale)</text><ellipse cx="236" cy="1551.2539" fill="#222222" rx="10" ry="10" style="stroke:#222222;stroke-width:1.0;"/><rect fill="#F1F1F1" height="33.9688" rx="12.5" ry="12.5" style="stroke:#181818;stroke-width:0.5;" width="293" x="89.5" y="1632.2227"/><text fill="#000000" font-family="sans-serif" font-size="12" lengthAdjust="spacing" textLength="273" x="99.5" y="1653.3613">throw new IllegalStateException(toString());</text><ellipse cx="236" cy="1705.707" fill="none" rx="11" ry="11" style="stroke:#222222;stroke-width:1.0;"/><ellipse cx="236" cy="1705.707" fill="#222222" rx="6" ry="6" style="stroke:#111111;stroke-width:1.0;"/><polygon fill="#F1F1F1" points="55.5,1583.8203,416.5,1583.8203,428.5,1595.8203,416.5,1607.8203,55.5,1607.8203,43.5,1595.8203,55.5,1583.8203" style="stroke:#181818;stroke-width:0.5;"/><text fill="#000000" font-family="sans-serif" font-size="11" lengthAdjust="spacing" textLength="20" x="240" y="1618.0308">yes</text><text fill="#000000" font-family="sans-serif" font-size="11" lengthAdjust="spacing" textLength="361" x="55.5" y="1599.6284">DotMaker2.isJunit()&amp;&amp;visible.getCoords(1.0).contains("0,0,0,0")</text><rect fill="#F1F1F1" height="33.9688" rx="12.5" ry="12.5" style="stroke:#181818;stroke-width:0.5;" width="217" x="127.5" y="1758.707"/><text fill="#000000" font-family="sans-serif" font-size="12" lengthAdjust="spacing" textLength="197" x="137.5" y="1779.8457">return visible.getCoords(scale);</text><ellipse cx="236" cy="1823.6758" fill="none" rx="11" ry="11" style="stroke:#222222;stroke-width:1.0;"/><ellipse cx="236" cy="1823.6758" fill="#222222" rx="6" ry="6" style="stroke:#111111;stroke-width:1.0;"/><ellipse cx="236" cy="1854.6758" fill="none" rx="10" ry="10" style="stroke:#222222;stroke-width:1.5;"/><line style="stroke:#222222;stroke-width:2.5;" x1="229.8128" x2="242.1872" y1="1848.4886" y2="1860.863"/><line style="stroke:#222222;stroke-width:2.5;" x1="242.1872" x2="229.8128" y1="1848.4886" y2="1860.863"/><path d="M266,1874.6758 L266,1883.2422 L246,1887.2422 L266,1891.2422 L266,1899.8086 A0,0 0 0 0 266,1899.8086 L506,1899.8086 A0,0 0 0 0 506,1899.8086 L506,1884.6758 L496,1874.6758 L266,1874.6758 A0,0 0 0 0 266,1874.6758 " fill="#FEFFDD" style="stroke:#181818;stroke-width:0.5;"/><path d="M496,1874.6758 L496,1884.6758 L506,1884.6758 L496,1874.6758 " fill="#FEFFDD" style="stroke:#181818;stroke-width:0.5;"/><text fill="#000000" font-family="sans-serif" font-size="13" lengthAdjust="spacing" textLength="219" x="272" y="1891.7427">void setMember(booleanmember)</text><ellipse cx="236" cy="1887.2422" fill="#222222" rx="10" ry="10" style="stroke:#222222;stroke-width:1.0;"/><rect fill="#F1F1F1" height="33.9688" rx="12.5" ry="12.5" style="stroke:#181818;stroke-width:0.5;" width="163" x="154.5" y="1919.8086"/><text fill="#000000" font-family="sans-serif" font-size="12" lengthAdjust="spacing" textLength="143" x="164.5" y="1940.9473">this.member=member;</text><ellipse cx="236" cy="1983.7773" fill="none" rx="10" ry="10" style="stroke:#222222;stroke-width:1.5;"/><line style="stroke:#222222;stroke-width:2.5;" x1="229.8128" x2="242.1872" y1="1977.5902" y2="1989.9645"/><line style="stroke:#222222;stroke-width:2.5;" x1="242.1872" x2="229.8128" y1="1977.5902" y2="1989.9645"/><path d="M266,2003.7773 L266,2012.3438 L246,2016.3438 L266,2020.3438 L266,2028.9102 A0,0 0 0 0 266,2028.9102 L411,2028.9102 A0,0 0 0 0 411,2028.9102 L411,2013.7773 L401,2003.7773 L266,2003.7773 A0,0 0 0 0 266,2003.7773 " fill="#FEFFDD" style="stroke:#181818;stroke-width:0.5;"/><path d="M401,2003.7773 L401,2013.7773 L411,2013.7773 L401,2003.7773 " fill="#FEFFDD" style="stroke:#181818;stroke-width:0.5;"/><text fill="#000000" font-family="sans-serif" font-size="13" lengthAdjust="spacing" textLength="124" x="272" y="2020.8442">booleanisMember()</text><ellipse cx="236" cy="2016.3438" fill="#222222" rx="10" ry="10" style="stroke:#222222;stroke-width:1.0;"/><rect fill="#F1F1F1" height="33.9688" rx="12.5" ry="12.5" style="stroke:#181818;stroke-width:0.5;" width="118" x="177" y="2048.9102"/><text fill="#000000" font-family="sans-serif" font-size="12" lengthAdjust="spacing" textLength="98" x="187" y="2070.0488">return member;</text><ellipse cx="236" cy="2113.8789" fill="none" rx="11" ry="11" style="stroke:#222222;stroke-width:1.0;"/><ellipse cx="236" cy="2113.8789" fill="#222222" rx="6" ry="6" style="stroke:#111111;stroke-width:1.0;"/><ellipse cx="236" cy="2144.8789" fill="none" rx="10" ry="10" style="stroke:#222222;stroke-width:1.5;"/><line style="stroke:#222222;stroke-width:2.5;" x1="229.8128" x2="242.1872" y1="2138.6917" y2="2151.0661"/><line style="stroke:#222222;stroke-width:2.5;" x1="242.1872" x2="229.8128" y1="2138.6917" y2="2151.0661"/><path d="M266,2164.8789 L266,2173.4453 L246,2177.4453 L266,2181.4453 L266,2190.0117 A0,0 0 0 0 266,2190.0117 L516,2190.0117 A0,0 0 0 0 516,2190.0117 L516,2174.8789 L506,2164.8789 L266,2164.8789 A0,0 0 0 0 266,2164.8789 " fill="#FEFFDD" style="stroke:#181818;stroke-width:0.5;"/><path d="M506,2164.8789 L506,2174.8789 L516,2174.8789 L506,2164.8789 " fill="#FEFFDD" style="stroke:#181818;stroke-width:0.5;"/><text fill="#000000" font-family="sans-serif" font-size="13" lengthAdjust="spacing" textLength="229" x="272" y="2181.9458">void ensureVisible(doublex,doubley)</text><ellipse cx="236" cy="2177.4453" fill="#222222" rx="10" ry="10" style="stroke:#222222;stroke-width:1.0;"/><rect fill="#F1F1F1" height="33.9688" rx="12.5" ry="12.5" style="stroke:#181818;stroke-width:0.5;" width="176" x="148" y="2210.0117"/><text fill="#000000" font-family="sans-serif" font-size="12" lengthAdjust="spacing" textLength="156" x="158" y="2231.1504">visible.ensureVisible(x,y);</text><ellipse cx="236" cy="2273.9805" fill="none" rx="10" ry="10" style="stroke:#222222;stroke-width:1.5;"/><line style="stroke:#222222;stroke-width:2.5;" x1="229.8128" x2="242.1872" y1="2267.7933" y2="2280.1677"/><line style="stroke:#222222;stroke-width:2.5;" x1="242.1872" x2="229.8128" y1="2267.7933" y2="2280.1677"/><path d="M266,2293.9805 L266,2302.5469 L246,2306.5469 L266,2310.5469 L266,2319.1133 A0,0 0 0 0 266,2319.1133 L402,2319.1133 A0,0 0 0 0 402,2319.1133 L402,2303.9805 L392,2293.9805 L266,2293.9805 A0,0 0 0 0 266,2293.9805 " fill="#FEFFDD" style="stroke:#181818;stroke-width:0.5;"/><path d="M392,2293.9805 L392,2303.9805 L402,2303.9805 L392,2293.9805 " fill="#FEFFDD" style="stroke:#181818;stroke-width:0.5;"/><text fill="#000000" font-family="sans-serif" font-size="13" lengthAdjust="spacing" textLength="115" x="272" y="2311.0474">booleanhasData()</text><ellipse cx="236" cy="2306.5469" fill="#222222" rx="10" ry="10" style="stroke:#222222;stroke-width:1.0;"/><rect fill="#F1F1F1" height="33.9688" rx="12.5" ry="12.5" style="stroke:#181818;stroke-width:0.5;" width="172" x="150" y="2339.1133"/><text fill="#000000" font-family="sans-serif" font-size="12" lengthAdjust="spacing" textLength="152" x="160" y="2360.252">return visible.hasData();</text><ellipse cx="236" cy="2404.082" fill="none" rx="11" ry="11" style="stroke:#222222;stroke-width:1.0;"/><ellipse cx="236" cy="2404.082" fill="#222222" rx="6" ry="6" style="stroke:#111111;stroke-width:1.0;"/><ellipse cx="236" cy="2435.082" fill="none" rx="10" ry="10" style="stroke:#222222;stroke-width:1.5;"/><line style="stroke:#222222;stroke-width:2.5;" x1="229.8128" x2="242.1872" y1="2428.8948" y2="2441.2692"/><line style="stroke:#222222;stroke-width:2.5;" x1="242.1872" x2="229.8128" y1="2428.8948" y2="2441.2692"/><line style="stroke:#181818;stroke-width:1.0;" x1="236" x2="236" y1="32.5664" y2="55.1328"/><polygon fill="#181818" points="232,45.1328,236,55.1328,240,45.1328,236,49.1328" style="stroke:#181818;stroke-width:1.0;"/><line style="stroke:#181818;stroke-width:1.0;" x1="236" x2="236" y1="89.1016" y2="109.1016"/><polygon fill="#181818" points="232,99.1016,236,109.1016,240,99.1016,236,103.1016" style="stroke:#181818;stroke-width:1.0;"/><line style="stroke:#181818;stroke-width:1.0;" x1="236" x2="236" y1="161.668" y2="184.2344"/><polygon fill="#181818" points="232,174.2344,236,184.2344,240,174.2344,236,178.2344" style="stroke:#181818;stroke-width:1.0;"/><line style="stroke:#181818;stroke-width:1.0;" x1="236" x2="236" y1="232.1719" y2="252.1719"/><polygon fill="#181818" points="232,242.1719,236,252.1719,240,242.1719,236,246.1719" style="stroke:#181818;stroke-width:1.0;"/><line style="stroke:#181818;stroke-width:1.0;" x1="185.5" x2="116.5" y1="318.1406" y2="318.1406"/><line style="stroke:#181818;stroke-width:1.0;" x1="116.5" x2="116.5" y1="318.1406" y2="340.1406"/><polygon fill="#181818" points="112.5,330.1406,116.5,340.1406,120.5,330.1406,116.5,334.1406" style="stroke:#181818;stroke-width:1.0;"/><line style="stroke:#181818;stroke-width:1.0;" x1="286.5" x2="355.5" y1="318.1406" y2="318.1406"/><line style="stroke:#181818;stroke-width:1.0;" x1="355.5" x2="355.5" y1="318.1406" y2="340.1406"/><polygon fill="#181818" points="351.5,330.1406,355.5,340.1406,359.5,330.1406,355.5,334.1406" style="stroke:#181818;stroke-width:1.0;"/><line style="stroke:#181818;stroke-width:1.0;" x1="116.5" x2="116.5" y1="374.1094" y2="392.1094"/><line style="stroke:#181818;stroke-width:1.0;" x1="116.5" x2="224" y1="392.1094" y2="392.1094"/><polygon fill="#181818" points="214,388.1094,224,392.1094,214,396.1094,218,392.1094" style="stroke:#181818;stroke-width:1.0;"/><line style="stroke:#181818;stroke-width:1.0;" x1="355.5" x2="355.5" y1="374.1094" y2="392.1094"/><line style="stroke:#181818;stroke-width:1.0;" x1="355.5" x2="248" y1="392.1094" y2="392.1094"/><polygon fill="#181818" points="258,388.1094,248,392.1094,258,396.1094,254,392.1094" style="stroke:#181818;stroke-width:1.0;"/><line style="stroke:#181818;stroke-width:1.0;" x1="236" x2="236" y1="286.1406" y2="306.1406"/><polygon fill="#181818" points="232,296.1406,236,306.1406,240,296.1406,236,300.1406" style="stroke:#181818;stroke-width:1.0;"/><line style="stroke:#181818;stroke-width:1.0;" x1="136" x2="126" y1="436.1094" y2="436.1094"/><line style="stroke:#181818;stroke-width:1.0;" x1="126" x2="126" y1="436.1094" y2="458.1094"/><polygon fill="#181818" points="122,448.1094,126,458.1094,130,448.1094,126,452.1094" style="stroke:#181818;stroke-width:1.0;"/><line style="stroke:#181818;stroke-width:1.0;" x1="336" x2="346" y1="436.1094" y2="436.1094"/><line style="stroke:#181818;stroke-width:1.0;" x1="346" x2="346" y1="436.1094" y2="458.1094"/><polygon fill="#181818" points="342,448.1094,346,458.1094,350,448.1094,346,452.1094" style="stroke:#181818;stroke-width:1.0;"/><line style="stroke:#181818;stroke-width:1.0;" x1="126" x2="126" y1="492.0781" y2="510.0781"/><line style="stroke:#181818;stroke-width:1.0;" x1="126" x2="224" y1="510.0781" y2="510.0781"/><polygon fill="#181818" points="214,506.0781,224,510.0781,214,514.0781,218,510.0781" style="stroke:#181818;stroke-width:1.0;"/><line style="stroke:#181818;stroke-width:1.0;" x1="346" x2="346" y1="492.0781" y2="510.0781"/><line style="stroke:#181818;stroke-width:1.0;" x1="346" x2="248" y1="510.0781" y2="510.0781"/><polygon fill="#181818" points="258,506.0781,248,510.0781,258,514.0781,254,510.0781" style="stroke:#181818;stroke-width:1.0;"/><line style="stroke:#181818;stroke-width:1.0;" x1="236" x2="236" y1="404.1094" y2="424.1094"/><polygon fill="#181818" points="232,414.1094,236,424.1094,240,414.1094,236,418.1094" style="stroke:#181818;stroke-width:1.0;"/><line style="stroke:#181818;stroke-width:1.0;" x1="236" x2="236" y1="522.0781" y2="542.0781"/><polygon fill="#181818" points="232,532.0781,236,542.0781,240,532.0781,236,536.0781" style="stroke:#181818;stroke-width:1.0;"/><line style="stroke:#181818;stroke-width:1.0;" x1="236" x2="236" y1="594.6445" y2="617.2109"/><polygon fill="#181818" points="232,607.2109,236,617.2109,240,607.2109,236,611.2109" style="stroke:#181818;stroke-width:1.0;"/><line style="stroke:#181818;stroke-width:1.0;" x1="236" x2="236" y1="651.1797" y2="671.1797"/><polygon fill="#181818" points="232,661.1797,236,671.1797,240,661.1797,236,665.1797" style="stroke:#181818;stroke-width:1.0;"/><line style="stroke:#181818;stroke-width:1.0;" x1="236" x2="236" y1="755.7461" y2="778.3125"/><polygon fill="#181818" points="232,768.3125,236,778.3125,240,768.3125,236,772.3125" style="stroke:#181818;stroke-width:1.0;"/><line style="stroke:#181818;stroke-width:1.0;" x1="236" x2="236" y1="812.2813" y2="832.2813"/><polygon fill="#181818" points="232,822.2813,236,832.2813,240,822.2813,236,826.2813" style="stroke:#181818;stroke-width:1.0;"/><line style="stroke:#181818;stroke-width:1.0;" x1="236" x2="236" y1="916.8477" y2="939.4141"/><polygon fill="#181818" points="232,929.4141,236,939.4141,240,929.4141,236,933.4141" style="stroke:#181818;stroke-width:1.0;"/><line style="stroke:#181818;stroke-width:1.0;" x1="236" x2="236" y1="973.3828" y2="993.3828"/><polygon fill="#181818" points="232,983.3828,236,993.3828,240,983.3828,236,987.3828" style="stroke:#181818;stroke-width:1.0;"/><line style="stroke:#181818;stroke-width:1.0;" x1="236" x2="236" y1="1077.9492" y2="1100.5156"/><polygon fill="#181818" points="232,1090.5156,236,1100.5156,240,1090.5156,236,1094.5156" style="stroke:#181818;stroke-width:1.0;"/><line style="stroke:#181818;stroke-width:1.0;" x1="236" x2="236" y1="1134.4844" y2="1154.4844"/><polygon fill="#181818" points="232,1144.4844,236,1154.4844,240,1144.4844,236,1148.4844" style="stroke:#181818;stroke-width:1.0;"/><line style="stroke:#181818;stroke-width:1.0;" x1="236" x2="236" y1="1239.0508" y2="1261.6172"/><polygon fill="#181818" points="232,1251.6172,236,1261.6172,240,1251.6172,236,1255.6172" style="stroke:#181818;stroke-width:1.0;"/><line style="stroke:#181818;stroke-width:1.0;" x1="236" x2="236" y1="1295.5859" y2="1315.5859"/><polygon fill="#181818" points="232,1305.5859,236,1315.5859,240,1305.5859,236,1309.5859" style="stroke:#181818;stroke-width:1.0;"/><line style="stroke:#181818;stroke-width:1.0;" x1="236" x2="236" y1="1400.1523" y2="1422.7188"/><polygon fill="#181818" points="232,1412.7188,236,1422.7188,240,1412.7188,236,1416.7188" style="stroke:#181818;stroke-width:1.0;"/><line style="stroke:#181818;stroke-width:1.0;" x1="236" x2="236" y1="1456.6875" y2="1476.6875"/><polygon fill="#181818" points="232,1466.6875,236,1476.6875,240,1466.6875,236,1470.6875" style="stroke:#181818;stroke-width:1.0;"/><line style="stroke:#181818;stroke-width:1.0;" x1="236" x2="236" y1="1666.1914" y2="1694.707"/><polygon fill="#181818" points="232,1684.707,236,1694.707,240,1684.707,236,1688.707" style="stroke:#181818;stroke-width:1.0;"/><line style="stroke:#181818;stroke-width:1.0;" x1="236" x2="236" y1="1607.8203" y2="1632.2227"/><polygon fill="#181818" points="232,1622.2227,236,1632.2227,240,1622.2227,236,1626.2227" style="stroke:#181818;stroke-width:1.0;"/><line style="stroke:#181818;stroke-width:1.0;" x1="428.5" x2="440.5" y1="1595.8203" y2="1595.8203"/><polygon fill="#181818" points="436.5,1664.707,440.5,1674.707,444.5,1664.707,440.5,1668.707" style="stroke:#181818;stroke-width:1.0;"/><line style="stroke:#181818;stroke-width:1.0;" x1="440.5" x2="440.5" y1="1595.8203" y2="1738.707"/><line style="stroke:#181818;stroke-width:1.0;" x1="440.5" x2="236" y1="1738.707" y2="1738.707"/><line style="stroke:#181818;stroke-width:1.0;" x1="236" x2="236" y1="1738.707" y2="1758.707"/><polygon fill="#181818" points="232,1748.707,236,1758.707,240,1748.707,236,1752.707" style="stroke:#181818;stroke-width:1.0;"/><line style="stroke:#181818;stroke-width:1.0;" x1="236" x2="236" y1="1561.2539" y2="1583.8203"/><polygon fill="#181818" points="232,1573.8203,236,1583.8203,240,1573.8203,236,1577.8203" style="stroke:#181818;stroke-width:1.0;"/><line style="stroke:#181818;stroke-width:1.0;" x1="236" x2="236" y1="1792.6758" y2="1812.6758"/><polygon fill="#181818" points="232,1802.6758,236,1812.6758,240,1802.6758,236,1806.6758" style="stroke:#181818;stroke-width:1.0;"/><line style="stroke:#181818;stroke-width:1.0;" x1="236" x2="236" y1="1897.2422" y2="1919.8086"/><polygon fill="#181818" points="232,1909.8086,236,1919.8086,240,1909.8086,236,1913.8086" style="stroke:#181818;stroke-width:1.0;"/><line style="stroke:#181818;stroke-width:1.0;" x1="236" x2="236" y1="1953.7773" y2="1973.7773"/><polygon fill="#181818" points="232,1963.7773,236,1973.7773,240,1963.7773,236,1967.7773" style="stroke:#181818;stroke-width:1.0;"/><line style="stroke:#181818;stroke-width:1.0;" x1="236" x2="236" y1="2026.3438" y2="2048.9102"/><polygon fill="#181818" points="232,2038.9102,236,2048.9102,240,2038.9102,236,2042.9102" style="stroke:#181818;stroke-width:1.0;"/><line style="stroke:#181818;stroke-width:1.0;" x1="236" x2="236" y1="2082.8789" y2="2102.8789"/><polygon fill="#181818" points="232,2092.8789,236,2102.8789,240,2092.8789,236,2096.8789" style="stroke:#181818;stroke-width:1.0;"/><line style="stroke:#181818;stroke-width:1.0;" x1="236" x2="236" y1="2187.4453" y2="2210.0117"/><polygon fill="#181818" points="232,2200.0117,236,2210.0117,240,2200.0117,236,2204.0117" style="stroke:#181818;stroke-width:1.0;"/><line style="stroke:#181818;stroke-width:1.0;" x1="236" x2="236" y1="2243.9805" y2="2263.9805"/><polygon fill="#181818" points="232,2253.9805,236,2263.9805,240,2253.9805,236,2257.9805" style="stroke:#181818;stroke-width:1.0;"/><line style="stroke:#181818;stroke-width:1.0;" x1="236" x2="236" y1="2316.5469" y2="2339.1133"/><polygon fill="#181818" points="232,2329.1133,236,2339.1133,240,2329.1133,236,2333.1133" style="stroke:#181818;stroke-width:1.0;"/><line style="stroke:#181818;stroke-width:1.0;" x1="236" x2="236" y1="2373.082" y2="2393.082"/><polygon fill="#181818" points="232,2383.082,236,2393.082,240,2383.082,236,2387.082" style="stroke:#181818;stroke-width:1.0;"/><!--MD5=[e9d5c093fc94b99ceef1daa274f0668e]
@startuml
!pragma layout smetana
start
note right
constructor Url(Stringurl,Stringtooltip)
end note
:this(url,tooltip,null );;
end
start
note right
constructor Url(Stringurl,Stringtooltip,Stringlabel)
end note
:url=StringUtils.eventuallyRemoveStartingAndEndingDoubleQuote(url,
"\"");;
:this.url=url;;
if (tooltip==null ) then (yes) 
:this.tooltip=url;;
else (no)
:this.tooltip=BackSlash.manageNewLine(tooltip);;
endif 
if (label==null ||label.length()==0) then (yes) 
:this.label=url;;
else (no)
:this.label=label;;
endif 
end
start
note right
booleanisLatex(StringpendingUrl)
end note
:return pendingUrl.startsWith("latex://");;
stop
end
start
note right
booleanisLatex()
end note
:return isLatex(url);;
stop
end
start
note right
StringgetUrl()
end note
:return url;;
stop
end
start
note right
StringgetTooltip()
end note
:return tooltip;;
stop
end
start
note right
StringgetLabel()
end note
:return label;;
stop
end
start
note right
StringtoString()
end note
:return super .toString()+" "+url+" "+visible.getCoords(1.0);;
stop
end
start
note right
StringgetCoords(doublescale)
end note
if (DotMaker2.isJunit()&&visible.getCoords(1.0).contains("0,0,0,0")) then (yes) 
:throw new IllegalStateException(toString());;
stop
endif 
:return visible.getCoords(scale);;
stop
end
start
note right
void setMember(booleanmember)
end note
:this.member=member;;
end
start
note right
booleanisMember()
end note
:return member;;
stop
end
start
note right
void ensureVisible(doublex,doubley)
end note
:visible.ensureVisible(x,y);;
end
start
note right
booleanhasData()
end note
:return visible.hasData();;
stop
end
@enduml

PlantUML version 1.2022.7(Mon Aug 22 17:01:30 UTC 2022)
(GPL source distribution)
Java Runtime: OpenJDK Runtime Environment
JVM: OpenJDK 64-Bit Server VM
Default Encoding: UTF-8
Language: en
Country: null
--></g></svg>