<?xml version="1.0" encoding="UTF-8" standalone="no"?><svg xmlns="http://www.w3.org/2000/svg" xmlns:xlink="http://www.w3.org/1999/xlink" contentStyleType="text/css" height="2306px" preserveAspectRatio="none" style="width:735px;height:2306px;background:#FFFFFF;" version="1.1" viewBox="0 0 735 2306" width="735px" zoomAndPan="magnify"><defs/><g><path d="M376.5,10 L376.5,18.5664 L356.5,22.5664 L376.5,26.5664 L376.5,35.1328 A0,0 0 0 0 376.5,35.1328 L517.5,35.1328 A0,0 0 0 0 517.5,35.1328 L517.5,20 L507.5,10 L376.5,10 A0,0 0 0 0 376.5,10 " fill="#FEFFDD" style="stroke:#181818;stroke-width:0.5;"/><path d="M507.5,10 L507.5,20 L517.5,20 L507.5,10 " fill="#FEFFDD" style="stroke:#181818;stroke-width:0.5;"/><text fill="#000000" font-family="sans-serif" font-size="13" lengthAdjust="spacing" textLength="120" x="382.5" y="27.0669">String getRegexp()</text><ellipse cx="346.5" cy="22.5664" fill="#222222" rx="10" ry="10" style="stroke:#222222;stroke-width:1.0;"/><rect fill="#F1F1F1" height="47.9375" rx="12.5" ry="12.5" style="stroke:#181818;stroke-width:0.5;" width="574" x="59.5" y="55.1328"/><text fill="#000000" font-family="sans-serif" font-size="12" lengthAdjust="spacing" textLength="460" x="69.5" y="76.2715">return S_QUOTED+"|"+S_ONLY_TOOLTIP+"|"+S_ONLY_TOOLTIP_AND_LABEL+</text><text fill="#000000" font-family="sans-serif" font-size="12" lengthAdjust="spacing" textLength="554" x="69.5" y="90.2402">"|"+S_LINK_TOOLTIP_NOLABEL+"|"+S_LINK_WITH_OPTIONAL_TOOLTIP_WITH_OPTIONAL_LABEL;</text><ellipse cx="346.5" cy="134.0703" fill="none" rx="11" ry="11" style="stroke:#222222;stroke-width:1.0;"/><ellipse cx="346.5" cy="134.0703" fill="#222222" rx="6" ry="6" style="stroke:#111111;stroke-width:1.0;"/><ellipse cx="346.5" cy="165.0703" fill="none" rx="10" ry="10" style="stroke:#222222;stroke-width:1.5;"/><line style="stroke:#222222;stroke-width:2.5;" x1="340.3128" x2="352.6872" y1="158.8831" y2="171.2575"/><line style="stroke:#222222;stroke-width:2.5;" x1="352.6872" x2="340.3128" y1="158.8831" y2="171.2575"/><path d="M376.5,185.0703 L376.5,193.6367 L356.5,197.6367 L376.5,201.6367 L376.5,210.2031 A0,0 0 0 0 376.5,210.2031 L723.5,210.2031 A0,0 0 0 0 723.5,210.2031 L723.5,195.0703 L713.5,185.0703 L376.5,185.0703 A0,0 0 0 0 376.5,185.0703 " fill="#FEFFDD" style="stroke:#181818;stroke-width:0.5;"/><path d="M713.5,185.0703 L713.5,195.0703 L723.5,195.0703 L713.5,185.0703 " fill="#FEFFDD" style="stroke:#181818;stroke-width:0.5;"/><text fill="#000000" font-family="sans-serif" font-size="13" lengthAdjust="spacing" textLength="326" x="382.5" y="202.1372">constructor UrlBuilder(String topurl,UrlMode mode)</text><ellipse cx="346.5" cy="197.6367" fill="#222222" rx="10" ry="10" style="stroke:#222222;stroke-width:1.0;"/><rect fill="#F1F1F1" height="33.9688" rx="12.5" ry="12.5" style="stroke:#181818;stroke-width:0.5;" width="135" x="279" y="230.2031"/><text fill="#000000" font-family="sans-serif" font-size="12" lengthAdjust="spacing" textLength="115" x="289" y="251.3418">this.topurl=topurl;</text><rect fill="#F1F1F1" height="33.9688" rx="12.5" ry="12.5" style="stroke:#181818;stroke-width:0.5;" width="131" x="281" y="284.1719"/><text fill="#000000" font-family="sans-serif" font-size="12" lengthAdjust="spacing" textLength="111" x="291" y="305.3105">this.mode=mode;</text><ellipse cx="346.5" cy="348.1406" fill="none" rx="10" ry="10" style="stroke:#222222;stroke-width:1.5;"/><line style="stroke:#222222;stroke-width:2.5;" x1="340.3128" x2="352.6872" y1="341.9534" y2="354.3278"/><line style="stroke:#222222;stroke-width:2.5;" x1="352.6872" x2="340.3128" y1="341.9534" y2="354.3278"/><path d="M376.5,368.1406 L376.5,376.707 L356.5,380.707 L376.5,384.707 L376.5,393.2734 A0,0 0 0 0 376.5,393.2734 L517.5,393.2734 A0,0 0 0 0 517.5,393.2734 L517.5,378.1406 L507.5,368.1406 L376.5,368.1406 A0,0 0 0 0 376.5,368.1406 " fill="#FEFFDD" style="stroke:#181818;stroke-width:0.5;"/><path d="M507.5,368.1406 L507.5,378.1406 L517.5,378.1406 L507.5,368.1406 " fill="#FEFFDD" style="stroke:#181818;stroke-width:0.5;"/><text fill="#000000" font-family="sans-serif" font-size="13" lengthAdjust="spacing" textLength="120" x="382.5" y="385.2075">Url getUrl(String s)</text><ellipse cx="346.5" cy="380.707" fill="#222222" rx="10" ry="10" style="stroke:#222222;stroke-width:1.0;"/><rect fill="#F1F1F1" height="33.9688" rx="12.5" ry="12.5" style="stroke:#181818;stroke-width:0.5;" width="98" x="297.5" y="413.2734"/><text fill="#000000" font-family="sans-serif" font-size="12" lengthAdjust="spacing" textLength="78" x="307.5" y="434.4121">Matcher2 m;</text><rect fill="#F1F1F1" height="33.9688" rx="12.5" ry="12.5" style="stroke:#181818;stroke-width:0.5;" width="169" x="262" y="467.2422"/><text fill="#000000" font-family="sans-serif" font-size="12" lengthAdjust="spacing" textLength="149" x="272" y="488.3809">m=QUOTED.matcher(s);</text><rect fill="#F1F1F1" height="47.9375" rx="12.5" ry="12.5" style="stroke:#181818;stroke-width:0.5;" width="337" x="178" y="569.6133"/><text fill="#000000" font-family="sans-serif" font-size="12" lengthAdjust="spacing" textLength="317" x="188" y="590.752">return new Url(withTopUrl(m.group(1)),m.group(2),</text><text fill="#000000" font-family="sans-serif" font-size="12" lengthAdjust="spacing" textLength="79" x="188" y="604.7207">m.group(3));</text><ellipse cx="346.5" cy="650.082" fill="none" rx="11" ry="11" style="stroke:#222222;stroke-width:1.0;"/><ellipse cx="346.5" cy="650.082" fill="#222222" rx="6" ry="6" style="stroke:#111111;stroke-width:1.0;"/><polygon fill="#F1F1F1" points="294,521.2109,399,521.2109,411,533.2109,399,545.2109,294,545.2109,282,533.2109,294,521.2109" style="stroke:#181818;stroke-width:0.5;"/><text fill="#000000" font-family="sans-serif" font-size="11" lengthAdjust="spacing" textLength="20" x="350.5" y="555.4214">yes</text><text fill="#000000" font-family="sans-serif" font-size="11" lengthAdjust="spacing" textLength="105" x="294" y="537.019">matchesOrFind(m)</text><rect fill="#F1F1F1" height="33.9688" rx="12.5" ry="12.5" style="stroke:#181818;stroke-width:0.5;" width="204" x="244.5" y="703.082"/><text fill="#000000" font-family="sans-serif" font-size="12" lengthAdjust="spacing" textLength="184" x="254.5" y="724.2207">m=ONLY_TOOLTIP.matcher(s);</text><rect fill="#F1F1F1" height="33.9688" rx="12.5" ry="12.5" style="stroke:#181818;stroke-width:0.5;" width="237" x="228" y="805.4531"/><text fill="#000000" font-family="sans-serif" font-size="12" lengthAdjust="spacing" textLength="217" x="238" y="826.5918">return new Url("",m.group(1),null );</text><ellipse cx="346.5" cy="878.9375" fill="none" rx="11" ry="11" style="stroke:#222222;stroke-width:1.0;"/><ellipse cx="346.5" cy="878.9375" fill="#222222" rx="6" ry="6" style="stroke:#111111;stroke-width:1.0;"/><polygon fill="#F1F1F1" points="294,757.0508,399,757.0508,411,769.0508,399,781.0508,294,781.0508,282,769.0508,294,757.0508" style="stroke:#181818;stroke-width:0.5;"/><text fill="#000000" font-family="sans-serif" font-size="11" lengthAdjust="spacing" textLength="20" x="350.5" y="791.2612">yes</text><text fill="#000000" font-family="sans-serif" font-size="11" lengthAdjust="spacing" textLength="105" x="294" y="772.8589">matchesOrFind(m)</text><rect fill="#F1F1F1" height="33.9688" rx="12.5" ry="12.5" style="stroke:#181818;stroke-width:0.5;" width="278" x="207.5" y="931.9375"/><text fill="#000000" font-family="sans-serif" font-size="12" lengthAdjust="spacing" textLength="258" x="217.5" y="953.0762">m=ONLY_TOOLTIP_AND_LABEL.matcher(s);</text><rect fill="#F1F1F1" height="33.9688" rx="12.5" ry="12.5" style="stroke:#181818;stroke-width:0.5;" width="281" x="206" y="1034.3086"/><text fill="#000000" font-family="sans-serif" font-size="12" lengthAdjust="spacing" textLength="261" x="216" y="1055.4473">return new Url("",m.group(1),m.group(2));</text><ellipse cx="346.5" cy="1107.793" fill="none" rx="11" ry="11" style="stroke:#222222;stroke-width:1.0;"/><ellipse cx="346.5" cy="1107.793" fill="#222222" rx="6" ry="6" style="stroke:#111111;stroke-width:1.0;"/><polygon fill="#F1F1F1" points="294,985.9063,399,985.9063,411,997.9063,399,1009.9063,294,1009.9063,282,997.9063,294,985.9063" style="stroke:#181818;stroke-width:0.5;"/><text fill="#000000" font-family="sans-serif" font-size="11" lengthAdjust="spacing" textLength="20" x="350.5" y="1020.1167">yes</text><text fill="#000000" font-family="sans-serif" font-size="11" lengthAdjust="spacing" textLength="105" x="294" y="1001.7144">matchesOrFind(m)</text><rect fill="#F1F1F1" height="33.9688" rx="12.5" ry="12.5" style="stroke:#181818;stroke-width:0.5;" width="258" x="217.5" y="1160.793"/><text fill="#000000" font-family="sans-serif" font-size="12" lengthAdjust="spacing" textLength="238" x="227.5" y="1181.9316">m=LINK_TOOLTIP_NOLABEL.matcher(s);</text><rect fill="#F1F1F1" height="47.9375" rx="12.5" ry="12.5" style="stroke:#181818;stroke-width:0.5;" width="337" x="178" y="1263.1641"/><text fill="#000000" font-family="sans-serif" font-size="12" lengthAdjust="spacing" textLength="317" x="188" y="1284.3027">return new Url(withTopUrl(m.group(1)),m.group(2),</text><text fill="#000000" font-family="sans-serif" font-size="12" lengthAdjust="spacing" textLength="35" x="188" y="1298.2715">null );</text><ellipse cx="346.5" cy="1343.6328" fill="none" rx="11" ry="11" style="stroke:#222222;stroke-width:1.0;"/><ellipse cx="346.5" cy="1343.6328" fill="#222222" rx="6" ry="6" style="stroke:#111111;stroke-width:1.0;"/><polygon fill="#F1F1F1" points="294,1214.7617,399,1214.7617,411,1226.7617,399,1238.7617,294,1238.7617,282,1226.7617,294,1214.7617" style="stroke:#181818;stroke-width:0.5;"/><text fill="#000000" font-family="sans-serif" font-size="11" lengthAdjust="spacing" textLength="20" x="350.5" y="1248.9722">yes</text><text fill="#000000" font-family="sans-serif" font-size="11" lengthAdjust="spacing" textLength="105" x="294" y="1230.5698">matchesOrFind(m)</text><rect fill="#F1F1F1" height="33.9688" rx="12.5" ry="12.5" style="stroke:#181818;stroke-width:0.5;" width="442" x="125.5" y="1396.6328"/><text fill="#000000" font-family="sans-serif" font-size="12" lengthAdjust="spacing" textLength="422" x="135.5" y="1417.7715">m=LINK_WITH_OPTIONAL_TOOLTIP_WITH_OPTIONAL_LABEL.matcher(s);</text><rect fill="#F1F1F1" height="47.9375" rx="12.5" ry="12.5" style="stroke:#181818;stroke-width:0.5;" width="337" x="178" y="1499.0039"/><text fill="#000000" font-family="sans-serif" font-size="12" lengthAdjust="spacing" textLength="317" x="188" y="1520.1426">return new Url(withTopUrl(m.group(1)),m.group(2),</text><text fill="#000000" font-family="sans-serif" font-size="12" lengthAdjust="spacing" textLength="79" x="188" y="1534.1113">m.group(3));</text><ellipse cx="346.5" cy="1579.4727" fill="none" rx="11" ry="11" style="stroke:#222222;stroke-width:1.0;"/><ellipse cx="346.5" cy="1579.4727" fill="#222222" rx="6" ry="6" style="stroke:#111111;stroke-width:1.0;"/><polygon fill="#F1F1F1" points="294,1450.6016,399,1450.6016,411,1462.6016,399,1474.6016,294,1474.6016,282,1462.6016,294,1450.6016" style="stroke:#181818;stroke-width:0.5;"/><text fill="#000000" font-family="sans-serif" font-size="11" lengthAdjust="spacing" textLength="20" x="350.5" y="1484.812">yes</text><text fill="#000000" font-family="sans-serif" font-size="11" lengthAdjust="spacing" textLength="105" x="294" y="1466.4097">matchesOrFind(m)</text><rect fill="#F1F1F1" height="33.9688" rx="12.5" ry="12.5" style="stroke:#181818;stroke-width:0.5;" width="93" x="300" y="1632.4727"/><text fill="#000000" font-family="sans-serif" font-size="12" lengthAdjust="spacing" textLength="73" x="310" y="1653.6113">return null ;</text><ellipse cx="346.5" cy="1697.4414" fill="none" rx="11" ry="11" style="stroke:#222222;stroke-width:1.0;"/><ellipse cx="346.5" cy="1697.4414" fill="#222222" rx="6" ry="6" style="stroke:#111111;stroke-width:1.0;"/><ellipse cx="346.5" cy="1728.4414" fill="none" rx="10" ry="10" style="stroke:#222222;stroke-width:1.5;"/><line style="stroke:#222222;stroke-width:2.5;" x1="340.3128" x2="352.6872" y1="1722.2542" y2="1734.6286"/><line style="stroke:#222222;stroke-width:2.5;" x1="352.6872" x2="340.3128" y1="1722.2542" y2="1734.6286"/><path d="M376.5,1748.4414 L376.5,1757.0078 L356.5,1761.0078 L376.5,1765.0078 L376.5,1773.5742 A0,0 0 0 0 376.5,1773.5742 L636.5,1773.5742 A0,0 0 0 0 636.5,1773.5742 L636.5,1758.4414 L626.5,1748.4414 L376.5,1748.4414 A0,0 0 0 0 376.5,1748.4414 " fill="#FEFFDD" style="stroke:#181818;stroke-width:0.5;"/><path d="M626.5,1748.4414 L626.5,1758.4414 L636.5,1758.4414 L626.5,1748.4414 " fill="#FEFFDD" style="stroke:#181818;stroke-width:0.5;"/><text fill="#000000" font-family="sans-serif" font-size="13" lengthAdjust="spacing" textLength="239" x="382.5" y="1765.5083">boolean matchesOrFind(Matcher2 m)</text><ellipse cx="346.5" cy="1761.0078" fill="#222222" rx="10" ry="10" style="stroke:#222222;stroke-width:1.0;"/><polygon fill="#F1F1F1" points="48,1793.5742,188,1793.5742,200,1805.5742,188,1817.5742,48,1817.5742,36,1805.5742,48,1793.5742" style="stroke:#181818;stroke-width:0.5;"/><text fill="#000000" font-family="sans-serif" font-size="11" lengthAdjust="spacing" textLength="20" x="122" y="1827.7847">yes</text><text fill="#000000" font-family="sans-serif" font-size="11" lengthAdjust="spacing" textLength="140" x="48" y="1809.3823">mode==UrlMode.STRICT</text><rect fill="#F1F1F1" height="33.9688" rx="12.5" ry="12.5" style="stroke:#181818;stroke-width:0.5;" width="146" x="45" y="1850.3789"/><text fill="#000000" font-family="sans-serif" font-size="12" lengthAdjust="spacing" textLength="126" x="55" y="1871.5176">return m.matches();</text><ellipse cx="118" cy="1918.75" fill="none" rx="11" ry="11" style="stroke:#222222;stroke-width:1.0;"/><ellipse cx="118" cy="1918.75" fill="#222222" rx="6" ry="6" style="stroke:#111111;stroke-width:1.0;"/><polygon fill="#F1F1F1" points="232,1793.5742,392,1793.5742,404,1805.5742,392,1817.5742,232,1817.5742,220,1805.5742,232,1793.5742" style="stroke:#181818;stroke-width:0.5;"/><text fill="#000000" font-family="sans-serif" font-size="11" lengthAdjust="spacing" textLength="20" x="316" y="1827.7847">yes</text><text fill="#000000" font-family="sans-serif" font-size="11" lengthAdjust="spacing" textLength="160" x="232" y="1809.3823">mode==UrlMode.ANYWHERE</text><text fill="#000000" font-family="sans-serif" font-size="11" lengthAdjust="spacing" textLength="14" x="404" y="1802.98">no</text><rect fill="#F1F1F1" height="33.9688" rx="12.5" ry="12.5" style="stroke:#181818;stroke-width:0.5;" width="115" x="254.5" y="1850.3789"/><text fill="#000000" font-family="sans-serif" font-size="12" lengthAdjust="spacing" textLength="95" x="264.5" y="1871.5176">return m.find();</text><ellipse cx="312" cy="1918.75" fill="none" rx="11" ry="11" style="stroke:#222222;stroke-width:1.0;"/><ellipse cx="312" cy="1918.75" fill="#222222" rx="6" ry="6" style="stroke:#111111;stroke-width:1.0;"/><rect fill="#F1F1F1" height="33.9688" rx="12.5" ry="12.5" style="stroke:#181818;stroke-width:0.5;" width="233" x="424" y="1846.9766"/><text fill="#000000" font-family="sans-serif" font-size="12" lengthAdjust="spacing" textLength="213" x="434" y="1868.1152">throw new IllegalStateException();</text><ellipse cx="540.5" cy="1915.3477" fill="none" rx="11" ry="11" style="stroke:#222222;stroke-width:1.0;"/><ellipse cx="540.5" cy="1915.3477" fill="#222222" rx="6" ry="6" style="stroke:#111111;stroke-width:1.0;"/><ellipse cx="346.5" cy="1949.75" fill="none" rx="10" ry="10" style="stroke:#222222;stroke-width:1.5;"/><line style="stroke:#222222;stroke-width:2.5;" x1="340.3128" x2="352.6872" y1="1943.5628" y2="1955.9372"/><line style="stroke:#222222;stroke-width:2.5;" x1="352.6872" x2="340.3128" y1="1943.5628" y2="1955.9372"/><path d="M376.5,1969.75 L376.5,1978.3164 L356.5,1982.3164 L376.5,1986.3164 L376.5,1994.8828 A0,0 0 0 0 376.5,1994.8828 L573.5,1994.8828 A0,0 0 0 0 573.5,1994.8828 L573.5,1979.75 L563.5,1969.75 L376.5,1969.75 A0,0 0 0 0 376.5,1969.75 " fill="#FEFFDD" style="stroke:#181818;stroke-width:0.5;"/><path d="M563.5,1969.75 L563.5,1979.75 L573.5,1979.75 L563.5,1969.75 " fill="#FEFFDD" style="stroke:#181818;stroke-width:0.5;"/><text fill="#000000" font-family="sans-serif" font-size="13" lengthAdjust="spacing" textLength="176" x="382.5" y="1986.8169">String withTopUrl(String url)</text><ellipse cx="346.5" cy="1982.3164" fill="#222222" rx="10" ry="10" style="stroke:#222222;stroke-width:1.0;"/><rect fill="#F1F1F1" height="33.9688" rx="12.5" ry="12.5" style="stroke:#181818;stroke-width:0.5;" width="130" x="281.5" y="2063.2852"/><text fill="#000000" font-family="sans-serif" font-size="12" lengthAdjust="spacing" textLength="110" x="291.5" y="2084.4238">return topurl+url;</text><ellipse cx="346.5" cy="2136.7695" fill="none" rx="11" ry="11" style="stroke:#222222;stroke-width:1.0;"/><ellipse cx="346.5" cy="2136.7695" fill="#222222" rx="6" ry="6" style="stroke:#111111;stroke-width:1.0;"/><polygon fill="#F1F1F1" points="32,2014.8828,661,2014.8828,673,2026.8828,661,2038.8828,32,2038.8828,20,2026.8828,32,2014.8828" style="stroke:#181818;stroke-width:0.5;"/><text fill="#000000" font-family="sans-serif" font-size="11" lengthAdjust="spacing" textLength="20" x="350.5" y="2049.0933">yes</text><text fill="#000000" font-family="sans-serif" font-size="11" lengthAdjust="spacing" textLength="625" x="32" y="2030.6909">url.startsWith("http:")==false&amp;&amp;url.startsWith("https:")==false&amp;&amp;url.startsWith("file:")==false&amp;&amp;topurl!=null</text><rect fill="#F1F1F1" height="33.9688" rx="12.5" ry="12.5" style="stroke:#181818;stroke-width:0.5;" width="83" x="305" y="2189.7695"/><text fill="#000000" font-family="sans-serif" font-size="12" lengthAdjust="spacing" textLength="63" x="315" y="2210.9082">return url;</text><ellipse cx="346.5" cy="2254.7383" fill="none" rx="11" ry="11" style="stroke:#222222;stroke-width:1.0;"/><ellipse cx="346.5" cy="2254.7383" fill="#222222" rx="6" ry="6" style="stroke:#111111;stroke-width:1.0;"/><ellipse cx="346.5" cy="2285.7383" fill="none" rx="10" ry="10" style="stroke:#222222;stroke-width:1.5;"/><line style="stroke:#222222;stroke-width:2.5;" x1="340.3128" x2="352.6872" y1="2279.5511" y2="2291.9255"/><line style="stroke:#222222;stroke-width:2.5;" x1="352.6872" x2="340.3128" y1="2279.5511" y2="2291.9255"/><line style="stroke:#181818;stroke-width:1.0;" x1="346.5" x2="346.5" y1="32.5664" y2="55.1328"/><polygon fill="#181818" points="342.5,45.1328,346.5,55.1328,350.5,45.1328,346.5,49.1328" style="stroke:#181818;stroke-width:1.0;"/><line style="stroke:#181818;stroke-width:1.0;" x1="346.5" x2="346.5" y1="103.0703" y2="123.0703"/><polygon fill="#181818" points="342.5,113.0703,346.5,123.0703,350.5,113.0703,346.5,117.0703" style="stroke:#181818;stroke-width:1.0;"/><line style="stroke:#181818;stroke-width:1.0;" x1="346.5" x2="346.5" y1="207.6367" y2="230.2031"/><polygon fill="#181818" points="342.5,220.2031,346.5,230.2031,350.5,220.2031,346.5,224.2031" style="stroke:#181818;stroke-width:1.0;"/><line style="stroke:#181818;stroke-width:1.0;" x1="346.5" x2="346.5" y1="264.1719" y2="284.1719"/><polygon fill="#181818" points="342.5,274.1719,346.5,284.1719,350.5,274.1719,346.5,278.1719" style="stroke:#181818;stroke-width:1.0;"/><line style="stroke:#181818;stroke-width:1.0;" x1="346.5" x2="346.5" y1="318.1406" y2="338.1406"/><polygon fill="#181818" points="342.5,328.1406,346.5,338.1406,350.5,328.1406,346.5,332.1406" style="stroke:#181818;stroke-width:1.0;"/><line style="stroke:#181818;stroke-width:1.0;" x1="346.5" x2="346.5" y1="390.707" y2="413.2734"/><polygon fill="#181818" points="342.5,403.2734,346.5,413.2734,350.5,403.2734,346.5,407.2734" style="stroke:#181818;stroke-width:1.0;"/><line style="stroke:#181818;stroke-width:1.0;" x1="346.5" x2="346.5" y1="447.2422" y2="467.2422"/><polygon fill="#181818" points="342.5,457.2422,346.5,467.2422,350.5,457.2422,346.5,461.2422" style="stroke:#181818;stroke-width:1.0;"/><line style="stroke:#181818;stroke-width:1.0;" x1="346.5" x2="346.5" y1="617.5508" y2="639.082"/><polygon fill="#181818" points="342.5,629.082,346.5,639.082,350.5,629.082,346.5,633.082" style="stroke:#181818;stroke-width:1.0;"/><line style="stroke:#181818;stroke-width:1.0;" x1="346.5" x2="346.5" y1="545.2109" y2="569.6133"/><polygon fill="#181818" points="342.5,559.6133,346.5,569.6133,350.5,559.6133,346.5,563.6133" style="stroke:#181818;stroke-width:1.0;"/><line style="stroke:#181818;stroke-width:1.0;" x1="411" x2="525" y1="533.2109" y2="533.2109"/><polygon fill="#181818" points="521,609.082,525,619.082,529,609.082,525,613.082" style="stroke:#181818;stroke-width:1.0;"/><line style="stroke:#181818;stroke-width:1.0;" x1="525" x2="525" y1="533.2109" y2="683.082"/><line style="stroke:#181818;stroke-width:1.0;" x1="525" x2="346.5" y1="683.082" y2="683.082"/><line style="stroke:#181818;stroke-width:1.0;" x1="346.5" x2="346.5" y1="683.082" y2="703.082"/><polygon fill="#181818" points="342.5,693.082,346.5,703.082,350.5,693.082,346.5,697.082" style="stroke:#181818;stroke-width:1.0;"/><line style="stroke:#181818;stroke-width:1.0;" x1="346.5" x2="346.5" y1="501.2109" y2="521.2109"/><polygon fill="#181818" points="342.5,511.2109,346.5,521.2109,350.5,511.2109,346.5,515.2109" style="stroke:#181818;stroke-width:1.0;"/><line style="stroke:#181818;stroke-width:1.0;" x1="346.5" x2="346.5" y1="839.4219" y2="867.9375"/><polygon fill="#181818" points="342.5,857.9375,346.5,867.9375,350.5,857.9375,346.5,861.9375" style="stroke:#181818;stroke-width:1.0;"/><line style="stroke:#181818;stroke-width:1.0;" x1="346.5" x2="346.5" y1="781.0508" y2="805.4531"/><polygon fill="#181818" points="342.5,795.4531,346.5,805.4531,350.5,795.4531,346.5,799.4531" style="stroke:#181818;stroke-width:1.0;"/><line style="stroke:#181818;stroke-width:1.0;" x1="411" x2="475" y1="769.0508" y2="769.0508"/><polygon fill="#181818" points="471,837.9375,475,847.9375,479,837.9375,475,841.9375" style="stroke:#181818;stroke-width:1.0;"/><line style="stroke:#181818;stroke-width:1.0;" x1="475" x2="475" y1="769.0508" y2="911.9375"/><line style="stroke:#181818;stroke-width:1.0;" x1="475" x2="346.5" y1="911.9375" y2="911.9375"/><line style="stroke:#181818;stroke-width:1.0;" x1="346.5" x2="346.5" y1="911.9375" y2="931.9375"/><polygon fill="#181818" points="342.5,921.9375,346.5,931.9375,350.5,921.9375,346.5,925.9375" style="stroke:#181818;stroke-width:1.0;"/><line style="stroke:#181818;stroke-width:1.0;" x1="346.5" x2="346.5" y1="737.0508" y2="757.0508"/><polygon fill="#181818" points="342.5,747.0508,346.5,757.0508,350.5,747.0508,346.5,751.0508" style="stroke:#181818;stroke-width:1.0;"/><line style="stroke:#181818;stroke-width:1.0;" x1="346.5" x2="346.5" y1="1068.2773" y2="1096.793"/><polygon fill="#181818" points="342.5,1086.793,346.5,1096.793,350.5,1086.793,346.5,1090.793" style="stroke:#181818;stroke-width:1.0;"/><line style="stroke:#181818;stroke-width:1.0;" x1="346.5" x2="346.5" y1="1009.9063" y2="1034.3086"/><polygon fill="#181818" points="342.5,1024.3086,346.5,1034.3086,350.5,1024.3086,346.5,1028.3086" style="stroke:#181818;stroke-width:1.0;"/><line style="stroke:#181818;stroke-width:1.0;" x1="411" x2="497" y1="997.9063" y2="997.9063"/><polygon fill="#181818" points="493,1066.793,497,1076.793,501,1066.793,497,1070.793" style="stroke:#181818;stroke-width:1.0;"/><line style="stroke:#181818;stroke-width:1.0;" x1="497" x2="497" y1="997.9063" y2="1140.793"/><line style="stroke:#181818;stroke-width:1.0;" x1="497" x2="346.5" y1="1140.793" y2="1140.793"/><line style="stroke:#181818;stroke-width:1.0;" x1="346.5" x2="346.5" y1="1140.793" y2="1160.793"/><polygon fill="#181818" points="342.5,1150.793,346.5,1160.793,350.5,1150.793,346.5,1154.793" style="stroke:#181818;stroke-width:1.0;"/><line style="stroke:#181818;stroke-width:1.0;" x1="346.5" x2="346.5" y1="965.9063" y2="985.9063"/><polygon fill="#181818" points="342.5,975.9063,346.5,985.9063,350.5,975.9063,346.5,979.9063" style="stroke:#181818;stroke-width:1.0;"/><line style="stroke:#181818;stroke-width:1.0;" x1="346.5" x2="346.5" y1="1311.1016" y2="1332.6328"/><polygon fill="#181818" points="342.5,1322.6328,346.5,1332.6328,350.5,1322.6328,346.5,1326.6328" style="stroke:#181818;stroke-width:1.0;"/><line style="stroke:#181818;stroke-width:1.0;" x1="346.5" x2="346.5" y1="1238.7617" y2="1263.1641"/><polygon fill="#181818" points="342.5,1253.1641,346.5,1263.1641,350.5,1253.1641,346.5,1257.1641" style="stroke:#181818;stroke-width:1.0;"/><line style="stroke:#181818;stroke-width:1.0;" x1="411" x2="525" y1="1226.7617" y2="1226.7617"/><polygon fill="#181818" points="521,1302.6328,525,1312.6328,529,1302.6328,525,1306.6328" style="stroke:#181818;stroke-width:1.0;"/><line style="stroke:#181818;stroke-width:1.0;" x1="525" x2="525" y1="1226.7617" y2="1376.6328"/><line style="stroke:#181818;stroke-width:1.0;" x1="525" x2="346.5" y1="1376.6328" y2="1376.6328"/><line style="stroke:#181818;stroke-width:1.0;" x1="346.5" x2="346.5" y1="1376.6328" y2="1396.6328"/><polygon fill="#181818" points="342.5,1386.6328,346.5,1396.6328,350.5,1386.6328,346.5,1390.6328" style="stroke:#181818;stroke-width:1.0;"/><line style="stroke:#181818;stroke-width:1.0;" x1="346.5" x2="346.5" y1="1194.7617" y2="1214.7617"/><polygon fill="#181818" points="342.5,1204.7617,346.5,1214.7617,350.5,1204.7617,346.5,1208.7617" style="stroke:#181818;stroke-width:1.0;"/><line style="stroke:#181818;stroke-width:1.0;" x1="346.5" x2="346.5" y1="1546.9414" y2="1568.4727"/><polygon fill="#181818" points="342.5,1558.4727,346.5,1568.4727,350.5,1558.4727,346.5,1562.4727" style="stroke:#181818;stroke-width:1.0;"/><line style="stroke:#181818;stroke-width:1.0;" x1="346.5" x2="346.5" y1="1474.6016" y2="1499.0039"/><polygon fill="#181818" points="342.5,1489.0039,346.5,1499.0039,350.5,1489.0039,346.5,1493.0039" style="stroke:#181818;stroke-width:1.0;"/><line style="stroke:#181818;stroke-width:1.0;" x1="411" x2="525" y1="1462.6016" y2="1462.6016"/><polygon fill="#181818" points="521,1538.4727,525,1548.4727,529,1538.4727,525,1542.4727" style="stroke:#181818;stroke-width:1.0;"/><line style="stroke:#181818;stroke-width:1.0;" x1="525" x2="525" y1="1462.6016" y2="1612.4727"/><line style="stroke:#181818;stroke-width:1.0;" x1="525" x2="346.5" y1="1612.4727" y2="1612.4727"/><line style="stroke:#181818;stroke-width:1.0;" x1="346.5" x2="346.5" y1="1612.4727" y2="1632.4727"/><polygon fill="#181818" points="342.5,1622.4727,346.5,1632.4727,350.5,1622.4727,346.5,1626.4727" style="stroke:#181818;stroke-width:1.0;"/><line style="stroke:#181818;stroke-width:1.0;" x1="346.5" x2="346.5" y1="1430.6016" y2="1450.6016"/><polygon fill="#181818" points="342.5,1440.6016,346.5,1450.6016,350.5,1440.6016,346.5,1444.6016" style="stroke:#181818;stroke-width:1.0;"/><line style="stroke:#181818;stroke-width:1.0;" x1="346.5" x2="346.5" y1="1666.4414" y2="1686.4414"/><polygon fill="#181818" points="342.5,1676.4414,346.5,1686.4414,350.5,1676.4414,346.5,1680.4414" style="stroke:#181818;stroke-width:1.0;"/><line style="stroke:#181818;stroke-width:1.0;" x1="118" x2="118" y1="1884.3477" y2="1907.75"/><polygon fill="#181818" points="114,1897.75,118,1907.75,122,1897.75,118,1901.75" style="stroke:#181818;stroke-width:1.0;"/><line style="stroke:#181818;stroke-width:1.0;" x1="312" x2="312" y1="1884.3477" y2="1907.75"/><polygon fill="#181818" points="308,1897.75,312,1907.75,316,1897.75,312,1901.75" style="stroke:#181818;stroke-width:1.0;"/><line style="stroke:#181818;stroke-width:1.0;" x1="540.5" x2="540.5" y1="1880.9453" y2="1904.3477"/><polygon fill="#181818" points="536.5,1894.3477,540.5,1904.3477,544.5,1894.3477,540.5,1898.3477" style="stroke:#181818;stroke-width:1.0;"/><line style="stroke:#181818;stroke-width:1.0;" x1="118" x2="118" y1="1817.5742" y2="1850.3789"/><polygon fill="#181818" points="114,1840.3789,118,1850.3789,122,1840.3789,118,1844.3789" style="stroke:#181818;stroke-width:1.0;"/><line style="stroke:#181818;stroke-width:1.0;" x1="312" x2="312" y1="1817.5742" y2="1850.3789"/><polygon fill="#181818" points="308,1840.3789,312,1850.3789,316,1840.3789,312,1844.3789" style="stroke:#181818;stroke-width:1.0;"/><line style="stroke:#181818;stroke-width:1.0;" x1="200" x2="220" y1="1805.5742" y2="1805.5742"/><polygon fill="#181818" points="210,1801.5742,220,1805.5742,210,1809.5742,214,1805.5742" style="stroke:#181818;stroke-width:1.0;"/><line style="stroke:#181818;stroke-width:1.0;" x1="346.5" x2="346.5" y1="1771.0078" y2="1778.5742"/><line style="stroke:#181818;stroke-width:1.0;" x1="346.5" x2="118" y1="1778.5742" y2="1778.5742"/><line style="stroke:#181818;stroke-width:1.0;" x1="118" x2="118" y1="1778.5742" y2="1793.5742"/><polygon fill="#181818" points="114,1783.5742,118,1793.5742,122,1783.5742,118,1787.5742" style="stroke:#181818;stroke-width:1.0;"/><line style="stroke:#181818;stroke-width:1.0;" x1="404" x2="540.5" y1="1805.5742" y2="1805.5742"/><line style="stroke:#181818;stroke-width:1.0;" x1="540.5" x2="540.5" y1="1805.5742" y2="1846.9766"/><polygon fill="#181818" points="536.5,1836.9766,540.5,1846.9766,544.5,1836.9766,540.5,1840.9766" style="stroke:#181818;stroke-width:1.0;"/><line style="stroke:#181818;stroke-width:1.0;" x1="346.5" x2="346.5" y1="2097.2539" y2="2125.7695"/><polygon fill="#181818" points="342.5,2115.7695,346.5,2125.7695,350.5,2115.7695,346.5,2119.7695" style="stroke:#181818;stroke-width:1.0;"/><line style="stroke:#181818;stroke-width:1.0;" x1="346.5" x2="346.5" y1="2038.8828" y2="2063.2852"/><polygon fill="#181818" points="342.5,2053.2852,346.5,2063.2852,350.5,2053.2852,346.5,2057.2852" style="stroke:#181818;stroke-width:1.0;"/><line style="stroke:#181818;stroke-width:1.0;" x1="673" x2="685" y1="2026.8828" y2="2026.8828"/><polygon fill="#181818" points="681,2095.7695,685,2105.7695,689,2095.7695,685,2099.7695" style="stroke:#181818;stroke-width:1.0;"/><line style="stroke:#181818;stroke-width:1.0;" x1="685" x2="685" y1="2026.8828" y2="2169.7695"/><line style="stroke:#181818;stroke-width:1.0;" x1="685" x2="346.5" y1="2169.7695" y2="2169.7695"/><line style="stroke:#181818;stroke-width:1.0;" x1="346.5" x2="346.5" y1="2169.7695" y2="2189.7695"/><polygon fill="#181818" points="342.5,2179.7695,346.5,2189.7695,350.5,2179.7695,346.5,2183.7695" style="stroke:#181818;stroke-width:1.0;"/><line style="stroke:#181818;stroke-width:1.0;" x1="346.5" x2="346.5" y1="1992.3164" y2="2014.8828"/><polygon fill="#181818" points="342.5,2004.8828,346.5,2014.8828,350.5,2004.8828,346.5,2008.8828" style="stroke:#181818;stroke-width:1.0;"/><line style="stroke:#181818;stroke-width:1.0;" x1="346.5" x2="346.5" y1="2223.7383" y2="2243.7383"/><polygon fill="#181818" points="342.5,2233.7383,346.5,2243.7383,350.5,2233.7383,346.5,2237.7383" style="stroke:#181818;stroke-width:1.0;"/><!--MD5=[fb41e19d9087fa05561750733ea7d79b]
@startuml
!pragma layout smetana
start
note right
String getRegexp()
end note
:return S_QUOTED+"|"+S_ONLY_TOOLTIP+"|"+S_ONLY_TOOLTIP_AND_LABEL+
"|"+S_LINK_TOOLTIP_NOLABEL+"|"+S_LINK_WITH_OPTIONAL_TOOLTIP_WITH_OPTIONAL_LABEL;;
stop
end
start
note right
constructor UrlBuilder(String topurl,UrlMode mode)
end note
:this.topurl=topurl;;
:this.mode=mode;;
end
start
note right
Url getUrl(String s)
end note
:Matcher2 m;;
:m=QUOTED.matcher(s);;
if (matchesOrFind(m)) then (yes) 
:return new Url(withTopUrl(m.group(1)),m.group(2),
m.group(3));;
stop
endif 
:m=ONLY_TOOLTIP.matcher(s);;
if (matchesOrFind(m)) then (yes) 
:return new Url("",m.group(1),null );;
stop
endif 
:m=ONLY_TOOLTIP_AND_LABEL.matcher(s);;
if (matchesOrFind(m)) then (yes) 
:return new Url("",m.group(1),m.group(2));;
stop
endif 
:m=LINK_TOOLTIP_NOLABEL.matcher(s);;
if (matchesOrFind(m)) then (yes) 
:return new Url(withTopUrl(m.group(1)),m.group(2),
null );;
stop
endif 
:m=LINK_WITH_OPTIONAL_TOOLTIP_WITH_OPTIONAL_LABEL.matcher(s);;
if (matchesOrFind(m)) then (yes) 
:return new Url(withTopUrl(m.group(1)),m.group(2),
m.group(3));;
stop
endif 
:return null ;;
stop
end
start
note right
boolean matchesOrFind(Matcher2 m)
end note
if (mode==UrlMode.STRICT) then (yes) 
:return m.matches();;
stop
else if (mode==UrlMode.ANYWHERE) then (yes) 
:return m.find();;
stop
else (no)
:throw new IllegalStateException();;
stop
endif 
end
start
note right
String withTopUrl(String url)
end note
if (url.startsWith("http:")==false&&url.startsWith("https:")==false&&url.startsWith("file:")==false&&topurl!=null ) then (yes) 
:return topurl+url;;
stop
endif 
:return url;;
stop
end
@enduml

PlantUML version 1.2022.7(Mon Aug 22 17:01:30 UTC 2022)
(GPL source distribution)
Java Runtime: OpenJDK Runtime Environment
JVM: OpenJDK 64-Bit Server VM
Default Encoding: UTF-8
Language: en
Country: null
--></g></svg>