<?xml version="1.0" encoding="UTF-8" standalone="no"?><svg xmlns="http://www.w3.org/2000/svg" xmlns:xlink="http://www.w3.org/1999/xlink" contentStyleType="text/css" height="2464px" preserveAspectRatio="none" style="width:1363px;height:2464px;background:#FFFFFF;" version="1.1" viewBox="0 0 1363 2464" width="1363px" zoomAndPan="magnify"><defs/><g><path d="M711.5,10 L711.5,18.5664 L691.5,22.5664 L711.5,26.5664 L711.5,35.1328 A0,0 0 0 0 711.5,35.1328 L949.5,35.1328 A0,0 0 0 0 949.5,35.1328 L949.5,20 L939.5,10 L711.5,10 A0,0 0 0 0 711.5,10 " fill="#FEFFDD" style="stroke:#181818;stroke-width:0.5;"/><path d="M939.5,10 L939.5,20 L949.5,20 L939.5,10 " fill="#FEFFDD" style="stroke:#181818;stroke-width:0.5;"/><text fill="#000000" font-family="sans-serif" font-size="13" lengthAdjust="spacing" textLength="217" x="717.5" y="27.0669">IRegex getRegexConcatMultiLine()</text><ellipse cx="681.5" cy="22.5664" fill="#222222" rx="10" ry="10" style="stroke:#222222;stroke-width:1.0;"/><rect fill="#F1F1F1" height="103.8125" rx="12.5" ry="12.5" style="stroke:#181818;stroke-width:0.5;" width="1334" x="14.5" y="55.1328"/><text fill="#000000" font-family="sans-serif" font-size="12" lengthAdjust="spacing" textLength="538" x="24.5" y="76.2715">return RegexConcat.build(FactorySequenceNoteOnArrowCommand.class .getName()+</text><text fill="#000000" font-family="sans-serif" font-size="12" lengthAdjust="spacing" textLength="351" x="24.5" y="90.2402">"multi",RegexLeaf.start(),RegexLeaf.spaceZeroOrMore(),</text><text fill="#000000" font-family="sans-serif" font-size="12" lengthAdjust="spacing" textLength="285" x="24.5" y="104.209">new RegexLeaf("STYLE","(note|hnote|rnote)"),</text><text fill="#000000" font-family="sans-serif" font-size="12" lengthAdjust="spacing" textLength="355" x="24.5" y="118.1777">RegexLeaf.spaceZeroOrMore(),new RegexLeaf("STEREO",</text><text fill="#000000" font-family="sans-serif" font-size="12" lengthAdjust="spacing" textLength="1314" x="24.5" y="132.1465">"(\\&lt;{2}.*\\&gt;{2})?"),RegexLeaf.spaceOneOrMore(),new RegexLeaf("POSITION","(right|left|bottom|top)"),RegexLeaf.spaceZeroOrMore(),ColorParser.exp1(),RegexLeaf.spaceZeroOrMore(),new RegexLeaf("URL","("+</text><text fill="#000000" font-family="sans-serif" font-size="12" lengthAdjust="spacing" textLength="292" x="24.5" y="146.1152">UrlBuilder.getRegexp()+")?"),RegexLeaf.end());</text><ellipse cx="681.5" cy="189.9453" fill="none" rx="11" ry="11" style="stroke:#222222;stroke-width:1.0;"/><ellipse cx="681.5" cy="189.9453" fill="#222222" rx="6" ry="6" style="stroke:#111111;stroke-width:1.0;"/><ellipse cx="681.5" cy="220.9453" fill="none" rx="10" ry="10" style="stroke:#222222;stroke-width:1.5;"/><line style="stroke:#222222;stroke-width:2.5;" x1="675.3128" x2="687.6872" y1="214.7581" y2="227.1325"/><line style="stroke:#222222;stroke-width:2.5;" x1="687.6872" x2="675.3128" y1="214.7581" y2="227.1325"/><path d="M711.5,240.9453 L711.5,249.5117 L691.5,253.5117 L711.5,257.5117 L711.5,266.0781 A0,0 0 0 0 711.5,266.0781 L958.5,266.0781 A0,0 0 0 0 958.5,266.0781 L958.5,250.9453 L948.5,240.9453 L711.5,240.9453 A0,0 0 0 0 711.5,240.9453 " fill="#FEFFDD" style="stroke:#181818;stroke-width:0.5;"/><path d="M948.5,240.9453 L948.5,250.9453 L958.5,250.9453 L948.5,240.9453 " fill="#FEFFDD" style="stroke:#181818;stroke-width:0.5;"/><text fill="#000000" font-family="sans-serif" font-size="13" lengthAdjust="spacing" textLength="226" x="717.5" y="258.0122">IRegex getRegexConcatSingleLine()</text><ellipse cx="681.5" cy="253.5117" fill="#222222" rx="10" ry="10" style="stroke:#222222;stroke-width:1.0;"/><rect fill="#F1F1F1" height="131.75" rx="12.5" ry="12.5" style="stroke:#181818;stroke-width:0.5;" width="1334" x="14.5" y="286.0781"/><text fill="#000000" font-family="sans-serif" font-size="12" lengthAdjust="spacing" textLength="538" x="24.5" y="307.2168">return RegexConcat.build(FactorySequenceNoteOnArrowCommand.class .getName()+</text><text fill="#000000" font-family="sans-serif" font-size="12" lengthAdjust="spacing" textLength="358" x="24.5" y="321.1855">"single",RegexLeaf.start(),RegexLeaf.spaceZeroOrMore(),</text><text fill="#000000" font-family="sans-serif" font-size="12" lengthAdjust="spacing" textLength="285" x="24.5" y="335.1543">new RegexLeaf("STYLE","(note|hnote|rnote)"),</text><text fill="#000000" font-family="sans-serif" font-size="12" lengthAdjust="spacing" textLength="355" x="24.5" y="349.123">RegexLeaf.spaceZeroOrMore(),new RegexLeaf("STEREO",</text><text fill="#000000" font-family="sans-serif" font-size="12" lengthAdjust="spacing" textLength="1314" x="24.5" y="363.0918">"(\\&lt;{2}.*\\&gt;{2})?"),RegexLeaf.spaceOneOrMore(),new RegexLeaf("POSITION","(right|left|bottom|top)"),RegexLeaf.spaceZeroOrMore(),ColorParser.exp1(),RegexLeaf.spaceZeroOrMore(),new RegexLeaf("URL","("+</text><text fill="#000000" font-family="sans-serif" font-size="12" lengthAdjust="spacing" textLength="376" x="24.5" y="377.0605">UrlBuilder.getRegexp()+")?"),RegexLeaf.spaceZeroOrMore(),</text><text fill="#000000" font-family="sans-serif" font-size="12" lengthAdjust="spacing" textLength="316" x="24.5" y="391.0293">new RegexLeaf(":"),RegexLeaf.spaceZeroOrMore(),</text><text fill="#000000" font-family="sans-serif" font-size="12" lengthAdjust="spacing" textLength="295" x="24.5" y="404.998">new RegexLeaf("NOTE","(.*)"),RegexLeaf.end());</text><ellipse cx="681.5" cy="448.8281" fill="none" rx="11" ry="11" style="stroke:#222222;stroke-width:1.0;"/><ellipse cx="681.5" cy="448.8281" fill="#222222" rx="6" ry="6" style="stroke:#111111;stroke-width:1.0;"/><ellipse cx="681.5" cy="479.8281" fill="none" rx="10" ry="10" style="stroke:#222222;stroke-width:1.5;"/><line style="stroke:#222222;stroke-width:2.5;" x1="675.3128" x2="687.6872" y1="473.6409" y2="486.0153"/><line style="stroke:#222222;stroke-width:2.5;" x1="687.6872" x2="675.3128" y1="473.6409" y2="486.0153"/><path d="M711.5,499.8281 L711.5,508.3945 L691.5,512.3945 L711.5,516.3945 L711.5,524.9609 A0,0 0 0 0 711.5,524.9609 L1060.5,524.9609 A0,0 0 0 0 1060.5,524.9609 L1060.5,509.8281 L1050.5,499.8281 L711.5,499.8281 A0,0 0 0 0 711.5,499.8281 " fill="#FEFFDD" style="stroke:#181818;stroke-width:0.5;"/><path d="M1050.5,499.8281 L1050.5,509.8281 L1060.5,509.8281 L1050.5,499.8281 " fill="#FEFFDD" style="stroke:#181818;stroke-width:0.5;"/><text fill="#000000" font-family="sans-serif" font-size="13" lengthAdjust="spacing" textLength="328" x="717.5" y="516.895">Command&lt;SequenceDiagram&gt; createSingleLine()</text><ellipse cx="681.5" cy="512.3945" fill="#222222" rx="10" ry="10" style="stroke:#222222;stroke-width:1.0;"/><rect fill="#F1F1F1" height="75.875" rx="12.5" ry="12.5" style="stroke:#181818;stroke-width:0.5;" width="1132" x="115.5" y="544.9609"/><text fill="#000000" font-family="sans-serif" font-size="12" lengthAdjust="spacing" textLength="1112" x="125.5" y="566.0996">return new SingleLineCommand2&lt;SequenceDiagram &gt;(getRegexConcatSingleLine()){@Override protected CommandExecutionResult executeArg(final SequenceDiagram system,</text><text fill="#000000" font-family="sans-serif" font-size="12" lengthAdjust="spacing" textLength="632" x="125.5" y="580.0684">LineLocation location,RegexResult arg)throws NoSuchColorException{return executeInternal(system,</text><text fill="#000000" font-family="sans-serif" font-size="12" lengthAdjust="spacing" textLength="293" x="125.5" y="594.0371">arg,BlocLines.getWithNewlines(arg.get("NOTE",</text><text fill="#000000" font-family="sans-serif" font-size="12" lengthAdjust="spacing" textLength="47" x="125.5" y="608.0059">0)));}};</text><ellipse cx="681.5" cy="651.8359" fill="none" rx="11" ry="11" style="stroke:#222222;stroke-width:1.0;"/><ellipse cx="681.5" cy="651.8359" fill="#222222" rx="6" ry="6" style="stroke:#111111;stroke-width:1.0;"/><ellipse cx="681.5" cy="682.8359" fill="none" rx="10" ry="10" style="stroke:#222222;stroke-width:1.5;"/><line style="stroke:#222222;stroke-width:2.5;" x1="675.3128" x2="687.6872" y1="676.6488" y2="689.0231"/><line style="stroke:#222222;stroke-width:2.5;" x1="687.6872" x2="675.3128" y1="676.6488" y2="689.0231"/><path d="M711.5,702.8359 L711.5,711.4023 L691.5,715.4023 L711.5,719.4023 L711.5,727.9688 A0,0 0 0 0 711.5,727.9688 L1180.5,727.9688 A0,0 0 0 0 1180.5,727.9688 L1180.5,712.8359 L1170.5,702.8359 L711.5,702.8359 A0,0 0 0 0 711.5,702.8359 " fill="#FEFFDD" style="stroke:#181818;stroke-width:0.5;"/><path d="M1170.5,702.8359 L1170.5,712.8359 L1180.5,712.8359 L1170.5,702.8359 " fill="#FEFFDD" style="stroke:#181818;stroke-width:0.5;"/><text fill="#000000" font-family="sans-serif" font-size="13" lengthAdjust="spacing" textLength="448" x="717.5" y="719.9028">Command&lt;SequenceDiagram&gt; createMultiLine(boolean withBracket)</text><ellipse cx="681.5" cy="715.4023" fill="#222222" rx="10" ry="10" style="stroke:#222222;stroke-width:1.0;"/><rect fill="#F1F1F1" height="89.8438" rx="12.5" ry="12.5" style="stroke:#181818;stroke-width:0.5;" width="1341" x="11" y="747.9688"/><text fill="#000000" font-family="sans-serif" font-size="12" lengthAdjust="spacing" textLength="515" x="21" y="769.1074">return new CommandMultilines2&lt;SequenceDiagram &gt;(getRegexConcatMultiLine(),</text><text fill="#000000" font-family="sans-serif" font-size="12" lengthAdjust="spacing" textLength="1321" x="21" y="783.0762">MultilinesStrategy.KEEP_STARTING_QUOTE,Trim.BOTH){@Override public String getPatternEnd(){return "^[%s]*end[%s]?note$";}protected CommandExecutionResult executeNow(final SequenceDiagram diagram,</text><text fill="#000000" font-family="sans-serif" font-size="12" lengthAdjust="spacing" textLength="1047" x="21" y="797.0449">BlocLines lines)throws NoSuchColorException{final RegexResult line0=getStartingPattern().matcher(lines.getFirst().getTrimmed().getString());lines=lines.subExtract(1,</text><text fill="#000000" font-family="sans-serif" font-size="12" lengthAdjust="spacing" textLength="441" x="21" y="811.0137">1);lines=lines.removeEmptyColumns();return executeInternal(diagram,</text><text fill="#000000" font-family="sans-serif" font-size="12" lengthAdjust="spacing" textLength="92" x="21" y="824.9824">line0,lines);}};</text><ellipse cx="681.5" cy="868.8125" fill="none" rx="11" ry="11" style="stroke:#222222;stroke-width:1.0;"/><ellipse cx="681.5" cy="868.8125" fill="#222222" rx="6" ry="6" style="stroke:#111111;stroke-width:1.0;"/><ellipse cx="681.5" cy="899.8125" fill="none" rx="10" ry="10" style="stroke:#222222;stroke-width:1.5;"/><line style="stroke:#222222;stroke-width:2.5;" x1="675.3128" x2="687.6872" y1="893.6253" y2="905.9997"/><line style="stroke:#222222;stroke-width:2.5;" x1="687.6872" x2="675.3128" y1="893.6253" y2="905.9997"/><path d="M711.5,919.8125 L711.5,935.9453 L691.5,939.9453 L711.5,943.9453 L711.5,960.0781 A0,0 0 0 0 711.5,960.0781 L1188.5,960.0781 A0,0 0 0 0 1188.5,960.0781 L1188.5,929.8125 L1178.5,919.8125 L711.5,919.8125 A0,0 0 0 0 711.5,919.8125 " fill="#FEFFDD" style="stroke:#181818;stroke-width:0.5;"/><path d="M1178.5,919.8125 L1178.5,929.8125 L1188.5,929.8125 L1178.5,919.8125 " fill="#FEFFDD" style="stroke:#181818;stroke-width:0.5;"/><text fill="#000000" font-family="sans-serif" font-size="13" lengthAdjust="spacing" textLength="456" x="717.5" y="936.8794">CommandExecutionResult executeInternal(SequenceDiagram diagram,</text><text fill="#000000" font-family="sans-serif" font-size="13" lengthAdjust="spacing" textLength="244" x="717.5" y="952.0122">final RegexResult line0,BlocLines lines)</text><ellipse cx="681.5" cy="939.9453" fill="#222222" rx="10" ry="10" style="stroke:#222222;stroke-width:1.0;"/><rect fill="#F1F1F1" height="33.9688" rx="12.5" ry="12.5" style="stroke:#181818;stroke-width:0.5;" width="449" x="457" y="980.0781"/><text fill="#000000" font-family="sans-serif" font-size="12" lengthAdjust="spacing" textLength="429" x="467" y="1001.2168">final EventWithDeactivate m=diagram.getLastEventWithDeactivate();</text><rect fill="#F1F1F1" height="47.9375" rx="12.5" ry="12.5" style="stroke:#181818;stroke-width:0.5;" width="617" x="373" y="1082.4492"/><text fill="#000000" font-family="sans-serif" font-size="12" lengthAdjust="spacing" textLength="597" x="383" y="1103.5879">final NotePosition position=NotePosition.valueOf(StringUtils.goUpperCase(line0.get("POSITION",</text><text fill="#000000" font-family="sans-serif" font-size="12" lengthAdjust="spacing" textLength="27" x="383" y="1117.5566">0)));</text><rect fill="#F1F1F1" height="33.9688" rx="12.5" ry="12.5" style="stroke:#181818;stroke-width:0.5;" width="97" x="633" y="1150.3867"/><text fill="#000000" font-family="sans-serif" font-size="12" lengthAdjust="spacing" textLength="77" x="643" y="1171.5254">Url url=null ;</text><rect fill="#F1F1F1" height="47.9375" rx="12.5" ry="12.5" style="stroke:#181818;stroke-width:0.5;" width="550" x="406.5" y="1252.7578"/><text fill="#000000" font-family="sans-serif" font-size="12" lengthAdjust="spacing" textLength="530" x="416.5" y="1273.8965">final UrlBuilder urlBuilder=new UrlBuilder(diagram.getSkinParam().getValue("topurl"),</text><text fill="#000000" font-family="sans-serif" font-size="12" lengthAdjust="spacing" textLength="105" x="416.5" y="1287.8652">UrlMode.STRICT);</text><rect fill="#F1F1F1" height="33.9688" rx="12.5" ry="12.5" style="stroke:#181818;stroke-width:0.5;" width="271" x="546" y="1331.2109"/><text fill="#000000" font-family="sans-serif" font-size="12" lengthAdjust="spacing" textLength="251" x="556" y="1352.3496">url=urlBuilder.getUrl(line0.get("URL",0));</text><polygon fill="#F1F1F1" points="614,1204.3555,749,1204.3555,761,1216.3555,749,1228.3555,614,1228.3555,602,1216.3555,614,1204.3555" style="stroke:#181818;stroke-width:0.5;"/><text fill="#000000" font-family="sans-serif" font-size="11" lengthAdjust="spacing" textLength="20" x="685.5" y="1238.5659">yes</text><text fill="#000000" font-family="sans-serif" font-size="11" lengthAdjust="spacing" textLength="131" x="614" y="1220.1636">line0.get("URL",0)!=null</text><polygon fill="#F1F1F1" points="681.5,1385.1797,693.5,1397.1797,681.5,1409.1797,669.5,1397.1797,681.5,1385.1797" style="stroke:#181818;stroke-width:0.5;"/><rect fill="#F1F1F1" height="47.9375" rx="12.5" ry="12.5" style="stroke:#181818;stroke-width:0.5;" width="413" x="475" y="1429.1797"/><text fill="#000000" font-family="sans-serif" font-size="12" lengthAdjust="spacing" textLength="393" x="485" y="1450.3184">final NoteStyle style=NoteStyle.getNoteStyle(line0.get("STYLE",</text><text fill="#000000" font-family="sans-serif" font-size="12" lengthAdjust="spacing" textLength="22" x="485" y="1464.2871">0));</text><rect fill="#F1F1F1" height="33.9688" rx="12.5" ry="12.5" style="stroke:#181818;stroke-width:0.5;" width="422" x="470.5" y="1497.1172"/><text fill="#000000" font-family="sans-serif" font-size="12" lengthAdjust="spacing" textLength="402" x="480.5" y="1518.2559">final Display display=diagram.manageVariable(lines.toDisplay());</text><rect fill="#F1F1F1" height="33.9688" rx="12.5" ry="12.5" style="stroke:#181818;stroke-width:0.5;" width="301" x="531" y="1551.0859"/><text fill="#000000" font-family="sans-serif" font-size="12" lengthAdjust="spacing" textLength="281" x="541" y="1572.2246">final String backcolor0=line0.get("COLOR",0);</text><rect fill="#F1F1F1" height="47.9375" rx="12.5" ry="12.5" style="stroke:#181818;stroke-width:0.5;" width="450" x="456.5" y="1605.0547"/><text fill="#000000" font-family="sans-serif" font-size="12" lengthAdjust="spacing" textLength="315" x="466.5" y="1626.1934">Colors colors=Colors.empty().add(ColorType.BACK,</text><text fill="#000000" font-family="sans-serif" font-size="12" lengthAdjust="spacing" textLength="430" x="466.5" y="1640.1621">backcolor0==null ? null :HColorSet.instance().getColor(backcolor0));</text><rect fill="#F1F1F1" height="47.9375" rx="12.5" ry="12.5" style="stroke:#181818;stroke-width:0.5;" width="369" x="497" y="1672.9922"/><text fill="#000000" font-family="sans-serif" font-size="12" lengthAdjust="spacing" textLength="268" x="507" y="1694.1309">final Note note=new Note(display,position,</text><text fill="#000000" font-family="sans-serif" font-size="12" lengthAdjust="spacing" textLength="349" x="507" y="1708.0996">style,diagram.getSkinParam().getCurrentStyleBuilder());</text><rect fill="#F1F1F1" height="33.9688" rx="12.5" ry="12.5" style="stroke:#181818;stroke-width:0.5;" width="345" x="509" y="1740.9297"/><text fill="#000000" font-family="sans-serif" font-size="12" lengthAdjust="spacing" textLength="325" x="519" y="1762.0684">final String stereotypeString=line0.get("STEREO",0);</text><rect fill="#F1F1F1" height="33.9688" rx="12.5" ry="12.5" style="stroke:#181818;stroke-width:0.5;" width="423" x="470" y="1843.3008"/><text fill="#000000" font-family="sans-serif" font-size="12" lengthAdjust="spacing" textLength="403" x="480" y="1864.4395">final Stereotype stereotype=Stereotype.build(stereotypeString);</text><rect fill="#F1F1F1" height="61.9063" rx="12.5" ry="12.5" style="stroke:#181818;stroke-width:0.5;" width="360" x="501.5" y="1897.2695"/><text fill="#000000" font-family="sans-serif" font-size="12" lengthAdjust="spacing" textLength="319" x="511.5" y="1918.4082">colors=colors.applyStereotypeForNote(stereotype,</text><text fill="#000000" font-family="sans-serif" font-size="12" lengthAdjust="spacing" textLength="340" x="511.5" y="1932.377">diagram.getSkinParam(),ColorParam.noteBackground,</text><text fill="#000000" font-family="sans-serif" font-size="12" lengthAdjust="spacing" textLength="156" x="511.5" y="1946.3457">ColorParam.noteBorder);</text><rect fill="#F1F1F1" height="33.9688" rx="12.5" ry="12.5" style="stroke:#181818;stroke-width:0.5;" width="224" x="569.5" y="1979.1758"/><text fill="#000000" font-family="sans-serif" font-size="12" lengthAdjust="spacing" textLength="204" x="579.5" y="2000.3145">note.setStereotype(stereotype);</text><polygon fill="#F1F1F1" points="616,1794.8984,747,1794.8984,759,1806.8984,747,1818.8984,616,1818.8984,604,1806.8984,616,1794.8984" style="stroke:#181818;stroke-width:0.5;"/><text fill="#000000" font-family="sans-serif" font-size="11" lengthAdjust="spacing" textLength="20" x="685.5" y="1829.1089">yes</text><text fill="#000000" font-family="sans-serif" font-size="11" lengthAdjust="spacing" textLength="127" x="616" y="1810.7065">stereotypeString!=null</text><polygon fill="#F1F1F1" points="681.5,2033.1445,693.5,2045.1445,681.5,2057.1445,669.5,2045.1445,681.5,2033.1445" style="stroke:#181818;stroke-width:0.5;"/><rect fill="#F1F1F1" height="33.9688" rx="12.5" ry="12.5" style="stroke:#181818;stroke-width:0.5;" width="120" x="621.5" y="2077.1445"/><text fill="#000000" font-family="sans-serif" font-size="12" lengthAdjust="spacing" textLength="100" x="631.5" y="2098.2832">note.setUrl(url);</text><rect fill="#F1F1F1" height="33.9688" rx="12.5" ry="12.5" style="stroke:#181818;stroke-width:0.5;" width="164" x="599.5" y="2131.1133"/><text fill="#000000" font-family="sans-serif" font-size="12" lengthAdjust="spacing" textLength="144" x="609.5" y="2152.252">note.setColors(colors);</text><polygon fill="#F1F1F1" points="591.5,2185.082,771.5,2185.082,783.5,2197.082,771.5,2209.082,591.5,2209.082,579.5,2197.082,591.5,2185.082" style="stroke:#181818;stroke-width:0.5;"/><text fill="#000000" font-family="sans-serif" font-size="11" lengthAdjust="spacing" textLength="176" x="591.5" y="2200.8901">m instanceof AbstractMessage</text><text fill="#000000" font-family="sans-serif" font-size="11" lengthAdjust="spacing" textLength="20" x="559.5" y="2194.4878">yes</text><text fill="#000000" font-family="sans-serif" font-size="11" lengthAdjust="spacing" textLength="14" x="783.5" y="2194.4878">no</text><rect fill="#F1F1F1" height="33.9688" rx="12.5" ry="12.5" style="stroke:#181818;stroke-width:0.5;" width="261" x="417" y="2219.082"/><text fill="#000000" font-family="sans-serif" font-size="12" lengthAdjust="spacing" textLength="241" x="427" y="2240.2207">((AbstractMessage )m).setNote(note);</text><rect fill="#F1F1F1" height="33.9688" rx="12.5" ry="12.5" style="stroke:#181818;stroke-width:0.5;" width="235" x="698" y="2219.082"/><text fill="#000000" font-family="sans-serif" font-size="12" lengthAdjust="spacing" textLength="215" x="708" y="2240.2207">((GroupingLeaf )m).setNote(note);</text><polygon fill="#F1F1F1" points="681.5,2259.0508,693.5,2271.0508,681.5,2283.0508,669.5,2271.0508,681.5,2259.0508" style="stroke:#181818;stroke-width:0.5;"/><polygon fill="#F1F1F1" points="508.5,1034.0469,854.5,1034.0469,866.5,1046.0469,854.5,1058.0469,508.5,1058.0469,496.5,1046.0469,508.5,1034.0469" style="stroke:#181818;stroke-width:0.5;"/><text fill="#000000" font-family="sans-serif" font-size="11" lengthAdjust="spacing" textLength="20" x="685.5" y="1068.2573">yes</text><text fill="#000000" font-family="sans-serif" font-size="11" lengthAdjust="spacing" textLength="342" x="508.5" y="1049.855">m instanceof AbstractMessage ||m instanceof GroupingLeaf</text><polygon fill="#F1F1F1" points="681.5,2303.0508,693.5,2315.0508,681.5,2327.0508,669.5,2315.0508,681.5,2303.0508" style="stroke:#181818;stroke-width:0.5;"/><rect fill="#F1F1F1" height="33.9688" rx="12.5" ry="12.5" style="stroke:#181818;stroke-width:0.5;" width="258" x="552.5" y="2347.0508"/><text fill="#000000" font-family="sans-serif" font-size="12" lengthAdjust="spacing" textLength="238" x="562.5" y="2368.1895">return CommandExecutionResult.ok();</text><ellipse cx="681.5" cy="2412.0195" fill="none" rx="11" ry="11" style="stroke:#222222;stroke-width:1.0;"/><ellipse cx="681.5" cy="2412.0195" fill="#222222" rx="6" ry="6" style="stroke:#111111;stroke-width:1.0;"/><ellipse cx="681.5" cy="2443.0195" fill="none" rx="10" ry="10" style="stroke:#222222;stroke-width:1.5;"/><line style="stroke:#222222;stroke-width:2.5;" x1="675.3128" x2="687.6872" y1="2436.8323" y2="2449.2067"/><line style="stroke:#222222;stroke-width:2.5;" x1="687.6872" x2="675.3128" y1="2436.8323" y2="2449.2067"/><line style="stroke:#181818;stroke-width:1.0;" x1="681.5" x2="681.5" y1="32.5664" y2="55.1328"/><polygon fill="#181818" points="677.5,45.1328,681.5,55.1328,685.5,45.1328,681.5,49.1328" style="stroke:#181818;stroke-width:1.0;"/><line style="stroke:#181818;stroke-width:1.0;" x1="681.5" x2="681.5" y1="158.9453" y2="178.9453"/><polygon fill="#181818" points="677.5,168.9453,681.5,178.9453,685.5,168.9453,681.5,172.9453" style="stroke:#181818;stroke-width:1.0;"/><line style="stroke:#181818;stroke-width:1.0;" x1="681.5" x2="681.5" y1="263.5117" y2="286.0781"/><polygon fill="#181818" points="677.5,276.0781,681.5,286.0781,685.5,276.0781,681.5,280.0781" style="stroke:#181818;stroke-width:1.0;"/><line style="stroke:#181818;stroke-width:1.0;" x1="681.5" x2="681.5" y1="417.8281" y2="437.8281"/><polygon fill="#181818" points="677.5,427.8281,681.5,437.8281,685.5,427.8281,681.5,431.8281" style="stroke:#181818;stroke-width:1.0;"/><line style="stroke:#181818;stroke-width:1.0;" x1="681.5" x2="681.5" y1="522.3945" y2="544.9609"/><polygon fill="#181818" points="677.5,534.9609,681.5,544.9609,685.5,534.9609,681.5,538.9609" style="stroke:#181818;stroke-width:1.0;"/><line style="stroke:#181818;stroke-width:1.0;" x1="681.5" x2="681.5" y1="620.8359" y2="640.8359"/><polygon fill="#181818" points="677.5,630.8359,681.5,640.8359,685.5,630.8359,681.5,634.8359" style="stroke:#181818;stroke-width:1.0;"/><line style="stroke:#181818;stroke-width:1.0;" x1="681.5" x2="681.5" y1="725.4023" y2="747.9688"/><polygon fill="#181818" points="677.5,737.9688,681.5,747.9688,685.5,737.9688,681.5,741.9688" style="stroke:#181818;stroke-width:1.0;"/><line style="stroke:#181818;stroke-width:1.0;" x1="681.5" x2="681.5" y1="837.8125" y2="857.8125"/><polygon fill="#181818" points="677.5,847.8125,681.5,857.8125,685.5,847.8125,681.5,851.8125" style="stroke:#181818;stroke-width:1.0;"/><line style="stroke:#181818;stroke-width:1.0;" x1="681.5" x2="681.5" y1="949.9453" y2="980.0781"/><polygon fill="#181818" points="677.5,970.0781,681.5,980.0781,685.5,970.0781,681.5,974.0781" style="stroke:#181818;stroke-width:1.0;"/><line style="stroke:#181818;stroke-width:1.0;" x1="681.5" x2="681.5" y1="1130.3867" y2="1150.3867"/><polygon fill="#181818" points="677.5,1140.3867,681.5,1150.3867,685.5,1140.3867,681.5,1144.3867" style="stroke:#181818;stroke-width:1.0;"/><line style="stroke:#181818;stroke-width:1.0;" x1="681.5" x2="681.5" y1="1300.6953" y2="1331.2109"/><polygon fill="#181818" points="677.5,1321.2109,681.5,1331.2109,685.5,1321.2109,681.5,1325.2109" style="stroke:#181818;stroke-width:1.0;"/><line style="stroke:#181818;stroke-width:1.0;" x1="681.5" x2="681.5" y1="1228.3555" y2="1252.7578"/><polygon fill="#181818" points="677.5,1242.7578,681.5,1252.7578,685.5,1242.7578,681.5,1246.7578" style="stroke:#181818;stroke-width:1.0;"/><line style="stroke:#181818;stroke-width:1.0;" x1="761" x2="966.5" y1="1216.3555" y2="1216.3555"/><polygon fill="#181818" points="962.5,1301.2109,966.5,1311.2109,970.5,1301.2109,966.5,1305.2109" style="stroke:#181818;stroke-width:1.0;"/><line style="stroke:#181818;stroke-width:1.0;" x1="966.5" x2="966.5" y1="1216.3555" y2="1397.1797"/><line style="stroke:#181818;stroke-width:1.0;" x1="966.5" x2="693.5" y1="1397.1797" y2="1397.1797"/><polygon fill="#181818" points="703.5,1393.1797,693.5,1397.1797,703.5,1401.1797,699.5,1397.1797" style="stroke:#181818;stroke-width:1.0;"/><line style="stroke:#181818;stroke-width:1.0;" x1="681.5" x2="681.5" y1="1365.1797" y2="1385.1797"/><polygon fill="#181818" points="677.5,1375.1797,681.5,1385.1797,685.5,1375.1797,681.5,1379.1797" style="stroke:#181818;stroke-width:1.0;"/><line style="stroke:#181818;stroke-width:1.0;" x1="681.5" x2="681.5" y1="1184.3555" y2="1204.3555"/><polygon fill="#181818" points="677.5,1194.3555,681.5,1204.3555,685.5,1194.3555,681.5,1198.3555" style="stroke:#181818;stroke-width:1.0;"/><line style="stroke:#181818;stroke-width:1.0;" x1="681.5" x2="681.5" y1="1409.1797" y2="1429.1797"/><polygon fill="#181818" points="677.5,1419.1797,681.5,1429.1797,685.5,1419.1797,681.5,1423.1797" style="stroke:#181818;stroke-width:1.0;"/><line style="stroke:#181818;stroke-width:1.0;" x1="681.5" x2="681.5" y1="1477.1172" y2="1497.1172"/><polygon fill="#181818" points="677.5,1487.1172,681.5,1497.1172,685.5,1487.1172,681.5,1491.1172" style="stroke:#181818;stroke-width:1.0;"/><line style="stroke:#181818;stroke-width:1.0;" x1="681.5" x2="681.5" y1="1531.0859" y2="1551.0859"/><polygon fill="#181818" points="677.5,1541.0859,681.5,1551.0859,685.5,1541.0859,681.5,1545.0859" style="stroke:#181818;stroke-width:1.0;"/><line style="stroke:#181818;stroke-width:1.0;" x1="681.5" x2="681.5" y1="1585.0547" y2="1605.0547"/><polygon fill="#181818" points="677.5,1595.0547,681.5,1605.0547,685.5,1595.0547,681.5,1599.0547" style="stroke:#181818;stroke-width:1.0;"/><line style="stroke:#181818;stroke-width:1.0;" x1="681.5" x2="681.5" y1="1652.9922" y2="1672.9922"/><polygon fill="#181818" points="677.5,1662.9922,681.5,1672.9922,685.5,1662.9922,681.5,1666.9922" style="stroke:#181818;stroke-width:1.0;"/><line style="stroke:#181818;stroke-width:1.0;" x1="681.5" x2="681.5" y1="1720.9297" y2="1740.9297"/><polygon fill="#181818" points="677.5,1730.9297,681.5,1740.9297,685.5,1730.9297,681.5,1734.9297" style="stroke:#181818;stroke-width:1.0;"/><line style="stroke:#181818;stroke-width:1.0;" x1="681.5" x2="681.5" y1="1877.2695" y2="1897.2695"/><polygon fill="#181818" points="677.5,1887.2695,681.5,1897.2695,685.5,1887.2695,681.5,1891.2695" style="stroke:#181818;stroke-width:1.0;"/><line style="stroke:#181818;stroke-width:1.0;" x1="681.5" x2="681.5" y1="1959.1758" y2="1979.1758"/><polygon fill="#181818" points="677.5,1969.1758,681.5,1979.1758,685.5,1969.1758,681.5,1973.1758" style="stroke:#181818;stroke-width:1.0;"/><line style="stroke:#181818;stroke-width:1.0;" x1="681.5" x2="681.5" y1="1818.8984" y2="1843.3008"/><polygon fill="#181818" points="677.5,1833.3008,681.5,1843.3008,685.5,1833.3008,681.5,1837.3008" style="stroke:#181818;stroke-width:1.0;"/><line style="stroke:#181818;stroke-width:1.0;" x1="759" x2="903" y1="1806.8984" y2="1806.8984"/><polygon fill="#181818" points="899,1918.2227,903,1928.2227,907,1918.2227,903,1922.2227" style="stroke:#181818;stroke-width:1.0;"/><line style="stroke:#181818;stroke-width:1.0;" x1="903" x2="903" y1="1806.8984" y2="2045.1445"/><line style="stroke:#181818;stroke-width:1.0;" x1="903" x2="693.5" y1="2045.1445" y2="2045.1445"/><polygon fill="#181818" points="703.5,2041.1445,693.5,2045.1445,703.5,2049.1445,699.5,2045.1445" style="stroke:#181818;stroke-width:1.0;"/><line style="stroke:#181818;stroke-width:1.0;" x1="681.5" x2="681.5" y1="2013.1445" y2="2033.1445"/><polygon fill="#181818" points="677.5,2023.1445,681.5,2033.1445,685.5,2023.1445,681.5,2027.1445" style="stroke:#181818;stroke-width:1.0;"/><line style="stroke:#181818;stroke-width:1.0;" x1="681.5" x2="681.5" y1="1774.8984" y2="1794.8984"/><polygon fill="#181818" points="677.5,1784.8984,681.5,1794.8984,685.5,1784.8984,681.5,1788.8984" style="stroke:#181818;stroke-width:1.0;"/><line style="stroke:#181818;stroke-width:1.0;" x1="681.5" x2="681.5" y1="2057.1445" y2="2077.1445"/><polygon fill="#181818" points="677.5,2067.1445,681.5,2077.1445,685.5,2067.1445,681.5,2071.1445" style="stroke:#181818;stroke-width:1.0;"/><line style="stroke:#181818;stroke-width:1.0;" x1="681.5" x2="681.5" y1="2111.1133" y2="2131.1133"/><polygon fill="#181818" points="677.5,2121.1133,681.5,2131.1133,685.5,2121.1133,681.5,2125.1133" style="stroke:#181818;stroke-width:1.0;"/><line style="stroke:#181818;stroke-width:1.0;" x1="579.5" x2="547.5" y1="2197.082" y2="2197.082"/><line style="stroke:#181818;stroke-width:1.0;" x1="547.5" x2="547.5" y1="2197.082" y2="2219.082"/><polygon fill="#181818" points="543.5,2209.082,547.5,2219.082,551.5,2209.082,547.5,2213.082" style="stroke:#181818;stroke-width:1.0;"/><line style="stroke:#181818;stroke-width:1.0;" x1="783.5" x2="815.5" y1="2197.082" y2="2197.082"/><line style="stroke:#181818;stroke-width:1.0;" x1="815.5" x2="815.5" y1="2197.082" y2="2219.082"/><polygon fill="#181818" points="811.5,2209.082,815.5,2219.082,819.5,2209.082,815.5,2213.082" style="stroke:#181818;stroke-width:1.0;"/><line style="stroke:#181818;stroke-width:1.0;" x1="547.5" x2="547.5" y1="2253.0508" y2="2271.0508"/><line style="stroke:#181818;stroke-width:1.0;" x1="547.5" x2="669.5" y1="2271.0508" y2="2271.0508"/><polygon fill="#181818" points="659.5,2267.0508,669.5,2271.0508,659.5,2275.0508,663.5,2271.0508" style="stroke:#181818;stroke-width:1.0;"/><line style="stroke:#181818;stroke-width:1.0;" x1="815.5" x2="815.5" y1="2253.0508" y2="2271.0508"/><line style="stroke:#181818;stroke-width:1.0;" x1="815.5" x2="693.5" y1="2271.0508" y2="2271.0508"/><polygon fill="#181818" points="703.5,2267.0508,693.5,2271.0508,703.5,2275.0508,699.5,2271.0508" style="stroke:#181818;stroke-width:1.0;"/><line style="stroke:#181818;stroke-width:1.0;" x1="681.5" x2="681.5" y1="2165.082" y2="2185.082"/><polygon fill="#181818" points="677.5,2175.082,681.5,2185.082,685.5,2175.082,681.5,2179.082" style="stroke:#181818;stroke-width:1.0;"/><line style="stroke:#181818;stroke-width:1.0;" x1="681.5" x2="681.5" y1="1058.0469" y2="1082.4492"/><polygon fill="#181818" points="677.5,1072.4492,681.5,1082.4492,685.5,1072.4492,681.5,1076.4492" style="stroke:#181818;stroke-width:1.0;"/><line style="stroke:#181818;stroke-width:1.0;" x1="866.5" x2="1000" y1="1046.0469" y2="1046.0469"/><polygon fill="#181818" points="996,1670.5078,1000,1680.5078,1004,1670.5078,1000,1674.5078" style="stroke:#181818;stroke-width:1.0;"/><line style="stroke:#181818;stroke-width:1.0;" x1="1000" x2="1000" y1="1046.0469" y2="2315.0508"/><line style="stroke:#181818;stroke-width:1.0;" x1="1000" x2="693.5" y1="2315.0508" y2="2315.0508"/><polygon fill="#181818" points="703.5,2311.0508,693.5,2315.0508,703.5,2319.0508,699.5,2315.0508" style="stroke:#181818;stroke-width:1.0;"/><line style="stroke:#181818;stroke-width:1.0;" x1="681.5" x2="681.5" y1="2283.0508" y2="2303.0508"/><polygon fill="#181818" points="677.5,2293.0508,681.5,2303.0508,685.5,2293.0508,681.5,2297.0508" style="stroke:#181818;stroke-width:1.0;"/><line style="stroke:#181818;stroke-width:1.0;" x1="681.5" x2="681.5" y1="1014.0469" y2="1034.0469"/><polygon fill="#181818" points="677.5,1024.0469,681.5,1034.0469,685.5,1024.0469,681.5,1028.0469" style="stroke:#181818;stroke-width:1.0;"/><line style="stroke:#181818;stroke-width:1.0;" x1="681.5" x2="681.5" y1="2327.0508" y2="2347.0508"/><polygon fill="#181818" points="677.5,2337.0508,681.5,2347.0508,685.5,2337.0508,681.5,2341.0508" style="stroke:#181818;stroke-width:1.0;"/><line style="stroke:#181818;stroke-width:1.0;" x1="681.5" x2="681.5" y1="2381.0195" y2="2401.0195"/><polygon fill="#181818" points="677.5,2391.0195,681.5,2401.0195,685.5,2391.0195,681.5,2395.0195" style="stroke:#181818;stroke-width:1.0;"/><!--MD5=[42924ccb630e0d2b808b5348228b0638]
@startuml
!pragma layout smetana
start
note right
IRegex getRegexConcatMultiLine()
end note
:return RegexConcat.build(FactorySequenceNoteOnArrowCommand.class .getName()+
"multi",RegexLeaf.start(),RegexLeaf.spaceZeroOrMore(),
new RegexLeaf("STYLE","(note|hnote|rnote)"),
RegexLeaf.spaceZeroOrMore(),new RegexLeaf("STEREO",
"(\\<{2}.*\\>{2})?"),RegexLeaf.spaceOneOrMore(),new RegexLeaf("POSITION","(right|left|bottom|top)"),RegexLeaf.spaceZeroOrMore(),ColorParser.exp1(),RegexLeaf.spaceZeroOrMore(),new RegexLeaf("URL","("+
UrlBuilder.getRegexp()+")?"),RegexLeaf.end());;
stop
end
start
note right
IRegex getRegexConcatSingleLine()
end note
:return RegexConcat.build(FactorySequenceNoteOnArrowCommand.class .getName()+
"single",RegexLeaf.start(),RegexLeaf.spaceZeroOrMore(),
new RegexLeaf("STYLE","(note|hnote|rnote)"),
RegexLeaf.spaceZeroOrMore(),new RegexLeaf("STEREO",
"(\\<{2}.*\\>{2})?"),RegexLeaf.spaceOneOrMore(),new RegexLeaf("POSITION","(right|left|bottom|top)"),RegexLeaf.spaceZeroOrMore(),ColorParser.exp1(),RegexLeaf.spaceZeroOrMore(),new RegexLeaf("URL","("+
UrlBuilder.getRegexp()+")?"),RegexLeaf.spaceZeroOrMore(),
new RegexLeaf(":"),RegexLeaf.spaceZeroOrMore(),
new RegexLeaf("NOTE","(.*)"),RegexLeaf.end());;
stop
end
start
note right
Command<SequenceDiagram> createSingleLine()
end note
:return new SingleLineCommand2<SequenceDiagram >(getRegexConcatSingleLine()){@Override protected CommandExecutionResult executeArg(final SequenceDiagram system,
LineLocation location,RegexResult arg)throws NoSuchColorException{return executeInternal(system,
arg,BlocLines.getWithNewlines(arg.get("NOTE",
0)));}};;
stop
end
start
note right
Command<SequenceDiagram> createMultiLine(boolean withBracket)
end note
:return new CommandMultilines2<SequenceDiagram >(getRegexConcatMultiLine(),
MultilinesStrategy.KEEP_STARTING_QUOTE,Trim.BOTH){@Override public String getPatternEnd(){return "^[%s]*end[%s]?note$";}protected CommandExecutionResult executeNow(final SequenceDiagram diagram,
BlocLines lines)throws NoSuchColorException{final RegexResult line0=getStartingPattern().matcher(lines.getFirst().getTrimmed().getString());lines=lines.subExtract(1,
1);lines=lines.removeEmptyColumns();return executeInternal(diagram,
line0,lines);}};;
stop
end
start
note right
CommandExecutionResult executeInternal(SequenceDiagram diagram,
final RegexResult line0,BlocLines lines)
end note
:final EventWithDeactivate m=diagram.getLastEventWithDeactivate();;
if (m instanceof AbstractMessage ||m instanceof GroupingLeaf ) then (yes) 
:final NotePosition position=NotePosition.valueOf(StringUtils.goUpperCase(line0.get("POSITION",
0)));;
:Url url=null ;;
if (line0.get("URL",0)!=null ) then (yes) 
:final UrlBuilder urlBuilder=new UrlBuilder(diagram.getSkinParam().getValue("topurl"),
UrlMode.STRICT);;
:url=urlBuilder.getUrl(line0.get("URL",0));;
endif 
:final NoteStyle style=NoteStyle.getNoteStyle(line0.get("STYLE",
0));;
:final Display display=diagram.manageVariable(lines.toDisplay());;
:final String backcolor0=line0.get("COLOR",0);;
:Colors colors=Colors.empty().add(ColorType.BACK,
backcolor0==null ? null :HColorSet.instance().getColor(backcolor0));;
:final Note note=new Note(display,position,
style,diagram.getSkinParam().getCurrentStyleBuilder());;
:final String stereotypeString=line0.get("STEREO",0);;
if (stereotypeString!=null ) then (yes) 
:final Stereotype stereotype=Stereotype.build(stereotypeString);;
:colors=colors.applyStereotypeForNote(stereotype,
diagram.getSkinParam(),ColorParam.noteBackground,
ColorParam.noteBorder);;
:note.setStereotype(stereotype);;
endif 
:note.setUrl(url);;
:note.setColors(colors);;
if (m instanceof AbstractMessage ) then (yes) 
:((AbstractMessage )m).setNote(note);;
else (no)
:((GroupingLeaf )m).setNote(note);;
endif 
endif 
:return CommandExecutionResult.ok();;
stop
end
@enduml

PlantUML version 1.2022.7(Mon Aug 22 17:01:30 UTC 2022)
(GPL source distribution)
Java Runtime: OpenJDK Runtime Environment
JVM: OpenJDK 64-Bit Server VM
Default Encoding: UTF-8
Language: en
Country: null
--></g></svg>