<?xml version="1.0" encoding="UTF-8" standalone="no"?><svg xmlns="http://www.w3.org/2000/svg" xmlns:xlink="http://www.w3.org/1999/xlink" contentStyleType="text/css" height="2464px" preserveAspectRatio="none" style="width:1356px;height:2464px;background:#FFFFFF;" version="1.1" viewBox="0 0 1356 2464" width="1356px" zoomAndPan="magnify"><defs/><g><path d="M708,10 L708,18.5664 L688,22.5664 L708,26.5664 L708,35.1328 A0,0 0 0 0 708,35.1328 L942,35.1328 A0,0 0 0 0 942,35.1328 L942,20 L932,10 L708,10 A0,0 0 0 0 708,10 " fill="#FEFFDD" style="stroke:#181818;stroke-width:0.5;"/><path d="M932,10 L932,20 L942,20 L932,10 " fill="#FEFFDD" style="stroke:#181818;stroke-width:0.5;"/><text fill="#000000" font-family="sans-serif" font-size="13" lengthAdjust="spacing" textLength="213" x="714" y="27.0669">IRegexgetRegexConcatMultiLine()</text><ellipse cx="678" cy="22.5664" fill="#222222" rx="10" ry="10" style="stroke:#222222;stroke-width:1.0;"/><rect fill="#F1F1F1" height="103.8125" rx="12.5" ry="12.5" style="stroke:#181818;stroke-width:0.5;" width="1334" x="11" y="55.1328"/><text fill="#000000" font-family="sans-serif" font-size="12" lengthAdjust="spacing" textLength="538" x="21" y="76.2715">return RegexConcat.build(FactorySequenceNoteOnArrowCommand.class .getName()+</text><text fill="#000000" font-family="sans-serif" font-size="12" lengthAdjust="spacing" textLength="351" x="21" y="90.2402">"multi",RegexLeaf.start(),RegexLeaf.spaceZeroOrMore(),</text><text fill="#000000" font-family="sans-serif" font-size="12" lengthAdjust="spacing" textLength="285" x="21" y="104.209">new RegexLeaf("STYLE","(note|hnote|rnote)"),</text><text fill="#000000" font-family="sans-serif" font-size="12" lengthAdjust="spacing" textLength="355" x="21" y="118.1777">RegexLeaf.spaceZeroOrMore(),new RegexLeaf("STEREO",</text><text fill="#000000" font-family="sans-serif" font-size="12" lengthAdjust="spacing" textLength="1314" x="21" y="132.1465">"(\\&lt;{2}.*\\&gt;{2})?"),RegexLeaf.spaceOneOrMore(),new RegexLeaf("POSITION","(right|left|bottom|top)"),RegexLeaf.spaceZeroOrMore(),ColorParser.exp1(),RegexLeaf.spaceZeroOrMore(),new RegexLeaf("URL","("+</text><text fill="#000000" font-family="sans-serif" font-size="12" lengthAdjust="spacing" textLength="292" x="21" y="146.1152">UrlBuilder.getRegexp()+")?"),RegexLeaf.end());</text><ellipse cx="678" cy="189.9453" fill="none" rx="11" ry="11" style="stroke:#222222;stroke-width:1.0;"/><ellipse cx="678" cy="189.9453" fill="#222222" rx="6" ry="6" style="stroke:#111111;stroke-width:1.0;"/><ellipse cx="678" cy="220.9453" fill="none" rx="10" ry="10" style="stroke:#222222;stroke-width:1.5;"/><line style="stroke:#222222;stroke-width:2.5;" x1="671.8128" x2="684.1872" y1="214.7581" y2="227.1325"/><line style="stroke:#222222;stroke-width:2.5;" x1="684.1872" x2="671.8128" y1="214.7581" y2="227.1325"/><path d="M708,240.9453 L708,249.5117 L688,253.5117 L708,257.5117 L708,266.0781 A0,0 0 0 0 708,266.0781 L951,266.0781 A0,0 0 0 0 951,266.0781 L951,250.9453 L941,240.9453 L708,240.9453 A0,0 0 0 0 708,240.9453 " fill="#FEFFDD" style="stroke:#181818;stroke-width:0.5;"/><path d="M941,240.9453 L941,250.9453 L951,250.9453 L941,240.9453 " fill="#FEFFDD" style="stroke:#181818;stroke-width:0.5;"/><text fill="#000000" font-family="sans-serif" font-size="13" lengthAdjust="spacing" textLength="222" x="714" y="258.0122">IRegexgetRegexConcatSingleLine()</text><ellipse cx="678" cy="253.5117" fill="#222222" rx="10" ry="10" style="stroke:#222222;stroke-width:1.0;"/><rect fill="#F1F1F1" height="131.75" rx="12.5" ry="12.5" style="stroke:#181818;stroke-width:0.5;" width="1334" x="11" y="286.0781"/><text fill="#000000" font-family="sans-serif" font-size="12" lengthAdjust="spacing" textLength="538" x="21" y="307.2168">return RegexConcat.build(FactorySequenceNoteOnArrowCommand.class .getName()+</text><text fill="#000000" font-family="sans-serif" font-size="12" lengthAdjust="spacing" textLength="358" x="21" y="321.1855">"single",RegexLeaf.start(),RegexLeaf.spaceZeroOrMore(),</text><text fill="#000000" font-family="sans-serif" font-size="12" lengthAdjust="spacing" textLength="285" x="21" y="335.1543">new RegexLeaf("STYLE","(note|hnote|rnote)"),</text><text fill="#000000" font-family="sans-serif" font-size="12" lengthAdjust="spacing" textLength="355" x="21" y="349.123">RegexLeaf.spaceZeroOrMore(),new RegexLeaf("STEREO",</text><text fill="#000000" font-family="sans-serif" font-size="12" lengthAdjust="spacing" textLength="1314" x="21" y="363.0918">"(\\&lt;{2}.*\\&gt;{2})?"),RegexLeaf.spaceOneOrMore(),new RegexLeaf("POSITION","(right|left|bottom|top)"),RegexLeaf.spaceZeroOrMore(),ColorParser.exp1(),RegexLeaf.spaceZeroOrMore(),new RegexLeaf("URL","("+</text><text fill="#000000" font-family="sans-serif" font-size="12" lengthAdjust="spacing" textLength="376" x="21" y="377.0605">UrlBuilder.getRegexp()+")?"),RegexLeaf.spaceZeroOrMore(),</text><text fill="#000000" font-family="sans-serif" font-size="12" lengthAdjust="spacing" textLength="316" x="21" y="391.0293">new RegexLeaf(":"),RegexLeaf.spaceZeroOrMore(),</text><text fill="#000000" font-family="sans-serif" font-size="12" lengthAdjust="spacing" textLength="295" x="21" y="404.998">new RegexLeaf("NOTE","(.*)"),RegexLeaf.end());</text><ellipse cx="678" cy="448.8281" fill="none" rx="11" ry="11" style="stroke:#222222;stroke-width:1.0;"/><ellipse cx="678" cy="448.8281" fill="#222222" rx="6" ry="6" style="stroke:#111111;stroke-width:1.0;"/><ellipse cx="678" cy="479.8281" fill="none" rx="10" ry="10" style="stroke:#222222;stroke-width:1.5;"/><line style="stroke:#222222;stroke-width:2.5;" x1="671.8128" x2="684.1872" y1="473.6409" y2="486.0153"/><line style="stroke:#222222;stroke-width:2.5;" x1="684.1872" x2="671.8128" y1="473.6409" y2="486.0153"/><path d="M708,499.8281 L708,508.3945 L688,512.3945 L708,516.3945 L708,524.9609 A0,0 0 0 0 708,524.9609 L1053,524.9609 A0,0 0 0 0 1053,524.9609 L1053,509.8281 L1043,499.8281 L708,499.8281 A0,0 0 0 0 708,499.8281 " fill="#FEFFDD" style="stroke:#181818;stroke-width:0.5;"/><path d="M1043,499.8281 L1043,509.8281 L1053,509.8281 L1043,499.8281 " fill="#FEFFDD" style="stroke:#181818;stroke-width:0.5;"/><text fill="#000000" font-family="sans-serif" font-size="13" lengthAdjust="spacing" textLength="324" x="714" y="516.895">Command&lt;SequenceDiagram&gt;createSingleLine()</text><ellipse cx="678" cy="512.3945" fill="#222222" rx="10" ry="10" style="stroke:#222222;stroke-width:1.0;"/><rect fill="#F1F1F1" height="75.875" rx="12.5" ry="12.5" style="stroke:#181818;stroke-width:0.5;" width="1120" x="118" y="544.9609"/><text fill="#000000" font-family="sans-serif" font-size="12" lengthAdjust="spacing" textLength="1100" x="128" y="566.0996">return new SingleLineCommand2&lt;SequenceDiagram&gt;(getRegexConcatSingleLine()){@Override protected CommandExecutionResultexecuteArg(final SequenceDiagramsystem,</text><text fill="#000000" font-family="sans-serif" font-size="12" lengthAdjust="spacing" textLength="624" x="128" y="580.0684">LineLocationlocation,RegexResultarg)throws NoSuchColorException{return executeInternal(system,</text><text fill="#000000" font-family="sans-serif" font-size="12" lengthAdjust="spacing" textLength="293" x="128" y="594.0371">arg,BlocLines.getWithNewlines(arg.get("NOTE",</text><text fill="#000000" font-family="sans-serif" font-size="12" lengthAdjust="spacing" textLength="47" x="128" y="608.0059">0)));}};</text><ellipse cx="678" cy="651.8359" fill="none" rx="11" ry="11" style="stroke:#222222;stroke-width:1.0;"/><ellipse cx="678" cy="651.8359" fill="#222222" rx="6" ry="6" style="stroke:#111111;stroke-width:1.0;"/><ellipse cx="678" cy="682.8359" fill="none" rx="10" ry="10" style="stroke:#222222;stroke-width:1.5;"/><line style="stroke:#222222;stroke-width:2.5;" x1="671.8128" x2="684.1872" y1="676.6488" y2="689.0231"/><line style="stroke:#222222;stroke-width:2.5;" x1="684.1872" x2="671.8128" y1="676.6488" y2="689.0231"/><path d="M708,702.8359 L708,711.4023 L688,715.4023 L708,719.4023 L708,727.9688 A0,0 0 0 0 708,727.9688 L1169,727.9688 A0,0 0 0 0 1169,727.9688 L1169,712.8359 L1159,702.8359 L708,702.8359 A0,0 0 0 0 708,702.8359 " fill="#FEFFDD" style="stroke:#181818;stroke-width:0.5;"/><path d="M1159,702.8359 L1159,712.8359 L1169,712.8359 L1159,702.8359 " fill="#FEFFDD" style="stroke:#181818;stroke-width:0.5;"/><text fill="#000000" font-family="sans-serif" font-size="13" lengthAdjust="spacing" textLength="440" x="714" y="719.9028">Command&lt;SequenceDiagram&gt;createMultiLine(booleanwithBracket)</text><ellipse cx="678" cy="715.4023" fill="#222222" rx="10" ry="10" style="stroke:#222222;stroke-width:1.0;"/><rect fill="#F1F1F1" height="89.8438" rx="12.5" ry="12.5" style="stroke:#181818;stroke-width:0.5;" width="1329" x="13.5" y="747.9688"/><text fill="#000000" font-family="sans-serif" font-size="12" lengthAdjust="spacing" textLength="511" x="23.5" y="769.1074">return new CommandMultilines2&lt;SequenceDiagram&gt;(getRegexConcatMultiLine(),</text><text fill="#000000" font-family="sans-serif" font-size="12" lengthAdjust="spacing" textLength="1309" x="23.5" y="783.0762">MultilinesStrategy.KEEP_STARTING_QUOTE,Trim.BOTH){@Override public StringgetPatternEnd(){return "^[%s]*end[%s]?note$";}protected CommandExecutionResultexecuteNow(final SequenceDiagramdiagram,</text><text fill="#000000" font-family="sans-serif" font-size="12" lengthAdjust="spacing" textLength="1039" x="23.5" y="797.0449">BlocLineslines)throws NoSuchColorException{final RegexResultline0=getStartingPattern().matcher(lines.getFirst().getTrimmed().getString());lines=lines.subExtract(1,</text><text fill="#000000" font-family="sans-serif" font-size="12" lengthAdjust="spacing" textLength="441" x="23.5" y="811.0137">1);lines=lines.removeEmptyColumns();return executeInternal(diagram,</text><text fill="#000000" font-family="sans-serif" font-size="12" lengthAdjust="spacing" textLength="92" x="23.5" y="824.9824">line0,lines);}};</text><ellipse cx="678" cy="868.8125" fill="none" rx="11" ry="11" style="stroke:#222222;stroke-width:1.0;"/><ellipse cx="678" cy="868.8125" fill="#222222" rx="6" ry="6" style="stroke:#111111;stroke-width:1.0;"/><ellipse cx="678" cy="899.8125" fill="none" rx="10" ry="10" style="stroke:#222222;stroke-width:1.5;"/><line style="stroke:#222222;stroke-width:2.5;" x1="671.8128" x2="684.1872" y1="893.6253" y2="905.9997"/><line style="stroke:#222222;stroke-width:2.5;" x1="684.1872" x2="671.8128" y1="893.6253" y2="905.9997"/><path d="M708,919.8125 L708,935.9453 L688,939.9453 L708,943.9453 L708,960.0781 A0,0 0 0 0 708,960.0781 L1177,960.0781 A0,0 0 0 0 1177,960.0781 L1177,929.8125 L1167,919.8125 L708,919.8125 A0,0 0 0 0 708,919.8125 " fill="#FEFFDD" style="stroke:#181818;stroke-width:0.5;"/><path d="M1167,919.8125 L1167,929.8125 L1177,929.8125 L1167,919.8125 " fill="#FEFFDD" style="stroke:#181818;stroke-width:0.5;"/><text fill="#000000" font-family="sans-serif" font-size="13" lengthAdjust="spacing" textLength="448" x="714" y="936.8794">CommandExecutionResultexecuteInternal(SequenceDiagramdiagram,</text><text fill="#000000" font-family="sans-serif" font-size="13" lengthAdjust="spacing" textLength="236" x="714" y="952.0122">final RegexResultline0,BlocLineslines)</text><ellipse cx="678" cy="939.9453" fill="#222222" rx="10" ry="10" style="stroke:#222222;stroke-width:1.0;"/><rect fill="#F1F1F1" height="33.9688" rx="12.5" ry="12.5" style="stroke:#181818;stroke-width:0.5;" width="445" x="455.5" y="980.0781"/><text fill="#000000" font-family="sans-serif" font-size="12" lengthAdjust="spacing" textLength="425" x="465.5" y="1001.2168">final EventWithDeactivatem=diagram.getLastEventWithDeactivate();</text><rect fill="#F1F1F1" height="47.9375" rx="12.5" ry="12.5" style="stroke:#181818;stroke-width:0.5;" width="613" x="371.5" y="1082.4492"/><text fill="#000000" font-family="sans-serif" font-size="12" lengthAdjust="spacing" textLength="593" x="381.5" y="1103.5879">final NotePositionposition=NotePosition.valueOf(StringUtils.goUpperCase(line0.get("POSITION",</text><text fill="#000000" font-family="sans-serif" font-size="12" lengthAdjust="spacing" textLength="27" x="381.5" y="1117.5566">0)));</text><rect fill="#F1F1F1" height="33.9688" rx="12.5" ry="12.5" style="stroke:#181818;stroke-width:0.5;" width="93" x="631.5" y="1150.3867"/><text fill="#000000" font-family="sans-serif" font-size="12" lengthAdjust="spacing" textLength="73" x="641.5" y="1171.5254">Urlurl=null ;</text><rect fill="#F1F1F1" height="47.9375" rx="12.5" ry="12.5" style="stroke:#181818;stroke-width:0.5;" width="546" x="405" y="1252.7578"/><text fill="#000000" font-family="sans-serif" font-size="12" lengthAdjust="spacing" textLength="526" x="415" y="1273.8965">final UrlBuilderurlBuilder=new UrlBuilder(diagram.getSkinParam().getValue("topurl"),</text><text fill="#000000" font-family="sans-serif" font-size="12" lengthAdjust="spacing" textLength="105" x="415" y="1287.8652">UrlMode.STRICT);</text><rect fill="#F1F1F1" height="33.9688" rx="12.5" ry="12.5" style="stroke:#181818;stroke-width:0.5;" width="271" x="542.5" y="1331.2109"/><text fill="#000000" font-family="sans-serif" font-size="12" lengthAdjust="spacing" textLength="251" x="552.5" y="1352.3496">url=urlBuilder.getUrl(line0.get("URL",0));</text><polygon fill="#F1F1F1" points="610.5,1204.3555,745.5,1204.3555,757.5,1216.3555,745.5,1228.3555,610.5,1228.3555,598.5,1216.3555,610.5,1204.3555" style="stroke:#181818;stroke-width:0.5;"/><text fill="#000000" font-family="sans-serif" font-size="11" lengthAdjust="spacing" textLength="20" x="682" y="1238.5659">yes</text><text fill="#000000" font-family="sans-serif" font-size="11" lengthAdjust="spacing" textLength="131" x="610.5" y="1220.1636">line0.get("URL",0)!=null</text><polygon fill="#F1F1F1" points="678,1385.1797,690,1397.1797,678,1409.1797,666,1397.1797,678,1385.1797" style="stroke:#181818;stroke-width:0.5;"/><rect fill="#F1F1F1" height="47.9375" rx="12.5" ry="12.5" style="stroke:#181818;stroke-width:0.5;" width="409" x="473.5" y="1429.1797"/><text fill="#000000" font-family="sans-serif" font-size="12" lengthAdjust="spacing" textLength="389" x="483.5" y="1450.3184">final NoteStylestyle=NoteStyle.getNoteStyle(line0.get("STYLE",</text><text fill="#000000" font-family="sans-serif" font-size="12" lengthAdjust="spacing" textLength="22" x="483.5" y="1464.2871">0));</text><rect fill="#F1F1F1" height="33.9688" rx="12.5" ry="12.5" style="stroke:#181818;stroke-width:0.5;" width="418" x="469" y="1497.1172"/><text fill="#000000" font-family="sans-serif" font-size="12" lengthAdjust="spacing" textLength="398" x="479" y="1518.2559">final Displaydisplay=diagram.manageVariable(lines.toDisplay());</text><rect fill="#F1F1F1" height="33.9688" rx="12.5" ry="12.5" style="stroke:#181818;stroke-width:0.5;" width="297" x="529.5" y="1551.0859"/><text fill="#000000" font-family="sans-serif" font-size="12" lengthAdjust="spacing" textLength="277" x="539.5" y="1572.2246">final Stringbackcolor0=line0.get("COLOR",0);</text><rect fill="#F1F1F1" height="47.9375" rx="12.5" ry="12.5" style="stroke:#181818;stroke-width:0.5;" width="450" x="453" y="1605.0547"/><text fill="#000000" font-family="sans-serif" font-size="12" lengthAdjust="spacing" textLength="311" x="463" y="1626.1934">Colorscolors=Colors.empty().add(ColorType.BACK,</text><text fill="#000000" font-family="sans-serif" font-size="12" lengthAdjust="spacing" textLength="430" x="463" y="1640.1621">backcolor0==null ? null :HColorSet.instance().getColor(backcolor0));</text><rect fill="#F1F1F1" height="47.9375" rx="12.5" ry="12.5" style="stroke:#181818;stroke-width:0.5;" width="369" x="493.5" y="1672.9922"/><text fill="#000000" font-family="sans-serif" font-size="12" lengthAdjust="spacing" textLength="264" x="503.5" y="1694.1309">final Notenote=new Note(display,position,</text><text fill="#000000" font-family="sans-serif" font-size="12" lengthAdjust="spacing" textLength="349" x="503.5" y="1708.0996">style,diagram.getSkinParam().getCurrentStyleBuilder());</text><rect fill="#F1F1F1" height="33.9688" rx="12.5" ry="12.5" style="stroke:#181818;stroke-width:0.5;" width="341" x="507.5" y="1740.9297"/><text fill="#000000" font-family="sans-serif" font-size="12" lengthAdjust="spacing" textLength="321" x="517.5" y="1762.0684">final StringstereotypeString=line0.get("STEREO",0);</text><rect fill="#F1F1F1" height="33.9688" rx="12.5" ry="12.5" style="stroke:#181818;stroke-width:0.5;" width="419" x="468.5" y="1843.3008"/><text fill="#000000" font-family="sans-serif" font-size="12" lengthAdjust="spacing" textLength="399" x="478.5" y="1864.4395">final Stereotypestereotype=Stereotype.build(stereotypeString);</text><rect fill="#F1F1F1" height="61.9063" rx="12.5" ry="12.5" style="stroke:#181818;stroke-width:0.5;" width="360" x="498" y="1897.2695"/><text fill="#000000" font-family="sans-serif" font-size="12" lengthAdjust="spacing" textLength="319" x="508" y="1918.4082">colors=colors.applyStereotypeForNote(stereotype,</text><text fill="#000000" font-family="sans-serif" font-size="12" lengthAdjust="spacing" textLength="340" x="508" y="1932.377">diagram.getSkinParam(),ColorParam.noteBackground,</text><text fill="#000000" font-family="sans-serif" font-size="12" lengthAdjust="spacing" textLength="156" x="508" y="1946.3457">ColorParam.noteBorder);</text><rect fill="#F1F1F1" height="33.9688" rx="12.5" ry="12.5" style="stroke:#181818;stroke-width:0.5;" width="224" x="566" y="1979.1758"/><text fill="#000000" font-family="sans-serif" font-size="12" lengthAdjust="spacing" textLength="204" x="576" y="2000.3145">note.setStereotype(stereotype);</text><polygon fill="#F1F1F1" points="612.5,1794.8984,743.5,1794.8984,755.5,1806.8984,743.5,1818.8984,612.5,1818.8984,600.5,1806.8984,612.5,1794.8984" style="stroke:#181818;stroke-width:0.5;"/><text fill="#000000" font-family="sans-serif" font-size="11" lengthAdjust="spacing" textLength="20" x="682" y="1829.1089">yes</text><text fill="#000000" font-family="sans-serif" font-size="11" lengthAdjust="spacing" textLength="127" x="612.5" y="1810.7065">stereotypeString!=null</text><polygon fill="#F1F1F1" points="678,2033.1445,690,2045.1445,678,2057.1445,666,2045.1445,678,2033.1445" style="stroke:#181818;stroke-width:0.5;"/><rect fill="#F1F1F1" height="33.9688" rx="12.5" ry="12.5" style="stroke:#181818;stroke-width:0.5;" width="120" x="618" y="2077.1445"/><text fill="#000000" font-family="sans-serif" font-size="12" lengthAdjust="spacing" textLength="100" x="628" y="2098.2832">note.setUrl(url);</text><rect fill="#F1F1F1" height="33.9688" rx="12.5" ry="12.5" style="stroke:#181818;stroke-width:0.5;" width="164" x="596" y="2131.1133"/><text fill="#000000" font-family="sans-serif" font-size="12" lengthAdjust="spacing" textLength="144" x="606" y="2152.252">note.setColors(colors);</text><polygon fill="#F1F1F1" points="590,2185.082,766,2185.082,778,2197.082,766,2209.082,590,2209.082,578,2197.082,590,2185.082" style="stroke:#181818;stroke-width:0.5;"/><text fill="#000000" font-family="sans-serif" font-size="11" lengthAdjust="spacing" textLength="176" x="590" y="2200.8901">m instanceof AbstractMessage</text><text fill="#000000" font-family="sans-serif" font-size="11" lengthAdjust="spacing" textLength="20" x="558" y="2194.4878">yes</text><text fill="#000000" font-family="sans-serif" font-size="11" lengthAdjust="spacing" textLength="14" x="778" y="2194.4878">no</text><rect fill="#F1F1F1" height="33.9688" rx="12.5" ry="12.5" style="stroke:#181818;stroke-width:0.5;" width="257" x="417.5" y="2219.082"/><text fill="#000000" font-family="sans-serif" font-size="12" lengthAdjust="spacing" textLength="237" x="427.5" y="2240.2207">((AbstractMessage)m).setNote(note);</text><rect fill="#F1F1F1" height="33.9688" rx="12.5" ry="12.5" style="stroke:#181818;stroke-width:0.5;" width="231" x="694.5" y="2219.082"/><text fill="#000000" font-family="sans-serif" font-size="12" lengthAdjust="spacing" textLength="211" x="704.5" y="2240.2207">((GroupingLeaf)m).setNote(note);</text><polygon fill="#F1F1F1" points="678,2259.0508,690,2271.0508,678,2283.0508,666,2271.0508,678,2259.0508" style="stroke:#181818;stroke-width:0.5;"/><polygon fill="#F1F1F1" points="509,1034.0469,847,1034.0469,859,1046.0469,847,1058.0469,509,1058.0469,497,1046.0469,509,1034.0469" style="stroke:#181818;stroke-width:0.5;"/><text fill="#000000" font-family="sans-serif" font-size="11" lengthAdjust="spacing" textLength="20" x="682" y="1068.2573">yes</text><text fill="#000000" font-family="sans-serif" font-size="11" lengthAdjust="spacing" textLength="338" x="509" y="1049.855">m instanceof AbstractMessage||m instanceof GroupingLeaf</text><polygon fill="#F1F1F1" points="678,2303.0508,690,2315.0508,678,2327.0508,666,2315.0508,678,2303.0508" style="stroke:#181818;stroke-width:0.5;"/><rect fill="#F1F1F1" height="33.9688" rx="12.5" ry="12.5" style="stroke:#181818;stroke-width:0.5;" width="258" x="549" y="2347.0508"/><text fill="#000000" font-family="sans-serif" font-size="12" lengthAdjust="spacing" textLength="238" x="559" y="2368.1895">return CommandExecutionResult.ok();</text><ellipse cx="678" cy="2412.0195" fill="none" rx="11" ry="11" style="stroke:#222222;stroke-width:1.0;"/><ellipse cx="678" cy="2412.0195" fill="#222222" rx="6" ry="6" style="stroke:#111111;stroke-width:1.0;"/><ellipse cx="678" cy="2443.0195" fill="none" rx="10" ry="10" style="stroke:#222222;stroke-width:1.5;"/><line style="stroke:#222222;stroke-width:2.5;" x1="671.8128" x2="684.1872" y1="2436.8323" y2="2449.2067"/><line style="stroke:#222222;stroke-width:2.5;" x1="684.1872" x2="671.8128" y1="2436.8323" y2="2449.2067"/><line style="stroke:#181818;stroke-width:1.0;" x1="678" x2="678" y1="32.5664" y2="55.1328"/><polygon fill="#181818" points="674,45.1328,678,55.1328,682,45.1328,678,49.1328" style="stroke:#181818;stroke-width:1.0;"/><line style="stroke:#181818;stroke-width:1.0;" x1="678" x2="678" y1="158.9453" y2="178.9453"/><polygon fill="#181818" points="674,168.9453,678,178.9453,682,168.9453,678,172.9453" style="stroke:#181818;stroke-width:1.0;"/><line style="stroke:#181818;stroke-width:1.0;" x1="678" x2="678" y1="263.5117" y2="286.0781"/><polygon fill="#181818" points="674,276.0781,678,286.0781,682,276.0781,678,280.0781" style="stroke:#181818;stroke-width:1.0;"/><line style="stroke:#181818;stroke-width:1.0;" x1="678" x2="678" y1="417.8281" y2="437.8281"/><polygon fill="#181818" points="674,427.8281,678,437.8281,682,427.8281,678,431.8281" style="stroke:#181818;stroke-width:1.0;"/><line style="stroke:#181818;stroke-width:1.0;" x1="678" x2="678" y1="522.3945" y2="544.9609"/><polygon fill="#181818" points="674,534.9609,678,544.9609,682,534.9609,678,538.9609" style="stroke:#181818;stroke-width:1.0;"/><line style="stroke:#181818;stroke-width:1.0;" x1="678" x2="678" y1="620.8359" y2="640.8359"/><polygon fill="#181818" points="674,630.8359,678,640.8359,682,630.8359,678,634.8359" style="stroke:#181818;stroke-width:1.0;"/><line style="stroke:#181818;stroke-width:1.0;" x1="678" x2="678" y1="725.4023" y2="747.9688"/><polygon fill="#181818" points="674,737.9688,678,747.9688,682,737.9688,678,741.9688" style="stroke:#181818;stroke-width:1.0;"/><line style="stroke:#181818;stroke-width:1.0;" x1="678" x2="678" y1="837.8125" y2="857.8125"/><polygon fill="#181818" points="674,847.8125,678,857.8125,682,847.8125,678,851.8125" style="stroke:#181818;stroke-width:1.0;"/><line style="stroke:#181818;stroke-width:1.0;" x1="678" x2="678" y1="949.9453" y2="980.0781"/><polygon fill="#181818" points="674,970.0781,678,980.0781,682,970.0781,678,974.0781" style="stroke:#181818;stroke-width:1.0;"/><line style="stroke:#181818;stroke-width:1.0;" x1="678" x2="678" y1="1130.3867" y2="1150.3867"/><polygon fill="#181818" points="674,1140.3867,678,1150.3867,682,1140.3867,678,1144.3867" style="stroke:#181818;stroke-width:1.0;"/><line style="stroke:#181818;stroke-width:1.0;" x1="678" x2="678" y1="1300.6953" y2="1331.2109"/><polygon fill="#181818" points="674,1321.2109,678,1331.2109,682,1321.2109,678,1325.2109" style="stroke:#181818;stroke-width:1.0;"/><line style="stroke:#181818;stroke-width:1.0;" x1="678" x2="678" y1="1228.3555" y2="1252.7578"/><polygon fill="#181818" points="674,1242.7578,678,1252.7578,682,1242.7578,678,1246.7578" style="stroke:#181818;stroke-width:1.0;"/><line style="stroke:#181818;stroke-width:1.0;" x1="757.5" x2="961" y1="1216.3555" y2="1216.3555"/><polygon fill="#181818" points="957,1301.2109,961,1311.2109,965,1301.2109,961,1305.2109" style="stroke:#181818;stroke-width:1.0;"/><line style="stroke:#181818;stroke-width:1.0;" x1="961" x2="961" y1="1216.3555" y2="1397.1797"/><line style="stroke:#181818;stroke-width:1.0;" x1="961" x2="690" y1="1397.1797" y2="1397.1797"/><polygon fill="#181818" points="700,1393.1797,690,1397.1797,700,1401.1797,696,1397.1797" style="stroke:#181818;stroke-width:1.0;"/><line style="stroke:#181818;stroke-width:1.0;" x1="678" x2="678" y1="1365.1797" y2="1385.1797"/><polygon fill="#181818" points="674,1375.1797,678,1385.1797,682,1375.1797,678,1379.1797" style="stroke:#181818;stroke-width:1.0;"/><line style="stroke:#181818;stroke-width:1.0;" x1="678" x2="678" y1="1184.3555" y2="1204.3555"/><polygon fill="#181818" points="674,1194.3555,678,1204.3555,682,1194.3555,678,1198.3555" style="stroke:#181818;stroke-width:1.0;"/><line style="stroke:#181818;stroke-width:1.0;" x1="678" x2="678" y1="1409.1797" y2="1429.1797"/><polygon fill="#181818" points="674,1419.1797,678,1429.1797,682,1419.1797,678,1423.1797" style="stroke:#181818;stroke-width:1.0;"/><line style="stroke:#181818;stroke-width:1.0;" x1="678" x2="678" y1="1477.1172" y2="1497.1172"/><polygon fill="#181818" points="674,1487.1172,678,1497.1172,682,1487.1172,678,1491.1172" style="stroke:#181818;stroke-width:1.0;"/><line style="stroke:#181818;stroke-width:1.0;" x1="678" x2="678" y1="1531.0859" y2="1551.0859"/><polygon fill="#181818" points="674,1541.0859,678,1551.0859,682,1541.0859,678,1545.0859" style="stroke:#181818;stroke-width:1.0;"/><line style="stroke:#181818;stroke-width:1.0;" x1="678" x2="678" y1="1585.0547" y2="1605.0547"/><polygon fill="#181818" points="674,1595.0547,678,1605.0547,682,1595.0547,678,1599.0547" style="stroke:#181818;stroke-width:1.0;"/><line style="stroke:#181818;stroke-width:1.0;" x1="678" x2="678" y1="1652.9922" y2="1672.9922"/><polygon fill="#181818" points="674,1662.9922,678,1672.9922,682,1662.9922,678,1666.9922" style="stroke:#181818;stroke-width:1.0;"/><line style="stroke:#181818;stroke-width:1.0;" x1="678" x2="678" y1="1720.9297" y2="1740.9297"/><polygon fill="#181818" points="674,1730.9297,678,1740.9297,682,1730.9297,678,1734.9297" style="stroke:#181818;stroke-width:1.0;"/><line style="stroke:#181818;stroke-width:1.0;" x1="678" x2="678" y1="1877.2695" y2="1897.2695"/><polygon fill="#181818" points="674,1887.2695,678,1897.2695,682,1887.2695,678,1891.2695" style="stroke:#181818;stroke-width:1.0;"/><line style="stroke:#181818;stroke-width:1.0;" x1="678" x2="678" y1="1959.1758" y2="1979.1758"/><polygon fill="#181818" points="674,1969.1758,678,1979.1758,682,1969.1758,678,1973.1758" style="stroke:#181818;stroke-width:1.0;"/><line style="stroke:#181818;stroke-width:1.0;" x1="678" x2="678" y1="1818.8984" y2="1843.3008"/><polygon fill="#181818" points="674,1833.3008,678,1843.3008,682,1833.3008,678,1837.3008" style="stroke:#181818;stroke-width:1.0;"/><line style="stroke:#181818;stroke-width:1.0;" x1="755.5" x2="897.5" y1="1806.8984" y2="1806.8984"/><polygon fill="#181818" points="893.5,1918.2227,897.5,1928.2227,901.5,1918.2227,897.5,1922.2227" style="stroke:#181818;stroke-width:1.0;"/><line style="stroke:#181818;stroke-width:1.0;" x1="897.5" x2="897.5" y1="1806.8984" y2="2045.1445"/><line style="stroke:#181818;stroke-width:1.0;" x1="897.5" x2="690" y1="2045.1445" y2="2045.1445"/><polygon fill="#181818" points="700,2041.1445,690,2045.1445,700,2049.1445,696,2045.1445" style="stroke:#181818;stroke-width:1.0;"/><line style="stroke:#181818;stroke-width:1.0;" x1="678" x2="678" y1="2013.1445" y2="2033.1445"/><polygon fill="#181818" points="674,2023.1445,678,2033.1445,682,2023.1445,678,2027.1445" style="stroke:#181818;stroke-width:1.0;"/><line style="stroke:#181818;stroke-width:1.0;" x1="678" x2="678" y1="1774.8984" y2="1794.8984"/><polygon fill="#181818" points="674,1784.8984,678,1794.8984,682,1784.8984,678,1788.8984" style="stroke:#181818;stroke-width:1.0;"/><line style="stroke:#181818;stroke-width:1.0;" x1="678" x2="678" y1="2057.1445" y2="2077.1445"/><polygon fill="#181818" points="674,2067.1445,678,2077.1445,682,2067.1445,678,2071.1445" style="stroke:#181818;stroke-width:1.0;"/><line style="stroke:#181818;stroke-width:1.0;" x1="678" x2="678" y1="2111.1133" y2="2131.1133"/><polygon fill="#181818" points="674,2121.1133,678,2131.1133,682,2121.1133,678,2125.1133" style="stroke:#181818;stroke-width:1.0;"/><line style="stroke:#181818;stroke-width:1.0;" x1="578" x2="546" y1="2197.082" y2="2197.082"/><line style="stroke:#181818;stroke-width:1.0;" x1="546" x2="546" y1="2197.082" y2="2219.082"/><polygon fill="#181818" points="542,2209.082,546,2219.082,550,2209.082,546,2213.082" style="stroke:#181818;stroke-width:1.0;"/><line style="stroke:#181818;stroke-width:1.0;" x1="778" x2="810" y1="2197.082" y2="2197.082"/><line style="stroke:#181818;stroke-width:1.0;" x1="810" x2="810" y1="2197.082" y2="2219.082"/><polygon fill="#181818" points="806,2209.082,810,2219.082,814,2209.082,810,2213.082" style="stroke:#181818;stroke-width:1.0;"/><line style="stroke:#181818;stroke-width:1.0;" x1="546" x2="546" y1="2253.0508" y2="2271.0508"/><line style="stroke:#181818;stroke-width:1.0;" x1="546" x2="666" y1="2271.0508" y2="2271.0508"/><polygon fill="#181818" points="656,2267.0508,666,2271.0508,656,2275.0508,660,2271.0508" style="stroke:#181818;stroke-width:1.0;"/><line style="stroke:#181818;stroke-width:1.0;" x1="810" x2="810" y1="2253.0508" y2="2271.0508"/><line style="stroke:#181818;stroke-width:1.0;" x1="810" x2="690" y1="2271.0508" y2="2271.0508"/><polygon fill="#181818" points="700,2267.0508,690,2271.0508,700,2275.0508,696,2271.0508" style="stroke:#181818;stroke-width:1.0;"/><line style="stroke:#181818;stroke-width:1.0;" x1="678" x2="678" y1="2165.082" y2="2185.082"/><polygon fill="#181818" points="674,2175.082,678,2185.082,682,2175.082,678,2179.082" style="stroke:#181818;stroke-width:1.0;"/><line style="stroke:#181818;stroke-width:1.0;" x1="678" x2="678" y1="1058.0469" y2="1082.4492"/><polygon fill="#181818" points="674,1072.4492,678,1082.4492,682,1072.4492,678,1076.4492" style="stroke:#181818;stroke-width:1.0;"/><line style="stroke:#181818;stroke-width:1.0;" x1="859" x2="994.5" y1="1046.0469" y2="1046.0469"/><polygon fill="#181818" points="990.5,1670.5078,994.5,1680.5078,998.5,1670.5078,994.5,1674.5078" style="stroke:#181818;stroke-width:1.0;"/><line style="stroke:#181818;stroke-width:1.0;" x1="994.5" x2="994.5" y1="1046.0469" y2="2315.0508"/><line style="stroke:#181818;stroke-width:1.0;" x1="994.5" x2="690" y1="2315.0508" y2="2315.0508"/><polygon fill="#181818" points="700,2311.0508,690,2315.0508,700,2319.0508,696,2315.0508" style="stroke:#181818;stroke-width:1.0;"/><line style="stroke:#181818;stroke-width:1.0;" x1="678" x2="678" y1="2283.0508" y2="2303.0508"/><polygon fill="#181818" points="674,2293.0508,678,2303.0508,682,2293.0508,678,2297.0508" style="stroke:#181818;stroke-width:1.0;"/><line style="stroke:#181818;stroke-width:1.0;" x1="678" x2="678" y1="1014.0469" y2="1034.0469"/><polygon fill="#181818" points="674,1024.0469,678,1034.0469,682,1024.0469,678,1028.0469" style="stroke:#181818;stroke-width:1.0;"/><line style="stroke:#181818;stroke-width:1.0;" x1="678" x2="678" y1="2327.0508" y2="2347.0508"/><polygon fill="#181818" points="674,2337.0508,678,2347.0508,682,2337.0508,678,2341.0508" style="stroke:#181818;stroke-width:1.0;"/><line style="stroke:#181818;stroke-width:1.0;" x1="678" x2="678" y1="2381.0195" y2="2401.0195"/><polygon fill="#181818" points="674,2391.0195,678,2401.0195,682,2391.0195,678,2395.0195" style="stroke:#181818;stroke-width:1.0;"/><!--MD5=[2a13318f67ade8eb811c2e0d01dcd73e]
@startuml
!pragma layout smetana
start
note right
IRegexgetRegexConcatMultiLine()
end note
:return RegexConcat.build(FactorySequenceNoteOnArrowCommand.class .getName()+
"multi",RegexLeaf.start(),RegexLeaf.spaceZeroOrMore(),
new RegexLeaf("STYLE","(note|hnote|rnote)"),
RegexLeaf.spaceZeroOrMore(),new RegexLeaf("STEREO",
"(\\<{2}.*\\>{2})?"),RegexLeaf.spaceOneOrMore(),new RegexLeaf("POSITION","(right|left|bottom|top)"),RegexLeaf.spaceZeroOrMore(),ColorParser.exp1(),RegexLeaf.spaceZeroOrMore(),new RegexLeaf("URL","("+
UrlBuilder.getRegexp()+")?"),RegexLeaf.end());;
stop
end
start
note right
IRegexgetRegexConcatSingleLine()
end note
:return RegexConcat.build(FactorySequenceNoteOnArrowCommand.class .getName()+
"single",RegexLeaf.start(),RegexLeaf.spaceZeroOrMore(),
new RegexLeaf("STYLE","(note|hnote|rnote)"),
RegexLeaf.spaceZeroOrMore(),new RegexLeaf("STEREO",
"(\\<{2}.*\\>{2})?"),RegexLeaf.spaceOneOrMore(),new RegexLeaf("POSITION","(right|left|bottom|top)"),RegexLeaf.spaceZeroOrMore(),ColorParser.exp1(),RegexLeaf.spaceZeroOrMore(),new RegexLeaf("URL","("+
UrlBuilder.getRegexp()+")?"),RegexLeaf.spaceZeroOrMore(),
new RegexLeaf(":"),RegexLeaf.spaceZeroOrMore(),
new RegexLeaf("NOTE","(.*)"),RegexLeaf.end());;
stop
end
start
note right
Command<SequenceDiagram>createSingleLine()
end note
:return new SingleLineCommand2<SequenceDiagram>(getRegexConcatSingleLine()){@Override protected CommandExecutionResultexecuteArg(final SequenceDiagramsystem,
LineLocationlocation,RegexResultarg)throws NoSuchColorException{return executeInternal(system,
arg,BlocLines.getWithNewlines(arg.get("NOTE",
0)));}};;
stop
end
start
note right
Command<SequenceDiagram>createMultiLine(booleanwithBracket)
end note
:return new CommandMultilines2<SequenceDiagram>(getRegexConcatMultiLine(),
MultilinesStrategy.KEEP_STARTING_QUOTE,Trim.BOTH){@Override public StringgetPatternEnd(){return "^[%s]*end[%s]?note$";}protected CommandExecutionResultexecuteNow(final SequenceDiagramdiagram,
BlocLineslines)throws NoSuchColorException{final RegexResultline0=getStartingPattern().matcher(lines.getFirst().getTrimmed().getString());lines=lines.subExtract(1,
1);lines=lines.removeEmptyColumns();return executeInternal(diagram,
line0,lines);}};;
stop
end
start
note right
CommandExecutionResultexecuteInternal(SequenceDiagramdiagram,
final RegexResultline0,BlocLineslines)
end note
:final EventWithDeactivatem=diagram.getLastEventWithDeactivate();;
if (m instanceof AbstractMessage||m instanceof GroupingLeaf) then (yes) 
:final NotePositionposition=NotePosition.valueOf(StringUtils.goUpperCase(line0.get("POSITION",
0)));;
:Urlurl=null ;;
if (line0.get("URL",0)!=null ) then (yes) 
:final UrlBuilderurlBuilder=new UrlBuilder(diagram.getSkinParam().getValue("topurl"),
UrlMode.STRICT);;
:url=urlBuilder.getUrl(line0.get("URL",0));;
endif 
:final NoteStylestyle=NoteStyle.getNoteStyle(line0.get("STYLE",
0));;
:final Displaydisplay=diagram.manageVariable(lines.toDisplay());;
:final Stringbackcolor0=line0.get("COLOR",0);;
:Colorscolors=Colors.empty().add(ColorType.BACK,
backcolor0==null ? null :HColorSet.instance().getColor(backcolor0));;
:final Notenote=new Note(display,position,
style,diagram.getSkinParam().getCurrentStyleBuilder());;
:final StringstereotypeString=line0.get("STEREO",0);;
if (stereotypeString!=null ) then (yes) 
:final Stereotypestereotype=Stereotype.build(stereotypeString);;
:colors=colors.applyStereotypeForNote(stereotype,
diagram.getSkinParam(),ColorParam.noteBackground,
ColorParam.noteBorder);;
:note.setStereotype(stereotype);;
endif 
:note.setUrl(url);;
:note.setColors(colors);;
if (m instanceof AbstractMessage) then (yes) 
:((AbstractMessage)m).setNote(note);;
else (no)
:((GroupingLeaf)m).setNote(note);;
endif 
endif 
:return CommandExecutionResult.ok();;
stop
end
@enduml

PlantUML version 1.2022.7(Mon Aug 22 17:01:30 UTC 2022)
(GPL source distribution)
Java Runtime: OpenJDK Runtime Environment
JVM: OpenJDK 64-Bit Server VM
Default Encoding: UTF-8
Language: en
Country: null
--></g></svg>