<?xml version="1.0" encoding="UTF-8" standalone="no"?><svg xmlns="http://www.w3.org/2000/svg" xmlns:xlink="http://www.w3.org/1999/xlink" contentStyleType="text/css" height="153px" preserveAspectRatio="none" style="width:205px;height:153px;background:#FFFFFF;" version="1.1" viewBox="0 0 205 153" width="205px" zoomAndPan="magnify"><defs/><g><!--MD5=[de5e3ac9c47e5be61e90a04a80699c61]
cluster h--><g id="cluster_h"><path d="M41,63 L52,63 A3.75,3.75 0 0 1 54.5,65.5 L61.5,85.2969 L164,85.2969 A2.5,2.5 0 0 1 166.5,87.7969 L166.5,143.5 A2.5,2.5 0 0 1 164,146 L41,146 A2.5,2.5 0 0 1 38.5,143.5 L38.5,65.5 A2.5,2.5 0 0 1 41,63 " fill="none" style="stroke:#000000;stroke-width:1.5;"/><line style="stroke:#000000;stroke-width:1.5;" x1="38.5" x2="61.5" y1="85.2969" y2="85.2969"/><text fill="#000000" font-family="sans-serif" font-size="14" font-weight="bold" lengthAdjust="spacing" textLength="10" x="42.5" y="77.9951">h</text></g><!--MD5=[67f8d566721c9c1df7c1dd7f91eb57b1]
class UnsupportedStarStruct--><g id="elem_UnsupportedStarStruct"><rect fill="#F1F1F1" height="48" id="UnsupportedStarStruct" rx="2.5" ry="2.5" style="stroke:#181818;stroke-width:0.5;" width="191" x="7" y="6"/><ellipse cx="22" cy="22" fill="#ADD1B2" rx="11" ry="11" style="stroke:#181818;stroke-width:1.0;"/><path d="M24.9688,27.6406 Q24.3906,27.9375 23.75,28.0781 Q23.1094,28.2344 22.4063,28.2344 Q19.9063,28.2344 18.5781,26.5938 Q17.2656,24.9375 17.2656,21.8125 Q17.2656,18.6875 18.5781,17.0313 Q19.9063,15.375 22.4063,15.375 Q23.1094,15.375 23.75,15.5313 Q24.4063,15.6875 24.9688,15.9844 L24.9688,18.7031 Q24.3438,18.125 23.75,17.8594 Q23.1563,17.5781 22.5313,17.5781 Q21.1875,17.5781 20.5,18.6563 Q19.8125,19.7188 19.8125,21.8125 Q19.8125,23.9063 20.5,24.9844 Q21.1875,26.0469 22.5313,26.0469 Q23.1563,26.0469 23.75,25.7813 Q24.3438,25.5 24.9688,24.9219 L24.9688,27.6406 Z " fill="#000000"/><text fill="#000000" font-family="sans-serif" font-size="14" lengthAdjust="spacing" textLength="159" x="36" y="26.8467">UnsupportedStarStruct</text><line style="stroke:#181818;stroke-width:0.5;" x1="8" x2="197" y1="38" y2="38"/><line style="stroke:#181818;stroke-width:0.5;" x1="8" x2="197" y1="46" y2="46"/></g><!--MD5=[af61f66b48133673729a628c572a0546]
class h.ST_Agobj_s--><g id="elem_h.ST_Agobj_s"><rect codeLine="3" fill="#F1F1F1" height="48" id="h.ST_Agobj_s" rx="2.5" ry="2.5" style="stroke:#181818;stroke-width:0.5;" width="111" x="47" y="90"/><ellipse cx="62" cy="106" fill="#ADD1B2" rx="11" ry="11" style="stroke:#181818;stroke-width:1.0;"/><path d="M64.9688,111.6406 Q64.3906,111.9375 63.75,112.0781 Q63.1094,112.2344 62.4063,112.2344 Q59.9063,112.2344 58.5781,110.5938 Q57.2656,108.9375 57.2656,105.8125 Q57.2656,102.6875 58.5781,101.0313 Q59.9063,99.375 62.4063,99.375 Q63.1094,99.375 63.75,99.5313 Q64.4063,99.6875 64.9688,99.9844 L64.9688,102.7031 Q64.3438,102.125 63.75,101.8594 Q63.1563,101.5781 62.5313,101.5781 Q61.1875,101.5781 60.5,102.6563 Q59.8125,103.7188 59.8125,105.8125 Q59.8125,107.9063 60.5,108.9844 Q61.1875,110.0469 62.5313,110.0469 Q63.1563,110.0469 63.75,109.7813 Q64.3438,109.5 64.9688,108.9219 L64.9688,111.6406 Z " fill="#000000"/><text fill="#000000" font-family="sans-serif" font-size="14" lengthAdjust="spacing" textLength="79" x="76" y="110.8467">ST_Agobj_s</text><line style="stroke:#181818;stroke-width:0.5;" x1="48" x2="157" y1="122" y2="122"/><line style="stroke:#181818;stroke-width:0.5;" x1="48" x2="157" y1="130" y2="130"/></g><path d="M102.5,54.2786 C102.5,65.453 102.5,78.8021 102.5,89.947 " fill="none" style="stroke:#181818;stroke-width:1.0;"/><polygon fill="#FFFFFF" points="102.5,54.2786,96.5,70.2786,108.5,70.2786,102.5,54.2786" style="stroke:#181818;stroke-width:1.0;"/><!--MD5=[8951278c378e02feffacb0441c8ba600]
@startuml
!pragma layout smetana
"UnsupportedStarStruct" <|- - "h.ST_Agobj_s"
class h.ST_Agobj_s {
} 
@enduml

PlantUML version 1.2022.7(Mon Aug 22 17:01:30 UTC 2022)
(GPL source distribution)
Java Runtime: OpenJDK Runtime Environment
JVM: OpenJDK 64-Bit Server VM
Default Encoding: UTF-8
Language: en
Country: null
--></g></svg>