<?xml version="1.0" encoding="UTF-8" standalone="no"?><svg xmlns="http://www.w3.org/2000/svg" xmlns:xlink="http://www.w3.org/1999/xlink" contentStyleType="text/css" height="202px" preserveAspectRatio="none" style="width:271px;height:202px;background:#FFFFFF;" version="1.1" viewBox="0 0 271 202" width="271px" zoomAndPan="magnify"><defs/><g><!--MD5=[de5e3ac9c47e5be61e90a04a80699c61]
cluster h--><g id="cluster_h"><path d="M8.5,63 L19.5,63 A3.75,3.75 0 0 1 22,65.5 L29,85.2969 L261.5,85.2969 A2.5,2.5 0 0 1 264,87.7969 L264,192.5 A2.5,2.5 0 0 1 261.5,195 L8.5,195 A2.5,2.5 0 0 1 6,192.5 L6,65.5 A2.5,2.5 0 0 1 8.5,63 " fill="none" style="stroke:#000000;stroke-width:1.5;"/><line style="stroke:#000000;stroke-width:1.5;" x1="6" x2="29" y1="85.2969" y2="85.2969"/><text fill="#000000" font-family="sans-serif" font-size="14" font-weight="bold" lengthAdjust="spacing" textLength="10" x="10" y="77.9951">h</text></g><!--MD5=[67f8d566721c9c1df7c1dd7f91eb57b1]
class UnsupportedStarStruct--><g id="elem_UnsupportedStarStruct"><rect fill="#F1F1F1" height="48" id="UnsupportedStarStruct" rx="2.5" ry="2.5" style="stroke:#181818;stroke-width:0.5;" width="191" x="39.5" y="6"/><ellipse cx="54.5" cy="22" fill="#ADD1B2" rx="11" ry="11" style="stroke:#181818;stroke-width:1.0;"/><path d="M57.4688,27.6406 Q56.8906,27.9375 56.25,28.0781 Q55.6094,28.2344 54.9063,28.2344 Q52.4063,28.2344 51.0781,26.5938 Q49.7656,24.9375 49.7656,21.8125 Q49.7656,18.6875 51.0781,17.0313 Q52.4063,15.375 54.9063,15.375 Q55.6094,15.375 56.25,15.5313 Q56.9063,15.6875 57.4688,15.9844 L57.4688,18.7031 Q56.8438,18.125 56.25,17.8594 Q55.6563,17.5781 55.0313,17.5781 Q53.6875,17.5781 53,18.6563 Q52.3125,19.7188 52.3125,21.8125 Q52.3125,23.9063 53,24.9844 Q53.6875,26.0469 55.0313,26.0469 Q55.6563,26.0469 56.25,25.7813 Q56.8438,25.5 57.4688,24.9219 L57.4688,27.6406 Z " fill="#000000"/><text fill="#000000" font-family="sans-serif" font-size="14" lengthAdjust="spacing" textLength="159" x="68.5" y="26.8467">UnsupportedStarStruct</text><line style="stroke:#181818;stroke-width:0.5;" x1="40.5" x2="229.5" y1="38" y2="38"/><line style="stroke:#181818;stroke-width:0.5;" x1="40.5" x2="229.5" y1="46" y2="46"/></g><!--MD5=[055eb6cf4b8bcde6ddc588fd8bd8aa4d]
class h.ST_Agsym_s--><g id="elem_h.ST_Agsym_s"><rect codeLine="3" fill="#F1F1F1" height="96.8906" id="h.ST_Agsym_s" rx="2.5" ry="2.5" style="stroke:#181818;stroke-width:0.5;" width="241" x="14.5" y="90"/><ellipse cx="87.75" cy="106" fill="#ADD1B2" rx="11" ry="11" style="stroke:#181818;stroke-width:1.0;"/><path d="M90.7188,111.6406 Q90.1406,111.9375 89.5,112.0781 Q88.8594,112.2344 88.1563,112.2344 Q85.6563,112.2344 84.3281,110.5938 Q83.0156,108.9375 83.0156,105.8125 Q83.0156,102.6875 84.3281,101.0313 Q85.6563,99.375 88.1563,99.375 Q88.8594,99.375 89.5,99.5313 Q90.1563,99.6875 90.7188,99.9844 L90.7188,102.7031 Q90.0938,102.125 89.5,101.8594 Q88.9063,101.5781 88.2813,101.5781 Q86.9375,101.5781 86.25,102.6563 Q85.5625,103.7188 85.5625,105.8125 Q85.5625,107.9063 86.25,108.9844 Q86.9375,110.0469 88.2813,110.0469 Q88.9063,110.0469 89.5,109.7813 Q90.0938,109.5 90.7188,108.9219 L90.7188,111.6406 Z " fill="#000000"/><text fill="#000000" font-family="sans-serif" font-size="14" lengthAdjust="spacing" textLength="86" x="108.25" y="110.8467">ST_Agsym_s</text><line style="stroke:#181818;stroke-width:0.5;" x1="15.5" x2="254.5" y1="122" y2="122"/><line style="stroke:#181818;stroke-width:0.5;" x1="15.5" x2="254.5" y1="130" y2="130"/><a href="./../../.././qc/src/h/ST_Agsym_s.java.html#65" target="_top" title="./../../.././qc/src/h/ST_Agsym_s.java.html#65" xlink:actuate="onRequest" xlink:href="./../../.././qc/src/h/ST_Agsym_s.java.html#65" xlink:show="new" xlink:title="./../../.././qc/src/h/ST_Agsym_s.java.html#65" xlink:type="simple"><rect fill="#F1F1F1" height="10" style="stroke:none;stroke-width:1.0;" width="20" x="20.5" y="138.6484"/><ellipse cx="25.5" cy="143.6484" fill="#84BE84" rx="3" ry="3" style="stroke:#038048;stroke-width:1.0;"/></a><a href="./../../.././qc/src/h/ST_Agsym_s.java.html#65" target="_top" title="./../../.././qc/src/h/ST_Agsym_s.java.html#65" xlink:actuate="onRequest" xlink:href="./../../.././qc/src/h/ST_Agsym_s.java.html#65" xlink:show="new" xlink:title="./../../.././qc/src/h/ST_Agsym_s.java.html#65" xlink:type="simple"><text fill="#000000" font-family="sans-serif" font-size="14" lengthAdjust="spacing" textLength="215" x="34.5" y="146.9951">createOFFSET(String) : OFFSET</text></a><a href="./../../.././qc/src/h/ST_Agsym_s.java.html#70" target="_top" title="./../../.././qc/src/h/ST_Agsym_s.java.html#70" xlink:actuate="onRequest" xlink:href="./../../.././qc/src/h/ST_Agsym_s.java.html#70" xlink:show="new" xlink:title="./../../.././qc/src/h/ST_Agsym_s.java.html#70" xlink:type="simple"><rect fill="#F1F1F1" height="10" style="stroke:none;stroke-width:1.0;" width="20" x="20.5" y="154.9453"/><ellipse cx="25.5" cy="159.9453" fill="#84BE84" rx="3" ry="3" style="stroke:#038048;stroke-width:1.0;"/></a><a href="./../../.././qc/src/h/ST_Agsym_s.java.html#70" target="_top" title="./../../.././qc/src/h/ST_Agsym_s.java.html#70" xlink:actuate="onRequest" xlink:href="./../../.././qc/src/h/ST_Agsym_s.java.html#70" xlink:show="new" xlink:title="./../../.././qc/src/h/ST_Agsym_s.java.html#70" xlink:type="simple"><text fill="#000000" font-family="sans-serif" font-size="14" lengthAdjust="spacing" textLength="204" x="34.5" y="163.292">getTheField(OFFSET) : Object</text></a><a href="./../../.././qc/src/h/ST_Agsym_s.java.html#85" target="_top" title="./../../.././qc/src/h/ST_Agsym_s.java.html#85" xlink:actuate="onRequest" xlink:href="./../../.././qc/src/h/ST_Agsym_s.java.html#85" xlink:show="new" xlink:title="./../../.././qc/src/h/ST_Agsym_s.java.html#85" xlink:type="simple"><rect fill="#F1F1F1" height="10" style="stroke:none;stroke-width:1.0;" width="20" x="20.5" y="171.2422"/><ellipse cx="25.5" cy="176.2422" fill="#84BE84" rx="3" ry="3" style="stroke:#038048;stroke-width:1.0;"/></a><a href="./../../.././qc/src/h/ST_Agsym_s.java.html#85" target="_top" title="./../../.././qc/src/h/ST_Agsym_s.java.html#85" xlink:actuate="onRequest" xlink:href="./../../.././qc/src/h/ST_Agsym_s.java.html#85" xlink:show="new" xlink:title="./../../.././qc/src/h/ST_Agsym_s.java.html#85" xlink:type="simple"><text fill="#000000" font-family="sans-serif" font-size="14" lengthAdjust="spacing" textLength="211" x="34.5" y="179.5889">isSameThan(__ptr__) : boolean</text></a></g><path d="M135,54.1089 C135,64.6313 135,77.495 135,89.9394 " fill="none" style="stroke:#181818;stroke-width:1.0;"/><polygon fill="#FFFFFF" points="135,54.1089,129,70.1089,141,70.1089,135,54.1089" style="stroke:#181818;stroke-width:1.0;"/><!--MD5=[095c4c0864b7e6550f573b458a44c9ed]
@startuml
!pragma layout smetana
"UnsupportedStarStruct" <|- - "h.ST_Agsym_s"
class h.ST_Agsym_s {
+createOFFSET(String) : OFFSET [[[./../../.././qc/src/h/ST_Agsym_s.java.html#65]]]
+getTheField(OFFSET) : Object [[[./../../.././qc/src/h/ST_Agsym_s.java.html#70]]]
+isSameThan(__ptr__) : boolean [[[./../../.././qc/src/h/ST_Agsym_s.java.html#85]]]
} 
@enduml

PlantUML version 1.2022.7(Mon Aug 22 17:01:30 UTC 2022)
(GPL source distribution)
Java Runtime: OpenJDK Runtime Environment
JVM: OpenJDK 64-Bit Server VM
Default Encoding: UTF-8
Language: en
Country: null
--></g></svg>