<?xml version="1.0" encoding="UTF-8" standalone="no"?><svg xmlns="http://www.w3.org/2000/svg" xmlns:xlink="http://www.w3.org/1999/xlink" contentStyleType="text/css" height="218px" preserveAspectRatio="none" style="width:205px;height:218px;background:#FFFFFF;" version="1.1" viewBox="0 0 205 218" width="205px" zoomAndPan="magnify"><defs/><g><!--MD5=[de5e3ac9c47e5be61e90a04a80699c61]
cluster h--><g id="cluster_h"><path d="M10,63 L21,63 A3.75,3.75 0 0 1 23.5,65.5 L30.5,85.2969 L195,85.2969 A2.5,2.5 0 0 1 197.5,87.7969 L197.5,208.5 A2.5,2.5 0 0 1 195,211 L10,211 A2.5,2.5 0 0 1 7.5,208.5 L7.5,65.5 A2.5,2.5 0 0 1 10,63 " fill="none" style="stroke:#000000;stroke-width:1.5;"/><line style="stroke:#000000;stroke-width:1.5;" x1="7.5" x2="30.5" y1="85.2969" y2="85.2969"/><text fill="#000000" font-family="sans-serif" font-size="14" font-weight="bold" lengthAdjust="spacing" textLength="10" x="11.5" y="77.9951">h</text></g><!--MD5=[67f8d566721c9c1df7c1dd7f91eb57b1]
class UnsupportedStarStruct--><g id="elem_UnsupportedStarStruct"><rect fill="#F1F1F1" height="48" id="UnsupportedStarStruct" rx="2.5" ry="2.5" style="stroke:#181818;stroke-width:0.5;" width="191" x="7" y="6"/><ellipse cx="22" cy="22" fill="#ADD1B2" rx="11" ry="11" style="stroke:#181818;stroke-width:1.0;"/><path d="M24.9688,27.6406 Q24.3906,27.9375 23.75,28.0781 Q23.1094,28.2344 22.4063,28.2344 Q19.9063,28.2344 18.5781,26.5938 Q17.2656,24.9375 17.2656,21.8125 Q17.2656,18.6875 18.5781,17.0313 Q19.9063,15.375 22.4063,15.375 Q23.1094,15.375 23.75,15.5313 Q24.4063,15.6875 24.9688,15.9844 L24.9688,18.7031 Q24.3438,18.125 23.75,17.8594 Q23.1563,17.5781 22.5313,17.5781 Q21.1875,17.5781 20.5,18.6563 Q19.8125,19.7188 19.8125,21.8125 Q19.8125,23.9063 20.5,24.9844 Q21.1875,26.0469 22.5313,26.0469 Q23.1563,26.0469 23.75,25.7813 Q24.3438,25.5 24.9688,24.9219 L24.9688,27.6406 Z " fill="#000000"/><text fill="#000000" font-family="sans-serif" font-size="14" lengthAdjust="spacing" textLength="159" x="36" y="26.8467">UnsupportedStarStruct</text><line style="stroke:#181818;stroke-width:0.5;" x1="8" x2="197" y1="38" y2="38"/><line style="stroke:#181818;stroke-width:0.5;" x1="8" x2="197" y1="46" y2="46"/></g><!--MD5=[18b3da4e929d110d5bfa6a422744d903]
class h.ST_boxf--><g id="elem_h.ST_boxf"><rect codeLine="3" fill="#F1F1F1" height="113.1875" id="h.ST_boxf" rx="2.5" ry="2.5" style="stroke:#181818;stroke-width:0.5;" width="174" x="15.5" y="90"/><ellipse cx="71.25" cy="106" fill="#ADD1B2" rx="11" ry="11" style="stroke:#181818;stroke-width:1.0;"/><path d="M74.2188,111.6406 Q73.6406,111.9375 73,112.0781 Q72.3594,112.2344 71.6563,112.2344 Q69.1563,112.2344 67.8281,110.5938 Q66.5156,108.9375 66.5156,105.8125 Q66.5156,102.6875 67.8281,101.0313 Q69.1563,99.375 71.6563,99.375 Q72.3594,99.375 73,99.5313 Q73.6563,99.6875 74.2188,99.9844 L74.2188,102.7031 Q73.5938,102.125 73,101.8594 Q72.4063,101.5781 71.7813,101.5781 Q70.4375,101.5781 69.75,102.6563 Q69.0625,103.7188 69.0625,105.8125 Q69.0625,107.9063 69.75,108.9844 Q70.4375,110.0469 71.7813,110.0469 Q72.4063,110.0469 73,109.7813 Q73.5938,109.5 74.2188,108.9219 L74.2188,111.6406 Z " fill="#000000"/><text fill="#000000" font-family="sans-serif" font-size="14" lengthAdjust="spacing" textLength="54" x="91.75" y="110.8467">ST_boxf</text><line style="stroke:#181818;stroke-width:0.5;" x1="16.5" x2="188.5" y1="122" y2="122"/><line style="stroke:#181818;stroke-width:0.5;" x1="16.5" x2="188.5" y1="130" y2="130"/><a href="./../../.././qc/src/h/ST_boxf.java.html#57" target="_top" title="./../../.././qc/src/h/ST_boxf.java.html#57" xlink:actuate="onRequest" xlink:href="./../../.././qc/src/h/ST_boxf.java.html#57" xlink:show="new" xlink:title="./../../.././qc/src/h/ST_boxf.java.html#57" xlink:type="simple"><rect fill="#F1F1F1" height="10" style="stroke:none;stroke-width:1.0;" width="20" x="21.5" y="138.6484"/><ellipse cx="26.5" cy="143.6484" fill="#84BE84" rx="3" ry="3" style="stroke:#038048;stroke-width:1.0;"/></a><a href="./../../.././qc/src/h/ST_boxf.java.html#57" target="_top" title="./../../.././qc/src/h/ST_boxf.java.html#57" xlink:actuate="onRequest" xlink:href="./../../.././qc/src/h/ST_boxf.java.html#57" xlink:show="new" xlink:title="./../../.././qc/src/h/ST_boxf.java.html#57" xlink:type="simple"><text fill="#000000" font-family="sans-serif" font-size="14" lengthAdjust="spacing" textLength="117" x="35.5" y="146.9951">toString() : String</text></a><a href="./../../.././qc/src/h/ST_boxf.java.html#61" target="_top" title="./../../.././qc/src/h/ST_boxf.java.html#61" xlink:actuate="onRequest" xlink:href="./../../.././qc/src/h/ST_boxf.java.html#61" xlink:show="new" xlink:title="./../../.././qc/src/h/ST_boxf.java.html#61" xlink:type="simple"><rect fill="#F1F1F1" height="10" style="stroke:none;stroke-width:1.0;" width="20" x="21.5" y="154.9453"/><ellipse cx="26.5" cy="159.9453" fill="#84BE84" rx="3" ry="3" style="stroke:#038048;stroke-width:1.0;"/></a><a href="./../../.././qc/src/h/ST_boxf.java.html#61" target="_top" title="./../../.././qc/src/h/ST_boxf.java.html#61" xlink:actuate="onRequest" xlink:href="./../../.././qc/src/h/ST_boxf.java.html#61" xlink:show="new" xlink:title="./../../.././qc/src/h/ST_boxf.java.html#61" xlink:type="simple"><text fill="#000000" font-family="sans-serif" font-size="14" lengthAdjust="spacing" textLength="148" x="35.5" y="163.292">malloc(int) : ST_boxf[]</text></a><a href="./../../.././qc/src/h/ST_boxf.java.html#70" target="_top" title="./../../.././qc/src/h/ST_boxf.java.html#70" xlink:actuate="onRequest" xlink:href="./../../.././qc/src/h/ST_boxf.java.html#70" xlink:show="new" xlink:title="./../../.././qc/src/h/ST_boxf.java.html#70" xlink:type="simple"><rect fill="#F1F1F1" height="10" style="stroke:none;stroke-width:1.0;" width="20" x="21.5" y="171.2422"/><ellipse cx="26.5" cy="176.2422" fill="#84BE84" rx="3" ry="3" style="stroke:#038048;stroke-width:1.0;"/></a><a href="./../../.././qc/src/h/ST_boxf.java.html#70" target="_top" title="./../../.././qc/src/h/ST_boxf.java.html#70" xlink:actuate="onRequest" xlink:href="./../../.././qc/src/h/ST_boxf.java.html#70" xlink:show="new" xlink:title="./../../.././qc/src/h/ST_boxf.java.html#70" xlink:type="simple"><text fill="#000000" font-family="sans-serif" font-size="14" lengthAdjust="spacing" textLength="110" x="35.5" y="179.5889">copy() : ST_boxf</text></a><a href="./../../.././qc/src/h/ST_boxf.java.html#78" target="_top" title="./../../.././qc/src/h/ST_boxf.java.html#78" xlink:actuate="onRequest" xlink:href="./../../.././qc/src/h/ST_boxf.java.html#78" xlink:show="new" xlink:title="./../../.././qc/src/h/ST_boxf.java.html#78" xlink:type="simple"><rect fill="#F1F1F1" height="10" style="stroke:none;stroke-width:1.0;" width="20" x="21.5" y="187.5391"/><ellipse cx="26.5" cy="192.5391" fill="#84BE84" rx="3" ry="3" style="stroke:#038048;stroke-width:1.0;"/></a><a href="./../../.././qc/src/h/ST_boxf.java.html#78" target="_top" title="./../../.././qc/src/h/ST_boxf.java.html#78" xlink:actuate="onRequest" xlink:href="./../../.././qc/src/h/ST_boxf.java.html#78" xlink:show="new" xlink:title="./../../.././qc/src/h/ST_boxf.java.html#78" xlink:type="simple"><text fill="#000000" font-family="sans-serif" font-size="14" lengthAdjust="spacing" textLength="140" x="35.5" y="195.8857">___(__struct__) : void</text></a></g><path d="M102.5,54.1708 C102.5,64.4955 102.5,77.1452 102.5,89.7017 " fill="none" style="stroke:#181818;stroke-width:1.0;"/><polygon fill="#FFFFFF" points="102.5,54.1708,96.5,70.1708,108.5,70.1708,102.5,54.1708" style="stroke:#181818;stroke-width:1.0;"/><!--MD5=[bc7845e2138e5391e2fd4bd8de26f23e]
@startuml
!pragma layout smetana
"UnsupportedStarStruct" <|- - "h.ST_boxf"
class h.ST_boxf {
+toString() : String [[[./../../.././qc/src/h/ST_boxf.java.html#57]]]
+malloc(int) : ST_boxf[] [[[./../../.././qc/src/h/ST_boxf.java.html#61]]]
+copy() : ST_boxf [[[./../../.././qc/src/h/ST_boxf.java.html#70]]]
+___(__struct__) : void [[[./../../.././qc/src/h/ST_boxf.java.html#78]]]
} 
@enduml

PlantUML version 1.2022.7(Mon Aug 22 17:01:30 UTC 2022)
(GPL source distribution)
Java Runtime: OpenJDK Runtime Environment
JVM: OpenJDK 64-Bit Server VM
Default Encoding: UTF-8
Language: en
Country: null
--></g></svg>