<?xml version="1.0" encoding="UTF-8" standalone="no"?><svg xmlns="http://www.w3.org/2000/svg" xmlns:xlink="http://www.w3.org/1999/xlink" contentStyleType="text/css" height="1797px" preserveAspectRatio="none" style="width:503px;height:1797px;background:#FFFFFF;" version="1.1" viewBox="0 0 503 1797" width="503px" zoomAndPan="magnify"><defs/><g><path d="M248.5,10 L248.5,18.5664 L228.5,22.5664 L248.5,26.5664 L248.5,35.1328 A0,0 0 0 0 248.5,35.1328 L405.5,35.1328 A0,0 0 0 0 405.5,35.1328 L405.5,20 L395.5,10 L248.5,10 A0,0 0 0 0 248.5,10 " fill="#FEFFDD" style="stroke:#181818;stroke-width:0.5;"/><path d="M395.5,10 L395.5,20 L405.5,20 L395.5,10 " fill="#FEFFDD" style="stroke:#181818;stroke-width:0.5;"/><text fill="#000000" font-family="sans-serif" font-size="13" lengthAdjust="spacing" textLength="26" x="254.5" y="27.0669">void</text><text fill="#000000" font-family="sans-serif" font-size="13" lengthAdjust="spacing" text-decoration="underline" textLength="12" x="284.5" y="27.0669">_(</text><text fill="#000000" font-family="sans-serif" font-size="13" lengthAdjust="spacing" textLength="94" x="296.5" y="27.0669">struct__ other)</text><ellipse cx="218.5" cy="22.5664" fill="#222222" rx="10" ry="10" style="stroke:#222222;stroke-width:1.0;"/><rect fill="#F1F1F1" height="33.9688" rx="12.5" ry="12.5" style="stroke:#181818;stroke-width:0.5;" width="253" x="92" y="55.1328"/><text fill="#000000" font-family="sans-serif" font-size="12" lengthAdjust="spacing" textLength="233" x="102" y="76.2715">ST_dtlink_s this2=(ST_dtlink_s )other;</text><rect fill="#F1F1F1" height="33.9688" rx="12.5" ry="12.5" style="stroke:#181818;stroke-width:0.5;" width="154" x="141.5" y="109.1016"/><text fill="#000000" font-family="sans-serif" font-size="12" lengthAdjust="spacing" textLength="134" x="151.5" y="130.2402">this.right=this2.right;</text><rect fill="#F1F1F1" height="33.9688" rx="12.5" ry="12.5" style="stroke:#181818;stroke-width:0.5;" width="148" x="144.5" y="163.0703"/><text fill="#000000" font-family="sans-serif" font-size="12" lengthAdjust="spacing" textLength="128" x="154.5" y="184.209">this._left=this2._left;</text><ellipse cx="218.5" cy="227.0391" fill="none" rx="10" ry="10" style="stroke:#222222;stroke-width:1.5;"/><line style="stroke:#222222;stroke-width:2.5;" x1="212.3128" x2="224.6872" y1="220.8519" y2="233.2262"/><line style="stroke:#222222;stroke-width:2.5;" x1="224.6872" x2="212.3128" y1="220.8519" y2="233.2262"/><path d="M248.5,247.0391 L248.5,255.6055 L228.5,259.6055 L248.5,263.6055 L248.5,272.1719 A0,0 0 0 0 248.5,272.1719 L427.5,272.1719 A0,0 0 0 0 427.5,272.1719 L427.5,257.0391 L417.5,247.0391 L248.5,247.0391 A0,0 0 0 0 248.5,247.0391 " fill="#FEFFDD" style="stroke:#181818;stroke-width:0.5;"/><path d="M417.5,247.0391 L417.5,257.0391 L427.5,257.0391 L417.5,247.0391 " fill="#FEFFDD" style="stroke:#181818;stroke-width:0.5;"/><text fill="#000000" font-family="sans-serif" font-size="13" lengthAdjust="spacing" textLength="158" x="254.5" y="264.106">constructor ST_dtlink_s()</text><ellipse cx="218.5" cy="259.6055" fill="#222222" rx="10" ry="10" style="stroke:#222222;stroke-width:1.0;"/><rect fill="#F1F1F1" height="33.9688" rx="12.5" ry="12.5" style="stroke:#181818;stroke-width:0.5;" width="83" x="177" y="292.1719"/><text fill="#000000" font-family="sans-serif" font-size="12" lengthAdjust="spacing" textLength="63" x="187" y="313.3105">this(null );</text><ellipse cx="218.5" cy="356.1406" fill="none" rx="10" ry="10" style="stroke:#222222;stroke-width:1.5;"/><line style="stroke:#222222;stroke-width:2.5;" x1="212.3128" x2="224.6872" y1="349.9534" y2="362.3278"/><line style="stroke:#222222;stroke-width:2.5;" x1="224.6872" x2="212.3128" y1="349.9534" y2="362.3278"/><path d="M248.5,376.1406 L248.5,384.707 L228.5,388.707 L248.5,392.707 L248.5,401.2734 A0,0 0 0 0 248.5,401.2734 L491.5,401.2734 A0,0 0 0 0 491.5,401.2734 L491.5,386.1406 L481.5,376.1406 L248.5,376.1406 A0,0 0 0 0 248.5,376.1406 " fill="#FEFFDD" style="stroke:#181818;stroke-width:0.5;"/><path d="M481.5,376.1406 L481.5,386.1406 L491.5,386.1406 L481.5,376.1406 " fill="#FEFFDD" style="stroke:#181818;stroke-width:0.5;"/><text fill="#000000" font-family="sans-serif" font-size="13" lengthAdjust="spacing" textLength="153" x="254.5" y="393.2075">constructor ST_dtlink_s(</text><text fill="#000000" font-family="sans-serif" font-size="13" lengthAdjust="spacing" text-decoration="underline" textLength="18" x="407.5" y="393.2075">ptr</text><text fill="#000000" font-family="sans-serif" font-size="13" lengthAdjust="spacing" textLength="47" x="429.5" y="393.2075">parent)</text><ellipse cx="218.5" cy="388.707" fill="#222222" rx="10" ry="10" style="stroke:#222222;stroke-width:1.0;"/><rect fill="#F1F1F1" height="33.9688" rx="12.5" ry="12.5" style="stroke:#181818;stroke-width:0.5;" width="163" x="137" y="421.2734"/><text fill="#000000" font-family="sans-serif" font-size="12" lengthAdjust="spacing" textLength="143" x="147" y="442.4121">this.container=parent;</text><ellipse cx="218.5" cy="485.2422" fill="none" rx="10" ry="10" style="stroke:#222222;stroke-width:1.5;"/><line style="stroke:#222222;stroke-width:2.5;" x1="212.3128" x2="224.6872" y1="479.055" y2="491.4294"/><line style="stroke:#222222;stroke-width:2.5;" x1="224.6872" x2="212.3128" y1="479.055" y2="491.4294"/><path d="M248.5,505.2422 L248.5,513.8086 L228.5,517.8086 L248.5,521.8086 L248.5,530.375 A0,0 0 0 0 248.5,530.375 L364.5,530.375 A0,0 0 0 0 364.5,530.375 L364.5,515.2422 L354.5,505.2422 L248.5,505.2422 A0,0 0 0 0 248.5,505.2422 " fill="#FEFFDD" style="stroke:#181818;stroke-width:0.5;"/><path d="M354.5,505.2422 L354.5,515.2422 L364.5,515.2422 L354.5,505.2422 " fill="#FEFFDD" style="stroke:#181818;stroke-width:0.5;"/><text fill="#000000" font-family="sans-serif" font-size="13" lengthAdjust="spacing" text-decoration="underline" textLength="18" x="254.5" y="522.3091">ptr</text><text fill="#000000" font-family="sans-serif" font-size="13" lengthAdjust="spacing" textLength="73" x="276.5" y="522.3091">getParent()</text><ellipse cx="218.5" cy="517.8086" fill="#222222" rx="10" ry="10" style="stroke:#222222;stroke-width:1.0;"/><rect fill="#F1F1F1" height="33.9688" rx="12.5" ry="12.5" style="stroke:#181818;stroke-width:0.5;" width="127" x="155" y="550.375"/><text fill="#000000" font-family="sans-serif" font-size="12" lengthAdjust="spacing" textLength="107" x="165" y="571.5137">return container;</text><ellipse cx="218.5" cy="615.3438" fill="none" rx="11" ry="11" style="stroke:#222222;stroke-width:1.0;"/><ellipse cx="218.5" cy="615.3438" fill="#222222" rx="6" ry="6" style="stroke:#111111;stroke-width:1.0;"/><ellipse cx="218.5" cy="646.3438" fill="none" rx="10" ry="10" style="stroke:#222222;stroke-width:1.5;"/><line style="stroke:#222222;stroke-width:2.5;" x1="212.3128" x2="224.6872" y1="640.1566" y2="652.5309"/><line style="stroke:#222222;stroke-width:2.5;" x1="224.6872" x2="212.3128" y1="640.1566" y2="652.5309"/><path d="M248.5,666.3438 L248.5,674.9102 L228.5,678.9102 L248.5,682.9102 L248.5,691.4766 A0,0 0 0 0 248.5,691.4766 L409.5,691.4766 A0,0 0 0 0 409.5,691.4766 L409.5,676.3438 L399.5,666.3438 L248.5,666.3438 A0,0 0 0 0 248.5,666.3438 " fill="#FEFFDD" style="stroke:#181818;stroke-width:0.5;"/><path d="M399.5,666.3438 L399.5,676.3438 L409.5,676.3438 L399.5,666.3438 " fill="#FEFFDD" style="stroke:#181818;stroke-width:0.5;"/><text fill="#000000" font-family="sans-serif" font-size="13" lengthAdjust="spacing" text-decoration="underline" textLength="18" x="254.5" y="683.4106">ptr</text><text fill="#000000" font-family="sans-serif" font-size="13" lengthAdjust="spacing" textLength="118" x="276.5" y="683.4106">castTo(Class dest)</text><ellipse cx="218.5" cy="678.9102" fill="#222222" rx="10" ry="10" style="stroke:#222222;stroke-width:1.0;"/><rect fill="#F1F1F1" height="33.9688" rx="12.5" ry="12.5" style="stroke:#181818;stroke-width:0.5;" width="90" x="173.5" y="759.8789"/><text fill="#000000" font-family="sans-serif" font-size="12" lengthAdjust="spacing" textLength="70" x="183.5" y="781.0176">return this;</text><ellipse cx="218.5" cy="833.3633" fill="none" rx="11" ry="11" style="stroke:#222222;stroke-width:1.0;"/><ellipse cx="218.5" cy="833.3633" fill="#222222" rx="6" ry="6" style="stroke:#111111;stroke-width:1.0;"/><polygon fill="#F1F1F1" points="146,711.4766,291,711.4766,303,723.4766,291,735.4766,146,735.4766,134,723.4766,146,711.4766" style="stroke:#181818;stroke-width:0.5;"/><text fill="#000000" font-family="sans-serif" font-size="11" lengthAdjust="spacing" textLength="20" x="222.5" y="745.687">yes</text><text fill="#000000" font-family="sans-serif" font-size="11" lengthAdjust="spacing" textLength="141" x="146" y="727.2847">dest==ST_dtlink_s.class</text><rect fill="#F1F1F1" height="33.9688" rx="12.5" ry="12.5" style="stroke:#181818;stroke-width:0.5;" width="228" x="104.5" y="934.7656"/><text fill="#000000" font-family="sans-serif" font-size="12" lengthAdjust="spacing" textLength="208" x="114.5" y="955.9043">return (ST_dthold_s )getParent();</text><ellipse cx="218.5" cy="1008.25" fill="none" rx="11" ry="11" style="stroke:#222222;stroke-width:1.0;"/><ellipse cx="218.5" cy="1008.25" fill="#222222" rx="6" ry="6" style="stroke:#111111;stroke-width:1.0;"/><polygon fill="#F1F1F1" points="32,886.3633,405,886.3633,417,898.3633,405,910.3633,32,910.3633,20,898.3633,32,886.3633" style="stroke:#181818;stroke-width:0.5;"/><text fill="#000000" font-family="sans-serif" font-size="11" lengthAdjust="spacing" textLength="20" x="222.5" y="920.5737">yes</text><text fill="#000000" font-family="sans-serif" font-size="11" lengthAdjust="spacing" textLength="369" x="32" y="902.1714">dest==ST_dthold_s.class &amp;&amp;getParent() instanceof ST_dthold_s</text><rect fill="#F1F1F1" height="33.9688" rx="12.5" ry="12.5" style="stroke:#181818;stroke-width:0.5;" width="231" x="103" y="1061.25"/><text fill="#000000" font-family="sans-serif" font-size="12" lengthAdjust="spacing" textLength="211" x="113" y="1082.3887">System.err.println("dest="+dest);</text><rect fill="#F1F1F1" height="33.9688" rx="12.5" ry="12.5" style="stroke:#181818;stroke-width:0.5;" width="191" x="123" y="1115.2188"/><text fill="#000000" font-family="sans-serif" font-size="12" lengthAdjust="spacing" textLength="171" x="133" y="1136.3574">return super .castTo(dest);</text><ellipse cx="218.5" cy="1180.1875" fill="none" rx="11" ry="11" style="stroke:#222222;stroke-width:1.0;"/><ellipse cx="218.5" cy="1180.1875" fill="#222222" rx="6" ry="6" style="stroke:#111111;stroke-width:1.0;"/><ellipse cx="218.5" cy="1211.1875" fill="none" rx="10" ry="10" style="stroke:#222222;stroke-width:1.5;"/><line style="stroke:#222222;stroke-width:2.5;" x1="212.3128" x2="224.6872" y1="1205.0003" y2="1217.3747"/><line style="stroke:#222222;stroke-width:2.5;" x1="224.6872" x2="212.3128" y1="1205.0003" y2="1217.3747"/><path d="M248.5,1231.1875 L248.5,1239.7539 L228.5,1243.7539 L248.5,1247.7539 L248.5,1256.3203 A0,0 0 0 0 248.5,1256.3203 L485.5,1256.3203 A0,0 0 0 0 485.5,1256.3203 L485.5,1241.1875 L475.5,1231.1875 L248.5,1231.1875 A0,0 0 0 0 248.5,1231.1875 " fill="#FEFFDD" style="stroke:#181818;stroke-width:0.5;"/><path d="M475.5,1231.1875 L475.5,1241.1875 L485.5,1241.1875 L475.5,1231.1875 " fill="#FEFFDD" style="stroke:#181818;stroke-width:0.5;"/><text fill="#000000" font-family="sans-serif" font-size="13" lengthAdjust="spacing" textLength="216" x="254.5" y="1248.2544">Object getTheField(OFFSET offset)</text><ellipse cx="218.5" cy="1243.7539" fill="#222222" rx="10" ry="10" style="stroke:#222222;stroke-width:1.0;"/><rect fill="#F1F1F1" height="33.9688" rx="12.5" ry="12.5" style="stroke:#181818;stroke-width:0.5;" width="90" x="173.5" y="1324.7227"/><text fill="#000000" font-family="sans-serif" font-size="12" lengthAdjust="spacing" textLength="70" x="183.5" y="1345.8613">return this;</text><ellipse cx="218.5" cy="1398.207" fill="none" rx="11" ry="11" style="stroke:#222222;stroke-width:1.0;"/><ellipse cx="218.5" cy="1398.207" fill="#222222" rx="6" ry="6" style="stroke:#111111;stroke-width:1.0;"/><polygon fill="#F1F1F1" points="120.5,1276.3203,316.5,1276.3203,328.5,1288.3203,316.5,1300.3203,120.5,1300.3203,108.5,1288.3203,120.5,1276.3203" style="stroke:#181818;stroke-width:0.5;"/><text fill="#000000" font-family="sans-serif" font-size="11" lengthAdjust="spacing" textLength="20" x="222.5" y="1310.5308">yes</text><text fill="#000000" font-family="sans-serif" font-size="11" lengthAdjust="spacing" textLength="196" x="120.5" y="1292.1284">offset==null ||offset.getSign()==0</text><rect fill="#F1F1F1" height="33.9688" rx="12.5" ry="12.5" style="stroke:#181818;stroke-width:0.5;" width="228" x="104.5" y="1499.6094"/><text fill="#000000" font-family="sans-serif" font-size="12" lengthAdjust="spacing" textLength="208" x="114.5" y="1520.748">return ((ST_refstr_t )container).s;</text><ellipse cx="218.5" cy="1573.0938" fill="none" rx="11" ry="11" style="stroke:#222222;stroke-width:1.0;"/><ellipse cx="218.5" cy="1573.0938" fill="#222222" rx="6" ry="6" style="stroke:#111111;stroke-width:1.0;"/><polygon fill="#F1F1F1" points="37,1451.207,400,1451.207,412,1463.207,400,1475.207,37,1475.207,25,1463.207,37,1451.207" style="stroke:#181818;stroke-width:0.5;"/><text fill="#000000" font-family="sans-serif" font-size="11" lengthAdjust="spacing" textLength="20" x="222.5" y="1485.4175">yes</text><text fill="#000000" font-family="sans-serif" font-size="11" lengthAdjust="spacing" textLength="359" x="37" y="1467.0151">offset.getField().equals("s")&amp;&amp;container instanceof ST_refstr_t</text><rect fill="#F1F1F1" height="33.9688" rx="12.5" ry="12.5" style="stroke:#181818;stroke-width:0.5;" width="174" x="131.5" y="1626.0938"/><text fill="#000000" font-family="sans-serif" font-size="12" lengthAdjust="spacing" textLength="154" x="141.5" y="1647.2324">offset=offset.negative();</text><rect fill="#F1F1F1" height="33.9688" rx="12.5" ry="12.5" style="stroke:#181818;stroke-width:0.5;" width="127" x="155" y="1680.0625"/><text fill="#000000" font-family="sans-serif" font-size="12" lengthAdjust="spacing" textLength="107" x="165" y="1701.2012">return container;</text><ellipse cx="218.5" cy="1745.0313" fill="none" rx="11" ry="11" style="stroke:#222222;stroke-width:1.0;"/><ellipse cx="218.5" cy="1745.0313" fill="#222222" rx="6" ry="6" style="stroke:#111111;stroke-width:1.0;"/><ellipse cx="218.5" cy="1776.0313" fill="none" rx="10" ry="10" style="stroke:#222222;stroke-width:1.5;"/><line style="stroke:#222222;stroke-width:2.5;" x1="212.3128" x2="224.6872" y1="1769.8441" y2="1782.2184"/><line style="stroke:#222222;stroke-width:2.5;" x1="224.6872" x2="212.3128" y1="1769.8441" y2="1782.2184"/><line style="stroke:#181818;stroke-width:1.0;" x1="218.5" x2="218.5" y1="32.5664" y2="55.1328"/><polygon fill="#181818" points="214.5,45.1328,218.5,55.1328,222.5,45.1328,218.5,49.1328" style="stroke:#181818;stroke-width:1.0;"/><line style="stroke:#181818;stroke-width:1.0;" x1="218.5" x2="218.5" y1="89.1016" y2="109.1016"/><polygon fill="#181818" points="214.5,99.1016,218.5,109.1016,222.5,99.1016,218.5,103.1016" style="stroke:#181818;stroke-width:1.0;"/><line style="stroke:#181818;stroke-width:1.0;" x1="218.5" x2="218.5" y1="143.0703" y2="163.0703"/><polygon fill="#181818" points="214.5,153.0703,218.5,163.0703,222.5,153.0703,218.5,157.0703" style="stroke:#181818;stroke-width:1.0;"/><line style="stroke:#181818;stroke-width:1.0;" x1="218.5" x2="218.5" y1="197.0391" y2="217.0391"/><polygon fill="#181818" points="214.5,207.0391,218.5,217.0391,222.5,207.0391,218.5,211.0391" style="stroke:#181818;stroke-width:1.0;"/><line style="stroke:#181818;stroke-width:1.0;" x1="218.5" x2="218.5" y1="269.6055" y2="292.1719"/><polygon fill="#181818" points="214.5,282.1719,218.5,292.1719,222.5,282.1719,218.5,286.1719" style="stroke:#181818;stroke-width:1.0;"/><line style="stroke:#181818;stroke-width:1.0;" x1="218.5" x2="218.5" y1="326.1406" y2="346.1406"/><polygon fill="#181818" points="214.5,336.1406,218.5,346.1406,222.5,336.1406,218.5,340.1406" style="stroke:#181818;stroke-width:1.0;"/><line style="stroke:#181818;stroke-width:1.0;" x1="218.5" x2="218.5" y1="398.707" y2="421.2734"/><polygon fill="#181818" points="214.5,411.2734,218.5,421.2734,222.5,411.2734,218.5,415.2734" style="stroke:#181818;stroke-width:1.0;"/><line style="stroke:#181818;stroke-width:1.0;" x1="218.5" x2="218.5" y1="455.2422" y2="475.2422"/><polygon fill="#181818" points="214.5,465.2422,218.5,475.2422,222.5,465.2422,218.5,469.2422" style="stroke:#181818;stroke-width:1.0;"/><line style="stroke:#181818;stroke-width:1.0;" x1="218.5" x2="218.5" y1="527.8086" y2="550.375"/><polygon fill="#181818" points="214.5,540.375,218.5,550.375,222.5,540.375,218.5,544.375" style="stroke:#181818;stroke-width:1.0;"/><line style="stroke:#181818;stroke-width:1.0;" x1="218.5" x2="218.5" y1="584.3438" y2="604.3438"/><polygon fill="#181818" points="214.5,594.3438,218.5,604.3438,222.5,594.3438,218.5,598.3438" style="stroke:#181818;stroke-width:1.0;"/><line style="stroke:#181818;stroke-width:1.0;" x1="218.5" x2="218.5" y1="793.8477" y2="822.3633"/><polygon fill="#181818" points="214.5,812.3633,218.5,822.3633,222.5,812.3633,218.5,816.3633" style="stroke:#181818;stroke-width:1.0;"/><line style="stroke:#181818;stroke-width:1.0;" x1="218.5" x2="218.5" y1="735.4766" y2="759.8789"/><polygon fill="#181818" points="214.5,749.8789,218.5,759.8789,222.5,749.8789,218.5,753.8789" style="stroke:#181818;stroke-width:1.0;"/><line style="stroke:#181818;stroke-width:1.0;" x1="303" x2="315" y1="723.4766" y2="723.4766"/><polygon fill="#181818" points="311,792.3633,315,802.3633,319,792.3633,315,796.3633" style="stroke:#181818;stroke-width:1.0;"/><line style="stroke:#181818;stroke-width:1.0;" x1="315" x2="315" y1="723.4766" y2="866.3633"/><line style="stroke:#181818;stroke-width:1.0;" x1="315" x2="218.5" y1="866.3633" y2="866.3633"/><line style="stroke:#181818;stroke-width:1.0;" x1="218.5" x2="218.5" y1="866.3633" y2="886.3633"/><polygon fill="#181818" points="214.5,876.3633,218.5,886.3633,222.5,876.3633,218.5,880.3633" style="stroke:#181818;stroke-width:1.0;"/><line style="stroke:#181818;stroke-width:1.0;" x1="218.5" x2="218.5" y1="688.9102" y2="711.4766"/><polygon fill="#181818" points="214.5,701.4766,218.5,711.4766,222.5,701.4766,218.5,705.4766" style="stroke:#181818;stroke-width:1.0;"/><line style="stroke:#181818;stroke-width:1.0;" x1="218.5" x2="218.5" y1="968.7344" y2="997.25"/><polygon fill="#181818" points="214.5,987.25,218.5,997.25,222.5,987.25,218.5,991.25" style="stroke:#181818;stroke-width:1.0;"/><line style="stroke:#181818;stroke-width:1.0;" x1="218.5" x2="218.5" y1="910.3633" y2="934.7656"/><polygon fill="#181818" points="214.5,924.7656,218.5,934.7656,222.5,924.7656,218.5,928.7656" style="stroke:#181818;stroke-width:1.0;"/><line style="stroke:#181818;stroke-width:1.0;" x1="417" x2="429" y1="898.3633" y2="898.3633"/><polygon fill="#181818" points="425,967.25,429,977.25,433,967.25,429,971.25" style="stroke:#181818;stroke-width:1.0;"/><line style="stroke:#181818;stroke-width:1.0;" x1="429" x2="429" y1="898.3633" y2="1041.25"/><line style="stroke:#181818;stroke-width:1.0;" x1="429" x2="218.5" y1="1041.25" y2="1041.25"/><line style="stroke:#181818;stroke-width:1.0;" x1="218.5" x2="218.5" y1="1041.25" y2="1061.25"/><polygon fill="#181818" points="214.5,1051.25,218.5,1061.25,222.5,1051.25,218.5,1055.25" style="stroke:#181818;stroke-width:1.0;"/><line style="stroke:#181818;stroke-width:1.0;" x1="218.5" x2="218.5" y1="1095.2188" y2="1115.2188"/><polygon fill="#181818" points="214.5,1105.2188,218.5,1115.2188,222.5,1105.2188,218.5,1109.2188" style="stroke:#181818;stroke-width:1.0;"/><line style="stroke:#181818;stroke-width:1.0;" x1="218.5" x2="218.5" y1="1149.1875" y2="1169.1875"/><polygon fill="#181818" points="214.5,1159.1875,218.5,1169.1875,222.5,1159.1875,218.5,1163.1875" style="stroke:#181818;stroke-width:1.0;"/><line style="stroke:#181818;stroke-width:1.0;" x1="218.5" x2="218.5" y1="1358.6914" y2="1387.207"/><polygon fill="#181818" points="214.5,1377.207,218.5,1387.207,222.5,1377.207,218.5,1381.207" style="stroke:#181818;stroke-width:1.0;"/><line style="stroke:#181818;stroke-width:1.0;" x1="218.5" x2="218.5" y1="1300.3203" y2="1324.7227"/><polygon fill="#181818" points="214.5,1314.7227,218.5,1324.7227,222.5,1314.7227,218.5,1318.7227" style="stroke:#181818;stroke-width:1.0;"/><line style="stroke:#181818;stroke-width:1.0;" x1="328.5" x2="340.5" y1="1288.3203" y2="1288.3203"/><polygon fill="#181818" points="336.5,1357.207,340.5,1367.207,344.5,1357.207,340.5,1361.207" style="stroke:#181818;stroke-width:1.0;"/><line style="stroke:#181818;stroke-width:1.0;" x1="340.5" x2="340.5" y1="1288.3203" y2="1431.207"/><line style="stroke:#181818;stroke-width:1.0;" x1="340.5" x2="218.5" y1="1431.207" y2="1431.207"/><line style="stroke:#181818;stroke-width:1.0;" x1="218.5" x2="218.5" y1="1431.207" y2="1451.207"/><polygon fill="#181818" points="214.5,1441.207,218.5,1451.207,222.5,1441.207,218.5,1445.207" style="stroke:#181818;stroke-width:1.0;"/><line style="stroke:#181818;stroke-width:1.0;" x1="218.5" x2="218.5" y1="1253.7539" y2="1276.3203"/><polygon fill="#181818" points="214.5,1266.3203,218.5,1276.3203,222.5,1266.3203,218.5,1270.3203" style="stroke:#181818;stroke-width:1.0;"/><line style="stroke:#181818;stroke-width:1.0;" x1="218.5" x2="218.5" y1="1533.5781" y2="1562.0938"/><polygon fill="#181818" points="214.5,1552.0938,218.5,1562.0938,222.5,1552.0938,218.5,1556.0938" style="stroke:#181818;stroke-width:1.0;"/><line style="stroke:#181818;stroke-width:1.0;" x1="218.5" x2="218.5" y1="1475.207" y2="1499.6094"/><polygon fill="#181818" points="214.5,1489.6094,218.5,1499.6094,222.5,1489.6094,218.5,1493.6094" style="stroke:#181818;stroke-width:1.0;"/><line style="stroke:#181818;stroke-width:1.0;" x1="412" x2="424" y1="1463.207" y2="1463.207"/><polygon fill="#181818" points="420,1532.0938,424,1542.0938,428,1532.0938,424,1536.0938" style="stroke:#181818;stroke-width:1.0;"/><line style="stroke:#181818;stroke-width:1.0;" x1="424" x2="424" y1="1463.207" y2="1606.0938"/><line style="stroke:#181818;stroke-width:1.0;" x1="424" x2="218.5" y1="1606.0938" y2="1606.0938"/><line style="stroke:#181818;stroke-width:1.0;" x1="218.5" x2="218.5" y1="1606.0938" y2="1626.0938"/><polygon fill="#181818" points="214.5,1616.0938,218.5,1626.0938,222.5,1616.0938,218.5,1620.0938" style="stroke:#181818;stroke-width:1.0;"/><line style="stroke:#181818;stroke-width:1.0;" x1="218.5" x2="218.5" y1="1660.0625" y2="1680.0625"/><polygon fill="#181818" points="214.5,1670.0625,218.5,1680.0625,222.5,1670.0625,218.5,1674.0625" style="stroke:#181818;stroke-width:1.0;"/><line style="stroke:#181818;stroke-width:1.0;" x1="218.5" x2="218.5" y1="1714.0313" y2="1734.0313"/><polygon fill="#181818" points="214.5,1724.0313,218.5,1734.0313,222.5,1724.0313,218.5,1728.0313" style="stroke:#181818;stroke-width:1.0;"/><!--MD5=[70ba11a014b4e447841d0ab382867ce7]
@startuml
!pragma layout smetana
start
note right
void ___(__struct__ other)
end note
:ST_dtlink_s this2=(ST_dtlink_s )other;;
:this.right=this2.right;;
:this._left=this2._left;;
end
start
note right
constructor ST_dtlink_s()
end note
:this(null );;
end
start
note right
constructor ST_dtlink_s(__ptr__ parent)
end note
:this.container=parent;;
end
start
note right
__ptr__ getParent()
end note
:return container;;
stop
end
start
note right
__ptr__ castTo(Class dest)
end note
if (dest==ST_dtlink_s.class ) then (yes) 
:return this;;
stop
endif 
if (dest==ST_dthold_s.class &&getParent() instanceof ST_dthold_s ) then (yes) 
:return (ST_dthold_s )getParent();;
stop
endif 
:System.err.println("dest="+dest);;
:return super .castTo(dest);;
stop
end
start
note right
Object getTheField(OFFSET offset)
end note
if (offset==null ||offset.getSign()==0) then (yes) 
:return this;;
stop
endif 
if (offset.getField().equals("s")&&container instanceof ST_refstr_t ) then (yes) 
:return ((ST_refstr_t )container).s;;
stop
endif 
:offset=offset.negative();;
:return container;;
stop
end
@enduml

PlantUML version 1.2022.7(Mon Aug 22 17:01:30 UTC 2022)
(GPL source distribution)
Java Runtime: OpenJDK Runtime Environment
JVM: OpenJDK 64-Bit Server VM
Default Encoding: UTF-8
Language: en
Country: null
--></g></svg>