<?xml version="1.0" encoding="UTF-8" standalone="no"?><svg xmlns="http://www.w3.org/2000/svg" xmlns:xlink="http://www.w3.org/1999/xlink" contentStyleType="text/css" height="153px" preserveAspectRatio="none" style="width:219px;height:153px;background:#FFFFFF;" version="1.1" viewBox="0 0 219 153" width="219px" zoomAndPan="magnify"><defs/><g><!--MD5=[de5e3ac9c47e5be61e90a04a80699c61]
cluster h--><g id="cluster_h"><path d="M8.5,63 L19.5,63 A3.75,3.75 0 0 1 22,65.5 L29,85.2969 L209.5,85.2969 A2.5,2.5 0 0 1 212,87.7969 L212,143.5 A2.5,2.5 0 0 1 209.5,146 L8.5,146 A2.5,2.5 0 0 1 6,143.5 L6,65.5 A2.5,2.5 0 0 1 8.5,63 " fill="none" style="stroke:#000000;stroke-width:1.5;"/><line style="stroke:#000000;stroke-width:1.5;" x1="6" x2="29" y1="85.2969" y2="85.2969"/><text fill="#000000" font-family="sans-serif" font-size="14" font-weight="bold" lengthAdjust="spacing" textLength="10" x="10" y="77.9951">h</text></g><!--MD5=[67f8d566721c9c1df7c1dd7f91eb57b1]
class UnsupportedStarStruct--><g id="elem_UnsupportedStarStruct"><rect fill="#F1F1F1" height="48" id="UnsupportedStarStruct" rx="2.5" ry="2.5" style="stroke:#181818;stroke-width:0.5;" width="191" x="13.5" y="6"/><ellipse cx="28.5" cy="22" fill="#ADD1B2" rx="11" ry="11" style="stroke:#181818;stroke-width:1.0;"/><path d="M31.4688,27.6406 Q30.8906,27.9375 30.25,28.0781 Q29.6094,28.2344 28.9063,28.2344 Q26.4063,28.2344 25.0781,26.5938 Q23.7656,24.9375 23.7656,21.8125 Q23.7656,18.6875 25.0781,17.0313 Q26.4063,15.375 28.9063,15.375 Q29.6094,15.375 30.25,15.5313 Q30.9063,15.6875 31.4688,15.9844 L31.4688,18.7031 Q30.8438,18.125 30.25,17.8594 Q29.6563,17.5781 29.0313,17.5781 Q27.6875,17.5781 27,18.6563 Q26.3125,19.7188 26.3125,21.8125 Q26.3125,23.9063 27,24.9844 Q27.6875,26.0469 29.0313,26.0469 Q29.6563,26.0469 30.25,25.7813 Q30.8438,25.5 31.4688,24.9219 L31.4688,27.6406 Z " fill="#000000"/><text fill="#000000" font-family="sans-serif" font-size="14" lengthAdjust="spacing" textLength="159" x="42.5" y="26.8467">UnsupportedStarStruct</text><line style="stroke:#181818;stroke-width:0.5;" x1="14.5" x2="203.5" y1="38" y2="38"/><line style="stroke:#181818;stroke-width:0.5;" x1="14.5" x2="203.5" y1="46" y2="46"/></g><!--MD5=[83292913ed3a9e16536697ef2c36d855]
class h.ST_gvlayout_features_t--><g id="elem_h.ST_gvlayout_features_t"><rect codeLine="3" fill="#F1F1F1" height="48" id="h.ST_gvlayout_features_t" rx="2.5" ry="2.5" style="stroke:#181818;stroke-width:0.5;" width="190" x="14" y="90"/><ellipse cx="29" cy="106" fill="#ADD1B2" rx="11" ry="11" style="stroke:#181818;stroke-width:1.0;"/><path d="M31.9688,111.6406 Q31.3906,111.9375 30.75,112.0781 Q30.1094,112.2344 29.4063,112.2344 Q26.9063,112.2344 25.5781,110.5938 Q24.2656,108.9375 24.2656,105.8125 Q24.2656,102.6875 25.5781,101.0313 Q26.9063,99.375 29.4063,99.375 Q30.1094,99.375 30.75,99.5313 Q31.4063,99.6875 31.9688,99.9844 L31.9688,102.7031 Q31.3438,102.125 30.75,101.8594 Q30.1563,101.5781 29.5313,101.5781 Q28.1875,101.5781 27.5,102.6563 Q26.8125,103.7188 26.8125,105.8125 Q26.8125,107.9063 27.5,108.9844 Q28.1875,110.0469 29.5313,110.0469 Q30.1563,110.0469 30.75,109.7813 Q31.3438,109.5 31.9688,108.9219 L31.9688,111.6406 Z " fill="#000000"/><text fill="#000000" font-family="sans-serif" font-size="14" lengthAdjust="spacing" textLength="158" x="43" y="110.8467">ST_gvlayout_features_t</text><line style="stroke:#181818;stroke-width:0.5;" x1="15" x2="203" y1="122" y2="122"/><line style="stroke:#181818;stroke-width:0.5;" x1="15" x2="203" y1="130" y2="130"/></g><path d="M109,54.2786 C109,65.453 109,78.8021 109,89.947 " fill="none" style="stroke:#181818;stroke-width:1.0;"/><polygon fill="#FFFFFF" points="109,54.2786,103,70.2786,115,70.2786,109,54.2786" style="stroke:#181818;stroke-width:1.0;"/><!--MD5=[2054bc57b1ae0b3f0360563d3bc56efa]
@startuml
!pragma layout smetana
"UnsupportedStarStruct" <|- - "h.ST_gvlayout_features_t"
class h.ST_gvlayout_features_t {
} 
@enduml

PlantUML version 1.2022.7(Mon Aug 22 17:01:30 UTC 2022)
(GPL source distribution)
Java Runtime: OpenJDK Runtime Environment
JVM: OpenJDK 64-Bit Server VM
Default Encoding: UTF-8
Language: en
Country: null
--></g></svg>