<?xml version="1.0" encoding="UTF-8" standalone="no"?><svg xmlns="http://www.w3.org/2000/svg" xmlns:xlink="http://www.w3.org/1999/xlink" contentStyleType="text/css" height="251px" preserveAspectRatio="none" style="width:347px;height:251px;background:#FFFFFF;" version="1.1" viewBox="0 0 347 251" width="347px" zoomAndPan="magnify"><defs/><g><!--MD5=[de5e3ac9c47e5be61e90a04a80699c61]
cluster h--><g id="cluster_h"><path d="M8.5,63 L19.5,63 A3.75,3.75 0 0 1 22,65.5 L29,85.2969 L337.5,85.2969 A2.5,2.5 0 0 1 340,87.7969 L340,241.5 A2.5,2.5 0 0 1 337.5,244 L8.5,244 A2.5,2.5 0 0 1 6,241.5 L6,65.5 A2.5,2.5 0 0 1 8.5,63 " fill="none" style="stroke:#000000;stroke-width:1.5;"/><line style="stroke:#000000;stroke-width:1.5;" x1="6" x2="29" y1="85.2969" y2="85.2969"/><text fill="#000000" font-family="sans-serif" font-size="14" font-weight="bold" lengthAdjust="spacing" textLength="10" x="10" y="77.9951">h</text></g><!--MD5=[67f8d566721c9c1df7c1dd7f91eb57b1]
class UnsupportedStarStruct--><g id="elem_UnsupportedStarStruct"><rect fill="#F1F1F1" height="48" id="UnsupportedStarStruct" rx="2.5" ry="2.5" style="stroke:#181818;stroke-width:0.5;" width="191" x="77.5" y="6"/><ellipse cx="92.5" cy="22" fill="#ADD1B2" rx="11" ry="11" style="stroke:#181818;stroke-width:1.0;"/><path d="M95.4688,27.6406 Q94.8906,27.9375 94.25,28.0781 Q93.6094,28.2344 92.9063,28.2344 Q90.4063,28.2344 89.0781,26.5938 Q87.7656,24.9375 87.7656,21.8125 Q87.7656,18.6875 89.0781,17.0313 Q90.4063,15.375 92.9063,15.375 Q93.6094,15.375 94.25,15.5313 Q94.9063,15.6875 95.4688,15.9844 L95.4688,18.7031 Q94.8438,18.125 94.25,17.8594 Q93.6563,17.5781 93.0313,17.5781 Q91.6875,17.5781 91,18.6563 Q90.3125,19.7188 90.3125,21.8125 Q90.3125,23.9063 91,24.9844 Q91.6875,26.0469 93.0313,26.0469 Q93.6563,26.0469 94.25,25.7813 Q94.8438,25.5 95.4688,24.9219 L95.4688,27.6406 Z " fill="#000000"/><text fill="#000000" font-family="sans-serif" font-size="14" lengthAdjust="spacing" textLength="159" x="106.5" y="26.8467">UnsupportedStarStruct</text><line style="stroke:#181818;stroke-width:0.5;" x1="78.5" x2="267.5" y1="38" y2="38"/><line style="stroke:#181818;stroke-width:0.5;" x1="78.5" x2="267.5" y1="46" y2="46"/></g><!--MD5=[f1b6e040bc96f8a50e8c9bb0128f47cc]
class h.ST_pointf--><g id="elem_h.ST_pointf"><rect codeLine="3" fill="#F1F1F1" height="145.7813" id="h.ST_pointf" rx="2.5" ry="2.5" style="stroke:#181818;stroke-width:0.5;" width="318" x="14" y="90"/><ellipse cx="136.75" cy="106" fill="#ADD1B2" rx="11" ry="11" style="stroke:#181818;stroke-width:1.0;"/><path d="M139.7188,111.6406 Q139.1406,111.9375 138.5,112.0781 Q137.8594,112.2344 137.1563,112.2344 Q134.6563,112.2344 133.3281,110.5938 Q132.0156,108.9375 132.0156,105.8125 Q132.0156,102.6875 133.3281,101.0313 Q134.6563,99.375 137.1563,99.375 Q137.8594,99.375 138.5,99.5313 Q139.1563,99.6875 139.7188,99.9844 L139.7188,102.7031 Q139.0938,102.125 138.5,101.8594 Q137.9063,101.5781 137.2813,101.5781 Q135.9375,101.5781 135.25,102.6563 Q134.5625,103.7188 134.5625,105.8125 Q134.5625,107.9063 135.25,108.9844 Q135.9375,110.0469 137.2813,110.0469 Q137.9063,110.0469 138.5,109.7813 Q139.0938,109.5 139.7188,108.9219 L139.7188,111.6406 Z " fill="#000000"/><text fill="#000000" font-family="sans-serif" font-size="14" lengthAdjust="spacing" textLength="64" x="157.25" y="110.8467">ST_pointf</text><line style="stroke:#181818;stroke-width:0.5;" x1="15" x2="331" y1="122" y2="122"/><line style="stroke:#181818;stroke-width:0.5;" x1="15" x2="331" y1="130" y2="130"/><a href="./../../.././qc/src/h/ST_pointf.java.html#54" target="_top" title="./../../.././qc/src/h/ST_pointf.java.html#54" xlink:actuate="onRequest" xlink:href="./../../.././qc/src/h/ST_pointf.java.html#54" xlink:show="new" xlink:title="./../../.././qc/src/h/ST_pointf.java.html#54" xlink:type="simple"><rect fill="#F1F1F1" height="10" style="stroke:none;stroke-width:1.0;" width="20" x="20" y="138.6484"/><ellipse cx="25" cy="143.6484" fill="#84BE84" rx="3" ry="3" style="stroke:#038048;stroke-width:1.0;"/></a><a href="./../../.././qc/src/h/ST_pointf.java.html#54" target="_top" title="./../../.././qc/src/h/ST_pointf.java.html#54" xlink:actuate="onRequest" xlink:href="./../../.././qc/src/h/ST_pointf.java.html#54" xlink:show="new" xlink:title="./../../.././qc/src/h/ST_pointf.java.html#54" xlink:type="simple"><text fill="#000000" font-family="sans-serif" font-size="14" lengthAdjust="spacing" textLength="240" x="34" y="146.9951">pointfof(double;double) : ST_pointf</text></a><a href="./../../.././qc/src/h/ST_pointf.java.html#61" target="_top" title="./../../.././qc/src/h/ST_pointf.java.html#61" xlink:actuate="onRequest" xlink:href="./../../.././qc/src/h/ST_pointf.java.html#61" xlink:show="new" xlink:title="./../../.././qc/src/h/ST_pointf.java.html#61" xlink:type="simple"><rect fill="#F1F1F1" height="10" style="stroke:none;stroke-width:1.0;" width="20" x="20" y="154.9453"/><ellipse cx="25" cy="159.9453" fill="#84BE84" rx="3" ry="3" style="stroke:#038048;stroke-width:1.0;"/></a><a href="./../../.././qc/src/h/ST_pointf.java.html#61" target="_top" title="./../../.././qc/src/h/ST_pointf.java.html#61" xlink:actuate="onRequest" xlink:href="./../../.././qc/src/h/ST_pointf.java.html#61" xlink:show="new" xlink:title="./../../.././qc/src/h/ST_pointf.java.html#61" xlink:type="simple"><text fill="#000000" font-family="sans-serif" font-size="14" lengthAdjust="spacing" textLength="292" x="34" y="163.292">add_pointf(ST_pointf;ST_pointf) : ST_pointf</text></a><a href="./../../.././qc/src/h/ST_pointf.java.html#72" target="_top" title="./../../.././qc/src/h/ST_pointf.java.html#72" xlink:actuate="onRequest" xlink:href="./../../.././qc/src/h/ST_pointf.java.html#72" xlink:show="new" xlink:title="./../../.././qc/src/h/ST_pointf.java.html#72" xlink:type="simple"><rect fill="#F1F1F1" height="10" style="stroke:none;stroke-width:1.0;" width="20" x="20" y="171.2422"/><ellipse cx="25" cy="176.2422" fill="#84BE84" rx="3" ry="3" style="stroke:#038048;stroke-width:1.0;"/></a><a href="./../../.././qc/src/h/ST_pointf.java.html#72" target="_top" title="./../../.././qc/src/h/ST_pointf.java.html#72" xlink:actuate="onRequest" xlink:href="./../../.././qc/src/h/ST_pointf.java.html#72" xlink:show="new" xlink:title="./../../.././qc/src/h/ST_pointf.java.html#72" xlink:type="simple"><text fill="#000000" font-family="sans-serif" font-size="14" lengthAdjust="spacing" textLength="211" x="34" y="179.5889">isSameThan(__ptr__) : boolean</text></a><a href="./../../.././qc/src/h/ST_pointf.java.html#77" target="_top" title="./../../.././qc/src/h/ST_pointf.java.html#77" xlink:actuate="onRequest" xlink:href="./../../.././qc/src/h/ST_pointf.java.html#77" xlink:show="new" xlink:title="./../../.././qc/src/h/ST_pointf.java.html#77" xlink:type="simple"><rect fill="#F1F1F1" height="10" style="stroke:none;stroke-width:1.0;" width="20" x="20" y="187.5391"/><ellipse cx="25" cy="192.5391" fill="#84BE84" rx="3" ry="3" style="stroke:#038048;stroke-width:1.0;"/></a><a href="./../../.././qc/src/h/ST_pointf.java.html#77" target="_top" title="./../../.././qc/src/h/ST_pointf.java.html#77" xlink:actuate="onRequest" xlink:href="./../../.././qc/src/h/ST_pointf.java.html#77" xlink:show="new" xlink:title="./../../.././qc/src/h/ST_pointf.java.html#77" xlink:type="simple"><text fill="#000000" font-family="sans-serif" font-size="14" lengthAdjust="spacing" textLength="117" x="34" y="195.8857">toString() : String</text></a><a href="./../../.././qc/src/h/ST_pointf.java.html#83" target="_top" title="./../../.././qc/src/h/ST_pointf.java.html#83" xlink:actuate="onRequest" xlink:href="./../../.././qc/src/h/ST_pointf.java.html#83" xlink:show="new" xlink:title="./../../.././qc/src/h/ST_pointf.java.html#83" xlink:type="simple"><rect fill="#F1F1F1" height="10" style="stroke:none;stroke-width:1.0;" width="20" x="20" y="203.8359"/><ellipse cx="25" cy="208.8359" fill="#84BE84" rx="3" ry="3" style="stroke:#038048;stroke-width:1.0;"/></a><a href="./../../.././qc/src/h/ST_pointf.java.html#83" target="_top" title="./../../.././qc/src/h/ST_pointf.java.html#83" xlink:actuate="onRequest" xlink:href="./../../.././qc/src/h/ST_pointf.java.html#83" xlink:show="new" xlink:title="./../../.././qc/src/h/ST_pointf.java.html#83" xlink:type="simple"><text fill="#000000" font-family="sans-serif" font-size="14" lengthAdjust="spacing" textLength="120" x="34" y="212.1826">copy() : ST_pointf</text></a><a href="./../../.././qc/src/h/ST_pointf.java.html#91" target="_top" title="./../../.././qc/src/h/ST_pointf.java.html#91" xlink:actuate="onRequest" xlink:href="./../../.././qc/src/h/ST_pointf.java.html#91" xlink:show="new" xlink:title="./../../.././qc/src/h/ST_pointf.java.html#91" xlink:type="simple"><rect fill="#F1F1F1" height="10" style="stroke:none;stroke-width:1.0;" width="20" x="20" y="220.1328"/><ellipse cx="25" cy="225.1328" fill="#84BE84" rx="3" ry="3" style="stroke:#038048;stroke-width:1.0;"/></a><a href="./../../.././qc/src/h/ST_pointf.java.html#91" target="_top" title="./../../.././qc/src/h/ST_pointf.java.html#91" xlink:actuate="onRequest" xlink:href="./../../.././qc/src/h/ST_pointf.java.html#91" xlink:show="new" xlink:title="./../../.././qc/src/h/ST_pointf.java.html#91" xlink:type="simple"><text fill="#000000" font-family="sans-serif" font-size="14" lengthAdjust="spacing" textLength="140" x="34" y="228.4795">___(__struct__) : void</text></a></g><path d="M173,54.1186 C173,64.3285 173,76.946 173,89.9113 " fill="none" style="stroke:#181818;stroke-width:1.0;"/><polygon fill="#FFFFFF" points="173,54.1186,167,70.1186,179,70.1186,173,54.1186" style="stroke:#181818;stroke-width:1.0;"/><!--MD5=[2dec2f5152f792a4b4e0b8db9f7dfdd9]
@startuml
!pragma layout smetana
"UnsupportedStarStruct" <|- - "h.ST_pointf"
class h.ST_pointf {
+pointfof(double;double) : ST_pointf [[[./../../.././qc/src/h/ST_pointf.java.html#54]]]
+add_pointf(ST_pointf;ST_pointf) : ST_pointf [[[./../../.././qc/src/h/ST_pointf.java.html#61]]]
+isSameThan(__ptr__) : boolean [[[./../../.././qc/src/h/ST_pointf.java.html#72]]]
+toString() : String [[[./../../.././qc/src/h/ST_pointf.java.html#77]]]
+copy() : ST_pointf [[[./../../.././qc/src/h/ST_pointf.java.html#83]]]
+___(__struct__) : void [[[./../../.././qc/src/h/ST_pointf.java.html#91]]]
} 
@enduml

PlantUML version 1.2022.7(Mon Aug 22 17:01:30 UTC 2022)
(GPL source distribution)
Java Runtime: OpenJDK Runtime Environment
JVM: OpenJDK 64-Bit Server VM
Default Encoding: UTF-8
Language: en
Country: null
--></g></svg>