<?xml version="1.0" encoding="UTF-8" standalone="no"?><svg xmlns="http://www.w3.org/2000/svg" xmlns:xlink="http://www.w3.org/1999/xlink" contentStyleType="text/css" height="169px" preserveAspectRatio="none" style="width:267px;height:169px;background:#FFFFFF;" version="1.1" viewBox="0 0 267 169" width="267px" zoomAndPan="magnify"><defs/><g><!--MD5=[de5e3ac9c47e5be61e90a04a80699c61]
cluster h--><g id="cluster_h"><path d="M8.5,63 L19.5,63 A3.75,3.75 0 0 1 22,65.5 L29,85.2969 L257.5,85.2969 A2.5,2.5 0 0 1 260,87.7969 L260,159.5 A2.5,2.5 0 0 1 257.5,162 L8.5,162 A2.5,2.5 0 0 1 6,159.5 L6,65.5 A2.5,2.5 0 0 1 8.5,63 " fill="none" style="stroke:#000000;stroke-width:1.5;"/><line style="stroke:#000000;stroke-width:1.5;" x1="6" x2="29" y1="85.2969" y2="85.2969"/><text fill="#000000" font-family="sans-serif" font-size="14" font-weight="bold" lengthAdjust="spacing" textLength="10" x="10" y="77.9951">h</text></g><!--MD5=[67f8d566721c9c1df7c1dd7f91eb57b1]
class UnsupportedStarStruct--><g id="elem_UnsupportedStarStruct"><rect fill="#F1F1F1" height="48" id="UnsupportedStarStruct" rx="2.5" ry="2.5" style="stroke:#181818;stroke-width:0.5;" width="191" x="37.5" y="6"/><ellipse cx="52.5" cy="22" fill="#ADD1B2" rx="11" ry="11" style="stroke:#181818;stroke-width:1.0;"/><path d="M55.4688,27.6406 Q54.8906,27.9375 54.25,28.0781 Q53.6094,28.2344 52.9063,28.2344 Q50.4063,28.2344 49.0781,26.5938 Q47.7656,24.9375 47.7656,21.8125 Q47.7656,18.6875 49.0781,17.0313 Q50.4063,15.375 52.9063,15.375 Q53.6094,15.375 54.25,15.5313 Q54.9063,15.6875 55.4688,15.9844 L55.4688,18.7031 Q54.8438,18.125 54.25,17.8594 Q53.6563,17.5781 53.0313,17.5781 Q51.6875,17.5781 51,18.6563 Q50.3125,19.7188 50.3125,21.8125 Q50.3125,23.9063 51,24.9844 Q51.6875,26.0469 53.0313,26.0469 Q53.6563,26.0469 54.25,25.7813 Q54.8438,25.5 55.4688,24.9219 L55.4688,27.6406 Z " fill="#000000"/><text fill="#000000" font-family="sans-serif" font-size="14" lengthAdjust="spacing" textLength="159" x="66.5" y="26.8467">UnsupportedStarStruct</text><line style="stroke:#181818;stroke-width:0.5;" x1="38.5" x2="227.5" y1="38" y2="38"/><line style="stroke:#181818;stroke-width:0.5;" x1="38.5" x2="227.5" y1="46" y2="46"/></g><!--MD5=[5efa385199919892e91d9f5022a90958]
class h.ST_subtree_t--><g id="elem_h.ST_subtree_t"><rect codeLine="3" fill="#F1F1F1" height="64.2969" id="h.ST_subtree_t" rx="2.5" ry="2.5" style="stroke:#181818;stroke-width:0.5;" width="237" x="14.5" y="90"/><ellipse cx="83.25" cy="106" fill="#ADD1B2" rx="11" ry="11" style="stroke:#181818;stroke-width:1.0;"/><path d="M86.2188,111.6406 Q85.6406,111.9375 85,112.0781 Q84.3594,112.2344 83.6563,112.2344 Q81.1563,112.2344 79.8281,110.5938 Q78.5156,108.9375 78.5156,105.8125 Q78.5156,102.6875 79.8281,101.0313 Q81.1563,99.375 83.6563,99.375 Q84.3594,99.375 85,99.5313 Q85.6563,99.6875 86.2188,99.9844 L86.2188,102.7031 Q85.5938,102.125 85,101.8594 Q84.4063,101.5781 83.7813,101.5781 Q82.4375,101.5781 81.75,102.6563 Q81.0625,103.7188 81.0625,105.8125 Q81.0625,107.9063 81.75,108.9844 Q82.4375,110.0469 83.7813,110.0469 Q84.4063,110.0469 85,109.7813 Q85.5938,109.5 86.2188,108.9219 L86.2188,111.6406 Z " fill="#000000"/><text fill="#000000" font-family="sans-serif" font-size="14" lengthAdjust="spacing" textLength="91" x="103.75" y="110.8467">ST_subtree_t</text><line style="stroke:#181818;stroke-width:0.5;" x1="15.5" x2="250.5" y1="122" y2="122"/><line style="stroke:#181818;stroke-width:0.5;" x1="15.5" x2="250.5" y1="130" y2="130"/><a href="./../../.././qc/src/h/ST_subtree_t.java.html#60" target="_top" title="./../../.././qc/src/h/ST_subtree_t.java.html#60" xlink:actuate="onRequest" xlink:href="./../../.././qc/src/h/ST_subtree_t.java.html#60" xlink:show="new" xlink:title="./../../.././qc/src/h/ST_subtree_t.java.html#60" xlink:type="simple"><rect fill="#F1F1F1" height="10" style="stroke:none;stroke-width:1.0;" width="20" x="20.5" y="138.6484"/><ellipse cx="25.5" cy="143.6484" fill="#84BE84" rx="3" ry="3" style="stroke:#038048;stroke-width:1.0;"/></a><a href="./../../.././qc/src/h/ST_subtree_t.java.html#60" target="_top" title="./../../.././qc/src/h/ST_subtree_t.java.html#60" xlink:actuate="onRequest" xlink:href="./../../.././qc/src/h/ST_subtree_t.java.html#60" xlink:show="new" xlink:title="./../../.././qc/src/h/ST_subtree_t.java.html#60" xlink:type="simple"><text fill="#000000" font-family="sans-serif" font-size="14" lengthAdjust="spacing" textLength="211" x="34.5" y="146.9951">isSameThan(__ptr__) : boolean</text></a></g><path d="M133,54.1772 C133,65.0104 133,78.07 133,89.7592 " fill="none" style="stroke:#181818;stroke-width:1.0;"/><polygon fill="#FFFFFF" points="133,54.1772,127,70.1772,139,70.1772,133,54.1772" style="stroke:#181818;stroke-width:1.0;"/><!--MD5=[479040b3cb510c74dfa5320f49e2db3c]
@startuml
!pragma layout smetana
"UnsupportedStarStruct" <|- - "h.ST_subtree_t"
class h.ST_subtree_t {
+isSameThan(__ptr__) : boolean [[[./../../.././qc/src/h/ST_subtree_t.java.html#60]]]
} 
@enduml

PlantUML version 1.2022.7(Mon Aug 22 17:01:30 UTC 2022)
(GPL source distribution)
Java Runtime: OpenJDK Runtime Environment
JVM: OpenJDK 64-Bit Server VM
Default Encoding: UTF-8
Language: en
Country: null
--></g></svg>