<?xml version="1.0" encoding="UTF-8" standalone="no"?><svg xmlns="http://www.w3.org/2000/svg" xmlns:xlink="http://www.w3.org/1999/xlink" contentStyleType="text/css" height="226px" preserveAspectRatio="none" style="width:419px;height:226px;background:#FFFFFF;" version="1.1" viewBox="0 0 419 226" width="419px" zoomAndPan="magnify"><defs/><g><path d="M186,10 L186,18.5664 L166,22.5664 L186,26.5664 L186,35.1328 A0,0 0 0 0 186,35.1328 L407,35.1328 A0,0 0 0 0 407,35.1328 L407,20 L397,10 L186,10 A0,0 0 0 0 186,10 " fill="#FEFFDD" style="stroke:#181818;stroke-width:0.5;"/><path d="M397,10 L397,20 L407,20 L397,10 " fill="#FEFFDD" style="stroke:#181818;stroke-width:0.5;"/><text fill="#000000" font-family="sans-serif" font-size="13" lengthAdjust="spacing" textLength="139" x="192" y="27.0669">boolean isSameThan(</text><text fill="#000000" font-family="sans-serif" font-size="13" lengthAdjust="spacing" text-decoration="underline" textLength="18" x="331" y="27.0669">ptr</text><text fill="#000000" font-family="sans-serif" font-size="13" lengthAdjust="spacing" textLength="39" x="353" y="27.0669">other)</text><ellipse cx="156" cy="22.5664" fill="#222222" rx="10" ry="10" style="stroke:#222222;stroke-width:1.0;"/><rect fill="#F1F1F1" height="33.9688" rx="12.5" ry="12.5" style="stroke:#181818;stroke-width:0.5;" width="290" x="11" y="55.1328"/><text fill="#000000" font-family="sans-serif" font-size="12" lengthAdjust="spacing" textLength="270" x="21" y="76.2715">ST_subtree_t other2=(ST_subtree_t )other;</text><rect fill="#F1F1F1" height="33.9688" rx="12.5" ry="12.5" style="stroke:#181818;stroke-width:0.5;" width="152" x="80" y="109.1016"/><text fill="#000000" font-family="sans-serif" font-size="12" lengthAdjust="spacing" textLength="132" x="90" y="130.2402">return this==other2;</text><ellipse cx="156" cy="174.0703" fill="none" rx="11" ry="11" style="stroke:#222222;stroke-width:1.0;"/><ellipse cx="156" cy="174.0703" fill="#222222" rx="6" ry="6" style="stroke:#111111;stroke-width:1.0;"/><ellipse cx="156" cy="205.0703" fill="none" rx="10" ry="10" style="stroke:#222222;stroke-width:1.5;"/><line style="stroke:#222222;stroke-width:2.5;" x1="149.8128" x2="162.1872" y1="198.8831" y2="211.2575"/><line style="stroke:#222222;stroke-width:2.5;" x1="162.1872" x2="149.8128" y1="198.8831" y2="211.2575"/><line style="stroke:#181818;stroke-width:1.0;" x1="156" x2="156" y1="32.5664" y2="55.1328"/><polygon fill="#181818" points="152,45.1328,156,55.1328,160,45.1328,156,49.1328" style="stroke:#181818;stroke-width:1.0;"/><line style="stroke:#181818;stroke-width:1.0;" x1="156" x2="156" y1="89.1016" y2="109.1016"/><polygon fill="#181818" points="152,99.1016,156,109.1016,160,99.1016,156,103.1016" style="stroke:#181818;stroke-width:1.0;"/><line style="stroke:#181818;stroke-width:1.0;" x1="156" x2="156" y1="143.0703" y2="163.0703"/><polygon fill="#181818" points="152,153.0703,156,163.0703,160,153.0703,156,157.0703" style="stroke:#181818;stroke-width:1.0;"/><!--MD5=[29f0c3e1e6a86901d7a78feaa365abf3]
@startuml
!pragma layout smetana
start
note right
boolean isSameThan(__ptr__ other)
end note
:ST_subtree_t other2=(ST_subtree_t )other;;
:return this==other2;;
stop
end
@enduml

PlantUML version 1.2022.7(Mon Aug 22 17:01:30 UTC 2022)
(GPL source distribution)
Java Runtime: OpenJDK Runtime Environment
JVM: OpenJDK 64-Bit Server VM
Default Encoding: UTF-8
Language: en
Country: null
--></g></svg>