<?xml version="1.0" encoding="UTF-8" standalone="no"?><svg xmlns="http://www.w3.org/2000/svg" xmlns:xlink="http://www.w3.org/1999/xlink" contentStyleType="text/css" height="2853px" preserveAspectRatio="none" style="width:761px;height:2853px;background:#FFFFFF;" version="1.1" viewBox="0 0 761 2853" width="761px" zoomAndPan="magnify"><defs/><g><path d="M325,10 L325,26.1328 L305,30.1328 L325,34.1328 L325,50.2656 A0,0 0 0 0 325,50.2656 L663,50.2656 A0,0 0 0 0 663,50.2656 L663,20 L653,10 L325,10 A0,0 0 0 0 325,10 " fill="#FEFFDD" style="stroke:#181818;stroke-width:0.5;"/><path d="M653,10 L653,20 L663,20 L653,10 " fill="#FEFFDD" style="stroke:#181818;stroke-width:0.5;"/><text fill="#000000" font-family="sans-serif" font-size="13" lengthAdjust="spacing" textLength="317" x="331" y="27.0669">constructor PSystemKeycheck(UmlSourcesource,</text><text fill="#000000" font-family="sans-serif" font-size="13" lengthAdjust="spacing" textLength="125" x="331" y="42.1997">Stringsig,Stringkey)</text><ellipse cx="295" cy="30.1328" fill="#222222" rx="10" ry="10" style="stroke:#222222;stroke-width:1.0;"/><rect fill="#F1F1F1" height="33.9688" rx="12.5" ry="12.5" style="stroke:#181818;stroke-width:0.5;" width="117" x="236.5" y="70.2656"/><text fill="#000000" font-family="sans-serif" font-size="12" lengthAdjust="spacing" textLength="97" x="246.5" y="91.4043">super (source);</text><rect fill="#F1F1F1" height="33.9688" rx="12.5" ry="12.5" style="stroke:#181818;stroke-width:0.5;" width="97" x="246.5" y="124.2344"/><text fill="#000000" font-family="sans-serif" font-size="12" lengthAdjust="spacing" textLength="77" x="256.5" y="145.373">this.sig=sig;</text><rect fill="#F1F1F1" height="33.9688" rx="12.5" ry="12.5" style="stroke:#181818;stroke-width:0.5;" width="103" x="243.5" y="178.2031"/><text fill="#000000" font-family="sans-serif" font-size="12" lengthAdjust="spacing" textLength="83" x="253.5" y="199.3418">this.key=key;</text><ellipse cx="295" cy="242.1719" fill="none" rx="10" ry="10" style="stroke:#222222;stroke-width:1.5;"/><line style="stroke:#222222;stroke-width:2.5;" x1="288.8128" x2="301.1872" y1="235.9847" y2="248.3591"/><line style="stroke:#222222;stroke-width:2.5;" x1="301.1872" x2="288.8128" y1="235.9847" y2="248.3591"/><path d="M325,262.1719 L325,270.7383 L305,274.7383 L325,278.7383 L325,287.3047 A0,0 0 0 0 325,287.3047 L749,287.3047 A0,0 0 0 0 749,287.3047 L749,272.1719 L739,262.1719 L325,262.1719 A0,0 0 0 0 325,262.1719 " fill="#FEFFDD" style="stroke:#181818;stroke-width:0.5;"/><path d="M739,262.1719 L739,272.1719 L749,272.1719 L739,262.1719 " fill="#FEFFDD" style="stroke:#181818;stroke-width:0.5;"/><text fill="#000000" font-family="sans-serif" font-size="13" lengthAdjust="spacing" textLength="403" x="331" y="279.2388">UDrawablegetRootDrawable(FileFormatOptionfileFormatOption)</text><ellipse cx="295" cy="274.7383" fill="#222222" rx="10" ry="10" style="stroke:#222222;stroke-width:1.0;"/><rect fill="#F1F1F1" height="33.9688" rx="12.5" ry="12.5" style="stroke:#181818;stroke-width:0.5;" width="509" x="40.5" y="307.3047"/><text fill="#000000" font-family="sans-serif" font-size="12" lengthAdjust="spacing" textLength="489" x="50.5" y="328.4434">return new UDrawable(){public void drawU(UGraphicug){try {drawInternal(ug)</text><rect fill="#F1F1F1" height="33.9688" rx="12.5" ry="12.5" style="stroke:#181818;stroke-width:0.5;" width="280" x="155" y="361.2734"/><text fill="#000000" font-family="sans-serif" font-size="12" lengthAdjust="spacing" textLength="260" x="165" y="382.4121">}catch (Exceptione){Logme.error(e);}}};</text><ellipse cx="295" cy="426.2422" fill="none" rx="11" ry="11" style="stroke:#222222;stroke-width:1.0;"/><ellipse cx="295" cy="426.2422" fill="#222222" rx="6" ry="6" style="stroke:#111111;stroke-width:1.0;"/><ellipse cx="295" cy="457.2422" fill="none" rx="10" ry="10" style="stroke:#222222;stroke-width:1.5;"/><line style="stroke:#222222;stroke-width:2.5;" x1="288.8128" x2="301.1872" y1="451.055" y2="463.4294"/><line style="stroke:#222222;stroke-width:2.5;" x1="301.1872" x2="288.8128" y1="451.055" y2="463.4294"/><path d="M325,477.2422 L325,485.8086 L305,489.8086 L325,493.8086 L325,502.375 A0,0 0 0 0 325,502.375 L576,502.375 A0,0 0 0 0 576,502.375 L576,487.2422 L566,477.2422 L325,477.2422 A0,0 0 0 0 325,477.2422 " fill="#FEFFDD" style="stroke:#181818;stroke-width:0.5;"/><path d="M566,477.2422 L566,487.2422 L576,487.2422 L566,477.2422 " fill="#FEFFDD" style="stroke:#181818;stroke-width:0.5;"/><text fill="#000000" font-family="sans-serif" font-size="13" lengthAdjust="spacing" textLength="230" x="331" y="494.3091">DiagramDescriptiongetDescription()</text><ellipse cx="295" cy="489.8086" fill="#222222" rx="10" ry="10" style="stroke:#222222;stroke-width:1.0;"/><rect fill="#F1F1F1" height="33.9688" rx="12.5" ry="12.5" style="stroke:#181818;stroke-width:0.5;" width="270" x="160" y="522.375"/><text fill="#000000" font-family="sans-serif" font-size="12" lengthAdjust="spacing" textLength="250" x="170" y="543.5137">return new DiagramDescription("(Key)");</text><ellipse cx="295" cy="587.3438" fill="none" rx="11" ry="11" style="stroke:#222222;stroke-width:1.0;"/><ellipse cx="295" cy="587.3438" fill="#222222" rx="6" ry="6" style="stroke:#111111;stroke-width:1.0;"/><ellipse cx="295" cy="618.3438" fill="none" rx="10" ry="10" style="stroke:#222222;stroke-width:1.5;"/><line style="stroke:#222222;stroke-width:2.5;" x1="288.8128" x2="301.1872" y1="612.1566" y2="624.5309"/><line style="stroke:#222222;stroke-width:2.5;" x1="301.1872" x2="288.8128" y1="612.1566" y2="624.5309"/><path d="M325,638.3438 L325,646.9102 L305,650.9102 L325,654.9102 L325,663.4766 A0,0 0 0 0 325,663.4766 L539,663.4766 A0,0 0 0 0 539,663.4766 L539,648.3438 L529,638.3438 L325,638.3438 A0,0 0 0 0 325,638.3438 " fill="#FEFFDD" style="stroke:#181818;stroke-width:0.5;"/><path d="M529,638.3438 L529,648.3438 L539,648.3438 L529,638.3438 " fill="#FEFFDD" style="stroke:#181818;stroke-width:0.5;"/><text fill="#000000" font-family="sans-serif" font-size="13" lengthAdjust="spacing" textLength="193" x="331" y="655.4106">void drawInternal(UGraphicug)</text><ellipse cx="295" cy="650.9102" fill="#222222" rx="10" ry="10" style="stroke:#222222;stroke-width:1.0;"/><rect fill="#F1F1F1" height="33.9688" rx="12.5" ry="12.5" style="stroke:#181818;stroke-width:0.5;" width="240" x="175" y="683.4766"/><text fill="#000000" font-family="sans-serif" font-size="12" lengthAdjust="spacing" textLength="220" x="185" y="704.6152">final List&lt;String&gt;strings=header();</text><polygon fill="#F1F1F1" points="254,737.4453,336,737.4453,348,749.4453,336,761.4453,254,761.4453,242,749.4453,254,737.4453" style="stroke:#181818;stroke-width:0.5;"/><text fill="#000000" font-family="sans-serif" font-size="11" lengthAdjust="spacing" textLength="82" x="254" y="753.2534">try/catch block</text><rect fill="#F1F1F1" height="47.9375" rx="12.5" ry="12.5" style="stroke:#181818;stroke-width:0.5;" width="359" x="11" y="797.0547"/><text fill="#000000" font-family="sans-serif" font-size="12" lengthAdjust="spacing" textLength="339" x="21" y="818.1934">final LicenseInfoinfo=PLSSignature.retrieveNamed(sig,</text><text fill="#000000" font-family="sans-serif" font-size="12" lengthAdjust="spacing" textLength="64" x="21" y="832.1621">key,false);</text><rect fill="#F1F1F1" height="33.9688" rx="12.5" ry="12.5" style="stroke:#181818;stroke-width:0.5;" width="296" x="42.5" y="878.9609"/><text fill="#000000" font-family="sans-serif" font-size="12" lengthAdjust="spacing" textLength="81" x="52.5" y="900.0996">strings.add("</text><text fill="#000000" font-family="sans-serif" font-size="12" lengthAdjust="spacing" text-decoration="underline" textLength="177" x="133.5" y="900.0996">Provided license information</text><text fill="#000000" font-family="sans-serif" font-size="12" lengthAdjust="spacing" textLength="18" x="310.5" y="900.0996">:");</text><rect fill="#F1F1F1" height="33.9688" rx="12.5" ry="12.5" style="stroke:#181818;stroke-width:0.5;" width="249" x="66" y="932.9297"/><text fill="#000000" font-family="sans-serif" font-size="12" lengthAdjust="spacing" textLength="229" x="76" y="954.0684">License.addLicenseInfo(strings,info);</text><rect fill="#F1F1F1" height="33.9688" rx="12.5" ry="12.5" style="stroke:#181818;stroke-width:0.5;" width="119" x="131" y="986.8984"/><text fill="#000000" font-family="sans-serif" font-size="12" lengthAdjust="spacing" textLength="99" x="141" y="1008.0371">strings.add(" ");</text><rect fill="#F1F1F1" height="33.9688" rx="12.5" ry="12.5" style="stroke:#181818;stroke-width:0.5;" width="118" x="417" y="797.0547"/><text fill="#000000" font-family="sans-serif" font-size="12" lengthAdjust="spacing" textLength="98" x="427" y="818.1934">Logme.error(e);</text><rect fill="#F1F1F1" height="33.9688" rx="12.5" ry="12.5" style="stroke:#181818;stroke-width:0.5;" width="172" x="390" y="864.9922"/><text fill="#000000" font-family="sans-serif" font-size="12" lengthAdjust="spacing" textLength="81" x="400" y="886.1309">strings.add("</text><text fill="#000000" font-family="sans-serif" font-size="12" font-style="italic" lengthAdjust="spacing" textLength="35" x="481" y="886.1309">Error:</text><text fill="#000000" font-family="sans-serif" font-size="12" lengthAdjust="spacing" textLength="32" x="520" y="886.1309">"+e);</text><polygon fill="#F1F1F1" points="295,1030.8672,295,1030.8672,307,1042.8672,295,1054.8672,295,1054.8672,283,1042.8672,295,1030.8672" style="stroke:#181818;stroke-width:0.5;"/><rect fill="#F1F1F1" height="33.9688" rx="12.5" ry="12.5" style="stroke:#181818;stroke-width:0.5;" width="424" x="83" y="1074.8672"/><text fill="#000000" font-family="sans-serif" font-size="12" lengthAdjust="spacing" textLength="404" x="93" y="1096.0059">final TextBlockdisp=GraphicStrings.createBlackOnWhite(strings);</text><rect fill="#F1F1F1" height="33.9688" rx="12.5" ry="12.5" style="stroke:#181818;stroke-width:0.5;" width="119" x="235.5" y="1128.8359"/><text fill="#000000" font-family="sans-serif" font-size="12" lengthAdjust="spacing" textLength="99" x="245.5" y="1149.9746">disp.drawU(ug);</text><ellipse cx="295" cy="1192.8047" fill="none" rx="10" ry="10" style="stroke:#222222;stroke-width:1.5;"/><line style="stroke:#222222;stroke-width:2.5;" x1="288.8128" x2="301.1872" y1="1186.6175" y2="1198.9919"/><line style="stroke:#222222;stroke-width:2.5;" x1="301.1872" x2="288.8128" y1="1186.6175" y2="1198.9919"/><path d="M325,1212.8047 L325,1221.3711 L305,1225.3711 L325,1229.3711 L325,1237.9375 A0,0 0 0 0 325,1237.9375 L517,1237.9375 A0,0 0 0 0 517,1237.9375 L517,1222.8047 L507,1212.8047 L325,1212.8047 A0,0 0 0 0 325,1212.8047 " fill="#FEFFDD" style="stroke:#181818;stroke-width:0.5;"/><path d="M507,1212.8047 L507,1222.8047 L517,1222.8047 L507,1212.8047 " fill="#FEFFDD" style="stroke:#181818;stroke-width:0.5;"/><text fill="#000000" font-family="sans-serif" font-size="13" lengthAdjust="spacing" textLength="171" x="331" y="1229.8716">ArrayList&lt;String&gt;header()</text><ellipse cx="295" cy="1225.3711" fill="#222222" rx="10" ry="10" style="stroke:#222222;stroke-width:1.0;"/><rect fill="#F1F1F1" height="33.9688" rx="12.5" ry="12.5" style="stroke:#181818;stroke-width:0.5;" width="329" x="130.5" y="1257.9375"/><text fill="#000000" font-family="sans-serif" font-size="12" lengthAdjust="spacing" textLength="309" x="140.5" y="1279.0762">final ArrayList&lt;String&gt;strings=new ArrayList&lt;&gt;();</text><rect fill="#F1F1F1" height="47.9375" rx="12.5" ry="12.5" style="stroke:#181818;stroke-width:0.5;" width="418" x="86" y="1311.9063"/><text fill="#000000" font-family="sans-serif" font-size="12" lengthAdjust="spacing" textLength="81" x="96" y="1333.0449">strings.add("</text><text fill="#000000" font-family="sans-serif" font-size="12" font-weight="bold" lengthAdjust="spacing" textLength="317" x="177" y="1333.0449">PlantUML version "+Version.versionString()+</text><text fill="#000000" font-family="sans-serif" font-size="12" lengthAdjust="spacing" textLength="270" x="96" y="1347.0137">"&lt;/b&gt; ("+Version.compileTimeString()+")");</text><rect fill="#F1F1F1" height="33.9688" rx="12.5" ry="12.5" style="stroke:#181818;stroke-width:0.5;" width="406" x="92" y="1379.8438"/><text fill="#000000" font-family="sans-serif" font-size="12" lengthAdjust="spacing" textLength="386" x="102" y="1400.9824">strings.add("("+License.getCurrent()+" source distribution)");</text><rect fill="#F1F1F1" height="33.9688" rx="12.5" ry="12.5" style="stroke:#181818;stroke-width:0.5;" width="119" x="235.5" y="1433.8125"/><text fill="#000000" font-family="sans-serif" font-size="12" lengthAdjust="spacing" textLength="99" x="245.5" y="1454.9512">strings.add(" ");</text><rect fill="#F1F1F1" height="33.9688" rx="12.5" ry="12.5" style="stroke:#181818;stroke-width:0.5;" width="110" x="240" y="1487.7813"/><text fill="#000000" font-family="sans-serif" font-size="12" lengthAdjust="spacing" textLength="90" x="250" y="1508.9199">return strings;</text><ellipse cx="295" cy="1552.75" fill="none" rx="11" ry="11" style="stroke:#222222;stroke-width:1.0;"/><ellipse cx="295" cy="1552.75" fill="#222222" rx="6" ry="6" style="stroke:#111111;stroke-width:1.0;"/><ellipse cx="295" cy="1583.75" fill="none" rx="10" ry="10" style="stroke:#222222;stroke-width:1.5;"/><line style="stroke:#222222;stroke-width:2.5;" x1="288.8128" x2="301.1872" y1="1577.5628" y2="1589.9372"/><line style="stroke:#222222;stroke-width:2.5;" x1="301.1872" x2="288.8128" y1="1577.5628" y2="1589.9372"/><path d="M325,1603.75 L325,1612.3164 L305,1616.3164 L325,1620.3164 L325,1628.8828 A0,0 0 0 0 325,1628.8828 L622,1628.8828 A0,0 0 0 0 622,1628.8828 L622,1613.75 L612,1603.75 L325,1603.75 A0,0 0 0 0 325,1603.75 " fill="#FEFFDD" style="stroke:#181818;stroke-width:0.5;"/><path d="M612,1603.75 L612,1613.75 L622,1613.75 L612,1603.75 " fill="#FEFFDD" style="stroke:#181818;stroke-width:0.5;"/><text fill="#000000" font-family="sans-serif" font-size="13" lengthAdjust="spacing" textLength="276" x="331" y="1620.8169">void drawFlash(UGraphicug,LicenseInfoinfo)</text><ellipse cx="295" cy="1616.3164" fill="#222222" rx="10" ry="10" style="stroke:#222222;stroke-width:1.0;"/><rect fill="#F1F1F1" height="33.9688" rx="12.5" ry="12.5" style="stroke:#181818;stroke-width:0.5;" width="240" x="175" y="1648.8828"/><text fill="#000000" font-family="sans-serif" font-size="12" lengthAdjust="spacing" textLength="220" x="185" y="1670.0215">final List&lt;String&gt;strings=header();</text><rect fill="#F1F1F1" height="33.9688" rx="12.5" ry="12.5" style="stroke:#181818;stroke-width:0.5;" width="366" x="112" y="1702.8516"/><text fill="#000000" font-family="sans-serif" font-size="12" lengthAdjust="spacing" textLength="152" x="122" y="1723.9902">strings.add("To get your</text><text fill="#000000" font-family="sans-serif" font-size="12" font-style="italic" lengthAdjust="spacing" textLength="172" x="278" y="1723.9902">Professional Edition License</text><text fill="#000000" font-family="sans-serif" font-size="12" lengthAdjust="spacing" textLength="18" x="450" y="1723.9902">,");</text><rect fill="#F1F1F1" height="33.9688" rx="12.5" ry="12.5" style="stroke:#181818;stroke-width:0.5;" width="441" x="74.5" y="1756.8203"/><text fill="#000000" font-family="sans-serif" font-size="12" lengthAdjust="spacing" textLength="250" x="84.5" y="1777.959">strings.add("please send this qrcode to</text><text fill="#000000" font-family="sans-serif" font-size="12" font-weight="bold" lengthAdjust="spacing" textLength="145" x="338.5" y="1777.959">plantuml@gmail.com</text><text fill="#000000" font-family="sans-serif" font-size="12" lengthAdjust="spacing" textLength="18" x="487.5" y="1777.959">:");</text><rect fill="#F1F1F1" height="33.9688" rx="12.5" ry="12.5" style="stroke:#181818;stroke-width:0.5;" width="394" x="98" y="1810.7891"/><text fill="#000000" font-family="sans-serif" font-size="12" lengthAdjust="spacing" textLength="374" x="108" y="1831.9277">TextBlockdisp=GraphicStrings.createBlackOnWhite(strings);</text><rect fill="#F1F1F1" height="33.9688" rx="12.5" ry="12.5" style="stroke:#181818;stroke-width:0.5;" width="119" x="235.5" y="1864.7578"/><text fill="#000000" font-family="sans-serif" font-size="12" lengthAdjust="spacing" textLength="99" x="245.5" y="1885.8965">disp.drawU(ug);</text><rect fill="#F1F1F1" height="47.9375" rx="12.5" ry="12.5" style="stroke:#181818;stroke-width:0.5;" width="498" x="46" y="1918.7266"/><text fill="#000000" font-family="sans-serif" font-size="12" lengthAdjust="spacing" textLength="478" x="56" y="1939.8652">ug=ug.apply(UTranslate.dy(disp.calculateDimension(ug.getStringBounder())</text><text fill="#000000" font-family="sans-serif" font-size="12" lengthAdjust="spacing" textLength="90" x="56" y="1953.834">.getHeight()));</text><rect fill="#F1F1F1" height="33.9688" rx="12.5" ry="12.5" style="stroke:#181818;stroke-width:0.5;" width="420" x="85" y="1986.6641"/><text fill="#000000" font-family="sans-serif" font-size="12" lengthAdjust="spacing" textLength="400" x="95" y="2007.8027">final FlashCodeUtilsutils=FlashCodeFactory.getFlashCodeUtils();</text><rect fill="#F1F1F1" height="61.9063" rx="12.5" ry="12.5" style="stroke:#181818;stroke-width:0.5;" width="457" x="66.5" y="2040.6328"/><text fill="#000000" font-family="sans-serif" font-size="12" lengthAdjust="spacing" textLength="437" x="76.5" y="2061.7715">final BufferedImageim=utils.exportFlashcode(Version.versionString()+</text><text fill="#000000" font-family="sans-serif" font-size="12" lengthAdjust="spacing" textLength="368" x="76.5" y="2075.7402">"\n"+SignatureUtils.toHexString(PLSSignature.signature()),</text><text fill="#000000" font-family="sans-serif" font-size="12" lengthAdjust="spacing" textLength="160" x="76.5" y="2089.709">Color.BLACK,Color.WHITE);</text><rect fill="#F1F1F1" height="47.9375" rx="12.5" ry="12.5" style="stroke:#181818;stroke-width:0.5;" width="381" x="104.5" y="2170.9414"/><text fill="#000000" font-family="sans-serif" font-size="12" lengthAdjust="spacing" textLength="316" x="114.5" y="2192.0801">final UImageflash=new UImage(new PixelImage(im,</text><text fill="#000000" font-family="sans-serif" font-size="12" lengthAdjust="spacing" textLength="361" x="114.5" y="2206.0488">AffineTransformType.TYPE_NEAREST_NEIGHBOR)).scale(4);</text><rect fill="#F1F1F1" height="33.9688" rx="12.5" ry="12.5" style="stroke:#181818;stroke-width:0.5;" width="114" x="238" y="2238.8789"/><text fill="#000000" font-family="sans-serif" font-size="12" lengthAdjust="spacing" textLength="94" x="248" y="2260.0176">ug.draw(flash);</text><rect fill="#F1F1F1" height="33.9688" rx="12.5" ry="12.5" style="stroke:#181818;stroke-width:0.5;" width="315" x="137.5" y="2292.8477"/><text fill="#000000" font-family="sans-serif" font-size="12" lengthAdjust="spacing" textLength="295" x="147.5" y="2313.9863">ug=ug.apply(UTranslate.dy(flash.getHeight()));</text><polygon fill="#F1F1F1" points="270,2122.5391,320,2122.5391,332,2134.5391,320,2146.5391,270,2146.5391,258,2134.5391,270,2122.5391" style="stroke:#181818;stroke-width:0.5;"/><text fill="#000000" font-family="sans-serif" font-size="11" lengthAdjust="spacing" textLength="20" x="299" y="2156.7495">yes</text><text fill="#000000" font-family="sans-serif" font-size="11" lengthAdjust="spacing" textLength="46" x="270" y="2138.3472">im!=null</text><polygon fill="#F1F1F1" points="295,2346.8164,307,2358.8164,295,2370.8164,283,2358.8164,295,2346.8164" style="stroke:#181818;stroke-width:0.5;"/><rect fill="#F1F1F1" height="33.9688" rx="12.5" ry="12.5" style="stroke:#181818;stroke-width:0.5;" width="112" x="239" y="2439.2188"/><text fill="#000000" font-family="sans-serif" font-size="12" lengthAdjust="spacing" textLength="92" x="249" y="2460.3574">strings.clear();</text><rect fill="#F1F1F1" height="33.9688" rx="12.5" ry="12.5" style="stroke:#181818;stroke-width:0.5;" width="220" x="185" y="2493.1875"/><text fill="#000000" font-family="sans-serif" font-size="12" lengthAdjust="spacing" textLength="81" x="195" y="2514.3262">strings.add("</text><text fill="#000000" font-family="sans-serif" font-size="12" lengthAdjust="spacing" text-decoration="underline" textLength="101" x="276" y="2514.3262">Installed license</text><text fill="#000000" font-family="sans-serif" font-size="12" lengthAdjust="spacing" textLength="18" x="377" y="2514.3262">:");</text><rect fill="#F1F1F1" height="33.9688" rx="12.5" ry="12.5" style="stroke:#181818;stroke-width:0.5;" width="249" x="170.5" y="2547.1563"/><text fill="#000000" font-family="sans-serif" font-size="12" lengthAdjust="spacing" textLength="229" x="180.5" y="2568.2949">License.addLicenseInfo(strings,info);</text><rect fill="#F1F1F1" height="33.9688" rx="12.5" ry="12.5" style="stroke:#181818;stroke-width:0.5;" width="119" x="235.5" y="2616.125"/><text fill="#000000" font-family="sans-serif" font-size="12" lengthAdjust="spacing" textLength="99" x="245.5" y="2637.2637">strings.add(" ");</text><rect fill="#F1F1F1" height="33.9688" rx="12.5" ry="12.5" style="stroke:#181818;stroke-width:0.5;" width="335" x="127.5" y="2670.0938"/><text fill="#000000" font-family="sans-serif" font-size="12" lengthAdjust="spacing" textLength="315" x="137.5" y="2691.2324">disp=GraphicStrings.createBlackOnWhite(strings);</text><rect fill="#F1F1F1" height="33.9688" rx="12.5" ry="12.5" style="stroke:#181818;stroke-width:0.5;" width="119" x="235.5" y="2724.0625"/><text fill="#000000" font-family="sans-serif" font-size="12" lengthAdjust="spacing" textLength="99" x="245.5" y="2745.2012">disp.drawU(ug);</text><polygon fill="#F1F1F1" points="236,2390.8164,354,2390.8164,366,2402.8164,354,2414.8164,236,2414.8164,224,2402.8164,236,2390.8164" style="stroke:#181818;stroke-width:0.5;"/><text fill="#000000" font-family="sans-serif" font-size="11" lengthAdjust="spacing" textLength="20" x="299" y="2425.0269">yes</text><text fill="#000000" font-family="sans-serif" font-size="11" lengthAdjust="spacing" textLength="118" x="236" y="2406.6245">info.isNone()==false</text><polygon fill="#F1F1F1" points="295,2778.0313,307,2790.0313,295,2802.0313,283,2790.0313,295,2778.0313" style="stroke:#181818;stroke-width:0.5;"/><ellipse cx="295" cy="2832.0313" fill="none" rx="10" ry="10" style="stroke:#222222;stroke-width:1.5;"/><line style="stroke:#222222;stroke-width:2.5;" x1="288.8128" x2="301.1872" y1="2825.8441" y2="2838.2184"/><line style="stroke:#222222;stroke-width:2.5;" x1="301.1872" x2="288.8128" y1="2825.8441" y2="2838.2184"/><line style="stroke:#181818;stroke-width:1.0;" x1="295" x2="295" y1="40.1328" y2="70.2656"/><polygon fill="#181818" points="291,60.2656,295,70.2656,299,60.2656,295,64.2656" style="stroke:#181818;stroke-width:1.0;"/><line style="stroke:#181818;stroke-width:1.0;" x1="295" x2="295" y1="104.2344" y2="124.2344"/><polygon fill="#181818" points="291,114.2344,295,124.2344,299,114.2344,295,118.2344" style="stroke:#181818;stroke-width:1.0;"/><line style="stroke:#181818;stroke-width:1.0;" x1="295" x2="295" y1="158.2031" y2="178.2031"/><polygon fill="#181818" points="291,168.2031,295,178.2031,299,168.2031,295,172.2031" style="stroke:#181818;stroke-width:1.0;"/><line style="stroke:#181818;stroke-width:1.0;" x1="295" x2="295" y1="212.1719" y2="232.1719"/><polygon fill="#181818" points="291,222.1719,295,232.1719,299,222.1719,295,226.1719" style="stroke:#181818;stroke-width:1.0;"/><line style="stroke:#181818;stroke-width:1.0;" x1="295" x2="295" y1="284.7383" y2="307.3047"/><polygon fill="#181818" points="291,297.3047,295,307.3047,299,297.3047,295,301.3047" style="stroke:#181818;stroke-width:1.0;"/><line style="stroke:#181818;stroke-width:1.0;" x1="295" x2="295" y1="341.2734" y2="361.2734"/><polygon fill="#181818" points="291,351.2734,295,361.2734,299,351.2734,295,355.2734" style="stroke:#181818;stroke-width:1.0;"/><line style="stroke:#181818;stroke-width:1.0;" x1="295" x2="295" y1="395.2422" y2="415.2422"/><polygon fill="#181818" points="291,405.2422,295,415.2422,299,405.2422,295,409.2422" style="stroke:#181818;stroke-width:1.0;"/><line style="stroke:#181818;stroke-width:1.0;" x1="295" x2="295" y1="499.8086" y2="522.375"/><polygon fill="#181818" points="291,512.375,295,522.375,299,512.375,295,516.375" style="stroke:#181818;stroke-width:1.0;"/><line style="stroke:#181818;stroke-width:1.0;" x1="295" x2="295" y1="556.3438" y2="576.3438"/><polygon fill="#181818" points="291,566.3438,295,576.3438,299,566.3438,295,570.3438" style="stroke:#181818;stroke-width:1.0;"/><line style="stroke:#181818;stroke-width:1.0;" x1="295" x2="295" y1="660.9102" y2="683.4766"/><polygon fill="#181818" points="291,673.4766,295,683.4766,299,673.4766,295,677.4766" style="stroke:#181818;stroke-width:1.0;"/><line style="stroke:#181818;stroke-width:1.0;" x1="190.5" x2="190.5" y1="844.9922" y2="878.9609"/><polygon fill="#181818" points="186.5,868.9609,190.5,878.9609,194.5,868.9609,190.5,872.9609" style="stroke:#181818;stroke-width:1.0;"/><line style="stroke:#181818;stroke-width:1.0;" x1="190.5" x2="190.5" y1="912.9297" y2="932.9297"/><polygon fill="#181818" points="186.5,922.9297,190.5,932.9297,194.5,922.9297,190.5,926.9297" style="stroke:#181818;stroke-width:1.0;"/><line style="stroke:#181818;stroke-width:1.0;" x1="190.5" x2="190.5" y1="966.8984" y2="986.8984"/><polygon fill="#181818" points="186.5,976.8984,190.5,986.8984,194.5,976.8984,190.5,980.8984" style="stroke:#181818;stroke-width:1.0;"/><line style="stroke:#181818;stroke-width:1.0;" x1="476" x2="476" y1="831.0234" y2="864.9922"/><polygon fill="#181818" points="472,854.9922,476,864.9922,480,854.9922,476,858.9922" style="stroke:#181818;stroke-width:1.0;"/><line style="stroke:#181818;stroke-width:1.0;" x1="242" x2="190.5" y1="749.4453" y2="749.4453"/><line style="stroke:#181818;stroke-width:1.0;" x1="190.5" x2="190.5" y1="749.4453" y2="797.0547"/><polygon fill="#181818" points="186.5,787.0547,190.5,797.0547,194.5,787.0547,190.5,791.0547" style="stroke:#181818;stroke-width:1.0;"/><text fill="#000000" font-family="sans-serif" font-size="11" lengthAdjust="spacing" textLength="15" x="190.5" y="777.0581">try</text><line style="stroke:#181818;stroke-width:1.0;" x1="348" x2="476" y1="749.4453" y2="749.4453"/><line style="stroke:#181818;stroke-width:1.0;" x1="476" x2="476" y1="749.4453" y2="797.0547"/><polygon fill="#181818" points="472,787.0547,476,797.0547,480,787.0547,476,791.0547" style="stroke:#181818;stroke-width:1.0;"/><text fill="#000000" font-family="sans-serif" font-size="11" lengthAdjust="spacing" textLength="103" x="476" y="777.0581">catch (Exceptione)</text><line style="stroke:#181818;stroke-width:1.0;" x1="190.5" x2="190.5" y1="1020.8672" y2="1042.8672"/><line style="stroke:#181818;stroke-width:1.0;" x1="190.5" x2="283" y1="1042.8672" y2="1042.8672"/><polygon fill="#181818" points="273,1038.8672,283,1042.8672,273,1046.8672,277,1042.8672" style="stroke:#181818;stroke-width:1.0;"/><line style="stroke:#181818;stroke-width:1.0;" x1="476" x2="476" y1="898.9609" y2="1042.8672"/><line style="stroke:#181818;stroke-width:1.0;" x1="476" x2="307" y1="1042.8672" y2="1042.8672"/><polygon fill="#181818" points="317,1038.8672,307,1042.8672,317,1046.8672,313,1042.8672" style="stroke:#181818;stroke-width:1.0;"/><line style="stroke:#181818;stroke-width:1.0;" x1="295" x2="295" y1="717.4453" y2="737.4453"/><polygon fill="#181818" points="291,727.4453,295,737.4453,299,727.4453,295,731.4453" style="stroke:#181818;stroke-width:1.0;"/><line style="stroke:#181818;stroke-width:1.0;" x1="295" x2="295" y1="1054.8672" y2="1074.8672"/><polygon fill="#181818" points="291,1064.8672,295,1074.8672,299,1064.8672,295,1068.8672" style="stroke:#181818;stroke-width:1.0;"/><line style="stroke:#181818;stroke-width:1.0;" x1="295" x2="295" y1="1108.8359" y2="1128.8359"/><polygon fill="#181818" points="291,1118.8359,295,1128.8359,299,1118.8359,295,1122.8359" style="stroke:#181818;stroke-width:1.0;"/><line style="stroke:#181818;stroke-width:1.0;" x1="295" x2="295" y1="1162.8047" y2="1182.8047"/><polygon fill="#181818" points="291,1172.8047,295,1182.8047,299,1172.8047,295,1176.8047" style="stroke:#181818;stroke-width:1.0;"/><line style="stroke:#181818;stroke-width:1.0;" x1="295" x2="295" y1="1235.3711" y2="1257.9375"/><polygon fill="#181818" points="291,1247.9375,295,1257.9375,299,1247.9375,295,1251.9375" style="stroke:#181818;stroke-width:1.0;"/><line style="stroke:#181818;stroke-width:1.0;" x1="295" x2="295" y1="1291.9063" y2="1311.9063"/><polygon fill="#181818" points="291,1301.9063,295,1311.9063,299,1301.9063,295,1305.9063" style="stroke:#181818;stroke-width:1.0;"/><line style="stroke:#181818;stroke-width:1.0;" x1="295" x2="295" y1="1359.8438" y2="1379.8438"/><polygon fill="#181818" points="291,1369.8438,295,1379.8438,299,1369.8438,295,1373.8438" style="stroke:#181818;stroke-width:1.0;"/><line style="stroke:#181818;stroke-width:1.0;" x1="295" x2="295" y1="1413.8125" y2="1433.8125"/><polygon fill="#181818" points="291,1423.8125,295,1433.8125,299,1423.8125,295,1427.8125" style="stroke:#181818;stroke-width:1.0;"/><line style="stroke:#181818;stroke-width:1.0;" x1="295" x2="295" y1="1467.7813" y2="1487.7813"/><polygon fill="#181818" points="291,1477.7813,295,1487.7813,299,1477.7813,295,1481.7813" style="stroke:#181818;stroke-width:1.0;"/><line style="stroke:#181818;stroke-width:1.0;" x1="295" x2="295" y1="1521.75" y2="1541.75"/><polygon fill="#181818" points="291,1531.75,295,1541.75,299,1531.75,295,1535.75" style="stroke:#181818;stroke-width:1.0;"/><line style="stroke:#181818;stroke-width:1.0;" x1="295" x2="295" y1="1626.3164" y2="1648.8828"/><polygon fill="#181818" points="291,1638.8828,295,1648.8828,299,1638.8828,295,1642.8828" style="stroke:#181818;stroke-width:1.0;"/><line style="stroke:#181818;stroke-width:1.0;" x1="295" x2="295" y1="1682.8516" y2="1702.8516"/><polygon fill="#181818" points="291,1692.8516,295,1702.8516,299,1692.8516,295,1696.8516" style="stroke:#181818;stroke-width:1.0;"/><line style="stroke:#181818;stroke-width:1.0;" x1="295" x2="295" y1="1736.8203" y2="1756.8203"/><polygon fill="#181818" points="291,1746.8203,295,1756.8203,299,1746.8203,295,1750.8203" style="stroke:#181818;stroke-width:1.0;"/><line style="stroke:#181818;stroke-width:1.0;" x1="295" x2="295" y1="1790.7891" y2="1810.7891"/><polygon fill="#181818" points="291,1800.7891,295,1810.7891,299,1800.7891,295,1804.7891" style="stroke:#181818;stroke-width:1.0;"/><line style="stroke:#181818;stroke-width:1.0;" x1="295" x2="295" y1="1844.7578" y2="1864.7578"/><polygon fill="#181818" points="291,1854.7578,295,1864.7578,299,1854.7578,295,1858.7578" style="stroke:#181818;stroke-width:1.0;"/><line style="stroke:#181818;stroke-width:1.0;" x1="295" x2="295" y1="1898.7266" y2="1918.7266"/><polygon fill="#181818" points="291,1908.7266,295,1918.7266,299,1908.7266,295,1912.7266" style="stroke:#181818;stroke-width:1.0;"/><line style="stroke:#181818;stroke-width:1.0;" x1="295" x2="295" y1="1966.6641" y2="1986.6641"/><polygon fill="#181818" points="291,1976.6641,295,1986.6641,299,1976.6641,295,1980.6641" style="stroke:#181818;stroke-width:1.0;"/><line style="stroke:#181818;stroke-width:1.0;" x1="295" x2="295" y1="2020.6328" y2="2040.6328"/><polygon fill="#181818" points="291,2030.6328,295,2040.6328,299,2030.6328,295,2034.6328" style="stroke:#181818;stroke-width:1.0;"/><line style="stroke:#181818;stroke-width:1.0;" x1="295" x2="295" y1="2218.8789" y2="2238.8789"/><polygon fill="#181818" points="291,2228.8789,295,2238.8789,299,2228.8789,295,2232.8789" style="stroke:#181818;stroke-width:1.0;"/><line style="stroke:#181818;stroke-width:1.0;" x1="295" x2="295" y1="2272.8477" y2="2292.8477"/><polygon fill="#181818" points="291,2282.8477,295,2292.8477,299,2282.8477,295,2286.8477" style="stroke:#181818;stroke-width:1.0;"/><line style="stroke:#181818;stroke-width:1.0;" x1="295" x2="295" y1="2146.5391" y2="2170.9414"/><polygon fill="#181818" points="291,2160.9414,295,2170.9414,299,2160.9414,295,2164.9414" style="stroke:#181818;stroke-width:1.0;"/><line style="stroke:#181818;stroke-width:1.0;" x1="332" x2="495.5" y1="2134.5391" y2="2134.5391"/><polygon fill="#181818" points="491.5,2238.8789,495.5,2248.8789,499.5,2238.8789,495.5,2242.8789" style="stroke:#181818;stroke-width:1.0;"/><line style="stroke:#181818;stroke-width:1.0;" x1="495.5" x2="495.5" y1="2134.5391" y2="2358.8164"/><line style="stroke:#181818;stroke-width:1.0;" x1="495.5" x2="307" y1="2358.8164" y2="2358.8164"/><polygon fill="#181818" points="317,2354.8164,307,2358.8164,317,2362.8164,313,2358.8164" style="stroke:#181818;stroke-width:1.0;"/><line style="stroke:#181818;stroke-width:1.0;" x1="295" x2="295" y1="2326.8164" y2="2346.8164"/><polygon fill="#181818" points="291,2336.8164,295,2346.8164,299,2336.8164,295,2340.8164" style="stroke:#181818;stroke-width:1.0;"/><line style="stroke:#181818;stroke-width:1.0;" x1="295" x2="295" y1="2102.5391" y2="2122.5391"/><polygon fill="#181818" points="291,2112.5391,295,2122.5391,299,2112.5391,295,2116.5391" style="stroke:#181818;stroke-width:1.0;"/><line style="stroke:#181818;stroke-width:1.0;" x1="295" x2="295" y1="2473.1875" y2="2493.1875"/><polygon fill="#181818" points="291,2483.1875,295,2493.1875,299,2483.1875,295,2487.1875" style="stroke:#181818;stroke-width:1.0;"/><line style="stroke:#181818;stroke-width:1.0;" x1="295" x2="295" y1="2527.1563" y2="2547.1563"/><polygon fill="#181818" points="291,2537.1563,295,2547.1563,299,2537.1563,295,2541.1563" style="stroke:#181818;stroke-width:1.0;"/><line style="stroke:#181818;stroke-width:1.0;" x1="295" x2="295" y1="2581.125" y2="2616.125"/><polygon fill="#181818" points="291,2606.125,295,2616.125,299,2606.125,295,2610.125" style="stroke:#181818;stroke-width:1.0;"/><line style="stroke:#181818;stroke-width:1.0;" x1="295" x2="295" y1="2650.0938" y2="2670.0938"/><polygon fill="#181818" points="291,2660.0938,295,2670.0938,299,2660.0938,295,2664.0938" style="stroke:#181818;stroke-width:1.0;"/><line style="stroke:#181818;stroke-width:1.0;" x1="295" x2="295" y1="2704.0625" y2="2724.0625"/><polygon fill="#181818" points="291,2714.0625,295,2724.0625,299,2714.0625,295,2718.0625" style="stroke:#181818;stroke-width:1.0;"/><line style="stroke:#181818;stroke-width:1.0;" x1="295" x2="295" y1="2414.8164" y2="2439.2188"/><polygon fill="#181818" points="291,2429.2188,295,2439.2188,299,2429.2188,295,2433.2188" style="stroke:#181818;stroke-width:1.0;"/><line style="stroke:#181818;stroke-width:1.0;" x1="366" x2="472.5" y1="2402.8164" y2="2402.8164"/><polygon fill="#181818" points="468.5,2588.625,472.5,2598.625,476.5,2588.625,472.5,2592.625" style="stroke:#181818;stroke-width:1.0;"/><line style="stroke:#181818;stroke-width:1.0;" x1="472.5" x2="472.5" y1="2402.8164" y2="2790.0313"/><line style="stroke:#181818;stroke-width:1.0;" x1="472.5" x2="307" y1="2790.0313" y2="2790.0313"/><polygon fill="#181818" points="317,2786.0313,307,2790.0313,317,2794.0313,313,2790.0313" style="stroke:#181818;stroke-width:1.0;"/><line style="stroke:#181818;stroke-width:1.0;" x1="295" x2="295" y1="2758.0313" y2="2778.0313"/><polygon fill="#181818" points="291,2768.0313,295,2778.0313,299,2768.0313,295,2772.0313" style="stroke:#181818;stroke-width:1.0;"/><line style="stroke:#181818;stroke-width:1.0;" x1="295" x2="295" y1="2370.8164" y2="2390.8164"/><polygon fill="#181818" points="291,2380.8164,295,2390.8164,299,2380.8164,295,2384.8164" style="stroke:#181818;stroke-width:1.0;"/><line style="stroke:#181818;stroke-width:1.0;" x1="295" x2="295" y1="2802.0313" y2="2822.0313"/><polygon fill="#181818" points="291,2812.0313,295,2822.0313,299,2812.0313,295,2816.0313" style="stroke:#181818;stroke-width:1.0;"/><!--MD5=[aecdc8fef09bff600c7fe4ab1bc3e4d9]
@startuml
!pragma layout smetana
start
note right
constructor PSystemKeycheck(UmlSourcesource,
Stringsig,Stringkey)
end note
:super (source);;
:this.sig=sig;;
:this.key=key;;
end
start
note right
UDrawablegetRootDrawable(FileFormatOptionfileFormatOption)
end note
:return new UDrawable(){public void drawU(UGraphicug){try {drawInternal(ug);
:}catch (Exceptione){Logme.error(e);}}};;
stop
end
start
note right
DiagramDescriptiongetDescription()
end note
:return new DiagramDescription("(Key)");;
stop
end
start
note right
void drawInternal(UGraphicug)
end note
:final List<String>strings=header();;
switch (try/catch block)
case (try)
:final LicenseInfoinfo=PLSSignature.retrieveNamed(sig,
key,false);;
:strings.add("<u>Provided license information</u>:");;
:License.addLicenseInfo(strings,info);;
:strings.add(" ");;
case (catch (Exceptione))
:Logme.error(e);;
:strings.add("<i>Error:</i> "+e);;
endswitch
:final TextBlockdisp=GraphicStrings.createBlackOnWhite(strings);;
:disp.drawU(ug);;
end
start
note right
ArrayList<String>header()
end note
:final ArrayList<String>strings=new ArrayList<>();;
:strings.add("<b>PlantUML version "+Version.versionString()+
"</b> ("+Version.compileTimeString()+")");;
:strings.add("("+License.getCurrent()+" source distribution)");;
:strings.add(" ");;
:return strings;;
stop
end
start
note right
void drawFlash(UGraphicug,LicenseInfoinfo)
end note
:final List<String>strings=header();;
:strings.add("To get your <i>Professional Edition License</i>,");;
:strings.add("please send this qrcode to <b>plantuml@gmail.com</b> :");;
:TextBlockdisp=GraphicStrings.createBlackOnWhite(strings);;
:disp.drawU(ug);;
:ug=ug.apply(UTranslate.dy(disp.calculateDimension(ug.getStringBounder())
.getHeight()));;
:final FlashCodeUtilsutils=FlashCodeFactory.getFlashCodeUtils();;
:final BufferedImageim=utils.exportFlashcode(Version.versionString()+
"\n"+SignatureUtils.toHexString(PLSSignature.signature()),
Color.BLACK,Color.WHITE);;
if (im!=null ) then (yes) 
:final UImageflash=new UImage(new PixelImage(im,
AffineTransformType.TYPE_NEAREST_NEIGHBOR)).scale(4);;
:ug.draw(flash);;
:ug=ug.apply(UTranslate.dy(flash.getHeight()));;
endif 
if (info.isNone()==false) then (yes) 
:strings.clear();;
:strings.add("<u>Installed license</u>:");;
:License.addLicenseInfo(strings,info);;
:strings.add(" ");;
:disp=GraphicStrings.createBlackOnWhite(strings);;
:disp.drawU(ug);;
endif 
end
@enduml

PlantUML version 1.2022.7(Mon Aug 22 17:01:30 UTC 2022)
(GPL source distribution)
Java Runtime: OpenJDK Runtime Environment
JVM: OpenJDK 64-Bit Server VM
Default Encoding: UTF-8
Language: en
Country: null
--></g></svg>