<?xml version="1.0" encoding="UTF-8" standalone="no"?><svg xmlns="http://www.w3.org/2000/svg" xmlns:xlink="http://www.w3.org/1999/xlink" contentStyleType="text/css" height="169px" preserveAspectRatio="none" style="width:385px;height:169px;background:#FFFFFF;" version="1.1" viewBox="0 0 385 169" width="385px" zoomAndPan="magnify"><defs/><g><!--MD5=[e05e314175e2ba11ca8e7bbcd38d0c44]
cluster net.sourceforge.plantuml.version--><g id="cluster_net.sourceforge.plantuml.version"><path d="M8.5,63 L274.5,63 A3.75,3.75 0 0 1 277,65.5 L284,85.2969 L375.5,85.2969 A2.5,2.5 0 0 1 378,87.7969 L378,159.5 A2.5,2.5 0 0 1 375.5,162 L8.5,162 A2.5,2.5 0 0 1 6,159.5 L6,65.5 A2.5,2.5 0 0 1 8.5,63 " fill="none" style="stroke:#000000;stroke-width:1.5;"/><line style="stroke:#000000;stroke-width:1.5;" x1="6" x2="284" y1="85.2969" y2="85.2969"/><text fill="#000000" font-family="sans-serif" font-size="14" font-weight="bold" lengthAdjust="spacing" textLength="265" x="10" y="77.9951">net.sourceforge.plantuml.version</text></g><!--MD5=[8d9cd0d5bdae8ccd97e3dfbfd3629d57]
class PSystemSingleLineFactory--><g id="elem_PSystemSingleLineFactory"><rect fill="#F1F1F1" height="48" id="PSystemSingleLineFactory" rx="2.5" ry="2.5" style="stroke:#181818;stroke-width:0.5;" width="212" x="86" y="6"/><ellipse cx="101" cy="22" fill="#ADD1B2" rx="11" ry="11" style="stroke:#181818;stroke-width:1.0;"/><path d="M103.9688,27.6406 Q103.3906,27.9375 102.75,28.0781 Q102.1094,28.2344 101.4063,28.2344 Q98.9063,28.2344 97.5781,26.5938 Q96.2656,24.9375 96.2656,21.8125 Q96.2656,18.6875 97.5781,17.0313 Q98.9063,15.375 101.4063,15.375 Q102.1094,15.375 102.75,15.5313 Q103.4063,15.6875 103.9688,15.9844 L103.9688,18.7031 Q103.3438,18.125 102.75,17.8594 Q102.1563,17.5781 101.5313,17.5781 Q100.1875,17.5781 99.5,18.6563 Q98.8125,19.7188 98.8125,21.8125 Q98.8125,23.9063 99.5,24.9844 Q100.1875,26.0469 101.5313,26.0469 Q102.1563,26.0469 102.75,25.7813 Q103.3438,25.5 103.9688,24.9219 L103.9688,27.6406 Z " fill="#000000"/><text fill="#000000" font-family="sans-serif" font-size="14" lengthAdjust="spacing" textLength="180" x="115" y="26.8467">PSystemSingleLineFactory</text><line style="stroke:#181818;stroke-width:0.5;" x1="87" x2="297" y1="38" y2="38"/><line style="stroke:#181818;stroke-width:0.5;" x1="87" x2="297" y1="46" y2="46"/></g><!--MD5=[bf5291740078c3a72872b3c3c042fe79]
class net.sourceforge.plantuml.version.PSystemLicenseFactory--><g id="elem_net.sourceforge.plantuml.version.PSystemLicenseFactory"><rect codeLine="3" fill="#F1F1F1" height="64.2969" id="net.sourceforge.plantuml.version.PSystemLicenseFactory" rx="2.5" ry="2.5" style="stroke:#181818;stroke-width:0.5;" width="356" x="14" y="90"/><ellipse cx="106.25" cy="106" fill="#ADD1B2" rx="11" ry="11" style="stroke:#181818;stroke-width:1.0;"/><path d="M109.2188,111.6406 Q108.6406,111.9375 108,112.0781 Q107.3594,112.2344 106.6563,112.2344 Q104.1563,112.2344 102.8281,110.5938 Q101.5156,108.9375 101.5156,105.8125 Q101.5156,102.6875 102.8281,101.0313 Q104.1563,99.375 106.6563,99.375 Q107.3594,99.375 108,99.5313 Q108.6563,99.6875 109.2188,99.9844 L109.2188,102.7031 Q108.5938,102.125 108,101.8594 Q107.4063,101.5781 106.7813,101.5781 Q105.4375,101.5781 104.75,102.6563 Q104.0625,103.7188 104.0625,105.8125 Q104.0625,107.9063 104.75,108.9844 Q105.4375,110.0469 106.7813,110.0469 Q107.4063,110.0469 108,109.7813 Q108.5938,109.5 109.2188,108.9219 L109.2188,111.6406 Z " fill="#000000"/><text fill="#000000" font-family="sans-serif" font-size="14" lengthAdjust="spacing" textLength="163" x="126.75" y="110.8467">PSystemLicenseFactory</text><line style="stroke:#181818;stroke-width:0.5;" x1="15" x2="369" y1="122" y2="122"/><line style="stroke:#181818;stroke-width:0.5;" x1="15" x2="369" y1="130" y2="130"/><a href="./../../../../../.././qc/src/net/sourceforge/plantuml/version/PSystemLicenseFactory.java.html#47" target="_top" title="./../../../../../.././qc/src/net/sourceforge/plantuml/version/PSystemLicenseFactory.java.html#47" xlink:actuate="onRequest" xlink:href="./../../../../../.././qc/src/net/sourceforge/plantuml/version/PSystemLicenseFactory.java.html#47" xlink:show="new" xlink:title="./../../../../../.././qc/src/net/sourceforge/plantuml/version/PSystemLicenseFactory.java.html#47" xlink:type="simple"><text fill="#000000" font-family="sans-serif" font-size="14" lengthAdjust="spacing" textLength="344" x="20" y="146.9951">executeLine(UmlSource;String) : AbstractPSystem</text></a></g><path d="M192,54.1772 C192,65.0104 192,78.07 192,89.7592 " fill="none" style="stroke:#181818;stroke-width:1.0;"/><polygon fill="#FFFFFF" points="192,54.1772,186,70.1772,198,70.1772,192,54.1772" style="stroke:#181818;stroke-width:1.0;"/><!--MD5=[ea428695e61f04509159ddb3bc3ee199]
@startuml
!pragma layout smetana
"PSystemSingleLineFactory" <|- - "net.sourceforge.plantuml.version.PSystemLicenseFactory"
class net.sourceforge.plantuml.version.PSystemLicenseFactory {
executeLine(UmlSource;String) : AbstractPSystem [[[./../../../../../.././qc/src/net/sourceforge/plantuml/version/PSystemLicenseFactory.java.html#47]]]
} 
@enduml

PlantUML version 1.2022.7(Mon Aug 22 17:01:30 UTC 2022)
(GPL source distribution)
Java Runtime: OpenJDK Runtime Environment
JVM: OpenJDK 64-Bit Server VM
Default Encoding: UTF-8
Language: en
Country: null
--></g></svg>