<?xml version="1.0" encoding="UTF-8" standalone="no"?><svg xmlns="http://www.w3.org/2000/svg" xmlns:xlink="http://www.w3.org/1999/xlink" contentStyleType="text/css" height="1856px" preserveAspectRatio="none" style="width:910px;height:1856px;background:#FFFFFF;" version="1.1" viewBox="0 0 910 1856" width="910px" zoomAndPan="magnify"><defs/><g><path d="M472.5,10 L472.5,18.5664 L452.5,22.5664 L472.5,26.5664 L472.5,35.1328 A0,0 0 0 0 472.5,35.1328 L676.5,35.1328 A0,0 0 0 0 676.5,35.1328 L676.5,20 L666.5,10 L472.5,10 A0,0 0 0 0 472.5,10 " fill="#FEFFDD" style="stroke:#181818;stroke-width:0.5;"/><path d="M666.5,10 L666.5,20 L676.5,20 L666.5,10 " fill="#FEFFDD" style="stroke:#181818;stroke-width:0.5;"/><text fill="#000000" font-family="sans-serif" font-size="13" lengthAdjust="spacing" textLength="183" x="478.5" y="27.0669">IRegex toRegex(String suffix)</text><ellipse cx="442.5" cy="22.5664" fill="#222222" rx="10" ry="10" style="stroke:#222222;stroke-width:1.0;"/><rect fill="#F1F1F1" height="89.8438" rx="12.5" ry="12.5" style="stroke:#181818;stroke-width:0.5;" width="415" x="235" y="55.1328"/><text fill="#000000" font-family="sans-serif" font-size="12" lengthAdjust="spacing" textLength="395" x="245" y="76.2715">return new RegexLeaf("COMPLEMENT"+suffix,"(?:at|with|after|"+</text><text fill="#000000" font-family="sans-serif" font-size="12" lengthAdjust="spacing" textLength="277" x="245" y="90.2402">"(\\d+)[%s]+(working[%s]+)?(day|week)s?"+</text><text fill="#000000" font-family="sans-serif" font-size="12" lengthAdjust="spacing" textLength="285" x="245" y="104.209">"(?:[%s]+and[%s]+(\\d+)[%s]+(working[%s]+</text><text fill="#000000" font-family="sans-serif" font-size="12" lengthAdjust="spacing" textLength="289" x="245" y="118.1777">)?(day|week)s?)?"+"[%s]+(before|after))[%s]+</text><text fill="#000000" font-family="sans-serif" font-size="12" lengthAdjust="spacing" textLength="235" x="245" y="132.1465">\\[([^\\[\\]]+?)\\].?s[%s]+(start|end)");</text><ellipse cx="442.5" cy="175.9766" fill="none" rx="11" ry="11" style="stroke:#222222;stroke-width:1.0;"/><ellipse cx="442.5" cy="175.9766" fill="#222222" rx="6" ry="6" style="stroke:#111111;stroke-width:1.0;"/><ellipse cx="442.5" cy="206.9766" fill="none" rx="10" ry="10" style="stroke:#222222;stroke-width:1.5;"/><line style="stroke:#222222;stroke-width:2.5;" x1="436.3128" x2="448.6872" y1="200.7894" y2="213.1637"/><line style="stroke:#222222;stroke-width:2.5;" x1="448.6872" x2="436.3128" y1="200.7894" y2="213.1637"/><path d="M472.5,226.9766 L472.5,243.1094 L452.5,247.1094 L472.5,251.1094 L472.5,267.2422 A0,0 0 0 0 472.5,267.2422 L831.5,267.2422 A0,0 0 0 0 831.5,267.2422 L831.5,236.9766 L821.5,226.9766 L472.5,226.9766 A0,0 0 0 0 472.5,226.9766 " fill="#FEFFDD" style="stroke:#181818;stroke-width:0.5;"/><path d="M821.5,226.9766 L821.5,236.9766 L831.5,236.9766 L821.5,226.9766 " fill="#FEFFDD" style="stroke:#181818;stroke-width:0.5;"/><text fill="#000000" font-family="sans-serif" font-size="13" lengthAdjust="spacing" textLength="338" x="478.5" y="244.0435">Failable&lt;TaskInstant&gt; getMe(GanttDiagram system,</text><text fill="#000000" font-family="sans-serif" font-size="13" lengthAdjust="spacing" textLength="187" x="478.5" y="259.1763">RegexResult arg,String suffix)</text><ellipse cx="442.5" cy="247.1094" fill="#222222" rx="10" ry="10" style="stroke:#222222;stroke-width:1.0;"/><rect fill="#F1F1F1" height="47.9375" rx="12.5" ry="12.5" style="stroke:#181818;stroke-width:0.5;" width="322" x="281.5" y="287.2422"/><text fill="#000000" font-family="sans-serif" font-size="12" lengthAdjust="spacing" textLength="302" x="291.5" y="308.3809">final String code=arg.get("COMPLEMENT"+suffix,</text><text fill="#000000" font-family="sans-serif" font-size="12" lengthAdjust="spacing" textLength="121" x="291.5" y="322.3496">POS_CODE_OTHER);</text><rect fill="#F1F1F1" height="47.9375" rx="12.5" ry="12.5" style="stroke:#181818;stroke-width:0.5;" width="323" x="281" y="355.1797"/><text fill="#000000" font-family="sans-serif" font-size="12" lengthAdjust="spacing" textLength="303" x="291" y="376.3184">final String startOrEnd=arg.get("COMPLEMENT"+</text><text fill="#000000" font-family="sans-serif" font-size="12" lengthAdjust="spacing" textLength="169" x="291" y="390.2871">suffix,POS_START_OR_END);</text><rect fill="#F1F1F1" height="33.9688" rx="12.5" ry="12.5" style="stroke:#181818;stroke-width:0.5;" width="353" x="266" y="423.1172"/><text fill="#000000" font-family="sans-serif" font-size="12" lengthAdjust="spacing" textLength="333" x="276" y="444.2559">final Moment task=system.getExistingMoment(code);</text><rect fill="#F1F1F1" height="33.9688" rx="12.5" ry="12.5" style="stroke:#181818;stroke-width:0.5;" width="297" x="294" y="525.4883"/><text fill="#000000" font-family="sans-serif" font-size="12" lengthAdjust="spacing" textLength="277" x="304" y="546.627">return Failable.error("No such task "+code);</text><ellipse cx="442.5" cy="598.9727" fill="none" rx="11" ry="11" style="stroke:#222222;stroke-width:1.0;"/><ellipse cx="442.5" cy="598.9727" fill="#222222" rx="6" ry="6" style="stroke:#111111;stroke-width:1.0;"/><polygon fill="#F1F1F1" points="409.5,477.0859,475.5,477.0859,487.5,489.0859,475.5,501.0859,409.5,501.0859,397.5,489.0859,409.5,477.0859" style="stroke:#181818;stroke-width:0.5;"/><text fill="#000000" font-family="sans-serif" font-size="11" lengthAdjust="spacing" textLength="20" x="446.5" y="511.2964">yes</text><text fill="#000000" font-family="sans-serif" font-size="11" lengthAdjust="spacing" textLength="62" x="409.5" y="492.894">task==null</text><rect fill="#F1F1F1" height="47.9375" rx="12.5" ry="12.5" style="stroke:#181818;stroke-width:0.5;" width="281" x="302" y="651.9727"/><text fill="#000000" font-family="sans-serif" font-size="12" lengthAdjust="spacing" textLength="261" x="312" y="673.1113">TaskInstant result=new TaskInstant(task,</text><text fill="#000000" font-family="sans-serif" font-size="12" lengthAdjust="spacing" textLength="240" x="312" y="687.0801">TaskAttribute.fromString(startOrEnd));</text><rect fill="#F1F1F1" height="47.9375" rx="12.5" ry="12.5" style="stroke:#181818;stroke-width:0.5;" width="315" x="285" y="719.9102"/><text fill="#000000" font-family="sans-serif" font-size="12" lengthAdjust="spacing" textLength="295" x="295" y="741.0488">final String nb1=arg.get("COMPLEMENT"+suffix,</text><text fill="#000000" font-family="sans-serif" font-size="12" lengthAdjust="spacing" textLength="65" x="295" y="755.0176">POS_NB1);</text><rect fill="#F1F1F1" height="47.9375" rx="12.5" ry="12.5" style="stroke:#181818;stroke-width:0.5;" width="406" x="239.5" y="836.25"/><text fill="#000000" font-family="sans-serif" font-size="12" lengthAdjust="spacing" textLength="295" x="249.5" y="857.3887">final int factor1=arg.get("COMPLEMENT"+suffix,</text><text fill="#000000" font-family="sans-serif" font-size="12" lengthAdjust="spacing" textLength="386" x="249.5" y="871.3574">POS_DAY_OR_WEEK1).startsWith("w")? system.daysInWeek():1;</text><rect fill="#F1F1F1" height="33.9688" rx="12.5" ry="12.5" style="stroke:#181818;stroke-width:0.5;" width="307" x="289" y="904.1875"/><text fill="#000000" font-family="sans-serif" font-size="12" lengthAdjust="spacing" textLength="287" x="299" y="925.3262">final int days1=Integer.parseInt(nb1)*factor1;</text><rect fill="#F1F1F1" height="47.9375" rx="12.5" ry="12.5" style="stroke:#181818;stroke-width:0.5;" width="315" x="285" y="958.1563"/><text fill="#000000" font-family="sans-serif" font-size="12" lengthAdjust="spacing" textLength="295" x="295" y="979.2949">final String nb2=arg.get("COMPLEMENT"+suffix,</text><text fill="#000000" font-family="sans-serif" font-size="12" lengthAdjust="spacing" textLength="65" x="295" y="993.2637">POS_NB2);</text><rect fill="#F1F1F1" height="33.9688" rx="12.5" ry="12.5" style="stroke:#181818;stroke-width:0.5;" width="99" x="393" y="1026.0938"/><text fill="#000000" font-family="sans-serif" font-size="12" lengthAdjust="spacing" textLength="79" x="403" y="1047.2324">int days2=0;</text><rect fill="#F1F1F1" height="47.9375" rx="12.5" ry="12.5" style="stroke:#181818;stroke-width:0.5;" width="406" x="239.5" y="1128.4648"/><text fill="#000000" font-family="sans-serif" font-size="12" lengthAdjust="spacing" textLength="295" x="249.5" y="1149.6035">final int factor2=arg.get("COMPLEMENT"+suffix,</text><text fill="#000000" font-family="sans-serif" font-size="12" lengthAdjust="spacing" textLength="386" x="249.5" y="1163.5723">POS_DAY_OR_WEEK2).startsWith("w")? system.daysInWeek():1;</text><rect fill="#F1F1F1" height="33.9688" rx="12.5" ry="12.5" style="stroke:#181818;stroke-width:0.5;" width="257" x="314" y="1206.918"/><text fill="#000000" font-family="sans-serif" font-size="12" lengthAdjust="spacing" textLength="237" x="324" y="1228.0566">days2=Integer.parseInt(nb2)*factor2;</text><polygon fill="#F1F1F1" points="414,1080.0625,471,1080.0625,483,1092.0625,471,1104.0625,414,1104.0625,402,1092.0625,414,1080.0625" style="stroke:#181818;stroke-width:0.5;"/><text fill="#000000" font-family="sans-serif" font-size="11" lengthAdjust="spacing" textLength="20" x="446.5" y="1114.2729">yes</text><text fill="#000000" font-family="sans-serif" font-size="11" lengthAdjust="spacing" textLength="53" x="414" y="1095.8706">nb2!=null</text><polygon fill="#F1F1F1" points="442.5,1260.8867,454.5,1272.8867,442.5,1284.8867,430.5,1272.8867,442.5,1260.8867" style="stroke:#181818;stroke-width:0.5;"/><rect fill="#F1F1F1" height="33.9688" rx="12.5" ry="12.5" style="stroke:#181818;stroke-width:0.5;" width="170" x="357.5" y="1304.8867"/><text fill="#000000" font-family="sans-serif" font-size="12" lengthAdjust="spacing" textLength="150" x="367.5" y="1326.0254">int delta=days1+days2;</text><rect fill="#F1F1F1" height="33.9688" rx="12.5" ry="12.5" style="stroke:#181818;stroke-width:0.5;" width="102" x="391.5" y="1407.2578"/><text fill="#000000" font-family="sans-serif" font-size="12" lengthAdjust="spacing" textLength="82" x="401.5" y="1428.3965">delta=-delta;</text><polygon fill="#F1F1F1" points="159,1358.8555,726,1358.8555,738,1370.8555,726,1382.8555,159,1382.8555,147,1370.8555,159,1358.8555" style="stroke:#181818;stroke-width:0.5;"/><text fill="#000000" font-family="sans-serif" font-size="11" lengthAdjust="spacing" textLength="20" x="446.5" y="1393.0659">yes</text><text fill="#000000" font-family="sans-serif" font-size="11" lengthAdjust="spacing" textLength="567" x="159" y="1374.6636">String.valueOf("before").equalsIgnoreCase(arg.get("COMPLEMENT"+suffix,POS_BEFORE_OR_AFTER))</text><polygon fill="#F1F1F1" points="442.5,1461.2266,454.5,1473.2266,442.5,1485.2266,430.5,1473.2266,442.5,1461.2266" style="stroke:#181818;stroke-width:0.5;"/><rect fill="#F1F1F1" height="61.9063" rx="12.5" ry="12.5" style="stroke:#181818;stroke-width:0.5;" width="359" x="263" y="1505.2266"/><text fill="#000000" font-family="sans-serif" font-size="12" lengthAdjust="spacing" textLength="297" x="273" y="1526.3652">final boolean working=arg.get("COMPLEMENT"+</text><text fill="#000000" font-family="sans-serif" font-size="12" lengthAdjust="spacing" textLength="339" x="273" y="1540.334">suffix,POS_WORKING1)!=null ||arg.get("COMPLEMENT"+</text><text fill="#000000" font-family="sans-serif" font-size="12" lengthAdjust="spacing" textLength="181" x="273" y="1554.3027">suffix,POS_WORKING2)!=null ;</text><rect fill="#F1F1F1" height="33.9688" rx="12.5" ry="12.5" style="stroke:#181818;stroke-width:0.5;" width="863" x="11" y="1587.1328"/><text fill="#000000" font-family="sans-serif" font-size="12" lengthAdjust="spacing" textLength="843" x="21" y="1608.2715">final GanttConstraintMode mode=working? GanttConstraintMode.DO_NOT_COUNT_CLOSE_DAY:GanttConstraintMode.IGNORE_CALENDAR;</text><rect fill="#F1F1F1" height="33.9688" rx="12.5" ry="12.5" style="stroke:#181818;stroke-width:0.5;" width="404" x="240.5" y="1641.1016"/><text fill="#000000" font-family="sans-serif" font-size="12" lengthAdjust="spacing" textLength="384" x="250.5" y="1662.2402">result=result.withDelta(delta,mode,system.getDefaultPlan());</text><polygon fill="#F1F1F1" points="414,787.8477,471,787.8477,483,799.8477,471,811.8477,414,811.8477,402,799.8477,414,787.8477" style="stroke:#181818;stroke-width:0.5;"/><text fill="#000000" font-family="sans-serif" font-size="11" lengthAdjust="spacing" textLength="20" x="446.5" y="822.0581">yes</text><text fill="#000000" font-family="sans-serif" font-size="11" lengthAdjust="spacing" textLength="53" x="414" y="803.6558">nb1!=null</text><polygon fill="#F1F1F1" points="442.5,1695.0703,454.5,1707.0703,442.5,1719.0703,430.5,1707.0703,442.5,1695.0703" style="stroke:#181818;stroke-width:0.5;"/><rect fill="#F1F1F1" height="33.9688" rx="12.5" ry="12.5" style="stroke:#181818;stroke-width:0.5;" width="180" x="352.5" y="1739.0703"/><text fill="#000000" font-family="sans-serif" font-size="12" lengthAdjust="spacing" textLength="160" x="362.5" y="1760.209">return Failable.ok(result);</text><ellipse cx="442.5" cy="1804.0391" fill="none" rx="11" ry="11" style="stroke:#222222;stroke-width:1.0;"/><ellipse cx="442.5" cy="1804.0391" fill="#222222" rx="6" ry="6" style="stroke:#111111;stroke-width:1.0;"/><ellipse cx="442.5" cy="1835.0391" fill="none" rx="10" ry="10" style="stroke:#222222;stroke-width:1.5;"/><line style="stroke:#222222;stroke-width:2.5;" x1="436.3128" x2="448.6872" y1="1828.8519" y2="1841.2262"/><line style="stroke:#222222;stroke-width:2.5;" x1="448.6872" x2="436.3128" y1="1828.8519" y2="1841.2262"/><line style="stroke:#181818;stroke-width:1.0;" x1="442.5" x2="442.5" y1="32.5664" y2="55.1328"/><polygon fill="#181818" points="438.5,45.1328,442.5,55.1328,446.5,45.1328,442.5,49.1328" style="stroke:#181818;stroke-width:1.0;"/><line style="stroke:#181818;stroke-width:1.0;" x1="442.5" x2="442.5" y1="144.9766" y2="164.9766"/><polygon fill="#181818" points="438.5,154.9766,442.5,164.9766,446.5,154.9766,442.5,158.9766" style="stroke:#181818;stroke-width:1.0;"/><line style="stroke:#181818;stroke-width:1.0;" x1="442.5" x2="442.5" y1="257.1094" y2="287.2422"/><polygon fill="#181818" points="438.5,277.2422,442.5,287.2422,446.5,277.2422,442.5,281.2422" style="stroke:#181818;stroke-width:1.0;"/><line style="stroke:#181818;stroke-width:1.0;" x1="442.5" x2="442.5" y1="335.1797" y2="355.1797"/><polygon fill="#181818" points="438.5,345.1797,442.5,355.1797,446.5,345.1797,442.5,349.1797" style="stroke:#181818;stroke-width:1.0;"/><line style="stroke:#181818;stroke-width:1.0;" x1="442.5" x2="442.5" y1="403.1172" y2="423.1172"/><polygon fill="#181818" points="438.5,413.1172,442.5,423.1172,446.5,413.1172,442.5,417.1172" style="stroke:#181818;stroke-width:1.0;"/><line style="stroke:#181818;stroke-width:1.0;" x1="442.5" x2="442.5" y1="559.457" y2="587.9727"/><polygon fill="#181818" points="438.5,577.9727,442.5,587.9727,446.5,577.9727,442.5,581.9727" style="stroke:#181818;stroke-width:1.0;"/><line style="stroke:#181818;stroke-width:1.0;" x1="442.5" x2="442.5" y1="501.0859" y2="525.4883"/><polygon fill="#181818" points="438.5,515.4883,442.5,525.4883,446.5,515.4883,442.5,519.4883" style="stroke:#181818;stroke-width:1.0;"/><line style="stroke:#181818;stroke-width:1.0;" x1="487.5" x2="601" y1="489.0859" y2="489.0859"/><polygon fill="#181818" points="597,557.9727,601,567.9727,605,557.9727,601,561.9727" style="stroke:#181818;stroke-width:1.0;"/><line style="stroke:#181818;stroke-width:1.0;" x1="601" x2="601" y1="489.0859" y2="631.9727"/><line style="stroke:#181818;stroke-width:1.0;" x1="601" x2="442.5" y1="631.9727" y2="631.9727"/><line style="stroke:#181818;stroke-width:1.0;" x1="442.5" x2="442.5" y1="631.9727" y2="651.9727"/><polygon fill="#181818" points="438.5,641.9727,442.5,651.9727,446.5,641.9727,442.5,645.9727" style="stroke:#181818;stroke-width:1.0;"/><line style="stroke:#181818;stroke-width:1.0;" x1="442.5" x2="442.5" y1="457.0859" y2="477.0859"/><polygon fill="#181818" points="438.5,467.0859,442.5,477.0859,446.5,467.0859,442.5,471.0859" style="stroke:#181818;stroke-width:1.0;"/><line style="stroke:#181818;stroke-width:1.0;" x1="442.5" x2="442.5" y1="699.9102" y2="719.9102"/><polygon fill="#181818" points="438.5,709.9102,442.5,719.9102,446.5,709.9102,442.5,713.9102" style="stroke:#181818;stroke-width:1.0;"/><line style="stroke:#181818;stroke-width:1.0;" x1="442.5" x2="442.5" y1="884.1875" y2="904.1875"/><polygon fill="#181818" points="438.5,894.1875,442.5,904.1875,446.5,894.1875,442.5,898.1875" style="stroke:#181818;stroke-width:1.0;"/><line style="stroke:#181818;stroke-width:1.0;" x1="442.5" x2="442.5" y1="938.1563" y2="958.1563"/><polygon fill="#181818" points="438.5,948.1563,442.5,958.1563,446.5,948.1563,442.5,952.1563" style="stroke:#181818;stroke-width:1.0;"/><line style="stroke:#181818;stroke-width:1.0;" x1="442.5" x2="442.5" y1="1006.0938" y2="1026.0938"/><polygon fill="#181818" points="438.5,1016.0938,442.5,1026.0938,446.5,1016.0938,442.5,1020.0938" style="stroke:#181818;stroke-width:1.0;"/><line style="stroke:#181818;stroke-width:1.0;" x1="442.5" x2="442.5" y1="1176.4023" y2="1206.918"/><polygon fill="#181818" points="438.5,1196.918,442.5,1206.918,446.5,1196.918,442.5,1200.918" style="stroke:#181818;stroke-width:1.0;"/><line style="stroke:#181818;stroke-width:1.0;" x1="442.5" x2="442.5" y1="1104.0625" y2="1128.4648"/><polygon fill="#181818" points="438.5,1118.4648,442.5,1128.4648,446.5,1118.4648,442.5,1122.4648" style="stroke:#181818;stroke-width:1.0;"/><line style="stroke:#181818;stroke-width:1.0;" x1="483" x2="655.5" y1="1092.0625" y2="1092.0625"/><polygon fill="#181818" points="651.5,1176.918,655.5,1186.918,659.5,1176.918,655.5,1180.918" style="stroke:#181818;stroke-width:1.0;"/><line style="stroke:#181818;stroke-width:1.0;" x1="655.5" x2="655.5" y1="1092.0625" y2="1272.8867"/><line style="stroke:#181818;stroke-width:1.0;" x1="655.5" x2="454.5" y1="1272.8867" y2="1272.8867"/><polygon fill="#181818" points="464.5,1268.8867,454.5,1272.8867,464.5,1276.8867,460.5,1272.8867" style="stroke:#181818;stroke-width:1.0;"/><line style="stroke:#181818;stroke-width:1.0;" x1="442.5" x2="442.5" y1="1240.8867" y2="1260.8867"/><polygon fill="#181818" points="438.5,1250.8867,442.5,1260.8867,446.5,1250.8867,442.5,1254.8867" style="stroke:#181818;stroke-width:1.0;"/><line style="stroke:#181818;stroke-width:1.0;" x1="442.5" x2="442.5" y1="1060.0625" y2="1080.0625"/><polygon fill="#181818" points="438.5,1070.0625,442.5,1080.0625,446.5,1070.0625,442.5,1074.0625" style="stroke:#181818;stroke-width:1.0;"/><line style="stroke:#181818;stroke-width:1.0;" x1="442.5" x2="442.5" y1="1284.8867" y2="1304.8867"/><polygon fill="#181818" points="438.5,1294.8867,442.5,1304.8867,446.5,1294.8867,442.5,1298.8867" style="stroke:#181818;stroke-width:1.0;"/><line style="stroke:#181818;stroke-width:1.0;" x1="442.5" x2="442.5" y1="1382.8555" y2="1407.2578"/><polygon fill="#181818" points="438.5,1397.2578,442.5,1407.2578,446.5,1397.2578,442.5,1401.2578" style="stroke:#181818;stroke-width:1.0;"/><line style="stroke:#181818;stroke-width:1.0;" x1="738" x2="750" y1="1370.8555" y2="1370.8555"/><polygon fill="#181818" points="746,1414.2422,750,1424.2422,754,1414.2422,750,1418.2422" style="stroke:#181818;stroke-width:1.0;"/><line style="stroke:#181818;stroke-width:1.0;" x1="750" x2="750" y1="1370.8555" y2="1473.2266"/><line style="stroke:#181818;stroke-width:1.0;" x1="750" x2="454.5" y1="1473.2266" y2="1473.2266"/><polygon fill="#181818" points="464.5,1469.2266,454.5,1473.2266,464.5,1477.2266,460.5,1473.2266" style="stroke:#181818;stroke-width:1.0;"/><line style="stroke:#181818;stroke-width:1.0;" x1="442.5" x2="442.5" y1="1441.2266" y2="1461.2266"/><polygon fill="#181818" points="438.5,1451.2266,442.5,1461.2266,446.5,1451.2266,442.5,1455.2266" style="stroke:#181818;stroke-width:1.0;"/><line style="stroke:#181818;stroke-width:1.0;" x1="442.5" x2="442.5" y1="1338.8555" y2="1358.8555"/><polygon fill="#181818" points="438.5,1348.8555,442.5,1358.8555,446.5,1348.8555,442.5,1352.8555" style="stroke:#181818;stroke-width:1.0;"/><line style="stroke:#181818;stroke-width:1.0;" x1="442.5" x2="442.5" y1="1485.2266" y2="1505.2266"/><polygon fill="#181818" points="438.5,1495.2266,442.5,1505.2266,446.5,1495.2266,442.5,1499.2266" style="stroke:#181818;stroke-width:1.0;"/><line style="stroke:#181818;stroke-width:1.0;" x1="442.5" x2="442.5" y1="1567.1328" y2="1587.1328"/><polygon fill="#181818" points="438.5,1577.1328,442.5,1587.1328,446.5,1577.1328,442.5,1581.1328" style="stroke:#181818;stroke-width:1.0;"/><line style="stroke:#181818;stroke-width:1.0;" x1="442.5" x2="442.5" y1="1621.1016" y2="1641.1016"/><polygon fill="#181818" points="438.5,1631.1016,442.5,1641.1016,446.5,1631.1016,442.5,1635.1016" style="stroke:#181818;stroke-width:1.0;"/><line style="stroke:#181818;stroke-width:1.0;" x1="442.5" x2="442.5" y1="811.8477" y2="836.25"/><polygon fill="#181818" points="438.5,826.25,442.5,836.25,446.5,826.25,442.5,830.25" style="stroke:#181818;stroke-width:1.0;"/><line style="stroke:#181818;stroke-width:1.0;" x1="483" x2="884" y1="799.8477" y2="799.8477"/><polygon fill="#181818" points="880,1250.918,884,1260.918,888,1250.918,884,1254.918" style="stroke:#181818;stroke-width:1.0;"/><line style="stroke:#181818;stroke-width:1.0;" x1="884" x2="884" y1="799.8477" y2="1707.0703"/><line style="stroke:#181818;stroke-width:1.0;" x1="884" x2="454.5" y1="1707.0703" y2="1707.0703"/><polygon fill="#181818" points="464.5,1703.0703,454.5,1707.0703,464.5,1711.0703,460.5,1707.0703" style="stroke:#181818;stroke-width:1.0;"/><line style="stroke:#181818;stroke-width:1.0;" x1="442.5" x2="442.5" y1="1675.0703" y2="1695.0703"/><polygon fill="#181818" points="438.5,1685.0703,442.5,1695.0703,446.5,1685.0703,442.5,1689.0703" style="stroke:#181818;stroke-width:1.0;"/><line style="stroke:#181818;stroke-width:1.0;" x1="442.5" x2="442.5" y1="767.8477" y2="787.8477"/><polygon fill="#181818" points="438.5,777.8477,442.5,787.8477,446.5,777.8477,442.5,781.8477" style="stroke:#181818;stroke-width:1.0;"/><line style="stroke:#181818;stroke-width:1.0;" x1="442.5" x2="442.5" y1="1719.0703" y2="1739.0703"/><polygon fill="#181818" points="438.5,1729.0703,442.5,1739.0703,446.5,1729.0703,442.5,1733.0703" style="stroke:#181818;stroke-width:1.0;"/><line style="stroke:#181818;stroke-width:1.0;" x1="442.5" x2="442.5" y1="1773.0391" y2="1793.0391"/><polygon fill="#181818" points="438.5,1783.0391,442.5,1793.0391,446.5,1783.0391,442.5,1787.0391" style="stroke:#181818;stroke-width:1.0;"/><!--MD5=[09d20797ca902230d1f980a8d0866a44]
@startuml
!pragma layout smetana
start
note right
IRegex toRegex(String suffix)
end note
:return new RegexLeaf("COMPLEMENT"+suffix,"(?:at|with|after|"+
"(\\d+)[%s]+(working[%s]+)?(day|week)s?"+
"(?:[%s]+and[%s]+(\\d+)[%s]+(working[%s]+
)?(day|week)s?)?"+"[%s]+(before|after))[%s]+
\\[([^\\[\\]]+?)\\].?s[%s]+(start|end)");;
stop
end
start
note right
Failable<TaskInstant> getMe(GanttDiagram system,
RegexResult arg,String suffix)
end note
:final String code=arg.get("COMPLEMENT"+suffix,
POS_CODE_OTHER);;
:final String startOrEnd=arg.get("COMPLEMENT"+
suffix,POS_START_OR_END);;
:final Moment task=system.getExistingMoment(code);;
if (task==null ) then (yes) 
:return Failable.error("No such task "+code);;
stop
endif 
:TaskInstant result=new TaskInstant(task,
TaskAttribute.fromString(startOrEnd));;
:final String nb1=arg.get("COMPLEMENT"+suffix,
POS_NB1);;
if (nb1!=null ) then (yes) 
:final int factor1=arg.get("COMPLEMENT"+suffix,
POS_DAY_OR_WEEK1).startsWith("w")? system.daysInWeek():1;;
:final int days1=Integer.parseInt(nb1)*factor1;;
:final String nb2=arg.get("COMPLEMENT"+suffix,
POS_NB2);;
:int days2=0;;
if (nb2!=null ) then (yes) 
:final int factor2=arg.get("COMPLEMENT"+suffix,
POS_DAY_OR_WEEK2).startsWith("w")? system.daysInWeek():1;;
:days2=Integer.parseInt(nb2)*factor2;;
endif 
:int delta=days1+days2;;
if (String.valueOf("before").equalsIgnoreCase(arg.get("COMPLEMENT"+suffix,POS_BEFORE_OR_AFTER))) then (yes) 
:delta=-delta;;
endif 
:final boolean working=arg.get("COMPLEMENT"+
suffix,POS_WORKING1)!=null ||arg.get("COMPLEMENT"+
suffix,POS_WORKING2)!=null ;;
:final GanttConstraintMode mode=working? GanttConstraintMode.DO_NOT_COUNT_CLOSE_DAY:GanttConstraintMode.IGNORE_CALENDAR;;
:result=result.withDelta(delta,mode,system.getDefaultPlan());;
endif 
:return Failable.ok(result);;
stop
end
@enduml

PlantUML version 1.2022.7(Mon Aug 22 17:01:30 UTC 2022)
(GPL source distribution)
Java Runtime: OpenJDK Runtime Environment
JVM: OpenJDK 64-Bit Server VM
Default Encoding: UTF-8
Language: en
Country: null
--></g></svg>