<?xml version="1.0" encoding="UTF-8" standalone="no"?><svg xmlns="http://www.w3.org/2000/svg" xmlns:xlink="http://www.w3.org/1999/xlink" contentStyleType="text/css" height="478px" preserveAspectRatio="none" style="width:665px;height:478px;background:#FFFFFF;" version="1.1" viewBox="0 0 665 478" width="665px" zoomAndPan="magnify"><defs/><g><path d="M261.5,10 L261.5,18.5664 L241.5,22.5664 L261.5,26.5664 L261.5,35.1328 A0,0 0 0 0 261.5,35.1328 L489.5,35.1328 A0,0 0 0 0 489.5,35.1328 L489.5,20 L479.5,10 L261.5,10 A0,0 0 0 0 261.5,10 " fill="#FEFFDD" style="stroke:#181818;stroke-width:0.5;"/><path d="M479.5,10 L479.5,20 L489.5,20 L479.5,10 " fill="#FEFFDD" style="stroke:#181818;stroke-width:0.5;"/><text fill="#000000" font-family="sans-serif" font-size="13" lengthAdjust="spacing" textLength="207" x="267.5" y="27.0669">constructor SentenceIsForTask()</text><ellipse cx="231.5" cy="22.5664" fill="#222222" rx="10" ry="10" style="stroke:#222222;stroke-width:1.0;"/><rect fill="#F1F1F1" height="33.9688" rx="12.5" ry="12.5" style="stroke:#181818;stroke-width:0.5;" width="441" x="11" y="55.1328"/><text fill="#000000" font-family="sans-serif" font-size="12" lengthAdjust="spacing" textLength="421" x="21" y="76.2715">super (new SubjectTask(),Verbs.is(),new ComplementCompleted());</text><ellipse cx="231.5" cy="119.1016" fill="none" rx="10" ry="10" style="stroke:#222222;stroke-width:1.5;"/><line style="stroke:#222222;stroke-width:2.5;" x1="225.3128" x2="237.6872" y1="112.9144" y2="125.2887"/><line style="stroke:#222222;stroke-width:2.5;" x1="237.6872" x2="225.3128" y1="112.9144" y2="125.2887"/><path d="M261.5,139.1016 L261.5,155.2344 L241.5,159.2344 L261.5,163.2344 L261.5,179.3672 A0,0 0 0 0 261.5,179.3672 L653.5,179.3672 A0,0 0 0 0 653.5,179.3672 L653.5,149.1016 L643.5,139.1016 L261.5,139.1016 A0,0 0 0 0 261.5,139.1016 " fill="#FEFFDD" style="stroke:#181818;stroke-width:0.5;"/><path d="M643.5,139.1016 L643.5,149.1016 L653.5,149.1016 L643.5,139.1016 " fill="#FEFFDD" style="stroke:#181818;stroke-width:0.5;"/><text fill="#000000" font-family="sans-serif" font-size="13" lengthAdjust="spacing" textLength="371" x="267.5" y="156.1685">CommandExecutionResult execute(GanttDiagram project,</text><text fill="#000000" font-family="sans-serif" font-size="13" lengthAdjust="spacing" textLength="226" x="267.5" y="171.3013">Object subject,Object complement)</text><ellipse cx="231.5" cy="159.2344" fill="#222222" rx="10" ry="10" style="stroke:#222222;stroke-width:1.0;"/><rect fill="#F1F1F1" height="33.9688" rx="12.5" ry="12.5" style="stroke:#181818;stroke-width:0.5;" width="213" x="125" y="199.3672"/><text fill="#000000" font-family="sans-serif" font-size="12" lengthAdjust="spacing" textLength="193" x="135" y="220.5059">final Task task=(Task )subject;</text><rect fill="#F1F1F1" height="33.9688" rx="12.5" ry="12.5" style="stroke:#181818;stroke-width:0.5;" width="365" x="49" y="253.3359"/><text fill="#000000" font-family="sans-serif" font-size="12" lengthAdjust="spacing" textLength="345" x="59" y="274.4746">final Completion completed=(Completion )complement;</text><rect fill="#F1F1F1" height="33.9688" rx="12.5" ry="12.5" style="stroke:#181818;stroke-width:0.5;" width="326" x="68.5" y="307.3047"/><text fill="#000000" font-family="sans-serif" font-size="12" lengthAdjust="spacing" textLength="306" x="78.5" y="328.4434">task.setCompletion(completed.getCompletion());</text><rect fill="#F1F1F1" height="33.9688" rx="12.5" ry="12.5" style="stroke:#181818;stroke-width:0.5;" width="258" x="102.5" y="361.2734"/><text fill="#000000" font-family="sans-serif" font-size="12" lengthAdjust="spacing" textLength="238" x="112.5" y="382.4121">return CommandExecutionResult.ok();</text><ellipse cx="231.5" cy="426.2422" fill="none" rx="11" ry="11" style="stroke:#222222;stroke-width:1.0;"/><ellipse cx="231.5" cy="426.2422" fill="#222222" rx="6" ry="6" style="stroke:#111111;stroke-width:1.0;"/><ellipse cx="231.5" cy="457.2422" fill="none" rx="10" ry="10" style="stroke:#222222;stroke-width:1.5;"/><line style="stroke:#222222;stroke-width:2.5;" x1="225.3128" x2="237.6872" y1="451.055" y2="463.4294"/><line style="stroke:#222222;stroke-width:2.5;" x1="237.6872" x2="225.3128" y1="451.055" y2="463.4294"/><line style="stroke:#181818;stroke-width:1.0;" x1="231.5" x2="231.5" y1="32.5664" y2="55.1328"/><polygon fill="#181818" points="227.5,45.1328,231.5,55.1328,235.5,45.1328,231.5,49.1328" style="stroke:#181818;stroke-width:1.0;"/><line style="stroke:#181818;stroke-width:1.0;" x1="231.5" x2="231.5" y1="89.1016" y2="109.1016"/><polygon fill="#181818" points="227.5,99.1016,231.5,109.1016,235.5,99.1016,231.5,103.1016" style="stroke:#181818;stroke-width:1.0;"/><line style="stroke:#181818;stroke-width:1.0;" x1="231.5" x2="231.5" y1="169.2344" y2="199.3672"/><polygon fill="#181818" points="227.5,189.3672,231.5,199.3672,235.5,189.3672,231.5,193.3672" style="stroke:#181818;stroke-width:1.0;"/><line style="stroke:#181818;stroke-width:1.0;" x1="231.5" x2="231.5" y1="233.3359" y2="253.3359"/><polygon fill="#181818" points="227.5,243.3359,231.5,253.3359,235.5,243.3359,231.5,247.3359" style="stroke:#181818;stroke-width:1.0;"/><line style="stroke:#181818;stroke-width:1.0;" x1="231.5" x2="231.5" y1="287.3047" y2="307.3047"/><polygon fill="#181818" points="227.5,297.3047,231.5,307.3047,235.5,297.3047,231.5,301.3047" style="stroke:#181818;stroke-width:1.0;"/><line style="stroke:#181818;stroke-width:1.0;" x1="231.5" x2="231.5" y1="341.2734" y2="361.2734"/><polygon fill="#181818" points="227.5,351.2734,231.5,361.2734,235.5,351.2734,231.5,355.2734" style="stroke:#181818;stroke-width:1.0;"/><line style="stroke:#181818;stroke-width:1.0;" x1="231.5" x2="231.5" y1="395.2422" y2="415.2422"/><polygon fill="#181818" points="227.5,405.2422,231.5,415.2422,235.5,405.2422,231.5,409.2422" style="stroke:#181818;stroke-width:1.0;"/><!--MD5=[3605a40ccc29c65d2c128e58b48374d6]
@startuml
!pragma layout smetana
start
note right
constructor SentenceIsForTask()
end note
:super (new SubjectTask(),Verbs.is(),new ComplementCompleted());;
end
start
note right
CommandExecutionResult execute(GanttDiagram project,
Object subject,Object complement)
end note
:final Task task=(Task )subject;;
:final Completion completed=(Completion )complement;;
:task.setCompletion(completed.getCompletion());;
:return CommandExecutionResult.ok();;
stop
end
@enduml

PlantUML version 1.2022.7(Mon Aug 22 17:01:30 UTC 2022)
(GPL source distribution)
Java Runtime: OpenJDK Runtime Environment
JVM: OpenJDK 64-Bit Server VM
Default Encoding: UTF-8
Language: en
Country: null
--></g></svg>