<?xml version="1.0" encoding="UTF-8" standalone="no"?><svg xmlns="http://www.w3.org/2000/svg" xmlns:xlink="http://www.w3.org/1999/xlink" contentStyleType="text/css" height="220px" preserveAspectRatio="none" style="width:539px;height:220px;background:#FFFFFF;" version="1.1" viewBox="0 0 539 220" width="539px" zoomAndPan="magnify"><defs/><g><!--MD5=[aa8f7b917213fcc1c2766e2d59b49067]
cluster java.lang--><g id="cluster_java.lang"><path d="M224.5,6 L294.5,6 A3.75,3.75 0 0 1 297,8.5 L304,28.2969 L313.5,28.2969 A2.5,2.5 0 0 1 316,30.7969 L316,86.5 A2.5,2.5 0 0 1 313.5,89 L224.5,89 A2.5,2.5 0 0 1 222,86.5 L222,8.5 A2.5,2.5 0 0 1 224.5,6 " fill="none" style="stroke:#000000;stroke-width:1.5;"/><line style="stroke:#000000;stroke-width:1.5;" x1="222" x2="304" y1="28.2969" y2="28.2969"/><text fill="#000000" font-family="sans-serif" font-size="14" font-weight="bold" lengthAdjust="spacing" textLength="69" x="226" y="20.9951">java.lang</text></g><!--MD5=[3cb01c8290aad242a4644b2b7388e156]
cluster net.sourceforge.plantuml.project.lang--><g id="cluster_net.sourceforge.plantuml.project.lang"><path d="M8.5,97 L309.5,97 A3.75,3.75 0 0 1 312,99.5 L319,119.2969 L529.5,119.2969 A2.5,2.5 0 0 1 532,121.7969 L532,210.5 A2.5,2.5 0 0 1 529.5,213 L8.5,213 A2.5,2.5 0 0 1 6,210.5 L6,99.5 A2.5,2.5 0 0 1 8.5,97 " fill="none" style="stroke:#000000;stroke-width:1.5;"/><line style="stroke:#000000;stroke-width:1.5;" x1="6" x2="319" y1="119.2969" y2="119.2969"/><text fill="#000000" font-family="sans-serif" font-size="14" font-weight="bold" lengthAdjust="spacing" textLength="300" x="10" y="111.9951">net.sourceforge.plantuml.project.lang</text></g><!--MD5=[274ad5661286b626a93603d287cbf95a]
class java.lang.Object--><g id="elem_java.lang.Object"><rect fill="#F1F1F1" height="48" id="java.lang.Object" rx="2.5" ry="2.5" style="stroke:#181818;stroke-width:0.5;" width="77" x="230.5" y="33"/><ellipse cx="245.5" cy="49" fill="#ADD1B2" rx="11" ry="11" style="stroke:#181818;stroke-width:1.0;"/><path d="M248.4688,54.6406 Q247.8906,54.9375 247.25,55.0781 Q246.6094,55.2344 245.9063,55.2344 Q243.4063,55.2344 242.0781,53.5938 Q240.7656,51.9375 240.7656,48.8125 Q240.7656,45.6875 242.0781,44.0313 Q243.4063,42.375 245.9063,42.375 Q246.6094,42.375 247.25,42.5313 Q247.9063,42.6875 248.4688,42.9844 L248.4688,45.7031 Q247.8438,45.125 247.25,44.8594 Q246.6563,44.5781 246.0313,44.5781 Q244.6875,44.5781 244,45.6563 Q243.3125,46.7188 243.3125,48.8125 Q243.3125,50.9063 244,51.9844 Q244.6875,53.0469 246.0313,53.0469 Q246.6563,53.0469 247.25,52.7813 Q247.8438,52.5 248.4688,51.9219 L248.4688,54.6406 Z " fill="#000000"/><text fill="#000000" font-family="sans-serif" font-size="14" lengthAdjust="spacing" textLength="45" x="259.5" y="53.8467">Object</text><line style="stroke:#181818;stroke-width:0.5;" x1="231.5" x2="306.5" y1="65" y2="65"/><line style="stroke:#181818;stroke-width:0.5;" x1="231.5" x2="306.5" y1="73" y2="73"/></g><!--MD5=[37443e7d5ab013592dd4837f27f37388]
class net.sourceforge.plantuml.project.lang.Something--><g id="elem_net.sourceforge.plantuml.project.lang.Something"><rect codeLine="3" fill="#F1F1F1" height="80.5938" id="net.sourceforge.plantuml.project.lang.Something" rx="2.5" ry="2.5" style="stroke:#181818;stroke-width:0.5;" width="509" x="14.5" y="124"/><ellipse cx="227.25" cy="140" fill="#ADD1B2" rx="11" ry="11" style="stroke:#181818;stroke-width:1.0;"/><path d="M230.2188,145.6406 Q229.6406,145.9375 229,146.0781 Q228.3594,146.2344 227.6563,146.2344 Q225.1563,146.2344 223.8281,144.5938 Q222.5156,142.9375 222.5156,139.8125 Q222.5156,136.6875 223.8281,135.0313 Q225.1563,133.375 227.6563,133.375 Q228.3594,133.375 229,133.5313 Q229.6563,133.6875 230.2188,133.9844 L230.2188,136.7031 Q229.5938,136.125 229,135.8594 Q228.4063,135.5781 227.7813,135.5781 Q226.4375,135.5781 225.75,136.6563 Q225.0625,137.7188 225.0625,139.8125 Q225.0625,141.9063 225.75,142.9844 Q226.4375,144.0469 227.7813,144.0469 Q228.4063,144.0469 229,143.7813 Q229.5938,143.5 230.2188,142.9219 L230.2188,145.6406 Z " fill="#000000"/><text fill="#000000" font-family="sans-serif" font-size="14" lengthAdjust="spacing" textLength="75" x="247.75" y="144.8467">Something</text><line style="stroke:#181818;stroke-width:0.5;" x1="15.5" x2="522.5" y1="156" y2="156"/><line style="stroke:#181818;stroke-width:0.5;" x1="15.5" x2="522.5" y1="164" y2="164"/><a href="./../../../../../../.././qc/src/net/sourceforge/plantuml/project/lang/Something.java.html#45" target="_top" title="./../../../../../../.././qc/src/net/sourceforge/plantuml/project/lang/Something.java.html#45" xlink:actuate="onRequest" xlink:href="./../../../../../../.././qc/src/net/sourceforge/plantuml/project/lang/Something.java.html#45" xlink:show="new" xlink:title="./../../../../../../.././qc/src/net/sourceforge/plantuml/project/lang/Something.java.html#45" xlink:type="simple"><rect fill="#F1F1F1" height="10" style="stroke:none;stroke-width:1.0;" width="20" x="20.5" y="172.6484"/><ellipse cx="25.5" cy="177.6484" fill="#84BE84" rx="3" ry="3" style="stroke:#038048;stroke-width:1.0;"/></a><a href="./../../../../../../.././qc/src/net/sourceforge/plantuml/project/lang/Something.java.html#45" target="_top" title="./../../../../../../.././qc/src/net/sourceforge/plantuml/project/lang/Something.java.html#45" xlink:actuate="onRequest" xlink:href="./../../../../../../.././qc/src/net/sourceforge/plantuml/project/lang/Something.java.html#45" xlink:show="new" xlink:title="./../../../../../../.././qc/src/net/sourceforge/plantuml/project/lang/Something.java.html#45" xlink:type="simple"><text fill="#000000" font-family="sans-serif" font-size="14" lengthAdjust="spacing" textLength="168" x="34.5" y="180.9951">toRegex(String) : IRegex</text></a><a href="./../../../../../../.././qc/src/net/sourceforge/plantuml/project/lang/Something.java.html#47" target="_top" title="./../../../../../../.././qc/src/net/sourceforge/plantuml/project/lang/Something.java.html#47" xlink:actuate="onRequest" xlink:href="./../../../../../../.././qc/src/net/sourceforge/plantuml/project/lang/Something.java.html#47" xlink:show="new" xlink:title="./../../../../../../.././qc/src/net/sourceforge/plantuml/project/lang/Something.java.html#47" xlink:type="simple"><rect fill="#F1F1F1" height="10" style="stroke:none;stroke-width:1.0;" width="20" x="20.5" y="188.9453"/><ellipse cx="25.5" cy="193.9453" fill="#84BE84" rx="3" ry="3" style="stroke:#038048;stroke-width:1.0;"/></a><a href="./../../../../../../.././qc/src/net/sourceforge/plantuml/project/lang/Something.java.html#47" target="_top" title="./../../../../../../.././qc/src/net/sourceforge/plantuml/project/lang/Something.java.html#47" xlink:actuate="onRequest" xlink:href="./../../../../../../.././qc/src/net/sourceforge/plantuml/project/lang/Something.java.html#47" xlink:show="new" xlink:title="./../../../../../../.././qc/src/net/sourceforge/plantuml/project/lang/Something.java.html#47" xlink:type="simple"><text fill="#000000" font-family="sans-serif" font-size="14" lengthAdjust="spacing" textLength="483" x="34.5" y="197.292">getMe(GanttDiagram;RegexResult;String) : Failable&lt;?extendsObject&gt;</text></a></g><path d="M269,81.1524 C269,93.6475 269,109.4184 269,123.8064 " fill="none" style="stroke:#181818;stroke-width:1.0;"/><polygon fill="#FFFFFF" points="269,81.1524,263,97.1524,275,97.1524,269,81.1524" style="stroke:#181818;stroke-width:1.0;"/><!--MD5=[2aa2baac331b25c05492efebb9b96fd4]
@startuml
!pragma layout smetana
"java.lang.Object" <|- - "net.sourceforge.plantuml.project.lang.Something"
class net.sourceforge.plantuml.project.lang.Something {
+toRegex(String) : IRegex [[[./../../../../../../.././qc/src/net/sourceforge/plantuml/project/lang/Something.java.html#45]]]
+getMe(GanttDiagram;RegexResult;String) : Failable<?extendsObject> [[[./../../../../../../.././qc/src/net/sourceforge/plantuml/project/lang/Something.java.html#47]]]
} 
@enduml

PlantUML version 1.2022.7(Mon Aug 22 17:01:30 UTC 2022)
(GPL source distribution)
Java Runtime: OpenJDK Runtime Environment
JVM: OpenJDK 64-Bit Server VM
Default Encoding: UTF-8
Language: en
Country: null
--></g></svg>