<?xml version="1.0" encoding="UTF-8" standalone="no"?><svg xmlns="http://www.w3.org/2000/svg" xmlns:xlink="http://www.w3.org/1999/xlink" contentStyleType="text/css" height="202px" preserveAspectRatio="none" style="width:445px;height:202px;background:#FFFFFF;" version="1.1" viewBox="0 0 445 202" width="445px" zoomAndPan="magnify"><defs/><g><!--MD5=[3cb01c8290aad242a4644b2b7388e156]
cluster net.sourceforge.plantuml.project.lang--><g id="cluster_net.sourceforge.plantuml.project.lang"><path d="M8.5,63 L309.5,63 A3.75,3.75 0 0 1 312,65.5 L319,85.2969 L435.5,85.2969 A2.5,2.5 0 0 1 438,87.7969 L438,192.5 A2.5,2.5 0 0 1 435.5,195 L8.5,195 A2.5,2.5 0 0 1 6,192.5 L6,65.5 A2.5,2.5 0 0 1 8.5,63 " fill="none" style="stroke:#000000;stroke-width:1.5;"/><line style="stroke:#000000;stroke-width:1.5;" x1="6" x2="319" y1="85.2969" y2="85.2969"/><text fill="#000000" font-family="sans-serif" font-size="14" font-weight="bold" lengthAdjust="spacing" textLength="300" x="10" y="77.9951">net.sourceforge.plantuml.project.lang</text></g><!--MD5=[d0da0a299942266ebd64acf2b2e95fa4]
class Subject--><g id="elem_Subject"><rect fill="#F1F1F1" height="48" id="Subject" rx="2.5" ry="2.5" style="stroke:#181818;stroke-width:0.5;" width="84" x="180" y="6"/><ellipse cx="195" cy="22" fill="#ADD1B2" rx="11" ry="11" style="stroke:#181818;stroke-width:1.0;"/><path d="M197.9688,27.6406 Q197.3906,27.9375 196.75,28.0781 Q196.1094,28.2344 195.4063,28.2344 Q192.9063,28.2344 191.5781,26.5938 Q190.2656,24.9375 190.2656,21.8125 Q190.2656,18.6875 191.5781,17.0313 Q192.9063,15.375 195.4063,15.375 Q196.1094,15.375 196.75,15.5313 Q197.4063,15.6875 197.9688,15.9844 L197.9688,18.7031 Q197.3438,18.125 196.75,17.8594 Q196.1563,17.5781 195.5313,17.5781 Q194.1875,17.5781 193.5,18.6563 Q192.8125,19.7188 192.8125,21.8125 Q192.8125,23.9063 193.5,24.9844 Q194.1875,26.0469 195.5313,26.0469 Q196.1563,26.0469 196.75,25.7813 Q197.3438,25.5 197.9688,24.9219 L197.9688,27.6406 Z " fill="#000000"/><text fill="#000000" font-family="sans-serif" font-size="14" lengthAdjust="spacing" textLength="52" x="209" y="26.8467">Subject</text><line style="stroke:#181818;stroke-width:0.5;" x1="181" x2="263" y1="38" y2="38"/><line style="stroke:#181818;stroke-width:0.5;" x1="181" x2="263" y1="46" y2="46"/></g><!--MD5=[ee700e15bc194e1bd9b6e90f3e445a7a]
class net.sourceforge.plantuml.project.lang.SubjectToday--><g id="elem_net.sourceforge.plantuml.project.lang.SubjectToday"><rect codeLine="3" fill="#F1F1F1" height="96.8906" id="net.sourceforge.plantuml.project.lang.SubjectToday" rx="2.5" ry="2.5" style="stroke:#181818;stroke-width:0.5;" width="415" x="14.5" y="90"/><ellipse cx="170.75" cy="106" fill="#ADD1B2" rx="11" ry="11" style="stroke:#181818;stroke-width:1.0;"/><path d="M173.7188,111.6406 Q173.1406,111.9375 172.5,112.0781 Q171.8594,112.2344 171.1563,112.2344 Q168.6563,112.2344 167.3281,110.5938 Q166.0156,108.9375 166.0156,105.8125 Q166.0156,102.6875 167.3281,101.0313 Q168.6563,99.375 171.1563,99.375 Q171.8594,99.375 172.5,99.5313 Q173.1563,99.6875 173.7188,99.9844 L173.7188,102.7031 Q173.0938,102.125 172.5,101.8594 Q171.9063,101.5781 171.2813,101.5781 Q169.9375,101.5781 169.25,102.6563 Q168.5625,103.7188 168.5625,105.8125 Q168.5625,107.9063 169.25,108.9844 Q169.9375,110.0469 171.2813,110.0469 Q171.9063,110.0469 172.5,109.7813 Q173.0938,109.5 173.7188,108.9219 L173.7188,111.6406 Z " fill="#000000"/><text fill="#000000" font-family="sans-serif" font-size="14" lengthAdjust="spacing" textLength="94" x="191.25" y="110.8467">SubjectToday</text><line style="stroke:#181818;stroke-width:0.5;" x1="15.5" x2="428.5" y1="122" y2="122"/><line style="stroke:#181818;stroke-width:0.5;" x1="15.5" x2="428.5" y1="130" y2="130"/><a href="./../../../../../../.././qc/src/net/sourceforge/plantuml/project/lang/SubjectToday.java.html#53" target="_top" title="./../../../../../../.././qc/src/net/sourceforge/plantuml/project/lang/SubjectToday.java.html#53" xlink:actuate="onRequest" xlink:href="./../../../../../../.././qc/src/net/sourceforge/plantuml/project/lang/SubjectToday.java.html#53" xlink:show="new" xlink:title="./../../../../../../.././qc/src/net/sourceforge/plantuml/project/lang/SubjectToday.java.html#53" xlink:type="simple"><rect fill="#F1F1F1" height="10" style="stroke:none;stroke-width:1.0;" width="20" x="20.5" y="138.6484"/><ellipse cx="25.5" cy="143.6484" fill="#84BE84" rx="3" ry="3" style="stroke:#038048;stroke-width:1.0;"/></a><a href="./../../../../../../.././qc/src/net/sourceforge/plantuml/project/lang/SubjectToday.java.html#53" target="_top" title="./../../../../../../.././qc/src/net/sourceforge/plantuml/project/lang/SubjectToday.java.html#53" xlink:actuate="onRequest" xlink:href="./../../../../../../.././qc/src/net/sourceforge/plantuml/project/lang/SubjectToday.java.html#53" xlink:show="new" xlink:title="./../../../../../../.././qc/src/net/sourceforge/plantuml/project/lang/SubjectToday.java.html#53" xlink:type="simple"><text fill="#000000" font-family="sans-serif" font-size="14" lengthAdjust="spacing" textLength="128" x="34.5" y="146.9951">toRegex() : IRegex</text></a><a href="./../../../../../../.././qc/src/net/sourceforge/plantuml/project/lang/SubjectToday.java.html#59" target="_top" title="./../../../../../../.././qc/src/net/sourceforge/plantuml/project/lang/SubjectToday.java.html#59" xlink:actuate="onRequest" xlink:href="./../../../../../../.././qc/src/net/sourceforge/plantuml/project/lang/SubjectToday.java.html#59" xlink:show="new" xlink:title="./../../../../../../.././qc/src/net/sourceforge/plantuml/project/lang/SubjectToday.java.html#59" xlink:type="simple"><rect fill="#F1F1F1" height="10" style="stroke:none;stroke-width:1.0;" width="20" x="20.5" y="154.9453"/><ellipse cx="25.5" cy="159.9453" fill="#84BE84" rx="3" ry="3" style="stroke:#038048;stroke-width:1.0;"/></a><a href="./../../../../../../.././qc/src/net/sourceforge/plantuml/project/lang/SubjectToday.java.html#59" target="_top" title="./../../../../../../.././qc/src/net/sourceforge/plantuml/project/lang/SubjectToday.java.html#59" xlink:actuate="onRequest" xlink:href="./../../../../../../.././qc/src/net/sourceforge/plantuml/project/lang/SubjectToday.java.html#59" xlink:show="new" xlink:title="./../../../../../../.././qc/src/net/sourceforge/plantuml/project/lang/SubjectToday.java.html#59" xlink:type="simple"><text fill="#000000" font-family="sans-serif" font-size="14" lengthAdjust="spacing" textLength="372" x="34.5" y="163.292">getMe(GanttDiagram;RegexResult) : Failable&lt;Today&gt;</text></a><a href="./../../../../../../.././qc/src/net/sourceforge/plantuml/project/lang/SubjectToday.java.html#63" target="_top" title="./../../../../../../.././qc/src/net/sourceforge/plantuml/project/lang/SubjectToday.java.html#63" xlink:actuate="onRequest" xlink:href="./../../../../../../.././qc/src/net/sourceforge/plantuml/project/lang/SubjectToday.java.html#63" xlink:show="new" xlink:title="./../../../../../../.././qc/src/net/sourceforge/plantuml/project/lang/SubjectToday.java.html#63" xlink:type="simple"><rect fill="#F1F1F1" height="10" style="stroke:none;stroke-width:1.0;" width="20" x="20.5" y="171.2422"/><ellipse cx="25.5" cy="176.2422" fill="#84BE84" rx="3" ry="3" style="stroke:#038048;stroke-width:1.0;"/></a><a href="./../../../../../../.././qc/src/net/sourceforge/plantuml/project/lang/SubjectToday.java.html#63" target="_top" title="./../../../../../../.././qc/src/net/sourceforge/plantuml/project/lang/SubjectToday.java.html#63" xlink:actuate="onRequest" xlink:href="./../../../../../../.././qc/src/net/sourceforge/plantuml/project/lang/SubjectToday.java.html#63" xlink:show="new" xlink:title="./../../../../../../.././qc/src/net/sourceforge/plantuml/project/lang/SubjectToday.java.html#63" xlink:type="simple"><text fill="#000000" font-family="sans-serif" font-size="14" lengthAdjust="spacing" textLength="389" x="34.5" y="179.5889">getSentences() : Collection&lt;?extendsSentenceSimple&gt;</text></a></g><path d="M222,54.1089 C222,64.6313 222,77.495 222,89.9394 " fill="none" style="stroke:#181818;stroke-width:1.0;"/><polygon fill="#FFFFFF" points="222,54.1089,216,70.1089,228,70.1089,222,54.1089" style="stroke:#181818;stroke-width:1.0;"/><!--MD5=[5bd599c6fc06f41c9259f3c069081720]
@startuml
!pragma layout smetana
"Subject" <|- - "net.sourceforge.plantuml.project.lang.SubjectToday"
class net.sourceforge.plantuml.project.lang.SubjectToday {
+toRegex() : IRegex [[[./../../../../../../.././qc/src/net/sourceforge/plantuml/project/lang/SubjectToday.java.html#53]]]
+getMe(GanttDiagram;RegexResult) : Failable<Today> [[[./../../../../../../.././qc/src/net/sourceforge/plantuml/project/lang/SubjectToday.java.html#59]]]
+getSentences() : Collection<?extendsSentenceSimple> [[[./../../../../../../.././qc/src/net/sourceforge/plantuml/project/lang/SubjectToday.java.html#63]]]
} 
@enduml

PlantUML version 1.2022.7(Mon Aug 22 17:01:30 UTC 2022)
(GPL source distribution)
Java Runtime: OpenJDK Runtime Environment
JVM: OpenJDK 64-Bit Server VM
Default Encoding: UTF-8
Language: en
Country: null
--></g></svg>