<?xml version="1.0" encoding="UTF-8" standalone="no"?><svg xmlns="http://www.w3.org/2000/svg" xmlns:xlink="http://www.w3.org/1999/xlink" contentStyleType="text/css" height="393px" preserveAspectRatio="none" style="width:237px;height:393px;background:#FFFFFF;" version="1.1" viewBox="0 0 237 393" width="237px" zoomAndPan="magnify"><defs/><g><path d="M87,10 L87,18.5664 L67,22.5664 L87,26.5664 L87,35.1328 A0,0 0 0 0 87,35.1328 L223,35.1328 A0,0 0 0 0 223,35.1328 L223,20 L213,10 L87,10 A0,0 0 0 0 87,10 " fill="#FEFFDD" style="stroke:#181818;stroke-width:0.5;"/><path d="M213,10 L213,20 L223,20 L213,10 " fill="#FEFFDD" style="stroke:#181818;stroke-width:0.5;"/><text fill="#000000" font-family="sans-serif" font-size="13" lengthAdjust="spacing" textLength="115" x="93" y="27.0669">void eat(double v)</text><ellipse cx="57" cy="22.5664" fill="#222222" rx="10" ry="10" style="stroke:#222222;stroke-width:1.0;"/><rect fill="#F1F1F1" height="33.9688" rx="12.5" ry="12.5" style="stroke:#181818;stroke-width:0.5;" width="65" x="24.5" y="103.5352"/><text fill="#000000" font-family="sans-serif" font-size="12" lengthAdjust="spacing" textLength="45" x="34.5" y="124.6738">max=v;</text><polygon fill="#F1F1F1" points="37.5,55.1328,76.5,55.1328,88.5,67.1328,76.5,79.1328,37.5,79.1328,25.5,67.1328,37.5,55.1328" style="stroke:#181818;stroke-width:0.5;"/><text fill="#000000" font-family="sans-serif" font-size="11" lengthAdjust="spacing" textLength="20" x="61" y="89.3433">yes</text><text fill="#000000" font-family="sans-serif" font-size="11" lengthAdjust="spacing" textLength="39" x="37.5" y="70.9409">v&gt;max</text><polygon fill="#F1F1F1" points="57,157.5039,69,169.5039,57,181.5039,45,169.5039,57,157.5039" style="stroke:#181818;stroke-width:0.5;"/><ellipse cx="57" cy="211.5039" fill="none" rx="10" ry="10" style="stroke:#222222;stroke-width:1.5;"/><line style="stroke:#222222;stroke-width:2.5;" x1="50.8128" x2="63.1872" y1="205.3167" y2="217.6911"/><line style="stroke:#222222;stroke-width:2.5;" x1="63.1872" x2="50.8128" y1="205.3167" y2="217.6911"/><path d="M87,231.5039 L87,240.0703 L67,244.0703 L87,248.0703 L87,256.6367 A0,0 0 0 0 87,256.6367 L225,256.6367 A0,0 0 0 0 225,256.6367 L225,241.5039 L215,231.5039 L87,231.5039 A0,0 0 0 0 87,231.5039 " fill="#FEFFDD" style="stroke:#181818;stroke-width:0.5;"/><path d="M215,231.5039 L215,241.5039 L225,241.5039 L215,231.5039 " fill="#FEFFDD" style="stroke:#181818;stroke-width:0.5;"/><text fill="#000000" font-family="sans-serif" font-size="13" lengthAdjust="spacing" textLength="117" x="93" y="248.5708">double getResult()</text><ellipse cx="57" cy="244.0703" fill="#222222" rx="10" ry="10" style="stroke:#222222;stroke-width:1.0;"/><rect fill="#F1F1F1" height="33.9688" rx="12.5" ry="12.5" style="stroke:#181818;stroke-width:0.5;" width="92" x="11" y="276.6367"/><text fill="#000000" font-family="sans-serif" font-size="12" lengthAdjust="spacing" textLength="72" x="21" y="297.7754">return max;</text><ellipse cx="57" cy="341.6055" fill="none" rx="11" ry="11" style="stroke:#222222;stroke-width:1.0;"/><ellipse cx="57" cy="341.6055" fill="#222222" rx="6" ry="6" style="stroke:#111111;stroke-width:1.0;"/><ellipse cx="57" cy="372.6055" fill="none" rx="10" ry="10" style="stroke:#222222;stroke-width:1.5;"/><line style="stroke:#222222;stroke-width:2.5;" x1="50.8128" x2="63.1872" y1="366.4183" y2="378.7927"/><line style="stroke:#222222;stroke-width:2.5;" x1="63.1872" x2="50.8128" y1="366.4183" y2="378.7927"/><line style="stroke:#181818;stroke-width:1.0;" x1="57" x2="57" y1="79.1328" y2="103.5352"/><polygon fill="#181818" points="53,93.5352,57,103.5352,61,93.5352,57,97.5352" style="stroke:#181818;stroke-width:1.0;"/><line style="stroke:#181818;stroke-width:1.0;" x1="88.5" x2="100.5" y1="67.1328" y2="67.1328"/><polygon fill="#181818" points="96.5,110.5195,100.5,120.5195,104.5,110.5195,100.5,114.5195" style="stroke:#181818;stroke-width:1.0;"/><line style="stroke:#181818;stroke-width:1.0;" x1="100.5" x2="100.5" y1="67.1328" y2="169.5039"/><line style="stroke:#181818;stroke-width:1.0;" x1="100.5" x2="69" y1="169.5039" y2="169.5039"/><polygon fill="#181818" points="79,165.5039,69,169.5039,79,173.5039,75,169.5039" style="stroke:#181818;stroke-width:1.0;"/><line style="stroke:#181818;stroke-width:1.0;" x1="57" x2="57" y1="137.5039" y2="157.5039"/><polygon fill="#181818" points="53,147.5039,57,157.5039,61,147.5039,57,151.5039" style="stroke:#181818;stroke-width:1.0;"/><line style="stroke:#181818;stroke-width:1.0;" x1="57" x2="57" y1="32.5664" y2="55.1328"/><polygon fill="#181818" points="53,45.1328,57,55.1328,61,45.1328,57,49.1328" style="stroke:#181818;stroke-width:1.0;"/><line style="stroke:#181818;stroke-width:1.0;" x1="57" x2="57" y1="181.5039" y2="201.5039"/><polygon fill="#181818" points="53,191.5039,57,201.5039,61,191.5039,57,195.5039" style="stroke:#181818;stroke-width:1.0;"/><line style="stroke:#181818;stroke-width:1.0;" x1="57" x2="57" y1="254.0703" y2="276.6367"/><polygon fill="#181818" points="53,266.6367,57,276.6367,61,266.6367,57,270.6367" style="stroke:#181818;stroke-width:1.0;"/><line style="stroke:#181818;stroke-width:1.0;" x1="57" x2="57" y1="310.6055" y2="330.6055"/><polygon fill="#181818" points="53,320.6055,57,330.6055,61,320.6055,57,324.6055" style="stroke:#181818;stroke-width:1.0;"/><!--MD5=[4f0b42117e536e1894e62e4832c3af3a]
@startuml
!pragma layout smetana
start
note right
void eat(double v)
end note
if (v>max) then (yes) 
:max=v;;
endif 
end
start
note right
double getResult()
end note
:return max;;
stop
end
@enduml

PlantUML version 1.2022.7(Mon Aug 22 17:01:30 UTC 2022)
(GPL source distribution)
Java Runtime: OpenJDK Runtime Environment
JVM: OpenJDK 64-Bit Server VM
Default Encoding: UTF-8
Language: en
Country: null
--></g></svg>