<?xml version="1.0" encoding="UTF-8" standalone="no"?><svg xmlns="http://www.w3.org/2000/svg" xmlns:xlink="http://www.w3.org/1999/xlink" contentStyleType="text/css" height="301px" preserveAspectRatio="none" style="width:237px;height:301px;background:#FFFFFF;" version="1.1" viewBox="0 0 237 301" width="237px" zoomAndPan="magnify"><defs/><g><path d="M87.5,10 L87.5,18.5664 L67.5,22.5664 L87.5,26.5664 L87.5,35.1328 A0,0 0 0 0 87.5,35.1328 L223.5,35.1328 A0,0 0 0 0 223.5,35.1328 L223.5,20 L213.5,10 L87.5,10 A0,0 0 0 0 87.5,10 " fill="#FEFFDD" style="stroke:#181818;stroke-width:0.5;"/><path d="M213.5,10 L213.5,20 L223.5,20 L213.5,10 " fill="#FEFFDD" style="stroke:#181818;stroke-width:0.5;"/><text fill="#000000" font-family="sans-serif" font-size="13" lengthAdjust="spacing" textLength="115" x="93.5" y="27.0669">void eat(double v)</text><ellipse cx="57.5" cy="22.5664" fill="#222222" rx="10" ry="10" style="stroke:#222222;stroke-width:1.0;"/><rect fill="#F1F1F1" height="33.9688" rx="12.5" ry="12.5" style="stroke:#181818;stroke-width:0.5;" width="76" x="19.5" y="55.1328"/><text fill="#000000" font-family="sans-serif" font-size="12" lengthAdjust="spacing" textLength="56" x="29.5" y="76.2715">sum+=v;</text><ellipse cx="57.5" cy="119.1016" fill="none" rx="10" ry="10" style="stroke:#222222;stroke-width:1.5;"/><line style="stroke:#222222;stroke-width:2.5;" x1="51.3128" x2="63.6872" y1="112.9144" y2="125.2887"/><line style="stroke:#222222;stroke-width:2.5;" x1="63.6872" x2="51.3128" y1="112.9144" y2="125.2887"/><path d="M87.5,139.1016 L87.5,147.668 L67.5,151.668 L87.5,155.668 L87.5,164.2344 A0,0 0 0 0 87.5,164.2344 L225.5,164.2344 A0,0 0 0 0 225.5,164.2344 L225.5,149.1016 L215.5,139.1016 L87.5,139.1016 A0,0 0 0 0 87.5,139.1016 " fill="#FEFFDD" style="stroke:#181818;stroke-width:0.5;"/><path d="M215.5,139.1016 L215.5,149.1016 L225.5,149.1016 L215.5,139.1016 " fill="#FEFFDD" style="stroke:#181818;stroke-width:0.5;"/><text fill="#000000" font-family="sans-serif" font-size="13" lengthAdjust="spacing" textLength="117" x="93.5" y="156.1685">double getResult()</text><ellipse cx="57.5" cy="151.668" fill="#222222" rx="10" ry="10" style="stroke:#222222;stroke-width:1.0;"/><rect fill="#F1F1F1" height="33.9688" rx="12.5" ry="12.5" style="stroke:#181818;stroke-width:0.5;" width="93" x="11" y="184.2344"/><text fill="#000000" font-family="sans-serif" font-size="12" lengthAdjust="spacing" textLength="73" x="21" y="205.373">return sum;</text><ellipse cx="57.5" cy="249.2031" fill="none" rx="11" ry="11" style="stroke:#222222;stroke-width:1.0;"/><ellipse cx="57.5" cy="249.2031" fill="#222222" rx="6" ry="6" style="stroke:#111111;stroke-width:1.0;"/><ellipse cx="57.5" cy="280.2031" fill="none" rx="10" ry="10" style="stroke:#222222;stroke-width:1.5;"/><line style="stroke:#222222;stroke-width:2.5;" x1="51.3128" x2="63.6872" y1="274.0159" y2="286.3903"/><line style="stroke:#222222;stroke-width:2.5;" x1="63.6872" x2="51.3128" y1="274.0159" y2="286.3903"/><line style="stroke:#181818;stroke-width:1.0;" x1="57.5" x2="57.5" y1="32.5664" y2="55.1328"/><polygon fill="#181818" points="53.5,45.1328,57.5,55.1328,61.5,45.1328,57.5,49.1328" style="stroke:#181818;stroke-width:1.0;"/><line style="stroke:#181818;stroke-width:1.0;" x1="57.5" x2="57.5" y1="89.1016" y2="109.1016"/><polygon fill="#181818" points="53.5,99.1016,57.5,109.1016,61.5,99.1016,57.5,103.1016" style="stroke:#181818;stroke-width:1.0;"/><line style="stroke:#181818;stroke-width:1.0;" x1="57.5" x2="57.5" y1="161.668" y2="184.2344"/><polygon fill="#181818" points="53.5,174.2344,57.5,184.2344,61.5,174.2344,57.5,178.2344" style="stroke:#181818;stroke-width:1.0;"/><line style="stroke:#181818;stroke-width:1.0;" x1="57.5" x2="57.5" y1="218.2031" y2="238.2031"/><polygon fill="#181818" points="53.5,228.2031,57.5,238.2031,61.5,228.2031,57.5,232.2031" style="stroke:#181818;stroke-width:1.0;"/><!--MD5=[05a9031ebfad4cab8a51fcefabf3d3c6]
@startuml
!pragma layout smetana
start
note right
void eat(double v)
end note
:sum+=v;;
end
start
note right
double getResult()
end note
:return sum;;
stop
end
@enduml

PlantUML version 1.2022.7(Mon Aug 22 17:01:30 UTC 2022)
(GPL source distribution)
Java Runtime: OpenJDK Runtime Environment
JVM: OpenJDK 64-Bit Server VM
Default Encoding: UTF-8
Language: en
Country: null
--></g></svg>