<?xml version="1.0" encoding="UTF-8" standalone="no"?><svg xmlns="http://www.w3.org/2000/svg" xmlns:xlink="http://www.w3.org/1999/xlink" contentStyleType="text/css" height="202px" preserveAspectRatio="none" style="width:417px;height:202px;background:#FFFFFF;" version="1.1" viewBox="0 0 417 202" width="417px" zoomAndPan="magnify"><defs/><g><!--MD5=[36c8011b3515497ad3141e904da87df8]
cluster net.sourceforge.plantuml.svek--><g id="cluster_net.sourceforge.plantuml.svek"><path d="M8.5,63 L252.5,63 A3.75,3.75 0 0 1 255,65.5 L262,85.2969 L407.5,85.2969 A2.5,2.5 0 0 1 410,87.7969 L410,192.5 A2.5,2.5 0 0 1 407.5,195 L8.5,195 A2.5,2.5 0 0 1 6,192.5 L6,65.5 A2.5,2.5 0 0 1 8.5,63 " fill="none" style="stroke:#000000;stroke-width:1.5;"/><line style="stroke:#000000;stroke-width:1.5;" x1="6" x2="262" y1="85.2969" y2="85.2969"/><text fill="#000000" font-family="sans-serif" font-size="14" font-weight="bold" lengthAdjust="spacing" textLength="243" x="10" y="77.9951">net.sourceforge.plantuml.svek</text></g><!--MD5=[51c245dabec8a65e00be058e8eb5d9e2]
class AbstractTextBlock--><g id="elem_AbstractTextBlock"><rect fill="#F1F1F1" height="48" id="AbstractTextBlock" rx="2.5" ry="2.5" style="stroke:#181818;stroke-width:0.5;" width="157" x="129.5" y="6"/><ellipse cx="144.5" cy="22" fill="#ADD1B2" rx="11" ry="11" style="stroke:#181818;stroke-width:1.0;"/><path d="M147.4688,27.6406 Q146.8906,27.9375 146.25,28.0781 Q145.6094,28.2344 144.9063,28.2344 Q142.4063,28.2344 141.0781,26.5938 Q139.7656,24.9375 139.7656,21.8125 Q139.7656,18.6875 141.0781,17.0313 Q142.4063,15.375 144.9063,15.375 Q145.6094,15.375 146.25,15.5313 Q146.9063,15.6875 147.4688,15.9844 L147.4688,18.7031 Q146.8438,18.125 146.25,17.8594 Q145.6563,17.5781 145.0313,17.5781 Q143.6875,17.5781 143,18.6563 Q142.3125,19.7188 142.3125,21.8125 Q142.3125,23.9063 143,24.9844 Q143.6875,26.0469 145.0313,26.0469 Q145.6563,26.0469 146.25,25.7813 Q146.8438,25.5 147.4688,24.9219 L147.4688,27.6406 Z " fill="#000000"/><text fill="#000000" font-family="sans-serif" font-size="14" lengthAdjust="spacing" textLength="125" x="158.5" y="26.8467">AbstractTextBlock</text><line style="stroke:#181818;stroke-width:0.5;" x1="130.5" x2="285.5" y1="38" y2="38"/><line style="stroke:#181818;stroke-width:0.5;" x1="130.5" x2="285.5" y1="46" y2="46"/></g><!--MD5=[a3eec8cd7ace8a92c5c149a9b6cfa6a2]
class net.sourceforge.plantuml.svek.Boundary--><g id="elem_net.sourceforge.plantuml.svek.Boundary"><rect codeLine="3" fill="#F1F1F1" height="96.8906" id="net.sourceforge.plantuml.svek.Boundary" rx="2.5" ry="2.5" style="stroke:#181818;stroke-width:0.5;" width="387" x="14.5" y="90"/><ellipse cx="170.75" cy="106" fill="#ADD1B2" rx="11" ry="11" style="stroke:#181818;stroke-width:1.0;"/><path d="M173.7188,111.6406 Q173.1406,111.9375 172.5,112.0781 Q171.8594,112.2344 171.1563,112.2344 Q168.6563,112.2344 167.3281,110.5938 Q166.0156,108.9375 166.0156,105.8125 Q166.0156,102.6875 167.3281,101.0313 Q168.6563,99.375 171.1563,99.375 Q171.8594,99.375 172.5,99.5313 Q173.1563,99.6875 173.7188,99.9844 L173.7188,102.7031 Q173.0938,102.125 172.5,101.8594 Q171.9063,101.5781 171.2813,101.5781 Q169.9375,101.5781 169.25,102.6563 Q168.5625,103.7188 168.5625,105.8125 Q168.5625,107.9063 169.25,108.9844 Q169.9375,110.0469 171.2813,110.0469 Q171.9063,110.0469 172.5,109.7813 Q173.0938,109.5 173.7188,108.9219 L173.7188,111.6406 Z " fill="#000000"/><text fill="#000000" font-family="sans-serif" font-size="14" lengthAdjust="spacing" textLength="66" x="191.25" y="110.8467">Boundary</text><line style="stroke:#181818;stroke-width:0.5;" x1="15.5" x2="400.5" y1="122" y2="122"/><line style="stroke:#181818;stroke-width:0.5;" x1="15.5" x2="400.5" y1="130" y2="130"/><a href="./../../../../../.././qc/src/net/sourceforge/plantuml/svek/Boundary.java.html#57" target="_top" title="./../../../../../.././qc/src/net/sourceforge/plantuml/svek/Boundary.java.html#57" xlink:actuate="onRequest" xlink:href="./../../../../../.././qc/src/net/sourceforge/plantuml/svek/Boundary.java.html#57" xlink:show="new" xlink:title="./../../../../../.././qc/src/net/sourceforge/plantuml/svek/Boundary.java.html#57" xlink:type="simple"><rect fill="#F1F1F1" height="10" style="stroke:none;stroke-width:1.0;" width="20" x="20.5" y="138.6484"/><ellipse cx="25.5" cy="143.6484" fill="#84BE84" rx="3" ry="3" style="stroke:#038048;stroke-width:1.0;"/></a><a href="./../../../../../.././qc/src/net/sourceforge/plantuml/svek/Boundary.java.html#57" target="_top" title="./../../../../../.././qc/src/net/sourceforge/plantuml/svek/Boundary.java.html#57" xlink:actuate="onRequest" xlink:href="./../../../../../.././qc/src/net/sourceforge/plantuml/svek/Boundary.java.html#57" xlink:show="new" xlink:title="./../../../../../.././qc/src/net/sourceforge/plantuml/svek/Boundary.java.html#57" xlink:type="simple"><text fill="#000000" font-family="sans-serif" font-size="14" lengthAdjust="spacing" textLength="259" x="34.5" y="146.9951">Boundary(SymbolContext) : Boundary</text></a><a href="./../../../../../.././qc/src/net/sourceforge/plantuml/svek/Boundary.java.html#61" target="_top" title="./../../../../../.././qc/src/net/sourceforge/plantuml/svek/Boundary.java.html#61" xlink:actuate="onRequest" xlink:href="./../../../../../.././qc/src/net/sourceforge/plantuml/svek/Boundary.java.html#61" xlink:show="new" xlink:title="./../../../../../.././qc/src/net/sourceforge/plantuml/svek/Boundary.java.html#61" xlink:type="simple"><rect fill="#F1F1F1" height="10" style="stroke:none;stroke-width:1.0;" width="20" x="20.5" y="154.9453"/><ellipse cx="25.5" cy="159.9453" fill="#84BE84" rx="3" ry="3" style="stroke:#038048;stroke-width:1.0;"/></a><a href="./../../../../../.././qc/src/net/sourceforge/plantuml/svek/Boundary.java.html#61" target="_top" title="./../../../../../.././qc/src/net/sourceforge/plantuml/svek/Boundary.java.html#61" xlink:actuate="onRequest" xlink:href="./../../../../../.././qc/src/net/sourceforge/plantuml/svek/Boundary.java.html#61" xlink:show="new" xlink:title="./../../../../../.././qc/src/net/sourceforge/plantuml/svek/Boundary.java.html#61" xlink:type="simple"><text fill="#000000" font-family="sans-serif" font-size="14" lengthAdjust="spacing" textLength="157" x="34.5" y="163.292">drawU(UGraphic) : void</text></a><a href="./../../../../../.././qc/src/net/sourceforge/plantuml/svek/Boundary.java.html#94" target="_top" title="./../../../../../.././qc/src/net/sourceforge/plantuml/svek/Boundary.java.html#94" xlink:actuate="onRequest" xlink:href="./../../../../../.././qc/src/net/sourceforge/plantuml/svek/Boundary.java.html#94" xlink:show="new" xlink:title="./../../../../../.././qc/src/net/sourceforge/plantuml/svek/Boundary.java.html#94" xlink:type="simple"><rect fill="#F1F1F1" height="10" style="stroke:none;stroke-width:1.0;" width="20" x="20.5" y="171.2422"/><ellipse cx="25.5" cy="176.2422" fill="#84BE84" rx="3" ry="3" style="stroke:#038048;stroke-width:1.0;"/></a><a href="./../../../../../.././qc/src/net/sourceforge/plantuml/svek/Boundary.java.html#94" target="_top" title="./../../../../../.././qc/src/net/sourceforge/plantuml/svek/Boundary.java.html#94" xlink:actuate="onRequest" xlink:href="./../../../../../.././qc/src/net/sourceforge/plantuml/svek/Boundary.java.html#94" xlink:show="new" xlink:title="./../../../../../.././qc/src/net/sourceforge/plantuml/svek/Boundary.java.html#94" xlink:type="simple"><text fill="#000000" font-family="sans-serif" font-size="14" lengthAdjust="spacing" textLength="361" x="34.5" y="179.5889">calculateDimension(StringBounder) : XDimension2D</text></a></g><path d="M208,54.1089 C208,64.6313 208,77.495 208,89.9394 " fill="none" style="stroke:#181818;stroke-width:1.0;"/><polygon fill="#FFFFFF" points="208,54.1089,202,70.1089,214,70.1089,208,54.1089" style="stroke:#181818;stroke-width:1.0;"/><!--MD5=[287464abdf612ac11d8ee02cea74a8df]
@startuml
!pragma layout smetana
"AbstractTextBlock" <|- - "net.sourceforge.plantuml.svek.Boundary"
class net.sourceforge.plantuml.svek.Boundary {
+Boundary(SymbolContext) : Boundary [[[./../../../../../.././qc/src/net/sourceforge/plantuml/svek/Boundary.java.html#57]]]
+drawU(UGraphic) : void [[[./../../../../../.././qc/src/net/sourceforge/plantuml/svek/Boundary.java.html#61]]]
+calculateDimension(StringBounder) : XDimension2D [[[./../../../../../.././qc/src/net/sourceforge/plantuml/svek/Boundary.java.html#94]]]
} 
@enduml

PlantUML version 1.2022.7(Mon Aug 22 17:01:30 UTC 2022)
(GPL source distribution)
Java Runtime: OpenJDK Runtime Environment
JVM: OpenJDK 64-Bit Server VM
Default Encoding: UTF-8
Language: en
Country: null
--></g></svg>