<?xml version="1.0" encoding="UTF-8" standalone="no"?><svg xmlns="http://www.w3.org/2000/svg" xmlns:xlink="http://www.w3.org/1999/xlink" contentStyleType="text/css" height="203px" preserveAspectRatio="none" style="width:272px;height:203px;background:#FFFFFF;" version="1.1" viewBox="0 0 272 203" width="272px" zoomAndPan="magnify"><defs/><g><!--MD5=[aa8f7b917213fcc1c2766e2d59b49067]
cluster java.lang--><g id="cluster_java.lang"><path d="M90.5,6 L160.5,6 A3.75,3.75 0 0 1 163,8.5 L170,28.2969 L179.5,28.2969 A2.5,2.5 0 0 1 182,30.7969 L182,86.5 A2.5,2.5 0 0 1 179.5,89 L90.5,89 A2.5,2.5 0 0 1 88,86.5 L88,8.5 A2.5,2.5 0 0 1 90.5,6 " fill="none" style="stroke:#000000;stroke-width:1.5;"/><line style="stroke:#000000;stroke-width:1.5;" x1="88" x2="170" y1="28.2969" y2="28.2969"/><text fill="#000000" font-family="sans-serif" font-size="14" font-weight="bold" lengthAdjust="spacing" textLength="69" x="92" y="20.9951">java.lang</text></g><!--MD5=[36c8011b3515497ad3141e904da87df8]
cluster net.sourceforge.plantuml.svek--><g id="cluster_net.sourceforge.plantuml.svek"><path d="M8.5,97 L252.5,97 A3.75,3.75 0 0 1 255,99.5 L262,119.2969 L262.5,119.2969 A2.5,2.5 0 0 1 265,121.7969 L265,193.5 A2.5,2.5 0 0 1 262.5,196 L8.5,196 A2.5,2.5 0 0 1 6,193.5 L6,99.5 A2.5,2.5 0 0 1 8.5,97 " fill="none" style="stroke:#000000;stroke-width:1.5;"/><line style="stroke:#000000;stroke-width:1.5;" x1="6" x2="262" y1="119.2969" y2="119.2969"/><text fill="#000000" font-family="sans-serif" font-size="14" font-weight="bold" lengthAdjust="spacing" textLength="243" x="10" y="111.9951">net.sourceforge.plantuml.svek</text></g><!--MD5=[274ad5661286b626a93603d287cbf95a]
class java.lang.Object--><g id="elem_java.lang.Object"><rect fill="#F1F1F1" height="48" id="java.lang.Object" rx="2.5" ry="2.5" style="stroke:#181818;stroke-width:0.5;" width="77" x="96.5" y="33"/><ellipse cx="111.5" cy="49" fill="#ADD1B2" rx="11" ry="11" style="stroke:#181818;stroke-width:1.0;"/><path d="M114.4688,54.6406 Q113.8906,54.9375 113.25,55.0781 Q112.6094,55.2344 111.9063,55.2344 Q109.4063,55.2344 108.0781,53.5938 Q106.7656,51.9375 106.7656,48.8125 Q106.7656,45.6875 108.0781,44.0313 Q109.4063,42.375 111.9063,42.375 Q112.6094,42.375 113.25,42.5313 Q113.9063,42.6875 114.4688,42.9844 L114.4688,45.7031 Q113.8438,45.125 113.25,44.8594 Q112.6563,44.5781 112.0313,44.5781 Q110.6875,44.5781 110,45.6563 Q109.3125,46.7188 109.3125,48.8125 Q109.3125,50.9063 110,51.9844 Q110.6875,53.0469 112.0313,53.0469 Q112.6563,53.0469 113.25,52.7813 Q113.8438,52.5 114.4688,51.9219 L114.4688,54.6406 Z " fill="#000000"/><text fill="#000000" font-family="sans-serif" font-size="14" lengthAdjust="spacing" textLength="45" x="125.5" y="53.8467">Object</text><line style="stroke:#181818;stroke-width:0.5;" x1="97.5" x2="172.5" y1="65" y2="65"/><line style="stroke:#181818;stroke-width:0.5;" x1="97.5" x2="172.5" y1="73" y2="73"/></g><!--MD5=[20261989666906f9b04c83b1eaa8f730]
class net.sourceforge.plantuml.svek.ColorSequence--><g id="elem_net.sourceforge.plantuml.svek.ColorSequence"><rect codeLine="3" fill="#F1F1F1" height="64.2969" id="net.sourceforge.plantuml.svek.ColorSequence" rx="2.5" ry="2.5" style="stroke:#181818;stroke-width:0.5;" width="139" x="65.5" y="124"/><ellipse cx="80.5" cy="140" fill="#ADD1B2" rx="11" ry="11" style="stroke:#181818;stroke-width:1.0;"/><path d="M83.4688,145.6406 Q82.8906,145.9375 82.25,146.0781 Q81.6094,146.2344 80.9063,146.2344 Q78.4063,146.2344 77.0781,144.5938 Q75.7656,142.9375 75.7656,139.8125 Q75.7656,136.6875 77.0781,135.0313 Q78.4063,133.375 80.9063,133.375 Q81.6094,133.375 82.25,133.5313 Q82.9063,133.6875 83.4688,133.9844 L83.4688,136.7031 Q82.8438,136.125 82.25,135.8594 Q81.6563,135.5781 81.0313,135.5781 Q79.6875,135.5781 79,136.6563 Q78.3125,137.7188 78.3125,139.8125 Q78.3125,141.9063 79,142.9844 Q79.6875,144.0469 81.0313,144.0469 Q81.6563,144.0469 82.25,143.7813 Q82.8438,143.5 83.4688,142.9219 L83.4688,145.6406 Z " fill="#000000"/><text fill="#000000" font-family="sans-serif" font-size="14" lengthAdjust="spacing" textLength="107" x="94.5" y="144.8467">ColorSequence</text><line style="stroke:#181818;stroke-width:0.5;" x1="66.5" x2="203.5" y1="156" y2="156"/><line style="stroke:#181818;stroke-width:0.5;" x1="66.5" x2="203.5" y1="164" y2="164"/><a href="./../../../../../.././qc/src/net/sourceforge/plantuml/svek/ColorSequence.java.html#44" target="_top" title="./../../../../../.././qc/src/net/sourceforge/plantuml/svek/ColorSequence.java.html#44" xlink:actuate="onRequest" xlink:href="./../../../../../.././qc/src/net/sourceforge/plantuml/svek/ColorSequence.java.html#44" xlink:show="new" xlink:title="./../../../../../.././qc/src/net/sourceforge/plantuml/svek/ColorSequence.java.html#44" xlink:type="simple"><rect fill="#F1F1F1" height="10" style="stroke:none;stroke-width:1.0;" width="20" x="71.5" y="172.6484"/><ellipse cx="76.5" cy="177.6484" fill="#84BE84" rx="3" ry="3" style="stroke:#038048;stroke-width:1.0;"/></a><a href="./../../../../../.././qc/src/net/sourceforge/plantuml/svek/ColorSequence.java.html#44" target="_top" title="./../../../../../.././qc/src/net/sourceforge/plantuml/svek/ColorSequence.java.html#44" xlink:actuate="onRequest" xlink:href="./../../../../../.././qc/src/net/sourceforge/plantuml/svek/ColorSequence.java.html#44" xlink:show="new" xlink:title="./../../../../../.././qc/src/net/sourceforge/plantuml/svek/ColorSequence.java.html#44" xlink:type="simple"><text fill="#000000" font-family="sans-serif" font-size="14" lengthAdjust="spacing" textLength="101" x="85.5" y="180.9951">getValue() : int</text></a></g><path d="M135,81.481 C135,94.1526 135,109.962 135,123.6701 " fill="none" style="stroke:#181818;stroke-width:1.0;"/><polygon fill="#FFFFFF" points="135,81.481,129,97.481,141,97.481,135,81.481" style="stroke:#181818;stroke-width:1.0;"/><!--MD5=[2dbae3a8c4cb0cd20d7f7c985886bd0e]
@startuml
!pragma layout smetana
"java.lang.Object" <|- - "net.sourceforge.plantuml.svek.ColorSequence"
class net.sourceforge.plantuml.svek.ColorSequence {
+getValue() : int [[[./../../../../../.././qc/src/net/sourceforge/plantuml/svek/ColorSequence.java.html#44]]]
} 
@enduml

PlantUML version 1.2022.7(Mon Aug 22 17:01:30 UTC 2022)
(GPL source distribution)
Java Runtime: OpenJDK Runtime Environment
JVM: OpenJDK 64-Bit Server VM
Default Encoding: UTF-8
Language: en
Country: null
--></g></svg>