<?xml version="1.0" encoding="UTF-8" standalone="no"?><svg xmlns="http://www.w3.org/2000/svg" xmlns:xlink="http://www.w3.org/1999/xlink" contentStyleType="text/css" height="202px" preserveAspectRatio="none" style="width:721px;height:202px;background:#FFFFFF;" version="1.1" viewBox="0 0 721 202" width="721px" zoomAndPan="magnify"><defs/><g><!--MD5=[36c8011b3515497ad3141e904da87df8]
cluster net.sourceforge.plantuml.svek--><g id="cluster_net.sourceforge.plantuml.svek"><path d="M8.5,63 L252.5,63 A3.75,3.75 0 0 1 255,65.5 L262,85.2969 L711.5,85.2969 A2.5,2.5 0 0 1 714,87.7969 L714,192.5 A2.5,2.5 0 0 1 711.5,195 L8.5,195 A2.5,2.5 0 0 1 6,192.5 L6,65.5 A2.5,2.5 0 0 1 8.5,63 " fill="none" style="stroke:#000000;stroke-width:1.5;"/><line style="stroke:#000000;stroke-width:1.5;" x1="6" x2="262" y1="85.2969" y2="85.2969"/><text fill="#000000" font-family="sans-serif" font-size="14" font-weight="bold" lengthAdjust="spacing" textLength="243" x="10" y="77.9951">net.sourceforge.plantuml.svek</text></g><!--MD5=[0e20a00bc3b35dcf5d17af8400babc95]
class TextBlock--><g id="elem_TextBlock"><rect fill="#F1F1F1" height="48" id="TextBlock" rx="2.5" ry="2.5" style="stroke:#181818;stroke-width:0.5;" width="100" x="310" y="6"/><ellipse cx="325" cy="22" fill="#ADD1B2" rx="11" ry="11" style="stroke:#181818;stroke-width:1.0;"/><path d="M327.9688,27.6406 Q327.3906,27.9375 326.75,28.0781 Q326.1094,28.2344 325.4063,28.2344 Q322.9063,28.2344 321.5781,26.5938 Q320.2656,24.9375 320.2656,21.8125 Q320.2656,18.6875 321.5781,17.0313 Q322.9063,15.375 325.4063,15.375 Q326.1094,15.375 326.75,15.5313 Q327.4063,15.6875 327.9688,15.9844 L327.9688,18.7031 Q327.3438,18.125 326.75,17.8594 Q326.1563,17.5781 325.5313,17.5781 Q324.1875,17.5781 323.5,18.6563 Q322.8125,19.7188 322.8125,21.8125 Q322.8125,23.9063 323.5,24.9844 Q324.1875,26.0469 325.5313,26.0469 Q326.1563,26.0469 326.75,25.7813 Q327.3438,25.5 327.9688,24.9219 L327.9688,27.6406 Z " fill="#000000"/><text fill="#000000" font-family="sans-serif" font-size="14" lengthAdjust="spacing" textLength="68" x="339" y="26.8467">TextBlock</text><line style="stroke:#181818;stroke-width:0.5;" x1="311" x2="409" y1="38" y2="38"/><line style="stroke:#181818;stroke-width:0.5;" x1="311" x2="409" y1="46" y2="46"/></g><!--MD5=[ab8771520ea2932e8fb8aaf6882884cd]
class net.sourceforge.plantuml.svek.DirectionalTextBlock--><g id="elem_net.sourceforge.plantuml.svek.DirectionalTextBlock"><rect codeLine="3" fill="#F1F1F1" height="96.8906" id="net.sourceforge.plantuml.svek.DirectionalTextBlock" rx="2.5" ry="2.5" style="stroke:#181818;stroke-width:0.5;" width="692" x="14" y="90"/><ellipse cx="285.25" cy="106" fill="#ADD1B2" rx="11" ry="11" style="stroke:#181818;stroke-width:1.0;"/><path d="M288.2188,111.6406 Q287.6406,111.9375 287,112.0781 Q286.3594,112.2344 285.6563,112.2344 Q283.1563,112.2344 281.8281,110.5938 Q280.5156,108.9375 280.5156,105.8125 Q280.5156,102.6875 281.8281,101.0313 Q283.1563,99.375 285.6563,99.375 Q286.3594,99.375 287,99.5313 Q287.6563,99.6875 288.2188,99.9844 L288.2188,102.7031 Q287.5938,102.125 287,101.8594 Q286.4063,101.5781 285.7813,101.5781 Q284.4375,101.5781 283.75,102.6563 Q283.0625,103.7188 283.0625,105.8125 Q283.0625,107.9063 283.75,108.9844 Q284.4375,110.0469 285.7813,110.0469 Q286.4063,110.0469 287,109.7813 Q287.5938,109.5 288.2188,108.9219 L288.2188,111.6406 Z " fill="#000000"/><text fill="#000000" font-family="sans-serif" font-size="14" lengthAdjust="spacing" textLength="141" x="305.75" y="110.8467">DirectionalTextBlock</text><line style="stroke:#181818;stroke-width:0.5;" x1="15" x2="705" y1="122" y2="122"/><line style="stroke:#181818;stroke-width:0.5;" x1="15" x2="705" y1="130" y2="130"/><a href="./../../../../../.././qc/src/net/sourceforge/plantuml/svek/DirectionalTextBlock.java.html#52" target="_top" title="./../../../../../.././qc/src/net/sourceforge/plantuml/svek/DirectionalTextBlock.java.html#52" xlink:actuate="onRequest" xlink:href="./../../../../../.././qc/src/net/sourceforge/plantuml/svek/DirectionalTextBlock.java.html#52" xlink:show="new" xlink:title="./../../../../../.././qc/src/net/sourceforge/plantuml/svek/DirectionalTextBlock.java.html#52" xlink:type="simple"><rect fill="#F1F1F1" height="10" style="stroke:none;stroke-width:1.0;" width="20" x="20" y="138.6484"/><ellipse cx="25" cy="143.6484" fill="#84BE84" rx="3" ry="3" style="stroke:#038048;stroke-width:1.0;"/></a><a href="./../../../../../.././qc/src/net/sourceforge/plantuml/svek/DirectionalTextBlock.java.html#52" target="_top" title="./../../../../../.././qc/src/net/sourceforge/plantuml/svek/DirectionalTextBlock.java.html#52" xlink:actuate="onRequest" xlink:href="./../../../../../.././qc/src/net/sourceforge/plantuml/svek/DirectionalTextBlock.java.html#52" xlink:show="new" xlink:title="./../../../../../.././qc/src/net/sourceforge/plantuml/svek/DirectionalTextBlock.java.html#52" xlink:type="simple"><text fill="#000000" font-family="sans-serif" font-size="14" lengthAdjust="spacing" textLength="666" x="34" y="146.9951">DirectionalTextBlock(GuideLine;TextBlock;TextBlock;TextBlock;TextBlock) : DirectionalTextBlock</text></a><a href="./../../../../../.././qc/src/net/sourceforge/plantuml/svek/DirectionalTextBlock.java.html#60" target="_top" title="./../../../../../.././qc/src/net/sourceforge/plantuml/svek/DirectionalTextBlock.java.html#60" xlink:actuate="onRequest" xlink:href="./../../../../../.././qc/src/net/sourceforge/plantuml/svek/DirectionalTextBlock.java.html#60" xlink:show="new" xlink:title="./../../../../../.././qc/src/net/sourceforge/plantuml/svek/DirectionalTextBlock.java.html#60" xlink:type="simple"><rect fill="#F1F1F1" height="10" style="stroke:none;stroke-width:1.0;" width="20" x="20" y="154.9453"/><ellipse cx="25" cy="159.9453" fill="#84BE84" rx="3" ry="3" style="stroke:#038048;stroke-width:1.0;"/></a><a href="./../../../../../.././qc/src/net/sourceforge/plantuml/svek/DirectionalTextBlock.java.html#60" target="_top" title="./../../../../../.././qc/src/net/sourceforge/plantuml/svek/DirectionalTextBlock.java.html#60" xlink:actuate="onRequest" xlink:href="./../../../../../.././qc/src/net/sourceforge/plantuml/svek/DirectionalTextBlock.java.html#60" xlink:show="new" xlink:title="./../../../../../.././qc/src/net/sourceforge/plantuml/svek/DirectionalTextBlock.java.html#60" xlink:type="simple"><text fill="#000000" font-family="sans-serif" font-size="14" lengthAdjust="spacing" textLength="157" x="34" y="163.292">drawU(UGraphic) : void</text></a><a href="./../../../../../.././qc/src/net/sourceforge/plantuml/svek/DirectionalTextBlock.java.html#80" target="_top" title="./../../../../../.././qc/src/net/sourceforge/plantuml/svek/DirectionalTextBlock.java.html#80" xlink:actuate="onRequest" xlink:href="./../../../../../.././qc/src/net/sourceforge/plantuml/svek/DirectionalTextBlock.java.html#80" xlink:show="new" xlink:title="./../../../../../.././qc/src/net/sourceforge/plantuml/svek/DirectionalTextBlock.java.html#80" xlink:type="simple"><rect fill="#F1F1F1" height="10" style="stroke:none;stroke-width:1.0;" width="20" x="20" y="171.2422"/><ellipse cx="25" cy="176.2422" fill="#84BE84" rx="3" ry="3" style="stroke:#038048;stroke-width:1.0;"/></a><a href="./../../../../../.././qc/src/net/sourceforge/plantuml/svek/DirectionalTextBlock.java.html#80" target="_top" title="./../../../../../.././qc/src/net/sourceforge/plantuml/svek/DirectionalTextBlock.java.html#80" xlink:actuate="onRequest" xlink:href="./../../../../../.././qc/src/net/sourceforge/plantuml/svek/DirectionalTextBlock.java.html#80" xlink:show="new" xlink:title="./../../../../../.././qc/src/net/sourceforge/plantuml/svek/DirectionalTextBlock.java.html#80" xlink:type="simple"><text fill="#000000" font-family="sans-serif" font-size="14" lengthAdjust="spacing" textLength="361" x="34" y="179.5889">calculateDimension(StringBounder) : XDimension2D</text></a></g><path d="M360,54.1089 C360,64.6313 360,77.495 360,89.9394 " fill="none" style="stroke:#181818;stroke-width:1.0;"/><polygon fill="#FFFFFF" points="360,54.1089,354,70.1089,366,70.1089,360,54.1089" style="stroke:#181818;stroke-width:1.0;"/><!--MD5=[51931454ee07fbb870a017aeb0d0e90c]
@startuml
!pragma layout smetana
"TextBlock" <|- - "net.sourceforge.plantuml.svek.DirectionalTextBlock"
class net.sourceforge.plantuml.svek.DirectionalTextBlock {
+DirectionalTextBlock(GuideLine;TextBlock;TextBlock;TextBlock;TextBlock) : DirectionalTextBlock [[[./../../../../../.././qc/src/net/sourceforge/plantuml/svek/DirectionalTextBlock.java.html#52]]]
+drawU(UGraphic) : void [[[./../../../../../.././qc/src/net/sourceforge/plantuml/svek/DirectionalTextBlock.java.html#60]]]
+calculateDimension(StringBounder) : XDimension2D [[[./../../../../../.././qc/src/net/sourceforge/plantuml/svek/DirectionalTextBlock.java.html#80]]]
} 
@enduml

PlantUML version 1.2022.7(Mon Aug 22 17:01:30 UTC 2022)
(GPL source distribution)
Java Runtime: OpenJDK Runtime Environment
JVM: OpenJDK 64-Bit Server VM
Default Encoding: UTF-8
Language: en
Country: null
--></g></svg>