<?xml version="1.0" encoding="UTF-8" standalone="no"?><svg xmlns="http://www.w3.org/2000/svg" xmlns:xlink="http://www.w3.org/1999/xlink" contentStyleType="text/css" height="268px" preserveAspectRatio="none" style="width:297px;height:268px;background:#FFFFFF;" version="1.1" viewBox="0 0 297 268" width="297px" zoomAndPan="magnify"><defs/><g><!--MD5=[aa8f7b917213fcc1c2766e2d59b49067]
cluster java.lang--><g id="cluster_java.lang"><path d="M103.5,6 L173.5,6 A3.75,3.75 0 0 1 176,8.5 L183,28.2969 L192.5,28.2969 A2.5,2.5 0 0 1 195,30.7969 L195,86.5 A2.5,2.5 0 0 1 192.5,89 L103.5,89 A2.5,2.5 0 0 1 101,86.5 L101,8.5 A2.5,2.5 0 0 1 103.5,6 " fill="none" style="stroke:#000000;stroke-width:1.5;"/><line style="stroke:#000000;stroke-width:1.5;" x1="101" x2="183" y1="28.2969" y2="28.2969"/><text fill="#000000" font-family="sans-serif" font-size="14" font-weight="bold" lengthAdjust="spacing" textLength="69" x="105" y="20.9951">java.lang</text></g><!--MD5=[36c8011b3515497ad3141e904da87df8]
cluster net.sourceforge.plantuml.svek--><g id="cluster_net.sourceforge.plantuml.svek"><path d="M8.5,97 L252.5,97 A3.75,3.75 0 0 1 255,99.5 L262,119.2969 L287.5,119.2969 A2.5,2.5 0 0 1 290,121.7969 L290,258.5 A2.5,2.5 0 0 1 287.5,261 L8.5,261 A2.5,2.5 0 0 1 6,258.5 L6,99.5 A2.5,2.5 0 0 1 8.5,97 " fill="none" style="stroke:#000000;stroke-width:1.5;"/><line style="stroke:#000000;stroke-width:1.5;" x1="6" x2="262" y1="119.2969" y2="119.2969"/><text fill="#000000" font-family="sans-serif" font-size="14" font-weight="bold" lengthAdjust="spacing" textLength="243" x="10" y="111.9951">net.sourceforge.plantuml.svek</text></g><!--MD5=[274ad5661286b626a93603d287cbf95a]
class java.lang.Object--><g id="elem_java.lang.Object"><rect fill="#F1F1F1" height="48" id="java.lang.Object" rx="2.5" ry="2.5" style="stroke:#181818;stroke-width:0.5;" width="77" x="109.5" y="33"/><ellipse cx="124.5" cy="49" fill="#ADD1B2" rx="11" ry="11" style="stroke:#181818;stroke-width:1.0;"/><path d="M127.4688,54.6406 Q126.8906,54.9375 126.25,55.0781 Q125.6094,55.2344 124.9063,55.2344 Q122.4063,55.2344 121.0781,53.5938 Q119.7656,51.9375 119.7656,48.8125 Q119.7656,45.6875 121.0781,44.0313 Q122.4063,42.375 124.9063,42.375 Q125.6094,42.375 126.25,42.5313 Q126.9063,42.6875 127.4688,42.9844 L127.4688,45.7031 Q126.8438,45.125 126.25,44.8594 Q125.6563,44.5781 125.0313,44.5781 Q123.6875,44.5781 123,45.6563 Q122.3125,46.7188 122.3125,48.8125 Q122.3125,50.9063 123,51.9844 Q123.6875,53.0469 125.0313,53.0469 Q125.6563,53.0469 126.25,52.7813 Q126.8438,52.5 127.4688,51.9219 L127.4688,54.6406 Z " fill="#000000"/><text fill="#000000" font-family="sans-serif" font-size="14" lengthAdjust="spacing" textLength="45" x="138.5" y="53.8467">Object</text><line style="stroke:#181818;stroke-width:0.5;" x1="110.5" x2="185.5" y1="65" y2="65"/><line style="stroke:#181818;stroke-width:0.5;" x1="110.5" x2="185.5" y1="73" y2="73"/></g><!--MD5=[9577142c3c9968ee142fa2e658dac671]
class net.sourceforge.plantuml.svek.LineOfSegments--><g id="elem_net.sourceforge.plantuml.svek.LineOfSegments"><rect codeLine="3" fill="#F1F1F1" height="129.4844" id="net.sourceforge.plantuml.svek.LineOfSegments" rx="2.5" ry="2.5" style="stroke:#181818;stroke-width:0.5;" width="267" x="14.5" y="124"/><ellipse cx="86.75" cy="140" fill="#ADD1B2" rx="11" ry="11" style="stroke:#181818;stroke-width:1.0;"/><path d="M89.7188,145.6406 Q89.1406,145.9375 88.5,146.0781 Q87.8594,146.2344 87.1563,146.2344 Q84.6563,146.2344 83.3281,144.5938 Q82.0156,142.9375 82.0156,139.8125 Q82.0156,136.6875 83.3281,135.0313 Q84.6563,133.375 87.1563,133.375 Q87.8594,133.375 88.5,133.5313 Q89.1563,133.6875 89.7188,133.9844 L89.7188,136.7031 Q89.0938,136.125 88.5,135.8594 Q87.9063,135.5781 87.2813,135.5781 Q85.9375,135.5781 85.25,136.6563 Q84.5625,137.7188 84.5625,139.8125 Q84.5625,141.9063 85.25,142.9844 Q85.9375,144.0469 87.2813,144.0469 Q87.9063,144.0469 88.5,143.7813 Q89.0938,143.5 89.7188,142.9219 L89.7188,145.6406 Z " fill="#000000"/><text fill="#000000" font-family="sans-serif" font-size="14" lengthAdjust="spacing" textLength="114" x="107.25" y="144.8467">LineOfSegments</text><line style="stroke:#181818;stroke-width:0.5;" x1="15.5" x2="280.5" y1="156" y2="156"/><line style="stroke:#181818;stroke-width:0.5;" x1="15.5" x2="280.5" y1="164" y2="164"/><a href="./../../../../../.././qc/src/net/sourceforge/plantuml/svek/LineOfSegments.java.html#77" target="_top" title="./../../../../../.././qc/src/net/sourceforge/plantuml/svek/LineOfSegments.java.html#77" xlink:actuate="onRequest" xlink:href="./../../../../../.././qc/src/net/sourceforge/plantuml/svek/LineOfSegments.java.html#77" xlink:show="new" xlink:title="./../../../../../.././qc/src/net/sourceforge/plantuml/svek/LineOfSegments.java.html#77" xlink:type="simple"><rect fill="#F1F1F1" height="10" style="stroke:none;stroke-width:1.0;" width="20" x="20.5" y="172.6484"/><ellipse cx="25.5" cy="177.6484" fill="#84BE84" rx="3" ry="3" style="stroke:#038048;stroke-width:1.0;"/></a><a href="./../../../../../.././qc/src/net/sourceforge/plantuml/svek/LineOfSegments.java.html#77" target="_top" title="./../../../../../.././qc/src/net/sourceforge/plantuml/svek/LineOfSegments.java.html#77" xlink:actuate="onRequest" xlink:href="./../../../../../.././qc/src/net/sourceforge/plantuml/svek/LineOfSegments.java.html#77" xlink:show="new" xlink:title="./../../../../../.././qc/src/net/sourceforge/plantuml/svek/LineOfSegments.java.html#77" xlink:type="simple"><text fill="#000000" font-family="sans-serif" font-size="14" lengthAdjust="spacing" textLength="241" x="34.5" y="180.9951">addSegment(double;double) : void</text></a><a href="./../../../../../.././qc/src/net/sourceforge/plantuml/svek/LineOfSegments.java.html#81" target="_top" title="./../../../../../.././qc/src/net/sourceforge/plantuml/svek/LineOfSegments.java.html#81" xlink:actuate="onRequest" xlink:href="./../../../../../.././qc/src/net/sourceforge/plantuml/svek/LineOfSegments.java.html#81" xlink:show="new" xlink:title="./../../../../../.././qc/src/net/sourceforge/plantuml/svek/LineOfSegments.java.html#81" xlink:type="simple"><rect fill="#F1F1F1" height="10" style="stroke:none;stroke-width:1.0;" width="20" x="20.5" y="188.9453"/><ellipse cx="25.5" cy="193.9453" fill="#84BE84" rx="3" ry="3" style="stroke:#038048;stroke-width:1.0;"/></a><a href="./../../../../../.././qc/src/net/sourceforge/plantuml/svek/LineOfSegments.java.html#81" target="_top" title="./../../../../../.././qc/src/net/sourceforge/plantuml/svek/LineOfSegments.java.html#81" xlink:actuate="onRequest" xlink:href="./../../../../../.././qc/src/net/sourceforge/plantuml/svek/LineOfSegments.java.html#81" xlink:show="new" xlink:title="./../../../../../.././qc/src/net/sourceforge/plantuml/svek/LineOfSegments.java.html#81" xlink:type="simple"><text fill="#000000" font-family="sans-serif" font-size="14" lengthAdjust="spacing" textLength="132" x="34.5" y="197.292">getMean() : double</text></a><a href="./../../../../../.././qc/src/net/sourceforge/plantuml/svek/LineOfSegments.java.html#89" target="_top" title="./../../../../../.././qc/src/net/sourceforge/plantuml/svek/LineOfSegments.java.html#89" xlink:actuate="onRequest" xlink:href="./../../../../../.././qc/src/net/sourceforge/plantuml/svek/LineOfSegments.java.html#89" xlink:show="new" xlink:title="./../../../../../.././qc/src/net/sourceforge/plantuml/svek/LineOfSegments.java.html#89" xlink:type="simple"><text fill="#000000" font-family="sans-serif" font-size="14" lengthAdjust="spacing" textLength="198" x="34.5" y="213.5889">solveOverlapsInternal() : void</text></a><a href="./../../../../../.././qc/src/net/sourceforge/plantuml/svek/LineOfSegments.java.html#98" target="_top" title="./../../../../../.././qc/src/net/sourceforge/plantuml/svek/LineOfSegments.java.html#98" xlink:actuate="onRequest" xlink:href="./../../../../../.././qc/src/net/sourceforge/plantuml/svek/LineOfSegments.java.html#98" xlink:show="new" xlink:title="./../../../../../.././qc/src/net/sourceforge/plantuml/svek/LineOfSegments.java.html#98" xlink:type="simple"><rect fill="#F1F1F1" height="10" style="stroke:none;stroke-width:1.0;" width="20" x="20.5" y="221.5391"/><rect fill="#F24D5C" height="6" style="stroke:#C82930;stroke-width:1.0;" width="6" x="22.5" y="223.5391"/></a><a href="./../../../../../.././qc/src/net/sourceforge/plantuml/svek/LineOfSegments.java.html#98" target="_top" title="./../../../../../.././qc/src/net/sourceforge/plantuml/svek/LineOfSegments.java.html#98" xlink:actuate="onRequest" xlink:href="./../../../../../.././qc/src/net/sourceforge/plantuml/svek/LineOfSegments.java.html#98" xlink:show="new" xlink:title="./../../../../../.././qc/src/net/sourceforge/plantuml/svek/LineOfSegments.java.html#98" xlink:type="simple"><text fill="#000000" font-family="sans-serif" font-size="14" lengthAdjust="spacing" textLength="140" x="34.5" y="229.8857">oneLoop() : boolean</text></a><a href="./../../../../../.././qc/src/net/sourceforge/plantuml/svek/LineOfSegments.java.html#113" target="_top" title="./../../../../../.././qc/src/net/sourceforge/plantuml/svek/LineOfSegments.java.html#113" xlink:actuate="onRequest" xlink:href="./../../../../../.././qc/src/net/sourceforge/plantuml/svek/LineOfSegments.java.html#113" xlink:show="new" xlink:title="./../../../../../.././qc/src/net/sourceforge/plantuml/svek/LineOfSegments.java.html#113" xlink:type="simple"><rect fill="#F1F1F1" height="10" style="stroke:none;stroke-width:1.0;" width="20" x="20.5" y="237.8359"/><ellipse cx="25.5" cy="242.8359" fill="#84BE84" rx="3" ry="3" style="stroke:#038048;stroke-width:1.0;"/></a><a href="./../../../../../.././qc/src/net/sourceforge/plantuml/svek/LineOfSegments.java.html#113" target="_top" title="./../../../../../.././qc/src/net/sourceforge/plantuml/svek/LineOfSegments.java.html#113" xlink:actuate="onRequest" xlink:href="./../../../../../.././qc/src/net/sourceforge/plantuml/svek/LineOfSegments.java.html#113" xlink:show="new" xlink:title="./../../../../../.././qc/src/net/sourceforge/plantuml/svek/LineOfSegments.java.html#113" xlink:type="simple"><text fill="#000000" font-family="sans-serif" font-size="14" lengthAdjust="spacing" textLength="177" x="34.5" y="246.1826">solveOverlaps() : double[]</text></a></g><path d="M148,81.152 C148,93.2288 148,108.6536 148,123.9859 " fill="none" style="stroke:#181818;stroke-width:1.0;"/><polygon fill="#FFFFFF" points="148,81.152,142,97.152,154,97.152,148,81.152" style="stroke:#181818;stroke-width:1.0;"/><!--MD5=[819be4afa1236a48428cdb661c2ee098]
@startuml
!pragma layout smetana
"java.lang.Object" <|- - "net.sourceforge.plantuml.svek.LineOfSegments"
class net.sourceforge.plantuml.svek.LineOfSegments {
+addSegment(double;double) : void [[[./../../../../../.././qc/src/net/sourceforge/plantuml/svek/LineOfSegments.java.html#77]]]
+getMean() : double [[[./../../../../../.././qc/src/net/sourceforge/plantuml/svek/LineOfSegments.java.html#81]]]
solveOverlapsInternal() : void [[[./../../../../../.././qc/src/net/sourceforge/plantuml/svek/LineOfSegments.java.html#89]]]
-oneLoop() : boolean [[[./../../../../../.././qc/src/net/sourceforge/plantuml/svek/LineOfSegments.java.html#98]]]
+solveOverlaps() : double[] [[[./../../../../../.././qc/src/net/sourceforge/plantuml/svek/LineOfSegments.java.html#113]]]
} 
@enduml

PlantUML version 1.2022.7(Mon Aug 22 17:01:30 UTC 2022)
(GPL source distribution)
Java Runtime: OpenJDK Runtime Environment
JVM: OpenJDK 64-Bit Server VM
Default Encoding: UTF-8
Language: en
Country: null
--></g></svg>