<?xml version="1.0" encoding="UTF-8" standalone="no"?><svg xmlns="http://www.w3.org/2000/svg" xmlns:xlink="http://www.w3.org/1999/xlink" contentStyleType="text/css" height="1573px" preserveAspectRatio="none" style="width:640px;height:1573px;background:#FFFFFF;" version="1.1" viewBox="0 0 640 1573" width="640px" zoomAndPan="magnify"><defs/><g><path d="M289.5,10 L289.5,18.5664 L269.5,22.5664 L289.5,26.5664 L289.5,35.1328 A0,0 0 0 0 289.5,35.1328 L599.5,35.1328 A0,0 0 0 0 599.5,35.1328 L599.5,20 L589.5,10 L289.5,10 A0,0 0 0 0 289.5,10 " fill="#FEFFDD" style="stroke:#181818;stroke-width:0.5;"/><path d="M589.5,10 L589.5,20 L599.5,20 L589.5,10 " fill="#FEFFDD" style="stroke:#181818;stroke-width:0.5;"/><text fill="#000000" font-family="sans-serif" font-size="13" lengthAdjust="spacing" textLength="289" x="295.5" y="27.0669">StringencodePortNameToId(StringportName)</text><ellipse cx="259.5" cy="22.5664" fill="#222222" rx="10" ry="10" style="stroke:#222222;stroke-width:1.0;"/><rect fill="#F1F1F1" height="33.9688" rx="12.5" ry="12.5" style="stroke:#181818;stroke-width:0.5;" width="330" x="94.5" y="55.1328"/><text fill="#000000" font-family="sans-serif" font-size="12" lengthAdjust="spacing" textLength="310" x="104.5" y="76.2715">return "p"+SignatureUtils.getMD5Hex(portName);</text><ellipse cx="259.5" cy="120.1016" fill="none" rx="11" ry="11" style="stroke:#222222;stroke-width:1.0;"/><ellipse cx="259.5" cy="120.1016" fill="#222222" rx="6" ry="6" style="stroke:#111111;stroke-width:1.0;"/><ellipse cx="259.5" cy="151.1016" fill="none" rx="10" ry="10" style="stroke:#222222;stroke-width:1.5;"/><line style="stroke:#222222;stroke-width:2.5;" x1="253.3128" x2="265.6872" y1="144.9144" y2="157.2887"/><line style="stroke:#222222;stroke-width:2.5;" x1="265.6872" x2="253.3128" y1="144.9144" y2="157.2887"/><path d="M289.5,171.1016 L289.5,179.668 L269.5,183.668 L289.5,187.668 L289.5,196.2344 A0,0 0 0 0 289.5,196.2344 L409.5,196.2344 A0,0 0 0 0 409.5,196.2344 L409.5,181.1016 L399.5,171.1016 L289.5,171.1016 A0,0 0 0 0 289.5,171.1016 " fill="#FEFFDD" style="stroke:#181818;stroke-width:0.5;"/><path d="M399.5,171.1016 L399.5,181.1016 L409.5,181.1016 L399.5,171.1016 " fill="#FEFFDD" style="stroke:#181818;stroke-width:0.5;"/><text fill="#000000" font-family="sans-serif" font-size="13" lengthAdjust="spacing" textLength="99" x="295.5" y="188.1685">StringtoString()</text><ellipse cx="259.5" cy="183.668" fill="#222222" rx="10" ry="10" style="stroke:#222222;stroke-width:1.0;"/><rect fill="#F1F1F1" height="33.9688" rx="12.5" ry="12.5" style="stroke:#181818;stroke-width:0.5;" width="149" x="185" y="216.2344"/><text fill="#000000" font-family="sans-serif" font-size="12" lengthAdjust="spacing" textLength="129" x="195" y="237.373">return ids.toString();</text><ellipse cx="259.5" cy="281.2031" fill="none" rx="11" ry="11" style="stroke:#222222;stroke-width:1.0;"/><ellipse cx="259.5" cy="281.2031" fill="#222222" rx="6" ry="6" style="stroke:#111111;stroke-width:1.0;"/><ellipse cx="259.5" cy="312.2031" fill="none" rx="10" ry="10" style="stroke:#222222;stroke-width:1.5;"/><line style="stroke:#222222;stroke-width:2.5;" x1="253.3128" x2="265.6872" y1="306.0159" y2="318.3903"/><line style="stroke:#222222;stroke-width:2.5;" x1="265.6872" x2="253.3128" y1="306.0159" y2="318.3903"/><path d="M289.5,332.2031 L289.5,340.7695 L269.5,344.7695 L289.5,348.7695 L289.5,357.3359 A0,0 0 0 0 289.5,357.3359 L499.5,357.3359 A0,0 0 0 0 499.5,357.3359 L499.5,342.2031 L489.5,332.2031 L289.5,332.2031 A0,0 0 0 0 289.5,332.2031 " fill="#FEFFDD" style="stroke:#181818;stroke-width:0.5;"/><path d="M489.5,332.2031 L489.5,342.2031 L499.5,342.2031 L489.5,332.2031 " fill="#FEFFDD" style="stroke:#181818;stroke-width:0.5;"/><text fill="#000000" font-family="sans-serif" font-size="13" lengthAdjust="spacing" textLength="189" x="295.5" y="349.27">PortstranslateY(doubledeltaY)</text><ellipse cx="259.5" cy="344.7695" fill="#222222" rx="10" ry="10" style="stroke:#222222;stroke-width:1.0;"/><rect fill="#F1F1F1" height="33.9688" rx="12.5" ry="12.5" style="stroke:#181818;stroke-width:0.5;" width="205" x="157" y="377.3359"/><text fill="#000000" font-family="sans-serif" font-size="12" lengthAdjust="spacing" textLength="185" x="167" y="398.4746">final Portsresult=new Ports();</text><rect fill="#F1F1F1" height="47.9375" rx="12.5" ry="12.5" style="stroke:#181818;stroke-width:0.5;" width="280" x="119.5" y="431.3047"/><text fill="#000000" font-family="sans-serif" font-size="12" lengthAdjust="spacing" textLength="260" x="129.5" y="452.4434">result.ids.put(ent.getKey(),ent.getValue()</text><text fill="#000000" font-family="sans-serif" font-size="12" lengthAdjust="spacing" textLength="126" x="129.5" y="466.4121">.translateY(deltaY));</text><rect fill="#F1F1F1" height="33.9688" rx="12.5" ry="12.5" style="stroke:#181818;stroke-width:0.5;" width="103" x="208" y="499.2422"/><text fill="#000000" font-family="sans-serif" font-size="12" lengthAdjust="spacing" textLength="83" x="218" y="520.3809">return result;</text><ellipse cx="259.5" cy="564.2109" fill="none" rx="11" ry="11" style="stroke:#222222;stroke-width:1.0;"/><ellipse cx="259.5" cy="564.2109" fill="#222222" rx="6" ry="6" style="stroke:#111111;stroke-width:1.0;"/><ellipse cx="259.5" cy="595.2109" fill="none" rx="10" ry="10" style="stroke:#222222;stroke-width:1.5;"/><line style="stroke:#222222;stroke-width:2.5;" x1="253.3128" x2="265.6872" y1="589.0238" y2="601.3981"/><line style="stroke:#222222;stroke-width:2.5;" x1="265.6872" x2="253.3128" y1="589.0238" y2="601.3981"/><path d="M289.5,615.2109 L289.5,631.3438 L269.5,635.3438 L289.5,639.3438 L289.5,655.4766 A0,0 0 0 0 289.5,655.4766 L628.5,655.4766 A0,0 0 0 0 628.5,655.4766 L628.5,625.2109 L618.5,615.2109 L289.5,615.2109 A0,0 0 0 0 289.5,615.2109 " fill="#FEFFDD" style="stroke:#181818;stroke-width:0.5;"/><path d="M618.5,615.2109 L618.5,625.2109 L628.5,625.2109 L618.5,615.2109 " fill="#FEFFDD" style="stroke:#181818;stroke-width:0.5;"/><text fill="#000000" font-family="sans-serif" font-size="13" lengthAdjust="spacing" textLength="318" x="295.5" y="632.2778">void add(StringportName,intscore,doubleposition,</text><text fill="#000000" font-family="sans-serif" font-size="13" lengthAdjust="spacing" textLength="88" x="295.5" y="647.4106">doubleheight)</text><ellipse cx="259.5" cy="635.3438" fill="#222222" rx="10" ry="10" style="stroke:#222222;stroke-width:1.0;"/><rect fill="#F1F1F1" height="33.9688" rx="12.5" ry="12.5" style="stroke:#181818;stroke-width:0.5;" width="473" x="23" y="675.4766"/><text fill="#000000" font-family="sans-serif" font-size="12" lengthAdjust="spacing" textLength="453" x="33" y="696.6152">final Stringid=encodePortNameToId(Objects.requireNonNull(portName));</text><rect fill="#F1F1F1" height="33.9688" rx="12.5" ry="12.5" style="stroke:#181818;stroke-width:0.5;" width="260" x="129.5" y="729.4453"/><text fill="#000000" font-family="sans-serif" font-size="12" lengthAdjust="spacing" textLength="240" x="139.5" y="750.584">final PortGeometryalready=ids.get(id);</text><rect fill="#F1F1F1" height="47.9375" rx="12.5" ry="12.5" style="stroke:#181818;stroke-width:0.5;" width="272" x="123.5" y="831.8164"/><text fill="#000000" font-family="sans-serif" font-size="12" lengthAdjust="spacing" textLength="252" x="133.5" y="852.9551">ids.put(id,new PortGeometry(id,position,</text><text fill="#000000" font-family="sans-serif" font-size="12" lengthAdjust="spacing" textLength="93" x="133.5" y="866.9238">height,score));</text><polygon fill="#F1F1F1" points="140.5,783.4141,378.5,783.4141,390.5,795.4141,378.5,807.4141,140.5,807.4141,128.5,795.4141,140.5,783.4141" style="stroke:#181818;stroke-width:0.5;"/><text fill="#000000" font-family="sans-serif" font-size="11" lengthAdjust="spacing" textLength="20" x="263.5" y="817.6245">yes</text><text fill="#000000" font-family="sans-serif" font-size="11" lengthAdjust="spacing" textLength="238" x="140.5" y="799.2222">already==null ||already.getScore()&lt;score</text><polygon fill="#F1F1F1" points="259.5,899.7539,271.5,911.7539,259.5,923.7539,247.5,911.7539,259.5,899.7539" style="stroke:#181818;stroke-width:0.5;"/><ellipse cx="259.5" cy="953.7539" fill="none" rx="10" ry="10" style="stroke:#222222;stroke-width:1.5;"/><line style="stroke:#222222;stroke-width:2.5;" x1="253.3128" x2="265.6872" y1="947.5667" y2="959.9411"/><line style="stroke:#222222;stroke-width:2.5;" x1="265.6872" x2="253.3128" y1="947.5667" y2="959.9411"/><path d="M289.5,973.7539 L289.5,982.3203 L269.5,986.3203 L289.5,990.3203 L289.5,998.8867 A0,0 0 0 0 289.5,998.8867 L466.5,998.8867 A0,0 0 0 0 466.5,998.8867 L466.5,983.7539 L456.5,973.7539 L289.5,973.7539 A0,0 0 0 0 289.5,973.7539 " fill="#FEFFDD" style="stroke:#181818;stroke-width:0.5;"/><path d="M456.5,973.7539 L456.5,983.7539 L466.5,983.7539 L456.5,973.7539 " fill="#FEFFDD" style="stroke:#181818;stroke-width:0.5;"/><text fill="#000000" font-family="sans-serif" font-size="13" lengthAdjust="spacing" textLength="156" x="295.5" y="990.8208">void addThis(Portsother)</text><ellipse cx="259.5" cy="986.3203" fill="#222222" rx="10" ry="10" style="stroke:#222222;stroke-width:1.0;"/><rect fill="#F1F1F1" height="33.9688" rx="12.5" ry="12.5" style="stroke:#181818;stroke-width:0.5;" width="199" x="160" y="1018.8867"/><text fill="#000000" font-family="sans-serif" font-size="12" lengthAdjust="spacing" textLength="179" x="170" y="1040.0254">final Stringkey=ent.getKey();</text><rect fill="#F1F1F1" height="33.9688" rx="12.5" ry="12.5" style="stroke:#181818;stroke-width:0.5;" width="270" x="124.5" y="1072.8555"/><text fill="#000000" font-family="sans-serif" font-size="12" lengthAdjust="spacing" textLength="250" x="134.5" y="1093.9941">final PortGeometryalready=ids.get(key);</text><rect fill="#F1F1F1" height="33.9688" rx="12.5" ry="12.5" style="stroke:#181818;stroke-width:0.5;" width="193" x="163" y="1175.2266"/><text fill="#000000" font-family="sans-serif" font-size="12" lengthAdjust="spacing" textLength="173" x="173" y="1196.3652">ids.put(key,ent.getValue());</text><polygon fill="#F1F1F1" points="85.5,1126.8242,433.5,1126.8242,445.5,1138.8242,433.5,1150.8242,85.5,1150.8242,73.5,1138.8242,85.5,1126.8242" style="stroke:#181818;stroke-width:0.5;"/><text fill="#000000" font-family="sans-serif" font-size="11" lengthAdjust="spacing" textLength="20" x="263.5" y="1161.0347">yes</text><text fill="#000000" font-family="sans-serif" font-size="11" lengthAdjust="spacing" textLength="348" x="85.5" y="1142.6323">already==null ||already.getScore()&lt;ent.getValue().getScore()</text><polygon fill="#F1F1F1" points="259.5,1229.1953,271.5,1241.1953,259.5,1253.1953,247.5,1241.1953,259.5,1229.1953" style="stroke:#181818;stroke-width:0.5;"/><ellipse cx="259.5" cy="1283.1953" fill="none" rx="10" ry="10" style="stroke:#222222;stroke-width:1.5;"/><line style="stroke:#222222;stroke-width:2.5;" x1="253.3128" x2="265.6872" y1="1277.0081" y2="1289.3825"/><line style="stroke:#222222;stroke-width:2.5;" x1="265.6872" x2="253.3128" y1="1277.0081" y2="1289.3825"/><path d="M289.5,1303.1953 L289.5,1311.7617 L269.5,1315.7617 L289.5,1319.7617 L289.5,1328.3281 A0,0 0 0 0 289.5,1328.3281 L620.5,1328.3281 A0,0 0 0 0 620.5,1328.3281 L620.5,1313.1953 L610.5,1303.1953 L289.5,1303.1953 A0,0 0 0 0 289.5,1303.1953 " fill="#FEFFDD" style="stroke:#181818;stroke-width:0.5;"/><path d="M610.5,1303.1953 L610.5,1313.1953 L620.5,1313.1953 L610.5,1303.1953 " fill="#FEFFDD" style="stroke:#181818;stroke-width:0.5;"/><text fill="#000000" font-family="sans-serif" font-size="13" lengthAdjust="spacing" textLength="310" x="295.5" y="1320.2622">Collection&lt;PortGeometry&gt;getAllPortGeometry()</text><ellipse cx="259.5" cy="1315.7617" fill="#222222" rx="10" ry="10" style="stroke:#222222;stroke-width:1.0;"/><rect fill="#F1F1F1" height="33.9688" rx="12.5" ry="12.5" style="stroke:#181818;stroke-width:0.5;" width="497" x="11" y="1348.3281"/><text fill="#000000" font-family="sans-serif" font-size="12" lengthAdjust="spacing" textLength="477" x="21" y="1369.4668">final List&lt;PortGeometry&gt;result=new ArrayList&lt;PortGeometry&gt;(ids.values());</text><rect fill="#F1F1F1" height="33.9688" rx="12.5" ry="12.5" style="stroke:#181818;stroke-width:0.5;" width="167" x="176" y="1402.2969"/><text fill="#000000" font-family="sans-serif" font-size="12" lengthAdjust="spacing" textLength="147" x="186" y="1423.4355">Collections.sort(result);</text><rect fill="#F1F1F1" height="33.9688" rx="12.5" ry="12.5" style="stroke:#181818;stroke-width:0.5;" width="326" x="96.5" y="1456.2656"/><text fill="#000000" font-family="sans-serif" font-size="12" lengthAdjust="spacing" textLength="306" x="106.5" y="1477.4043">return Collections.unmodifiableCollection(result);</text><ellipse cx="259.5" cy="1521.2344" fill="none" rx="11" ry="11" style="stroke:#222222;stroke-width:1.0;"/><ellipse cx="259.5" cy="1521.2344" fill="#222222" rx="6" ry="6" style="stroke:#111111;stroke-width:1.0;"/><ellipse cx="259.5" cy="1552.2344" fill="none" rx="10" ry="10" style="stroke:#222222;stroke-width:1.5;"/><line style="stroke:#222222;stroke-width:2.5;" x1="253.3128" x2="265.6872" y1="1546.0472" y2="1558.4216"/><line style="stroke:#222222;stroke-width:2.5;" x1="265.6872" x2="253.3128" y1="1546.0472" y2="1558.4216"/><line style="stroke:#181818;stroke-width:1.0;" x1="259.5" x2="259.5" y1="32.5664" y2="55.1328"/><polygon fill="#181818" points="255.5,45.1328,259.5,55.1328,263.5,45.1328,259.5,49.1328" style="stroke:#181818;stroke-width:1.0;"/><line style="stroke:#181818;stroke-width:1.0;" x1="259.5" x2="259.5" y1="89.1016" y2="109.1016"/><polygon fill="#181818" points="255.5,99.1016,259.5,109.1016,263.5,99.1016,259.5,103.1016" style="stroke:#181818;stroke-width:1.0;"/><line style="stroke:#181818;stroke-width:1.0;" x1="259.5" x2="259.5" y1="193.668" y2="216.2344"/><polygon fill="#181818" points="255.5,206.2344,259.5,216.2344,263.5,206.2344,259.5,210.2344" style="stroke:#181818;stroke-width:1.0;"/><line style="stroke:#181818;stroke-width:1.0;" x1="259.5" x2="259.5" y1="250.2031" y2="270.2031"/><polygon fill="#181818" points="255.5,260.2031,259.5,270.2031,263.5,260.2031,259.5,264.2031" style="stroke:#181818;stroke-width:1.0;"/><line style="stroke:#181818;stroke-width:1.0;" x1="259.5" x2="259.5" y1="354.7695" y2="377.3359"/><polygon fill="#181818" points="255.5,367.3359,259.5,377.3359,263.5,367.3359,259.5,371.3359" style="stroke:#181818;stroke-width:1.0;"/><line style="stroke:#181818;stroke-width:1.0;" x1="259.5" x2="259.5" y1="411.3047" y2="431.3047"/><polygon fill="#181818" points="255.5,421.3047,259.5,431.3047,263.5,421.3047,259.5,425.3047" style="stroke:#181818;stroke-width:1.0;"/><line style="stroke:#181818;stroke-width:1.0;" x1="259.5" x2="259.5" y1="479.2422" y2="499.2422"/><polygon fill="#181818" points="255.5,489.2422,259.5,499.2422,263.5,489.2422,259.5,493.2422" style="stroke:#181818;stroke-width:1.0;"/><line style="stroke:#181818;stroke-width:1.0;" x1="259.5" x2="259.5" y1="533.2109" y2="553.2109"/><polygon fill="#181818" points="255.5,543.2109,259.5,553.2109,263.5,543.2109,259.5,547.2109" style="stroke:#181818;stroke-width:1.0;"/><line style="stroke:#181818;stroke-width:1.0;" x1="259.5" x2="259.5" y1="645.3438" y2="675.4766"/><polygon fill="#181818" points="255.5,665.4766,259.5,675.4766,263.5,665.4766,259.5,669.4766" style="stroke:#181818;stroke-width:1.0;"/><line style="stroke:#181818;stroke-width:1.0;" x1="259.5" x2="259.5" y1="709.4453" y2="729.4453"/><polygon fill="#181818" points="255.5,719.4453,259.5,729.4453,263.5,719.4453,259.5,723.4453" style="stroke:#181818;stroke-width:1.0;"/><line style="stroke:#181818;stroke-width:1.0;" x1="259.5" x2="259.5" y1="807.4141" y2="831.8164"/><polygon fill="#181818" points="255.5,821.8164,259.5,831.8164,263.5,821.8164,259.5,825.8164" style="stroke:#181818;stroke-width:1.0;"/><line style="stroke:#181818;stroke-width:1.0;" x1="390.5" x2="405.5" y1="795.4141" y2="795.4141"/><polygon fill="#181818" points="401.5,845.7852,405.5,855.7852,409.5,845.7852,405.5,849.7852" style="stroke:#181818;stroke-width:1.0;"/><line style="stroke:#181818;stroke-width:1.0;" x1="405.5" x2="405.5" y1="795.4141" y2="911.7539"/><line style="stroke:#181818;stroke-width:1.0;" x1="405.5" x2="271.5" y1="911.7539" y2="911.7539"/><polygon fill="#181818" points="281.5,907.7539,271.5,911.7539,281.5,915.7539,277.5,911.7539" style="stroke:#181818;stroke-width:1.0;"/><line style="stroke:#181818;stroke-width:1.0;" x1="259.5" x2="259.5" y1="879.7539" y2="899.7539"/><polygon fill="#181818" points="255.5,889.7539,259.5,899.7539,263.5,889.7539,259.5,893.7539" style="stroke:#181818;stroke-width:1.0;"/><line style="stroke:#181818;stroke-width:1.0;" x1="259.5" x2="259.5" y1="763.4141" y2="783.4141"/><polygon fill="#181818" points="255.5,773.4141,259.5,783.4141,263.5,773.4141,259.5,777.4141" style="stroke:#181818;stroke-width:1.0;"/><line style="stroke:#181818;stroke-width:1.0;" x1="259.5" x2="259.5" y1="923.7539" y2="943.7539"/><polygon fill="#181818" points="255.5,933.7539,259.5,943.7539,263.5,933.7539,259.5,937.7539" style="stroke:#181818;stroke-width:1.0;"/><line style="stroke:#181818;stroke-width:1.0;" x1="259.5" x2="259.5" y1="996.3203" y2="1018.8867"/><polygon fill="#181818" points="255.5,1008.8867,259.5,1018.8867,263.5,1008.8867,259.5,1012.8867" style="stroke:#181818;stroke-width:1.0;"/><line style="stroke:#181818;stroke-width:1.0;" x1="259.5" x2="259.5" y1="1052.8555" y2="1072.8555"/><polygon fill="#181818" points="255.5,1062.8555,259.5,1072.8555,263.5,1062.8555,259.5,1066.8555" style="stroke:#181818;stroke-width:1.0;"/><line style="stroke:#181818;stroke-width:1.0;" x1="259.5" x2="259.5" y1="1150.8242" y2="1175.2266"/><polygon fill="#181818" points="255.5,1165.2266,259.5,1175.2266,263.5,1165.2266,259.5,1169.2266" style="stroke:#181818;stroke-width:1.0;"/><line style="stroke:#181818;stroke-width:1.0;" x1="445.5" x2="457.5" y1="1138.8242" y2="1138.8242"/><polygon fill="#181818" points="453.5,1182.2109,457.5,1192.2109,461.5,1182.2109,457.5,1186.2109" style="stroke:#181818;stroke-width:1.0;"/><line style="stroke:#181818;stroke-width:1.0;" x1="457.5" x2="457.5" y1="1138.8242" y2="1241.1953"/><line style="stroke:#181818;stroke-width:1.0;" x1="457.5" x2="271.5" y1="1241.1953" y2="1241.1953"/><polygon fill="#181818" points="281.5,1237.1953,271.5,1241.1953,281.5,1245.1953,277.5,1241.1953" style="stroke:#181818;stroke-width:1.0;"/><line style="stroke:#181818;stroke-width:1.0;" x1="259.5" x2="259.5" y1="1209.1953" y2="1229.1953"/><polygon fill="#181818" points="255.5,1219.1953,259.5,1229.1953,263.5,1219.1953,259.5,1223.1953" style="stroke:#181818;stroke-width:1.0;"/><line style="stroke:#181818;stroke-width:1.0;" x1="259.5" x2="259.5" y1="1106.8242" y2="1126.8242"/><polygon fill="#181818" points="255.5,1116.8242,259.5,1126.8242,263.5,1116.8242,259.5,1120.8242" style="stroke:#181818;stroke-width:1.0;"/><line style="stroke:#181818;stroke-width:1.0;" x1="259.5" x2="259.5" y1="1253.1953" y2="1273.1953"/><polygon fill="#181818" points="255.5,1263.1953,259.5,1273.1953,263.5,1263.1953,259.5,1267.1953" style="stroke:#181818;stroke-width:1.0;"/><line style="stroke:#181818;stroke-width:1.0;" x1="259.5" x2="259.5" y1="1325.7617" y2="1348.3281"/><polygon fill="#181818" points="255.5,1338.3281,259.5,1348.3281,263.5,1338.3281,259.5,1342.3281" style="stroke:#181818;stroke-width:1.0;"/><line style="stroke:#181818;stroke-width:1.0;" x1="259.5" x2="259.5" y1="1382.2969" y2="1402.2969"/><polygon fill="#181818" points="255.5,1392.2969,259.5,1402.2969,263.5,1392.2969,259.5,1396.2969" style="stroke:#181818;stroke-width:1.0;"/><line style="stroke:#181818;stroke-width:1.0;" x1="259.5" x2="259.5" y1="1436.2656" y2="1456.2656"/><polygon fill="#181818" points="255.5,1446.2656,259.5,1456.2656,263.5,1446.2656,259.5,1450.2656" style="stroke:#181818;stroke-width:1.0;"/><line style="stroke:#181818;stroke-width:1.0;" x1="259.5" x2="259.5" y1="1490.2344" y2="1510.2344"/><polygon fill="#181818" points="255.5,1500.2344,259.5,1510.2344,263.5,1500.2344,259.5,1504.2344" style="stroke:#181818;stroke-width:1.0;"/><!--MD5=[fd2bce58a0d3c29e59e20d8334d8fc18]
@startuml
!pragma layout smetana
start
note right
StringencodePortNameToId(StringportName)
end note
:return "p"+SignatureUtils.getMD5Hex(portName);;
stop
end
start
note right
StringtoString()
end note
:return ids.toString();;
stop
end
start
note right
PortstranslateY(doubledeltaY)
end note
:final Portsresult=new Ports();;
:result.ids.put(ent.getKey(),ent.getValue()
.translateY(deltaY));;
:return result;;
stop
end
start
note right
void add(StringportName,intscore,doubleposition,
doubleheight)
end note
:final Stringid=encodePortNameToId(Objects.requireNonNull(portName));;
:final PortGeometryalready=ids.get(id);;
if (already==null ||already.getScore()<score) then (yes) 
:ids.put(id,new PortGeometry(id,position,
height,score));;
endif 
end
start
note right
void addThis(Portsother)
end note
:final Stringkey=ent.getKey();;
:final PortGeometryalready=ids.get(key);;
if (already==null ||already.getScore()<ent.getValue().getScore()) then (yes) 
:ids.put(key,ent.getValue());;
endif 
end
start
note right
Collection<PortGeometry>getAllPortGeometry()
end note
:final List<PortGeometry>result=new ArrayList<PortGeometry>(ids.values());;
:Collections.sort(result);;
:return Collections.unmodifiableCollection(result);;
stop
end
@enduml

PlantUML version 1.2022.7(Mon Aug 22 17:01:30 UTC 2022)
(GPL source distribution)
Java Runtime: OpenJDK Runtime Environment
JVM: OpenJDK 64-Bit Server VM
Default Encoding: UTF-8
Language: en
Country: null
--></g></svg>