<?xml version="1.0" encoding="UTF-8" standalone="no"?><svg xmlns="http://www.w3.org/2000/svg" xmlns:xlink="http://www.w3.org/1999/xlink" contentStyleType="text/css" height="285px" preserveAspectRatio="none" style="width:401px;height:285px;background:#FFFFFF;" version="1.1" viewBox="0 0 401 285" width="401px" zoomAndPan="magnify"><defs/><g><!--MD5=[aa8f7b917213fcc1c2766e2d59b49067]
cluster java.lang--><g id="cluster_java.lang"><path d="M155.5,6 L225.5,6 A3.75,3.75 0 0 1 228,8.5 L235,28.2969 L244.5,28.2969 A2.5,2.5 0 0 1 247,30.7969 L247,86.5 A2.5,2.5 0 0 1 244.5,89 L155.5,89 A2.5,2.5 0 0 1 153,86.5 L153,8.5 A2.5,2.5 0 0 1 155.5,6 " fill="none" style="stroke:#000000;stroke-width:1.5;"/><line style="stroke:#000000;stroke-width:1.5;" x1="153" x2="235" y1="28.2969" y2="28.2969"/><text fill="#000000" font-family="sans-serif" font-size="14" font-weight="bold" lengthAdjust="spacing" textLength="69" x="157" y="20.9951">java.lang</text></g><!--MD5=[36c8011b3515497ad3141e904da87df8]
cluster net.sourceforge.plantuml.svek--><g id="cluster_net.sourceforge.plantuml.svek"><path d="M8.5,97 L252.5,97 A3.75,3.75 0 0 1 255,99.5 L262,119.2969 L391.5,119.2969 A2.5,2.5 0 0 1 394,121.7969 L394,275.5 A2.5,2.5 0 0 1 391.5,278 L8.5,278 A2.5,2.5 0 0 1 6,275.5 L6,99.5 A2.5,2.5 0 0 1 8.5,97 " fill="none" style="stroke:#000000;stroke-width:1.5;"/><line style="stroke:#000000;stroke-width:1.5;" x1="6" x2="262" y1="119.2969" y2="119.2969"/><text fill="#000000" font-family="sans-serif" font-size="14" font-weight="bold" lengthAdjust="spacing" textLength="243" x="10" y="111.9951">net.sourceforge.plantuml.svek</text></g><!--MD5=[274ad5661286b626a93603d287cbf95a]
class java.lang.Object--><g id="elem_java.lang.Object"><rect fill="#F1F1F1" height="48" id="java.lang.Object" rx="2.5" ry="2.5" style="stroke:#181818;stroke-width:0.5;" width="77" x="161.5" y="33"/><ellipse cx="176.5" cy="49" fill="#ADD1B2" rx="11" ry="11" style="stroke:#181818;stroke-width:1.0;"/><path d="M179.4688,54.6406 Q178.8906,54.9375 178.25,55.0781 Q177.6094,55.2344 176.9063,55.2344 Q174.4063,55.2344 173.0781,53.5938 Q171.7656,51.9375 171.7656,48.8125 Q171.7656,45.6875 173.0781,44.0313 Q174.4063,42.375 176.9063,42.375 Q177.6094,42.375 178.25,42.5313 Q178.9063,42.6875 179.4688,42.9844 L179.4688,45.7031 Q178.8438,45.125 178.25,44.8594 Q177.6563,44.5781 177.0313,44.5781 Q175.6875,44.5781 175,45.6563 Q174.3125,46.7188 174.3125,48.8125 Q174.3125,50.9063 175,51.9844 Q175.6875,53.0469 177.0313,53.0469 Q177.6563,53.0469 178.25,52.7813 Q178.8438,52.5 179.4688,51.9219 L179.4688,54.6406 Z " fill="#000000"/><text fill="#000000" font-family="sans-serif" font-size="14" lengthAdjust="spacing" textLength="45" x="190.5" y="53.8467">Object</text><line style="stroke:#181818;stroke-width:0.5;" x1="162.5" x2="237.5" y1="65" y2="65"/><line style="stroke:#181818;stroke-width:0.5;" x1="162.5" x2="237.5" y1="73" y2="73"/></g><!--MD5=[b79a76ee8a5e0bee3b621d998deea3d9]
class net.sourceforge.plantuml.svek.Ports--><g id="elem_net.sourceforge.plantuml.svek.Ports"><rect codeLine="3" fill="#F1F1F1" height="145.7813" id="net.sourceforge.plantuml.svek.Ports" rx="2.5" ry="2.5" style="stroke:#181818;stroke-width:0.5;" width="371" x="14.5" y="124"/><ellipse cx="177.75" cy="140" fill="#ADD1B2" rx="11" ry="11" style="stroke:#181818;stroke-width:1.0;"/><path d="M180.7188,145.6406 Q180.1406,145.9375 179.5,146.0781 Q178.8594,146.2344 178.1563,146.2344 Q175.6563,146.2344 174.3281,144.5938 Q173.0156,142.9375 173.0156,139.8125 Q173.0156,136.6875 174.3281,135.0313 Q175.6563,133.375 178.1563,133.375 Q178.8594,133.375 179.5,133.5313 Q180.1563,133.6875 180.7188,133.9844 L180.7188,136.7031 Q180.0938,136.125 179.5,135.8594 Q178.9063,135.5781 178.2813,135.5781 Q176.9375,135.5781 176.25,136.6563 Q175.5625,137.7188 175.5625,139.8125 Q175.5625,141.9063 176.25,142.9844 Q176.9375,144.0469 178.2813,144.0469 Q178.9063,144.0469 179.5,143.7813 Q180.0938,143.5 180.7188,142.9219 L180.7188,145.6406 Z " fill="#000000"/><text fill="#000000" font-family="sans-serif" font-size="14" lengthAdjust="spacing" textLength="36" x="198.25" y="144.8467">Ports</text><line style="stroke:#181818;stroke-width:0.5;" x1="15.5" x2="384.5" y1="156" y2="156"/><line style="stroke:#181818;stroke-width:0.5;" x1="15.5" x2="384.5" y1="164" y2="164"/><a href="./../../../../../.././qc/src/net/sourceforge/plantuml/svek/Ports.java.html#53" target="_top" title="./../../../../../.././qc/src/net/sourceforge/plantuml/svek/Ports.java.html#53" xlink:actuate="onRequest" xlink:href="./../../../../../.././qc/src/net/sourceforge/plantuml/svek/Ports.java.html#53" xlink:show="new" xlink:title="./../../../../../.././qc/src/net/sourceforge/plantuml/svek/Ports.java.html#53" xlink:type="simple"><rect fill="#F1F1F1" height="10" style="stroke:none;stroke-width:1.0;" width="20" x="20.5" y="172.6484"/><ellipse cx="25.5" cy="177.6484" fill="#84BE84" rx="3" ry="3" style="stroke:#038048;stroke-width:1.0;"/></a><a href="./../../../../../.././qc/src/net/sourceforge/plantuml/svek/Ports.java.html#53" target="_top" title="./../../../../../.././qc/src/net/sourceforge/plantuml/svek/Ports.java.html#53" xlink:actuate="onRequest" xlink:href="./../../../../../.././qc/src/net/sourceforge/plantuml/svek/Ports.java.html#53" xlink:show="new" xlink:title="./../../../../../.././qc/src/net/sourceforge/plantuml/svek/Ports.java.html#53" xlink:type="simple"><text fill="#000000" font-family="sans-serif" font-size="14" lengthAdjust="spacing" textLength="254" x="34.5" y="180.9951">encodePortNameToId(String) : String</text></a><a href="./../../../../../.././qc/src/net/sourceforge/plantuml/svek/Ports.java.html#58" target="_top" title="./../../../../../.././qc/src/net/sourceforge/plantuml/svek/Ports.java.html#58" xlink:actuate="onRequest" xlink:href="./../../../../../.././qc/src/net/sourceforge/plantuml/svek/Ports.java.html#58" xlink:show="new" xlink:title="./../../../../../.././qc/src/net/sourceforge/plantuml/svek/Ports.java.html#58" xlink:type="simple"><rect fill="#F1F1F1" height="10" style="stroke:none;stroke-width:1.0;" width="20" x="20.5" y="188.9453"/><ellipse cx="25.5" cy="193.9453" fill="#84BE84" rx="3" ry="3" style="stroke:#038048;stroke-width:1.0;"/></a><a href="./../../../../../.././qc/src/net/sourceforge/plantuml/svek/Ports.java.html#58" target="_top" title="./../../../../../.././qc/src/net/sourceforge/plantuml/svek/Ports.java.html#58" xlink:actuate="onRequest" xlink:href="./../../../../../.././qc/src/net/sourceforge/plantuml/svek/Ports.java.html#58" xlink:show="new" xlink:title="./../../../../../.././qc/src/net/sourceforge/plantuml/svek/Ports.java.html#58" xlink:type="simple"><text fill="#000000" font-family="sans-serif" font-size="14" lengthAdjust="spacing" textLength="117" x="34.5" y="197.292">toString() : String</text></a><a href="./../../../../../.././qc/src/net/sourceforge/plantuml/svek/Ports.java.html#62" target="_top" title="./../../../../../.././qc/src/net/sourceforge/plantuml/svek/Ports.java.html#62" xlink:actuate="onRequest" xlink:href="./../../../../../.././qc/src/net/sourceforge/plantuml/svek/Ports.java.html#62" xlink:show="new" xlink:title="./../../../../../.././qc/src/net/sourceforge/plantuml/svek/Ports.java.html#62" xlink:type="simple"><rect fill="#F1F1F1" height="10" style="stroke:none;stroke-width:1.0;" width="20" x="20.5" y="205.2422"/><ellipse cx="25.5" cy="210.2422" fill="#84BE84" rx="3" ry="3" style="stroke:#038048;stroke-width:1.0;"/></a><a href="./../../../../../.././qc/src/net/sourceforge/plantuml/svek/Ports.java.html#62" target="_top" title="./../../../../../.././qc/src/net/sourceforge/plantuml/svek/Ports.java.html#62" xlink:actuate="onRequest" xlink:href="./../../../../../.././qc/src/net/sourceforge/plantuml/svek/Ports.java.html#62" xlink:show="new" xlink:title="./../../../../../.././qc/src/net/sourceforge/plantuml/svek/Ports.java.html#62" xlink:type="simple"><text fill="#000000" font-family="sans-serif" font-size="14" lengthAdjust="spacing" textLength="176" x="34.5" y="213.5889">translateY(double) : Ports</text></a><a href="./../../../../../.././qc/src/net/sourceforge/plantuml/svek/Ports.java.html#70" target="_top" title="./../../../../../.././qc/src/net/sourceforge/plantuml/svek/Ports.java.html#70" xlink:actuate="onRequest" xlink:href="./../../../../../.././qc/src/net/sourceforge/plantuml/svek/Ports.java.html#70" xlink:show="new" xlink:title="./../../../../../.././qc/src/net/sourceforge/plantuml/svek/Ports.java.html#70" xlink:type="simple"><rect fill="#F1F1F1" height="10" style="stroke:none;stroke-width:1.0;" width="20" x="20.5" y="221.5391"/><ellipse cx="25.5" cy="226.5391" fill="#84BE84" rx="3" ry="3" style="stroke:#038048;stroke-width:1.0;"/></a><a href="./../../../../../.././qc/src/net/sourceforge/plantuml/svek/Ports.java.html#70" target="_top" title="./../../../../../.././qc/src/net/sourceforge/plantuml/svek/Ports.java.html#70" xlink:actuate="onRequest" xlink:href="./../../../../../.././qc/src/net/sourceforge/plantuml/svek/Ports.java.html#70" xlink:show="new" xlink:title="./../../../../../.././qc/src/net/sourceforge/plantuml/svek/Ports.java.html#70" xlink:type="simple"><text fill="#000000" font-family="sans-serif" font-size="14" lengthAdjust="spacing" textLength="245" x="34.5" y="229.8857">add(String;int;double;double) : void</text></a><a href="./../../../../../.././qc/src/net/sourceforge/plantuml/svek/Ports.java.html#77" target="_top" title="./../../../../../.././qc/src/net/sourceforge/plantuml/svek/Ports.java.html#77" xlink:actuate="onRequest" xlink:href="./../../../../../.././qc/src/net/sourceforge/plantuml/svek/Ports.java.html#77" xlink:show="new" xlink:title="./../../../../../.././qc/src/net/sourceforge/plantuml/svek/Ports.java.html#77" xlink:type="simple"><rect fill="#F1F1F1" height="10" style="stroke:none;stroke-width:1.0;" width="20" x="20.5" y="237.8359"/><ellipse cx="25.5" cy="242.8359" fill="#84BE84" rx="3" ry="3" style="stroke:#038048;stroke-width:1.0;"/></a><a href="./../../../../../.././qc/src/net/sourceforge/plantuml/svek/Ports.java.html#77" target="_top" title="./../../../../../.././qc/src/net/sourceforge/plantuml/svek/Ports.java.html#77" xlink:actuate="onRequest" xlink:href="./../../../../../.././qc/src/net/sourceforge/plantuml/svek/Ports.java.html#77" xlink:show="new" xlink:title="./../../../../../.././qc/src/net/sourceforge/plantuml/svek/Ports.java.html#77" xlink:type="simple"><text fill="#000000" font-family="sans-serif" font-size="14" lengthAdjust="spacing" textLength="142" x="34.5" y="246.1826">addThis(Ports) : void</text></a><a href="./../../../../../.././qc/src/net/sourceforge/plantuml/svek/Ports.java.html#86" target="_top" title="./../../../../../.././qc/src/net/sourceforge/plantuml/svek/Ports.java.html#86" xlink:actuate="onRequest" xlink:href="./../../../../../.././qc/src/net/sourceforge/plantuml/svek/Ports.java.html#86" xlink:show="new" xlink:title="./../../../../../.././qc/src/net/sourceforge/plantuml/svek/Ports.java.html#86" xlink:type="simple"><rect fill="#F1F1F1" height="10" style="stroke:none;stroke-width:1.0;" width="20" x="20.5" y="254.1328"/><ellipse cx="25.5" cy="259.1328" fill="#84BE84" rx="3" ry="3" style="stroke:#038048;stroke-width:1.0;"/></a><a href="./../../../../../.././qc/src/net/sourceforge/plantuml/svek/Ports.java.html#86" target="_top" title="./../../../../../.././qc/src/net/sourceforge/plantuml/svek/Ports.java.html#86" xlink:actuate="onRequest" xlink:href="./../../../../../.././qc/src/net/sourceforge/plantuml/svek/Ports.java.html#86" xlink:show="new" xlink:title="./../../../../../.././qc/src/net/sourceforge/plantuml/svek/Ports.java.html#86" xlink:type="simple"><text fill="#000000" font-family="sans-serif" font-size="14" lengthAdjust="spacing" textLength="345" x="34.5" y="262.4795">getAllPortGeometry() : Collection&lt;PortGeometry&gt;</text></a></g><path d="M200,81.0981 C200,93.0678 200,108.4103 200,123.9592 " fill="none" style="stroke:#181818;stroke-width:1.0;"/><polygon fill="#FFFFFF" points="200,81.0981,194,97.0981,206,97.0981,200,81.0981" style="stroke:#181818;stroke-width:1.0;"/><!--MD5=[b814651966e8998dbdf3420d4b99a0e6]
@startuml
!pragma layout smetana
"java.lang.Object" <|- - "net.sourceforge.plantuml.svek.Ports"
class net.sourceforge.plantuml.svek.Ports {
+encodePortNameToId(String) : String [[[./../../../../../.././qc/src/net/sourceforge/plantuml/svek/Ports.java.html#53]]]
+toString() : String [[[./../../../../../.././qc/src/net/sourceforge/plantuml/svek/Ports.java.html#58]]]
+translateY(double) : Ports [[[./../../../../../.././qc/src/net/sourceforge/plantuml/svek/Ports.java.html#62]]]
+add(String;int;double;double) : void [[[./../../../../../.././qc/src/net/sourceforge/plantuml/svek/Ports.java.html#70]]]
+addThis(Ports) : void [[[./../../../../../.././qc/src/net/sourceforge/plantuml/svek/Ports.java.html#77]]]
+getAllPortGeometry() : Collection<PortGeometry> [[[./../../../../../.././qc/src/net/sourceforge/plantuml/svek/Ports.java.html#86]]]
} 
@enduml

PlantUML version 1.2022.7(Mon Aug 22 17:01:30 UTC 2022)
(GPL source distribution)
Java Runtime: OpenJDK Runtime Environment
JVM: OpenJDK 64-Bit Server VM
Default Encoding: UTF-8
Language: en
Country: null
--></g></svg>