<?xml version="1.0" encoding="UTF-8" standalone="no"?><svg xmlns="http://www.w3.org/2000/svg" xmlns:xlink="http://www.w3.org/1999/xlink" contentStyleType="text/css" height="1386px" preserveAspectRatio="none" style="width:1177px;height:1386px;background:#FFFFFF;" version="1.1" viewBox="0 0 1177 1386" width="1177px" zoomAndPan="magnify"><defs/><g><path d="M613.5,10 L613.5,18.5664 L593.5,22.5664 L613.5,26.5664 L613.5,35.1328 A0,0 0 0 0 613.5,35.1328 L862.5,35.1328 A0,0 0 0 0 862.5,35.1328 L862.5,20 L852.5,10 L613.5,10 A0,0 0 0 0 613.5,10 " fill="#FEFFDD" style="stroke:#181818;stroke-width:0.5;"/><path d="M852.5,10 L852.5,20 L862.5,20 L852.5,10 " fill="#FEFFDD" style="stroke:#181818;stroke-width:0.5;"/><text fill="#000000" font-family="sans-serif" font-size="13" lengthAdjust="spacing" textLength="228" x="619.5" y="27.0669">constructor CommandStyleImport()</text><ellipse cx="583.5" cy="22.5664" fill="#222222" rx="10" ry="10" style="stroke:#222222;stroke-width:1.0;"/><rect fill="#F1F1F1" height="33.9688" rx="12.5" ry="12.5" style="stroke:#181818;stroke-width:0.5;" width="187" x="490" y="55.1328"/><text fill="#000000" font-family="sans-serif" font-size="12" lengthAdjust="spacing" textLength="167" x="500" y="76.2715">super (getRegexConcat());</text><ellipse cx="583.5" cy="119.1016" fill="none" rx="10" ry="10" style="stroke:#222222;stroke-width:1.5;"/><line style="stroke:#222222;stroke-width:2.5;" x1="577.3128" x2="589.6872" y1="112.9144" y2="125.2887"/><line style="stroke:#222222;stroke-width:2.5;" x1="589.6872" x2="577.3128" y1="112.9144" y2="125.2887"/><path d="M613.5,139.1016 L613.5,147.668 L593.5,151.668 L613.5,155.668 L613.5,164.2344 A0,0 0 0 0 613.5,164.2344 L795.5,164.2344 A0,0 0 0 0 795.5,164.2344 L795.5,149.1016 L785.5,139.1016 L613.5,139.1016 A0,0 0 0 0 613.5,139.1016 " fill="#FEFFDD" style="stroke:#181818;stroke-width:0.5;"/><path d="M785.5,139.1016 L785.5,149.1016 L795.5,149.1016 L785.5,139.1016 " fill="#FEFFDD" style="stroke:#181818;stroke-width:0.5;"/><text fill="#000000" font-family="sans-serif" font-size="13" lengthAdjust="spacing" textLength="161" x="619.5" y="156.1685">IRegex getRegexConcat()</text><ellipse cx="583.5" cy="151.668" fill="#222222" rx="10" ry="10" style="stroke:#222222;stroke-width:1.0;"/><rect fill="#F1F1F1" height="89.8438" rx="12.5" ry="12.5" style="stroke:#181818;stroke-width:0.5;" width="1032" x="67.5" y="184.2344"/><text fill="#000000" font-family="sans-serif" font-size="12" lengthAdjust="spacing" textLength="1012" x="77.5" y="205.373">return RegexConcat.build(CommandStyleImport.class .getName(),RegexLeaf.start(),new RegexLeaf("\\&lt;style"),RegexLeaf.spaceZeroOrMore(),new RegexLeaf("\\w+</text><text fill="#000000" font-family="sans-serif" font-size="12" lengthAdjust="spacing" textLength="336" x="77.5" y="219.3418">"),RegexLeaf.spaceZeroOrMore(),new RegexLeaf("="),</text><text fill="#000000" font-family="sans-serif" font-size="12" lengthAdjust="spacing" textLength="366" x="77.5" y="233.3105">RegexLeaf.spaceZeroOrMore(),new RegexLeaf("[%q%g]?"),</text><text fill="#000000" font-family="sans-serif" font-size="12" lengthAdjust="spacing" textLength="408" x="77.5" y="247.2793">new RegexLeaf("PATH","([^%q%g]*)"),new RegexLeaf("[%q%g]?"),</text><text fill="#000000" font-family="sans-serif" font-size="12" lengthAdjust="spacing" textLength="246" x="77.5" y="261.248">new RegexLeaf("\\&gt;"),RegexLeaf.end());</text><ellipse cx="583.5" cy="305.0781" fill="none" rx="11" ry="11" style="stroke:#222222;stroke-width:1.0;"/><ellipse cx="583.5" cy="305.0781" fill="#222222" rx="6" ry="6" style="stroke:#111111;stroke-width:1.0;"/><ellipse cx="583.5" cy="336.0781" fill="none" rx="10" ry="10" style="stroke:#222222;stroke-width:1.5;"/><line style="stroke:#222222;stroke-width:2.5;" x1="577.3128" x2="589.6872" y1="329.8909" y2="342.2653"/><line style="stroke:#222222;stroke-width:2.5;" x1="589.6872" x2="577.3128" y1="329.8909" y2="342.2653"/><path d="M613.5,356.0781 L613.5,372.2109 L593.5,376.2109 L613.5,380.2109 L613.5,396.3438 A0,0 0 0 0 613.5,396.3438 L1034.5,396.3438 A0,0 0 0 0 1034.5,396.3438 L1034.5,366.0781 L1024.5,356.0781 L613.5,356.0781 A0,0 0 0 0 613.5,356.0781 " fill="#FEFFDD" style="stroke:#181818;stroke-width:0.5;"/><path d="M1024.5,356.0781 L1024.5,366.0781 L1034.5,366.0781 L1024.5,356.0781 " fill="#FEFFDD" style="stroke:#181818;stroke-width:0.5;"/><text fill="#000000" font-family="sans-serif" font-size="13" lengthAdjust="spacing" textLength="400" x="619.5" y="373.145">CommandExecutionResult executeArg(TitledDiagram diagram,</text><text fill="#000000" font-family="sans-serif" font-size="13" lengthAdjust="spacing" textLength="246" x="619.5" y="388.2778">LineLocation location,RegexResult arg)</text><ellipse cx="583.5" cy="376.2109" fill="#222222" rx="10" ry="10" style="stroke:#222222;stroke-width:1.0;"/><rect fill="#F1F1F1" height="33.9688" rx="12.5" ry="12.5" style="stroke:#181818;stroke-width:0.5;" width="244" x="461.5" y="416.3438"/><text fill="#000000" font-family="sans-serif" font-size="12" lengthAdjust="spacing" textLength="224" x="471.5" y="437.4824">final String path=arg.get("PATH",0);</text><polygon fill="#F1F1F1" points="542.5,470.3125,624.5,470.3125,636.5,482.3125,624.5,494.3125,542.5,494.3125,530.5,482.3125,542.5,470.3125" style="stroke:#181818;stroke-width:0.5;"/><text fill="#000000" font-family="sans-serif" font-size="11" lengthAdjust="spacing" textLength="82" x="542.5" y="486.1206">try/catch block</text><rect fill="#F1F1F1" height="33.9688" rx="12.5" ry="12.5" style="stroke:#181818;stroke-width:0.5;" width="341" x="144" y="529.9219"/><text fill="#000000" font-family="sans-serif" font-size="12" lengthAdjust="spacing" textLength="321" x="154" y="551.0605">final SFile f=FileSystem.getInstance().getFile(path);</text><rect fill="#F1F1F1" height="33.9688" rx="12.5" ry="12.5" style="stroke:#181818;stroke-width:0.5;" width="151" x="239" y="597.8594"/><text fill="#000000" font-family="sans-serif" font-size="12" lengthAdjust="spacing" textLength="131" x="249" y="618.998">BlocLines lines=null ;</text><polygon fill="#F1F1F1" points="289.5,653.8281,339.5,653.8281,351.5,665.8281,339.5,677.8281,289.5,677.8281,277.5,665.8281,289.5,653.8281" style="stroke:#181818;stroke-width:0.5;"/><text fill="#000000" font-family="sans-serif" font-size="11" lengthAdjust="spacing" textLength="50" x="289.5" y="669.6362">f.exists()</text><text fill="#000000" font-family="sans-serif" font-size="11" lengthAdjust="spacing" textLength="20" x="257.5" y="663.2339">yes</text><text fill="#000000" font-family="sans-serif" font-size="11" lengthAdjust="spacing" textLength="14" x="351.5" y="663.2339">no</text><rect fill="#F1F1F1" height="33.9688" rx="12.5" ry="12.5" style="stroke:#181818;stroke-width:0.5;" width="220" x="11" y="687.8281"/><text fill="#000000" font-family="sans-serif" font-size="12" lengthAdjust="spacing" textLength="200" x="21" y="708.9668">lines=BlocLines.load(f,location);</text><rect fill="#F1F1F1" height="47.9375" rx="12.5" ry="12.5" style="stroke:#181818;stroke-width:0.5;" width="514" x="251" y="687.8281"/><text fill="#000000" font-family="sans-serif" font-size="12" lengthAdjust="spacing" textLength="494" x="261" y="708.9668">final InputStream internalIs=StyleLoader.class .getResourceAsStream("/skin/"+</text><text fill="#000000" font-family="sans-serif" font-size="12" lengthAdjust="spacing" textLength="38" x="261" y="722.9355">path);</text><rect fill="#F1F1F1" height="33.9688" rx="12.5" ry="12.5" style="stroke:#181818;stroke-width:0.5;" width="274" x="371" y="804.168"/><text fill="#000000" font-family="sans-serif" font-size="12" lengthAdjust="spacing" textLength="254" x="381" y="825.3066">lines=BlocLines.load(internalIs,location);</text><polygon fill="#F1F1F1" points="463.5,755.7656,552.5,755.7656,564.5,767.7656,552.5,779.7656,463.5,779.7656,451.5,767.7656,463.5,755.7656" style="stroke:#181818;stroke-width:0.5;"/><text fill="#000000" font-family="sans-serif" font-size="11" lengthAdjust="spacing" textLength="20" x="512" y="789.9761">yes</text><text fill="#000000" font-family="sans-serif" font-size="11" lengthAdjust="spacing" textLength="85" x="463.5" y="771.5737">internalIs!=null</text><polygon fill="#F1F1F1" points="508,858.1367,520,870.1367,508,882.1367,496,870.1367,508,858.1367" style="stroke:#181818;stroke-width:0.5;"/><polygon fill="#F1F1F1" points="314.5,888.1367,326.5,900.1367,314.5,912.1367,302.5,900.1367,314.5,888.1367" style="stroke:#181818;stroke-width:0.5;"/><rect fill="#F1F1F1" height="47.9375" rx="12.5" ry="12.5" style="stroke:#181818;stroke-width:0.5;" width="371" x="129" y="980.5391"/><text fill="#000000" font-family="sans-serif" font-size="12" lengthAdjust="spacing" textLength="351" x="139" y="1001.6777">return CommandExecutionResult.error("Cannot read: "+</text><text fill="#000000" font-family="sans-serif" font-size="12" lengthAdjust="spacing" textLength="38" x="139" y="1015.6465">path);</text><ellipse cx="314.5" cy="1061.0078" fill="none" rx="11" ry="11" style="stroke:#222222;stroke-width:1.0;"/><ellipse cx="314.5" cy="1061.0078" fill="#222222" rx="6" ry="6" style="stroke:#111111;stroke-width:1.0;"/><polygon fill="#F1F1F1" points="280,932.1367,349,932.1367,361,944.1367,349,956.1367,280,956.1367,268,944.1367,280,932.1367" style="stroke:#181818;stroke-width:0.5;"/><text fill="#000000" font-family="sans-serif" font-size="11" lengthAdjust="spacing" textLength="20" x="318.5" y="966.3472">yes</text><text fill="#000000" font-family="sans-serif" font-size="11" lengthAdjust="spacing" textLength="65" x="280" y="947.9448">lines==null</text><rect fill="#F1F1F1" height="47.9375" rx="12.5" ry="12.5" style="stroke:#181818;stroke-width:0.5;" width="361" x="134" y="1114.0078"/><text fill="#000000" font-family="sans-serif" font-size="12" lengthAdjust="spacing" textLength="341" x="144" y="1135.1465">final StyleBuilder styleBuilder=diagram.getSkinParam()</text><text fill="#000000" font-family="sans-serif" font-size="12" lengthAdjust="spacing" textLength="159" x="144" y="1149.1152">.getCurrentStyleBuilder();</text><rect fill="#F1F1F1" height="33.9688" rx="12.5" ry="12.5" style="stroke:#181818;stroke-width:0.5;" width="335" x="147" y="1181.9453"/><text fill="#000000" font-family="sans-serif" font-size="12" lengthAdjust="spacing" textLength="315" x="157" y="1203.084">diagram.getSkinParam().muteStyle(modifiedStyle);</text><rect fill="#F1F1F1" height="47.9375" rx="12.5" ry="12.5" style="stroke:#181818;stroke-width:0.5;" width="371" x="795" y="529.9219"/><text fill="#000000" font-family="sans-serif" font-size="12" lengthAdjust="spacing" textLength="351" x="805" y="551.0605">return CommandExecutionResult.error("Cannot read: "+</text><text fill="#000000" font-family="sans-serif" font-size="12" lengthAdjust="spacing" textLength="38" x="805" y="565.0293">path);</text><ellipse cx="980.5" cy="622.8281" fill="none" rx="11" ry="11" style="stroke:#222222;stroke-width:1.0;"/><ellipse cx="980.5" cy="622.8281" fill="#222222" rx="6" ry="6" style="stroke:#111111;stroke-width:1.0;"/><polygon fill="#F1F1F1" points="583.5,1225.9141,583.5,1225.9141,595.5,1237.9141,583.5,1249.9141,583.5,1249.9141,571.5,1237.9141,583.5,1225.9141" style="stroke:#181818;stroke-width:0.5;"/><rect fill="#F1F1F1" height="33.9688" rx="12.5" ry="12.5" style="stroke:#181818;stroke-width:0.5;" width="258" x="454.5" y="1269.9141"/><text fill="#000000" font-family="sans-serif" font-size="12" lengthAdjust="spacing" textLength="238" x="464.5" y="1291.0527">return CommandExecutionResult.ok();</text><ellipse cx="583.5" cy="1334.8828" fill="none" rx="11" ry="11" style="stroke:#222222;stroke-width:1.0;"/><ellipse cx="583.5" cy="1334.8828" fill="#222222" rx="6" ry="6" style="stroke:#111111;stroke-width:1.0;"/><ellipse cx="583.5" cy="1365.8828" fill="none" rx="10" ry="10" style="stroke:#222222;stroke-width:1.5;"/><line style="stroke:#222222;stroke-width:2.5;" x1="577.3128" x2="589.6872" y1="1359.6956" y2="1372.07"/><line style="stroke:#222222;stroke-width:2.5;" x1="589.6872" x2="577.3128" y1="1359.6956" y2="1372.07"/><line style="stroke:#181818;stroke-width:1.0;" x1="583.5" x2="583.5" y1="32.5664" y2="55.1328"/><polygon fill="#181818" points="579.5,45.1328,583.5,55.1328,587.5,45.1328,583.5,49.1328" style="stroke:#181818;stroke-width:1.0;"/><line style="stroke:#181818;stroke-width:1.0;" x1="583.5" x2="583.5" y1="89.1016" y2="109.1016"/><polygon fill="#181818" points="579.5,99.1016,583.5,109.1016,587.5,99.1016,583.5,103.1016" style="stroke:#181818;stroke-width:1.0;"/><line style="stroke:#181818;stroke-width:1.0;" x1="583.5" x2="583.5" y1="161.668" y2="184.2344"/><polygon fill="#181818" points="579.5,174.2344,583.5,184.2344,587.5,174.2344,583.5,178.2344" style="stroke:#181818;stroke-width:1.0;"/><line style="stroke:#181818;stroke-width:1.0;" x1="583.5" x2="583.5" y1="274.0781" y2="294.0781"/><polygon fill="#181818" points="579.5,284.0781,583.5,294.0781,587.5,284.0781,583.5,288.0781" style="stroke:#181818;stroke-width:1.0;"/><line style="stroke:#181818;stroke-width:1.0;" x1="583.5" x2="583.5" y1="386.2109" y2="416.3438"/><polygon fill="#181818" points="579.5,406.3438,583.5,416.3438,587.5,406.3438,583.5,410.3438" style="stroke:#181818;stroke-width:1.0;"/><line style="stroke:#181818;stroke-width:1.0;" x1="314.5" x2="314.5" y1="563.8906" y2="597.8594"/><polygon fill="#181818" points="310.5,587.8594,314.5,597.8594,318.5,587.8594,314.5,591.8594" style="stroke:#181818;stroke-width:1.0;"/><line style="stroke:#181818;stroke-width:1.0;" x1="508" x2="508" y1="779.7656" y2="804.168"/><polygon fill="#181818" points="504,794.168,508,804.168,512,794.168,508,798.168" style="stroke:#181818;stroke-width:1.0;"/><line style="stroke:#181818;stroke-width:1.0;" x1="564.5" x2="655" y1="767.7656" y2="767.7656"/><polygon fill="#181818" points="651,811.1523,655,821.1523,659,811.1523,655,815.1523" style="stroke:#181818;stroke-width:1.0;"/><line style="stroke:#181818;stroke-width:1.0;" x1="655" x2="655" y1="767.7656" y2="870.1367"/><line style="stroke:#181818;stroke-width:1.0;" x1="655" x2="520" y1="870.1367" y2="870.1367"/><polygon fill="#181818" points="530,866.1367,520,870.1367,530,874.1367,526,870.1367" style="stroke:#181818;stroke-width:1.0;"/><line style="stroke:#181818;stroke-width:1.0;" x1="508" x2="508" y1="838.1367" y2="858.1367"/><polygon fill="#181818" points="504,848.1367,508,858.1367,512,848.1367,508,852.1367" style="stroke:#181818;stroke-width:1.0;"/><line style="stroke:#181818;stroke-width:1.0;" x1="508" x2="508" y1="735.7656" y2="755.7656"/><polygon fill="#181818" points="504,745.7656,508,755.7656,512,745.7656,508,749.7656" style="stroke:#181818;stroke-width:1.0;"/><line style="stroke:#181818;stroke-width:1.0;" x1="277.5" x2="121" y1="665.8281" y2="665.8281"/><line style="stroke:#181818;stroke-width:1.0;" x1="121" x2="121" y1="665.8281" y2="687.8281"/><polygon fill="#181818" points="117,677.8281,121,687.8281,125,677.8281,121,681.8281" style="stroke:#181818;stroke-width:1.0;"/><line style="stroke:#181818;stroke-width:1.0;" x1="351.5" x2="508" y1="665.8281" y2="665.8281"/><line style="stroke:#181818;stroke-width:1.0;" x1="508" x2="508" y1="665.8281" y2="687.8281"/><polygon fill="#181818" points="504,677.8281,508,687.8281,512,677.8281,508,681.8281" style="stroke:#181818;stroke-width:1.0;"/><line style="stroke:#181818;stroke-width:1.0;" x1="121" x2="121" y1="721.7969" y2="900.1367"/><line style="stroke:#181818;stroke-width:1.0;" x1="121" x2="302.5" y1="900.1367" y2="900.1367"/><polygon fill="#181818" points="292.5,896.1367,302.5,900.1367,292.5,904.1367,296.5,900.1367" style="stroke:#181818;stroke-width:1.0;"/><line style="stroke:#181818;stroke-width:1.0;" x1="508" x2="508" y1="882.1367" y2="900.1367"/><line style="stroke:#181818;stroke-width:1.0;" x1="508" x2="326.5" y1="900.1367" y2="900.1367"/><polygon fill="#181818" points="336.5,896.1367,326.5,900.1367,336.5,904.1367,332.5,900.1367" style="stroke:#181818;stroke-width:1.0;"/><line style="stroke:#181818;stroke-width:1.0;" x1="314.5" x2="314.5" y1="631.8281" y2="653.8281"/><polygon fill="#181818" points="310.5,643.8281,314.5,653.8281,318.5,643.8281,314.5,647.8281" style="stroke:#181818;stroke-width:1.0;"/><line style="stroke:#181818;stroke-width:1.0;" x1="314.5" x2="314.5" y1="1028.4766" y2="1050.0078"/><polygon fill="#181818" points="310.5,1040.0078,314.5,1050.0078,318.5,1040.0078,314.5,1044.0078" style="stroke:#181818;stroke-width:1.0;"/><line style="stroke:#181818;stroke-width:1.0;" x1="314.5" x2="314.5" y1="956.1367" y2="980.5391"/><polygon fill="#181818" points="310.5,970.5391,314.5,980.5391,318.5,970.5391,314.5,974.5391" style="stroke:#181818;stroke-width:1.0;"/><line style="stroke:#181818;stroke-width:1.0;" x1="361" x2="510" y1="944.1367" y2="944.1367"/><polygon fill="#181818" points="506,1020.0078,510,1030.0078,514,1020.0078,510,1024.0078" style="stroke:#181818;stroke-width:1.0;"/><line style="stroke:#181818;stroke-width:1.0;" x1="510" x2="510" y1="944.1367" y2="1094.0078"/><line style="stroke:#181818;stroke-width:1.0;" x1="510" x2="314.5" y1="1094.0078" y2="1094.0078"/><line style="stroke:#181818;stroke-width:1.0;" x1="314.5" x2="314.5" y1="1094.0078" y2="1114.0078"/><polygon fill="#181818" points="310.5,1104.0078,314.5,1114.0078,318.5,1104.0078,314.5,1108.0078" style="stroke:#181818;stroke-width:1.0;"/><line style="stroke:#181818;stroke-width:1.0;" x1="314.5" x2="314.5" y1="912.1367" y2="932.1367"/><polygon fill="#181818" points="310.5,922.1367,314.5,932.1367,318.5,922.1367,314.5,926.1367" style="stroke:#181818;stroke-width:1.0;"/><line style="stroke:#181818;stroke-width:1.0;" x1="314.5" x2="314.5" y1="1161.9453" y2="1181.9453"/><polygon fill="#181818" points="310.5,1171.9453,314.5,1181.9453,318.5,1171.9453,314.5,1175.9453" style="stroke:#181818;stroke-width:1.0;"/><line style="stroke:#181818;stroke-width:1.0;" x1="980.5" x2="980.5" y1="577.8594" y2="611.8281"/><polygon fill="#181818" points="976.5,601.8281,980.5,611.8281,984.5,601.8281,980.5,605.8281" style="stroke:#181818;stroke-width:1.0;"/><line style="stroke:#181818;stroke-width:1.0;" x1="530.5" x2="314.5" y1="482.3125" y2="482.3125"/><line style="stroke:#181818;stroke-width:1.0;" x1="314.5" x2="314.5" y1="482.3125" y2="529.9219"/><polygon fill="#181818" points="310.5,519.9219,314.5,529.9219,318.5,519.9219,314.5,523.9219" style="stroke:#181818;stroke-width:1.0;"/><text fill="#000000" font-family="sans-serif" font-size="11" lengthAdjust="spacing" textLength="15" x="314.5" y="509.9253">try</text><line style="stroke:#181818;stroke-width:1.0;" x1="636.5" x2="980.5" y1="482.3125" y2="482.3125"/><line style="stroke:#181818;stroke-width:1.0;" x1="980.5" x2="980.5" y1="482.3125" y2="529.9219"/><polygon fill="#181818" points="976.5,519.9219,980.5,529.9219,984.5,519.9219,980.5,523.9219" style="stroke:#181818;stroke-width:1.0;"/><text fill="#000000" font-family="sans-serif" font-size="11" lengthAdjust="spacing" textLength="119" x="980.5" y="509.9253">catch (IOException e)</text><line style="stroke:#181818;stroke-width:1.0;" x1="314.5" x2="314.5" y1="1215.9141" y2="1237.9141"/><line style="stroke:#181818;stroke-width:1.0;" x1="314.5" x2="571.5" y1="1237.9141" y2="1237.9141"/><polygon fill="#181818" points="561.5,1233.9141,571.5,1237.9141,561.5,1241.9141,565.5,1237.9141" style="stroke:#181818;stroke-width:1.0;"/><line style="stroke:#181818;stroke-width:1.0;" x1="583.5" x2="583.5" y1="450.3125" y2="470.3125"/><polygon fill="#181818" points="579.5,460.3125,583.5,470.3125,587.5,460.3125,583.5,464.3125" style="stroke:#181818;stroke-width:1.0;"/><line style="stroke:#181818;stroke-width:1.0;" x1="583.5" x2="583.5" y1="1249.9141" y2="1269.9141"/><polygon fill="#181818" points="579.5,1259.9141,583.5,1269.9141,587.5,1259.9141,583.5,1263.9141" style="stroke:#181818;stroke-width:1.0;"/><line style="stroke:#181818;stroke-width:1.0;" x1="583.5" x2="583.5" y1="1303.8828" y2="1323.8828"/><polygon fill="#181818" points="579.5,1313.8828,583.5,1323.8828,587.5,1313.8828,583.5,1317.8828" style="stroke:#181818;stroke-width:1.0;"/><!--MD5=[8d4fb2ab0778efd98d301dbe77bdec79]
@startuml
!pragma layout smetana
start
note right
constructor CommandStyleImport()
end note
:super (getRegexConcat());;
end
start
note right
IRegex getRegexConcat()
end note
:return RegexConcat.build(CommandStyleImport.class .getName(),RegexLeaf.start(),new RegexLeaf("\\<style"),RegexLeaf.spaceZeroOrMore(),new RegexLeaf("\\w+
"),RegexLeaf.spaceZeroOrMore(),new RegexLeaf("="),
RegexLeaf.spaceZeroOrMore(),new RegexLeaf("[%q%g]?"),
new RegexLeaf("PATH","([^%q%g]*)"),new RegexLeaf("[%q%g]?"),
new RegexLeaf("\\>"),RegexLeaf.end());;
stop
end
start
note right
CommandExecutionResult executeArg(TitledDiagram diagram,
LineLocation location,RegexResult arg)
end note
:final String path=arg.get("PATH",0);;
switch (try/catch block)
case (try)
:final SFile f=FileSystem.getInstance().getFile(path);;
:BlocLines lines=null ;;
if (f.exists()) then (yes) 
:lines=BlocLines.load(f,location);;
else (no)
:final InputStream internalIs=StyleLoader.class .getResourceAsStream("/skin/"+
path);;
if (internalIs!=null ) then (yes) 
:lines=BlocLines.load(internalIs,location);;
endif 
endif 
if (lines==null ) then (yes) 
:return CommandExecutionResult.error("Cannot read: "+
path);;
stop
endif 
:final StyleBuilder styleBuilder=diagram.getSkinParam()
.getCurrentStyleBuilder();;
:diagram.getSkinParam().muteStyle(modifiedStyle);;
case (catch (IOException e))
:return CommandExecutionResult.error("Cannot read: "+
path);;
stop
endswitch
:return CommandExecutionResult.ok();;
stop
end
@enduml

PlantUML version 1.2022.7(Mon Aug 22 17:01:30 UTC 2022)
(GPL source distribution)
Java Runtime: OpenJDK Runtime Environment
JVM: OpenJDK 64-Bit Server VM
Default Encoding: UTF-8
Language: en
Country: null
--></g></svg>