<?xml version="1.0" encoding="UTF-8" standalone="no"?><svg xmlns="http://www.w3.org/2000/svg" xmlns:xlink="http://www.w3.org/1999/xlink" contentStyleType="text/css" height="285px" preserveAspectRatio="none" style="width:537px;height:285px;background:#FFFFFF;" version="1.1" viewBox="0 0 537 285" width="537px" zoomAndPan="magnify"><defs/><g><!--MD5=[aa8f7b917213fcc1c2766e2d59b49067]
cluster java.lang--><g id="cluster_java.lang"><path d="M223.5,6 L293.5,6 A3.75,3.75 0 0 1 296,8.5 L303,28.2969 L312.5,28.2969 A2.5,2.5 0 0 1 315,30.7969 L315,86.5 A2.5,2.5 0 0 1 312.5,89 L223.5,89 A2.5,2.5 0 0 1 221,86.5 L221,8.5 A2.5,2.5 0 0 1 223.5,6 " fill="none" style="stroke:#000000;stroke-width:1.5;"/><line style="stroke:#000000;stroke-width:1.5;" x1="221" x2="303" y1="28.2969" y2="28.2969"/><text fill="#000000" font-family="sans-serif" font-size="14" font-weight="bold" lengthAdjust="spacing" textLength="69" x="225" y="20.9951">java.lang</text></g><!--MD5=[4a84f696b8e118338576c1576a875935]
cluster net.sourceforge.plantuml.style--><g id="cluster_net.sourceforge.plantuml.style"><path d="M8.5,97 L253.5,97 A3.75,3.75 0 0 1 256,99.5 L263,119.2969 L527.5,119.2969 A2.5,2.5 0 0 1 530,121.7969 L530,275.5 A2.5,2.5 0 0 1 527.5,278 L8.5,278 A2.5,2.5 0 0 1 6,275.5 L6,99.5 A2.5,2.5 0 0 1 8.5,97 " fill="none" style="stroke:#000000;stroke-width:1.5;"/><line style="stroke:#000000;stroke-width:1.5;" x1="6" x2="263" y1="119.2969" y2="119.2969"/><text fill="#000000" font-family="sans-serif" font-size="14" font-weight="bold" lengthAdjust="spacing" textLength="244" x="10" y="111.9951">net.sourceforge.plantuml.style</text></g><!--MD5=[274ad5661286b626a93603d287cbf95a]
class java.lang.Object--><g id="elem_java.lang.Object"><rect fill="#F1F1F1" height="48" id="java.lang.Object" rx="2.5" ry="2.5" style="stroke:#181818;stroke-width:0.5;" width="77" x="229.5" y="33"/><ellipse cx="244.5" cy="49" fill="#ADD1B2" rx="11" ry="11" style="stroke:#181818;stroke-width:1.0;"/><path d="M247.4688,54.6406 Q246.8906,54.9375 246.25,55.0781 Q245.6094,55.2344 244.9063,55.2344 Q242.4063,55.2344 241.0781,53.5938 Q239.7656,51.9375 239.7656,48.8125 Q239.7656,45.6875 241.0781,44.0313 Q242.4063,42.375 244.9063,42.375 Q245.6094,42.375 246.25,42.5313 Q246.9063,42.6875 247.4688,42.9844 L247.4688,45.7031 Q246.8438,45.125 246.25,44.8594 Q245.6563,44.5781 245.0313,44.5781 Q243.6875,44.5781 243,45.6563 Q242.3125,46.7188 242.3125,48.8125 Q242.3125,50.9063 243,51.9844 Q243.6875,53.0469 245.0313,53.0469 Q245.6563,53.0469 246.25,52.7813 Q246.8438,52.5 247.4688,51.9219 L247.4688,54.6406 Z " fill="#000000"/><text fill="#000000" font-family="sans-serif" font-size="14" lengthAdjust="spacing" textLength="45" x="258.5" y="53.8467">Object</text><line style="stroke:#181818;stroke-width:0.5;" x1="230.5" x2="305.5" y1="65" y2="65"/><line style="stroke:#181818;stroke-width:0.5;" x1="230.5" x2="305.5" y1="73" y2="73"/></g><!--MD5=[4ff232a12cf48476e7f20478dd7fa8bd]
class net.sourceforge.plantuml.style.StyleLoader--><g id="elem_net.sourceforge.plantuml.style.StyleLoader"><rect codeLine="3" fill="#F1F1F1" height="145.7813" id="net.sourceforge.plantuml.style.StyleLoader" rx="2.5" ry="2.5" style="stroke:#181818;stroke-width:0.5;" width="507" x="14.5" y="124"/><ellipse cx="223.75" cy="140" fill="#ADD1B2" rx="11" ry="11" style="stroke:#181818;stroke-width:1.0;"/><path d="M226.7188,145.6406 Q226.1406,145.9375 225.5,146.0781 Q224.8594,146.2344 224.1563,146.2344 Q221.6563,146.2344 220.3281,144.5938 Q219.0156,142.9375 219.0156,139.8125 Q219.0156,136.6875 220.3281,135.0313 Q221.6563,133.375 224.1563,133.375 Q224.8594,133.375 225.5,133.5313 Q226.1563,133.6875 226.7188,133.9844 L226.7188,136.7031 Q226.0938,136.125 225.5,135.8594 Q224.9063,135.5781 224.2813,135.5781 Q222.9375,135.5781 222.25,136.6563 Q221.5625,137.7188 221.5625,139.8125 Q221.5625,141.9063 222.25,142.9844 Q222.9375,144.0469 224.2813,144.0469 Q224.9063,144.0469 225.5,143.7813 Q226.0938,143.5 226.7188,142.9219 L226.7188,145.6406 Z " fill="#000000"/><text fill="#000000" font-family="sans-serif" font-size="14" lengthAdjust="spacing" textLength="80" x="244.25" y="144.8467">StyleLoader</text><line style="stroke:#181818;stroke-width:0.5;" x1="15.5" x2="520.5" y1="156" y2="156"/><line style="stroke:#181818;stroke-width:0.5;" x1="15.5" x2="520.5" y1="164" y2="164"/><a href="./../../../../../.././qc/src/net/sourceforge/plantuml/style/StyleLoader.java.html#64" target="_top" title="./../../../../../.././qc/src/net/sourceforge/plantuml/style/StyleLoader.java.html#64" xlink:actuate="onRequest" xlink:href="./../../../../../.././qc/src/net/sourceforge/plantuml/style/StyleLoader.java.html#64" xlink:show="new" xlink:title="./../../../../../.././qc/src/net/sourceforge/plantuml/style/StyleLoader.java.html#64" xlink:type="simple"><rect fill="#F1F1F1" height="10" style="stroke:none;stroke-width:1.0;" width="20" x="20.5" y="172.6484"/><ellipse cx="25.5" cy="177.6484" fill="#84BE84" rx="3" ry="3" style="stroke:#038048;stroke-width:1.0;"/></a><a href="./../../../../../.././qc/src/net/sourceforge/plantuml/style/StyleLoader.java.html#64" target="_top" title="./../../../../../.././qc/src/net/sourceforge/plantuml/style/StyleLoader.java.html#64" xlink:actuate="onRequest" xlink:href="./../../../../../.././qc/src/net/sourceforge/plantuml/style/StyleLoader.java.html#64" xlink:show="new" xlink:title="./../../../../../.././qc/src/net/sourceforge/plantuml/style/StyleLoader.java.html#64" xlink:type="simple"><text fill="#000000" font-family="sans-serif" font-size="14" lengthAdjust="spacing" textLength="255" x="34.5" y="180.9951">StyleLoader(SkinParam) : StyleLoader</text></a><a href="./../../../../../.././qc/src/net/sourceforge/plantuml/style/StyleLoader.java.html#70" target="_top" title="./../../../../../.././qc/src/net/sourceforge/plantuml/style/StyleLoader.java.html#70" xlink:actuate="onRequest" xlink:href="./../../../../../.././qc/src/net/sourceforge/plantuml/style/StyleLoader.java.html#70" xlink:show="new" xlink:title="./../../../../../.././qc/src/net/sourceforge/plantuml/style/StyleLoader.java.html#70" xlink:type="simple"><rect fill="#F1F1F1" height="10" style="stroke:none;stroke-width:1.0;" width="20" x="20.5" y="188.9453"/><ellipse cx="25.5" cy="193.9453" fill="#84BE84" rx="3" ry="3" style="stroke:#038048;stroke-width:1.0;"/></a><a href="./../../../../../.././qc/src/net/sourceforge/plantuml/style/StyleLoader.java.html#70" target="_top" title="./../../../../../.././qc/src/net/sourceforge/plantuml/style/StyleLoader.java.html#70" xlink:actuate="onRequest" xlink:href="./../../../../../.././qc/src/net/sourceforge/plantuml/style/StyleLoader.java.html#70" xlink:show="new" xlink:title="./../../../../../.././qc/src/net/sourceforge/plantuml/style/StyleLoader.java.html#70" xlink:type="simple"><text fill="#000000" font-family="sans-serif" font-size="14" lengthAdjust="spacing" textLength="202" x="34.5" y="197.292">loadSkin(String) : StyleBuilder</text></a><a href="./../../../../../.././qc/src/net/sourceforge/plantuml/style/StyleLoader.java.html#87" target="_top" title="./../../../../../.././qc/src/net/sourceforge/plantuml/style/StyleLoader.java.html#87" xlink:actuate="onRequest" xlink:href="./../../../../../.././qc/src/net/sourceforge/plantuml/style/StyleLoader.java.html#87" xlink:show="new" xlink:title="./../../../../../.././qc/src/net/sourceforge/plantuml/style/StyleLoader.java.html#87" xlink:type="simple"><rect fill="#F1F1F1" height="10" style="stroke:none;stroke-width:1.0;" width="20" x="20.5" y="205.2422"/><ellipse cx="25.5" cy="210.2422" fill="#84BE84" rx="3" ry="3" style="stroke:#038048;stroke-width:1.0;"/></a><a href="./../../../../../.././qc/src/net/sourceforge/plantuml/style/StyleLoader.java.html#87" target="_top" title="./../../../../../.././qc/src/net/sourceforge/plantuml/style/StyleLoader.java.html#87" xlink:actuate="onRequest" xlink:href="./../../../../../.././qc/src/net/sourceforge/plantuml/style/StyleLoader.java.html#87" xlink:show="new" xlink:title="./../../../../../.././qc/src/net/sourceforge/plantuml/style/StyleLoader.java.html#87" xlink:type="simple"><text fill="#000000" font-family="sans-serif" font-size="14" lengthAdjust="spacing" textLength="309" x="34.5" y="213.5889">getInputStreamForStyle(String) : InputStream</text></a><a href="./../../../../../.././qc/src/net/sourceforge/plantuml/style/StyleLoader.java.html#112" target="_top" title="./../../../../../.././qc/src/net/sourceforge/plantuml/style/StyleLoader.java.html#112" xlink:actuate="onRequest" xlink:href="./../../../../../.././qc/src/net/sourceforge/plantuml/style/StyleLoader.java.html#112" xlink:show="new" xlink:title="./../../../../../.././qc/src/net/sourceforge/plantuml/style/StyleLoader.java.html#112" xlink:type="simple"><rect fill="#F1F1F1" height="10" style="stroke:none;stroke-width:1.0;" width="20" x="20.5" y="221.5391"/><rect fill="#F24D5C" height="6" style="stroke:#C82930;stroke-width:1.0;" width="6" x="22.5" y="223.5391"/></a><a href="./../../../../../.././qc/src/net/sourceforge/plantuml/style/StyleLoader.java.html#112" target="_top" title="./../../../../../.././qc/src/net/sourceforge/plantuml/style/StyleLoader.java.html#112" xlink:actuate="onRequest" xlink:href="./../../../../../.././qc/src/net/sourceforge/plantuml/style/StyleLoader.java.html#112" xlink:show="new" xlink:title="./../../../../../.././qc/src/net/sourceforge/plantuml/style/StyleLoader.java.html#112" xlink:type="simple"><text fill="#000000" font-family="sans-serif" font-size="14" lengthAdjust="spacing" textLength="226" x="34.5" y="229.8857">loadSkinInternal(BlocLines) : void</text></a><a href="./../../../../../.././qc/src/net/sourceforge/plantuml/style/StyleLoader.java.html#123" target="_top" title="./../../../../../.././qc/src/net/sourceforge/plantuml/style/StyleLoader.java.html#123" xlink:actuate="onRequest" xlink:href="./../../../../../.././qc/src/net/sourceforge/plantuml/style/StyleLoader.java.html#123" xlink:show="new" xlink:title="./../../../../../.././qc/src/net/sourceforge/plantuml/style/StyleLoader.java.html#123" xlink:type="simple"><rect fill="#F1F1F1" height="10" style="stroke:none;stroke-width:1.0;" width="20" x="20.5" y="237.8359"/><ellipse cx="25.5" cy="242.8359" fill="#84BE84" rx="3" ry="3" style="stroke:#038048;stroke-width:1.0;"/></a><a href="./../../../../../.././qc/src/net/sourceforge/plantuml/style/StyleLoader.java.html#123" target="_top" title="./../../../../../.././qc/src/net/sourceforge/plantuml/style/StyleLoader.java.html#123" xlink:actuate="onRequest" xlink:href="./../../../../../.././qc/src/net/sourceforge/plantuml/style/StyleLoader.java.html#123" xlink:show="new" xlink:title="./../../../../../.././qc/src/net/sourceforge/plantuml/style/StyleLoader.java.html#123" xlink:type="simple"><text fill="#000000" font-family="sans-serif" font-size="14" lengthAdjust="spacing" textLength="470" x="34.5" y="246.1826">getDeclaredStyles(BlocLines;AutomaticCounter) : Collection&lt;Style&gt;</text></a><a href="./../../../../../.././qc/src/net/sourceforge/plantuml/style/StyleLoader.java.html#212" target="_top" title="./../../../../../.././qc/src/net/sourceforge/plantuml/style/StyleLoader.java.html#212" xlink:actuate="onRequest" xlink:href="./../../../../../.././qc/src/net/sourceforge/plantuml/style/StyleLoader.java.html#212" xlink:show="new" xlink:title="./../../../../../.././qc/src/net/sourceforge/plantuml/style/StyleLoader.java.html#212" xlink:type="simple"><rect fill="#F1F1F1" height="10" style="stroke:none;stroke-width:1.0;" width="20" x="20.5" y="254.1328"/><ellipse cx="25.5" cy="259.1328" fill="#84BE84" rx="3" ry="3" style="stroke:#038048;stroke-width:1.0;"/></a><a href="./../../../../../.././qc/src/net/sourceforge/plantuml/style/StyleLoader.java.html#212" target="_top" title="./../../../../../.././qc/src/net/sourceforge/plantuml/style/StyleLoader.java.html#212" xlink:actuate="onRequest" xlink:href="./../../../../../.././qc/src/net/sourceforge/plantuml/style/StyleLoader.java.html#212" xlink:show="new" xlink:title="./../../../../../.././qc/src/net/sourceforge/plantuml/style/StyleLoader.java.html#212" xlink:type="simple"><text fill="#000000" font-family="sans-serif" font-size="14" lengthAdjust="spacing" textLength="481" x="34.5" y="262.4795">addPriorityForStereotype(Map&lt;PName,Value&gt;) : Map&lt;PName,Value&gt;</text></a></g><path d="M268,81.0981 C268,93.0678 268,108.4103 268,123.9592 " fill="none" style="stroke:#181818;stroke-width:1.0;"/><polygon fill="#FFFFFF" points="268,81.0981,262,97.0981,274,97.0981,268,81.0981" style="stroke:#181818;stroke-width:1.0;"/><!--MD5=[9c37db065f70c31d129895582c20083b]
@startuml
!pragma layout smetana
"java.lang.Object" <|- - "net.sourceforge.plantuml.style.StyleLoader"
class net.sourceforge.plantuml.style.StyleLoader {
+StyleLoader(SkinParam) : StyleLoader [[[./../../../../../.././qc/src/net/sourceforge/plantuml/style/StyleLoader.java.html#64]]]
+loadSkin(String) : StyleBuilder [[[./../../../../../.././qc/src/net/sourceforge/plantuml/style/StyleLoader.java.html#70]]]
+getInputStreamForStyle(String) : InputStream [[[./../../../../../.././qc/src/net/sourceforge/plantuml/style/StyleLoader.java.html#87]]]
-loadSkinInternal(BlocLines) : void [[[./../../../../../.././qc/src/net/sourceforge/plantuml/style/StyleLoader.java.html#112]]]
+getDeclaredStyles(BlocLines;AutomaticCounter) : Collection<Style> [[[./../../../../../.././qc/src/net/sourceforge/plantuml/style/StyleLoader.java.html#123]]]
+addPriorityForStereotype(Map<PName,Value>) : Map<PName,Value> [[[./../../../../../.././qc/src/net/sourceforge/plantuml/style/StyleLoader.java.html#212]]]
} 
@enduml

PlantUML version 1.2022.7(Mon Aug 22 17:01:30 UTC 2022)
(GPL source distribution)
Java Runtime: OpenJDK Runtime Environment
JVM: OpenJDK 64-Bit Server VM
Default Encoding: UTF-8
Language: en
Country: null
--></g></svg>