<?xml version="1.0" encoding="UTF-8" standalone="no"?><svg xmlns="http://www.w3.org/2000/svg" xmlns:xlink="http://www.w3.org/1999/xlink" contentStyleType="text/css" height="1411px" preserveAspectRatio="none" style="width:539px;height:1411px;background:#FFFFFF;" version="1.1" viewBox="0 0 539 1411" width="539px" zoomAndPan="magnify"><defs/><g><path d="M221.5,10 L221.5,18.5664 L201.5,22.5664 L221.5,26.5664 L221.5,35.1328 A0,0 0 0 0 221.5,35.1328 L343.5,35.1328 A0,0 0 0 0 343.5,35.1328 L343.5,20 L333.5,10 L221.5,10 A0,0 0 0 0 221.5,10 " fill="#FEFFDD" style="stroke:#181818;stroke-width:0.5;"/><path d="M333.5,10 L333.5,20 L343.5,20 L333.5,10 " fill="#FEFFDD" style="stroke:#181818;stroke-width:0.5;"/><text fill="#000000" font-family="sans-serif" font-size="13" lengthAdjust="spacing" textLength="101" x="227.5" y="27.0669">StringasString()</text><ellipse cx="191.5" cy="22.5664" fill="#222222" rx="10" ry="10" style="stroke:#222222;stroke-width:1.0;"/><rect fill="#F1F1F1" height="47.9375" rx="12.5" ry="12.5" style="stroke:#181818;stroke-width:0.5;" width="361" x="11" y="55.1328"/><text fill="#000000" font-family="sans-serif" font-size="12" lengthAdjust="spacing" textLength="341" x="21" y="76.2715">throw new UnsupportedOperationException("Class="+</text><text fill="#000000" font-family="sans-serif" font-size="12" lengthAdjust="spacing" textLength="73" x="21" y="90.2402">getClass());</text><ellipse cx="191.5" cy="134.0703" fill="none" rx="11" ry="11" style="stroke:#222222;stroke-width:1.0;"/><ellipse cx="191.5" cy="134.0703" fill="#222222" rx="6" ry="6" style="stroke:#111111;stroke-width:1.0;"/><ellipse cx="191.5" cy="165.0703" fill="none" rx="10" ry="10" style="stroke:#222222;stroke-width:1.5;"/><line style="stroke:#222222;stroke-width:2.5;" x1="185.3128" x2="197.6872" y1="158.8831" y2="171.2575"/><line style="stroke:#222222;stroke-width:2.5;" x1="197.6872" x2="185.3128" y1="158.8831" y2="171.2575"/><path d="M221.5,185.0703 L221.5,193.6367 L201.5,197.6367 L221.5,201.6367 L221.5,210.2031 A0,0 0 0 0 221.5,210.2031 L428.5,210.2031 A0,0 0 0 0 428.5,210.2031 L428.5,195.0703 L418.5,185.0703 L221.5,185.0703 A0,0 0 0 0 221.5,185.0703 " fill="#FEFFDD" style="stroke:#181818;stroke-width:0.5;"/><path d="M418.5,185.0703 L418.5,195.0703 L428.5,195.0703 L418.5,185.0703 " fill="#FEFFDD" style="stroke:#181818;stroke-width:0.5;"/><text fill="#000000" font-family="sans-serif" font-size="13" lengthAdjust="spacing" textLength="186" x="227.5" y="202.1372">HColorasColor(HColorSetset)</text><ellipse cx="191.5" cy="197.6367" fill="#222222" rx="10" ry="10" style="stroke:#222222;stroke-width:1.0;"/><rect fill="#F1F1F1" height="47.9375" rx="12.5" ry="12.5" style="stroke:#181818;stroke-width:0.5;" width="361" x="11" y="230.2031"/><text fill="#000000" font-family="sans-serif" font-size="12" lengthAdjust="spacing" textLength="341" x="21" y="251.3418">throw new UnsupportedOperationException("Class="+</text><text fill="#000000" font-family="sans-serif" font-size="12" lengthAdjust="spacing" textLength="73" x="21" y="265.3105">getClass());</text><ellipse cx="191.5" cy="309.1406" fill="none" rx="11" ry="11" style="stroke:#222222;stroke-width:1.0;"/><ellipse cx="191.5" cy="309.1406" fill="#222222" rx="6" ry="6" style="stroke:#111111;stroke-width:1.0;"/><ellipse cx="191.5" cy="340.1406" fill="none" rx="10" ry="10" style="stroke:#222222;stroke-width:1.5;"/><line style="stroke:#222222;stroke-width:2.5;" x1="185.3128" x2="197.6872" y1="333.9534" y2="346.3278"/><line style="stroke:#222222;stroke-width:2.5;" x1="197.6872" x2="185.3128" y1="333.9534" y2="346.3278"/><path d="M221.5,360.1406 L221.5,368.707 L201.5,372.707 L221.5,376.707 L221.5,385.2734 A0,0 0 0 0 221.5,385.2734 L299.5,385.2734 A0,0 0 0 0 299.5,385.2734 L299.5,370.1406 L289.5,360.1406 L221.5,360.1406 A0,0 0 0 0 221.5,360.1406 " fill="#FEFFDD" style="stroke:#181818;stroke-width:0.5;"/><path d="M289.5,360.1406 L289.5,370.1406 L299.5,370.1406 L289.5,360.1406 " fill="#FEFFDD" style="stroke:#181818;stroke-width:0.5;"/><text fill="#000000" font-family="sans-serif" font-size="13" lengthAdjust="spacing" textLength="57" x="227.5" y="377.2075">intasInt()</text><ellipse cx="191.5" cy="372.707" fill="#222222" rx="10" ry="10" style="stroke:#222222;stroke-width:1.0;"/><rect fill="#F1F1F1" height="47.9375" rx="12.5" ry="12.5" style="stroke:#181818;stroke-width:0.5;" width="361" x="11" y="405.2734"/><text fill="#000000" font-family="sans-serif" font-size="12" lengthAdjust="spacing" textLength="341" x="21" y="426.4121">throw new UnsupportedOperationException("Class="+</text><text fill="#000000" font-family="sans-serif" font-size="12" lengthAdjust="spacing" textLength="73" x="21" y="440.3809">getClass());</text><ellipse cx="191.5" cy="484.2109" fill="none" rx="11" ry="11" style="stroke:#222222;stroke-width:1.0;"/><ellipse cx="191.5" cy="484.2109" fill="#222222" rx="6" ry="6" style="stroke:#111111;stroke-width:1.0;"/><ellipse cx="191.5" cy="515.2109" fill="none" rx="10" ry="10" style="stroke:#222222;stroke-width:1.5;"/><line style="stroke:#222222;stroke-width:2.5;" x1="185.3128" x2="197.6872" y1="509.0238" y2="521.3981"/><line style="stroke:#222222;stroke-width:2.5;" x1="197.6872" x2="185.3128" y1="509.0238" y2="521.3981"/><path d="M221.5,535.2109 L221.5,543.7773 L201.5,547.7773 L221.5,551.7773 L221.5,560.3438 A0,0 0 0 0 221.5,560.3438 L355.5,560.3438 A0,0 0 0 0 355.5,560.3438 L355.5,545.2109 L345.5,535.2109 L221.5,535.2109 A0,0 0 0 0 221.5,535.2109 " fill="#FEFFDD" style="stroke:#181818;stroke-width:0.5;"/><path d="M345.5,535.2109 L345.5,545.2109 L355.5,545.2109 L345.5,535.2109 " fill="#FEFFDD" style="stroke:#181818;stroke-width:0.5;"/><text fill="#000000" font-family="sans-serif" font-size="13" lengthAdjust="spacing" textLength="113" x="227.5" y="552.2778">doubleasDouble()</text><ellipse cx="191.5" cy="547.7773" fill="#222222" rx="10" ry="10" style="stroke:#222222;stroke-width:1.0;"/><rect fill="#F1F1F1" height="47.9375" rx="12.5" ry="12.5" style="stroke:#181818;stroke-width:0.5;" width="361" x="11" y="580.3438"/><text fill="#000000" font-family="sans-serif" font-size="12" lengthAdjust="spacing" textLength="341" x="21" y="601.4824">throw new UnsupportedOperationException("Class="+</text><text fill="#000000" font-family="sans-serif" font-size="12" lengthAdjust="spacing" textLength="73" x="21" y="615.4512">getClass());</text><ellipse cx="191.5" cy="659.2813" fill="none" rx="11" ry="11" style="stroke:#222222;stroke-width:1.0;"/><ellipse cx="191.5" cy="659.2813" fill="#222222" rx="6" ry="6" style="stroke:#111111;stroke-width:1.0;"/><ellipse cx="191.5" cy="690.2813" fill="none" rx="10" ry="10" style="stroke:#222222;stroke-width:1.5;"/><line style="stroke:#222222;stroke-width:2.5;" x1="185.3128" x2="197.6872" y1="684.0941" y2="696.4684"/><line style="stroke:#222222;stroke-width:2.5;" x1="197.6872" x2="185.3128" y1="684.0941" y2="696.4684"/><path d="M221.5,710.2813 L221.5,718.8477 L201.5,722.8477 L221.5,726.8477 L221.5,735.4141 A0,0 0 0 0 221.5,735.4141 L370.5,735.4141 A0,0 0 0 0 370.5,735.4141 L370.5,720.2813 L360.5,710.2813 L221.5,710.2813 A0,0 0 0 0 221.5,710.2813 " fill="#FEFFDD" style="stroke:#181818;stroke-width:0.5;"/><path d="M360.5,710.2813 L360.5,720.2813 L370.5,720.2813 L360.5,710.2813 " fill="#FEFFDD" style="stroke:#181818;stroke-width:0.5;"/><text fill="#000000" font-family="sans-serif" font-size="13" lengthAdjust="spacing" textLength="128" x="227.5" y="727.3481">booleanasBoolean()</text><ellipse cx="191.5" cy="722.8477" fill="#222222" rx="10" ry="10" style="stroke:#222222;stroke-width:1.0;"/><rect fill="#F1F1F1" height="47.9375" rx="12.5" ry="12.5" style="stroke:#181818;stroke-width:0.5;" width="361" x="11" y="755.4141"/><text fill="#000000" font-family="sans-serif" font-size="12" lengthAdjust="spacing" textLength="341" x="21" y="776.5527">throw new UnsupportedOperationException("Class="+</text><text fill="#000000" font-family="sans-serif" font-size="12" lengthAdjust="spacing" textLength="73" x="21" y="790.5215">getClass());</text><ellipse cx="191.5" cy="834.3516" fill="none" rx="11" ry="11" style="stroke:#222222;stroke-width:1.0;"/><ellipse cx="191.5" cy="834.3516" fill="#222222" rx="6" ry="6" style="stroke:#111111;stroke-width:1.0;"/><ellipse cx="191.5" cy="865.3516" fill="none" rx="10" ry="10" style="stroke:#222222;stroke-width:1.5;"/><line style="stroke:#222222;stroke-width:2.5;" x1="185.3128" x2="197.6872" y1="859.1644" y2="871.5387"/><line style="stroke:#222222;stroke-width:2.5;" x1="197.6872" x2="185.3128" y1="859.1644" y2="871.5387"/><path d="M221.5,885.3516 L221.5,893.918 L201.5,897.918 L221.5,901.918 L221.5,910.4844 A0,0 0 0 0 221.5,910.4844 L343.5,910.4844 A0,0 0 0 0 343.5,910.4844 L343.5,895.3516 L333.5,885.3516 L221.5,885.3516 A0,0 0 0 0 221.5,885.3516 " fill="#FEFFDD" style="stroke:#181818;stroke-width:0.5;"/><path d="M333.5,885.3516 L333.5,895.3516 L343.5,895.3516 L333.5,885.3516 " fill="#FEFFDD" style="stroke:#181818;stroke-width:0.5;"/><text fill="#000000" font-family="sans-serif" font-size="13" lengthAdjust="spacing" textLength="101" x="227.5" y="902.4185">intasFontStyle()</text><ellipse cx="191.5" cy="897.918" fill="#222222" rx="10" ry="10" style="stroke:#222222;stroke-width:1.0;"/><rect fill="#F1F1F1" height="47.9375" rx="12.5" ry="12.5" style="stroke:#181818;stroke-width:0.5;" width="361" x="11" y="930.4844"/><text fill="#000000" font-family="sans-serif" font-size="12" lengthAdjust="spacing" textLength="341" x="21" y="951.623">throw new UnsupportedOperationException("Class="+</text><text fill="#000000" font-family="sans-serif" font-size="12" lengthAdjust="spacing" textLength="73" x="21" y="965.5918">getClass());</text><ellipse cx="191.5" cy="1009.4219" fill="none" rx="11" ry="11" style="stroke:#222222;stroke-width:1.0;"/><ellipse cx="191.5" cy="1009.4219" fill="#222222" rx="6" ry="6" style="stroke:#111111;stroke-width:1.0;"/><ellipse cx="191.5" cy="1040.4219" fill="none" rx="10" ry="10" style="stroke:#222222;stroke-width:1.5;"/><line style="stroke:#222222;stroke-width:2.5;" x1="185.3128" x2="197.6872" y1="1034.2347" y2="1046.6091"/><line style="stroke:#222222;stroke-width:2.5;" x1="197.6872" x2="185.3128" y1="1034.2347" y2="1046.6091"/><path d="M221.5,1060.4219 L221.5,1068.9883 L201.5,1072.9883 L221.5,1076.9883 L221.5,1085.5547 A0,0 0 0 0 221.5,1085.5547 L527.5,1085.5547 A0,0 0 0 0 527.5,1085.5547 L527.5,1070.4219 L517.5,1060.4219 L221.5,1060.4219 A0,0 0 0 0 221.5,1060.4219 " fill="#FEFFDD" style="stroke:#181818;stroke-width:0.5;"/><path d="M517.5,1060.4219 L517.5,1070.4219 L527.5,1070.4219 L517.5,1060.4219 " fill="#FEFFDD" style="stroke:#181818;stroke-width:0.5;"/><text fill="#000000" font-family="sans-serif" font-size="13" lengthAdjust="spacing" textLength="285" x="227.5" y="1077.4888">HorizontalAlignmentasHorizontalAlignment()</text><ellipse cx="191.5" cy="1072.9883" fill="#222222" rx="10" ry="10" style="stroke:#222222;stroke-width:1.0;"/><rect fill="#F1F1F1" height="47.9375" rx="12.5" ry="12.5" style="stroke:#181818;stroke-width:0.5;" width="361" x="11" y="1105.5547"/><text fill="#000000" font-family="sans-serif" font-size="12" lengthAdjust="spacing" textLength="341" x="21" y="1126.6934">throw new UnsupportedOperationException("Class="+</text><text fill="#000000" font-family="sans-serif" font-size="12" lengthAdjust="spacing" textLength="73" x="21" y="1140.6621">getClass());</text><ellipse cx="191.5" cy="1184.4922" fill="none" rx="11" ry="11" style="stroke:#222222;stroke-width:1.0;"/><ellipse cx="191.5" cy="1184.4922" fill="#222222" rx="6" ry="6" style="stroke:#111111;stroke-width:1.0;"/><ellipse cx="191.5" cy="1215.4922" fill="none" rx="10" ry="10" style="stroke:#222222;stroke-width:1.5;"/><line style="stroke:#222222;stroke-width:2.5;" x1="185.3128" x2="197.6872" y1="1209.305" y2="1221.6794"/><line style="stroke:#222222;stroke-width:2.5;" x1="197.6872" x2="185.3128" y1="1209.305" y2="1221.6794"/><path d="M221.5,1235.4922 L221.5,1244.0586 L201.5,1248.0586 L221.5,1252.0586 L221.5,1260.625 A0,0 0 0 0 221.5,1260.625 L333.5,1260.625 A0,0 0 0 0 333.5,1260.625 L333.5,1245.4922 L323.5,1235.4922 L221.5,1235.4922 A0,0 0 0 0 221.5,1235.4922 " fill="#FEFFDD" style="stroke:#181818;stroke-width:0.5;"/><path d="M323.5,1235.4922 L323.5,1245.4922 L333.5,1245.4922 L323.5,1235.4922 " fill="#FEFFDD" style="stroke:#181818;stroke-width:0.5;"/><text fill="#000000" font-family="sans-serif" font-size="13" lengthAdjust="spacing" textLength="91" x="227.5" y="1252.5591">intgetPriority()</text><ellipse cx="191.5" cy="1248.0586" fill="#222222" rx="10" ry="10" style="stroke:#222222;stroke-width:1.0;"/><rect fill="#F1F1F1" height="47.9375" rx="12.5" ry="12.5" style="stroke:#181818;stroke-width:0.5;" width="361" x="11" y="1280.625"/><text fill="#000000" font-family="sans-serif" font-size="12" lengthAdjust="spacing" textLength="341" x="21" y="1301.7637">throw new UnsupportedOperationException("Class="+</text><text fill="#000000" font-family="sans-serif" font-size="12" lengthAdjust="spacing" textLength="73" x="21" y="1315.7324">getClass());</text><ellipse cx="191.5" cy="1359.5625" fill="none" rx="11" ry="11" style="stroke:#222222;stroke-width:1.0;"/><ellipse cx="191.5" cy="1359.5625" fill="#222222" rx="6" ry="6" style="stroke:#111111;stroke-width:1.0;"/><ellipse cx="191.5" cy="1390.5625" fill="none" rx="10" ry="10" style="stroke:#222222;stroke-width:1.5;"/><line style="stroke:#222222;stroke-width:2.5;" x1="185.3128" x2="197.6872" y1="1384.3753" y2="1396.7497"/><line style="stroke:#222222;stroke-width:2.5;" x1="197.6872" x2="185.3128" y1="1384.3753" y2="1396.7497"/><line style="stroke:#181818;stroke-width:1.0;" x1="191.5" x2="191.5" y1="32.5664" y2="55.1328"/><polygon fill="#181818" points="187.5,45.1328,191.5,55.1328,195.5,45.1328,191.5,49.1328" style="stroke:#181818;stroke-width:1.0;"/><line style="stroke:#181818;stroke-width:1.0;" x1="191.5" x2="191.5" y1="103.0703" y2="123.0703"/><polygon fill="#181818" points="187.5,113.0703,191.5,123.0703,195.5,113.0703,191.5,117.0703" style="stroke:#181818;stroke-width:1.0;"/><line style="stroke:#181818;stroke-width:1.0;" x1="191.5" x2="191.5" y1="207.6367" y2="230.2031"/><polygon fill="#181818" points="187.5,220.2031,191.5,230.2031,195.5,220.2031,191.5,224.2031" style="stroke:#181818;stroke-width:1.0;"/><line style="stroke:#181818;stroke-width:1.0;" x1="191.5" x2="191.5" y1="278.1406" y2="298.1406"/><polygon fill="#181818" points="187.5,288.1406,191.5,298.1406,195.5,288.1406,191.5,292.1406" style="stroke:#181818;stroke-width:1.0;"/><line style="stroke:#181818;stroke-width:1.0;" x1="191.5" x2="191.5" y1="382.707" y2="405.2734"/><polygon fill="#181818" points="187.5,395.2734,191.5,405.2734,195.5,395.2734,191.5,399.2734" style="stroke:#181818;stroke-width:1.0;"/><line style="stroke:#181818;stroke-width:1.0;" x1="191.5" x2="191.5" y1="453.2109" y2="473.2109"/><polygon fill="#181818" points="187.5,463.2109,191.5,473.2109,195.5,463.2109,191.5,467.2109" style="stroke:#181818;stroke-width:1.0;"/><line style="stroke:#181818;stroke-width:1.0;" x1="191.5" x2="191.5" y1="557.7773" y2="580.3438"/><polygon fill="#181818" points="187.5,570.3438,191.5,580.3438,195.5,570.3438,191.5,574.3438" style="stroke:#181818;stroke-width:1.0;"/><line style="stroke:#181818;stroke-width:1.0;" x1="191.5" x2="191.5" y1="628.2813" y2="648.2813"/><polygon fill="#181818" points="187.5,638.2813,191.5,648.2813,195.5,638.2813,191.5,642.2813" style="stroke:#181818;stroke-width:1.0;"/><line style="stroke:#181818;stroke-width:1.0;" x1="191.5" x2="191.5" y1="732.8477" y2="755.4141"/><polygon fill="#181818" points="187.5,745.4141,191.5,755.4141,195.5,745.4141,191.5,749.4141" style="stroke:#181818;stroke-width:1.0;"/><line style="stroke:#181818;stroke-width:1.0;" x1="191.5" x2="191.5" y1="803.3516" y2="823.3516"/><polygon fill="#181818" points="187.5,813.3516,191.5,823.3516,195.5,813.3516,191.5,817.3516" style="stroke:#181818;stroke-width:1.0;"/><line style="stroke:#181818;stroke-width:1.0;" x1="191.5" x2="191.5" y1="907.918" y2="930.4844"/><polygon fill="#181818" points="187.5,920.4844,191.5,930.4844,195.5,920.4844,191.5,924.4844" style="stroke:#181818;stroke-width:1.0;"/><line style="stroke:#181818;stroke-width:1.0;" x1="191.5" x2="191.5" y1="978.4219" y2="998.4219"/><polygon fill="#181818" points="187.5,988.4219,191.5,998.4219,195.5,988.4219,191.5,992.4219" style="stroke:#181818;stroke-width:1.0;"/><line style="stroke:#181818;stroke-width:1.0;" x1="191.5" x2="191.5" y1="1082.9883" y2="1105.5547"/><polygon fill="#181818" points="187.5,1095.5547,191.5,1105.5547,195.5,1095.5547,191.5,1099.5547" style="stroke:#181818;stroke-width:1.0;"/><line style="stroke:#181818;stroke-width:1.0;" x1="191.5" x2="191.5" y1="1153.4922" y2="1173.4922"/><polygon fill="#181818" points="187.5,1163.4922,191.5,1173.4922,195.5,1163.4922,191.5,1167.4922" style="stroke:#181818;stroke-width:1.0;"/><line style="stroke:#181818;stroke-width:1.0;" x1="191.5" x2="191.5" y1="1258.0586" y2="1280.625"/><polygon fill="#181818" points="187.5,1270.625,191.5,1280.625,195.5,1270.625,191.5,1274.625" style="stroke:#181818;stroke-width:1.0;"/><line style="stroke:#181818;stroke-width:1.0;" x1="191.5" x2="191.5" y1="1328.5625" y2="1348.5625"/><polygon fill="#181818" points="187.5,1338.5625,191.5,1348.5625,195.5,1338.5625,191.5,1342.5625" style="stroke:#181818;stroke-width:1.0;"/><!--MD5=[ee4ca79f3729a69a70a69b0a2c614d69]
@startuml
!pragma layout smetana
start
note right
StringasString()
end note
:throw new UnsupportedOperationException("Class="+
getClass());;
stop
end
start
note right
HColorasColor(HColorSetset)
end note
:throw new UnsupportedOperationException("Class="+
getClass());;
stop
end
start
note right
intasInt()
end note
:throw new UnsupportedOperationException("Class="+
getClass());;
stop
end
start
note right
doubleasDouble()
end note
:throw new UnsupportedOperationException("Class="+
getClass());;
stop
end
start
note right
booleanasBoolean()
end note
:throw new UnsupportedOperationException("Class="+
getClass());;
stop
end
start
note right
intasFontStyle()
end note
:throw new UnsupportedOperationException("Class="+
getClass());;
stop
end
start
note right
HorizontalAlignmentasHorizontalAlignment()
end note
:throw new UnsupportedOperationException("Class="+
getClass());;
stop
end
start
note right
intgetPriority()
end note
:throw new UnsupportedOperationException("Class="+
getClass());;
stop
end
@enduml

PlantUML version 1.2022.7(Mon Aug 22 17:01:30 UTC 2022)
(GPL source distribution)
Java Runtime: OpenJDK Runtime Environment
JVM: OpenJDK 64-Bit Server VM
Default Encoding: UTF-8
Language: en
Country: null
--></g></svg>