<?xml version="1.0" encoding="UTF-8" standalone="no"?><svg xmlns="http://www.w3.org/2000/svg" xmlns:xlink="http://www.w3.org/1999/xlink" contentStyleType="text/css" height="1495px" preserveAspectRatio="none" style="width:1306px;height:1495px;background:#FFFFFF;" version="1.1" viewBox="0 0 1306 1495" width="1306px" zoomAndPan="magnify"><defs/><g><path d="M686,10 L686,33.6992 L666,37.6992 L686,41.6992 L686,65.3984 A0,0 0 0 0 686,65.3984 L1112,65.3984 A0,0 0 0 0 1112,65.3984 L1112,20 L1102,10 L686,10 A0,0 0 0 0 686,10 " fill="#FEFFDD" style="stroke:#181818;stroke-width:0.5;"/><path d="M1102,10 L1102,20 L1112,20 L1102,10 " fill="#FEFFDD" style="stroke:#181818;stroke-width:0.5;"/><text fill="#000000" font-family="sans-serif" font-size="13" lengthAdjust="spacing" textLength="358" x="692" y="27.0669">constructor CodeIteratorProcedure(CodeIterator source,</text><text fill="#000000" font-family="sans-serif" font-size="13" lengthAdjust="spacing" textLength="405" x="692" y="42.1997">TContext context,TMemory memory,FunctionsSet functionsSet,</text><text fill="#000000" font-family="sans-serif" font-size="13" lengthAdjust="spacing" textLength="168" x="692" y="57.3325">List&lt;StringLocated&gt; logs)</text><ellipse cx="656" cy="37.6992" fill="#222222" rx="10" ry="10" style="stroke:#222222;stroke-width:1.0;"/><rect fill="#F1F1F1" height="33.9688" rx="12.5" ry="12.5" style="stroke:#181818;stroke-width:0.5;" width="117" x="597.5" y="85.3984"/><text fill="#000000" font-family="sans-serif" font-size="12" lengthAdjust="spacing" textLength="97" x="607.5" y="106.5371">super (source);</text><rect fill="#F1F1F1" height="33.9688" rx="12.5" ry="12.5" style="stroke:#181818;stroke-width:0.5;" width="155" x="578.5" y="139.3672"/><text fill="#000000" font-family="sans-serif" font-size="12" lengthAdjust="spacing" textLength="135" x="588.5" y="160.5059">this.context=context;</text><rect fill="#F1F1F1" height="33.9688" rx="12.5" ry="12.5" style="stroke:#181818;stroke-width:0.5;" width="219" x="546.5" y="193.3359"/><text fill="#000000" font-family="sans-serif" font-size="12" lengthAdjust="spacing" textLength="199" x="556.5" y="214.4746">this.functionsSet=functionsSet;</text><rect fill="#F1F1F1" height="33.9688" rx="12.5" ry="12.5" style="stroke:#181818;stroke-width:0.5;" width="113" x="599.5" y="247.3047"/><text fill="#000000" font-family="sans-serif" font-size="12" lengthAdjust="spacing" textLength="93" x="609.5" y="268.4434">this.logs=logs;</text><rect fill="#F1F1F1" height="33.9688" rx="12.5" ry="12.5" style="stroke:#181818;stroke-width:0.5;" width="159" x="576.5" y="301.2734"/><text fill="#000000" font-family="sans-serif" font-size="12" lengthAdjust="spacing" textLength="139" x="586.5" y="322.4121">this.memory=memory;</text><ellipse cx="656" cy="365.2422" fill="none" rx="10" ry="10" style="stroke:#222222;stroke-width:1.5;"/><line style="stroke:#222222;stroke-width:2.5;" x1="649.8128" x2="662.1872" y1="359.055" y2="371.4294"/><line style="stroke:#222222;stroke-width:2.5;" x1="662.1872" x2="649.8128" y1="359.055" y2="371.4294"/><path d="M686,385.2422 L686,393.8086 L666,397.8086 L686,401.8086 L686,410.375 A0,0 0 0 0 686,410.375 L841,410.375 A0,0 0 0 0 841,410.375 L841,395.2422 L831,385.2422 L686,385.2422 A0,0 0 0 0 686,385.2422 " fill="#FEFFDD" style="stroke:#181818;stroke-width:0.5;"/><path d="M831,385.2422 L831,395.2422 L841,395.2422 L831,385.2422 " fill="#FEFFDD" style="stroke:#181818;stroke-width:0.5;"/><text fill="#000000" font-family="sans-serif" font-size="13" lengthAdjust="spacing" textLength="134" x="692" y="402.3091">StringLocated peek()</text><ellipse cx="656" cy="397.8086" fill="#222222" rx="10" ry="10" style="stroke:#222222;stroke-width:1.0;"/><rect fill="#F1F1F1" height="33.9688" rx="12.5" ry="12.5" style="stroke:#181818;stroke-width:0.5;" width="279" x="516.5" y="474.375"/><text fill="#000000" font-family="sans-serif" font-size="12" lengthAdjust="spacing" textLength="259" x="526.5" y="495.5137">final StringLocated result=source.peek();</text><rect fill="#F1F1F1" height="33.9688" rx="12.5" ry="12.5" style="stroke:#181818;stroke-width:0.5;" width="93" x="609.5" y="576.7461"/><text fill="#000000" font-family="sans-serif" font-size="12" lengthAdjust="spacing" textLength="73" x="619.5" y="597.8848">return null ;</text><ellipse cx="656" cy="650.2305" fill="none" rx="11" ry="11" style="stroke:#222222;stroke-width:1.0;"/><ellipse cx="656" cy="650.2305" fill="#222222" rx="6" ry="6" style="stroke:#111111;stroke-width:1.0;"/><polygon fill="#F1F1F1" points="618.5,528.3438,693.5,528.3438,705.5,540.3438,693.5,552.3438,618.5,552.3438,606.5,540.3438,618.5,528.3438" style="stroke:#181818;stroke-width:0.5;"/><text fill="#000000" font-family="sans-serif" font-size="11" lengthAdjust="spacing" textLength="20" x="660" y="562.5542">yes</text><text fill="#000000" font-family="sans-serif" font-size="11" lengthAdjust="spacing" textLength="71" x="618.5" y="544.1519">result==null</text><rect fill="#F1F1F1" height="33.9688" rx="12.5" ry="12.5" style="stroke:#181818;stroke-width:0.5;" width="124" x="594" y="751.6328"/><text fill="#000000" font-family="sans-serif" font-size="12" lengthAdjust="spacing" textLength="104" x="604" y="772.7715">logs.add(result);</text><polygon fill="#F1F1F1" points="528.5,805.6016,783.5,805.6016,795.5,817.6016,783.5,829.6016,528.5,829.6016,516.5,817.6016,528.5,805.6016" style="stroke:#181818;stroke-width:0.5;"/><text fill="#000000" font-family="sans-serif" font-size="11" lengthAdjust="spacing" textLength="255" x="528.5" y="821.4097">result.getType()==TLineType.END_FUNCTION</text><text fill="#000000" font-family="sans-serif" font-size="11" lengthAdjust="spacing" textLength="20" x="496.5" y="815.0073">yes</text><text fill="#000000" font-family="sans-serif" font-size="11" lengthAdjust="spacing" textLength="14" x="795.5" y="815.0073">no</text><rect fill="#F1F1F1" height="33.9688" rx="12.5" ry="12.5" style="stroke:#181818;stroke-width:0.5;" width="242" x="383" y="839.6016"/><text fill="#000000" font-family="sans-serif" font-size="12" lengthAdjust="spacing" textLength="222" x="393" y="860.7402">functionsSet.executeEndfunction();</text><rect fill="#F1F1F1" height="33.9688" rx="12.5" ry="12.5" style="stroke:#181818;stroke-width:0.5;" width="326" x="645" y="839.6016"/><text fill="#000000" font-family="sans-serif" font-size="12" lengthAdjust="spacing" textLength="306" x="655" y="860.7402">functionsSet.pendingFunction().addBody(result);</text><polygon fill="#F1F1F1" points="656,879.5703,668,891.5703,656,903.5703,644,891.5703,656,879.5703" style="stroke:#181818;stroke-width:0.5;"/><rect fill="#F1F1F1" height="33.9688" rx="12.5" ry="12.5" style="stroke:#181818;stroke-width:0.5;" width="61" x="625.5" y="923.5703"/><text fill="#000000" font-family="sans-serif" font-size="12" lengthAdjust="spacing" textLength="41" x="635.5" y="944.709">next();</text><rect fill="#F1F1F1" height="33.9688" rx="12.5" ry="12.5" style="stroke:#181818;stroke-width:0.5;" width="83" x="614.5" y="977.5391"/><text fill="#000000" font-family="sans-serif" font-size="12" lengthAdjust="spacing" textLength="63" x="624.5" y="998.6777">continue ;</text><polygon fill="#F1F1F1" points="56,703.2305,1256,703.2305,1268,715.2305,1256,727.2305,56,727.2305,44,715.2305,56,703.2305" style="stroke:#181818;stroke-width:0.5;"/><text fill="#000000" font-family="sans-serif" font-size="11" lengthAdjust="spacing" textLength="20" x="660" y="737.4409">yes</text><text fill="#000000" font-family="sans-serif" font-size="11" lengthAdjust="spacing" textLength="1200" x="56" y="719.0386">functionsSet.pendingFunction()!=null &amp;&amp;(functionsSet.pendingFunction().getFunctionType()==TFunctionType.PROCEDURE||functionsSet.pendingFunction().getFunctionType()==TFunctionType.LEGACY_DEFINELONG)</text><polygon fill="#F1F1F1" points="656,1031.5078,668,1043.5078,656,1055.5078,644,1043.5078,656,1031.5078" style="stroke:#181818;stroke-width:0.5;"/><rect fill="#F1F1F1" height="33.9688" rx="12.5" ry="12.5" style="stroke:#181818;stroke-width:0.5;" width="124" x="594" y="1123.9102"/><text fill="#000000" font-family="sans-serif" font-size="12" lengthAdjust="spacing" textLength="104" x="604" y="1145.0488">logs.add(result);</text><rect fill="#F1F1F1" height="47.9375" rx="12.5" ry="12.5" style="stroke:#181818;stroke-width:0.5;" width="322" x="495" y="1177.8789"/><text fill="#000000" font-family="sans-serif" font-size="12" lengthAdjust="spacing" textLength="302" x="505" y="1199.0176">functionsSet.executeDeclareProcedure(context,</text><text fill="#000000" font-family="sans-serif" font-size="12" lengthAdjust="spacing" textLength="98" x="505" y="1212.9863">memory,result);</text><rect fill="#F1F1F1" height="33.9688" rx="12.5" ry="12.5" style="stroke:#181818;stroke-width:0.5;" width="61" x="625.5" y="1256.332"/><text fill="#000000" font-family="sans-serif" font-size="12" lengthAdjust="spacing" textLength="41" x="635.5" y="1277.4707">next();</text><rect fill="#F1F1F1" height="33.9688" rx="12.5" ry="12.5" style="stroke:#181818;stroke-width:0.5;" width="83" x="614.5" y="1310.3008"/><text fill="#000000" font-family="sans-serif" font-size="12" lengthAdjust="spacing" textLength="63" x="624.5" y="1331.4395">continue ;</text><polygon fill="#F1F1F1" points="509.5,1075.5078,802.5,1075.5078,814.5,1087.5078,802.5,1099.5078,509.5,1099.5078,497.5,1087.5078,509.5,1075.5078" style="stroke:#181818;stroke-width:0.5;"/><text fill="#000000" font-family="sans-serif" font-size="11" lengthAdjust="spacing" textLength="20" x="660" y="1109.7183">yes</text><text fill="#000000" font-family="sans-serif" font-size="11" lengthAdjust="spacing" textLength="293" x="509.5" y="1091.3159">result.getType()==TLineType.DECLARE_PROCEDURE</text><polygon fill="#F1F1F1" points="656,1364.2695,668,1376.2695,656,1388.2695,644,1376.2695,656,1364.2695" style="stroke:#181818;stroke-width:0.5;"/><rect fill="#F1F1F1" height="33.9688" rx="12.5" ry="12.5" style="stroke:#181818;stroke-width:0.5;" width="103" x="604.5" y="1408.2695"/><text fill="#000000" font-family="sans-serif" font-size="12" lengthAdjust="spacing" textLength="83" x="614.5" y="1429.4082">return result;</text><ellipse cx="656" cy="1473.2383" fill="none" rx="11" ry="11" style="stroke:#222222;stroke-width:1.0;"/><ellipse cx="656" cy="1473.2383" fill="#222222" rx="6" ry="6" style="stroke:#111111;stroke-width:1.0;"/><polygon fill="#F1F1F1" points="644,430.375,668,430.375,680,442.375,668,454.375,644,454.375,632,442.375,644,430.375" style="stroke:#181818;stroke-width:0.5;"/><text fill="#000000" font-family="sans-serif" font-size="11" lengthAdjust="spacing" textLength="23" x="644.5" y="446.1831">true</text><ellipse cx="24" cy="484.375" fill="none" rx="10" ry="10" style="stroke:#222222;stroke-width:1.5;"/><line style="stroke:#222222;stroke-width:2.5;" x1="17.8128" x2="30.1872" y1="478.1878" y2="490.5622"/><line style="stroke:#222222;stroke-width:2.5;" x1="30.1872" x2="17.8128" y1="478.1878" y2="490.5622"/><line style="stroke:#181818;stroke-width:1.0;" x1="656" x2="656" y1="47.6992" y2="85.3984"/><polygon fill="#181818" points="652,75.3984,656,85.3984,660,75.3984,656,79.3984" style="stroke:#181818;stroke-width:1.0;"/><line style="stroke:#181818;stroke-width:1.0;" x1="656" x2="656" y1="119.3672" y2="139.3672"/><polygon fill="#181818" points="652,129.3672,656,139.3672,660,129.3672,656,133.3672" style="stroke:#181818;stroke-width:1.0;"/><line style="stroke:#181818;stroke-width:1.0;" x1="656" x2="656" y1="173.3359" y2="193.3359"/><polygon fill="#181818" points="652,183.3359,656,193.3359,660,183.3359,656,187.3359" style="stroke:#181818;stroke-width:1.0;"/><line style="stroke:#181818;stroke-width:1.0;" x1="656" x2="656" y1="227.3047" y2="247.3047"/><polygon fill="#181818" points="652,237.3047,656,247.3047,660,237.3047,656,241.3047" style="stroke:#181818;stroke-width:1.0;"/><line style="stroke:#181818;stroke-width:1.0;" x1="656" x2="656" y1="281.2734" y2="301.2734"/><polygon fill="#181818" points="652,291.2734,656,301.2734,660,291.2734,656,295.2734" style="stroke:#181818;stroke-width:1.0;"/><line style="stroke:#181818;stroke-width:1.0;" x1="656" x2="656" y1="335.2422" y2="355.2422"/><polygon fill="#181818" points="652,345.2422,656,355.2422,660,345.2422,656,349.2422" style="stroke:#181818;stroke-width:1.0;"/><line style="stroke:#181818;stroke-width:1.0;" x1="656" x2="656" y1="610.7148" y2="639.2305"/><polygon fill="#181818" points="652,629.2305,656,639.2305,660,629.2305,656,633.2305" style="stroke:#181818;stroke-width:1.0;"/><line style="stroke:#181818;stroke-width:1.0;" x1="656" x2="656" y1="552.3438" y2="576.7461"/><polygon fill="#181818" points="652,566.7461,656,576.7461,660,566.7461,656,570.7461" style="stroke:#181818;stroke-width:1.0;"/><line style="stroke:#181818;stroke-width:1.0;" x1="705.5" x2="717.5" y1="540.3438" y2="540.3438"/><polygon fill="#181818" points="713.5,609.2305,717.5,619.2305,721.5,609.2305,717.5,613.2305" style="stroke:#181818;stroke-width:1.0;"/><line style="stroke:#181818;stroke-width:1.0;" x1="717.5" x2="717.5" y1="540.3438" y2="683.2305"/><line style="stroke:#181818;stroke-width:1.0;" x1="717.5" x2="656" y1="683.2305" y2="683.2305"/><line style="stroke:#181818;stroke-width:1.0;" x1="656" x2="656" y1="683.2305" y2="703.2305"/><polygon fill="#181818" points="652,693.2305,656,703.2305,660,693.2305,656,697.2305" style="stroke:#181818;stroke-width:1.0;"/><line style="stroke:#181818;stroke-width:1.0;" x1="656" x2="656" y1="508.3438" y2="528.3438"/><polygon fill="#181818" points="652,518.3438,656,528.3438,660,518.3438,656,522.3438" style="stroke:#181818;stroke-width:1.0;"/><line style="stroke:#181818;stroke-width:1.0;" x1="516.5" x2="504" y1="817.6016" y2="817.6016"/><line style="stroke:#181818;stroke-width:1.0;" x1="504" x2="504" y1="817.6016" y2="839.6016"/><polygon fill="#181818" points="500,829.6016,504,839.6016,508,829.6016,504,833.6016" style="stroke:#181818;stroke-width:1.0;"/><line style="stroke:#181818;stroke-width:1.0;" x1="795.5" x2="808" y1="817.6016" y2="817.6016"/><line style="stroke:#181818;stroke-width:1.0;" x1="808" x2="808" y1="817.6016" y2="839.6016"/><polygon fill="#181818" points="804,829.6016,808,839.6016,812,829.6016,808,833.6016" style="stroke:#181818;stroke-width:1.0;"/><line style="stroke:#181818;stroke-width:1.0;" x1="504" x2="504" y1="873.5703" y2="891.5703"/><line style="stroke:#181818;stroke-width:1.0;" x1="504" x2="644" y1="891.5703" y2="891.5703"/><polygon fill="#181818" points="634,887.5703,644,891.5703,634,895.5703,638,891.5703" style="stroke:#181818;stroke-width:1.0;"/><line style="stroke:#181818;stroke-width:1.0;" x1="808" x2="808" y1="873.5703" y2="891.5703"/><line style="stroke:#181818;stroke-width:1.0;" x1="808" x2="668" y1="891.5703" y2="891.5703"/><polygon fill="#181818" points="678,887.5703,668,891.5703,678,895.5703,674,891.5703" style="stroke:#181818;stroke-width:1.0;"/><line style="stroke:#181818;stroke-width:1.0;" x1="656" x2="656" y1="785.6016" y2="805.6016"/><polygon fill="#181818" points="652,795.6016,656,805.6016,660,795.6016,656,799.6016" style="stroke:#181818;stroke-width:1.0;"/><line style="stroke:#181818;stroke-width:1.0;" x1="656" x2="656" y1="903.5703" y2="923.5703"/><polygon fill="#181818" points="652,913.5703,656,923.5703,660,913.5703,656,917.5703" style="stroke:#181818;stroke-width:1.0;"/><line style="stroke:#181818;stroke-width:1.0;" x1="656" x2="656" y1="957.5391" y2="977.5391"/><polygon fill="#181818" points="652,967.5391,656,977.5391,660,967.5391,656,971.5391" style="stroke:#181818;stroke-width:1.0;"/><line style="stroke:#181818;stroke-width:1.0;" x1="656" x2="656" y1="727.2305" y2="751.6328"/><polygon fill="#181818" points="652,741.6328,656,751.6328,660,741.6328,656,745.6328" style="stroke:#181818;stroke-width:1.0;"/><line style="stroke:#181818;stroke-width:1.0;" x1="1268" x2="1280" y1="715.2305" y2="715.2305"/><polygon fill="#181818" points="1276,879.0703,1280,889.0703,1284,879.0703,1280,883.0703" style="stroke:#181818;stroke-width:1.0;"/><line style="stroke:#181818;stroke-width:1.0;" x1="1280" x2="1280" y1="715.2305" y2="1043.5078"/><line style="stroke:#181818;stroke-width:1.0;" x1="1280" x2="668" y1="1043.5078" y2="1043.5078"/><polygon fill="#181818" points="678,1039.5078,668,1043.5078,678,1047.5078,674,1043.5078" style="stroke:#181818;stroke-width:1.0;"/><line style="stroke:#181818;stroke-width:1.0;" x1="656" x2="656" y1="1011.5078" y2="1031.5078"/><polygon fill="#181818" points="652,1021.5078,656,1031.5078,660,1021.5078,656,1025.5078" style="stroke:#181818;stroke-width:1.0;"/><line style="stroke:#181818;stroke-width:1.0;" x1="656" x2="656" y1="1157.8789" y2="1177.8789"/><polygon fill="#181818" points="652,1167.8789,656,1177.8789,660,1167.8789,656,1171.8789" style="stroke:#181818;stroke-width:1.0;"/><line style="stroke:#181818;stroke-width:1.0;" x1="656" x2="656" y1="1225.8164" y2="1256.332"/><polygon fill="#181818" points="652,1246.332,656,1256.332,660,1246.332,656,1250.332" style="stroke:#181818;stroke-width:1.0;"/><line style="stroke:#181818;stroke-width:1.0;" x1="656" x2="656" y1="1290.3008" y2="1310.3008"/><polygon fill="#181818" points="652,1300.3008,656,1310.3008,660,1300.3008,656,1304.3008" style="stroke:#181818;stroke-width:1.0;"/><line style="stroke:#181818;stroke-width:1.0;" x1="656" x2="656" y1="1099.5078" y2="1123.9102"/><polygon fill="#181818" points="652,1113.9102,656,1123.9102,660,1113.9102,656,1117.9102" style="stroke:#181818;stroke-width:1.0;"/><line style="stroke:#181818;stroke-width:1.0;" x1="814.5" x2="827" y1="1087.5078" y2="1087.5078"/><polygon fill="#181818" points="823,1226.332,827,1236.332,831,1226.332,827,1230.332" style="stroke:#181818;stroke-width:1.0;"/><line style="stroke:#181818;stroke-width:1.0;" x1="827" x2="827" y1="1087.5078" y2="1376.2695"/><line style="stroke:#181818;stroke-width:1.0;" x1="827" x2="668" y1="1376.2695" y2="1376.2695"/><polygon fill="#181818" points="678,1372.2695,668,1376.2695,678,1380.2695,674,1376.2695" style="stroke:#181818;stroke-width:1.0;"/><line style="stroke:#181818;stroke-width:1.0;" x1="656" x2="656" y1="1344.2695" y2="1364.2695"/><polygon fill="#181818" points="652,1354.2695,656,1364.2695,660,1354.2695,656,1358.2695" style="stroke:#181818;stroke-width:1.0;"/><line style="stroke:#181818;stroke-width:1.0;" x1="656" x2="656" y1="1055.5078" y2="1075.5078"/><polygon fill="#181818" points="652,1065.5078,656,1075.5078,660,1065.5078,656,1069.5078" style="stroke:#181818;stroke-width:1.0;"/><line style="stroke:#181818;stroke-width:1.0;" x1="656" x2="656" y1="1388.2695" y2="1408.2695"/><polygon fill="#181818" points="652,1398.2695,656,1408.2695,660,1398.2695,656,1402.2695" style="stroke:#181818;stroke-width:1.0;"/><line style="stroke:#181818;stroke-width:1.0;" x1="656" x2="656" y1="1442.2383" y2="1462.2383"/><polygon fill="#181818" points="652,1452.2383,656,1462.2383,660,1452.2383,656,1456.2383" style="stroke:#181818;stroke-width:1.0;"/><line style="stroke:#181818;stroke-width:1.0;" x1="656" x2="656" y1="454.375" y2="474.375"/><polygon fill="#181818" points="652,464.375,656,474.375,660,464.375,656,468.375" style="stroke:#181818;stroke-width:1.0;"/><line style="stroke:#181818;stroke-width:1.0;" x1="632" x2="24" y1="442.375" y2="442.375"/><line style="stroke:#181818;stroke-width:1.0;" x1="24" x2="24" y1="442.375" y2="474.375"/><polygon fill="#181818" points="20,464.375,24,474.375,28,464.375,24,468.375" style="stroke:#181818;stroke-width:1.0;"/><line style="stroke:#181818;stroke-width:1.0;" x1="656" x2="656" y1="407.8086" y2="430.375"/><polygon fill="#181818" points="652,420.375,656,430.375,660,420.375,656,424.375" style="stroke:#181818;stroke-width:1.0;"/><!--MD5=[01bab4fd4e8b8fe12144613f49a90e21]
@startuml
!pragma layout smetana
start
note right
constructor CodeIteratorProcedure(CodeIterator source,
TContext context,TMemory memory,FunctionsSet functionsSet,
List<StringLocated> logs)
end note
:super (source);;
:this.context=context;;
:this.functionsSet=functionsSet;;
:this.logs=logs;;
:this.memory=memory;;
end
start
note right
StringLocated peek()
end note
while (true)
:final StringLocated result=source.peek();;
if (result==null ) then (yes) 
:return null ;;
stop
endif 
if (functionsSet.pendingFunction()!=null &&(functionsSet.pendingFunction().getFunctionType()==TFunctionType.PROCEDURE||functionsSet.pendingFunction().getFunctionType()==TFunctionType.LEGACY_DEFINELONG)) then (yes) 
:logs.add(result);;
if (result.getType()==TLineType.END_FUNCTION) then (yes) 
:functionsSet.executeEndfunction();;
else (no)
:functionsSet.pendingFunction().addBody(result);;
endif 
:next();;
:continue ;;
endif 
if (result.getType()==TLineType.DECLARE_PROCEDURE) then (yes) 
:logs.add(result);;
:functionsSet.executeDeclareProcedure(context,
memory,result);;
:next();;
:continue ;;
endif 
:return result;;
stop
endwhile
end
@enduml

PlantUML version 1.2022.7(Mon Aug 22 17:01:30 UTC 2022)
(GPL source distribution)
Java Runtime: OpenJDK Runtime Environment
JVM: OpenJDK 64-Bit Server VM
Default Encoding: UTF-8
Language: en
Country: null
--></g></svg>