<?xml version="1.0" encoding="UTF-8" standalone="no"?><svg xmlns="http://www.w3.org/2000/svg" xmlns:xlink="http://www.w3.org/1999/xlink" contentStyleType="text/css" height="236px" preserveAspectRatio="none" style="width:270px;height:236px;background:#FFFFFF;" version="1.1" viewBox="0 0 270 236" width="270px" zoomAndPan="magnify"><defs/><g><!--MD5=[aa8f7b917213fcc1c2766e2d59b49067]
cluster java.lang--><g id="cluster_java.lang"><path d="M89.5,6 L159.5,6 A3.75,3.75 0 0 1 162,8.5 L169,28.2969 L178.5,28.2969 A2.5,2.5 0 0 1 181,30.7969 L181,86.5 A2.5,2.5 0 0 1 178.5,89 L89.5,89 A2.5,2.5 0 0 1 87,86.5 L87,8.5 A2.5,2.5 0 0 1 89.5,6 " fill="none" style="stroke:#000000;stroke-width:1.5;"/><line style="stroke:#000000;stroke-width:1.5;" x1="87" x2="169" y1="28.2969" y2="28.2969"/><text fill="#000000" font-family="sans-serif" font-size="14" font-weight="bold" lengthAdjust="spacing" textLength="69" x="91" y="20.9951">java.lang</text></g><!--MD5=[45735fae0554ad249cf0fc0d587c9514]
cluster net.sourceforge.plantuml.jasic--><g id="cluster_net.sourceforge.plantuml.jasic"><path d="M8.5,97 L250.5,97 A3.75,3.75 0 0 1 253,99.5 L260,119.2969 L260.5,119.2969 A2.5,2.5 0 0 1 263,121.7969 L263,226.5 A2.5,2.5 0 0 1 260.5,229 L8.5,229 A2.5,2.5 0 0 1 6,226.5 L6,99.5 A2.5,2.5 0 0 1 8.5,97 " fill="none" style="stroke:#000000;stroke-width:1.5;"/><line style="stroke:#000000;stroke-width:1.5;" x1="6" x2="260" y1="119.2969" y2="119.2969"/><text fill="#000000" font-family="sans-serif" font-size="14" font-weight="bold" lengthAdjust="spacing" textLength="241" x="10" y="111.9951">net.sourceforge.plantuml.jasic</text></g><!--MD5=[274ad5661286b626a93603d287cbf95a]
class java.lang.Object--><g id="elem_java.lang.Object"><rect fill="#F1F1F1" height="48" id="java.lang.Object" rx="2.5" ry="2.5" style="stroke:#181818;stroke-width:0.5;" width="77" x="95.5" y="33"/><ellipse cx="110.5" cy="49" fill="#ADD1B2" rx="11" ry="11" style="stroke:#181818;stroke-width:1.0;"/><path d="M113.4688,54.6406 Q112.8906,54.9375 112.25,55.0781 Q111.6094,55.2344 110.9063,55.2344 Q108.4063,55.2344 107.0781,53.5938 Q105.7656,51.9375 105.7656,48.8125 Q105.7656,45.6875 107.0781,44.0313 Q108.4063,42.375 110.9063,42.375 Q111.6094,42.375 112.25,42.5313 Q112.9063,42.6875 113.4688,42.9844 L113.4688,45.7031 Q112.8438,45.125 112.25,44.8594 Q111.6563,44.5781 111.0313,44.5781 Q109.6875,44.5781 109,45.6563 Q108.3125,46.7188 108.3125,48.8125 Q108.3125,50.9063 109,51.9844 Q109.6875,53.0469 111.0313,53.0469 Q111.6563,53.0469 112.25,52.7813 Q112.8438,52.5 113.4688,51.9219 L113.4688,54.6406 Z " fill="#000000"/><text fill="#000000" font-family="sans-serif" font-size="14" lengthAdjust="spacing" textLength="45" x="124.5" y="53.8467">Object</text><line style="stroke:#181818;stroke-width:0.5;" x1="96.5" x2="171.5" y1="65" y2="65"/><line style="stroke:#181818;stroke-width:0.5;" x1="96.5" x2="171.5" y1="73" y2="73"/></g><!--MD5=[e9f42f4f3609b2a144131f7a64790d45]
class net.sourceforge.plantuml.jasic.Jasic--><g id="elem_net.sourceforge.plantuml.jasic.Jasic"><rect codeLine="3" fill="#F1F1F1" height="96.8906" id="net.sourceforge.plantuml.jasic.Jasic" rx="2.5" ry="2.5" style="stroke:#181818;stroke-width:0.5;" width="240" x="14" y="124"/><ellipse cx="114.75" cy="140" fill="#ADD1B2" rx="11" ry="11" style="stroke:#181818;stroke-width:1.0;"/><path d="M117.7188,145.6406 Q117.1406,145.9375 116.5,146.0781 Q115.8594,146.2344 115.1563,146.2344 Q112.6563,146.2344 111.3281,144.5938 Q110.0156,142.9375 110.0156,139.8125 Q110.0156,136.6875 111.3281,135.0313 Q112.6563,133.375 115.1563,133.375 Q115.8594,133.375 116.5,133.5313 Q117.1563,133.6875 117.7188,133.9844 L117.7188,136.7031 Q117.0938,136.125 116.5,135.8594 Q115.9063,135.5781 115.2813,135.5781 Q113.9375,135.5781 113.25,136.6563 Q112.5625,137.7188 112.5625,139.8125 Q112.5625,141.9063 113.25,142.9844 Q113.9375,144.0469 115.2813,144.0469 Q115.9063,144.0469 116.5,143.7813 Q117.0938,143.5 117.7188,142.9219 L117.7188,145.6406 Z " fill="#000000"/><text fill="#000000" font-family="sans-serif" font-size="14" lengthAdjust="spacing" textLength="30" x="135.25" y="144.8467">Jasic</text><line style="stroke:#181818;stroke-width:0.5;" x1="15" x2="253" y1="156" y2="156"/><line style="stroke:#181818;stroke-width:0.5;" x1="15" x2="253" y1="164" y2="164"/><a href="./../../../../../.././qc/src/net/sourceforge/plantuml/jasic/Jasic.java.html#1" target="_top" title="./../../../../../.././qc/src/net/sourceforge/plantuml/jasic/Jasic.java.html#1" xlink:actuate="onRequest" xlink:href="./../../../../../.././qc/src/net/sourceforge/plantuml/jasic/Jasic.java.html#1" xlink:show="new" xlink:title="./../../../../../.././qc/src/net/sourceforge/plantuml/jasic/Jasic.java.html#1" xlink:type="simple"><rect fill="#F1F1F1" height="10" style="stroke:none;stroke-width:1.0;" width="20" x="20" y="172.6484"/><rect fill="#F24D5C" height="6" style="stroke:#C82930;stroke-width:1.0;" width="6" x="22" y="174.6484"/></a><a href="./../../../../../.././qc/src/net/sourceforge/plantuml/jasic/Jasic.java.html#1" target="_top" title="./../../../../../.././qc/src/net/sourceforge/plantuml/jasic/Jasic.java.html#1" xlink:actuate="onRequest" xlink:href="./../../../../../.././qc/src/net/sourceforge/plantuml/jasic/Jasic.java.html#1" xlink:show="new" xlink:title="./../../../../../.././qc/src/net/sourceforge/plantuml/jasic/Jasic.java.html#1" xlink:type="simple"><text fill="#000000" font-family="sans-serif" font-size="14" lengthAdjust="spacing" textLength="214" x="34" y="180.9951">tokenize(String) : List&lt;Token&gt;</text></a><a href="./../../../../../.././qc/src/net/sourceforge/plantuml/jasic/Jasic.java.html#1" target="_top" title="./../../../../../.././qc/src/net/sourceforge/plantuml/jasic/Jasic.java.html#1" xlink:actuate="onRequest" xlink:href="./../../../../../.././qc/src/net/sourceforge/plantuml/jasic/Jasic.java.html#1" xlink:show="new" xlink:title="./../../../../../.././qc/src/net/sourceforge/plantuml/jasic/Jasic.java.html#1" xlink:type="simple"><rect fill="#F1F1F1" height="10" style="stroke:none;stroke-width:1.0;" width="20" x="20" y="188.9453"/><ellipse cx="25" cy="193.9453" fill="#84BE84" rx="3" ry="3" style="stroke:#038048;stroke-width:1.0;"/></a><a href="./../../../../../.././qc/src/net/sourceforge/plantuml/jasic/Jasic.java.html#1" target="_top" title="./../../../../../.././qc/src/net/sourceforge/plantuml/jasic/Jasic.java.html#1" xlink:actuate="onRequest" xlink:href="./../../../../../.././qc/src/net/sourceforge/plantuml/jasic/Jasic.java.html#1" xlink:show="new" xlink:title="./../../../../../.././qc/src/net/sourceforge/plantuml/jasic/Jasic.java.html#1" xlink:type="simple"><text fill="#000000" font-family="sans-serif" font-size="14" lengthAdjust="spacing" textLength="83" x="34" y="197.292">Jasic() : Jasic</text></a><a href="./../../../../../.././qc/src/net/sourceforge/plantuml/jasic/Jasic.java.html#1" target="_top" title="./../../../../../.././qc/src/net/sourceforge/plantuml/jasic/Jasic.java.html#1" xlink:actuate="onRequest" xlink:href="./../../../../../.././qc/src/net/sourceforge/plantuml/jasic/Jasic.java.html#1" xlink:show="new" xlink:title="./../../../../../.././qc/src/net/sourceforge/plantuml/jasic/Jasic.java.html#1" xlink:type="simple"><rect fill="#F1F1F1" height="10" style="stroke:none;stroke-width:1.0;" width="20" x="20" y="205.2422"/><ellipse cx="25" cy="210.2422" fill="#84BE84" rx="3" ry="3" style="stroke:#038048;stroke-width:1.0;"/></a><a href="./../../../../../.././qc/src/net/sourceforge/plantuml/jasic/Jasic.java.html#1" target="_top" title="./../../../../../.././qc/src/net/sourceforge/plantuml/jasic/Jasic.java.html#1" xlink:actuate="onRequest" xlink:href="./../../../../../.././qc/src/net/sourceforge/plantuml/jasic/Jasic.java.html#1" xlink:show="new" xlink:title="./../../../../../.././qc/src/net/sourceforge/plantuml/jasic/Jasic.java.html#1" xlink:type="simple"><text fill="#000000" font-family="sans-serif" font-size="14" lengthAdjust="spacing" textLength="150" x="34" y="213.5889">interpret(String) : void</text></a></g><path d="M134,81.2423 C134,93.5648 134,109.1711 134,123.9272 " fill="none" style="stroke:#181818;stroke-width:1.0;"/><polygon fill="#FFFFFF" points="134,81.2423,128,97.2423,140,97.2423,134,81.2423" style="stroke:#181818;stroke-width:1.0;"/><!--MD5=[a6f023ee70a9c66798b258a852080f80]
@startuml
!pragma layout smetana
"java.lang.Object" <|- - "net.sourceforge.plantuml.jasic.Jasic"
class net.sourceforge.plantuml.jasic.Jasic {
-tokenize(String) : List<Token> [[[./../../../../../.././qc/src/net/sourceforge/plantuml/jasic/Jasic.java.html#1]]]
+Jasic() : Jasic [[[./../../../../../.././qc/src/net/sourceforge/plantuml/jasic/Jasic.java.html#1]]]
+interpret(String) : void [[[./../../../../../.././qc/src/net/sourceforge/plantuml/jasic/Jasic.java.html#1]]]
} 
@enduml

PlantUML version 1.2022.7(Mon Aug 22 17:01:30 UTC 2022)
(GPL source distribution)
Java Runtime: OpenJDK Runtime Environment
JVM: OpenJDK 64-Bit Server VM
Default Encoding: UTF-8
Language: en
Country: null
--></g></svg>