<?xml version="1.0" encoding="UTF-8" standalone="no"?><svg xmlns="http://www.w3.org/2000/svg" xmlns:xlink="http://www.w3.org/1999/xlink" contentStyleType="text/css" height="285px" preserveAspectRatio="none" style="width:623px;height:285px;background:#FFFFFF;" version="1.1" viewBox="0 0 623 285" width="623px" zoomAndPan="magnify"><defs/><g><!--MD5=[aa8f7b917213fcc1c2766e2d59b49067]
cluster java.lang--><g id="cluster_java.lang"><path d="M266.5,6 L336.5,6 A3.75,3.75 0 0 1 339,8.5 L346,28.2969 L355.5,28.2969 A2.5,2.5 0 0 1 358,30.7969 L358,86.5 A2.5,2.5 0 0 1 355.5,89 L266.5,89 A2.5,2.5 0 0 1 264,86.5 L264,8.5 A2.5,2.5 0 0 1 266.5,6 " fill="none" style="stroke:#000000;stroke-width:1.5;"/><line style="stroke:#000000;stroke-width:1.5;" x1="264" x2="346" y1="28.2969" y2="28.2969"/><text fill="#000000" font-family="sans-serif" font-size="14" font-weight="bold" lengthAdjust="spacing" textLength="69" x="268" y="20.9951">java.lang</text></g><!--MD5=[64713e2851ad63a8260a53659df03e84]
cluster jcckit.plot--><g id="cluster_jcckit.plot"><path d="M8.5,97 L85.5,97 A3.75,3.75 0 0 1 88,99.5 L95,119.2969 L613.5,119.2969 A2.5,2.5 0 0 1 616,121.7969 L616,275.5 A2.5,2.5 0 0 1 613.5,278 L8.5,278 A2.5,2.5 0 0 1 6,275.5 L6,99.5 A2.5,2.5 0 0 1 8.5,97 " fill="none" style="stroke:#000000;stroke-width:1.5;"/><line style="stroke:#000000;stroke-width:1.5;" x1="6" x2="95" y1="119.2969" y2="119.2969"/><text fill="#000000" font-family="sans-serif" font-size="14" font-weight="bold" lengthAdjust="spacing" textLength="76" x="10" y="111.9951">jcckit.plot</text></g><!--MD5=[274ad5661286b626a93603d287cbf95a]
class java.lang.Object--><g id="elem_java.lang.Object"><rect fill="#F1F1F1" height="48" id="java.lang.Object" rx="2.5" ry="2.5" style="stroke:#181818;stroke-width:0.5;" width="77" x="272.5" y="33"/><ellipse cx="287.5" cy="49" fill="#ADD1B2" rx="11" ry="11" style="stroke:#181818;stroke-width:1.0;"/><path d="M290.4688,54.6406 Q289.8906,54.9375 289.25,55.0781 Q288.6094,55.2344 287.9063,55.2344 Q285.4063,55.2344 284.0781,53.5938 Q282.7656,51.9375 282.7656,48.8125 Q282.7656,45.6875 284.0781,44.0313 Q285.4063,42.375 287.9063,42.375 Q288.6094,42.375 289.25,42.5313 Q289.9063,42.6875 290.4688,42.9844 L290.4688,45.7031 Q289.8438,45.125 289.25,44.8594 Q288.6563,44.5781 288.0313,44.5781 Q286.6875,44.5781 286,45.6563 Q285.3125,46.7188 285.3125,48.8125 Q285.3125,50.9063 286,51.9844 Q286.6875,53.0469 288.0313,53.0469 Q288.6563,53.0469 289.25,52.7813 Q289.8438,52.5 290.4688,51.9219 L290.4688,54.6406 Z " fill="#000000"/><text fill="#000000" font-family="sans-serif" font-size="14" lengthAdjust="spacing" textLength="45" x="301.5" y="53.8467">Object</text><line style="stroke:#181818;stroke-width:0.5;" x1="273.5" x2="348.5" y1="65" y2="65"/><line style="stroke:#181818;stroke-width:0.5;" x1="273.5" x2="348.5" y1="73" y2="73"/></g><!--MD5=[08afef84669168d5b5e1bad0a16aba8a]
class jcckit.plot.Legend--><g id="elem_jcckit.plot.Legend"><rect codeLine="3" fill="#F1F1F1" height="145.7813" id="jcckit.plot.Legend" rx="2.5" ry="2.5" style="stroke:#181818;stroke-width:0.5;" width="594" x="14" y="124"/><ellipse cx="280.75" cy="140" fill="#ADD1B2" rx="11" ry="11" style="stroke:#181818;stroke-width:1.0;"/><path d="M283.7188,145.6406 Q283.1406,145.9375 282.5,146.0781 Q281.8594,146.2344 281.1563,146.2344 Q278.6563,146.2344 277.3281,144.5938 Q276.0156,142.9375 276.0156,139.8125 Q276.0156,136.6875 277.3281,135.0313 Q278.6563,133.375 281.1563,133.375 Q281.8594,133.375 282.5,133.5313 Q283.1563,133.6875 283.7188,133.9844 L283.7188,136.7031 Q283.0938,136.125 282.5,135.8594 Q281.9063,135.5781 281.2813,135.5781 Q279.9375,135.5781 279.25,136.6563 Q278.5625,137.7188 278.5625,139.8125 Q278.5625,141.9063 279.25,142.9844 Q279.9375,144.0469 281.2813,144.0469 Q281.9063,144.0469 282.5,143.7813 Q283.0938,143.5 283.7188,142.9219 L283.7188,145.6406 Z " fill="#000000"/><text fill="#000000" font-family="sans-serif" font-size="14" lengthAdjust="spacing" textLength="52" x="301.25" y="144.8467">Legend</text><line style="stroke:#181818;stroke-width:0.5;" x1="15" x2="607" y1="156" y2="156"/><line style="stroke:#181818;stroke-width:0.5;" x1="15" x2="607" y1="164" y2="164"/><a href="./../../../.././qc/src/jcckit/plot/Legend.java.html#134" target="_top" title="./../../../.././qc/src/jcckit/plot/Legend.java.html#134" xlink:actuate="onRequest" xlink:href="./../../../.././qc/src/jcckit/plot/Legend.java.html#134" xlink:show="new" xlink:title="./../../../.././qc/src/jcckit/plot/Legend.java.html#134" xlink:type="simple"><rect fill="#F1F1F1" height="10" style="stroke:none;stroke-width:1.0;" width="20" x="20" y="172.6484"/><ellipse cx="25" cy="177.6484" fill="#84BE84" rx="3" ry="3" style="stroke:#038048;stroke-width:1.0;"/></a><a href="./../../../.././qc/src/jcckit/plot/Legend.java.html#134" target="_top" title="./../../../.././qc/src/jcckit/plot/Legend.java.html#134" xlink:actuate="onRequest" xlink:href="./../../../.././qc/src/jcckit/plot/Legend.java.html#134" xlink:show="new" xlink:title="./../../../.././qc/src/jcckit/plot/Legend.java.html#134" xlink:type="simple"><text fill="#000000" font-family="sans-serif" font-size="14" lengthAdjust="spacing" textLength="250" x="34" y="180.9951">Legend(ConfigParameters) : Legend</text></a><a href="./../../../.././qc/src/jcckit/plot/Legend.java.html#167" target="_top" title="./../../../.././qc/src/jcckit/plot/Legend.java.html#167" xlink:actuate="onRequest" xlink:href="./../../../.././qc/src/jcckit/plot/Legend.java.html#167" xlink:show="new" xlink:title="./../../../.././qc/src/jcckit/plot/Legend.java.html#167" xlink:type="simple"><rect fill="#F1F1F1" height="10" style="stroke:none;stroke-width:1.0;" width="20" x="20" y="188.9453"/><rect fill="#F24D5C" height="6" style="stroke:#C82930;stroke-width:1.0;" width="6" x="22" y="190.9453"/></a><a href="./../../../.././qc/src/jcckit/plot/Legend.java.html#167" target="_top" title="./../../../.././qc/src/jcckit/plot/Legend.java.html#167" xlink:actuate="onRequest" xlink:href="./../../../.././qc/src/jcckit/plot/Legend.java.html#167" xlink:show="new" xlink:title="./../../../.././qc/src/jcckit/plot/Legend.java.html#167" xlink:type="simple"><text fill="#000000" font-family="sans-serif" font-size="14" lengthAdjust="spacing" textLength="437" x="34" y="197.292">mergeWithDefaultConfig(ConfigParameters) : ConfigParameters</text></a><a href="./../../../.././qc/src/jcckit/plot/Legend.java.html#192" target="_top" title="./../../../.././qc/src/jcckit/plot/Legend.java.html#192" xlink:actuate="onRequest" xlink:href="./../../../.././qc/src/jcckit/plot/Legend.java.html#192" xlink:show="new" xlink:title="./../../../.././qc/src/jcckit/plot/Legend.java.html#192" xlink:type="simple"><rect fill="#F1F1F1" height="10" style="stroke:none;stroke-width:1.0;" width="20" x="20" y="205.2422"/><ellipse cx="25" cy="210.2422" fill="#84BE84" rx="3" ry="3" style="stroke:#038048;stroke-width:1.0;"/></a><a href="./../../../.././qc/src/jcckit/plot/Legend.java.html#192" target="_top" title="./../../../.././qc/src/jcckit/plot/Legend.java.html#192" xlink:actuate="onRequest" xlink:href="./../../../.././qc/src/jcckit/plot/Legend.java.html#192" xlink:show="new" xlink:title="./../../../.././qc/src/jcckit/plot/Legend.java.html#192" xlink:type="simple"><text fill="#000000" font-family="sans-serif" font-size="14" lengthAdjust="spacing" textLength="193" x="34" y="213.5889">getBox() : GraphicalElement</text></a><a href="./../../../.././qc/src/jcckit/plot/Legend.java.html#208" target="_top" title="./../../../.././qc/src/jcckit/plot/Legend.java.html#208" xlink:actuate="onRequest" xlink:href="./../../../.././qc/src/jcckit/plot/Legend.java.html#208" xlink:show="new" xlink:title="./../../../.././qc/src/jcckit/plot/Legend.java.html#208" xlink:type="simple"><rect fill="#F1F1F1" height="10" style="stroke:none;stroke-width:1.0;" width="20" x="20" y="221.5391"/><ellipse cx="25" cy="226.5391" fill="#84BE84" rx="3" ry="3" style="stroke:#038048;stroke-width:1.0;"/></a><a href="./../../../.././qc/src/jcckit/plot/Legend.java.html#208" target="_top" title="./../../../.././qc/src/jcckit/plot/Legend.java.html#208" xlink:actuate="onRequest" xlink:href="./../../../.././qc/src/jcckit/plot/Legend.java.html#208" xlink:show="new" xlink:title="./../../../.././qc/src/jcckit/plot/Legend.java.html#208" xlink:type="simple"><text fill="#000000" font-family="sans-serif" font-size="14" lengthAdjust="spacing" textLength="568" x="34" y="229.8857">createSymbol(int;int;SymbolFactory;boolean;GraphicAttributes) : GraphicalElement</text></a><a href="./../../../.././qc/src/jcckit/plot/Legend.java.html#227" target="_top" title="./../../../.././qc/src/jcckit/plot/Legend.java.html#227" xlink:actuate="onRequest" xlink:href="./../../../.././qc/src/jcckit/plot/Legend.java.html#227" xlink:show="new" xlink:title="./../../../.././qc/src/jcckit/plot/Legend.java.html#227" xlink:type="simple"><rect fill="#F1F1F1" height="10" style="stroke:none;stroke-width:1.0;" width="20" x="20" y="237.8359"/><rect fill="#F24D5C" height="6" style="stroke:#C82930;stroke-width:1.0;" width="6" x="22" y="239.8359"/></a><a href="./../../../.././qc/src/jcckit/plot/Legend.java.html#227" target="_top" title="./../../../.././qc/src/jcckit/plot/Legend.java.html#227" xlink:actuate="onRequest" xlink:href="./../../../.././qc/src/jcckit/plot/Legend.java.html#227" xlink:show="new" xlink:title="./../../../.././qc/src/jcckit/plot/Legend.java.html#227" xlink:type="simple"><text fill="#000000" font-family="sans-serif" font-size="14" lengthAdjust="spacing" textLength="234" x="34" y="246.1826">calculateBaseLine(int;int) : double</text></a><a href="./../../../.././qc/src/jcckit/plot/Legend.java.html#244" target="_top" title="./../../../.././qc/src/jcckit/plot/Legend.java.html#244" xlink:actuate="onRequest" xlink:href="./../../../.././qc/src/jcckit/plot/Legend.java.html#244" xlink:show="new" xlink:title="./../../../.././qc/src/jcckit/plot/Legend.java.html#244" xlink:type="simple"><rect fill="#F1F1F1" height="10" style="stroke:none;stroke-width:1.0;" width="20" x="20" y="254.1328"/><ellipse cx="25" cy="259.1328" fill="#84BE84" rx="3" ry="3" style="stroke:#038048;stroke-width:1.0;"/></a><a href="./../../../.././qc/src/jcckit/plot/Legend.java.html#244" target="_top" title="./../../../.././qc/src/jcckit/plot/Legend.java.html#244" xlink:actuate="onRequest" xlink:href="./../../../.././qc/src/jcckit/plot/Legend.java.html#244" xlink:show="new" xlink:title="./../../../.././qc/src/jcckit/plot/Legend.java.html#244" xlink:type="simple"><text fill="#000000" font-family="sans-serif" font-size="14" lengthAdjust="spacing" textLength="341" x="34" y="262.4795">createCurveTitle(int;int;String) : GraphicalElement</text></a></g><path d="M311,81.0981 C311,93.0678 311,108.4103 311,123.9592 " fill="none" style="stroke:#181818;stroke-width:1.0;"/><polygon fill="#FFFFFF" points="311,81.0981,305,97.0981,317,97.0981,311,81.0981" style="stroke:#181818;stroke-width:1.0;"/><!--MD5=[b43abe1a9a06c9e1e8d3690d665e66d0]
@startuml
!pragma layout smetana
"java.lang.Object" <|- - "jcckit.plot.Legend"
class jcckit.plot.Legend {
+Legend(ConfigParameters) : Legend [[[./../../../.././qc/src/jcckit/plot/Legend.java.html#134]]]
-mergeWithDefaultConfig(ConfigParameters) : ConfigParameters [[[./../../../.././qc/src/jcckit/plot/Legend.java.html#167]]]
+getBox() : GraphicalElement [[[./../../../.././qc/src/jcckit/plot/Legend.java.html#192]]]
+createSymbol(int;int;SymbolFactory;boolean;GraphicAttributes) : GraphicalElement [[[./../../../.././qc/src/jcckit/plot/Legend.java.html#208]]]
-calculateBaseLine(int;int) : double [[[./../../../.././qc/src/jcckit/plot/Legend.java.html#227]]]
+createCurveTitle(int;int;String) : GraphicalElement [[[./../../../.././qc/src/jcckit/plot/Legend.java.html#244]]]
} 
@enduml

PlantUML version 1.2022.7(Mon Aug 22 17:01:30 UTC 2022)
(GPL source distribution)
Java Runtime: OpenJDK Runtime Environment
JVM: OpenJDK 64-Bit Server VM
Default Encoding: UTF-8
Language: en
Country: null
--></g></svg>