<?xml version="1.0" encoding="UTF-8" standalone="no"?><svg xmlns="http://www.w3.org/2000/svg" xmlns:xlink="http://www.w3.org/1999/xlink" contentStyleType="text/css" height="203px" preserveAspectRatio="none" style="width:357px;height:203px;background:#FFFFFF;" version="1.1" viewBox="0 0 357 203" width="357px" zoomAndPan="magnify"><defs/><g><!--MD5=[aa8f7b917213fcc1c2766e2d59b49067]
cluster java.lang--><g id="cluster_java.lang"><path d="M133.5,6 L203.5,6 A3.75,3.75 0 0 1 206,8.5 L213,28.2969 L222.5,28.2969 A2.5,2.5 0 0 1 225,30.7969 L225,86.5 A2.5,2.5 0 0 1 222.5,89 L133.5,89 A2.5,2.5 0 0 1 131,86.5 L131,8.5 A2.5,2.5 0 0 1 133.5,6 " fill="none" style="stroke:#000000;stroke-width:1.5;"/><line style="stroke:#000000;stroke-width:1.5;" x1="131" x2="213" y1="28.2969" y2="28.2969"/><text fill="#000000" font-family="sans-serif" font-size="14" font-weight="bold" lengthAdjust="spacing" textLength="69" x="135" y="20.9951">java.lang</text></g><!--MD5=[b8637b1179389d4d7c212f0e28ce0a21]
cluster gen.lib.gvc--><g id="cluster_gen.lib.gvc"><path d="M8.5,97 L95.5,97 A3.75,3.75 0 0 1 98,99.5 L105,119.2969 L347.5,119.2969 A2.5,2.5 0 0 1 350,121.7969 L350,193.5 A2.5,2.5 0 0 1 347.5,196 L8.5,196 A2.5,2.5 0 0 1 6,193.5 L6,99.5 A2.5,2.5 0 0 1 8.5,97 " fill="none" style="stroke:#000000;stroke-width:1.5;"/><line style="stroke:#000000;stroke-width:1.5;" x1="6" x2="105" y1="119.2969" y2="119.2969"/><text fill="#000000" font-family="sans-serif" font-size="14" font-weight="bold" lengthAdjust="spacing" textLength="86" x="10" y="111.9951">gen.lib.gvc</text></g><!--MD5=[274ad5661286b626a93603d287cbf95a]
class java.lang.Object--><g id="elem_java.lang.Object"><rect fill="#F1F1F1" height="48" id="java.lang.Object" rx="2.5" ry="2.5" style="stroke:#181818;stroke-width:0.5;" width="77" x="139.5" y="33"/><ellipse cx="154.5" cy="49" fill="#ADD1B2" rx="11" ry="11" style="stroke:#181818;stroke-width:1.0;"/><path d="M157.4688,54.6406 Q156.8906,54.9375 156.25,55.0781 Q155.6094,55.2344 154.9063,55.2344 Q152.4063,55.2344 151.0781,53.5938 Q149.7656,51.9375 149.7656,48.8125 Q149.7656,45.6875 151.0781,44.0313 Q152.4063,42.375 154.9063,42.375 Q155.6094,42.375 156.25,42.5313 Q156.9063,42.6875 157.4688,42.9844 L157.4688,45.7031 Q156.8438,45.125 156.25,44.8594 Q155.6563,44.5781 155.0313,44.5781 Q153.6875,44.5781 153,45.6563 Q152.3125,46.7188 152.3125,48.8125 Q152.3125,50.9063 153,51.9844 Q153.6875,53.0469 155.0313,53.0469 Q155.6563,53.0469 156.25,52.7813 Q156.8438,52.5 157.4688,51.9219 L157.4688,54.6406 Z " fill="#000000"/><text fill="#000000" font-family="sans-serif" font-size="14" lengthAdjust="spacing" textLength="45" x="168.5" y="53.8467">Object</text><line style="stroke:#181818;stroke-width:0.5;" x1="140.5" x2="215.5" y1="65" y2="65"/><line style="stroke:#181818;stroke-width:0.5;" x1="140.5" x2="215.5" y1="73" y2="73"/></g><!--MD5=[764ee4a1ae339633fac8ef14e5a445cf]
class gen.lib.gvc.gvcontext__c--><g id="elem_gen.lib.gvc.gvcontext__c"><rect codeLine="3" fill="#F1F1F1" height="64.2969" id="gen.lib.gvc.gvcontext__c" rx="2.5" ry="2.5" style="stroke:#181818;stroke-width:0.5;" width="327" x="14.5" y="124"/><ellipse cx="128.75" cy="140" fill="#ADD1B2" rx="11" ry="11" style="stroke:#181818;stroke-width:1.0;"/><path d="M131.7188,145.6406 Q131.1406,145.9375 130.5,146.0781 Q129.8594,146.2344 129.1563,146.2344 Q126.6563,146.2344 125.3281,144.5938 Q124.0156,142.9375 124.0156,139.8125 Q124.0156,136.6875 125.3281,135.0313 Q126.6563,133.375 129.1563,133.375 Q129.8594,133.375 130.5,133.5313 Q131.1563,133.6875 131.7188,133.9844 L131.7188,136.7031 Q131.0938,136.125 130.5,135.8594 Q129.9063,135.5781 129.2813,135.5781 Q127.9375,135.5781 127.25,136.6563 Q126.5625,137.7188 126.5625,139.8125 Q126.5625,141.9063 127.25,142.9844 Q127.9375,144.0469 129.2813,144.0469 Q129.9063,144.0469 130.5,143.7813 Q131.0938,143.5 131.7188,142.9219 L131.7188,145.6406 Z " fill="#000000"/><text fill="#000000" font-family="sans-serif" font-size="14" lengthAdjust="spacing" textLength="90" x="149.25" y="144.8467">gvcontext__c</text><line style="stroke:#181818;stroke-width:0.5;" x1="15.5" x2="340.5" y1="156" y2="156"/><line style="stroke:#181818;stroke-width:0.5;" x1="15.5" x2="340.5" y1="164" y2="164"/><a href="./../../../../.././qc/src/gen/lib/gvc/gvcontext__c.java.html#62" target="_top" title="./../../../../.././qc/src/gen/lib/gvc/gvcontext__c.java.html#62" xlink:actuate="onRequest" xlink:href="./../../../../.././qc/src/gen/lib/gvc/gvcontext__c.java.html#62" xlink:show="new" xlink:title="./../../../../.././qc/src/gen/lib/gvc/gvcontext__c.java.html#62" xlink:type="simple"><rect fill="#F1F1F1" height="10" style="stroke:none;stroke-width:1.0;" width="20" x="20.5" y="172.6484"/><ellipse cx="25.5" cy="177.6484" fill="#84BE84" rx="3" ry="3" style="stroke:#038048;stroke-width:1.0;"/></a><a href="./../../../../.././qc/src/gen/lib/gvc/gvcontext__c.java.html#62" target="_top" title="./../../../../.././qc/src/gen/lib/gvc/gvcontext__c.java.html#62" xlink:actuate="onRequest" xlink:href="./../../../../.././qc/src/gen/lib/gvc/gvcontext__c.java.html#62" xlink:show="new" xlink:title="./../../../../.././qc/src/gen/lib/gvc/gvcontext__c.java.html#62" xlink:type="simple"><text fill="#000000" font-family="sans-serif" font-size="14" lengthAdjust="spacing" textLength="301" x="34.5" y="180.9951">gvNEWcontext(__ptr__;boolean) : ST_GVC_s</text></a></g><path d="M178,81.481 C178,94.1526 178,109.962 178,123.6701 " fill="none" style="stroke:#181818;stroke-width:1.0;"/><polygon fill="#FFFFFF" points="178,81.481,172,97.481,184,97.481,178,81.481" style="stroke:#181818;stroke-width:1.0;"/><!--MD5=[7014ea39643b2c8d0f5b1775439c23b3]
@startuml
!pragma layout smetana
"java.lang.Object" <|- - "gen.lib.gvc.gvcontext__c"
class gen.lib.gvc.gvcontext__c {
+gvNEWcontext(__ptr__;boolean) : ST_GVC_s [[[./../../../../.././qc/src/gen/lib/gvc/gvcontext__c.java.html#62]]]
} 
@enduml

PlantUML version 1.2022.7(Mon Aug 22 17:01:30 UTC 2022)
(GPL source distribution)
Java Runtime: OpenJDK Runtime Environment
JVM: OpenJDK 64-Bit Server VM
Default Encoding: UTF-8
Language: en
Country: null
--></g></svg>