<?xml version="1.0" encoding="UTF-8" standalone="no"?><svg xmlns="http://www.w3.org/2000/svg" xmlns:xlink="http://www.w3.org/1999/xlink" contentStyleType="text/css" height="236px" preserveAspectRatio="none" style="width:365px;height:236px;background:#FFFFFF;" version="1.1" viewBox="0 0 365 236" width="365px" zoomAndPan="magnify"><defs/><g><!--MD5=[aa8f7b917213fcc1c2766e2d59b49067]
cluster java.lang--><g id="cluster_java.lang"><path d="M137.5,6 L207.5,6 A3.75,3.75 0 0 1 210,8.5 L217,28.2969 L226.5,28.2969 A2.5,2.5 0 0 1 229,30.7969 L229,86.5 A2.5,2.5 0 0 1 226.5,89 L137.5,89 A2.5,2.5 0 0 1 135,86.5 L135,8.5 A2.5,2.5 0 0 1 137.5,6 " fill="none" style="stroke:#000000;stroke-width:1.5;"/><line style="stroke:#000000;stroke-width:1.5;" x1="135" x2="217" y1="28.2969" y2="28.2969"/><text fill="#000000" font-family="sans-serif" font-size="14" font-weight="bold" lengthAdjust="spacing" textLength="69" x="139" y="20.9951">java.lang</text></g><!--MD5=[3923f3a1e4ca338965dd26131ac960ba]
cluster net.sourceforge.plantuml.zopfli--><g id="cluster_net.sourceforge.plantuml.zopfli"><path d="M8.5,97 L258.5,97 A3.75,3.75 0 0 1 261,99.5 L268,119.2969 L355.5,119.2969 A2.5,2.5 0 0 1 358,121.7969 L358,226.5 A2.5,2.5 0 0 1 355.5,229 L8.5,229 A2.5,2.5 0 0 1 6,226.5 L6,99.5 A2.5,2.5 0 0 1 8.5,97 " fill="none" style="stroke:#000000;stroke-width:1.5;"/><line style="stroke:#000000;stroke-width:1.5;" x1="6" x2="268" y1="119.2969" y2="119.2969"/><text fill="#000000" font-family="sans-serif" font-size="14" font-weight="bold" lengthAdjust="spacing" textLength="249" x="10" y="111.9951">net.sourceforge.plantuml.zopfli</text></g><!--MD5=[274ad5661286b626a93603d287cbf95a]
class java.lang.Object--><g id="elem_java.lang.Object"><rect fill="#F1F1F1" height="48" id="java.lang.Object" rx="2.5" ry="2.5" style="stroke:#181818;stroke-width:0.5;" width="77" x="143.5" y="33"/><ellipse cx="158.5" cy="49" fill="#ADD1B2" rx="11" ry="11" style="stroke:#181818;stroke-width:1.0;"/><path d="M161.4688,54.6406 Q160.8906,54.9375 160.25,55.0781 Q159.6094,55.2344 158.9063,55.2344 Q156.4063,55.2344 155.0781,53.5938 Q153.7656,51.9375 153.7656,48.8125 Q153.7656,45.6875 155.0781,44.0313 Q156.4063,42.375 158.9063,42.375 Q159.6094,42.375 160.25,42.5313 Q160.9063,42.6875 161.4688,42.9844 L161.4688,45.7031 Q160.8438,45.125 160.25,44.8594 Q159.6563,44.5781 159.0313,44.5781 Q157.6875,44.5781 157,45.6563 Q156.3125,46.7188 156.3125,48.8125 Q156.3125,50.9063 157,51.9844 Q157.6875,53.0469 159.0313,53.0469 Q159.6563,53.0469 160.25,52.7813 Q160.8438,52.5 161.4688,51.9219 L161.4688,54.6406 Z " fill="#000000"/><text fill="#000000" font-family="sans-serif" font-size="14" lengthAdjust="spacing" textLength="45" x="172.5" y="53.8467">Object</text><line style="stroke:#181818;stroke-width:0.5;" x1="144.5" x2="219.5" y1="65" y2="65"/><line style="stroke:#181818;stroke-width:0.5;" x1="144.5" x2="219.5" y1="73" y2="73"/></g><!--MD5=[f7b6f0c81f9b27d48383f085dde64236]
class net.sourceforge.plantuml.zopfli.BlockSplitter--><g id="elem_net.sourceforge.plantuml.zopfli.BlockSplitter"><rect codeLine="3" fill="#F1F1F1" height="96.8906" id="net.sourceforge.plantuml.zopfli.BlockSplitter" rx="2.5" ry="2.5" style="stroke:#181818;stroke-width:0.5;" width="335" x="14.5" y="124"/><ellipse cx="134.75" cy="140" fill="#ADD1B2" rx="11" ry="11" style="stroke:#181818;stroke-width:1.0;"/><path d="M137.7188,145.6406 Q137.1406,145.9375 136.5,146.0781 Q135.8594,146.2344 135.1563,146.2344 Q132.6563,146.2344 131.3281,144.5938 Q130.0156,142.9375 130.0156,139.8125 Q130.0156,136.6875 131.3281,135.0313 Q132.6563,133.375 135.1563,133.375 Q135.8594,133.375 136.5,133.5313 Q137.1563,133.6875 137.7188,133.9844 L137.7188,136.7031 Q137.0938,136.125 136.5,135.8594 Q135.9063,135.5781 135.2813,135.5781 Q133.9375,135.5781 133.25,136.6563 Q132.5625,137.7188 132.5625,139.8125 Q132.5625,141.9063 133.25,142.9844 Q133.9375,144.0469 135.2813,144.0469 Q135.9063,144.0469 136.5,143.7813 Q137.0938,143.5 137.7188,142.9219 L137.7188,145.6406 Z " fill="#000000"/><text fill="#000000" font-family="sans-serif" font-size="14" lengthAdjust="spacing" textLength="86" x="155.25" y="144.8467">BlockSplitter</text><line style="stroke:#181818;stroke-width:0.5;" x1="15.5" x2="348.5" y1="156" y2="156"/><line style="stroke:#181818;stroke-width:0.5;" x1="15.5" x2="348.5" y1="164" y2="164"/><a href="./../../../../../.././qc/src/net/sourceforge/plantuml/zopfli/BlockSplitter.java.html#147" target="_top" title="./../../../../../.././qc/src/net/sourceforge/plantuml/zopfli/BlockSplitter.java.html#147" xlink:actuate="onRequest" xlink:href="./../../../../../.././qc/src/net/sourceforge/plantuml/zopfli/BlockSplitter.java.html#147" xlink:show="new" xlink:title="./../../../../../.././qc/src/net/sourceforge/plantuml/zopfli/BlockSplitter.java.html#147" xlink:type="simple"><text fill="#000000" font-family="sans-serif" font-size="14" lengthAdjust="spacing" textLength="205" x="34.5" y="180.9951">split(Cookie;byte[];int;int) : int</text></a><a href="./../../../../../.././qc/src/net/sourceforge/plantuml/zopfli/BlockSplitter.java.html#147" target="_top" title="./../../../../../.././qc/src/net/sourceforge/plantuml/zopfli/BlockSplitter.java.html#147" xlink:actuate="onRequest" xlink:href="./../../../../../.././qc/src/net/sourceforge/plantuml/zopfli/BlockSplitter.java.html#147" xlink:show="new" xlink:title="./../../../../../.././qc/src/net/sourceforge/plantuml/zopfli/BlockSplitter.java.html#147" xlink:type="simple"><text fill="#000000" font-family="sans-serif" font-size="14" lengthAdjust="spacing" textLength="243" x="34.5" y="197.292">splitLz(Cookie;char[];char[];int) : int</text></a><a href="./../../../../../.././qc/src/net/sourceforge/plantuml/zopfli/BlockSplitter.java.html#1" target="_top" title="./../../../../../.././qc/src/net/sourceforge/plantuml/zopfli/BlockSplitter.java.html#1" xlink:actuate="onRequest" xlink:href="./../../../../../.././qc/src/net/sourceforge/plantuml/zopfli/BlockSplitter.java.html#1" xlink:show="new" xlink:title="./../../../../../.././qc/src/net/sourceforge/plantuml/zopfli/BlockSplitter.java.html#1" xlink:type="simple"><rect fill="#F1F1F1" height="10" style="stroke:none;stroke-width:1.0;" width="20" x="20.5" y="205.2422"/><rect fill="#F24D5C" height="6" style="stroke:#C82930;stroke-width:1.0;" width="6" x="22.5" y="207.2422"/></a><a href="./../../../../../.././qc/src/net/sourceforge/plantuml/zopfli/BlockSplitter.java.html#1" target="_top" title="./../../../../../.././qc/src/net/sourceforge/plantuml/zopfli/BlockSplitter.java.html#1" xlink:actuate="onRequest" xlink:href="./../../../../../.././qc/src/net/sourceforge/plantuml/zopfli/BlockSplitter.java.html#1" xlink:show="new" xlink:title="./../../../../../.././qc/src/net/sourceforge/plantuml/zopfli/BlockSplitter.java.html#1" xlink:type="simple"><text fill="#000000" font-family="sans-serif" font-size="14" lengthAdjust="spacing" textLength="309" x="34.5" y="213.5889">findMinimum(Cookie;char[];char[];int;int) : int</text></a></g><path d="M182,81.2423 C182,93.5648 182,109.1711 182,123.9272 " fill="none" style="stroke:#181818;stroke-width:1.0;"/><polygon fill="#FFFFFF" points="182,81.2423,176,97.2423,188,97.2423,182,81.2423" style="stroke:#181818;stroke-width:1.0;"/><!--MD5=[4c41f5b20ffc5f50fc506b740a14abca]
@startuml
!pragma layout smetana
"java.lang.Object" <|- - "net.sourceforge.plantuml.zopfli.BlockSplitter"
class net.sourceforge.plantuml.zopfli.BlockSplitter {
split(Cookie;byte[];int;int) : int [[[./../../../../../.././qc/src/net/sourceforge/plantuml/zopfli/BlockSplitter.java.html#147]]]
splitLz(Cookie;char[];char[];int) : int [[[./../../../../../.././qc/src/net/sourceforge/plantuml/zopfli/BlockSplitter.java.html#147]]]
-findMinimum(Cookie;char[];char[];int;int) : int [[[./../../../../../.././qc/src/net/sourceforge/plantuml/zopfli/BlockSplitter.java.html#1]]]
} 
@enduml

PlantUML version 1.2022.7(Mon Aug 22 17:01:30 UTC 2022)
(GPL source distribution)
Java Runtime: OpenJDK Runtime Environment
JVM: OpenJDK 64-Bit Server VM
Default Encoding: UTF-8
Language: en
Country: null
--></g></svg>