<?xml version="1.0" encoding="UTF-8" standalone="no"?><svg xmlns="http://www.w3.org/2000/svg" xmlns:xlink="http://www.w3.org/1999/xlink" contentStyleType="text/css" height="236px" preserveAspectRatio="none" style="width:278px;height:236px;background:#FFFFFF;" version="1.1" viewBox="0 0 278 236" width="278px" zoomAndPan="magnify"><defs/><g><!--MD5=[aa8f7b917213fcc1c2766e2d59b49067]
cluster java.lang--><g id="cluster_java.lang"><path d="M93.5,6 L163.5,6 A3.75,3.75 0 0 1 166,8.5 L173,28.2969 L182.5,28.2969 A2.5,2.5 0 0 1 185,30.7969 L185,86.5 A2.5,2.5 0 0 1 182.5,89 L93.5,89 A2.5,2.5 0 0 1 91,86.5 L91,8.5 A2.5,2.5 0 0 1 93.5,6 " fill="none" style="stroke:#000000;stroke-width:1.5;"/><line style="stroke:#000000;stroke-width:1.5;" x1="91" x2="173" y1="28.2969" y2="28.2969"/><text fill="#000000" font-family="sans-serif" font-size="14" font-weight="bold" lengthAdjust="spacing" textLength="69" x="95" y="20.9951">java.lang</text></g><!--MD5=[3923f3a1e4ca338965dd26131ac960ba]
cluster net.sourceforge.plantuml.zopfli--><g id="cluster_net.sourceforge.plantuml.zopfli"><path d="M8.5,97 L258.5,97 A3.75,3.75 0 0 1 261,99.5 L268,119.2969 L268.5,119.2969 A2.5,2.5 0 0 1 271,121.7969 L271,226.5 A2.5,2.5 0 0 1 268.5,229 L8.5,229 A2.5,2.5 0 0 1 6,226.5 L6,99.5 A2.5,2.5 0 0 1 8.5,97 " fill="none" style="stroke:#000000;stroke-width:1.5;"/><line style="stroke:#000000;stroke-width:1.5;" x1="6" x2="268" y1="119.2969" y2="119.2969"/><text fill="#000000" font-family="sans-serif" font-size="14" font-weight="bold" lengthAdjust="spacing" textLength="249" x="10" y="111.9951">net.sourceforge.plantuml.zopfli</text></g><!--MD5=[274ad5661286b626a93603d287cbf95a]
class java.lang.Object--><g id="elem_java.lang.Object"><rect fill="#F1F1F1" height="48" id="java.lang.Object" rx="2.5" ry="2.5" style="stroke:#181818;stroke-width:0.5;" width="77" x="99.5" y="33"/><ellipse cx="114.5" cy="49" fill="#ADD1B2" rx="11" ry="11" style="stroke:#181818;stroke-width:1.0;"/><path d="M117.4688,54.6406 Q116.8906,54.9375 116.25,55.0781 Q115.6094,55.2344 114.9063,55.2344 Q112.4063,55.2344 111.0781,53.5938 Q109.7656,51.9375 109.7656,48.8125 Q109.7656,45.6875 111.0781,44.0313 Q112.4063,42.375 114.9063,42.375 Q115.6094,42.375 116.25,42.5313 Q116.9063,42.6875 117.4688,42.9844 L117.4688,45.7031 Q116.8438,45.125 116.25,44.8594 Q115.6563,44.5781 115.0313,44.5781 Q113.6875,44.5781 113,45.6563 Q112.3125,46.7188 112.3125,48.8125 Q112.3125,50.9063 113,51.9844 Q113.6875,53.0469 115.0313,53.0469 Q115.6563,53.0469 116.25,52.7813 Q116.8438,52.5 117.4688,51.9219 L117.4688,54.6406 Z " fill="#000000"/><text fill="#000000" font-family="sans-serif" font-size="14" lengthAdjust="spacing" textLength="45" x="128.5" y="53.8467">Object</text><line style="stroke:#181818;stroke-width:0.5;" x1="100.5" x2="175.5" y1="65" y2="65"/><line style="stroke:#181818;stroke-width:0.5;" x1="100.5" x2="175.5" y1="73" y2="73"/></g><!--MD5=[69453f99fe476c5e9750ecf9e0d46785]
class net.sourceforge.plantuml.zopfli.Hash--><g id="elem_net.sourceforge.plantuml.zopfli.Hash"><rect codeLine="3" fill="#F1F1F1" height="96.8906" id="net.sourceforge.plantuml.zopfli.Hash" rx="2.5" ry="2.5" style="stroke:#181818;stroke-width:0.5;" width="245" x="15.5" y="124"/><ellipse cx="116.25" cy="140" fill="#ADD1B2" rx="11" ry="11" style="stroke:#181818;stroke-width:1.0;"/><path d="M119.2188,145.6406 Q118.6406,145.9375 118,146.0781 Q117.3594,146.2344 116.6563,146.2344 Q114.1563,146.2344 112.8281,144.5938 Q111.5156,142.9375 111.5156,139.8125 Q111.5156,136.6875 112.8281,135.0313 Q114.1563,133.375 116.6563,133.375 Q117.3594,133.375 118,133.5313 Q118.6563,133.6875 119.2188,133.9844 L119.2188,136.7031 Q118.5938,136.125 118,135.8594 Q117.4063,135.5781 116.7813,135.5781 Q115.4375,135.5781 114.75,136.6563 Q114.0625,137.7188 114.0625,139.8125 Q114.0625,141.9063 114.75,142.9844 Q115.4375,144.0469 116.7813,144.0469 Q117.4063,144.0469 118,143.7813 Q118.5938,143.5 119.2188,142.9219 L119.2188,145.6406 Z " fill="#000000"/><text fill="#000000" font-family="sans-serif" font-size="14" lengthAdjust="spacing" textLength="35" x="136.75" y="144.8467">Hash</text><line style="stroke:#181818;stroke-width:0.5;" x1="16.5" x2="259.5" y1="156" y2="156"/><line style="stroke:#181818;stroke-width:0.5;" x1="16.5" x2="259.5" y1="164" y2="164"/><a href="./../../../../../.././qc/src/net/sourceforge/plantuml/zopfli/Hash.java.html#122" target="_top" title="./../../../../../.././qc/src/net/sourceforge/plantuml/zopfli/Hash.java.html#122" xlink:actuate="onRequest" xlink:href="./../../../../../.././qc/src/net/sourceforge/plantuml/zopfli/Hash.java.html#122" xlink:show="new" xlink:title="./../../../../../.././qc/src/net/sourceforge/plantuml/zopfli/Hash.java.html#122" xlink:type="simple"><rect fill="#F1F1F1" height="10" style="stroke:none;stroke-width:1.0;" width="20" x="21.5" y="172.6484"/><ellipse cx="26.5" cy="177.6484" fill="#84BE84" rx="3" ry="3" style="stroke:#038048;stroke-width:1.0;"/></a><a href="./../../../../../.././qc/src/net/sourceforge/plantuml/zopfli/Hash.java.html#122" target="_top" title="./../../../../../.././qc/src/net/sourceforge/plantuml/zopfli/Hash.java.html#122" xlink:actuate="onRequest" xlink:href="./../../../../../.././qc/src/net/sourceforge/plantuml/zopfli/Hash.java.html#122" xlink:show="new" xlink:title="./../../../../../.././qc/src/net/sourceforge/plantuml/zopfli/Hash.java.html#122" xlink:type="simple"><text fill="#000000" font-family="sans-serif" font-size="14" lengthAdjust="spacing" textLength="93" x="35.5" y="180.9951">Hash() : Hash</text></a><a href="./../../../../../.././qc/src/net/sourceforge/plantuml/zopfli/Hash.java.html#122" target="_top" title="./../../../../../.././qc/src/net/sourceforge/plantuml/zopfli/Hash.java.html#122" xlink:actuate="onRequest" xlink:href="./../../../../../.././qc/src/net/sourceforge/plantuml/zopfli/Hash.java.html#122" xlink:show="new" xlink:title="./../../../../../.././qc/src/net/sourceforge/plantuml/zopfli/Hash.java.html#122" xlink:type="simple"><rect fill="#F1F1F1" height="10" style="stroke:none;stroke-width:1.0;" width="20" x="21.5" y="188.9453"/><ellipse cx="26.5" cy="193.9453" fill="#84BE84" rx="3" ry="3" style="stroke:#038048;stroke-width:1.0;"/></a><a href="./../../../../../.././qc/src/net/sourceforge/plantuml/zopfli/Hash.java.html#122" target="_top" title="./../../../../../.././qc/src/net/sourceforge/plantuml/zopfli/Hash.java.html#122" xlink:actuate="onRequest" xlink:href="./../../../../../.././qc/src/net/sourceforge/plantuml/zopfli/Hash.java.html#122" xlink:show="new" xlink:title="./../../../../../.././qc/src/net/sourceforge/plantuml/zopfli/Hash.java.html#122" xlink:type="simple"><text fill="#000000" font-family="sans-serif" font-size="14" lengthAdjust="spacing" textLength="177" x="35.5" y="197.292">init(byte[];int;int;int) : void</text></a><a href="./../../../../../.././qc/src/net/sourceforge/plantuml/zopfli/Hash.java.html#1" target="_top" title="./../../../../../.././qc/src/net/sourceforge/plantuml/zopfli/Hash.java.html#1" xlink:actuate="onRequest" xlink:href="./../../../../../.././qc/src/net/sourceforge/plantuml/zopfli/Hash.java.html#1" xlink:show="new" xlink:title="./../../../../../.././qc/src/net/sourceforge/plantuml/zopfli/Hash.java.html#1" xlink:type="simple"><rect fill="#F1F1F1" height="10" style="stroke:none;stroke-width:1.0;" width="20" x="21.5" y="205.2422"/><ellipse cx="26.5" cy="210.2422" fill="#84BE84" rx="3" ry="3" style="stroke:#038048;stroke-width:1.0;"/></a><a href="./../../../../../.././qc/src/net/sourceforge/plantuml/zopfli/Hash.java.html#1" target="_top" title="./../../../../../.././qc/src/net/sourceforge/plantuml/zopfli/Hash.java.html#1" xlink:actuate="onRequest" xlink:href="./../../../../../.././qc/src/net/sourceforge/plantuml/zopfli/Hash.java.html#1" xlink:show="new" xlink:title="./../../../../../.././qc/src/net/sourceforge/plantuml/zopfli/Hash.java.html#1" xlink:type="simple"><text fill="#000000" font-family="sans-serif" font-size="14" lengthAdjust="spacing" textLength="219" x="35.5" y="213.5889">updateHash(byte[];int;int) : void</text></a></g><path d="M138,81.2423 C138,93.5648 138,109.1711 138,123.9272 " fill="none" style="stroke:#181818;stroke-width:1.0;"/><polygon fill="#FFFFFF" points="138,81.2423,132,97.2423,144,97.2423,138,81.2423" style="stroke:#181818;stroke-width:1.0;"/><!--MD5=[3cd9e585da68a38a0c924aa42fe2ffda]
@startuml
!pragma layout smetana
"java.lang.Object" <|- - "net.sourceforge.plantuml.zopfli.Hash"
class net.sourceforge.plantuml.zopfli.Hash {
+Hash() : Hash [[[./../../../../../.././qc/src/net/sourceforge/plantuml/zopfli/Hash.java.html#122]]]
+init(byte[];int;int;int) : void [[[./../../../../../.././qc/src/net/sourceforge/plantuml/zopfli/Hash.java.html#122]]]
+updateHash(byte[];int;int) : void [[[./../../../../../.././qc/src/net/sourceforge/plantuml/zopfli/Hash.java.html#1]]]
} 
@enduml

PlantUML version 1.2022.7(Mon Aug 22 17:01:30 UTC 2022)
(GPL source distribution)
Java Runtime: OpenJDK Runtime Environment
JVM: OpenJDK 64-Bit Server VM
Default Encoding: UTF-8
Language: en
Country: null
--></g></svg>