<?xml version="1.0" encoding="UTF-8" standalone="no"?><svg xmlns="http://www.w3.org/2000/svg" xmlns:xlink="http://www.w3.org/1999/xlink" contentStyleType="text/css" height="268px" preserveAspectRatio="none" style="width:351px;height:268px;background:#FFFFFF;" version="1.1" viewBox="0 0 351 268" width="351px" zoomAndPan="magnify"><defs/><g><!--MD5=[aa8f7b917213fcc1c2766e2d59b49067]
cluster java.lang--><g id="cluster_java.lang"><path d="M130.5,6 L200.5,6 A3.75,3.75 0 0 1 203,8.5 L210,28.2969 L219.5,28.2969 A2.5,2.5 0 0 1 222,30.7969 L222,86.5 A2.5,2.5 0 0 1 219.5,89 L130.5,89 A2.5,2.5 0 0 1 128,86.5 L128,8.5 A2.5,2.5 0 0 1 130.5,6 " fill="none" style="stroke:#000000;stroke-width:1.5;"/><line style="stroke:#000000;stroke-width:1.5;" x1="128" x2="210" y1="28.2969" y2="28.2969"/><text fill="#000000" font-family="sans-serif" font-size="14" font-weight="bold" lengthAdjust="spacing" textLength="69" x="132" y="20.9951">java.lang</text></g><!--MD5=[3923f3a1e4ca338965dd26131ac960ba]
cluster net.sourceforge.plantuml.zopfli--><g id="cluster_net.sourceforge.plantuml.zopfli"><path d="M8.5,97 L258.5,97 A3.75,3.75 0 0 1 261,99.5 L268,119.2969 L341.5,119.2969 A2.5,2.5 0 0 1 344,121.7969 L344,258.5 A2.5,2.5 0 0 1 341.5,261 L8.5,261 A2.5,2.5 0 0 1 6,258.5 L6,99.5 A2.5,2.5 0 0 1 8.5,97 " fill="none" style="stroke:#000000;stroke-width:1.5;"/><line style="stroke:#000000;stroke-width:1.5;" x1="6" x2="268" y1="119.2969" y2="119.2969"/><text fill="#000000" font-family="sans-serif" font-size="14" font-weight="bold" lengthAdjust="spacing" textLength="249" x="10" y="111.9951">net.sourceforge.plantuml.zopfli</text></g><!--MD5=[274ad5661286b626a93603d287cbf95a]
class java.lang.Object--><g id="elem_java.lang.Object"><rect fill="#F1F1F1" height="48" id="java.lang.Object" rx="2.5" ry="2.5" style="stroke:#181818;stroke-width:0.5;" width="77" x="136.5" y="33"/><ellipse cx="151.5" cy="49" fill="#ADD1B2" rx="11" ry="11" style="stroke:#181818;stroke-width:1.0;"/><path d="M154.4688,54.6406 Q153.8906,54.9375 153.25,55.0781 Q152.6094,55.2344 151.9063,55.2344 Q149.4063,55.2344 148.0781,53.5938 Q146.7656,51.9375 146.7656,48.8125 Q146.7656,45.6875 148.0781,44.0313 Q149.4063,42.375 151.9063,42.375 Q152.6094,42.375 153.25,42.5313 Q153.9063,42.6875 154.4688,42.9844 L154.4688,45.7031 Q153.8438,45.125 153.25,44.8594 Q152.6563,44.5781 152.0313,44.5781 Q150.6875,44.5781 150,45.6563 Q149.3125,46.7188 149.3125,48.8125 Q149.3125,50.9063 150,51.9844 Q150.6875,53.0469 152.0313,53.0469 Q152.6563,53.0469 153.25,52.7813 Q153.8438,52.5 154.4688,51.9219 L154.4688,54.6406 Z " fill="#000000"/><text fill="#000000" font-family="sans-serif" font-size="14" lengthAdjust="spacing" textLength="45" x="165.5" y="53.8467">Object</text><line style="stroke:#181818;stroke-width:0.5;" x1="137.5" x2="212.5" y1="65" y2="65"/><line style="stroke:#181818;stroke-width:0.5;" x1="137.5" x2="212.5" y1="73" y2="73"/></g><!--MD5=[f79482ce44c5973f9e0a7fbccba5849e]
class net.sourceforge.plantuml.zopfli.Zopfli--><g id="elem_net.sourceforge.plantuml.zopfli.Zopfli"><rect codeLine="3" fill="#F1F1F1" height="129.4844" id="net.sourceforge.plantuml.zopfli.Zopfli" rx="2.5" ry="2.5" style="stroke:#181818;stroke-width:0.5;" width="322" x="14" y="124"/><ellipse cx="151.75" cy="140" fill="#ADD1B2" rx="11" ry="11" style="stroke:#181818;stroke-width:1.0;"/><path d="M154.7188,145.6406 Q154.1406,145.9375 153.5,146.0781 Q152.8594,146.2344 152.1563,146.2344 Q149.6563,146.2344 148.3281,144.5938 Q147.0156,142.9375 147.0156,139.8125 Q147.0156,136.6875 148.3281,135.0313 Q149.6563,133.375 152.1563,133.375 Q152.8594,133.375 153.5,133.5313 Q154.1563,133.6875 154.7188,133.9844 L154.7188,136.7031 Q154.0938,136.125 153.5,135.8594 Q152.9063,135.5781 152.2813,135.5781 Q150.9375,135.5781 150.25,136.6563 Q149.5625,137.7188 149.5625,139.8125 Q149.5625,141.9063 150.25,142.9844 Q150.9375,144.0469 152.2813,144.0469 Q152.9063,144.0469 153.5,143.7813 Q154.0938,143.5 154.7188,142.9219 L154.7188,145.6406 Z " fill="#000000"/><text fill="#000000" font-family="sans-serif" font-size="14" lengthAdjust="spacing" textLength="38" x="172.25" y="144.8467">Zopfli</text><line style="stroke:#181818;stroke-width:0.5;" x1="15" x2="335" y1="156" y2="156"/><line style="stroke:#181818;stroke-width:0.5;" x1="15" x2="335" y1="164" y2="164"/><a href="./../../../../../.././qc/src/net/sourceforge/plantuml/zopfli/Zopfli.java.html#130" target="_top" title="./../../../../../.././qc/src/net/sourceforge/plantuml/zopfli/Zopfli.java.html#130" xlink:actuate="onRequest" xlink:href="./../../../../../.././qc/src/net/sourceforge/plantuml/zopfli/Zopfli.java.html#130" xlink:show="new" xlink:title="./../../../../../.././qc/src/net/sourceforge/plantuml/zopfli/Zopfli.java.html#130" xlink:type="simple"><rect fill="#F1F1F1" height="10" style="stroke:none;stroke-width:1.0;" width="20" x="20" y="172.6484"/><ellipse cx="25" cy="177.6484" fill="#84BE84" rx="3" ry="3" style="stroke:#038048;stroke-width:1.0;"/></a><a href="./../../../../../.././qc/src/net/sourceforge/plantuml/zopfli/Zopfli.java.html#130" target="_top" title="./../../../../../.././qc/src/net/sourceforge/plantuml/zopfli/Zopfli.java.html#130" xlink:actuate="onRequest" xlink:href="./../../../../../.././qc/src/net/sourceforge/plantuml/zopfli/Zopfli.java.html#130" xlink:show="new" xlink:title="./../../../../../.././qc/src/net/sourceforge/plantuml/zopfli/Zopfli.java.html#130" xlink:type="simple"><text fill="#000000" font-family="sans-serif" font-size="14" lengthAdjust="spacing" textLength="232" x="34" y="180.9951">compress(Options;byte[]) : Buffer</text></a><a href="./../../../../../.././qc/src/net/sourceforge/plantuml/zopfli/Zopfli.java.html#130" target="_top" title="./../../../../../.././qc/src/net/sourceforge/plantuml/zopfli/Zopfli.java.html#130" xlink:actuate="onRequest" xlink:href="./../../../../../.././qc/src/net/sourceforge/plantuml/zopfli/Zopfli.java.html#130" xlink:show="new" xlink:title="./../../../../../.././qc/src/net/sourceforge/plantuml/zopfli/Zopfli.java.html#130" xlink:type="simple"><rect fill="#F1F1F1" height="10" style="stroke:none;stroke-width:1.0;" width="20" x="20" y="188.9453"/><rect fill="#F24D5C" height="6" style="stroke:#C82930;stroke-width:1.0;" width="6" x="22" y="190.9453"/></a><a href="./../../../../../.././qc/src/net/sourceforge/plantuml/zopfli/Zopfli.java.html#130" target="_top" title="./../../../../../.././qc/src/net/sourceforge/plantuml/zopfli/Zopfli.java.html#130" xlink:actuate="onRequest" xlink:href="./../../../../../.././qc/src/net/sourceforge/plantuml/zopfli/Zopfli.java.html#130" xlink:show="new" xlink:title="./../../../../../.././qc/src/net/sourceforge/plantuml/zopfli/Zopfli.java.html#130" xlink:type="simple"><text fill="#000000" font-family="sans-serif" font-size="14" lengthAdjust="spacing" textLength="132" x="34" y="197.292">adler32(byte[]) : int</text></a><a href="./../../../../../.././qc/src/net/sourceforge/plantuml/zopfli/Zopfli.java.html#130" target="_top" title="./../../../../../.././qc/src/net/sourceforge/plantuml/zopfli/Zopfli.java.html#130" xlink:actuate="onRequest" xlink:href="./../../../../../.././qc/src/net/sourceforge/plantuml/zopfli/Zopfli.java.html#130" xlink:show="new" xlink:title="./../../../../../.././qc/src/net/sourceforge/plantuml/zopfli/Zopfli.java.html#130" xlink:type="simple"><rect fill="#F1F1F1" height="10" style="stroke:none;stroke-width:1.0;" width="20" x="20" y="205.2422"/><rect fill="#F24D5C" height="6" style="stroke:#C82930;stroke-width:1.0;" width="6" x="22" y="207.2422"/></a><a href="./../../../../../.././qc/src/net/sourceforge/plantuml/zopfli/Zopfli.java.html#130" target="_top" title="./../../../../../.././qc/src/net/sourceforge/plantuml/zopfli/Zopfli.java.html#130" xlink:actuate="onRequest" xlink:href="./../../../../../.././qc/src/net/sourceforge/plantuml/zopfli/Zopfli.java.html#130" xlink:show="new" xlink:title="./../../../../../.././qc/src/net/sourceforge/plantuml/zopfli/Zopfli.java.html#130" xlink:type="simple"><text fill="#000000" font-family="sans-serif" font-size="14" lengthAdjust="spacing" textLength="290" x="34" y="213.5889">compressZlib(Options;byte[];Buffer) : void</text></a><a href="./../../../../../.././qc/src/net/sourceforge/plantuml/zopfli/Zopfli.java.html#130" target="_top" title="./../../../../../.././qc/src/net/sourceforge/plantuml/zopfli/Zopfli.java.html#130" xlink:actuate="onRequest" xlink:href="./../../../../../.././qc/src/net/sourceforge/plantuml/zopfli/Zopfli.java.html#130" xlink:show="new" xlink:title="./../../../../../.././qc/src/net/sourceforge/plantuml/zopfli/Zopfli.java.html#130" xlink:type="simple"><rect fill="#F1F1F1" height="10" style="stroke:none;stroke-width:1.0;" width="20" x="20" y="221.5391"/><rect fill="#F24D5C" height="6" style="stroke:#C82930;stroke-width:1.0;" width="6" x="22" y="223.5391"/></a><a href="./../../../../../.././qc/src/net/sourceforge/plantuml/zopfli/Zopfli.java.html#130" target="_top" title="./../../../../../.././qc/src/net/sourceforge/plantuml/zopfli/Zopfli.java.html#130" xlink:actuate="onRequest" xlink:href="./../../../../../.././qc/src/net/sourceforge/plantuml/zopfli/Zopfli.java.html#130" xlink:show="new" xlink:title="./../../../../../.././qc/src/net/sourceforge/plantuml/zopfli/Zopfli.java.html#130" xlink:type="simple"><text fill="#000000" font-family="sans-serif" font-size="14" lengthAdjust="spacing" textLength="296" x="34" y="229.8857">compressGzip(Options;byte[];Buffer) : void</text></a><a href="./../../../../../.././qc/src/net/sourceforge/plantuml/zopfli/Zopfli.java.html#1" target="_top" title="./../../../../../.././qc/src/net/sourceforge/plantuml/zopfli/Zopfli.java.html#1" xlink:actuate="onRequest" xlink:href="./../../../../../.././qc/src/net/sourceforge/plantuml/zopfli/Zopfli.java.html#1" xlink:show="new" xlink:title="./../../../../../.././qc/src/net/sourceforge/plantuml/zopfli/Zopfli.java.html#1" xlink:type="simple"><rect fill="#F1F1F1" height="10" style="stroke:none;stroke-width:1.0;" width="20" x="20" y="237.8359"/><ellipse cx="25" cy="242.8359" fill="#84BE84" rx="3" ry="3" style="stroke:#038048;stroke-width:1.0;"/></a><a href="./../../../../../.././qc/src/net/sourceforge/plantuml/zopfli/Zopfli.java.html#1" target="_top" title="./../../../../../.././qc/src/net/sourceforge/plantuml/zopfli/Zopfli.java.html#1" xlink:actuate="onRequest" xlink:href="./../../../../../.././qc/src/net/sourceforge/plantuml/zopfli/Zopfli.java.html#1" xlink:show="new" xlink:title="./../../../../../.././qc/src/net/sourceforge/plantuml/zopfli/Zopfli.java.html#1" xlink:type="simple"><text fill="#000000" font-family="sans-serif" font-size="14" lengthAdjust="spacing" textLength="116" x="34" y="246.1826">Zopfli(int) : Zopfli</text></a></g><path d="M175,81.152 C175,93.2288 175,108.6536 175,123.9859 " fill="none" style="stroke:#181818;stroke-width:1.0;"/><polygon fill="#FFFFFF" points="175,81.152,169,97.152,181,97.152,175,81.152" style="stroke:#181818;stroke-width:1.0;"/><!--MD5=[98f9dd1d8bb819431fcb6e8e709d9abc]
@startuml
!pragma layout smetana
"java.lang.Object" <|- - "net.sourceforge.plantuml.zopfli.Zopfli"
class net.sourceforge.plantuml.zopfli.Zopfli {
+compress(Options;byte[]) : Buffer [[[./../../../../../.././qc/src/net/sourceforge/plantuml/zopfli/Zopfli.java.html#130]]]
-adler32(byte[]) : int [[[./../../../../../.././qc/src/net/sourceforge/plantuml/zopfli/Zopfli.java.html#130]]]
-compressZlib(Options;byte[];Buffer) : void [[[./../../../../../.././qc/src/net/sourceforge/plantuml/zopfli/Zopfli.java.html#130]]]
-compressGzip(Options;byte[];Buffer) : void [[[./../../../../../.././qc/src/net/sourceforge/plantuml/zopfli/Zopfli.java.html#130]]]
+Zopfli(int) : Zopfli [[[./../../../../../.././qc/src/net/sourceforge/plantuml/zopfli/Zopfli.java.html#1]]]
} 
@enduml

PlantUML version 1.2022.7(Mon Aug 22 17:01:30 UTC 2022)
(GPL source distribution)
Java Runtime: OpenJDK Runtime Environment
JVM: OpenJDK 64-Bit Server VM
Default Encoding: UTF-8
Language: en
Country: null
--></g></svg>