<?xml version="1.0" encoding="UTF-8" standalone="no"?><svg xmlns="http://www.w3.org/2000/svg" xmlns:xlink="http://www.w3.org/1999/xlink" contentStyleType="text/css" height="186px" preserveAspectRatio="none" style="width:591px;height:186px;background:#FFFFFF;" version="1.1" viewBox="0 0 591 186" width="591px" zoomAndPan="magnify"><defs/><g><!--MD5=[c3d720ce410194cf308576f78a195bfe]
cluster net.sourceforge.plantuml.activitydiagram3.ftile.vcompact--><g id="cluster_net.sourceforge.plantuml.activitydiagram3.ftile.vcompact"><path d="M8.5,63 L460.5,63 A3.75,3.75 0 0 1 463,65.5 L470,85.2969 L581.5,85.2969 A2.5,2.5 0 0 1 584,87.7969 L584,176.5 A2.5,2.5 0 0 1 581.5,179 L8.5,179 A2.5,2.5 0 0 1 6,176.5 L6,65.5 A2.5,2.5 0 0 1 8.5,63 " fill="none" style="stroke:#000000;stroke-width:1.5;"/><line style="stroke:#000000;stroke-width:1.5;" x1="6" x2="470" y1="85.2969" y2="85.2969"/><text fill="#000000" font-family="sans-serif" font-size="14" font-weight="bold" lengthAdjust="spacing" textLength="451" x="10" y="77.9951">net.sourceforge.plantuml.activitydiagram3.ftile.vcompact</text></g><!--MD5=[eb2610b00edc49d1f53fe16cc07f258f]
class FtileFactoryDelegator--><g id="elem_FtileFactoryDelegator"><rect fill="#F1F1F1" height="48" id="FtileFactoryDelegator" rx="2.5" ry="2.5" style="stroke:#181818;stroke-width:0.5;" width="178" x="206" y="6"/><ellipse cx="221" cy="22" fill="#ADD1B2" rx="11" ry="11" style="stroke:#181818;stroke-width:1.0;"/><path d="M223.9688,27.6406 Q223.3906,27.9375 222.75,28.0781 Q222.1094,28.2344 221.4063,28.2344 Q218.9063,28.2344 217.5781,26.5938 Q216.2656,24.9375 216.2656,21.8125 Q216.2656,18.6875 217.5781,17.0313 Q218.9063,15.375 221.4063,15.375 Q222.1094,15.375 222.75,15.5313 Q223.4063,15.6875 223.9688,15.9844 L223.9688,18.7031 Q223.3438,18.125 222.75,17.8594 Q222.1563,17.5781 221.5313,17.5781 Q220.1875,17.5781 219.5,18.6563 Q218.8125,19.7188 218.8125,21.8125 Q218.8125,23.9063 219.5,24.9844 Q220.1875,26.0469 221.5313,26.0469 Q222.1563,26.0469 222.75,25.7813 Q223.3438,25.5 223.9688,24.9219 L223.9688,27.6406 Z " fill="#000000"/><text fill="#000000" font-family="sans-serif" font-size="14" lengthAdjust="spacing" textLength="146" x="235" y="26.8467">FtileFactoryDelegator</text><line style="stroke:#181818;stroke-width:0.5;" x1="207" x2="383" y1="38" y2="38"/><line style="stroke:#181818;stroke-width:0.5;" x1="207" x2="383" y1="46" y2="46"/></g><!--MD5=[6a97fd3533fc1fd339b5eb9cea06e806]
class net.sourceforge.plantuml.activitydiagram3.ftile.vcompact.FtileFactoryDelegatorAddNote--><g id="elem_net.sourceforge.plantuml.activitydiagram3.ftile.vcompact.FtileFactoryDelegatorAddNote"><rect codeLine="3" fill="#F1F1F1" height="80.5938" id="net.sourceforge.plantuml.activitydiagram3.ftile.vcompact.FtileFactoryDelegatorAddNote" rx="2.5" ry="2.5" style="stroke:#181818;stroke-width:0.5;" width="561" x="14.5" y="90"/><ellipse cx="187.75" cy="106" fill="#ADD1B2" rx="11" ry="11" style="stroke:#181818;stroke-width:1.0;"/><path d="M190.7188,111.6406 Q190.1406,111.9375 189.5,112.0781 Q188.8594,112.2344 188.1563,112.2344 Q185.6563,112.2344 184.3281,110.5938 Q183.0156,108.9375 183.0156,105.8125 Q183.0156,102.6875 184.3281,101.0313 Q185.6563,99.375 188.1563,99.375 Q188.8594,99.375 189.5,99.5313 Q190.1563,99.6875 190.7188,99.9844 L190.7188,102.7031 Q190.0938,102.125 189.5,101.8594 Q188.9063,101.5781 188.2813,101.5781 Q186.9375,101.5781 186.25,102.6563 Q185.5625,103.7188 185.5625,105.8125 Q185.5625,107.9063 186.25,108.9844 Q186.9375,110.0469 188.2813,110.0469 Q188.9063,110.0469 189.5,109.7813 Q190.0938,109.5 190.7188,108.9219 L190.7188,111.6406 Z " fill="#000000"/><text fill="#000000" font-family="sans-serif" font-size="14" lengthAdjust="spacing" textLength="206" x="208.25" y="110.8467">FtileFactoryDelegatorAddNote</text><line style="stroke:#181818;stroke-width:0.5;" x1="15.5" x2="574.5" y1="122" y2="122"/><line style="stroke:#181818;stroke-width:0.5;" x1="15.5" x2="574.5" y1="130" y2="130"/><a href="./../../../../../../../.././qc/src/net/sourceforge/plantuml/activitydiagram3/ftile/vcompact/FtileFactoryDelegatorAddNote.java.html#51" target="_top" title="./../../../../../../../.././qc/src/net/sourceforge/plantuml/activitydiagram3/ftile/vcompact/FtileFactoryDelegatorAddNote.java.html#51" xlink:actuate="onRequest" xlink:href="./../../../../../../../.././qc/src/net/sourceforge/plantuml/activitydiagram3/ftile/vcompact/FtileFactoryDelegatorAddNote.java.html#51" xlink:show="new" xlink:title="./../../../../../../../.././qc/src/net/sourceforge/plantuml/activitydiagram3/ftile/vcompact/FtileFactoryDelegatorAddNote.java.html#51" xlink:type="simple"><rect fill="#F1F1F1" height="10" style="stroke:none;stroke-width:1.0;" width="20" x="20.5" y="138.6484"/><ellipse cx="25.5" cy="143.6484" fill="#84BE84" rx="3" ry="3" style="stroke:#038048;stroke-width:1.0;"/></a><a href="./../../../../../../../.././qc/src/net/sourceforge/plantuml/activitydiagram3/ftile/vcompact/FtileFactoryDelegatorAddNote.java.html#51" target="_top" title="./../../../../../../../.././qc/src/net/sourceforge/plantuml/activitydiagram3/ftile/vcompact/FtileFactoryDelegatorAddNote.java.html#51" xlink:actuate="onRequest" xlink:href="./../../../../../../../.././qc/src/net/sourceforge/plantuml/activitydiagram3/ftile/vcompact/FtileFactoryDelegatorAddNote.java.html#51" xlink:show="new" xlink:title="./../../../../../../../.././qc/src/net/sourceforge/plantuml/activitydiagram3/ftile/vcompact/FtileFactoryDelegatorAddNote.java.html#51" xlink:type="simple"><text fill="#000000" font-family="sans-serif" font-size="14" lengthAdjust="spacing" textLength="513" x="34.5" y="146.9951">FtileFactoryDelegatorAddNote(FtileFactory) : FtileFactoryDelegatorAddNote</text></a><a href="./../../../../../../../.././qc/src/net/sourceforge/plantuml/activitydiagram3/ftile/vcompact/FtileFactoryDelegatorAddNote.java.html#56" target="_top" title="./../../../../../../../.././qc/src/net/sourceforge/plantuml/activitydiagram3/ftile/vcompact/FtileFactoryDelegatorAddNote.java.html#56" xlink:actuate="onRequest" xlink:href="./../../../../../../../.././qc/src/net/sourceforge/plantuml/activitydiagram3/ftile/vcompact/FtileFactoryDelegatorAddNote.java.html#56" xlink:show="new" xlink:title="./../../../../../../../.././qc/src/net/sourceforge/plantuml/activitydiagram3/ftile/vcompact/FtileFactoryDelegatorAddNote.java.html#56" xlink:type="simple"><rect fill="#F1F1F1" height="10" style="stroke:none;stroke-width:1.0;" width="20" x="20.5" y="154.9453"/><ellipse cx="25.5" cy="159.9453" fill="#84BE84" rx="3" ry="3" style="stroke:#038048;stroke-width:1.0;"/></a><a href="./../../../../../../../.././qc/src/net/sourceforge/plantuml/activitydiagram3/ftile/vcompact/FtileFactoryDelegatorAddNote.java.html#56" target="_top" title="./../../../../../../../.././qc/src/net/sourceforge/plantuml/activitydiagram3/ftile/vcompact/FtileFactoryDelegatorAddNote.java.html#56" xlink:actuate="onRequest" xlink:href="./../../../../../../../.././qc/src/net/sourceforge/plantuml/activitydiagram3/ftile/vcompact/FtileFactoryDelegatorAddNote.java.html#56" xlink:show="new" xlink:title="./../../../../../../../.././qc/src/net/sourceforge/plantuml/activitydiagram3/ftile/vcompact/FtileFactoryDelegatorAddNote.java.html#56" xlink:type="simple"><text fill="#000000" font-family="sans-serif" font-size="14" lengthAdjust="spacing" textLength="535" x="34.5" y="163.292">addNote(Ftile;Swimlane;Collection&lt;PositionedNote&gt;;VerticalAlignment) : Ftile</text></a></g><path d="M295,54.0939 C295,64.784 295,77.7904 295,89.9706 " fill="none" style="stroke:#181818;stroke-width:1.0;"/><polygon fill="#FFFFFF" points="295,54.0939,289,70.0939,301,70.0939,295,54.0939" style="stroke:#181818;stroke-width:1.0;"/><!--MD5=[6dc1f27ee55d1719d9e028e1626930d3]
@startuml
!pragma layout smetana
"FtileFactoryDelegator" <|- - "net.sourceforge.plantuml.activitydiagram3.ftile.vcompact.FtileFactoryDelegatorAddNote"
class net.sourceforge.plantuml.activitydiagram3.ftile.vcompact.FtileFactoryDelegatorAddNote {
+FtileFactoryDelegatorAddNote(FtileFactory) : FtileFactoryDelegatorAddNote [[[./../../../../../../../.././qc/src/net/sourceforge/plantuml/activitydiagram3/ftile/vcompact/FtileFactoryDelegatorAddNote.java.html#51]]]
+addNote(Ftile;Swimlane;Collection<PositionedNote>;VerticalAlignment) : Ftile [[[./../../../../../../../.././qc/src/net/sourceforge/plantuml/activitydiagram3/ftile/vcompact/FtileFactoryDelegatorAddNote.java.html#56]]]
} 
@enduml

PlantUML version 1.2022.7(Mon Aug 22 17:01:30 UTC 2022)
(GPL source distribution)
Java Runtime: OpenJDK Runtime Environment
JVM: OpenJDK 64-Bit Server VM
Default Encoding: UTF-8
Language: en
Country: null
--></g></svg>