<?xml version="1.0" encoding="UTF-8" standalone="no"?><svg xmlns="http://www.w3.org/2000/svg" xmlns:xlink="http://www.w3.org/1999/xlink" contentStyleType="text/css" height="202px" preserveAspectRatio="none" style="width:537px;height:202px;background:#FFFFFF;" version="1.1" viewBox="0 0 537 202" width="537px" zoomAndPan="magnify"><defs/><g><!--MD5=[b20e0d1a5977452a6f6a36ae5d781ba3]
cluster net.sourceforge.plantuml.ugraphic.g2d--><g id="cluster_net.sourceforge.plantuml.ugraphic.g2d"><path d="M8.5,63 L319.5,63 A3.75,3.75 0 0 1 322,65.5 L329,85.2969 L527.5,85.2969 A2.5,2.5 0 0 1 530,87.7969 L530,192.5 A2.5,2.5 0 0 1 527.5,195 L8.5,195 A2.5,2.5 0 0 1 6,192.5 L6,65.5 A2.5,2.5 0 0 1 8.5,63 " fill="none" style="stroke:#000000;stroke-width:1.5;"/><line style="stroke:#000000;stroke-width:1.5;" x1="6" x2="329" y1="85.2969" y2="85.2969"/><text fill="#000000" font-family="sans-serif" font-size="14" font-weight="bold" lengthAdjust="spacing" textLength="310" x="10" y="77.9951">net.sourceforge.plantuml.ugraphic.g2d</text></g><!--MD5=[9953e3129ec70aef7ea075052471e073]
class DriverShadowedG2d--><g id="elem_DriverShadowedG2d"><rect fill="#F1F1F1" height="48" id="DriverShadowedG2d" rx="2.5" ry="2.5" style="stroke:#181818;stroke-width:0.5;" width="174" x="181" y="6"/><ellipse cx="196" cy="22" fill="#ADD1B2" rx="11" ry="11" style="stroke:#181818;stroke-width:1.0;"/><path d="M198.9688,27.6406 Q198.3906,27.9375 197.75,28.0781 Q197.1094,28.2344 196.4063,28.2344 Q193.9063,28.2344 192.5781,26.5938 Q191.2656,24.9375 191.2656,21.8125 Q191.2656,18.6875 192.5781,17.0313 Q193.9063,15.375 196.4063,15.375 Q197.1094,15.375 197.75,15.5313 Q198.4063,15.6875 198.9688,15.9844 L198.9688,18.7031 Q198.3438,18.125 197.75,17.8594 Q197.1563,17.5781 196.5313,17.5781 Q195.1875,17.5781 194.5,18.6563 Q193.8125,19.7188 193.8125,21.8125 Q193.8125,23.9063 194.5,24.9844 Q195.1875,26.0469 196.5313,26.0469 Q197.1563,26.0469 197.75,25.7813 Q198.3438,25.5 198.9688,24.9219 L198.9688,27.6406 Z " fill="#000000"/><text fill="#000000" font-family="sans-serif" font-size="14" lengthAdjust="spacing" textLength="142" x="210" y="26.8467">DriverShadowedG2d</text><line style="stroke:#181818;stroke-width:0.5;" x1="182" x2="354" y1="38" y2="38"/><line style="stroke:#181818;stroke-width:0.5;" x1="182" x2="354" y1="46" y2="46"/></g><!--MD5=[c267ed1a53786afcf3b0638dbc4eb174]
class net.sourceforge.plantuml.ugraphic.g2d.DriverEllipseG2d--><g id="elem_net.sourceforge.plantuml.ugraphic.g2d.DriverEllipseG2d"><rect codeLine="3" fill="#F1F1F1" height="96.8906" id="net.sourceforge.plantuml.ugraphic.g2d.DriverEllipseG2d" rx="2.5" ry="2.5" style="stroke:#181818;stroke-width:0.5;" width="507" x="14.5" y="90"/><ellipse cx="207.25" cy="106" fill="#ADD1B2" rx="11" ry="11" style="stroke:#181818;stroke-width:1.0;"/><path d="M210.2188,111.6406 Q209.6406,111.9375 209,112.0781 Q208.3594,112.2344 207.6563,112.2344 Q205.1563,112.2344 203.8281,110.5938 Q202.5156,108.9375 202.5156,105.8125 Q202.5156,102.6875 203.8281,101.0313 Q205.1563,99.375 207.6563,99.375 Q208.3594,99.375 209,99.5313 Q209.6563,99.6875 210.2188,99.9844 L210.2188,102.7031 Q209.5938,102.125 209,101.8594 Q208.4063,101.5781 207.7813,101.5781 Q206.4375,101.5781 205.75,102.6563 Q205.0625,103.7188 205.0625,105.8125 Q205.0625,107.9063 205.75,108.9844 Q206.4375,110.0469 207.7813,110.0469 Q208.4063,110.0469 209,109.7813 Q209.5938,109.5 210.2188,108.9219 L210.2188,111.6406 Z " fill="#000000"/><text fill="#000000" font-family="sans-serif" font-size="14" lengthAdjust="spacing" textLength="113" x="227.75" y="110.8467">DriverEllipseG2d</text><line style="stroke:#181818;stroke-width:0.5;" x1="15.5" x2="520.5" y1="122" y2="122"/><line style="stroke:#181818;stroke-width:0.5;" x1="15.5" x2="520.5" y1="130" y2="130"/><a href="./../../../../../../.././qc/src/net/sourceforge/plantuml/ugraphic/g2d/DriverEllipseG2d.java.html#58" target="_top" title="./../../../../../../.././qc/src/net/sourceforge/plantuml/ugraphic/g2d/DriverEllipseG2d.java.html#58" xlink:actuate="onRequest" xlink:href="./../../../../../../.././qc/src/net/sourceforge/plantuml/ugraphic/g2d/DriverEllipseG2d.java.html#58" xlink:show="new" xlink:title="./../../../../../../.././qc/src/net/sourceforge/plantuml/ugraphic/g2d/DriverEllipseG2d.java.html#58" xlink:type="simple"><rect fill="#F1F1F1" height="10" style="stroke:none;stroke-width:1.0;" width="20" x="20.5" y="138.6484"/><ellipse cx="25.5" cy="143.6484" fill="#84BE84" rx="3" ry="3" style="stroke:#038048;stroke-width:1.0;"/></a><a href="./../../../../../../.././qc/src/net/sourceforge/plantuml/ugraphic/g2d/DriverEllipseG2d.java.html#58" target="_top" title="./../../../../../../.././qc/src/net/sourceforge/plantuml/ugraphic/g2d/DriverEllipseG2d.java.html#58" xlink:actuate="onRequest" xlink:href="./../../../../../../.././qc/src/net/sourceforge/plantuml/ugraphic/g2d/DriverEllipseG2d.java.html#58" xlink:show="new" xlink:title="./../../../../../../.././qc/src/net/sourceforge/plantuml/ugraphic/g2d/DriverEllipseG2d.java.html#58" xlink:type="simple"><text fill="#000000" font-family="sans-serif" font-size="14" lengthAdjust="spacing" textLength="395" x="34.5" y="146.9951">DriverEllipseG2d(double;EnsureVisible) : DriverEllipseG2d</text></a><a href="./../../../../../../.././qc/src/net/sourceforge/plantuml/ugraphic/g2d/DriverEllipseG2d.java.html#63" target="_top" title="./../../../../../../.././qc/src/net/sourceforge/plantuml/ugraphic/g2d/DriverEllipseG2d.java.html#63" xlink:actuate="onRequest" xlink:href="./../../../../../../.././qc/src/net/sourceforge/plantuml/ugraphic/g2d/DriverEllipseG2d.java.html#63" xlink:show="new" xlink:title="./../../../../../../.././qc/src/net/sourceforge/plantuml/ugraphic/g2d/DriverEllipseG2d.java.html#63" xlink:type="simple"><rect fill="#F1F1F1" height="10" style="stroke:none;stroke-width:1.0;" width="20" x="20.5" y="154.9453"/><ellipse cx="25.5" cy="159.9453" fill="#84BE84" rx="3" ry="3" style="stroke:#038048;stroke-width:1.0;"/></a><a href="./../../../../../../.././qc/src/net/sourceforge/plantuml/ugraphic/g2d/DriverEllipseG2d.java.html#63" target="_top" title="./../../../../../../.././qc/src/net/sourceforge/plantuml/ugraphic/g2d/DriverEllipseG2d.java.html#63" xlink:actuate="onRequest" xlink:href="./../../../../../../.././qc/src/net/sourceforge/plantuml/ugraphic/g2d/DriverEllipseG2d.java.html#63" xlink:show="new" xlink:title="./../../../../../../.././qc/src/net/sourceforge/plantuml/ugraphic/g2d/DriverEllipseG2d.java.html#63" xlink:type="simple"><text fill="#000000" font-family="sans-serif" font-size="14" lengthAdjust="spacing" textLength="481" x="34.5" y="163.292">draw(UEllipse;double;double;ColorMapper;UParam;Graphics2D) : void</text></a><a href="./../../../../../../.././qc/src/net/sourceforge/plantuml/ugraphic/g2d/DriverEllipseG2d.java.html#105" target="_top" title="./../../../../../../.././qc/src/net/sourceforge/plantuml/ugraphic/g2d/DriverEllipseG2d.java.html#105" xlink:actuate="onRequest" xlink:href="./../../../../../../.././qc/src/net/sourceforge/plantuml/ugraphic/g2d/DriverEllipseG2d.java.html#105" xlink:show="new" xlink:title="./../../../../../../.././qc/src/net/sourceforge/plantuml/ugraphic/g2d/DriverEllipseG2d.java.html#105" xlink:type="simple"><text fill="#000000" font-family="sans-serif" font-size="14" lengthAdjust="spacing" textLength="160" x="34.5" y="179.5889">round(double) : double</text></a></g><path d="M268,54.1089 C268,64.6313 268,77.495 268,89.9394 " fill="none" style="stroke:#181818;stroke-width:1.0;"/><polygon fill="#FFFFFF" points="268,54.1089,262,70.1089,274,70.1089,268,54.1089" style="stroke:#181818;stroke-width:1.0;"/><!--MD5=[42f9e5655a1fdbcdfa070a4c2d05dd01]
@startuml
!pragma layout smetana
"DriverShadowedG2d" <|- - "net.sourceforge.plantuml.ugraphic.g2d.DriverEllipseG2d"
class net.sourceforge.plantuml.ugraphic.g2d.DriverEllipseG2d {
+DriverEllipseG2d(double;EnsureVisible) : DriverEllipseG2d [[[./../../../../../../.././qc/src/net/sourceforge/plantuml/ugraphic/g2d/DriverEllipseG2d.java.html#58]]]
+draw(UEllipse;double;double;ColorMapper;UParam;Graphics2D) : void [[[./../../../../../../.././qc/src/net/sourceforge/plantuml/ugraphic/g2d/DriverEllipseG2d.java.html#63]]]
round(double) : double [[[./../../../../../../.././qc/src/net/sourceforge/plantuml/ugraphic/g2d/DriverEllipseG2d.java.html#105]]]
} 
@enduml

PlantUML version 1.2022.7(Mon Aug 22 17:01:30 UTC 2022)
(GPL source distribution)
Java Runtime: OpenJDK Runtime Environment
JVM: OpenJDK 64-Bit Server VM
Default Encoding: UTF-8
Language: en
Country: null
--></g></svg>