<?xml version="1.0" encoding="UTF-8" standalone="no"?><svg xmlns="http://www.w3.org/2000/svg" xmlns:xlink="http://www.w3.org/1999/xlink" contentStyleType="text/css" height="1611px" preserveAspectRatio="none" style="width:1349px;height:1611px;background:#FFFFFF;" version="1.1" viewBox="0 0 1349 1611" width="1349px" zoomAndPan="magnify"><defs/><g><path d="M834.25,10 L834.25,26.1328 L814.25,30.1328 L834.25,34.1328 L834.25,50.2656 A0,0 0 0 0 834.25,50.2656 L1151.25,50.2656 A0,0 0 0 0 1151.25,50.2656 L1151.25,20 L1141.25,10 L834.25,10 A0,0 0 0 0 834.25,10 " fill="#FEFFDD" style="stroke:#181818;stroke-width:0.5;"/><path d="M1141.25,10 L1141.25,20 L1151.25,20 L1141.25,10 " fill="#FEFFDD" style="stroke:#181818;stroke-width:0.5;"/><text fill="#000000" font-family="sans-serif" font-size="13" lengthAdjust="spacing" textLength="296" x="840.25" y="27.0669">constructor DriverEllipseG2d(double dpiFactor,</text><text fill="#000000" font-family="sans-serif" font-size="13" lengthAdjust="spacing" textLength="133" x="840.25" y="42.1997">EnsureVisible visible)</text><ellipse cx="804.25" cy="30.1328" fill="#222222" rx="10" ry="10" style="stroke:#222222;stroke-width:1.0;"/><rect fill="#F1F1F1" height="33.9688" rx="12.5" ry="12.5" style="stroke:#181818;stroke-width:0.5;" width="179" x="714.75" y="70.2656"/><text fill="#000000" font-family="sans-serif" font-size="12" lengthAdjust="spacing" textLength="159" x="724.75" y="91.4043">this.dpiFactor=dpiFactor;</text><rect fill="#F1F1F1" height="33.9688" rx="12.5" ry="12.5" style="stroke:#181818;stroke-width:0.5;" width="137" x="735.75" y="124.2344"/><text fill="#000000" font-family="sans-serif" font-size="12" lengthAdjust="spacing" textLength="117" x="745.75" y="145.373">this.visible=visible;</text><ellipse cx="804.25" cy="188.2031" fill="none" rx="10" ry="10" style="stroke:#222222;stroke-width:1.5;"/><line style="stroke:#222222;stroke-width:2.5;" x1="798.0628" x2="810.4372" y1="182.0159" y2="194.3903"/><line style="stroke:#222222;stroke-width:2.5;" x1="810.4372" x2="798.0628" y1="182.0159" y2="194.3903"/><path d="M834.25,208.2031 L834.25,224.3359 L814.25,228.3359 L834.25,232.3359 L834.25,248.4688 A0,0 0 0 0 834.25,248.4688 L1203.25,248.4688 A0,0 0 0 0 1203.25,248.4688 L1203.25,218.2031 L1193.25,208.2031 L834.25,208.2031 A0,0 0 0 0 834.25,208.2031 " fill="#FEFFDD" style="stroke:#181818;stroke-width:0.5;"/><path d="M1193.25,208.2031 L1193.25,218.2031 L1203.25,218.2031 L1193.25,208.2031 " fill="#FEFFDD" style="stroke:#181818;stroke-width:0.5;"/><text fill="#000000" font-family="sans-serif" font-size="13" lengthAdjust="spacing" textLength="279" x="840.25" y="225.27">void draw(UEllipse ellipse,double x,double y,</text><text fill="#000000" font-family="sans-serif" font-size="13" lengthAdjust="spacing" textLength="348" x="840.25" y="240.4028">ColorMapper mapper,UParam param,Graphics2D g2d)</text><ellipse cx="804.25" cy="228.3359" fill="#222222" rx="10" ry="10" style="stroke:#222222;stroke-width:1.0;"/><rect fill="#F1F1F1" height="47.9375" rx="12.5" ry="12.5" style="stroke:#181818;stroke-width:0.5;" width="380" x="614.25" y="268.4688"/><text fill="#000000" font-family="sans-serif" font-size="12" lengthAdjust="spacing" textLength="360" x="624.25" y="289.6074">g2d.setStroke(new BasicStroke((float )param.getStroke()</text><text fill="#000000" font-family="sans-serif" font-size="12" lengthAdjust="spacing" textLength="111" x="624.25" y="303.5762">.getThickness()));</text><rect fill="#F1F1F1" height="33.9688" rx="12.5" ry="12.5" style="stroke:#181818;stroke-width:0.5;" width="176" x="716.25" y="336.4063"/><text fill="#000000" font-family="sans-serif" font-size="12" lengthAdjust="spacing" textLength="156" x="726.25" y="357.5449">visible.ensureVisible(x,y);</text><rect fill="#F1F1F1" height="47.9375" rx="12.5" ry="12.5" style="stroke:#181818;stroke-width:0.5;" width="297" x="655.75" y="390.375"/><text fill="#000000" font-family="sans-serif" font-size="12" lengthAdjust="spacing" textLength="277" x="665.75" y="411.5137">visible.ensureVisible(x+ellipse.getWidth(),y+</text><text fill="#000000" font-family="sans-serif" font-size="12" lengthAdjust="spacing" textLength="125" x="665.75" y="425.4824">ellipse.getHeight());</text><rect fill="#F1F1F1" height="33.9688" rx="12.5" ry="12.5" style="stroke:#181818;stroke-width:0.5;" width="247" x="680.75" y="458.3125"/><text fill="#000000" font-family="sans-serif" font-size="12" lengthAdjust="spacing" textLength="227" x="690.75" y="479.4512">final HColor color=param.getColor();</text><polygon fill="#F1F1F1" points="669.25,512.2813,939.25,512.2813,951.25,524.2813,939.25,536.2813,669.25,536.2813,657.25,524.2813,669.25,512.2813" style="stroke:#181818;stroke-width:0.5;"/><text fill="#000000" font-family="sans-serif" font-size="11" lengthAdjust="spacing" textLength="270" x="669.25" y="528.0894">ellipse.getStart()==0&amp;&amp;ellipse.getExtend()==0</text><text fill="#000000" font-family="sans-serif" font-size="11" lengthAdjust="spacing" textLength="20" x="637.25" y="521.687">yes</text><text fill="#000000" font-family="sans-serif" font-size="11" lengthAdjust="spacing" textLength="14" x="951.25" y="521.687">no</text><rect fill="#F1F1F1" height="47.9375" rx="12.5" ry="12.5" style="stroke:#181818;stroke-width:0.5;" width="292" x="313" y="546.2813"/><text fill="#000000" font-family="sans-serif" font-size="12" lengthAdjust="spacing" textLength="272" x="323" y="567.4199">final Shape shape=new Ellipse2D.Double(x,</text><text fill="#000000" font-family="sans-serif" font-size="12" lengthAdjust="spacing" textLength="249" x="323" y="581.3887">y,ellipse.getWidth(),ellipse.getHeight());</text><rect fill="#F1F1F1" height="47.9375" rx="12.5" ry="12.5" style="stroke:#181818;stroke-width:0.5;" width="336" x="291" y="676.5898"/><text fill="#000000" font-family="sans-serif" font-size="12" lengthAdjust="spacing" textLength="316" x="301" y="697.7285">drawShadow(g2d,shape,ellipse.getDeltaShadow(),</text><text fill="#000000" font-family="sans-serif" font-size="12" lengthAdjust="spacing" textLength="68" x="301" y="711.6973">dpiFactor);</text><polygon fill="#F1F1F1" points="379,628.1875,539,628.1875,551,640.1875,539,652.1875,379,652.1875,367,640.1875,379,628.1875" style="stroke:#181818;stroke-width:0.5;"/><text fill="#000000" font-family="sans-serif" font-size="11" lengthAdjust="spacing" textLength="20" x="463" y="662.3979">yes</text><text fill="#000000" font-family="sans-serif" font-size="11" lengthAdjust="spacing" textLength="160" x="379" y="643.9956">ellipse.getDeltaShadow()!=0</text><polygon fill="#F1F1F1" points="459,748.9297,471,760.9297,459,772.9297,447,760.9297,459,748.9297" style="stroke:#181818;stroke-width:0.5;"/><rect fill="#F1F1F1" height="33.9688" rx="12.5" ry="12.5" style="stroke:#181818;stroke-width:0.5;" width="275" x="321.5" y="807.9297"/><text fill="#000000" font-family="sans-serif" font-size="12" lengthAdjust="spacing" textLength="255" x="331.5" y="829.0684">final HColor back=param.getBackcolor();</text><polygon fill="#F1F1F1" points="367,861.8984,551,861.8984,563,873.8984,551,885.8984,367,885.8984,355,873.8984,367,861.8984" style="stroke:#181818;stroke-width:0.5;"/><text fill="#000000" font-family="sans-serif" font-size="11" lengthAdjust="spacing" textLength="180" x="367" y="877.7065">back instanceof HColorGradient</text><text fill="#000000" font-family="sans-serif" font-size="11" lengthAdjust="spacing" textLength="20" x="335" y="871.3042">yes</text><text fill="#000000" font-family="sans-serif" font-size="11" lengthAdjust="spacing" textLength="14" x="563" y="871.3042">no</text><rect fill="#F1F1F1" height="61.9063" rx="12.5" ry="12.5" style="stroke:#181818;stroke-width:0.5;" width="432" x="11" y="895.8984"/><text fill="#000000" font-family="sans-serif" font-size="12" lengthAdjust="spacing" textLength="412" x="21" y="917.0371">final GradientPaint paint=DriverRectangleG2d.getPaintGradient(x,</text><text fill="#000000" font-family="sans-serif" font-size="12" lengthAdjust="spacing" textLength="296" x="21" y="931.0059">y,mapper,ellipse.getWidth(),ellipse.getHeight(),</text><text fill="#000000" font-family="sans-serif" font-size="12" lengthAdjust="spacing" textLength="39" x="21" y="944.9746">back);</text><rect fill="#F1F1F1" height="33.9688" rx="12.5" ry="12.5" style="stroke:#181818;stroke-width:0.5;" width="146" x="154" y="992.8047"/><text fill="#000000" font-family="sans-serif" font-size="12" lengthAdjust="spacing" textLength="126" x="164" y="1013.9434">g2d.setPaint(paint);</text><rect fill="#F1F1F1" height="33.9688" rx="12.5" ry="12.5" style="stroke:#181818;stroke-width:0.5;" width="114" x="170" y="1061.7734"/><text fill="#000000" font-family="sans-serif" font-size="12" lengthAdjust="spacing" textLength="94" x="180" y="1082.9121">g2d.fill(shape);</text><rect fill="#F1F1F1" height="47.9375" rx="12.5" ry="12.5" style="stroke:#181818;stroke-width:0.5;" width="304" x="75" y="1130.7422"/><text fill="#000000" font-family="sans-serif" font-size="12" lengthAdjust="spacing" textLength="284" x="85" y="1151.8809">DriverRectangleG2d.drawBorder(param,color,</text><text fill="#000000" font-family="sans-serif" font-size="12" lengthAdjust="spacing" textLength="192" x="85" y="1165.8496">mapper,ellipse,shape,g2d,x,y);</text><rect fill="#F1F1F1" height="33.9688" rx="12.5" ry="12.5" style="stroke:#181818;stroke-width:0.5;" width="357" x="512.5" y="944.3008"/><text fill="#000000" font-family="sans-serif" font-size="12" lengthAdjust="spacing" textLength="337" x="522.5" y="965.4395">g2d.setColor(param.getBackcolor().toColor(mapper));</text><rect fill="#F1F1F1" height="33.9688" rx="12.5" ry="12.5" style="stroke:#181818;stroke-width:0.5;" width="328" x="527" y="1013.2695"/><text fill="#000000" font-family="sans-serif" font-size="12" lengthAdjust="spacing" textLength="308" x="537" y="1034.4082">DriverRectangleG2d.managePattern(param,g2d);</text><rect fill="#F1F1F1" height="33.9688" rx="12.5" ry="12.5" style="stroke:#181818;stroke-width:0.5;" width="114" x="634" y="1082.2383"/><text fill="#000000" font-family="sans-serif" font-size="12" lengthAdjust="spacing" textLength="94" x="644" y="1103.377">g2d.fill(shape);</text><polygon fill="#F1F1F1" points="609,895.8984,773,895.8984,785,907.8984,773,919.8984,609,919.8984,597,907.8984,609,895.8984" style="stroke:#181818;stroke-width:0.5;"/><text fill="#000000" font-family="sans-serif" font-size="11" lengthAdjust="spacing" textLength="20" x="695" y="930.1089">yes</text><text fill="#000000" font-family="sans-serif" font-size="11" lengthAdjust="spacing" textLength="164" x="609" y="911.7065">back.isTransparent()==false</text><polygon fill="#F1F1F1" points="691,1140.6094,703,1152.6094,691,1164.6094,679,1152.6094,691,1140.6094" style="stroke:#181818;stroke-width:0.5;"/><rect fill="#F1F1F1" height="47.9375" rx="12.5" ry="12.5" style="stroke:#181818;stroke-width:0.5;" width="304" x="539" y="1247.082"/><text fill="#000000" font-family="sans-serif" font-size="12" lengthAdjust="spacing" textLength="284" x="549" y="1268.2207">DriverRectangleG2d.drawBorder(param,color,</text><text fill="#000000" font-family="sans-serif" font-size="12" lengthAdjust="spacing" textLength="192" x="549" y="1282.1895">mapper,ellipse,shape,g2d,x,y);</text><polygon fill="#F1F1F1" points="475,1198.6797,907,1198.6797,919,1210.6797,907,1222.6797,475,1222.6797,463,1210.6797,475,1198.6797" style="stroke:#181818;stroke-width:0.5;"/><text fill="#000000" font-family="sans-serif" font-size="11" lengthAdjust="spacing" textLength="20" x="695" y="1232.8901">yes</text><text fill="#000000" font-family="sans-serif" font-size="11" lengthAdjust="spacing" textLength="432" x="475" y="1214.4878">color.isTransparent()==false&amp;&amp;color.equals(param.getBackcolor())==false</text><polygon fill="#F1F1F1" points="691,1315.0195,703,1327.0195,691,1339.0195,679,1327.0195,691,1315.0195" style="stroke:#181818;stroke-width:0.5;"/><polygon fill="#F1F1F1" points="459,1345.0195,471,1357.0195,459,1369.0195,447,1357.0195,459,1345.0195" style="stroke:#181818;stroke-width:0.5;"/><rect fill="#F1F1F1" height="61.9063" rx="12.5" ry="12.5" style="stroke:#181818;stroke-width:0.5;" width="377" x="961" y="546.2813"/><text fill="#000000" font-family="sans-serif" font-size="12" lengthAdjust="spacing" textLength="357" x="971" y="567.4199">final Shape arc=new Arc2D.Double(x,y,ellipse.getWidth(),</text><text fill="#000000" font-family="sans-serif" font-size="12" lengthAdjust="spacing" textLength="277" x="971" y="581.3887">ellipse.getHeight(),round(ellipse.getStart()),</text><text fill="#000000" font-family="sans-serif" font-size="12" lengthAdjust="spacing" textLength="253" x="971" y="595.3574">round(ellipse.getExtend()),Arc2D.OPEN);</text><rect fill="#F1F1F1" height="33.9688" rx="12.5" ry="12.5" style="stroke:#181818;stroke-width:0.5;" width="252" x="1023.5" y="690.5586"/><text fill="#000000" font-family="sans-serif" font-size="12" lengthAdjust="spacing" textLength="232" x="1033.5" y="711.6973">g2d.setColor(color.toColor(mapper));</text><rect fill="#F1F1F1" height="33.9688" rx="12.5" ry="12.5" style="stroke:#181818;stroke-width:0.5;" width="112" x="1093.5" y="759.5273"/><text fill="#000000" font-family="sans-serif" font-size="12" lengthAdjust="spacing" textLength="92" x="1103.5" y="780.666">g2d.draw(arc);</text><polygon fill="#F1F1F1" points="1066.5,642.1563,1232.5,642.1563,1244.5,654.1563,1232.5,666.1563,1066.5,666.1563,1054.5,654.1563,1066.5,642.1563" style="stroke:#181818;stroke-width:0.5;"/><text fill="#000000" font-family="sans-serif" font-size="11" lengthAdjust="spacing" textLength="20" x="1153.5" y="676.3667">yes</text><text fill="#000000" font-family="sans-serif" font-size="11" lengthAdjust="spacing" textLength="166" x="1066.5" y="657.9644">color.isTransparent()==false</text><polygon fill="#F1F1F1" points="1149.5,817.8984,1161.5,829.8984,1149.5,841.8984,1137.5,829.8984,1149.5,817.8984" style="stroke:#181818;stroke-width:0.5;"/><polygon fill="#F1F1F1" points="804.25,1375.0195,816.25,1387.0195,804.25,1399.0195,792.25,1387.0195,804.25,1375.0195" style="stroke:#181818;stroke-width:0.5;"/><ellipse cx="804.25" cy="1429.0195" fill="none" rx="10" ry="10" style="stroke:#222222;stroke-width:1.5;"/><line style="stroke:#222222;stroke-width:2.5;" x1="798.0628" x2="810.4372" y1="1422.8323" y2="1435.2067"/><line style="stroke:#222222;stroke-width:2.5;" x1="810.4372" x2="798.0628" y1="1422.8323" y2="1435.2067"/><path d="M834.25,1449.0195 L834.25,1457.5859 L814.25,1461.5859 L834.25,1465.5859 L834.25,1474.1523 A0,0 0 0 0 834.25,1474.1523 L1030.25,1474.1523 A0,0 0 0 0 1030.25,1474.1523 L1030.25,1459.0195 L1020.25,1449.0195 L834.25,1449.0195 A0,0 0 0 0 834.25,1449.0195 " fill="#FEFFDD" style="stroke:#181818;stroke-width:0.5;"/><path d="M1020.25,1449.0195 L1020.25,1459.0195 L1030.25,1459.0195 L1020.25,1449.0195 " fill="#FEFFDD" style="stroke:#181818;stroke-width:0.5;"/><text fill="#000000" font-family="sans-serif" font-size="13" lengthAdjust="spacing" textLength="175" x="840.25" y="1466.0864">double round(double value)</text><ellipse cx="804.25" cy="1461.5859" fill="#222222" rx="10" ry="10" style="stroke:#222222;stroke-width:1.0;"/><rect fill="#F1F1F1" height="33.9688" rx="12.5" ry="12.5" style="stroke:#181818;stroke-width:0.5;" width="100" x="754.25" y="1494.1523"/><text fill="#000000" font-family="sans-serif" font-size="12" lengthAdjust="spacing" textLength="80" x="764.25" y="1515.291">return value;</text><ellipse cx="804.25" cy="1559.1211" fill="none" rx="11" ry="11" style="stroke:#222222;stroke-width:1.0;"/><ellipse cx="804.25" cy="1559.1211" fill="#222222" rx="6" ry="6" style="stroke:#111111;stroke-width:1.0;"/><ellipse cx="804.25" cy="1590.1211" fill="none" rx="10" ry="10" style="stroke:#222222;stroke-width:1.5;"/><line style="stroke:#222222;stroke-width:2.5;" x1="798.0628" x2="810.4372" y1="1583.9339" y2="1596.3083"/><line style="stroke:#222222;stroke-width:2.5;" x1="810.4372" x2="798.0628" y1="1583.9339" y2="1596.3083"/><line style="stroke:#181818;stroke-width:1.0;" x1="804.25" x2="804.25" y1="40.1328" y2="70.2656"/><polygon fill="#181818" points="800.25,60.2656,804.25,70.2656,808.25,60.2656,804.25,64.2656" style="stroke:#181818;stroke-width:1.0;"/><line style="stroke:#181818;stroke-width:1.0;" x1="804.25" x2="804.25" y1="104.2344" y2="124.2344"/><polygon fill="#181818" points="800.25,114.2344,804.25,124.2344,808.25,114.2344,804.25,118.2344" style="stroke:#181818;stroke-width:1.0;"/><line style="stroke:#181818;stroke-width:1.0;" x1="804.25" x2="804.25" y1="158.2031" y2="178.2031"/><polygon fill="#181818" points="800.25,168.2031,804.25,178.2031,808.25,168.2031,804.25,172.2031" style="stroke:#181818;stroke-width:1.0;"/><line style="stroke:#181818;stroke-width:1.0;" x1="804.25" x2="804.25" y1="238.3359" y2="268.4688"/><polygon fill="#181818" points="800.25,258.4688,804.25,268.4688,808.25,258.4688,804.25,262.4688" style="stroke:#181818;stroke-width:1.0;"/><line style="stroke:#181818;stroke-width:1.0;" x1="804.25" x2="804.25" y1="316.4063" y2="336.4063"/><polygon fill="#181818" points="800.25,326.4063,804.25,336.4063,808.25,326.4063,804.25,330.4063" style="stroke:#181818;stroke-width:1.0;"/><line style="stroke:#181818;stroke-width:1.0;" x1="804.25" x2="804.25" y1="370.375" y2="390.375"/><polygon fill="#181818" points="800.25,380.375,804.25,390.375,808.25,380.375,804.25,384.375" style="stroke:#181818;stroke-width:1.0;"/><line style="stroke:#181818;stroke-width:1.0;" x1="804.25" x2="804.25" y1="438.3125" y2="458.3125"/><polygon fill="#181818" points="800.25,448.3125,804.25,458.3125,808.25,448.3125,804.25,452.3125" style="stroke:#181818;stroke-width:1.0;"/><line style="stroke:#181818;stroke-width:1.0;" x1="459" x2="459" y1="652.1875" y2="676.5898"/><polygon fill="#181818" points="455,666.5898,459,676.5898,463,666.5898,459,670.5898" style="stroke:#181818;stroke-width:1.0;"/><line style="stroke:#181818;stroke-width:1.0;" x1="551" x2="637" y1="640.1875" y2="640.1875"/><polygon fill="#181818" points="633,690.5586,637,700.5586,641,690.5586,637,694.5586" style="stroke:#181818;stroke-width:1.0;"/><line style="stroke:#181818;stroke-width:1.0;" x1="637" x2="637" y1="640.1875" y2="760.9297"/><line style="stroke:#181818;stroke-width:1.0;" x1="637" x2="471" y1="760.9297" y2="760.9297"/><polygon fill="#181818" points="481,756.9297,471,760.9297,481,764.9297,477,760.9297" style="stroke:#181818;stroke-width:1.0;"/><line style="stroke:#181818;stroke-width:1.0;" x1="459" x2="459" y1="724.5273" y2="748.9297"/><polygon fill="#181818" points="455,738.9297,459,748.9297,463,738.9297,459,742.9297" style="stroke:#181818;stroke-width:1.0;"/><line style="stroke:#181818;stroke-width:1.0;" x1="459" x2="459" y1="594.2188" y2="628.1875"/><polygon fill="#181818" points="455,618.1875,459,628.1875,463,618.1875,459,622.1875" style="stroke:#181818;stroke-width:1.0;"/><line style="stroke:#181818;stroke-width:1.0;" x1="459" x2="459" y1="772.9297" y2="807.9297"/><polygon fill="#181818" points="455,797.9297,459,807.9297,463,797.9297,459,801.9297" style="stroke:#181818;stroke-width:1.0;"/><line style="stroke:#181818;stroke-width:1.0;" x1="227" x2="227" y1="957.8047" y2="992.8047"/><polygon fill="#181818" points="223,982.8047,227,992.8047,231,982.8047,227,986.8047" style="stroke:#181818;stroke-width:1.0;"/><line style="stroke:#181818;stroke-width:1.0;" x1="227" x2="227" y1="1026.7734" y2="1061.7734"/><polygon fill="#181818" points="223,1051.7734,227,1061.7734,231,1051.7734,227,1055.7734" style="stroke:#181818;stroke-width:1.0;"/><line style="stroke:#181818;stroke-width:1.0;" x1="227" x2="227" y1="1095.7422" y2="1130.7422"/><polygon fill="#181818" points="223,1120.7422,227,1130.7422,231,1120.7422,227,1124.7422" style="stroke:#181818;stroke-width:1.0;"/><line style="stroke:#181818;stroke-width:1.0;" x1="691" x2="691" y1="978.2695" y2="1013.2695"/><polygon fill="#181818" points="687,1003.2695,691,1013.2695,695,1003.2695,691,1007.2695" style="stroke:#181818;stroke-width:1.0;"/><line style="stroke:#181818;stroke-width:1.0;" x1="691" x2="691" y1="1047.2383" y2="1082.2383"/><polygon fill="#181818" points="687,1072.2383,691,1082.2383,695,1072.2383,691,1076.2383" style="stroke:#181818;stroke-width:1.0;"/><line style="stroke:#181818;stroke-width:1.0;" x1="691" x2="691" y1="919.8984" y2="944.3008"/><polygon fill="#181818" points="687,934.3008,691,944.3008,695,934.3008,691,938.3008" style="stroke:#181818;stroke-width:1.0;"/><line style="stroke:#181818;stroke-width:1.0;" x1="785" x2="879.5" y1="907.8984" y2="907.8984"/><polygon fill="#181818" points="875.5,1020.2539,879.5,1030.2539,883.5,1020.2539,879.5,1024.2539" style="stroke:#181818;stroke-width:1.0;"/><line style="stroke:#181818;stroke-width:1.0;" x1="879.5" x2="879.5" y1="907.8984" y2="1152.6094"/><line style="stroke:#181818;stroke-width:1.0;" x1="879.5" x2="703" y1="1152.6094" y2="1152.6094"/><polygon fill="#181818" points="713,1148.6094,703,1152.6094,713,1156.6094,709,1152.6094" style="stroke:#181818;stroke-width:1.0;"/><line style="stroke:#181818;stroke-width:1.0;" x1="691" x2="691" y1="1116.207" y2="1140.6094"/><polygon fill="#181818" points="687,1130.6094,691,1140.6094,695,1130.6094,691,1134.6094" style="stroke:#181818;stroke-width:1.0;"/><line style="stroke:#181818;stroke-width:1.0;" x1="691" x2="691" y1="1222.6797" y2="1247.082"/><polygon fill="#181818" points="687,1237.082,691,1247.082,695,1237.082,691,1241.082" style="stroke:#181818;stroke-width:1.0;"/><line style="stroke:#181818;stroke-width:1.0;" x1="919" x2="931" y1="1210.6797" y2="1210.6797"/><polygon fill="#181818" points="927,1261.0508,931,1271.0508,935,1261.0508,931,1265.0508" style="stroke:#181818;stroke-width:1.0;"/><line style="stroke:#181818;stroke-width:1.0;" x1="931" x2="931" y1="1210.6797" y2="1327.0195"/><line style="stroke:#181818;stroke-width:1.0;" x1="931" x2="703" y1="1327.0195" y2="1327.0195"/><polygon fill="#181818" points="713,1323.0195,703,1327.0195,713,1331.0195,709,1327.0195" style="stroke:#181818;stroke-width:1.0;"/><line style="stroke:#181818;stroke-width:1.0;" x1="691" x2="691" y1="1295.0195" y2="1315.0195"/><polygon fill="#181818" points="687,1305.0195,691,1315.0195,695,1305.0195,691,1309.0195" style="stroke:#181818;stroke-width:1.0;"/><line style="stroke:#181818;stroke-width:1.0;" x1="691" x2="691" y1="1164.6094" y2="1198.6797"/><polygon fill="#181818" points="687,1188.6797,691,1198.6797,695,1188.6797,691,1192.6797" style="stroke:#181818;stroke-width:1.0;"/><line style="stroke:#181818;stroke-width:1.0;" x1="355" x2="227" y1="873.8984" y2="873.8984"/><line style="stroke:#181818;stroke-width:1.0;" x1="227" x2="227" y1="873.8984" y2="895.8984"/><polygon fill="#181818" points="223,885.8984,227,895.8984,231,885.8984,227,889.8984" style="stroke:#181818;stroke-width:1.0;"/><line style="stroke:#181818;stroke-width:1.0;" x1="563" x2="691" y1="873.8984" y2="873.8984"/><line style="stroke:#181818;stroke-width:1.0;" x1="691" x2="691" y1="873.8984" y2="895.8984"/><polygon fill="#181818" points="687,885.8984,691,895.8984,695,885.8984,691,889.8984" style="stroke:#181818;stroke-width:1.0;"/><line style="stroke:#181818;stroke-width:1.0;" x1="227" x2="227" y1="1178.6797" y2="1357.0195"/><line style="stroke:#181818;stroke-width:1.0;" x1="227" x2="447" y1="1357.0195" y2="1357.0195"/><polygon fill="#181818" points="437,1353.0195,447,1357.0195,437,1361.0195,441,1357.0195" style="stroke:#181818;stroke-width:1.0;"/><line style="stroke:#181818;stroke-width:1.0;" x1="691" x2="691" y1="1339.0195" y2="1357.0195"/><line style="stroke:#181818;stroke-width:1.0;" x1="691" x2="471" y1="1357.0195" y2="1357.0195"/><polygon fill="#181818" points="481,1353.0195,471,1357.0195,481,1361.0195,477,1357.0195" style="stroke:#181818;stroke-width:1.0;"/><line style="stroke:#181818;stroke-width:1.0;" x1="459" x2="459" y1="841.8984" y2="861.8984"/><polygon fill="#181818" points="455,851.8984,459,861.8984,463,851.8984,459,855.8984" style="stroke:#181818;stroke-width:1.0;"/><line style="stroke:#181818;stroke-width:1.0;" x1="1149.5" x2="1149.5" y1="724.5273" y2="759.5273"/><polygon fill="#181818" points="1145.5,749.5273,1149.5,759.5273,1153.5,749.5273,1149.5,753.5273" style="stroke:#181818;stroke-width:1.0;"/><line style="stroke:#181818;stroke-width:1.0;" x1="1149.5" x2="1149.5" y1="666.1563" y2="690.5586"/><polygon fill="#181818" points="1145.5,680.5586,1149.5,690.5586,1153.5,680.5586,1149.5,684.5586" style="stroke:#181818;stroke-width:1.0;"/><line style="stroke:#181818;stroke-width:1.0;" x1="1244.5" x2="1285.5" y1="654.1563" y2="654.1563"/><polygon fill="#181818" points="1281.5,732.0273,1285.5,742.0273,1289.5,732.0273,1285.5,736.0273" style="stroke:#181818;stroke-width:1.0;"/><line style="stroke:#181818;stroke-width:1.0;" x1="1285.5" x2="1285.5" y1="654.1563" y2="829.8984"/><line style="stroke:#181818;stroke-width:1.0;" x1="1285.5" x2="1161.5" y1="829.8984" y2="829.8984"/><polygon fill="#181818" points="1171.5,825.8984,1161.5,829.8984,1171.5,833.8984,1167.5,829.8984" style="stroke:#181818;stroke-width:1.0;"/><line style="stroke:#181818;stroke-width:1.0;" x1="1149.5" x2="1149.5" y1="793.4961" y2="817.8984"/><polygon fill="#181818" points="1145.5,807.8984,1149.5,817.8984,1153.5,807.8984,1149.5,811.8984" style="stroke:#181818;stroke-width:1.0;"/><line style="stroke:#181818;stroke-width:1.0;" x1="1149.5" x2="1149.5" y1="608.1875" y2="642.1563"/><polygon fill="#181818" points="1145.5,632.1563,1149.5,642.1563,1153.5,632.1563,1149.5,636.1563" style="stroke:#181818;stroke-width:1.0;"/><line style="stroke:#181818;stroke-width:1.0;" x1="657.25" x2="459" y1="524.2813" y2="524.2813"/><line style="stroke:#181818;stroke-width:1.0;" x1="459" x2="459" y1="524.2813" y2="546.2813"/><polygon fill="#181818" points="455,536.2813,459,546.2813,463,536.2813,459,540.2813" style="stroke:#181818;stroke-width:1.0;"/><line style="stroke:#181818;stroke-width:1.0;" x1="951.25" x2="1149.5" y1="524.2813" y2="524.2813"/><line style="stroke:#181818;stroke-width:1.0;" x1="1149.5" x2="1149.5" y1="524.2813" y2="546.2813"/><polygon fill="#181818" points="1145.5,536.2813,1149.5,546.2813,1153.5,536.2813,1149.5,540.2813" style="stroke:#181818;stroke-width:1.0;"/><line style="stroke:#181818;stroke-width:1.0;" x1="459" x2="459" y1="1369.0195" y2="1387.0195"/><line style="stroke:#181818;stroke-width:1.0;" x1="459" x2="792.25" y1="1387.0195" y2="1387.0195"/><polygon fill="#181818" points="782.25,1383.0195,792.25,1387.0195,782.25,1391.0195,786.25,1387.0195" style="stroke:#181818;stroke-width:1.0;"/><line style="stroke:#181818;stroke-width:1.0;" x1="1149.5" x2="1149.5" y1="841.8984" y2="1387.0195"/><line style="stroke:#181818;stroke-width:1.0;" x1="1149.5" x2="816.25" y1="1387.0195" y2="1387.0195"/><polygon fill="#181818" points="826.25,1383.0195,816.25,1387.0195,826.25,1391.0195,822.25,1387.0195" style="stroke:#181818;stroke-width:1.0;"/><line style="stroke:#181818;stroke-width:1.0;" x1="804.25" x2="804.25" y1="492.2813" y2="512.2813"/><polygon fill="#181818" points="800.25,502.2813,804.25,512.2813,808.25,502.2813,804.25,506.2813" style="stroke:#181818;stroke-width:1.0;"/><line style="stroke:#181818;stroke-width:1.0;" x1="804.25" x2="804.25" y1="1399.0195" y2="1419.0195"/><polygon fill="#181818" points="800.25,1409.0195,804.25,1419.0195,808.25,1409.0195,804.25,1413.0195" style="stroke:#181818;stroke-width:1.0;"/><line style="stroke:#181818;stroke-width:1.0;" x1="804.25" x2="804.25" y1="1471.5859" y2="1494.1523"/><polygon fill="#181818" points="800.25,1484.1523,804.25,1494.1523,808.25,1484.1523,804.25,1488.1523" style="stroke:#181818;stroke-width:1.0;"/><line style="stroke:#181818;stroke-width:1.0;" x1="804.25" x2="804.25" y1="1528.1211" y2="1548.1211"/><polygon fill="#181818" points="800.25,1538.1211,804.25,1548.1211,808.25,1538.1211,804.25,1542.1211" style="stroke:#181818;stroke-width:1.0;"/><!--MD5=[56a50c4b82c8d5ad78b6732b00da646f]
@startuml
!pragma layout smetana
start
note right
constructor DriverEllipseG2d(double dpiFactor,
EnsureVisible visible)
end note
:this.dpiFactor=dpiFactor;;
:this.visible=visible;;
end
start
note right
void draw(UEllipse ellipse,double x,double y,
ColorMapper mapper,UParam param,Graphics2D g2d)
end note
:g2d.setStroke(new BasicStroke((float )param.getStroke()
.getThickness()));;
:visible.ensureVisible(x,y);;
:visible.ensureVisible(x+ellipse.getWidth(),y+
ellipse.getHeight());;
:final HColor color=param.getColor();;
if (ellipse.getStart()==0&&ellipse.getExtend()==0) then (yes) 
:final Shape shape=new Ellipse2D.Double(x,
y,ellipse.getWidth(),ellipse.getHeight());;
if (ellipse.getDeltaShadow()!=0) then (yes) 
:drawShadow(g2d,shape,ellipse.getDeltaShadow(),
dpiFactor);;
endif 
:final HColor back=param.getBackcolor();;
if (back instanceof HColorGradient ) then (yes) 
:final GradientPaint paint=DriverRectangleG2d.getPaintGradient(x,
y,mapper,ellipse.getWidth(),ellipse.getHeight(),
back);;
:g2d.setPaint(paint);;
:g2d.fill(shape);;
:DriverRectangleG2d.drawBorder(param,color,
mapper,ellipse,shape,g2d,x,y);;
else (no)
if (back.isTransparent()==false) then (yes) 
:g2d.setColor(param.getBackcolor().toColor(mapper));;
:DriverRectangleG2d.managePattern(param,g2d);;
:g2d.fill(shape);;
endif 
if (color.isTransparent()==false&&color.equals(param.getBackcolor())==false) then (yes) 
:DriverRectangleG2d.drawBorder(param,color,
mapper,ellipse,shape,g2d,x,y);;
endif 
endif 
else (no)
:final Shape arc=new Arc2D.Double(x,y,ellipse.getWidth(),
ellipse.getHeight(),round(ellipse.getStart()),
round(ellipse.getExtend()),Arc2D.OPEN);;
if (color.isTransparent()==false) then (yes) 
:g2d.setColor(color.toColor(mapper));;
:g2d.draw(arc);;
endif 
endif 
end
start
note right
double round(double value)
end note
:return value;;
stop
end
@enduml

PlantUML version 1.2022.7(Mon Aug 22 17:01:30 UTC 2022)
(GPL source distribution)
Java Runtime: OpenJDK Runtime Environment
JVM: OpenJDK 64-Bit Server VM
Default Encoding: UTF-8
Language: en
Country: null
--></g></svg>