<?xml version="1.0" encoding="UTF-8" standalone="no"?><svg xmlns="http://www.w3.org/2000/svg" xmlns:xlink="http://www.w3.org/1999/xlink" contentStyleType="text/css" height="3331px" preserveAspectRatio="none" style="width:753px;height:3331px;background:#FFFFFF;" version="1.1" viewBox="0 0 753 3331" width="753px" zoomAndPan="magnify"><defs/><g><path d="M316,10 L316,26.1328 L296,30.1328 L316,34.1328 L316,50.2656 A0,0 0 0 0 316,50.2656 L687,50.2656 A0,0 0 0 0 687,50.2656 L687,20 L677,10 L316,10 A0,0 0 0 0 316,10 " fill="#FEFFDD" style="stroke:#181818;stroke-width:0.5;"/><path d="M677,10 L677,20 L687,20 L677,10 " fill="#FEFFDD" style="stroke:#181818;stroke-width:0.5;"/><text fill="#000000" font-family="sans-serif" font-size="13" lengthAdjust="spacing" textLength="350" x="322" y="27.0669">constructor DriverTextAsPathG2d(EnsureVisible visible,</text><text fill="#000000" font-family="sans-serif" font-size="13" lengthAdjust="spacing" textLength="191" x="322" y="42.1997">StringBounder stringBounder)</text><ellipse cx="286" cy="30.1328" fill="#222222" rx="10" ry="10" style="stroke:#222222;stroke-width:1.0;"/><rect fill="#F1F1F1" height="33.9688" rx="12.5" ry="12.5" style="stroke:#181818;stroke-width:0.5;" width="137" x="217.5" y="70.2656"/><text fill="#000000" font-family="sans-serif" font-size="12" lengthAdjust="spacing" textLength="117" x="227.5" y="91.4043">this.visible=visible;</text><rect fill="#F1F1F1" height="33.9688" rx="12.5" ry="12.5" style="stroke:#181818;stroke-width:0.5;" width="239" x="166.5" y="124.2344"/><text fill="#000000" font-family="sans-serif" font-size="12" lengthAdjust="spacing" textLength="219" x="176.5" y="145.373">this.stringBounder=stringBounder;</text><ellipse cx="286" cy="188.2031" fill="none" rx="10" ry="10" style="stroke:#222222;stroke-width:1.5;"/><line style="stroke:#222222;stroke-width:2.5;" x1="279.8128" x2="292.1872" y1="182.0159" y2="194.3903"/><line style="stroke:#222222;stroke-width:2.5;" x1="292.1872" x2="279.8128" y1="182.0159" y2="194.3903"/><path d="M316,208.2031 L316,216.7695 L296,220.7695 L316,224.7695 L316,233.3359 A0,0 0 0 0 316,233.3359 L434,233.3359 A0,0 0 0 0 434,233.3359 L434,218.2031 L424,208.2031 L316,208.2031 A0,0 0 0 0 316,208.2031 " fill="#FEFFDD" style="stroke:#181818;stroke-width:0.5;"/><path d="M424,208.2031 L424,218.2031 L434,218.2031 L424,208.2031 " fill="#FEFFDD" style="stroke:#181818;stroke-width:0.5;"/><text fill="#000000" font-family="sans-serif" font-size="13" lengthAdjust="spacing" textLength="97" x="322" y="225.27">void printFont()</text><ellipse cx="286" cy="220.7695" fill="#222222" rx="10" ry="10" style="stroke:#222222;stroke-width:1.0;"/><rect fill="#F1F1F1" height="33.9688" rx="12.5" ry="12.5" style="stroke:#181818;stroke-width:0.5;" width="550" x="11" y="253.3359"/><text fill="#000000" font-family="sans-serif" font-size="12" lengthAdjust="spacing" textLength="530" x="21" y="274.4746">final GraphicsEnvironment ge=GraphicsEnvironment.getLocalGraphicsEnvironment();</text><rect fill="#F1F1F1" height="33.9688" rx="12.5" ry="12.5" style="stroke:#181818;stroke-width:0.5;" width="398" x="87" y="307.3047"/><text fill="#000000" font-family="sans-serif" font-size="12" lengthAdjust="spacing" textLength="378" x="97" y="328.4434">final String fontNames[]=ge.getAvailableFontFamilyNames();</text><rect fill="#F1F1F1" height="33.9688" rx="12.5" ry="12.5" style="stroke:#181818;stroke-width:0.5;" width="199" x="186.5" y="361.2734"/><text fill="#000000" font-family="sans-serif" font-size="12" lengthAdjust="spacing" textLength="179" x="196.5" y="382.4121">final int j=fontNames.length;</text><rect fill="#F1F1F1" height="33.9688" rx="12.5" ry="12.5" style="stroke:#181818;stroke-width:0.5;" width="283" x="144.5" y="415.2422"/><text fill="#000000" font-family="sans-serif" font-size="12" lengthAdjust="spacing" textLength="263" x="154.5" y="436.3809">Log.info("Available fonts: "+fontNames[i]);</text><ellipse cx="286" cy="479.2109" fill="none" rx="10" ry="10" style="stroke:#222222;stroke-width:1.5;"/><line style="stroke:#222222;stroke-width:2.5;" x1="279.8128" x2="292.1872" y1="473.0238" y2="485.3981"/><line style="stroke:#222222;stroke-width:2.5;" x1="292.1872" x2="279.8128" y1="473.0238" y2="485.3981"/><path d="M316,499.2109 L316,515.3438 L296,519.3438 L316,523.3438 L316,539.4766 A0,0 0 0 0 316,539.4766 L741,539.4766 A0,0 0 0 0 741,539.4766 L741,509.2109 L731,499.2109 L316,499.2109 A0,0 0 0 0 316,499.2109 " fill="#FEFFDD" style="stroke:#181818;stroke-width:0.5;"/><path d="M731,499.2109 L731,509.2109 L741,509.2109 L731,499.2109 " fill="#FEFFDD" style="stroke:#181818;stroke-width:0.5;"/><text fill="#000000" font-family="sans-serif" font-size="13" lengthAdjust="spacing" textLength="404" x="322" y="516.2778">void draw(UText shape,double x,double y,ColorMapper mapper,</text><text fill="#000000" font-family="sans-serif" font-size="13" lengthAdjust="spacing" textLength="209" x="322" y="531.4106">UParam param,Graphics2D g2d)</text><ellipse cx="286" cy="519.3438" fill="#222222" rx="10" ry="10" style="stroke:#222222;stroke-width:1.0;"/><rect fill="#F1F1F1" height="33.9688" rx="12.5" ry="12.5" style="stroke:#181818;stroke-width:0.5;" width="475" x="48.5" y="559.4766"/><text fill="#000000" font-family="sans-serif" font-size="12" lengthAdjust="spacing" textLength="455" x="58.5" y="580.6152">final FontConfiguration fontConfiguration=shape.getFontConfiguration();</text><rect fill="#F1F1F1" height="33.9688" rx="12.5" ry="12.5" style="stroke:#181818;stroke-width:0.5;" width="302" x="135" y="613.4453"/><text fill="#000000" font-family="sans-serif" font-size="12" lengthAdjust="spacing" textLength="282" x="145" y="634.584">final UFont font=fontConfiguration.getFont();</text><rect fill="#F1F1F1" height="47.9375" rx="12.5" ry="12.5" style="stroke:#181818;stroke-width:0.5;" width="424" x="74" y="667.4141"/><text fill="#000000" font-family="sans-serif" font-size="12" lengthAdjust="spacing" textLength="404" x="84" y="688.5527">final XDimension2D dim=stringBounder.calculateDimension(font,</text><text fill="#000000" font-family="sans-serif" font-size="12" lengthAdjust="spacing" textLength="109" x="84" y="702.5215">shape.getText());</text><rect fill="#F1F1F1" height="33.9688" rx="12.5" ry="12.5" style="stroke:#181818;stroke-width:0.5;" width="304" x="134" y="735.3516"/><text fill="#000000" font-family="sans-serif" font-size="12" lengthAdjust="spacing" textLength="284" x="144" y="756.4902">final double height=max(10,dim.getHeight());</text><rect fill="#F1F1F1" height="33.9688" rx="12.5" ry="12.5" style="stroke:#181818;stroke-width:0.5;" width="236" x="168" y="789.3203"/><text fill="#000000" font-family="sans-serif" font-size="12" lengthAdjust="spacing" textLength="216" x="178" y="810.459">final double width=dim.getWidth();</text><rect fill="#F1F1F1" height="47.9375" rx="12.5" ry="12.5" style="stroke:#181818;stroke-width:0.5;" width="390" x="91" y="891.6914"/><text fill="#000000" font-family="sans-serif" font-size="12" lengthAdjust="spacing" textLength="370" x="101" y="912.8301">final Color extended=fontConfiguration.getExtendedColor()</text><text fill="#000000" font-family="sans-serif" font-size="12" lengthAdjust="spacing" textLength="111" x="101" y="926.7988">.toColor(mapper);</text><rect fill="#F1F1F1" height="33.9688" rx="12.5" ry="12.5" style="stroke:#181818;stroke-width:0.5;" width="173" x="199.5" y="1008.0313"/><text fill="#000000" font-family="sans-serif" font-size="12" lengthAdjust="spacing" textLength="153" x="209.5" y="1029.1699">g2d.setColor(extended);</text><rect fill="#F1F1F1" height="33.9688" rx="12.5" ry="12.5" style="stroke:#181818;stroke-width:0.5;" width="216" x="178" y="1077"/><text fill="#000000" font-family="sans-serif" font-size="12" lengthAdjust="spacing" textLength="196" x="188" y="1098.1387">g2d.setBackground(extended);</text><rect fill="#F1F1F1" height="47.9375" rx="12.5" ry="12.5" style="stroke:#181818;stroke-width:0.5;" width="298" x="137" y="1130.9688"/><text fill="#000000" font-family="sans-serif" font-size="12" lengthAdjust="spacing" textLength="278" x="147" y="1152.1074">g2d.fill(new Rectangle2D.Double(x,y-height+</text><text fill="#000000" font-family="sans-serif" font-size="12" lengthAdjust="spacing" textLength="115" x="147" y="1166.0762">1.5,width,height));</text><polygon fill="#F1F1F1" points="242,959.6289,330,959.6289,342,971.6289,330,983.6289,242,983.6289,230,971.6289,242,959.6289" style="stroke:#181818;stroke-width:0.5;"/><text fill="#000000" font-family="sans-serif" font-size="11" lengthAdjust="spacing" textLength="20" x="290" y="993.8394">yes</text><text fill="#000000" font-family="sans-serif" font-size="11" lengthAdjust="spacing" textLength="84" x="242" y="975.437">extended!=null</text><polygon fill="#F1F1F1" points="286,1198.9063,298,1210.9063,286,1222.9063,274,1210.9063,286,1198.9063" style="stroke:#181818;stroke-width:0.5;"/><polygon fill="#F1F1F1" points="130.5,843.2891,441.5,843.2891,453.5,855.2891,441.5,867.2891,130.5,867.2891,118.5,855.2891,130.5,843.2891" style="stroke:#181818;stroke-width:0.5;"/><text fill="#000000" font-family="sans-serif" font-size="11" lengthAdjust="spacing" textLength="20" x="290" y="877.4995">yes</text><text fill="#000000" font-family="sans-serif" font-size="11" lengthAdjust="spacing" textLength="311" x="130.5" y="859.0972">fontConfiguration.containsStyle(FontStyle.BACKCOLOR)</text><polygon fill="#F1F1F1" points="286,1242.9063,298,1254.9063,286,1266.9063,274,1254.9063,286,1242.9063" style="stroke:#181818;stroke-width:0.5;"/><rect fill="#F1F1F1" height="33.9688" rx="12.5" ry="12.5" style="stroke:#181818;stroke-width:0.5;" width="250" x="161" y="1286.9063"/><text fill="#000000" font-family="sans-serif" font-size="12" lengthAdjust="spacing" textLength="230" x="171" y="1308.0449">visible.ensureVisible(x,y-height+1.5);</text><rect fill="#F1F1F1" height="33.9688" rx="12.5" ry="12.5" style="stroke:#181818;stroke-width:0.5;" width="249" x="161.5" y="1340.875"/><text fill="#000000" font-family="sans-serif" font-size="12" lengthAdjust="spacing" textLength="229" x="171.5" y="1362.0137">visible.ensureVisible(x+width,y+1.5);</text><rect fill="#F1F1F1" height="33.9688" rx="12.5" ry="12.5" style="stroke:#181818;stroke-width:0.5;" width="272" x="150" y="1394.8438"/><text fill="#000000" font-family="sans-serif" font-size="12" lengthAdjust="spacing" textLength="252" x="160" y="1415.9824">g2d.setFont(font.getUnderlayingFont());</text><rect fill="#F1F1F1" height="47.9375" rx="12.5" ry="12.5" style="stroke:#181818;stroke-width:0.5;" width="281" x="145.5" y="1448.8125"/><text fill="#000000" font-family="sans-serif" font-size="12" lengthAdjust="spacing" textLength="261" x="155.5" y="1469.9512">g2d.setColor(fontConfiguration.getColor()</text><text fill="#000000" font-family="sans-serif" font-size="12" lengthAdjust="spacing" textLength="116" x="155.5" y="1483.9199">.toColor(mapper));</text><rect fill="#F1F1F1" height="47.9375" rx="12.5" ry="12.5" style="stroke:#181818;stroke-width:0.5;" width="278" x="147" y="1516.75"/><text fill="#000000" font-family="sans-serif" font-size="12" lengthAdjust="spacing" textLength="258" x="157" y="1537.8887">final TextLayout t=createTextLayout(font,</text><text fill="#000000" font-family="sans-serif" font-size="12" lengthAdjust="spacing" textLength="109" x="157" y="1551.8574">shape.getText());</text><rect fill="#F1F1F1" height="33.9688" rx="12.5" ry="12.5" style="stroke:#181818;stroke-width:0.5;" width="135" x="218.5" y="1584.6875"/><text fill="#000000" font-family="sans-serif" font-size="12" lengthAdjust="spacing" textLength="115" x="228.5" y="1605.8262">g2d.translate(x,y);</text><rect fill="#F1F1F1" height="33.9688" rx="12.5" ry="12.5" style="stroke:#181818;stroke-width:0.5;" width="185" x="193.5" y="1638.6563"/><text fill="#000000" font-family="sans-serif" font-size="12" lengthAdjust="spacing" textLength="165" x="203.5" y="1659.7949">g2d.fill(t.getOutline(null ));</text><rect fill="#F1F1F1" height="33.9688" rx="12.5" ry="12.5" style="stroke:#181818;stroke-width:0.5;" width="143" x="214.5" y="1692.625"/><text fill="#000000" font-family="sans-serif" font-size="12" lengthAdjust="spacing" textLength="123" x="224.5" y="1713.7637">g2d.translate(-x,-y);</text><rect fill="#F1F1F1" height="33.9688" rx="12.5" ry="12.5" style="stroke:#181818;stroke-width:0.5;" width="403" x="84.5" y="1794.9961"/><text fill="#000000" font-family="sans-serif" font-size="12" lengthAdjust="spacing" textLength="383" x="94.5" y="1816.1348">final HColor extended=fontConfiguration.getExtendedColor();</text><rect fill="#F1F1F1" height="33.9688" rx="12.5" ry="12.5" style="stroke:#181818;stroke-width:0.5;" width="280" x="146" y="1897.3672"/><text fill="#000000" font-family="sans-serif" font-size="12" lengthAdjust="spacing" textLength="260" x="156" y="1918.5059">g2d.setColor(extended.toColor(mapper));</text><polygon fill="#F1F1F1" points="242,1848.9648,330,1848.9648,342,1860.9648,330,1872.9648,242,1872.9648,230,1860.9648,242,1848.9648" style="stroke:#181818;stroke-width:0.5;"/><text fill="#000000" font-family="sans-serif" font-size="11" lengthAdjust="spacing" textLength="20" x="290" y="1883.1753">yes</text><text fill="#000000" font-family="sans-serif" font-size="11" lengthAdjust="spacing" textLength="84" x="242" y="1864.7729">extended!=null</text><polygon fill="#F1F1F1" points="286,1951.3359,298,1963.3359,286,1975.3359,274,1963.3359,286,1951.3359" style="stroke:#181818;stroke-width:0.5;"/><rect fill="#F1F1F1" height="33.9688" rx="12.5" ry="12.5" style="stroke:#181818;stroke-width:0.5;" width="189" x="191.5" y="1995.3359"/><text fill="#000000" font-family="sans-serif" font-size="12" lengthAdjust="spacing" textLength="169" x="201.5" y="2016.4746">final int ypos=(int )(y+2.5);</text><rect fill="#F1F1F1" height="33.9688" rx="12.5" ry="12.5" style="stroke:#181818;stroke-width:0.5;" width="286" x="143" y="2049.3047"/><text fill="#000000" font-family="sans-serif" font-size="12" lengthAdjust="spacing" textLength="266" x="153" y="2070.4434">g2d.setStroke(new BasicStroke((float )1));</text><rect fill="#F1F1F1" height="47.9375" rx="12.5" ry="12.5" style="stroke:#181818;stroke-width:0.5;" width="274" x="149" y="2103.2734"/><text fill="#000000" font-family="sans-serif" font-size="12" lengthAdjust="spacing" textLength="254" x="159" y="2124.4121">g2d.drawLine((int )x,ypos,(int )(x+width),</text><text fill="#000000" font-family="sans-serif" font-size="12" lengthAdjust="spacing" textLength="38" x="159" y="2138.3809">ypos);</text><rect fill="#F1F1F1" height="33.9688" rx="12.5" ry="12.5" style="stroke:#181818;stroke-width:0.5;" width="236" x="168" y="2171.2109"/><text fill="#000000" font-family="sans-serif" font-size="12" lengthAdjust="spacing" textLength="216" x="178" y="2192.3496">g2d.setStroke(new BasicStroke());</text><polygon fill="#F1F1F1" points="134,1746.5938,438,1746.5938,450,1758.5938,438,1770.5938,134,1770.5938,122,1758.5938,134,1746.5938" style="stroke:#181818;stroke-width:0.5;"/><text fill="#000000" font-family="sans-serif" font-size="11" lengthAdjust="spacing" textLength="20" x="290" y="1780.8042">yes</text><text fill="#000000" font-family="sans-serif" font-size="11" lengthAdjust="spacing" textLength="304" x="134" y="1762.4019">fontConfiguration.containsStyle(FontStyle.UNDERLINE)</text><polygon fill="#F1F1F1" points="286,2225.1797,298,2237.1797,286,2249.1797,274,2237.1797,286,2225.1797" style="stroke:#181818;stroke-width:0.5;"/><rect fill="#F1F1F1" height="33.9688" rx="12.5" ry="12.5" style="stroke:#181818;stroke-width:0.5;" width="201" x="185.5" y="2317.582"/><text fill="#000000" font-family="sans-serif" font-size="12" lengthAdjust="spacing" textLength="181" x="195.5" y="2338.7207">final int ypos=(int )(y+2.5)-1;</text><rect fill="#F1F1F1" height="33.9688" rx="12.5" ry="12.5" style="stroke:#181818;stroke-width:0.5;" width="403" x="84.5" y="2371.5508"/><text fill="#000000" font-family="sans-serif" font-size="12" lengthAdjust="spacing" textLength="383" x="94.5" y="2392.6895">final HColor extended=fontConfiguration.getExtendedColor();</text><rect fill="#F1F1F1" height="33.9688" rx="12.5" ry="12.5" style="stroke:#181818;stroke-width:0.5;" width="280" x="146" y="2473.9219"/><text fill="#000000" font-family="sans-serif" font-size="12" lengthAdjust="spacing" textLength="260" x="156" y="2495.0605">g2d.setColor(extended.toColor(mapper));</text><polygon fill="#F1F1F1" points="242,2425.5195,330,2425.5195,342,2437.5195,330,2449.5195,242,2449.5195,230,2437.5195,242,2425.5195" style="stroke:#181818;stroke-width:0.5;"/><text fill="#000000" font-family="sans-serif" font-size="11" lengthAdjust="spacing" textLength="20" x="290" y="2459.73">yes</text><text fill="#000000" font-family="sans-serif" font-size="11" lengthAdjust="spacing" textLength="84" x="242" y="2441.3276">extended!=null</text><polygon fill="#F1F1F1" points="286,2527.8906,298,2539.8906,286,2551.8906,274,2539.8906,286,2527.8906" style="stroke:#181818;stroke-width:0.5;"/><rect fill="#F1F1F1" height="33.9688" rx="12.5" ry="12.5" style="stroke:#181818;stroke-width:0.5;" width="241" x="165.5" y="2571.8906"/><text fill="#000000" font-family="sans-serif" font-size="12" lengthAdjust="spacing" textLength="221" x="175.5" y="2593.0293">g2d.drawLine(i,ypos-0,i+3,ypos+1);</text><rect fill="#F1F1F1" height="33.9688" rx="12.5" ry="12.5" style="stroke:#181818;stroke-width:0.5;" width="259" x="156.5" y="2625.8594"/><text fill="#000000" font-family="sans-serif" font-size="12" lengthAdjust="spacing" textLength="239" x="166.5" y="2646.998">g2d.drawLine(i+3,ypos+1,i+6,ypos-0);</text><polygon fill="#F1F1F1" points="150,2269.1797,422,2269.1797,434,2281.1797,422,2293.1797,150,2293.1797,138,2281.1797,150,2269.1797" style="stroke:#181818;stroke-width:0.5;"/><text fill="#000000" font-family="sans-serif" font-size="11" lengthAdjust="spacing" textLength="20" x="290" y="2303.3901">yes</text><text fill="#000000" font-family="sans-serif" font-size="11" lengthAdjust="spacing" textLength="272" x="150" y="2284.9878">fontConfiguration.containsStyle(FontStyle.WAVE)</text><polygon fill="#F1F1F1" points="286,2679.8281,298,2691.8281,286,2703.8281,274,2691.8281,286,2679.8281" style="stroke:#181818;stroke-width:0.5;"/><rect fill="#F1F1F1" height="33.9688" rx="12.5" ry="12.5" style="stroke:#181818;stroke-width:0.5;" width="450" x="61" y="2772.2305"/><text fill="#000000" font-family="sans-serif" font-size="12" lengthAdjust="spacing" textLength="430" x="71" y="2793.3691">final FontMetrics fm=g2d.getFontMetrics(font.getUnderlayingFont());</text><rect fill="#F1F1F1" height="33.9688" rx="12.5" ry="12.5" style="stroke:#181818;stroke-width:0.5;" width="289" x="141.5" y="2826.1992"/><text fill="#000000" font-family="sans-serif" font-size="12" lengthAdjust="spacing" textLength="269" x="151.5" y="2847.3379">final int ypos=(int )(y-fm.getDescent()-0.5);</text><rect fill="#F1F1F1" height="33.9688" rx="12.5" ry="12.5" style="stroke:#181818;stroke-width:0.5;" width="403" x="84.5" y="2880.168"/><text fill="#000000" font-family="sans-serif" font-size="12" lengthAdjust="spacing" textLength="383" x="94.5" y="2901.3066">final HColor extended=fontConfiguration.getExtendedColor();</text><rect fill="#F1F1F1" height="33.9688" rx="12.5" ry="12.5" style="stroke:#181818;stroke-width:0.5;" width="280" x="146" y="2982.5391"/><text fill="#000000" font-family="sans-serif" font-size="12" lengthAdjust="spacing" textLength="260" x="156" y="3003.6777">g2d.setColor(extended.toColor(mapper));</text><polygon fill="#F1F1F1" points="242,2934.1367,330,2934.1367,342,2946.1367,330,2958.1367,242,2958.1367,230,2946.1367,242,2934.1367" style="stroke:#181818;stroke-width:0.5;"/><text fill="#000000" font-family="sans-serif" font-size="11" lengthAdjust="spacing" textLength="20" x="290" y="2968.3472">yes</text><text fill="#000000" font-family="sans-serif" font-size="11" lengthAdjust="spacing" textLength="84" x="242" y="2949.9448">extended!=null</text><polygon fill="#F1F1F1" points="286,3036.5078,298,3048.5078,286,3060.5078,274,3048.5078,286,3036.5078" style="stroke:#181818;stroke-width:0.5;"/><rect fill="#F1F1F1" height="33.9688" rx="12.5" ry="12.5" style="stroke:#181818;stroke-width:0.5;" width="298" x="137" y="3080.5078"/><text fill="#000000" font-family="sans-serif" font-size="12" lengthAdjust="spacing" textLength="278" x="147" y="3101.6465">g2d.setStroke(new BasicStroke((float )1.5));</text><rect fill="#F1F1F1" height="47.9375" rx="12.5" ry="12.5" style="stroke:#181818;stroke-width:0.5;" width="274" x="149" y="3134.4766"/><text fill="#000000" font-family="sans-serif" font-size="12" lengthAdjust="spacing" textLength="254" x="159" y="3155.6152">g2d.drawLine((int )x,ypos,(int )(x+width),</text><text fill="#000000" font-family="sans-serif" font-size="12" lengthAdjust="spacing" textLength="38" x="159" y="3169.584">ypos);</text><rect fill="#F1F1F1" height="33.9688" rx="12.5" ry="12.5" style="stroke:#181818;stroke-width:0.5;" width="236" x="168" y="3202.4141"/><text fill="#000000" font-family="sans-serif" font-size="12" lengthAdjust="spacing" textLength="216" x="178" y="3223.5527">g2d.setStroke(new BasicStroke());</text><polygon fill="#F1F1F1" points="145.5,2723.8281,426.5,2723.8281,438.5,2735.8281,426.5,2747.8281,145.5,2747.8281,133.5,2735.8281,145.5,2723.8281" style="stroke:#181818;stroke-width:0.5;"/><text fill="#000000" font-family="sans-serif" font-size="11" lengthAdjust="spacing" textLength="20" x="290" y="2758.0386">yes</text><text fill="#000000" font-family="sans-serif" font-size="11" lengthAdjust="spacing" textLength="281" x="145.5" y="2739.6362">fontConfiguration.containsStyle(FontStyle.STRIKE)</text><polygon fill="#F1F1F1" points="286,3256.3828,298,3268.3828,286,3280.3828,274,3268.3828,286,3256.3828" style="stroke:#181818;stroke-width:0.5;"/><ellipse cx="286" cy="3310.3828" fill="none" rx="10" ry="10" style="stroke:#222222;stroke-width:1.5;"/><line style="stroke:#222222;stroke-width:2.5;" x1="279.8128" x2="292.1872" y1="3304.1956" y2="3316.57"/><line style="stroke:#222222;stroke-width:2.5;" x1="292.1872" x2="279.8128" y1="3304.1956" y2="3316.57"/><line style="stroke:#181818;stroke-width:1.0;" x1="286" x2="286" y1="40.1328" y2="70.2656"/><polygon fill="#181818" points="282,60.2656,286,70.2656,290,60.2656,286,64.2656" style="stroke:#181818;stroke-width:1.0;"/><line style="stroke:#181818;stroke-width:1.0;" x1="286" x2="286" y1="104.2344" y2="124.2344"/><polygon fill="#181818" points="282,114.2344,286,124.2344,290,114.2344,286,118.2344" style="stroke:#181818;stroke-width:1.0;"/><line style="stroke:#181818;stroke-width:1.0;" x1="286" x2="286" y1="158.2031" y2="178.2031"/><polygon fill="#181818" points="282,168.2031,286,178.2031,290,168.2031,286,172.2031" style="stroke:#181818;stroke-width:1.0;"/><line style="stroke:#181818;stroke-width:1.0;" x1="286" x2="286" y1="230.7695" y2="253.3359"/><polygon fill="#181818" points="282,243.3359,286,253.3359,290,243.3359,286,247.3359" style="stroke:#181818;stroke-width:1.0;"/><line style="stroke:#181818;stroke-width:1.0;" x1="286" x2="286" y1="287.3047" y2="307.3047"/><polygon fill="#181818" points="282,297.3047,286,307.3047,290,297.3047,286,301.3047" style="stroke:#181818;stroke-width:1.0;"/><line style="stroke:#181818;stroke-width:1.0;" x1="286" x2="286" y1="341.2734" y2="361.2734"/><polygon fill="#181818" points="282,351.2734,286,361.2734,290,351.2734,286,355.2734" style="stroke:#181818;stroke-width:1.0;"/><line style="stroke:#181818;stroke-width:1.0;" x1="286" x2="286" y1="395.2422" y2="415.2422"/><polygon fill="#181818" points="282,405.2422,286,415.2422,290,405.2422,286,409.2422" style="stroke:#181818;stroke-width:1.0;"/><line style="stroke:#181818;stroke-width:1.0;" x1="286" x2="286" y1="449.2109" y2="469.2109"/><polygon fill="#181818" points="282,459.2109,286,469.2109,290,459.2109,286,463.2109" style="stroke:#181818;stroke-width:1.0;"/><line style="stroke:#181818;stroke-width:1.0;" x1="286" x2="286" y1="529.3438" y2="559.4766"/><polygon fill="#181818" points="282,549.4766,286,559.4766,290,549.4766,286,553.4766" style="stroke:#181818;stroke-width:1.0;"/><line style="stroke:#181818;stroke-width:1.0;" x1="286" x2="286" y1="593.4453" y2="613.4453"/><polygon fill="#181818" points="282,603.4453,286,613.4453,290,603.4453,286,607.4453" style="stroke:#181818;stroke-width:1.0;"/><line style="stroke:#181818;stroke-width:1.0;" x1="286" x2="286" y1="647.4141" y2="667.4141"/><polygon fill="#181818" points="282,657.4141,286,667.4141,290,657.4141,286,661.4141" style="stroke:#181818;stroke-width:1.0;"/><line style="stroke:#181818;stroke-width:1.0;" x1="286" x2="286" y1="715.3516" y2="735.3516"/><polygon fill="#181818" points="282,725.3516,286,735.3516,290,725.3516,286,729.3516" style="stroke:#181818;stroke-width:1.0;"/><line style="stroke:#181818;stroke-width:1.0;" x1="286" x2="286" y1="769.3203" y2="789.3203"/><polygon fill="#181818" points="282,779.3203,286,789.3203,290,779.3203,286,783.3203" style="stroke:#181818;stroke-width:1.0;"/><line style="stroke:#181818;stroke-width:1.0;" x1="286" x2="286" y1="1042" y2="1077"/><polygon fill="#181818" points="282,1067,286,1077,290,1067,286,1071" style="stroke:#181818;stroke-width:1.0;"/><line style="stroke:#181818;stroke-width:1.0;" x1="286" x2="286" y1="1110.9688" y2="1130.9688"/><polygon fill="#181818" points="282,1120.9688,286,1130.9688,290,1120.9688,286,1124.9688" style="stroke:#181818;stroke-width:1.0;"/><line style="stroke:#181818;stroke-width:1.0;" x1="286" x2="286" y1="983.6289" y2="1008.0313"/><polygon fill="#181818" points="282,998.0313,286,1008.0313,290,998.0313,286,1002.0313" style="stroke:#181818;stroke-width:1.0;"/><line style="stroke:#181818;stroke-width:1.0;" x1="342" x2="445" y1="971.6289" y2="971.6289"/><polygon fill="#181818" points="441,1090.9688,445,1100.9688,449,1090.9688,445,1094.9688" style="stroke:#181818;stroke-width:1.0;"/><line style="stroke:#181818;stroke-width:1.0;" x1="445" x2="445" y1="971.6289" y2="1210.9063"/><line style="stroke:#181818;stroke-width:1.0;" x1="445" x2="298" y1="1210.9063" y2="1210.9063"/><polygon fill="#181818" points="308,1206.9063,298,1210.9063,308,1214.9063,304,1210.9063" style="stroke:#181818;stroke-width:1.0;"/><line style="stroke:#181818;stroke-width:1.0;" x1="286" x2="286" y1="1178.9063" y2="1198.9063"/><polygon fill="#181818" points="282,1188.9063,286,1198.9063,290,1188.9063,286,1192.9063" style="stroke:#181818;stroke-width:1.0;"/><line style="stroke:#181818;stroke-width:1.0;" x1="286" x2="286" y1="939.6289" y2="959.6289"/><polygon fill="#181818" points="282,949.6289,286,959.6289,290,949.6289,286,953.6289" style="stroke:#181818;stroke-width:1.0;"/><line style="stroke:#181818;stroke-width:1.0;" x1="286" x2="286" y1="867.2891" y2="891.6914"/><polygon fill="#181818" points="282,881.6914,286,891.6914,290,881.6914,286,885.6914" style="stroke:#181818;stroke-width:1.0;"/><line style="stroke:#181818;stroke-width:1.0;" x1="453.5" x2="491" y1="855.2891" y2="855.2891"/><polygon fill="#181818" points="487,1049.5,491,1059.5,495,1049.5,491,1053.5" style="stroke:#181818;stroke-width:1.0;"/><line style="stroke:#181818;stroke-width:1.0;" x1="491" x2="491" y1="855.2891" y2="1254.9063"/><line style="stroke:#181818;stroke-width:1.0;" x1="491" x2="298" y1="1254.9063" y2="1254.9063"/><polygon fill="#181818" points="308,1250.9063,298,1254.9063,308,1258.9063,304,1254.9063" style="stroke:#181818;stroke-width:1.0;"/><line style="stroke:#181818;stroke-width:1.0;" x1="286" x2="286" y1="1222.9063" y2="1242.9063"/><polygon fill="#181818" points="282,1232.9063,286,1242.9063,290,1232.9063,286,1236.9063" style="stroke:#181818;stroke-width:1.0;"/><line style="stroke:#181818;stroke-width:1.0;" x1="286" x2="286" y1="823.2891" y2="843.2891"/><polygon fill="#181818" points="282,833.2891,286,843.2891,290,833.2891,286,837.2891" style="stroke:#181818;stroke-width:1.0;"/><line style="stroke:#181818;stroke-width:1.0;" x1="286" x2="286" y1="1266.9063" y2="1286.9063"/><polygon fill="#181818" points="282,1276.9063,286,1286.9063,290,1276.9063,286,1280.9063" style="stroke:#181818;stroke-width:1.0;"/><line style="stroke:#181818;stroke-width:1.0;" x1="286" x2="286" y1="1320.875" y2="1340.875"/><polygon fill="#181818" points="282,1330.875,286,1340.875,290,1330.875,286,1334.875" style="stroke:#181818;stroke-width:1.0;"/><line style="stroke:#181818;stroke-width:1.0;" x1="286" x2="286" y1="1374.8438" y2="1394.8438"/><polygon fill="#181818" points="282,1384.8438,286,1394.8438,290,1384.8438,286,1388.8438" style="stroke:#181818;stroke-width:1.0;"/><line style="stroke:#181818;stroke-width:1.0;" x1="286" x2="286" y1="1428.8125" y2="1448.8125"/><polygon fill="#181818" points="282,1438.8125,286,1448.8125,290,1438.8125,286,1442.8125" style="stroke:#181818;stroke-width:1.0;"/><line style="stroke:#181818;stroke-width:1.0;" x1="286" x2="286" y1="1496.75" y2="1516.75"/><polygon fill="#181818" points="282,1506.75,286,1516.75,290,1506.75,286,1510.75" style="stroke:#181818;stroke-width:1.0;"/><line style="stroke:#181818;stroke-width:1.0;" x1="286" x2="286" y1="1564.6875" y2="1584.6875"/><polygon fill="#181818" points="282,1574.6875,286,1584.6875,290,1574.6875,286,1578.6875" style="stroke:#181818;stroke-width:1.0;"/><line style="stroke:#181818;stroke-width:1.0;" x1="286" x2="286" y1="1618.6563" y2="1638.6563"/><polygon fill="#181818" points="282,1628.6563,286,1638.6563,290,1628.6563,286,1632.6563" style="stroke:#181818;stroke-width:1.0;"/><line style="stroke:#181818;stroke-width:1.0;" x1="286" x2="286" y1="1672.625" y2="1692.625"/><polygon fill="#181818" points="282,1682.625,286,1692.625,290,1682.625,286,1686.625" style="stroke:#181818;stroke-width:1.0;"/><line style="stroke:#181818;stroke-width:1.0;" x1="286" x2="286" y1="1872.9648" y2="1897.3672"/><polygon fill="#181818" points="282,1887.3672,286,1897.3672,290,1887.3672,286,1891.3672" style="stroke:#181818;stroke-width:1.0;"/><line style="stroke:#181818;stroke-width:1.0;" x1="342" x2="436" y1="1860.9648" y2="1860.9648"/><polygon fill="#181818" points="432,1904.3516,436,1914.3516,440,1904.3516,436,1908.3516" style="stroke:#181818;stroke-width:1.0;"/><line style="stroke:#181818;stroke-width:1.0;" x1="436" x2="436" y1="1860.9648" y2="1963.3359"/><line style="stroke:#181818;stroke-width:1.0;" x1="436" x2="298" y1="1963.3359" y2="1963.3359"/><polygon fill="#181818" points="308,1959.3359,298,1963.3359,308,1967.3359,304,1963.3359" style="stroke:#181818;stroke-width:1.0;"/><line style="stroke:#181818;stroke-width:1.0;" x1="286" x2="286" y1="1931.3359" y2="1951.3359"/><polygon fill="#181818" points="282,1941.3359,286,1951.3359,290,1941.3359,286,1945.3359" style="stroke:#181818;stroke-width:1.0;"/><line style="stroke:#181818;stroke-width:1.0;" x1="286" x2="286" y1="1828.9648" y2="1848.9648"/><polygon fill="#181818" points="282,1838.9648,286,1848.9648,290,1838.9648,286,1842.9648" style="stroke:#181818;stroke-width:1.0;"/><line style="stroke:#181818;stroke-width:1.0;" x1="286" x2="286" y1="1975.3359" y2="1995.3359"/><polygon fill="#181818" points="282,1985.3359,286,1995.3359,290,1985.3359,286,1989.3359" style="stroke:#181818;stroke-width:1.0;"/><line style="stroke:#181818;stroke-width:1.0;" x1="286" x2="286" y1="2029.3047" y2="2049.3047"/><polygon fill="#181818" points="282,2039.3047,286,2049.3047,290,2039.3047,286,2043.3047" style="stroke:#181818;stroke-width:1.0;"/><line style="stroke:#181818;stroke-width:1.0;" x1="286" x2="286" y1="2083.2734" y2="2103.2734"/><polygon fill="#181818" points="282,2093.2734,286,2103.2734,290,2093.2734,286,2097.2734" style="stroke:#181818;stroke-width:1.0;"/><line style="stroke:#181818;stroke-width:1.0;" x1="286" x2="286" y1="2151.2109" y2="2171.2109"/><polygon fill="#181818" points="282,2161.2109,286,2171.2109,290,2161.2109,286,2165.2109" style="stroke:#181818;stroke-width:1.0;"/><line style="stroke:#181818;stroke-width:1.0;" x1="286" x2="286" y1="1770.5938" y2="1794.9961"/><polygon fill="#181818" points="282,1784.9961,286,1794.9961,290,1784.9961,286,1788.9961" style="stroke:#181818;stroke-width:1.0;"/><line style="stroke:#181818;stroke-width:1.0;" x1="450" x2="497.5" y1="1758.5938" y2="1758.5938"/><polygon fill="#181818" points="493.5,1995.3867,497.5,2005.3867,501.5,1995.3867,497.5,1999.3867" style="stroke:#181818;stroke-width:1.0;"/><line style="stroke:#181818;stroke-width:1.0;" x1="497.5" x2="497.5" y1="1758.5938" y2="2237.1797"/><line style="stroke:#181818;stroke-width:1.0;" x1="497.5" x2="298" y1="2237.1797" y2="2237.1797"/><polygon fill="#181818" points="308,2233.1797,298,2237.1797,308,2241.1797,304,2237.1797" style="stroke:#181818;stroke-width:1.0;"/><line style="stroke:#181818;stroke-width:1.0;" x1="286" x2="286" y1="2205.1797" y2="2225.1797"/><polygon fill="#181818" points="282,2215.1797,286,2225.1797,290,2215.1797,286,2219.1797" style="stroke:#181818;stroke-width:1.0;"/><line style="stroke:#181818;stroke-width:1.0;" x1="286" x2="286" y1="1726.5938" y2="1746.5938"/><polygon fill="#181818" points="282,1736.5938,286,1746.5938,290,1736.5938,286,1740.5938" style="stroke:#181818;stroke-width:1.0;"/><line style="stroke:#181818;stroke-width:1.0;" x1="286" x2="286" y1="2351.5508" y2="2371.5508"/><polygon fill="#181818" points="282,2361.5508,286,2371.5508,290,2361.5508,286,2365.5508" style="stroke:#181818;stroke-width:1.0;"/><line style="stroke:#181818;stroke-width:1.0;" x1="286" x2="286" y1="2449.5195" y2="2473.9219"/><polygon fill="#181818" points="282,2463.9219,286,2473.9219,290,2463.9219,286,2467.9219" style="stroke:#181818;stroke-width:1.0;"/><line style="stroke:#181818;stroke-width:1.0;" x1="342" x2="436" y1="2437.5195" y2="2437.5195"/><polygon fill="#181818" points="432,2480.9063,436,2490.9063,440,2480.9063,436,2484.9063" style="stroke:#181818;stroke-width:1.0;"/><line style="stroke:#181818;stroke-width:1.0;" x1="436" x2="436" y1="2437.5195" y2="2539.8906"/><line style="stroke:#181818;stroke-width:1.0;" x1="436" x2="298" y1="2539.8906" y2="2539.8906"/><polygon fill="#181818" points="308,2535.8906,298,2539.8906,308,2543.8906,304,2539.8906" style="stroke:#181818;stroke-width:1.0;"/><line style="stroke:#181818;stroke-width:1.0;" x1="286" x2="286" y1="2507.8906" y2="2527.8906"/><polygon fill="#181818" points="282,2517.8906,286,2527.8906,290,2517.8906,286,2521.8906" style="stroke:#181818;stroke-width:1.0;"/><line style="stroke:#181818;stroke-width:1.0;" x1="286" x2="286" y1="2405.5195" y2="2425.5195"/><polygon fill="#181818" points="282,2415.5195,286,2425.5195,290,2415.5195,286,2419.5195" style="stroke:#181818;stroke-width:1.0;"/><line style="stroke:#181818;stroke-width:1.0;" x1="286" x2="286" y1="2551.8906" y2="2571.8906"/><polygon fill="#181818" points="282,2561.8906,286,2571.8906,290,2561.8906,286,2565.8906" style="stroke:#181818;stroke-width:1.0;"/><line style="stroke:#181818;stroke-width:1.0;" x1="286" x2="286" y1="2605.8594" y2="2625.8594"/><polygon fill="#181818" points="282,2615.8594,286,2625.8594,290,2615.8594,286,2619.8594" style="stroke:#181818;stroke-width:1.0;"/><line style="stroke:#181818;stroke-width:1.0;" x1="286" x2="286" y1="2293.1797" y2="2317.582"/><polygon fill="#181818" points="282,2307.582,286,2317.582,290,2307.582,286,2311.582" style="stroke:#181818;stroke-width:1.0;"/><line style="stroke:#181818;stroke-width:1.0;" x1="434" x2="497.5" y1="2281.1797" y2="2281.1797"/><polygon fill="#181818" points="493.5,2480.9063,497.5,2490.9063,501.5,2480.9063,497.5,2484.9063" style="stroke:#181818;stroke-width:1.0;"/><line style="stroke:#181818;stroke-width:1.0;" x1="497.5" x2="497.5" y1="2281.1797" y2="2691.8281"/><line style="stroke:#181818;stroke-width:1.0;" x1="497.5" x2="298" y1="2691.8281" y2="2691.8281"/><polygon fill="#181818" points="308,2687.8281,298,2691.8281,308,2695.8281,304,2691.8281" style="stroke:#181818;stroke-width:1.0;"/><line style="stroke:#181818;stroke-width:1.0;" x1="286" x2="286" y1="2659.8281" y2="2679.8281"/><polygon fill="#181818" points="282,2669.8281,286,2679.8281,290,2669.8281,286,2673.8281" style="stroke:#181818;stroke-width:1.0;"/><line style="stroke:#181818;stroke-width:1.0;" x1="286" x2="286" y1="2249.1797" y2="2269.1797"/><polygon fill="#181818" points="282,2259.1797,286,2269.1797,290,2259.1797,286,2263.1797" style="stroke:#181818;stroke-width:1.0;"/><line style="stroke:#181818;stroke-width:1.0;" x1="286" x2="286" y1="2806.1992" y2="2826.1992"/><polygon fill="#181818" points="282,2816.1992,286,2826.1992,290,2816.1992,286,2820.1992" style="stroke:#181818;stroke-width:1.0;"/><line style="stroke:#181818;stroke-width:1.0;" x1="286" x2="286" y1="2860.168" y2="2880.168"/><polygon fill="#181818" points="282,2870.168,286,2880.168,290,2870.168,286,2874.168" style="stroke:#181818;stroke-width:1.0;"/><line style="stroke:#181818;stroke-width:1.0;" x1="286" x2="286" y1="2958.1367" y2="2982.5391"/><polygon fill="#181818" points="282,2972.5391,286,2982.5391,290,2972.5391,286,2976.5391" style="stroke:#181818;stroke-width:1.0;"/><line style="stroke:#181818;stroke-width:1.0;" x1="342" x2="436" y1="2946.1367" y2="2946.1367"/><polygon fill="#181818" points="432,2989.5234,436,2999.5234,440,2989.5234,436,2993.5234" style="stroke:#181818;stroke-width:1.0;"/><line style="stroke:#181818;stroke-width:1.0;" x1="436" x2="436" y1="2946.1367" y2="3048.5078"/><line style="stroke:#181818;stroke-width:1.0;" x1="436" x2="298" y1="3048.5078" y2="3048.5078"/><polygon fill="#181818" points="308,3044.5078,298,3048.5078,308,3052.5078,304,3048.5078" style="stroke:#181818;stroke-width:1.0;"/><line style="stroke:#181818;stroke-width:1.0;" x1="286" x2="286" y1="3016.5078" y2="3036.5078"/><polygon fill="#181818" points="282,3026.5078,286,3036.5078,290,3026.5078,286,3030.5078" style="stroke:#181818;stroke-width:1.0;"/><line style="stroke:#181818;stroke-width:1.0;" x1="286" x2="286" y1="2914.1367" y2="2934.1367"/><polygon fill="#181818" points="282,2924.1367,286,2934.1367,290,2924.1367,286,2928.1367" style="stroke:#181818;stroke-width:1.0;"/><line style="stroke:#181818;stroke-width:1.0;" x1="286" x2="286" y1="3060.5078" y2="3080.5078"/><polygon fill="#181818" points="282,3070.5078,286,3080.5078,290,3070.5078,286,3074.5078" style="stroke:#181818;stroke-width:1.0;"/><line style="stroke:#181818;stroke-width:1.0;" x1="286" x2="286" y1="3114.4766" y2="3134.4766"/><polygon fill="#181818" points="282,3124.4766,286,3134.4766,290,3124.4766,286,3128.4766" style="stroke:#181818;stroke-width:1.0;"/><line style="stroke:#181818;stroke-width:1.0;" x1="286" x2="286" y1="3182.4141" y2="3202.4141"/><polygon fill="#181818" points="282,3192.4141,286,3202.4141,290,3192.4141,286,3196.4141" style="stroke:#181818;stroke-width:1.0;"/><line style="stroke:#181818;stroke-width:1.0;" x1="286" x2="286" y1="2747.8281" y2="2772.2305"/><polygon fill="#181818" points="282,2762.2305,286,2772.2305,290,2762.2305,286,2766.2305" style="stroke:#181818;stroke-width:1.0;"/><line style="stroke:#181818;stroke-width:1.0;" x1="438.5" x2="521" y1="2735.8281" y2="2735.8281"/><polygon fill="#181818" points="517,2996.5078,521,3006.5078,525,2996.5078,521,3000.5078" style="stroke:#181818;stroke-width:1.0;"/><line style="stroke:#181818;stroke-width:1.0;" x1="521" x2="521" y1="2735.8281" y2="3268.3828"/><line style="stroke:#181818;stroke-width:1.0;" x1="521" x2="298" y1="3268.3828" y2="3268.3828"/><polygon fill="#181818" points="308,3264.3828,298,3268.3828,308,3272.3828,304,3268.3828" style="stroke:#181818;stroke-width:1.0;"/><line style="stroke:#181818;stroke-width:1.0;" x1="286" x2="286" y1="3236.3828" y2="3256.3828"/><polygon fill="#181818" points="282,3246.3828,286,3256.3828,290,3246.3828,286,3250.3828" style="stroke:#181818;stroke-width:1.0;"/><line style="stroke:#181818;stroke-width:1.0;" x1="286" x2="286" y1="2703.8281" y2="2723.8281"/><polygon fill="#181818" points="282,2713.8281,286,2723.8281,290,2713.8281,286,2717.8281" style="stroke:#181818;stroke-width:1.0;"/><line style="stroke:#181818;stroke-width:1.0;" x1="286" x2="286" y1="3280.3828" y2="3300.3828"/><polygon fill="#181818" points="282,3290.3828,286,3300.3828,290,3290.3828,286,3294.3828" style="stroke:#181818;stroke-width:1.0;"/><!--MD5=[310929f18c734f1fddbbc7cbae902268]
@startuml
!pragma layout smetana
start
note right
constructor DriverTextAsPathG2d(EnsureVisible visible,
StringBounder stringBounder)
end note
:this.visible=visible;;
:this.stringBounder=stringBounder;;
end
start
note right
void printFont()
end note
:final GraphicsEnvironment ge=GraphicsEnvironment.getLocalGraphicsEnvironment();;
:final String fontNames[]=ge.getAvailableFontFamilyNames();;
:final int j=fontNames.length;;
:Log.info("Available fonts: "+fontNames[i]);;
end
start
note right
void draw(UText shape,double x,double y,ColorMapper mapper,
UParam param,Graphics2D g2d)
end note
:final FontConfiguration fontConfiguration=shape.getFontConfiguration();;
:final UFont font=fontConfiguration.getFont();;
:final XDimension2D dim=stringBounder.calculateDimension(font,
shape.getText());;
:final double height=max(10,dim.getHeight());;
:final double width=dim.getWidth();;
if (fontConfiguration.containsStyle(FontStyle.BACKCOLOR)) then (yes) 
:final Color extended=fontConfiguration.getExtendedColor()
.toColor(mapper);;
if (extended!=null ) then (yes) 
:g2d.setColor(extended);;
:g2d.setBackground(extended);;
:g2d.fill(new Rectangle2D.Double(x,y-height+
1.5,width,height));;
endif 
endif 
:visible.ensureVisible(x,y-height+1.5);;
:visible.ensureVisible(x+width,y+1.5);;
:g2d.setFont(font.getUnderlayingFont());;
:g2d.setColor(fontConfiguration.getColor()
.toColor(mapper));;
:final TextLayout t=createTextLayout(font,
shape.getText());;
:g2d.translate(x,y);;
:g2d.fill(t.getOutline(null ));;
:g2d.translate(-x,-y);;
if (fontConfiguration.containsStyle(FontStyle.UNDERLINE)) then (yes) 
:final HColor extended=fontConfiguration.getExtendedColor();;
if (extended!=null ) then (yes) 
:g2d.setColor(extended.toColor(mapper));;
endif 
:final int ypos=(int )(y+2.5);;
:g2d.setStroke(new BasicStroke((float )1));;
:g2d.drawLine((int )x,ypos,(int )(x+width),
ypos);;
:g2d.setStroke(new BasicStroke());;
endif 
if (fontConfiguration.containsStyle(FontStyle.WAVE)) then (yes) 
:final int ypos=(int )(y+2.5)-1;;
:final HColor extended=fontConfiguration.getExtendedColor();;
if (extended!=null ) then (yes) 
:g2d.setColor(extended.toColor(mapper));;
endif 
:g2d.drawLine(i,ypos-0,i+3,ypos+1);;
:g2d.drawLine(i+3,ypos+1,i+6,ypos-0);;
endif 
if (fontConfiguration.containsStyle(FontStyle.STRIKE)) then (yes) 
:final FontMetrics fm=g2d.getFontMetrics(font.getUnderlayingFont());;
:final int ypos=(int )(y-fm.getDescent()-0.5);;
:final HColor extended=fontConfiguration.getExtendedColor();;
if (extended!=null ) then (yes) 
:g2d.setColor(extended.toColor(mapper));;
endif 
:g2d.setStroke(new BasicStroke((float )1.5));;
:g2d.drawLine((int )x,ypos,(int )(x+width),
ypos);;
:g2d.setStroke(new BasicStroke());;
endif 
end
@enduml

PlantUML version 1.2022.7(Mon Aug 22 17:01:30 UTC 2022)
(GPL source distribution)
Java Runtime: OpenJDK Runtime Environment
JVM: OpenJDK 64-Bit Server VM
Default Encoding: UTF-8
Language: en
Country: null
--></g></svg>