<?xml version="1.0" encoding="UTF-8" standalone="no"?><svg xmlns="http://www.w3.org/2000/svg" xmlns:xlink="http://www.w3.org/1999/xlink" contentStyleType="text/css" height="186px" preserveAspectRatio="none" style="width:523px;height:186px;background:#FFFFFF;" version="1.1" viewBox="0 0 523 186" width="523px" zoomAndPan="magnify"><defs/><g><!--MD5=[b20e0d1a5977452a6f6a36ae5d781ba3]
cluster net.sourceforge.plantuml.ugraphic.g2d--><g id="cluster_net.sourceforge.plantuml.ugraphic.g2d"><path d="M8.5,63 L319.5,63 A3.75,3.75 0 0 1 322,65.5 L329,85.2969 L513.5,85.2969 A2.5,2.5 0 0 1 516,87.7969 L516,176.5 A2.5,2.5 0 0 1 513.5,179 L8.5,179 A2.5,2.5 0 0 1 6,176.5 L6,65.5 A2.5,2.5 0 0 1 8.5,63 " fill="none" style="stroke:#000000;stroke-width:1.5;"/><line style="stroke:#000000;stroke-width:1.5;" x1="6" x2="329" y1="85.2969" y2="85.2969"/><text fill="#000000" font-family="sans-serif" font-size="14" font-weight="bold" lengthAdjust="spacing" textLength="310" x="10" y="77.9951">net.sourceforge.plantuml.ugraphic.g2d</text></g><!--MD5=[9953e3129ec70aef7ea075052471e073]
class DriverShadowedG2d--><g id="elem_DriverShadowedG2d"><rect fill="#F1F1F1" height="48" id="DriverShadowedG2d" rx="2.5" ry="2.5" style="stroke:#181818;stroke-width:0.5;" width="174" x="174" y="6"/><ellipse cx="189" cy="22" fill="#ADD1B2" rx="11" ry="11" style="stroke:#181818;stroke-width:1.0;"/><path d="M191.9688,27.6406 Q191.3906,27.9375 190.75,28.0781 Q190.1094,28.2344 189.4063,28.2344 Q186.9063,28.2344 185.5781,26.5938 Q184.2656,24.9375 184.2656,21.8125 Q184.2656,18.6875 185.5781,17.0313 Q186.9063,15.375 189.4063,15.375 Q190.1094,15.375 190.75,15.5313 Q191.4063,15.6875 191.9688,15.9844 L191.9688,18.7031 Q191.3438,18.125 190.75,17.8594 Q190.1563,17.5781 189.5313,17.5781 Q188.1875,17.5781 187.5,18.6563 Q186.8125,19.7188 186.8125,21.8125 Q186.8125,23.9063 187.5,24.9844 Q188.1875,26.0469 189.5313,26.0469 Q190.1563,26.0469 190.75,25.7813 Q191.3438,25.5 191.9688,24.9219 L191.9688,27.6406 Z " fill="#000000"/><text fill="#000000" font-family="sans-serif" font-size="14" lengthAdjust="spacing" textLength="142" x="203" y="26.8467">DriverShadowedG2d</text><line style="stroke:#181818;stroke-width:0.5;" x1="175" x2="347" y1="38" y2="38"/><line style="stroke:#181818;stroke-width:0.5;" x1="175" x2="347" y1="46" y2="46"/></g><!--MD5=[a83f80fc554b96887dbdcd772d0ccc97]
class net.sourceforge.plantuml.ugraphic.g2d.DriverPathG2d--><g id="elem_net.sourceforge.plantuml.ugraphic.g2d.DriverPathG2d"><rect codeLine="3" fill="#F1F1F1" height="80.5938" id="net.sourceforge.plantuml.ugraphic.g2d.DriverPathG2d" rx="2.5" ry="2.5" style="stroke:#181818;stroke-width:0.5;" width="494" x="14" y="90"/><ellipse cx="206.75" cy="106" fill="#ADD1B2" rx="11" ry="11" style="stroke:#181818;stroke-width:1.0;"/><path d="M209.7188,111.6406 Q209.1406,111.9375 208.5,112.0781 Q207.8594,112.2344 207.1563,112.2344 Q204.6563,112.2344 203.3281,110.5938 Q202.0156,108.9375 202.0156,105.8125 Q202.0156,102.6875 203.3281,101.0313 Q204.6563,99.375 207.1563,99.375 Q207.8594,99.375 208.5,99.5313 Q209.1563,99.6875 209.7188,99.9844 L209.7188,102.7031 Q209.0938,102.125 208.5,101.8594 Q207.9063,101.5781 207.2813,101.5781 Q205.9375,101.5781 205.25,102.6563 Q204.5625,103.7188 204.5625,105.8125 Q204.5625,107.9063 205.25,108.9844 Q205.9375,110.0469 207.2813,110.0469 Q207.9063,110.0469 208.5,109.7813 Q209.0938,109.5 209.7188,108.9219 L209.7188,111.6406 Z " fill="#000000"/><text fill="#000000" font-family="sans-serif" font-size="14" lengthAdjust="spacing" textLength="100" x="227.25" y="110.8467">DriverPathG2d</text><line style="stroke:#181818;stroke-width:0.5;" x1="15" x2="507" y1="122" y2="122"/><line style="stroke:#181818;stroke-width:0.5;" x1="15" x2="507" y1="130" y2="130"/><a href="./../../../../../../.././qc/src/net/sourceforge/plantuml/ugraphic/g2d/DriverPathG2d.java.html#55" target="_top" title="./../../../../../../.././qc/src/net/sourceforge/plantuml/ugraphic/g2d/DriverPathG2d.java.html#55" xlink:actuate="onRequest" xlink:href="./../../../../../../.././qc/src/net/sourceforge/plantuml/ugraphic/g2d/DriverPathG2d.java.html#55" xlink:show="new" xlink:title="./../../../../../../.././qc/src/net/sourceforge/plantuml/ugraphic/g2d/DriverPathG2d.java.html#55" xlink:type="simple"><rect fill="#F1F1F1" height="10" style="stroke:none;stroke-width:1.0;" width="20" x="20" y="138.6484"/><ellipse cx="25" cy="143.6484" fill="#84BE84" rx="3" ry="3" style="stroke:#038048;stroke-width:1.0;"/></a><a href="./../../../../../../.././qc/src/net/sourceforge/plantuml/ugraphic/g2d/DriverPathG2d.java.html#55" target="_top" title="./../../../../../../.././qc/src/net/sourceforge/plantuml/ugraphic/g2d/DriverPathG2d.java.html#55" xlink:actuate="onRequest" xlink:href="./../../../../../../.././qc/src/net/sourceforge/plantuml/ugraphic/g2d/DriverPathG2d.java.html#55" xlink:show="new" xlink:title="./../../../../../../.././qc/src/net/sourceforge/plantuml/ugraphic/g2d/DriverPathG2d.java.html#55" xlink:type="simple"><text fill="#000000" font-family="sans-serif" font-size="14" lengthAdjust="spacing" textLength="271" x="34" y="146.9951">DriverPathG2d(double) : DriverPathG2d</text></a><a href="./../../../../../../.././qc/src/net/sourceforge/plantuml/ugraphic/g2d/DriverPathG2d.java.html#59" target="_top" title="./../../../../../../.././qc/src/net/sourceforge/plantuml/ugraphic/g2d/DriverPathG2d.java.html#59" xlink:actuate="onRequest" xlink:href="./../../../../../../.././qc/src/net/sourceforge/plantuml/ugraphic/g2d/DriverPathG2d.java.html#59" xlink:show="new" xlink:title="./../../../../../../.././qc/src/net/sourceforge/plantuml/ugraphic/g2d/DriverPathG2d.java.html#59" xlink:type="simple"><rect fill="#F1F1F1" height="10" style="stroke:none;stroke-width:1.0;" width="20" x="20" y="154.9453"/><ellipse cx="25" cy="159.9453" fill="#84BE84" rx="3" ry="3" style="stroke:#038048;stroke-width:1.0;"/></a><a href="./../../../../../../.././qc/src/net/sourceforge/plantuml/ugraphic/g2d/DriverPathG2d.java.html#59" target="_top" title="./../../../../../../.././qc/src/net/sourceforge/plantuml/ugraphic/g2d/DriverPathG2d.java.html#59" xlink:actuate="onRequest" xlink:href="./../../../../../../.././qc/src/net/sourceforge/plantuml/ugraphic/g2d/DriverPathG2d.java.html#59" xlink:show="new" xlink:title="./../../../../../../.././qc/src/net/sourceforge/plantuml/ugraphic/g2d/DriverPathG2d.java.html#59" xlink:type="simple"><text fill="#000000" font-family="sans-serif" font-size="14" lengthAdjust="spacing" textLength="468" x="34" y="163.292">draw(UPath;double;double;ColorMapper;UParam;Graphics2D) : void</text></a></g><path d="M261,54.0939 C261,64.784 261,77.7904 261,89.9706 " fill="none" style="stroke:#181818;stroke-width:1.0;"/><polygon fill="#FFFFFF" points="261,54.0939,255,70.0939,267,70.0939,261,54.0939" style="stroke:#181818;stroke-width:1.0;"/><!--MD5=[be83e5bd58cae8ff6c8fd30342649fc6]
@startuml
!pragma layout smetana
"DriverShadowedG2d" <|- - "net.sourceforge.plantuml.ugraphic.g2d.DriverPathG2d"
class net.sourceforge.plantuml.ugraphic.g2d.DriverPathG2d {
+DriverPathG2d(double) : DriverPathG2d [[[./../../../../../../.././qc/src/net/sourceforge/plantuml/ugraphic/g2d/DriverPathG2d.java.html#55]]]
+draw(UPath;double;double;ColorMapper;UParam;Graphics2D) : void [[[./../../../../../../.././qc/src/net/sourceforge/plantuml/ugraphic/g2d/DriverPathG2d.java.html#59]]]
} 
@enduml

PlantUML version 1.2022.7(Mon Aug 22 17:01:30 UTC 2022)
(GPL source distribution)
Java Runtime: OpenJDK Runtime Environment
JVM: OpenJDK 64-Bit Server VM
Default Encoding: UTF-8
Language: en
Country: null
--></g></svg>