<?xml version="1.0" encoding="UTF-8" standalone="no"?><svg xmlns="http://www.w3.org/2000/svg" xmlns:xlink="http://www.w3.org/1999/xlink" contentStyleType="text/css" height="1580px" preserveAspectRatio="none" style="width:589px;height:1580px;background:#FFFFFF;" version="1.1" viewBox="0 0 589 1580" width="589px" zoomAndPan="magnify"><defs/><g><path d="M229.5,10 L229.5,26.1328 L209.5,30.1328 L229.5,34.1328 L229.5,50.2656 A0,0 0 0 0 229.5,50.2656 L577.5,50.2656 A0,0 0 0 0 577.5,50.2656 L577.5,20 L567.5,10 L229.5,10 A0,0 0 0 0 229.5,10 " fill="#FEFFDD" style="stroke:#181818;stroke-width:0.5;"/><path d="M567.5,10 L567.5,20 L577.5,20 L567.5,10 " fill="#FEFFDD" style="stroke:#181818;stroke-width:0.5;"/><text fill="#000000" font-family="sans-serif" font-size="13" lengthAdjust="spacing" textLength="327" x="235.5" y="27.0669">constructor ClippingRectangle(double x1,double y1,</text><text fill="#000000" font-family="sans-serif" font-size="13" lengthAdjust="spacing" textLength="133" x="235.5" y="42.1997">double x2,double y2)</text><ellipse cx="199.5" cy="30.1328" fill="#222222" rx="10" ry="10" style="stroke:#222222;stroke-width:1.0;"/><rect fill="#F1F1F1" height="33.9688" rx="12.5" ry="12.5" style="stroke:#181818;stroke-width:0.5;" width="168" x="115.5" y="70.2656"/><text fill="#000000" font-family="sans-serif" font-size="12" lengthAdjust="spacing" textLength="148" x="125.5" y="91.4043">_minX=Math.min(x1,x2);</text><rect fill="#F1F1F1" height="33.9688" rx="12.5" ry="12.5" style="stroke:#181818;stroke-width:0.5;" width="168" x="115.5" y="124.2344"/><text fill="#000000" font-family="sans-serif" font-size="12" lengthAdjust="spacing" textLength="148" x="125.5" y="145.373">_minY=Math.min(y1,y2);</text><rect fill="#F1F1F1" height="33.9688" rx="12.5" ry="12.5" style="stroke:#181818;stroke-width:0.5;" width="174" x="112.5" y="178.2031"/><text fill="#000000" font-family="sans-serif" font-size="12" lengthAdjust="spacing" textLength="154" x="122.5" y="199.3418">_maxX=Math.max(x1,x2);</text><rect fill="#F1F1F1" height="33.9688" rx="12.5" ry="12.5" style="stroke:#181818;stroke-width:0.5;" width="174" x="112.5" y="232.1719"/><text fill="#000000" font-family="sans-serif" font-size="12" lengthAdjust="spacing" textLength="154" x="122.5" y="253.3105">_maxY=Math.max(y1,y2);</text><ellipse cx="199.5" cy="296.1406" fill="none" rx="10" ry="10" style="stroke:#222222;stroke-width:1.5;"/><line style="stroke:#222222;stroke-width:2.5;" x1="193.3128" x2="205.6872" y1="289.9534" y2="302.3278"/><line style="stroke:#222222;stroke-width:2.5;" x1="205.6872" x2="193.3128" y1="289.9534" y2="302.3278"/><path d="M229.5,316.1406 L229.5,324.707 L209.5,328.707 L229.5,332.707 L229.5,341.2734 A0,0 0 0 0 229.5,341.2734 L469.5,341.2734 A0,0 0 0 0 469.5,341.2734 L469.5,326.1406 L459.5,316.1406 L229.5,316.1406 A0,0 0 0 0 229.5,316.1406 " fill="#FEFFDD" style="stroke:#181818;stroke-width:0.5;"/><path d="M459.5,316.1406 L459.5,326.1406 L469.5,326.1406 L459.5,316.1406 " fill="#FEFFDD" style="stroke:#181818;stroke-width:0.5;"/><text fill="#000000" font-family="sans-serif" font-size="13" lengthAdjust="spacing" textLength="219" x="235.5" y="333.2075">boolean isInside(GraphPoint point)</text><ellipse cx="199.5" cy="328.707" fill="#222222" rx="10" ry="10" style="stroke:#222222;stroke-width:1.0;"/><rect fill="#F1F1F1" height="33.9688" rx="12.5" ry="12.5" style="stroke:#181818;stroke-width:0.5;" width="161" x="119" y="361.2734"/><text fill="#000000" font-family="sans-serif" font-size="12" lengthAdjust="spacing" textLength="141" x="129" y="382.4121">double x=point.getX();</text><rect fill="#F1F1F1" height="33.9688" rx="12.5" ry="12.5" style="stroke:#181818;stroke-width:0.5;" width="161" x="119" y="415.2422"/><text fill="#000000" font-family="sans-serif" font-size="12" lengthAdjust="spacing" textLength="141" x="129" y="436.3809">double y=point.getY();</text><rect fill="#F1F1F1" height="33.9688" rx="12.5" ry="12.5" style="stroke:#181818;stroke-width:0.5;" width="377" x="11" y="469.2109"/><text fill="#000000" font-family="sans-serif" font-size="12" lengthAdjust="spacing" textLength="357" x="21" y="490.3496">return _minX&lt;=x&amp;&amp;x&lt;=_maxX&amp;&amp;_minY&lt;=y&amp;&amp;y&lt;=_maxY;</text><ellipse cx="199.5" cy="534.1797" fill="none" rx="11" ry="11" style="stroke:#222222;stroke-width:1.0;"/><ellipse cx="199.5" cy="534.1797" fill="#222222" rx="6" ry="6" style="stroke:#111111;stroke-width:1.0;"/><ellipse cx="199.5" cy="565.1797" fill="none" rx="10" ry="10" style="stroke:#222222;stroke-width:1.5;"/><line style="stroke:#222222;stroke-width:2.5;" x1="193.3128" x2="205.6872" y1="558.9925" y2="571.3669"/><line style="stroke:#222222;stroke-width:2.5;" x1="205.6872" x2="193.3128" y1="558.9925" y2="571.3669"/><path d="M229.5,585.1797 L229.5,593.7461 L209.5,597.7461 L229.5,601.7461 L229.5,610.3125 A0,0 0 0 0 229.5,610.3125 L358.5,610.3125 A0,0 0 0 0 358.5,610.3125 L358.5,595.1797 L348.5,585.1797 L229.5,585.1797 A0,0 0 0 0 229.5,585.1797 " fill="#FEFFDD" style="stroke:#181818;stroke-width:0.5;"/><path d="M348.5,585.1797 L348.5,595.1797 L358.5,595.1797 L348.5,585.1797 " fill="#FEFFDD" style="stroke:#181818;stroke-width:0.5;"/><text fill="#000000" font-family="sans-serif" font-size="13" lengthAdjust="spacing" textLength="108" x="235.5" y="602.2466">double getMinX()</text><ellipse cx="199.5" cy="597.7461" fill="#222222" rx="10" ry="10" style="stroke:#222222;stroke-width:1.0;"/><rect fill="#F1F1F1" height="33.9688" rx="12.5" ry="12.5" style="stroke:#181818;stroke-width:0.5;" width="102" x="148.5" y="630.3125"/><text fill="#000000" font-family="sans-serif" font-size="12" lengthAdjust="spacing" textLength="82" x="158.5" y="651.4512">return _minX;</text><ellipse cx="199.5" cy="695.2813" fill="none" rx="11" ry="11" style="stroke:#222222;stroke-width:1.0;"/><ellipse cx="199.5" cy="695.2813" fill="#222222" rx="6" ry="6" style="stroke:#111111;stroke-width:1.0;"/><ellipse cx="199.5" cy="726.2813" fill="none" rx="10" ry="10" style="stroke:#222222;stroke-width:1.5;"/><line style="stroke:#222222;stroke-width:2.5;" x1="193.3128" x2="205.6872" y1="720.0941" y2="732.4684"/><line style="stroke:#222222;stroke-width:2.5;" x1="205.6872" x2="193.3128" y1="720.0941" y2="732.4684"/><path d="M229.5,746.2813 L229.5,754.8477 L209.5,758.8477 L229.5,762.8477 L229.5,771.4141 A0,0 0 0 0 229.5,771.4141 L362.5,771.4141 A0,0 0 0 0 362.5,771.4141 L362.5,756.2813 L352.5,746.2813 L229.5,746.2813 A0,0 0 0 0 229.5,746.2813 " fill="#FEFFDD" style="stroke:#181818;stroke-width:0.5;"/><path d="M352.5,746.2813 L352.5,756.2813 L362.5,756.2813 L352.5,746.2813 " fill="#FEFFDD" style="stroke:#181818;stroke-width:0.5;"/><text fill="#000000" font-family="sans-serif" font-size="13" lengthAdjust="spacing" textLength="112" x="235.5" y="763.3481">double getMaxX()</text><ellipse cx="199.5" cy="758.8477" fill="#222222" rx="10" ry="10" style="stroke:#222222;stroke-width:1.0;"/><rect fill="#F1F1F1" height="33.9688" rx="12.5" ry="12.5" style="stroke:#181818;stroke-width:0.5;" width="105" x="147" y="791.4141"/><text fill="#000000" font-family="sans-serif" font-size="12" lengthAdjust="spacing" textLength="85" x="157" y="812.5527">return _maxX;</text><ellipse cx="199.5" cy="856.3828" fill="none" rx="11" ry="11" style="stroke:#222222;stroke-width:1.0;"/><ellipse cx="199.5" cy="856.3828" fill="#222222" rx="6" ry="6" style="stroke:#111111;stroke-width:1.0;"/><ellipse cx="199.5" cy="887.3828" fill="none" rx="10" ry="10" style="stroke:#222222;stroke-width:1.5;"/><line style="stroke:#222222;stroke-width:2.5;" x1="193.3128" x2="205.6872" y1="881.1956" y2="893.57"/><line style="stroke:#222222;stroke-width:2.5;" x1="205.6872" x2="193.3128" y1="881.1956" y2="893.57"/><path d="M229.5,907.3828 L229.5,915.9492 L209.5,919.9492 L229.5,923.9492 L229.5,932.5156 A0,0 0 0 0 229.5,932.5156 L357.5,932.5156 A0,0 0 0 0 357.5,932.5156 L357.5,917.3828 L347.5,907.3828 L229.5,907.3828 A0,0 0 0 0 229.5,907.3828 " fill="#FEFFDD" style="stroke:#181818;stroke-width:0.5;"/><path d="M347.5,907.3828 L347.5,917.3828 L357.5,917.3828 L347.5,907.3828 " fill="#FEFFDD" style="stroke:#181818;stroke-width:0.5;"/><text fill="#000000" font-family="sans-serif" font-size="13" lengthAdjust="spacing" textLength="107" x="235.5" y="924.4497">double getMinY()</text><ellipse cx="199.5" cy="919.9492" fill="#222222" rx="10" ry="10" style="stroke:#222222;stroke-width:1.0;"/><rect fill="#F1F1F1" height="33.9688" rx="12.5" ry="12.5" style="stroke:#181818;stroke-width:0.5;" width="102" x="148.5" y="952.5156"/><text fill="#000000" font-family="sans-serif" font-size="12" lengthAdjust="spacing" textLength="82" x="158.5" y="973.6543">return _minY;</text><ellipse cx="199.5" cy="1017.4844" fill="none" rx="11" ry="11" style="stroke:#222222;stroke-width:1.0;"/><ellipse cx="199.5" cy="1017.4844" fill="#222222" rx="6" ry="6" style="stroke:#111111;stroke-width:1.0;"/><ellipse cx="199.5" cy="1048.4844" fill="none" rx="10" ry="10" style="stroke:#222222;stroke-width:1.5;"/><line style="stroke:#222222;stroke-width:2.5;" x1="193.3128" x2="205.6872" y1="1042.2972" y2="1054.6716"/><line style="stroke:#222222;stroke-width:2.5;" x1="205.6872" x2="193.3128" y1="1042.2972" y2="1054.6716"/><path d="M229.5,1068.4844 L229.5,1077.0508 L209.5,1081.0508 L229.5,1085.0508 L229.5,1093.6172 A0,0 0 0 0 229.5,1093.6172 L361.5,1093.6172 A0,0 0 0 0 361.5,1093.6172 L361.5,1078.4844 L351.5,1068.4844 L229.5,1068.4844 A0,0 0 0 0 229.5,1068.4844 " fill="#FEFFDD" style="stroke:#181818;stroke-width:0.5;"/><path d="M351.5,1068.4844 L351.5,1078.4844 L361.5,1078.4844 L351.5,1068.4844 " fill="#FEFFDD" style="stroke:#181818;stroke-width:0.5;"/><text fill="#000000" font-family="sans-serif" font-size="13" lengthAdjust="spacing" textLength="111" x="235.5" y="1085.5513">double getMaxY()</text><ellipse cx="199.5" cy="1081.0508" fill="#222222" rx="10" ry="10" style="stroke:#222222;stroke-width:1.0;"/><rect fill="#F1F1F1" height="33.9688" rx="12.5" ry="12.5" style="stroke:#181818;stroke-width:0.5;" width="105" x="147" y="1113.6172"/><text fill="#000000" font-family="sans-serif" font-size="12" lengthAdjust="spacing" textLength="85" x="157" y="1134.7559">return _maxY;</text><ellipse cx="199.5" cy="1178.5859" fill="none" rx="11" ry="11" style="stroke:#222222;stroke-width:1.0;"/><ellipse cx="199.5" cy="1178.5859" fill="#222222" rx="6" ry="6" style="stroke:#111111;stroke-width:1.0;"/><ellipse cx="199.5" cy="1209.5859" fill="none" rx="10" ry="10" style="stroke:#222222;stroke-width:1.5;"/><line style="stroke:#222222;stroke-width:2.5;" x1="193.3128" x2="205.6872" y1="1203.3988" y2="1215.7731"/><line style="stroke:#222222;stroke-width:2.5;" x1="205.6872" x2="193.3128" y1="1203.3988" y2="1215.7731"/><path d="M229.5,1229.5859 L229.5,1238.1523 L209.5,1242.1523 L229.5,1246.1523 L229.5,1254.7188 A0,0 0 0 0 229.5,1254.7188 L482.5,1254.7188 A0,0 0 0 0 482.5,1254.7188 L482.5,1239.5859 L472.5,1229.5859 L229.5,1229.5859 A0,0 0 0 0 229.5,1229.5859 " fill="#FEFFDD" style="stroke:#181818;stroke-width:0.5;"/><path d="M472.5,1229.5859 L472.5,1239.5859 L482.5,1239.5859 L472.5,1229.5859 " fill="#FEFFDD" style="stroke:#181818;stroke-width:0.5;"/><text fill="#000000" font-family="sans-serif" font-size="13" lengthAdjust="spacing" textLength="232" x="235.5" y="1246.6528">ClippingRectangle getBoundingBox()</text><ellipse cx="199.5" cy="1242.1523" fill="#222222" rx="10" ry="10" style="stroke:#222222;stroke-width:1.0;"/><rect fill="#F1F1F1" height="33.9688" rx="12.5" ry="12.5" style="stroke:#181818;stroke-width:0.5;" width="90" x="154.5" y="1274.7188"/><text fill="#000000" font-family="sans-serif" font-size="12" lengthAdjust="spacing" textLength="70" x="164.5" y="1295.8574">return this;</text><ellipse cx="199.5" cy="1339.6875" fill="none" rx="11" ry="11" style="stroke:#222222;stroke-width:1.0;"/><ellipse cx="199.5" cy="1339.6875" fill="#222222" rx="6" ry="6" style="stroke:#111111;stroke-width:1.0;"/><ellipse cx="199.5" cy="1370.6875" fill="none" rx="10" ry="10" style="stroke:#222222;stroke-width:1.5;"/><line style="stroke:#222222;stroke-width:2.5;" x1="193.3128" x2="205.6872" y1="1364.5003" y2="1376.8747"/><line style="stroke:#222222;stroke-width:2.5;" x1="205.6872" x2="193.3128" y1="1364.5003" y2="1376.8747"/><path d="M229.5,1390.6875 L229.5,1399.2539 L209.5,1403.2539 L229.5,1407.2539 L229.5,1415.8203 A0,0 0 0 0 229.5,1415.8203 L545.5,1415.8203 A0,0 0 0 0 545.5,1415.8203 L545.5,1400.6875 L535.5,1390.6875 L229.5,1390.6875 A0,0 0 0 0 229.5,1390.6875 " fill="#FEFFDD" style="stroke:#181818;stroke-width:0.5;"/><path d="M535.5,1390.6875 L535.5,1400.6875 L545.5,1400.6875 L535.5,1390.6875 " fill="#FEFFDD" style="stroke:#181818;stroke-width:0.5;"/><text fill="#000000" font-family="sans-serif" font-size="13" lengthAdjust="spacing" textLength="295" x="235.5" y="1407.7544">BasicGraphicalElement getGraphicalElement()</text><ellipse cx="199.5" cy="1403.2539" fill="#222222" rx="10" ry="10" style="stroke:#222222;stroke-width:1.0;"/><rect fill="#F1F1F1" height="61.9063" rx="12.5" ry="12.5" style="stroke:#181818;stroke-width:0.5;" width="357" x="21" y="1435.8203"/><text fill="#000000" font-family="sans-serif" font-size="12" lengthAdjust="spacing" textLength="320" x="31" y="1456.959">return new Rectangle(new GraphPoint(0.5*(_minX+</text><text fill="#000000" font-family="sans-serif" font-size="12" lengthAdjust="spacing" textLength="337" x="31" y="1470.9277">_maxX),0.5*(_minY+_maxY)),_maxX-_minX,_maxY-_minY,</text><text fill="#000000" font-family="sans-serif" font-size="12" lengthAdjust="spacing" textLength="35" x="31" y="1484.8965">null );</text><ellipse cx="199.5" cy="1528.7266" fill="none" rx="11" ry="11" style="stroke:#222222;stroke-width:1.0;"/><ellipse cx="199.5" cy="1528.7266" fill="#222222" rx="6" ry="6" style="stroke:#111111;stroke-width:1.0;"/><ellipse cx="199.5" cy="1559.7266" fill="none" rx="10" ry="10" style="stroke:#222222;stroke-width:1.5;"/><line style="stroke:#222222;stroke-width:2.5;" x1="193.3128" x2="205.6872" y1="1553.5394" y2="1565.9137"/><line style="stroke:#222222;stroke-width:2.5;" x1="205.6872" x2="193.3128" y1="1553.5394" y2="1565.9137"/><line style="stroke:#181818;stroke-width:1.0;" x1="199.5" x2="199.5" y1="40.1328" y2="70.2656"/><polygon fill="#181818" points="195.5,60.2656,199.5,70.2656,203.5,60.2656,199.5,64.2656" style="stroke:#181818;stroke-width:1.0;"/><line style="stroke:#181818;stroke-width:1.0;" x1="199.5" x2="199.5" y1="104.2344" y2="124.2344"/><polygon fill="#181818" points="195.5,114.2344,199.5,124.2344,203.5,114.2344,199.5,118.2344" style="stroke:#181818;stroke-width:1.0;"/><line style="stroke:#181818;stroke-width:1.0;" x1="199.5" x2="199.5" y1="158.2031" y2="178.2031"/><polygon fill="#181818" points="195.5,168.2031,199.5,178.2031,203.5,168.2031,199.5,172.2031" style="stroke:#181818;stroke-width:1.0;"/><line style="stroke:#181818;stroke-width:1.0;" x1="199.5" x2="199.5" y1="212.1719" y2="232.1719"/><polygon fill="#181818" points="195.5,222.1719,199.5,232.1719,203.5,222.1719,199.5,226.1719" style="stroke:#181818;stroke-width:1.0;"/><line style="stroke:#181818;stroke-width:1.0;" x1="199.5" x2="199.5" y1="266.1406" y2="286.1406"/><polygon fill="#181818" points="195.5,276.1406,199.5,286.1406,203.5,276.1406,199.5,280.1406" style="stroke:#181818;stroke-width:1.0;"/><line style="stroke:#181818;stroke-width:1.0;" x1="199.5" x2="199.5" y1="338.707" y2="361.2734"/><polygon fill="#181818" points="195.5,351.2734,199.5,361.2734,203.5,351.2734,199.5,355.2734" style="stroke:#181818;stroke-width:1.0;"/><line style="stroke:#181818;stroke-width:1.0;" x1="199.5" x2="199.5" y1="395.2422" y2="415.2422"/><polygon fill="#181818" points="195.5,405.2422,199.5,415.2422,203.5,405.2422,199.5,409.2422" style="stroke:#181818;stroke-width:1.0;"/><line style="stroke:#181818;stroke-width:1.0;" x1="199.5" x2="199.5" y1="449.2109" y2="469.2109"/><polygon fill="#181818" points="195.5,459.2109,199.5,469.2109,203.5,459.2109,199.5,463.2109" style="stroke:#181818;stroke-width:1.0;"/><line style="stroke:#181818;stroke-width:1.0;" x1="199.5" x2="199.5" y1="503.1797" y2="523.1797"/><polygon fill="#181818" points="195.5,513.1797,199.5,523.1797,203.5,513.1797,199.5,517.1797" style="stroke:#181818;stroke-width:1.0;"/><line style="stroke:#181818;stroke-width:1.0;" x1="199.5" x2="199.5" y1="607.7461" y2="630.3125"/><polygon fill="#181818" points="195.5,620.3125,199.5,630.3125,203.5,620.3125,199.5,624.3125" style="stroke:#181818;stroke-width:1.0;"/><line style="stroke:#181818;stroke-width:1.0;" x1="199.5" x2="199.5" y1="664.2813" y2="684.2813"/><polygon fill="#181818" points="195.5,674.2813,199.5,684.2813,203.5,674.2813,199.5,678.2813" style="stroke:#181818;stroke-width:1.0;"/><line style="stroke:#181818;stroke-width:1.0;" x1="199.5" x2="199.5" y1="768.8477" y2="791.4141"/><polygon fill="#181818" points="195.5,781.4141,199.5,791.4141,203.5,781.4141,199.5,785.4141" style="stroke:#181818;stroke-width:1.0;"/><line style="stroke:#181818;stroke-width:1.0;" x1="199.5" x2="199.5" y1="825.3828" y2="845.3828"/><polygon fill="#181818" points="195.5,835.3828,199.5,845.3828,203.5,835.3828,199.5,839.3828" style="stroke:#181818;stroke-width:1.0;"/><line style="stroke:#181818;stroke-width:1.0;" x1="199.5" x2="199.5" y1="929.9492" y2="952.5156"/><polygon fill="#181818" points="195.5,942.5156,199.5,952.5156,203.5,942.5156,199.5,946.5156" style="stroke:#181818;stroke-width:1.0;"/><line style="stroke:#181818;stroke-width:1.0;" x1="199.5" x2="199.5" y1="986.4844" y2="1006.4844"/><polygon fill="#181818" points="195.5,996.4844,199.5,1006.4844,203.5,996.4844,199.5,1000.4844" style="stroke:#181818;stroke-width:1.0;"/><line style="stroke:#181818;stroke-width:1.0;" x1="199.5" x2="199.5" y1="1091.0508" y2="1113.6172"/><polygon fill="#181818" points="195.5,1103.6172,199.5,1113.6172,203.5,1103.6172,199.5,1107.6172" style="stroke:#181818;stroke-width:1.0;"/><line style="stroke:#181818;stroke-width:1.0;" x1="199.5" x2="199.5" y1="1147.5859" y2="1167.5859"/><polygon fill="#181818" points="195.5,1157.5859,199.5,1167.5859,203.5,1157.5859,199.5,1161.5859" style="stroke:#181818;stroke-width:1.0;"/><line style="stroke:#181818;stroke-width:1.0;" x1="199.5" x2="199.5" y1="1252.1523" y2="1274.7188"/><polygon fill="#181818" points="195.5,1264.7188,199.5,1274.7188,203.5,1264.7188,199.5,1268.7188" style="stroke:#181818;stroke-width:1.0;"/><line style="stroke:#181818;stroke-width:1.0;" x1="199.5" x2="199.5" y1="1308.6875" y2="1328.6875"/><polygon fill="#181818" points="195.5,1318.6875,199.5,1328.6875,203.5,1318.6875,199.5,1322.6875" style="stroke:#181818;stroke-width:1.0;"/><line style="stroke:#181818;stroke-width:1.0;" x1="199.5" x2="199.5" y1="1413.2539" y2="1435.8203"/><polygon fill="#181818" points="195.5,1425.8203,199.5,1435.8203,203.5,1425.8203,199.5,1429.8203" style="stroke:#181818;stroke-width:1.0;"/><line style="stroke:#181818;stroke-width:1.0;" x1="199.5" x2="199.5" y1="1497.7266" y2="1517.7266"/><polygon fill="#181818" points="195.5,1507.7266,199.5,1517.7266,203.5,1507.7266,199.5,1511.7266" style="stroke:#181818;stroke-width:1.0;"/><!--MD5=[79ab579d50c80b477c86505b74eac7ef]
@startuml
!pragma layout smetana
start
note right
constructor ClippingRectangle(double x1,double y1,
double x2,double y2)
end note
:_minX=Math.min(x1,x2);;
:_minY=Math.min(y1,y2);;
:_maxX=Math.max(x1,x2);;
:_maxY=Math.max(y1,y2);;
end
start
note right
boolean isInside(GraphPoint point)
end note
:double x=point.getX();;
:double y=point.getY();;
:return _minX<=x&&x<=_maxX&&_minY<=y&&y<=_maxY;;
stop
end
start
note right
double getMinX()
end note
:return _minX;;
stop
end
start
note right
double getMaxX()
end note
:return _maxX;;
stop
end
start
note right
double getMinY()
end note
:return _minY;;
stop
end
start
note right
double getMaxY()
end note
:return _maxY;;
stop
end
start
note right
ClippingRectangle getBoundingBox()
end note
:return this;;
stop
end
start
note right
BasicGraphicalElement getGraphicalElement()
end note
:return new Rectangle(new GraphPoint(0.5*(_minX+
_maxX),0.5*(_minY+_maxY)),_maxX-_minX,_maxY-_minY,
null );;
stop
end
@enduml

PlantUML version 1.2022.7(Mon Aug 22 17:01:30 UTC 2022)
(GPL source distribution)
Java Runtime: OpenJDK Runtime Environment
JVM: OpenJDK 64-Bit Server VM
Default Encoding: UTF-8
Language: en
Country: null
--></g></svg>