<?xml version="1.0" encoding="UTF-8" standalone="no"?><svg xmlns="http://www.w3.org/2000/svg" xmlns:xlink="http://www.w3.org/1999/xlink" contentStyleType="text/css" height="1332px" preserveAspectRatio="none" style="width:924px;height:1332px;background:#FFFFFF;" version="1.1" viewBox="0 0 924 1332" width="924px" zoomAndPan="magnify"><defs/><g><path d="M495,10 L495,18.5664 L475,22.5664 L495,26.5664 L495,35.1328 A0,0 0 0 0 495,35.1328 L912,35.1328 A0,0 0 0 0 912,35.1328 L912,20 L902,10 L495,10 A0,0 0 0 0 495,10 " fill="#FEFFDD" style="stroke:#181818;stroke-width:0.5;"/><path d="M902,10 L902,20 L912,20 L902,10 " fill="#FEFFDD" style="stroke:#181818;stroke-width:0.5;"/><text fill="#000000" font-family="sans-serif" font-size="13" lengthAdjust="spacing" textLength="396" x="501" y="27.0669">constructor GraphicalComposite(ClippingShapeclippingShape)</text><ellipse cx="465" cy="22.5664" fill="#222222" rx="10" ry="10" style="stroke:#222222;stroke-width:1.0;"/><rect fill="#F1F1F1" height="33.9688" rx="12.5" ry="12.5" style="stroke:#181818;stroke-width:0.5;" width="216" x="357" y="55.1328"/><text fill="#000000" font-family="sans-serif" font-size="12" lengthAdjust="spacing" textLength="196" x="367" y="76.2715">_clippingShape=clippingShape;</text><ellipse cx="465" cy="119.1016" fill="none" rx="10" ry="10" style="stroke:#222222;stroke-width:1.5;"/><line style="stroke:#222222;stroke-width:2.5;" x1="458.8128" x2="471.1872" y1="112.9144" y2="125.2887"/><line style="stroke:#222222;stroke-width:2.5;" x1="471.1872" x2="458.8128" y1="112.9144" y2="125.2887"/><path d="M495,139.1016 L495,147.668 L475,151.668 L495,155.668 L495,164.2344 A0,0 0 0 0 495,164.2344 L729,164.2344 A0,0 0 0 0 729,164.2344 L729,149.1016 L719,139.1016 L495,139.1016 A0,0 0 0 0 495,139.1016 " fill="#FEFFDD" style="stroke:#181818;stroke-width:0.5;"/><path d="M719,139.1016 L719,149.1016 L729,149.1016 L719,139.1016 " fill="#FEFFDD" style="stroke:#181818;stroke-width:0.5;"/><text fill="#000000" font-family="sans-serif" font-size="13" lengthAdjust="spacing" textLength="213" x="501" y="156.1685">ClippingShapegetClippingShape()</text><ellipse cx="465" cy="151.668" fill="#222222" rx="10" ry="10" style="stroke:#222222;stroke-width:1.0;"/><rect fill="#F1F1F1" height="33.9688" rx="12.5" ry="12.5" style="stroke:#181818;stroke-width:0.5;" width="161" x="384.5" y="184.2344"/><text fill="#000000" font-family="sans-serif" font-size="12" lengthAdjust="spacing" textLength="141" x="394.5" y="205.373">return _clippingShape;</text><ellipse cx="465" cy="249.2031" fill="none" rx="11" ry="11" style="stroke:#222222;stroke-width:1.0;"/><ellipse cx="465" cy="249.2031" fill="#222222" rx="6" ry="6" style="stroke:#111111;stroke-width:1.0;"/><ellipse cx="465" cy="280.2031" fill="none" rx="10" ry="10" style="stroke:#222222;stroke-width:1.5;"/><line style="stroke:#222222;stroke-width:2.5;" x1="458.8128" x2="471.1872" y1="274.0159" y2="286.3903"/><line style="stroke:#222222;stroke-width:2.5;" x1="471.1872" x2="458.8128" y1="274.0159" y2="286.3903"/><path d="M495,300.2031 L495,308.7695 L475,312.7695 L495,316.7695 L495,325.3359 A0,0 0 0 0 495,325.3359 L799,325.3359 A0,0 0 0 0 799,325.3359 L799,310.2031 L789,300.2031 L495,300.2031 A0,0 0 0 0 495,300.2031 " fill="#FEFFDD" style="stroke:#181818;stroke-width:0.5;"/><path d="M789,300.2031 L789,310.2031 L799,310.2031 L789,300.2031 " fill="#FEFFDD" style="stroke:#181818;stroke-width:0.5;"/><text fill="#000000" font-family="sans-serif" font-size="13" lengthAdjust="spacing" textLength="283" x="501" y="317.27">void addElement(GraphicalElementelement)</text><ellipse cx="465" cy="312.7695" fill="#222222" rx="10" ry="10" style="stroke:#222222;stroke-width:1.0;"/><polygon fill="#F1F1F1" points="421,345.3359,509,345.3359,521,357.3359,509,369.3359,421,369.3359,409,357.3359,421,345.3359" style="stroke:#181818;stroke-width:0.5;"/><text fill="#000000" font-family="sans-serif" font-size="11" lengthAdjust="spacing" textLength="84" x="421" y="361.144">element==null</text><text fill="#000000" font-family="sans-serif" font-size="11" lengthAdjust="spacing" textLength="20" x="389" y="354.7417">yes</text><text fill="#000000" font-family="sans-serif" font-size="11" lengthAdjust="spacing" textLength="14" x="521" y="354.7417">no</text><rect fill="#F1F1F1" height="33.9688" rx="12.5" ry="12.5" style="stroke:#181818;stroke-width:0.5;" width="198" x="249.5" y="379.3359"/><text fill="#000000" font-family="sans-serif" font-size="12" lengthAdjust="spacing" textLength="178" x="259.5" y="400.4746">throwNullPointerException();</text><rect fill="#F1F1F1" height="33.9688" rx="12.5" ry="12.5" style="stroke:#181818;stroke-width:0.5;" width="228" x="467.5" y="379.3359"/><text fill="#000000" font-family="sans-serif" font-size="12" lengthAdjust="spacing" textLength="208" x="477.5" y="400.4746">_elements.addElement(element);</text><polygon fill="#F1F1F1" points="465,419.3047,477,431.3047,465,443.3047,453,431.3047,465,419.3047" style="stroke:#181818;stroke-width:0.5;"/><ellipse cx="465" cy="473.3047" fill="none" rx="10" ry="10" style="stroke:#222222;stroke-width:1.5;"/><line style="stroke:#222222;stroke-width:2.5;" x1="458.8128" x2="471.1872" y1="467.1175" y2="479.4919"/><line style="stroke:#222222;stroke-width:2.5;" x1="471.1872" x2="458.8128" y1="467.1175" y2="479.4919"/><path d="M495,493.3047 L495,501.8711 L475,505.8711 L495,509.8711 L495,518.4375 A0,0 0 0 0 495,518.4375 L680,518.4375 A0,0 0 0 0 680,518.4375 L680,503.3047 L670,493.3047 L495,493.3047 A0,0 0 0 0 495,493.3047 " fill="#FEFFDD" style="stroke:#181818;stroke-width:0.5;"/><path d="M670,493.3047 L670,503.3047 L680,503.3047 L670,493.3047 " fill="#FEFFDD" style="stroke:#181818;stroke-width:0.5;"/><text fill="#000000" font-family="sans-serif" font-size="13" lengthAdjust="spacing" textLength="164" x="501" y="510.3716">void removeAllElements()</text><ellipse cx="465" cy="505.8711" fill="#222222" rx="10" ry="10" style="stroke:#222222;stroke-width:1.0;"/><rect fill="#F1F1F1" height="33.9688" rx="12.5" ry="12.5" style="stroke:#181818;stroke-width:0.5;" width="220" x="355" y="538.4375"/><text fill="#000000" font-family="sans-serif" font-size="12" lengthAdjust="spacing" textLength="200" x="365" y="559.5762">_elements.removeAllElements();</text><ellipse cx="465" cy="602.4063" fill="none" rx="10" ry="10" style="stroke:#222222;stroke-width:1.5;"/><line style="stroke:#222222;stroke-width:2.5;" x1="458.8128" x2="471.1872" y1="596.2191" y2="608.5934"/><line style="stroke:#222222;stroke-width:2.5;" x1="471.1872" x2="458.8128" y1="596.2191" y2="608.5934"/><path d="M495,622.4063 L495,630.9727 L475,634.9727 L495,638.9727 L495,647.5391 A0,0 0 0 0 495,647.5391 L890,647.5391 A0,0 0 0 0 890,647.5391 L890,632.4063 L880,622.4063 L495,622.4063 A0,0 0 0 0 495,622.4063 " fill="#FEFFDD" style="stroke:#181818;stroke-width:0.5;"/><path d="M880,622.4063 L880,632.4063 L890,632.4063 L880,622.4063 " fill="#FEFFDD" style="stroke:#181818;stroke-width:0.5;"/><text fill="#000000" font-family="sans-serif" font-size="13" lengthAdjust="spacing" textLength="374" x="501" y="639.4731">void replaceElementAt(intindex,GraphicalElementelement)</text><ellipse cx="465" cy="634.9727" fill="#222222" rx="10" ry="10" style="stroke:#222222;stroke-width:1.0;"/><polygon fill="#F1F1F1" points="421,667.5391,509,667.5391,521,679.5391,509,691.5391,421,691.5391,409,679.5391,421,667.5391" style="stroke:#181818;stroke-width:0.5;"/><text fill="#000000" font-family="sans-serif" font-size="11" lengthAdjust="spacing" textLength="84" x="421" y="683.3472">element==null</text><text fill="#000000" font-family="sans-serif" font-size="11" lengthAdjust="spacing" textLength="20" x="389" y="676.9448">yes</text><text fill="#000000" font-family="sans-serif" font-size="11" lengthAdjust="spacing" textLength="14" x="521" y="676.9448">no</text><rect fill="#F1F1F1" height="33.9688" rx="12.5" ry="12.5" style="stroke:#181818;stroke-width:0.5;" width="198" x="238" y="701.5391"/><text fill="#000000" font-family="sans-serif" font-size="12" lengthAdjust="spacing" textLength="178" x="248" y="722.6777">throwNullPointerException();</text><rect fill="#F1F1F1" height="33.9688" rx="12.5" ry="12.5" style="stroke:#181818;stroke-width:0.5;" width="274" x="456" y="701.5391"/><text fill="#000000" font-family="sans-serif" font-size="12" lengthAdjust="spacing" textLength="254" x="466" y="722.6777">_elements.setElementAt(element,index);</text><polygon fill="#F1F1F1" points="465,741.5078,477,753.5078,465,765.5078,453,753.5078,465,741.5078" style="stroke:#181818;stroke-width:0.5;"/><ellipse cx="465" cy="795.5078" fill="none" rx="10" ry="10" style="stroke:#222222;stroke-width:1.5;"/><line style="stroke:#222222;stroke-width:2.5;" x1="458.8128" x2="471.1872" y1="789.3206" y2="801.695"/><line style="stroke:#222222;stroke-width:2.5;" x1="471.1872" x2="458.8128" y1="789.3206" y2="801.695"/><path d="M495,815.5078 L495,824.0742 L475,828.0742 L495,832.0742 L495,840.6406 A0,0 0 0 0 495,840.6406 L722,840.6406 A0,0 0 0 0 722,840.6406 L722,825.5078 L712,815.5078 L495,815.5078 A0,0 0 0 0 495,815.5078 " fill="#FEFFDD" style="stroke:#181818;stroke-width:0.5;"/><path d="M712,815.5078 L712,825.5078 L722,825.5078 L712,815.5078 " fill="#FEFFDD" style="stroke:#181818;stroke-width:0.5;"/><text fill="#000000" font-family="sans-serif" font-size="13" lengthAdjust="spacing" textLength="206" x="501" y="832.5747">void throwNullPointerException()</text><ellipse cx="465" cy="828.0742" fill="#222222" rx="10" ry="10" style="stroke:#222222;stroke-width:1.0;"/><rect fill="#F1F1F1" height="33.9688" rx="12.5" ry="12.5" style="stroke:#181818;stroke-width:0.5;" width="518" x="206" y="860.6406"/><text fill="#000000" font-family="sans-serif" font-size="12" lengthAdjust="spacing" textLength="498" x="216" y="881.7793">throw new NullPointerException("A null as an GraphicalElement is not allowed");</text><ellipse cx="465" cy="925.6094" fill="none" rx="11" ry="11" style="stroke:#222222;stroke-width:1.0;"/><ellipse cx="465" cy="925.6094" fill="#222222" rx="6" ry="6" style="stroke:#111111;stroke-width:1.0;"/><ellipse cx="465" cy="956.6094" fill="none" rx="10" ry="10" style="stroke:#222222;stroke-width:1.5;"/><line style="stroke:#222222;stroke-width:2.5;" x1="458.8128" x2="471.1872" y1="950.4222" y2="962.7966"/><line style="stroke:#222222;stroke-width:2.5;" x1="471.1872" x2="458.8128" y1="950.4222" y2="962.7966"/><path d="M495,976.6094 L495,985.1758 L475,989.1758 L495,993.1758 L495,1001.7422 A0,0 0 0 0 495,1001.7422 L738,1001.7422 A0,0 0 0 0 738,1001.7422 L738,986.6094 L728,976.6094 L495,976.6094 A0,0 0 0 0 495,976.6094 " fill="#FEFFDD" style="stroke:#181818;stroke-width:0.5;"/><path d="M728,976.6094 L728,986.6094 L738,986.6094 L728,976.6094 " fill="#FEFFDD" style="stroke:#181818;stroke-width:0.5;"/><text fill="#000000" font-family="sans-serif" font-size="13" lengthAdjust="spacing" textLength="222" x="501" y="993.6763">void renderWith(Rendererrenderer)</text><ellipse cx="465" cy="989.1758" fill="#222222" rx="10" ry="10" style="stroke:#222222;stroke-width:1.0;"/><polygon fill="#F1F1F1" points="323,1021.7422,607,1021.7422,619,1033.7422,607,1045.7422,323,1045.7422,311,1033.7422,323,1021.7422" style="stroke:#181818;stroke-width:0.5;"/><text fill="#000000" font-family="sans-serif" font-size="11" lengthAdjust="spacing" textLength="284" x="323" y="1037.5503">renderer instanceof GraphicalCompositeRenderer</text><text fill="#000000" font-family="sans-serif" font-size="11" lengthAdjust="spacing" textLength="20" x="291" y="1031.1479">yes</text><text fill="#000000" font-family="sans-serif" font-size="11" lengthAdjust="spacing" textLength="14" x="619" y="1031.1479">no</text><rect fill="#F1F1F1" height="33.9688" rx="12.5" ry="12.5" style="stroke:#181818;stroke-width:0.5;" width="470" x="11" y="1055.7422"/><text fill="#000000" font-family="sans-serif" font-size="12" lengthAdjust="spacing" textLength="450" x="21" y="1076.8809">GraphicalCompositeRendererr=(GraphicalCompositeRenderer)renderer;</text><rect fill="#F1F1F1" height="33.9688" rx="12.5" ry="12.5" style="stroke:#181818;stroke-width:0.5;" width="160" x="166" y="1123.6797"/><text fill="#000000" font-family="sans-serif" font-size="12" lengthAdjust="spacing" textLength="140" x="176" y="1144.8184">r.startRendering(this);</text><rect fill="#F1F1F1" height="47.9375" rx="12.5" ry="12.5" style="stroke:#181818;stroke-width:0.5;" width="295" x="98.5" y="1179.6484"/><text fill="#000000" font-family="sans-serif" font-size="12" lengthAdjust="spacing" textLength="275" x="108.5" y="1200.7871">((GraphicalElement)_elements.elementAt(i))</text><text fill="#000000" font-family="sans-serif" font-size="12" lengthAdjust="spacing" textLength="92" x="108.5" y="1214.7559">.renderWith(r);</text><rect fill="#F1F1F1" height="33.9688" rx="12.5" ry="12.5" style="stroke:#181818;stroke-width:0.5;" width="163" x="164.5" y="1247.5859"/><text fill="#000000" font-family="sans-serif" font-size="12" lengthAdjust="spacing" textLength="143" x="174.5" y="1268.7246">r.finishRendering(this);</text><rect fill="#F1F1F1" height="47.9375" rx="12.5" ry="12.5" style="stroke:#181818;stroke-width:0.5;" width="366" x="501" y="1055.7422"/><text fill="#000000" font-family="sans-serif" font-size="12" lengthAdjust="spacing" textLength="296" x="511" y="1076.8809">throw new IllegalArgumentException(renderer+</text><text fill="#000000" font-family="sans-serif" font-size="12" lengthAdjust="spacing" textLength="346" x="511" y="1090.8496">" does not implements GraphicalCompositeRenderer.");</text><ellipse cx="684" cy="1148.6484" fill="none" rx="11" ry="11" style="stroke:#222222;stroke-width:1.0;"/><ellipse cx="684" cy="1148.6484" fill="#222222" rx="6" ry="6" style="stroke:#111111;stroke-width:1.0;"/><ellipse cx="465" cy="1311.5547" fill="none" rx="10" ry="10" style="stroke:#222222;stroke-width:1.5;"/><line style="stroke:#222222;stroke-width:2.5;" x1="458.8128" x2="471.1872" y1="1305.3675" y2="1317.7419"/><line style="stroke:#222222;stroke-width:2.5;" x1="471.1872" x2="458.8128" y1="1305.3675" y2="1317.7419"/><line style="stroke:#181818;stroke-width:1.0;" x1="465" x2="465" y1="32.5664" y2="55.1328"/><polygon fill="#181818" points="461,45.1328,465,55.1328,469,45.1328,465,49.1328" style="stroke:#181818;stroke-width:1.0;"/><line style="stroke:#181818;stroke-width:1.0;" x1="465" x2="465" y1="89.1016" y2="109.1016"/><polygon fill="#181818" points="461,99.1016,465,109.1016,469,99.1016,465,103.1016" style="stroke:#181818;stroke-width:1.0;"/><line style="stroke:#181818;stroke-width:1.0;" x1="465" x2="465" y1="161.668" y2="184.2344"/><polygon fill="#181818" points="461,174.2344,465,184.2344,469,174.2344,465,178.2344" style="stroke:#181818;stroke-width:1.0;"/><line style="stroke:#181818;stroke-width:1.0;" x1="465" x2="465" y1="218.2031" y2="238.2031"/><polygon fill="#181818" points="461,228.2031,465,238.2031,469,228.2031,465,232.2031" style="stroke:#181818;stroke-width:1.0;"/><line style="stroke:#181818;stroke-width:1.0;" x1="409" x2="348.5" y1="357.3359" y2="357.3359"/><line style="stroke:#181818;stroke-width:1.0;" x1="348.5" x2="348.5" y1="357.3359" y2="379.3359"/><polygon fill="#181818" points="344.5,369.3359,348.5,379.3359,352.5,369.3359,348.5,373.3359" style="stroke:#181818;stroke-width:1.0;"/><line style="stroke:#181818;stroke-width:1.0;" x1="521" x2="581.5" y1="357.3359" y2="357.3359"/><line style="stroke:#181818;stroke-width:1.0;" x1="581.5" x2="581.5" y1="357.3359" y2="379.3359"/><polygon fill="#181818" points="577.5,369.3359,581.5,379.3359,585.5,369.3359,581.5,373.3359" style="stroke:#181818;stroke-width:1.0;"/><line style="stroke:#181818;stroke-width:1.0;" x1="348.5" x2="348.5" y1="413.3047" y2="431.3047"/><line style="stroke:#181818;stroke-width:1.0;" x1="348.5" x2="453" y1="431.3047" y2="431.3047"/><polygon fill="#181818" points="443,427.3047,453,431.3047,443,435.3047,447,431.3047" style="stroke:#181818;stroke-width:1.0;"/><line style="stroke:#181818;stroke-width:1.0;" x1="581.5" x2="581.5" y1="413.3047" y2="431.3047"/><line style="stroke:#181818;stroke-width:1.0;" x1="581.5" x2="477" y1="431.3047" y2="431.3047"/><polygon fill="#181818" points="487,427.3047,477,431.3047,487,435.3047,483,431.3047" style="stroke:#181818;stroke-width:1.0;"/><line style="stroke:#181818;stroke-width:1.0;" x1="465" x2="465" y1="322.7695" y2="345.3359"/><polygon fill="#181818" points="461,335.3359,465,345.3359,469,335.3359,465,339.3359" style="stroke:#181818;stroke-width:1.0;"/><line style="stroke:#181818;stroke-width:1.0;" x1="465" x2="465" y1="443.3047" y2="463.3047"/><polygon fill="#181818" points="461,453.3047,465,463.3047,469,453.3047,465,457.3047" style="stroke:#181818;stroke-width:1.0;"/><line style="stroke:#181818;stroke-width:1.0;" x1="465" x2="465" y1="515.8711" y2="538.4375"/><polygon fill="#181818" points="461,528.4375,465,538.4375,469,528.4375,465,532.4375" style="stroke:#181818;stroke-width:1.0;"/><line style="stroke:#181818;stroke-width:1.0;" x1="465" x2="465" y1="572.4063" y2="592.4063"/><polygon fill="#181818" points="461,582.4063,465,592.4063,469,582.4063,465,586.4063" style="stroke:#181818;stroke-width:1.0;"/><line style="stroke:#181818;stroke-width:1.0;" x1="409" x2="337" y1="679.5391" y2="679.5391"/><line style="stroke:#181818;stroke-width:1.0;" x1="337" x2="337" y1="679.5391" y2="701.5391"/><polygon fill="#181818" points="333,691.5391,337,701.5391,341,691.5391,337,695.5391" style="stroke:#181818;stroke-width:1.0;"/><line style="stroke:#181818;stroke-width:1.0;" x1="521" x2="593" y1="679.5391" y2="679.5391"/><line style="stroke:#181818;stroke-width:1.0;" x1="593" x2="593" y1="679.5391" y2="701.5391"/><polygon fill="#181818" points="589,691.5391,593,701.5391,597,691.5391,593,695.5391" style="stroke:#181818;stroke-width:1.0;"/><line style="stroke:#181818;stroke-width:1.0;" x1="337" x2="337" y1="735.5078" y2="753.5078"/><line style="stroke:#181818;stroke-width:1.0;" x1="337" x2="453" y1="753.5078" y2="753.5078"/><polygon fill="#181818" points="443,749.5078,453,753.5078,443,757.5078,447,753.5078" style="stroke:#181818;stroke-width:1.0;"/><line style="stroke:#181818;stroke-width:1.0;" x1="593" x2="593" y1="735.5078" y2="753.5078"/><line style="stroke:#181818;stroke-width:1.0;" x1="593" x2="477" y1="753.5078" y2="753.5078"/><polygon fill="#181818" points="487,749.5078,477,753.5078,487,757.5078,483,753.5078" style="stroke:#181818;stroke-width:1.0;"/><line style="stroke:#181818;stroke-width:1.0;" x1="465" x2="465" y1="644.9727" y2="667.5391"/><polygon fill="#181818" points="461,657.5391,465,667.5391,469,657.5391,465,661.5391" style="stroke:#181818;stroke-width:1.0;"/><line style="stroke:#181818;stroke-width:1.0;" x1="465" x2="465" y1="765.5078" y2="785.5078"/><polygon fill="#181818" points="461,775.5078,465,785.5078,469,775.5078,465,779.5078" style="stroke:#181818;stroke-width:1.0;"/><line style="stroke:#181818;stroke-width:1.0;" x1="465" x2="465" y1="838.0742" y2="860.6406"/><polygon fill="#181818" points="461,850.6406,465,860.6406,469,850.6406,465,854.6406" style="stroke:#181818;stroke-width:1.0;"/><line style="stroke:#181818;stroke-width:1.0;" x1="465" x2="465" y1="894.6094" y2="914.6094"/><polygon fill="#181818" points="461,904.6094,465,914.6094,469,904.6094,465,908.6094" style="stroke:#181818;stroke-width:1.0;"/><line style="stroke:#181818;stroke-width:1.0;" x1="246" x2="246" y1="1089.7109" y2="1123.6797"/><polygon fill="#181818" points="242,1113.6797,246,1123.6797,250,1113.6797,246,1117.6797" style="stroke:#181818;stroke-width:1.0;"/><line style="stroke:#181818;stroke-width:1.0;" x1="246" x2="246" y1="1157.6484" y2="1179.6484"/><polygon fill="#181818" points="242,1169.6484,246,1179.6484,250,1169.6484,246,1173.6484" style="stroke:#181818;stroke-width:1.0;"/><line style="stroke:#181818;stroke-width:1.0;" x1="246" x2="246" y1="1227.5859" y2="1247.5859"/><polygon fill="#181818" points="242,1237.5859,246,1247.5859,250,1237.5859,246,1241.5859" style="stroke:#181818;stroke-width:1.0;"/><line style="stroke:#181818;stroke-width:1.0;" x1="684" x2="684" y1="1103.6797" y2="1137.6484"/><polygon fill="#181818" points="680,1127.6484,684,1137.6484,688,1127.6484,684,1131.6484" style="stroke:#181818;stroke-width:1.0;"/><line style="stroke:#181818;stroke-width:1.0;" x1="311" x2="246" y1="1033.7422" y2="1033.7422"/><line style="stroke:#181818;stroke-width:1.0;" x1="246" x2="246" y1="1033.7422" y2="1055.7422"/><polygon fill="#181818" points="242,1045.7422,246,1055.7422,250,1045.7422,246,1049.7422" style="stroke:#181818;stroke-width:1.0;"/><line style="stroke:#181818;stroke-width:1.0;" x1="619" x2="684" y1="1033.7422" y2="1033.7422"/><line style="stroke:#181818;stroke-width:1.0;" x1="684" x2="684" y1="1033.7422" y2="1055.7422"/><polygon fill="#181818" points="680,1045.7422,684,1055.7422,688,1045.7422,684,1049.7422" style="stroke:#181818;stroke-width:1.0;"/><line style="stroke:#181818;stroke-width:1.0;" x1="246" x2="246" y1="1281.5547" y2="1286.5547"/><line style="stroke:#181818;stroke-width:1.0;" x1="246" x2="465" y1="1286.5547" y2="1286.5547"/><line style="stroke:#181818;stroke-width:1.0;" x1="465" x2="465" y1="1286.5547" y2="1301.5547"/><polygon fill="#181818" points="461,1291.5547,465,1301.5547,469,1291.5547,465,1295.5547" style="stroke:#181818;stroke-width:1.0;"/><line style="stroke:#181818;stroke-width:1.0;" x1="465" x2="465" y1="999.1758" y2="1021.7422"/><polygon fill="#181818" points="461,1011.7422,465,1021.7422,469,1011.7422,465,1015.7422" style="stroke:#181818;stroke-width:1.0;"/><!--MD5=[cd611c7c917368049ae9c13910a8ef08]
@startuml
!pragma layout smetana
start
note right
constructor GraphicalComposite(ClippingShapeclippingShape)
end note
:_clippingShape=clippingShape;;
end
start
note right
ClippingShapegetClippingShape()
end note
:return _clippingShape;;
stop
end
start
note right
void addElement(GraphicalElementelement)
end note
if (element==null ) then (yes) 
:throwNullPointerException();;
else (no)
:_elements.addElement(element);;
endif 
end
start
note right
void removeAllElements()
end note
:_elements.removeAllElements();;
end
start
note right
void replaceElementAt(intindex,GraphicalElementelement)
end note
if (element==null ) then (yes) 
:throwNullPointerException();;
else (no)
:_elements.setElementAt(element,index);;
endif 
end
start
note right
void throwNullPointerException()
end note
:throw new NullPointerException("A null as an GraphicalElement is not allowed");;
stop
end
start
note right
void renderWith(Rendererrenderer)
end note
if (renderer instanceof GraphicalCompositeRenderer) then (yes) 
:GraphicalCompositeRendererr=(GraphicalCompositeRenderer)renderer;;
:r.startRendering(this);;
:((GraphicalElement)_elements.elementAt(i))
.renderWith(r);;
:r.finishRendering(this);;
else (no)
:throw new IllegalArgumentException(renderer+
" does not implements GraphicalCompositeRenderer.");;
stop
endif 
end
@enduml

PlantUML version 1.2022.7(Mon Aug 22 17:01:30 UTC 2022)
(GPL source distribution)
Java Runtime: OpenJDK Runtime Environment
JVM: OpenJDK 64-Bit Server VM
Default Encoding: UTF-8
Language: en
Country: null
--></g></svg>