<?xml version="1.0" encoding="UTF-8" standalone="no"?><svg xmlns="http://www.w3.org/2000/svg" xmlns:xlink="http://www.w3.org/1999/xlink" contentStyleType="text/css" height="203px" preserveAspectRatio="none" style="width:335px;height:203px;background:#FFFFFF;" version="1.1" viewBox="0 0 335 203" width="335px" zoomAndPan="magnify"><defs/><g><!--MD5=[aa8f7b917213fcc1c2766e2d59b49067]
cluster java.lang--><g id="cluster_java.lang"><path d="M122.5,6 L192.5,6 A3.75,3.75 0 0 1 195,8.5 L202,28.2969 L211.5,28.2969 A2.5,2.5 0 0 1 214,30.7969 L214,86.5 A2.5,2.5 0 0 1 211.5,89 L122.5,89 A2.5,2.5 0 0 1 120,86.5 L120,8.5 A2.5,2.5 0 0 1 122.5,6 " fill="none" style="stroke:#000000;stroke-width:1.5;"/><line style="stroke:#000000;stroke-width:1.5;" x1="120" x2="202" y1="28.2969" y2="28.2969"/><text fill="#000000" font-family="sans-serif" font-size="14" font-weight="bold" lengthAdjust="spacing" textLength="69" x="124" y="20.9951">java.lang</text></g><!--MD5=[2000a44b7d5aa6cbfe2b72a30af2adf7]
cluster net.sourceforge.plantuml.cucadiagram--><g id="cluster_net.sourceforge.plantuml.cucadiagram"><path d="M8.5,97 L315.5,97 A3.75,3.75 0 0 1 318,99.5 L325,119.2969 L325.5,119.2969 A2.5,2.5 0 0 1 328,121.7969 L328,193.5 A2.5,2.5 0 0 1 325.5,196 L8.5,196 A2.5,2.5 0 0 1 6,193.5 L6,99.5 A2.5,2.5 0 0 1 8.5,97 " fill="none" style="stroke:#000000;stroke-width:1.5;"/><line style="stroke:#000000;stroke-width:1.5;" x1="6" x2="325" y1="119.2969" y2="119.2969"/><text fill="#000000" font-family="sans-serif" font-size="14" font-weight="bold" lengthAdjust="spacing" textLength="306" x="10" y="111.9951">net.sourceforge.plantuml.cucadiagram</text></g><!--MD5=[274ad5661286b626a93603d287cbf95a]
class java.lang.Object--><g id="elem_java.lang.Object"><rect fill="#F1F1F1" height="48" id="java.lang.Object" rx="2.5" ry="2.5" style="stroke:#181818;stroke-width:0.5;" width="77" x="128.5" y="33"/><ellipse cx="143.5" cy="49" fill="#ADD1B2" rx="11" ry="11" style="stroke:#181818;stroke-width:1.0;"/><path d="M146.4688,54.6406 Q145.8906,54.9375 145.25,55.0781 Q144.6094,55.2344 143.9063,55.2344 Q141.4063,55.2344 140.0781,53.5938 Q138.7656,51.9375 138.7656,48.8125 Q138.7656,45.6875 140.0781,44.0313 Q141.4063,42.375 143.9063,42.375 Q144.6094,42.375 145.25,42.5313 Q145.9063,42.6875 146.4688,42.9844 L146.4688,45.7031 Q145.8438,45.125 145.25,44.8594 Q144.6563,44.5781 144.0313,44.5781 Q142.6875,44.5781 142,45.6563 Q141.3125,46.7188 141.3125,48.8125 Q141.3125,50.9063 142,51.9844 Q142.6875,53.0469 144.0313,53.0469 Q144.6563,53.0469 145.25,52.7813 Q145.8438,52.5 146.4688,51.9219 L146.4688,54.6406 Z " fill="#000000"/><text fill="#000000" font-family="sans-serif" font-size="14" lengthAdjust="spacing" textLength="45" x="157.5" y="53.8467">Object</text><line style="stroke:#181818;stroke-width:0.5;" x1="129.5" x2="204.5" y1="65" y2="65"/><line style="stroke:#181818;stroke-width:0.5;" x1="129.5" x2="204.5" y1="73" y2="73"/></g><!--MD5=[38932704011e0eedabda6b8df12546f8]
class net.sourceforge.plantuml.cucadiagram.EntityGender--><g id="elem_net.sourceforge.plantuml.cucadiagram.EntityGender"><rect codeLine="3" fill="#F1F1F1" height="64.2969" id="net.sourceforge.plantuml.cucadiagram.EntityGender" rx="2.5" ry="2.5" style="stroke:#181818;stroke-width:0.5;" width="205" x="64.5" y="124"/><ellipse cx="117.75" cy="140" fill="#ADD1B2" rx="11" ry="11" style="stroke:#181818;stroke-width:1.0;"/><path d="M120.7188,145.6406 Q120.1406,145.9375 119.5,146.0781 Q118.8594,146.2344 118.1563,146.2344 Q115.6563,146.2344 114.3281,144.5938 Q113.0156,142.9375 113.0156,139.8125 Q113.0156,136.6875 114.3281,135.0313 Q115.6563,133.375 118.1563,133.375 Q118.8594,133.375 119.5,133.5313 Q120.1563,133.6875 120.7188,133.9844 L120.7188,136.7031 Q120.0938,136.125 119.5,135.8594 Q118.9063,135.5781 118.2813,135.5781 Q116.9375,135.5781 116.25,136.6563 Q115.5625,137.7188 115.5625,139.8125 Q115.5625,141.9063 116.25,142.9844 Q116.9375,144.0469 118.2813,144.0469 Q118.9063,144.0469 119.5,143.7813 Q120.0938,143.5 120.7188,142.9219 L120.7188,145.6406 Z " fill="#000000"/><text fill="#000000" font-family="sans-serif" font-size="14" lengthAdjust="spacing" textLength="90" x="138.25" y="144.8467">EntityGender</text><line style="stroke:#181818;stroke-width:0.5;" x1="65.5" x2="268.5" y1="156" y2="156"/><line style="stroke:#181818;stroke-width:0.5;" x1="65.5" x2="268.5" y1="164" y2="164"/><a href="./../../../../../.././qc/src/net/sourceforge/plantuml/cucadiagram/EntityGender.java.html#39" target="_top" title="./../../../../../.././qc/src/net/sourceforge/plantuml/cucadiagram/EntityGender.java.html#39" xlink:actuate="onRequest" xlink:href="./../../../../../.././qc/src/net/sourceforge/plantuml/cucadiagram/EntityGender.java.html#39" xlink:show="new" xlink:title="./../../../../../.././qc/src/net/sourceforge/plantuml/cucadiagram/EntityGender.java.html#39" xlink:type="simple"><rect fill="#F1F1F1" height="10" style="stroke:none;stroke-width:1.0;" width="20" x="70.5" y="172.6484"/><ellipse cx="75.5" cy="177.6484" fill="#84BE84" rx="3" ry="3" style="stroke:#038048;stroke-width:1.0;"/></a><a href="./../../../../../.././qc/src/net/sourceforge/plantuml/cucadiagram/EntityGender.java.html#39" target="_top" title="./../../../../../.././qc/src/net/sourceforge/plantuml/cucadiagram/EntityGender.java.html#39" xlink:actuate="onRequest" xlink:href="./../../../../../.././qc/src/net/sourceforge/plantuml/cucadiagram/EntityGender.java.html#39" xlink:show="new" xlink:title="./../../../../../.././qc/src/net/sourceforge/plantuml/cucadiagram/EntityGender.java.html#39" xlink:type="simple"><text fill="#000000" font-family="sans-serif" font-size="14" lengthAdjust="spacing" textLength="179" x="84.5" y="180.9951">contains(IEntity) : boolean</text></a></g><path d="M167,81.481 C167,94.1526 167,109.962 167,123.6701 " fill="none" style="stroke:#181818;stroke-width:1.0;"/><polygon fill="#FFFFFF" points="167,81.481,161,97.481,173,97.481,167,81.481" style="stroke:#181818;stroke-width:1.0;"/><!--MD5=[4b28610bed1648ea5bd6350e3238539d]
@startuml
!pragma layout smetana
"java.lang.Object" <|- - "net.sourceforge.plantuml.cucadiagram.EntityGender"
class net.sourceforge.plantuml.cucadiagram.EntityGender {
+contains(IEntity) : boolean [[[./../../../../../.././qc/src/net/sourceforge/plantuml/cucadiagram/EntityGender.java.html#39]]]
} 
@enduml

PlantUML version 1.2022.7(Mon Aug 22 17:01:30 UTC 2022)
(GPL source distribution)
Java Runtime: OpenJDK Runtime Environment
JVM: OpenJDK 64-Bit Server VM
Default Encoding: UTF-8
Language: en
Country: null
--></g></svg>