<?xml version="1.0" encoding="UTF-8" standalone="no"?><svg xmlns="http://www.w3.org/2000/svg" xmlns:xlink="http://www.w3.org/1999/xlink" contentStyleType="text/css" height="101px" preserveAspectRatio="none" style="width:397px;height:101px;background:#FFFFFF;" version="1.1" viewBox="0 0 397 101" width="397px" zoomAndPan="magnify"><defs/><g><path d="M54,10 L54,26.1328 L34,30.1328 L54,34.1328 L54,50.2656 A0,0 0 0 0 54,50.2656 L385,50.2656 A0,0 0 0 0 385,50.2656 L385,20 L375,10 L54,10 A0,0 0 0 0 54,10 " fill="#FEFFDD" style="stroke:#181818;stroke-width:0.5;"/><path d="M375,10 L375,20 L385,20 L375,10 " fill="#FEFFDD" style="stroke:#181818;stroke-width:0.5;"/><text fill="#000000" font-family="sans-serif" font-size="13" lengthAdjust="spacing" textLength="310" x="60" y="27.0669">void apply(SecurityAuthenticationauthentication,</text><text fill="#000000" font-family="sans-serif" font-size="13" lengthAdjust="spacing" textLength="172" x="60" y="42.1997">URLConnectionconnection)</text><ellipse cx="24" cy="30.1328" fill="#222222" rx="10" ry="10" style="stroke:#222222;stroke-width:1.0;"/><ellipse cx="24" cy="80.2656" fill="none" rx="10" ry="10" style="stroke:#222222;stroke-width:1.5;"/><line style="stroke:#222222;stroke-width:2.5;" x1="17.8128" x2="30.1872" y1="74.0784" y2="86.4528"/><line style="stroke:#222222;stroke-width:2.5;" x1="30.1872" x2="17.8128" y1="74.0784" y2="86.4528"/><line style="stroke:#181818;stroke-width:1.0;" x1="24" x2="24" y1="40.1328" y2="70.2656"/><polygon fill="#181818" points="20,60.2656,24,70.2656,28,60.2656,24,64.2656" style="stroke:#181818;stroke-width:1.0;"/><!--MD5=[a572f73ce5e5bfcf7fcc8afa07944875]
@startuml
!pragma layout smetana
start
note right
void apply(SecurityAuthenticationauthentication,
URLConnectionconnection)
end note
end
@enduml

PlantUML version 1.2022.7(Mon Aug 22 17:01:30 UTC 2022)
(GPL source distribution)
Java Runtime: OpenJDK Runtime Environment
JVM: OpenJDK 64-Bit Server VM
Default Encoding: UTF-8
Language: en
Country: null
--></g></svg>