<?xml version="1.0" encoding="UTF-8" standalone="no"?><svg xmlns="http://www.w3.org/2000/svg" xmlns:xlink="http://www.w3.org/1999/xlink" contentStyleType="text/css" height="234px" preserveAspectRatio="none" style="width:511px;height:234px;background:#FFFFFF;" version="1.1" viewBox="0 0 511 234" width="511px" zoomAndPan="magnify"><defs/><g><!--MD5=[5af41c6bca0371a180a423483d7b5f6e]
cluster net.sourceforge.plantuml.svek.extremity--><g id="cluster_net.sourceforge.plantuml.svek.extremity"><path d="M8.5,63 L332.5,63 A3.75,3.75 0 0 1 335,65.5 L342,85.2969 L501.5,85.2969 A2.5,2.5 0 0 1 504,87.7969 L504,224.5 A2.5,2.5 0 0 1 501.5,227 L8.5,227 A2.5,2.5 0 0 1 6,224.5 L6,65.5 A2.5,2.5 0 0 1 8.5,63 " fill="none" style="stroke:#000000;stroke-width:1.5;"/><line style="stroke:#000000;stroke-width:1.5;" x1="6" x2="342" y1="85.2969" y2="85.2969"/><text fill="#000000" font-family="sans-serif" font-size="14" font-weight="bold" lengthAdjust="spacing" textLength="323" x="10" y="77.9951">net.sourceforge.plantuml.svek.extremity</text></g><!--MD5=[b201e46a8245076685538de9e34f9803]
class UDrawable--><g id="elem_UDrawable"><rect fill="#F1F1F1" height="48" id="UDrawable" rx="2.5" ry="2.5" style="stroke:#181818;stroke-width:0.5;" width="106" x="202" y="6"/><ellipse cx="217" cy="22" fill="#ADD1B2" rx="11" ry="11" style="stroke:#181818;stroke-width:1.0;"/><path d="M219.9688,27.6406 Q219.3906,27.9375 218.75,28.0781 Q218.1094,28.2344 217.4063,28.2344 Q214.9063,28.2344 213.5781,26.5938 Q212.2656,24.9375 212.2656,21.8125 Q212.2656,18.6875 213.5781,17.0313 Q214.9063,15.375 217.4063,15.375 Q218.1094,15.375 218.75,15.5313 Q219.4063,15.6875 219.9688,15.9844 L219.9688,18.7031 Q219.3438,18.125 218.75,17.8594 Q218.1563,17.5781 217.5313,17.5781 Q216.1875,17.5781 215.5,18.6563 Q214.8125,19.7188 214.8125,21.8125 Q214.8125,23.9063 215.5,24.9844 Q216.1875,26.0469 217.5313,26.0469 Q218.1563,26.0469 218.75,25.7813 Q219.3438,25.5 219.9688,24.9219 L219.9688,27.6406 Z " fill="#000000"/><text fill="#000000" font-family="sans-serif" font-size="14" lengthAdjust="spacing" textLength="74" x="231" y="26.8467">UDrawable</text><line style="stroke:#181818;stroke-width:0.5;" x1="203" x2="307" y1="38" y2="38"/><line style="stroke:#181818;stroke-width:0.5;" x1="203" x2="307" y1="46" y2="46"/></g><!--MD5=[107274e5b86aae1388b8e349c49f44da]
class net.sourceforge.plantuml.svek.extremity.Extremity--><g id="elem_net.sourceforge.plantuml.svek.extremity.Extremity"><rect codeLine="3" fill="#F1F1F1" height="129.4844" id="net.sourceforge.plantuml.svek.extremity.Extremity" rx="2.5" ry="2.5" style="stroke:#181818;stroke-width:0.5;" width="481" x="14.5" y="90"/><ellipse cx="219.25" cy="106" fill="#ADD1B2" rx="11" ry="11" style="stroke:#181818;stroke-width:1.0;"/><path d="M222.2188,111.6406 Q221.6406,111.9375 221,112.0781 Q220.3594,112.2344 219.6563,112.2344 Q217.1563,112.2344 215.8281,110.5938 Q214.5156,108.9375 214.5156,105.8125 Q214.5156,102.6875 215.8281,101.0313 Q217.1563,99.375 219.6563,99.375 Q220.3594,99.375 221,99.5313 Q221.6563,99.6875 222.2188,99.9844 L222.2188,102.7031 Q221.5938,102.125 221,101.8594 Q220.4063,101.5781 219.7813,101.5781 Q218.4375,101.5781 217.75,102.6563 Q217.0625,103.7188 217.0625,105.8125 Q217.0625,107.9063 217.75,108.9844 Q218.4375,110.0469 219.7813,110.0469 Q220.4063,110.0469 221,109.7813 Q221.5938,109.5 222.2188,108.9219 L222.2188,111.6406 Z " fill="#000000"/><text fill="#000000" font-family="sans-serif" font-size="14" lengthAdjust="spacing" textLength="63" x="239.75" y="110.8467">Extremity</text><line style="stroke:#181818;stroke-width:0.5;" x1="15.5" x2="494.5" y1="122" y2="122"/><line style="stroke:#181818;stroke-width:0.5;" x1="15.5" x2="494.5" y1="130" y2="130"/><a href="./../../../../../../.././qc/src/net/sourceforge/plantuml/svek/extremity/Extremity.java.html#44" target="_top" title="./../../../../../../.././qc/src/net/sourceforge/plantuml/svek/extremity/Extremity.java.html#44" xlink:actuate="onRequest" xlink:href="./../../../../../../.././qc/src/net/sourceforge/plantuml/svek/extremity/Extremity.java.html#44" xlink:show="new" xlink:title="./../../../../../../.././qc/src/net/sourceforge/plantuml/svek/extremity/Extremity.java.html#44" xlink:type="simple"><text fill="#000000" font-family="sans-serif" font-size="14" lengthAdjust="spacing" textLength="216" x="34.5" y="146.9951">manageround(double) : double</text></a><a href="./../../../../../../.././qc/src/net/sourceforge/plantuml/svek/extremity/Extremity.java.html#64" target="_top" title="./../../../../../../.././qc/src/net/sourceforge/plantuml/svek/extremity/Extremity.java.html#64" xlink:actuate="onRequest" xlink:href="./../../../../../../.././qc/src/net/sourceforge/plantuml/svek/extremity/Extremity.java.html#64" xlink:show="new" xlink:title="./../../../../../../.././qc/src/net/sourceforge/plantuml/svek/extremity/Extremity.java.html#64" xlink:type="simple"><rect fill="#F1F1F1" height="10" style="stroke:none;stroke-width:1.0;" width="20" x="20.5" y="154.9453"/><rect fill="#F24D5C" height="6" style="stroke:#C82930;stroke-width:1.0;" width="6" x="22.5" y="156.9453"/></a><a href="./../../../../../../.././qc/src/net/sourceforge/plantuml/svek/extremity/Extremity.java.html#64" target="_top" title="./../../../../../../.././qc/src/net/sourceforge/plantuml/svek/extremity/Extremity.java.html#64" xlink:actuate="onRequest" xlink:href="./../../../../../../.././qc/src/net/sourceforge/plantuml/svek/extremity/Extremity.java.html#64" xlink:show="new" xlink:title="./../../../../../../.././qc/src/net/sourceforge/plantuml/svek/extremity/Extremity.java.html#64" xlink:type="simple"><text fill="#000000" font-family="sans-serif" font-size="14" lengthAdjust="spacing" textLength="248" x="34.5" y="163.292">isCloseTo(double;double) : boolean</text></a><a href="./../../../../../../.././qc/src/net/sourceforge/plantuml/svek/extremity/Extremity.java.html#71" target="_top" title="./../../../../../../.././qc/src/net/sourceforge/plantuml/svek/extremity/Extremity.java.html#71" xlink:actuate="onRequest" xlink:href="./../../../../../../.././qc/src/net/sourceforge/plantuml/svek/extremity/Extremity.java.html#71" xlink:show="new" xlink:title="./../../../../../../.././qc/src/net/sourceforge/plantuml/svek/extremity/Extremity.java.html#71" xlink:type="simple"><rect fill="#F1F1F1" height="10" style="stroke:none;stroke-width:1.0;" width="20" x="20.5" y="171.2422"/><ellipse cx="25.5" cy="176.2422" fill="#84BE84" rx="3" ry="3" style="stroke:#038048;stroke-width:1.0;"/></a><a href="./../../../../../../.././qc/src/net/sourceforge/plantuml/svek/extremity/Extremity.java.html#71" target="_top" title="./../../../../../../.././qc/src/net/sourceforge/plantuml/svek/extremity/Extremity.java.html#71" xlink:actuate="onRequest" xlink:href="./../../../../../../.././qc/src/net/sourceforge/plantuml/svek/extremity/Extremity.java.html#71" xlink:show="new" xlink:title="./../../../../../../.././qc/src/net/sourceforge/plantuml/svek/extremity/Extremity.java.html#71" xlink:type="simple"><text fill="#000000" font-family="sans-serif" font-size="14" lengthAdjust="spacing" textLength="161" x="34.5" y="179.5889">somePoint() : XPoint2D</text></a><a href="./../../../../../../.././qc/src/net/sourceforge/plantuml/svek/extremity/Extremity.java.html#73" target="_top" title="./../../../../../../.././qc/src/net/sourceforge/plantuml/svek/extremity/Extremity.java.html#73" xlink:actuate="onRequest" xlink:href="./../../../../../../.././qc/src/net/sourceforge/plantuml/svek/extremity/Extremity.java.html#73" xlink:show="new" xlink:title="./../../../../../../.././qc/src/net/sourceforge/plantuml/svek/extremity/Extremity.java.html#73" xlink:type="simple"><rect fill="#F1F1F1" height="10" style="stroke:none;stroke-width:1.0;" width="20" x="20.5" y="187.5391"/><ellipse cx="25.5" cy="192.5391" fill="#84BE84" rx="3" ry="3" style="stroke:#038048;stroke-width:1.0;"/></a><a href="./../../../../../../.././qc/src/net/sourceforge/plantuml/svek/extremity/Extremity.java.html#73" target="_top" title="./../../../../../../.././qc/src/net/sourceforge/plantuml/svek/extremity/Extremity.java.html#73" xlink:actuate="onRequest" xlink:href="./../../../../../../.././qc/src/net/sourceforge/plantuml/svek/extremity/Extremity.java.html#73" xlink:show="new" xlink:title="./../../../../../../.././qc/src/net/sourceforge/plantuml/svek/extremity/Extremity.java.html#73" xlink:type="simple"><text fill="#000000" font-family="sans-serif" font-size="14" lengthAdjust="spacing" textLength="455" x="34.5" y="195.8857">isTooSmallSoGiveThePointCloserToThisOne(XPoint2D) : XPoint2D</text></a><a href="./../../../../../../.././qc/src/net/sourceforge/plantuml/svek/extremity/Extremity.java.html#77" target="_top" title="./../../../../../../.././qc/src/net/sourceforge/plantuml/svek/extremity/Extremity.java.html#77" xlink:actuate="onRequest" xlink:href="./../../../../../../.././qc/src/net/sourceforge/plantuml/svek/extremity/Extremity.java.html#77" xlink:show="new" xlink:title="./../../../../../../.././qc/src/net/sourceforge/plantuml/svek/extremity/Extremity.java.html#77" xlink:type="simple"><rect fill="#F1F1F1" height="10" style="stroke:none;stroke-width:1.0;" width="20" x="20.5" y="203.8359"/><ellipse cx="25.5" cy="208.8359" fill="#84BE84" rx="3" ry="3" style="stroke:#038048;stroke-width:1.0;"/></a><a href="./../../../../../../.././qc/src/net/sourceforge/plantuml/svek/extremity/Extremity.java.html#77" target="_top" title="./../../../../../../.././qc/src/net/sourceforge/plantuml/svek/extremity/Extremity.java.html#77" xlink:actuate="onRequest" xlink:href="./../../../../../../.././qc/src/net/sourceforge/plantuml/svek/extremity/Extremity.java.html#77" xlink:show="new" xlink:title="./../../../../../../.././qc/src/net/sourceforge/plantuml/svek/extremity/Extremity.java.html#77" xlink:type="simple"><text fill="#000000" font-family="sans-serif" font-size="14" lengthAdjust="spacing" textLength="198" x="34.5" y="212.1826">getDeltaForKal() : UTranslate</text></a></g><path d="M255,54.0413 C255,64.3681 255,77.1075 255,89.9808 " fill="none" style="stroke:#181818;stroke-width:1.0;"/><polygon fill="#FFFFFF" points="255,54.0413,249,70.0413,261,70.0413,255,54.0413" style="stroke:#181818;stroke-width:1.0;"/><!--MD5=[7207c29a45a9657d67780b107c954025]
@startuml
!pragma layout smetana
"UDrawable" <|- - "net.sourceforge.plantuml.svek.extremity.Extremity"
class net.sourceforge.plantuml.svek.extremity.Extremity {
manageround(double) : double [[[./../../../../../../.././qc/src/net/sourceforge/plantuml/svek/extremity/Extremity.java.html#44]]]
-isCloseTo(double;double) : boolean [[[./../../../../../../.././qc/src/net/sourceforge/plantuml/svek/extremity/Extremity.java.html#64]]]
+somePoint() : XPoint2D [[[./../../../../../../.././qc/src/net/sourceforge/plantuml/svek/extremity/Extremity.java.html#71]]]
+isTooSmallSoGiveThePointCloserToThisOne(XPoint2D) : XPoint2D [[[./../../../../../../.././qc/src/net/sourceforge/plantuml/svek/extremity/Extremity.java.html#73]]]
+getDeltaForKal() : UTranslate [[[./../../../../../../.././qc/src/net/sourceforge/plantuml/svek/extremity/Extremity.java.html#77]]]
} 
@enduml

PlantUML version 1.2022.7(Mon Aug 22 17:01:30 UTC 2022)
(GPL source distribution)
Java Runtime: OpenJDK Runtime Environment
JVM: OpenJDK 64-Bit Server VM
Default Encoding: UTF-8
Language: en
Country: null
--></g></svg>