<?xml version="1.0" encoding="UTF-8" standalone="no"?><svg xmlns="http://www.w3.org/2000/svg" xmlns:xlink="http://www.w3.org/1999/xlink" contentStyleType="text/css" height="202px" preserveAspectRatio="none" style="width:577px;height:202px;background:#FFFFFF;" version="1.1" viewBox="0 0 577 202" width="577px" zoomAndPan="magnify"><defs/><g><!--MD5=[5af41c6bca0371a180a423483d7b5f6e]
cluster net.sourceforge.plantuml.svek.extremity--><g id="cluster_net.sourceforge.plantuml.svek.extremity"><path d="M8.5,63 L332.5,63 A3.75,3.75 0 0 1 335,65.5 L342,85.2969 L567.5,85.2969 A2.5,2.5 0 0 1 570,87.7969 L570,192.5 A2.5,2.5 0 0 1 567.5,195 L8.5,195 A2.5,2.5 0 0 1 6,192.5 L6,65.5 A2.5,2.5 0 0 1 8.5,63 " fill="none" style="stroke:#000000;stroke-width:1.5;"/><line style="stroke:#000000;stroke-width:1.5;" x1="6" x2="342" y1="85.2969" y2="85.2969"/><text fill="#000000" font-family="sans-serif" font-size="14" font-weight="bold" lengthAdjust="spacing" textLength="323" x="10" y="77.9951">net.sourceforge.plantuml.svek.extremity</text></g><!--MD5=[783b16dfd2dda6d44290c22ab4e47557]
class ExtremityFactory--><g id="elem_ExtremityFactory"><rect fill="#F1F1F1" height="48" id="ExtremityFactory" rx="2.5" ry="2.5" style="stroke:#181818;stroke-width:0.5;" width="145" x="215.5" y="6"/><ellipse cx="230.5" cy="22" fill="#ADD1B2" rx="11" ry="11" style="stroke:#181818;stroke-width:1.0;"/><path d="M233.4688,27.6406 Q232.8906,27.9375 232.25,28.0781 Q231.6094,28.2344 230.9063,28.2344 Q228.4063,28.2344 227.0781,26.5938 Q225.7656,24.9375 225.7656,21.8125 Q225.7656,18.6875 227.0781,17.0313 Q228.4063,15.375 230.9063,15.375 Q231.6094,15.375 232.25,15.5313 Q232.9063,15.6875 233.4688,15.9844 L233.4688,18.7031 Q232.8438,18.125 232.25,17.8594 Q231.6563,17.5781 231.0313,17.5781 Q229.6875,17.5781 229,18.6563 Q228.3125,19.7188 228.3125,21.8125 Q228.3125,23.9063 229,24.9844 Q229.6875,26.0469 231.0313,26.0469 Q231.6563,26.0469 232.25,25.7813 Q232.8438,25.5 233.4688,24.9219 L233.4688,27.6406 Z " fill="#000000"/><text fill="#000000" font-family="sans-serif" font-size="14" lengthAdjust="spacing" textLength="113" x="244.5" y="26.8467">ExtremityFactory</text><line style="stroke:#181818;stroke-width:0.5;" x1="216.5" x2="359.5" y1="38" y2="38"/><line style="stroke:#181818;stroke-width:0.5;" x1="216.5" x2="359.5" y1="46" y2="46"/></g><!--MD5=[b8d2cadf35e1fbdec4876bf8f85ca5b5]
class net.sourceforge.plantuml.svek.extremity.ExtremityFactoryExtendsLike--><g id="elem_net.sourceforge.plantuml.svek.extremity.ExtremityFactoryExtendsLike"><rect codeLine="3" fill="#F1F1F1" height="96.8906" id="net.sourceforge.plantuml.svek.extremity.ExtremityFactoryExtendsLike" rx="2.5" ry="2.5" style="stroke:#181818;stroke-width:0.5;" width="548" x="14" y="90"/><ellipse cx="185.75" cy="106" fill="#ADD1B2" rx="11" ry="11" style="stroke:#181818;stroke-width:1.0;"/><path d="M188.7188,111.6406 Q188.1406,111.9375 187.5,112.0781 Q186.8594,112.2344 186.1563,112.2344 Q183.6563,112.2344 182.3281,110.5938 Q181.0156,108.9375 181.0156,105.8125 Q181.0156,102.6875 182.3281,101.0313 Q183.6563,99.375 186.1563,99.375 Q186.8594,99.375 187.5,99.5313 Q188.1563,99.6875 188.7188,99.9844 L188.7188,102.7031 Q188.0938,102.125 187.5,101.8594 Q186.9063,101.5781 186.2813,101.5781 Q184.9375,101.5781 184.25,102.6563 Q183.5625,103.7188 183.5625,105.8125 Q183.5625,107.9063 184.25,108.9844 Q184.9375,110.0469 186.2813,110.0469 Q186.9063,110.0469 187.5,109.7813 Q188.0938,109.5 188.7188,108.9219 L188.7188,111.6406 Z " fill="#000000"/><text fill="#000000" font-family="sans-serif" font-size="14" lengthAdjust="spacing" textLength="196" x="206.25" y="110.8467">ExtremityFactoryExtendsLike</text><line style="stroke:#181818;stroke-width:0.5;" x1="15" x2="561" y1="122" y2="122"/><line style="stroke:#181818;stroke-width:0.5;" x1="15" x2="561" y1="130" y2="130"/><a href="./../../../../../../.././qc/src/net/sourceforge/plantuml/svek/extremity/ExtremityFactoryExtendsLike.java.html#49" target="_top" title="./../../../../../../.././qc/src/net/sourceforge/plantuml/svek/extremity/ExtremityFactoryExtendsLike.java.html#49" xlink:actuate="onRequest" xlink:href="./../../../../../../.././qc/src/net/sourceforge/plantuml/svek/extremity/ExtremityFactoryExtendsLike.java.html#49" xlink:show="new" xlink:title="./../../../../../../.././qc/src/net/sourceforge/plantuml/svek/extremity/ExtremityFactoryExtendsLike.java.html#49" xlink:type="simple"><rect fill="#F1F1F1" height="10" style="stroke:none;stroke-width:1.0;" width="20" x="20" y="138.6484"/><ellipse cx="25" cy="143.6484" fill="#84BE84" rx="3" ry="3" style="stroke:#038048;stroke-width:1.0;"/></a><a href="./../../../../../../.././qc/src/net/sourceforge/plantuml/svek/extremity/ExtremityFactoryExtendsLike.java.html#49" target="_top" title="./../../../../../../.././qc/src/net/sourceforge/plantuml/svek/extremity/ExtremityFactoryExtendsLike.java.html#49" xlink:actuate="onRequest" xlink:href="./../../../../../../.././qc/src/net/sourceforge/plantuml/svek/extremity/ExtremityFactoryExtendsLike.java.html#49" xlink:show="new" xlink:title="./../../../../../../.././qc/src/net/sourceforge/plantuml/svek/extremity/ExtremityFactoryExtendsLike.java.html#49" xlink:type="simple"><text fill="#000000" font-family="sans-serif" font-size="14" lengthAdjust="spacing" textLength="522" x="34" y="146.9951">ExtremityFactoryExtendsLike(HColor;boolean) : ExtremityFactoryExtendsLike</text></a><a href="./../../../../../../.././qc/src/net/sourceforge/plantuml/svek/extremity/ExtremityFactoryExtendsLike.java.html#55" target="_top" title="./../../../../../../.././qc/src/net/sourceforge/plantuml/svek/extremity/ExtremityFactoryExtendsLike.java.html#55" xlink:actuate="onRequest" xlink:href="./../../../../../../.././qc/src/net/sourceforge/plantuml/svek/extremity/ExtremityFactoryExtendsLike.java.html#55" xlink:show="new" xlink:title="./../../../../../../.././qc/src/net/sourceforge/plantuml/svek/extremity/ExtremityFactoryExtendsLike.java.html#55" xlink:type="simple"><rect fill="#F1F1F1" height="10" style="stroke:none;stroke-width:1.0;" width="20" x="20" y="154.9453"/><ellipse cx="25" cy="159.9453" fill="#84BE84" rx="3" ry="3" style="stroke:#038048;stroke-width:1.0;"/></a><a href="./../../../../../../.././qc/src/net/sourceforge/plantuml/svek/extremity/ExtremityFactoryExtendsLike.java.html#55" target="_top" title="./../../../../../../.././qc/src/net/sourceforge/plantuml/svek/extremity/ExtremityFactoryExtendsLike.java.html#55" xlink:actuate="onRequest" xlink:href="./../../../../../../.././qc/src/net/sourceforge/plantuml/svek/extremity/ExtremityFactoryExtendsLike.java.html#55" xlink:show="new" xlink:title="./../../../../../../.././qc/src/net/sourceforge/plantuml/svek/extremity/ExtremityFactoryExtendsLike.java.html#55" xlink:type="simple"><text fill="#000000" font-family="sans-serif" font-size="14" lengthAdjust="spacing" textLength="367" x="34" y="163.292">createUDrawable(XPoint2D;double;Side) : UDrawable</text></a><a href="./../../../../../../.././qc/src/net/sourceforge/plantuml/svek/extremity/ExtremityFactoryExtendsLike.java.html#64" target="_top" title="./../../../../../../.././qc/src/net/sourceforge/plantuml/svek/extremity/ExtremityFactoryExtendsLike.java.html#64" xlink:actuate="onRequest" xlink:href="./../../../../../../.././qc/src/net/sourceforge/plantuml/svek/extremity/ExtremityFactoryExtendsLike.java.html#64" xlink:show="new" xlink:title="./../../../../../../.././qc/src/net/sourceforge/plantuml/svek/extremity/ExtremityFactoryExtendsLike.java.html#64" xlink:type="simple"><rect fill="#F1F1F1" height="10" style="stroke:none;stroke-width:1.0;" width="20" x="20" y="171.2422"/><ellipse cx="25" cy="176.2422" fill="#84BE84" rx="3" ry="3" style="stroke:#038048;stroke-width:1.0;"/></a><a href="./../../../../../../.././qc/src/net/sourceforge/plantuml/svek/extremity/ExtremityFactoryExtendsLike.java.html#64" target="_top" title="./../../../../../../.././qc/src/net/sourceforge/plantuml/svek/extremity/ExtremityFactoryExtendsLike.java.html#64" xlink:actuate="onRequest" xlink:href="./../../../../../../.././qc/src/net/sourceforge/plantuml/svek/extremity/ExtremityFactoryExtendsLike.java.html#64" xlink:show="new" xlink:title="./../../../../../../.././qc/src/net/sourceforge/plantuml/svek/extremity/ExtremityFactoryExtendsLike.java.html#64" xlink:type="simple"><text fill="#000000" font-family="sans-serif" font-size="14" lengthAdjust="spacing" textLength="452" x="34" y="179.5889">createUDrawable(XPoint2D;XPoint2D;XPoint2D;Side) : UDrawable</text></a></g><path d="M288,54.1089 C288,64.6313 288,77.495 288,89.9394 " fill="none" style="stroke:#181818;stroke-width:1.0;"/><polygon fill="#FFFFFF" points="288,54.1089,282,70.1089,294,70.1089,288,54.1089" style="stroke:#181818;stroke-width:1.0;"/><!--MD5=[747a35869ce53d795c17a92d18f7c55b]
@startuml
!pragma layout smetana
"ExtremityFactory" <|- - "net.sourceforge.plantuml.svek.extremity.ExtremityFactoryExtendsLike"
class net.sourceforge.plantuml.svek.extremity.ExtremityFactoryExtendsLike {
+ExtremityFactoryExtendsLike(HColor;boolean) : ExtremityFactoryExtendsLike [[[./../../../../../../.././qc/src/net/sourceforge/plantuml/svek/extremity/ExtremityFactoryExtendsLike.java.html#49]]]
+createUDrawable(XPoint2D;double;Side) : UDrawable [[[./../../../../../../.././qc/src/net/sourceforge/plantuml/svek/extremity/ExtremityFactoryExtendsLike.java.html#55]]]
+createUDrawable(XPoint2D;XPoint2D;XPoint2D;Side) : UDrawable [[[./../../../../../../.././qc/src/net/sourceforge/plantuml/svek/extremity/ExtremityFactoryExtendsLike.java.html#64]]]
} 
@enduml

PlantUML version 1.2022.7(Mon Aug 22 17:01:30 UTC 2022)
(GPL source distribution)
Java Runtime: OpenJDK Runtime Environment
JVM: OpenJDK 64-Bit Server VM
Default Encoding: UTF-8
Language: en
Country: null
--></g></svg>