<?xml version="1.0" encoding="UTF-8" standalone="no"?><svg xmlns="http://www.w3.org/2000/svg" xmlns:xlink="http://www.w3.org/1999/xlink" contentStyleType="text/css" height="202px" preserveAspectRatio="none" style="width:573px;height:202px;background:#FFFFFF;" version="1.1" viewBox="0 0 573 202" width="573px" zoomAndPan="magnify"><defs/><g><!--MD5=[5af41c6bca0371a180a423483d7b5f6e]
cluster net.sourceforge.plantuml.svek.extremity--><g id="cluster_net.sourceforge.plantuml.svek.extremity"><path d="M8.5,63 L332.5,63 A3.75,3.75 0 0 1 335,65.5 L342,85.2969 L563.5,85.2969 A2.5,2.5 0 0 1 566,87.7969 L566,192.5 A2.5,2.5 0 0 1 563.5,195 L8.5,195 A2.5,2.5 0 0 1 6,192.5 L6,65.5 A2.5,2.5 0 0 1 8.5,63 " fill="none" style="stroke:#000000;stroke-width:1.5;"/><line style="stroke:#000000;stroke-width:1.5;" x1="6" x2="342" y1="85.2969" y2="85.2969"/><text fill="#000000" font-family="sans-serif" font-size="14" font-weight="bold" lengthAdjust="spacing" textLength="323" x="10" y="77.9951">net.sourceforge.plantuml.svek.extremity</text></g><!--MD5=[78e6eb185a44a7123c7e41132dda554c]
class Extremity--><g id="elem_Extremity"><rect fill="#F1F1F1" height="48" id="Extremity" rx="2.5" ry="2.5" style="stroke:#181818;stroke-width:0.5;" width="95" x="238.5" y="6"/><ellipse cx="253.5" cy="22" fill="#ADD1B2" rx="11" ry="11" style="stroke:#181818;stroke-width:1.0;"/><path d="M256.4688,27.6406 Q255.8906,27.9375 255.25,28.0781 Q254.6094,28.2344 253.9063,28.2344 Q251.4063,28.2344 250.0781,26.5938 Q248.7656,24.9375 248.7656,21.8125 Q248.7656,18.6875 250.0781,17.0313 Q251.4063,15.375 253.9063,15.375 Q254.6094,15.375 255.25,15.5313 Q255.9063,15.6875 256.4688,15.9844 L256.4688,18.7031 Q255.8438,18.125 255.25,17.8594 Q254.6563,17.5781 254.0313,17.5781 Q252.6875,17.5781 252,18.6563 Q251.3125,19.7188 251.3125,21.8125 Q251.3125,23.9063 252,24.9844 Q252.6875,26.0469 254.0313,26.0469 Q254.6563,26.0469 255.25,25.7813 Q255.8438,25.5 256.4688,24.9219 L256.4688,27.6406 Z " fill="#000000"/><text fill="#000000" font-family="sans-serif" font-size="14" lengthAdjust="spacing" textLength="63" x="267.5" y="26.8467">Extremity</text><line style="stroke:#181818;stroke-width:0.5;" x1="239.5" x2="332.5" y1="38" y2="38"/><line style="stroke:#181818;stroke-width:0.5;" x1="239.5" x2="332.5" y1="46" y2="46"/></g><!--MD5=[672fab8911c23e3a1a5503b67d92fd7c]
class net.sourceforge.plantuml.svek.extremity.ExtremityParenthesis2--><g id="elem_net.sourceforge.plantuml.svek.extremity.ExtremityParenthesis2"><rect codeLine="3" fill="#F1F1F1" height="96.8906" id="net.sourceforge.plantuml.svek.extremity.ExtremityParenthesis2" rx="2.5" ry="2.5" style="stroke:#181818;stroke-width:0.5;" width="543" x="14.5" y="90"/><ellipse cx="204.75" cy="106" fill="#ADD1B2" rx="11" ry="11" style="stroke:#181818;stroke-width:1.0;"/><path d="M207.7188,111.6406 Q207.1406,111.9375 206.5,112.0781 Q205.8594,112.2344 205.1563,112.2344 Q202.6563,112.2344 201.3281,110.5938 Q200.0156,108.9375 200.0156,105.8125 Q200.0156,102.6875 201.3281,101.0313 Q202.6563,99.375 205.1563,99.375 Q205.8594,99.375 206.5,99.5313 Q207.1563,99.6875 207.7188,99.9844 L207.7188,102.7031 Q207.0938,102.125 206.5,101.8594 Q205.9063,101.5781 205.2813,101.5781 Q203.9375,101.5781 203.25,102.6563 Q202.5625,103.7188 202.5625,105.8125 Q202.5625,107.9063 203.25,108.9844 Q203.9375,110.0469 205.2813,110.0469 Q205.9063,110.0469 206.5,109.7813 Q207.0938,109.5 207.7188,108.9219 L207.7188,111.6406 Z " fill="#000000"/><text fill="#000000" font-family="sans-serif" font-size="14" lengthAdjust="spacing" textLength="154" x="225.25" y="110.8467">ExtremityParenthesis2</text><line style="stroke:#181818;stroke-width:0.5;" x1="15.5" x2="556.5" y1="122" y2="122"/><line style="stroke:#181818;stroke-width:0.5;" x1="15.5" x2="556.5" y1="130" y2="130"/><a href="./../../../../../../.././qc/src/net/sourceforge/plantuml/svek/extremity/ExtremityParenthesis2.java.html#52" target="_top" title="./../../../../../../.././qc/src/net/sourceforge/plantuml/svek/extremity/ExtremityParenthesis2.java.html#52" xlink:actuate="onRequest" xlink:href="./../../../../../../.././qc/src/net/sourceforge/plantuml/svek/extremity/ExtremityParenthesis2.java.html#52" xlink:show="new" xlink:title="./../../../../../../.././qc/src/net/sourceforge/plantuml/svek/extremity/ExtremityParenthesis2.java.html#52" xlink:type="simple"><rect fill="#F1F1F1" height="10" style="stroke:none;stroke-width:1.0;" width="20" x="20.5" y="138.6484"/><ellipse cx="25.5" cy="143.6484" fill="#84BE84" rx="3" ry="3" style="stroke:#038048;stroke-width:1.0;"/></a><a href="./../../../../../../.././qc/src/net/sourceforge/plantuml/svek/extremity/ExtremityParenthesis2.java.html#52" target="_top" title="./../../../../../../.././qc/src/net/sourceforge/plantuml/svek/extremity/ExtremityParenthesis2.java.html#52" xlink:actuate="onRequest" xlink:href="./../../../../../../.././qc/src/net/sourceforge/plantuml/svek/extremity/ExtremityParenthesis2.java.html#52" xlink:show="new" xlink:title="./../../../../../../.././qc/src/net/sourceforge/plantuml/svek/extremity/ExtremityParenthesis2.java.html#52" xlink:type="simple"><text fill="#000000" font-family="sans-serif" font-size="14" lengthAdjust="spacing" textLength="517" x="34.5" y="146.9951">ExtremityParenthesis2(XPoint2D;double;XPoint2D) : ExtremityParenthesis2</text></a><a href="./../../../../../../.././qc/src/net/sourceforge/plantuml/svek/extremity/ExtremityParenthesis2.java.html#64" target="_top" title="./../../../../../../.././qc/src/net/sourceforge/plantuml/svek/extremity/ExtremityParenthesis2.java.html#64" xlink:actuate="onRequest" xlink:href="./../../../../../../.././qc/src/net/sourceforge/plantuml/svek/extremity/ExtremityParenthesis2.java.html#64" xlink:show="new" xlink:title="./../../../../../../.././qc/src/net/sourceforge/plantuml/svek/extremity/ExtremityParenthesis2.java.html#64" xlink:type="simple"><rect fill="#F1F1F1" height="10" style="stroke:none;stroke-width:1.0;" width="20" x="20.5" y="154.9453"/><ellipse cx="25.5" cy="159.9453" fill="#84BE84" rx="3" ry="3" style="stroke:#038048;stroke-width:1.0;"/></a><a href="./../../../../../../.././qc/src/net/sourceforge/plantuml/svek/extremity/ExtremityParenthesis2.java.html#64" target="_top" title="./../../../../../../.././qc/src/net/sourceforge/plantuml/svek/extremity/ExtremityParenthesis2.java.html#64" xlink:actuate="onRequest" xlink:href="./../../../../../../.././qc/src/net/sourceforge/plantuml/svek/extremity/ExtremityParenthesis2.java.html#64" xlink:show="new" xlink:title="./../../../../../../.././qc/src/net/sourceforge/plantuml/svek/extremity/ExtremityParenthesis2.java.html#64" xlink:type="simple"><text fill="#000000" font-family="sans-serif" font-size="14" lengthAdjust="spacing" textLength="161" x="34.5" y="163.292">somePoint() : XPoint2D</text></a><a href="./../../../../../../.././qc/src/net/sourceforge/plantuml/svek/extremity/ExtremityParenthesis2.java.html#69" target="_top" title="./../../../../../../.././qc/src/net/sourceforge/plantuml/svek/extremity/ExtremityParenthesis2.java.html#69" xlink:actuate="onRequest" xlink:href="./../../../../../../.././qc/src/net/sourceforge/plantuml/svek/extremity/ExtremityParenthesis2.java.html#69" xlink:show="new" xlink:title="./../../../../../../.././qc/src/net/sourceforge/plantuml/svek/extremity/ExtremityParenthesis2.java.html#69" xlink:type="simple"><rect fill="#F1F1F1" height="10" style="stroke:none;stroke-width:1.0;" width="20" x="20.5" y="171.2422"/><ellipse cx="25.5" cy="176.2422" fill="#84BE84" rx="3" ry="3" style="stroke:#038048;stroke-width:1.0;"/></a><a href="./../../../../../../.././qc/src/net/sourceforge/plantuml/svek/extremity/ExtremityParenthesis2.java.html#69" target="_top" title="./../../../../../../.././qc/src/net/sourceforge/plantuml/svek/extremity/ExtremityParenthesis2.java.html#69" xlink:actuate="onRequest" xlink:href="./../../../../../../.././qc/src/net/sourceforge/plantuml/svek/extremity/ExtremityParenthesis2.java.html#69" xlink:show="new" xlink:title="./../../../../../../.././qc/src/net/sourceforge/plantuml/svek/extremity/ExtremityParenthesis2.java.html#69" xlink:type="simple"><text fill="#000000" font-family="sans-serif" font-size="14" lengthAdjust="spacing" textLength="157" x="34.5" y="179.5889">drawU(UGraphic) : void</text></a></g><path d="M286,54.1089 C286,64.6313 286,77.495 286,89.9394 " fill="none" style="stroke:#181818;stroke-width:1.0;"/><polygon fill="#FFFFFF" points="286,54.1089,280,70.1089,292,70.1089,286,54.1089" style="stroke:#181818;stroke-width:1.0;"/><!--MD5=[6c4270b559e2a77233b7d3c89c0999be]
@startuml
!pragma layout smetana
"Extremity" <|- - "net.sourceforge.plantuml.svek.extremity.ExtremityParenthesis2"
class net.sourceforge.plantuml.svek.extremity.ExtremityParenthesis2 {
+ExtremityParenthesis2(XPoint2D;double;XPoint2D) : ExtremityParenthesis2 [[[./../../../../../../.././qc/src/net/sourceforge/plantuml/svek/extremity/ExtremityParenthesis2.java.html#52]]]
+somePoint() : XPoint2D [[[./../../../../../../.././qc/src/net/sourceforge/plantuml/svek/extremity/ExtremityParenthesis2.java.html#64]]]
+drawU(UGraphic) : void [[[./../../../../../../.././qc/src/net/sourceforge/plantuml/svek/extremity/ExtremityParenthesis2.java.html#69]]]
} 
@enduml

PlantUML version 1.2022.7(Mon Aug 22 17:01:30 UTC 2022)
(GPL source distribution)
Java Runtime: OpenJDK Runtime Environment
JVM: OpenJDK 64-Bit Server VM
Default Encoding: UTF-8
Language: en
Country: null
--></g></svg>