<?xml version="1.0" encoding="UTF-8" standalone="no"?><svg xmlns="http://www.w3.org/2000/svg" xmlns:xlink="http://www.w3.org/1999/xlink" contentStyleType="text/css" height="1939px" preserveAspectRatio="none" style="width:612px;height:1939px;background:#FFFFFF;" version="1.1" viewBox="0 0 612 1939" width="612px" zoomAndPan="magnify"><defs/><g><path d="M289,10 L289,18.5664 L269,22.5664 L289,26.5664 L289,35.1328 A0,0 0 0 0 289,35.1328 L450,35.1328 A0,0 0 0 0 450,35.1328 L450,20 L440,10 L289,10 A0,0 0 0 0 289,10 " fill="#FEFFDD" style="stroke:#181818;stroke-width:0.5;"/><path d="M440,10 L440,20 L450,20 L440,10 " fill="#FEFFDD" style="stroke:#181818;stroke-width:0.5;"/><text fill="#000000" font-family="sans-serif" font-size="13" lengthAdjust="spacing" textLength="140" x="295" y="27.0669">XPoint2D somePoint()</text><ellipse cx="259" cy="22.5664" fill="#222222" rx="10" ry="10" style="stroke:#222222;stroke-width:1.0;"/><rect fill="#F1F1F1" height="33.9688" rx="12.5" ry="12.5" style="stroke:#181818;stroke-width:0.5;" width="115" x="201.5" y="55.1328"/><text fill="#000000" font-family="sans-serif" font-size="12" lengthAdjust="spacing" textLength="95" x="211.5" y="76.2715">return contact;</text><ellipse cx="259" cy="120.1016" fill="none" rx="11" ry="11" style="stroke:#222222;stroke-width:1.0;"/><ellipse cx="259" cy="120.1016" fill="#222222" rx="6" ry="6" style="stroke:#111111;stroke-width:1.0;"/><ellipse cx="259" cy="151.1016" fill="none" rx="10" ry="10" style="stroke:#222222;stroke-width:1.5;"/><line style="stroke:#222222;stroke-width:2.5;" x1="252.8128" x2="265.1872" y1="144.9144" y2="157.2887"/><line style="stroke:#222222;stroke-width:2.5;" x1="265.1872" x2="252.8128" y1="144.9144" y2="157.2887"/><path d="M289,171.1016 L289,187.2344 L269,191.2344 L289,195.2344 L289,211.3672 A0,0 0 0 0 289,211.3672 L591,211.3672 A0,0 0 0 0 591,211.3672 L591,181.1016 L581,171.1016 L289,171.1016 A0,0 0 0 0 289,171.1016 " fill="#FEFFDD" style="stroke:#181818;stroke-width:0.5;"/><path d="M581,171.1016 L581,181.1016 L591,181.1016 L581,171.1016 " fill="#FEFFDD" style="stroke:#181818;stroke-width:0.5;"/><text fill="#000000" font-family="sans-serif" font-size="13" lengthAdjust="spacing" textLength="281" x="295" y="188.1685">constructor ExtremityCrowfoot(XPoint2D p1,</text><text fill="#000000" font-family="sans-serif" font-size="13" lengthAdjust="spacing" textLength="149" x="295" y="203.3013">double angle,Side side)</text><ellipse cx="259" cy="191.2344" fill="#222222" rx="10" ry="10" style="stroke:#222222;stroke-width:1.0;"/><rect fill="#F1F1F1" height="33.9688" rx="12.5" ry="12.5" style="stroke:#181818;stroke-width:0.5;" width="324" x="97" y="231.3672"/><text fill="#000000" font-family="sans-serif" font-size="12" lengthAdjust="spacing" textLength="304" x="107" y="252.5059">this.contact=new XPoint2D(p1.getX(),p1.getY());</text><rect fill="#F1F1F1" height="33.9688" rx="12.5" ry="12.5" style="stroke:#181818;stroke-width:0.5;" width="297" x="110.5" y="285.3359"/><text fill="#000000" font-family="sans-serif" font-size="12" lengthAdjust="spacing" textLength="277" x="120.5" y="306.4746">this.angle=manageround(angle+Math.PI/2);</text><rect fill="#F1F1F1" height="33.9688" rx="12.5" ry="12.5" style="stroke:#181818;stroke-width:0.5;" width="113" x="202.5" y="339.3047"/><text fill="#000000" font-family="sans-serif" font-size="12" lengthAdjust="spacing" textLength="93" x="212.5" y="360.4434">this.side=side;</text><ellipse cx="259" cy="403.2734" fill="none" rx="10" ry="10" style="stroke:#222222;stroke-width:1.5;"/><line style="stroke:#222222;stroke-width:2.5;" x1="252.8128" x2="265.1872" y1="397.0863" y2="409.4606"/><line style="stroke:#222222;stroke-width:2.5;" x1="265.1872" x2="252.8128" y1="397.0863" y2="409.4606"/><path d="M289,423.2734 L289,431.8398 L269,435.8398 L289,439.8398 L289,448.4063 A0,0 0 0 0 289,448.4063 L469,448.4063 A0,0 0 0 0 469,448.4063 L469,433.2734 L459,423.2734 L289,423.2734 A0,0 0 0 0 289,423.2734 " fill="#FEFFDD" style="stroke:#181818;stroke-width:0.5;"/><path d="M459,423.2734 L459,433.2734 L469,433.2734 L459,423.2734 " fill="#FEFFDD" style="stroke:#181818;stroke-width:0.5;"/><text fill="#000000" font-family="sans-serif" font-size="13" lengthAdjust="spacing" textLength="159" x="295" y="440.3403">void drawU(UGraphic ug)</text><ellipse cx="259" cy="435.8398" fill="#222222" rx="10" ry="10" style="stroke:#222222;stroke-width:1.0;"/><rect fill="#F1F1F1" height="33.9688" rx="12.5" ry="12.5" style="stroke:#181818;stroke-width:0.5;" width="128" x="195" y="468.4063"/><text fill="#000000" font-family="sans-serif" font-size="12" lengthAdjust="spacing" textLength="108" x="205" y="489.5449">final int xWing=8;</text><rect fill="#F1F1F1" height="33.9688" rx="12.5" ry="12.5" style="stroke:#181818;stroke-width:0.5;" width="153" x="182.5" y="522.375"/><text fill="#000000" font-family="sans-serif" font-size="12" lengthAdjust="spacing" textLength="133" x="192.5" y="543.5137">final int yAperture=8;</text><rect fill="#F1F1F1" height="33.9688" rx="12.5" ry="12.5" style="stroke:#181818;stroke-width:0.5;" width="496" x="11" y="576.3438"/><text fill="#000000" font-family="sans-serif" font-size="12" lengthAdjust="spacing" textLength="476" x="21" y="597.4824">final AffineTransform rotate=AffineTransform.getRotateInstance(this.angle);</text><rect fill="#F1F1F1" height="33.9688" rx="12.5" ry="12.5" style="stroke:#181818;stroke-width:0.5;" width="250" x="134" y="630.3125"/><text fill="#000000" font-family="sans-serif" font-size="12" lengthAdjust="spacing" textLength="230" x="144" y="651.4512">XPoint2D middle=new XPoint2D(0,0);</text><rect fill="#F1F1F1" height="33.9688" rx="12.5" ry="12.5" style="stroke:#181818;stroke-width:0.5;" width="286" x="116" y="684.2813"/><text fill="#000000" font-family="sans-serif" font-size="12" lengthAdjust="spacing" textLength="266" x="126" y="705.4199">XPoint2D left=new XPoint2D(0,-yAperture);</text><rect fill="#F1F1F1" height="33.9688" rx="12.5" ry="12.5" style="stroke:#181818;stroke-width:0.5;" width="272" x="123" y="738.25"/><text fill="#000000" font-family="sans-serif" font-size="12" lengthAdjust="spacing" textLength="252" x="133" y="759.3887">XPoint2D base=new XPoint2D(-xWing,0);</text><rect fill="#F1F1F1" height="33.9688" rx="12.5" ry="12.5" style="stroke:#181818;stroke-width:0.5;" width="291" x="113.5" y="792.2188"/><text fill="#000000" font-family="sans-serif" font-size="12" lengthAdjust="spacing" textLength="271" x="123.5" y="813.3574">XPoint2D right=new XPoint2D(0,yAperture);</text><rect fill="#F1F1F1" height="33.9688" rx="12.5" ry="12.5" style="stroke:#181818;stroke-width:0.5;" width="188" x="165" y="846.1875"/><text fill="#000000" font-family="sans-serif" font-size="12" lengthAdjust="spacing" textLength="168" x="175" y="867.3262">left=left.transform(rotate);</text><rect fill="#F1F1F1" height="33.9688" rx="12.5" ry="12.5" style="stroke:#181818;stroke-width:0.5;" width="210" x="154" y="900.1563"/><text fill="#000000" font-family="sans-serif" font-size="12" lengthAdjust="spacing" textLength="190" x="164" y="921.2949">base=base.transform(rotate);</text><rect fill="#F1F1F1" height="33.9688" rx="12.5" ry="12.5" style="stroke:#181818;stroke-width:0.5;" width="206" x="156" y="954.125"/><text fill="#000000" font-family="sans-serif" font-size="12" lengthAdjust="spacing" textLength="186" x="166" y="975.2637">right=right.transform(rotate);</text><rect fill="#F1F1F1" height="33.9688" rx="12.5" ry="12.5" style="stroke:#181818;stroke-width:0.5;" width="298" x="110" y="1056.4961"/><text fill="#000000" font-family="sans-serif" font-size="12" lengthAdjust="spacing" textLength="278" x="120" y="1077.6348">left=new XPoint2D(middle.getX(),left.getY());</text><rect fill="#F1F1F1" height="33.9688" rx="12.5" ry="12.5" style="stroke:#181818;stroke-width:0.5;" width="316" x="101" y="1125.4648"/><text fill="#000000" font-family="sans-serif" font-size="12" lengthAdjust="spacing" textLength="296" x="111" y="1146.6035">right=new XPoint2D(middle.getX(),right.getY());</text><polygon fill="#F1F1F1" points="154,1008.0938,364,1008.0938,376,1020.0938,364,1032.0938,154,1032.0938,142,1020.0938,154,1008.0938" style="stroke:#181818;stroke-width:0.5;"/><text fill="#000000" font-family="sans-serif" font-size="11" lengthAdjust="spacing" textLength="20" x="263" y="1042.3042">yes</text><text fill="#000000" font-family="sans-serif" font-size="11" lengthAdjust="spacing" textLength="210" x="154" y="1023.9019">side==Side.WEST||side==Side.EAST</text><polygon fill="#F1F1F1" points="259,1179.4336,271,1191.4336,259,1203.4336,247,1191.4336,259,1179.4336" style="stroke:#181818;stroke-width:0.5;"/><rect fill="#F1F1F1" height="33.9688" rx="12.5" ry="12.5" style="stroke:#181818;stroke-width:0.5;" width="298" x="110" y="1271.8359"/><text fill="#000000" font-family="sans-serif" font-size="12" lengthAdjust="spacing" textLength="278" x="120" y="1292.9746">left=new XPoint2D(left.getX(),middle.getY());</text><rect fill="#F1F1F1" height="33.9688" rx="12.5" ry="12.5" style="stroke:#181818;stroke-width:0.5;" width="316" x="101" y="1340.8047"/><text fill="#000000" font-family="sans-serif" font-size="12" lengthAdjust="spacing" textLength="296" x="111" y="1361.9434">right=new XPoint2D(right.getX(),middle.getY());</text><polygon fill="#F1F1F1" points="144.5,1223.4336,373.5,1223.4336,385.5,1235.4336,373.5,1247.4336,144.5,1247.4336,132.5,1235.4336,144.5,1223.4336" style="stroke:#181818;stroke-width:0.5;"/><text fill="#000000" font-family="sans-serif" font-size="11" lengthAdjust="spacing" textLength="20" x="263" y="1257.644">yes</text><text fill="#000000" font-family="sans-serif" font-size="11" lengthAdjust="spacing" textLength="229" x="144.5" y="1239.2417">side==Side.SOUTH||side==Side.NORTH</text><polygon fill="#F1F1F1" points="259,1394.7734,271,1406.7734,259,1418.7734,247,1406.7734,259,1394.7734" style="stroke:#181818;stroke-width:0.5;"/><rect fill="#F1F1F1" height="47.9375" rx="12.5" ry="12.5" style="stroke:#181818;stroke-width:0.5;" width="288" x="115" y="1438.7734"/><text fill="#000000" font-family="sans-serif" font-size="12" lengthAdjust="spacing" textLength="268" x="125" y="1459.9121">drawLine(ug,contact.getX(),contact.getY(),</text><text fill="#000000" font-family="sans-serif" font-size="12" lengthAdjust="spacing" textLength="64" x="125" y="1473.8809">base,left);</text><rect fill="#F1F1F1" height="47.9375" rx="12.5" ry="12.5" style="stroke:#181818;stroke-width:0.5;" width="288" x="115" y="1506.7109"/><text fill="#000000" font-family="sans-serif" font-size="12" lengthAdjust="spacing" textLength="268" x="125" y="1527.8496">drawLine(ug,contact.getX(),contact.getY(),</text><text fill="#000000" font-family="sans-serif" font-size="12" lengthAdjust="spacing" textLength="73" x="125" y="1541.8184">base,right);</text><rect fill="#F1F1F1" height="47.9375" rx="12.5" ry="12.5" style="stroke:#181818;stroke-width:0.5;" width="288" x="115" y="1574.6484"/><text fill="#000000" font-family="sans-serif" font-size="12" lengthAdjust="spacing" textLength="268" x="125" y="1595.7871">drawLine(ug,contact.getX(),contact.getY(),</text><text fill="#000000" font-family="sans-serif" font-size="12" lengthAdjust="spacing" textLength="85" x="125" y="1609.7559">base,middle);</text><ellipse cx="259" cy="1652.5859" fill="none" rx="10" ry="10" style="stroke:#222222;stroke-width:1.5;"/><line style="stroke:#222222;stroke-width:2.5;" x1="252.8128" x2="265.1872" y1="1646.3988" y2="1658.7731"/><line style="stroke:#222222;stroke-width:2.5;" x1="265.1872" x2="252.8128" y1="1646.3988" y2="1658.7731"/><path d="M289,1672.5859 L289,1688.7188 L269,1692.7188 L289,1696.7188 L289,1712.8516 A0,0 0 0 0 289,1712.8516 L600,1712.8516 A0,0 0 0 0 600,1712.8516 L600,1682.5859 L590,1672.5859 L289,1672.5859 A0,0 0 0 0 289,1672.5859 " fill="#FEFFDD" style="stroke:#181818;stroke-width:0.5;"/><path d="M590,1672.5859 L590,1682.5859 L600,1682.5859 L590,1672.5859 " fill="#FEFFDD" style="stroke:#181818;stroke-width:0.5;"/><text fill="#000000" font-family="sans-serif" font-size="13" lengthAdjust="spacing" textLength="290" x="295" y="1689.6528">void drawLine(UGraphic ug,double x,double y,</text><text fill="#000000" font-family="sans-serif" font-size="13" lengthAdjust="spacing" textLength="165" x="295" y="1704.7856">XPoint2D p1,XPoint2D p2)</text><ellipse cx="259" cy="1692.7188" fill="#222222" rx="10" ry="10" style="stroke:#222222;stroke-width:1.0;"/><rect fill="#F1F1F1" height="33.9688" rx="12.5" ry="12.5" style="stroke:#181818;stroke-width:0.5;" width="245" x="136.5" y="1732.8516"/><text fill="#000000" font-family="sans-serif" font-size="12" lengthAdjust="spacing" textLength="225" x="146.5" y="1753.9902">final double dx=p2.getX()-p1.getX();</text><rect fill="#F1F1F1" height="33.9688" rx="12.5" ry="12.5" style="stroke:#181818;stroke-width:0.5;" width="245" x="136.5" y="1786.8203"/><text fill="#000000" font-family="sans-serif" font-size="12" lengthAdjust="spacing" textLength="225" x="146.5" y="1807.959">final double dy=p2.getY()-p1.getY();</text><rect fill="#F1F1F1" height="47.9375" rx="12.5" ry="12.5" style="stroke:#181818;stroke-width:0.5;" width="467" x="25.5" y="1840.7891"/><text fill="#000000" font-family="sans-serif" font-size="12" lengthAdjust="spacing" textLength="447" x="35.5" y="1861.9277">ug.apply(new UTranslate(x+p1.getX(),y+p1.getY())).draw(new ULine(dx,</text><text fill="#000000" font-family="sans-serif" font-size="12" lengthAdjust="spacing" textLength="28" x="35.5" y="1875.8965">dy));</text><ellipse cx="259" cy="1918.7266" fill="none" rx="10" ry="10" style="stroke:#222222;stroke-width:1.5;"/><line style="stroke:#222222;stroke-width:2.5;" x1="252.8128" x2="265.1872" y1="1912.5394" y2="1924.9137"/><line style="stroke:#222222;stroke-width:2.5;" x1="265.1872" x2="252.8128" y1="1912.5394" y2="1924.9137"/><line style="stroke:#181818;stroke-width:1.0;" x1="259" x2="259" y1="32.5664" y2="55.1328"/><polygon fill="#181818" points="255,45.1328,259,55.1328,263,45.1328,259,49.1328" style="stroke:#181818;stroke-width:1.0;"/><line style="stroke:#181818;stroke-width:1.0;" x1="259" x2="259" y1="89.1016" y2="109.1016"/><polygon fill="#181818" points="255,99.1016,259,109.1016,263,99.1016,259,103.1016" style="stroke:#181818;stroke-width:1.0;"/><line style="stroke:#181818;stroke-width:1.0;" x1="259" x2="259" y1="201.2344" y2="231.3672"/><polygon fill="#181818" points="255,221.3672,259,231.3672,263,221.3672,259,225.3672" style="stroke:#181818;stroke-width:1.0;"/><line style="stroke:#181818;stroke-width:1.0;" x1="259" x2="259" y1="265.3359" y2="285.3359"/><polygon fill="#181818" points="255,275.3359,259,285.3359,263,275.3359,259,279.3359" style="stroke:#181818;stroke-width:1.0;"/><line style="stroke:#181818;stroke-width:1.0;" x1="259" x2="259" y1="319.3047" y2="339.3047"/><polygon fill="#181818" points="255,329.3047,259,339.3047,263,329.3047,259,333.3047" style="stroke:#181818;stroke-width:1.0;"/><line style="stroke:#181818;stroke-width:1.0;" x1="259" x2="259" y1="373.2734" y2="393.2734"/><polygon fill="#181818" points="255,383.2734,259,393.2734,263,383.2734,259,387.2734" style="stroke:#181818;stroke-width:1.0;"/><line style="stroke:#181818;stroke-width:1.0;" x1="259" x2="259" y1="445.8398" y2="468.4063"/><polygon fill="#181818" points="255,458.4063,259,468.4063,263,458.4063,259,462.4063" style="stroke:#181818;stroke-width:1.0;"/><line style="stroke:#181818;stroke-width:1.0;" x1="259" x2="259" y1="502.375" y2="522.375"/><polygon fill="#181818" points="255,512.375,259,522.375,263,512.375,259,516.375" style="stroke:#181818;stroke-width:1.0;"/><line style="stroke:#181818;stroke-width:1.0;" x1="259" x2="259" y1="556.3438" y2="576.3438"/><polygon fill="#181818" points="255,566.3438,259,576.3438,263,566.3438,259,570.3438" style="stroke:#181818;stroke-width:1.0;"/><line style="stroke:#181818;stroke-width:1.0;" x1="259" x2="259" y1="610.3125" y2="630.3125"/><polygon fill="#181818" points="255,620.3125,259,630.3125,263,620.3125,259,624.3125" style="stroke:#181818;stroke-width:1.0;"/><line style="stroke:#181818;stroke-width:1.0;" x1="259" x2="259" y1="664.2813" y2="684.2813"/><polygon fill="#181818" points="255,674.2813,259,684.2813,263,674.2813,259,678.2813" style="stroke:#181818;stroke-width:1.0;"/><line style="stroke:#181818;stroke-width:1.0;" x1="259" x2="259" y1="718.25" y2="738.25"/><polygon fill="#181818" points="255,728.25,259,738.25,263,728.25,259,732.25" style="stroke:#181818;stroke-width:1.0;"/><line style="stroke:#181818;stroke-width:1.0;" x1="259" x2="259" y1="772.2188" y2="792.2188"/><polygon fill="#181818" points="255,782.2188,259,792.2188,263,782.2188,259,786.2188" style="stroke:#181818;stroke-width:1.0;"/><line style="stroke:#181818;stroke-width:1.0;" x1="259" x2="259" y1="826.1875" y2="846.1875"/><polygon fill="#181818" points="255,836.1875,259,846.1875,263,836.1875,259,840.1875" style="stroke:#181818;stroke-width:1.0;"/><line style="stroke:#181818;stroke-width:1.0;" x1="259" x2="259" y1="880.1563" y2="900.1563"/><polygon fill="#181818" points="255,890.1563,259,900.1563,263,890.1563,259,894.1563" style="stroke:#181818;stroke-width:1.0;"/><line style="stroke:#181818;stroke-width:1.0;" x1="259" x2="259" y1="934.125" y2="954.125"/><polygon fill="#181818" points="255,944.125,259,954.125,263,944.125,259,948.125" style="stroke:#181818;stroke-width:1.0;"/><line style="stroke:#181818;stroke-width:1.0;" x1="259" x2="259" y1="1090.4648" y2="1125.4648"/><polygon fill="#181818" points="255,1115.4648,259,1125.4648,263,1115.4648,259,1119.4648" style="stroke:#181818;stroke-width:1.0;"/><line style="stroke:#181818;stroke-width:1.0;" x1="259" x2="259" y1="1032.0938" y2="1056.4961"/><polygon fill="#181818" points="255,1046.4961,259,1056.4961,263,1046.4961,259,1050.4961" style="stroke:#181818;stroke-width:1.0;"/><line style="stroke:#181818;stroke-width:1.0;" x1="376" x2="427" y1="1020.0938" y2="1020.0938"/><polygon fill="#181818" points="423,1097.9648,427,1107.9648,431,1097.9648,427,1101.9648" style="stroke:#181818;stroke-width:1.0;"/><line style="stroke:#181818;stroke-width:1.0;" x1="427" x2="427" y1="1020.0938" y2="1191.4336"/><line style="stroke:#181818;stroke-width:1.0;" x1="427" x2="271" y1="1191.4336" y2="1191.4336"/><polygon fill="#181818" points="281,1187.4336,271,1191.4336,281,1195.4336,277,1191.4336" style="stroke:#181818;stroke-width:1.0;"/><line style="stroke:#181818;stroke-width:1.0;" x1="259" x2="259" y1="1159.4336" y2="1179.4336"/><polygon fill="#181818" points="255,1169.4336,259,1179.4336,263,1169.4336,259,1173.4336" style="stroke:#181818;stroke-width:1.0;"/><line style="stroke:#181818;stroke-width:1.0;" x1="259" x2="259" y1="988.0938" y2="1008.0938"/><polygon fill="#181818" points="255,998.0938,259,1008.0938,263,998.0938,259,1002.0938" style="stroke:#181818;stroke-width:1.0;"/><line style="stroke:#181818;stroke-width:1.0;" x1="259" x2="259" y1="1305.8047" y2="1340.8047"/><polygon fill="#181818" points="255,1330.8047,259,1340.8047,263,1330.8047,259,1334.8047" style="stroke:#181818;stroke-width:1.0;"/><line style="stroke:#181818;stroke-width:1.0;" x1="259" x2="259" y1="1247.4336" y2="1271.8359"/><polygon fill="#181818" points="255,1261.8359,259,1271.8359,263,1261.8359,259,1265.8359" style="stroke:#181818;stroke-width:1.0;"/><line style="stroke:#181818;stroke-width:1.0;" x1="385.5" x2="427" y1="1235.4336" y2="1235.4336"/><polygon fill="#181818" points="423,1313.3047,427,1323.3047,431,1313.3047,427,1317.3047" style="stroke:#181818;stroke-width:1.0;"/><line style="stroke:#181818;stroke-width:1.0;" x1="427" x2="427" y1="1235.4336" y2="1406.7734"/><line style="stroke:#181818;stroke-width:1.0;" x1="427" x2="271" y1="1406.7734" y2="1406.7734"/><polygon fill="#181818" points="281,1402.7734,271,1406.7734,281,1410.7734,277,1406.7734" style="stroke:#181818;stroke-width:1.0;"/><line style="stroke:#181818;stroke-width:1.0;" x1="259" x2="259" y1="1374.7734" y2="1394.7734"/><polygon fill="#181818" points="255,1384.7734,259,1394.7734,263,1384.7734,259,1388.7734" style="stroke:#181818;stroke-width:1.0;"/><line style="stroke:#181818;stroke-width:1.0;" x1="259" x2="259" y1="1203.4336" y2="1223.4336"/><polygon fill="#181818" points="255,1213.4336,259,1223.4336,263,1213.4336,259,1217.4336" style="stroke:#181818;stroke-width:1.0;"/><line style="stroke:#181818;stroke-width:1.0;" x1="259" x2="259" y1="1418.7734" y2="1438.7734"/><polygon fill="#181818" points="255,1428.7734,259,1438.7734,263,1428.7734,259,1432.7734" style="stroke:#181818;stroke-width:1.0;"/><line style="stroke:#181818;stroke-width:1.0;" x1="259" x2="259" y1="1486.7109" y2="1506.7109"/><polygon fill="#181818" points="255,1496.7109,259,1506.7109,263,1496.7109,259,1500.7109" style="stroke:#181818;stroke-width:1.0;"/><line style="stroke:#181818;stroke-width:1.0;" x1="259" x2="259" y1="1554.6484" y2="1574.6484"/><polygon fill="#181818" points="255,1564.6484,259,1574.6484,263,1564.6484,259,1568.6484" style="stroke:#181818;stroke-width:1.0;"/><line style="stroke:#181818;stroke-width:1.0;" x1="259" x2="259" y1="1622.5859" y2="1642.5859"/><polygon fill="#181818" points="255,1632.5859,259,1642.5859,263,1632.5859,259,1636.5859" style="stroke:#181818;stroke-width:1.0;"/><line style="stroke:#181818;stroke-width:1.0;" x1="259" x2="259" y1="1702.7188" y2="1732.8516"/><polygon fill="#181818" points="255,1722.8516,259,1732.8516,263,1722.8516,259,1726.8516" style="stroke:#181818;stroke-width:1.0;"/><line style="stroke:#181818;stroke-width:1.0;" x1="259" x2="259" y1="1766.8203" y2="1786.8203"/><polygon fill="#181818" points="255,1776.8203,259,1786.8203,263,1776.8203,259,1780.8203" style="stroke:#181818;stroke-width:1.0;"/><line style="stroke:#181818;stroke-width:1.0;" x1="259" x2="259" y1="1820.7891" y2="1840.7891"/><polygon fill="#181818" points="255,1830.7891,259,1840.7891,263,1830.7891,259,1834.7891" style="stroke:#181818;stroke-width:1.0;"/><line style="stroke:#181818;stroke-width:1.0;" x1="259" x2="259" y1="1888.7266" y2="1908.7266"/><polygon fill="#181818" points="255,1898.7266,259,1908.7266,263,1898.7266,259,1902.7266" style="stroke:#181818;stroke-width:1.0;"/><!--MD5=[3eaba147c5fca42e44b1bf5d4882fabe]
@startuml
!pragma layout smetana
start
note right
XPoint2D somePoint()
end note
:return contact;;
stop
end
start
note right
constructor ExtremityCrowfoot(XPoint2D p1,
double angle,Side side)
end note
:this.contact=new XPoint2D(p1.getX(),p1.getY());;
:this.angle=manageround(angle+Math.PI/2);;
:this.side=side;;
end
start
note right
void drawU(UGraphic ug)
end note
:final int xWing=8;;
:final int yAperture=8;;
:final AffineTransform rotate=AffineTransform.getRotateInstance(this.angle);;
:XPoint2D middle=new XPoint2D(0,0);;
:XPoint2D left=new XPoint2D(0,-yAperture);;
:XPoint2D base=new XPoint2D(-xWing,0);;
:XPoint2D right=new XPoint2D(0,yAperture);;
:left=left.transform(rotate);;
:base=base.transform(rotate);;
:right=right.transform(rotate);;
if (side==Side.WEST||side==Side.EAST) then (yes) 
:left=new XPoint2D(middle.getX(),left.getY());;
:right=new XPoint2D(middle.getX(),right.getY());;
endif 
if (side==Side.SOUTH||side==Side.NORTH) then (yes) 
:left=new XPoint2D(left.getX(),middle.getY());;
:right=new XPoint2D(right.getX(),middle.getY());;
endif 
:drawLine(ug,contact.getX(),contact.getY(),
base,left);;
:drawLine(ug,contact.getX(),contact.getY(),
base,right);;
:drawLine(ug,contact.getX(),contact.getY(),
base,middle);;
end
start
note right
void drawLine(UGraphic ug,double x,double y,
XPoint2D p1,XPoint2D p2)
end note
:final double dx=p2.getX()-p1.getX();;
:final double dy=p2.getY()-p1.getY();;
:ug.apply(new UTranslate(x+p1.getX(),y+p1.getY())).draw(new ULine(dx,
dy));;
end
@enduml

PlantUML version 1.2022.7(Mon Aug 22 17:01:30 UTC 2022)
(GPL source distribution)
Java Runtime: OpenJDK Runtime Environment
JVM: OpenJDK 64-Bit Server VM
Default Encoding: UTF-8
Language: en
Country: null
--></g></svg>