<?xml version="1.0" encoding="UTF-8" standalone="no"?><svg xmlns="http://www.w3.org/2000/svg" xmlns:xlink="http://www.w3.org/1999/xlink" contentStyleType="text/css" height="301px" preserveAspectRatio="none" style="width:511px;height:301px;background:#FFFFFF;" version="1.1" viewBox="0 0 511 301" width="511px" zoomAndPan="magnify"><defs/><g><path d="M162,10 L162,18.5664 L142,22.5664 L162,26.5664 L162,35.1328 A0,0 0 0 0 162,35.1328 L499,35.1328 A0,0 0 0 0 499,35.1328 L499,20 L489,10 L162,10 A0,0 0 0 0 162,10 " fill="#FEFFDD" style="stroke:#181818;stroke-width:0.5;"/><path d="M489,10 L489,20 L499,20 L489,10 " fill="#FEFFDD" style="stroke:#181818;stroke-width:0.5;"/><text fill="#000000" font-family="sans-serif" font-size="13" lengthAdjust="spacing" textLength="316" x="168" y="27.0669">constructor MiddleFactoryCircle(HColorbackColor)</text><ellipse cx="132" cy="22.5664" fill="#222222" rx="10" ry="10" style="stroke:#222222;stroke-width:1.0;"/><rect fill="#F1F1F1" height="33.9688" rx="12.5" ry="12.5" style="stroke:#181818;stroke-width:0.5;" width="185" x="39.5" y="55.1328"/><text fill="#000000" font-family="sans-serif" font-size="12" lengthAdjust="spacing" textLength="165" x="49.5" y="76.2715">this.backColor=backColor;</text><ellipse cx="132" cy="119.1016" fill="none" rx="10" ry="10" style="stroke:#222222;stroke-width:1.5;"/><line style="stroke:#222222;stroke-width:2.5;" x1="125.8128" x2="138.1872" y1="112.9144" y2="125.2887"/><line style="stroke:#222222;stroke-width:2.5;" x1="138.1872" x2="125.8128" y1="112.9144" y2="125.2887"/><path d="M162,139.1016 L162,147.668 L142,151.668 L162,155.668 L162,164.2344 A0,0 0 0 0 162,164.2344 L450,164.2344 A0,0 0 0 0 450,164.2344 L450,149.1016 L440,139.1016 L162,139.1016 A0,0 0 0 0 162,139.1016 " fill="#FEFFDD" style="stroke:#181818;stroke-width:0.5;"/><path d="M440,139.1016 L440,149.1016 L450,149.1016 L440,139.1016 " fill="#FEFFDD" style="stroke:#181818;stroke-width:0.5;"/><text fill="#000000" font-family="sans-serif" font-size="13" lengthAdjust="spacing" textLength="267" x="168" y="156.1685">UDrawablecreateUDrawable(doubleangle)</text><ellipse cx="132" cy="151.668" fill="#222222" rx="10" ry="10" style="stroke:#222222;stroke-width:1.0;"/><rect fill="#F1F1F1" height="33.9688" rx="12.5" ry="12.5" style="stroke:#181818;stroke-width:0.5;" width="242" x="11" y="184.2344"/><text fill="#000000" font-family="sans-serif" font-size="12" lengthAdjust="spacing" textLength="222" x="21" y="205.373">return new MiddleCircle(backColor);</text><ellipse cx="132" cy="249.2031" fill="none" rx="11" ry="11" style="stroke:#222222;stroke-width:1.0;"/><ellipse cx="132" cy="249.2031" fill="#222222" rx="6" ry="6" style="stroke:#111111;stroke-width:1.0;"/><ellipse cx="132" cy="280.2031" fill="none" rx="10" ry="10" style="stroke:#222222;stroke-width:1.5;"/><line style="stroke:#222222;stroke-width:2.5;" x1="125.8128" x2="138.1872" y1="274.0159" y2="286.3903"/><line style="stroke:#222222;stroke-width:2.5;" x1="138.1872" x2="125.8128" y1="274.0159" y2="286.3903"/><line style="stroke:#181818;stroke-width:1.0;" x1="132" x2="132" y1="32.5664" y2="55.1328"/><polygon fill="#181818" points="128,45.1328,132,55.1328,136,45.1328,132,49.1328" style="stroke:#181818;stroke-width:1.0;"/><line style="stroke:#181818;stroke-width:1.0;" x1="132" x2="132" y1="89.1016" y2="109.1016"/><polygon fill="#181818" points="128,99.1016,132,109.1016,136,99.1016,132,103.1016" style="stroke:#181818;stroke-width:1.0;"/><line style="stroke:#181818;stroke-width:1.0;" x1="132" x2="132" y1="161.668" y2="184.2344"/><polygon fill="#181818" points="128,174.2344,132,184.2344,136,174.2344,132,178.2344" style="stroke:#181818;stroke-width:1.0;"/><line style="stroke:#181818;stroke-width:1.0;" x1="132" x2="132" y1="218.2031" y2="238.2031"/><polygon fill="#181818" points="128,228.2031,132,238.2031,136,228.2031,132,232.2031" style="stroke:#181818;stroke-width:1.0;"/><!--MD5=[274e1d50e0ee323a593fc5ae819641e6]
@startuml
!pragma layout smetana
start
note right
constructor MiddleFactoryCircle(HColorbackColor)
end note
:this.backColor=backColor;;
end
start
note right
UDrawablecreateUDrawable(doubleangle)
end note
:return new MiddleCircle(backColor);;
stop
end
@enduml

PlantUML version 1.2022.7(Mon Aug 22 17:01:30 UTC 2022)
(GPL source distribution)
Java Runtime: OpenJDK Runtime Environment
JVM: OpenJDK 64-Bit Server VM
Default Encoding: UTF-8
Language: en
Country: null
--></g></svg>