<?xml version="1.0" encoding="UTF-8" standalone="no"?><svg xmlns="http://www.w3.org/2000/svg" xmlns:xlink="http://www.w3.org/1999/xlink" contentStyleType="text/css" height="2637px" preserveAspectRatio="none" style="width:1253px;height:2637px;background:#FFFFFF;" version="1.1" viewBox="0 0 1253 2637" width="1253px" zoomAndPan="magnify"><defs/><g><path d="M656.5,10 L656.5,18.5664 L636.5,22.5664 L656.5,26.5664 L656.5,35.1328 A0,0 0 0 0 656.5,35.1328 L965.5,35.1328 A0,0 0 0 0 965.5,35.1328 L965.5,20 L955.5,10 L656.5,10 A0,0 0 0 0 656.5,10 " fill="#FEFFDD" style="stroke:#181818;stroke-width:0.5;"/><path d="M955.5,10 L955.5,20 L965.5,20 L955.5,10 " fill="#FEFFDD" style="stroke:#181818;stroke-width:0.5;"/><text fill="#000000" font-family="sans-serif" font-size="13" lengthAdjust="spacing" textLength="288" x="662.5" y="27.0669">constructor CommandCreateJsonSingleLine()</text><ellipse cx="626.5" cy="22.5664" fill="#222222" rx="10" ry="10" style="stroke:#222222;stroke-width:1.0;"/><rect fill="#F1F1F1" height="33.9688" rx="12.5" ry="12.5" style="stroke:#181818;stroke-width:0.5;" width="187" x="533" y="55.1328"/><text fill="#000000" font-family="sans-serif" font-size="12" lengthAdjust="spacing" textLength="167" x="543" y="76.2715">super (getRegexConcat());</text><ellipse cx="626.5" cy="119.1016" fill="none" rx="10" ry="10" style="stroke:#222222;stroke-width:1.5;"/><line style="stroke:#222222;stroke-width:2.5;" x1="620.3128" x2="632.6872" y1="112.9144" y2="125.2887"/><line style="stroke:#222222;stroke-width:2.5;" x1="632.6872" x2="620.3128" y1="112.9144" y2="125.2887"/><path d="M656.5,139.1016 L656.5,147.668 L636.5,151.668 L656.5,155.668 L656.5,164.2344 A0,0 0 0 0 656.5,164.2344 L838.5,164.2344 A0,0 0 0 0 838.5,164.2344 L838.5,149.1016 L828.5,139.1016 L656.5,139.1016 A0,0 0 0 0 656.5,139.1016 " fill="#FEFFDD" style="stroke:#181818;stroke-width:0.5;"/><path d="M828.5,139.1016 L828.5,149.1016 L838.5,149.1016 L828.5,139.1016 " fill="#FEFFDD" style="stroke:#181818;stroke-width:0.5;"/><text fill="#000000" font-family="sans-serif" font-size="13" lengthAdjust="spacing" textLength="161" x="662.5" y="156.1685">IRegex getRegexConcat()</text><ellipse cx="626.5" cy="151.668" fill="#222222" rx="10" ry="10" style="stroke:#222222;stroke-width:1.0;"/><rect fill="#F1F1F1" height="103.8125" rx="12.5" ry="12.5" style="stroke:#181818;stroke-width:0.5;" width="1231" x="11" y="184.2344"/><text fill="#000000" font-family="sans-serif" font-size="12" lengthAdjust="spacing" textLength="1211" x="21" y="205.373">return RegexConcat.build(CommandCreateJsonSingleLine.class .getName(),RegexLeaf.start(),new RegexLeaf("TYPE","json"),RegexLeaf.spaceOneOrMore(),new RegexLeaf("NAME","(?:[%g]([^%g]+</text><text fill="#000000" font-family="sans-serif" font-size="12" lengthAdjust="spacing" textLength="639" x="21" y="219.3418">)[%g][%s]+as[%s]+)?([%pLN_.]+)"),RegexLeaf.spaceZeroOrMore(),new RegexLeaf("STEREO","(\\&lt;\\&lt;.+</text><text fill="#000000" font-family="sans-serif" font-size="12" lengthAdjust="spacing" textLength="416" x="21" y="233.3105">\\&gt;\\&gt;)?"),RegexLeaf.spaceZeroOrMore(),new RegexLeaf("URL","("+</text><text fill="#000000" font-family="sans-serif" font-size="12" lengthAdjust="spacing" textLength="376" x="21" y="247.2793">UrlBuilder.getRegexp()+")?"),RegexLeaf.spaceZeroOrMore(),</text><text fill="#000000" font-family="sans-serif" font-size="12" lengthAdjust="spacing" textLength="316" x="21" y="261.248">ColorParser.exp1(),RegexLeaf.spaceZeroOrMore(),</text><text fill="#000000" font-family="sans-serif" font-size="12" lengthAdjust="spacing" textLength="326" x="21" y="275.2168">new RegexLeaf("DATA","(\\{.*\\})"),RegexLeaf.end());</text><ellipse cx="626.5" cy="319.0469" fill="none" rx="11" ry="11" style="stroke:#222222;stroke-width:1.0;"/><ellipse cx="626.5" cy="319.0469" fill="#222222" rx="6" ry="6" style="stroke:#111111;stroke-width:1.0;"/><ellipse cx="626.5" cy="350.0469" fill="none" rx="10" ry="10" style="stroke:#222222;stroke-width:1.5;"/><line style="stroke:#222222;stroke-width:2.5;" x1="620.3128" x2="632.6872" y1="343.8597" y2="356.2341"/><line style="stroke:#222222;stroke-width:2.5;" x1="632.6872" x2="620.3128" y1="343.8597" y2="356.2341"/><path d="M656.5,370.0469 L656.5,386.1797 L636.5,390.1797 L656.5,394.1797 L656.5,410.3125 A0,0 0 0 0 656.5,410.3125 L1187.5,410.3125 A0,0 0 0 0 1187.5,410.3125 L1187.5,380.0469 L1177.5,370.0469 L656.5,370.0469 A0,0 0 0 0 656.5,370.0469 " fill="#FEFFDD" style="stroke:#181818;stroke-width:0.5;"/><path d="M1177.5,370.0469 L1177.5,380.0469 L1187.5,380.0469 L1177.5,370.0469 " fill="#FEFFDD" style="stroke:#181818;stroke-width:0.5;"/><text fill="#000000" font-family="sans-serif" font-size="13" lengthAdjust="spacing" textLength="510" x="662.5" y="387.1138">CommandExecutionResult executeArg(AbstractClassOrObjectDiagram diagram,</text><text fill="#000000" font-family="sans-serif" font-size="13" lengthAdjust="spacing" textLength="246" x="662.5" y="402.2466">LineLocation location,RegexResult arg)</text><ellipse cx="626.5" cy="390.1797" fill="#222222" rx="10" ry="10" style="stroke:#222222;stroke-width:1.0;"/><rect fill="#F1F1F1" height="33.9688" rx="12.5" ry="12.5" style="stroke:#181818;stroke-width:0.5;" width="253" x="500" y="430.3125"/><text fill="#000000" font-family="sans-serif" font-size="12" lengthAdjust="spacing" textLength="233" x="510" y="451.4512">final String name=arg.get("NAME",1);</text><rect fill="#F1F1F1" height="33.9688" rx="12.5" ry="12.5" style="stroke:#181818;stroke-width:0.5;" width="244" x="504.5" y="484.2813"/><text fill="#000000" font-family="sans-serif" font-size="12" lengthAdjust="spacing" textLength="224" x="514.5" y="505.4199">final String data=arg.get("DATA",0);</text><rect fill="#F1F1F1" height="47.9375" rx="12.5" ry="12.5" style="stroke:#181818;stroke-width:0.5;" width="284" x="484.5" y="538.25"/><text fill="#000000" font-family="sans-serif" font-size="12" lengthAdjust="spacing" textLength="264" x="494.5" y="559.3887">final IEntity entity1=executeArg0(diagram,</text><text fill="#000000" font-family="sans-serif" font-size="12" lengthAdjust="spacing" textLength="30" x="494.5" y="573.3574">arg);</text><rect fill="#F1F1F1" height="33.9688" rx="12.5" ry="12.5" style="stroke:#181818;stroke-width:0.5;" width="374" x="439.5" y="654.5898"/><text fill="#000000" font-family="sans-serif" font-size="12" lengthAdjust="spacing" textLength="354" x="449.5" y="675.7285">return CommandExecutionResult.error("No such entity");</text><ellipse cx="626.5" cy="728.0742" fill="none" rx="11" ry="11" style="stroke:#222222;stroke-width:1.0;"/><ellipse cx="626.5" cy="728.0742" fill="#222222" rx="6" ry="6" style="stroke:#111111;stroke-width:1.0;"/><polygon fill="#F1F1F1" points="586.5,606.1875,666.5,606.1875,678.5,618.1875,666.5,630.1875,586.5,630.1875,574.5,618.1875,586.5,606.1875" style="stroke:#181818;stroke-width:0.5;"/><text fill="#000000" font-family="sans-serif" font-size="11" lengthAdjust="spacing" textLength="20" x="630.5" y="640.3979">yes</text><text fill="#000000" font-family="sans-serif" font-size="11" lengthAdjust="spacing" textLength="76" x="586.5" y="621.9956">entity1==null</text><rect fill="#F1F1F1" height="33.9688" rx="12.5" ry="12.5" style="stroke:#181818;stroke-width:0.5;" width="276" x="488.5" y="781.0742"/><text fill="#000000" font-family="sans-serif" font-size="12" lengthAdjust="spacing" textLength="256" x="498.5" y="802.2129">final JsonValue json=getJsonValue(data);</text><rect fill="#F1F1F1" height="33.9688" rx="12.5" ry="12.5" style="stroke:#181818;stroke-width:0.5;" width="341" x="456" y="883.4453"/><text fill="#000000" font-family="sans-serif" font-size="12" lengthAdjust="spacing" textLength="321" x="466" y="904.584">return CommandExecutionResult.error("Bad data");</text><ellipse cx="626.5" cy="956.9297" fill="none" rx="11" ry="11" style="stroke:#222222;stroke-width:1.0;"/><ellipse cx="626.5" cy="956.9297" fill="#222222" rx="6" ry="6" style="stroke:#111111;stroke-width:1.0;"/><polygon fill="#F1F1F1" points="593.5,835.043,659.5,835.043,671.5,847.043,659.5,859.043,593.5,859.043,581.5,847.043,593.5,835.043" style="stroke:#181818;stroke-width:0.5;"/><text fill="#000000" font-family="sans-serif" font-size="11" lengthAdjust="spacing" textLength="20" x="630.5" y="869.2534">yes</text><text fill="#000000" font-family="sans-serif" font-size="11" lengthAdjust="spacing" textLength="62" x="593.5" y="850.8511">json==null</text><rect fill="#F1F1F1" height="33.9688" rx="12.5" ry="12.5" style="stroke:#181818;stroke-width:0.5;" width="319" x="467" y="1009.9297"/><text fill="#000000" font-family="sans-serif" font-size="12" lengthAdjust="spacing" textLength="299" x="477" y="1031.0684">((BodierJSon )entity1.getBodier()).setJson(json);</text><rect fill="#F1F1F1" height="33.9688" rx="12.5" ry="12.5" style="stroke:#181818;stroke-width:0.5;" width="258" x="497.5" y="1063.8984"/><text fill="#000000" font-family="sans-serif" font-size="12" lengthAdjust="spacing" textLength="238" x="507.5" y="1085.0371">return CommandExecutionResult.ok();</text><ellipse cx="626.5" cy="1128.8672" fill="none" rx="11" ry="11" style="stroke:#222222;stroke-width:1.0;"/><ellipse cx="626.5" cy="1128.8672" fill="#222222" rx="6" ry="6" style="stroke:#111111;stroke-width:1.0;"/><ellipse cx="626.5" cy="1159.8672" fill="none" rx="10" ry="10" style="stroke:#222222;stroke-width:1.5;"/><line style="stroke:#222222;stroke-width:2.5;" x1="620.3128" x2="632.6872" y1="1153.68" y2="1166.0544"/><line style="stroke:#222222;stroke-width:2.5;" x1="632.6872" x2="620.3128" y1="1153.68" y2="1166.0544"/><path d="M656.5,1179.8672 L656.5,1188.4336 L636.5,1192.4336 L656.5,1196.4336 L656.5,1205 A0,0 0 0 0 656.5,1205 L907.5,1205 A0,0 0 0 0 907.5,1205 L907.5,1189.8672 L897.5,1179.8672 L656.5,1179.8672 A0,0 0 0 0 656.5,1179.8672 " fill="#FEFFDD" style="stroke:#181818;stroke-width:0.5;"/><path d="M897.5,1179.8672 L897.5,1189.8672 L907.5,1189.8672 L897.5,1179.8672 " fill="#FEFFDD" style="stroke:#181818;stroke-width:0.5;"/><text fill="#000000" font-family="sans-serif" font-size="13" lengthAdjust="spacing" textLength="230" x="662.5" y="1196.9341">JsonValue getJsonValue(String data)</text><ellipse cx="626.5" cy="1192.4336" fill="#222222" rx="10" ry="10" style="stroke:#222222;stroke-width:1.0;"/><polygon fill="#F1F1F1" points="585.5,1225,667.5,1225,679.5,1237,667.5,1249,585.5,1249,573.5,1237,585.5,1225" style="stroke:#181818;stroke-width:0.5;"/><text fill="#000000" font-family="sans-serif" font-size="11" lengthAdjust="spacing" textLength="82" x="585.5" y="1240.8081">try/catch block</text><rect fill="#F1F1F1" height="33.9688" rx="12.5" ry="12.5" style="stroke:#181818;stroke-width:0.5;" width="343" x="368.25" y="1284.6094"/><text fill="#000000" font-family="sans-serif" font-size="12" lengthAdjust="spacing" textLength="323" x="378.25" y="1305.748">final DefaultHandler handler=new DefaultHandler();</text><rect fill="#F1F1F1" height="33.9688" rx="12.5" ry="12.5" style="stroke:#181818;stroke-width:0.5;" width="257" x="411.25" y="1338.5781"/><text fill="#000000" font-family="sans-serif" font-size="12" lengthAdjust="spacing" textLength="237" x="421.25" y="1359.7168">new JsonParser(handler).parse(data);</text><rect fill="#F1F1F1" height="33.9688" rx="12.5" ry="12.5" style="stroke:#181818;stroke-width:0.5;" width="273" x="403.25" y="1392.5469"/><text fill="#000000" font-family="sans-serif" font-size="12" lengthAdjust="spacing" textLength="253" x="413.25" y="1413.6855">final JsonValue json=handler.getValue();</text><rect fill="#F1F1F1" height="33.9688" rx="12.5" ry="12.5" style="stroke:#181818;stroke-width:0.5;" width="93" x="493.25" y="1446.5156"/><text fill="#000000" font-family="sans-serif" font-size="12" lengthAdjust="spacing" textLength="73" x="503.25" y="1467.6543">return json;</text><ellipse cx="539.75" cy="1511.4844" fill="none" rx="11" ry="11" style="stroke:#222222;stroke-width:1.0;"/><ellipse cx="539.75" cy="1511.4844" fill="#222222" rx="6" ry="6" style="stroke:#111111;stroke-width:1.0;"/><rect fill="#F1F1F1" height="33.9688" rx="12.5" ry="12.5" style="stroke:#181818;stroke-width:0.5;" width="93" x="731.25" y="1284.6094"/><text fill="#000000" font-family="sans-serif" font-size="12" lengthAdjust="spacing" textLength="73" x="741.25" y="1305.748">return null ;</text><ellipse cx="777.75" cy="1349.5781" fill="none" rx="11" ry="11" style="stroke:#222222;stroke-width:1.0;"/><ellipse cx="777.75" cy="1349.5781" fill="#222222" rx="6" ry="6" style="stroke:#111111;stroke-width:1.0;"/><ellipse cx="626.5" cy="1542.4844" fill="none" rx="10" ry="10" style="stroke:#222222;stroke-width:1.5;"/><line style="stroke:#222222;stroke-width:2.5;" x1="620.3128" x2="632.6872" y1="1536.2972" y2="1548.6716"/><line style="stroke:#222222;stroke-width:2.5;" x1="632.6872" x2="620.3128" y1="1536.2972" y2="1548.6716"/><path d="M656.5,1562.4844 L656.5,1578.6172 L636.5,1582.6172 L656.5,1586.6172 L656.5,1602.75 A0,0 0 0 0 656.5,1602.75 L1066.5,1602.75 A0,0 0 0 0 1066.5,1602.75 L1066.5,1572.4844 L1056.5,1562.4844 L656.5,1562.4844 A0,0 0 0 0 656.5,1562.4844 " fill="#FEFFDD" style="stroke:#181818;stroke-width:0.5;"/><path d="M1056.5,1562.4844 L1056.5,1572.4844 L1066.5,1572.4844 L1056.5,1562.4844 " fill="#FEFFDD" style="stroke:#181818;stroke-width:0.5;"/><text fill="#000000" font-family="sans-serif" font-size="13" lengthAdjust="spacing" textLength="389" x="662.5" y="1579.5513">IEntity executeArg0(AbstractClassOrObjectDiagram diagram,</text><text fill="#000000" font-family="sans-serif" font-size="13" lengthAdjust="spacing" textLength="117" x="662.5" y="1594.6841">RegexResult line0)</text><ellipse cx="626.5" cy="1582.6172" fill="#222222" rx="10" ry="10" style="stroke:#222222;stroke-width:1.0;"/><rect fill="#F1F1F1" height="33.9688" rx="12.5" ry="12.5" style="stroke:#181818;stroke-width:0.5;" width="262" x="495.5" y="1622.75"/><text fill="#000000" font-family="sans-serif" font-size="12" lengthAdjust="spacing" textLength="242" x="505.5" y="1643.8887">final String name=line0.get("NAME",1);</text><rect fill="#F1F1F1" height="33.9688" rx="12.5" ry="12.5" style="stroke:#181818;stroke-width:0.5;" width="320" x="466.5" y="1676.7188"/><text fill="#000000" font-family="sans-serif" font-size="12" lengthAdjust="spacing" textLength="300" x="476.5" y="1697.8574">final Ident ident=diagram.buildLeafIdent(name);</text><rect fill="#F1F1F1" height="33.9688" rx="12.5" ry="12.5" style="stroke:#181818;stroke-width:0.5;" width="444" x="404.5" y="1730.6875"/><text fill="#000000" font-family="sans-serif" font-size="12" lengthAdjust="spacing" textLength="424" x="414.5" y="1751.8262">final Code code=diagram.V1972()? ident:diagram.buildCode(name);</text><rect fill="#F1F1F1" height="33.9688" rx="12.5" ry="12.5" style="stroke:#181818;stroke-width:0.5;" width="270" x="491.5" y="1784.6563"/><text fill="#000000" font-family="sans-serif" font-size="12" lengthAdjust="spacing" textLength="250" x="501.5" y="1805.7949">final String display=line0.get("NAME",0);</text><rect fill="#F1F1F1" height="33.9688" rx="12.5" ry="12.5" style="stroke:#181818;stroke-width:0.5;" width="308" x="472.5" y="1838.625"/><text fill="#000000" font-family="sans-serif" font-size="12" lengthAdjust="spacing" textLength="288" x="482.5" y="1859.7637">final String stereotype=line0.get("STEREO",0);</text><rect fill="#F1F1F1" height="33.9688" rx="12.5" ry="12.5" style="stroke:#181818;stroke-width:0.5;" width="624" x="314.5" y="1892.5938"/><text fill="#000000" font-family="sans-serif" font-size="12" lengthAdjust="spacing" textLength="604" x="324.5" y="1913.7324">final boolean leafExist=diagram.V1972()? diagram.leafExistSmart(ident):diagram.leafExist(code);</text><rect fill="#F1F1F1" height="47.9375" rx="12.5" ry="12.5" style="stroke:#181818;stroke-width:0.5;" width="418" x="417.5" y="1994.9648"/><text fill="#000000" font-family="sans-serif" font-size="12" lengthAdjust="spacing" textLength="398" x="427.5" y="2016.1035">return diagram.getOrCreateLeaf(diagram.buildLeafIdent(name),</text><text fill="#000000" font-family="sans-serif" font-size="12" lengthAdjust="spacing" textLength="162" x="427.5" y="2030.0723">code,LeafType.JSON,null );</text><ellipse cx="626.5" cy="2075.4336" fill="none" rx="11" ry="11" style="stroke:#222222;stroke-width:1.0;"/><ellipse cx="626.5" cy="2075.4336" fill="#222222" rx="6" ry="6" style="stroke:#111111;stroke-width:1.0;"/><polygon fill="#F1F1F1" points="602.5,1946.5625,650.5,1946.5625,662.5,1958.5625,650.5,1970.5625,602.5,1970.5625,590.5,1958.5625,602.5,1946.5625" style="stroke:#181818;stroke-width:0.5;"/><text fill="#000000" font-family="sans-serif" font-size="11" lengthAdjust="spacing" textLength="20" x="630.5" y="1980.7729">yes</text><text fill="#000000" font-family="sans-serif" font-size="11" lengthAdjust="spacing" textLength="48" x="602.5" y="1962.3706">leafExist</text><rect fill="#F1F1F1" height="61.9063" rx="12.5" ry="12.5" style="stroke:#181818;stroke-width:0.5;" width="355" x="449" y="2128.4336"/><text fill="#000000" font-family="sans-serif" font-size="12" lengthAdjust="spacing" textLength="280" x="459" y="2149.5723">final IEntity entity=diagram.createLeaf(ident,</text><text fill="#000000" font-family="sans-serif" font-size="12" lengthAdjust="spacing" textLength="335" x="459" y="2163.541">code,Display.getWithNewlines(display),LeafType.JSON,</text><text fill="#000000" font-family="sans-serif" font-size="12" lengthAdjust="spacing" textLength="35" x="459" y="2177.5098">null );</text><rect fill="#F1F1F1" height="75.875" rx="12.5" ry="12.5" style="stroke:#181818;stroke-width:0.5;" width="514" x="369.5" y="2258.7422"/><text fill="#000000" font-family="sans-serif" font-size="12" lengthAdjust="spacing" textLength="313" x="379.5" y="2279.8809">entity.setStereotype(Stereotype.build(stereotype,</text><text fill="#000000" font-family="sans-serif" font-size="12" lengthAdjust="spacing" textLength="337" x="379.5" y="2293.8496">diagram.getSkinParam().getCircledCharacterRadius(),</text><text fill="#000000" font-family="sans-serif" font-size="12" lengthAdjust="spacing" textLength="274" x="379.5" y="2307.8184">diagram.getSkinParam().getFont(null ,false,</text><text fill="#000000" font-family="sans-serif" font-size="12" lengthAdjust="spacing" textLength="494" x="379.5" y="2321.7871">FontParam.CIRCLED_CHARACTER),diagram.getSkinParam().getIHtmlColorSet()));</text><polygon fill="#F1F1F1" points="578,2210.3398,675,2210.3398,687,2222.3398,675,2234.3398,578,2234.3398,566,2222.3398,578,2210.3398" style="stroke:#181818;stroke-width:0.5;"/><text fill="#000000" font-family="sans-serif" font-size="11" lengthAdjust="spacing" textLength="20" x="630.5" y="2244.5503">yes</text><text fill="#000000" font-family="sans-serif" font-size="11" lengthAdjust="spacing" textLength="93" x="578" y="2226.1479">stereotype!=null</text><polygon fill="#F1F1F1" points="626.5,2354.6172,638.5,2366.6172,626.5,2378.6172,614.5,2366.6172,626.5,2354.6172" style="stroke:#181818;stroke-width:0.5;"/><rect fill="#F1F1F1" height="33.9688" rx="12.5" ry="12.5" style="stroke:#181818;stroke-width:0.5;" width="239" x="507" y="2398.6172"/><text fill="#000000" font-family="sans-serif" font-size="12" lengthAdjust="spacing" textLength="219" x="517" y="2419.7559">final String s=line0.get("COLOR",0);</text><rect fill="#F1F1F1" height="47.9375" rx="12.5" ry="12.5" style="stroke:#181818;stroke-width:0.5;" width="467" x="393" y="2452.5859"/><text fill="#000000" font-family="sans-serif" font-size="12" lengthAdjust="spacing" textLength="336" x="403" y="2473.7246">entity.setSpecificColorTOBEREMOVED(ColorType.BACK,</text><text fill="#000000" font-family="sans-serif" font-size="12" lengthAdjust="spacing" textLength="447" x="403" y="2487.6934">s==null ? null :diagram.getSkinParam().getIHtmlColorSet().getColor(s));</text><rect fill="#F1F1F1" height="33.9688" rx="12.5" ry="12.5" style="stroke:#181818;stroke-width:0.5;" width="102" x="575.5" y="2520.5234"/><text fill="#000000" font-family="sans-serif" font-size="12" lengthAdjust="spacing" textLength="82" x="585.5" y="2541.6621">return entity;</text><ellipse cx="626.5" cy="2585.4922" fill="none" rx="11" ry="11" style="stroke:#222222;stroke-width:1.0;"/><ellipse cx="626.5" cy="2585.4922" fill="#222222" rx="6" ry="6" style="stroke:#111111;stroke-width:1.0;"/><ellipse cx="626.5" cy="2616.4922" fill="none" rx="10" ry="10" style="stroke:#222222;stroke-width:1.5;"/><line style="stroke:#222222;stroke-width:2.5;" x1="620.3128" x2="632.6872" y1="2610.305" y2="2622.6794"/><line style="stroke:#222222;stroke-width:2.5;" x1="632.6872" x2="620.3128" y1="2610.305" y2="2622.6794"/><line style="stroke:#181818;stroke-width:1.0;" x1="626.5" x2="626.5" y1="32.5664" y2="55.1328"/><polygon fill="#181818" points="622.5,45.1328,626.5,55.1328,630.5,45.1328,626.5,49.1328" style="stroke:#181818;stroke-width:1.0;"/><line style="stroke:#181818;stroke-width:1.0;" x1="626.5" x2="626.5" y1="89.1016" y2="109.1016"/><polygon fill="#181818" points="622.5,99.1016,626.5,109.1016,630.5,99.1016,626.5,103.1016" style="stroke:#181818;stroke-width:1.0;"/><line style="stroke:#181818;stroke-width:1.0;" x1="626.5" x2="626.5" y1="161.668" y2="184.2344"/><polygon fill="#181818" points="622.5,174.2344,626.5,184.2344,630.5,174.2344,626.5,178.2344" style="stroke:#181818;stroke-width:1.0;"/><line style="stroke:#181818;stroke-width:1.0;" x1="626.5" x2="626.5" y1="288.0469" y2="308.0469"/><polygon fill="#181818" points="622.5,298.0469,626.5,308.0469,630.5,298.0469,626.5,302.0469" style="stroke:#181818;stroke-width:1.0;"/><line style="stroke:#181818;stroke-width:1.0;" x1="626.5" x2="626.5" y1="400.1797" y2="430.3125"/><polygon fill="#181818" points="622.5,420.3125,626.5,430.3125,630.5,420.3125,626.5,424.3125" style="stroke:#181818;stroke-width:1.0;"/><line style="stroke:#181818;stroke-width:1.0;" x1="626.5" x2="626.5" y1="464.2813" y2="484.2813"/><polygon fill="#181818" points="622.5,474.2813,626.5,484.2813,630.5,474.2813,626.5,478.2813" style="stroke:#181818;stroke-width:1.0;"/><line style="stroke:#181818;stroke-width:1.0;" x1="626.5" x2="626.5" y1="518.25" y2="538.25"/><polygon fill="#181818" points="622.5,528.25,626.5,538.25,630.5,528.25,626.5,532.25" style="stroke:#181818;stroke-width:1.0;"/><line style="stroke:#181818;stroke-width:1.0;" x1="626.5" x2="626.5" y1="688.5586" y2="717.0742"/><polygon fill="#181818" points="622.5,707.0742,626.5,717.0742,630.5,707.0742,626.5,711.0742" style="stroke:#181818;stroke-width:1.0;"/><line style="stroke:#181818;stroke-width:1.0;" x1="626.5" x2="626.5" y1="630.1875" y2="654.5898"/><polygon fill="#181818" points="622.5,644.5898,626.5,654.5898,630.5,644.5898,626.5,648.5898" style="stroke:#181818;stroke-width:1.0;"/><line style="stroke:#181818;stroke-width:1.0;" x1="678.5" x2="823.5" y1="618.1875" y2="618.1875"/><polygon fill="#181818" points="819.5,687.0742,823.5,697.0742,827.5,687.0742,823.5,691.0742" style="stroke:#181818;stroke-width:1.0;"/><line style="stroke:#181818;stroke-width:1.0;" x1="823.5" x2="823.5" y1="618.1875" y2="761.0742"/><line style="stroke:#181818;stroke-width:1.0;" x1="823.5" x2="626.5" y1="761.0742" y2="761.0742"/><line style="stroke:#181818;stroke-width:1.0;" x1="626.5" x2="626.5" y1="761.0742" y2="781.0742"/><polygon fill="#181818" points="622.5,771.0742,626.5,781.0742,630.5,771.0742,626.5,775.0742" style="stroke:#181818;stroke-width:1.0;"/><line style="stroke:#181818;stroke-width:1.0;" x1="626.5" x2="626.5" y1="586.1875" y2="606.1875"/><polygon fill="#181818" points="622.5,596.1875,626.5,606.1875,630.5,596.1875,626.5,600.1875" style="stroke:#181818;stroke-width:1.0;"/><line style="stroke:#181818;stroke-width:1.0;" x1="626.5" x2="626.5" y1="917.4141" y2="945.9297"/><polygon fill="#181818" points="622.5,935.9297,626.5,945.9297,630.5,935.9297,626.5,939.9297" style="stroke:#181818;stroke-width:1.0;"/><line style="stroke:#181818;stroke-width:1.0;" x1="626.5" x2="626.5" y1="859.043" y2="883.4453"/><polygon fill="#181818" points="622.5,873.4453,626.5,883.4453,630.5,873.4453,626.5,877.4453" style="stroke:#181818;stroke-width:1.0;"/><line style="stroke:#181818;stroke-width:1.0;" x1="671.5" x2="807" y1="847.043" y2="847.043"/><polygon fill="#181818" points="803,915.9297,807,925.9297,811,915.9297,807,919.9297" style="stroke:#181818;stroke-width:1.0;"/><line style="stroke:#181818;stroke-width:1.0;" x1="807" x2="807" y1="847.043" y2="989.9297"/><line style="stroke:#181818;stroke-width:1.0;" x1="807" x2="626.5" y1="989.9297" y2="989.9297"/><line style="stroke:#181818;stroke-width:1.0;" x1="626.5" x2="626.5" y1="989.9297" y2="1009.9297"/><polygon fill="#181818" points="622.5,999.9297,626.5,1009.9297,630.5,999.9297,626.5,1003.9297" style="stroke:#181818;stroke-width:1.0;"/><line style="stroke:#181818;stroke-width:1.0;" x1="626.5" x2="626.5" y1="815.043" y2="835.043"/><polygon fill="#181818" points="622.5,825.043,626.5,835.043,630.5,825.043,626.5,829.043" style="stroke:#181818;stroke-width:1.0;"/><line style="stroke:#181818;stroke-width:1.0;" x1="626.5" x2="626.5" y1="1043.8984" y2="1063.8984"/><polygon fill="#181818" points="622.5,1053.8984,626.5,1063.8984,630.5,1053.8984,626.5,1057.8984" style="stroke:#181818;stroke-width:1.0;"/><line style="stroke:#181818;stroke-width:1.0;" x1="626.5" x2="626.5" y1="1097.8672" y2="1117.8672"/><polygon fill="#181818" points="622.5,1107.8672,626.5,1117.8672,630.5,1107.8672,626.5,1111.8672" style="stroke:#181818;stroke-width:1.0;"/><line style="stroke:#181818;stroke-width:1.0;" x1="539.75" x2="539.75" y1="1318.5781" y2="1338.5781"/><polygon fill="#181818" points="535.75,1328.5781,539.75,1338.5781,543.75,1328.5781,539.75,1332.5781" style="stroke:#181818;stroke-width:1.0;"/><line style="stroke:#181818;stroke-width:1.0;" x1="539.75" x2="539.75" y1="1372.5469" y2="1392.5469"/><polygon fill="#181818" points="535.75,1382.5469,539.75,1392.5469,543.75,1382.5469,539.75,1386.5469" style="stroke:#181818;stroke-width:1.0;"/><line style="stroke:#181818;stroke-width:1.0;" x1="539.75" x2="539.75" y1="1426.5156" y2="1446.5156"/><polygon fill="#181818" points="535.75,1436.5156,539.75,1446.5156,543.75,1436.5156,539.75,1440.5156" style="stroke:#181818;stroke-width:1.0;"/><line style="stroke:#181818;stroke-width:1.0;" x1="539.75" x2="539.75" y1="1480.4844" y2="1500.4844"/><polygon fill="#181818" points="535.75,1490.4844,539.75,1500.4844,543.75,1490.4844,539.75,1494.4844" style="stroke:#181818;stroke-width:1.0;"/><line style="stroke:#181818;stroke-width:1.0;" x1="777.75" x2="777.75" y1="1318.5781" y2="1338.5781"/><polygon fill="#181818" points="773.75,1328.5781,777.75,1338.5781,781.75,1328.5781,777.75,1332.5781" style="stroke:#181818;stroke-width:1.0;"/><line style="stroke:#181818;stroke-width:1.0;" x1="573.5" x2="539.75" y1="1237" y2="1237"/><line style="stroke:#181818;stroke-width:1.0;" x1="539.75" x2="539.75" y1="1237" y2="1284.6094"/><polygon fill="#181818" points="535.75,1274.6094,539.75,1284.6094,543.75,1274.6094,539.75,1278.6094" style="stroke:#181818;stroke-width:1.0;"/><text fill="#000000" font-family="sans-serif" font-size="11" lengthAdjust="spacing" textLength="15" x="539.75" y="1264.6128">try</text><line style="stroke:#181818;stroke-width:1.0;" x1="679.5" x2="777.75" y1="1237" y2="1237"/><line style="stroke:#181818;stroke-width:1.0;" x1="777.75" x2="777.75" y1="1237" y2="1284.6094"/><polygon fill="#181818" points="773.75,1274.6094,777.75,1284.6094,781.75,1274.6094,777.75,1278.6094" style="stroke:#181818;stroke-width:1.0;"/><text fill="#000000" font-family="sans-serif" font-size="11" lengthAdjust="spacing" textLength="107" x="777.75" y="1264.6128">catch (Exception e)</text><line style="stroke:#181818;stroke-width:1.0;" x1="626.5" x2="626.5" y1="1202.4336" y2="1225"/><polygon fill="#181818" points="622.5,1215,626.5,1225,630.5,1215,626.5,1219" style="stroke:#181818;stroke-width:1.0;"/><line style="stroke:#181818;stroke-width:1.0;" x1="626.5" x2="626.5" y1="1592.6172" y2="1622.75"/><polygon fill="#181818" points="622.5,1612.75,626.5,1622.75,630.5,1612.75,626.5,1616.75" style="stroke:#181818;stroke-width:1.0;"/><line style="stroke:#181818;stroke-width:1.0;" x1="626.5" x2="626.5" y1="1656.7188" y2="1676.7188"/><polygon fill="#181818" points="622.5,1666.7188,626.5,1676.7188,630.5,1666.7188,626.5,1670.7188" style="stroke:#181818;stroke-width:1.0;"/><line style="stroke:#181818;stroke-width:1.0;" x1="626.5" x2="626.5" y1="1710.6875" y2="1730.6875"/><polygon fill="#181818" points="622.5,1720.6875,626.5,1730.6875,630.5,1720.6875,626.5,1724.6875" style="stroke:#181818;stroke-width:1.0;"/><line style="stroke:#181818;stroke-width:1.0;" x1="626.5" x2="626.5" y1="1764.6563" y2="1784.6563"/><polygon fill="#181818" points="622.5,1774.6563,626.5,1784.6563,630.5,1774.6563,626.5,1778.6563" style="stroke:#181818;stroke-width:1.0;"/><line style="stroke:#181818;stroke-width:1.0;" x1="626.5" x2="626.5" y1="1818.625" y2="1838.625"/><polygon fill="#181818" points="622.5,1828.625,626.5,1838.625,630.5,1828.625,626.5,1832.625" style="stroke:#181818;stroke-width:1.0;"/><line style="stroke:#181818;stroke-width:1.0;" x1="626.5" x2="626.5" y1="1872.5938" y2="1892.5938"/><polygon fill="#181818" points="622.5,1882.5938,626.5,1892.5938,630.5,1882.5938,626.5,1886.5938" style="stroke:#181818;stroke-width:1.0;"/><line style="stroke:#181818;stroke-width:1.0;" x1="626.5" x2="626.5" y1="2042.9023" y2="2064.4336"/><polygon fill="#181818" points="622.5,2054.4336,626.5,2064.4336,630.5,2054.4336,626.5,2058.4336" style="stroke:#181818;stroke-width:1.0;"/><line style="stroke:#181818;stroke-width:1.0;" x1="626.5" x2="626.5" y1="1970.5625" y2="1994.9648"/><polygon fill="#181818" points="622.5,1984.9648,626.5,1994.9648,630.5,1984.9648,626.5,1988.9648" style="stroke:#181818;stroke-width:1.0;"/><line style="stroke:#181818;stroke-width:1.0;" x1="662.5" x2="845.5" y1="1958.5625" y2="1958.5625"/><polygon fill="#181818" points="841.5,2034.4336,845.5,2044.4336,849.5,2034.4336,845.5,2038.4336" style="stroke:#181818;stroke-width:1.0;"/><line style="stroke:#181818;stroke-width:1.0;" x1="845.5" x2="845.5" y1="1958.5625" y2="2108.4336"/><line style="stroke:#181818;stroke-width:1.0;" x1="845.5" x2="626.5" y1="2108.4336" y2="2108.4336"/><line style="stroke:#181818;stroke-width:1.0;" x1="626.5" x2="626.5" y1="2108.4336" y2="2128.4336"/><polygon fill="#181818" points="622.5,2118.4336,626.5,2128.4336,630.5,2118.4336,626.5,2122.4336" style="stroke:#181818;stroke-width:1.0;"/><line style="stroke:#181818;stroke-width:1.0;" x1="626.5" x2="626.5" y1="1926.5625" y2="1946.5625"/><polygon fill="#181818" points="622.5,1936.5625,626.5,1946.5625,630.5,1936.5625,626.5,1940.5625" style="stroke:#181818;stroke-width:1.0;"/><line style="stroke:#181818;stroke-width:1.0;" x1="626.5" x2="626.5" y1="2234.3398" y2="2258.7422"/><polygon fill="#181818" points="622.5,2248.7422,626.5,2258.7422,630.5,2248.7422,626.5,2252.7422" style="stroke:#181818;stroke-width:1.0;"/><line style="stroke:#181818;stroke-width:1.0;" x1="687" x2="893.5" y1="2222.3398" y2="2222.3398"/><polygon fill="#181818" points="889.5,2286.6797,893.5,2296.6797,897.5,2286.6797,893.5,2290.6797" style="stroke:#181818;stroke-width:1.0;"/><line style="stroke:#181818;stroke-width:1.0;" x1="893.5" x2="893.5" y1="2222.3398" y2="2366.6172"/><line style="stroke:#181818;stroke-width:1.0;" x1="893.5" x2="638.5" y1="2366.6172" y2="2366.6172"/><polygon fill="#181818" points="648.5,2362.6172,638.5,2366.6172,648.5,2370.6172,644.5,2366.6172" style="stroke:#181818;stroke-width:1.0;"/><line style="stroke:#181818;stroke-width:1.0;" x1="626.5" x2="626.5" y1="2334.6172" y2="2354.6172"/><polygon fill="#181818" points="622.5,2344.6172,626.5,2354.6172,630.5,2344.6172,626.5,2348.6172" style="stroke:#181818;stroke-width:1.0;"/><line style="stroke:#181818;stroke-width:1.0;" x1="626.5" x2="626.5" y1="2190.3398" y2="2210.3398"/><polygon fill="#181818" points="622.5,2200.3398,626.5,2210.3398,630.5,2200.3398,626.5,2204.3398" style="stroke:#181818;stroke-width:1.0;"/><line style="stroke:#181818;stroke-width:1.0;" x1="626.5" x2="626.5" y1="2378.6172" y2="2398.6172"/><polygon fill="#181818" points="622.5,2388.6172,626.5,2398.6172,630.5,2388.6172,626.5,2392.6172" style="stroke:#181818;stroke-width:1.0;"/><line style="stroke:#181818;stroke-width:1.0;" x1="626.5" x2="626.5" y1="2432.5859" y2="2452.5859"/><polygon fill="#181818" points="622.5,2442.5859,626.5,2452.5859,630.5,2442.5859,626.5,2446.5859" style="stroke:#181818;stroke-width:1.0;"/><line style="stroke:#181818;stroke-width:1.0;" x1="626.5" x2="626.5" y1="2500.5234" y2="2520.5234"/><polygon fill="#181818" points="622.5,2510.5234,626.5,2520.5234,630.5,2510.5234,626.5,2514.5234" style="stroke:#181818;stroke-width:1.0;"/><line style="stroke:#181818;stroke-width:1.0;" x1="626.5" x2="626.5" y1="2554.4922" y2="2574.4922"/><polygon fill="#181818" points="622.5,2564.4922,626.5,2574.4922,630.5,2564.4922,626.5,2568.4922" style="stroke:#181818;stroke-width:1.0;"/><!--MD5=[e9a3056d6caddd51b462a77f51bc8261]
@startuml
!pragma layout smetana
start
note right
constructor CommandCreateJsonSingleLine()
end note
:super (getRegexConcat());;
end
start
note right
IRegex getRegexConcat()
end note
:return RegexConcat.build(CommandCreateJsonSingleLine.class .getName(),RegexLeaf.start(),new RegexLeaf("TYPE","json"),RegexLeaf.spaceOneOrMore(),new RegexLeaf("NAME","(?:[%g]([^%g]+
)[%g][%s]+as[%s]+)?([%pLN_.]+)"),RegexLeaf.spaceZeroOrMore(),new RegexLeaf("STEREO","(\\<\\<.+
\\>\\>)?"),RegexLeaf.spaceZeroOrMore(),new RegexLeaf("URL","("+
UrlBuilder.getRegexp()+")?"),RegexLeaf.spaceZeroOrMore(),
ColorParser.exp1(),RegexLeaf.spaceZeroOrMore(),
new RegexLeaf("DATA","(\\{.*\\})"),RegexLeaf.end());;
stop
end
start
note right
CommandExecutionResult executeArg(AbstractClassOrObjectDiagram diagram,
LineLocation location,RegexResult arg)
end note
:final String name=arg.get("NAME",1);;
:final String data=arg.get("DATA",0);;
:final IEntity entity1=executeArg0(diagram,
arg);;
if (entity1==null ) then (yes) 
:return CommandExecutionResult.error("No such entity");;
stop
endif 
:final JsonValue json=getJsonValue(data);;
if (json==null ) then (yes) 
:return CommandExecutionResult.error("Bad data");;
stop
endif 
:((BodierJSon )entity1.getBodier()).setJson(json);;
:return CommandExecutionResult.ok();;
stop
end
start
note right
JsonValue getJsonValue(String data)
end note
switch (try/catch block)
case (try)
:final DefaultHandler handler=new DefaultHandler();;
:new JsonParser(handler).parse(data);;
:final JsonValue json=handler.getValue();;
:return json;;
stop
case (catch (Exception e))
:return null ;;
stop
endswitch
end
start
note right
IEntity executeArg0(AbstractClassOrObjectDiagram diagram,
RegexResult line0)
end note
:final String name=line0.get("NAME",1);;
:final Ident ident=diagram.buildLeafIdent(name);;
:final Code code=diagram.V1972()? ident:diagram.buildCode(name);;
:final String display=line0.get("NAME",0);;
:final String stereotype=line0.get("STEREO",0);;
:final boolean leafExist=diagram.V1972()? diagram.leafExistSmart(ident):diagram.leafExist(code);;
if (leafExist) then (yes) 
:return diagram.getOrCreateLeaf(diagram.buildLeafIdent(name),
code,LeafType.JSON,null );;
stop
endif 
:final IEntity entity=diagram.createLeaf(ident,
code,Display.getWithNewlines(display),LeafType.JSON,
null );;
if (stereotype!=null ) then (yes) 
:entity.setStereotype(Stereotype.build(stereotype,
diagram.getSkinParam().getCircledCharacterRadius(),
diagram.getSkinParam().getFont(null ,false,
FontParam.CIRCLED_CHARACTER),diagram.getSkinParam().getIHtmlColorSet()));;
endif 
:final String s=line0.get("COLOR",0);;
:entity.setSpecificColorTOBEREMOVED(ColorType.BACK,
s==null ? null :diagram.getSkinParam().getIHtmlColorSet().getColor(s));;
:return entity;;
stop
end
@enduml

PlantUML version 1.2022.7(Mon Aug 22 17:01:30 UTC 2022)
(GPL source distribution)
Java Runtime: OpenJDK Runtime Environment
JVM: OpenJDK 64-Bit Server VM
Default Encoding: UTF-8
Language: en
Country: null
--></g></svg>