<?xml version="1.0" encoding="UTF-8" standalone="no"?><svg xmlns="http://www.w3.org/2000/svg" xmlns:xlink="http://www.w3.org/1999/xlink" contentStyleType="text/css" height="218px" preserveAspectRatio="none" style="width:763px;height:218px;background:#FFFFFF;" version="1.1" viewBox="0 0 763 218" width="763px" zoomAndPan="magnify"><defs/><g><!--MD5=[da3dd6fd8f80ded626391b104a1f3846]
cluster net.sourceforge.plantuml.ditaa--><g id="cluster_net.sourceforge.plantuml.ditaa"><path d="M8.5,63 L253.5,63 A3.75,3.75 0 0 1 256,65.5 L263,85.2969 L753.5,85.2969 A2.5,2.5 0 0 1 756,87.7969 L756,208.5 A2.5,2.5 0 0 1 753.5,211 L8.5,211 A2.5,2.5 0 0 1 6,208.5 L6,65.5 A2.5,2.5 0 0 1 8.5,63 " fill="none" style="stroke:#000000;stroke-width:1.5;"/><line style="stroke:#000000;stroke-width:1.5;" x1="6" x2="263" y1="85.2969" y2="85.2969"/><text fill="#000000" font-family="sans-serif" font-size="14" font-weight="bold" lengthAdjust="spacing" textLength="244" x="10" y="77.9951">net.sourceforge.plantuml.ditaa</text></g><!--MD5=[75bab69663b9cbe6059cb37b9047eb5d]
class AbstractPSystem--><g id="elem_AbstractPSystem"><rect fill="#F1F1F1" height="48" id="AbstractPSystem" rx="2.5" ry="2.5" style="stroke:#181818;stroke-width:0.5;" width="149" x="306.5" y="6"/><ellipse cx="321.5" cy="22" fill="#ADD1B2" rx="11" ry="11" style="stroke:#181818;stroke-width:1.0;"/><path d="M324.4688,27.6406 Q323.8906,27.9375 323.25,28.0781 Q322.6094,28.2344 321.9063,28.2344 Q319.4063,28.2344 318.0781,26.5938 Q316.7656,24.9375 316.7656,21.8125 Q316.7656,18.6875 318.0781,17.0313 Q319.4063,15.375 321.9063,15.375 Q322.6094,15.375 323.25,15.5313 Q323.9063,15.6875 324.4688,15.9844 L324.4688,18.7031 Q323.8438,18.125 323.25,17.8594 Q322.6563,17.5781 322.0313,17.5781 Q320.6875,17.5781 320,18.6563 Q319.3125,19.7188 319.3125,21.8125 Q319.3125,23.9063 320,24.9844 Q320.6875,26.0469 322.0313,26.0469 Q322.6563,26.0469 323.25,25.7813 Q323.8438,25.5 324.4688,24.9219 L324.4688,27.6406 Z " fill="#000000"/><text fill="#000000" font-family="sans-serif" font-size="14" lengthAdjust="spacing" textLength="117" x="335.5" y="26.8467">AbstractPSystem</text><line style="stroke:#181818;stroke-width:0.5;" x1="307.5" x2="454.5" y1="38" y2="38"/><line style="stroke:#181818;stroke-width:0.5;" x1="307.5" x2="454.5" y1="46" y2="46"/></g><!--MD5=[43c7a7177a52f6ca26ad5c147c1488ec]
class net.sourceforge.plantuml.ditaa.PSystemDitaa--><g id="elem_net.sourceforge.plantuml.ditaa.PSystemDitaa"><rect codeLine="3" fill="#F1F1F1" height="113.1875" id="net.sourceforge.plantuml.ditaa.PSystemDitaa" rx="2.5" ry="2.5" style="stroke:#181818;stroke-width:0.5;" width="734" x="14" y="90"/><ellipse cx="329.25" cy="106" fill="#ADD1B2" rx="11" ry="11" style="stroke:#181818;stroke-width:1.0;"/><path d="M332.2188,111.6406 Q331.6406,111.9375 331,112.0781 Q330.3594,112.2344 329.6563,112.2344 Q327.1563,112.2344 325.8281,110.5938 Q324.5156,108.9375 324.5156,105.8125 Q324.5156,102.6875 325.8281,101.0313 Q327.1563,99.375 329.6563,99.375 Q330.3594,99.375 331,99.5313 Q331.6563,99.6875 332.2188,99.9844 L332.2188,102.7031 Q331.5938,102.125 331,101.8594 Q330.4063,101.5781 329.7813,101.5781 Q328.4375,101.5781 327.75,102.6563 Q327.0625,103.7188 327.0625,105.8125 Q327.0625,107.9063 327.75,108.9844 Q328.4375,110.0469 329.7813,110.0469 Q330.4063,110.0469 331,109.7813 Q331.5938,109.5 332.2188,108.9219 L332.2188,111.6406 Z " fill="#000000"/><text fill="#000000" font-family="sans-serif" font-size="14" lengthAdjust="spacing" textLength="95" x="349.75" y="110.8467">PSystemDitaa</text><line style="stroke:#181818;stroke-width:0.5;" x1="15" x2="747" y1="122" y2="122"/><line style="stroke:#181818;stroke-width:0.5;" x1="15" x2="747" y1="130" y2="130"/><a href="./../../../../../.././qc/src/net/sourceforge/plantuml/ditaa/PSystemDitaa.java.html#73" target="_top" title="./../../../../../.././qc/src/net/sourceforge/plantuml/ditaa/PSystemDitaa.java.html#73" xlink:actuate="onRequest" xlink:href="./../../../../../.././qc/src/net/sourceforge/plantuml/ditaa/PSystemDitaa.java.html#73" xlink:show="new" xlink:title="./../../../../../.././qc/src/net/sourceforge/plantuml/ditaa/PSystemDitaa.java.html#73" xlink:type="simple"><rect fill="#F1F1F1" height="10" style="stroke:none;stroke-width:1.0;" width="20" x="20" y="138.6484"/><ellipse cx="25" cy="143.6484" fill="#84BE84" rx="3" ry="3" style="stroke:#038048;stroke-width:1.0;"/></a><a href="./../../../../../.././qc/src/net/sourceforge/plantuml/ditaa/PSystemDitaa.java.html#73" target="_top" title="./../../../../../.././qc/src/net/sourceforge/plantuml/ditaa/PSystemDitaa.java.html#73" xlink:actuate="onRequest" xlink:href="./../../../../../.././qc/src/net/sourceforge/plantuml/ditaa/PSystemDitaa.java.html#73" xlink:show="new" xlink:title="./../../../../../.././qc/src/net/sourceforge/plantuml/ditaa/PSystemDitaa.java.html#73" xlink:type="simple"><text fill="#000000" font-family="sans-serif" font-size="14" lengthAdjust="spacing" textLength="708" x="34" y="146.9951">PSystemDitaa(UmlSource;String;boolean;boolean;boolean;boolean;float;Font;boolean) : PSystemDitaa</text></a><a href="./../../../../../.././qc/src/net/sourceforge/plantuml/ditaa/PSystemDitaa.java.html#98" target="_top" title="./../../../../../.././qc/src/net/sourceforge/plantuml/ditaa/PSystemDitaa.java.html#98" xlink:actuate="onRequest" xlink:href="./../../../../../.././qc/src/net/sourceforge/plantuml/ditaa/PSystemDitaa.java.html#98" xlink:show="new" xlink:title="./../../../../../.././qc/src/net/sourceforge/plantuml/ditaa/PSystemDitaa.java.html#98" xlink:type="simple"><text fill="#000000" font-family="sans-serif" font-size="14" lengthAdjust="spacing" textLength="184" x="34" y="163.292">add(String) : PSystemDitaa</text></a><a href="./../../../../../.././qc/src/net/sourceforge/plantuml/ditaa/PSystemDitaa.java.html#103" target="_top" title="./../../../../../.././qc/src/net/sourceforge/plantuml/ditaa/PSystemDitaa.java.html#103" xlink:actuate="onRequest" xlink:href="./../../../../../.././qc/src/net/sourceforge/plantuml/ditaa/PSystemDitaa.java.html#103" xlink:show="new" xlink:title="./../../../../../.././qc/src/net/sourceforge/plantuml/ditaa/PSystemDitaa.java.html#103" xlink:type="simple"><rect fill="#F1F1F1" height="10" style="stroke:none;stroke-width:1.0;" width="20" x="20" y="171.2422"/><ellipse cx="25" cy="176.2422" fill="#84BE84" rx="3" ry="3" style="stroke:#038048;stroke-width:1.0;"/></a><a href="./../../../../../.././qc/src/net/sourceforge/plantuml/ditaa/PSystemDitaa.java.html#103" target="_top" title="./../../../../../.././qc/src/net/sourceforge/plantuml/ditaa/PSystemDitaa.java.html#103" xlink:actuate="onRequest" xlink:href="./../../../../../.././qc/src/net/sourceforge/plantuml/ditaa/PSystemDitaa.java.html#103" xlink:show="new" xlink:title="./../../../../../.././qc/src/net/sourceforge/plantuml/ditaa/PSystemDitaa.java.html#103" xlink:type="simple"><text fill="#000000" font-family="sans-serif" font-size="14" lengthAdjust="spacing" textLength="261" x="34" y="179.5889">getDescription() : DiagramDescription</text></a><a href="./../../../../../.././qc/src/net/sourceforge/plantuml/ditaa/PSystemDitaa.java.html#108" target="_top" title="./../../../../../.././qc/src/net/sourceforge/plantuml/ditaa/PSystemDitaa.java.html#108" xlink:actuate="onRequest" xlink:href="./../../../../../.././qc/src/net/sourceforge/plantuml/ditaa/PSystemDitaa.java.html#108" xlink:show="new" xlink:title="./../../../../../.././qc/src/net/sourceforge/plantuml/ditaa/PSystemDitaa.java.html#108" xlink:type="simple"><text fill="#000000" font-family="sans-serif" font-size="14" lengthAdjust="spacing" textLength="469" x="34" y="195.8857">exportDiagramNow(OutputStream;int;FileFormatOption) : ImageData</text></a></g><path d="M381,54.1708 C381,64.4955 381,77.1452 381,89.7017 " fill="none" style="stroke:#181818;stroke-width:1.0;"/><polygon fill="#FFFFFF" points="381,54.1708,375,70.1708,387,70.1708,381,54.1708" style="stroke:#181818;stroke-width:1.0;"/><!--MD5=[b096104ad751c308d3f8027422ebb011]
@startuml
!pragma layout smetana
"AbstractPSystem" <|- - "net.sourceforge.plantuml.ditaa.PSystemDitaa"
class net.sourceforge.plantuml.ditaa.PSystemDitaa {
+PSystemDitaa(UmlSource;String;boolean;boolean;boolean;boolean;float;Font;boolean) : PSystemDitaa [[[./../../../../../.././qc/src/net/sourceforge/plantuml/ditaa/PSystemDitaa.java.html#73]]]
add(String) : PSystemDitaa [[[./../../../../../.././qc/src/net/sourceforge/plantuml/ditaa/PSystemDitaa.java.html#98]]]
+getDescription() : DiagramDescription [[[./../../../../../.././qc/src/net/sourceforge/plantuml/ditaa/PSystemDitaa.java.html#103]]]
exportDiagramNow(OutputStream;int;FileFormatOption) : ImageData [[[./../../../../../.././qc/src/net/sourceforge/plantuml/ditaa/PSystemDitaa.java.html#108]]]
} 
@enduml

PlantUML version 1.2022.7(Mon Aug 22 17:01:30 UTC 2022)
(GPL source distribution)
Java Runtime: OpenJDK Runtime Environment
JVM: OpenJDK 64-Bit Server VM
Default Encoding: UTF-8
Language: en
Country: null
--></g></svg>