<?xml version="1.0" encoding="UTF-8" standalone="no"?><svg xmlns="http://www.w3.org/2000/svg" xmlns:xlink="http://www.w3.org/1999/xlink" contentStyleType="text/css" height="226px" preserveAspectRatio="none" style="width:479px;height:226px;background:#FFFFFF;" version="1.1" viewBox="0 0 479 226" width="479px" zoomAndPan="magnify"><defs/><g><path d="M195,10 L195,18.5664 L175,22.5664 L195,26.5664 L195,35.1328 A0,0 0 0 0 195,35.1328 L467,35.1328 A0,0 0 0 0 467,35.1328 L467,20 L457,10 L195,10 A0,0 0 0 0 195,10 " fill="#FEFFDD" style="stroke:#181818;stroke-width:0.5;"/><path d="M457,10 L457,20 L467,20 L457,10 " fill="#FEFFDD" style="stroke:#181818;stroke-width:0.5;"/><text fill="#000000" font-family="sans-serif" font-size="13" lengthAdjust="spacing" textLength="251" x="201" y="27.0669">Objectagrecord_callback(Object... arg_)</text><ellipse cx="165" cy="22.5664" fill="#222222" rx="10" ry="10" style="stroke:#222222;stroke-width:1.0;"/><rect fill="#F1F1F1" height="33.9688" rx="12.5" ry="12.5" style="stroke:#181818;stroke-width:0.5;" width="308" x="11" y="55.1328"/><text fill="#000000" font-family="sans-serif" font-size="12" lengthAdjust="spacing" textLength="288" x="21" y="76.2715">UNSUPPORTED("8kh7tdu40e0f5hui0hcx3ojw");</text><rect fill="#F1F1F1" height="33.9688" rx="12.5" ry="12.5" style="stroke:#181818;stroke-width:0.5;" width="307" x="11.5" y="109.1016"/><text fill="#000000" font-family="sans-serif" font-size="12" lengthAdjust="spacing" textLength="287" x="21.5" y="130.2402">throw new UnsupportedOperationException();</text><ellipse cx="165" cy="174.0703" fill="none" rx="11" ry="11" style="stroke:#222222;stroke-width:1.0;"/><ellipse cx="165" cy="174.0703" fill="#222222" rx="6" ry="6" style="stroke:#111111;stroke-width:1.0;"/><ellipse cx="165" cy="205.0703" fill="none" rx="10" ry="10" style="stroke:#222222;stroke-width:1.5;"/><line style="stroke:#222222;stroke-width:2.5;" x1="158.8128" x2="171.1872" y1="198.8831" y2="211.2575"/><line style="stroke:#222222;stroke-width:2.5;" x1="171.1872" x2="158.8128" y1="198.8831" y2="211.2575"/><line style="stroke:#181818;stroke-width:1.0;" x1="165" x2="165" y1="32.5664" y2="55.1328"/><polygon fill="#181818" points="161,45.1328,165,55.1328,169,45.1328,165,49.1328" style="stroke:#181818;stroke-width:1.0;"/><line style="stroke:#181818;stroke-width:1.0;" x1="165" x2="165" y1="89.1016" y2="109.1016"/><polygon fill="#181818" points="161,99.1016,165,109.1016,169,99.1016,165,103.1016" style="stroke:#181818;stroke-width:1.0;"/><line style="stroke:#181818;stroke-width:1.0;" x1="165" x2="165" y1="143.0703" y2="163.0703"/><polygon fill="#181818" points="161,153.0703,165,163.0703,169,153.0703,165,157.0703" style="stroke:#181818;stroke-width:1.0;"/><!--MD5=[d066ebc9392b4d07091ebb2614e43bba]
@startuml
!pragma layout smetana
start
note right
Objectagrecord_callback(Object... arg_)
end note
:UNSUPPORTED("8kh7tdu40e0f5hui0hcx3ojw");;
:throw new UnsupportedOperationException();;
stop
end
@enduml

PlantUML version 1.2022.7(Mon Aug 22 17:01:30 UTC 2022)
(GPL source distribution)
Java Runtime: OpenJDK Runtime Environment
JVM: OpenJDK 64-Bit Server VM
Default Encoding: UTF-8
Language: en
Country: null
--></g></svg>