<?xml version="1.0" encoding="UTF-8" standalone="no"?><svg xmlns="http://www.w3.org/2000/svg" xmlns:xlink="http://www.w3.org/1999/xlink" contentStyleType="text/css" height="2793px" preserveAspectRatio="none" style="width:568px;height:2793px;background:#FFFFFF;" version="1.1" viewBox="0 0 568 2793" width="568px" zoomAndPan="magnify"><defs/><g><path d="M246.5,10 L246.5,18.5664 L226.5,22.5664 L246.5,26.5664 L246.5,35.1328 A0,0 0 0 0 246.5,35.1328 L556.5,35.1328 A0,0 0 0 0 556.5,35.1328 L556.5,20 L546.5,10 L246.5,10 A0,0 0 0 0 246.5,10 " fill="#FEFFDD" style="stroke:#181818;stroke-width:0.5;"/><path d="M546.5,10 L546.5,20 L556.5,20 L546.5,10 " fill="#FEFFDD" style="stroke:#181818;stroke-width:0.5;"/><text fill="#000000" font-family="sans-serif" font-size="13" lengthAdjust="spacing" textLength="289" x="252.5" y="27.0669">void add(String pID,MonitoredObject pObject)</text><ellipse cx="216.5" cy="22.5664" fill="#222222" rx="10" ry="10" style="stroke:#222222;stroke-width:1.0;"/><rect fill="#F1F1F1" height="33.9688" rx="12.5" ry="12.5" style="stroke:#181818;stroke-width:0.5;" width="177" x="128" y="55.1328"/><text fill="#000000" font-family="sans-serif" font-size="12" lengthAdjust="spacing" textLength="157" x="138" y="76.2715">fValues.put(pID,pObject);</text><ellipse cx="216.5" cy="119.1016" fill="none" rx="10" ry="10" style="stroke:#222222;stroke-width:1.5;"/><line style="stroke:#222222;stroke-width:2.5;" x1="210.3128" x2="222.6872" y1="112.9144" y2="125.2887"/><line style="stroke:#222222;stroke-width:2.5;" x1="222.6872" x2="210.3128" y1="112.9144" y2="125.2887"/><path d="M246.5,139.1016 L246.5,147.668 L226.5,151.668 L246.5,155.668 L246.5,164.2344 A0,0 0 0 0 246.5,164.2344 L518.5,164.2344 A0,0 0 0 0 518.5,164.2344 L518.5,149.1016 L508.5,139.1016 L246.5,139.1016 A0,0 0 0 0 246.5,139.1016 " fill="#FEFFDD" style="stroke:#181818;stroke-width:0.5;"/><path d="M508.5,139.1016 L508.5,149.1016 L518.5,149.1016 L508.5,139.1016 " fill="#FEFFDD" style="stroke:#181818;stroke-width:0.5;"/><text fill="#000000" font-family="sans-serif" font-size="13" lengthAdjust="spacing" textLength="251" x="252.5" y="156.1685">void setString(String pID,String pValue)</text><ellipse cx="216.5" cy="151.668" fill="#222222" rx="10" ry="10" style="stroke:#222222;stroke-width:1.0;"/><rect fill="#F1F1F1" height="33.9688" rx="12.5" ry="12.5" style="stroke:#181818;stroke-width:0.5;" width="282" x="75.5" y="184.2344"/><text fill="#000000" font-family="sans-serif" font-size="12" lengthAdjust="spacing" textLength="262" x="85.5" y="205.373">((MOString )fValues.get(pID)).set(pValue);</text><ellipse cx="216.5" cy="248.2031" fill="none" rx="10" ry="10" style="stroke:#222222;stroke-width:1.5;"/><line style="stroke:#222222;stroke-width:2.5;" x1="210.3128" x2="222.6872" y1="242.0159" y2="254.3903"/><line style="stroke:#222222;stroke-width:2.5;" x1="222.6872" x2="210.3128" y1="242.0159" y2="254.3903"/><path d="M246.5,268.2031 L246.5,276.7695 L226.5,280.7695 L246.5,284.7695 L246.5,293.3359 A0,0 0 0 0 246.5,293.3359 L545.5,293.3359 A0,0 0 0 0 545.5,293.3359 L545.5,278.2031 L535.5,268.2031 L246.5,268.2031 A0,0 0 0 0 246.5,268.2031 " fill="#FEFFDD" style="stroke:#181818;stroke-width:0.5;"/><path d="M535.5,268.2031 L535.5,278.2031 L545.5,278.2031 L535.5,268.2031 " fill="#FEFFDD" style="stroke:#181818;stroke-width:0.5;"/><text fill="#000000" font-family="sans-serif" font-size="13" lengthAdjust="spacing" textLength="278" x="252.5" y="285.27">void setBoolean(String pID,boolean pValue)</text><ellipse cx="216.5" cy="280.7695" fill="#222222" rx="10" ry="10" style="stroke:#222222;stroke-width:1.0;"/><rect fill="#F1F1F1" height="33.9688" rx="12.5" ry="12.5" style="stroke:#181818;stroke-width:0.5;" width="296" x="68.5" y="313.3359"/><text fill="#000000" font-family="sans-serif" font-size="12" lengthAdjust="spacing" textLength="276" x="78.5" y="334.4746">((MOBoolean )fValues.get(pID)).set(pValue);</text><ellipse cx="216.5" cy="377.3047" fill="none" rx="10" ry="10" style="stroke:#222222;stroke-width:1.5;"/><line style="stroke:#222222;stroke-width:2.5;" x1="210.3128" x2="222.6872" y1="371.1175" y2="383.4919"/><line style="stroke:#222222;stroke-width:2.5;" x1="222.6872" x2="210.3128" y1="371.1175" y2="383.4919"/><path d="M246.5,397.3047 L246.5,405.8711 L226.5,409.8711 L246.5,413.8711 L246.5,422.4375 A0,0 0 0 0 246.5,422.4375 L474.5,422.4375 A0,0 0 0 0 474.5,422.4375 L474.5,407.3047 L464.5,397.3047 L246.5,397.3047 A0,0 0 0 0 246.5,397.3047 " fill="#FEFFDD" style="stroke:#181818;stroke-width:0.5;"/><path d="M464.5,397.3047 L464.5,407.3047 L474.5,407.3047 L464.5,397.3047 " fill="#FEFFDD" style="stroke:#181818;stroke-width:0.5;"/><text fill="#000000" font-family="sans-serif" font-size="13" lengthAdjust="spacing" textLength="207" x="252.5" y="414.3716">void setInt(String pID,int pValue)</text><ellipse cx="216.5" cy="409.8711" fill="#222222" rx="10" ry="10" style="stroke:#222222;stroke-width:1.0;"/><rect fill="#F1F1F1" height="33.9688" rx="12.5" ry="12.5" style="stroke:#181818;stroke-width:0.5;" width="290" x="71.5" y="442.4375"/><text fill="#000000" font-family="sans-serif" font-size="12" lengthAdjust="spacing" textLength="270" x="81.5" y="463.5762">((MOInteger )fValues.get(pID)).set(pValue);</text><ellipse cx="216.5" cy="506.4063" fill="none" rx="10" ry="10" style="stroke:#222222;stroke-width:1.5;"/><line style="stroke:#222222;stroke-width:2.5;" x1="210.3128" x2="222.6872" y1="500.2191" y2="512.5934"/><line style="stroke:#222222;stroke-width:2.5;" x1="222.6872" x2="210.3128" y1="500.2191" y2="512.5934"/><path d="M246.5,526.4063 L246.5,534.9727 L226.5,538.9727 L246.5,542.9727 L246.5,551.5391 A0,0 0 0 0 246.5,551.5391 L530.5,551.5391 A0,0 0 0 0 530.5,551.5391 L530.5,536.4063 L520.5,526.4063 L246.5,526.4063 A0,0 0 0 0 246.5,526.4063 " fill="#FEFFDD" style="stroke:#181818;stroke-width:0.5;"/><path d="M520.5,526.4063 L520.5,536.4063 L530.5,536.4063 L520.5,526.4063 " fill="#FEFFDD" style="stroke:#181818;stroke-width:0.5;"/><text fill="#000000" font-family="sans-serif" font-size="13" lengthAdjust="spacing" textLength="263" x="252.5" y="543.4731">void setDouble(String pID,double pValue)</text><ellipse cx="216.5" cy="538.9727" fill="#222222" rx="10" ry="10" style="stroke:#222222;stroke-width:1.0;"/><rect fill="#F1F1F1" height="33.9688" rx="12.5" ry="12.5" style="stroke:#181818;stroke-width:0.5;" width="289" x="72" y="571.5391"/><text fill="#000000" font-family="sans-serif" font-size="12" lengthAdjust="spacing" textLength="269" x="82" y="592.6777">((MODouble )fValues.get(pID)).set(pValue);</text><ellipse cx="216.5" cy="635.5078" fill="none" rx="10" ry="10" style="stroke:#222222;stroke-width:1.5;"/><line style="stroke:#222222;stroke-width:2.5;" x1="210.3128" x2="222.6872" y1="629.3206" y2="641.695"/><line style="stroke:#222222;stroke-width:2.5;" x1="222.6872" x2="210.3128" y1="629.3206" y2="641.695"/><path d="M246.5,655.5078 L246.5,664.0742 L226.5,668.0742 L246.5,672.0742 L246.5,680.6406 A0,0 0 0 0 246.5,680.6406 L520.5,680.6406 A0,0 0 0 0 520.5,680.6406 L520.5,665.5078 L510.5,655.5078 L246.5,655.5078 A0,0 0 0 0 246.5,655.5078 " fill="#FEFFDD" style="stroke:#181818;stroke-width:0.5;"/><path d="M510.5,655.5078 L510.5,665.5078 L520.5,665.5078 L510.5,655.5078 " fill="#FEFFDD" style="stroke:#181818;stroke-width:0.5;"/><text fill="#000000" font-family="sans-serif" font-size="13" lengthAdjust="spacing" textLength="253" x="252.5" y="672.5747">void setEnum(String pID,Object pValue)</text><ellipse cx="216.5" cy="668.0742" fill="#222222" rx="10" ry="10" style="stroke:#222222;stroke-width:1.0;"/><rect fill="#F1F1F1" height="33.9688" rx="12.5" ry="12.5" style="stroke:#181818;stroke-width:0.5;" width="280" x="76.5" y="700.6406"/><text fill="#000000" font-family="sans-serif" font-size="12" lengthAdjust="spacing" textLength="260" x="86.5" y="721.7793">((MOEnum )fValues.get(pID)).set(pValue);</text><ellipse cx="216.5" cy="764.6094" fill="none" rx="10" ry="10" style="stroke:#222222;stroke-width:1.5;"/><line style="stroke:#222222;stroke-width:2.5;" x1="210.3128" x2="222.6872" y1="758.4222" y2="770.7966"/><line style="stroke:#222222;stroke-width:2.5;" x1="222.6872" x2="210.3128" y1="758.4222" y2="770.7966"/><path d="M246.5,784.6094 L246.5,793.1758 L226.5,797.1758 L246.5,801.1758 L246.5,809.7422 A0,0 0 0 0 246.5,809.7422 L441.5,809.7422 A0,0 0 0 0 441.5,809.7422 L441.5,794.6094 L431.5,784.6094 L246.5,784.6094 A0,0 0 0 0 246.5,784.6094 " fill="#FEFFDD" style="stroke:#181818;stroke-width:0.5;"/><path d="M431.5,784.6094 L431.5,794.6094 L441.5,794.6094 L431.5,784.6094 " fill="#FEFFDD" style="stroke:#181818;stroke-width:0.5;"/><text fill="#000000" font-family="sans-serif" font-size="13" lengthAdjust="spacing" textLength="174" x="252.5" y="801.6763">String getString(String pID)</text><ellipse cx="216.5" cy="797.1758" fill="#222222" rx="10" ry="10" style="stroke:#222222;stroke-width:1.0;"/><rect fill="#F1F1F1" height="33.9688" rx="12.5" ry="12.5" style="stroke:#181818;stroke-width:0.5;" width="283" x="75" y="829.7422"/><text fill="#000000" font-family="sans-serif" font-size="12" lengthAdjust="spacing" textLength="263" x="85" y="850.8809">return ((MOString )fValues.get(pID)).get();</text><ellipse cx="216.5" cy="894.7109" fill="none" rx="11" ry="11" style="stroke:#222222;stroke-width:1.0;"/><ellipse cx="216.5" cy="894.7109" fill="#222222" rx="6" ry="6" style="stroke:#111111;stroke-width:1.0;"/><ellipse cx="216.5" cy="925.7109" fill="none" rx="10" ry="10" style="stroke:#222222;stroke-width:1.5;"/><line style="stroke:#222222;stroke-width:2.5;" x1="210.3128" x2="222.6872" y1="919.5238" y2="931.8981"/><line style="stroke:#222222;stroke-width:2.5;" x1="222.6872" x2="210.3128" y1="919.5238" y2="931.8981"/><path d="M246.5,945.7109 L246.5,954.2773 L226.5,958.2773 L246.5,962.2773 L246.5,970.8438 A0,0 0 0 0 246.5,970.8438 L468.5,970.8438 A0,0 0 0 0 468.5,970.8438 L468.5,955.7109 L458.5,945.7109 L246.5,945.7109 A0,0 0 0 0 246.5,945.7109 " fill="#FEFFDD" style="stroke:#181818;stroke-width:0.5;"/><path d="M458.5,945.7109 L458.5,955.7109 L468.5,955.7109 L458.5,945.7109 " fill="#FEFFDD" style="stroke:#181818;stroke-width:0.5;"/><text fill="#000000" font-family="sans-serif" font-size="13" lengthAdjust="spacing" textLength="201" x="252.5" y="962.7778">boolean getBoolean(String pID)</text><ellipse cx="216.5" cy="958.2773" fill="#222222" rx="10" ry="10" style="stroke:#222222;stroke-width:1.0;"/><rect fill="#F1F1F1" height="33.9688" rx="12.5" ry="12.5" style="stroke:#181818;stroke-width:0.5;" width="297" x="68" y="990.8438"/><text fill="#000000" font-family="sans-serif" font-size="12" lengthAdjust="spacing" textLength="277" x="78" y="1011.9824">return ((MOBoolean )fValues.get(pID)).get();</text><ellipse cx="216.5" cy="1055.8125" fill="none" rx="11" ry="11" style="stroke:#222222;stroke-width:1.0;"/><ellipse cx="216.5" cy="1055.8125" fill="#222222" rx="6" ry="6" style="stroke:#111111;stroke-width:1.0;"/><ellipse cx="216.5" cy="1086.8125" fill="none" rx="10" ry="10" style="stroke:#222222;stroke-width:1.5;"/><line style="stroke:#222222;stroke-width:2.5;" x1="210.3128" x2="222.6872" y1="1080.6253" y2="1092.9997"/><line style="stroke:#222222;stroke-width:2.5;" x1="222.6872" x2="210.3128" y1="1080.6253" y2="1092.9997"/><path d="M246.5,1106.8125 L246.5,1115.3789 L226.5,1119.3789 L246.5,1123.3789 L246.5,1131.9453 A0,0 0 0 0 246.5,1131.9453 L397.5,1131.9453 A0,0 0 0 0 397.5,1131.9453 L397.5,1116.8125 L387.5,1106.8125 L246.5,1106.8125 A0,0 0 0 0 246.5,1106.8125 " fill="#FEFFDD" style="stroke:#181818;stroke-width:0.5;"/><path d="M387.5,1106.8125 L387.5,1116.8125 L397.5,1116.8125 L387.5,1106.8125 " fill="#FEFFDD" style="stroke:#181818;stroke-width:0.5;"/><text fill="#000000" font-family="sans-serif" font-size="13" lengthAdjust="spacing" textLength="130" x="252.5" y="1123.8794">int getInt(String pID)</text><ellipse cx="216.5" cy="1119.3789" fill="#222222" rx="10" ry="10" style="stroke:#222222;stroke-width:1.0;"/><rect fill="#F1F1F1" height="33.9688" rx="12.5" ry="12.5" style="stroke:#181818;stroke-width:0.5;" width="291" x="71" y="1151.9453"/><text fill="#000000" font-family="sans-serif" font-size="12" lengthAdjust="spacing" textLength="271" x="81" y="1173.084">return ((MOInteger )fValues.get(pID)).get();</text><ellipse cx="216.5" cy="1216.9141" fill="none" rx="11" ry="11" style="stroke:#222222;stroke-width:1.0;"/><ellipse cx="216.5" cy="1216.9141" fill="#222222" rx="6" ry="6" style="stroke:#111111;stroke-width:1.0;"/><ellipse cx="216.5" cy="1247.9141" fill="none" rx="10" ry="10" style="stroke:#222222;stroke-width:1.5;"/><line style="stroke:#222222;stroke-width:2.5;" x1="210.3128" x2="222.6872" y1="1241.7269" y2="1254.1012"/><line style="stroke:#222222;stroke-width:2.5;" x1="222.6872" x2="210.3128" y1="1241.7269" y2="1254.1012"/><path d="M246.5,1267.9141 L246.5,1276.4805 L226.5,1280.4805 L246.5,1284.4805 L246.5,1293.0469 A0,0 0 0 0 246.5,1293.0469 L453.5,1293.0469 A0,0 0 0 0 453.5,1293.0469 L453.5,1277.9141 L443.5,1267.9141 L246.5,1267.9141 A0,0 0 0 0 246.5,1267.9141 " fill="#FEFFDD" style="stroke:#181818;stroke-width:0.5;"/><path d="M443.5,1267.9141 L443.5,1277.9141 L453.5,1277.9141 L443.5,1267.9141 " fill="#FEFFDD" style="stroke:#181818;stroke-width:0.5;"/><text fill="#000000" font-family="sans-serif" font-size="13" lengthAdjust="spacing" textLength="186" x="252.5" y="1284.981">double getDouble(String pID)</text><ellipse cx="216.5" cy="1280.4805" fill="#222222" rx="10" ry="10" style="stroke:#222222;stroke-width:1.0;"/><rect fill="#F1F1F1" height="33.9688" rx="12.5" ry="12.5" style="stroke:#181818;stroke-width:0.5;" width="290" x="71.5" y="1313.0469"/><text fill="#000000" font-family="sans-serif" font-size="12" lengthAdjust="spacing" textLength="270" x="81.5" y="1334.1855">return ((MODouble )fValues.get(pID)).get();</text><ellipse cx="216.5" cy="1378.0156" fill="none" rx="11" ry="11" style="stroke:#222222;stroke-width:1.0;"/><ellipse cx="216.5" cy="1378.0156" fill="#222222" rx="6" ry="6" style="stroke:#111111;stroke-width:1.0;"/><ellipse cx="216.5" cy="1409.0156" fill="none" rx="10" ry="10" style="stroke:#222222;stroke-width:1.5;"/><line style="stroke:#222222;stroke-width:2.5;" x1="210.3128" x2="222.6872" y1="1402.8284" y2="1415.2028"/><line style="stroke:#222222;stroke-width:2.5;" x1="222.6872" x2="210.3128" y1="1402.8284" y2="1415.2028"/><path d="M246.5,1429.0156 L246.5,1437.582 L226.5,1441.582 L246.5,1445.582 L246.5,1454.1484 A0,0 0 0 0 246.5,1454.1484 L498.5,1454.1484 A0,0 0 0 0 498.5,1454.1484 L498.5,1439.0156 L488.5,1429.0156 L246.5,1429.0156 A0,0 0 0 0 246.5,1429.0156 " fill="#FEFFDD" style="stroke:#181818;stroke-width:0.5;"/><path d="M488.5,1429.0156 L488.5,1439.0156 L498.5,1439.0156 L488.5,1429.0156 " fill="#FEFFDD" style="stroke:#181818;stroke-width:0.5;"/><text fill="#000000" font-family="sans-serif" font-size="13" lengthAdjust="spacing" textLength="231" x="252.5" y="1446.0825">boolean is(String pID,Object pValue)</text><ellipse cx="216.5" cy="1441.582" fill="#222222" rx="10" ry="10" style="stroke:#222222;stroke-width:1.0;"/><rect fill="#F1F1F1" height="33.9688" rx="12.5" ry="12.5" style="stroke:#181818;stroke-width:0.5;" width="313" x="60" y="1474.1484"/><text fill="#000000" font-family="sans-serif" font-size="12" lengthAdjust="spacing" textLength="293" x="70" y="1495.2871">return ((MOEnum )fValues.get(pID)).is(pValue);</text><ellipse cx="216.5" cy="1539.1172" fill="none" rx="11" ry="11" style="stroke:#222222;stroke-width:1.0;"/><ellipse cx="216.5" cy="1539.1172" fill="#222222" rx="6" ry="6" style="stroke:#111111;stroke-width:1.0;"/><ellipse cx="216.5" cy="1570.1172" fill="none" rx="10" ry="10" style="stroke:#222222;stroke-width:1.5;"/><line style="stroke:#222222;stroke-width:2.5;" x1="210.3128" x2="222.6872" y1="1563.93" y2="1576.3044"/><line style="stroke:#222222;stroke-width:2.5;" x1="222.6872" x2="210.3128" y1="1563.93" y2="1576.3044"/><path d="M246.5,1590.1172 L246.5,1598.6836 L226.5,1602.6836 L246.5,1606.6836 L246.5,1615.25 A0,0 0 0 0 246.5,1615.25 L511.5,1615.25 A0,0 0 0 0 511.5,1615.25 L511.5,1600.1172 L501.5,1590.1172 L246.5,1590.1172 A0,0 0 0 0 246.5,1590.1172 " fill="#FEFFDD" style="stroke:#181818;stroke-width:0.5;"/><path d="M501.5,1590.1172 L501.5,1600.1172 L511.5,1600.1172 L501.5,1590.1172 " fill="#FEFFDD" style="stroke:#181818;stroke-width:0.5;"/><text fill="#000000" font-family="sans-serif" font-size="13" lengthAdjust="spacing" textLength="244" x="252.5" y="1607.1841">MOBoolean getMOBoolean(String pID)</text><ellipse cx="216.5" cy="1602.6836" fill="#222222" rx="10" ry="10" style="stroke:#222222;stroke-width:1.0;"/><rect fill="#F1F1F1" height="33.9688" rx="12.5" ry="12.5" style="stroke:#181818;stroke-width:0.5;" width="221" x="106" y="1635.25"/><text fill="#000000" font-family="sans-serif" font-size="12" lengthAdjust="spacing" textLength="201" x="116" y="1656.3887">return (MOBoolean )getMO(pID);</text><ellipse cx="216.5" cy="1700.2188" fill="none" rx="11" ry="11" style="stroke:#222222;stroke-width:1.0;"/><ellipse cx="216.5" cy="1700.2188" fill="#222222" rx="6" ry="6" style="stroke:#111111;stroke-width:1.0;"/><ellipse cx="216.5" cy="1731.2188" fill="none" rx="10" ry="10" style="stroke:#222222;stroke-width:1.5;"/><line style="stroke:#222222;stroke-width:2.5;" x1="210.3128" x2="222.6872" y1="1725.0316" y2="1737.4059"/><line style="stroke:#222222;stroke-width:2.5;" x1="222.6872" x2="210.3128" y1="1725.0316" y2="1737.4059"/><path d="M246.5,1751.2188 L246.5,1759.7852 L226.5,1763.7852 L246.5,1767.7852 L246.5,1776.3516 A0,0 0 0 0 246.5,1776.3516 L483.5,1776.3516 A0,0 0 0 0 483.5,1776.3516 L483.5,1761.2188 L473.5,1751.2188 L246.5,1751.2188 A0,0 0 0 0 246.5,1751.2188 " fill="#FEFFDD" style="stroke:#181818;stroke-width:0.5;"/><path d="M473.5,1751.2188 L473.5,1761.2188 L483.5,1761.2188 L473.5,1751.2188 " fill="#FEFFDD" style="stroke:#181818;stroke-width:0.5;"/><text fill="#000000" font-family="sans-serif" font-size="13" lengthAdjust="spacing" textLength="216" x="252.5" y="1768.2856">MOString getMOString(String pID)</text><ellipse cx="216.5" cy="1763.7852" fill="#222222" rx="10" ry="10" style="stroke:#222222;stroke-width:1.0;"/><rect fill="#F1F1F1" height="33.9688" rx="12.5" ry="12.5" style="stroke:#181818;stroke-width:0.5;" width="207" x="113" y="1796.3516"/><text fill="#000000" font-family="sans-serif" font-size="12" lengthAdjust="spacing" textLength="187" x="123" y="1817.4902">return (MOString )getMO(pID);</text><ellipse cx="216.5" cy="1861.3203" fill="none" rx="11" ry="11" style="stroke:#222222;stroke-width:1.0;"/><ellipse cx="216.5" cy="1861.3203" fill="#222222" rx="6" ry="6" style="stroke:#111111;stroke-width:1.0;"/><ellipse cx="216.5" cy="1892.3203" fill="none" rx="10" ry="10" style="stroke:#222222;stroke-width:1.5;"/><line style="stroke:#222222;stroke-width:2.5;" x1="210.3128" x2="222.6872" y1="1886.1331" y2="1898.5075"/><line style="stroke:#222222;stroke-width:2.5;" x1="222.6872" x2="210.3128" y1="1886.1331" y2="1898.5075"/><path d="M246.5,1912.3203 L246.5,1920.8867 L226.5,1924.8867 L246.5,1928.8867 L246.5,1937.4531 A0,0 0 0 0 246.5,1937.4531 L481.5,1937.4531 A0,0 0 0 0 481.5,1937.4531 L481.5,1922.3203 L471.5,1912.3203 L246.5,1912.3203 A0,0 0 0 0 246.5,1912.3203 " fill="#FEFFDD" style="stroke:#181818;stroke-width:0.5;"/><path d="M471.5,1912.3203 L471.5,1922.3203 L481.5,1922.3203 L471.5,1912.3203 " fill="#FEFFDD" style="stroke:#181818;stroke-width:0.5;"/><text fill="#000000" font-family="sans-serif" font-size="13" lengthAdjust="spacing" textLength="214" x="252.5" y="1929.3872">MOEnum getMOEnum(String pID)</text><ellipse cx="216.5" cy="1924.8867" fill="#222222" rx="10" ry="10" style="stroke:#222222;stroke-width:1.0;"/><rect fill="#F1F1F1" height="33.9688" rx="12.5" ry="12.5" style="stroke:#181818;stroke-width:0.5;" width="205" x="114" y="1957.4531"/><text fill="#000000" font-family="sans-serif" font-size="12" lengthAdjust="spacing" textLength="185" x="124" y="1978.5918">return (MOEnum )getMO(pID);</text><ellipse cx="216.5" cy="2022.4219" fill="none" rx="11" ry="11" style="stroke:#222222;stroke-width:1.0;"/><ellipse cx="216.5" cy="2022.4219" fill="#222222" rx="6" ry="6" style="stroke:#111111;stroke-width:1.0;"/><ellipse cx="216.5" cy="2053.4219" fill="none" rx="10" ry="10" style="stroke:#222222;stroke-width:1.5;"/><line style="stroke:#222222;stroke-width:2.5;" x1="210.3128" x2="222.6872" y1="2047.2347" y2="2059.6091"/><line style="stroke:#222222;stroke-width:2.5;" x1="222.6872" x2="210.3128" y1="2047.2347" y2="2059.6091"/><path d="M246.5,2073.4219 L246.5,2081.9883 L226.5,2085.9883 L246.5,2089.9883 L246.5,2098.5547 A0,0 0 0 0 246.5,2098.5547 L497.5,2098.5547 A0,0 0 0 0 497.5,2098.5547 L497.5,2083.4219 L487.5,2073.4219 L246.5,2073.4219 A0,0 0 0 0 246.5,2073.4219 " fill="#FEFFDD" style="stroke:#181818;stroke-width:0.5;"/><path d="M487.5,2073.4219 L487.5,2083.4219 L497.5,2083.4219 L487.5,2073.4219 " fill="#FEFFDD" style="stroke:#181818;stroke-width:0.5;"/><text fill="#000000" font-family="sans-serif" font-size="13" lengthAdjust="spacing" textLength="230" x="252.5" y="2090.4888">MOInteger getMOInteger(String pID)</text><ellipse cx="216.5" cy="2085.9883" fill="#222222" rx="10" ry="10" style="stroke:#222222;stroke-width:1.0;"/><rect fill="#F1F1F1" height="33.9688" rx="12.5" ry="12.5" style="stroke:#181818;stroke-width:0.5;" width="215" x="109" y="2118.5547"/><text fill="#000000" font-family="sans-serif" font-size="12" lengthAdjust="spacing" textLength="195" x="119" y="2139.6934">return (MOInteger )getMO(pID);</text><ellipse cx="216.5" cy="2183.5234" fill="none" rx="11" ry="11" style="stroke:#222222;stroke-width:1.0;"/><ellipse cx="216.5" cy="2183.5234" fill="#222222" rx="6" ry="6" style="stroke:#111111;stroke-width:1.0;"/><ellipse cx="216.5" cy="2214.5234" fill="none" rx="10" ry="10" style="stroke:#222222;stroke-width:1.5;"/><line style="stroke:#222222;stroke-width:2.5;" x1="210.3128" x2="222.6872" y1="2208.3363" y2="2220.7106"/><line style="stroke:#222222;stroke-width:2.5;" x1="222.6872" x2="210.3128" y1="2208.3363" y2="2220.7106"/><path d="M246.5,2234.5234 L246.5,2243.0898 L226.5,2247.0898 L246.5,2251.0898 L246.5,2259.6563 A0,0 0 0 0 246.5,2259.6563 L497.5,2259.6563 A0,0 0 0 0 497.5,2259.6563 L497.5,2244.5234 L487.5,2234.5234 L246.5,2234.5234 A0,0 0 0 0 246.5,2234.5234 " fill="#FEFFDD" style="stroke:#181818;stroke-width:0.5;"/><path d="M487.5,2234.5234 L487.5,2244.5234 L497.5,2244.5234 L487.5,2234.5234 " fill="#FEFFDD" style="stroke:#181818;stroke-width:0.5;"/><text fill="#000000" font-family="sans-serif" font-size="13" lengthAdjust="spacing" textLength="230" x="252.5" y="2251.5903">MODouble getMODouble(String pID)</text><ellipse cx="216.5" cy="2247.0898" fill="#222222" rx="10" ry="10" style="stroke:#222222;stroke-width:1.0;"/><rect fill="#F1F1F1" height="33.9688" rx="12.5" ry="12.5" style="stroke:#181818;stroke-width:0.5;" width="214" x="109.5" y="2279.6563"/><text fill="#000000" font-family="sans-serif" font-size="12" lengthAdjust="spacing" textLength="194" x="119.5" y="2300.7949">return (MODouble )getMO(pID);</text><ellipse cx="216.5" cy="2344.625" fill="none" rx="11" ry="11" style="stroke:#222222;stroke-width:1.0;"/><ellipse cx="216.5" cy="2344.625" fill="#222222" rx="6" ry="6" style="stroke:#111111;stroke-width:1.0;"/><ellipse cx="216.5" cy="2375.625" fill="none" rx="10" ry="10" style="stroke:#222222;stroke-width:1.5;"/><line style="stroke:#222222;stroke-width:2.5;" x1="210.3128" x2="222.6872" y1="2369.4378" y2="2381.8122"/><line style="stroke:#222222;stroke-width:2.5;" x1="222.6872" x2="210.3128" y1="2369.4378" y2="2381.8122"/><path d="M246.5,2395.625 L246.5,2404.1914 L226.5,2408.1914 L246.5,2412.1914 L246.5,2420.7578 A0,0 0 0 0 246.5,2420.7578 L491.5,2420.7578 A0,0 0 0 0 491.5,2420.7578 L491.5,2405.625 L481.5,2395.625 L246.5,2395.625 A0,0 0 0 0 246.5,2395.625 " fill="#FEFFDD" style="stroke:#181818;stroke-width:0.5;"/><path d="M481.5,2395.625 L481.5,2405.625 L491.5,2405.625 L481.5,2395.625 " fill="#FEFFDD" style="stroke:#181818;stroke-width:0.5;"/><text fill="#000000" font-family="sans-serif" font-size="13" lengthAdjust="spacing" textLength="224" x="252.5" y="2412.6919">MonitoredObject getMO(String pID)</text><ellipse cx="216.5" cy="2408.1914" fill="#222222" rx="10" ry="10" style="stroke:#222222;stroke-width:1.0;"/><rect fill="#F1F1F1" height="33.9688" rx="12.5" ry="12.5" style="stroke:#181818;stroke-width:0.5;" width="411" x="11" y="2440.7578"/><text fill="#000000" font-family="sans-serif" font-size="12" lengthAdjust="spacing" textLength="391" x="21" y="2461.8965">final MonitoredObject lMO=(MonitoredObject )fValues.get(pID);</text><rect fill="#F1F1F1" height="47.9375" rx="12.5" ry="12.5" style="stroke:#181818;stroke-width:0.5;" width="397" x="18" y="2543.1289"/><text fill="#000000" font-family="sans-serif" font-size="12" lengthAdjust="spacing" textLength="377" x="28" y="2564.2676">throw new IllegalArgumentException("Unknown conf item '"+</text><text fill="#000000" font-family="sans-serif" font-size="12" lengthAdjust="spacing" textLength="52" x="28" y="2578.2363">pID+"'");</text><ellipse cx="216.5" cy="2623.5977" fill="none" rx="11" ry="11" style="stroke:#222222;stroke-width:1.0;"/><ellipse cx="216.5" cy="2623.5977" fill="#222222" rx="6" ry="6" style="stroke:#111111;stroke-width:1.0;"/><polygon fill="#F1F1F1" points="185,2494.7266,248,2494.7266,260,2506.7266,248,2518.7266,185,2518.7266,173,2506.7266,185,2494.7266" style="stroke:#181818;stroke-width:0.5;"/><text fill="#000000" font-family="sans-serif" font-size="11" lengthAdjust="spacing" textLength="20" x="220.5" y="2528.937">yes</text><text fill="#000000" font-family="sans-serif" font-size="11" lengthAdjust="spacing" textLength="59" x="185" y="2510.5347">lMO==null</text><rect fill="#F1F1F1" height="33.9688" rx="12.5" ry="12.5" style="stroke:#181818;stroke-width:0.5;" width="89" x="172" y="2676.5977"/><text fill="#000000" font-family="sans-serif" font-size="12" lengthAdjust="spacing" textLength="69" x="182" y="2697.7363">return lMO;</text><ellipse cx="216.5" cy="2741.5664" fill="none" rx="11" ry="11" style="stroke:#222222;stroke-width:1.0;"/><ellipse cx="216.5" cy="2741.5664" fill="#222222" rx="6" ry="6" style="stroke:#111111;stroke-width:1.0;"/><ellipse cx="216.5" cy="2772.5664" fill="none" rx="10" ry="10" style="stroke:#222222;stroke-width:1.5;"/><line style="stroke:#222222;stroke-width:2.5;" x1="210.3128" x2="222.6872" y1="2766.3792" y2="2778.7536"/><line style="stroke:#222222;stroke-width:2.5;" x1="222.6872" x2="210.3128" y1="2766.3792" y2="2778.7536"/><line style="stroke:#181818;stroke-width:1.0;" x1="216.5" x2="216.5" y1="32.5664" y2="55.1328"/><polygon fill="#181818" points="212.5,45.1328,216.5,55.1328,220.5,45.1328,216.5,49.1328" style="stroke:#181818;stroke-width:1.0;"/><line style="stroke:#181818;stroke-width:1.0;" x1="216.5" x2="216.5" y1="89.1016" y2="109.1016"/><polygon fill="#181818" points="212.5,99.1016,216.5,109.1016,220.5,99.1016,216.5,103.1016" style="stroke:#181818;stroke-width:1.0;"/><line style="stroke:#181818;stroke-width:1.0;" x1="216.5" x2="216.5" y1="161.668" y2="184.2344"/><polygon fill="#181818" points="212.5,174.2344,216.5,184.2344,220.5,174.2344,216.5,178.2344" style="stroke:#181818;stroke-width:1.0;"/><line style="stroke:#181818;stroke-width:1.0;" x1="216.5" x2="216.5" y1="218.2031" y2="238.2031"/><polygon fill="#181818" points="212.5,228.2031,216.5,238.2031,220.5,228.2031,216.5,232.2031" style="stroke:#181818;stroke-width:1.0;"/><line style="stroke:#181818;stroke-width:1.0;" x1="216.5" x2="216.5" y1="290.7695" y2="313.3359"/><polygon fill="#181818" points="212.5,303.3359,216.5,313.3359,220.5,303.3359,216.5,307.3359" style="stroke:#181818;stroke-width:1.0;"/><line style="stroke:#181818;stroke-width:1.0;" x1="216.5" x2="216.5" y1="347.3047" y2="367.3047"/><polygon fill="#181818" points="212.5,357.3047,216.5,367.3047,220.5,357.3047,216.5,361.3047" style="stroke:#181818;stroke-width:1.0;"/><line style="stroke:#181818;stroke-width:1.0;" x1="216.5" x2="216.5" y1="419.8711" y2="442.4375"/><polygon fill="#181818" points="212.5,432.4375,216.5,442.4375,220.5,432.4375,216.5,436.4375" style="stroke:#181818;stroke-width:1.0;"/><line style="stroke:#181818;stroke-width:1.0;" x1="216.5" x2="216.5" y1="476.4063" y2="496.4063"/><polygon fill="#181818" points="212.5,486.4063,216.5,496.4063,220.5,486.4063,216.5,490.4063" style="stroke:#181818;stroke-width:1.0;"/><line style="stroke:#181818;stroke-width:1.0;" x1="216.5" x2="216.5" y1="548.9727" y2="571.5391"/><polygon fill="#181818" points="212.5,561.5391,216.5,571.5391,220.5,561.5391,216.5,565.5391" style="stroke:#181818;stroke-width:1.0;"/><line style="stroke:#181818;stroke-width:1.0;" x1="216.5" x2="216.5" y1="605.5078" y2="625.5078"/><polygon fill="#181818" points="212.5,615.5078,216.5,625.5078,220.5,615.5078,216.5,619.5078" style="stroke:#181818;stroke-width:1.0;"/><line style="stroke:#181818;stroke-width:1.0;" x1="216.5" x2="216.5" y1="678.0742" y2="700.6406"/><polygon fill="#181818" points="212.5,690.6406,216.5,700.6406,220.5,690.6406,216.5,694.6406" style="stroke:#181818;stroke-width:1.0;"/><line style="stroke:#181818;stroke-width:1.0;" x1="216.5" x2="216.5" y1="734.6094" y2="754.6094"/><polygon fill="#181818" points="212.5,744.6094,216.5,754.6094,220.5,744.6094,216.5,748.6094" style="stroke:#181818;stroke-width:1.0;"/><line style="stroke:#181818;stroke-width:1.0;" x1="216.5" x2="216.5" y1="807.1758" y2="829.7422"/><polygon fill="#181818" points="212.5,819.7422,216.5,829.7422,220.5,819.7422,216.5,823.7422" style="stroke:#181818;stroke-width:1.0;"/><line style="stroke:#181818;stroke-width:1.0;" x1="216.5" x2="216.5" y1="863.7109" y2="883.7109"/><polygon fill="#181818" points="212.5,873.7109,216.5,883.7109,220.5,873.7109,216.5,877.7109" style="stroke:#181818;stroke-width:1.0;"/><line style="stroke:#181818;stroke-width:1.0;" x1="216.5" x2="216.5" y1="968.2773" y2="990.8438"/><polygon fill="#181818" points="212.5,980.8438,216.5,990.8438,220.5,980.8438,216.5,984.8438" style="stroke:#181818;stroke-width:1.0;"/><line style="stroke:#181818;stroke-width:1.0;" x1="216.5" x2="216.5" y1="1024.8125" y2="1044.8125"/><polygon fill="#181818" points="212.5,1034.8125,216.5,1044.8125,220.5,1034.8125,216.5,1038.8125" style="stroke:#181818;stroke-width:1.0;"/><line style="stroke:#181818;stroke-width:1.0;" x1="216.5" x2="216.5" y1="1129.3789" y2="1151.9453"/><polygon fill="#181818" points="212.5,1141.9453,216.5,1151.9453,220.5,1141.9453,216.5,1145.9453" style="stroke:#181818;stroke-width:1.0;"/><line style="stroke:#181818;stroke-width:1.0;" x1="216.5" x2="216.5" y1="1185.9141" y2="1205.9141"/><polygon fill="#181818" points="212.5,1195.9141,216.5,1205.9141,220.5,1195.9141,216.5,1199.9141" style="stroke:#181818;stroke-width:1.0;"/><line style="stroke:#181818;stroke-width:1.0;" x1="216.5" x2="216.5" y1="1290.4805" y2="1313.0469"/><polygon fill="#181818" points="212.5,1303.0469,216.5,1313.0469,220.5,1303.0469,216.5,1307.0469" style="stroke:#181818;stroke-width:1.0;"/><line style="stroke:#181818;stroke-width:1.0;" x1="216.5" x2="216.5" y1="1347.0156" y2="1367.0156"/><polygon fill="#181818" points="212.5,1357.0156,216.5,1367.0156,220.5,1357.0156,216.5,1361.0156" style="stroke:#181818;stroke-width:1.0;"/><line style="stroke:#181818;stroke-width:1.0;" x1="216.5" x2="216.5" y1="1451.582" y2="1474.1484"/><polygon fill="#181818" points="212.5,1464.1484,216.5,1474.1484,220.5,1464.1484,216.5,1468.1484" style="stroke:#181818;stroke-width:1.0;"/><line style="stroke:#181818;stroke-width:1.0;" x1="216.5" x2="216.5" y1="1508.1172" y2="1528.1172"/><polygon fill="#181818" points="212.5,1518.1172,216.5,1528.1172,220.5,1518.1172,216.5,1522.1172" style="stroke:#181818;stroke-width:1.0;"/><line style="stroke:#181818;stroke-width:1.0;" x1="216.5" x2="216.5" y1="1612.6836" y2="1635.25"/><polygon fill="#181818" points="212.5,1625.25,216.5,1635.25,220.5,1625.25,216.5,1629.25" style="stroke:#181818;stroke-width:1.0;"/><line style="stroke:#181818;stroke-width:1.0;" x1="216.5" x2="216.5" y1="1669.2188" y2="1689.2188"/><polygon fill="#181818" points="212.5,1679.2188,216.5,1689.2188,220.5,1679.2188,216.5,1683.2188" style="stroke:#181818;stroke-width:1.0;"/><line style="stroke:#181818;stroke-width:1.0;" x1="216.5" x2="216.5" y1="1773.7852" y2="1796.3516"/><polygon fill="#181818" points="212.5,1786.3516,216.5,1796.3516,220.5,1786.3516,216.5,1790.3516" style="stroke:#181818;stroke-width:1.0;"/><line style="stroke:#181818;stroke-width:1.0;" x1="216.5" x2="216.5" y1="1830.3203" y2="1850.3203"/><polygon fill="#181818" points="212.5,1840.3203,216.5,1850.3203,220.5,1840.3203,216.5,1844.3203" style="stroke:#181818;stroke-width:1.0;"/><line style="stroke:#181818;stroke-width:1.0;" x1="216.5" x2="216.5" y1="1934.8867" y2="1957.4531"/><polygon fill="#181818" points="212.5,1947.4531,216.5,1957.4531,220.5,1947.4531,216.5,1951.4531" style="stroke:#181818;stroke-width:1.0;"/><line style="stroke:#181818;stroke-width:1.0;" x1="216.5" x2="216.5" y1="1991.4219" y2="2011.4219"/><polygon fill="#181818" points="212.5,2001.4219,216.5,2011.4219,220.5,2001.4219,216.5,2005.4219" style="stroke:#181818;stroke-width:1.0;"/><line style="stroke:#181818;stroke-width:1.0;" x1="216.5" x2="216.5" y1="2095.9883" y2="2118.5547"/><polygon fill="#181818" points="212.5,2108.5547,216.5,2118.5547,220.5,2108.5547,216.5,2112.5547" style="stroke:#181818;stroke-width:1.0;"/><line style="stroke:#181818;stroke-width:1.0;" x1="216.5" x2="216.5" y1="2152.5234" y2="2172.5234"/><polygon fill="#181818" points="212.5,2162.5234,216.5,2172.5234,220.5,2162.5234,216.5,2166.5234" style="stroke:#181818;stroke-width:1.0;"/><line style="stroke:#181818;stroke-width:1.0;" x1="216.5" x2="216.5" y1="2257.0898" y2="2279.6563"/><polygon fill="#181818" points="212.5,2269.6563,216.5,2279.6563,220.5,2269.6563,216.5,2273.6563" style="stroke:#181818;stroke-width:1.0;"/><line style="stroke:#181818;stroke-width:1.0;" x1="216.5" x2="216.5" y1="2313.625" y2="2333.625"/><polygon fill="#181818" points="212.5,2323.625,216.5,2333.625,220.5,2323.625,216.5,2327.625" style="stroke:#181818;stroke-width:1.0;"/><line style="stroke:#181818;stroke-width:1.0;" x1="216.5" x2="216.5" y1="2418.1914" y2="2440.7578"/><polygon fill="#181818" points="212.5,2430.7578,216.5,2440.7578,220.5,2430.7578,216.5,2434.7578" style="stroke:#181818;stroke-width:1.0;"/><line style="stroke:#181818;stroke-width:1.0;" x1="216.5" x2="216.5" y1="2591.0664" y2="2612.5977"/><polygon fill="#181818" points="212.5,2602.5977,216.5,2612.5977,220.5,2602.5977,216.5,2606.5977" style="stroke:#181818;stroke-width:1.0;"/><line style="stroke:#181818;stroke-width:1.0;" x1="216.5" x2="216.5" y1="2518.7266" y2="2543.1289"/><polygon fill="#181818" points="212.5,2533.1289,216.5,2543.1289,220.5,2533.1289,216.5,2537.1289" style="stroke:#181818;stroke-width:1.0;"/><line style="stroke:#181818;stroke-width:1.0;" x1="260" x2="425" y1="2506.7266" y2="2506.7266"/><polygon fill="#181818" points="421,2582.5977,425,2592.5977,429,2582.5977,425,2586.5977" style="stroke:#181818;stroke-width:1.0;"/><line style="stroke:#181818;stroke-width:1.0;" x1="425" x2="425" y1="2506.7266" y2="2656.5977"/><line style="stroke:#181818;stroke-width:1.0;" x1="425" x2="216.5" y1="2656.5977" y2="2656.5977"/><line style="stroke:#181818;stroke-width:1.0;" x1="216.5" x2="216.5" y1="2656.5977" y2="2676.5977"/><polygon fill="#181818" points="212.5,2666.5977,216.5,2676.5977,220.5,2666.5977,216.5,2670.5977" style="stroke:#181818;stroke-width:1.0;"/><line style="stroke:#181818;stroke-width:1.0;" x1="216.5" x2="216.5" y1="2474.7266" y2="2494.7266"/><polygon fill="#181818" points="212.5,2484.7266,216.5,2494.7266,220.5,2484.7266,216.5,2488.7266" style="stroke:#181818;stroke-width:1.0;"/><line style="stroke:#181818;stroke-width:1.0;" x1="216.5" x2="216.5" y1="2710.5664" y2="2730.5664"/><polygon fill="#181818" points="212.5,2720.5664,216.5,2730.5664,220.5,2720.5664,216.5,2724.5664" style="stroke:#181818;stroke-width:1.0;"/><!--MD5=[65b4bd594a852c40b542e4c86a866927]
@startuml
!pragma layout smetana
start
note right
void add(String pID,MonitoredObject pObject)
end note
:fValues.put(pID,pObject);;
end
start
note right
void setString(String pID,String pValue)
end note
:((MOString )fValues.get(pID)).set(pValue);;
end
start
note right
void setBoolean(String pID,boolean pValue)
end note
:((MOBoolean )fValues.get(pID)).set(pValue);;
end
start
note right
void setInt(String pID,int pValue)
end note
:((MOInteger )fValues.get(pID)).set(pValue);;
end
start
note right
void setDouble(String pID,double pValue)
end note
:((MODouble )fValues.get(pID)).set(pValue);;
end
start
note right
void setEnum(String pID,Object pValue)
end note
:((MOEnum )fValues.get(pID)).set(pValue);;
end
start
note right
String getString(String pID)
end note
:return ((MOString )fValues.get(pID)).get();;
stop
end
start
note right
boolean getBoolean(String pID)
end note
:return ((MOBoolean )fValues.get(pID)).get();;
stop
end
start
note right
int getInt(String pID)
end note
:return ((MOInteger )fValues.get(pID)).get();;
stop
end
start
note right
double getDouble(String pID)
end note
:return ((MODouble )fValues.get(pID)).get();;
stop
end
start
note right
boolean is(String pID,Object pValue)
end note
:return ((MOEnum )fValues.get(pID)).is(pValue);;
stop
end
start
note right
MOBoolean getMOBoolean(String pID)
end note
:return (MOBoolean )getMO(pID);;
stop
end
start
note right
MOString getMOString(String pID)
end note
:return (MOString )getMO(pID);;
stop
end
start
note right
MOEnum getMOEnum(String pID)
end note
:return (MOEnum )getMO(pID);;
stop
end
start
note right
MOInteger getMOInteger(String pID)
end note
:return (MOInteger )getMO(pID);;
stop
end
start
note right
MODouble getMODouble(String pID)
end note
:return (MODouble )getMO(pID);;
stop
end
start
note right
MonitoredObject getMO(String pID)
end note
:final MonitoredObject lMO=(MonitoredObject )fValues.get(pID);;
if (lMO==null ) then (yes) 
:throw new IllegalArgumentException("Unknown conf item '"+
pID+"'");;
stop
endif 
:return lMO;;
stop
end
@enduml

PlantUML version 1.2022.7(Mon Aug 22 17:01:30 UTC 2022)
(GPL source distribution)
Java Runtime: OpenJDK Runtime Environment
JVM: OpenJDK 64-Bit Server VM
Default Encoding: UTF-8
Language: en
Country: null
--></g></svg>