<?xml version="1.0" encoding="UTF-8" standalone="no"?><svg xmlns="http://www.w3.org/2000/svg" xmlns:xlink="http://www.w3.org/1999/xlink" contentStyleType="text/css" height="301px" preserveAspectRatio="none" style="width:321px;height:301px;background:#FFFFFF;" version="1.1" viewBox="0 0 321 301" width="321px" zoomAndPan="magnify"><defs/><g><!--MD5=[aa8f7b917213fcc1c2766e2d59b49067]
cluster java.lang--><g id="cluster_java.lang"><path d="M115.5,6 L185.5,6 A3.75,3.75 0 0 1 188,8.5 L195,28.2969 L204.5,28.2969 A2.5,2.5 0 0 1 207,30.7969 L207,86.5 A2.5,2.5 0 0 1 204.5,89 L115.5,89 A2.5,2.5 0 0 1 113,86.5 L113,8.5 A2.5,2.5 0 0 1 115.5,6 " fill="none" style="stroke:#000000;stroke-width:1.5;"/><line style="stroke:#000000;stroke-width:1.5;" x1="113" x2="195" y1="28.2969" y2="28.2969"/><text fill="#000000" font-family="sans-serif" font-size="14" font-weight="bold" lengthAdjust="spacing" textLength="69" x="117" y="20.9951">java.lang</text></g><!--MD5=[76b603a31d5b13d00f08f93a1425196e]
cluster net.sourceforge.plantuml.hcl--><g id="cluster_net.sourceforge.plantuml.hcl"><path d="M8.5,97 L238.5,97 A3.75,3.75 0 0 1 241,99.5 L248,119.2969 L311.5,119.2969 A2.5,2.5 0 0 1 314,121.7969 L314,291.5 A2.5,2.5 0 0 1 311.5,294 L8.5,294 A2.5,2.5 0 0 1 6,291.5 L6,99.5 A2.5,2.5 0 0 1 8.5,97 " fill="none" style="stroke:#000000;stroke-width:1.5;"/><line style="stroke:#000000;stroke-width:1.5;" x1="6" x2="248" y1="119.2969" y2="119.2969"/><text fill="#000000" font-family="sans-serif" font-size="14" font-weight="bold" lengthAdjust="spacing" textLength="229" x="10" y="111.9951">net.sourceforge.plantuml.hcl</text></g><!--MD5=[274ad5661286b626a93603d287cbf95a]
class java.lang.Object--><g id="elem_java.lang.Object"><rect fill="#F1F1F1" height="48" id="java.lang.Object" rx="2.5" ry="2.5" style="stroke:#181818;stroke-width:0.5;" width="77" x="121.5" y="33"/><ellipse cx="136.5" cy="49" fill="#ADD1B2" rx="11" ry="11" style="stroke:#181818;stroke-width:1.0;"/><path d="M139.4688,54.6406 Q138.8906,54.9375 138.25,55.0781 Q137.6094,55.2344 136.9063,55.2344 Q134.4063,55.2344 133.0781,53.5938 Q131.7656,51.9375 131.7656,48.8125 Q131.7656,45.6875 133.0781,44.0313 Q134.4063,42.375 136.9063,42.375 Q137.6094,42.375 138.25,42.5313 Q138.9063,42.6875 139.4688,42.9844 L139.4688,45.7031 Q138.8438,45.125 138.25,44.8594 Q137.6563,44.5781 137.0313,44.5781 Q135.6875,44.5781 135,45.6563 Q134.3125,46.7188 134.3125,48.8125 Q134.3125,50.9063 135,51.9844 Q135.6875,53.0469 137.0313,53.0469 Q137.6563,53.0469 138.25,52.7813 Q138.8438,52.5 139.4688,51.9219 L139.4688,54.6406 Z " fill="#000000"/><text fill="#000000" font-family="sans-serif" font-size="14" lengthAdjust="spacing" textLength="45" x="150.5" y="53.8467">Object</text><line style="stroke:#181818;stroke-width:0.5;" x1="122.5" x2="197.5" y1="65" y2="65"/><line style="stroke:#181818;stroke-width:0.5;" x1="122.5" x2="197.5" y1="73" y2="73"/></g><!--MD5=[30b6b78b282980057651e3dc50aa88b1]
class net.sourceforge.plantuml.hcl.HclTerm--><g id="elem_net.sourceforge.plantuml.hcl.HclTerm"><rect codeLine="3" fill="#F1F1F1" height="162.0781" id="net.sourceforge.plantuml.hcl.HclTerm" rx="2.5" ry="2.5" style="stroke:#181818;stroke-width:0.5;" width="292" x="14" y="124"/><ellipse cx="127.25" cy="140" fill="#ADD1B2" rx="11" ry="11" style="stroke:#181818;stroke-width:1.0;"/><path d="M130.2188,145.6406 Q129.6406,145.9375 129,146.0781 Q128.3594,146.2344 127.6563,146.2344 Q125.1563,146.2344 123.8281,144.5938 Q122.5156,142.9375 122.5156,139.8125 Q122.5156,136.6875 123.8281,135.0313 Q125.1563,133.375 127.6563,133.375 Q128.3594,133.375 129,133.5313 Q129.6563,133.6875 130.2188,133.9844 L130.2188,136.7031 Q129.5938,136.125 129,135.8594 Q128.4063,135.5781 127.7813,135.5781 Q126.4375,135.5781 125.75,136.6563 Q125.0625,137.7188 125.0625,139.8125 Q125.0625,141.9063 125.75,142.9844 Q126.4375,144.0469 127.7813,144.0469 Q128.4063,144.0469 129,143.7813 Q129.5938,143.5 130.2188,142.9219 L130.2188,145.6406 Z " fill="#000000"/><text fill="#000000" font-family="sans-serif" font-size="14" lengthAdjust="spacing" textLength="57" x="147.75" y="144.8467">HclTerm</text><line style="stroke:#181818;stroke-width:0.5;" x1="15" x2="305" y1="156" y2="156"/><line style="stroke:#181818;stroke-width:0.5;" x1="15" x2="305" y1="164" y2="164"/><a href="./../../../../../.././qc/src/net/sourceforge/plantuml/hcl/HclTerm.java.html#45" target="_top" title="./../../../../../.././qc/src/net/sourceforge/plantuml/hcl/HclTerm.java.html#45" xlink:actuate="onRequest" xlink:href="./../../../../../.././qc/src/net/sourceforge/plantuml/hcl/HclTerm.java.html#45" xlink:show="new" xlink:title="./../../../../../.././qc/src/net/sourceforge/plantuml/hcl/HclTerm.java.html#45" xlink:type="simple"><rect fill="#F1F1F1" height="10" style="stroke:none;stroke-width:1.0;" width="20" x="20" y="172.6484"/><ellipse cx="25" cy="177.6484" fill="#84BE84" rx="3" ry="3" style="stroke:#038048;stroke-width:1.0;"/></a><a href="./../../../../../.././qc/src/net/sourceforge/plantuml/hcl/HclTerm.java.html#45" target="_top" title="./../../../../../.././qc/src/net/sourceforge/plantuml/hcl/HclTerm.java.html#45" xlink:actuate="onRequest" xlink:href="./../../../../../.././qc/src/net/sourceforge/plantuml/hcl/HclTerm.java.html#45" xlink:show="new" xlink:title="./../../../../../.././qc/src/net/sourceforge/plantuml/hcl/HclTerm.java.html#45" xlink:type="simple"><text fill="#000000" font-family="sans-serif" font-size="14" lengthAdjust="spacing" textLength="221" x="34" y="180.9951">HclTerm(SymbolType) : HclTerm</text></a><a href="./../../../../../.././qc/src/net/sourceforge/plantuml/hcl/HclTerm.java.html#50" target="_top" title="./../../../../../.././qc/src/net/sourceforge/plantuml/hcl/HclTerm.java.html#50" xlink:actuate="onRequest" xlink:href="./../../../../../.././qc/src/net/sourceforge/plantuml/hcl/HclTerm.java.html#50" xlink:show="new" xlink:title="./../../../../../.././qc/src/net/sourceforge/plantuml/hcl/HclTerm.java.html#50" xlink:type="simple"><rect fill="#F1F1F1" height="10" style="stroke:none;stroke-width:1.0;" width="20" x="20" y="188.9453"/><ellipse cx="25" cy="193.9453" fill="#84BE84" rx="3" ry="3" style="stroke:#038048;stroke-width:1.0;"/></a><a href="./../../../../../.././qc/src/net/sourceforge/plantuml/hcl/HclTerm.java.html#50" target="_top" title="./../../../../../.././qc/src/net/sourceforge/plantuml/hcl/HclTerm.java.html#50" xlink:actuate="onRequest" xlink:href="./../../../../../.././qc/src/net/sourceforge/plantuml/hcl/HclTerm.java.html#50" xlink:show="new" xlink:title="./../../../../../.././qc/src/net/sourceforge/plantuml/hcl/HclTerm.java.html#50" xlink:type="simple"><text fill="#000000" font-family="sans-serif" font-size="14" lengthAdjust="spacing" textLength="266" x="34" y="197.292">HclTerm(SymbolType;String) : HclTerm</text></a><a href="./../../../../../.././qc/src/net/sourceforge/plantuml/hcl/HclTerm.java.html#56" target="_top" title="./../../../../../.././qc/src/net/sourceforge/plantuml/hcl/HclTerm.java.html#56" xlink:actuate="onRequest" xlink:href="./../../../../../.././qc/src/net/sourceforge/plantuml/hcl/HclTerm.java.html#56" xlink:show="new" xlink:title="./../../../../../.././qc/src/net/sourceforge/plantuml/hcl/HclTerm.java.html#56" xlink:type="simple"><rect fill="#F1F1F1" height="10" style="stroke:none;stroke-width:1.0;" width="20" x="20" y="205.2422"/><ellipse cx="25" cy="210.2422" fill="#84BE84" rx="3" ry="3" style="stroke:#038048;stroke-width:1.0;"/></a><a href="./../../../../../.././qc/src/net/sourceforge/plantuml/hcl/HclTerm.java.html#56" target="_top" title="./../../../../../.././qc/src/net/sourceforge/plantuml/hcl/HclTerm.java.html#56" xlink:actuate="onRequest" xlink:href="./../../../../../.././qc/src/net/sourceforge/plantuml/hcl/HclTerm.java.html#56" xlink:show="new" xlink:title="./../../../../../.././qc/src/net/sourceforge/plantuml/hcl/HclTerm.java.html#56" xlink:type="simple"><text fill="#000000" font-family="sans-serif" font-size="14" lengthAdjust="spacing" textLength="117" x="34" y="213.5889">toString() : String</text></a><a href="./../../../../../.././qc/src/net/sourceforge/plantuml/hcl/HclTerm.java.html#63" target="_top" title="./../../../../../.././qc/src/net/sourceforge/plantuml/hcl/HclTerm.java.html#63" xlink:actuate="onRequest" xlink:href="./../../../../../.././qc/src/net/sourceforge/plantuml/hcl/HclTerm.java.html#63" xlink:show="new" xlink:title="./../../../../../.././qc/src/net/sourceforge/plantuml/hcl/HclTerm.java.html#63" xlink:type="simple"><rect fill="#F1F1F1" height="10" style="stroke:none;stroke-width:1.0;" width="20" x="20" y="221.5391"/><ellipse cx="25" cy="226.5391" fill="#84BE84" rx="3" ry="3" style="stroke:#038048;stroke-width:1.0;"/></a><a href="./../../../../../.././qc/src/net/sourceforge/plantuml/hcl/HclTerm.java.html#63" target="_top" title="./../../../../../.././qc/src/net/sourceforge/plantuml/hcl/HclTerm.java.html#63" xlink:actuate="onRequest" xlink:href="./../../../../../.././qc/src/net/sourceforge/plantuml/hcl/HclTerm.java.html#63" xlink:show="new" xlink:title="./../../../../../.././qc/src/net/sourceforge/plantuml/hcl/HclTerm.java.html#63" xlink:type="simple"><text fill="#000000" font-family="sans-serif" font-size="14" lengthAdjust="spacing" textLength="164" x="34" y="229.8857">getType() : SymbolType</text></a><a href="./../../../../../.././qc/src/net/sourceforge/plantuml/hcl/HclTerm.java.html#67" target="_top" title="./../../../../../.././qc/src/net/sourceforge/plantuml/hcl/HclTerm.java.html#67" xlink:actuate="onRequest" xlink:href="./../../../../../.././qc/src/net/sourceforge/plantuml/hcl/HclTerm.java.html#67" xlink:show="new" xlink:title="./../../../../../.././qc/src/net/sourceforge/plantuml/hcl/HclTerm.java.html#67" xlink:type="simple"><rect fill="#F1F1F1" height="10" style="stroke:none;stroke-width:1.0;" width="20" x="20" y="237.8359"/><ellipse cx="25" cy="242.8359" fill="#84BE84" rx="3" ry="3" style="stroke:#038048;stroke-width:1.0;"/></a><a href="./../../../../../.././qc/src/net/sourceforge/plantuml/hcl/HclTerm.java.html#67" target="_top" title="./../../../../../.././qc/src/net/sourceforge/plantuml/hcl/HclTerm.java.html#67" xlink:actuate="onRequest" xlink:href="./../../../../../.././qc/src/net/sourceforge/plantuml/hcl/HclTerm.java.html#67" xlink:show="new" xlink:title="./../../../../../.././qc/src/net/sourceforge/plantuml/hcl/HclTerm.java.html#67" xlink:type="simple"><text fill="#000000" font-family="sans-serif" font-size="14" lengthAdjust="spacing" textLength="118" x="34" y="246.1826">getData() : String</text></a><a href="./../../../../../.././qc/src/net/sourceforge/plantuml/hcl/HclTerm.java.html#71" target="_top" title="./../../../../../.././qc/src/net/sourceforge/plantuml/hcl/HclTerm.java.html#71" xlink:actuate="onRequest" xlink:href="./../../../../../.././qc/src/net/sourceforge/plantuml/hcl/HclTerm.java.html#71" xlink:show="new" xlink:title="./../../../../../.././qc/src/net/sourceforge/plantuml/hcl/HclTerm.java.html#71" xlink:type="simple"><rect fill="#F1F1F1" height="10" style="stroke:none;stroke-width:1.0;" width="20" x="20" y="254.1328"/><ellipse cx="25" cy="259.1328" fill="#84BE84" rx="3" ry="3" style="stroke:#038048;stroke-width:1.0;"/></a><a href="./../../../../../.././qc/src/net/sourceforge/plantuml/hcl/HclTerm.java.html#71" target="_top" title="./../../../../../.././qc/src/net/sourceforge/plantuml/hcl/HclTerm.java.html#71" xlink:actuate="onRequest" xlink:href="./../../../../../.././qc/src/net/sourceforge/plantuml/hcl/HclTerm.java.html#71" xlink:show="new" xlink:title="./../../../../../.././qc/src/net/sourceforge/plantuml/hcl/HclTerm.java.html#71" xlink:type="simple"><text fill="#000000" font-family="sans-serif" font-size="14" lengthAdjust="spacing" textLength="174" x="34" y="262.4795">is(SymbolType) : boolean</text></a><a href="./../../../../../.././qc/src/net/sourceforge/plantuml/hcl/HclTerm.java.html#75" target="_top" title="./../../../../../.././qc/src/net/sourceforge/plantuml/hcl/HclTerm.java.html#75" xlink:actuate="onRequest" xlink:href="./../../../../../.././qc/src/net/sourceforge/plantuml/hcl/HclTerm.java.html#75" xlink:show="new" xlink:title="./../../../../../.././qc/src/net/sourceforge/plantuml/hcl/HclTerm.java.html#75" xlink:type="simple"><rect fill="#F1F1F1" height="10" style="stroke:none;stroke-width:1.0;" width="20" x="20" y="270.4297"/><ellipse cx="25" cy="275.4297" fill="#84BE84" rx="3" ry="3" style="stroke:#038048;stroke-width:1.0;"/></a><a href="./../../../../../.././qc/src/net/sourceforge/plantuml/hcl/HclTerm.java.html#75" target="_top" title="./../../../../../.././qc/src/net/sourceforge/plantuml/hcl/HclTerm.java.html#75" xlink:actuate="onRequest" xlink:href="./../../../../../.././qc/src/net/sourceforge/plantuml/hcl/HclTerm.java.html#75" xlink:show="new" xlink:title="./../../../../../.././qc/src/net/sourceforge/plantuml/hcl/HclTerm.java.html#75" xlink:type="simple"><text fill="#000000" font-family="sans-serif" font-size="14" lengthAdjust="spacing" textLength="263" x="34" y="278.7764">is(SymbolType;SymbolType) : boolean</text></a></g><path d="M160,81.1341 C160,92.9539 160,108.1145 160,123.7234 " fill="none" style="stroke:#181818;stroke-width:1.0;"/><polygon fill="#FFFFFF" points="160,81.1341,154,97.1341,166,97.1341,160,81.1341" style="stroke:#181818;stroke-width:1.0;"/><!--MD5=[0c7705988c9877812f215b33214f280c]
@startuml
!pragma layout smetana
"java.lang.Object" <|- - "net.sourceforge.plantuml.hcl.HclTerm"
class net.sourceforge.plantuml.hcl.HclTerm {
+HclTerm(SymbolType) : HclTerm [[[./../../../../../.././qc/src/net/sourceforge/plantuml/hcl/HclTerm.java.html#45]]]
+HclTerm(SymbolType;String) : HclTerm [[[./../../../../../.././qc/src/net/sourceforge/plantuml/hcl/HclTerm.java.html#50]]]
+toString() : String [[[./../../../../../.././qc/src/net/sourceforge/plantuml/hcl/HclTerm.java.html#56]]]
+getType() : SymbolType [[[./../../../../../.././qc/src/net/sourceforge/plantuml/hcl/HclTerm.java.html#63]]]
+getData() : String [[[./../../../../../.././qc/src/net/sourceforge/plantuml/hcl/HclTerm.java.html#67]]]
+is(SymbolType) : boolean [[[./../../../../../.././qc/src/net/sourceforge/plantuml/hcl/HclTerm.java.html#71]]]
+is(SymbolType;SymbolType) : boolean [[[./../../../../../.././qc/src/net/sourceforge/plantuml/hcl/HclTerm.java.html#75]]]
} 
@enduml

PlantUML version 1.2022.7(Mon Aug 22 17:01:30 UTC 2022)
(GPL source distribution)
Java Runtime: OpenJDK Runtime Environment
JVM: OpenJDK 64-Bit Server VM
Default Encoding: UTF-8
Language: en
Country: null
--></g></svg>