<?xml version="1.0" encoding="UTF-8" standalone="no"?><svg xmlns="http://www.w3.org/2000/svg" xmlns:xlink="http://www.w3.org/1999/xlink" contentStyleType="text/css" height="2223px" preserveAspectRatio="none" style="width:948px;height:2223px;background:#FFFFFF;" version="1.1" viewBox="0 0 948 2223" width="948px" zoomAndPan="magnify"><defs/><g><path d="M504,10 L504,18.5664 L484,22.5664 L504,26.5664 L504,35.1328 A0,0 0 0 0 504,35.1328 L785,35.1328 A0,0 0 0 0 785,35.1328 L785,20 L775,10 L504,10 A0,0 0 0 0 504,10 " fill="#FEFFDD" style="stroke:#181818;stroke-width:0.5;"/><path d="M775,10 L775,20 L785,20 L775,10 " fill="#FEFFDD" style="stroke:#181818;stroke-width:0.5;"/><text fill="#000000" font-family="sans-serif" font-size="13" lengthAdjust="spacing" textLength="260" x="510" y="27.0669">constructor JsThread(Runnable runnable)</text><ellipse cx="474" cy="22.5664" fill="#222222" rx="10" ry="10" style="stroke:#222222;stroke-width:1.0;"/><rect fill="#F1F1F1" height="33.9688" rx="12.5" ry="12.5" style="stroke:#181818;stroke-width:0.5;" width="173" x="387.5" y="55.1328"/><text fill="#000000" font-family="sans-serif" font-size="12" lengthAdjust="spacing" textLength="153" x="397.5" y="76.2715">this.runnable=runnable;</text><ellipse cx="474" cy="119.1016" fill="none" rx="10" ry="10" style="stroke:#222222;stroke-width:1.5;"/><line style="stroke:#222222;stroke-width:2.5;" x1="467.8128" x2="480.1872" y1="112.9144" y2="125.2887"/><line style="stroke:#222222;stroke-width:2.5;" x1="480.1872" x2="467.8128" y1="112.9144" y2="125.2887"/><path d="M504,139.1016 L504,147.668 L484,151.668 L504,155.668 L504,164.2344 A0,0 0 0 0 504,164.2344 L586,164.2344 A0,0 0 0 0 586,164.2344 L586,149.1016 L576,139.1016 L504,139.1016 A0,0 0 0 0 504,139.1016 " fill="#FEFFDD" style="stroke:#181818;stroke-width:0.5;"/><path d="M576,139.1016 L576,149.1016 L586,149.1016 L576,139.1016 " fill="#FEFFDD" style="stroke:#181818;stroke-width:0.5;"/><text fill="#000000" font-family="sans-serif" font-size="13" lengthAdjust="spacing" textLength="61" x="510" y="156.1685">void run()</text><ellipse cx="474" cy="151.668" fill="#222222" rx="10" ry="10" style="stroke:#222222;stroke-width:1.0;"/><polygon fill="#F1F1F1" points="433,232.6367,515,232.6367,527,244.6367,515,256.6367,433,256.6367,421,244.6367,433,232.6367" style="stroke:#181818;stroke-width:0.5;"/><text fill="#000000" font-family="sans-serif" font-size="11" lengthAdjust="spacing" textLength="82" x="433" y="248.4448">try/catch block</text><rect fill="#F1F1F1" height="33.9688" rx="12.5" ry="12.5" style="stroke:#181818;stroke-width:0.5;" width="212" x="275" y="292.2461"/><text fill="#000000" font-family="sans-serif" font-size="12" lengthAdjust="spacing" textLength="192" x="285" y="313.3848">this.engine=new VizJsEngine();</text><rect fill="#F1F1F1" height="33.9688" rx="12.5" ry="12.5" style="stroke:#181818;stroke-width:0.5;" width="118" x="507" y="292.2461"/><text fill="#000000" font-family="sans-serif" font-size="12" lengthAdjust="spacing" textLength="98" x="517" y="313.3848">Logme.error(e);</text><polygon fill="#F1F1F1" points="474,356.2148,474,356.2148,486,368.2148,474,380.2148,474,380.2148,462,368.2148,474,356.2148" style="stroke:#181818;stroke-width:0.5;"/><polygon fill="#F1F1F1" points="434,184.2344,514,184.2344,526,196.2344,514,208.2344,434,208.2344,422,196.2344,434,184.2344" style="stroke:#181818;stroke-width:0.5;"/><text fill="#000000" font-family="sans-serif" font-size="11" lengthAdjust="spacing" textLength="20" x="478" y="218.4448">yes</text><text fill="#000000" font-family="sans-serif" font-size="11" lengthAdjust="spacing" textLength="76" x="434" y="200.0425">engine==null</text><polygon fill="#F1F1F1" points="474,400.2148,486,412.2148,474,424.2148,462,412.2148,474,400.2148" style="stroke:#181818;stroke-width:0.5;"/><rect fill="#F1F1F1" height="33.9688" rx="12.5" ry="12.5" style="stroke:#181818;stroke-width:0.5;" width="115" x="416.5" y="444.2148"/><text fill="#000000" font-family="sans-serif" font-size="12" lengthAdjust="spacing" textLength="95" x="426.5" y="465.3535">runnable.run();</text><ellipse cx="474" cy="508.1836" fill="none" rx="10" ry="10" style="stroke:#222222;stroke-width:1.5;"/><line style="stroke:#222222;stroke-width:2.5;" x1="467.8128" x2="480.1872" y1="501.9964" y2="514.3708"/><line style="stroke:#222222;stroke-width:2.5;" x1="480.1872" x2="467.8128" y1="501.9964" y2="514.3708"/><path d="M504,528.1836 L504,536.75 L484,540.75 L504,544.75 L504,553.3164 A0,0 0 0 0 504,553.3164 L779,553.3164 A0,0 0 0 0 779,553.3164 L779,538.1836 L769,528.1836 L504,528.1836 A0,0 0 0 0 504,528.1836 " fill="#FEFFDD" style="stroke:#181818;stroke-width:0.5;"/><path d="M769,528.1836 L769,538.1836 L779,538.1836 L769,528.1836 " fill="#FEFFDD" style="stroke:#181818;stroke-width:0.5;"/><text fill="#000000" font-family="sans-serif" font-size="13" lengthAdjust="spacing" textLength="254" x="510" y="545.2505">constructor GraphvizJs(String dotString)</text><ellipse cx="474" cy="540.75" fill="#222222" rx="10" ry="10" style="stroke:#222222;stroke-width:1.0;"/><rect fill="#F1F1F1" height="33.9688" rx="12.5" ry="12.5" style="stroke:#181818;stroke-width:0.5;" width="177" x="385.5" y="573.3164"/><text fill="#000000" font-family="sans-serif" font-size="12" lengthAdjust="spacing" textLength="157" x="395.5" y="594.4551">this.dotString=dotString;</text><ellipse cx="474" cy="637.2852" fill="none" rx="10" ry="10" style="stroke:#222222;stroke-width:1.5;"/><line style="stroke:#222222;stroke-width:2.5;" x1="467.8128" x2="480.1872" y1="631.098" y2="643.4723"/><line style="stroke:#222222;stroke-width:2.5;" x1="480.1872" x2="467.8128" y1="631.098" y2="643.4723"/><path d="M504,657.2852 L504,665.8516 L484,669.8516 L504,673.8516 L504,682.418 A0,0 0 0 0 504,682.418 L805,682.418 A0,0 0 0 0 805,682.418 L805,667.2852 L795,657.2852 L504,657.2852 A0,0 0 0 0 504,657.2852 " fill="#FEFFDD" style="stroke:#181818;stroke-width:0.5;"/><path d="M795,657.2852 L795,667.2852 L805,667.2852 L795,657.2852 " fill="#FEFFDD" style="stroke:#181818;stroke-width:0.5;"/><text fill="#000000" font-family="sans-serif" font-size="13" lengthAdjust="spacing" textLength="280" x="510" y="674.3521">ProcessState createFile3(OutputStream os)</text><ellipse cx="474" cy="669.8516" fill="#222222" rx="10" ry="10" style="stroke:#222222;stroke-width:1.0;"/><polygon fill="#F1F1F1" points="433,702.418,515,702.418,527,714.418,515,726.418,433,726.418,421,714.418,433,702.418" style="stroke:#181818;stroke-width:0.5;"/><text fill="#000000" font-family="sans-serif" font-size="11" lengthAdjust="spacing" textLength="82" x="433" y="718.2261">try/catch block</text><rect fill="#F1F1F1" height="33.9688" rx="12.5" ry="12.5" style="stroke:#181818;stroke-width:0.5;" width="232" x="206" y="762.0273"/><text fill="#000000" font-family="sans-serif" font-size="12" lengthAdjust="spacing" textLength="212" x="216" y="783.166">final String svg=submitJob().get();</text><rect fill="#F1F1F1" height="33.9688" rx="12.5" ry="12.5" style="stroke:#181818;stroke-width:0.5;" width="173" x="235.5" y="815.9961"/><text fill="#000000" font-family="sans-serif" font-size="12" lengthAdjust="spacing" textLength="153" x="245.5" y="837.1348">os.write(svg.getBytes());</text><rect fill="#F1F1F1" height="33.9688" rx="12.5" ry="12.5" style="stroke:#181818;stroke-width:0.5;" width="264" x="190" y="869.9648"/><text fill="#000000" font-family="sans-serif" font-size="12" lengthAdjust="spacing" textLength="244" x="200" y="891.1035">return ProcessState.TERMINATED_OK();</text><ellipse cx="322" cy="934.9336" fill="none" rx="11" ry="11" style="stroke:#222222;stroke-width:1.0;"/><ellipse cx="322" cy="934.9336" fill="#222222" rx="6" ry="6" style="stroke:#111111;stroke-width:1.0;"/><rect fill="#F1F1F1" height="33.9688" rx="12.5" ry="12.5" style="stroke:#181818;stroke-width:0.5;" width="118" x="557" y="762.0273"/><text fill="#000000" font-family="sans-serif" font-size="12" lengthAdjust="spacing" textLength="98" x="567" y="783.166">Logme.error(e);</text><rect fill="#F1F1F1" height="33.9688" rx="12.5" ry="12.5" style="stroke:#181818;stroke-width:0.5;" width="284" x="474" y="815.9961"/><text fill="#000000" font-family="sans-serif" font-size="12" lengthAdjust="spacing" textLength="264" x="484" y="837.1348">throw new GraphvizJsRuntimeException(e);</text><ellipse cx="616" cy="880.9648" fill="none" rx="11" ry="11" style="stroke:#222222;stroke-width:1.0;"/><ellipse cx="616" cy="880.9648" fill="#222222" rx="6" ry="6" style="stroke:#111111;stroke-width:1.0;"/><ellipse cx="474" cy="965.9336" fill="none" rx="10" ry="10" style="stroke:#222222;stroke-width:1.5;"/><line style="stroke:#222222;stroke-width:2.5;" x1="467.8128" x2="480.1872" y1="959.7464" y2="972.1208"/><line style="stroke:#222222;stroke-width:2.5;" x1="480.1872" x2="467.8128" y1="959.7464" y2="972.1208"/><path d="M504,985.9336 L504,994.5 L484,998.5 L504,1002.5 L504,1011.0664 A0,0 0 0 0 504,1011.0664 L703,1011.0664 A0,0 0 0 0 703,1011.0664 L703,995.9336 L693,985.9336 L504,985.9336 A0,0 0 0 0 504,985.9336 " fill="#FEFFDD" style="stroke:#181818;stroke-width:0.5;"/><path d="M693,985.9336 L693,995.9336 L703,995.9336 L693,985.9336 " fill="#FEFFDD" style="stroke:#181818;stroke-width:0.5;"/><text fill="#000000" font-family="sans-serif" font-size="13" lengthAdjust="spacing" textLength="178" x="510" y="1003.0005">Future&lt;String&gt; submitJob()</text><ellipse cx="474" cy="998.5" fill="#222222" rx="10" ry="10" style="stroke:#222222;stroke-width:1.0;"/><rect fill="#F1F1F1" height="33.9688" rx="12.5" ry="12.5" style="stroke:#181818;stroke-width:0.5;" width="926" x="11" y="1031.0664"/><text fill="#000000" font-family="sans-serif" font-size="12" lengthAdjust="spacing" textLength="906" x="21" y="1052.2051">return executorService.submit(new Callable&lt;String &gt;(){public String call()throws Exception{final JsThread th=(JsThread )Thread.currentThread()</text><rect fill="#F1F1F1" height="33.9688" rx="12.5" ry="12.5" style="stroke:#181818;stroke-width:0.5;" width="448" x="250" y="1085.0352"/><text fill="#000000" font-family="sans-serif" font-size="12" lengthAdjust="spacing" textLength="428" x="260" y="1106.1738">final VizJsEngine engine=th.engine;return engine.execute(dotString)</text><rect fill="#F1F1F1" height="33.9688" rx="12.5" ry="12.5" style="stroke:#181818;stroke-width:0.5;" width="45" x="451.5" y="1139.0039"/><text fill="#000000" font-family="sans-serif" font-size="12" lengthAdjust="spacing" textLength="25" x="461.5" y="1160.1426">}});</text><ellipse cx="474" cy="1203.9727" fill="none" rx="11" ry="11" style="stroke:#222222;stroke-width:1.0;"/><ellipse cx="474" cy="1203.9727" fill="#222222" rx="6" ry="6" style="stroke:#111111;stroke-width:1.0;"/><ellipse cx="474" cy="1234.9727" fill="none" rx="10" ry="10" style="stroke:#222222;stroke-width:1.5;"/><line style="stroke:#222222;stroke-width:2.5;" x1="467.8128" x2="480.1872" y1="1228.7855" y2="1241.1598"/><line style="stroke:#222222;stroke-width:2.5;" x1="480.1872" x2="467.8128" y1="1228.7855" y2="1241.1598"/><path d="M504,1254.9727 L504,1263.5391 L484,1267.5391 L504,1271.5391 L504,1280.1055 A0,0 0 0 0 504,1280.1055 L627,1280.1055 A0,0 0 0 0 627,1280.1055 L627,1264.9727 L617,1254.9727 L504,1254.9727 A0,0 0 0 0 504,1254.9727 " fill="#FEFFDD" style="stroke:#181818;stroke-width:0.5;"/><path d="M617,1254.9727 L617,1264.9727 L627,1264.9727 L617,1254.9727 " fill="#FEFFDD" style="stroke:#181818;stroke-width:0.5;"/><text fill="#000000" font-family="sans-serif" font-size="13" lengthAdjust="spacing" textLength="102" x="510" y="1272.0396">File getDotExe()</text><ellipse cx="474" cy="1267.5391" fill="#222222" rx="10" ry="10" style="stroke:#222222;stroke-width:1.0;"/><rect fill="#F1F1F1" height="33.9688" rx="12.5" ry="12.5" style="stroke:#181818;stroke-width:0.5;" width="93" x="427.5" y="1300.1055"/><text fill="#000000" font-family="sans-serif" font-size="12" lengthAdjust="spacing" textLength="73" x="437.5" y="1321.2441">return null ;</text><ellipse cx="474" cy="1365.0742" fill="none" rx="11" ry="11" style="stroke:#222222;stroke-width:1.0;"/><ellipse cx="474" cy="1365.0742" fill="#222222" rx="6" ry="6" style="stroke:#111111;stroke-width:1.0;"/><ellipse cx="474" cy="1396.0742" fill="none" rx="10" ry="10" style="stroke:#222222;stroke-width:1.5;"/><line style="stroke:#222222;stroke-width:2.5;" x1="467.8128" x2="480.1872" y1="1389.887" y2="1402.2614"/><line style="stroke:#222222;stroke-width:2.5;" x1="480.1872" x2="467.8128" y1="1389.887" y2="1402.2614"/><path d="M504,1416.0742 L504,1424.6406 L484,1428.6406 L504,1432.6406 L504,1441.207 A0,0 0 0 0 504,1441.207 L646,1441.207 A0,0 0 0 0 646,1441.207 L646,1426.0742 L636,1416.0742 L504,1416.0742 A0,0 0 0 0 504,1416.0742 " fill="#FEFFDD" style="stroke:#181818;stroke-width:0.5;"/><path d="M636,1416.0742 L636,1426.0742 L646,1426.0742 L636,1416.0742 " fill="#FEFFDD" style="stroke:#181818;stroke-width:0.5;"/><text fill="#000000" font-family="sans-serif" font-size="13" lengthAdjust="spacing" textLength="121" x="510" y="1433.1411">String dotVersion()</text><ellipse cx="474" cy="1428.6406" fill="#222222" rx="10" ry="10" style="stroke:#222222;stroke-width:1.0;"/><rect fill="#F1F1F1" height="33.9688" rx="12.5" ry="12.5" style="stroke:#181818;stroke-width:0.5;" width="103" x="422.5" y="1461.207"/><text fill="#000000" font-family="sans-serif" font-size="12" lengthAdjust="spacing" textLength="83" x="432.5" y="1482.3457">return "VizJs";</text><ellipse cx="474" cy="1526.1758" fill="none" rx="11" ry="11" style="stroke:#222222;stroke-width:1.0;"/><ellipse cx="474" cy="1526.1758" fill="#222222" rx="6" ry="6" style="stroke:#111111;stroke-width:1.0;"/><ellipse cx="474" cy="1557.1758" fill="none" rx="10" ry="10" style="stroke:#222222;stroke-width:1.5;"/><line style="stroke:#222222;stroke-width:2.5;" x1="467.8128" x2="480.1872" y1="1550.9886" y2="1563.363"/><line style="stroke:#222222;stroke-width:2.5;" x1="480.1872" x2="467.8128" y1="1550.9886" y2="1563.363"/><path d="M504,1577.1758 L504,1585.7422 L484,1589.7422 L504,1593.7422 L504,1602.3086 A0,0 0 0 0 504,1602.3086 L676,1602.3086 A0,0 0 0 0 676,1602.3086 L676,1587.1758 L666,1577.1758 L504,1577.1758 A0,0 0 0 0 504,1577.1758 " fill="#FEFFDD" style="stroke:#181818;stroke-width:0.5;"/><path d="M666,1577.1758 L666,1587.1758 L676,1587.1758 L666,1577.1758 " fill="#FEFFDD" style="stroke:#181818;stroke-width:0.5;"/><text fill="#000000" font-family="sans-serif" font-size="13" lengthAdjust="spacing" textLength="151" x="510" y="1594.2427">ExeState getExeState()</text><ellipse cx="474" cy="1589.7422" fill="#222222" rx="10" ry="10" style="stroke:#222222;stroke-width:1.0;"/><rect fill="#F1F1F1" height="33.9688" rx="12.5" ry="12.5" style="stroke:#181818;stroke-width:0.5;" width="143" x="402.5" y="1622.3086"/><text fill="#000000" font-family="sans-serif" font-size="12" lengthAdjust="spacing" textLength="123" x="412.5" y="1643.4473">return ExeState.OK;</text><ellipse cx="474" cy="1687.2773" fill="none" rx="11" ry="11" style="stroke:#222222;stroke-width:1.0;"/><ellipse cx="474" cy="1687.2773" fill="#222222" rx="6" ry="6" style="stroke:#111111;stroke-width:1.0;"/><ellipse cx="474" cy="1718.2773" fill="none" rx="10" ry="10" style="stroke:#222222;stroke-width:1.5;"/><line style="stroke:#222222;stroke-width:2.5;" x1="467.8128" x2="480.1872" y1="1712.0902" y2="1724.4645"/><line style="stroke:#222222;stroke-width:2.5;" x1="480.1872" x2="467.8128" y1="1712.0902" y2="1724.4645"/><path d="M504,1738.2773 L504,1746.8438 L484,1750.8438 L504,1754.8438 L504,1763.4102 A0,0 0 0 0 504,1763.4102 L919,1763.4102 A0,0 0 0 0 919,1763.4102 L919,1748.2773 L909,1738.2773 L504,1738.2773 A0,0 0 0 0 504,1738.2773 " fill="#FEFFDD" style="stroke:#181818;stroke-width:0.5;"/><path d="M909,1738.2773 L909,1748.2773 L919,1748.2773 L909,1738.2773 " fill="#FEFFDD" style="stroke:#181818;stroke-width:0.5;"/><text fill="#000000" font-family="sans-serif" font-size="13" lengthAdjust="spacing" textLength="394" x="510" y="1755.3442">GraphvizVersion getGraphvizVersion(final boolean modeSafe)</text><ellipse cx="474" cy="1750.8438" fill="#222222" rx="10" ry="10" style="stroke:#222222;stroke-width:1.0;"/><rect fill="#F1F1F1" height="33.9688" rx="12.5" ry="12.5" style="stroke:#181818;stroke-width:0.5;" width="534" x="207" y="1783.4102"/><text fill="#000000" font-family="sans-serif" font-size="12" lengthAdjust="spacing" textLength="514" x="217" y="1804.5488">return new GraphvizVersion(){public boolean useShieldForQuantifier(){return true</text><rect fill="#F1F1F1" height="33.9688" rx="12.5" ry="12.5" style="stroke:#181818;stroke-width:0.5;" width="500" x="224" y="1837.3789"/><text fill="#000000" font-family="sans-serif" font-size="12" lengthAdjust="spacing" textLength="480" x="234" y="1858.5176">}public boolean useProtectionWhenThereALinkFromOrToGroup(){return true</text><rect fill="#F1F1F1" height="33.9688" rx="12.5" ry="12.5" style="stroke:#181818;stroke-width:0.5;" width="404" x="272" y="1891.3477"/><text fill="#000000" font-family="sans-serif" font-size="12" lengthAdjust="spacing" textLength="384" x="282" y="1912.4863">}public boolean useXLabelInsteadOfLabel(){return modeSafe</text><rect fill="#F1F1F1" height="33.9688" rx="12.5" ry="12.5" style="stroke:#181818;stroke-width:0.5;" width="603" x="172.5" y="1945.3164"/><text fill="#000000" font-family="sans-serif" font-size="12" lengthAdjust="spacing" textLength="583" x="182.5" y="1966.4551">}public boolean isVizjs(){return true;}public boolean ignoreHorizontalLinks(){return false;}};</text><ellipse cx="474" cy="2010.2852" fill="none" rx="11" ry="11" style="stroke:#222222;stroke-width:1.0;"/><ellipse cx="474" cy="2010.2852" fill="#222222" rx="6" ry="6" style="stroke:#111111;stroke-width:1.0;"/><ellipse cx="474" cy="2041.2852" fill="none" rx="10" ry="10" style="stroke:#222222;stroke-width:1.5;"/><line style="stroke:#222222;stroke-width:2.5;" x1="467.8128" x2="480.1872" y1="2035.098" y2="2047.4723"/><line style="stroke:#222222;stroke-width:2.5;" x1="480.1872" x2="467.8128" y1="2035.098" y2="2047.4723"/><path d="M504,2061.2852 L504,2069.8516 L484,2073.8516 L504,2077.8516 L504,2086.418 A0,0 0 0 0 504,2086.418 L738,2086.418 A0,0 0 0 0 738,2086.418 L738,2071.2852 L728,2061.2852 L504,2061.2852 A0,0 0 0 0 504,2061.2852 " fill="#FEFFDD" style="stroke:#181818;stroke-width:0.5;"/><path d="M728,2061.2852 L728,2071.2852 L738,2071.2852 L728,2061.2852 " fill="#FEFFDD" style="stroke:#181818;stroke-width:0.5;"/><text fill="#000000" font-family="sans-serif" font-size="13" lengthAdjust="spacing" textLength="213" x="510" y="2078.3521">boolean graphviz244onWindows()</text><ellipse cx="474" cy="2073.8516" fill="#222222" rx="10" ry="10" style="stroke:#222222;stroke-width:1.0;"/><rect fill="#F1F1F1" height="33.9688" rx="12.5" ry="12.5" style="stroke:#181818;stroke-width:0.5;" width="97" x="425.5" y="2106.418"/><text fill="#000000" font-family="sans-serif" font-size="12" lengthAdjust="spacing" textLength="77" x="435.5" y="2127.5566">return false;</text><ellipse cx="474" cy="2171.3867" fill="none" rx="11" ry="11" style="stroke:#222222;stroke-width:1.0;"/><ellipse cx="474" cy="2171.3867" fill="#222222" rx="6" ry="6" style="stroke:#111111;stroke-width:1.0;"/><ellipse cx="474" cy="2202.3867" fill="none" rx="10" ry="10" style="stroke:#222222;stroke-width:1.5;"/><line style="stroke:#222222;stroke-width:2.5;" x1="467.8128" x2="480.1872" y1="2196.1995" y2="2208.5739"/><line style="stroke:#222222;stroke-width:2.5;" x1="480.1872" x2="467.8128" y1="2196.1995" y2="2208.5739"/><line style="stroke:#181818;stroke-width:1.0;" x1="474" x2="474" y1="32.5664" y2="55.1328"/><polygon fill="#181818" points="470,45.1328,474,55.1328,478,45.1328,474,49.1328" style="stroke:#181818;stroke-width:1.0;"/><line style="stroke:#181818;stroke-width:1.0;" x1="474" x2="474" y1="89.1016" y2="109.1016"/><polygon fill="#181818" points="470,99.1016,474,109.1016,478,99.1016,474,103.1016" style="stroke:#181818;stroke-width:1.0;"/><line style="stroke:#181818;stroke-width:1.0;" x1="421" x2="381" y1="244.6367" y2="244.6367"/><line style="stroke:#181818;stroke-width:1.0;" x1="381" x2="381" y1="244.6367" y2="292.2461"/><polygon fill="#181818" points="377,282.2461,381,292.2461,385,282.2461,381,286.2461" style="stroke:#181818;stroke-width:1.0;"/><text fill="#000000" font-family="sans-serif" font-size="11" lengthAdjust="spacing" textLength="15" x="381" y="272.2495">try</text><line style="stroke:#181818;stroke-width:1.0;" x1="527" x2="566" y1="244.6367" y2="244.6367"/><line style="stroke:#181818;stroke-width:1.0;" x1="566" x2="566" y1="244.6367" y2="292.2461"/><polygon fill="#181818" points="562,282.2461,566,292.2461,570,282.2461,566,286.2461" style="stroke:#181818;stroke-width:1.0;"/><text fill="#000000" font-family="sans-serif" font-size="11" lengthAdjust="spacing" textLength="107" x="566" y="272.2495">catch (Exception e)</text><line style="stroke:#181818;stroke-width:1.0;" x1="381" x2="381" y1="326.2148" y2="368.2148"/><line style="stroke:#181818;stroke-width:1.0;" x1="381" x2="462" y1="368.2148" y2="368.2148"/><polygon fill="#181818" points="452,364.2148,462,368.2148,452,372.2148,456,368.2148" style="stroke:#181818;stroke-width:1.0;"/><line style="stroke:#181818;stroke-width:1.0;" x1="566" x2="566" y1="326.2148" y2="368.2148"/><line style="stroke:#181818;stroke-width:1.0;" x1="566" x2="486" y1="368.2148" y2="368.2148"/><polygon fill="#181818" points="496,364.2148,486,368.2148,496,372.2148,492,368.2148" style="stroke:#181818;stroke-width:1.0;"/><line style="stroke:#181818;stroke-width:1.0;" x1="474" x2="474" y1="208.2344" y2="232.6367"/><polygon fill="#181818" points="470,222.6367,474,232.6367,478,222.6367,474,226.6367" style="stroke:#181818;stroke-width:1.0;"/><line style="stroke:#181818;stroke-width:1.0;" x1="526" x2="683" y1="196.2344" y2="196.2344"/><polygon fill="#181818" points="679,336.2148,683,346.2148,687,336.2148,683,340.2148" style="stroke:#181818;stroke-width:1.0;"/><line style="stroke:#181818;stroke-width:1.0;" x1="683" x2="683" y1="196.2344" y2="412.2148"/><line style="stroke:#181818;stroke-width:1.0;" x1="683" x2="486" y1="412.2148" y2="412.2148"/><polygon fill="#181818" points="496,408.2148,486,412.2148,496,416.2148,492,412.2148" style="stroke:#181818;stroke-width:1.0;"/><line style="stroke:#181818;stroke-width:1.0;" x1="474" x2="474" y1="380.2148" y2="400.2148"/><polygon fill="#181818" points="470,390.2148,474,400.2148,478,390.2148,474,394.2148" style="stroke:#181818;stroke-width:1.0;"/><line style="stroke:#181818;stroke-width:1.0;" x1="474" x2="474" y1="161.668" y2="184.2344"/><polygon fill="#181818" points="470,174.2344,474,184.2344,478,174.2344,474,178.2344" style="stroke:#181818;stroke-width:1.0;"/><line style="stroke:#181818;stroke-width:1.0;" x1="474" x2="474" y1="424.2148" y2="444.2148"/><polygon fill="#181818" points="470,434.2148,474,444.2148,478,434.2148,474,438.2148" style="stroke:#181818;stroke-width:1.0;"/><line style="stroke:#181818;stroke-width:1.0;" x1="474" x2="474" y1="478.1836" y2="498.1836"/><polygon fill="#181818" points="470,488.1836,474,498.1836,478,488.1836,474,492.1836" style="stroke:#181818;stroke-width:1.0;"/><line style="stroke:#181818;stroke-width:1.0;" x1="474" x2="474" y1="550.75" y2="573.3164"/><polygon fill="#181818" points="470,563.3164,474,573.3164,478,563.3164,474,567.3164" style="stroke:#181818;stroke-width:1.0;"/><line style="stroke:#181818;stroke-width:1.0;" x1="474" x2="474" y1="607.2852" y2="627.2852"/><polygon fill="#181818" points="470,617.2852,474,627.2852,478,617.2852,474,621.2852" style="stroke:#181818;stroke-width:1.0;"/><line style="stroke:#181818;stroke-width:1.0;" x1="322" x2="322" y1="795.9961" y2="815.9961"/><polygon fill="#181818" points="318,805.9961,322,815.9961,326,805.9961,322,809.9961" style="stroke:#181818;stroke-width:1.0;"/><line style="stroke:#181818;stroke-width:1.0;" x1="322" x2="322" y1="849.9648" y2="869.9648"/><polygon fill="#181818" points="318,859.9648,322,869.9648,326,859.9648,322,863.9648" style="stroke:#181818;stroke-width:1.0;"/><line style="stroke:#181818;stroke-width:1.0;" x1="322" x2="322" y1="903.9336" y2="923.9336"/><polygon fill="#181818" points="318,913.9336,322,923.9336,326,913.9336,322,917.9336" style="stroke:#181818;stroke-width:1.0;"/><line style="stroke:#181818;stroke-width:1.0;" x1="616" x2="616" y1="795.9961" y2="815.9961"/><polygon fill="#181818" points="612,805.9961,616,815.9961,620,805.9961,616,809.9961" style="stroke:#181818;stroke-width:1.0;"/><line style="stroke:#181818;stroke-width:1.0;" x1="616" x2="616" y1="849.9648" y2="869.9648"/><polygon fill="#181818" points="612,859.9648,616,869.9648,620,859.9648,616,863.9648" style="stroke:#181818;stroke-width:1.0;"/><line style="stroke:#181818;stroke-width:1.0;" x1="421" x2="322" y1="714.418" y2="714.418"/><line style="stroke:#181818;stroke-width:1.0;" x1="322" x2="322" y1="714.418" y2="762.0273"/><polygon fill="#181818" points="318,752.0273,322,762.0273,326,752.0273,322,756.0273" style="stroke:#181818;stroke-width:1.0;"/><text fill="#000000" font-family="sans-serif" font-size="11" lengthAdjust="spacing" textLength="15" x="322" y="742.0308">try</text><line style="stroke:#181818;stroke-width:1.0;" x1="527" x2="616" y1="714.418" y2="714.418"/><line style="stroke:#181818;stroke-width:1.0;" x1="616" x2="616" y1="714.418" y2="762.0273"/><polygon fill="#181818" points="612,752.0273,616,762.0273,620,752.0273,616,756.0273" style="stroke:#181818;stroke-width:1.0;"/><text fill="#000000" font-family="sans-serif" font-size="11" lengthAdjust="spacing" textLength="107" x="616" y="742.0308">catch (Exception e)</text><line style="stroke:#181818;stroke-width:1.0;" x1="474" x2="474" y1="679.8516" y2="702.418"/><polygon fill="#181818" points="470,692.418,474,702.418,478,692.418,474,696.418" style="stroke:#181818;stroke-width:1.0;"/><line style="stroke:#181818;stroke-width:1.0;" x1="474" x2="474" y1="1008.5" y2="1031.0664"/><polygon fill="#181818" points="470,1021.0664,474,1031.0664,478,1021.0664,474,1025.0664" style="stroke:#181818;stroke-width:1.0;"/><line style="stroke:#181818;stroke-width:1.0;" x1="474" x2="474" y1="1065.0352" y2="1085.0352"/><polygon fill="#181818" points="470,1075.0352,474,1085.0352,478,1075.0352,474,1079.0352" style="stroke:#181818;stroke-width:1.0;"/><line style="stroke:#181818;stroke-width:1.0;" x1="474" x2="474" y1="1119.0039" y2="1139.0039"/><polygon fill="#181818" points="470,1129.0039,474,1139.0039,478,1129.0039,474,1133.0039" style="stroke:#181818;stroke-width:1.0;"/><line style="stroke:#181818;stroke-width:1.0;" x1="474" x2="474" y1="1172.9727" y2="1192.9727"/><polygon fill="#181818" points="470,1182.9727,474,1192.9727,478,1182.9727,474,1186.9727" style="stroke:#181818;stroke-width:1.0;"/><line style="stroke:#181818;stroke-width:1.0;" x1="474" x2="474" y1="1277.5391" y2="1300.1055"/><polygon fill="#181818" points="470,1290.1055,474,1300.1055,478,1290.1055,474,1294.1055" style="stroke:#181818;stroke-width:1.0;"/><line style="stroke:#181818;stroke-width:1.0;" x1="474" x2="474" y1="1334.0742" y2="1354.0742"/><polygon fill="#181818" points="470,1344.0742,474,1354.0742,478,1344.0742,474,1348.0742" style="stroke:#181818;stroke-width:1.0;"/><line style="stroke:#181818;stroke-width:1.0;" x1="474" x2="474" y1="1438.6406" y2="1461.207"/><polygon fill="#181818" points="470,1451.207,474,1461.207,478,1451.207,474,1455.207" style="stroke:#181818;stroke-width:1.0;"/><line style="stroke:#181818;stroke-width:1.0;" x1="474" x2="474" y1="1495.1758" y2="1515.1758"/><polygon fill="#181818" points="470,1505.1758,474,1515.1758,478,1505.1758,474,1509.1758" style="stroke:#181818;stroke-width:1.0;"/><line style="stroke:#181818;stroke-width:1.0;" x1="474" x2="474" y1="1599.7422" y2="1622.3086"/><polygon fill="#181818" points="470,1612.3086,474,1622.3086,478,1612.3086,474,1616.3086" style="stroke:#181818;stroke-width:1.0;"/><line style="stroke:#181818;stroke-width:1.0;" x1="474" x2="474" y1="1656.2773" y2="1676.2773"/><polygon fill="#181818" points="470,1666.2773,474,1676.2773,478,1666.2773,474,1670.2773" style="stroke:#181818;stroke-width:1.0;"/><line style="stroke:#181818;stroke-width:1.0;" x1="474" x2="474" y1="1760.8438" y2="1783.4102"/><polygon fill="#181818" points="470,1773.4102,474,1783.4102,478,1773.4102,474,1777.4102" style="stroke:#181818;stroke-width:1.0;"/><line style="stroke:#181818;stroke-width:1.0;" x1="474" x2="474" y1="1817.3789" y2="1837.3789"/><polygon fill="#181818" points="470,1827.3789,474,1837.3789,478,1827.3789,474,1831.3789" style="stroke:#181818;stroke-width:1.0;"/><line style="stroke:#181818;stroke-width:1.0;" x1="474" x2="474" y1="1871.3477" y2="1891.3477"/><polygon fill="#181818" points="470,1881.3477,474,1891.3477,478,1881.3477,474,1885.3477" style="stroke:#181818;stroke-width:1.0;"/><line style="stroke:#181818;stroke-width:1.0;" x1="474" x2="474" y1="1925.3164" y2="1945.3164"/><polygon fill="#181818" points="470,1935.3164,474,1945.3164,478,1935.3164,474,1939.3164" style="stroke:#181818;stroke-width:1.0;"/><line style="stroke:#181818;stroke-width:1.0;" x1="474" x2="474" y1="1979.2852" y2="1999.2852"/><polygon fill="#181818" points="470,1989.2852,474,1999.2852,478,1989.2852,474,1993.2852" style="stroke:#181818;stroke-width:1.0;"/><line style="stroke:#181818;stroke-width:1.0;" x1="474" x2="474" y1="2083.8516" y2="2106.418"/><polygon fill="#181818" points="470,2096.418,474,2106.418,478,2096.418,474,2100.418" style="stroke:#181818;stroke-width:1.0;"/><line style="stroke:#181818;stroke-width:1.0;" x1="474" x2="474" y1="2140.3867" y2="2160.3867"/><polygon fill="#181818" points="470,2150.3867,474,2160.3867,478,2150.3867,474,2154.3867" style="stroke:#181818;stroke-width:1.0;"/><!--MD5=[d340830abbcafce68455f3167718acd8]
@startuml
!pragma layout smetana
start
note right
constructor JsThread(Runnable runnable)
end note
:this.runnable=runnable;;
end
start
note right
void run()
end note
if (engine==null ) then (yes) 
switch (try/catch block)
case (try)
:this.engine=new VizJsEngine();;
case (catch (Exception e))
:Logme.error(e);;
endswitch
endif 
:runnable.run();;
end
start
note right
constructor GraphvizJs(String dotString)
end note
:this.dotString=dotString;;
end
start
note right
ProcessState createFile3(OutputStream os)
end note
switch (try/catch block)
case (try)
:final String svg=submitJob().get();;
:os.write(svg.getBytes());;
:return ProcessState.TERMINATED_OK();;
stop
case (catch (Exception e))
:Logme.error(e);;
:throw new GraphvizJsRuntimeException(e);;
stop
endswitch
end
start
note right
Future<String> submitJob()
end note
:return executorService.submit(new Callable<String >(){public String call()throws Exception{final JsThread th=(JsThread )Thread.currentThread();
:final VizJsEngine engine=th.engine;return engine.execute(dotString);
:}});;
stop
end
start
note right
File getDotExe()
end note
:return null ;;
stop
end
start
note right
String dotVersion()
end note
:return "VizJs";;
stop
end
start
note right
ExeState getExeState()
end note
:return ExeState.OK;;
stop
end
start
note right
GraphvizVersion getGraphvizVersion(final boolean modeSafe)
end note
:return new GraphvizVersion(){public boolean useShieldForQuantifier(){return true;
:}public boolean useProtectionWhenThereALinkFromOrToGroup(){return true;
:}public boolean useXLabelInsteadOfLabel(){return modeSafe;
:}public boolean isVizjs(){return true;}public boolean ignoreHorizontalLinks(){return false;}};;
stop
end
start
note right
boolean graphviz244onWindows()
end note
:return false;;
stop
end
@enduml

PlantUML version 1.2022.7(Mon Aug 22 17:01:30 UTC 2022)
(GPL source distribution)
Java Runtime: OpenJDK Runtime Environment
JVM: OpenJDK 64-Bit Server VM
Default Encoding: UTF-8
Language: en
Country: null
--></g></svg>