<?xml version="1.0" encoding="UTF-8" standalone="no"?><svg xmlns="http://www.w3.org/2000/svg" xmlns:xlink="http://www.w3.org/1999/xlink" contentStyleType="text/css" height="1252px" preserveAspectRatio="none" style="width:595px;height:1252px;background:#FFFFFF;" version="1.1" viewBox="0 0 595 1252" width="595px" zoomAndPan="magnify"><defs/><g><path d="M211.5,10 L211.5,18.5664 L191.5,22.5664 L211.5,26.5664 L211.5,35.1328 A0,0 0 0 0 211.5,35.1328 L583.5,35.1328 A0,0 0 0 0 583.5,35.1328 L583.5,20 L573.5,10 L211.5,10 A0,0 0 0 0 211.5,10 " fill="#FEFFDD" style="stroke:#181818;stroke-width:0.5;"/><path d="M573.5,10 L573.5,20 L583.5,20 L573.5,10 " fill="#FEFFDD" style="stroke:#181818;stroke-width:0.5;"/><text fill="#000000" font-family="sans-serif" font-size="13" lengthAdjust="spacing" textLength="351" x="217.5" y="27.0669">UPathUtoRight(doublewidth,doubleheight,doubleround)</text><ellipse cx="181.5" cy="22.5664" fill="#222222" rx="10" ry="10" style="stroke:#222222;stroke-width:1.0;"/><rect fill="#F1F1F1" height="33.9688" rx="12.5" ry="12.5" style="stroke:#181818;stroke-width:0.5;" width="219" x="72" y="55.1328"/><text fill="#000000" font-family="sans-serif" font-size="12" lengthAdjust="spacing" textLength="199" x="82" y="76.2715">final doublehalfRound=round/2;</text><rect fill="#F1F1F1" height="33.9688" rx="12.5" ry="12.5" style="stroke:#181818;stroke-width:0.5;" width="215" x="74" y="109.1016"/><text fill="#000000" font-family="sans-serif" font-size="12" lengthAdjust="spacing" textLength="195" x="84" y="130.2402">final UPathresult=new UPath();</text><rect fill="#F1F1F1" height="33.9688" rx="12.5" ry="12.5" style="stroke:#181818;stroke-width:0.5;" width="142" x="110.5" y="163.0703"/><text fill="#000000" font-family="sans-serif" font-size="12" lengthAdjust="spacing" textLength="122" x="120.5" y="184.209">result.moveTo(0,0);</text><rect fill="#F1F1F1" height="33.9688" rx="12.5" ry="12.5" style="stroke:#181818;stroke-width:0.5;" width="223" x="70" y="217.0391"/><text fill="#000000" font-family="sans-serif" font-size="12" lengthAdjust="spacing" textLength="203" x="80" y="238.1777">result.lineTo(width-halfRound,0);</text><rect fill="#F1F1F1" height="47.9375" rx="12.5" ry="12.5" style="stroke:#181818;stroke-width:0.5;" width="299" x="32" y="271.0078"/><text fill="#000000" font-family="sans-serif" font-size="12" lengthAdjust="spacing" textLength="279" x="42" y="292.1465">result.arcTo(new XPoint2D(width,halfRound),</text><text fill="#000000" font-family="sans-serif" font-size="12" lengthAdjust="spacing" textLength="96" x="42" y="306.1152">halfRound,0,1);</text><rect fill="#F1F1F1" height="33.9688" rx="12.5" ry="12.5" style="stroke:#181818;stroke-width:0.5;" width="255" x="54" y="338.9453"/><text fill="#000000" font-family="sans-serif" font-size="12" lengthAdjust="spacing" textLength="235" x="64" y="360.084">result.lineTo(width,height-halfRound);</text><rect fill="#F1F1F1" height="47.9375" rx="12.5" ry="12.5" style="stroke:#181818;stroke-width:0.5;" width="294" x="34.5" y="392.9141"/><text fill="#000000" font-family="sans-serif" font-size="12" lengthAdjust="spacing" textLength="274" x="44.5" y="414.0527">result.arcTo(new XPoint2D(width-halfRound,</text><text fill="#000000" font-family="sans-serif" font-size="12" lengthAdjust="spacing" textLength="145" x="44.5" y="428.0215">height),halfRound,0,1);</text><rect fill="#F1F1F1" height="33.9688" rx="12.5" ry="12.5" style="stroke:#181818;stroke-width:0.5;" width="163" x="100" y="460.8516"/><text fill="#000000" font-family="sans-serif" font-size="12" lengthAdjust="spacing" textLength="143" x="110" y="481.9902">result.lineTo(0,height);</text><rect fill="#F1F1F1" height="33.9688" rx="12.5" ry="12.5" style="stroke:#181818;stroke-width:0.5;" width="103" x="130" y="514.8203"/><text fill="#000000" font-family="sans-serif" font-size="12" lengthAdjust="spacing" textLength="83" x="140" y="535.959">return result;</text><ellipse cx="181.5" cy="579.7891" fill="none" rx="11" ry="11" style="stroke:#222222;stroke-width:1.0;"/><ellipse cx="181.5" cy="579.7891" fill="#222222" rx="6" ry="6" style="stroke:#111111;stroke-width:1.0;"/><ellipse cx="181.5" cy="610.7891" fill="none" rx="10" ry="10" style="stroke:#222222;stroke-width:1.5;"/><line style="stroke:#222222;stroke-width:2.5;" x1="175.3128" x2="187.6872" y1="604.6019" y2="616.9762"/><line style="stroke:#222222;stroke-width:2.5;" x1="187.6872" x2="175.3128" y1="604.6019" y2="616.9762"/><path d="M211.5,630.7891 L211.5,639.3555 L191.5,643.3555 L211.5,647.3555 L211.5,655.9219 A0,0 0 0 0 211.5,655.9219 L575.5,655.9219 A0,0 0 0 0 575.5,655.9219 L575.5,640.7891 L565.5,630.7891 L211.5,630.7891 A0,0 0 0 0 211.5,630.7891 " fill="#FEFFDD" style="stroke:#181818;stroke-width:0.5;"/><path d="M565.5,630.7891 L565.5,640.7891 L575.5,640.7891 L565.5,630.7891 " fill="#FEFFDD" style="stroke:#181818;stroke-width:0.5;"/><text fill="#000000" font-family="sans-serif" font-size="13" lengthAdjust="spacing" textLength="343" x="217.5" y="647.856">UPathUtoLeft(doublewidth,doubleheight,doubleround)</text><ellipse cx="181.5" cy="643.3555" fill="#222222" rx="10" ry="10" style="stroke:#222222;stroke-width:1.0;"/><rect fill="#F1F1F1" height="33.9688" rx="12.5" ry="12.5" style="stroke:#181818;stroke-width:0.5;" width="219" x="72" y="675.9219"/><text fill="#000000" font-family="sans-serif" font-size="12" lengthAdjust="spacing" textLength="199" x="82" y="697.0605">final doublehalfRound=round/2;</text><rect fill="#F1F1F1" height="33.9688" rx="12.5" ry="12.5" style="stroke:#181818;stroke-width:0.5;" width="215" x="74" y="729.8906"/><text fill="#000000" font-family="sans-serif" font-size="12" lengthAdjust="spacing" textLength="195" x="84" y="751.0293">final UPathresult=new UPath();</text><rect fill="#F1F1F1" height="33.9688" rx="12.5" ry="12.5" style="stroke:#181818;stroke-width:0.5;" width="199" x="82" y="783.8594"/><text fill="#000000" font-family="sans-serif" font-size="12" lengthAdjust="spacing" textLength="179" x="92" y="804.998">result.moveTo(width,height);</text><rect fill="#F1F1F1" height="33.9688" rx="12.5" ry="12.5" style="stroke:#181818;stroke-width:0.5;" width="218" x="72.5" y="837.8281"/><text fill="#000000" font-family="sans-serif" font-size="12" lengthAdjust="spacing" textLength="198" x="82.5" y="858.9668">result.lineTo(halfRound,height);</text><rect fill="#F1F1F1" height="47.9375" rx="12.5" ry="12.5" style="stroke:#181818;stroke-width:0.5;" width="318" x="22.5" y="891.7969"/><text fill="#000000" font-family="sans-serif" font-size="12" lengthAdjust="spacing" textLength="298" x="32.5" y="912.9355">result.arcTo(new XPoint2D(0,height-halfRound),</text><text fill="#000000" font-family="sans-serif" font-size="12" lengthAdjust="spacing" textLength="96" x="32.5" y="926.9043">halfRound,0,1);</text><rect fill="#F1F1F1" height="33.9688" rx="12.5" ry="12.5" style="stroke:#181818;stroke-width:0.5;" width="186" x="88.5" y="959.7344"/><text fill="#000000" font-family="sans-serif" font-size="12" lengthAdjust="spacing" textLength="166" x="98.5" y="980.873">result.lineTo(0,halfRound);</text><rect fill="#F1F1F1" height="47.9375" rx="12.5" ry="12.5" style="stroke:#181818;stroke-width:0.5;" width="341" x="11" y="1013.7031"/><text fill="#000000" font-family="sans-serif" font-size="12" lengthAdjust="spacing" textLength="321" x="21" y="1034.8418">result.arcTo(new XPoint2D(halfRound,0),halfRound,</text><text fill="#000000" font-family="sans-serif" font-size="12" lengthAdjust="spacing" textLength="29" x="21" y="1048.8105">0,1);</text><rect fill="#F1F1F1" height="33.9688" rx="12.5" ry="12.5" style="stroke:#181818;stroke-width:0.5;" width="156" x="103.5" y="1081.6406"/><text fill="#000000" font-family="sans-serif" font-size="12" lengthAdjust="spacing" textLength="136" x="113.5" y="1102.7793">result.lineTo(width,0);</text><rect fill="#F1F1F1" height="33.9688" rx="12.5" ry="12.5" style="stroke:#181818;stroke-width:0.5;" width="103" x="130" y="1135.6094"/><text fill="#000000" font-family="sans-serif" font-size="12" lengthAdjust="spacing" textLength="83" x="140" y="1156.748">return result;</text><ellipse cx="181.5" cy="1200.5781" fill="none" rx="11" ry="11" style="stroke:#222222;stroke-width:1.0;"/><ellipse cx="181.5" cy="1200.5781" fill="#222222" rx="6" ry="6" style="stroke:#111111;stroke-width:1.0;"/><ellipse cx="181.5" cy="1231.5781" fill="none" rx="10" ry="10" style="stroke:#222222;stroke-width:1.5;"/><line style="stroke:#222222;stroke-width:2.5;" x1="175.3128" x2="187.6872" y1="1225.3909" y2="1237.7653"/><line style="stroke:#222222;stroke-width:2.5;" x1="187.6872" x2="175.3128" y1="1225.3909" y2="1237.7653"/><line style="stroke:#181818;stroke-width:1.0;" x1="181.5" x2="181.5" y1="32.5664" y2="55.1328"/><polygon fill="#181818" points="177.5,45.1328,181.5,55.1328,185.5,45.1328,181.5,49.1328" style="stroke:#181818;stroke-width:1.0;"/><line style="stroke:#181818;stroke-width:1.0;" x1="181.5" x2="181.5" y1="89.1016" y2="109.1016"/><polygon fill="#181818" points="177.5,99.1016,181.5,109.1016,185.5,99.1016,181.5,103.1016" style="stroke:#181818;stroke-width:1.0;"/><line style="stroke:#181818;stroke-width:1.0;" x1="181.5" x2="181.5" y1="143.0703" y2="163.0703"/><polygon fill="#181818" points="177.5,153.0703,181.5,163.0703,185.5,153.0703,181.5,157.0703" style="stroke:#181818;stroke-width:1.0;"/><line style="stroke:#181818;stroke-width:1.0;" x1="181.5" x2="181.5" y1="197.0391" y2="217.0391"/><polygon fill="#181818" points="177.5,207.0391,181.5,217.0391,185.5,207.0391,181.5,211.0391" style="stroke:#181818;stroke-width:1.0;"/><line style="stroke:#181818;stroke-width:1.0;" x1="181.5" x2="181.5" y1="251.0078" y2="271.0078"/><polygon fill="#181818" points="177.5,261.0078,181.5,271.0078,185.5,261.0078,181.5,265.0078" style="stroke:#181818;stroke-width:1.0;"/><line style="stroke:#181818;stroke-width:1.0;" x1="181.5" x2="181.5" y1="318.9453" y2="338.9453"/><polygon fill="#181818" points="177.5,328.9453,181.5,338.9453,185.5,328.9453,181.5,332.9453" style="stroke:#181818;stroke-width:1.0;"/><line style="stroke:#181818;stroke-width:1.0;" x1="181.5" x2="181.5" y1="372.9141" y2="392.9141"/><polygon fill="#181818" points="177.5,382.9141,181.5,392.9141,185.5,382.9141,181.5,386.9141" style="stroke:#181818;stroke-width:1.0;"/><line style="stroke:#181818;stroke-width:1.0;" x1="181.5" x2="181.5" y1="440.8516" y2="460.8516"/><polygon fill="#181818" points="177.5,450.8516,181.5,460.8516,185.5,450.8516,181.5,454.8516" style="stroke:#181818;stroke-width:1.0;"/><line style="stroke:#181818;stroke-width:1.0;" x1="181.5" x2="181.5" y1="494.8203" y2="514.8203"/><polygon fill="#181818" points="177.5,504.8203,181.5,514.8203,185.5,504.8203,181.5,508.8203" style="stroke:#181818;stroke-width:1.0;"/><line style="stroke:#181818;stroke-width:1.0;" x1="181.5" x2="181.5" y1="548.7891" y2="568.7891"/><polygon fill="#181818" points="177.5,558.7891,181.5,568.7891,185.5,558.7891,181.5,562.7891" style="stroke:#181818;stroke-width:1.0;"/><line style="stroke:#181818;stroke-width:1.0;" x1="181.5" x2="181.5" y1="653.3555" y2="675.9219"/><polygon fill="#181818" points="177.5,665.9219,181.5,675.9219,185.5,665.9219,181.5,669.9219" style="stroke:#181818;stroke-width:1.0;"/><line style="stroke:#181818;stroke-width:1.0;" x1="181.5" x2="181.5" y1="709.8906" y2="729.8906"/><polygon fill="#181818" points="177.5,719.8906,181.5,729.8906,185.5,719.8906,181.5,723.8906" style="stroke:#181818;stroke-width:1.0;"/><line style="stroke:#181818;stroke-width:1.0;" x1="181.5" x2="181.5" y1="763.8594" y2="783.8594"/><polygon fill="#181818" points="177.5,773.8594,181.5,783.8594,185.5,773.8594,181.5,777.8594" style="stroke:#181818;stroke-width:1.0;"/><line style="stroke:#181818;stroke-width:1.0;" x1="181.5" x2="181.5" y1="817.8281" y2="837.8281"/><polygon fill="#181818" points="177.5,827.8281,181.5,837.8281,185.5,827.8281,181.5,831.8281" style="stroke:#181818;stroke-width:1.0;"/><line style="stroke:#181818;stroke-width:1.0;" x1="181.5" x2="181.5" y1="871.7969" y2="891.7969"/><polygon fill="#181818" points="177.5,881.7969,181.5,891.7969,185.5,881.7969,181.5,885.7969" style="stroke:#181818;stroke-width:1.0;"/><line style="stroke:#181818;stroke-width:1.0;" x1="181.5" x2="181.5" y1="939.7344" y2="959.7344"/><polygon fill="#181818" points="177.5,949.7344,181.5,959.7344,185.5,949.7344,181.5,953.7344" style="stroke:#181818;stroke-width:1.0;"/><line style="stroke:#181818;stroke-width:1.0;" x1="181.5" x2="181.5" y1="993.7031" y2="1013.7031"/><polygon fill="#181818" points="177.5,1003.7031,181.5,1013.7031,185.5,1003.7031,181.5,1007.7031" style="stroke:#181818;stroke-width:1.0;"/><line style="stroke:#181818;stroke-width:1.0;" x1="181.5" x2="181.5" y1="1061.6406" y2="1081.6406"/><polygon fill="#181818" points="177.5,1071.6406,181.5,1081.6406,185.5,1071.6406,181.5,1075.6406" style="stroke:#181818;stroke-width:1.0;"/><line style="stroke:#181818;stroke-width:1.0;" x1="181.5" x2="181.5" y1="1115.6094" y2="1135.6094"/><polygon fill="#181818" points="177.5,1125.6094,181.5,1135.6094,185.5,1125.6094,181.5,1129.6094" style="stroke:#181818;stroke-width:1.0;"/><line style="stroke:#181818;stroke-width:1.0;" x1="181.5" x2="181.5" y1="1169.5781" y2="1189.5781"/><polygon fill="#181818" points="177.5,1179.5781,181.5,1189.5781,185.5,1179.5781,181.5,1183.5781" style="stroke:#181818;stroke-width:1.0;"/><!--MD5=[7d77f8e92b1cfec65c5591d2440067ab]
@startuml
!pragma layout smetana
start
note right
UPathUtoRight(doublewidth,doubleheight,doubleround)
end note
:final doublehalfRound=round/2;;
:final UPathresult=new UPath();;
:result.moveTo(0,0);;
:result.lineTo(width-halfRound,0);;
:result.arcTo(new XPoint2D(width,halfRound),
halfRound,0,1);;
:result.lineTo(width,height-halfRound);;
:result.arcTo(new XPoint2D(width-halfRound,
height),halfRound,0,1);;
:result.lineTo(0,height);;
:return result;;
stop
end
start
note right
UPathUtoLeft(doublewidth,doubleheight,doubleround)
end note
:final doublehalfRound=round/2;;
:final UPathresult=new UPath();;
:result.moveTo(width,height);;
:result.lineTo(halfRound,height);;
:result.arcTo(new XPoint2D(0,height-halfRound),
halfRound,0,1);;
:result.lineTo(0,halfRound);;
:result.arcTo(new XPoint2D(halfRound,0),halfRound,
0,1);;
:result.lineTo(width,0);;
:return result;;
stop
end
@enduml

PlantUML version 1.2022.7(Mon Aug 22 17:01:30 UTC 2022)
(GPL source distribution)
Java Runtime: OpenJDK Runtime Environment
JVM: OpenJDK 64-Bit Server VM
Default Encoding: UTF-8
Language: en
Country: null
--></g></svg>