<?xml version="1.0" encoding="UTF-8" standalone="no"?><svg xmlns="http://www.w3.org/2000/svg" xmlns:xlink="http://www.w3.org/1999/xlink" contentStyleType="text/css" height="2341px" preserveAspectRatio="none" style="width:773px;height:2341px;background:#FFFFFF;" version="1.1" viewBox="0 0 773 2341" width="773px" zoomAndPan="magnify"><defs/><g><path d="M272,10 L272,18.5664 L252,22.5664 L272,26.5664 L272,35.1328 A0,0 0 0 0 272,35.1328 L491,35.1328 A0,0 0 0 0 491,35.1328 L491,20 L481,10 L272,10 A0,0 0 0 0 272,10 " fill="#FEFFDD" style="stroke:#181818;stroke-width:0.5;"/><path d="M481,10 L481,20 L491,20 L481,10 " fill="#FEFFDD" style="stroke:#181818;stroke-width:0.5;"/><text fill="#000000" font-family="sans-serif" font-size="13" lengthAdjust="spacing" textLength="198" x="278" y="27.0669">double getTimeHeaderHeight()</text><ellipse cx="242" cy="22.5664" fill="#222222" rx="10" ry="10" style="stroke:#222222;stroke-width:1.0;"/><rect fill="#F1F1F1" height="33.9688" rx="12.5" ry="12.5" style="stroke:#181818;stroke-width:0.5;" width="83" x="200.5" y="55.1328"/><text fill="#000000" font-family="sans-serif" font-size="12" lengthAdjust="spacing" textLength="63" x="210.5" y="76.2715">return 20;</text><ellipse cx="242" cy="120.1016" fill="none" rx="11" ry="11" style="stroke:#222222;stroke-width:1.0;"/><ellipse cx="242" cy="120.1016" fill="#222222" rx="6" ry="6" style="stroke:#111111;stroke-width:1.0;"/><ellipse cx="242" cy="151.1016" fill="none" rx="10" ry="10" style="stroke:#222222;stroke-width:1.5;"/><line style="stroke:#222222;stroke-width:2.5;" x1="235.8128" x2="248.1872" y1="144.9144" y2="157.2887"/><line style="stroke:#222222;stroke-width:2.5;" x1="248.1872" x2="235.8128" y1="144.9144" y2="157.2887"/><path d="M272,171.1016 L272,179.668 L252,183.668 L272,187.668 L272,196.2344 A0,0 0 0 0 272,196.2344 L485,196.2344 A0,0 0 0 0 485,196.2344 L485,181.1016 L475,171.1016 L272,171.1016 A0,0 0 0 0 272,171.1016 " fill="#FEFFDD" style="stroke:#181818;stroke-width:0.5;"/><path d="M475,171.1016 L475,181.1016 L485,181.1016 L475,171.1016 " fill="#FEFFDD" style="stroke:#181818;stroke-width:0.5;"/><text fill="#000000" font-family="sans-serif" font-size="13" lengthAdjust="spacing" textLength="192" x="278" y="188.1685">double getTimeFooterHeight()</text><ellipse cx="242" cy="183.668" fill="#222222" rx="10" ry="10" style="stroke:#222222;stroke-width:1.0;"/><rect fill="#F1F1F1" height="33.9688" rx="12.5" ry="12.5" style="stroke:#181818;stroke-width:0.5;" width="95" x="194.5" y="216.2344"/><text fill="#000000" font-family="sans-serif" font-size="12" lengthAdjust="spacing" textLength="75" x="204.5" y="237.373">return 20-1;</text><ellipse cx="242" cy="281.2031" fill="none" rx="11" ry="11" style="stroke:#222222;stroke-width:1.0;"/><ellipse cx="242" cy="281.2031" fill="#222222" rx="6" ry="6" style="stroke:#111111;stroke-width:1.0;"/><ellipse cx="242" cy="312.2031" fill="none" rx="10" ry="10" style="stroke:#222222;stroke-width:1.5;"/><line style="stroke:#222222;stroke-width:2.5;" x1="235.8128" x2="248.1872" y1="306.0159" y2="318.3903"/><line style="stroke:#222222;stroke-width:2.5;" x1="248.1872" x2="235.8128" y1="306.0159" y2="318.3903"/><path d="M272,332.2031 L272,340.7695 L252,344.7695 L272,348.7695 L272,357.3359 A0,0 0 0 0 272,357.3359 L708,357.3359 A0,0 0 0 0 708,357.3359 L708,342.2031 L698,332.2031 L272,332.2031 A0,0 0 0 0 272,332.2031 " fill="#FEFFDD" style="stroke:#181818;stroke-width:0.5;"/><path d="M698,332.2031 L698,342.2031 L708,342.2031 L698,332.2031 " fill="#FEFFDD" style="stroke:#181818;stroke-width:0.5;"/><text fill="#000000" font-family="sans-serif" font-size="13" lengthAdjust="spacing" textLength="415" x="278" y="349.27">constructor TimeHeaderYearly(TimeHeaderParameters thParam)</text><ellipse cx="242" cy="344.7695" fill="#222222" rx="10" ry="10" style="stroke:#222222;stroke-width:1.0;"/><rect fill="#F1F1F1" height="47.9375" rx="12.5" ry="12.5" style="stroke:#181818;stroke-width:0.5;" width="462" x="11" y="377.3359"/><text fill="#000000" font-family="sans-serif" font-size="12" lengthAdjust="spacing" textLength="442" x="21" y="398.4746">super (thParam,new TimeScaleCompressed(thParam.getStartingDay(),</text><text fill="#000000" font-family="sans-serif" font-size="12" lengthAdjust="spacing" textLength="136" x="21" y="412.4434">thParam.getScale()));</text><ellipse cx="242" cy="455.2734" fill="none" rx="10" ry="10" style="stroke:#222222;stroke-width:1.5;"/><line style="stroke:#222222;stroke-width:2.5;" x1="235.8128" x2="248.1872" y1="449.0863" y2="461.4606"/><line style="stroke:#222222;stroke-width:2.5;" x1="248.1872" x2="235.8128" y1="449.0863" y2="461.4606"/><path d="M272,475.2734 L272,483.8398 L252,487.8398 L272,491.8398 L272,500.4063 A0,0 0 0 0 272,500.4063 L761,500.4063 A0,0 0 0 0 761,500.4063 L761,485.2734 L751,475.2734 L272,475.2734 A0,0 0 0 0 272,475.2734 " fill="#FEFFDD" style="stroke:#181818;stroke-width:0.5;"/><path d="M751,475.2734 L751,485.2734 L761,485.2734 L751,475.2734 " fill="#FEFFDD" style="stroke:#181818;stroke-width:0.5;"/><text fill="#000000" font-family="sans-serif" font-size="13" lengthAdjust="spacing" textLength="468" x="278" y="492.3403">void drawTimeHeader(final UGraphic ug,double totalHeightWithoutFooter)</text><ellipse cx="242" cy="487.8398" fill="#222222" rx="10" ry="10" style="stroke:#222222;stroke-width:1.0;"/><rect fill="#F1F1F1" height="33.9688" rx="12.5" ry="12.5" style="stroke:#181818;stroke-width:0.5;" width="351" x="66.5" y="520.4063"/><text fill="#000000" font-family="sans-serif" font-size="12" lengthAdjust="spacing" textLength="331" x="76.5" y="541.5449">drawTextsBackground(ug,totalHeightWithoutFooter);</text><rect fill="#F1F1F1" height="33.9688" rx="12.5" ry="12.5" style="stroke:#181818;stroke-width:0.5;" width="115" x="184.5" y="574.375"/><text fill="#000000" font-family="sans-serif" font-size="12" lengthAdjust="spacing" textLength="95" x="194.5" y="595.5137">drawYears(ug);</text><rect fill="#F1F1F1" height="33.9688" rx="12.5" ry="12.5" style="stroke:#181818;stroke-width:0.5;" width="123" x="180.5" y="628.3438"/><text fill="#000000" font-family="sans-serif" font-size="12" lengthAdjust="spacing" textLength="103" x="190.5" y="649.4824">drawHline(ug,0);</text><rect fill="#F1F1F1" height="33.9688" rx="12.5" ry="12.5" style="stroke:#181818;stroke-width:0.5;" width="254" x="115" y="682.3125"/><text fill="#000000" font-family="sans-serif" font-size="12" lengthAdjust="spacing" textLength="234" x="125" y="703.4512">drawHline(ug,getFullHeaderHeight());</text><ellipse cx="242" cy="746.2813" fill="none" rx="10" ry="10" style="stroke:#222222;stroke-width:1.5;"/><line style="stroke:#222222;stroke-width:2.5;" x1="235.8128" x2="248.1872" y1="740.0941" y2="752.4684"/><line style="stroke:#222222;stroke-width:2.5;" x1="248.1872" x2="235.8128" y1="740.0941" y2="752.4684"/><path d="M272,766.2813 L272,774.8477 L252,778.8477 L272,782.8477 L272,791.4141 A0,0 0 0 0 272,791.4141 L514,791.4141 A0,0 0 0 0 514,791.4141 L514,776.2813 L504,766.2813 L272,766.2813 A0,0 0 0 0 272,766.2813 " fill="#FEFFDD" style="stroke:#181818;stroke-width:0.5;"/><path d="M504,766.2813 L504,776.2813 L514,776.2813 L504,766.2813 " fill="#FEFFDD" style="stroke:#181818;stroke-width:0.5;"/><text fill="#000000" font-family="sans-serif" font-size="13" lengthAdjust="spacing" textLength="221" x="278" y="783.3481">void drawTimeFooter(UGraphic ug)</text><ellipse cx="242" cy="778.8477" fill="#222222" rx="10" ry="10" style="stroke:#222222;stroke-width:1.0;"/><rect fill="#F1F1F1" height="33.9688" rx="12.5" ry="12.5" style="stroke:#181818;stroke-width:0.5;" width="217" x="133.5" y="811.4141"/><text fill="#000000" font-family="sans-serif" font-size="12" lengthAdjust="spacing" textLength="197" x="143.5" y="832.5527">ug=ug.apply(UTranslate.dy(3));</text><rect fill="#F1F1F1" height="33.9688" rx="12.5" ry="12.5" style="stroke:#181818;stroke-width:0.5;" width="115" x="184.5" y="865.3828"/><text fill="#000000" font-family="sans-serif" font-size="12" lengthAdjust="spacing" textLength="95" x="194.5" y="886.5215">drawYears(ug);</text><rect fill="#F1F1F1" height="33.9688" rx="12.5" ry="12.5" style="stroke:#181818;stroke-width:0.5;" width="123" x="180.5" y="919.3516"/><text fill="#000000" font-family="sans-serif" font-size="12" lengthAdjust="spacing" textLength="103" x="190.5" y="940.4902">drawHline(ug,0);</text><rect fill="#F1F1F1" height="33.9688" rx="12.5" ry="12.5" style="stroke:#181818;stroke-width:0.5;" width="257" x="113.5" y="973.3203"/><text fill="#000000" font-family="sans-serif" font-size="12" lengthAdjust="spacing" textLength="237" x="123.5" y="994.459">drawHline(ug,getTimeFooterHeight());</text><ellipse cx="242" cy="1037.2891" fill="none" rx="10" ry="10" style="stroke:#222222;stroke-width:1.5;"/><line style="stroke:#222222;stroke-width:2.5;" x1="235.8128" x2="248.1872" y1="1031.1019" y2="1043.4762"/><line style="stroke:#222222;stroke-width:2.5;" x1="248.1872" x2="235.8128" y1="1031.1019" y2="1043.4762"/><path d="M272,1057.2891 L272,1065.8555 L252,1069.8555 L272,1073.8555 L272,1082.4219 A0,0 0 0 0 272,1082.4219 L507,1082.4219 A0,0 0 0 0 507,1082.4219 L507,1067.2891 L497,1057.2891 L272,1057.2891 A0,0 0 0 0 272,1057.2891 " fill="#FEFFDD" style="stroke:#181818;stroke-width:0.5;"/><path d="M497,1057.2891 L497,1067.2891 L507,1067.2891 L497,1057.2891 " fill="#FEFFDD" style="stroke:#181818;stroke-width:0.5;"/><text fill="#000000" font-family="sans-serif" font-size="13" lengthAdjust="spacing" textLength="214" x="278" y="1074.356">void drawYears(final UGraphic ug)</text><ellipse cx="242" cy="1069.8555" fill="#222222" rx="10" ry="10" style="stroke:#222222;stroke-width:1.0;"/><rect fill="#F1F1F1" height="33.9688" rx="12.5" ry="12.5" style="stroke:#181818;stroke-width:0.5;" width="154" x="165" y="1102.4219"/><text fill="#000000" font-family="sans-serif" font-size="12" lengthAdjust="spacing" textLength="134" x="175" y="1123.5605">MonthYear last=null ;</text><rect fill="#F1F1F1" height="33.9688" rx="12.5" ry="12.5" style="stroke:#181818;stroke-width:0.5;" width="164" x="160" y="1156.3906"/><text fill="#000000" font-family="sans-serif" font-size="12" lengthAdjust="spacing" textLength="144" x="170" y="1177.5293">double lastChange=-1;</text><rect fill="#F1F1F1" height="33.9688" rx="12.5" ry="12.5" style="stroke:#181818;stroke-width:0.5;" width="381" x="51.5" y="1210.3594"/><text fill="#000000" font-family="sans-serif" font-size="12" lengthAdjust="spacing" textLength="361" x="61.5" y="1231.498">final double x1=getTimeScale().getStartingPosition(wink);</text><rect fill="#F1F1F1" height="33.9688" rx="12.5" ry="12.5" style="stroke:#181818;stroke-width:0.5;" width="193" x="145.5" y="1312.7305"/><text fill="#000000" font-family="sans-serif" font-size="12" lengthAdjust="spacing" textLength="173" x="155.5" y="1333.8691">drawVbar(ug,x1,0,19,false);</text><rect fill="#F1F1F1" height="33.9688" rx="12.5" ry="12.5" style="stroke:#181818;stroke-width:0.5;" width="227" x="128.5" y="1415.1016"/><text fill="#000000" font-family="sans-serif" font-size="12" lengthAdjust="spacing" textLength="207" x="138.5" y="1436.2402">printYear(ug,last,lastChange,x1);</text><polygon fill="#F1F1F1" points="213.5,1366.6992,270.5,1366.6992,282.5,1378.6992,270.5,1390.6992,213.5,1390.6992,201.5,1378.6992,213.5,1366.6992" style="stroke:#181818;stroke-width:0.5;"/><text fill="#000000" font-family="sans-serif" font-size="11" lengthAdjust="spacing" textLength="20" x="246" y="1400.9097">yes</text><text fill="#000000" font-family="sans-serif" font-size="11" lengthAdjust="spacing" textLength="53" x="213.5" y="1382.5073">last!=null</text><polygon fill="#F1F1F1" points="242,1473.4727,254,1485.4727,242,1497.4727,230,1485.4727,242,1473.4727" style="stroke:#181818;stroke-width:0.5;"/><rect fill="#F1F1F1" height="33.9688" rx="12.5" ry="12.5" style="stroke:#181818;stroke-width:0.5;" width="119" x="182.5" y="1517.4727"/><text fill="#000000" font-family="sans-serif" font-size="12" lengthAdjust="spacing" textLength="99" x="192.5" y="1538.6113">lastChange=x1;</text><rect fill="#F1F1F1" height="33.9688" rx="12.5" ry="12.5" style="stroke:#181818;stroke-width:0.5;" width="166" x="159" y="1571.4414"/><text fill="#000000" font-family="sans-serif" font-size="12" lengthAdjust="spacing" textLength="146" x="169" y="1592.5801">last=wink.monthYear();</text><polygon fill="#F1F1F1" points="103.5,1264.3281,380.5,1264.3281,392.5,1276.3281,380.5,1288.3281,103.5,1288.3281,91.5,1276.3281,103.5,1264.3281" style="stroke:#181818;stroke-width:0.5;"/><text fill="#000000" font-family="sans-serif" font-size="11" lengthAdjust="spacing" textLength="20" x="246" y="1298.5386">yes</text><text fill="#000000" font-family="sans-serif" font-size="11" lengthAdjust="spacing" textLength="277" x="103.5" y="1280.1362">last==null ||wink.monthYear().year()!=last.year()</text><polygon fill="#F1F1F1" points="242,1625.4102,254,1637.4102,242,1649.4102,230,1637.4102,242,1625.4102" style="stroke:#181818;stroke-width:0.5;"/><rect fill="#F1F1F1" height="33.9688" rx="12.5" ry="12.5" style="stroke:#181818;stroke-width:0.5;" width="456" x="14" y="1669.4102"/><text fill="#000000" font-family="sans-serif" font-size="12" lengthAdjust="spacing" textLength="436" x="24" y="1690.5488">final double x1=getTimeScale().getStartingPosition(max.increment());</text><rect fill="#F1F1F1" height="33.9688" rx="12.5" ry="12.5" style="stroke:#181818;stroke-width:0.5;" width="227" x="128.5" y="1771.7813"/><text fill="#000000" font-family="sans-serif" font-size="12" lengthAdjust="spacing" textLength="207" x="138.5" y="1792.9199">printYear(ug,last,lastChange,x1);</text><polygon fill="#F1F1F1" points="199,1723.3789,285,1723.3789,297,1735.3789,285,1747.3789,199,1747.3789,187,1735.3789,199,1723.3789" style="stroke:#181818;stroke-width:0.5;"/><text fill="#000000" font-family="sans-serif" font-size="11" lengthAdjust="spacing" textLength="20" x="246" y="1757.5894">yes</text><text fill="#000000" font-family="sans-serif" font-size="11" lengthAdjust="spacing" textLength="86" x="199" y="1739.187">x1&gt;lastChange</text><polygon fill="#F1F1F1" points="242,1825.75,254,1837.75,242,1849.75,230,1837.75,242,1825.75" style="stroke:#181818;stroke-width:0.5;"/><rect fill="#F1F1F1" height="47.9375" rx="12.5" ry="12.5" style="stroke:#181818;stroke-width:0.5;" width="355" x="64.5" y="1869.75"/><text fill="#000000" font-family="sans-serif" font-size="12" lengthAdjust="spacing" textLength="335" x="74.5" y="1890.8887">drawVbar(ug,getTimeScale().getEndingPosition(max),</text><text fill="#000000" font-family="sans-serif" font-size="12" lengthAdjust="spacing" textLength="71" x="74.5" y="1904.8574">0,19,false);</text><ellipse cx="242" cy="1947.6875" fill="none" rx="10" ry="10" style="stroke:#222222;stroke-width:1.5;"/><line style="stroke:#222222;stroke-width:2.5;" x1="235.8128" x2="248.1872" y1="1941.5003" y2="1953.8747"/><line style="stroke:#222222;stroke-width:2.5;" x1="248.1872" x2="235.8128" y1="1941.5003" y2="1953.8747"/><path d="M272,1967.6875 L272,1983.8203 L252,1987.8203 L272,1991.8203 L272,2007.9531 A0,0 0 0 0 272,2007.9531 L614,2007.9531 A0,0 0 0 0 614,2007.9531 L614,1977.6875 L604,1967.6875 L272,1967.6875 A0,0 0 0 0 272,1967.6875 " fill="#FEFFDD" style="stroke:#181818;stroke-width:0.5;"/><path d="M604,1967.6875 L604,1977.6875 L614,1977.6875 L604,1967.6875 " fill="#FEFFDD" style="stroke:#181818;stroke-width:0.5;"/><text fill="#000000" font-family="sans-serif" font-size="13" lengthAdjust="spacing" textLength="321" x="278" y="1984.7544">void printYear(UGraphic ug,MonthYear monthYear,</text><text fill="#000000" font-family="sans-serif" font-size="13" lengthAdjust="spacing" textLength="157" x="278" y="1999.8872">double start,double end)</text><ellipse cx="242" cy="1987.8203" fill="#222222" rx="10" ry="10" style="stroke:#222222;stroke-width:1.0;"/><rect fill="#F1F1F1" height="47.9375" rx="12.5" ry="12.5" style="stroke:#181818;stroke-width:0.5;" width="373" x="55.5" y="2027.9531"/><text fill="#000000" font-family="sans-serif" font-size="12" lengthAdjust="spacing" textLength="353" x="65.5" y="2049.0918">final TextBlock small=getTextBlock(""+monthYear.year(),</text><text fill="#000000" font-family="sans-serif" font-size="12" lengthAdjust="spacing" textLength="161" x="65.5" y="2063.0605">14,true,openFontColor());</text><rect fill="#F1F1F1" height="33.9688" rx="12.5" ry="12.5" style="stroke:#181818;stroke-width:0.5;" width="265" x="109.5" y="2095.8906"/><text fill="#000000" font-family="sans-serif" font-size="12" lengthAdjust="spacing" textLength="245" x="119.5" y="2117.0293">printCentered(ug,true,start,end,small);</text><ellipse cx="242" cy="2159.8594" fill="none" rx="10" ry="10" style="stroke:#222222;stroke-width:1.5;"/><line style="stroke:#222222;stroke-width:2.5;" x1="235.8128" x2="248.1872" y1="2153.6722" y2="2166.0466"/><line style="stroke:#222222;stroke-width:2.5;" x1="248.1872" x2="235.8128" y1="2153.6722" y2="2166.0466"/><path d="M272,2179.8594 L272,2188.4258 L252,2192.4258 L272,2196.4258 L272,2204.9922 A0,0 0 0 0 272,2204.9922 L481,2204.9922 A0,0 0 0 0 481,2204.9922 L481,2189.8594 L471,2179.8594 L272,2179.8594 A0,0 0 0 0 272,2179.8594 " fill="#FEFFDD" style="stroke:#181818;stroke-width:0.5;"/><path d="M471,2179.8594 L471,2189.8594 L481,2189.8594 L471,2179.8594 " fill="#FEFFDD" style="stroke:#181818;stroke-width:0.5;"/><text fill="#000000" font-family="sans-serif" font-size="13" lengthAdjust="spacing" textLength="188" x="278" y="2196.9263">double getFullHeaderHeight()</text><ellipse cx="242" cy="2192.4258" fill="#222222" rx="10" ry="10" style="stroke:#222222;stroke-width:1.0;"/><rect fill="#F1F1F1" height="33.9688" rx="12.5" ry="12.5" style="stroke:#181818;stroke-width:0.5;" width="214" x="135" y="2224.9922"/><text fill="#000000" font-family="sans-serif" font-size="12" lengthAdjust="spacing" textLength="194" x="145" y="2246.1309">return getTimeHeaderHeight();</text><ellipse cx="242" cy="2289.9609" fill="none" rx="11" ry="11" style="stroke:#222222;stroke-width:1.0;"/><ellipse cx="242" cy="2289.9609" fill="#222222" rx="6" ry="6" style="stroke:#111111;stroke-width:1.0;"/><ellipse cx="242" cy="2320.9609" fill="none" rx="10" ry="10" style="stroke:#222222;stroke-width:1.5;"/><line style="stroke:#222222;stroke-width:2.5;" x1="235.8128" x2="248.1872" y1="2314.7738" y2="2327.1481"/><line style="stroke:#222222;stroke-width:2.5;" x1="248.1872" x2="235.8128" y1="2314.7738" y2="2327.1481"/><line style="stroke:#181818;stroke-width:1.0;" x1="242" x2="242" y1="32.5664" y2="55.1328"/><polygon fill="#181818" points="238,45.1328,242,55.1328,246,45.1328,242,49.1328" style="stroke:#181818;stroke-width:1.0;"/><line style="stroke:#181818;stroke-width:1.0;" x1="242" x2="242" y1="89.1016" y2="109.1016"/><polygon fill="#181818" points="238,99.1016,242,109.1016,246,99.1016,242,103.1016" style="stroke:#181818;stroke-width:1.0;"/><line style="stroke:#181818;stroke-width:1.0;" x1="242" x2="242" y1="193.668" y2="216.2344"/><polygon fill="#181818" points="238,206.2344,242,216.2344,246,206.2344,242,210.2344" style="stroke:#181818;stroke-width:1.0;"/><line style="stroke:#181818;stroke-width:1.0;" x1="242" x2="242" y1="250.2031" y2="270.2031"/><polygon fill="#181818" points="238,260.2031,242,270.2031,246,260.2031,242,264.2031" style="stroke:#181818;stroke-width:1.0;"/><line style="stroke:#181818;stroke-width:1.0;" x1="242" x2="242" y1="354.7695" y2="377.3359"/><polygon fill="#181818" points="238,367.3359,242,377.3359,246,367.3359,242,371.3359" style="stroke:#181818;stroke-width:1.0;"/><line style="stroke:#181818;stroke-width:1.0;" x1="242" x2="242" y1="425.2734" y2="445.2734"/><polygon fill="#181818" points="238,435.2734,242,445.2734,246,435.2734,242,439.2734" style="stroke:#181818;stroke-width:1.0;"/><line style="stroke:#181818;stroke-width:1.0;" x1="242" x2="242" y1="497.8398" y2="520.4063"/><polygon fill="#181818" points="238,510.4063,242,520.4063,246,510.4063,242,514.4063" style="stroke:#181818;stroke-width:1.0;"/><line style="stroke:#181818;stroke-width:1.0;" x1="242" x2="242" y1="554.375" y2="574.375"/><polygon fill="#181818" points="238,564.375,242,574.375,246,564.375,242,568.375" style="stroke:#181818;stroke-width:1.0;"/><line style="stroke:#181818;stroke-width:1.0;" x1="242" x2="242" y1="608.3438" y2="628.3438"/><polygon fill="#181818" points="238,618.3438,242,628.3438,246,618.3438,242,622.3438" style="stroke:#181818;stroke-width:1.0;"/><line style="stroke:#181818;stroke-width:1.0;" x1="242" x2="242" y1="662.3125" y2="682.3125"/><polygon fill="#181818" points="238,672.3125,242,682.3125,246,672.3125,242,676.3125" style="stroke:#181818;stroke-width:1.0;"/><line style="stroke:#181818;stroke-width:1.0;" x1="242" x2="242" y1="716.2813" y2="736.2813"/><polygon fill="#181818" points="238,726.2813,242,736.2813,246,726.2813,242,730.2813" style="stroke:#181818;stroke-width:1.0;"/><line style="stroke:#181818;stroke-width:1.0;" x1="242" x2="242" y1="788.8477" y2="811.4141"/><polygon fill="#181818" points="238,801.4141,242,811.4141,246,801.4141,242,805.4141" style="stroke:#181818;stroke-width:1.0;"/><line style="stroke:#181818;stroke-width:1.0;" x1="242" x2="242" y1="845.3828" y2="865.3828"/><polygon fill="#181818" points="238,855.3828,242,865.3828,246,855.3828,242,859.3828" style="stroke:#181818;stroke-width:1.0;"/><line style="stroke:#181818;stroke-width:1.0;" x1="242" x2="242" y1="899.3516" y2="919.3516"/><polygon fill="#181818" points="238,909.3516,242,919.3516,246,909.3516,242,913.3516" style="stroke:#181818;stroke-width:1.0;"/><line style="stroke:#181818;stroke-width:1.0;" x1="242" x2="242" y1="953.3203" y2="973.3203"/><polygon fill="#181818" points="238,963.3203,242,973.3203,246,963.3203,242,967.3203" style="stroke:#181818;stroke-width:1.0;"/><line style="stroke:#181818;stroke-width:1.0;" x1="242" x2="242" y1="1007.2891" y2="1027.2891"/><polygon fill="#181818" points="238,1017.2891,242,1027.2891,246,1017.2891,242,1021.2891" style="stroke:#181818;stroke-width:1.0;"/><line style="stroke:#181818;stroke-width:1.0;" x1="242" x2="242" y1="1079.8555" y2="1102.4219"/><polygon fill="#181818" points="238,1092.4219,242,1102.4219,246,1092.4219,242,1096.4219" style="stroke:#181818;stroke-width:1.0;"/><line style="stroke:#181818;stroke-width:1.0;" x1="242" x2="242" y1="1136.3906" y2="1156.3906"/><polygon fill="#181818" points="238,1146.3906,242,1156.3906,246,1146.3906,242,1150.3906" style="stroke:#181818;stroke-width:1.0;"/><line style="stroke:#181818;stroke-width:1.0;" x1="242" x2="242" y1="1190.3594" y2="1210.3594"/><polygon fill="#181818" points="238,1200.3594,242,1210.3594,246,1200.3594,242,1204.3594" style="stroke:#181818;stroke-width:1.0;"/><line style="stroke:#181818;stroke-width:1.0;" x1="242" x2="242" y1="1390.6992" y2="1415.1016"/><polygon fill="#181818" points="238,1405.1016,242,1415.1016,246,1405.1016,242,1409.1016" style="stroke:#181818;stroke-width:1.0;"/><line style="stroke:#181818;stroke-width:1.0;" x1="282.5" x2="365.5" y1="1378.6992" y2="1378.6992"/><polygon fill="#181818" points="361.5,1422.0859,365.5,1432.0859,369.5,1422.0859,365.5,1426.0859" style="stroke:#181818;stroke-width:1.0;"/><line style="stroke:#181818;stroke-width:1.0;" x1="365.5" x2="365.5" y1="1378.6992" y2="1485.4727"/><line style="stroke:#181818;stroke-width:1.0;" x1="365.5" x2="254" y1="1485.4727" y2="1485.4727"/><polygon fill="#181818" points="264,1481.4727,254,1485.4727,264,1489.4727,260,1485.4727" style="stroke:#181818;stroke-width:1.0;"/><line style="stroke:#181818;stroke-width:1.0;" x1="242" x2="242" y1="1449.0703" y2="1473.4727"/><polygon fill="#181818" points="238,1463.4727,242,1473.4727,246,1463.4727,242,1467.4727" style="stroke:#181818;stroke-width:1.0;"/><line style="stroke:#181818;stroke-width:1.0;" x1="242" x2="242" y1="1346.6992" y2="1366.6992"/><polygon fill="#181818" points="238,1356.6992,242,1366.6992,246,1356.6992,242,1360.6992" style="stroke:#181818;stroke-width:1.0;"/><line style="stroke:#181818;stroke-width:1.0;" x1="242" x2="242" y1="1497.4727" y2="1517.4727"/><polygon fill="#181818" points="238,1507.4727,242,1517.4727,246,1507.4727,242,1511.4727" style="stroke:#181818;stroke-width:1.0;"/><line style="stroke:#181818;stroke-width:1.0;" x1="242" x2="242" y1="1551.4414" y2="1571.4414"/><polygon fill="#181818" points="238,1561.4414,242,1571.4414,246,1561.4414,242,1565.4414" style="stroke:#181818;stroke-width:1.0;"/><line style="stroke:#181818;stroke-width:1.0;" x1="242" x2="242" y1="1288.3281" y2="1312.7305"/><polygon fill="#181818" points="238,1302.7305,242,1312.7305,246,1302.7305,242,1306.7305" style="stroke:#181818;stroke-width:1.0;"/><line style="stroke:#181818;stroke-width:1.0;" x1="392.5" x2="404.5" y1="1276.3281" y2="1276.3281"/><polygon fill="#181818" points="400.5,1456.5703,404.5,1466.5703,408.5,1456.5703,404.5,1460.5703" style="stroke:#181818;stroke-width:1.0;"/><line style="stroke:#181818;stroke-width:1.0;" x1="404.5" x2="404.5" y1="1276.3281" y2="1637.4102"/><line style="stroke:#181818;stroke-width:1.0;" x1="404.5" x2="254" y1="1637.4102" y2="1637.4102"/><polygon fill="#181818" points="264,1633.4102,254,1637.4102,264,1641.4102,260,1637.4102" style="stroke:#181818;stroke-width:1.0;"/><line style="stroke:#181818;stroke-width:1.0;" x1="242" x2="242" y1="1605.4102" y2="1625.4102"/><polygon fill="#181818" points="238,1615.4102,242,1625.4102,246,1615.4102,242,1619.4102" style="stroke:#181818;stroke-width:1.0;"/><line style="stroke:#181818;stroke-width:1.0;" x1="242" x2="242" y1="1244.3281" y2="1264.3281"/><polygon fill="#181818" points="238,1254.3281,242,1264.3281,246,1254.3281,242,1258.3281" style="stroke:#181818;stroke-width:1.0;"/><line style="stroke:#181818;stroke-width:1.0;" x1="242" x2="242" y1="1649.4102" y2="1669.4102"/><polygon fill="#181818" points="238,1659.4102,242,1669.4102,246,1659.4102,242,1663.4102" style="stroke:#181818;stroke-width:1.0;"/><line style="stroke:#181818;stroke-width:1.0;" x1="242" x2="242" y1="1747.3789" y2="1771.7813"/><polygon fill="#181818" points="238,1761.7813,242,1771.7813,246,1761.7813,242,1765.7813" style="stroke:#181818;stroke-width:1.0;"/><line style="stroke:#181818;stroke-width:1.0;" x1="297" x2="365.5" y1="1735.3789" y2="1735.3789"/><polygon fill="#181818" points="361.5,1778.7656,365.5,1788.7656,369.5,1778.7656,365.5,1782.7656" style="stroke:#181818;stroke-width:1.0;"/><line style="stroke:#181818;stroke-width:1.0;" x1="365.5" x2="365.5" y1="1735.3789" y2="1837.75"/><line style="stroke:#181818;stroke-width:1.0;" x1="365.5" x2="254" y1="1837.75" y2="1837.75"/><polygon fill="#181818" points="264,1833.75,254,1837.75,264,1841.75,260,1837.75" style="stroke:#181818;stroke-width:1.0;"/><line style="stroke:#181818;stroke-width:1.0;" x1="242" x2="242" y1="1805.75" y2="1825.75"/><polygon fill="#181818" points="238,1815.75,242,1825.75,246,1815.75,242,1819.75" style="stroke:#181818;stroke-width:1.0;"/><line style="stroke:#181818;stroke-width:1.0;" x1="242" x2="242" y1="1703.3789" y2="1723.3789"/><polygon fill="#181818" points="238,1713.3789,242,1723.3789,246,1713.3789,242,1717.3789" style="stroke:#181818;stroke-width:1.0;"/><line style="stroke:#181818;stroke-width:1.0;" x1="242" x2="242" y1="1849.75" y2="1869.75"/><polygon fill="#181818" points="238,1859.75,242,1869.75,246,1859.75,242,1863.75" style="stroke:#181818;stroke-width:1.0;"/><line style="stroke:#181818;stroke-width:1.0;" x1="242" x2="242" y1="1917.6875" y2="1937.6875"/><polygon fill="#181818" points="238,1927.6875,242,1937.6875,246,1927.6875,242,1931.6875" style="stroke:#181818;stroke-width:1.0;"/><line style="stroke:#181818;stroke-width:1.0;" x1="242" x2="242" y1="1997.8203" y2="2027.9531"/><polygon fill="#181818" points="238,2017.9531,242,2027.9531,246,2017.9531,242,2021.9531" style="stroke:#181818;stroke-width:1.0;"/><line style="stroke:#181818;stroke-width:1.0;" x1="242" x2="242" y1="2075.8906" y2="2095.8906"/><polygon fill="#181818" points="238,2085.8906,242,2095.8906,246,2085.8906,242,2089.8906" style="stroke:#181818;stroke-width:1.0;"/><line style="stroke:#181818;stroke-width:1.0;" x1="242" x2="242" y1="2129.8594" y2="2149.8594"/><polygon fill="#181818" points="238,2139.8594,242,2149.8594,246,2139.8594,242,2143.8594" style="stroke:#181818;stroke-width:1.0;"/><line style="stroke:#181818;stroke-width:1.0;" x1="242" x2="242" y1="2202.4258" y2="2224.9922"/><polygon fill="#181818" points="238,2214.9922,242,2224.9922,246,2214.9922,242,2218.9922" style="stroke:#181818;stroke-width:1.0;"/><line style="stroke:#181818;stroke-width:1.0;" x1="242" x2="242" y1="2258.9609" y2="2278.9609"/><polygon fill="#181818" points="238,2268.9609,242,2278.9609,246,2268.9609,242,2272.9609" style="stroke:#181818;stroke-width:1.0;"/><!--MD5=[72667935226050067914a4132ecb7159]
@startuml
!pragma layout smetana
start
note right
double getTimeHeaderHeight()
end note
:return 20;;
stop
end
start
note right
double getTimeFooterHeight()
end note
:return 20-1;;
stop
end
start
note right
constructor TimeHeaderYearly(TimeHeaderParameters thParam)
end note
:super (thParam,new TimeScaleCompressed(thParam.getStartingDay(),
thParam.getScale()));;
end
start
note right
void drawTimeHeader(final UGraphic ug,double totalHeightWithoutFooter)
end note
:drawTextsBackground(ug,totalHeightWithoutFooter);;
:drawYears(ug);;
:drawHline(ug,0);;
:drawHline(ug,getFullHeaderHeight());;
end
start
note right
void drawTimeFooter(UGraphic ug)
end note
:ug=ug.apply(UTranslate.dy(3));;
:drawYears(ug);;
:drawHline(ug,0);;
:drawHline(ug,getTimeFooterHeight());;
end
start
note right
void drawYears(final UGraphic ug)
end note
:MonthYear last=null ;;
:double lastChange=-1;;
:final double x1=getTimeScale().getStartingPosition(wink);;
if (last==null ||wink.monthYear().year()!=last.year()) then (yes) 
:drawVbar(ug,x1,0,19,false);;
if (last!=null ) then (yes) 
:printYear(ug,last,lastChange,x1);;
endif 
:lastChange=x1;;
:last=wink.monthYear();;
endif 
:final double x1=getTimeScale().getStartingPosition(max.increment());;
if (x1>lastChange) then (yes) 
:printYear(ug,last,lastChange,x1);;
endif 
:drawVbar(ug,getTimeScale().getEndingPosition(max),
0,19,false);;
end
start
note right
void printYear(UGraphic ug,MonthYear monthYear,
double start,double end)
end note
:final TextBlock small=getTextBlock(""+monthYear.year(),
14,true,openFontColor());;
:printCentered(ug,true,start,end,small);;
end
start
note right
double getFullHeaderHeight()
end note
:return getTimeHeaderHeight();;
stop
end
@enduml

PlantUML version 1.2022.7(Mon Aug 22 17:01:30 UTC 2022)
(GPL source distribution)
Java Runtime: OpenJDK Runtime Environment
JVM: OpenJDK 64-Bit Server VM
Default Encoding: UTF-8
Language: en
Country: null
--></g></svg>