<?xml version="1.0" encoding="UTF-8" standalone="no"?><svg xmlns="http://www.w3.org/2000/svg" xmlns:xlink="http://www.w3.org/1999/xlink" contentStyleType="text/css" height="1350px" preserveAspectRatio="none" style="width:427px;height:1350px;background:#FFFFFF;" version="1.1" viewBox="0 0 427 1350" width="427px" zoomAndPan="magnify"><defs/><g><path d="M225.5,10 L225.5,18.5664 L205.5,22.5664 L225.5,26.5664 L225.5,35.1328 A0,0 0 0 0 225.5,35.1328 L382.5,35.1328 A0,0 0 0 0 382.5,35.1328 L382.5,20 L372.5,10 L225.5,10 A0,0 0 0 0 225.5,10 " fill="#FEFFDD" style="stroke:#181818;stroke-width:0.5;"/><path d="M372.5,10 L372.5,20 L382.5,20 L372.5,10 " fill="#FEFFDD" style="stroke:#181818;stroke-width:0.5;"/><text fill="#000000" font-family="sans-serif" font-size="13" lengthAdjust="spacing" textLength="136" x="231.5" y="27.0669">void put(BNodenode)</text><ellipse cx="195.5" cy="22.5664" fill="#222222" rx="10" ry="10" style="stroke:#222222;stroke-width:1.0;"/><rect fill="#F1F1F1" height="33.9688" rx="12.5" ry="12.5" style="stroke:#181818;stroke-width:0.5;" width="356" x="17.5" y="55.1328"/><text fill="#000000" font-family="sans-serif" font-size="12" lengthAdjust="spacing" textLength="336" x="27.5" y="76.2715">final Stringkey=getKey(node.getX(),node.getStage());</text><rect fill="#F1F1F1" height="33.9688" rx="12.5" ry="12.5" style="stroke:#181818;stroke-width:0.5;" width="260" x="65.5" y="157.5039"/><text fill="#000000" font-family="sans-serif" font-size="12" lengthAdjust="spacing" textLength="240" x="75.5" y="178.6426">throw new IllegalArgumentException();</text><ellipse cx="195.5" cy="230.9883" fill="none" rx="11" ry="11" style="stroke:#222222;stroke-width:1.0;"/><ellipse cx="195.5" cy="230.9883" fill="#222222" rx="6" ry="6" style="stroke:#111111;stroke-width:1.0;"/><polygon fill="#F1F1F1" points="133.5,109.1016,257.5,109.1016,269.5,121.1016,257.5,133.1016,133.5,133.1016,121.5,121.1016,133.5,109.1016" style="stroke:#181818;stroke-width:0.5;"/><text fill="#000000" font-family="sans-serif" font-size="11" lengthAdjust="spacing" textLength="20" x="199.5" y="143.312">yes</text><text fill="#000000" font-family="sans-serif" font-size="11" lengthAdjust="spacing" textLength="124" x="133.5" y="124.9097">data.containsKey(key)</text><rect fill="#F1F1F1" height="33.9688" rx="12.5" ry="12.5" style="stroke:#181818;stroke-width:0.5;" width="145" x="123" y="283.9883"/><text fill="#000000" font-family="sans-serif" font-size="12" lengthAdjust="spacing" textLength="125" x="133" y="305.127">data.put(key,node);</text><rect fill="#F1F1F1" height="33.9688" rx="12.5" ry="12.5" style="stroke:#181818;stroke-width:0.5;" width="300" x="45.5" y="337.957"/><text fill="#000000" font-family="sans-serif" font-size="12" lengthAdjust="spacing" textLength="280" x="55.5" y="359.0957">this.maxX=Math.max(this.maxX,node.getX());</text><rect fill="#F1F1F1" height="33.9688" rx="12.5" ry="12.5" style="stroke:#181818;stroke-width:0.5;" width="330" x="30.5" y="391.9258"/><text fill="#000000" font-family="sans-serif" font-size="12" lengthAdjust="spacing" textLength="310" x="40.5" y="413.0645">this.maxY=Math.max(this.maxY,node.getStage());</text><ellipse cx="195.5" cy="455.8945" fill="none" rx="10" ry="10" style="stroke:#222222;stroke-width:1.5;"/><line style="stroke:#222222;stroke-width:2.5;" x1="189.3128" x2="201.6872" y1="449.7073" y2="462.0817"/><line style="stroke:#222222;stroke-width:2.5;" x1="201.6872" x2="189.3128" y1="449.7073" y2="462.0817"/><path d="M225.5,475.8945 L225.5,484.4609 L205.5,488.4609 L225.5,492.4609 L225.5,501.0273 A0,0 0 0 0 225.5,501.0273 L393.5,501.0273 A0,0 0 0 0 393.5,501.0273 L393.5,485.8945 L383.5,475.8945 L225.5,475.8945 A0,0 0 0 0 225.5,475.8945 " fill="#FEFFDD" style="stroke:#181818;stroke-width:0.5;"/><path d="M383.5,475.8945 L383.5,485.8945 L393.5,485.8945 L383.5,475.8945 " fill="#FEFFDD" style="stroke:#181818;stroke-width:0.5;"/><text fill="#000000" font-family="sans-serif" font-size="13" lengthAdjust="spacing" textLength="147" x="231.5" y="492.9614">BNodegetCell(intx,inty)</text><ellipse cx="195.5" cy="488.4609" fill="#222222" rx="10" ry="10" style="stroke:#222222;stroke-width:1.0;"/><rect fill="#F1F1F1" height="33.9688" rx="12.5" ry="12.5" style="stroke:#181818;stroke-width:0.5;" width="190" x="100.5" y="521.0273"/><text fill="#000000" font-family="sans-serif" font-size="12" lengthAdjust="spacing" textLength="170" x="110.5" y="542.166">final Stringkey=getKey(x,y);</text><rect fill="#F1F1F1" height="33.9688" rx="12.5" ry="12.5" style="stroke:#181818;stroke-width:0.5;" width="152" x="119.5" y="574.9961"/><text fill="#000000" font-family="sans-serif" font-size="12" lengthAdjust="spacing" textLength="132" x="129.5" y="596.1348">return data.get(key);</text><ellipse cx="195.5" cy="639.9648" fill="none" rx="11" ry="11" style="stroke:#222222;stroke-width:1.0;"/><ellipse cx="195.5" cy="639.9648" fill="#222222" rx="6" ry="6" style="stroke:#111111;stroke-width:1.0;"/><ellipse cx="195.5" cy="670.9648" fill="none" rx="10" ry="10" style="stroke:#222222;stroke-width:1.5;"/><line style="stroke:#222222;stroke-width:2.5;" x1="189.3128" x2="201.6872" y1="664.7777" y2="677.152"/><line style="stroke:#222222;stroke-width:2.5;" x1="201.6872" x2="189.3128" y1="664.7777" y2="677.152"/><path d="M225.5,690.9648 L225.5,699.5313 L205.5,703.5313 L225.5,707.5313 L225.5,716.0977 A0,0 0 0 0 225.5,716.0977 L388.5,716.0977 A0,0 0 0 0 388.5,716.0977 L388.5,700.9648 L378.5,690.9648 L225.5,690.9648 A0,0 0 0 0 225.5,690.9648 " fill="#FEFFDD" style="stroke:#181818;stroke-width:0.5;"/><path d="M378.5,690.9648 L378.5,700.9648 L388.5,700.9648 L378.5,690.9648 " fill="#FEFFDD" style="stroke:#181818;stroke-width:0.5;"/><text fill="#000000" font-family="sans-serif" font-size="13" lengthAdjust="spacing" textLength="142" x="231.5" y="708.0317">StringgetKey(intx,inty)</text><ellipse cx="195.5" cy="703.5313" fill="#222222" rx="10" ry="10" style="stroke:#222222;stroke-width:1.0;"/><rect fill="#F1F1F1" height="33.9688" rx="12.5" ry="12.5" style="stroke:#181818;stroke-width:0.5;" width="133" x="129" y="736.0977"/><text fill="#000000" font-family="sans-serif" font-size="12" lengthAdjust="spacing" textLength="113" x="139" y="757.2363">return ""+x+";"+y;</text><ellipse cx="195.5" cy="801.0664" fill="none" rx="11" ry="11" style="stroke:#222222;stroke-width:1.0;"/><ellipse cx="195.5" cy="801.0664" fill="#222222" rx="6" ry="6" style="stroke:#111111;stroke-width:1.0;"/><ellipse cx="195.5" cy="832.0664" fill="none" rx="10" ry="10" style="stroke:#222222;stroke-width:1.5;"/><line style="stroke:#222222;stroke-width:2.5;" x1="189.3128" x2="201.6872" y1="825.8792" y2="838.2536"/><line style="stroke:#222222;stroke-width:2.5;" x1="201.6872" x2="189.3128" y1="825.8792" y2="838.2536"/><path d="M225.5,852.0664 L225.5,860.6328 L205.5,864.6328 L225.5,868.6328 L225.5,877.1992 A0,0 0 0 0 225.5,877.1992 L415.5,877.1992 A0,0 0 0 0 415.5,877.1992 L415.5,862.0664 L405.5,852.0664 L225.5,852.0664 A0,0 0 0 0 225.5,852.0664 " fill="#FEFFDD" style="stroke:#181818;stroke-width:0.5;"/><path d="M405.5,852.0664 L405.5,862.0664 L415.5,862.0664 L405.5,852.0664 " fill="#FEFFDD" style="stroke:#181818;stroke-width:0.5;"/><text fill="#000000" font-family="sans-serif" font-size="13" lengthAdjust="spacing" textLength="169" x="231.5" y="869.1333">Iterator&lt;BNode&gt;iterator()</text><ellipse cx="195.5" cy="864.6328" fill="#222222" rx="10" ry="10" style="stroke:#222222;stroke-width:1.0;"/><rect fill="#F1F1F1" height="47.9375" rx="12.5" ry="12.5" style="stroke:#181818;stroke-width:0.5;" width="369" x="11" y="897.1992"/><text fill="#000000" font-family="sans-serif" font-size="12" lengthAdjust="spacing" textLength="349" x="21" y="918.3379">return Collections.unmodifiableCollection(data.values())</text><text fill="#000000" font-family="sans-serif" font-size="12" lengthAdjust="spacing" textLength="65" x="21" y="932.3066">.iterator();</text><ellipse cx="195.5" cy="976.1367" fill="none" rx="11" ry="11" style="stroke:#222222;stroke-width:1.0;"/><ellipse cx="195.5" cy="976.1367" fill="#222222" rx="6" ry="6" style="stroke:#111111;stroke-width:1.0;"/><ellipse cx="195.5" cy="1007.1367" fill="none" rx="10" ry="10" style="stroke:#222222;stroke-width:1.5;"/><line style="stroke:#222222;stroke-width:2.5;" x1="189.3128" x2="201.6872" y1="1000.9495" y2="1013.3239"/><line style="stroke:#222222;stroke-width:2.5;" x1="201.6872" x2="189.3128" y1="1000.9495" y2="1013.3239"/><path d="M225.5,1027.1367 L225.5,1035.7031 L205.5,1039.7031 L225.5,1043.7031 L225.5,1052.2695 A0,0 0 0 0 225.5,1052.2695 L327.5,1052.2695 A0,0 0 0 0 327.5,1052.2695 L327.5,1037.1367 L317.5,1027.1367 L225.5,1027.1367 A0,0 0 0 0 225.5,1027.1367 " fill="#FEFFDD" style="stroke:#181818;stroke-width:0.5;"/><path d="M317.5,1027.1367 L317.5,1037.1367 L327.5,1037.1367 L317.5,1027.1367 " fill="#FEFFDD" style="stroke:#181818;stroke-width:0.5;"/><text fill="#000000" font-family="sans-serif" font-size="13" lengthAdjust="spacing" textLength="81" x="231.5" y="1044.2036">intgetMaxX()</text><ellipse cx="195.5" cy="1039.7031" fill="#222222" rx="10" ry="10" style="stroke:#222222;stroke-width:1.0;"/><rect fill="#F1F1F1" height="33.9688" rx="12.5" ry="12.5" style="stroke:#181818;stroke-width:0.5;" width="99" x="146" y="1072.2695"/><text fill="#000000" font-family="sans-serif" font-size="12" lengthAdjust="spacing" textLength="79" x="156" y="1093.4082">return maxX;</text><ellipse cx="195.5" cy="1137.2383" fill="none" rx="11" ry="11" style="stroke:#222222;stroke-width:1.0;"/><ellipse cx="195.5" cy="1137.2383" fill="#222222" rx="6" ry="6" style="stroke:#111111;stroke-width:1.0;"/><ellipse cx="195.5" cy="1168.2383" fill="none" rx="10" ry="10" style="stroke:#222222;stroke-width:1.5;"/><line style="stroke:#222222;stroke-width:2.5;" x1="189.3128" x2="201.6872" y1="1162.0511" y2="1174.4255"/><line style="stroke:#222222;stroke-width:2.5;" x1="201.6872" x2="189.3128" y1="1162.0511" y2="1174.4255"/><path d="M225.5,1188.2383 L225.5,1196.8047 L205.5,1200.8047 L225.5,1204.8047 L225.5,1213.3711 A0,0 0 0 0 225.5,1213.3711 L326.5,1213.3711 A0,0 0 0 0 326.5,1213.3711 L326.5,1198.2383 L316.5,1188.2383 L225.5,1188.2383 A0,0 0 0 0 225.5,1188.2383 " fill="#FEFFDD" style="stroke:#181818;stroke-width:0.5;"/><path d="M316.5,1188.2383 L316.5,1198.2383 L326.5,1198.2383 L316.5,1188.2383 " fill="#FEFFDD" style="stroke:#181818;stroke-width:0.5;"/><text fill="#000000" font-family="sans-serif" font-size="13" lengthAdjust="spacing" textLength="80" x="231.5" y="1205.3052">intgetMaxY()</text><ellipse cx="195.5" cy="1200.8047" fill="#222222" rx="10" ry="10" style="stroke:#222222;stroke-width:1.0;"/><rect fill="#F1F1F1" height="33.9688" rx="12.5" ry="12.5" style="stroke:#181818;stroke-width:0.5;" width="99" x="146" y="1233.3711"/><text fill="#000000" font-family="sans-serif" font-size="12" lengthAdjust="spacing" textLength="79" x="156" y="1254.5098">return maxY;</text><ellipse cx="195.5" cy="1298.3398" fill="none" rx="11" ry="11" style="stroke:#222222;stroke-width:1.0;"/><ellipse cx="195.5" cy="1298.3398" fill="#222222" rx="6" ry="6" style="stroke:#111111;stroke-width:1.0;"/><ellipse cx="195.5" cy="1329.3398" fill="none" rx="10" ry="10" style="stroke:#222222;stroke-width:1.5;"/><line style="stroke:#222222;stroke-width:2.5;" x1="189.3128" x2="201.6872" y1="1323.1527" y2="1335.527"/><line style="stroke:#222222;stroke-width:2.5;" x1="201.6872" x2="189.3128" y1="1323.1527" y2="1335.527"/><line style="stroke:#181818;stroke-width:1.0;" x1="195.5" x2="195.5" y1="32.5664" y2="55.1328"/><polygon fill="#181818" points="191.5,45.1328,195.5,55.1328,199.5,45.1328,195.5,49.1328" style="stroke:#181818;stroke-width:1.0;"/><line style="stroke:#181818;stroke-width:1.0;" x1="195.5" x2="195.5" y1="191.4727" y2="219.9883"/><polygon fill="#181818" points="191.5,209.9883,195.5,219.9883,199.5,209.9883,195.5,213.9883" style="stroke:#181818;stroke-width:1.0;"/><line style="stroke:#181818;stroke-width:1.0;" x1="195.5" x2="195.5" y1="133.1016" y2="157.5039"/><polygon fill="#181818" points="191.5,147.5039,195.5,157.5039,199.5,147.5039,195.5,151.5039" style="stroke:#181818;stroke-width:1.0;"/><line style="stroke:#181818;stroke-width:1.0;" x1="269.5" x2="335.5" y1="121.1016" y2="121.1016"/><polygon fill="#181818" points="331.5,189.9883,335.5,199.9883,339.5,189.9883,335.5,193.9883" style="stroke:#181818;stroke-width:1.0;"/><line style="stroke:#181818;stroke-width:1.0;" x1="335.5" x2="335.5" y1="121.1016" y2="263.9883"/><line style="stroke:#181818;stroke-width:1.0;" x1="335.5" x2="195.5" y1="263.9883" y2="263.9883"/><line style="stroke:#181818;stroke-width:1.0;" x1="195.5" x2="195.5" y1="263.9883" y2="283.9883"/><polygon fill="#181818" points="191.5,273.9883,195.5,283.9883,199.5,273.9883,195.5,277.9883" style="stroke:#181818;stroke-width:1.0;"/><line style="stroke:#181818;stroke-width:1.0;" x1="195.5" x2="195.5" y1="89.1016" y2="109.1016"/><polygon fill="#181818" points="191.5,99.1016,195.5,109.1016,199.5,99.1016,195.5,103.1016" style="stroke:#181818;stroke-width:1.0;"/><line style="stroke:#181818;stroke-width:1.0;" x1="195.5" x2="195.5" y1="317.957" y2="337.957"/><polygon fill="#181818" points="191.5,327.957,195.5,337.957,199.5,327.957,195.5,331.957" style="stroke:#181818;stroke-width:1.0;"/><line style="stroke:#181818;stroke-width:1.0;" x1="195.5" x2="195.5" y1="371.9258" y2="391.9258"/><polygon fill="#181818" points="191.5,381.9258,195.5,391.9258,199.5,381.9258,195.5,385.9258" style="stroke:#181818;stroke-width:1.0;"/><line style="stroke:#181818;stroke-width:1.0;" x1="195.5" x2="195.5" y1="425.8945" y2="445.8945"/><polygon fill="#181818" points="191.5,435.8945,195.5,445.8945,199.5,435.8945,195.5,439.8945" style="stroke:#181818;stroke-width:1.0;"/><line style="stroke:#181818;stroke-width:1.0;" x1="195.5" x2="195.5" y1="498.4609" y2="521.0273"/><polygon fill="#181818" points="191.5,511.0273,195.5,521.0273,199.5,511.0273,195.5,515.0273" style="stroke:#181818;stroke-width:1.0;"/><line style="stroke:#181818;stroke-width:1.0;" x1="195.5" x2="195.5" y1="554.9961" y2="574.9961"/><polygon fill="#181818" points="191.5,564.9961,195.5,574.9961,199.5,564.9961,195.5,568.9961" style="stroke:#181818;stroke-width:1.0;"/><line style="stroke:#181818;stroke-width:1.0;" x1="195.5" x2="195.5" y1="608.9648" y2="628.9648"/><polygon fill="#181818" points="191.5,618.9648,195.5,628.9648,199.5,618.9648,195.5,622.9648" style="stroke:#181818;stroke-width:1.0;"/><line style="stroke:#181818;stroke-width:1.0;" x1="195.5" x2="195.5" y1="713.5313" y2="736.0977"/><polygon fill="#181818" points="191.5,726.0977,195.5,736.0977,199.5,726.0977,195.5,730.0977" style="stroke:#181818;stroke-width:1.0;"/><line style="stroke:#181818;stroke-width:1.0;" x1="195.5" x2="195.5" y1="770.0664" y2="790.0664"/><polygon fill="#181818" points="191.5,780.0664,195.5,790.0664,199.5,780.0664,195.5,784.0664" style="stroke:#181818;stroke-width:1.0;"/><line style="stroke:#181818;stroke-width:1.0;" x1="195.5" x2="195.5" y1="874.6328" y2="897.1992"/><polygon fill="#181818" points="191.5,887.1992,195.5,897.1992,199.5,887.1992,195.5,891.1992" style="stroke:#181818;stroke-width:1.0;"/><line style="stroke:#181818;stroke-width:1.0;" x1="195.5" x2="195.5" y1="945.1367" y2="965.1367"/><polygon fill="#181818" points="191.5,955.1367,195.5,965.1367,199.5,955.1367,195.5,959.1367" style="stroke:#181818;stroke-width:1.0;"/><line style="stroke:#181818;stroke-width:1.0;" x1="195.5" x2="195.5" y1="1049.7031" y2="1072.2695"/><polygon fill="#181818" points="191.5,1062.2695,195.5,1072.2695,199.5,1062.2695,195.5,1066.2695" style="stroke:#181818;stroke-width:1.0;"/><line style="stroke:#181818;stroke-width:1.0;" x1="195.5" x2="195.5" y1="1106.2383" y2="1126.2383"/><polygon fill="#181818" points="191.5,1116.2383,195.5,1126.2383,199.5,1116.2383,195.5,1120.2383" style="stroke:#181818;stroke-width:1.0;"/><line style="stroke:#181818;stroke-width:1.0;" x1="195.5" x2="195.5" y1="1210.8047" y2="1233.3711"/><polygon fill="#181818" points="191.5,1223.3711,195.5,1233.3711,199.5,1223.3711,195.5,1227.3711" style="stroke:#181818;stroke-width:1.0;"/><line style="stroke:#181818;stroke-width:1.0;" x1="195.5" x2="195.5" y1="1267.3398" y2="1287.3398"/><polygon fill="#181818" points="191.5,1277.3398,195.5,1287.3398,199.5,1277.3398,195.5,1281.3398" style="stroke:#181818;stroke-width:1.0;"/><!--MD5=[86dec177a57af7734107a54a4a17c8a0]
@startuml
!pragma layout smetana
start
note right
void put(BNodenode)
end note
:final Stringkey=getKey(node.getX(),node.getStage());;
if (data.containsKey(key)) then (yes) 
:throw new IllegalArgumentException();;
stop
endif 
:data.put(key,node);;
:this.maxX=Math.max(this.maxX,node.getX());;
:this.maxY=Math.max(this.maxY,node.getStage());;
end
start
note right
BNodegetCell(intx,inty)
end note
:final Stringkey=getKey(x,y);;
:return data.get(key);;
stop
end
start
note right
StringgetKey(intx,inty)
end note
:return ""+x+";"+y;;
stop
end
start
note right
Iterator<BNode>iterator()
end note
:return Collections.unmodifiableCollection(data.values())
.iterator();;
stop
end
start
note right
intgetMaxX()
end note
:return maxX;;
stop
end
start
note right
intgetMaxY()
end note
:return maxY;;
stop
end
@enduml

PlantUML version 1.2022.7(Mon Aug 22 17:01:30 UTC 2022)
(GPL source distribution)
Java Runtime: OpenJDK Runtime Environment
JVM: OpenJDK 64-Bit Server VM
Default Encoding: UTF-8
Language: en
Country: null
--></g></svg>