<?xml version="1.0" encoding="UTF-8" standalone="no"?><svg xmlns="http://www.w3.org/2000/svg" xmlns:xlink="http://www.w3.org/1999/xlink" contentStyleType="text/css" height="1482px" preserveAspectRatio="none" style="width:1090px;height:1482px;background:#FFFFFF;" version="1.1" viewBox="0 0 1090 1482" width="1090px" zoomAndPan="magnify"><defs/><g><path d="M574,10 L574,33.6992 L554,37.6992 L574,41.6992 L574,65.3984 A0,0 0 0 0 574,65.3984 L913,65.3984 A0,0 0 0 0 913,65.3984 L913,20 L903,10 L574,10 A0,0 0 0 0 574,10 " fill="#FEFFDD" style="stroke:#181818;stroke-width:0.5;"/><path d="M903,10 L903,20 L913,20 L903,10 " fill="#FEFFDD" style="stroke:#181818;stroke-width:0.5;"/><text fill="#000000" font-family="sans-serif" font-size="13" lengthAdjust="spacing" textLength="315" x="580" y="27.0669">constructor ComponentRoseBoundary(Stylestyle,</text><text fill="#000000" font-family="sans-serif" font-size="13" lengthAdjust="spacing" textLength="318" x="580" y="42.1997">Stylestereo,DisplaystringsToDisplay,booleanhead,</text><text fill="#000000" font-family="sans-serif" font-size="13" lengthAdjust="spacing" textLength="177" x="580" y="57.3325">ISkinSimplespriteContainer)</text><ellipse cx="544" cy="37.6992" fill="#222222" rx="10" ry="10" style="stroke:#222222;stroke-width:1.0;"/><rect fill="#F1F1F1" height="47.9375" rx="12.5" ry="12.5" style="stroke:#181818;stroke-width:0.5;" width="302" x="393" y="85.3984"/><text fill="#000000" font-family="sans-serif" font-size="12" lengthAdjust="spacing" textLength="280" x="403" y="106.5371">super (style,stereo,LineBreakStrategy.NONE,</text><text fill="#000000" font-family="sans-serif" font-size="12" lengthAdjust="spacing" textLength="282" x="403" y="120.5059">3,3,0,spriteContainer,stringsToDisplay,false);</text><rect fill="#F1F1F1" height="33.9688" rx="12.5" ry="12.5" style="stroke:#181818;stroke-width:0.5;" width="470" x="309" y="153.3359"/><text fill="#000000" font-family="sans-serif" font-size="12" lengthAdjust="spacing" textLength="450" x="319" y="174.4746">final SymbolContextbiColor=style.getSymbolContext(getIHtmlColorSet());</text><rect fill="#F1F1F1" height="33.9688" rx="12.5" ry="12.5" style="stroke:#181818;stroke-width:0.5;" width="125" x="481.5" y="207.3047"/><text fill="#000000" font-family="sans-serif" font-size="12" lengthAdjust="spacing" textLength="105" x="491.5" y="228.4434">this.head=head;</text><rect fill="#F1F1F1" height="33.9688" rx="12.5" ry="12.5" style="stroke:#181818;stroke-width:0.5;" width="258" x="415" y="261.2734"/><text fill="#000000" font-family="sans-serif" font-size="12" lengthAdjust="spacing" textLength="238" x="425" y="282.4121">this.stickman=new Boundary(biColor);</text><ellipse cx="544" cy="325.2422" fill="none" rx="10" ry="10" style="stroke:#222222;stroke-width:1.5;"/><line style="stroke:#222222;stroke-width:2.5;" x1="537.8128" x2="550.1872" y1="319.055" y2="331.4294"/><line style="stroke:#222222;stroke-width:2.5;" x1="550.1872" x2="537.8128" y1="319.055" y2="331.4294"/><path d="M574,345.2422 L574,353.8086 L554,357.8086 L574,361.8086 L574,370.375 A0,0 0 0 0 574,370.375 L861,370.375 A0,0 0 0 0 861,370.375 L861,355.2422 L851,345.2422 L574,345.2422 A0,0 0 0 0 574,345.2422 " fill="#FEFFDD" style="stroke:#181818;stroke-width:0.5;"/><path d="M851,345.2422 L851,355.2422 L861,355.2422 L851,345.2422 " fill="#FEFFDD" style="stroke:#181818;stroke-width:0.5;"/><text fill="#000000" font-family="sans-serif" font-size="13" lengthAdjust="spacing" textLength="266" x="580" y="362.3091">void drawInternalU(UGraphicug,Areaarea)</text><ellipse cx="544" cy="357.8086" fill="#222222" rx="10" ry="10" style="stroke:#222222;stroke-width:1.0;"/><rect fill="#F1F1F1" height="33.9688" rx="12.5" ry="12.5" style="stroke:#181818;stroke-width:0.5;" width="270" x="409" y="390.375"/><text fill="#000000" font-family="sans-serif" font-size="12" lengthAdjust="spacing" textLength="250" x="419" y="411.5137">final TextBlocktextBlock=getTextBlock();</text><rect fill="#F1F1F1" height="33.9688" rx="12.5" ry="12.5" style="stroke:#181818;stroke-width:0.5;" width="384" x="352" y="444.3438"/><text fill="#000000" font-family="sans-serif" font-size="12" lengthAdjust="spacing" textLength="364" x="362" y="465.4824">final StringBounderstringBounder=ug.getStringBounder();</text><rect fill="#F1F1F1" height="33.9688" rx="12.5" ry="12.5" style="stroke:#181818;stroke-width:0.5;" width="513" x="287.5" y="498.3125"/><text fill="#000000" font-family="sans-serif" font-size="12" lengthAdjust="spacing" textLength="493" x="297.5" y="519.4512">final XDimension2DdimStickman=stickman.calculateDimension(stringBounder);</text><rect fill="#F1F1F1" height="33.9688" rx="12.5" ry="12.5" style="stroke:#181818;stroke-width:0.5;" width="528" x="280" y="552.2813"/><text fill="#000000" font-family="sans-serif" font-size="12" lengthAdjust="spacing" textLength="508" x="290" y="573.4199">final doubledelta=(getPreferredWidth(stringBounder)-dimStickman.getWidth())/2;</text><polygon fill="#F1F1F1" points="530,606.25,558,606.25,570,618.25,558,630.25,530,630.25,518,618.25,530,606.25" style="stroke:#181818;stroke-width:0.5;"/><text fill="#000000" font-family="sans-serif" font-size="11" lengthAdjust="spacing" textLength="28" x="530" y="622.0581">head</text><text fill="#000000" font-family="sans-serif" font-size="11" lengthAdjust="spacing" textLength="20" x="498" y="615.6558">yes</text><text fill="#000000" font-family="sans-serif" font-size="11" lengthAdjust="spacing" textLength="14" x="570" y="615.6558">no</text><rect fill="#F1F1F1" height="47.9375" rx="12.5" ry="12.5" style="stroke:#181818;stroke-width:0.5;" width="522" x="11" y="640.25"/><text fill="#000000" font-family="sans-serif" font-size="12" lengthAdjust="spacing" textLength="502" x="21" y="661.3887">textBlock.drawU(ug.apply(new UTranslate(getTextMiddlePostion(stringBounder),</text><text fill="#000000" font-family="sans-serif" font-size="12" lengthAdjust="spacing" textLength="174" x="21" y="675.3574">dimStickman.getHeight())));</text><rect fill="#F1F1F1" height="33.9688" rx="12.5" ry="12.5" style="stroke:#181818;stroke-width:0.5;" width="241" x="151.5" y="722.1563"/><text fill="#000000" font-family="sans-serif" font-size="12" lengthAdjust="spacing" textLength="221" x="161.5" y="743.2949">ug=ug.apply(UTranslate.dx(delta));</text><rect fill="#F1F1F1" height="33.9688" rx="12.5" ry="12.5" style="stroke:#181818;stroke-width:0.5;" width="526" x="553" y="640.25"/><text fill="#000000" font-family="sans-serif" font-size="12" lengthAdjust="spacing" textLength="506" x="563" y="661.3887">textBlock.drawU(ug.apply(UTranslate.dx(getTextMiddlePostion(stringBounder))));</text><rect fill="#F1F1F1" height="33.9688" rx="12.5" ry="12.5" style="stroke:#181818;stroke-width:0.5;" width="443" x="594.5" y="708.1875"/><text fill="#000000" font-family="sans-serif" font-size="12" lengthAdjust="spacing" textLength="423" x="604.5" y="729.3262">ug=ug.apply(new UTranslate(delta,getTextHeight(stringBounder)));</text><polygon fill="#F1F1F1" points="544,762.125,556,774.125,544,786.125,532,774.125,544,762.125" style="stroke:#181818;stroke-width:0.5;"/><rect fill="#F1F1F1" height="33.9688" rx="12.5" ry="12.5" style="stroke:#181818;stroke-width:0.5;" width="149" x="469.5" y="806.125"/><text fill="#000000" font-family="sans-serif" font-size="12" lengthAdjust="spacing" textLength="129" x="479.5" y="827.2637">stickman.drawU(ug);</text><ellipse cx="544" cy="870.0938" fill="none" rx="10" ry="10" style="stroke:#222222;stroke-width:1.5;"/><line style="stroke:#222222;stroke-width:2.5;" x1="537.8128" x2="550.1872" y1="863.9066" y2="876.2809"/><line style="stroke:#222222;stroke-width:2.5;" x1="550.1872" x2="537.8128" y1="863.9066" y2="876.2809"/><path d="M574,890.0938 L574,898.6602 L554,902.6602 L574,906.6602 L574,915.2266 A0,0 0 0 0 574,915.2266 L966,915.2266 A0,0 0 0 0 966,915.2266 L966,900.0938 L956,890.0938 L574,890.0938 A0,0 0 0 0 574,890.0938 " fill="#FEFFDD" style="stroke:#181818;stroke-width:0.5;"/><path d="M956,890.0938 L956,900.0938 L966,900.0938 L956,890.0938 " fill="#FEFFDD" style="stroke:#181818;stroke-width:0.5;"/><text fill="#000000" font-family="sans-serif" font-size="13" lengthAdjust="spacing" textLength="371" x="580" y="907.1606">doublegetTextMiddlePostion(StringBounderstringBounder)</text><ellipse cx="544" cy="902.6602" fill="#222222" rx="10" ry="10" style="stroke:#222222;stroke-width:1.0;"/><rect fill="#F1F1F1" height="33.9688" rx="12.5" ry="12.5" style="stroke:#181818;stroke-width:0.5;" width="500" x="294" y="935.2266"/><text fill="#000000" font-family="sans-serif" font-size="12" lengthAdjust="spacing" textLength="480" x="304" y="956.3652">return (getPreferredWidth(stringBounder)-getTextWidth(stringBounder))/2.0;</text><ellipse cx="544" cy="1000.1953" fill="none" rx="11" ry="11" style="stroke:#222222;stroke-width:1.0;"/><ellipse cx="544" cy="1000.1953" fill="#222222" rx="6" ry="6" style="stroke:#111111;stroke-width:1.0;"/><ellipse cx="544" cy="1031.1953" fill="none" rx="10" ry="10" style="stroke:#222222;stroke-width:1.5;"/><line style="stroke:#222222;stroke-width:2.5;" x1="537.8128" x2="550.1872" y1="1025.0081" y2="1037.3825"/><line style="stroke:#222222;stroke-width:2.5;" x1="550.1872" x2="537.8128" y1="1025.0081" y2="1037.3825"/><path d="M574,1051.1953 L574,1059.7617 L554,1063.7617 L574,1067.7617 L574,1076.3281 A0,0 0 0 0 574,1076.3281 L952,1076.3281 A0,0 0 0 0 952,1076.3281 L952,1061.1953 L942,1051.1953 L574,1051.1953 A0,0 0 0 0 574,1051.1953 " fill="#FEFFDD" style="stroke:#181818;stroke-width:0.5;"/><path d="M942,1051.1953 L942,1061.1953 L952,1061.1953 L942,1051.1953 " fill="#FEFFDD" style="stroke:#181818;stroke-width:0.5;"/><text fill="#000000" font-family="sans-serif" font-size="13" lengthAdjust="spacing" textLength="357" x="580" y="1068.2622">doublegetPreferredHeight(StringBounderstringBounder)</text><ellipse cx="544" cy="1063.7617" fill="#222222" rx="10" ry="10" style="stroke:#222222;stroke-width:1.0;"/><rect fill="#F1F1F1" height="33.9688" rx="12.5" ry="12.5" style="stroke:#181818;stroke-width:0.5;" width="513" x="287.5" y="1096.3281"/><text fill="#000000" font-family="sans-serif" font-size="12" lengthAdjust="spacing" textLength="493" x="297.5" y="1117.4668">final XDimension2DdimStickman=stickman.calculateDimension(stringBounder);</text><rect fill="#F1F1F1" height="33.9688" rx="12.5" ry="12.5" style="stroke:#181818;stroke-width:0.5;" width="419" x="334.5" y="1150.2969"/><text fill="#000000" font-family="sans-serif" font-size="12" lengthAdjust="spacing" textLength="399" x="344.5" y="1171.4355">return dimStickman.getHeight()+getTextHeight(stringBounder);</text><ellipse cx="544" cy="1215.2656" fill="none" rx="11" ry="11" style="stroke:#222222;stroke-width:1.0;"/><ellipse cx="544" cy="1215.2656" fill="#222222" rx="6" ry="6" style="stroke:#111111;stroke-width:1.0;"/><ellipse cx="544" cy="1246.2656" fill="none" rx="10" ry="10" style="stroke:#222222;stroke-width:1.5;"/><line style="stroke:#222222;stroke-width:2.5;" x1="537.8128" x2="550.1872" y1="1240.0784" y2="1252.4528"/><line style="stroke:#222222;stroke-width:2.5;" x1="550.1872" x2="537.8128" y1="1240.0784" y2="1252.4528"/><path d="M574,1266.2656 L574,1274.832 L554,1278.832 L574,1282.832 L574,1291.3984 A0,0 0 0 0 574,1291.3984 L945,1291.3984 A0,0 0 0 0 945,1291.3984 L945,1276.2656 L935,1266.2656 L574,1266.2656 A0,0 0 0 0 574,1266.2656 " fill="#FEFFDD" style="stroke:#181818;stroke-width:0.5;"/><path d="M935,1266.2656 L935,1276.2656 L945,1276.2656 L935,1266.2656 " fill="#FEFFDD" style="stroke:#181818;stroke-width:0.5;"/><text fill="#000000" font-family="sans-serif" font-size="13" lengthAdjust="spacing" textLength="350" x="580" y="1283.3325">doublegetPreferredWidth(StringBounderstringBounder)</text><ellipse cx="544" cy="1278.832" fill="#222222" rx="10" ry="10" style="stroke:#222222;stroke-width:1.0;"/><rect fill="#F1F1F1" height="33.9688" rx="12.5" ry="12.5" style="stroke:#181818;stroke-width:0.5;" width="513" x="287.5" y="1311.3984"/><text fill="#000000" font-family="sans-serif" font-size="12" lengthAdjust="spacing" textLength="493" x="297.5" y="1332.5371">final XDimension2DdimStickman=stickman.calculateDimension(stringBounder);</text><rect fill="#F1F1F1" height="33.9688" rx="12.5" ry="12.5" style="stroke:#181818;stroke-width:0.5;" width="471" x="308.5" y="1365.3672"/><text fill="#000000" font-family="sans-serif" font-size="12" lengthAdjust="spacing" textLength="451" x="318.5" y="1386.5059">return Math.max(dimStickman.getWidth(),getTextWidth(stringBounder));</text><ellipse cx="544" cy="1430.3359" fill="none" rx="11" ry="11" style="stroke:#222222;stroke-width:1.0;"/><ellipse cx="544" cy="1430.3359" fill="#222222" rx="6" ry="6" style="stroke:#111111;stroke-width:1.0;"/><ellipse cx="544" cy="1461.3359" fill="none" rx="10" ry="10" style="stroke:#222222;stroke-width:1.5;"/><line style="stroke:#222222;stroke-width:2.5;" x1="537.8128" x2="550.1872" y1="1455.1488" y2="1467.5231"/><line style="stroke:#222222;stroke-width:2.5;" x1="550.1872" x2="537.8128" y1="1455.1488" y2="1467.5231"/><line style="stroke:#181818;stroke-width:1.0;" x1="544" x2="544" y1="47.6992" y2="85.3984"/><polygon fill="#181818" points="540,75.3984,544,85.3984,548,75.3984,544,79.3984" style="stroke:#181818;stroke-width:1.0;"/><line style="stroke:#181818;stroke-width:1.0;" x1="544" x2="544" y1="133.3359" y2="153.3359"/><polygon fill="#181818" points="540,143.3359,544,153.3359,548,143.3359,544,147.3359" style="stroke:#181818;stroke-width:1.0;"/><line style="stroke:#181818;stroke-width:1.0;" x1="544" x2="544" y1="187.3047" y2="207.3047"/><polygon fill="#181818" points="540,197.3047,544,207.3047,548,197.3047,544,201.3047" style="stroke:#181818;stroke-width:1.0;"/><line style="stroke:#181818;stroke-width:1.0;" x1="544" x2="544" y1="241.2734" y2="261.2734"/><polygon fill="#181818" points="540,251.2734,544,261.2734,548,251.2734,544,255.2734" style="stroke:#181818;stroke-width:1.0;"/><line style="stroke:#181818;stroke-width:1.0;" x1="544" x2="544" y1="295.2422" y2="315.2422"/><polygon fill="#181818" points="540,305.2422,544,315.2422,548,305.2422,544,309.2422" style="stroke:#181818;stroke-width:1.0;"/><line style="stroke:#181818;stroke-width:1.0;" x1="544" x2="544" y1="367.8086" y2="390.375"/><polygon fill="#181818" points="540,380.375,544,390.375,548,380.375,544,384.375" style="stroke:#181818;stroke-width:1.0;"/><line style="stroke:#181818;stroke-width:1.0;" x1="544" x2="544" y1="424.3438" y2="444.3438"/><polygon fill="#181818" points="540,434.3438,544,444.3438,548,434.3438,544,438.3438" style="stroke:#181818;stroke-width:1.0;"/><line style="stroke:#181818;stroke-width:1.0;" x1="544" x2="544" y1="478.3125" y2="498.3125"/><polygon fill="#181818" points="540,488.3125,544,498.3125,548,488.3125,544,492.3125" style="stroke:#181818;stroke-width:1.0;"/><line style="stroke:#181818;stroke-width:1.0;" x1="544" x2="544" y1="532.2813" y2="552.2813"/><polygon fill="#181818" points="540,542.2813,544,552.2813,548,542.2813,544,546.2813" style="stroke:#181818;stroke-width:1.0;"/><line style="stroke:#181818;stroke-width:1.0;" x1="272" x2="272" y1="688.1875" y2="722.1563"/><polygon fill="#181818" points="268,712.1563,272,722.1563,276,712.1563,272,716.1563" style="stroke:#181818;stroke-width:1.0;"/><line style="stroke:#181818;stroke-width:1.0;" x1="816" x2="816" y1="674.2188" y2="708.1875"/><polygon fill="#181818" points="812,698.1875,816,708.1875,820,698.1875,816,702.1875" style="stroke:#181818;stroke-width:1.0;"/><line style="stroke:#181818;stroke-width:1.0;" x1="518" x2="272" y1="618.25" y2="618.25"/><line style="stroke:#181818;stroke-width:1.0;" x1="272" x2="272" y1="618.25" y2="640.25"/><polygon fill="#181818" points="268,630.25,272,640.25,276,630.25,272,634.25" style="stroke:#181818;stroke-width:1.0;"/><line style="stroke:#181818;stroke-width:1.0;" x1="570" x2="816" y1="618.25" y2="618.25"/><line style="stroke:#181818;stroke-width:1.0;" x1="816" x2="816" y1="618.25" y2="640.25"/><polygon fill="#181818" points="812,630.25,816,640.25,820,630.25,816,634.25" style="stroke:#181818;stroke-width:1.0;"/><line style="stroke:#181818;stroke-width:1.0;" x1="272" x2="272" y1="756.125" y2="774.125"/><line style="stroke:#181818;stroke-width:1.0;" x1="272" x2="532" y1="774.125" y2="774.125"/><polygon fill="#181818" points="522,770.125,532,774.125,522,778.125,526,774.125" style="stroke:#181818;stroke-width:1.0;"/><line style="stroke:#181818;stroke-width:1.0;" x1="816" x2="816" y1="742.1563" y2="774.125"/><line style="stroke:#181818;stroke-width:1.0;" x1="816" x2="556" y1="774.125" y2="774.125"/><polygon fill="#181818" points="566,770.125,556,774.125,566,778.125,562,774.125" style="stroke:#181818;stroke-width:1.0;"/><line style="stroke:#181818;stroke-width:1.0;" x1="544" x2="544" y1="586.25" y2="606.25"/><polygon fill="#181818" points="540,596.25,544,606.25,548,596.25,544,600.25" style="stroke:#181818;stroke-width:1.0;"/><line style="stroke:#181818;stroke-width:1.0;" x1="544" x2="544" y1="786.125" y2="806.125"/><polygon fill="#181818" points="540,796.125,544,806.125,548,796.125,544,800.125" style="stroke:#181818;stroke-width:1.0;"/><line style="stroke:#181818;stroke-width:1.0;" x1="544" x2="544" y1="840.0938" y2="860.0938"/><polygon fill="#181818" points="540,850.0938,544,860.0938,548,850.0938,544,854.0938" style="stroke:#181818;stroke-width:1.0;"/><line style="stroke:#181818;stroke-width:1.0;" x1="544" x2="544" y1="912.6602" y2="935.2266"/><polygon fill="#181818" points="540,925.2266,544,935.2266,548,925.2266,544,929.2266" style="stroke:#181818;stroke-width:1.0;"/><line style="stroke:#181818;stroke-width:1.0;" x1="544" x2="544" y1="969.1953" y2="989.1953"/><polygon fill="#181818" points="540,979.1953,544,989.1953,548,979.1953,544,983.1953" style="stroke:#181818;stroke-width:1.0;"/><line style="stroke:#181818;stroke-width:1.0;" x1="544" x2="544" y1="1073.7617" y2="1096.3281"/><polygon fill="#181818" points="540,1086.3281,544,1096.3281,548,1086.3281,544,1090.3281" style="stroke:#181818;stroke-width:1.0;"/><line style="stroke:#181818;stroke-width:1.0;" x1="544" x2="544" y1="1130.2969" y2="1150.2969"/><polygon fill="#181818" points="540,1140.2969,544,1150.2969,548,1140.2969,544,1144.2969" style="stroke:#181818;stroke-width:1.0;"/><line style="stroke:#181818;stroke-width:1.0;" x1="544" x2="544" y1="1184.2656" y2="1204.2656"/><polygon fill="#181818" points="540,1194.2656,544,1204.2656,548,1194.2656,544,1198.2656" style="stroke:#181818;stroke-width:1.0;"/><line style="stroke:#181818;stroke-width:1.0;" x1="544" x2="544" y1="1288.832" y2="1311.3984"/><polygon fill="#181818" points="540,1301.3984,544,1311.3984,548,1301.3984,544,1305.3984" style="stroke:#181818;stroke-width:1.0;"/><line style="stroke:#181818;stroke-width:1.0;" x1="544" x2="544" y1="1345.3672" y2="1365.3672"/><polygon fill="#181818" points="540,1355.3672,544,1365.3672,548,1355.3672,544,1359.3672" style="stroke:#181818;stroke-width:1.0;"/><line style="stroke:#181818;stroke-width:1.0;" x1="544" x2="544" y1="1399.3359" y2="1419.3359"/><polygon fill="#181818" points="540,1409.3359,544,1419.3359,548,1409.3359,544,1413.3359" style="stroke:#181818;stroke-width:1.0;"/><!--MD5=[8dfffd5ff055b4af846017602e57d0dc]
@startuml
!pragma layout smetana
start
note right
constructor ComponentRoseBoundary(Stylestyle,
Stylestereo,DisplaystringsToDisplay,booleanhead,
ISkinSimplespriteContainer)
end note
:super (style,stereo,LineBreakStrategy.NONE,
3,3,0,spriteContainer,stringsToDisplay,false);;
:final SymbolContextbiColor=style.getSymbolContext(getIHtmlColorSet());;
:this.head=head;;
:this.stickman=new Boundary(biColor);;
end
start
note right
void drawInternalU(UGraphicug,Areaarea)
end note
:final TextBlocktextBlock=getTextBlock();;
:final StringBounderstringBounder=ug.getStringBounder();;
:final XDimension2DdimStickman=stickman.calculateDimension(stringBounder);;
:final doubledelta=(getPreferredWidth(stringBounder)-dimStickman.getWidth())/2;;
if (head) then (yes) 
:textBlock.drawU(ug.apply(new UTranslate(getTextMiddlePostion(stringBounder),
dimStickman.getHeight())));;
:ug=ug.apply(UTranslate.dx(delta));;
else (no)
:textBlock.drawU(ug.apply(UTranslate.dx(getTextMiddlePostion(stringBounder))));;
:ug=ug.apply(new UTranslate(delta,getTextHeight(stringBounder)));;
endif 
:stickman.drawU(ug);;
end
start
note right
doublegetTextMiddlePostion(StringBounderstringBounder)
end note
:return (getPreferredWidth(stringBounder)-getTextWidth(stringBounder))/2.0;;
stop
end
start
note right
doublegetPreferredHeight(StringBounderstringBounder)
end note
:final XDimension2DdimStickman=stickman.calculateDimension(stringBounder);;
:return dimStickman.getHeight()+getTextHeight(stringBounder);;
stop
end
start
note right
doublegetPreferredWidth(StringBounderstringBounder)
end note
:final XDimension2DdimStickman=stickman.calculateDimension(stringBounder);;
:return Math.max(dimStickman.getWidth(),getTextWidth(stringBounder));;
stop
end
@enduml

PlantUML version 1.2022.7(Mon Aug 22 17:01:30 UTC 2022)
(GPL source distribution)
Java Runtime: OpenJDK Runtime Environment
JVM: OpenJDK 64-Bit Server VM
Default Encoding: UTF-8
Language: en
Country: null
--></g></svg>