<?xml version="1.0" encoding="UTF-8" standalone="no"?><svg xmlns="http://www.w3.org/2000/svg" xmlns:xlink="http://www.w3.org/1999/xlink" contentStyleType="text/css" height="234px" preserveAspectRatio="none" style="width:609px;height:234px;background:#FFFFFF;" version="1.1" viewBox="0 0 609 234" width="609px" zoomAndPan="magnify"><defs/><g><!--MD5=[6b3b7b83b96366c0b4dc8365725f94bd]
cluster net.sourceforge.plantuml.skin.rose--><g id="cluster_net.sourceforge.plantuml.skin.rose"><path d="M8.5,63 L288.5,63 A3.75,3.75 0 0 1 291,65.5 L298,85.2969 L599.5,85.2969 A2.5,2.5 0 0 1 602,87.7969 L602,224.5 A2.5,2.5 0 0 1 599.5,227 L8.5,227 A2.5,2.5 0 0 1 6,224.5 L6,65.5 A2.5,2.5 0 0 1 8.5,63 " fill="none" style="stroke:#000000;stroke-width:1.5;"/><line style="stroke:#000000;stroke-width:1.5;" x1="6" x2="298" y1="85.2969" y2="85.2969"/><text fill="#000000" font-family="sans-serif" font-size="14" font-weight="bold" lengthAdjust="spacing" textLength="279" x="10" y="77.9951">net.sourceforge.plantuml.skin.rose</text></g><!--MD5=[5a185b179cda7ffb41546d99ac330388]
class AbstractTextualComponent--><g id="elem_AbstractTextualComponent"><rect fill="#F1F1F1" height="48" id="AbstractTextualComponent" rx="2.5" ry="2.5" style="stroke:#181818;stroke-width:0.5;" width="221" x="193.5" y="6"/><ellipse cx="208.5" cy="22" fill="#ADD1B2" rx="11" ry="11" style="stroke:#181818;stroke-width:1.0;"/><path d="M211.4688,27.6406 Q210.8906,27.9375 210.25,28.0781 Q209.6094,28.2344 208.9063,28.2344 Q206.4063,28.2344 205.0781,26.5938 Q203.7656,24.9375 203.7656,21.8125 Q203.7656,18.6875 205.0781,17.0313 Q206.4063,15.375 208.9063,15.375 Q209.6094,15.375 210.25,15.5313 Q210.9063,15.6875 211.4688,15.9844 L211.4688,18.7031 Q210.8438,18.125 210.25,17.8594 Q209.6563,17.5781 209.0313,17.5781 Q207.6875,17.5781 207,18.6563 Q206.3125,19.7188 206.3125,21.8125 Q206.3125,23.9063 207,24.9844 Q207.6875,26.0469 209.0313,26.0469 Q209.6563,26.0469 210.25,25.7813 Q210.8438,25.5 211.4688,24.9219 L211.4688,27.6406 Z " fill="#000000"/><text fill="#000000" font-family="sans-serif" font-size="14" lengthAdjust="spacing" textLength="189" x="222.5" y="26.8467">AbstractTextualComponent</text><line style="stroke:#181818;stroke-width:0.5;" x1="194.5" x2="413.5" y1="38" y2="38"/><line style="stroke:#181818;stroke-width:0.5;" x1="194.5" x2="413.5" y1="46" y2="46"/></g><!--MD5=[bd8385c2ffbb92c9c222915c41961273]
class net.sourceforge.plantuml.skin.rose.ComponentRoseEnglober--><g id="elem_net.sourceforge.plantuml.skin.rose.ComponentRoseEnglober"><rect codeLine="3" fill="#F1F1F1" height="129.4844" id="net.sourceforge.plantuml.skin.rose.ComponentRoseEnglober" rx="2.5" ry="2.5" style="stroke:#181818;stroke-width:0.5;" width="579" x="14.5" y="90"/><ellipse cx="209.75" cy="106" fill="#ADD1B2" rx="11" ry="11" style="stroke:#181818;stroke-width:1.0;"/><path d="M212.7188,111.6406 Q212.1406,111.9375 211.5,112.0781 Q210.8594,112.2344 210.1563,112.2344 Q207.6563,112.2344 206.3281,110.5938 Q205.0156,108.9375 205.0156,105.8125 Q205.0156,102.6875 206.3281,101.0313 Q207.6563,99.375 210.1563,99.375 Q210.8594,99.375 211.5,99.5313 Q212.1563,99.6875 212.7188,99.9844 L212.7188,102.7031 Q212.0938,102.125 211.5,101.8594 Q210.9063,101.5781 210.2813,101.5781 Q208.9375,101.5781 208.25,102.6563 Q207.5625,103.7188 207.5625,105.8125 Q207.5625,107.9063 208.25,108.9844 Q208.9375,110.0469 210.2813,110.0469 Q210.9063,110.0469 211.5,109.7813 Q212.0938,109.5 212.7188,108.9219 L212.7188,111.6406 Z " fill="#000000"/><text fill="#000000" font-family="sans-serif" font-size="14" lengthAdjust="spacing" textLength="180" x="230.25" y="110.8467">ComponentRoseEnglober</text><line style="stroke:#181818;stroke-width:0.5;" x1="15.5" x2="592.5" y1="122" y2="122"/><line style="stroke:#181818;stroke-width:0.5;" x1="15.5" x2="592.5" y1="130" y2="130"/><a href="./../../../../../../.././qc/src/net/sourceforge/plantuml/skin/rose/ComponentRoseEnglober.java.html#57" target="_top" title="./../../../../../../.././qc/src/net/sourceforge/plantuml/skin/rose/ComponentRoseEnglober.java.html#57" xlink:actuate="onRequest" xlink:href="./../../../../../../.././qc/src/net/sourceforge/plantuml/skin/rose/ComponentRoseEnglober.java.html#57" xlink:show="new" xlink:title="./../../../../../../.././qc/src/net/sourceforge/plantuml/skin/rose/ComponentRoseEnglober.java.html#57" xlink:type="simple"><rect fill="#F1F1F1" height="10" style="stroke:none;stroke-width:1.0;" width="20" x="20.5" y="138.6484"/><ellipse cx="25.5" cy="143.6484" fill="#84BE84" rx="3" ry="3" style="stroke:#038048;stroke-width:1.0;"/></a><a href="./../../../../../../.././qc/src/net/sourceforge/plantuml/skin/rose/ComponentRoseEnglober.java.html#57" target="_top" title="./../../../../../../.././qc/src/net/sourceforge/plantuml/skin/rose/ComponentRoseEnglober.java.html#57" xlink:actuate="onRequest" xlink:href="./../../../../../../.././qc/src/net/sourceforge/plantuml/skin/rose/ComponentRoseEnglober.java.html#57" xlink:show="new" xlink:title="./../../../../../../.././qc/src/net/sourceforge/plantuml/skin/rose/ComponentRoseEnglober.java.html#57" xlink:type="simple"><text fill="#000000" font-family="sans-serif" font-size="14" lengthAdjust="spacing" textLength="553" x="34.5" y="146.9951">ComponentRoseEnglober(Style;Display;ISkinSimple) : ComponentRoseEnglober</text></a><a href="./../../../../../../.././qc/src/net/sourceforge/plantuml/skin/rose/ComponentRoseEnglober.java.html#64" target="_top" title="./../../../../../../.././qc/src/net/sourceforge/plantuml/skin/rose/ComponentRoseEnglober.java.html#64" xlink:actuate="onRequest" xlink:href="./../../../../../../.././qc/src/net/sourceforge/plantuml/skin/rose/ComponentRoseEnglober.java.html#64" xlink:show="new" xlink:title="./../../../../../../.././qc/src/net/sourceforge/plantuml/skin/rose/ComponentRoseEnglober.java.html#64" xlink:type="simple"><text fill="#000000" font-family="sans-serif" font-size="14" lengthAdjust="spacing" textLength="328" x="34.5" y="163.292">drawBackgroundInternalU(UGraphic;Area) : void</text></a><a href="./../../../../../../.././qc/src/net/sourceforge/plantuml/skin/rose/ComponentRoseEnglober.java.html#73" target="_top" title="./../../../../../../.././qc/src/net/sourceforge/plantuml/skin/rose/ComponentRoseEnglober.java.html#73" xlink:actuate="onRequest" xlink:href="./../../../../../../.././qc/src/net/sourceforge/plantuml/skin/rose/ComponentRoseEnglober.java.html#73" xlink:show="new" xlink:title="./../../../../../../.././qc/src/net/sourceforge/plantuml/skin/rose/ComponentRoseEnglober.java.html#73" xlink:type="simple"><text fill="#000000" font-family="sans-serif" font-size="14" lengthAdjust="spacing" textLength="244" x="34.5" y="179.5889">drawInternalU(UGraphic;Area) : void</text></a><a href="./../../../../../../.././qc/src/net/sourceforge/plantuml/skin/rose/ComponentRoseEnglober.java.html#81" target="_top" title="./../../../../../../.././qc/src/net/sourceforge/plantuml/skin/rose/ComponentRoseEnglober.java.html#81" xlink:actuate="onRequest" xlink:href="./../../../../../../.././qc/src/net/sourceforge/plantuml/skin/rose/ComponentRoseEnglober.java.html#81" xlink:show="new" xlink:title="./../../../../../../.././qc/src/net/sourceforge/plantuml/skin/rose/ComponentRoseEnglober.java.html#81" xlink:type="simple"><rect fill="#F1F1F1" height="10" style="stroke:none;stroke-width:1.0;" width="20" x="20.5" y="187.5391"/><ellipse cx="25.5" cy="192.5391" fill="#84BE84" rx="3" ry="3" style="stroke:#038048;stroke-width:1.0;"/></a><a href="./../../../../../../.././qc/src/net/sourceforge/plantuml/skin/rose/ComponentRoseEnglober.java.html#81" target="_top" title="./../../../../../../.././qc/src/net/sourceforge/plantuml/skin/rose/ComponentRoseEnglober.java.html#81" xlink:actuate="onRequest" xlink:href="./../../../../../../.././qc/src/net/sourceforge/plantuml/skin/rose/ComponentRoseEnglober.java.html#81" xlink:show="new" xlink:title="./../../../../../../.././qc/src/net/sourceforge/plantuml/skin/rose/ComponentRoseEnglober.java.html#81" xlink:type="simple"><text fill="#000000" font-family="sans-serif" font-size="14" lengthAdjust="spacing" textLength="303" x="34.5" y="195.8857">getPreferredHeight(StringBounder) : double</text></a><a href="./../../../../../../.././qc/src/net/sourceforge/plantuml/skin/rose/ComponentRoseEnglober.java.html#86" target="_top" title="./../../../../../../.././qc/src/net/sourceforge/plantuml/skin/rose/ComponentRoseEnglober.java.html#86" xlink:actuate="onRequest" xlink:href="./../../../../../../.././qc/src/net/sourceforge/plantuml/skin/rose/ComponentRoseEnglober.java.html#86" xlink:show="new" xlink:title="./../../../../../../.././qc/src/net/sourceforge/plantuml/skin/rose/ComponentRoseEnglober.java.html#86" xlink:type="simple"><rect fill="#F1F1F1" height="10" style="stroke:none;stroke-width:1.0;" width="20" x="20.5" y="203.8359"/><ellipse cx="25.5" cy="208.8359" fill="#84BE84" rx="3" ry="3" style="stroke:#038048;stroke-width:1.0;"/></a><a href="./../../../../../../.././qc/src/net/sourceforge/plantuml/skin/rose/ComponentRoseEnglober.java.html#86" target="_top" title="./../../../../../../.././qc/src/net/sourceforge/plantuml/skin/rose/ComponentRoseEnglober.java.html#86" xlink:actuate="onRequest" xlink:href="./../../../../../../.././qc/src/net/sourceforge/plantuml/skin/rose/ComponentRoseEnglober.java.html#86" xlink:show="new" xlink:title="./../../../../../../.././qc/src/net/sourceforge/plantuml/skin/rose/ComponentRoseEnglober.java.html#86" xlink:type="simple"><text fill="#000000" font-family="sans-serif" font-size="14" lengthAdjust="spacing" textLength="297" x="34.5" y="212.1826">getPreferredWidth(StringBounder) : double</text></a></g><path d="M304,54.0413 C304,64.3681 304,77.1075 304,89.9808 " fill="none" style="stroke:#181818;stroke-width:1.0;"/><polygon fill="#FFFFFF" points="304,54.0413,298,70.0413,310,70.0413,304,54.0413" style="stroke:#181818;stroke-width:1.0;"/><!--MD5=[6f1234eeee04fe9f190e81b4d84407b3]
@startuml
!pragma layout smetana
"AbstractTextualComponent" <|- - "net.sourceforge.plantuml.skin.rose.ComponentRoseEnglober"
class net.sourceforge.plantuml.skin.rose.ComponentRoseEnglober {
+ComponentRoseEnglober(Style;Display;ISkinSimple) : ComponentRoseEnglober [[[./../../../../../../.././qc/src/net/sourceforge/plantuml/skin/rose/ComponentRoseEnglober.java.html#57]]]
drawBackgroundInternalU(UGraphic;Area) : void [[[./../../../../../../.././qc/src/net/sourceforge/plantuml/skin/rose/ComponentRoseEnglober.java.html#64]]]
drawInternalU(UGraphic;Area) : void [[[./../../../../../../.././qc/src/net/sourceforge/plantuml/skin/rose/ComponentRoseEnglober.java.html#73]]]
+getPreferredHeight(StringBounder) : double [[[./../../../../../../.././qc/src/net/sourceforge/plantuml/skin/rose/ComponentRoseEnglober.java.html#81]]]
+getPreferredWidth(StringBounder) : double [[[./../../../../../../.././qc/src/net/sourceforge/plantuml/skin/rose/ComponentRoseEnglober.java.html#86]]]
} 
@enduml

PlantUML version 1.2022.7(Mon Aug 22 17:01:30 UTC 2022)
(GPL source distribution)
Java Runtime: OpenJDK Runtime Environment
JVM: OpenJDK 64-Bit Server VM
Default Encoding: UTF-8
Language: en
Country: null
--></g></svg>