<?xml version="1.0" encoding="UTF-8" standalone="no"?><svg xmlns="http://www.w3.org/2000/svg" xmlns:xlink="http://www.w3.org/1999/xlink" contentStyleType="text/css" height="2158px" preserveAspectRatio="none" style="width:705px;height:2158px;background:#FFFFFF;" version="1.1" viewBox="0 0 705 2158" width="705px" zoomAndPan="magnify"><defs/><g><path d="M307.5,10 L307.5,26.1328 L287.5,30.1328 L307.5,34.1328 L307.5,50.2656 A0,0 0 0 0 307.5,50.2656 L659.5,50.2656 A0,0 0 0 0 659.5,50.2656 L659.5,20 L649.5,10 L307.5,10 A0,0 0 0 0 307.5,10 " fill="#FEFFDD" style="stroke:#181818;stroke-width:0.5;"/><path d="M649.5,10 L649.5,20 L659.5,20 L649.5,10 " fill="#FEFFDD" style="stroke:#181818;stroke-width:0.5;"/><text fill="#000000" font-family="sans-serif" font-size="13" lengthAdjust="spacing" textLength="323" x="313.5" y="27.0669">constructor ComponentRoseActiveLine(Style style,</text><text fill="#000000" font-family="sans-serif" font-size="13" lengthAdjust="spacing" textLength="331" x="313.5" y="42.1997">boolean closeUp,boolean closeDown,HColorSet set)</text><ellipse cx="277.5" cy="30.1328" fill="#222222" rx="10" ry="10" style="stroke:#222222;stroke-width:1.0;"/><rect fill="#F1F1F1" height="33.9688" rx="12.5" ry="12.5" style="stroke:#181818;stroke-width:0.5;" width="103" x="226" y="70.2656"/><text fill="#000000" font-family="sans-serif" font-size="12" lengthAdjust="spacing" textLength="83" x="236" y="91.4043">super (style);</text><rect fill="#F1F1F1" height="33.9688" rx="12.5" ry="12.5" style="stroke:#181818;stroke-width:0.5;" width="328" x="113.5" y="124.2344"/><text fill="#000000" font-family="sans-serif" font-size="12" lengthAdjust="spacing" textLength="308" x="123.5" y="145.373">this.symbolContext=style.getSymbolContext(set);</text><rect fill="#F1F1F1" height="33.9688" rx="12.5" ry="12.5" style="stroke:#181818;stroke-width:0.5;" width="161" x="197" y="178.2031"/><text fill="#000000" font-family="sans-serif" font-size="12" lengthAdjust="spacing" textLength="141" x="207" y="199.3418">this.closeUp=closeUp;</text><rect fill="#F1F1F1" height="33.9688" rx="12.5" ry="12.5" style="stroke:#181818;stroke-width:0.5;" width="195" x="180" y="232.1719"/><text fill="#000000" font-family="sans-serif" font-size="12" lengthAdjust="spacing" textLength="175" x="190" y="253.3105">this.closeDown=closeDown;</text><ellipse cx="277.5" cy="296.1406" fill="none" rx="10" ry="10" style="stroke:#222222;stroke-width:1.5;"/><line style="stroke:#222222;stroke-width:2.5;" x1="271.3128" x2="283.6872" y1="289.9534" y2="302.3278"/><line style="stroke:#222222;stroke-width:2.5;" x1="283.6872" x2="271.3128" y1="289.9534" y2="302.3278"/><path d="M307.5,316.1406 L307.5,324.707 L287.5,328.707 L307.5,332.707 L307.5,341.2734 A0,0 0 0 0 307.5,341.2734 L602.5,341.2734 A0,0 0 0 0 602.5,341.2734 L602.5,326.1406 L592.5,316.1406 L307.5,316.1406 A0,0 0 0 0 307.5,316.1406 " fill="#FEFFDD" style="stroke:#181818;stroke-width:0.5;"/><path d="M592.5,316.1406 L592.5,326.1406 L602.5,326.1406 L592.5,316.1406 " fill="#FEFFDD" style="stroke:#181818;stroke-width:0.5;"/><text fill="#000000" font-family="sans-serif" font-size="13" lengthAdjust="spacing" textLength="274" x="313.5" y="333.2075">void drawInternalU(UGraphic ug,Area area)</text><ellipse cx="277.5" cy="328.707" fill="#222222" rx="10" ry="10" style="stroke:#222222;stroke-width:1.0;"/><rect fill="#F1F1F1" height="33.9688" rx="12.5" ry="12.5" style="stroke:#181818;stroke-width:0.5;" width="428" x="63.5" y="361.2734"/><text fill="#000000" font-family="sans-serif" font-size="12" lengthAdjust="spacing" textLength="408" x="73.5" y="382.4121">final XDimension2D dimensionToUse=area.getDimensionToUse();</text><rect fill="#F1F1F1" height="33.9688" rx="12.5" ry="12.5" style="stroke:#181818;stroke-width:0.5;" width="388" x="83.5" y="415.2422"/><text fill="#000000" font-family="sans-serif" font-size="12" lengthAdjust="spacing" textLength="368" x="93.5" y="436.3809">final StringBounder stringBounder=ug.getStringBounder();</text><rect fill="#F1F1F1" height="33.9688" rx="12.5" ry="12.5" style="stroke:#181818;stroke-width:0.5;" width="533" x="11" y="469.2109"/><text fill="#000000" font-family="sans-serif" font-size="12" lengthAdjust="spacing" textLength="513" x="21" y="490.3496">final int x=(int )(dimensionToUse.getWidth()-getPreferredWidth(stringBounder))/2;</text><rect fill="#F1F1F1" height="33.9688" rx="12.5" ry="12.5" style="stroke:#181818;stroke-width:0.5;" width="67" x="244" y="571.582"/><text fill="#000000" font-family="sans-serif" font-size="12" lengthAdjust="spacing" textLength="47" x="254" y="592.7207">return ;</text><ellipse cx="277.5" cy="645.0664" fill="none" rx="11" ry="11" style="stroke:#222222;stroke-width:1.0;"/><ellipse cx="277.5" cy="645.0664" fill="#222222" rx="6" ry="6" style="stroke:#111111;stroke-width:1.0;"/><polygon fill="#F1F1F1" points="184.5,523.1797,370.5,523.1797,382.5,535.1797,370.5,547.1797,184.5,547.1797,172.5,535.1797,184.5,523.1797" style="stroke:#181818;stroke-width:0.5;"/><text fill="#000000" font-family="sans-serif" font-size="11" lengthAdjust="spacing" textLength="20" x="281.5" y="557.3901">yes</text><text fill="#000000" font-family="sans-serif" font-size="11" lengthAdjust="spacing" textLength="186" x="184.5" y="538.9878">dimensionToUse.getHeight()==0</text><rect fill="#F1F1F1" height="47.9375" rx="12.5" ry="12.5" style="stroke:#181818;stroke-width:0.5;" width="485" x="35" y="698.0664"/><text fill="#000000" font-family="sans-serif" font-size="12" lengthAdjust="spacing" textLength="465" x="45" y="719.2051">final URectangle rect=new URectangle(getPreferredWidth(stringBounder),</text><text fill="#000000" font-family="sans-serif" font-size="12" lengthAdjust="spacing" textLength="188" x="45" y="733.1738">dimensionToUse.getHeight());</text><rect fill="#F1F1F1" height="33.9688" rx="12.5" ry="12.5" style="stroke:#181818;stroke-width:0.5;" width="173" x="191" y="814.4063"/><text fill="#000000" font-family="sans-serif" font-size="12" lengthAdjust="spacing" textLength="153" x="201" y="835.5449">rect.setDeltaShadow(1);</text><polygon fill="#F1F1F1" points="193.5,766.0039,361.5,766.0039,373.5,778.0039,361.5,790.0039,193.5,790.0039,181.5,778.0039,193.5,766.0039" style="stroke:#181818;stroke-width:0.5;"/><text fill="#000000" font-family="sans-serif" font-size="11" lengthAdjust="spacing" textLength="20" x="281.5" y="800.2144">yes</text><text fill="#000000" font-family="sans-serif" font-size="11" lengthAdjust="spacing" textLength="168" x="193.5" y="781.812">symbolContext.isShadowing()</text><polygon fill="#F1F1F1" points="277.5,868.375,289.5,880.375,277.5,892.375,265.5,880.375,277.5,868.375" style="stroke:#181818;stroke-width:0.5;"/><rect fill="#F1F1F1" height="33.9688" rx="12.5" ry="12.5" style="stroke:#181818;stroke-width:0.5;" width="299" x="128" y="912.375"/><text fill="#000000" font-family="sans-serif" font-size="12" lengthAdjust="spacing" textLength="279" x="138" y="933.5137">ug=ug.apply(symbolContext.getForeColor());</text><rect fill="#F1F1F1" height="47.9375" rx="12.5" ry="12.5" style="stroke:#181818;stroke-width:0.5;" width="301" x="127" y="1014.7461"/><text fill="#000000" font-family="sans-serif" font-size="12" lengthAdjust="spacing" textLength="281" x="137" y="1035.8848">ug.apply(symbolContext.getBackColor().bg())</text><text fill="#000000" font-family="sans-serif" font-size="12" lengthAdjust="spacing" textLength="222" x="137" y="1049.8535">.apply(UTranslate.dx(x)).draw(rect);</text><rect fill="#F1F1F1" height="33.9688" rx="12.5" ry="12.5" style="stroke:#181818;stroke-width:0.5;" width="67" x="244" y="1082.6836"/><text fill="#000000" font-family="sans-serif" font-size="12" lengthAdjust="spacing" textLength="47" x="254" y="1103.8223">return ;</text><ellipse cx="277.5" cy="1147.6523" fill="none" rx="11" ry="11" style="stroke:#222222;stroke-width:1.0;"/><ellipse cx="277.5" cy="1147.6523" fill="#222222" rx="6" ry="6" style="stroke:#111111;stroke-width:1.0;"/><polygon fill="#F1F1F1" points="214.5,966.3438,340.5,966.3438,352.5,978.3438,340.5,990.3438,214.5,990.3438,202.5,978.3438,214.5,966.3438" style="stroke:#181818;stroke-width:0.5;"/><text fill="#000000" font-family="sans-serif" font-size="11" lengthAdjust="spacing" textLength="20" x="281.5" y="1000.5542">yes</text><text fill="#000000" font-family="sans-serif" font-size="11" lengthAdjust="spacing" textLength="126" x="214.5" y="982.1519">closeUp&amp;&amp;closeDown</text><rect fill="#F1F1F1" height="47.9375" rx="12.5" ry="12.5" style="stroke:#181818;stroke-width:0.5;" width="477" x="39" y="1200.6523"/><text fill="#000000" font-family="sans-serif" font-size="12" lengthAdjust="spacing" textLength="281" x="49" y="1221.791">ug.apply(symbolContext.getBackColor().bg())</text><text fill="#000000" font-family="sans-serif" font-size="12" lengthAdjust="spacing" textLength="457" x="49" y="1235.7598">.apply(symbolContext.getBackColor()).apply(UTranslate.dx(x)).draw(rect);</text><rect fill="#F1F1F1" height="33.9688" rx="12.5" ry="12.5" style="stroke:#181818;stroke-width:0.5;" width="385" x="85" y="1268.5898"/><text fill="#000000" font-family="sans-serif" font-size="12" lengthAdjust="spacing" textLength="365" x="95" y="1289.7285">final ULine vline=ULine.vline(dimensionToUse.getHeight());</text><rect fill="#F1F1F1" height="33.9688" rx="12.5" ry="12.5" style="stroke:#181818;stroke-width:0.5;" width="261" x="147" y="1322.5586"/><text fill="#000000" font-family="sans-serif" font-size="12" lengthAdjust="spacing" textLength="241" x="157" y="1343.6973">ug.apply(UTranslate.dx(x)).draw(vline);</text><rect fill="#F1F1F1" height="47.9375" rx="12.5" ry="12.5" style="stroke:#181818;stroke-width:0.5;" width="409" x="73" y="1376.5273"/><text fill="#000000" font-family="sans-serif" font-size="12" lengthAdjust="spacing" textLength="389" x="83" y="1397.666">ug.apply(UTranslate.dx(x+getPreferredWidth(stringBounder)))</text><text fill="#000000" font-family="sans-serif" font-size="12" lengthAdjust="spacing" textLength="76" x="83" y="1411.6348">.draw(vline);</text><rect fill="#F1F1F1" height="33.9688" rx="12.5" ry="12.5" style="stroke:#181818;stroke-width:0.5;" width="424" x="65.5" y="1444.4648"/><text fill="#000000" font-family="sans-serif" font-size="12" lengthAdjust="spacing" textLength="404" x="75.5" y="1465.6035">final ULine hline=ULine.hline(getPreferredWidth(stringBounder));</text><rect fill="#F1F1F1" height="33.9688" rx="12.5" ry="12.5" style="stroke:#181818;stroke-width:0.5;" width="263" x="146" y="1546.8359"/><text fill="#000000" font-family="sans-serif" font-size="12" lengthAdjust="spacing" textLength="243" x="156" y="1567.9746">ug.apply(UTranslate.dx(x)).draw(hline);</text><polygon fill="#F1F1F1" points="255,1498.4336,300,1498.4336,312,1510.4336,300,1522.4336,255,1522.4336,243,1510.4336,255,1498.4336" style="stroke:#181818;stroke-width:0.5;"/><text fill="#000000" font-family="sans-serif" font-size="11" lengthAdjust="spacing" textLength="20" x="281.5" y="1532.644">yes</text><text fill="#000000" font-family="sans-serif" font-size="11" lengthAdjust="spacing" textLength="45" x="255" y="1514.2417">closeUp</text><polygon fill="#F1F1F1" points="277.5,1600.8047,289.5,1612.8047,277.5,1624.8047,265.5,1612.8047,277.5,1600.8047" style="stroke:#181818;stroke-width:0.5;"/><rect fill="#F1F1F1" height="47.9375" rx="12.5" ry="12.5" style="stroke:#181818;stroke-width:0.5;" width="379" x="88" y="1693.207"/><text fill="#000000" font-family="sans-serif" font-size="12" lengthAdjust="spacing" textLength="359" x="98" y="1714.3457">ug.apply(new UTranslate(x,dimensionToUse.getHeight()))</text><text fill="#000000" font-family="sans-serif" font-size="12" lengthAdjust="spacing" textLength="78" x="98" y="1728.3145">.draw(hline);</text><polygon fill="#F1F1F1" points="247,1644.8047,308,1644.8047,320,1656.8047,308,1668.8047,247,1668.8047,235,1656.8047,247,1644.8047" style="stroke:#181818;stroke-width:0.5;"/><text fill="#000000" font-family="sans-serif" font-size="11" lengthAdjust="spacing" textLength="20" x="281.5" y="1679.0151">yes</text><text fill="#000000" font-family="sans-serif" font-size="11" lengthAdjust="spacing" textLength="61" x="247" y="1660.6128">closeDown</text><polygon fill="#F1F1F1" points="277.5,1761.1445,289.5,1773.1445,277.5,1785.1445,265.5,1773.1445,277.5,1761.1445" style="stroke:#181818;stroke-width:0.5;"/><ellipse cx="277.5" cy="1815.1445" fill="none" rx="10" ry="10" style="stroke:#222222;stroke-width:1.5;"/><line style="stroke:#222222;stroke-width:2.5;" x1="271.3128" x2="283.6872" y1="1808.9573" y2="1821.3317"/><line style="stroke:#222222;stroke-width:2.5;" x1="283.6872" x2="271.3128" y1="1808.9573" y2="1821.3317"/><path d="M307.5,1835.1445 L307.5,1843.7109 L287.5,1847.7109 L307.5,1851.7109 L307.5,1860.2773 A0,0 0 0 0 307.5,1860.2773 L693.5,1860.2773 A0,0 0 0 0 693.5,1860.2773 L693.5,1845.1445 L683.5,1835.1445 L307.5,1835.1445 A0,0 0 0 0 307.5,1835.1445 " fill="#FEFFDD" style="stroke:#181818;stroke-width:0.5;"/><path d="M683.5,1835.1445 L683.5,1845.1445 L693.5,1845.1445 L683.5,1835.1445 " fill="#FEFFDD" style="stroke:#181818;stroke-width:0.5;"/><text fill="#000000" font-family="sans-serif" font-size="13" lengthAdjust="spacing" textLength="365" x="313.5" y="1852.2114">double getPreferredHeight(StringBounder stringBounder)</text><ellipse cx="277.5" cy="1847.7109" fill="#222222" rx="10" ry="10" style="stroke:#222222;stroke-width:1.0;"/><rect fill="#F1F1F1" height="33.9688" rx="12.5" ry="12.5" style="stroke:#181818;stroke-width:0.5;" width="75" x="240" y="1880.2773"/><text fill="#000000" font-family="sans-serif" font-size="12" lengthAdjust="spacing" textLength="55" x="250" y="1901.416">return 0;</text><ellipse cx="277.5" cy="1945.2461" fill="none" rx="11" ry="11" style="stroke:#222222;stroke-width:1.0;"/><ellipse cx="277.5" cy="1945.2461" fill="#222222" rx="6" ry="6" style="stroke:#111111;stroke-width:1.0;"/><ellipse cx="277.5" cy="1976.2461" fill="none" rx="10" ry="10" style="stroke:#222222;stroke-width:1.5;"/><line style="stroke:#222222;stroke-width:2.5;" x1="271.3128" x2="283.6872" y1="1970.0589" y2="1982.4333"/><line style="stroke:#222222;stroke-width:2.5;" x1="283.6872" x2="271.3128" y1="1970.0589" y2="1982.4333"/><path d="M307.5,1996.2461 L307.5,2004.8125 L287.5,2008.8125 L307.5,2012.8125 L307.5,2021.3789 A0,0 0 0 0 307.5,2021.3789 L686.5,2021.3789 A0,0 0 0 0 686.5,2021.3789 L686.5,2006.2461 L676.5,1996.2461 L307.5,1996.2461 A0,0 0 0 0 307.5,1996.2461 " fill="#FEFFDD" style="stroke:#181818;stroke-width:0.5;"/><path d="M676.5,1996.2461 L676.5,2006.2461 L686.5,2006.2461 L676.5,1996.2461 " fill="#FEFFDD" style="stroke:#181818;stroke-width:0.5;"/><text fill="#000000" font-family="sans-serif" font-size="13" lengthAdjust="spacing" textLength="358" x="313.5" y="2013.313">double getPreferredWidth(StringBounder stringBounder)</text><ellipse cx="277.5" cy="2008.8125" fill="#222222" rx="10" ry="10" style="stroke:#222222;stroke-width:1.0;"/><rect fill="#F1F1F1" height="33.9688" rx="12.5" ry="12.5" style="stroke:#181818;stroke-width:0.5;" width="83" x="236" y="2041.3789"/><text fill="#000000" font-family="sans-serif" font-size="12" lengthAdjust="spacing" textLength="63" x="246" y="2062.5176">return 10;</text><ellipse cx="277.5" cy="2106.3477" fill="none" rx="11" ry="11" style="stroke:#222222;stroke-width:1.0;"/><ellipse cx="277.5" cy="2106.3477" fill="#222222" rx="6" ry="6" style="stroke:#111111;stroke-width:1.0;"/><ellipse cx="277.5" cy="2137.3477" fill="none" rx="10" ry="10" style="stroke:#222222;stroke-width:1.5;"/><line style="stroke:#222222;stroke-width:2.5;" x1="271.3128" x2="283.6872" y1="2131.1605" y2="2143.5348"/><line style="stroke:#222222;stroke-width:2.5;" x1="283.6872" x2="271.3128" y1="2131.1605" y2="2143.5348"/><line style="stroke:#181818;stroke-width:1.0;" x1="277.5" x2="277.5" y1="40.1328" y2="70.2656"/><polygon fill="#181818" points="273.5,60.2656,277.5,70.2656,281.5,60.2656,277.5,64.2656" style="stroke:#181818;stroke-width:1.0;"/><line style="stroke:#181818;stroke-width:1.0;" x1="277.5" x2="277.5" y1="104.2344" y2="124.2344"/><polygon fill="#181818" points="273.5,114.2344,277.5,124.2344,281.5,114.2344,277.5,118.2344" style="stroke:#181818;stroke-width:1.0;"/><line style="stroke:#181818;stroke-width:1.0;" x1="277.5" x2="277.5" y1="158.2031" y2="178.2031"/><polygon fill="#181818" points="273.5,168.2031,277.5,178.2031,281.5,168.2031,277.5,172.2031" style="stroke:#181818;stroke-width:1.0;"/><line style="stroke:#181818;stroke-width:1.0;" x1="277.5" x2="277.5" y1="212.1719" y2="232.1719"/><polygon fill="#181818" points="273.5,222.1719,277.5,232.1719,281.5,222.1719,277.5,226.1719" style="stroke:#181818;stroke-width:1.0;"/><line style="stroke:#181818;stroke-width:1.0;" x1="277.5" x2="277.5" y1="266.1406" y2="286.1406"/><polygon fill="#181818" points="273.5,276.1406,277.5,286.1406,281.5,276.1406,277.5,280.1406" style="stroke:#181818;stroke-width:1.0;"/><line style="stroke:#181818;stroke-width:1.0;" x1="277.5" x2="277.5" y1="338.707" y2="361.2734"/><polygon fill="#181818" points="273.5,351.2734,277.5,361.2734,281.5,351.2734,277.5,355.2734" style="stroke:#181818;stroke-width:1.0;"/><line style="stroke:#181818;stroke-width:1.0;" x1="277.5" x2="277.5" y1="395.2422" y2="415.2422"/><polygon fill="#181818" points="273.5,405.2422,277.5,415.2422,281.5,405.2422,277.5,409.2422" style="stroke:#181818;stroke-width:1.0;"/><line style="stroke:#181818;stroke-width:1.0;" x1="277.5" x2="277.5" y1="449.2109" y2="469.2109"/><polygon fill="#181818" points="273.5,459.2109,277.5,469.2109,281.5,459.2109,277.5,463.2109" style="stroke:#181818;stroke-width:1.0;"/><line style="stroke:#181818;stroke-width:1.0;" x1="277.5" x2="277.5" y1="605.5508" y2="634.0664"/><polygon fill="#181818" points="273.5,624.0664,277.5,634.0664,281.5,624.0664,277.5,628.0664" style="stroke:#181818;stroke-width:1.0;"/><line style="stroke:#181818;stroke-width:1.0;" x1="277.5" x2="277.5" y1="547.1797" y2="571.582"/><polygon fill="#181818" points="273.5,561.582,277.5,571.582,281.5,561.582,277.5,565.582" style="stroke:#181818;stroke-width:1.0;"/><line style="stroke:#181818;stroke-width:1.0;" x1="382.5" x2="394.5" y1="535.1797" y2="535.1797"/><polygon fill="#181818" points="390.5,604.0664,394.5,614.0664,398.5,604.0664,394.5,608.0664" style="stroke:#181818;stroke-width:1.0;"/><line style="stroke:#181818;stroke-width:1.0;" x1="394.5" x2="394.5" y1="535.1797" y2="678.0664"/><line style="stroke:#181818;stroke-width:1.0;" x1="394.5" x2="277.5" y1="678.0664" y2="678.0664"/><line style="stroke:#181818;stroke-width:1.0;" x1="277.5" x2="277.5" y1="678.0664" y2="698.0664"/><polygon fill="#181818" points="273.5,688.0664,277.5,698.0664,281.5,688.0664,277.5,692.0664" style="stroke:#181818;stroke-width:1.0;"/><line style="stroke:#181818;stroke-width:1.0;" x1="277.5" x2="277.5" y1="503.1797" y2="523.1797"/><polygon fill="#181818" points="273.5,513.1797,277.5,523.1797,281.5,513.1797,277.5,517.1797" style="stroke:#181818;stroke-width:1.0;"/><line style="stroke:#181818;stroke-width:1.0;" x1="277.5" x2="277.5" y1="790.0039" y2="814.4063"/><polygon fill="#181818" points="273.5,804.4063,277.5,814.4063,281.5,804.4063,277.5,808.4063" style="stroke:#181818;stroke-width:1.0;"/><line style="stroke:#181818;stroke-width:1.0;" x1="373.5" x2="385.5" y1="778.0039" y2="778.0039"/><polygon fill="#181818" points="381.5,821.3906,385.5,831.3906,389.5,821.3906,385.5,825.3906" style="stroke:#181818;stroke-width:1.0;"/><line style="stroke:#181818;stroke-width:1.0;" x1="385.5" x2="385.5" y1="778.0039" y2="880.375"/><line style="stroke:#181818;stroke-width:1.0;" x1="385.5" x2="289.5" y1="880.375" y2="880.375"/><polygon fill="#181818" points="299.5,876.375,289.5,880.375,299.5,884.375,295.5,880.375" style="stroke:#181818;stroke-width:1.0;"/><line style="stroke:#181818;stroke-width:1.0;" x1="277.5" x2="277.5" y1="848.375" y2="868.375"/><polygon fill="#181818" points="273.5,858.375,277.5,868.375,281.5,858.375,277.5,862.375" style="stroke:#181818;stroke-width:1.0;"/><line style="stroke:#181818;stroke-width:1.0;" x1="277.5" x2="277.5" y1="746.0039" y2="766.0039"/><polygon fill="#181818" points="273.5,756.0039,277.5,766.0039,281.5,756.0039,277.5,760.0039" style="stroke:#181818;stroke-width:1.0;"/><line style="stroke:#181818;stroke-width:1.0;" x1="277.5" x2="277.5" y1="892.375" y2="912.375"/><polygon fill="#181818" points="273.5,902.375,277.5,912.375,281.5,902.375,277.5,906.375" style="stroke:#181818;stroke-width:1.0;"/><line style="stroke:#181818;stroke-width:1.0;" x1="277.5" x2="277.5" y1="1062.6836" y2="1082.6836"/><polygon fill="#181818" points="273.5,1072.6836,277.5,1082.6836,281.5,1072.6836,277.5,1076.6836" style="stroke:#181818;stroke-width:1.0;"/><line style="stroke:#181818;stroke-width:1.0;" x1="277.5" x2="277.5" y1="1116.6523" y2="1136.6523"/><polygon fill="#181818" points="273.5,1126.6523,277.5,1136.6523,281.5,1126.6523,277.5,1130.6523" style="stroke:#181818;stroke-width:1.0;"/><line style="stroke:#181818;stroke-width:1.0;" x1="277.5" x2="277.5" y1="990.3438" y2="1014.7461"/><polygon fill="#181818" points="273.5,1004.7461,277.5,1014.7461,281.5,1004.7461,277.5,1008.7461" style="stroke:#181818;stroke-width:1.0;"/><line style="stroke:#181818;stroke-width:1.0;" x1="352.5" x2="438" y1="978.3438" y2="978.3438"/><polygon fill="#181818" points="434,1073.6992,438,1083.6992,442,1073.6992,438,1077.6992" style="stroke:#181818;stroke-width:1.0;"/><line style="stroke:#181818;stroke-width:1.0;" x1="438" x2="438" y1="978.3438" y2="1180.6523"/><line style="stroke:#181818;stroke-width:1.0;" x1="438" x2="277.5" y1="1180.6523" y2="1180.6523"/><line style="stroke:#181818;stroke-width:1.0;" x1="277.5" x2="277.5" y1="1180.6523" y2="1200.6523"/><polygon fill="#181818" points="273.5,1190.6523,277.5,1200.6523,281.5,1190.6523,277.5,1194.6523" style="stroke:#181818;stroke-width:1.0;"/><line style="stroke:#181818;stroke-width:1.0;" x1="277.5" x2="277.5" y1="946.3438" y2="966.3438"/><polygon fill="#181818" points="273.5,956.3438,277.5,966.3438,281.5,956.3438,277.5,960.3438" style="stroke:#181818;stroke-width:1.0;"/><line style="stroke:#181818;stroke-width:1.0;" x1="277.5" x2="277.5" y1="1248.5898" y2="1268.5898"/><polygon fill="#181818" points="273.5,1258.5898,277.5,1268.5898,281.5,1258.5898,277.5,1262.5898" style="stroke:#181818;stroke-width:1.0;"/><line style="stroke:#181818;stroke-width:1.0;" x1="277.5" x2="277.5" y1="1302.5586" y2="1322.5586"/><polygon fill="#181818" points="273.5,1312.5586,277.5,1322.5586,281.5,1312.5586,277.5,1316.5586" style="stroke:#181818;stroke-width:1.0;"/><line style="stroke:#181818;stroke-width:1.0;" x1="277.5" x2="277.5" y1="1356.5273" y2="1376.5273"/><polygon fill="#181818" points="273.5,1366.5273,277.5,1376.5273,281.5,1366.5273,277.5,1370.5273" style="stroke:#181818;stroke-width:1.0;"/><line style="stroke:#181818;stroke-width:1.0;" x1="277.5" x2="277.5" y1="1424.4648" y2="1444.4648"/><polygon fill="#181818" points="273.5,1434.4648,277.5,1444.4648,281.5,1434.4648,277.5,1438.4648" style="stroke:#181818;stroke-width:1.0;"/><line style="stroke:#181818;stroke-width:1.0;" x1="277.5" x2="277.5" y1="1522.4336" y2="1546.8359"/><polygon fill="#181818" points="273.5,1536.8359,277.5,1546.8359,281.5,1536.8359,277.5,1540.8359" style="stroke:#181818;stroke-width:1.0;"/><line style="stroke:#181818;stroke-width:1.0;" x1="312" x2="419" y1="1510.4336" y2="1510.4336"/><polygon fill="#181818" points="415,1553.8203,419,1563.8203,423,1553.8203,419,1557.8203" style="stroke:#181818;stroke-width:1.0;"/><line style="stroke:#181818;stroke-width:1.0;" x1="419" x2="419" y1="1510.4336" y2="1612.8047"/><line style="stroke:#181818;stroke-width:1.0;" x1="419" x2="289.5" y1="1612.8047" y2="1612.8047"/><polygon fill="#181818" points="299.5,1608.8047,289.5,1612.8047,299.5,1616.8047,295.5,1612.8047" style="stroke:#181818;stroke-width:1.0;"/><line style="stroke:#181818;stroke-width:1.0;" x1="277.5" x2="277.5" y1="1580.8047" y2="1600.8047"/><polygon fill="#181818" points="273.5,1590.8047,277.5,1600.8047,281.5,1590.8047,277.5,1594.8047" style="stroke:#181818;stroke-width:1.0;"/><line style="stroke:#181818;stroke-width:1.0;" x1="277.5" x2="277.5" y1="1478.4336" y2="1498.4336"/><polygon fill="#181818" points="273.5,1488.4336,277.5,1498.4336,281.5,1488.4336,277.5,1492.4336" style="stroke:#181818;stroke-width:1.0;"/><line style="stroke:#181818;stroke-width:1.0;" x1="277.5" x2="277.5" y1="1668.8047" y2="1693.207"/><polygon fill="#181818" points="273.5,1683.207,277.5,1693.207,281.5,1683.207,277.5,1687.207" style="stroke:#181818;stroke-width:1.0;"/><line style="stroke:#181818;stroke-width:1.0;" x1="320" x2="477" y1="1656.8047" y2="1656.8047"/><polygon fill="#181818" points="473,1707.1758,477,1717.1758,481,1707.1758,477,1711.1758" style="stroke:#181818;stroke-width:1.0;"/><line style="stroke:#181818;stroke-width:1.0;" x1="477" x2="477" y1="1656.8047" y2="1773.1445"/><line style="stroke:#181818;stroke-width:1.0;" x1="477" x2="289.5" y1="1773.1445" y2="1773.1445"/><polygon fill="#181818" points="299.5,1769.1445,289.5,1773.1445,299.5,1777.1445,295.5,1773.1445" style="stroke:#181818;stroke-width:1.0;"/><line style="stroke:#181818;stroke-width:1.0;" x1="277.5" x2="277.5" y1="1741.1445" y2="1761.1445"/><polygon fill="#181818" points="273.5,1751.1445,277.5,1761.1445,281.5,1751.1445,277.5,1755.1445" style="stroke:#181818;stroke-width:1.0;"/><line style="stroke:#181818;stroke-width:1.0;" x1="277.5" x2="277.5" y1="1624.8047" y2="1644.8047"/><polygon fill="#181818" points="273.5,1634.8047,277.5,1644.8047,281.5,1634.8047,277.5,1638.8047" style="stroke:#181818;stroke-width:1.0;"/><line style="stroke:#181818;stroke-width:1.0;" x1="277.5" x2="277.5" y1="1785.1445" y2="1805.1445"/><polygon fill="#181818" points="273.5,1795.1445,277.5,1805.1445,281.5,1795.1445,277.5,1799.1445" style="stroke:#181818;stroke-width:1.0;"/><line style="stroke:#181818;stroke-width:1.0;" x1="277.5" x2="277.5" y1="1857.7109" y2="1880.2773"/><polygon fill="#181818" points="273.5,1870.2773,277.5,1880.2773,281.5,1870.2773,277.5,1874.2773" style="stroke:#181818;stroke-width:1.0;"/><line style="stroke:#181818;stroke-width:1.0;" x1="277.5" x2="277.5" y1="1914.2461" y2="1934.2461"/><polygon fill="#181818" points="273.5,1924.2461,277.5,1934.2461,281.5,1924.2461,277.5,1928.2461" style="stroke:#181818;stroke-width:1.0;"/><line style="stroke:#181818;stroke-width:1.0;" x1="277.5" x2="277.5" y1="2018.8125" y2="2041.3789"/><polygon fill="#181818" points="273.5,2031.3789,277.5,2041.3789,281.5,2031.3789,277.5,2035.3789" style="stroke:#181818;stroke-width:1.0;"/><line style="stroke:#181818;stroke-width:1.0;" x1="277.5" x2="277.5" y1="2075.3477" y2="2095.3477"/><polygon fill="#181818" points="273.5,2085.3477,277.5,2095.3477,281.5,2085.3477,277.5,2089.3477" style="stroke:#181818;stroke-width:1.0;"/><!--MD5=[6f11c4c36797016e184668cfb665c113]
@startuml
!pragma layout smetana
start
note right
constructor ComponentRoseActiveLine(Style style,
boolean closeUp,boolean closeDown,HColorSet set)
end note
:super (style);;
:this.symbolContext=style.getSymbolContext(set);;
:this.closeUp=closeUp;;
:this.closeDown=closeDown;;
end
start
note right
void drawInternalU(UGraphic ug,Area area)
end note
:final XDimension2D dimensionToUse=area.getDimensionToUse();;
:final StringBounder stringBounder=ug.getStringBounder();;
:final int x=(int )(dimensionToUse.getWidth()-getPreferredWidth(stringBounder))/2;;
if (dimensionToUse.getHeight()==0) then (yes) 
:return ;;
stop
endif 
:final URectangle rect=new URectangle(getPreferredWidth(stringBounder),
dimensionToUse.getHeight());;
if (symbolContext.isShadowing()) then (yes) 
:rect.setDeltaShadow(1);;
endif 
:ug=ug.apply(symbolContext.getForeColor());;
if (closeUp&&closeDown) then (yes) 
:ug.apply(symbolContext.getBackColor().bg())
.apply(UTranslate.dx(x)).draw(rect);;
:return ;;
stop
endif 
:ug.apply(symbolContext.getBackColor().bg())
.apply(symbolContext.getBackColor()).apply(UTranslate.dx(x)).draw(rect);;
:final ULine vline=ULine.vline(dimensionToUse.getHeight());;
:ug.apply(UTranslate.dx(x)).draw(vline);;
:ug.apply(UTranslate.dx(x+getPreferredWidth(stringBounder)))
.draw(vline);;
:final ULine hline=ULine.hline(getPreferredWidth(stringBounder));;
if (closeUp) then (yes) 
:ug.apply(UTranslate.dx(x)).draw(hline);;
endif 
if (closeDown) then (yes) 
:ug.apply(new UTranslate(x,dimensionToUse.getHeight()))
.draw(hline);;
endif 
end
start
note right
double getPreferredHeight(StringBounder stringBounder)
end note
:return 0;;
stop
end
start
note right
double getPreferredWidth(StringBounder stringBounder)
end note
:return 10;;
stop
end
@enduml

PlantUML version 1.2022.7(Mon Aug 22 17:01:30 UTC 2022)
(GPL source distribution)
Java Runtime: OpenJDK Runtime Environment
JVM: OpenJDK 64-Bit Server VM
Default Encoding: UTF-8
Language: en
Country: null
--></g></svg>