<?xml version="1.0" encoding="UTF-8" standalone="no"?><svg xmlns="http://www.w3.org/2000/svg" xmlns:xlink="http://www.w3.org/1999/xlink" contentStyleType="text/css" height="218px" preserveAspectRatio="none" style="width:539px;height:218px;background:#FFFFFF;" version="1.1" viewBox="0 0 539 218" width="539px" zoomAndPan="magnify"><defs/><g><!--MD5=[6b3b7b83b96366c0b4dc8365725f94bd]
cluster net.sourceforge.plantuml.skin.rose--><g id="cluster_net.sourceforge.plantuml.skin.rose"><path d="M8.5,63 L288.5,63 A3.75,3.75 0 0 1 291,65.5 L298,85.2969 L529.5,85.2969 A2.5,2.5 0 0 1 532,87.7969 L532,208.5 A2.5,2.5 0 0 1 529.5,211 L8.5,211 A2.5,2.5 0 0 1 6,208.5 L6,65.5 A2.5,2.5 0 0 1 8.5,63 " fill="none" style="stroke:#000000;stroke-width:1.5;"/><line style="stroke:#000000;stroke-width:1.5;" x1="6" x2="298" y1="85.2969" y2="85.2969"/><text fill="#000000" font-family="sans-serif" font-size="14" font-weight="bold" lengthAdjust="spacing" textLength="279" x="10" y="77.9951">net.sourceforge.plantuml.skin.rose</text></g><!--MD5=[a76334f606a8d18f4699b51cb952b03c]
class AbstractComponent--><g id="elem_AbstractComponent"><rect fill="#F1F1F1" height="48" id="AbstractComponent" rx="2.5" ry="2.5" style="stroke:#181818;stroke-width:0.5;" width="171" x="183.5" y="6"/><ellipse cx="198.5" cy="22" fill="#ADD1B2" rx="11" ry="11" style="stroke:#181818;stroke-width:1.0;"/><path d="M201.4688,27.6406 Q200.8906,27.9375 200.25,28.0781 Q199.6094,28.2344 198.9063,28.2344 Q196.4063,28.2344 195.0781,26.5938 Q193.7656,24.9375 193.7656,21.8125 Q193.7656,18.6875 195.0781,17.0313 Q196.4063,15.375 198.9063,15.375 Q199.6094,15.375 200.25,15.5313 Q200.9063,15.6875 201.4688,15.9844 L201.4688,18.7031 Q200.8438,18.125 200.25,17.8594 Q199.6563,17.5781 199.0313,17.5781 Q197.6875,17.5781 197,18.6563 Q196.3125,19.7188 196.3125,21.8125 Q196.3125,23.9063 197,24.9844 Q197.6875,26.0469 199.0313,26.0469 Q199.6563,26.0469 200.25,25.7813 Q200.8438,25.5 201.4688,24.9219 L201.4688,27.6406 Z " fill="#000000"/><text fill="#000000" font-family="sans-serif" font-size="14" lengthAdjust="spacing" textLength="139" x="212.5" y="26.8467">AbstractComponent</text><line style="stroke:#181818;stroke-width:0.5;" x1="184.5" x2="353.5" y1="38" y2="38"/><line style="stroke:#181818;stroke-width:0.5;" x1="184.5" x2="353.5" y1="46" y2="46"/></g><!--MD5=[04b5b2f6fc7dfe8fbc19291e448c8f2c]
class net.sourceforge.plantuml.skin.rose.ComponentRoseLine--><g id="elem_net.sourceforge.plantuml.skin.rose.ComponentRoseLine"><rect codeLine="3" fill="#F1F1F1" height="113.1875" id="net.sourceforge.plantuml.skin.rose.ComponentRoseLine" rx="2.5" ry="2.5" style="stroke:#181818;stroke-width:0.5;" width="509" x="14.5" y="90"/><ellipse cx="191.75" cy="106" fill="#ADD1B2" rx="11" ry="11" style="stroke:#181818;stroke-width:1.0;"/><path d="M194.7188,111.6406 Q194.1406,111.9375 193.5,112.0781 Q192.8594,112.2344 192.1563,112.2344 Q189.6563,112.2344 188.3281,110.5938 Q187.0156,108.9375 187.0156,105.8125 Q187.0156,102.6875 188.3281,101.0313 Q189.6563,99.375 192.1563,99.375 Q192.8594,99.375 193.5,99.5313 Q194.1563,99.6875 194.7188,99.9844 L194.7188,102.7031 Q194.0938,102.125 193.5,101.8594 Q192.9063,101.5781 192.2813,101.5781 Q190.9375,101.5781 190.25,102.6563 Q189.5625,103.7188 189.5625,105.8125 Q189.5625,107.9063 190.25,108.9844 Q190.9375,110.0469 192.2813,110.0469 Q192.9063,110.0469 193.5,109.7813 Q194.0938,109.5 194.7188,108.9219 L194.7188,111.6406 Z " fill="#000000"/><text fill="#000000" font-family="sans-serif" font-size="14" lengthAdjust="spacing" textLength="146" x="212.25" y="110.8467">ComponentRoseLine</text><line style="stroke:#181818;stroke-width:0.5;" x1="15.5" x2="522.5" y1="122" y2="122"/><line style="stroke:#181818;stroke-width:0.5;" x1="15.5" x2="522.5" y1="130" y2="130"/><a href="./../../../../../../.././qc/src/net/sourceforge/plantuml/skin/rose/ComponentRoseLine.java.html#57" target="_top" title="./../../../../../../.././qc/src/net/sourceforge/plantuml/skin/rose/ComponentRoseLine.java.html#57" xlink:actuate="onRequest" xlink:href="./../../../../../../.././qc/src/net/sourceforge/plantuml/skin/rose/ComponentRoseLine.java.html#57" xlink:show="new" xlink:title="./../../../../../../.././qc/src/net/sourceforge/plantuml/skin/rose/ComponentRoseLine.java.html#57" xlink:type="simple"><rect fill="#F1F1F1" height="10" style="stroke:none;stroke-width:1.0;" width="20" x="20.5" y="138.6484"/><ellipse cx="25.5" cy="143.6484" fill="#84BE84" rx="3" ry="3" style="stroke:#038048;stroke-width:1.0;"/></a><a href="./../../../../../../.././qc/src/net/sourceforge/plantuml/skin/rose/ComponentRoseLine.java.html#57" target="_top" title="./../../../../../../.././qc/src/net/sourceforge/plantuml/skin/rose/ComponentRoseLine.java.html#57" xlink:actuate="onRequest" xlink:href="./../../../../../../.././qc/src/net/sourceforge/plantuml/skin/rose/ComponentRoseLine.java.html#57" xlink:show="new" xlink:title="./../../../../../../.././qc/src/net/sourceforge/plantuml/skin/rose/ComponentRoseLine.java.html#57" xlink:type="simple"><text fill="#000000" font-family="sans-serif" font-size="14" lengthAdjust="spacing" textLength="483" x="34.5" y="146.9951">ComponentRoseLine(Style;boolean;HColorSet) : ComponentRoseLine</text></a><a href="./../../../../../../.././qc/src/net/sourceforge/plantuml/skin/rose/ComponentRoseLine.java.html#65" target="_top" title="./../../../../../../.././qc/src/net/sourceforge/plantuml/skin/rose/ComponentRoseLine.java.html#65" xlink:actuate="onRequest" xlink:href="./../../../../../../.././qc/src/net/sourceforge/plantuml/skin/rose/ComponentRoseLine.java.html#65" xlink:show="new" xlink:title="./../../../../../../.././qc/src/net/sourceforge/plantuml/skin/rose/ComponentRoseLine.java.html#65" xlink:type="simple"><text fill="#000000" font-family="sans-serif" font-size="14" lengthAdjust="spacing" textLength="244" x="34.5" y="163.292">drawInternalU(UGraphic;Area) : void</text></a><a href="./../../../../../../.././qc/src/net/sourceforge/plantuml/skin/rose/ComponentRoseLine.java.html#77" target="_top" title="./../../../../../../.././qc/src/net/sourceforge/plantuml/skin/rose/ComponentRoseLine.java.html#77" xlink:actuate="onRequest" xlink:href="./../../../../../../.././qc/src/net/sourceforge/plantuml/skin/rose/ComponentRoseLine.java.html#77" xlink:show="new" xlink:title="./../../../../../../.././qc/src/net/sourceforge/plantuml/skin/rose/ComponentRoseLine.java.html#77" xlink:type="simple"><rect fill="#F1F1F1" height="10" style="stroke:none;stroke-width:1.0;" width="20" x="20.5" y="171.2422"/><ellipse cx="25.5" cy="176.2422" fill="#84BE84" rx="3" ry="3" style="stroke:#038048;stroke-width:1.0;"/></a><a href="./../../../../../../.././qc/src/net/sourceforge/plantuml/skin/rose/ComponentRoseLine.java.html#77" target="_top" title="./../../../../../../.././qc/src/net/sourceforge/plantuml/skin/rose/ComponentRoseLine.java.html#77" xlink:actuate="onRequest" xlink:href="./../../../../../../.././qc/src/net/sourceforge/plantuml/skin/rose/ComponentRoseLine.java.html#77" xlink:show="new" xlink:title="./../../../../../../.././qc/src/net/sourceforge/plantuml/skin/rose/ComponentRoseLine.java.html#77" xlink:type="simple"><text fill="#000000" font-family="sans-serif" font-size="14" lengthAdjust="spacing" textLength="303" x="34.5" y="179.5889">getPreferredHeight(StringBounder) : double</text></a><a href="./../../../../../../.././qc/src/net/sourceforge/plantuml/skin/rose/ComponentRoseLine.java.html#82" target="_top" title="./../../../../../../.././qc/src/net/sourceforge/plantuml/skin/rose/ComponentRoseLine.java.html#82" xlink:actuate="onRequest" xlink:href="./../../../../../../.././qc/src/net/sourceforge/plantuml/skin/rose/ComponentRoseLine.java.html#82" xlink:show="new" xlink:title="./../../../../../../.././qc/src/net/sourceforge/plantuml/skin/rose/ComponentRoseLine.java.html#82" xlink:type="simple"><rect fill="#F1F1F1" height="10" style="stroke:none;stroke-width:1.0;" width="20" x="20.5" y="187.5391"/><ellipse cx="25.5" cy="192.5391" fill="#84BE84" rx="3" ry="3" style="stroke:#038048;stroke-width:1.0;"/></a><a href="./../../../../../../.././qc/src/net/sourceforge/plantuml/skin/rose/ComponentRoseLine.java.html#82" target="_top" title="./../../../../../../.././qc/src/net/sourceforge/plantuml/skin/rose/ComponentRoseLine.java.html#82" xlink:actuate="onRequest" xlink:href="./../../../../../../.././qc/src/net/sourceforge/plantuml/skin/rose/ComponentRoseLine.java.html#82" xlink:show="new" xlink:title="./../../../../../../.././qc/src/net/sourceforge/plantuml/skin/rose/ComponentRoseLine.java.html#82" xlink:type="simple"><text fill="#000000" font-family="sans-serif" font-size="14" lengthAdjust="spacing" textLength="297" x="34.5" y="195.8857">getPreferredWidth(StringBounder) : double</text></a></g><path d="M269,54.1708 C269,64.4955 269,77.1452 269,89.7017 " fill="none" style="stroke:#181818;stroke-width:1.0;"/><polygon fill="#FFFFFF" points="269,54.1708,263,70.1708,275,70.1708,269,54.1708" style="stroke:#181818;stroke-width:1.0;"/><!--MD5=[282c457e608152a58b01c28bc807f031]
@startuml
!pragma layout smetana
"AbstractComponent" <|- - "net.sourceforge.plantuml.skin.rose.ComponentRoseLine"
class net.sourceforge.plantuml.skin.rose.ComponentRoseLine {
+ComponentRoseLine(Style;boolean;HColorSet) : ComponentRoseLine [[[./../../../../../../.././qc/src/net/sourceforge/plantuml/skin/rose/ComponentRoseLine.java.html#57]]]
drawInternalU(UGraphic;Area) : void [[[./../../../../../../.././qc/src/net/sourceforge/plantuml/skin/rose/ComponentRoseLine.java.html#65]]]
+getPreferredHeight(StringBounder) : double [[[./../../../../../../.././qc/src/net/sourceforge/plantuml/skin/rose/ComponentRoseLine.java.html#77]]]
+getPreferredWidth(StringBounder) : double [[[./../../../../../../.././qc/src/net/sourceforge/plantuml/skin/rose/ComponentRoseLine.java.html#82]]]
} 
@enduml

PlantUML version 1.2022.7(Mon Aug 22 17:01:30 UTC 2022)
(GPL source distribution)
Java Runtime: OpenJDK Runtime Environment
JVM: OpenJDK 64-Bit Server VM
Default Encoding: UTF-8
Language: en
Country: null
--></g></svg>