<?xml version="1.0" encoding="UTF-8" standalone="no"?><svg xmlns="http://www.w3.org/2000/svg" xmlns:xlink="http://www.w3.org/1999/xlink" contentStyleType="text/css" height="203px" preserveAspectRatio="none" style="width:285px;height:203px;background:#FFFFFF;" version="1.1" viewBox="0 0 285 203" width="285px" zoomAndPan="magnify"><defs/><g><!--MD5=[aa8f7b917213fcc1c2766e2d59b49067]
cluster java.lang--><g id="cluster_java.lang"><path d="M97.5,6 L167.5,6 A3.75,3.75 0 0 1 170,8.5 L177,28.2969 L186.5,28.2969 A2.5,2.5 0 0 1 189,30.7969 L189,86.5 A2.5,2.5 0 0 1 186.5,89 L97.5,89 A2.5,2.5 0 0 1 95,86.5 L95,8.5 A2.5,2.5 0 0 1 97.5,6 " fill="none" style="stroke:#000000;stroke-width:1.5;"/><line style="stroke:#000000;stroke-width:1.5;" x1="95" x2="177" y1="28.2969" y2="28.2969"/><text fill="#000000" font-family="sans-serif" font-size="14" font-weight="bold" lengthAdjust="spacing" textLength="69" x="99" y="20.9951">java.lang</text></g><!--MD5=[122b336cb0d2d5a60f756dd84674a571]
cluster net.sourceforge.plantuml.creole--><g id="cluster_net.sourceforge.plantuml.creole"><path d="M8.5,97 L265.5,97 A3.75,3.75 0 0 1 268,99.5 L275,119.2969 L275.5,119.2969 A2.5,2.5 0 0 1 278,121.7969 L278,193.5 A2.5,2.5 0 0 1 275.5,196 L8.5,196 A2.5,2.5 0 0 1 6,193.5 L6,99.5 A2.5,2.5 0 0 1 8.5,97 " fill="none" style="stroke:#000000;stroke-width:1.5;"/><line style="stroke:#000000;stroke-width:1.5;" x1="6" x2="275" y1="119.2969" y2="119.2969"/><text fill="#000000" font-family="sans-serif" font-size="14" font-weight="bold" lengthAdjust="spacing" textLength="256" x="10" y="111.9951">net.sourceforge.plantuml.creole</text></g><!--MD5=[274ad5661286b626a93603d287cbf95a]
class java.lang.Object--><g id="elem_java.lang.Object"><rect fill="#F1F1F1" height="48" id="java.lang.Object" rx="2.5" ry="2.5" style="stroke:#181818;stroke-width:0.5;" width="77" x="103.5" y="33"/><ellipse cx="118.5" cy="49" fill="#ADD1B2" rx="11" ry="11" style="stroke:#181818;stroke-width:1.0;"/><path d="M121.4688,54.6406 Q120.8906,54.9375 120.25,55.0781 Q119.6094,55.2344 118.9063,55.2344 Q116.4063,55.2344 115.0781,53.5938 Q113.7656,51.9375 113.7656,48.8125 Q113.7656,45.6875 115.0781,44.0313 Q116.4063,42.375 118.9063,42.375 Q119.6094,42.375 120.25,42.5313 Q120.9063,42.6875 121.4688,42.9844 L121.4688,45.7031 Q120.8438,45.125 120.25,44.8594 Q119.6563,44.5781 119.0313,44.5781 Q117.6875,44.5781 117,45.6563 Q116.3125,46.7188 116.3125,48.8125 Q116.3125,50.9063 117,51.9844 Q117.6875,53.0469 119.0313,53.0469 Q119.6563,53.0469 120.25,52.7813 Q120.8438,52.5 121.4688,51.9219 L121.4688,54.6406 Z " fill="#000000"/><text fill="#000000" font-family="sans-serif" font-size="14" lengthAdjust="spacing" textLength="45" x="132.5" y="53.8467">Object</text><line style="stroke:#181818;stroke-width:0.5;" x1="104.5" x2="179.5" y1="65" y2="65"/><line style="stroke:#181818;stroke-width:0.5;" x1="104.5" x2="179.5" y1="73" y2="73"/></g><!--MD5=[d2f6d616bcadc321d22f831ac3d7f6f6]
class net.sourceforge.plantuml.creole.SheetBuilder--><g id="elem_net.sourceforge.plantuml.creole.SheetBuilder"><rect codeLine="3" fill="#F1F1F1" height="64.2969" id="net.sourceforge.plantuml.creole.SheetBuilder" rx="2.5" ry="2.5" style="stroke:#181818;stroke-width:0.5;" width="224" x="30" y="124"/><ellipse cx="93.25" cy="140" fill="#ADD1B2" rx="11" ry="11" style="stroke:#181818;stroke-width:1.0;"/><path d="M96.2188,145.6406 Q95.6406,145.9375 95,146.0781 Q94.3594,146.2344 93.6563,146.2344 Q91.1563,146.2344 89.8281,144.5938 Q88.5156,142.9375 88.5156,139.8125 Q88.5156,136.6875 89.8281,135.0313 Q91.1563,133.375 93.6563,133.375 Q94.3594,133.375 95,133.5313 Q95.6563,133.6875 96.2188,133.9844 L96.2188,136.7031 Q95.5938,136.125 95,135.8594 Q94.4063,135.5781 93.7813,135.5781 Q92.4375,135.5781 91.75,136.6563 Q91.0625,137.7188 91.0625,139.8125 Q91.0625,141.9063 91.75,142.9844 Q92.4375,144.0469 93.7813,144.0469 Q94.4063,144.0469 95,143.7813 Q95.5938,143.5 96.2188,142.9219 L96.2188,145.6406 Z " fill="#000000"/><text fill="#000000" font-family="sans-serif" font-size="14" lengthAdjust="spacing" textLength="89" x="113.75" y="144.8467">SheetBuilder</text><line style="stroke:#181818;stroke-width:0.5;" x1="31" x2="253" y1="156" y2="156"/><line style="stroke:#181818;stroke-width:0.5;" x1="31" x2="253" y1="164" y2="164"/><a href="./../../../../../.././qc/src/net/sourceforge/plantuml/creole/SheetBuilder.java.html#42" target="_top" title="./../../../../../.././qc/src/net/sourceforge/plantuml/creole/SheetBuilder.java.html#42" xlink:actuate="onRequest" xlink:href="./../../../../../.././qc/src/net/sourceforge/plantuml/creole/SheetBuilder.java.html#42" xlink:show="new" xlink:title="./../../../../../.././qc/src/net/sourceforge/plantuml/creole/SheetBuilder.java.html#42" xlink:type="simple"><rect fill="#F1F1F1" height="10" style="stroke:none;stroke-width:1.0;" width="20" x="36" y="172.6484"/><ellipse cx="41" cy="177.6484" fill="#84BE84" rx="3" ry="3" style="stroke:#038048;stroke-width:1.0;"/></a><a href="./../../../../../.././qc/src/net/sourceforge/plantuml/creole/SheetBuilder.java.html#42" target="_top" title="./../../../../../.././qc/src/net/sourceforge/plantuml/creole/SheetBuilder.java.html#42" xlink:actuate="onRequest" xlink:href="./../../../../../.././qc/src/net/sourceforge/plantuml/creole/SheetBuilder.java.html#42" xlink:show="new" xlink:title="./../../../../../.././qc/src/net/sourceforge/plantuml/creole/SheetBuilder.java.html#42" xlink:type="simple"><text fill="#000000" font-family="sans-serif" font-size="14" lengthAdjust="spacing" textLength="198" x="50" y="180.9951">createSheet(Display) : Sheet</text></a></g><path d="M142,81.481 C142,94.1526 142,109.962 142,123.6701 " fill="none" style="stroke:#181818;stroke-width:1.0;"/><polygon fill="#FFFFFF" points="142,81.481,136,97.481,148,97.481,142,81.481" style="stroke:#181818;stroke-width:1.0;"/><!--MD5=[c49a187345e050be673b374d3171390e]
@startuml
!pragma layout smetana
"java.lang.Object" <|- - "net.sourceforge.plantuml.creole.SheetBuilder"
class net.sourceforge.plantuml.creole.SheetBuilder {
+createSheet(Display) : Sheet [[[./../../../../../.././qc/src/net/sourceforge/plantuml/creole/SheetBuilder.java.html#42]]]
} 
@enduml

PlantUML version 1.2022.7(Mon Aug 22 17:01:30 UTC 2022)
(GPL source distribution)
Java Runtime: OpenJDK Runtime Environment
JVM: OpenJDK 64-Bit Server VM
Default Encoding: UTF-8
Language: en
Country: null
--></g></svg>