<?xml version="1.0" encoding="UTF-8" standalone="no"?><svg xmlns="http://www.w3.org/2000/svg" xmlns:xlink="http://www.w3.org/1999/xlink" contentStyleType="text/css" height="202px" preserveAspectRatio="none" style="width:483px;height:202px;background:#FFFFFF;" version="1.1" viewBox="0 0 483 202" width="483px" zoomAndPan="magnify"><defs/><g><!--MD5=[aca2700aa2b371e05d9fd0d10a38708c]
cluster net.sourceforge.plantuml.project.command--><g id="cluster_net.sourceforge.plantuml.project.command"><path d="M8.5,63 L352.5,63 A3.75,3.75 0 0 1 355,65.5 L362,85.2969 L473.5,85.2969 A2.5,2.5 0 0 1 476,87.7969 L476,192.5 A2.5,2.5 0 0 1 473.5,195 L8.5,195 A2.5,2.5 0 0 1 6,192.5 L6,65.5 A2.5,2.5 0 0 1 8.5,63 " fill="none" style="stroke:#000000;stroke-width:1.5;"/><line style="stroke:#000000;stroke-width:1.5;" x1="6" x2="362" y1="85.2969" y2="85.2969"/><text fill="#000000" font-family="sans-serif" font-size="14" font-weight="bold" lengthAdjust="spacing" textLength="343" x="10" y="77.9951">net.sourceforge.plantuml.project.command</text></g><!--MD5=[be3b47a9588bafe1451aeab4b883613e]
class CommandMultilines<GanttDiagram>--><g id="elem_CommandMultilines&lt;GanttDiagram&gt;"><rect fill="#F1F1F1" height="48" id="CommandMultilines&lt;GanttDiagram&gt;" rx="2.5" ry="2.5" style="stroke:#181818;stroke-width:0.5;" width="286" x="98" y="6"/><ellipse cx="113" cy="22" fill="#ADD1B2" rx="11" ry="11" style="stroke:#181818;stroke-width:1.0;"/><path d="M115.9688,27.6406 Q115.3906,27.9375 114.75,28.0781 Q114.1094,28.2344 113.4063,28.2344 Q110.9063,28.2344 109.5781,26.5938 Q108.2656,24.9375 108.2656,21.8125 Q108.2656,18.6875 109.5781,17.0313 Q110.9063,15.375 113.4063,15.375 Q114.1094,15.375 114.75,15.5313 Q115.4063,15.6875 115.9688,15.9844 L115.9688,18.7031 Q115.3438,18.125 114.75,17.8594 Q114.1563,17.5781 113.5313,17.5781 Q112.1875,17.5781 111.5,18.6563 Q110.8125,19.7188 110.8125,21.8125 Q110.8125,23.9063 111.5,24.9844 Q112.1875,26.0469 113.5313,26.0469 Q114.1563,26.0469 114.75,25.7813 Q115.3438,25.5 115.9688,24.9219 L115.9688,27.6406 Z " fill="#000000"/><text fill="#000000" font-family="sans-serif" font-size="14" lengthAdjust="spacing" textLength="254" x="127" y="26.8467">CommandMultilines&lt;GanttDiagram&gt;</text><line style="stroke:#181818;stroke-width:0.5;" x1="99" x2="383" y1="38" y2="38"/><line style="stroke:#181818;stroke-width:0.5;" x1="99" x2="383" y1="46" y2="46"/></g><!--MD5=[ec43c4726df1a3f4916a3186d6948d69]
class net.sourceforge.plantuml.project.command.CommandNoteBottom--><g id="elem_net.sourceforge.plantuml.project.command.CommandNoteBottom"><rect codeLine="3" fill="#F1F1F1" height="96.8906" id="net.sourceforge.plantuml.project.command.CommandNoteBottom" rx="2.5" ry="2.5" style="stroke:#181818;stroke-width:0.5;" width="454" x="14" y="90"/><ellipse cx="159.25" cy="106" fill="#ADD1B2" rx="11" ry="11" style="stroke:#181818;stroke-width:1.0;"/><path d="M162.2188,111.6406 Q161.6406,111.9375 161,112.0781 Q160.3594,112.2344 159.6563,112.2344 Q157.1563,112.2344 155.8281,110.5938 Q154.5156,108.9375 154.5156,105.8125 Q154.5156,102.6875 155.8281,101.0313 Q157.1563,99.375 159.6563,99.375 Q160.3594,99.375 161,99.5313 Q161.6563,99.6875 162.2188,99.9844 L162.2188,102.7031 Q161.5938,102.125 161,101.8594 Q160.4063,101.5781 159.7813,101.5781 Q158.4375,101.5781 157.75,102.6563 Q157.0625,103.7188 157.0625,105.8125 Q157.0625,107.9063 157.75,108.9844 Q158.4375,110.0469 159.7813,110.0469 Q160.4063,110.0469 161,109.7813 Q161.5938,109.5 162.2188,108.9219 L162.2188,111.6406 Z " fill="#000000"/><text fill="#000000" font-family="sans-serif" font-size="14" lengthAdjust="spacing" textLength="155" x="179.75" y="110.8467">CommandNoteBottom</text><line style="stroke:#181818;stroke-width:0.5;" x1="15" x2="467" y1="122" y2="122"/><line style="stroke:#181818;stroke-width:0.5;" x1="15" x2="467" y1="130" y2="130"/><a href="./../../../../../../.././qc/src/net/sourceforge/plantuml/project/command/CommandNoteBottom.java.html#47" target="_top" title="./../../../../../../.././qc/src/net/sourceforge/plantuml/project/command/CommandNoteBottom.java.html#47" xlink:actuate="onRequest" xlink:href="./../../../../../../.././qc/src/net/sourceforge/plantuml/project/command/CommandNoteBottom.java.html#47" xlink:show="new" xlink:title="./../../../../../../.././qc/src/net/sourceforge/plantuml/project/command/CommandNoteBottom.java.html#47" xlink:type="simple"><rect fill="#F1F1F1" height="10" style="stroke:none;stroke-width:1.0;" width="20" x="20" y="138.6484"/><ellipse cx="25" cy="143.6484" fill="#84BE84" rx="3" ry="3" style="stroke:#038048;stroke-width:1.0;"/></a><a href="./../../../../../../.././qc/src/net/sourceforge/plantuml/project/command/CommandNoteBottom.java.html#47" target="_top" title="./../../../../../../.././qc/src/net/sourceforge/plantuml/project/command/CommandNoteBottom.java.html#47" xlink:actuate="onRequest" xlink:href="./../../../../../../.././qc/src/net/sourceforge/plantuml/project/command/CommandNoteBottom.java.html#47" xlink:show="new" xlink:title="./../../../../../../.././qc/src/net/sourceforge/plantuml/project/command/CommandNoteBottom.java.html#47" xlink:type="simple"><text fill="#000000" font-family="sans-serif" font-size="14" lengthAdjust="spacing" textLength="333" x="34" y="146.9951">CommandNoteBottom() : CommandNoteBottom</text></a><a href="./../../../../../../.././qc/src/net/sourceforge/plantuml/project/command/CommandNoteBottom.java.html#52" target="_top" title="./../../../../../../.././qc/src/net/sourceforge/plantuml/project/command/CommandNoteBottom.java.html#52" xlink:actuate="onRequest" xlink:href="./../../../../../../.././qc/src/net/sourceforge/plantuml/project/command/CommandNoteBottom.java.html#52" xlink:show="new" xlink:title="./../../../../../../.././qc/src/net/sourceforge/plantuml/project/command/CommandNoteBottom.java.html#52" xlink:type="simple"><rect fill="#F1F1F1" height="10" style="stroke:none;stroke-width:1.0;" width="20" x="20" y="154.9453"/><ellipse cx="25" cy="159.9453" fill="#84BE84" rx="3" ry="3" style="stroke:#038048;stroke-width:1.0;"/></a><a href="./../../../../../../.././qc/src/net/sourceforge/plantuml/project/command/CommandNoteBottom.java.html#52" target="_top" title="./../../../../../../.././qc/src/net/sourceforge/plantuml/project/command/CommandNoteBottom.java.html#52" xlink:actuate="onRequest" xlink:href="./../../../../../../.././qc/src/net/sourceforge/plantuml/project/command/CommandNoteBottom.java.html#52" xlink:show="new" xlink:title="./../../../../../../.././qc/src/net/sourceforge/plantuml/project/command/CommandNoteBottom.java.html#52" xlink:type="simple"><text fill="#000000" font-family="sans-serif" font-size="14" lengthAdjust="spacing" textLength="163" x="34" y="163.292">getPatternEnd() : String</text></a><a href="./../../../../../../.././qc/src/net/sourceforge/plantuml/project/command/CommandNoteBottom.java.html#56" target="_top" title="./../../../../../../.././qc/src/net/sourceforge/plantuml/project/command/CommandNoteBottom.java.html#56" xlink:actuate="onRequest" xlink:href="./../../../../../../.././qc/src/net/sourceforge/plantuml/project/command/CommandNoteBottom.java.html#56" xlink:show="new" xlink:title="./../../../../../../.././qc/src/net/sourceforge/plantuml/project/command/CommandNoteBottom.java.html#56" xlink:type="simple"><rect fill="#F1F1F1" height="10" style="stroke:none;stroke-width:1.0;" width="20" x="20" y="171.2422"/><ellipse cx="25" cy="176.2422" fill="#84BE84" rx="3" ry="3" style="stroke:#038048;stroke-width:1.0;"/></a><a href="./../../../../../../.././qc/src/net/sourceforge/plantuml/project/command/CommandNoteBottom.java.html#56" target="_top" title="./../../../../../../.././qc/src/net/sourceforge/plantuml/project/command/CommandNoteBottom.java.html#56" xlink:actuate="onRequest" xlink:href="./../../../../../../.././qc/src/net/sourceforge/plantuml/project/command/CommandNoteBottom.java.html#56" xlink:show="new" xlink:title="./../../../../../../.././qc/src/net/sourceforge/plantuml/project/command/CommandNoteBottom.java.html#56" xlink:type="simple"><text fill="#000000" font-family="sans-serif" font-size="14" lengthAdjust="spacing" textLength="428" x="34" y="179.5889">execute(GanttDiagram;BlocLines) : CommandExecutionResult</text></a></g><path d="M241,54.1089 C241,64.6313 241,77.495 241,89.9394 " fill="none" style="stroke:#181818;stroke-width:1.0;"/><polygon fill="#FFFFFF" points="241,54.1089,235,70.1089,247,70.1089,241,54.1089" style="stroke:#181818;stroke-width:1.0;"/><!--MD5=[5ab3fd849981562c2ed8f9e03b8533bf]
@startuml
!pragma layout smetana
"CommandMultilines<GanttDiagram>" <|- - "net.sourceforge.plantuml.project.command.CommandNoteBottom"
class net.sourceforge.plantuml.project.command.CommandNoteBottom {
+CommandNoteBottom() : CommandNoteBottom [[[./../../../../../../.././qc/src/net/sourceforge/plantuml/project/command/CommandNoteBottom.java.html#47]]]
+getPatternEnd() : String [[[./../../../../../../.././qc/src/net/sourceforge/plantuml/project/command/CommandNoteBottom.java.html#52]]]
+execute(GanttDiagram;BlocLines) : CommandExecutionResult [[[./../../../../../../.././qc/src/net/sourceforge/plantuml/project/command/CommandNoteBottom.java.html#56]]]
} 
@enduml

PlantUML version 1.2022.7(Mon Aug 22 17:01:30 UTC 2022)
(GPL source distribution)
Java Runtime: OpenJDK Runtime Environment
JVM: OpenJDK 64-Bit Server VM
Default Encoding: UTF-8
Language: en
Country: null
--></g></svg>