<?xml version="1.0" encoding="UTF-8" standalone="no"?><svg xmlns="http://www.w3.org/2000/svg" xmlns:xlink="http://www.w3.org/1999/xlink" contentStyleType="text/css" height="202px" preserveAspectRatio="none" style="width:619px;height:202px;background:#FFFFFF;" version="1.1" viewBox="0 0 619 202" width="619px" zoomAndPan="magnify"><defs/><g><!--MD5=[aca2700aa2b371e05d9fd0d10a38708c]
cluster net.sourceforge.plantuml.project.command--><g id="cluster_net.sourceforge.plantuml.project.command"><path d="M8.5,63 L352.5,63 A3.75,3.75 0 0 1 355,65.5 L362,85.2969 L609.5,85.2969 A2.5,2.5 0 0 1 612,87.7969 L612,192.5 A2.5,2.5 0 0 1 609.5,195 L8.5,195 A2.5,2.5 0 0 1 6,192.5 L6,65.5 A2.5,2.5 0 0 1 8.5,63 " fill="none" style="stroke:#000000;stroke-width:1.5;"/><line style="stroke:#000000;stroke-width:1.5;" x1="6" x2="362" y1="85.2969" y2="85.2969"/><text fill="#000000" font-family="sans-serif" font-size="14" font-weight="bold" lengthAdjust="spacing" textLength="343" x="10" y="77.9951">net.sourceforge.plantuml.project.command</text></g><!--MD5=[cfa7ae3ea33f526c3f77300e9564e968]
class SingleLineCommand2<GanttDiagram>--><g id="elem_SingleLineCommand2&lt;GanttDiagram&gt;"><rect fill="#F1F1F1" height="48" id="SingleLineCommand2&lt;GanttDiagram&gt;" rx="2.5" ry="2.5" style="stroke:#181818;stroke-width:0.5;" width="301" x="158.5" y="6"/><ellipse cx="173.5" cy="22" fill="#ADD1B2" rx="11" ry="11" style="stroke:#181818;stroke-width:1.0;"/><path d="M176.4688,27.6406 Q175.8906,27.9375 175.25,28.0781 Q174.6094,28.2344 173.9063,28.2344 Q171.4063,28.2344 170.0781,26.5938 Q168.7656,24.9375 168.7656,21.8125 Q168.7656,18.6875 170.0781,17.0313 Q171.4063,15.375 173.9063,15.375 Q174.6094,15.375 175.25,15.5313 Q175.9063,15.6875 176.4688,15.9844 L176.4688,18.7031 Q175.8438,18.125 175.25,17.8594 Q174.6563,17.5781 174.0313,17.5781 Q172.6875,17.5781 172,18.6563 Q171.3125,19.7188 171.3125,21.8125 Q171.3125,23.9063 172,24.9844 Q172.6875,26.0469 174.0313,26.0469 Q174.6563,26.0469 175.25,25.7813 Q175.8438,25.5 176.4688,24.9219 L176.4688,27.6406 Z " fill="#000000"/><text fill="#000000" font-family="sans-serif" font-size="14" lengthAdjust="spacing" textLength="269" x="187.5" y="26.8467">SingleLineCommand2&lt;GanttDiagram&gt;</text><line style="stroke:#181818;stroke-width:0.5;" x1="159.5" x2="458.5" y1="38" y2="38"/><line style="stroke:#181818;stroke-width:0.5;" x1="159.5" x2="458.5" y1="46" y2="46"/></g><!--MD5=[abed45044a3103d3b3e57fe4bf328f4a]
class net.sourceforge.plantuml.project.command.CommandSeparator--><g id="elem_net.sourceforge.plantuml.project.command.CommandSeparator"><rect codeLine="3" fill="#F1F1F1" height="96.8906" id="net.sourceforge.plantuml.project.command.CommandSeparator" rx="2.5" ry="2.5" style="stroke:#181818;stroke-width:0.5;" width="590" x="14" y="90"/><ellipse cx="235.75" cy="106" fill="#ADD1B2" rx="11" ry="11" style="stroke:#181818;stroke-width:1.0;"/><path d="M238.7188,111.6406 Q238.1406,111.9375 237.5,112.0781 Q236.8594,112.2344 236.1563,112.2344 Q233.6563,112.2344 232.3281,110.5938 Q231.0156,108.9375 231.0156,105.8125 Q231.0156,102.6875 232.3281,101.0313 Q233.6563,99.375 236.1563,99.375 Q236.8594,99.375 237.5,99.5313 Q238.1563,99.6875 238.7188,99.9844 L238.7188,102.7031 Q238.0938,102.125 237.5,101.8594 Q236.9063,101.5781 236.2813,101.5781 Q234.9375,101.5781 234.25,102.6563 Q233.5625,103.7188 233.5625,105.8125 Q233.5625,107.9063 234.25,108.9844 Q234.9375,110.0469 236.2813,110.0469 Q236.9063,110.0469 237.5,109.7813 Q238.0938,109.5 238.7188,108.9219 L238.7188,111.6406 Z " fill="#000000"/><text fill="#000000" font-family="sans-serif" font-size="14" lengthAdjust="spacing" textLength="138" x="256.25" y="110.8467">CommandSeparator</text><line style="stroke:#181818;stroke-width:0.5;" x1="15" x2="603" y1="122" y2="122"/><line style="stroke:#181818;stroke-width:0.5;" x1="15" x2="603" y1="130" y2="130"/><a href="./../../../../../../.././qc/src/net/sourceforge/plantuml/project/command/CommandSeparator.java.html#49" target="_top" title="./../../../../../../.././qc/src/net/sourceforge/plantuml/project/command/CommandSeparator.java.html#49" xlink:actuate="onRequest" xlink:href="./../../../../../../.././qc/src/net/sourceforge/plantuml/project/command/CommandSeparator.java.html#49" xlink:show="new" xlink:title="./../../../../../../.././qc/src/net/sourceforge/plantuml/project/command/CommandSeparator.java.html#49" xlink:type="simple"><rect fill="#F1F1F1" height="10" style="stroke:none;stroke-width:1.0;" width="20" x="20" y="138.6484"/><ellipse cx="25" cy="143.6484" fill="#84BE84" rx="3" ry="3" style="stroke:#038048;stroke-width:1.0;"/></a><a href="./../../../../../../.././qc/src/net/sourceforge/plantuml/project/command/CommandSeparator.java.html#49" target="_top" title="./../../../../../../.././qc/src/net/sourceforge/plantuml/project/command/CommandSeparator.java.html#49" xlink:actuate="onRequest" xlink:href="./../../../../../../.././qc/src/net/sourceforge/plantuml/project/command/CommandSeparator.java.html#49" xlink:show="new" xlink:title="./../../../../../../.././qc/src/net/sourceforge/plantuml/project/command/CommandSeparator.java.html#49" xlink:type="simple"><text fill="#000000" font-family="sans-serif" font-size="14" lengthAdjust="spacing" textLength="299" x="34" y="146.9951">CommandSeparator() : CommandSeparator</text></a><a href="./../../../../../../.././qc/src/net/sourceforge/plantuml/project/command/CommandSeparator.java.html#53" target="_top" title="./../../../../../../.././qc/src/net/sourceforge/plantuml/project/command/CommandSeparator.java.html#53" xlink:actuate="onRequest" xlink:href="./../../../../../../.././qc/src/net/sourceforge/plantuml/project/command/CommandSeparator.java.html#53" xlink:show="new" xlink:title="./../../../../../../.././qc/src/net/sourceforge/plantuml/project/command/CommandSeparator.java.html#53" xlink:type="simple"><text fill="#000000" font-family="sans-serif" font-size="14" lengthAdjust="spacing" textLength="186" x="34" y="163.292">getRegexConcat() : IRegex</text></a><a href="./../../../../../../.././qc/src/net/sourceforge/plantuml/project/command/CommandSeparator.java.html#61" target="_top" title="./../../../../../../.././qc/src/net/sourceforge/plantuml/project/command/CommandSeparator.java.html#61" xlink:actuate="onRequest" xlink:href="./../../../../../../.././qc/src/net/sourceforge/plantuml/project/command/CommandSeparator.java.html#61" xlink:show="new" xlink:title="./../../../../../../.././qc/src/net/sourceforge/plantuml/project/command/CommandSeparator.java.html#61" xlink:type="simple"><text fill="#000000" font-family="sans-serif" font-size="14" lengthAdjust="spacing" textLength="564" x="34" y="179.5889">executeArg(GanttDiagram;LineLocation;RegexResult) : CommandExecutionResult</text></a></g><path d="M309,54.1089 C309,64.6313 309,77.495 309,89.9394 " fill="none" style="stroke:#181818;stroke-width:1.0;"/><polygon fill="#FFFFFF" points="309,54.1089,303,70.1089,315,70.1089,309,54.1089" style="stroke:#181818;stroke-width:1.0;"/><!--MD5=[8da97a18f9a816e905c400d096b3a4c2]
@startuml
!pragma layout smetana
"SingleLineCommand2<GanttDiagram>" <|- - "net.sourceforge.plantuml.project.command.CommandSeparator"
class net.sourceforge.plantuml.project.command.CommandSeparator {
+CommandSeparator() : CommandSeparator [[[./../../../../../../.././qc/src/net/sourceforge/plantuml/project/command/CommandSeparator.java.html#49]]]
getRegexConcat() : IRegex [[[./../../../../../../.././qc/src/net/sourceforge/plantuml/project/command/CommandSeparator.java.html#53]]]
executeArg(GanttDiagram;LineLocation;RegexResult) : CommandExecutionResult [[[./../../../../../../.././qc/src/net/sourceforge/plantuml/project/command/CommandSeparator.java.html#61]]]
} 
@enduml

PlantUML version 1.2022.7(Mon Aug 22 17:01:30 UTC 2022)
(GPL source distribution)
Java Runtime: OpenJDK Runtime Environment
JVM: OpenJDK 64-Bit Server VM
Default Encoding: UTF-8
Language: en
Country: null
--></g></svg>