<?xml version="1.0" encoding="UTF-8" standalone="no"?><svg xmlns="http://www.w3.org/2000/svg" xmlns:xlink="http://www.w3.org/1999/xlink" contentStyleType="text/css" height="2575px" preserveAspectRatio="none" style="width:746px;height:2575px;background:#FFFFFF;" version="1.1" viewBox="0 0 746 2575" width="746px" zoomAndPan="magnify"><defs/><g><path d="M267,10 L267,18.5664 L247,22.5664 L267,26.5664 L267,35.1328 A0,0 0 0 0 267,35.1328 L734,35.1328 A0,0 0 0 0 734,35.1328 L734,20 L724,10 L267,10 A0,0 0 0 0 267,10 " fill="#FEFFDD" style="stroke:#181818;stroke-width:0.5;"/><path d="M724,10 L724,20 L734,20 L724,10 " fill="#FEFFDD" style="stroke:#181818;stroke-width:0.5;"/><text fill="#000000" font-family="sans-serif" font-size="13" lengthAdjust="spacing" textLength="446" x="273" y="27.0669">constructor AbstractPlacementStrategy(StringBounderstringBounder)</text><ellipse cx="237" cy="22.5664" fill="#222222" rx="10" ry="10" style="stroke:#222222;stroke-width:1.0;"/><rect fill="#F1F1F1" height="33.9688" rx="12.5" ry="12.5" style="stroke:#181818;stroke-width:0.5;" width="239" x="117.5" y="55.1328"/><text fill="#000000" font-family="sans-serif" font-size="12" lengthAdjust="spacing" textLength="219" x="127.5" y="76.2715">this.stringBounder=stringBounder;</text><ellipse cx="237" cy="119.1016" fill="none" rx="10" ry="10" style="stroke:#222222;stroke-width:1.5;"/><line style="stroke:#222222;stroke-width:2.5;" x1="230.8128" x2="243.1872" y1="112.9144" y2="125.2887"/><line style="stroke:#222222;stroke-width:2.5;" x1="243.1872" x2="230.8128" y1="112.9144" y2="125.2887"/><path d="M267,139.1016 L267,147.668 L247,151.668 L267,155.668 L267,164.2344 A0,0 0 0 0 267,164.2344 L446,164.2344 A0,0 0 0 0 446,164.2344 L446,149.1016 L436,139.1016 L267,139.1016 A0,0 0 0 0 267,139.1016 " fill="#FEFFDD" style="stroke:#181818;stroke-width:0.5;"/><path d="M436,139.1016 L436,149.1016 L446,149.1016 L436,139.1016 " fill="#FEFFDD" style="stroke:#181818;stroke-width:0.5;"/><text fill="#000000" font-family="sans-serif" font-size="13" lengthAdjust="spacing" textLength="158" x="273" y="156.1685">void add(TextBlockblock)</text><ellipse cx="237" cy="151.668" fill="#222222" rx="10" ry="10" style="stroke:#222222;stroke-width:1.0;"/><rect fill="#F1F1F1" height="33.9688" rx="12.5" ry="12.5" style="stroke:#181818;stroke-width:0.5;" width="452" x="11" y="184.2344"/><text fill="#000000" font-family="sans-serif" font-size="12" lengthAdjust="spacing" textLength="432" x="21" y="205.373">this.dimensions.put(block,block.calculateDimension(stringBounder));</text><ellipse cx="237" cy="248.2031" fill="none" rx="10" ry="10" style="stroke:#222222;stroke-width:1.5;"/><line style="stroke:#222222;stroke-width:2.5;" x1="230.8128" x2="243.1872" y1="242.0159" y2="254.3903"/><line style="stroke:#222222;stroke-width:2.5;" x1="243.1872" x2="230.8128" y1="242.0159" y2="254.3903"/><path d="M267,268.2031 L267,276.7695 L247,280.7695 L267,284.7695 L267,293.3359 A0,0 0 0 0 267,293.3359 L602,293.3359 A0,0 0 0 0 602,293.3359 L602,278.2031 L592,268.2031 L267,268.2031 A0,0 0 0 0 267,268.2031 " fill="#FEFFDD" style="stroke:#181818;stroke-width:0.5;"/><path d="M592,268.2031 L592,278.2031 L602,278.2031 L592,268.2031 " fill="#FEFFDD" style="stroke:#181818;stroke-width:0.5;"/><text fill="#000000" font-family="sans-serif" font-size="13" lengthAdjust="spacing" textLength="314" x="273" y="285.27">Map&lt;TextBlock,XDimension2D&gt;getDimensions()</text><ellipse cx="237" cy="280.7695" fill="#222222" rx="10" ry="10" style="stroke:#222222;stroke-width:1.0;"/><rect fill="#F1F1F1" height="33.9688" rx="12.5" ry="12.5" style="stroke:#181818;stroke-width:0.5;" width="138" x="168" y="313.3359"/><text fill="#000000" font-family="sans-serif" font-size="12" lengthAdjust="spacing" textLength="118" x="178" y="334.4746">return dimensions;</text><ellipse cx="237" cy="378.3047" fill="none" rx="11" ry="11" style="stroke:#222222;stroke-width:1.0;"/><ellipse cx="237" cy="378.3047" fill="#222222" rx="6" ry="6" style="stroke:#111111;stroke-width:1.0;"/><ellipse cx="237" cy="409.3047" fill="none" rx="10" ry="10" style="stroke:#222222;stroke-width:1.5;"/><line style="stroke:#222222;stroke-width:2.5;" x1="230.8128" x2="243.1872" y1="403.1175" y2="415.4919"/><line style="stroke:#222222;stroke-width:2.5;" x1="243.1872" x2="230.8128" y1="403.1175" y2="415.4919"/><path d="M267,429.3047 L267,437.8711 L247,441.8711 L267,445.8711 L267,454.4375 A0,0 0 0 0 267,454.4375 L427,454.4375 A0,0 0 0 0 427,454.4375 L427,439.3047 L417,429.3047 L267,429.3047 A0,0 0 0 0 267,429.3047 " fill="#FEFFDD" style="stroke:#181818;stroke-width:0.5;"/><path d="M417,429.3047 L417,439.3047 L427,439.3047 L417,429.3047 " fill="#FEFFDD" style="stroke:#181818;stroke-width:0.5;"/><text fill="#000000" font-family="sans-serif" font-size="13" lengthAdjust="spacing" textLength="139" x="273" y="446.3716">doublegetSumWidth()</text><ellipse cx="237" cy="441.8711" fill="#222222" rx="10" ry="10" style="stroke:#222222;stroke-width:1.0;"/><rect fill="#F1F1F1" height="33.9688" rx="12.5" ry="12.5" style="stroke:#181818;stroke-width:0.5;" width="346" x="64" y="474.4375"/><text fill="#000000" font-family="sans-serif" font-size="12" lengthAdjust="spacing" textLength="326" x="74" y="495.5762">return getSumWidth(dimensions.values().iterator());</text><ellipse cx="237" cy="539.4063" fill="none" rx="11" ry="11" style="stroke:#222222;stroke-width:1.0;"/><ellipse cx="237" cy="539.4063" fill="#222222" rx="6" ry="6" style="stroke:#111111;stroke-width:1.0;"/><ellipse cx="237" cy="570.4063" fill="none" rx="10" ry="10" style="stroke:#222222;stroke-width:1.5;"/><line style="stroke:#222222;stroke-width:2.5;" x1="230.8128" x2="243.1872" y1="564.2191" y2="576.5934"/><line style="stroke:#222222;stroke-width:2.5;" x1="243.1872" x2="230.8128" y1="564.2191" y2="576.5934"/><path d="M267,590.4063 L267,598.9727 L247,602.9727 L267,606.9727 L267,615.5391 A0,0 0 0 0 267,615.5391 L434,615.5391 A0,0 0 0 0 434,615.5391 L434,600.4063 L424,590.4063 L267,590.4063 A0,0 0 0 0 267,590.4063 " fill="#FEFFDD" style="stroke:#181818;stroke-width:0.5;"/><path d="M424,590.4063 L424,600.4063 L434,600.4063 L424,590.4063 " fill="#FEFFDD" style="stroke:#181818;stroke-width:0.5;"/><text fill="#000000" font-family="sans-serif" font-size="13" lengthAdjust="spacing" textLength="146" x="273" y="607.4731">doublegetSumHeight()</text><ellipse cx="237" cy="602.9727" fill="#222222" rx="10" ry="10" style="stroke:#222222;stroke-width:1.0;"/><rect fill="#F1F1F1" height="33.9688" rx="12.5" ry="12.5" style="stroke:#181818;stroke-width:0.5;" width="352" x="61" y="635.5391"/><text fill="#000000" font-family="sans-serif" font-size="12" lengthAdjust="spacing" textLength="332" x="71" y="656.6777">return getSumHeight(dimensions.values().iterator());</text><ellipse cx="237" cy="700.5078" fill="none" rx="11" ry="11" style="stroke:#222222;stroke-width:1.0;"/><ellipse cx="237" cy="700.5078" fill="#222222" rx="6" ry="6" style="stroke:#111111;stroke-width:1.0;"/><ellipse cx="237" cy="731.5078" fill="none" rx="10" ry="10" style="stroke:#222222;stroke-width:1.5;"/><line style="stroke:#222222;stroke-width:2.5;" x1="230.8128" x2="243.1872" y1="725.3206" y2="737.695"/><line style="stroke:#222222;stroke-width:2.5;" x1="243.1872" x2="230.8128" y1="725.3206" y2="737.695"/><path d="M267,751.5078 L267,760.0742 L247,764.0742 L267,768.0742 L267,776.6406 A0,0 0 0 0 267,776.6406 L430,776.6406 A0,0 0 0 0 430,776.6406 L430,761.5078 L420,751.5078 L267,751.5078 A0,0 0 0 0 267,751.5078 " fill="#FEFFDD" style="stroke:#181818;stroke-width:0.5;"/><path d="M420,751.5078 L420,761.5078 L430,761.5078 L420,751.5078 " fill="#FEFFDD" style="stroke:#181818;stroke-width:0.5;"/><text fill="#000000" font-family="sans-serif" font-size="13" lengthAdjust="spacing" textLength="142" x="273" y="768.5747">doublegetMaxHeight()</text><ellipse cx="237" cy="764.0742" fill="#222222" rx="10" ry="10" style="stroke:#222222;stroke-width:1.0;"/><rect fill="#F1F1F1" height="33.9688" rx="12.5" ry="12.5" style="stroke:#181818;stroke-width:0.5;" width="349" x="62.5" y="796.6406"/><text fill="#000000" font-family="sans-serif" font-size="12" lengthAdjust="spacing" textLength="329" x="72.5" y="817.7793">return getMaxHeight(dimensions.values().iterator());</text><ellipse cx="237" cy="861.6094" fill="none" rx="11" ry="11" style="stroke:#222222;stroke-width:1.0;"/><ellipse cx="237" cy="861.6094" fill="#222222" rx="6" ry="6" style="stroke:#111111;stroke-width:1.0;"/><ellipse cx="237" cy="892.6094" fill="none" rx="10" ry="10" style="stroke:#222222;stroke-width:1.5;"/><line style="stroke:#222222;stroke-width:2.5;" x1="230.8128" x2="243.1872" y1="886.4222" y2="898.7966"/><line style="stroke:#222222;stroke-width:2.5;" x1="243.1872" x2="230.8128" y1="886.4222" y2="898.7966"/><path d="M267,912.6094 L267,921.1758 L247,925.1758 L267,929.1758 L267,937.7422 A0,0 0 0 0 267,937.7422 L423,937.7422 A0,0 0 0 0 423,937.7422 L423,922.6094 L413,912.6094 L267,912.6094 A0,0 0 0 0 267,912.6094 " fill="#FEFFDD" style="stroke:#181818;stroke-width:0.5;"/><path d="M413,912.6094 L413,922.6094 L423,922.6094 L413,912.6094 " fill="#FEFFDD" style="stroke:#181818;stroke-width:0.5;"/><text fill="#000000" font-family="sans-serif" font-size="13" lengthAdjust="spacing" textLength="135" x="273" y="929.6763">doublegetMaxWidth()</text><ellipse cx="237" cy="925.1758" fill="#222222" rx="10" ry="10" style="stroke:#222222;stroke-width:1.0;"/><rect fill="#F1F1F1" height="33.9688" rx="12.5" ry="12.5" style="stroke:#181818;stroke-width:0.5;" width="343" x="65.5" y="957.7422"/><text fill="#000000" font-family="sans-serif" font-size="12" lengthAdjust="spacing" textLength="323" x="75.5" y="978.8809">return getMaxWidth(dimensions.values().iterator());</text><ellipse cx="237" cy="1022.7109" fill="none" rx="11" ry="11" style="stroke:#222222;stroke-width:1.0;"/><ellipse cx="237" cy="1022.7109" fill="#222222" rx="6" ry="6" style="stroke:#111111;stroke-width:1.0;"/><ellipse cx="237" cy="1053.7109" fill="none" rx="10" ry="10" style="stroke:#222222;stroke-width:1.5;"/><line style="stroke:#222222;stroke-width:2.5;" x1="230.8128" x2="243.1872" y1="1047.5238" y2="1059.8981"/><line style="stroke:#222222;stroke-width:2.5;" x1="243.1872" x2="230.8128" y1="1047.5238" y2="1059.8981"/><path d="M267,1073.7109 L267,1082.2773 L247,1086.2773 L267,1090.2773 L267,1098.8438 A0,0 0 0 0 267,1098.8438 L598,1098.8438 A0,0 0 0 0 598,1098.8438 L598,1083.7109 L588,1073.7109 L267,1073.7109 A0,0 0 0 0 267,1073.7109 " fill="#FEFFDD" style="stroke:#181818;stroke-width:0.5;"/><path d="M588,1073.7109 L588,1083.7109 L598,1083.7109 L588,1073.7109 " fill="#FEFFDD" style="stroke:#181818;stroke-width:0.5;"/><text fill="#000000" font-family="sans-serif" font-size="13" lengthAdjust="spacing" textLength="310" x="273" y="1090.7778">doublegetSumWidth(Iterator&lt;XDimension2D&gt;it)</text><ellipse cx="237" cy="1086.2773" fill="#222222" rx="10" ry="10" style="stroke:#222222;stroke-width:1.0;"/><rect fill="#F1F1F1" height="33.9688" rx="12.5" ry="12.5" style="stroke:#181818;stroke-width:0.5;" width="121" x="176.5" y="1118.8438"/><text fill="#000000" font-family="sans-serif" font-size="12" lengthAdjust="spacing" textLength="101" x="186.5" y="1139.9824">doubleresult=0;</text><rect fill="#F1F1F1" height="33.9688" rx="12.5" ry="12.5" style="stroke:#181818;stroke-width:0.5;" width="199" x="137.5" y="1216.8125"/><text fill="#000000" font-family="sans-serif" font-size="12" lengthAdjust="spacing" textLength="179" x="147.5" y="1237.9512">result+=it.next().getWidth();</text><polygon fill="#F1F1F1" points="204.5,1172.8125,269.5,1172.8125,281.5,1184.8125,269.5,1196.8125,204.5,1196.8125,192.5,1184.8125,204.5,1172.8125" style="stroke:#181818;stroke-width:0.5;"/><text fill="#000000" font-family="sans-serif" font-size="11" lengthAdjust="spacing" textLength="65" x="204.5" y="1188.6206">it.hasNext()</text><rect fill="#F1F1F1" height="33.9688" rx="12.5" ry="12.5" style="stroke:#181818;stroke-width:0.5;" width="103" x="185.5" y="1292.7813"/><text fill="#000000" font-family="sans-serif" font-size="12" lengthAdjust="spacing" textLength="83" x="195.5" y="1313.9199">return result;</text><ellipse cx="237" cy="1357.75" fill="none" rx="11" ry="11" style="stroke:#222222;stroke-width:1.0;"/><ellipse cx="237" cy="1357.75" fill="#222222" rx="6" ry="6" style="stroke:#111111;stroke-width:1.0;"/><ellipse cx="237" cy="1388.75" fill="none" rx="10" ry="10" style="stroke:#222222;stroke-width:1.5;"/><line style="stroke:#222222;stroke-width:2.5;" x1="230.8128" x2="243.1872" y1="1382.5628" y2="1394.9372"/><line style="stroke:#222222;stroke-width:2.5;" x1="243.1872" x2="230.8128" y1="1382.5628" y2="1394.9372"/><path d="M267,1408.75 L267,1417.3164 L247,1421.3164 L267,1425.3164 L267,1433.8828 A0,0 0 0 0 267,1433.8828 L605,1433.8828 A0,0 0 0 0 605,1433.8828 L605,1418.75 L595,1408.75 L267,1408.75 A0,0 0 0 0 267,1408.75 " fill="#FEFFDD" style="stroke:#181818;stroke-width:0.5;"/><path d="M595,1408.75 L595,1418.75 L605,1418.75 L595,1408.75 " fill="#FEFFDD" style="stroke:#181818;stroke-width:0.5;"/><text fill="#000000" font-family="sans-serif" font-size="13" lengthAdjust="spacing" textLength="317" x="273" y="1425.8169">doublegetSumHeight(Iterator&lt;XDimension2D&gt;it)</text><ellipse cx="237" cy="1421.3164" fill="#222222" rx="10" ry="10" style="stroke:#222222;stroke-width:1.0;"/><rect fill="#F1F1F1" height="33.9688" rx="12.5" ry="12.5" style="stroke:#181818;stroke-width:0.5;" width="121" x="176.5" y="1453.8828"/><text fill="#000000" font-family="sans-serif" font-size="12" lengthAdjust="spacing" textLength="101" x="186.5" y="1475.0215">doubleresult=0;</text><rect fill="#F1F1F1" height="33.9688" rx="12.5" ry="12.5" style="stroke:#181818;stroke-width:0.5;" width="205" x="134.5" y="1551.8516"/><text fill="#000000" font-family="sans-serif" font-size="12" lengthAdjust="spacing" textLength="185" x="144.5" y="1572.9902">result+=it.next().getHeight();</text><polygon fill="#F1F1F1" points="204.5,1507.8516,269.5,1507.8516,281.5,1519.8516,269.5,1531.8516,204.5,1531.8516,192.5,1519.8516,204.5,1507.8516" style="stroke:#181818;stroke-width:0.5;"/><text fill="#000000" font-family="sans-serif" font-size="11" lengthAdjust="spacing" textLength="65" x="204.5" y="1523.6597">it.hasNext()</text><rect fill="#F1F1F1" height="33.9688" rx="12.5" ry="12.5" style="stroke:#181818;stroke-width:0.5;" width="103" x="185.5" y="1627.8203"/><text fill="#000000" font-family="sans-serif" font-size="12" lengthAdjust="spacing" textLength="83" x="195.5" y="1648.959">return result;</text><ellipse cx="237" cy="1692.7891" fill="none" rx="11" ry="11" style="stroke:#222222;stroke-width:1.0;"/><ellipse cx="237" cy="1692.7891" fill="#222222" rx="6" ry="6" style="stroke:#111111;stroke-width:1.0;"/><ellipse cx="237" cy="1723.7891" fill="none" rx="10" ry="10" style="stroke:#222222;stroke-width:1.5;"/><line style="stroke:#222222;stroke-width:2.5;" x1="230.8128" x2="243.1872" y1="1717.6019" y2="1729.9762"/><line style="stroke:#222222;stroke-width:2.5;" x1="243.1872" x2="230.8128" y1="1717.6019" y2="1729.9762"/><path d="M267,1743.7891 L267,1752.3555 L247,1756.3555 L267,1760.3555 L267,1768.9219 A0,0 0 0 0 267,1768.9219 L594,1768.9219 A0,0 0 0 0 594,1768.9219 L594,1753.7891 L584,1743.7891 L267,1743.7891 A0,0 0 0 0 267,1743.7891 " fill="#FEFFDD" style="stroke:#181818;stroke-width:0.5;"/><path d="M584,1743.7891 L584,1753.7891 L594,1753.7891 L584,1743.7891 " fill="#FEFFDD" style="stroke:#181818;stroke-width:0.5;"/><text fill="#000000" font-family="sans-serif" font-size="13" lengthAdjust="spacing" textLength="306" x="273" y="1760.856">doublegetMaxWidth(Iterator&lt;XDimension2D&gt;it)</text><ellipse cx="237" cy="1756.3555" fill="#222222" rx="10" ry="10" style="stroke:#222222;stroke-width:1.0;"/><rect fill="#F1F1F1" height="33.9688" rx="12.5" ry="12.5" style="stroke:#181818;stroke-width:0.5;" width="121" x="176.5" y="1788.9219"/><text fill="#000000" font-family="sans-serif" font-size="12" lengthAdjust="spacing" textLength="101" x="186.5" y="1810.0605">doubleresult=0;</text><rect fill="#F1F1F1" height="33.9688" rx="12.5" ry="12.5" style="stroke:#181818;stroke-width:0.5;" width="299" x="87.5" y="1886.8906"/><text fill="#000000" font-family="sans-serif" font-size="12" lengthAdjust="spacing" textLength="279" x="97.5" y="1908.0293">result=Math.max(result,it.next().getWidth());</text><polygon fill="#F1F1F1" points="204.5,1842.8906,269.5,1842.8906,281.5,1854.8906,269.5,1866.8906,204.5,1866.8906,192.5,1854.8906,204.5,1842.8906" style="stroke:#181818;stroke-width:0.5;"/><text fill="#000000" font-family="sans-serif" font-size="11" lengthAdjust="spacing" textLength="65" x="204.5" y="1858.6987">it.hasNext()</text><rect fill="#F1F1F1" height="33.9688" rx="12.5" ry="12.5" style="stroke:#181818;stroke-width:0.5;" width="103" x="185.5" y="1962.8594"/><text fill="#000000" font-family="sans-serif" font-size="12" lengthAdjust="spacing" textLength="83" x="195.5" y="1983.998">return result;</text><ellipse cx="237" cy="2027.8281" fill="none" rx="11" ry="11" style="stroke:#222222;stroke-width:1.0;"/><ellipse cx="237" cy="2027.8281" fill="#222222" rx="6" ry="6" style="stroke:#111111;stroke-width:1.0;"/><ellipse cx="237" cy="2058.8281" fill="none" rx="10" ry="10" style="stroke:#222222;stroke-width:1.5;"/><line style="stroke:#222222;stroke-width:2.5;" x1="230.8128" x2="243.1872" y1="2052.6409" y2="2065.0153"/><line style="stroke:#222222;stroke-width:2.5;" x1="243.1872" x2="230.8128" y1="2052.6409" y2="2065.0153"/><path d="M267,2078.8281 L267,2087.3945 L247,2091.3945 L267,2095.3945 L267,2103.9609 A0,0 0 0 0 267,2103.9609 L601,2103.9609 A0,0 0 0 0 601,2103.9609 L601,2088.8281 L591,2078.8281 L267,2078.8281 A0,0 0 0 0 267,2078.8281 " fill="#FEFFDD" style="stroke:#181818;stroke-width:0.5;"/><path d="M591,2078.8281 L591,2088.8281 L601,2088.8281 L591,2078.8281 " fill="#FEFFDD" style="stroke:#181818;stroke-width:0.5;"/><text fill="#000000" font-family="sans-serif" font-size="13" lengthAdjust="spacing" textLength="313" x="273" y="2095.895">doublegetMaxHeight(Iterator&lt;XDimension2D&gt;it)</text><ellipse cx="237" cy="2091.3945" fill="#222222" rx="10" ry="10" style="stroke:#222222;stroke-width:1.0;"/><rect fill="#F1F1F1" height="33.9688" rx="12.5" ry="12.5" style="stroke:#181818;stroke-width:0.5;" width="121" x="176.5" y="2123.9609"/><text fill="#000000" font-family="sans-serif" font-size="12" lengthAdjust="spacing" textLength="101" x="186.5" y="2145.0996">doubleresult=0;</text><rect fill="#F1F1F1" height="33.9688" rx="12.5" ry="12.5" style="stroke:#181818;stroke-width:0.5;" width="305" x="84.5" y="2221.9297"/><text fill="#000000" font-family="sans-serif" font-size="12" lengthAdjust="spacing" textLength="285" x="94.5" y="2243.0684">result=Math.max(result,it.next().getHeight());</text><polygon fill="#F1F1F1" points="204.5,2177.9297,269.5,2177.9297,281.5,2189.9297,269.5,2201.9297,204.5,2201.9297,192.5,2189.9297,204.5,2177.9297" style="stroke:#181818;stroke-width:0.5;"/><text fill="#000000" font-family="sans-serif" font-size="11" lengthAdjust="spacing" textLength="65" x="204.5" y="2193.7378">it.hasNext()</text><rect fill="#F1F1F1" height="33.9688" rx="12.5" ry="12.5" style="stroke:#181818;stroke-width:0.5;" width="103" x="185.5" y="2297.8984"/><text fill="#000000" font-family="sans-serif" font-size="12" lengthAdjust="spacing" textLength="83" x="195.5" y="2319.0371">return result;</text><ellipse cx="237" cy="2362.8672" fill="none" rx="11" ry="11" style="stroke:#222222;stroke-width:1.0;"/><ellipse cx="237" cy="2362.8672" fill="#222222" rx="6" ry="6" style="stroke:#111111;stroke-width:1.0;"/><ellipse cx="237" cy="2393.8672" fill="none" rx="10" ry="10" style="stroke:#222222;stroke-width:1.5;"/><line style="stroke:#222222;stroke-width:2.5;" x1="230.8128" x2="243.1872" y1="2387.68" y2="2400.0544"/><line style="stroke:#222222;stroke-width:2.5;" x1="243.1872" x2="230.8128" y1="2387.68" y2="2400.0544"/><path d="M267,2413.8672 L267,2422.4336 L247,2426.4336 L267,2430.4336 L267,2439 A0,0 0 0 0 267,2439 L503,2439 A0,0 0 0 0 503,2439 L503,2423.8672 L493,2413.8672 L267,2413.8672 A0,0 0 0 0 267,2413.8672 " fill="#FEFFDD" style="stroke:#181818;stroke-width:0.5;"/><path d="M493,2413.8672 L493,2423.8672 L503,2423.8672 L493,2413.8672 " fill="#FEFFDD" style="stroke:#181818;stroke-width:0.5;"/><text fill="#000000" font-family="sans-serif" font-size="13" lengthAdjust="spacing" textLength="215" x="273" y="2430.9341">StringBoundergetStringBounder()</text><ellipse cx="237" cy="2426.4336" fill="#222222" rx="10" ry="10" style="stroke:#222222;stroke-width:1.0;"/><rect fill="#F1F1F1" height="33.9688" rx="12.5" ry="12.5" style="stroke:#181818;stroke-width:0.5;" width="156" x="159" y="2459"/><text fill="#000000" font-family="sans-serif" font-size="12" lengthAdjust="spacing" textLength="136" x="169" y="2480.1387">return stringBounder;</text><ellipse cx="237" cy="2523.9688" fill="none" rx="11" ry="11" style="stroke:#222222;stroke-width:1.0;"/><ellipse cx="237" cy="2523.9688" fill="#222222" rx="6" ry="6" style="stroke:#111111;stroke-width:1.0;"/><ellipse cx="237" cy="2554.9688" fill="none" rx="10" ry="10" style="stroke:#222222;stroke-width:1.5;"/><line style="stroke:#222222;stroke-width:2.5;" x1="230.8128" x2="243.1872" y1="2548.7816" y2="2561.1559"/><line style="stroke:#222222;stroke-width:2.5;" x1="243.1872" x2="230.8128" y1="2548.7816" y2="2561.1559"/><line style="stroke:#181818;stroke-width:1.0;" x1="237" x2="237" y1="32.5664" y2="55.1328"/><polygon fill="#181818" points="233,45.1328,237,55.1328,241,45.1328,237,49.1328" style="stroke:#181818;stroke-width:1.0;"/><line style="stroke:#181818;stroke-width:1.0;" x1="237" x2="237" y1="89.1016" y2="109.1016"/><polygon fill="#181818" points="233,99.1016,237,109.1016,241,99.1016,237,103.1016" style="stroke:#181818;stroke-width:1.0;"/><line style="stroke:#181818;stroke-width:1.0;" x1="237" x2="237" y1="161.668" y2="184.2344"/><polygon fill="#181818" points="233,174.2344,237,184.2344,241,174.2344,237,178.2344" style="stroke:#181818;stroke-width:1.0;"/><line style="stroke:#181818;stroke-width:1.0;" x1="237" x2="237" y1="218.2031" y2="238.2031"/><polygon fill="#181818" points="233,228.2031,237,238.2031,241,228.2031,237,232.2031" style="stroke:#181818;stroke-width:1.0;"/><line style="stroke:#181818;stroke-width:1.0;" x1="237" x2="237" y1="290.7695" y2="313.3359"/><polygon fill="#181818" points="233,303.3359,237,313.3359,241,303.3359,237,307.3359" style="stroke:#181818;stroke-width:1.0;"/><line style="stroke:#181818;stroke-width:1.0;" x1="237" x2="237" y1="347.3047" y2="367.3047"/><polygon fill="#181818" points="233,357.3047,237,367.3047,241,357.3047,237,361.3047" style="stroke:#181818;stroke-width:1.0;"/><line style="stroke:#181818;stroke-width:1.0;" x1="237" x2="237" y1="451.8711" y2="474.4375"/><polygon fill="#181818" points="233,464.4375,237,474.4375,241,464.4375,237,468.4375" style="stroke:#181818;stroke-width:1.0;"/><line style="stroke:#181818;stroke-width:1.0;" x1="237" x2="237" y1="508.4063" y2="528.4063"/><polygon fill="#181818" points="233,518.4063,237,528.4063,241,518.4063,237,522.4063" style="stroke:#181818;stroke-width:1.0;"/><line style="stroke:#181818;stroke-width:1.0;" x1="237" x2="237" y1="612.9727" y2="635.5391"/><polygon fill="#181818" points="233,625.5391,237,635.5391,241,625.5391,237,629.5391" style="stroke:#181818;stroke-width:1.0;"/><line style="stroke:#181818;stroke-width:1.0;" x1="237" x2="237" y1="669.5078" y2="689.5078"/><polygon fill="#181818" points="233,679.5078,237,689.5078,241,679.5078,237,683.5078" style="stroke:#181818;stroke-width:1.0;"/><line style="stroke:#181818;stroke-width:1.0;" x1="237" x2="237" y1="774.0742" y2="796.6406"/><polygon fill="#181818" points="233,786.6406,237,796.6406,241,786.6406,237,790.6406" style="stroke:#181818;stroke-width:1.0;"/><line style="stroke:#181818;stroke-width:1.0;" x1="237" x2="237" y1="830.6094" y2="850.6094"/><polygon fill="#181818" points="233,840.6094,237,850.6094,241,840.6094,237,844.6094" style="stroke:#181818;stroke-width:1.0;"/><line style="stroke:#181818;stroke-width:1.0;" x1="237" x2="237" y1="935.1758" y2="957.7422"/><polygon fill="#181818" points="233,947.7422,237,957.7422,241,947.7422,237,951.7422" style="stroke:#181818;stroke-width:1.0;"/><line style="stroke:#181818;stroke-width:1.0;" x1="237" x2="237" y1="991.7109" y2="1011.7109"/><polygon fill="#181818" points="233,1001.7109,237,1011.7109,241,1001.7109,237,1005.7109" style="stroke:#181818;stroke-width:1.0;"/><line style="stroke:#181818;stroke-width:1.0;" x1="237" x2="237" y1="1096.2773" y2="1118.8438"/><polygon fill="#181818" points="233,1108.8438,237,1118.8438,241,1108.8438,237,1112.8438" style="stroke:#181818;stroke-width:1.0;"/><line style="stroke:#181818;stroke-width:1.0;" x1="237" x2="237" y1="1196.8125" y2="1216.8125"/><polygon fill="#181818" points="233,1206.8125,237,1216.8125,241,1206.8125,237,1210.8125" style="stroke:#181818;stroke-width:1.0;"/><line style="stroke:#181818;stroke-width:1.0;" x1="237" x2="237" y1="1250.7813" y2="1260.7813"/><line style="stroke:#181818;stroke-width:1.0;" x1="237" x2="348.5" y1="1260.7813" y2="1260.7813"/><polygon fill="#181818" points="344.5,1231.7969,348.5,1221.7969,352.5,1231.7969,348.5,1227.7969" style="stroke:#181818;stroke-width:1.0;"/><line style="stroke:#181818;stroke-width:1.0;" x1="348.5" x2="348.5" y1="1184.8125" y2="1260.7813"/><line style="stroke:#181818;stroke-width:1.0;" x1="348.5" x2="281.5" y1="1184.8125" y2="1184.8125"/><polygon fill="#181818" points="291.5,1180.8125,281.5,1184.8125,291.5,1188.8125,287.5,1184.8125" style="stroke:#181818;stroke-width:1.0;"/><line style="stroke:#181818;stroke-width:1.0;" x1="192.5" x2="125.5" y1="1184.8125" y2="1184.8125"/><polygon fill="#181818" points="121.5,1217.7969,125.5,1227.7969,129.5,1217.7969,125.5,1221.7969" style="stroke:#181818;stroke-width:1.0;"/><line style="stroke:#181818;stroke-width:1.0;" x1="125.5" x2="125.5" y1="1184.8125" y2="1272.7813"/><line style="stroke:#181818;stroke-width:1.0;" x1="125.5" x2="237" y1="1272.7813" y2="1272.7813"/><line style="stroke:#181818;stroke-width:1.0;" x1="237" x2="237" y1="1272.7813" y2="1292.7813"/><polygon fill="#181818" points="233,1282.7813,237,1292.7813,241,1282.7813,237,1286.7813" style="stroke:#181818;stroke-width:1.0;"/><line style="stroke:#181818;stroke-width:1.0;" x1="237" x2="237" y1="1152.8125" y2="1172.8125"/><polygon fill="#181818" points="233,1162.8125,237,1172.8125,241,1162.8125,237,1166.8125" style="stroke:#181818;stroke-width:1.0;"/><line style="stroke:#181818;stroke-width:1.0;" x1="237" x2="237" y1="1326.75" y2="1346.75"/><polygon fill="#181818" points="233,1336.75,237,1346.75,241,1336.75,237,1340.75" style="stroke:#181818;stroke-width:1.0;"/><line style="stroke:#181818;stroke-width:1.0;" x1="237" x2="237" y1="1431.3164" y2="1453.8828"/><polygon fill="#181818" points="233,1443.8828,237,1453.8828,241,1443.8828,237,1447.8828" style="stroke:#181818;stroke-width:1.0;"/><line style="stroke:#181818;stroke-width:1.0;" x1="237" x2="237" y1="1531.8516" y2="1551.8516"/><polygon fill="#181818" points="233,1541.8516,237,1551.8516,241,1541.8516,237,1545.8516" style="stroke:#181818;stroke-width:1.0;"/><line style="stroke:#181818;stroke-width:1.0;" x1="237" x2="237" y1="1585.8203" y2="1595.8203"/><line style="stroke:#181818;stroke-width:1.0;" x1="237" x2="351.5" y1="1595.8203" y2="1595.8203"/><polygon fill="#181818" points="347.5,1566.8359,351.5,1556.8359,355.5,1566.8359,351.5,1562.8359" style="stroke:#181818;stroke-width:1.0;"/><line style="stroke:#181818;stroke-width:1.0;" x1="351.5" x2="351.5" y1="1519.8516" y2="1595.8203"/><line style="stroke:#181818;stroke-width:1.0;" x1="351.5" x2="281.5" y1="1519.8516" y2="1519.8516"/><polygon fill="#181818" points="291.5,1515.8516,281.5,1519.8516,291.5,1523.8516,287.5,1519.8516" style="stroke:#181818;stroke-width:1.0;"/><line style="stroke:#181818;stroke-width:1.0;" x1="192.5" x2="122.5" y1="1519.8516" y2="1519.8516"/><polygon fill="#181818" points="118.5,1552.8359,122.5,1562.8359,126.5,1552.8359,122.5,1556.8359" style="stroke:#181818;stroke-width:1.0;"/><line style="stroke:#181818;stroke-width:1.0;" x1="122.5" x2="122.5" y1="1519.8516" y2="1607.8203"/><line style="stroke:#181818;stroke-width:1.0;" x1="122.5" x2="237" y1="1607.8203" y2="1607.8203"/><line style="stroke:#181818;stroke-width:1.0;" x1="237" x2="237" y1="1607.8203" y2="1627.8203"/><polygon fill="#181818" points="233,1617.8203,237,1627.8203,241,1617.8203,237,1621.8203" style="stroke:#181818;stroke-width:1.0;"/><line style="stroke:#181818;stroke-width:1.0;" x1="237" x2="237" y1="1487.8516" y2="1507.8516"/><polygon fill="#181818" points="233,1497.8516,237,1507.8516,241,1497.8516,237,1501.8516" style="stroke:#181818;stroke-width:1.0;"/><line style="stroke:#181818;stroke-width:1.0;" x1="237" x2="237" y1="1661.7891" y2="1681.7891"/><polygon fill="#181818" points="233,1671.7891,237,1681.7891,241,1671.7891,237,1675.7891" style="stroke:#181818;stroke-width:1.0;"/><line style="stroke:#181818;stroke-width:1.0;" x1="237" x2="237" y1="1766.3555" y2="1788.9219"/><polygon fill="#181818" points="233,1778.9219,237,1788.9219,241,1778.9219,237,1782.9219" style="stroke:#181818;stroke-width:1.0;"/><line style="stroke:#181818;stroke-width:1.0;" x1="237" x2="237" y1="1866.8906" y2="1886.8906"/><polygon fill="#181818" points="233,1876.8906,237,1886.8906,241,1876.8906,237,1880.8906" style="stroke:#181818;stroke-width:1.0;"/><line style="stroke:#181818;stroke-width:1.0;" x1="237" x2="237" y1="1920.8594" y2="1930.8594"/><line style="stroke:#181818;stroke-width:1.0;" x1="237" x2="398.5" y1="1930.8594" y2="1930.8594"/><polygon fill="#181818" points="394.5,1901.875,398.5,1891.875,402.5,1901.875,398.5,1897.875" style="stroke:#181818;stroke-width:1.0;"/><line style="stroke:#181818;stroke-width:1.0;" x1="398.5" x2="398.5" y1="1854.8906" y2="1930.8594"/><line style="stroke:#181818;stroke-width:1.0;" x1="398.5" x2="281.5" y1="1854.8906" y2="1854.8906"/><polygon fill="#181818" points="291.5,1850.8906,281.5,1854.8906,291.5,1858.8906,287.5,1854.8906" style="stroke:#181818;stroke-width:1.0;"/><line style="stroke:#181818;stroke-width:1.0;" x1="192.5" x2="75.5" y1="1854.8906" y2="1854.8906"/><polygon fill="#181818" points="71.5,1887.875,75.5,1897.875,79.5,1887.875,75.5,1891.875" style="stroke:#181818;stroke-width:1.0;"/><line style="stroke:#181818;stroke-width:1.0;" x1="75.5" x2="75.5" y1="1854.8906" y2="1942.8594"/><line style="stroke:#181818;stroke-width:1.0;" x1="75.5" x2="237" y1="1942.8594" y2="1942.8594"/><line style="stroke:#181818;stroke-width:1.0;" x1="237" x2="237" y1="1942.8594" y2="1962.8594"/><polygon fill="#181818" points="233,1952.8594,237,1962.8594,241,1952.8594,237,1956.8594" style="stroke:#181818;stroke-width:1.0;"/><line style="stroke:#181818;stroke-width:1.0;" x1="237" x2="237" y1="1822.8906" y2="1842.8906"/><polygon fill="#181818" points="233,1832.8906,237,1842.8906,241,1832.8906,237,1836.8906" style="stroke:#181818;stroke-width:1.0;"/><line style="stroke:#181818;stroke-width:1.0;" x1="237" x2="237" y1="1996.8281" y2="2016.8281"/><polygon fill="#181818" points="233,2006.8281,237,2016.8281,241,2006.8281,237,2010.8281" style="stroke:#181818;stroke-width:1.0;"/><line style="stroke:#181818;stroke-width:1.0;" x1="237" x2="237" y1="2101.3945" y2="2123.9609"/><polygon fill="#181818" points="233,2113.9609,237,2123.9609,241,2113.9609,237,2117.9609" style="stroke:#181818;stroke-width:1.0;"/><line style="stroke:#181818;stroke-width:1.0;" x1="237" x2="237" y1="2201.9297" y2="2221.9297"/><polygon fill="#181818" points="233,2211.9297,237,2221.9297,241,2211.9297,237,2215.9297" style="stroke:#181818;stroke-width:1.0;"/><line style="stroke:#181818;stroke-width:1.0;" x1="237" x2="237" y1="2255.8984" y2="2265.8984"/><line style="stroke:#181818;stroke-width:1.0;" x1="237" x2="401.5" y1="2265.8984" y2="2265.8984"/><polygon fill="#181818" points="397.5,2236.9141,401.5,2226.9141,405.5,2236.9141,401.5,2232.9141" style="stroke:#181818;stroke-width:1.0;"/><line style="stroke:#181818;stroke-width:1.0;" x1="401.5" x2="401.5" y1="2189.9297" y2="2265.8984"/><line style="stroke:#181818;stroke-width:1.0;" x1="401.5" x2="281.5" y1="2189.9297" y2="2189.9297"/><polygon fill="#181818" points="291.5,2185.9297,281.5,2189.9297,291.5,2193.9297,287.5,2189.9297" style="stroke:#181818;stroke-width:1.0;"/><line style="stroke:#181818;stroke-width:1.0;" x1="192.5" x2="72.5" y1="2189.9297" y2="2189.9297"/><polygon fill="#181818" points="68.5,2222.9141,72.5,2232.9141,76.5,2222.9141,72.5,2226.9141" style="stroke:#181818;stroke-width:1.0;"/><line style="stroke:#181818;stroke-width:1.0;" x1="72.5" x2="72.5" y1="2189.9297" y2="2277.8984"/><line style="stroke:#181818;stroke-width:1.0;" x1="72.5" x2="237" y1="2277.8984" y2="2277.8984"/><line style="stroke:#181818;stroke-width:1.0;" x1="237" x2="237" y1="2277.8984" y2="2297.8984"/><polygon fill="#181818" points="233,2287.8984,237,2297.8984,241,2287.8984,237,2291.8984" style="stroke:#181818;stroke-width:1.0;"/><line style="stroke:#181818;stroke-width:1.0;" x1="237" x2="237" y1="2157.9297" y2="2177.9297"/><polygon fill="#181818" points="233,2167.9297,237,2177.9297,241,2167.9297,237,2171.9297" style="stroke:#181818;stroke-width:1.0;"/><line style="stroke:#181818;stroke-width:1.0;" x1="237" x2="237" y1="2331.8672" y2="2351.8672"/><polygon fill="#181818" points="233,2341.8672,237,2351.8672,241,2341.8672,237,2345.8672" style="stroke:#181818;stroke-width:1.0;"/><line style="stroke:#181818;stroke-width:1.0;" x1="237" x2="237" y1="2436.4336" y2="2459"/><polygon fill="#181818" points="233,2449,237,2459,241,2449,237,2453" style="stroke:#181818;stroke-width:1.0;"/><line style="stroke:#181818;stroke-width:1.0;" x1="237" x2="237" y1="2492.9688" y2="2512.9688"/><polygon fill="#181818" points="233,2502.9688,237,2512.9688,241,2502.9688,237,2506.9688" style="stroke:#181818;stroke-width:1.0;"/><!--MD5=[cb31acf8aba17f6edbf77a0a4a04db91]
@startuml
!pragma layout smetana
start
note right
constructor AbstractPlacementStrategy(StringBounderstringBounder)
end note
:this.stringBounder=stringBounder;;
end
start
note right
void add(TextBlockblock)
end note
:this.dimensions.put(block,block.calculateDimension(stringBounder));;
end
start
note right
Map<TextBlock,XDimension2D>getDimensions()
end note
:return dimensions;;
stop
end
start
note right
doublegetSumWidth()
end note
:return getSumWidth(dimensions.values().iterator());;
stop
end
start
note right
doublegetSumHeight()
end note
:return getSumHeight(dimensions.values().iterator());;
stop
end
start
note right
doublegetMaxHeight()
end note
:return getMaxHeight(dimensions.values().iterator());;
stop
end
start
note right
doublegetMaxWidth()
end note
:return getMaxWidth(dimensions.values().iterator());;
stop
end
start
note right
doublegetSumWidth(Iterator<XDimension2D>it)
end note
:doubleresult=0;;
while (it.hasNext())
:result+=it.next().getWidth();;
endwhile
:return result;;
stop
end
start
note right
doublegetSumHeight(Iterator<XDimension2D>it)
end note
:doubleresult=0;;
while (it.hasNext())
:result+=it.next().getHeight();;
endwhile
:return result;;
stop
end
start
note right
doublegetMaxWidth(Iterator<XDimension2D>it)
end note
:doubleresult=0;;
while (it.hasNext())
:result=Math.max(result,it.next().getWidth());;
endwhile
:return result;;
stop
end
start
note right
doublegetMaxHeight(Iterator<XDimension2D>it)
end note
:doubleresult=0;;
while (it.hasNext())
:result=Math.max(result,it.next().getHeight());;
endwhile
:return result;;
stop
end
start
note right
StringBoundergetStringBounder()
end note
:return stringBounder;;
stop
end
@enduml

PlantUML version 1.2022.7(Mon Aug 22 17:01:30 UTC 2022)
(GPL source distribution)
Java Runtime: OpenJDK Runtime Environment
JVM: OpenJDK 64-Bit Server VM
Default Encoding: UTF-8
Language: en
Country: null
--></g></svg>