<?xml version="1.0" encoding="UTF-8" standalone="no"?><svg xmlns="http://www.w3.org/2000/svg" xmlns:xlink="http://www.w3.org/1999/xlink" contentStyleType="text/css" height="186px" preserveAspectRatio="none" style="width:567px;height:186px;background:#FFFFFF;" version="1.1" viewBox="0 0 567 186" width="567px" zoomAndPan="magnify"><defs/><g><!--MD5=[212bc18102b0dd28bb19226b15bb784f]
cluster net.sourceforge.plantuml.ugraphic--><g id="cluster_net.sourceforge.plantuml.ugraphic"><path d="M8.5,63 L284.5,63 A3.75,3.75 0 0 1 287,65.5 L294,85.2969 L557.5,85.2969 A2.5,2.5 0 0 1 560,87.7969 L560,176.5 A2.5,2.5 0 0 1 557.5,179 L8.5,179 A2.5,2.5 0 0 1 6,176.5 L6,65.5 A2.5,2.5 0 0 1 8.5,63 " fill="none" style="stroke:#000000;stroke-width:1.5;"/><line style="stroke:#000000;stroke-width:1.5;" x1="6" x2="294" y1="85.2969" y2="85.2969"/><text fill="#000000" font-family="sans-serif" font-size="14" font-weight="bold" lengthAdjust="spacing" textLength="275" x="10" y="77.9951">net.sourceforge.plantuml.ugraphic</text></g><!--MD5=[f6726e9571bdf09e6b0634fbc820a914]
class AbstractPlacementStrategy--><g id="elem_AbstractPlacementStrategy"><rect fill="#F1F1F1" height="48" id="AbstractPlacementStrategy" rx="2.5" ry="2.5" style="stroke:#181818;stroke-width:0.5;" width="219" x="173.5" y="6"/><ellipse cx="188.5" cy="22" fill="#ADD1B2" rx="11" ry="11" style="stroke:#181818;stroke-width:1.0;"/><path d="M191.4688,27.6406 Q190.8906,27.9375 190.25,28.0781 Q189.6094,28.2344 188.9063,28.2344 Q186.4063,28.2344 185.0781,26.5938 Q183.7656,24.9375 183.7656,21.8125 Q183.7656,18.6875 185.0781,17.0313 Q186.4063,15.375 188.9063,15.375 Q189.6094,15.375 190.25,15.5313 Q190.9063,15.6875 191.4688,15.9844 L191.4688,18.7031 Q190.8438,18.125 190.25,17.8594 Q189.6563,17.5781 189.0313,17.5781 Q187.6875,17.5781 187,18.6563 Q186.3125,19.7188 186.3125,21.8125 Q186.3125,23.9063 187,24.9844 Q187.6875,26.0469 189.0313,26.0469 Q189.6563,26.0469 190.25,25.7813 Q190.8438,25.5 191.4688,24.9219 L191.4688,27.6406 Z " fill="#000000"/><text fill="#000000" font-family="sans-serif" font-size="14" lengthAdjust="spacing" textLength="187" x="202.5" y="26.8467">AbstractPlacementStrategy</text><line style="stroke:#181818;stroke-width:0.5;" x1="174.5" x2="391.5" y1="38" y2="38"/><line style="stroke:#181818;stroke-width:0.5;" x1="174.5" x2="391.5" y1="46" y2="46"/></g><!--MD5=[afd077805d15e0a258f0dc2e2e252e10]
class net.sourceforge.plantuml.ugraphic.PlacementStrategyVisibility--><g id="elem_net.sourceforge.plantuml.ugraphic.PlacementStrategyVisibility"><rect codeLine="3" fill="#F1F1F1" height="80.5938" id="net.sourceforge.plantuml.ugraphic.PlacementStrategyVisibility" rx="2.5" ry="2.5" style="stroke:#181818;stroke-width:0.5;" width="537" x="14.5" y="90"/><ellipse cx="187.25" cy="106" fill="#ADD1B2" rx="11" ry="11" style="stroke:#181818;stroke-width:1.0;"/><path d="M190.2188,111.6406 Q189.6406,111.9375 189,112.0781 Q188.3594,112.2344 187.6563,112.2344 Q185.1563,112.2344 183.8281,110.5938 Q182.5156,108.9375 182.5156,105.8125 Q182.5156,102.6875 183.8281,101.0313 Q185.1563,99.375 187.6563,99.375 Q188.3594,99.375 189,99.5313 Q189.6563,99.6875 190.2188,99.9844 L190.2188,102.7031 Q189.5938,102.125 189,101.8594 Q188.4063,101.5781 187.7813,101.5781 Q186.4375,101.5781 185.75,102.6563 Q185.0625,103.7188 185.0625,105.8125 Q185.0625,107.9063 185.75,108.9844 Q186.4375,110.0469 187.7813,110.0469 Q188.4063,110.0469 189,109.7813 Q189.5938,109.5 190.2188,108.9219 L190.2188,111.6406 Z " fill="#000000"/><text fill="#000000" font-family="sans-serif" font-size="14" lengthAdjust="spacing" textLength="183" x="207.75" y="110.8467">PlacementStrategyVisibility</text><line style="stroke:#181818;stroke-width:0.5;" x1="15.5" x2="550.5" y1="122" y2="122"/><line style="stroke:#181818;stroke-width:0.5;" x1="15.5" x2="550.5" y1="130" y2="130"/><a href="./../../../../../.././qc/src/net/sourceforge/plantuml/ugraphic/PlacementStrategyVisibility.java.html#51" target="_top" title="./../../../../../.././qc/src/net/sourceforge/plantuml/ugraphic/PlacementStrategyVisibility.java.html#51" xlink:actuate="onRequest" xlink:href="./../../../../../.././qc/src/net/sourceforge/plantuml/ugraphic/PlacementStrategyVisibility.java.html#51" xlink:show="new" xlink:title="./../../../../../.././qc/src/net/sourceforge/plantuml/ugraphic/PlacementStrategyVisibility.java.html#51" xlink:type="simple"><rect fill="#F1F1F1" height="10" style="stroke:none;stroke-width:1.0;" width="20" x="20.5" y="138.6484"/><ellipse cx="25.5" cy="143.6484" fill="#84BE84" rx="3" ry="3" style="stroke:#038048;stroke-width:1.0;"/></a><a href="./../../../../../.././qc/src/net/sourceforge/plantuml/ugraphic/PlacementStrategyVisibility.java.html#51" target="_top" title="./../../../../../.././qc/src/net/sourceforge/plantuml/ugraphic/PlacementStrategyVisibility.java.html#51" xlink:actuate="onRequest" xlink:href="./../../../../../.././qc/src/net/sourceforge/plantuml/ugraphic/PlacementStrategyVisibility.java.html#51" xlink:show="new" xlink:title="./../../../../../.././qc/src/net/sourceforge/plantuml/ugraphic/PlacementStrategyVisibility.java.html#51" xlink:type="simple"><text fill="#000000" font-family="sans-serif" font-size="14" lengthAdjust="spacing" textLength="511" x="34.5" y="146.9951">PlacementStrategyVisibility(StringBounder;int) : PlacementStrategyVisibility</text></a><a href="./../../../../../.././qc/src/net/sourceforge/plantuml/ugraphic/PlacementStrategyVisibility.java.html#56" target="_top" title="./../../../../../.././qc/src/net/sourceforge/plantuml/ugraphic/PlacementStrategyVisibility.java.html#56" xlink:actuate="onRequest" xlink:href="./../../../../../.././qc/src/net/sourceforge/plantuml/ugraphic/PlacementStrategyVisibility.java.html#56" xlink:show="new" xlink:title="./../../../../../.././qc/src/net/sourceforge/plantuml/ugraphic/PlacementStrategyVisibility.java.html#56" xlink:type="simple"><rect fill="#F1F1F1" height="10" style="stroke:none;stroke-width:1.0;" width="20" x="20.5" y="154.9453"/><ellipse cx="25.5" cy="159.9453" fill="#84BE84" rx="3" ry="3" style="stroke:#038048;stroke-width:1.0;"/></a><a href="./../../../../../.././qc/src/net/sourceforge/plantuml/ugraphic/PlacementStrategyVisibility.java.html#56" target="_top" title="./../../../../../.././qc/src/net/sourceforge/plantuml/ugraphic/PlacementStrategyVisibility.java.html#56" xlink:actuate="onRequest" xlink:href="./../../../../../.././qc/src/net/sourceforge/plantuml/ugraphic/PlacementStrategyVisibility.java.html#56" xlink:show="new" xlink:title="./../../../../../.././qc/src/net/sourceforge/plantuml/ugraphic/PlacementStrategyVisibility.java.html#56" xlink:type="simple"><text fill="#000000" font-family="sans-serif" font-size="14" lengthAdjust="spacing" textLength="399" x="34.5" y="163.292">getPositions(double;double) : Map&lt;TextBlock,XPoint2D&gt;</text></a></g><path d="M283,54.0939 C283,64.784 283,77.7904 283,89.9706 " fill="none" style="stroke:#181818;stroke-width:1.0;"/><polygon fill="#FFFFFF" points="283,54.0939,277,70.0939,289,70.0939,283,54.0939" style="stroke:#181818;stroke-width:1.0;"/><!--MD5=[d94af5f29369fb39bf22b3582fb1e20d]
@startuml
!pragma layout smetana
"AbstractPlacementStrategy" <|- - "net.sourceforge.plantuml.ugraphic.PlacementStrategyVisibility"
class net.sourceforge.plantuml.ugraphic.PlacementStrategyVisibility {
+PlacementStrategyVisibility(StringBounder;int) : PlacementStrategyVisibility [[[./../../../../../.././qc/src/net/sourceforge/plantuml/ugraphic/PlacementStrategyVisibility.java.html#51]]]
+getPositions(double;double) : Map<TextBlock,XPoint2D> [[[./../../../../../.././qc/src/net/sourceforge/plantuml/ugraphic/PlacementStrategyVisibility.java.html#56]]]
} 
@enduml

PlantUML version 1.2022.7(Mon Aug 22 17:01:30 UTC 2022)
(GPL source distribution)
Java Runtime: OpenJDK Runtime Environment
JVM: OpenJDK 64-Bit Server VM
Default Encoding: UTF-8
Language: en
Country: null
--></g></svg>