<?xml version="1.0" encoding="UTF-8" standalone="no"?><svg xmlns="http://www.w3.org/2000/svg" xmlns:xlink="http://www.w3.org/1999/xlink" contentStyleType="text/css" height="186px" preserveAspectRatio="none" style="width:304px;height:186px;background:#FFFFFF;" version="1.1" viewBox="0 0 304 186" width="304px" zoomAndPan="magnify"><defs/><g><!--MD5=[212bc18102b0dd28bb19226b15bb784f]
cluster net.sourceforge.plantuml.ugraphic--><g id="cluster_net.sourceforge.plantuml.ugraphic"><path d="M8.5,63 L284.5,63 A3.75,3.75 0 0 1 287,65.5 L294,85.2969 L294.5,85.2969 A2.5,2.5 0 0 1 297,87.7969 L297,176.5 A2.5,2.5 0 0 1 294.5,179 L8.5,179 A2.5,2.5 0 0 1 6,176.5 L6,65.5 A2.5,2.5 0 0 1 8.5,63 " fill="none" style="stroke:#000000;stroke-width:1.5;"/><line style="stroke:#000000;stroke-width:1.5;" x1="6" x2="294" y1="85.2969" y2="85.2969"/><text fill="#000000" font-family="sans-serif" font-size="14" font-weight="bold" lengthAdjust="spacing" textLength="275" x="10" y="77.9951">net.sourceforge.plantuml.ugraphic</text></g><!--MD5=[d610d40586a5f49588812a537355a61f]
class UShape--><g id="elem_UShape"><rect fill="#F1F1F1" height="48" id="UShape" rx="2.5" ry="2.5" style="stroke:#181818;stroke-width:0.5;" width="86" x="108" y="6"/><ellipse cx="123" cy="22" fill="#ADD1B2" rx="11" ry="11" style="stroke:#181818;stroke-width:1.0;"/><path d="M125.9688,27.6406 Q125.3906,27.9375 124.75,28.0781 Q124.1094,28.2344 123.4063,28.2344 Q120.9063,28.2344 119.5781,26.5938 Q118.2656,24.9375 118.2656,21.8125 Q118.2656,18.6875 119.5781,17.0313 Q120.9063,15.375 123.4063,15.375 Q124.1094,15.375 124.75,15.5313 Q125.4063,15.6875 125.9688,15.9844 L125.9688,18.7031 Q125.3438,18.125 124.75,17.8594 Q124.1563,17.5781 123.5313,17.5781 Q122.1875,17.5781 121.5,18.6563 Q120.8125,19.7188 120.8125,21.8125 Q120.8125,23.9063 121.5,24.9844 Q122.1875,26.0469 123.5313,26.0469 Q124.1563,26.0469 124.75,25.7813 Q125.3438,25.5 125.9688,24.9219 L125.9688,27.6406 Z " fill="#000000"/><text fill="#000000" font-family="sans-serif" font-size="14" lengthAdjust="spacing" textLength="54" x="137" y="26.8467">UShape</text><line style="stroke:#181818;stroke-width:0.5;" x1="109" x2="193" y1="38" y2="38"/><line style="stroke:#181818;stroke-width:0.5;" x1="109" x2="193" y1="46" y2="46"/></g><!--MD5=[c258c4f552e23c392959906ba6a7345f]
class net.sourceforge.plantuml.ugraphic.UComment--><g id="elem_net.sourceforge.plantuml.ugraphic.UComment"><rect codeLine="3" fill="#F1F1F1" height="80.5938" id="net.sourceforge.plantuml.ugraphic.UComment" rx="2.5" ry="2.5" style="stroke:#181818;stroke-width:0.5;" width="245" x="28.5" y="90"/><ellipse cx="107.75" cy="106" fill="#ADD1B2" rx="11" ry="11" style="stroke:#181818;stroke-width:1.0;"/><path d="M110.7188,111.6406 Q110.1406,111.9375 109.5,112.0781 Q108.8594,112.2344 108.1563,112.2344 Q105.6563,112.2344 104.3281,110.5938 Q103.0156,108.9375 103.0156,105.8125 Q103.0156,102.6875 104.3281,101.0313 Q105.6563,99.375 108.1563,99.375 Q108.8594,99.375 109.5,99.5313 Q110.1563,99.6875 110.7188,99.9844 L110.7188,102.7031 Q110.0938,102.125 109.5,101.8594 Q108.9063,101.5781 108.2813,101.5781 Q106.9375,101.5781 106.25,102.6563 Q105.5625,103.7188 105.5625,105.8125 Q105.5625,107.9063 106.25,108.9844 Q106.9375,110.0469 108.2813,110.0469 Q108.9063,110.0469 109.5,109.7813 Q110.0938,109.5 110.7188,108.9219 L110.7188,111.6406 Z " fill="#000000"/><text fill="#000000" font-family="sans-serif" font-size="14" lengthAdjust="spacing" textLength="78" x="128.25" y="110.8467">UComment</text><line style="stroke:#181818;stroke-width:0.5;" x1="29.5" x2="272.5" y1="122" y2="122"/><line style="stroke:#181818;stroke-width:0.5;" x1="29.5" x2="272.5" y1="130" y2="130"/><a href="./../../../../../.././qc/src/net/sourceforge/plantuml/ugraphic/UComment.java.html#42" target="_top" title="./../../../../../.././qc/src/net/sourceforge/plantuml/ugraphic/UComment.java.html#42" xlink:actuate="onRequest" xlink:href="./../../../../../.././qc/src/net/sourceforge/plantuml/ugraphic/UComment.java.html#42" xlink:show="new" xlink:title="./../../../../../.././qc/src/net/sourceforge/plantuml/ugraphic/UComment.java.html#42" xlink:type="simple"><rect fill="#F1F1F1" height="10" style="stroke:none;stroke-width:1.0;" width="20" x="34.5" y="138.6484"/><ellipse cx="39.5" cy="143.6484" fill="#84BE84" rx="3" ry="3" style="stroke:#038048;stroke-width:1.0;"/></a><a href="./../../../../../.././qc/src/net/sourceforge/plantuml/ugraphic/UComment.java.html#42" target="_top" title="./../../../../../.././qc/src/net/sourceforge/plantuml/ugraphic/UComment.java.html#42" xlink:actuate="onRequest" xlink:href="./../../../../../.././qc/src/net/sourceforge/plantuml/ugraphic/UComment.java.html#42" xlink:show="new" xlink:title="./../../../../../.././qc/src/net/sourceforge/plantuml/ugraphic/UComment.java.html#42" xlink:type="simple"><text fill="#000000" font-family="sans-serif" font-size="14" lengthAdjust="spacing" textLength="219" x="48.5" y="146.9951">UComment(String) : UComment</text></a><a href="./../../../../../.././qc/src/net/sourceforge/plantuml/ugraphic/UComment.java.html#46" target="_top" title="./../../../../../.././qc/src/net/sourceforge/plantuml/ugraphic/UComment.java.html#46" xlink:actuate="onRequest" xlink:href="./../../../../../.././qc/src/net/sourceforge/plantuml/ugraphic/UComment.java.html#46" xlink:show="new" xlink:title="./../../../../../.././qc/src/net/sourceforge/plantuml/ugraphic/UComment.java.html#46" xlink:type="simple"><rect fill="#F1F1F1" height="10" style="stroke:none;stroke-width:1.0;" width="20" x="34.5" y="154.9453"/><ellipse cx="39.5" cy="159.9453" fill="#84BE84" rx="3" ry="3" style="stroke:#038048;stroke-width:1.0;"/></a><a href="./../../../../../.././qc/src/net/sourceforge/plantuml/ugraphic/UComment.java.html#46" target="_top" title="./../../../../../.././qc/src/net/sourceforge/plantuml/ugraphic/UComment.java.html#46" xlink:actuate="onRequest" xlink:href="./../../../../../.././qc/src/net/sourceforge/plantuml/ugraphic/UComment.java.html#46" xlink:show="new" xlink:title="./../../../../../.././qc/src/net/sourceforge/plantuml/ugraphic/UComment.java.html#46" xlink:type="simple"><text fill="#000000" font-family="sans-serif" font-size="14" lengthAdjust="spacing" textLength="154" x="48.5" y="163.292">getComment() : String</text></a></g><path d="M151,54.0939 C151,64.784 151,77.7904 151,89.9706 " fill="none" style="stroke:#181818;stroke-width:1.0;"/><polygon fill="#FFFFFF" points="151,54.0939,145,70.0939,157,70.0939,151,54.0939" style="stroke:#181818;stroke-width:1.0;"/><!--MD5=[d7eb0dae41e779c18bcdc535cd9da198]
@startuml
!pragma layout smetana
"UShape" <|- - "net.sourceforge.plantuml.ugraphic.UComment"
class net.sourceforge.plantuml.ugraphic.UComment {
+UComment(String) : UComment [[[./../../../../../.././qc/src/net/sourceforge/plantuml/ugraphic/UComment.java.html#42]]]
+getComment() : String [[[./../../../../../.././qc/src/net/sourceforge/plantuml/ugraphic/UComment.java.html#46]]]
} 
@enduml

PlantUML version 1.2022.7(Mon Aug 22 17:01:30 UTC 2022)
(GPL source distribution)
Java Runtime: OpenJDK Runtime Environment
JVM: OpenJDK 64-Bit Server VM
Default Encoding: UTF-8
Language: en
Country: null
--></g></svg>