<?xml version="1.0" encoding="UTF-8" standalone="no"?><svg xmlns="http://www.w3.org/2000/svg" xmlns:xlink="http://www.w3.org/1999/xlink" contentStyleType="text/css" height="234px" preserveAspectRatio="none" style="width:304px;height:234px;background:#FFFFFF;" version="1.1" viewBox="0 0 304 234" width="304px" zoomAndPan="magnify"><defs/><g><!--MD5=[212bc18102b0dd28bb19226b15bb784f]
cluster net.sourceforge.plantuml.ugraphic--><g id="cluster_net.sourceforge.plantuml.ugraphic"><path d="M8.5,63 L284.5,63 A3.75,3.75 0 0 1 287,65.5 L294,85.2969 L294.5,85.2969 A2.5,2.5 0 0 1 297,87.7969 L297,224.5 A2.5,2.5 0 0 1 294.5,227 L8.5,227 A2.5,2.5 0 0 1 6,224.5 L6,65.5 A2.5,2.5 0 0 1 8.5,63 " fill="none" style="stroke:#000000;stroke-width:1.5;"/><line style="stroke:#000000;stroke-width:1.5;" x1="6" x2="294" y1="85.2969" y2="85.2969"/><text fill="#000000" font-family="sans-serif" font-size="14" font-weight="bold" lengthAdjust="spacing" textLength="275" x="10" y="77.9951">net.sourceforge.plantuml.ugraphic</text></g><!--MD5=[8f8df713b816f6dd1f58b5fa2ba3e04e]
class UParam--><g id="elem_UParam"><rect fill="#F1F1F1" height="48" id="UParam" rx="2.5" ry="2.5" style="stroke:#181818;stroke-width:0.5;" width="85" x="108.5" y="6"/><ellipse cx="123.5" cy="22" fill="#ADD1B2" rx="11" ry="11" style="stroke:#181818;stroke-width:1.0;"/><path d="M126.4688,27.6406 Q125.8906,27.9375 125.25,28.0781 Q124.6094,28.2344 123.9063,28.2344 Q121.4063,28.2344 120.0781,26.5938 Q118.7656,24.9375 118.7656,21.8125 Q118.7656,18.6875 120.0781,17.0313 Q121.4063,15.375 123.9063,15.375 Q124.6094,15.375 125.25,15.5313 Q125.9063,15.6875 126.4688,15.9844 L126.4688,18.7031 Q125.8438,18.125 125.25,17.8594 Q124.6563,17.5781 124.0313,17.5781 Q122.6875,17.5781 122,18.6563 Q121.3125,19.7188 121.3125,21.8125 Q121.3125,23.9063 122,24.9844 Q122.6875,26.0469 124.0313,26.0469 Q124.6563,26.0469 125.25,25.7813 Q125.8438,25.5 126.4688,24.9219 L126.4688,27.6406 Z " fill="#000000"/><text fill="#000000" font-family="sans-serif" font-size="14" lengthAdjust="spacing" textLength="53" x="137.5" y="26.8467">UParam</text><line style="stroke:#181818;stroke-width:0.5;" x1="109.5" x2="192.5" y1="38" y2="38"/><line style="stroke:#181818;stroke-width:0.5;" x1="109.5" x2="192.5" y1="46" y2="46"/></g><!--MD5=[23ed9939a99c0852e84c5a7c2c82f35d]
class net.sourceforge.plantuml.ugraphic.UParamNull--><g id="elem_net.sourceforge.plantuml.ugraphic.UParamNull"><rect codeLine="3" fill="#F1F1F1" height="129.4844" id="net.sourceforge.plantuml.ugraphic.UParamNull" rx="2.5" ry="2.5" style="stroke:#181818;stroke-width:0.5;" width="186" x="58" y="90"/><ellipse cx="107.75" cy="106" fill="#ADD1B2" rx="11" ry="11" style="stroke:#181818;stroke-width:1.0;"/><path d="M110.7188,111.6406 Q110.1406,111.9375 109.5,112.0781 Q108.8594,112.2344 108.1563,112.2344 Q105.6563,112.2344 104.3281,110.5938 Q103.0156,108.9375 103.0156,105.8125 Q103.0156,102.6875 104.3281,101.0313 Q105.6563,99.375 108.1563,99.375 Q108.8594,99.375 109.5,99.5313 Q110.1563,99.6875 110.7188,99.9844 L110.7188,102.7031 Q110.0938,102.125 109.5,101.8594 Q108.9063,101.5781 108.2813,101.5781 Q106.9375,101.5781 106.25,102.6563 Q105.5625,103.7188 105.5625,105.8125 Q105.5625,107.9063 106.25,108.9844 Q106.9375,110.0469 108.2813,110.0469 Q108.9063,110.0469 109.5,109.7813 Q110.0938,109.5 110.7188,108.9219 L110.7188,111.6406 Z " fill="#000000"/><text fill="#000000" font-family="sans-serif" font-size="14" lengthAdjust="spacing" textLength="78" x="128.25" y="110.8467">UParamNull</text><line style="stroke:#181818;stroke-width:0.5;" x1="59" x2="243" y1="122" y2="122"/><line style="stroke:#181818;stroke-width:0.5;" x1="59" x2="243" y1="130" y2="130"/><a href="./../../../../../.././qc/src/net/sourceforge/plantuml/ugraphic/UParamNull.java.html#43" target="_top" title="./../../../../../.././qc/src/net/sourceforge/plantuml/ugraphic/UParamNull.java.html#43" xlink:actuate="onRequest" xlink:href="./../../../../../.././qc/src/net/sourceforge/plantuml/ugraphic/UParamNull.java.html#43" xlink:show="new" xlink:title="./../../../../../.././qc/src/net/sourceforge/plantuml/ugraphic/UParamNull.java.html#43" xlink:type="simple"><rect fill="#F1F1F1" height="10" style="stroke:none;stroke-width:1.0;" width="20" x="64" y="138.6484"/><ellipse cx="69" cy="143.6484" fill="#84BE84" rx="3" ry="3" style="stroke:#038048;stroke-width:1.0;"/></a><a href="./../../../../../.././qc/src/net/sourceforge/plantuml/ugraphic/UParamNull.java.html#43" target="_top" title="./../../../../../.././qc/src/net/sourceforge/plantuml/ugraphic/UParamNull.java.html#43" xlink:actuate="onRequest" xlink:href="./../../../../../.././qc/src/net/sourceforge/plantuml/ugraphic/UParamNull.java.html#43" xlink:show="new" xlink:title="./../../../../../.././qc/src/net/sourceforge/plantuml/ugraphic/UParamNull.java.html#43" xlink:type="simple"><text fill="#000000" font-family="sans-serif" font-size="14" lengthAdjust="spacing" textLength="128" x="78" y="146.9951">getColor() : HColor</text></a><a href="./../../../../../.././qc/src/net/sourceforge/plantuml/ugraphic/UParamNull.java.html#47" target="_top" title="./../../../../../.././qc/src/net/sourceforge/plantuml/ugraphic/UParamNull.java.html#47" xlink:actuate="onRequest" xlink:href="./../../../../../.././qc/src/net/sourceforge/plantuml/ugraphic/UParamNull.java.html#47" xlink:show="new" xlink:title="./../../../../../.././qc/src/net/sourceforge/plantuml/ugraphic/UParamNull.java.html#47" xlink:type="simple"><rect fill="#F1F1F1" height="10" style="stroke:none;stroke-width:1.0;" width="20" x="64" y="154.9453"/><ellipse cx="69" cy="159.9453" fill="#84BE84" rx="3" ry="3" style="stroke:#038048;stroke-width:1.0;"/></a><a href="./../../../../../.././qc/src/net/sourceforge/plantuml/ugraphic/UParamNull.java.html#47" target="_top" title="./../../../../../.././qc/src/net/sourceforge/plantuml/ugraphic/UParamNull.java.html#47" xlink:actuate="onRequest" xlink:href="./../../../../../.././qc/src/net/sourceforge/plantuml/ugraphic/UParamNull.java.html#47" xlink:show="new" xlink:title="./../../../../../.././qc/src/net/sourceforge/plantuml/ugraphic/UParamNull.java.html#47" xlink:type="simple"><text fill="#000000" font-family="sans-serif" font-size="14" lengthAdjust="spacing" textLength="160" x="78" y="163.292">getBackcolor() : HColor</text></a><a href="./../../../../../.././qc/src/net/sourceforge/plantuml/ugraphic/UParamNull.java.html#51" target="_top" title="./../../../../../.././qc/src/net/sourceforge/plantuml/ugraphic/UParamNull.java.html#51" xlink:actuate="onRequest" xlink:href="./../../../../../.././qc/src/net/sourceforge/plantuml/ugraphic/UParamNull.java.html#51" xlink:show="new" xlink:title="./../../../../../.././qc/src/net/sourceforge/plantuml/ugraphic/UParamNull.java.html#51" xlink:type="simple"><rect fill="#F1F1F1" height="10" style="stroke:none;stroke-width:1.0;" width="20" x="64" y="171.2422"/><ellipse cx="69" cy="176.2422" fill="#84BE84" rx="3" ry="3" style="stroke:#038048;stroke-width:1.0;"/></a><a href="./../../../../../.././qc/src/net/sourceforge/plantuml/ugraphic/UParamNull.java.html#51" target="_top" title="./../../../../../.././qc/src/net/sourceforge/plantuml/ugraphic/UParamNull.java.html#51" xlink:actuate="onRequest" xlink:href="./../../../../../.././qc/src/net/sourceforge/plantuml/ugraphic/UParamNull.java.html#51" xlink:show="new" xlink:title="./../../../../../.././qc/src/net/sourceforge/plantuml/ugraphic/UParamNull.java.html#51" xlink:type="simple"><text fill="#000000" font-family="sans-serif" font-size="14" lengthAdjust="spacing" textLength="146" x="78" y="179.5889">getStroke() : UStroke</text></a><a href="./../../../../../.././qc/src/net/sourceforge/plantuml/ugraphic/UParamNull.java.html#55" target="_top" title="./../../../../../.././qc/src/net/sourceforge/plantuml/ugraphic/UParamNull.java.html#55" xlink:actuate="onRequest" xlink:href="./../../../../../.././qc/src/net/sourceforge/plantuml/ugraphic/UParamNull.java.html#55" xlink:show="new" xlink:title="./../../../../../.././qc/src/net/sourceforge/plantuml/ugraphic/UParamNull.java.html#55" xlink:type="simple"><rect fill="#F1F1F1" height="10" style="stroke:none;stroke-width:1.0;" width="20" x="64" y="187.5391"/><ellipse cx="69" cy="192.5391" fill="#84BE84" rx="3" ry="3" style="stroke:#038048;stroke-width:1.0;"/></a><a href="./../../../../../.././qc/src/net/sourceforge/plantuml/ugraphic/UParamNull.java.html#55" target="_top" title="./../../../../../.././qc/src/net/sourceforge/plantuml/ugraphic/UParamNull.java.html#55" xlink:actuate="onRequest" xlink:href="./../../../../../.././qc/src/net/sourceforge/plantuml/ugraphic/UParamNull.java.html#55" xlink:show="new" xlink:title="./../../../../../.././qc/src/net/sourceforge/plantuml/ugraphic/UParamNull.java.html#55" xlink:type="simple"><text fill="#000000" font-family="sans-serif" font-size="14" lengthAdjust="spacing" textLength="139" x="78" y="195.8857">isHidden() : boolean</text></a><a href="./../../../../../.././qc/src/net/sourceforge/plantuml/ugraphic/UParamNull.java.html#59" target="_top" title="./../../../../../.././qc/src/net/sourceforge/plantuml/ugraphic/UParamNull.java.html#59" xlink:actuate="onRequest" xlink:href="./../../../../../.././qc/src/net/sourceforge/plantuml/ugraphic/UParamNull.java.html#59" xlink:show="new" xlink:title="./../../../../../.././qc/src/net/sourceforge/plantuml/ugraphic/UParamNull.java.html#59" xlink:type="simple"><rect fill="#F1F1F1" height="10" style="stroke:none;stroke-width:1.0;" width="20" x="64" y="203.8359"/><ellipse cx="69" cy="208.8359" fill="#84BE84" rx="3" ry="3" style="stroke:#038048;stroke-width:1.0;"/></a><a href="./../../../../../.././qc/src/net/sourceforge/plantuml/ugraphic/UParamNull.java.html#59" target="_top" title="./../../../../../.././qc/src/net/sourceforge/plantuml/ugraphic/UParamNull.java.html#59" xlink:actuate="onRequest" xlink:href="./../../../../../.././qc/src/net/sourceforge/plantuml/ugraphic/UParamNull.java.html#59" xlink:show="new" xlink:title="./../../../../../.././qc/src/net/sourceforge/plantuml/ugraphic/UParamNull.java.html#59" xlink:type="simple"><text fill="#000000" font-family="sans-serif" font-size="14" lengthAdjust="spacing" textLength="156" x="78" y="212.1826">getPattern() : UPattern</text></a></g><path d="M151,54.0413 C151,64.3681 151,77.1075 151,89.9808 " fill="none" style="stroke:#181818;stroke-width:1.0;"/><polygon fill="#FFFFFF" points="151,54.0413,145,70.0413,157,70.0413,151,54.0413" style="stroke:#181818;stroke-width:1.0;"/><!--MD5=[c1727d200dc7b1c4b86229943d2c8d03]
@startuml
!pragma layout smetana
"UParam" <|- - "net.sourceforge.plantuml.ugraphic.UParamNull"
class net.sourceforge.plantuml.ugraphic.UParamNull {
+getColor() : HColor [[[./../../../../../.././qc/src/net/sourceforge/plantuml/ugraphic/UParamNull.java.html#43]]]
+getBackcolor() : HColor [[[./../../../../../.././qc/src/net/sourceforge/plantuml/ugraphic/UParamNull.java.html#47]]]
+getStroke() : UStroke [[[./../../../../../.././qc/src/net/sourceforge/plantuml/ugraphic/UParamNull.java.html#51]]]
+isHidden() : boolean [[[./../../../../../.././qc/src/net/sourceforge/plantuml/ugraphic/UParamNull.java.html#55]]]
+getPattern() : UPattern [[[./../../../../../.././qc/src/net/sourceforge/plantuml/ugraphic/UParamNull.java.html#59]]]
} 
@enduml

PlantUML version 1.2022.7(Mon Aug 22 17:01:30 UTC 2022)
(GPL source distribution)
Java Runtime: OpenJDK Runtime Environment
JVM: OpenJDK 64-Bit Server VM
Default Encoding: UTF-8
Language: en
Country: null
--></g></svg>