<?xml version="1.0" encoding="UTF-8" standalone="no"?><svg xmlns="http://www.w3.org/2000/svg" xmlns:xlink="http://www.w3.org/1999/xlink" contentStyleType="text/css" height="935px" preserveAspectRatio="none" style="width:1399px;height:935px;background:#FFFFFF;" version="1.1" viewBox="0 0 1399 935" width="1399px" zoomAndPan="magnify"><defs/><g><path d="M729.5,10 L729.5,18.5664 L709.5,22.5664 L729.5,26.5664 L729.5,35.1328 A0,0 0 0 0 729.5,35.1328 L981.5,35.1328 A0,0 0 0 0 981.5,35.1328 L981.5,20 L971.5,10 L729.5,10 A0,0 0 0 0 729.5,10 " fill="#FEFFDD" style="stroke:#181818;stroke-width:0.5;"/><path d="M971.5,10 L971.5,20 L981.5,20 L971.5,10 " fill="#FEFFDD" style="stroke:#181818;stroke-width:0.5;"/><text fill="#000000" font-family="sans-serif" font-size="13" lengthAdjust="spacing" textLength="231" x="735.5" y="27.0669">constructor CommandCreateBlock()</text><ellipse cx="699.5" cy="22.5664" fill="#222222" rx="10" ry="10" style="stroke:#222222;stroke-width:1.0;"/><rect fill="#F1F1F1" height="33.9688" rx="12.5" ry="12.5" style="stroke:#181818;stroke-width:0.5;" width="187" x="606" y="55.1328"/><text fill="#000000" font-family="sans-serif" font-size="12" lengthAdjust="spacing" textLength="167" x="616" y="76.2715">super (getRegexConcat());</text><ellipse cx="699.5" cy="119.1016" fill="none" rx="10" ry="10" style="stroke:#222222;stroke-width:1.5;"/><line style="stroke:#222222;stroke-width:2.5;" x1="693.3128" x2="705.6872" y1="112.9144" y2="125.2887"/><line style="stroke:#222222;stroke-width:2.5;" x1="705.6872" x2="693.3128" y1="112.9144" y2="125.2887"/><path d="M729.5,139.1016 L729.5,147.668 L709.5,151.668 L729.5,155.668 L729.5,164.2344 A0,0 0 0 0 729.5,164.2344 L907.5,164.2344 A0,0 0 0 0 907.5,164.2344 L907.5,149.1016 L897.5,139.1016 L729.5,139.1016 A0,0 0 0 0 729.5,139.1016 " fill="#FEFFDD" style="stroke:#181818;stroke-width:0.5;"/><path d="M897.5,139.1016 L897.5,149.1016 L907.5,149.1016 L897.5,139.1016 " fill="#FEFFDD" style="stroke:#181818;stroke-width:0.5;"/><text fill="#000000" font-family="sans-serif" font-size="13" lengthAdjust="spacing" textLength="157" x="735.5" y="156.1685">IRegexgetRegexConcat()</text><ellipse cx="699.5" cy="151.668" fill="#222222" rx="10" ry="10" style="stroke:#222222;stroke-width:1.0;"/><rect fill="#F1F1F1" height="61.9063" rx="12.5" ry="12.5" style="stroke:#181818;stroke-width:0.5;" width="1377" x="11" y="184.2344"/><text fill="#000000" font-family="sans-serif" font-size="12" lengthAdjust="spacing" textLength="1357" x="21" y="205.373">return RegexConcat.build(CommandCreateBlock.class .getName(),RegexLeaf.start(),new RegexLeaf("block"),RegexLeaf.spaceOneOrMore(),new RegexOptional(new RegexConcat(new RegexLeaf("DISPLAY","[%g]([^%g]+</text><text fill="#000000" font-family="sans-serif" font-size="12" lengthAdjust="spacing" textLength="790" x="21" y="219.3418">)[%g]"),RegexLeaf.spaceOneOrMore(),new RegexLeaf("as"),RegexLeaf.spaceOneOrMore())),new RegexLeaf("CODE","([%pLN_.]+</text><text fill="#000000" font-family="sans-serif" font-size="12" lengthAdjust="spacing" textLength="130" x="21" y="233.3105">)"),RegexLeaf.end());</text><ellipse cx="699.5" cy="277.1406" fill="none" rx="11" ry="11" style="stroke:#222222;stroke-width:1.0;"/><ellipse cx="699.5" cy="277.1406" fill="#222222" rx="6" ry="6" style="stroke:#111111;stroke-width:1.0;"/><ellipse cx="699.5" cy="308.1406" fill="none" rx="10" ry="10" style="stroke:#222222;stroke-width:1.5;"/><line style="stroke:#222222;stroke-width:2.5;" x1="693.3128" x2="705.6872" y1="301.9534" y2="314.3278"/><line style="stroke:#222222;stroke-width:2.5;" x1="705.6872" x2="693.3128" y1="301.9534" y2="314.3278"/><path d="M729.5,328.1406 L729.5,344.2734 L709.5,348.2734 L729.5,352.2734 L729.5,368.4063 A0,0 0 0 0 729.5,368.4063 L1177.5,368.4063 A0,0 0 0 0 1177.5,368.4063 L1177.5,338.1406 L1167.5,328.1406 L729.5,328.1406 A0,0 0 0 0 729.5,328.1406 " fill="#FEFFDD" style="stroke:#181818;stroke-width:0.5;"/><path d="M1167.5,328.1406 L1167.5,338.1406 L1177.5,338.1406 L1167.5,328.1406 " fill="#FEFFDD" style="stroke:#181818;stroke-width:0.5;"/><text fill="#000000" font-family="sans-serif" font-size="13" lengthAdjust="spacing" textLength="427" x="735.5" y="345.2075">CommandExecutionResultexecuteArg(CompositeDiagramdiagram,</text><text fill="#000000" font-family="sans-serif" font-size="13" lengthAdjust="spacing" textLength="238" x="735.5" y="360.3403">LineLocationlocation,RegexResultarg)</text><ellipse cx="699.5" cy="348.2734" fill="#222222" rx="10" ry="10" style="stroke:#222222;stroke-width:1.0;"/><rect fill="#F1F1F1" height="33.9688" rx="12.5" ry="12.5" style="stroke:#181818;stroke-width:0.5;" width="241" x="579" y="388.4063"/><text fill="#000000" font-family="sans-serif" font-size="12" lengthAdjust="spacing" textLength="221" x="589" y="409.5449">Stringdisplay=arg.get("DISPLAY",0);</text><rect fill="#F1F1F1" height="33.9688" rx="12.5" ry="12.5" style="stroke:#181818;stroke-width:0.5;" width="258" x="570.5" y="442.375"/><text fill="#000000" font-family="sans-serif" font-size="12" lengthAdjust="spacing" textLength="238" x="580.5" y="463.5137">final StringidShort=arg.get("CODE",0);</text><rect fill="#F1F1F1" height="33.9688" rx="12.5" ry="12.5" style="stroke:#181818;stroke-width:0.5;" width="299" x="550" y="496.3438"/><text fill="#000000" font-family="sans-serif" font-size="12" lengthAdjust="spacing" textLength="279" x="560" y="517.4824">final Codecode=diagram.buildCode(idShort);</text><rect fill="#F1F1F1" height="33.9688" rx="12.5" ry="12.5" style="stroke:#181818;stroke-width:0.5;" width="179" x="610" y="598.7148"/><text fill="#000000" font-family="sans-serif" font-size="12" lengthAdjust="spacing" textLength="159" x="620" y="619.8535">display=code.getName();</text><polygon fill="#F1F1F1" points="658.5,550.3125,740.5,550.3125,752.5,562.3125,740.5,574.3125,658.5,574.3125,646.5,562.3125,658.5,550.3125" style="stroke:#181818;stroke-width:0.5;"/><text fill="#000000" font-family="sans-serif" font-size="11" lengthAdjust="spacing" textLength="20" x="703.5" y="584.5229">yes</text><text fill="#000000" font-family="sans-serif" font-size="11" lengthAdjust="spacing" textLength="78" x="658.5" y="566.1206">display==null</text><polygon fill="#F1F1F1" points="699.5,652.6836,711.5,664.6836,699.5,676.6836,687.5,664.6836,699.5,652.6836" style="stroke:#181818;stroke-width:0.5;"/><rect fill="#F1F1F1" height="47.9375" rx="12.5" ry="12.5" style="stroke:#181818;stroke-width:0.5;" width="484" x="457.5" y="696.6836"/><text fill="#000000" font-family="sans-serif" font-size="12" lengthAdjust="spacing" textLength="464" x="467.5" y="717.8223">final IEntityent=diagram.getOrCreateLeaf(diagram.buildLeafIdent(idShort),</text><text fill="#000000" font-family="sans-serif" font-size="12" lengthAdjust="spacing" textLength="100" x="467.5" y="731.791">code,null ,null );</text><rect fill="#F1F1F1" height="33.9688" rx="12.5" ry="12.5" style="stroke:#181818;stroke-width:0.5;" width="327" x="536" y="764.6211"/><text fill="#000000" font-family="sans-serif" font-size="12" lengthAdjust="spacing" textLength="307" x="546" y="785.7598">ent.setDisplay(Display.getWithNewlines(display));</text><rect fill="#F1F1F1" height="33.9688" rx="12.5" ry="12.5" style="stroke:#181818;stroke-width:0.5;" width="258" x="570.5" y="818.5898"/><text fill="#000000" font-family="sans-serif" font-size="12" lengthAdjust="spacing" textLength="238" x="580.5" y="839.7285">return CommandExecutionResult.ok();</text><ellipse cx="699.5" cy="883.5586" fill="none" rx="11" ry="11" style="stroke:#222222;stroke-width:1.0;"/><ellipse cx="699.5" cy="883.5586" fill="#222222" rx="6" ry="6" style="stroke:#111111;stroke-width:1.0;"/><ellipse cx="699.5" cy="914.5586" fill="none" rx="10" ry="10" style="stroke:#222222;stroke-width:1.5;"/><line style="stroke:#222222;stroke-width:2.5;" x1="693.3128" x2="705.6872" y1="908.3714" y2="920.7458"/><line style="stroke:#222222;stroke-width:2.5;" x1="705.6872" x2="693.3128" y1="908.3714" y2="920.7458"/><line style="stroke:#181818;stroke-width:1.0;" x1="699.5" x2="699.5" y1="32.5664" y2="55.1328"/><polygon fill="#181818" points="695.5,45.1328,699.5,55.1328,703.5,45.1328,699.5,49.1328" style="stroke:#181818;stroke-width:1.0;"/><line style="stroke:#181818;stroke-width:1.0;" x1="699.5" x2="699.5" y1="89.1016" y2="109.1016"/><polygon fill="#181818" points="695.5,99.1016,699.5,109.1016,703.5,99.1016,699.5,103.1016" style="stroke:#181818;stroke-width:1.0;"/><line style="stroke:#181818;stroke-width:1.0;" x1="699.5" x2="699.5" y1="161.668" y2="184.2344"/><polygon fill="#181818" points="695.5,174.2344,699.5,184.2344,703.5,174.2344,699.5,178.2344" style="stroke:#181818;stroke-width:1.0;"/><line style="stroke:#181818;stroke-width:1.0;" x1="699.5" x2="699.5" y1="246.1406" y2="266.1406"/><polygon fill="#181818" points="695.5,256.1406,699.5,266.1406,703.5,256.1406,699.5,260.1406" style="stroke:#181818;stroke-width:1.0;"/><line style="stroke:#181818;stroke-width:1.0;" x1="699.5" x2="699.5" y1="358.2734" y2="388.4063"/><polygon fill="#181818" points="695.5,378.4063,699.5,388.4063,703.5,378.4063,699.5,382.4063" style="stroke:#181818;stroke-width:1.0;"/><line style="stroke:#181818;stroke-width:1.0;" x1="699.5" x2="699.5" y1="422.375" y2="442.375"/><polygon fill="#181818" points="695.5,432.375,699.5,442.375,703.5,432.375,699.5,436.375" style="stroke:#181818;stroke-width:1.0;"/><line style="stroke:#181818;stroke-width:1.0;" x1="699.5" x2="699.5" y1="476.3438" y2="496.3438"/><polygon fill="#181818" points="695.5,486.3438,699.5,496.3438,703.5,486.3438,699.5,490.3438" style="stroke:#181818;stroke-width:1.0;"/><line style="stroke:#181818;stroke-width:1.0;" x1="699.5" x2="699.5" y1="574.3125" y2="598.7148"/><polygon fill="#181818" points="695.5,588.7148,699.5,598.7148,703.5,588.7148,699.5,592.7148" style="stroke:#181818;stroke-width:1.0;"/><line style="stroke:#181818;stroke-width:1.0;" x1="752.5" x2="799" y1="562.3125" y2="562.3125"/><polygon fill="#181818" points="795,605.6992,799,615.6992,803,605.6992,799,609.6992" style="stroke:#181818;stroke-width:1.0;"/><line style="stroke:#181818;stroke-width:1.0;" x1="799" x2="799" y1="562.3125" y2="664.6836"/><line style="stroke:#181818;stroke-width:1.0;" x1="799" x2="711.5" y1="664.6836" y2="664.6836"/><polygon fill="#181818" points="721.5,660.6836,711.5,664.6836,721.5,668.6836,717.5,664.6836" style="stroke:#181818;stroke-width:1.0;"/><line style="stroke:#181818;stroke-width:1.0;" x1="699.5" x2="699.5" y1="632.6836" y2="652.6836"/><polygon fill="#181818" points="695.5,642.6836,699.5,652.6836,703.5,642.6836,699.5,646.6836" style="stroke:#181818;stroke-width:1.0;"/><line style="stroke:#181818;stroke-width:1.0;" x1="699.5" x2="699.5" y1="530.3125" y2="550.3125"/><polygon fill="#181818" points="695.5,540.3125,699.5,550.3125,703.5,540.3125,699.5,544.3125" style="stroke:#181818;stroke-width:1.0;"/><line style="stroke:#181818;stroke-width:1.0;" x1="699.5" x2="699.5" y1="676.6836" y2="696.6836"/><polygon fill="#181818" points="695.5,686.6836,699.5,696.6836,703.5,686.6836,699.5,690.6836" style="stroke:#181818;stroke-width:1.0;"/><line style="stroke:#181818;stroke-width:1.0;" x1="699.5" x2="699.5" y1="744.6211" y2="764.6211"/><polygon fill="#181818" points="695.5,754.6211,699.5,764.6211,703.5,754.6211,699.5,758.6211" style="stroke:#181818;stroke-width:1.0;"/><line style="stroke:#181818;stroke-width:1.0;" x1="699.5" x2="699.5" y1="798.5898" y2="818.5898"/><polygon fill="#181818" points="695.5,808.5898,699.5,818.5898,703.5,808.5898,699.5,812.5898" style="stroke:#181818;stroke-width:1.0;"/><line style="stroke:#181818;stroke-width:1.0;" x1="699.5" x2="699.5" y1="852.5586" y2="872.5586"/><polygon fill="#181818" points="695.5,862.5586,699.5,872.5586,703.5,862.5586,699.5,866.5586" style="stroke:#181818;stroke-width:1.0;"/><!--MD5=[25f1653101b44e220ead8a98739c054d]
@startuml
!pragma layout smetana
start
note right
constructor CommandCreateBlock()
end note
:super (getRegexConcat());;
end
start
note right
IRegexgetRegexConcat()
end note
:return RegexConcat.build(CommandCreateBlock.class .getName(),RegexLeaf.start(),new RegexLeaf("block"),RegexLeaf.spaceOneOrMore(),new RegexOptional(new RegexConcat(new RegexLeaf("DISPLAY","[%g]([^%g]+
)[%g]"),RegexLeaf.spaceOneOrMore(),new RegexLeaf("as"),RegexLeaf.spaceOneOrMore())),new RegexLeaf("CODE","([%pLN_.]+
)"),RegexLeaf.end());;
stop
end
start
note right
CommandExecutionResultexecuteArg(CompositeDiagramdiagram,
LineLocationlocation,RegexResultarg)
end note
:Stringdisplay=arg.get("DISPLAY",0);;
:final StringidShort=arg.get("CODE",0);;
:final Codecode=diagram.buildCode(idShort);;
if (display==null ) then (yes) 
:display=code.getName();;
endif 
:final IEntityent=diagram.getOrCreateLeaf(diagram.buildLeafIdent(idShort),
code,null ,null );;
:ent.setDisplay(Display.getWithNewlines(display));;
:return CommandExecutionResult.ok();;
stop
end
@enduml

PlantUML version 1.2022.7(Mon Aug 22 17:01:30 UTC 2022)
(GPL source distribution)
Java Runtime: OpenJDK Runtime Environment
JVM: OpenJDK 64-Bit Server VM
Default Encoding: UTF-8
Language: en
Country: null
--></g></svg>