<?xml version="1.0" encoding="UTF-8" standalone="no"?><svg xmlns="http://www.w3.org/2000/svg" xmlns:xlink="http://www.w3.org/1999/xlink" contentStyleType="text/css" height="2436px" preserveAspectRatio="none" style="width:778px;height:2436px;background:#FFFFFF;" version="1.1" viewBox="0 0 778 2436" width="778px" zoomAndPan="magnify"><defs/><g><path d="M313.5,10 L313.5,18.5664 L293.5,22.5664 L313.5,26.5664 L313.5,35.1328 A0,0 0 0 0 313.5,35.1328 L644.5,35.1328 A0,0 0 0 0 644.5,35.1328 L644.5,20 L634.5,10 L313.5,10 A0,0 0 0 0 313.5,10 " fill="#FEFFDD" style="stroke:#181818;stroke-width:0.5;"/><path d="M634.5,10 L634.5,20 L644.5,20 L634.5,10 " fill="#FEFFDD" style="stroke:#181818;stroke-width:0.5;"/><text fill="#000000" font-family="sans-serif" font-size="13" lengthAdjust="spacing" textLength="310" x="319.5" y="27.0669">constructor AbstractFtile(ISkinParam skinParam)</text><ellipse cx="283.5" cy="22.5664" fill="#222222" rx="10" ry="10" style="stroke:#222222;stroke-width:1.0;"/><rect fill="#F1F1F1" height="33.9688" rx="12.5" ry="12.5" style="stroke:#181818;stroke-width:0.5;" width="191" x="188" y="55.1328"/><text fill="#000000" font-family="sans-serif" font-size="12" lengthAdjust="spacing" textLength="171" x="198" y="76.2715">this.skinParam=skinParam;</text><ellipse cx="283.5" cy="119.1016" fill="none" rx="10" ry="10" style="stroke:#222222;stroke-width:1.5;"/><line style="stroke:#222222;stroke-width:2.5;" x1="277.3128" x2="289.6872" y1="112.9144" y2="125.2887"/><line style="stroke:#222222;stroke-width:2.5;" x1="289.6872" x2="277.3128" y1="112.9144" y2="125.2887"/><path d="M313.5,139.1016 L313.5,147.668 L293.5,151.668 L313.5,155.668 L313.5,164.2344 A0,0 0 0 0 313.5,164.2344 L487.5,164.2344 A0,0 0 0 0 487.5,164.2344 L487.5,149.1016 L477.5,139.1016 L313.5,139.1016 A0,0 0 0 0 313.5,139.1016 " fill="#FEFFDD" style="stroke:#181818;stroke-width:0.5;"/><path d="M477.5,139.1016 L477.5,149.1016 L487.5,149.1016 L477.5,139.1016 " fill="#FEFFDD" style="stroke:#181818;stroke-width:0.5;"/><text fill="#000000" font-family="sans-serif" font-size="13" lengthAdjust="spacing" textLength="153" x="319.5" y="156.1685">ISkinParam skinParam()</text><ellipse cx="283.5" cy="151.668" fill="#222222" rx="10" ry="10" style="stroke:#222222;stroke-width:1.0;"/><rect fill="#F1F1F1" height="33.9688" rx="12.5" ry="12.5" style="stroke:#181818;stroke-width:0.5;" width="233" x="167" y="232.6367"/><text fill="#000000" font-family="sans-serif" font-size="12" lengthAdjust="spacing" textLength="213" x="177" y="253.7754">throw new IllegalStateException();</text><ellipse cx="283.5" cy="306.1211" fill="none" rx="11" ry="11" style="stroke:#222222;stroke-width:1.0;"/><ellipse cx="283.5" cy="306.1211" fill="#222222" rx="6" ry="6" style="stroke:#111111;stroke-width:1.0;"/><polygon fill="#F1F1F1" points="232.5,184.2344,334.5,184.2344,346.5,196.2344,334.5,208.2344,232.5,208.2344,220.5,196.2344,232.5,184.2344" style="stroke:#181818;stroke-width:0.5;"/><text fill="#000000" font-family="sans-serif" font-size="11" lengthAdjust="spacing" textLength="20" x="287.5" y="218.4448">yes</text><text fill="#000000" font-family="sans-serif" font-size="11" lengthAdjust="spacing" textLength="98" x="232.5" y="200.0425">skinParam==null</text><rect fill="#F1F1F1" height="33.9688" rx="12.5" ry="12.5" style="stroke:#181818;stroke-width:0.5;" width="132" x="217.5" y="359.1211"/><text fill="#000000" font-family="sans-serif" font-size="12" lengthAdjust="spacing" textLength="112" x="227.5" y="380.2598">return skinParam;</text><ellipse cx="283.5" cy="424.0898" fill="none" rx="11" ry="11" style="stroke:#222222;stroke-width:1.0;"/><ellipse cx="283.5" cy="424.0898" fill="#222222" rx="6" ry="6" style="stroke:#111111;stroke-width:1.0;"/><ellipse cx="283.5" cy="455.0898" fill="none" rx="10" ry="10" style="stroke:#222222;stroke-width:1.5;"/><line style="stroke:#222222;stroke-width:2.5;" x1="277.3128" x2="289.6872" y1="448.9027" y2="461.277"/><line style="stroke:#222222;stroke-width:2.5;" x1="289.6872" x2="277.3128" y1="448.9027" y2="461.277"/><path d="M313.5,475.0898 L313.5,483.6563 L293.5,487.6563 L313.5,491.6563 L313.5,500.2227 A0,0 0 0 0 313.5,500.2227 L523.5,500.2227 A0,0 0 0 0 523.5,500.2227 L523.5,485.0898 L513.5,475.0898 L313.5,475.0898 A0,0 0 0 0 313.5,475.0898 " fill="#FEFFDD" style="stroke:#181818;stroke-width:0.5;"/><path d="M513.5,475.0898 L513.5,485.0898 L523.5,485.0898 L513.5,475.0898 " fill="#FEFFDD" style="stroke:#181818;stroke-width:0.5;"/><text fill="#000000" font-family="sans-serif" font-size="13" lengthAdjust="spacing" textLength="189" x="319.5" y="492.1567">HColorSet getIHtmlColorSet()</text><ellipse cx="283.5" cy="487.6563" fill="#222222" rx="10" ry="10" style="stroke:#222222;stroke-width:1.0;"/><rect fill="#F1F1F1" height="33.9688" rx="12.5" ry="12.5" style="stroke:#181818;stroke-width:0.5;" width="251" x="158" y="520.2227"/><text fill="#000000" font-family="sans-serif" font-size="12" lengthAdjust="spacing" textLength="231" x="168" y="541.3613">return skinParam.getIHtmlColorSet();</text><ellipse cx="283.5" cy="585.1914" fill="none" rx="11" ry="11" style="stroke:#222222;stroke-width:1.0;"/><ellipse cx="283.5" cy="585.1914" fill="#222222" rx="6" ry="6" style="stroke:#111111;stroke-width:1.0;"/><ellipse cx="283.5" cy="616.1914" fill="none" rx="10" ry="10" style="stroke:#222222;stroke-width:1.5;"/><line style="stroke:#222222;stroke-width:2.5;" x1="277.3128" x2="289.6872" y1="610.0042" y2="622.3786"/><line style="stroke:#222222;stroke-width:2.5;" x1="289.6872" x2="277.3128" y1="610.0042" y2="622.3786"/><path d="M313.5,636.1914 L313.5,644.7578 L293.5,648.7578 L313.5,652.7578 L313.5,661.3242 A0,0 0 0 0 313.5,661.3242 L558.5,661.3242 A0,0 0 0 0 558.5,661.3242 L558.5,646.1914 L548.5,636.1914 L313.5,636.1914 A0,0 0 0 0 313.5,636.1914 " fill="#FEFFDD" style="stroke:#181818;stroke-width:0.5;"/><path d="M548.5,636.1914 L548.5,646.1914 L558.5,646.1914 L548.5,636.1914 " fill="#FEFFDD" style="stroke:#181818;stroke-width:0.5;"/><text fill="#000000" font-family="sans-serif" font-size="13" lengthAdjust="spacing" textLength="224" x="319.5" y="653.2583">LinkRendering getInLinkRendering()</text><ellipse cx="283.5" cy="648.7578" fill="#222222" rx="10" ry="10" style="stroke:#222222;stroke-width:1.0;"/><rect fill="#F1F1F1" height="33.9688" rx="12.5" ry="12.5" style="stroke:#181818;stroke-width:0.5;" width="201" x="183" y="681.3242"/><text fill="#000000" font-family="sans-serif" font-size="12" lengthAdjust="spacing" textLength="181" x="193" y="702.4629">return LinkRendering.none();</text><ellipse cx="283.5" cy="746.293" fill="none" rx="11" ry="11" style="stroke:#222222;stroke-width:1.0;"/><ellipse cx="283.5" cy="746.293" fill="#222222" rx="6" ry="6" style="stroke:#111111;stroke-width:1.0;"/><ellipse cx="283.5" cy="777.293" fill="none" rx="10" ry="10" style="stroke:#222222;stroke-width:1.5;"/><line style="stroke:#222222;stroke-width:2.5;" x1="277.3128" x2="289.6872" y1="771.1058" y2="783.4802"/><line style="stroke:#222222;stroke-width:2.5;" x1="289.6872" x2="277.3128" y1="771.1058" y2="783.4802"/><path d="M313.5,797.293 L313.5,805.8594 L293.5,809.8594 L313.5,813.8594 L313.5,822.4258 A0,0 0 0 0 313.5,822.4258 L570.5,822.4258 A0,0 0 0 0 570.5,822.4258 L570.5,807.293 L560.5,797.293 L313.5,797.293 A0,0 0 0 0 313.5,797.293 " fill="#FEFFDD" style="stroke:#181818;stroke-width:0.5;"/><path d="M560.5,797.293 L560.5,807.293 L570.5,807.293 L560.5,797.293 " fill="#FEFFDD" style="stroke:#181818;stroke-width:0.5;"/><text fill="#000000" font-family="sans-serif" font-size="13" lengthAdjust="spacing" textLength="236" x="319.5" y="814.3599">LinkRendering getOutLinkRendering()</text><ellipse cx="283.5" cy="809.8594" fill="#222222" rx="10" ry="10" style="stroke:#222222;stroke-width:1.0;"/><rect fill="#F1F1F1" height="33.9688" rx="12.5" ry="12.5" style="stroke:#181818;stroke-width:0.5;" width="201" x="183" y="842.4258"/><text fill="#000000" font-family="sans-serif" font-size="12" lengthAdjust="spacing" textLength="181" x="193" y="863.5645">return LinkRendering.none();</text><ellipse cx="283.5" cy="907.3945" fill="none" rx="11" ry="11" style="stroke:#222222;stroke-width:1.0;"/><ellipse cx="283.5" cy="907.3945" fill="#222222" rx="6" ry="6" style="stroke:#111111;stroke-width:1.0;"/><ellipse cx="283.5" cy="938.3945" fill="none" rx="10" ry="10" style="stroke:#222222;stroke-width:1.5;"/><line style="stroke:#222222;stroke-width:2.5;" x1="277.3128" x2="289.6872" y1="932.2073" y2="944.5817"/><line style="stroke:#222222;stroke-width:2.5;" x1="289.6872" x2="277.3128" y1="932.2073" y2="944.5817"/><path d="M313.5,958.3945 L313.5,966.9609 L293.5,970.9609 L313.5,974.9609 L313.5,983.5273 A0,0 0 0 0 313.5,983.5273 L636.5,983.5273 A0,0 0 0 0 636.5,983.5273 L636.5,968.3945 L626.5,958.3945 L313.5,958.3945 A0,0 0 0 0 313.5,958.3945 " fill="#FEFFDD" style="stroke:#181818;stroke-width:0.5;"/><path d="M626.5,958.3945 L626.5,968.3945 L636.5,968.3945 L626.5,958.3945 " fill="#FEFFDD" style="stroke:#181818;stroke-width:0.5;"/><text fill="#000000" font-family="sans-serif" font-size="13" lengthAdjust="spacing" textLength="302" x="319.5" y="975.4614">Collection&lt;Connection&gt; getInnerConnections()</text><ellipse cx="283.5" cy="970.9609" fill="#222222" rx="10" ry="10" style="stroke:#222222;stroke-width:1.0;"/><rect fill="#F1F1F1" height="33.9688" rx="12.5" ry="12.5" style="stroke:#181818;stroke-width:0.5;" width="208" x="179.5" y="1003.5273"/><text fill="#000000" font-family="sans-serif" font-size="12" lengthAdjust="spacing" textLength="188" x="189.5" y="1024.666">return Collections.emptyList();</text><ellipse cx="283.5" cy="1068.4961" fill="none" rx="11" ry="11" style="stroke:#222222;stroke-width:1.0;"/><ellipse cx="283.5" cy="1068.4961" fill="#222222" rx="6" ry="6" style="stroke:#111111;stroke-width:1.0;"/><ellipse cx="283.5" cy="1099.4961" fill="none" rx="10" ry="10" style="stroke:#222222;stroke-width:1.5;"/><line style="stroke:#222222;stroke-width:2.5;" x1="277.3128" x2="289.6872" y1="1093.3089" y2="1105.6833"/><line style="stroke:#222222;stroke-width:2.5;" x1="289.6872" x2="277.3128" y1="1093.3089" y2="1105.6833"/><path d="M313.5,1119.4961 L313.5,1128.0625 L293.5,1132.0625 L313.5,1136.0625 L313.5,1144.6289 A0,0 0 0 0 313.5,1144.6289 L766.5,1144.6289 A0,0 0 0 0 766.5,1144.6289 L766.5,1129.4961 L756.5,1119.4961 L313.5,1119.4961 A0,0 0 0 0 313.5,1119.4961 " fill="#FEFFDD" style="stroke:#181818;stroke-width:0.5;"/><path d="M756.5,1119.4961 L756.5,1129.4961 L766.5,1129.4961 L756.5,1119.4961 " fill="#FEFFDD" style="stroke:#181818;stroke-width:0.5;"/><text fill="#000000" font-family="sans-serif" font-size="13" lengthAdjust="spacing" textLength="432" x="319.5" y="1136.563">UTranslate getTranslateFor(Ftile child,StringBounder stringBounder)</text><ellipse cx="283.5" cy="1132.0625" fill="#222222" rx="10" ry="10" style="stroke:#222222;stroke-width:1.0;"/><rect fill="#F1F1F1" height="47.9375" rx="12.5" ry="12.5" style="stroke:#181818;stroke-width:0.5;" width="318" x="124.5" y="1164.6289"/><text fill="#000000" font-family="sans-serif" font-size="12" lengthAdjust="spacing" textLength="298" x="134.5" y="1185.7676">throw new UnsupportedOperationException(""+</text><text fill="#000000" font-family="sans-serif" font-size="12" lengthAdjust="spacing" textLength="73" x="134.5" y="1199.7363">getClass());</text><ellipse cx="283.5" cy="1243.5664" fill="none" rx="11" ry="11" style="stroke:#222222;stroke-width:1.0;"/><ellipse cx="283.5" cy="1243.5664" fill="#222222" rx="6" ry="6" style="stroke:#111111;stroke-width:1.0;"/><ellipse cx="283.5" cy="1274.5664" fill="none" rx="10" ry="10" style="stroke:#222222;stroke-width:1.5;"/><line style="stroke:#222222;stroke-width:2.5;" x1="277.3128" x2="289.6872" y1="1268.3792" y2="1280.7536"/><line style="stroke:#222222;stroke-width:2.5;" x1="289.6872" x2="277.3128" y1="1268.3792" y2="1280.7536"/><path d="M313.5,1294.5664 L313.5,1303.1328 L293.5,1307.1328 L313.5,1311.1328 L313.5,1319.6992 A0,0 0 0 0 313.5,1319.6992 L549.5,1319.6992 A0,0 0 0 0 549.5,1319.6992 L549.5,1304.5664 L539.5,1294.5664 L313.5,1294.5664 A0,0 0 0 0 313.5,1294.5664 " fill="#FEFFDD" style="stroke:#181818;stroke-width:0.5;"/><path d="M539.5,1294.5664 L539.5,1304.5664 L549.5,1304.5664 L539.5,1294.5664 " fill="#FEFFDD" style="stroke:#181818;stroke-width:0.5;"/><text fill="#000000" font-family="sans-serif" font-size="13" lengthAdjust="spacing" textLength="215" x="319.5" y="1311.6333">UStroke getThickness(Style style)</text><ellipse cx="283.5" cy="1307.1328" fill="#222222" rx="10" ry="10" style="stroke:#222222;stroke-width:1.0;"/><rect fill="#F1F1F1" height="33.9688" rx="12.5" ry="12.5" style="stroke:#181818;stroke-width:0.5;" width="172" x="197.5" y="1339.6992"/><text fill="#000000" font-family="sans-serif" font-size="12" lengthAdjust="spacing" textLength="152" x="207.5" y="1360.8379">return style.getStroke();</text><ellipse cx="283.5" cy="1404.668" fill="none" rx="11" ry="11" style="stroke:#222222;stroke-width:1.0;"/><ellipse cx="283.5" cy="1404.668" fill="#222222" rx="6" ry="6" style="stroke:#111111;stroke-width:1.0;"/><ellipse cx="283.5" cy="1435.668" fill="none" rx="10" ry="10" style="stroke:#222222;stroke-width:1.5;"/><line style="stroke:#222222;stroke-width:2.5;" x1="277.3128" x2="289.6872" y1="1429.4808" y2="1441.8552"/><line style="stroke:#222222;stroke-width:2.5;" x1="289.6872" x2="277.3128" y1="1429.4808" y2="1441.8552"/><path d="M313.5,1455.668 L313.5,1464.2344 L293.5,1468.2344 L313.5,1472.2344 L313.5,1480.8008 A0,0 0 0 0 313.5,1480.8008 L582.5,1480.8008 A0,0 0 0 0 582.5,1480.8008 L582.5,1465.668 L572.5,1455.668 L313.5,1455.668 A0,0 0 0 0 313.5,1455.668 " fill="#FEFFDD" style="stroke:#181818;stroke-width:0.5;"/><path d="M572.5,1455.668 L572.5,1465.668 L582.5,1465.668 L572.5,1455.668 " fill="#FEFFDD" style="stroke:#181818;stroke-width:0.5;"/><text fill="#000000" font-family="sans-serif" font-size="13" lengthAdjust="spacing" textLength="248" x="319.5" y="1472.7349">List&lt;WeldingPoint&gt; getWeldingPoints()</text><ellipse cx="283.5" cy="1468.2344" fill="#222222" rx="10" ry="10" style="stroke:#222222;stroke-width:1.0;"/><rect fill="#F1F1F1" height="33.9688" rx="12.5" ry="12.5" style="stroke:#181818;stroke-width:0.5;" width="208" x="179.5" y="1500.8008"/><text fill="#000000" font-family="sans-serif" font-size="12" lengthAdjust="spacing" textLength="188" x="189.5" y="1521.9395">return Collections.emptyList();</text><ellipse cx="283.5" cy="1565.7695" fill="none" rx="11" ry="11" style="stroke:#222222;stroke-width:1.0;"/><ellipse cx="283.5" cy="1565.7695" fill="#222222" rx="6" ry="6" style="stroke:#111111;stroke-width:1.0;"/><ellipse cx="283.5" cy="1596.7695" fill="none" rx="10" ry="10" style="stroke:#222222;stroke-width:1.5;"/><line style="stroke:#222222;stroke-width:2.5;" x1="277.3128" x2="289.6872" y1="1590.5823" y2="1602.9567"/><line style="stroke:#222222;stroke-width:2.5;" x1="289.6872" x2="277.3128" y1="1590.5823" y2="1602.9567"/><path d="M313.5,1616.7695 L313.5,1625.3359 L293.5,1629.3359 L313.5,1633.3359 L313.5,1641.9023 A0,0 0 0 0 313.5,1641.9023 L549.5,1641.9023 A0,0 0 0 0 549.5,1641.9023 L549.5,1626.7695 L539.5,1616.7695 L313.5,1616.7695 A0,0 0 0 0 313.5,1616.7695 " fill="#FEFFDD" style="stroke:#181818;stroke-width:0.5;"/><path d="M539.5,1616.7695 L539.5,1626.7695 L549.5,1626.7695 L539.5,1616.7695 " fill="#FEFFDD" style="stroke:#181818;stroke-width:0.5;"/><text fill="#000000" font-family="sans-serif" font-size="13" lengthAdjust="spacing" textLength="215" x="319.5" y="1633.8364">Collection&lt;Ftile&gt; getMyChildren()</text><ellipse cx="283.5" cy="1629.3359" fill="#222222" rx="10" ry="10" style="stroke:#222222;stroke-width:1.0;"/><rect fill="#F1F1F1" height="47.9375" rx="12.5" ry="12.5" style="stroke:#181818;stroke-width:0.5;" width="318" x="124.5" y="1661.9023"/><text fill="#000000" font-family="sans-serif" font-size="12" lengthAdjust="spacing" textLength="298" x="134.5" y="1683.041">throw new UnsupportedOperationException(""+</text><text fill="#000000" font-family="sans-serif" font-size="12" lengthAdjust="spacing" textLength="73" x="134.5" y="1697.0098">getClass());</text><ellipse cx="283.5" cy="1740.8398" fill="none" rx="11" ry="11" style="stroke:#222222;stroke-width:1.0;"/><ellipse cx="283.5" cy="1740.8398" fill="#222222" rx="6" ry="6" style="stroke:#111111;stroke-width:1.0;"/><ellipse cx="283.5" cy="1771.8398" fill="none" rx="10" ry="10" style="stroke:#222222;stroke-width:1.5;"/><line style="stroke:#222222;stroke-width:2.5;" x1="277.3128" x2="289.6872" y1="1765.6527" y2="1778.027"/><line style="stroke:#222222;stroke-width:2.5;" x1="289.6872" x2="277.3128" y1="1765.6527" y2="1778.027"/><path d="M313.5,1791.8398 L313.5,1800.4063 L293.5,1804.4063 L313.5,1808.4063 L313.5,1816.9727 A0,0 0 0 0 313.5,1816.9727 L643.5,1816.9727 A0,0 0 0 0 643.5,1816.9727 L643.5,1801.8398 L633.5,1791.8398 L313.5,1791.8398 A0,0 0 0 0 313.5,1791.8398 " fill="#FEFFDD" style="stroke:#181818;stroke-width:0.5;"/><path d="M633.5,1791.8398 L633.5,1801.8398 L643.5,1801.8398 L633.5,1791.8398 " fill="#FEFFDD" style="stroke:#181818;stroke-width:0.5;"/><text fill="#000000" font-family="sans-serif" font-size="13" lengthAdjust="spacing" textLength="309" x="319.5" y="1808.9067">HorizontalAlignment arrowHorizontalAlignment()</text><ellipse cx="283.5" cy="1804.4063" fill="#222222" rx="10" ry="10" style="stroke:#222222;stroke-width:1.0;"/><rect fill="#F1F1F1" height="47.9375" rx="12.5" ry="12.5" style="stroke:#181818;stroke-width:0.5;" width="545" x="11" y="1836.9727"/><text fill="#000000" font-family="sans-serif" font-size="12" lengthAdjust="spacing" textLength="525" x="21" y="1858.1113">return skinParam.getHorizontalAlignment(AlignmentParam.arrowMessageAlignment,</text><text fill="#000000" font-family="sans-serif" font-size="12" lengthAdjust="spacing" textLength="99" x="21" y="1872.0801">null ,false,null );</text><ellipse cx="283.5" cy="1915.9102" fill="none" rx="11" ry="11" style="stroke:#222222;stroke-width:1.0;"/><ellipse cx="283.5" cy="1915.9102" fill="#222222" rx="6" ry="6" style="stroke:#111111;stroke-width:1.0;"/><ellipse cx="283.5" cy="1946.9102" fill="none" rx="10" ry="10" style="stroke:#222222;stroke-width:1.5;"/><line style="stroke:#222222;stroke-width:2.5;" x1="277.3128" x2="289.6872" y1="1940.723" y2="1953.0973"/><line style="stroke:#222222;stroke-width:2.5;" x1="289.6872" x2="277.3128" y1="1940.723" y2="1953.0973"/><path d="M313.5,1966.9102 L313.5,1975.4766 L293.5,1979.4766 L313.5,1983.4766 L313.5,1992.043 A0,0 0 0 0 313.5,1992.043 L749.5,1992.043 A0,0 0 0 0 749.5,1992.043 L749.5,1976.9102 L739.5,1966.9102 L313.5,1966.9102 A0,0 0 0 0 313.5,1966.9102 " fill="#FEFFDD" style="stroke:#181818;stroke-width:0.5;"/><path d="M739.5,1966.9102 L739.5,1976.9102 L749.5,1976.9102 L739.5,1966.9102 " fill="#FEFFDD" style="stroke:#181818;stroke-width:0.5;"/><text fill="#000000" font-family="sans-serif" font-size="13" lengthAdjust="spacing" textLength="415" x="319.5" y="1983.9771">FtileGeometry calculateDimension(StringBounder stringBounder)</text><ellipse cx="283.5" cy="1979.4766" fill="#222222" rx="10" ry="10" style="stroke:#222222;stroke-width:1.0;"/><rect fill="#F1F1F1" height="33.9688" rx="12.5" ry="12.5" style="stroke:#181818;stroke-width:0.5;" width="387" x="90" y="2060.4453"/><text fill="#000000" font-family="sans-serif" font-size="12" lengthAdjust="spacing" textLength="367" x="100" y="2081.584">cachedGeometry=calculateDimensionFtile(stringBounder);</text><polygon fill="#F1F1F1" points="214.5,2012.043,352.5,2012.043,364.5,2024.043,352.5,2036.043,214.5,2036.043,202.5,2024.043,214.5,2012.043" style="stroke:#181818;stroke-width:0.5;"/><text fill="#000000" font-family="sans-serif" font-size="11" lengthAdjust="spacing" textLength="20" x="287.5" y="2046.2534">yes</text><text fill="#000000" font-family="sans-serif" font-size="11" lengthAdjust="spacing" textLength="134" x="214.5" y="2027.8511">cachedGeometry==null</text><polygon fill="#F1F1F1" points="283.5,2114.4141,295.5,2126.4141,283.5,2138.4141,271.5,2126.4141,283.5,2114.4141" style="stroke:#181818;stroke-width:0.5;"/><rect fill="#F1F1F1" height="33.9688" rx="12.5" ry="12.5" style="stroke:#181818;stroke-width:0.5;" width="173" x="197" y="2158.4141"/><text fill="#000000" font-family="sans-serif" font-size="12" lengthAdjust="spacing" textLength="153" x="207" y="2179.5527">return cachedGeometry;</text><ellipse cx="283.5" cy="2223.3828" fill="none" rx="11" ry="11" style="stroke:#222222;stroke-width:1.0;"/><ellipse cx="283.5" cy="2223.3828" fill="#222222" rx="6" ry="6" style="stroke:#111111;stroke-width:1.0;"/><ellipse cx="283.5" cy="2254.3828" fill="none" rx="10" ry="10" style="stroke:#222222;stroke-width:1.5;"/><line style="stroke:#222222;stroke-width:2.5;" x1="277.3128" x2="289.6872" y1="2248.1956" y2="2260.57"/><line style="stroke:#222222;stroke-width:2.5;" x1="289.6872" x2="277.3128" y1="2248.1956" y2="2260.57"/><path d="M313.5,2274.3828 L313.5,2282.9492 L293.5,2286.9492 L313.5,2290.9492 L313.5,2299.5156 A0,0 0 0 0 313.5,2299.5156 L651.5,2299.5156 A0,0 0 0 0 651.5,2299.5156 L651.5,2284.3828 L641.5,2274.3828 L313.5,2274.3828 A0,0 0 0 0 313.5,2274.3828 " fill="#FEFFDD" style="stroke:#181818;stroke-width:0.5;"/><path d="M641.5,2274.3828 L641.5,2284.3828 L651.5,2284.3828 L641.5,2274.3828 " fill="#FEFFDD" style="stroke:#181818;stroke-width:0.5;"/><text fill="#000000" font-family="sans-serif" font-size="13" lengthAdjust="spacing" textLength="317" x="319.5" y="2291.4497">MinMax getMinMax(StringBounder stringBounder)</text><ellipse cx="283.5" cy="2286.9492" fill="#222222" rx="10" ry="10" style="stroke:#222222;stroke-width:1.0;"/><rect fill="#F1F1F1" height="33.9688" rx="12.5" ry="12.5" style="stroke:#181818;stroke-width:0.5;" width="307" x="130" y="2319.5156"/><text fill="#000000" font-family="sans-serif" font-size="12" lengthAdjust="spacing" textLength="287" x="140" y="2340.6543">throw new UnsupportedOperationException();</text><ellipse cx="283.5" cy="2384.4844" fill="none" rx="11" ry="11" style="stroke:#222222;stroke-width:1.0;"/><ellipse cx="283.5" cy="2384.4844" fill="#222222" rx="6" ry="6" style="stroke:#111111;stroke-width:1.0;"/><ellipse cx="283.5" cy="2415.4844" fill="none" rx="10" ry="10" style="stroke:#222222;stroke-width:1.5;"/><line style="stroke:#222222;stroke-width:2.5;" x1="277.3128" x2="289.6872" y1="2409.2972" y2="2421.6716"/><line style="stroke:#222222;stroke-width:2.5;" x1="289.6872" x2="277.3128" y1="2409.2972" y2="2421.6716"/><line style="stroke:#181818;stroke-width:1.0;" x1="283.5" x2="283.5" y1="32.5664" y2="55.1328"/><polygon fill="#181818" points="279.5,45.1328,283.5,55.1328,287.5,45.1328,283.5,49.1328" style="stroke:#181818;stroke-width:1.0;"/><line style="stroke:#181818;stroke-width:1.0;" x1="283.5" x2="283.5" y1="89.1016" y2="109.1016"/><polygon fill="#181818" points="279.5,99.1016,283.5,109.1016,287.5,99.1016,283.5,103.1016" style="stroke:#181818;stroke-width:1.0;"/><line style="stroke:#181818;stroke-width:1.0;" x1="283.5" x2="283.5" y1="266.6055" y2="295.1211"/><polygon fill="#181818" points="279.5,285.1211,283.5,295.1211,287.5,285.1211,283.5,289.1211" style="stroke:#181818;stroke-width:1.0;"/><line style="stroke:#181818;stroke-width:1.0;" x1="283.5" x2="283.5" y1="208.2344" y2="232.6367"/><polygon fill="#181818" points="279.5,222.6367,283.5,232.6367,287.5,222.6367,283.5,226.6367" style="stroke:#181818;stroke-width:1.0;"/><line style="stroke:#181818;stroke-width:1.0;" x1="346.5" x2="410" y1="196.2344" y2="196.2344"/><polygon fill="#181818" points="406,265.1211,410,275.1211,414,265.1211,410,269.1211" style="stroke:#181818;stroke-width:1.0;"/><line style="stroke:#181818;stroke-width:1.0;" x1="410" x2="410" y1="196.2344" y2="339.1211"/><line style="stroke:#181818;stroke-width:1.0;" x1="410" x2="283.5" y1="339.1211" y2="339.1211"/><line style="stroke:#181818;stroke-width:1.0;" x1="283.5" x2="283.5" y1="339.1211" y2="359.1211"/><polygon fill="#181818" points="279.5,349.1211,283.5,359.1211,287.5,349.1211,283.5,353.1211" style="stroke:#181818;stroke-width:1.0;"/><line style="stroke:#181818;stroke-width:1.0;" x1="283.5" x2="283.5" y1="161.668" y2="184.2344"/><polygon fill="#181818" points="279.5,174.2344,283.5,184.2344,287.5,174.2344,283.5,178.2344" style="stroke:#181818;stroke-width:1.0;"/><line style="stroke:#181818;stroke-width:1.0;" x1="283.5" x2="283.5" y1="393.0898" y2="413.0898"/><polygon fill="#181818" points="279.5,403.0898,283.5,413.0898,287.5,403.0898,283.5,407.0898" style="stroke:#181818;stroke-width:1.0;"/><line style="stroke:#181818;stroke-width:1.0;" x1="283.5" x2="283.5" y1="497.6563" y2="520.2227"/><polygon fill="#181818" points="279.5,510.2227,283.5,520.2227,287.5,510.2227,283.5,514.2227" style="stroke:#181818;stroke-width:1.0;"/><line style="stroke:#181818;stroke-width:1.0;" x1="283.5" x2="283.5" y1="554.1914" y2="574.1914"/><polygon fill="#181818" points="279.5,564.1914,283.5,574.1914,287.5,564.1914,283.5,568.1914" style="stroke:#181818;stroke-width:1.0;"/><line style="stroke:#181818;stroke-width:1.0;" x1="283.5" x2="283.5" y1="658.7578" y2="681.3242"/><polygon fill="#181818" points="279.5,671.3242,283.5,681.3242,287.5,671.3242,283.5,675.3242" style="stroke:#181818;stroke-width:1.0;"/><line style="stroke:#181818;stroke-width:1.0;" x1="283.5" x2="283.5" y1="715.293" y2="735.293"/><polygon fill="#181818" points="279.5,725.293,283.5,735.293,287.5,725.293,283.5,729.293" style="stroke:#181818;stroke-width:1.0;"/><line style="stroke:#181818;stroke-width:1.0;" x1="283.5" x2="283.5" y1="819.8594" y2="842.4258"/><polygon fill="#181818" points="279.5,832.4258,283.5,842.4258,287.5,832.4258,283.5,836.4258" style="stroke:#181818;stroke-width:1.0;"/><line style="stroke:#181818;stroke-width:1.0;" x1="283.5" x2="283.5" y1="876.3945" y2="896.3945"/><polygon fill="#181818" points="279.5,886.3945,283.5,896.3945,287.5,886.3945,283.5,890.3945" style="stroke:#181818;stroke-width:1.0;"/><line style="stroke:#181818;stroke-width:1.0;" x1="283.5" x2="283.5" y1="980.9609" y2="1003.5273"/><polygon fill="#181818" points="279.5,993.5273,283.5,1003.5273,287.5,993.5273,283.5,997.5273" style="stroke:#181818;stroke-width:1.0;"/><line style="stroke:#181818;stroke-width:1.0;" x1="283.5" x2="283.5" y1="1037.4961" y2="1057.4961"/><polygon fill="#181818" points="279.5,1047.4961,283.5,1057.4961,287.5,1047.4961,283.5,1051.4961" style="stroke:#181818;stroke-width:1.0;"/><line style="stroke:#181818;stroke-width:1.0;" x1="283.5" x2="283.5" y1="1142.0625" y2="1164.6289"/><polygon fill="#181818" points="279.5,1154.6289,283.5,1164.6289,287.5,1154.6289,283.5,1158.6289" style="stroke:#181818;stroke-width:1.0;"/><line style="stroke:#181818;stroke-width:1.0;" x1="283.5" x2="283.5" y1="1212.5664" y2="1232.5664"/><polygon fill="#181818" points="279.5,1222.5664,283.5,1232.5664,287.5,1222.5664,283.5,1226.5664" style="stroke:#181818;stroke-width:1.0;"/><line style="stroke:#181818;stroke-width:1.0;" x1="283.5" x2="283.5" y1="1317.1328" y2="1339.6992"/><polygon fill="#181818" points="279.5,1329.6992,283.5,1339.6992,287.5,1329.6992,283.5,1333.6992" style="stroke:#181818;stroke-width:1.0;"/><line style="stroke:#181818;stroke-width:1.0;" x1="283.5" x2="283.5" y1="1373.668" y2="1393.668"/><polygon fill="#181818" points="279.5,1383.668,283.5,1393.668,287.5,1383.668,283.5,1387.668" style="stroke:#181818;stroke-width:1.0;"/><line style="stroke:#181818;stroke-width:1.0;" x1="283.5" x2="283.5" y1="1478.2344" y2="1500.8008"/><polygon fill="#181818" points="279.5,1490.8008,283.5,1500.8008,287.5,1490.8008,283.5,1494.8008" style="stroke:#181818;stroke-width:1.0;"/><line style="stroke:#181818;stroke-width:1.0;" x1="283.5" x2="283.5" y1="1534.7695" y2="1554.7695"/><polygon fill="#181818" points="279.5,1544.7695,283.5,1554.7695,287.5,1544.7695,283.5,1548.7695" style="stroke:#181818;stroke-width:1.0;"/><line style="stroke:#181818;stroke-width:1.0;" x1="283.5" x2="283.5" y1="1639.3359" y2="1661.9023"/><polygon fill="#181818" points="279.5,1651.9023,283.5,1661.9023,287.5,1651.9023,283.5,1655.9023" style="stroke:#181818;stroke-width:1.0;"/><line style="stroke:#181818;stroke-width:1.0;" x1="283.5" x2="283.5" y1="1709.8398" y2="1729.8398"/><polygon fill="#181818" points="279.5,1719.8398,283.5,1729.8398,287.5,1719.8398,283.5,1723.8398" style="stroke:#181818;stroke-width:1.0;"/><line style="stroke:#181818;stroke-width:1.0;" x1="283.5" x2="283.5" y1="1814.4063" y2="1836.9727"/><polygon fill="#181818" points="279.5,1826.9727,283.5,1836.9727,287.5,1826.9727,283.5,1830.9727" style="stroke:#181818;stroke-width:1.0;"/><line style="stroke:#181818;stroke-width:1.0;" x1="283.5" x2="283.5" y1="1884.9102" y2="1904.9102"/><polygon fill="#181818" points="279.5,1894.9102,283.5,1904.9102,287.5,1894.9102,283.5,1898.9102" style="stroke:#181818;stroke-width:1.0;"/><line style="stroke:#181818;stroke-width:1.0;" x1="283.5" x2="283.5" y1="2036.043" y2="2060.4453"/><polygon fill="#181818" points="279.5,2050.4453,283.5,2060.4453,287.5,2050.4453,283.5,2054.4453" style="stroke:#181818;stroke-width:1.0;"/><line style="stroke:#181818;stroke-width:1.0;" x1="364.5" x2="487" y1="2024.043" y2="2024.043"/><polygon fill="#181818" points="483,2067.4297,487,2077.4297,491,2067.4297,487,2071.4297" style="stroke:#181818;stroke-width:1.0;"/><line style="stroke:#181818;stroke-width:1.0;" x1="487" x2="487" y1="2024.043" y2="2126.4141"/><line style="stroke:#181818;stroke-width:1.0;" x1="487" x2="295.5" y1="2126.4141" y2="2126.4141"/><polygon fill="#181818" points="305.5,2122.4141,295.5,2126.4141,305.5,2130.4141,301.5,2126.4141" style="stroke:#181818;stroke-width:1.0;"/><line style="stroke:#181818;stroke-width:1.0;" x1="283.5" x2="283.5" y1="2094.4141" y2="2114.4141"/><polygon fill="#181818" points="279.5,2104.4141,283.5,2114.4141,287.5,2104.4141,283.5,2108.4141" style="stroke:#181818;stroke-width:1.0;"/><line style="stroke:#181818;stroke-width:1.0;" x1="283.5" x2="283.5" y1="1989.4766" y2="2012.043"/><polygon fill="#181818" points="279.5,2002.043,283.5,2012.043,287.5,2002.043,283.5,2006.043" style="stroke:#181818;stroke-width:1.0;"/><line style="stroke:#181818;stroke-width:1.0;" x1="283.5" x2="283.5" y1="2138.4141" y2="2158.4141"/><polygon fill="#181818" points="279.5,2148.4141,283.5,2158.4141,287.5,2148.4141,283.5,2152.4141" style="stroke:#181818;stroke-width:1.0;"/><line style="stroke:#181818;stroke-width:1.0;" x1="283.5" x2="283.5" y1="2192.3828" y2="2212.3828"/><polygon fill="#181818" points="279.5,2202.3828,283.5,2212.3828,287.5,2202.3828,283.5,2206.3828" style="stroke:#181818;stroke-width:1.0;"/><line style="stroke:#181818;stroke-width:1.0;" x1="283.5" x2="283.5" y1="2296.9492" y2="2319.5156"/><polygon fill="#181818" points="279.5,2309.5156,283.5,2319.5156,287.5,2309.5156,283.5,2313.5156" style="stroke:#181818;stroke-width:1.0;"/><line style="stroke:#181818;stroke-width:1.0;" x1="283.5" x2="283.5" y1="2353.4844" y2="2373.4844"/><polygon fill="#181818" points="279.5,2363.4844,283.5,2373.4844,287.5,2363.4844,283.5,2367.4844" style="stroke:#181818;stroke-width:1.0;"/><!--MD5=[928b97a311433d83aa4ced6a3a743c6f]
@startuml
!pragma layout smetana
start
note right
constructor AbstractFtile(ISkinParam skinParam)
end note
:this.skinParam=skinParam;;
end
start
note right
ISkinParam skinParam()
end note
if (skinParam==null ) then (yes) 
:throw new IllegalStateException();;
stop
endif 
:return skinParam;;
stop
end
start
note right
HColorSet getIHtmlColorSet()
end note
:return skinParam.getIHtmlColorSet();;
stop
end
start
note right
LinkRendering getInLinkRendering()
end note
:return LinkRendering.none();;
stop
end
start
note right
LinkRendering getOutLinkRendering()
end note
:return LinkRendering.none();;
stop
end
start
note right
Collection<Connection> getInnerConnections()
end note
:return Collections.emptyList();;
stop
end
start
note right
UTranslate getTranslateFor(Ftile child,StringBounder stringBounder)
end note
:throw new UnsupportedOperationException(""+
getClass());;
stop
end
start
note right
UStroke getThickness(Style style)
end note
:return style.getStroke();;
stop
end
start
note right
List<WeldingPoint> getWeldingPoints()
end note
:return Collections.emptyList();;
stop
end
start
note right
Collection<Ftile> getMyChildren()
end note
:throw new UnsupportedOperationException(""+
getClass());;
stop
end
start
note right
HorizontalAlignment arrowHorizontalAlignment()
end note
:return skinParam.getHorizontalAlignment(AlignmentParam.arrowMessageAlignment,
null ,false,null );;
stop
end
start
note right
FtileGeometry calculateDimension(StringBounder stringBounder)
end note
if (cachedGeometry==null ) then (yes) 
:cachedGeometry=calculateDimensionFtile(stringBounder);;
endif 
:return cachedGeometry;;
stop
end
start
note right
MinMax getMinMax(StringBounder stringBounder)
end note
:throw new UnsupportedOperationException();;
stop
end
@enduml

PlantUML version 1.2022.7(Mon Aug 22 17:01:30 UTC 2022)
(GPL source distribution)
Java Runtime: OpenJDK Runtime Environment
JVM: OpenJDK 64-Bit Server VM
Default Encoding: UTF-8
Language: en
Country: null
--></g></svg>