<?xml version="1.0" encoding="UTF-8" standalone="no"?><svg xmlns="http://www.w3.org/2000/svg" xmlns:xlink="http://www.w3.org/1999/xlink" contentStyleType="text/css" height="186px" preserveAspectRatio="none" style="width:399px;height:186px;background:#FFFFFF;" version="1.1" viewBox="0 0 399 186" width="399px" zoomAndPan="magnify"><defs/><g><!--MD5=[3610ecc0d26a84e5dfa292e7afd1216b]
cluster net.sourceforge.plantuml.activitydiagram3.ftile--><g id="cluster_net.sourceforge.plantuml.activitydiagram3.ftile"><path d="M8.5,63 L379.5,63 A3.75,3.75 0 0 1 382,65.5 L389,85.2969 L389.5,85.2969 A2.5,2.5 0 0 1 392,87.7969 L392,176.5 A2.5,2.5 0 0 1 389.5,179 L8.5,179 A2.5,2.5 0 0 1 6,176.5 L6,65.5 A2.5,2.5 0 0 1 8.5,63 " fill="none" style="stroke:#000000;stroke-width:1.5;"/><line style="stroke:#000000;stroke-width:1.5;" x1="6" x2="389" y1="85.2969" y2="85.2969"/><text fill="#000000" font-family="sans-serif" font-size="14" font-weight="bold" lengthAdjust="spacing" textLength="370" x="10" y="77.9951">net.sourceforge.plantuml.activitydiagram3.ftile</text></g><!--MD5=[37672fa84a0813d5737e2fdecba0686b]
class AbstractConnection--><g id="elem_AbstractConnection"><rect fill="#F1F1F1" height="48" id="AbstractConnection" rx="2.5" ry="2.5" style="stroke:#181818;stroke-width:0.5;" width="169" x="114.5" y="6"/><ellipse cx="129.5" cy="22" fill="#ADD1B2" rx="11" ry="11" style="stroke:#181818;stroke-width:1.0;"/><path d="M132.4688,27.6406 Q131.8906,27.9375 131.25,28.0781 Q130.6094,28.2344 129.9063,28.2344 Q127.4063,28.2344 126.0781,26.5938 Q124.7656,24.9375 124.7656,21.8125 Q124.7656,18.6875 126.0781,17.0313 Q127.4063,15.375 129.9063,15.375 Q130.6094,15.375 131.25,15.5313 Q131.9063,15.6875 132.4688,15.9844 L132.4688,18.7031 Q131.8438,18.125 131.25,17.8594 Q130.6563,17.5781 130.0313,17.5781 Q128.6875,17.5781 128,18.6563 Q127.3125,19.7188 127.3125,21.8125 Q127.3125,23.9063 128,24.9844 Q128.6875,26.0469 130.0313,26.0469 Q130.6563,26.0469 131.25,25.7813 Q131.8438,25.5 132.4688,24.9219 L132.4688,27.6406 Z " fill="#000000"/><text fill="#000000" font-family="sans-serif" font-size="14" lengthAdjust="spacing" textLength="137" x="143.5" y="26.8467">AbstractConnection</text><line style="stroke:#181818;stroke-width:0.5;" x1="115.5" x2="282.5" y1="38" y2="38"/><line style="stroke:#181818;stroke-width:0.5;" x1="115.5" x2="282.5" y1="46" y2="46"/></g><!--MD5=[e0bc646711eb57d99a373c303b17a7b6]
class net.sourceforge.plantuml.activitydiagram3.ftile.ConnectionCross--><g id="elem_net.sourceforge.plantuml.activitydiagram3.ftile.ConnectionCross"><rect codeLine="3" fill="#F1F1F1" height="80.5938" id="net.sourceforge.plantuml.activitydiagram3.ftile.ConnectionCross" rx="2.5" ry="2.5" style="stroke:#181818;stroke-width:0.5;" width="369" x="14.5" y="90"/><ellipse cx="134.75" cy="106" fill="#ADD1B2" rx="11" ry="11" style="stroke:#181818;stroke-width:1.0;"/><path d="M137.7188,111.6406 Q137.1406,111.9375 136.5,112.0781 Q135.8594,112.2344 135.1563,112.2344 Q132.6563,112.2344 131.3281,110.5938 Q130.0156,108.9375 130.0156,105.8125 Q130.0156,102.6875 131.3281,101.0313 Q132.6563,99.375 135.1563,99.375 Q135.8594,99.375 136.5,99.5313 Q137.1563,99.6875 137.7188,99.9844 L137.7188,102.7031 Q137.0938,102.125 136.5,101.8594 Q135.9063,101.5781 135.2813,101.5781 Q133.9375,101.5781 133.25,102.6563 Q132.5625,103.7188 132.5625,105.8125 Q132.5625,107.9063 133.25,108.9844 Q133.9375,110.0469 135.2813,110.0469 Q135.9063,110.0469 136.5,109.7813 Q137.0938,109.5 137.7188,108.9219 L137.7188,111.6406 Z " fill="#000000"/><text fill="#000000" font-family="sans-serif" font-size="14" lengthAdjust="spacing" textLength="120" x="155.25" y="110.8467">ConnectionCross</text><line style="stroke:#181818;stroke-width:0.5;" x1="15.5" x2="382.5" y1="122" y2="122"/><line style="stroke:#181818;stroke-width:0.5;" x1="15.5" x2="382.5" y1="130" y2="130"/><a href="./../../../../../../.././qc/src/net/sourceforge/plantuml/activitydiagram3/ftile/ConnectionCross.java.html#44" target="_top" title="./../../../../../../.././qc/src/net/sourceforge/plantuml/activitydiagram3/ftile/ConnectionCross.java.html#44" xlink:actuate="onRequest" xlink:href="./../../../../../../.././qc/src/net/sourceforge/plantuml/activitydiagram3/ftile/ConnectionCross.java.html#44" xlink:show="new" xlink:title="./../../../../../../.././qc/src/net/sourceforge/plantuml/activitydiagram3/ftile/ConnectionCross.java.html#44" xlink:type="simple"><rect fill="#F1F1F1" height="10" style="stroke:none;stroke-width:1.0;" width="20" x="20.5" y="138.6484"/><ellipse cx="25.5" cy="143.6484" fill="#84BE84" rx="3" ry="3" style="stroke:#038048;stroke-width:1.0;"/></a><a href="./../../../../../../.././qc/src/net/sourceforge/plantuml/activitydiagram3/ftile/ConnectionCross.java.html#44" target="_top" title="./../../../../../../.././qc/src/net/sourceforge/plantuml/activitydiagram3/ftile/ConnectionCross.java.html#44" xlink:actuate="onRequest" xlink:href="./../../../../../../.././qc/src/net/sourceforge/plantuml/activitydiagram3/ftile/ConnectionCross.java.html#44" xlink:show="new" xlink:title="./../../../../../../.././qc/src/net/sourceforge/plantuml/activitydiagram3/ftile/ConnectionCross.java.html#44" xlink:type="simple"><text fill="#000000" font-family="sans-serif" font-size="14" lengthAdjust="spacing" textLength="343" x="34.5" y="146.9951">ConnectionCross(Connection) : ConnectionCross</text></a><a href="./../../../../../../.././qc/src/net/sourceforge/plantuml/activitydiagram3/ftile/ConnectionCross.java.html#49" target="_top" title="./../../../../../../.././qc/src/net/sourceforge/plantuml/activitydiagram3/ftile/ConnectionCross.java.html#49" xlink:actuate="onRequest" xlink:href="./../../../../../../.././qc/src/net/sourceforge/plantuml/activitydiagram3/ftile/ConnectionCross.java.html#49" xlink:show="new" xlink:title="./../../../../../../.././qc/src/net/sourceforge/plantuml/activitydiagram3/ftile/ConnectionCross.java.html#49" xlink:type="simple"><rect fill="#F1F1F1" height="10" style="stroke:none;stroke-width:1.0;" width="20" x="20.5" y="154.9453"/><ellipse cx="25.5" cy="159.9453" fill="#84BE84" rx="3" ry="3" style="stroke:#038048;stroke-width:1.0;"/></a><a href="./../../../../../../.././qc/src/net/sourceforge/plantuml/activitydiagram3/ftile/ConnectionCross.java.html#49" target="_top" title="./../../../../../../.././qc/src/net/sourceforge/plantuml/activitydiagram3/ftile/ConnectionCross.java.html#49" xlink:actuate="onRequest" xlink:href="./../../../../../../.././qc/src/net/sourceforge/plantuml/activitydiagram3/ftile/ConnectionCross.java.html#49" xlink:show="new" xlink:title="./../../../../../../.././qc/src/net/sourceforge/plantuml/activitydiagram3/ftile/ConnectionCross.java.html#49" xlink:type="simple"><text fill="#000000" font-family="sans-serif" font-size="14" lengthAdjust="spacing" textLength="157" x="34.5" y="163.292">drawU(UGraphic) : void</text></a></g><path d="M199,54.0939 C199,64.784 199,77.7904 199,89.9706 " fill="none" style="stroke:#181818;stroke-width:1.0;"/><polygon fill="#FFFFFF" points="199,54.0939,193,70.0939,205,70.0939,199,54.0939" style="stroke:#181818;stroke-width:1.0;"/><!--MD5=[203f7a0fcd3473c23cdf7aa91fac9a0e]
@startuml
!pragma layout smetana
"AbstractConnection" <|- - "net.sourceforge.plantuml.activitydiagram3.ftile.ConnectionCross"
class net.sourceforge.plantuml.activitydiagram3.ftile.ConnectionCross {
+ConnectionCross(Connection) : ConnectionCross [[[./../../../../../../.././qc/src/net/sourceforge/plantuml/activitydiagram3/ftile/ConnectionCross.java.html#44]]]
+drawU(UGraphic) : void [[[./../../../../../../.././qc/src/net/sourceforge/plantuml/activitydiagram3/ftile/ConnectionCross.java.html#49]]]
} 
@enduml

PlantUML version 1.2022.7(Mon Aug 22 17:01:30 UTC 2022)
(GPL source distribution)
Java Runtime: OpenJDK Runtime Environment
JVM: OpenJDK 64-Bit Server VM
Default Encoding: UTF-8
Language: en
Country: null
--></g></svg>