<?xml version="1.0" encoding="UTF-8" standalone="no"?><svg xmlns="http://www.w3.org/2000/svg" xmlns:xlink="http://www.w3.org/1999/xlink" contentStyleType="text/css" height="236px" preserveAspectRatio="none" style="width:399px;height:236px;background:#FFFFFF;" version="1.1" viewBox="0 0 399 236" width="399px" zoomAndPan="magnify"><defs/><g><!--MD5=[aa8f7b917213fcc1c2766e2d59b49067]
cluster java.lang--><g id="cluster_java.lang"><path d="M154.5,6 L224.5,6 A3.75,3.75 0 0 1 227,8.5 L234,28.2969 L243.5,28.2969 A2.5,2.5 0 0 1 246,30.7969 L246,86.5 A2.5,2.5 0 0 1 243.5,89 L154.5,89 A2.5,2.5 0 0 1 152,86.5 L152,8.5 A2.5,2.5 0 0 1 154.5,6 " fill="none" style="stroke:#000000;stroke-width:1.5;"/><line style="stroke:#000000;stroke-width:1.5;" x1="152" x2="234" y1="28.2969" y2="28.2969"/><text fill="#000000" font-family="sans-serif" font-size="14" font-weight="bold" lengthAdjust="spacing" textLength="69" x="156" y="20.9951">java.lang</text></g><!--MD5=[3610ecc0d26a84e5dfa292e7afd1216b]
cluster net.sourceforge.plantuml.activitydiagram3.ftile--><g id="cluster_net.sourceforge.plantuml.activitydiagram3.ftile"><path d="M8.5,97 L379.5,97 A3.75,3.75 0 0 1 382,99.5 L389,119.2969 L389.5,119.2969 A2.5,2.5 0 0 1 392,121.7969 L392,226.5 A2.5,2.5 0 0 1 389.5,229 L8.5,229 A2.5,2.5 0 0 1 6,226.5 L6,99.5 A2.5,2.5 0 0 1 8.5,97 " fill="none" style="stroke:#000000;stroke-width:1.5;"/><line style="stroke:#000000;stroke-width:1.5;" x1="6" x2="389" y1="119.2969" y2="119.2969"/><text fill="#000000" font-family="sans-serif" font-size="14" font-weight="bold" lengthAdjust="spacing" textLength="370" x="10" y="111.9951">net.sourceforge.plantuml.activitydiagram3.ftile</text></g><!--MD5=[274ad5661286b626a93603d287cbf95a]
class java.lang.Object--><g id="elem_java.lang.Object"><rect fill="#F1F1F1" height="48" id="java.lang.Object" rx="2.5" ry="2.5" style="stroke:#181818;stroke-width:0.5;" width="77" x="160.5" y="33"/><ellipse cx="175.5" cy="49" fill="#ADD1B2" rx="11" ry="11" style="stroke:#181818;stroke-width:1.0;"/><path d="M178.4688,54.6406 Q177.8906,54.9375 177.25,55.0781 Q176.6094,55.2344 175.9063,55.2344 Q173.4063,55.2344 172.0781,53.5938 Q170.7656,51.9375 170.7656,48.8125 Q170.7656,45.6875 172.0781,44.0313 Q173.4063,42.375 175.9063,42.375 Q176.6094,42.375 177.25,42.5313 Q177.9063,42.6875 178.4688,42.9844 L178.4688,45.7031 Q177.8438,45.125 177.25,44.8594 Q176.6563,44.5781 176.0313,44.5781 Q174.6875,44.5781 174,45.6563 Q173.3125,46.7188 173.3125,48.8125 Q173.3125,50.9063 174,51.9844 Q174.6875,53.0469 176.0313,53.0469 Q176.6563,53.0469 177.25,52.7813 Q177.8438,52.5 178.4688,51.9219 L178.4688,54.6406 Z " fill="#000000"/><text fill="#000000" font-family="sans-serif" font-size="14" lengthAdjust="spacing" textLength="45" x="189.5" y="53.8467">Object</text><line style="stroke:#181818;stroke-width:0.5;" x1="161.5" x2="236.5" y1="65" y2="65"/><line style="stroke:#181818;stroke-width:0.5;" x1="161.5" x2="236.5" y1="73" y2="73"/></g><!--MD5=[30d9346ea377662284942bf110086a1c]
class net.sourceforge.plantuml.activitydiagram3.ftile.Swimable--><g id="elem_net.sourceforge.plantuml.activitydiagram3.ftile.Swimable"><rect codeLine="3" fill="#F1F1F1" height="96.8906" id="net.sourceforge.plantuml.activitydiagram3.ftile.Swimable" rx="2.5" ry="2.5" style="stroke:#181818;stroke-width:0.5;" width="257" x="70.5" y="124"/><ellipse cx="162.25" cy="140" fill="#ADD1B2" rx="11" ry="11" style="stroke:#181818;stroke-width:1.0;"/><path d="M165.2188,145.6406 Q164.6406,145.9375 164,146.0781 Q163.3594,146.2344 162.6563,146.2344 Q160.1563,146.2344 158.8281,144.5938 Q157.5156,142.9375 157.5156,139.8125 Q157.5156,136.6875 158.8281,135.0313 Q160.1563,133.375 162.6563,133.375 Q163.3594,133.375 164,133.5313 Q164.6563,133.6875 165.2188,133.9844 L165.2188,136.7031 Q164.5938,136.125 164,135.8594 Q163.4063,135.5781 162.7813,135.5781 Q161.4375,135.5781 160.75,136.6563 Q160.0625,137.7188 160.0625,139.8125 Q160.0625,141.9063 160.75,142.9844 Q161.4375,144.0469 162.7813,144.0469 Q163.4063,144.0469 164,143.7813 Q164.5938,143.5 165.2188,142.9219 L165.2188,145.6406 Z " fill="#000000"/><text fill="#000000" font-family="sans-serif" font-size="14" lengthAdjust="spacing" textLength="65" x="182.75" y="144.8467">Swimable</text><line style="stroke:#181818;stroke-width:0.5;" x1="71.5" x2="326.5" y1="156" y2="156"/><line style="stroke:#181818;stroke-width:0.5;" x1="71.5" x2="326.5" y1="164" y2="164"/><a href="./../../../../../../.././qc/src/net/sourceforge/plantuml/activitydiagram3/ftile/Swimable.java.html#42" target="_top" title="./../../../../../../.././qc/src/net/sourceforge/plantuml/activitydiagram3/ftile/Swimable.java.html#42" xlink:actuate="onRequest" xlink:href="./../../../../../../.././qc/src/net/sourceforge/plantuml/activitydiagram3/ftile/Swimable.java.html#42" xlink:show="new" xlink:title="./../../../../../../.././qc/src/net/sourceforge/plantuml/activitydiagram3/ftile/Swimable.java.html#42" xlink:type="simple"><rect fill="#F1F1F1" height="10" style="stroke:none;stroke-width:1.0;" width="20" x="76.5" y="172.6484"/><ellipse cx="81.5" cy="177.6484" fill="#84BE84" rx="3" ry="3" style="stroke:#038048;stroke-width:1.0;"/></a><a href="./../../../../../../.././qc/src/net/sourceforge/plantuml/activitydiagram3/ftile/Swimable.java.html#42" target="_top" title="./../../../../../../.././qc/src/net/sourceforge/plantuml/activitydiagram3/ftile/Swimable.java.html#42" xlink:actuate="onRequest" xlink:href="./../../../../../../.././qc/src/net/sourceforge/plantuml/activitydiagram3/ftile/Swimable.java.html#42" xlink:show="new" xlink:title="./../../../../../../.././qc/src/net/sourceforge/plantuml/activitydiagram3/ftile/Swimable.java.html#42" xlink:type="simple"><text fill="#000000" font-family="sans-serif" font-size="14" lengthAdjust="spacing" textLength="231" x="90.5" y="180.9951">getSwimlanes() : Set&lt;Swimlane&gt;</text></a><a href="./../../../../../../.././qc/src/net/sourceforge/plantuml/activitydiagram3/ftile/Swimable.java.html#44" target="_top" title="./../../../../../../.././qc/src/net/sourceforge/plantuml/activitydiagram3/ftile/Swimable.java.html#44" xlink:actuate="onRequest" xlink:href="./../../../../../../.././qc/src/net/sourceforge/plantuml/activitydiagram3/ftile/Swimable.java.html#44" xlink:show="new" xlink:title="./../../../../../../.././qc/src/net/sourceforge/plantuml/activitydiagram3/ftile/Swimable.java.html#44" xlink:type="simple"><rect fill="#F1F1F1" height="10" style="stroke:none;stroke-width:1.0;" width="20" x="76.5" y="188.9453"/><ellipse cx="81.5" cy="193.9453" fill="#84BE84" rx="3" ry="3" style="stroke:#038048;stroke-width:1.0;"/></a><a href="./../../../../../../.././qc/src/net/sourceforge/plantuml/activitydiagram3/ftile/Swimable.java.html#44" target="_top" title="./../../../../../../.././qc/src/net/sourceforge/plantuml/activitydiagram3/ftile/Swimable.java.html#44" xlink:actuate="onRequest" xlink:href="./../../../../../../.././qc/src/net/sourceforge/plantuml/activitydiagram3/ftile/Swimable.java.html#44" xlink:show="new" xlink:title="./../../../../../../.././qc/src/net/sourceforge/plantuml/activitydiagram3/ftile/Swimable.java.html#44" xlink:type="simple"><text fill="#000000" font-family="sans-serif" font-size="14" lengthAdjust="spacing" textLength="188" x="90.5" y="197.292">getSwimlaneIn() : Swimlane</text></a><a href="./../../../../../../.././qc/src/net/sourceforge/plantuml/activitydiagram3/ftile/Swimable.java.html#46" target="_top" title="./../../../../../../.././qc/src/net/sourceforge/plantuml/activitydiagram3/ftile/Swimable.java.html#46" xlink:actuate="onRequest" xlink:href="./../../../../../../.././qc/src/net/sourceforge/plantuml/activitydiagram3/ftile/Swimable.java.html#46" xlink:show="new" xlink:title="./../../../../../../.././qc/src/net/sourceforge/plantuml/activitydiagram3/ftile/Swimable.java.html#46" xlink:type="simple"><rect fill="#F1F1F1" height="10" style="stroke:none;stroke-width:1.0;" width="20" x="76.5" y="205.2422"/><ellipse cx="81.5" cy="210.2422" fill="#84BE84" rx="3" ry="3" style="stroke:#038048;stroke-width:1.0;"/></a><a href="./../../../../../../.././qc/src/net/sourceforge/plantuml/activitydiagram3/ftile/Swimable.java.html#46" target="_top" title="./../../../../../../.././qc/src/net/sourceforge/plantuml/activitydiagram3/ftile/Swimable.java.html#46" xlink:actuate="onRequest" xlink:href="./../../../../../../.././qc/src/net/sourceforge/plantuml/activitydiagram3/ftile/Swimable.java.html#46" xlink:show="new" xlink:title="./../../../../../../.././qc/src/net/sourceforge/plantuml/activitydiagram3/ftile/Swimable.java.html#46" xlink:type="simple"><text fill="#000000" font-family="sans-serif" font-size="14" lengthAdjust="spacing" textLength="201" x="90.5" y="213.5889">getSwimlaneOut() : Swimlane</text></a></g><path d="M199,81.2423 C199,93.5648 199,109.1711 199,123.9272 " fill="none" style="stroke:#181818;stroke-width:1.0;"/><polygon fill="#FFFFFF" points="199,81.2423,193,97.2423,205,97.2423,199,81.2423" style="stroke:#181818;stroke-width:1.0;"/><!--MD5=[05ed09ea6a7255d05c56d40ea157ce28]
@startuml
!pragma layout smetana
"java.lang.Object" <|- - "net.sourceforge.plantuml.activitydiagram3.ftile.Swimable"
class net.sourceforge.plantuml.activitydiagram3.ftile.Swimable {
+getSwimlanes() : Set<Swimlane> [[[./../../../../../../.././qc/src/net/sourceforge/plantuml/activitydiagram3/ftile/Swimable.java.html#42]]]
+getSwimlaneIn() : Swimlane [[[./../../../../../../.././qc/src/net/sourceforge/plantuml/activitydiagram3/ftile/Swimable.java.html#44]]]
+getSwimlaneOut() : Swimlane [[[./../../../../../../.././qc/src/net/sourceforge/plantuml/activitydiagram3/ftile/Swimable.java.html#46]]]
} 
@enduml

PlantUML version 1.2022.7(Mon Aug 22 17:01:30 UTC 2022)
(GPL source distribution)
Java Runtime: OpenJDK Runtime Environment
JVM: OpenJDK 64-Bit Server VM
Default Encoding: UTF-8
Language: en
Country: null
--></g></svg>