<?xml version="1.0" encoding="UTF-8" standalone="no"?><svg xmlns="http://www.w3.org/2000/svg" xmlns:xlink="http://www.w3.org/1999/xlink" contentStyleType="text/css" height="186px" preserveAspectRatio="none" style="width:553px;height:186px;background:#FFFFFF;" version="1.1" viewBox="0 0 553 186" width="553px" zoomAndPan="magnify"><defs/><g><!--MD5=[ae7ad276d94fdc61c1121954be4e275c]
cluster net.sourceforge.plantuml.ugraphic.eps--><g id="cluster_net.sourceforge.plantuml.ugraphic.eps"><path d="M8.5,63 L318.5,63 A3.75,3.75 0 0 1 321,65.5 L328,85.2969 L543.5,85.2969 A2.5,2.5 0 0 1 546,87.7969 L546,176.5 A2.5,2.5 0 0 1 543.5,179 L8.5,179 A2.5,2.5 0 0 1 6,176.5 L6,65.5 A2.5,2.5 0 0 1 8.5,63 " fill="none" style="stroke:#000000;stroke-width:1.5;"/><line style="stroke:#000000;stroke-width:1.5;" x1="6" x2="328" y1="85.2969" y2="85.2969"/><text fill="#000000" font-family="sans-serif" font-size="14" font-weight="bold" lengthAdjust="spacing" textLength="309" x="10" y="77.9951">net.sourceforge.plantuml.ugraphic.eps</text></g><!--MD5=[99c4aa138d326b2616f8bad2f4e23c7a]
class UDriver<UPolygon,EpsGraphics>--><g id="elem_UDriver&lt;UPolygon,EpsGraphics&gt;"><rect fill="#F1F1F1" height="48" id="UDriver&lt;UPolygon,EpsGraphics&gt;" rx="2.5" ry="2.5" style="stroke:#181818;stroke-width:0.5;" width="262" x="145" y="6"/><ellipse cx="160" cy="22" fill="#ADD1B2" rx="11" ry="11" style="stroke:#181818;stroke-width:1.0;"/><path d="M162.9688,27.6406 Q162.3906,27.9375 161.75,28.0781 Q161.1094,28.2344 160.4063,28.2344 Q157.9063,28.2344 156.5781,26.5938 Q155.2656,24.9375 155.2656,21.8125 Q155.2656,18.6875 156.5781,17.0313 Q157.9063,15.375 160.4063,15.375 Q161.1094,15.375 161.75,15.5313 Q162.4063,15.6875 162.9688,15.9844 L162.9688,18.7031 Q162.3438,18.125 161.75,17.8594 Q161.1563,17.5781 160.5313,17.5781 Q159.1875,17.5781 158.5,18.6563 Q157.8125,19.7188 157.8125,21.8125 Q157.8125,23.9063 158.5,24.9844 Q159.1875,26.0469 160.5313,26.0469 Q161.1563,26.0469 161.75,25.7813 Q162.3438,25.5 162.9688,24.9219 L162.9688,27.6406 Z " fill="#000000"/><text fill="#000000" font-family="sans-serif" font-size="14" lengthAdjust="spacing" textLength="230" x="174" y="26.8467">UDriver&lt;UPolygon,EpsGraphics&gt;</text><line style="stroke:#181818;stroke-width:0.5;" x1="146" x2="406" y1="38" y2="38"/><line style="stroke:#181818;stroke-width:0.5;" x1="146" x2="406" y1="46" y2="46"/></g><!--MD5=[7e02cd1f1c3bf5172aa8adf54a089eed]
class net.sourceforge.plantuml.ugraphic.eps.DriverPolygonEps--><g id="elem_net.sourceforge.plantuml.ugraphic.eps.DriverPolygonEps"><rect codeLine="3" fill="#F1F1F1" height="80.5938" id="net.sourceforge.plantuml.ugraphic.eps.DriverPolygonEps" rx="2.5" ry="2.5" style="stroke:#181818;stroke-width:0.5;" width="524" x="14" y="90"/><ellipse cx="211.25" cy="106" fill="#ADD1B2" rx="11" ry="11" style="stroke:#181818;stroke-width:1.0;"/><path d="M214.2188,111.6406 Q213.6406,111.9375 213,112.0781 Q212.3594,112.2344 211.6563,112.2344 Q209.1563,112.2344 207.8281,110.5938 Q206.5156,108.9375 206.5156,105.8125 Q206.5156,102.6875 207.8281,101.0313 Q209.1563,99.375 211.6563,99.375 Q212.3594,99.375 213,99.5313 Q213.6563,99.6875 214.2188,99.9844 L214.2188,102.7031 Q213.5938,102.125 213,101.8594 Q212.4063,101.5781 211.7813,101.5781 Q210.4375,101.5781 209.75,102.6563 Q209.0625,103.7188 209.0625,105.8125 Q209.0625,107.9063 209.75,108.9844 Q210.4375,110.0469 211.7813,110.0469 Q212.4063,110.0469 213,109.7813 Q213.5938,109.5 214.2188,108.9219 L214.2188,111.6406 Z " fill="#000000"/><text fill="#000000" font-family="sans-serif" font-size="14" lengthAdjust="spacing" textLength="121" x="231.75" y="110.8467">DriverPolygonEps</text><line style="stroke:#181818;stroke-width:0.5;" x1="15" x2="537" y1="122" y2="122"/><line style="stroke:#181818;stroke-width:0.5;" x1="15" x2="537" y1="130" y2="130"/><a href="./../../../../../../.././qc/src/net/sourceforge/plantuml/ugraphic/eps/DriverPolygonEps.java.html#52" target="_top" title="./../../../../../../.././qc/src/net/sourceforge/plantuml/ugraphic/eps/DriverPolygonEps.java.html#52" xlink:actuate="onRequest" xlink:href="./../../../../../../.././qc/src/net/sourceforge/plantuml/ugraphic/eps/DriverPolygonEps.java.html#52" xlink:show="new" xlink:title="./../../../../../../.././qc/src/net/sourceforge/plantuml/ugraphic/eps/DriverPolygonEps.java.html#52" xlink:type="simple"><rect fill="#F1F1F1" height="10" style="stroke:none;stroke-width:1.0;" width="20" x="20" y="138.6484"/><ellipse cx="25" cy="143.6484" fill="#84BE84" rx="3" ry="3" style="stroke:#038048;stroke-width:1.0;"/></a><a href="./../../../../../../.././qc/src/net/sourceforge/plantuml/ugraphic/eps/DriverPolygonEps.java.html#52" target="_top" title="./../../../../../../.././qc/src/net/sourceforge/plantuml/ugraphic/eps/DriverPolygonEps.java.html#52" xlink:actuate="onRequest" xlink:href="./../../../../../../.././qc/src/net/sourceforge/plantuml/ugraphic/eps/DriverPolygonEps.java.html#52" xlink:show="new" xlink:title="./../../../../../../.././qc/src/net/sourceforge/plantuml/ugraphic/eps/DriverPolygonEps.java.html#52" xlink:type="simple"><text fill="#000000" font-family="sans-serif" font-size="14" lengthAdjust="spacing" textLength="357" x="34" y="146.9951">DriverPolygonEps(ClipContainer) : DriverPolygonEps</text></a><a href="./../../../../../../.././qc/src/net/sourceforge/plantuml/ugraphic/eps/DriverPolygonEps.java.html#56" target="_top" title="./../../../../../../.././qc/src/net/sourceforge/plantuml/ugraphic/eps/DriverPolygonEps.java.html#56" xlink:actuate="onRequest" xlink:href="./../../../../../../.././qc/src/net/sourceforge/plantuml/ugraphic/eps/DriverPolygonEps.java.html#56" xlink:show="new" xlink:title="./../../../../../../.././qc/src/net/sourceforge/plantuml/ugraphic/eps/DriverPolygonEps.java.html#56" xlink:type="simple"><rect fill="#F1F1F1" height="10" style="stroke:none;stroke-width:1.0;" width="20" x="20" y="154.9453"/><ellipse cx="25" cy="159.9453" fill="#84BE84" rx="3" ry="3" style="stroke:#038048;stroke-width:1.0;"/></a><a href="./../../../../../../.././qc/src/net/sourceforge/plantuml/ugraphic/eps/DriverPolygonEps.java.html#56" target="_top" title="./../../../../../../.././qc/src/net/sourceforge/plantuml/ugraphic/eps/DriverPolygonEps.java.html#56" xlink:actuate="onRequest" xlink:href="./../../../../../../.././qc/src/net/sourceforge/plantuml/ugraphic/eps/DriverPolygonEps.java.html#56" xlink:show="new" xlink:title="./../../../../../../.././qc/src/net/sourceforge/plantuml/ugraphic/eps/DriverPolygonEps.java.html#56" xlink:type="simple"><text fill="#000000" font-family="sans-serif" font-size="14" lengthAdjust="spacing" textLength="498" x="34" y="163.292">draw(UPolygon;double;double;ColorMapper;UParam;EpsGraphics) : void</text></a></g><path d="M276,54.0939 C276,64.784 276,77.7904 276,89.9706 " fill="none" style="stroke:#181818;stroke-width:1.0;"/><polygon fill="#FFFFFF" points="276,54.0939,270,70.0939,282,70.0939,276,54.0939" style="stroke:#181818;stroke-width:1.0;"/><!--MD5=[62ccacb4f85517e64f3440f9abe74516]
@startuml
!pragma layout smetana
"UDriver<UPolygon,EpsGraphics>" <|- - "net.sourceforge.plantuml.ugraphic.eps.DriverPolygonEps"
class net.sourceforge.plantuml.ugraphic.eps.DriverPolygonEps {
+DriverPolygonEps(ClipContainer) : DriverPolygonEps [[[./../../../../../../.././qc/src/net/sourceforge/plantuml/ugraphic/eps/DriverPolygonEps.java.html#52]]]
+draw(UPolygon;double;double;ColorMapper;UParam;EpsGraphics) : void [[[./../../../../../../.././qc/src/net/sourceforge/plantuml/ugraphic/eps/DriverPolygonEps.java.html#56]]]
} 
@enduml

PlantUML version 1.2022.7(Mon Aug 22 17:01:30 UTC 2022)
(GPL source distribution)
Java Runtime: OpenJDK Runtime Environment
JVM: OpenJDK 64-Bit Server VM
Default Encoding: UTF-8
Language: en
Country: null
--></g></svg>