<?xml version="1.0" encoding="UTF-8" standalone="no"?><svg xmlns="http://www.w3.org/2000/svg" xmlns:xlink="http://www.w3.org/1999/xlink" contentStyleType="text/css" height="203px" preserveAspectRatio="none" style="width:308px;height:203px;background:#FFFFFF;" version="1.1" viewBox="0 0 308 203" width="308px" zoomAndPan="magnify"><defs/><g><!--MD5=[aa8f7b917213fcc1c2766e2d59b49067]
cluster java.lang--><g id="cluster_java.lang"><path d="M108.5,6 L178.5,6 A3.75,3.75 0 0 1 181,8.5 L188,28.2969 L197.5,28.2969 A2.5,2.5 0 0 1 200,30.7969 L200,86.5 A2.5,2.5 0 0 1 197.5,89 L108.5,89 A2.5,2.5 0 0 1 106,86.5 L106,8.5 A2.5,2.5 0 0 1 108.5,6 " fill="none" style="stroke:#000000;stroke-width:1.5;"/><line style="stroke:#000000;stroke-width:1.5;" x1="106" x2="188" y1="28.2969" y2="28.2969"/><text fill="#000000" font-family="sans-serif" font-size="14" font-weight="bold" lengthAdjust="spacing" textLength="69" x="110" y="20.9951">java.lang</text></g><!--MD5=[ed614acda3e7dc4ce495191922bc38a9]
cluster net.sourceforge.plantuml.elk.proxy--><g id="cluster_net.sourceforge.plantuml.elk.proxy"><path d="M8.5,97 L288.5,97 A3.75,3.75 0 0 1 291,99.5 L298,119.2969 L298.5,119.2969 A2.5,2.5 0 0 1 301,121.7969 L301,193.5 A2.5,2.5 0 0 1 298.5,196 L8.5,196 A2.5,2.5 0 0 1 6,193.5 L6,99.5 A2.5,2.5 0 0 1 8.5,97 " fill="none" style="stroke:#000000;stroke-width:1.5;"/><line style="stroke:#000000;stroke-width:1.5;" x1="6" x2="298" y1="119.2969" y2="119.2969"/><text fill="#000000" font-family="sans-serif" font-size="14" font-weight="bold" lengthAdjust="spacing" textLength="279" x="10" y="111.9951">net.sourceforge.plantuml.elk.proxy</text></g><!--MD5=[274ad5661286b626a93603d287cbf95a]
class java.lang.Object--><g id="elem_java.lang.Object"><rect fill="#F1F1F1" height="48" id="java.lang.Object" rx="2.5" ry="2.5" style="stroke:#181818;stroke-width:0.5;" width="77" x="114.5" y="33"/><ellipse cx="129.5" cy="49" fill="#ADD1B2" rx="11" ry="11" style="stroke:#181818;stroke-width:1.0;"/><path d="M132.4688,54.6406 Q131.8906,54.9375 131.25,55.0781 Q130.6094,55.2344 129.9063,55.2344 Q127.4063,55.2344 126.0781,53.5938 Q124.7656,51.9375 124.7656,48.8125 Q124.7656,45.6875 126.0781,44.0313 Q127.4063,42.375 129.9063,42.375 Q130.6094,42.375 131.25,42.5313 Q131.9063,42.6875 132.4688,42.9844 L132.4688,45.7031 Q131.8438,45.125 131.25,44.8594 Q130.6563,44.5781 130.0313,44.5781 Q128.6875,44.5781 128,45.6563 Q127.3125,46.7188 127.3125,48.8125 Q127.3125,50.9063 128,51.9844 Q128.6875,53.0469 130.0313,53.0469 Q130.6563,53.0469 131.25,52.7813 Q131.8438,52.5 132.4688,51.9219 L132.4688,54.6406 Z " fill="#000000"/><text fill="#000000" font-family="sans-serif" font-size="14" lengthAdjust="spacing" textLength="45" x="143.5" y="53.8467">Object</text><line style="stroke:#181818;stroke-width:0.5;" x1="115.5" x2="190.5" y1="65" y2="65"/><line style="stroke:#181818;stroke-width:0.5;" x1="115.5" x2="190.5" y1="73" y2="73"/></g><!--MD5=[0f277a002f50d56659c9399e7052dca6]
class net.sourceforge.plantuml.elk.proxy.ElkObjectProxy--><g id="elem_net.sourceforge.plantuml.elk.proxy.ElkObjectProxy"><rect codeLine="3" fill="#F1F1F1" height="64.2969" id="net.sourceforge.plantuml.elk.proxy.ElkObjectProxy" rx="2.5" ry="2.5" style="stroke:#181818;stroke-width:0.5;" width="194" x="56" y="124"/><ellipse cx="98" cy="140" fill="#ADD1B2" rx="11" ry="11" style="stroke:#181818;stroke-width:1.0;"/><path d="M100.9688,145.6406 Q100.3906,145.9375 99.75,146.0781 Q99.1094,146.2344 98.4063,146.2344 Q95.9063,146.2344 94.5781,144.5938 Q93.2656,142.9375 93.2656,139.8125 Q93.2656,136.6875 94.5781,135.0313 Q95.9063,133.375 98.4063,133.375 Q99.1094,133.375 99.75,133.5313 Q100.4063,133.6875 100.9688,133.9844 L100.9688,136.7031 Q100.3438,136.125 99.75,135.8594 Q99.1563,135.5781 98.5313,135.5781 Q97.1875,135.5781 96.5,136.6563 Q95.8125,137.7188 95.8125,139.8125 Q95.8125,141.9063 96.5,142.9844 Q97.1875,144.0469 98.5313,144.0469 Q99.1563,144.0469 99.75,143.7813 Q100.3438,143.5 100.9688,142.9219 L100.9688,145.6406 Z " fill="#000000"/><text fill="#000000" font-family="sans-serif" font-size="14" lengthAdjust="spacing" textLength="102" x="118" y="144.8467">ElkObjectProxy</text><line style="stroke:#181818;stroke-width:0.5;" x1="57" x2="249" y1="156" y2="156"/><line style="stroke:#181818;stroke-width:0.5;" x1="57" x2="249" y1="164" y2="164"/><a href="./../../../../../../.././qc/src/net/sourceforge/plantuml/elk/proxy/ElkObjectProxy.java.html#5" target="_top" title="./../../../../../../.././qc/src/net/sourceforge/plantuml/elk/proxy/ElkObjectProxy.java.html#5" xlink:actuate="onRequest" xlink:href="./../../../../../../.././qc/src/net/sourceforge/plantuml/elk/proxy/ElkObjectProxy.java.html#5" xlink:show="new" xlink:title="./../../../../../../.././qc/src/net/sourceforge/plantuml/elk/proxy/ElkObjectProxy.java.html#5" xlink:type="simple"><rect fill="#F1F1F1" height="10" style="stroke:none;stroke-width:1.0;" width="20" x="62" y="172.6484"/><ellipse cx="67" cy="177.6484" fill="#84BE84" rx="3" ry="3" style="stroke:#038048;stroke-width:1.0;"/></a><a href="./../../../../../../.././qc/src/net/sourceforge/plantuml/elk/proxy/ElkObjectProxy.java.html#5" target="_top" title="./../../../../../../.././qc/src/net/sourceforge/plantuml/elk/proxy/ElkObjectProxy.java.html#5" xlink:actuate="onRequest" xlink:href="./../../../../../../.././qc/src/net/sourceforge/plantuml/elk/proxy/ElkObjectProxy.java.html#5" xlink:show="new" xlink:title="./../../../../../../.././qc/src/net/sourceforge/plantuml/elk/proxy/ElkObjectProxy.java.html#5" xlink:type="simple"><text fill="#000000" font-family="sans-serif" font-size="14" lengthAdjust="spacing" textLength="168" x="76" y="180.9951">getTrueObject() : Object</text></a></g><path d="M153,81.481 C153,94.1526 153,109.962 153,123.6701 " fill="none" style="stroke:#181818;stroke-width:1.0;"/><polygon fill="#FFFFFF" points="153,81.481,147,97.481,159,97.481,153,81.481" style="stroke:#181818;stroke-width:1.0;"/><!--MD5=[972bcc17897e5af9d3c47c94b0c854d5]
@startuml
!pragma layout smetana
"java.lang.Object" <|- - "net.sourceforge.plantuml.elk.proxy.ElkObjectProxy"
class net.sourceforge.plantuml.elk.proxy.ElkObjectProxy {
+getTrueObject() : Object [[[./../../../../../../.././qc/src/net/sourceforge/plantuml/elk/proxy/ElkObjectProxy.java.html#5]]]
} 
@enduml

PlantUML version 1.2022.7(Mon Aug 22 17:01:30 UTC 2022)
(GPL source distribution)
Java Runtime: OpenJDK Runtime Environment
JVM: OpenJDK 64-Bit Server VM
Default Encoding: UTF-8
Language: en
Country: null
--></g></svg>