<?xml version="1.0" encoding="UTF-8" standalone="no"?><svg xmlns="http://www.w3.org/2000/svg" xmlns:xlink="http://www.w3.org/1999/xlink" contentStyleType="text/css" height="202px" preserveAspectRatio="none" style="width:445px;height:202px;background:#FFFFFF;" version="1.1" viewBox="0 0 445 202" width="445px" zoomAndPan="magnify"><defs/><g><!--MD5=[365defb0edfe7f44f2a5f7acb067c735]
cluster net.sourceforge.plantuml.timingdiagram.graphic--><g id="cluster_net.sourceforge.plantuml.timingdiagram.graphic"><path d="M8.5,63 L390.5,63 A3.75,3.75 0 0 1 393,65.5 L400,85.2969 L435.5,85.2969 A2.5,2.5 0 0 1 438,87.7969 L438,192.5 A2.5,2.5 0 0 1 435.5,195 L8.5,195 A2.5,2.5 0 0 1 6,192.5 L6,65.5 A2.5,2.5 0 0 1 8.5,63 " fill="none" style="stroke:#000000;stroke-width:1.5;"/><line style="stroke:#000000;stroke-width:1.5;" x1="6" x2="400" y1="85.2969" y2="85.2969"/><text fill="#000000" font-family="sans-serif" font-size="14" font-weight="bold" lengthAdjust="spacing" textLength="381" x="10" y="77.9951">net.sourceforge.plantuml.timingdiagram.graphic</text></g><!--MD5=[b201e46a8245076685538de9e34f9803]
class UDrawable--><g id="elem_UDrawable"><rect fill="#F1F1F1" height="48" id="UDrawable" rx="2.5" ry="2.5" style="stroke:#181818;stroke-width:0.5;" width="106" x="169" y="6"/><ellipse cx="184" cy="22" fill="#ADD1B2" rx="11" ry="11" style="stroke:#181818;stroke-width:1.0;"/><path d="M186.9688,27.6406 Q186.3906,27.9375 185.75,28.0781 Q185.1094,28.2344 184.4063,28.2344 Q181.9063,28.2344 180.5781,26.5938 Q179.2656,24.9375 179.2656,21.8125 Q179.2656,18.6875 180.5781,17.0313 Q181.9063,15.375 184.4063,15.375 Q185.1094,15.375 185.75,15.5313 Q186.4063,15.6875 186.9688,15.9844 L186.9688,18.7031 Q186.3438,18.125 185.75,17.8594 Q185.1563,17.5781 184.5313,17.5781 Q183.1875,17.5781 182.5,18.6563 Q181.8125,19.7188 181.8125,21.8125 Q181.8125,23.9063 182.5,24.9844 Q183.1875,26.0469 184.5313,26.0469 Q185.1563,26.0469 185.75,25.7813 Q186.3438,25.5 186.9688,24.9219 L186.9688,27.6406 Z " fill="#000000"/><text fill="#000000" font-family="sans-serif" font-size="14" lengthAdjust="spacing" textLength="74" x="198" y="26.8467">UDrawable</text><line style="stroke:#181818;stroke-width:0.5;" x1="170" x2="274" y1="38" y2="38"/><line style="stroke:#181818;stroke-width:0.5;" x1="170" x2="274" y1="46" y2="46"/></g><!--MD5=[0a9f168fa8cb431635c49bae13f684b0]
class net.sourceforge.plantuml.timingdiagram.graphic.HexaShape--><g id="elem_net.sourceforge.plantuml.timingdiagram.graphic.HexaShape"><rect codeLine="3" fill="#F1F1F1" height="96.8906" id="net.sourceforge.plantuml.timingdiagram.graphic.HexaShape" rx="2.5" ry="2.5" style="stroke:#181818;stroke-width:0.5;" width="415" x="14.5" y="90"/><ellipse cx="178.75" cy="106" fill="#ADD1B2" rx="11" ry="11" style="stroke:#181818;stroke-width:1.0;"/><path d="M181.7188,111.6406 Q181.1406,111.9375 180.5,112.0781 Q179.8594,112.2344 179.1563,112.2344 Q176.6563,112.2344 175.3281,110.5938 Q174.0156,108.9375 174.0156,105.8125 Q174.0156,102.6875 175.3281,101.0313 Q176.6563,99.375 179.1563,99.375 Q179.8594,99.375 180.5,99.5313 Q181.1563,99.6875 181.7188,99.9844 L181.7188,102.7031 Q181.0938,102.125 180.5,101.8594 Q179.9063,101.5781 179.2813,101.5781 Q177.9375,101.5781 177.25,102.6563 Q176.5625,103.7188 176.5625,105.8125 Q176.5625,107.9063 177.25,108.9844 Q177.9375,110.0469 179.2813,110.0469 Q179.9063,110.0469 180.5,109.7813 Q181.0938,109.5 181.7188,108.9219 L181.7188,111.6406 Z " fill="#000000"/><text fill="#000000" font-family="sans-serif" font-size="14" lengthAdjust="spacing" textLength="78" x="199.25" y="110.8467">HexaShape</text><line style="stroke:#181818;stroke-width:0.5;" x1="15.5" x2="428.5" y1="122" y2="122"/><line style="stroke:#181818;stroke-width:0.5;" x1="15.5" x2="428.5" y1="130" y2="130"/><a href="./../../../../../../.././qc/src/net/sourceforge/plantuml/timingdiagram/graphic/HexaShape.java.html#50" target="_top" title="./../../../../../../.././qc/src/net/sourceforge/plantuml/timingdiagram/graphic/HexaShape.java.html#50" xlink:actuate="onRequest" xlink:href="./../../../../../../.././qc/src/net/sourceforge/plantuml/timingdiagram/graphic/HexaShape.java.html#50" xlink:show="new" xlink:title="./../../../../../../.././qc/src/net/sourceforge/plantuml/timingdiagram/graphic/HexaShape.java.html#50" xlink:type="simple"><rect fill="#F1F1F1" height="10" style="stroke:none;stroke-width:1.0;" width="20" x="20.5" y="138.6484"/><rect fill="#F24D5C" height="6" style="stroke:#C82930;stroke-width:1.0;" width="6" x="22.5" y="140.6484"/></a><a href="./../../../../../../.././qc/src/net/sourceforge/plantuml/timingdiagram/graphic/HexaShape.java.html#50" target="_top" title="./../../../../../../.././qc/src/net/sourceforge/plantuml/timingdiagram/graphic/HexaShape.java.html#50" xlink:actuate="onRequest" xlink:href="./../../../../../../.././qc/src/net/sourceforge/plantuml/timingdiagram/graphic/HexaShape.java.html#50" xlink:show="new" xlink:title="./../../../../../../.././qc/src/net/sourceforge/plantuml/timingdiagram/graphic/HexaShape.java.html#50" xlink:type="simple"><text fill="#000000" font-family="sans-serif" font-size="14" lengthAdjust="spacing" textLength="389" x="34.5" y="146.9951">HexaShape(double;double;SymbolContext) : HexaShape</text></a><a href="./../../../../../../.././qc/src/net/sourceforge/plantuml/timingdiagram/graphic/HexaShape.java.html#56" target="_top" title="./../../../../../../.././qc/src/net/sourceforge/plantuml/timingdiagram/graphic/HexaShape.java.html#56" xlink:actuate="onRequest" xlink:href="./../../../../../../.././qc/src/net/sourceforge/plantuml/timingdiagram/graphic/HexaShape.java.html#56" xlink:show="new" xlink:title="./../../../../../../.././qc/src/net/sourceforge/plantuml/timingdiagram/graphic/HexaShape.java.html#56" xlink:type="simple"><rect fill="#F1F1F1" height="10" style="stroke:none;stroke-width:1.0;" width="20" x="20.5" y="154.9453"/><ellipse cx="25.5" cy="159.9453" fill="#84BE84" rx="3" ry="3" style="stroke:#038048;stroke-width:1.0;"/></a><a href="./../../../../../../.././qc/src/net/sourceforge/plantuml/timingdiagram/graphic/HexaShape.java.html#56" target="_top" title="./../../../../../../.././qc/src/net/sourceforge/plantuml/timingdiagram/graphic/HexaShape.java.html#56" xlink:actuate="onRequest" xlink:href="./../../../../../../.././qc/src/net/sourceforge/plantuml/timingdiagram/graphic/HexaShape.java.html#56" xlink:show="new" xlink:title="./../../../../../../.././qc/src/net/sourceforge/plantuml/timingdiagram/graphic/HexaShape.java.html#56" xlink:type="simple"><text fill="#000000" font-family="sans-serif" font-size="14" lengthAdjust="spacing" textLength="355" x="34.5" y="163.292">create(double;double;SymbolContext) : HexaShape</text></a><a href="./../../../../../../.././qc/src/net/sourceforge/plantuml/timingdiagram/graphic/HexaShape.java.html#60" target="_top" title="./../../../../../../.././qc/src/net/sourceforge/plantuml/timingdiagram/graphic/HexaShape.java.html#60" xlink:actuate="onRequest" xlink:href="./../../../../../../.././qc/src/net/sourceforge/plantuml/timingdiagram/graphic/HexaShape.java.html#60" xlink:show="new" xlink:title="./../../../../../../.././qc/src/net/sourceforge/plantuml/timingdiagram/graphic/HexaShape.java.html#60" xlink:type="simple"><rect fill="#F1F1F1" height="10" style="stroke:none;stroke-width:1.0;" width="20" x="20.5" y="171.2422"/><ellipse cx="25.5" cy="176.2422" fill="#84BE84" rx="3" ry="3" style="stroke:#038048;stroke-width:1.0;"/></a><a href="./../../../../../../.././qc/src/net/sourceforge/plantuml/timingdiagram/graphic/HexaShape.java.html#60" target="_top" title="./../../../../../../.././qc/src/net/sourceforge/plantuml/timingdiagram/graphic/HexaShape.java.html#60" xlink:actuate="onRequest" xlink:href="./../../../../../../.././qc/src/net/sourceforge/plantuml/timingdiagram/graphic/HexaShape.java.html#60" xlink:show="new" xlink:title="./../../../../../../.././qc/src/net/sourceforge/plantuml/timingdiagram/graphic/HexaShape.java.html#60" xlink:type="simple"><text fill="#000000" font-family="sans-serif" font-size="14" lengthAdjust="spacing" textLength="157" x="34.5" y="179.5889">drawU(UGraphic) : void</text></a></g><path d="M222,54.1089 C222,64.6313 222,77.495 222,89.9394 " fill="none" style="stroke:#181818;stroke-width:1.0;"/><polygon fill="#FFFFFF" points="222,54.1089,216,70.1089,228,70.1089,222,54.1089" style="stroke:#181818;stroke-width:1.0;"/><!--MD5=[aa2c406c260fd52b22c2d6aff375d4c0]
@startuml
!pragma layout smetana
"UDrawable" <|- - "net.sourceforge.plantuml.timingdiagram.graphic.HexaShape"
class net.sourceforge.plantuml.timingdiagram.graphic.HexaShape {
-HexaShape(double;double;SymbolContext) : HexaShape [[[./../../../../../../.././qc/src/net/sourceforge/plantuml/timingdiagram/graphic/HexaShape.java.html#50]]]
+create(double;double;SymbolContext) : HexaShape [[[./../../../../../../.././qc/src/net/sourceforge/plantuml/timingdiagram/graphic/HexaShape.java.html#56]]]
+drawU(UGraphic) : void [[[./../../../../../../.././qc/src/net/sourceforge/plantuml/timingdiagram/graphic/HexaShape.java.html#60]]]
} 
@enduml

PlantUML version 1.2022.7(Mon Aug 22 17:01:30 UTC 2022)
(GPL source distribution)
Java Runtime: OpenJDK Runtime Environment
JVM: OpenJDK 64-Bit Server VM
Default Encoding: UTF-8
Language: en
Country: null
--></g></svg>