<?xml version="1.0" encoding="UTF-8" standalone="no"?><svg xmlns="http://www.w3.org/2000/svg" xmlns:xlink="http://www.w3.org/1999/xlink" contentStyleType="text/css" height="1585px" preserveAspectRatio="none" style="width:767px;height:1585px;background:#FFFFFF;" version="1.1" viewBox="0 0 767 1585" width="767px" zoomAndPan="magnify"><defs/><g><path d="M331.5,10 L331.5,18.5664 L311.5,22.5664 L331.5,26.5664 L331.5,35.1328 A0,0 0 0 0 331.5,35.1328 L755.5,35.1328 A0,0 0 0 0 755.5,35.1328 L755.5,20 L745.5,10 L331.5,10 A0,0 0 0 0 331.5,10 " fill="#FEFFDD" style="stroke:#181818;stroke-width:0.5;"/><path d="M745.5,10 L745.5,20 L755.5,20 L745.5,10 " fill="#FEFFDD" style="stroke:#181818;stroke-width:0.5;"/><text fill="#000000" font-family="sans-serif" font-size="13" lengthAdjust="spacing" textLength="403" x="337.5" y="27.0669">constructor PlayerFrame(TextBlock title,ISkinParam skinParam)</text><ellipse cx="301.5" cy="22.5664" fill="#222222" rx="10" ry="10" style="stroke:#222222;stroke-width:1.0;"/><rect fill="#F1F1F1" height="33.9688" rx="12.5" ry="12.5" style="stroke:#181818;stroke-width:0.5;" width="109" x="247" y="55.1328"/><text fill="#000000" font-family="sans-serif" font-size="12" lengthAdjust="spacing" textLength="89" x="257" y="76.2715">this.title=title;</text><rect fill="#F1F1F1" height="33.9688" rx="12.5" ry="12.5" style="stroke:#181818;stroke-width:0.5;" width="191" x="206" y="109.1016"/><text fill="#000000" font-family="sans-serif" font-size="12" lengthAdjust="spacing" textLength="171" x="216" y="130.2402">this.skinParam=skinParam;</text><ellipse cx="301.5" cy="173.0703" fill="none" rx="10" ry="10" style="stroke:#222222;stroke-width:1.5;"/><line style="stroke:#222222;stroke-width:2.5;" x1="295.3128" x2="307.6872" y1="166.8831" y2="179.2575"/><line style="stroke:#222222;stroke-width:2.5;" x1="307.6872" x2="295.3128" y1="166.8831" y2="179.2575"/><path d="M331.5,193.0703 L331.5,201.6367 L311.5,205.6367 L331.5,209.6367 L331.5,218.2031 A0,0 0 0 0 331.5,218.2031 L609.5,218.2031 A0,0 0 0 0 609.5,218.2031 L609.5,203.0703 L599.5,193.0703 L331.5,193.0703 A0,0 0 0 0 331.5,193.0703 " fill="#FEFFDD" style="stroke:#181818;stroke-width:0.5;"/><path d="M599.5,193.0703 L599.5,203.0703 L609.5,203.0703 L599.5,193.0703 " fill="#FEFFDD" style="stroke:#181818;stroke-width:0.5;"/><text fill="#000000" font-family="sans-serif" font-size="13" lengthAdjust="spacing" textLength="257" x="337.5" y="210.1372">StyleSignatureBasic getStyleSignature()</text><ellipse cx="301.5" cy="205.6367" fill="#222222" rx="10" ry="10" style="stroke:#222222;stroke-width:1.0;"/><rect fill="#F1F1F1" height="47.9375" rx="12.5" ry="12.5" style="stroke:#181818;stroke-width:0.5;" width="286" x="158.5" y="238.2031"/><text fill="#000000" font-family="sans-serif" font-size="12" lengthAdjust="spacing" textLength="266" x="168.5" y="259.3418">return StyleSignatureBasic.of(SName.root,</text><text fill="#000000" font-family="sans-serif" font-size="12" lengthAdjust="spacing" textLength="250" x="168.5" y="273.3105">SName.element,SName.timingDiagram);</text><ellipse cx="301.5" cy="317.1406" fill="none" rx="11" ry="11" style="stroke:#222222;stroke-width:1.0;"/><ellipse cx="301.5" cy="317.1406" fill="#222222" rx="6" ry="6" style="stroke:#111111;stroke-width:1.0;"/><ellipse cx="301.5" cy="348.1406" fill="none" rx="10" ry="10" style="stroke:#222222;stroke-width:1.5;"/><line style="stroke:#222222;stroke-width:2.5;" x1="295.3128" x2="307.6872" y1="341.9534" y2="354.3278"/><line style="stroke:#222222;stroke-width:2.5;" x1="307.6872" x2="295.3128" y1="341.9534" y2="354.3278"/><path d="M331.5,368.1406 L331.5,376.707 L311.5,380.707 L331.5,384.707 L331.5,393.2734 A0,0 0 0 0 331.5,393.2734 L489.5,393.2734 A0,0 0 0 0 489.5,393.2734 L489.5,378.1406 L479.5,368.1406 L331.5,368.1406 A0,0 0 0 0 331.5,368.1406 " fill="#FEFFDD" style="stroke:#181818;stroke-width:0.5;"/><path d="M479.5,368.1406 L479.5,378.1406 L489.5,378.1406 L479.5,368.1406 " fill="#FEFFDD" style="stroke:#181818;stroke-width:0.5;"/><text fill="#000000" font-family="sans-serif" font-size="13" lengthAdjust="spacing" textLength="137" x="337.5" y="385.2075">HColor getLineColor()</text><ellipse cx="301.5" cy="380.707" fill="#222222" rx="10" ry="10" style="stroke:#222222;stroke-width:1.0;"/><rect fill="#F1F1F1" height="33.9688" rx="12.5" ry="12.5" style="stroke:#181818;stroke-width:0.5;" width="581" x="11" y="413.2734"/><text fill="#000000" font-family="sans-serif" font-size="12" lengthAdjust="spacing" textLength="561" x="21" y="434.4121">final Style style=getStyleSignature().getMergedStyle(skinParam.getCurrentStyleBuilder());</text><rect fill="#F1F1F1" height="33.9688" rx="12.5" ry="12.5" style="stroke:#181818;stroke-width:0.5;" width="493" x="55" y="467.2422"/><text fill="#000000" font-family="sans-serif" font-size="12" lengthAdjust="spacing" textLength="473" x="65" y="488.3809">return style.value(PName.LineColor).asColor(skinParam.getIHtmlColorSet());</text><ellipse cx="301.5" cy="532.2109" fill="none" rx="11" ry="11" style="stroke:#222222;stroke-width:1.0;"/><ellipse cx="301.5" cy="532.2109" fill="#222222" rx="6" ry="6" style="stroke:#111111;stroke-width:1.0;"/><ellipse cx="301.5" cy="563.2109" fill="none" rx="10" ry="10" style="stroke:#222222;stroke-width:1.5;"/><line style="stroke:#222222;stroke-width:2.5;" x1="295.3128" x2="307.6872" y1="557.0238" y2="569.3981"/><line style="stroke:#222222;stroke-width:2.5;" x1="307.6872" x2="295.3128" y1="557.0238" y2="569.3981"/><path d="M331.5,583.2109 L331.5,591.7773 L311.5,595.7773 L331.5,599.7773 L331.5,608.3438 A0,0 0 0 0 331.5,608.3438 L491.5,608.3438 A0,0 0 0 0 491.5,608.3438 L491.5,593.2109 L481.5,583.2109 L331.5,583.2109 A0,0 0 0 0 331.5,583.2109 " fill="#FEFFDD" style="stroke:#181818;stroke-width:0.5;"/><path d="M481.5,583.2109 L481.5,593.2109 L491.5,593.2109 L481.5,583.2109 " fill="#FEFFDD" style="stroke:#181818;stroke-width:0.5;"/><text fill="#000000" font-family="sans-serif" font-size="13" lengthAdjust="spacing" textLength="139" x="337.5" y="600.2778">UStroke getUStroke()</text><ellipse cx="301.5" cy="595.7773" fill="#222222" rx="10" ry="10" style="stroke:#222222;stroke-width:1.0;"/><rect fill="#F1F1F1" height="33.9688" rx="12.5" ry="12.5" style="stroke:#181818;stroke-width:0.5;" width="581" x="11" y="628.3438"/><text fill="#000000" font-family="sans-serif" font-size="12" lengthAdjust="spacing" textLength="561" x="21" y="649.4824">final Style style=getStyleSignature().getMergedStyle(skinParam.getCurrentStyleBuilder());</text><rect fill="#F1F1F1" height="33.9688" rx="12.5" ry="12.5" style="stroke:#181818;stroke-width:0.5;" width="172" x="215.5" y="682.3125"/><text fill="#000000" font-family="sans-serif" font-size="12" lengthAdjust="spacing" textLength="152" x="225.5" y="703.4512">return style.getStroke();</text><ellipse cx="301.5" cy="747.2813" fill="none" rx="11" ry="11" style="stroke:#222222;stroke-width:1.0;"/><ellipse cx="301.5" cy="747.2813" fill="#222222" rx="6" ry="6" style="stroke:#111111;stroke-width:1.0;"/><ellipse cx="301.5" cy="778.2813" fill="none" rx="10" ry="10" style="stroke:#222222;stroke-width:1.5;"/><line style="stroke:#222222;stroke-width:2.5;" x1="295.3128" x2="307.6872" y1="772.0941" y2="784.4684"/><line style="stroke:#222222;stroke-width:2.5;" x1="307.6872" x2="295.3128" y1="772.0941" y2="784.4684"/><path d="M331.5,798.2813 L331.5,806.8477 L311.5,810.8477 L331.5,814.8477 L331.5,823.4141 A0,0 0 0 0 331.5,823.4141 L568.5,823.4141 A0,0 0 0 0 568.5,823.4141 L568.5,808.2813 L558.5,798.2813 L331.5,798.2813 A0,0 0 0 0 331.5,798.2813 " fill="#FEFFDD" style="stroke:#181818;stroke-width:0.5;"/><path d="M558.5,798.2813 L558.5,808.2813 L568.5,808.2813 L558.5,798.2813 " fill="#FEFFDD" style="stroke:#181818;stroke-width:0.5;"/><text fill="#000000" font-family="sans-serif" font-size="13" lengthAdjust="spacing" textLength="216" x="337.5" y="815.3481">void drawFrameTitle(UGraphic ug)</text><ellipse cx="301.5" cy="810.8477" fill="#222222" rx="10" ry="10" style="stroke:#222222;stroke-width:1.0;"/><rect fill="#F1F1F1" height="33.9688" rx="12.5" ry="12.5" style="stroke:#181818;stroke-width:0.5;" width="117" x="243" y="843.4141"/><text fill="#000000" font-family="sans-serif" font-size="12" lengthAdjust="spacing" textLength="97" x="253" y="864.5527">title.drawU(ug);</text><rect fill="#F1F1F1" height="33.9688" rx="12.5" ry="12.5" style="stroke:#181818;stroke-width:0.5;" width="506" x="48.5" y="897.3828"/><text fill="#000000" font-family="sans-serif" font-size="12" lengthAdjust="spacing" textLength="486" x="58.5" y="918.5215">final XDimension2D dimTitle=title.calculateDimension(ug.getStringBounder());</text><rect fill="#F1F1F1" height="33.9688" rx="12.5" ry="12.5" style="stroke:#181818;stroke-width:0.5;" width="329" x="137" y="951.3516"/><text fill="#000000" font-family="sans-serif" font-size="12" lengthAdjust="spacing" textLength="309" x="147" y="972.4902">ug=ug.apply(getLineColor()).apply(getUStroke());</text><rect fill="#F1F1F1" height="33.9688" rx="12.5" ry="12.5" style="stroke:#181818;stroke-width:0.5;" width="306" x="148.5" y="1005.3203"/><text fill="#000000" font-family="sans-serif" font-size="12" lengthAdjust="spacing" textLength="286" x="158.5" y="1026.459">final double widthTmp=dimTitle.getWidth()+1;</text><rect fill="#F1F1F1" height="47.9375" rx="12.5" ry="12.5" style="stroke:#181818;stroke-width:0.5;" width="448" x="77.5" y="1059.2891"/><text fill="#000000" font-family="sans-serif" font-size="12" lengthAdjust="spacing" textLength="428" x="87.5" y="1080.4277">final double height=title.calculateDimension(ug.getStringBounder())</text><text fill="#000000" font-family="sans-serif" font-size="12" lengthAdjust="spacing" textLength="98" x="87.5" y="1094.3965">.getHeight()+1;</text><rect fill="#F1F1F1" height="47.9375" rx="12.5" ry="12.5" style="stroke:#181818;stroke-width:0.5;" width="482" x="60.5" y="1127.2266"/><text fill="#000000" font-family="sans-serif" font-size="12" lengthAdjust="spacing" textLength="462" x="70.5" y="1148.3652">drawLine(ug,-TimingDiagram.marginX1,height,widthTmp,height,widthTmp+</text><text fill="#000000" font-family="sans-serif" font-size="12" lengthAdjust="spacing" textLength="37" x="70.5" y="1162.334">10,0);</text><ellipse cx="301.5" cy="1205.1641" fill="none" rx="10" ry="10" style="stroke:#222222;stroke-width:1.5;"/><line style="stroke:#222222;stroke-width:2.5;" x1="295.3128" x2="307.6872" y1="1198.9769" y2="1211.3512"/><line style="stroke:#222222;stroke-width:2.5;" x1="307.6872" x2="295.3128" y1="1198.9769" y2="1211.3512"/><path d="M331.5,1225.1641 L331.5,1233.7305 L311.5,1237.7305 L331.5,1241.7305 L331.5,1250.2969 A0,0 0 0 0 331.5,1250.2969 L630.5,1250.2969 A0,0 0 0 0 630.5,1250.2969 L630.5,1235.1641 L620.5,1225.1641 L331.5,1225.1641 A0,0 0 0 0 331.5,1225.1641 " fill="#FEFFDD" style="stroke:#181818;stroke-width:0.5;"/><path d="M620.5,1225.1641 L620.5,1235.1641 L630.5,1235.1641 L620.5,1225.1641 " fill="#FEFFDD" style="stroke:#181818;stroke-width:0.5;"/><text fill="#000000" font-family="sans-serif" font-size="13" lengthAdjust="spacing" textLength="278" x="337.5" y="1242.231">void drawLine(UGraphic ug,double ... coord)</text><ellipse cx="301.5" cy="1237.7305" fill="#222222" rx="10" ry="10" style="stroke:#222222;stroke-width:1.0;"/><rect fill="#F1F1F1" height="33.9688" rx="12.5" ry="12.5" style="stroke:#181818;stroke-width:0.5;" width="174" x="214.5" y="1270.2969"/><text fill="#000000" font-family="sans-serif" font-size="12" lengthAdjust="spacing" textLength="154" x="224.5" y="1291.4355">final double x1=coord[i];</text><rect fill="#F1F1F1" height="33.9688" rx="12.5" ry="12.5" style="stroke:#181818;stroke-width:0.5;" width="192" x="205.5" y="1324.2656"/><text fill="#000000" font-family="sans-serif" font-size="12" lengthAdjust="spacing" textLength="172" x="215.5" y="1345.4043">final double y1=coord[i+1];</text><rect fill="#F1F1F1" height="33.9688" rx="12.5" ry="12.5" style="stroke:#181818;stroke-width:0.5;" width="192" x="205.5" y="1378.2344"/><text fill="#000000" font-family="sans-serif" font-size="12" lengthAdjust="spacing" textLength="172" x="215.5" y="1399.373">final double x2=coord[i+2];</text><rect fill="#F1F1F1" height="33.9688" rx="12.5" ry="12.5" style="stroke:#181818;stroke-width:0.5;" width="192" x="205.5" y="1432.2031"/><text fill="#000000" font-family="sans-serif" font-size="12" lengthAdjust="spacing" textLength="172" x="215.5" y="1453.3418">final double y2=coord[i+3];</text><rect fill="#F1F1F1" height="47.9375" rx="12.5" ry="12.5" style="stroke:#181818;stroke-width:0.5;" width="365" x="119" y="1486.1719"/><text fill="#000000" font-family="sans-serif" font-size="12" lengthAdjust="spacing" textLength="345" x="129" y="1507.3105">ug.apply(new UTranslate(x1,y1)).draw(new ULine(x2-x1,</text><text fill="#000000" font-family="sans-serif" font-size="12" lengthAdjust="spacing" textLength="46" x="129" y="1521.2793">y2-y1));</text><ellipse cx="301.5" cy="1564.1094" fill="none" rx="10" ry="10" style="stroke:#222222;stroke-width:1.5;"/><line style="stroke:#222222;stroke-width:2.5;" x1="295.3128" x2="307.6872" y1="1557.9222" y2="1570.2966"/><line style="stroke:#222222;stroke-width:2.5;" x1="307.6872" x2="295.3128" y1="1557.9222" y2="1570.2966"/><line style="stroke:#181818;stroke-width:1.0;" x1="301.5" x2="301.5" y1="32.5664" y2="55.1328"/><polygon fill="#181818" points="297.5,45.1328,301.5,55.1328,305.5,45.1328,301.5,49.1328" style="stroke:#181818;stroke-width:1.0;"/><line style="stroke:#181818;stroke-width:1.0;" x1="301.5" x2="301.5" y1="89.1016" y2="109.1016"/><polygon fill="#181818" points="297.5,99.1016,301.5,109.1016,305.5,99.1016,301.5,103.1016" style="stroke:#181818;stroke-width:1.0;"/><line style="stroke:#181818;stroke-width:1.0;" x1="301.5" x2="301.5" y1="143.0703" y2="163.0703"/><polygon fill="#181818" points="297.5,153.0703,301.5,163.0703,305.5,153.0703,301.5,157.0703" style="stroke:#181818;stroke-width:1.0;"/><line style="stroke:#181818;stroke-width:1.0;" x1="301.5" x2="301.5" y1="215.6367" y2="238.2031"/><polygon fill="#181818" points="297.5,228.2031,301.5,238.2031,305.5,228.2031,301.5,232.2031" style="stroke:#181818;stroke-width:1.0;"/><line style="stroke:#181818;stroke-width:1.0;" x1="301.5" x2="301.5" y1="286.1406" y2="306.1406"/><polygon fill="#181818" points="297.5,296.1406,301.5,306.1406,305.5,296.1406,301.5,300.1406" style="stroke:#181818;stroke-width:1.0;"/><line style="stroke:#181818;stroke-width:1.0;" x1="301.5" x2="301.5" y1="390.707" y2="413.2734"/><polygon fill="#181818" points="297.5,403.2734,301.5,413.2734,305.5,403.2734,301.5,407.2734" style="stroke:#181818;stroke-width:1.0;"/><line style="stroke:#181818;stroke-width:1.0;" x1="301.5" x2="301.5" y1="447.2422" y2="467.2422"/><polygon fill="#181818" points="297.5,457.2422,301.5,467.2422,305.5,457.2422,301.5,461.2422" style="stroke:#181818;stroke-width:1.0;"/><line style="stroke:#181818;stroke-width:1.0;" x1="301.5" x2="301.5" y1="501.2109" y2="521.2109"/><polygon fill="#181818" points="297.5,511.2109,301.5,521.2109,305.5,511.2109,301.5,515.2109" style="stroke:#181818;stroke-width:1.0;"/><line style="stroke:#181818;stroke-width:1.0;" x1="301.5" x2="301.5" y1="605.7773" y2="628.3438"/><polygon fill="#181818" points="297.5,618.3438,301.5,628.3438,305.5,618.3438,301.5,622.3438" style="stroke:#181818;stroke-width:1.0;"/><line style="stroke:#181818;stroke-width:1.0;" x1="301.5" x2="301.5" y1="662.3125" y2="682.3125"/><polygon fill="#181818" points="297.5,672.3125,301.5,682.3125,305.5,672.3125,301.5,676.3125" style="stroke:#181818;stroke-width:1.0;"/><line style="stroke:#181818;stroke-width:1.0;" x1="301.5" x2="301.5" y1="716.2813" y2="736.2813"/><polygon fill="#181818" points="297.5,726.2813,301.5,736.2813,305.5,726.2813,301.5,730.2813" style="stroke:#181818;stroke-width:1.0;"/><line style="stroke:#181818;stroke-width:1.0;" x1="301.5" x2="301.5" y1="820.8477" y2="843.4141"/><polygon fill="#181818" points="297.5,833.4141,301.5,843.4141,305.5,833.4141,301.5,837.4141" style="stroke:#181818;stroke-width:1.0;"/><line style="stroke:#181818;stroke-width:1.0;" x1="301.5" x2="301.5" y1="877.3828" y2="897.3828"/><polygon fill="#181818" points="297.5,887.3828,301.5,897.3828,305.5,887.3828,301.5,891.3828" style="stroke:#181818;stroke-width:1.0;"/><line style="stroke:#181818;stroke-width:1.0;" x1="301.5" x2="301.5" y1="931.3516" y2="951.3516"/><polygon fill="#181818" points="297.5,941.3516,301.5,951.3516,305.5,941.3516,301.5,945.3516" style="stroke:#181818;stroke-width:1.0;"/><line style="stroke:#181818;stroke-width:1.0;" x1="301.5" x2="301.5" y1="985.3203" y2="1005.3203"/><polygon fill="#181818" points="297.5,995.3203,301.5,1005.3203,305.5,995.3203,301.5,999.3203" style="stroke:#181818;stroke-width:1.0;"/><line style="stroke:#181818;stroke-width:1.0;" x1="301.5" x2="301.5" y1="1039.2891" y2="1059.2891"/><polygon fill="#181818" points="297.5,1049.2891,301.5,1059.2891,305.5,1049.2891,301.5,1053.2891" style="stroke:#181818;stroke-width:1.0;"/><line style="stroke:#181818;stroke-width:1.0;" x1="301.5" x2="301.5" y1="1107.2266" y2="1127.2266"/><polygon fill="#181818" points="297.5,1117.2266,301.5,1127.2266,305.5,1117.2266,301.5,1121.2266" style="stroke:#181818;stroke-width:1.0;"/><line style="stroke:#181818;stroke-width:1.0;" x1="301.5" x2="301.5" y1="1175.1641" y2="1195.1641"/><polygon fill="#181818" points="297.5,1185.1641,301.5,1195.1641,305.5,1185.1641,301.5,1189.1641" style="stroke:#181818;stroke-width:1.0;"/><line style="stroke:#181818;stroke-width:1.0;" x1="301.5" x2="301.5" y1="1247.7305" y2="1270.2969"/><polygon fill="#181818" points="297.5,1260.2969,301.5,1270.2969,305.5,1260.2969,301.5,1264.2969" style="stroke:#181818;stroke-width:1.0;"/><line style="stroke:#181818;stroke-width:1.0;" x1="301.5" x2="301.5" y1="1304.2656" y2="1324.2656"/><polygon fill="#181818" points="297.5,1314.2656,301.5,1324.2656,305.5,1314.2656,301.5,1318.2656" style="stroke:#181818;stroke-width:1.0;"/><line style="stroke:#181818;stroke-width:1.0;" x1="301.5" x2="301.5" y1="1358.2344" y2="1378.2344"/><polygon fill="#181818" points="297.5,1368.2344,301.5,1378.2344,305.5,1368.2344,301.5,1372.2344" style="stroke:#181818;stroke-width:1.0;"/><line style="stroke:#181818;stroke-width:1.0;" x1="301.5" x2="301.5" y1="1412.2031" y2="1432.2031"/><polygon fill="#181818" points="297.5,1422.2031,301.5,1432.2031,305.5,1422.2031,301.5,1426.2031" style="stroke:#181818;stroke-width:1.0;"/><line style="stroke:#181818;stroke-width:1.0;" x1="301.5" x2="301.5" y1="1466.1719" y2="1486.1719"/><polygon fill="#181818" points="297.5,1476.1719,301.5,1486.1719,305.5,1476.1719,301.5,1480.1719" style="stroke:#181818;stroke-width:1.0;"/><line style="stroke:#181818;stroke-width:1.0;" x1="301.5" x2="301.5" y1="1534.1094" y2="1554.1094"/><polygon fill="#181818" points="297.5,1544.1094,301.5,1554.1094,305.5,1544.1094,301.5,1548.1094" style="stroke:#181818;stroke-width:1.0;"/><!--MD5=[7d277c5305a9335fc18af5292b8500b2]
@startuml
!pragma layout smetana
start
note right
constructor PlayerFrame(TextBlock title,ISkinParam skinParam)
end note
:this.title=title;;
:this.skinParam=skinParam;;
end
start
note right
StyleSignatureBasic getStyleSignature()
end note
:return StyleSignatureBasic.of(SName.root,
SName.element,SName.timingDiagram);;
stop
end
start
note right
HColor getLineColor()
end note
:final Style style=getStyleSignature().getMergedStyle(skinParam.getCurrentStyleBuilder());;
:return style.value(PName.LineColor).asColor(skinParam.getIHtmlColorSet());;
stop
end
start
note right
UStroke getUStroke()
end note
:final Style style=getStyleSignature().getMergedStyle(skinParam.getCurrentStyleBuilder());;
:return style.getStroke();;
stop
end
start
note right
void drawFrameTitle(UGraphic ug)
end note
:title.drawU(ug);;
:final XDimension2D dimTitle=title.calculateDimension(ug.getStringBounder());;
:ug=ug.apply(getLineColor()).apply(getUStroke());;
:final double widthTmp=dimTitle.getWidth()+1;;
:final double height=title.calculateDimension(ug.getStringBounder())
.getHeight()+1;;
:drawLine(ug,-TimingDiagram.marginX1,height,widthTmp,height,widthTmp+
10,0);;
end
start
note right
void drawLine(UGraphic ug,double ... coord)
end note
:final double x1=coord[i];;
:final double y1=coord[i+1];;
:final double x2=coord[i+2];;
:final double y2=coord[i+3];;
:ug.apply(new UTranslate(x1,y1)).draw(new ULine(x2-x1,
y2-y1));;
end
@enduml

PlantUML version 1.2022.7(Mon Aug 22 17:01:30 UTC 2022)
(GPL source distribution)
Java Runtime: OpenJDK Runtime Environment
JVM: OpenJDK 64-Bit Server VM
Default Encoding: UTF-8
Language: en
Country: null
--></g></svg>