<?xml version="1.0" encoding="UTF-8" standalone="no"?><svg xmlns="http://www.w3.org/2000/svg" xmlns:xlink="http://www.w3.org/1999/xlink" contentStyleType="text/css" height="268px" preserveAspectRatio="none" style="width:307px;height:268px;background:#FFFFFF;" version="1.1" viewBox="0 0 307 268" width="307px" zoomAndPan="magnify"><defs/><g><!--MD5=[aa8f7b917213fcc1c2766e2d59b49067]
cluster java.lang--><g id="cluster_java.lang"><path d="M108.5,6 L178.5,6 A3.75,3.75 0 0 1 181,8.5 L188,28.2969 L197.5,28.2969 A2.5,2.5 0 0 1 200,30.7969 L200,86.5 A2.5,2.5 0 0 1 197.5,89 L108.5,89 A2.5,2.5 0 0 1 106,86.5 L106,8.5 A2.5,2.5 0 0 1 108.5,6 " fill="none" style="stroke:#000000;stroke-width:1.5;"/><line style="stroke:#000000;stroke-width:1.5;" x1="106" x2="188" y1="28.2969" y2="28.2969"/><text fill="#000000" font-family="sans-serif" font-size="14" font-weight="bold" lengthAdjust="spacing" textLength="69" x="110" y="20.9951">java.lang</text></g><!--MD5=[f699040092e4f30d31e861000fe6dc80]
cluster net.sourceforge.plantuml.sdot--><g id="cluster_net.sourceforge.plantuml.sdot"><path d="M8.5,97 L250.5,97 A3.75,3.75 0 0 1 253,99.5 L260,119.2969 L297.5,119.2969 A2.5,2.5 0 0 1 300,121.7969 L300,258.5 A2.5,2.5 0 0 1 297.5,261 L8.5,261 A2.5,2.5 0 0 1 6,258.5 L6,99.5 A2.5,2.5 0 0 1 8.5,97 " fill="none" style="stroke:#000000;stroke-width:1.5;"/><line style="stroke:#000000;stroke-width:1.5;" x1="6" x2="260" y1="119.2969" y2="119.2969"/><text fill="#000000" font-family="sans-serif" font-size="14" font-weight="bold" lengthAdjust="spacing" textLength="241" x="10" y="111.9951">net.sourceforge.plantuml.sdot</text></g><!--MD5=[274ad5661286b626a93603d287cbf95a]
class java.lang.Object--><g id="elem_java.lang.Object"><rect fill="#F1F1F1" height="48" id="java.lang.Object" rx="2.5" ry="2.5" style="stroke:#181818;stroke-width:0.5;" width="77" x="114.5" y="33"/><ellipse cx="129.5" cy="49" fill="#ADD1B2" rx="11" ry="11" style="stroke:#181818;stroke-width:1.0;"/><path d="M132.4688,54.6406 Q131.8906,54.9375 131.25,55.0781 Q130.6094,55.2344 129.9063,55.2344 Q127.4063,55.2344 126.0781,53.5938 Q124.7656,51.9375 124.7656,48.8125 Q124.7656,45.6875 126.0781,44.0313 Q127.4063,42.375 129.9063,42.375 Q130.6094,42.375 131.25,42.5313 Q131.9063,42.6875 132.4688,42.9844 L132.4688,45.7031 Q131.8438,45.125 131.25,44.8594 Q130.6563,44.5781 130.0313,44.5781 Q128.6875,44.5781 128,45.6563 Q127.3125,46.7188 127.3125,48.8125 Q127.3125,50.9063 128,51.9844 Q128.6875,53.0469 130.0313,53.0469 Q130.6563,53.0469 131.25,52.7813 Q131.8438,52.5 132.4688,51.9219 L132.4688,54.6406 Z " fill="#000000"/><text fill="#000000" font-family="sans-serif" font-size="14" lengthAdjust="spacing" textLength="45" x="143.5" y="53.8467">Object</text><line style="stroke:#181818;stroke-width:0.5;" x1="115.5" x2="190.5" y1="65" y2="65"/><line style="stroke:#181818;stroke-width:0.5;" x1="115.5" x2="190.5" y1="73" y2="73"/></g><!--MD5=[7f6b5a5caa6db32e5d1c34ec01a3c9bf]
class net.sourceforge.plantuml.sdot.YMirror--><g id="elem_net.sourceforge.plantuml.sdot.YMirror"><rect codeLine="3" fill="#F1F1F1" height="129.4844" id="net.sourceforge.plantuml.sdot.YMirror" rx="2.5" ry="2.5" style="stroke:#181818;stroke-width:0.5;" width="277" x="14.5" y="124"/><ellipse cx="124.75" cy="140" fill="#ADD1B2" rx="11" ry="11" style="stroke:#181818;stroke-width:1.0;"/><path d="M127.7188,145.6406 Q127.1406,145.9375 126.5,146.0781 Q125.8594,146.2344 125.1563,146.2344 Q122.6563,146.2344 121.3281,144.5938 Q120.0156,142.9375 120.0156,139.8125 Q120.0156,136.6875 121.3281,135.0313 Q122.6563,133.375 125.1563,133.375 Q125.8594,133.375 126.5,133.5313 Q127.1563,133.6875 127.7188,133.9844 L127.7188,136.7031 Q127.0938,136.125 126.5,135.8594 Q125.9063,135.5781 125.2813,135.5781 Q123.9375,135.5781 123.25,136.6563 Q122.5625,137.7188 122.5625,139.8125 Q122.5625,141.9063 123.25,142.9844 Q123.9375,144.0469 125.2813,144.0469 Q125.9063,144.0469 126.5,143.7813 Q127.0938,143.5 127.7188,142.9219 L127.7188,145.6406 Z " fill="#000000"/><text fill="#000000" font-family="sans-serif" font-size="14" lengthAdjust="spacing" textLength="48" x="145.25" y="144.8467">YMirror</text><line style="stroke:#181818;stroke-width:0.5;" x1="15.5" x2="290.5" y1="156" y2="156"/><line style="stroke:#181818;stroke-width:0.5;" x1="15.5" x2="290.5" y1="164" y2="164"/><a href="./../../../../../.././qc/src/net/sourceforge/plantuml/sdot/YMirror.java.html#47" target="_top" title="./../../../../../.././qc/src/net/sourceforge/plantuml/sdot/YMirror.java.html#47" xlink:actuate="onRequest" xlink:href="./../../../../../.././qc/src/net/sourceforge/plantuml/sdot/YMirror.java.html#47" xlink:show="new" xlink:title="./../../../../../.././qc/src/net/sourceforge/plantuml/sdot/YMirror.java.html#47" xlink:type="simple"><rect fill="#F1F1F1" height="10" style="stroke:none;stroke-width:1.0;" width="20" x="20.5" y="172.6484"/><ellipse cx="25.5" cy="177.6484" fill="#84BE84" rx="3" ry="3" style="stroke:#038048;stroke-width:1.0;"/></a><a href="./../../../../../.././qc/src/net/sourceforge/plantuml/sdot/YMirror.java.html#47" target="_top" title="./../../../../../.././qc/src/net/sourceforge/plantuml/sdot/YMirror.java.html#47" xlink:actuate="onRequest" xlink:href="./../../../../../.././qc/src/net/sourceforge/plantuml/sdot/YMirror.java.html#47" xlink:show="new" xlink:title="./../../../../../.././qc/src/net/sourceforge/plantuml/sdot/YMirror.java.html#47" xlink:type="simple"><text fill="#000000" font-family="sans-serif" font-size="14" lengthAdjust="spacing" textLength="167" x="34.5" y="180.9951">YMirror(double) : YMirror</text></a><a href="./../../../../../.././qc/src/net/sourceforge/plantuml/sdot/YMirror.java.html#51" target="_top" title="./../../../../../.././qc/src/net/sourceforge/plantuml/sdot/YMirror.java.html#51" xlink:actuate="onRequest" xlink:href="./../../../../../.././qc/src/net/sourceforge/plantuml/sdot/YMirror.java.html#51" xlink:show="new" xlink:title="./../../../../../.././qc/src/net/sourceforge/plantuml/sdot/YMirror.java.html#51" xlink:type="simple"><rect fill="#F1F1F1" height="10" style="stroke:none;stroke-width:1.0;" width="20" x="20.5" y="188.9453"/><ellipse cx="25.5" cy="193.9453" fill="#84BE84" rx="3" ry="3" style="stroke:#038048;stroke-width:1.0;"/></a><a href="./../../../../../.././qc/src/net/sourceforge/plantuml/sdot/YMirror.java.html#51" target="_top" title="./../../../../../.././qc/src/net/sourceforge/plantuml/sdot/YMirror.java.html#51" xlink:actuate="onRequest" xlink:href="./../../../../../.././qc/src/net/sourceforge/plantuml/sdot/YMirror.java.html#51" xlink:show="new" xlink:title="./../../../../../.././qc/src/net/sourceforge/plantuml/sdot/YMirror.java.html#51" xlink:type="simple"><text fill="#000000" font-family="sans-serif" font-size="14" lengthAdjust="spacing" textLength="199" x="34.5" y="197.292">getMirrored(double) : double</text></a><a href="./../../../../../.././qc/src/net/sourceforge/plantuml/sdot/YMirror.java.html#58" target="_top" title="./../../../../../.././qc/src/net/sourceforge/plantuml/sdot/YMirror.java.html#58" xlink:actuate="onRequest" xlink:href="./../../../../../.././qc/src/net/sourceforge/plantuml/sdot/YMirror.java.html#58" xlink:show="new" xlink:title="./../../../../../.././qc/src/net/sourceforge/plantuml/sdot/YMirror.java.html#58" xlink:type="simple"><rect fill="#F1F1F1" height="10" style="stroke:none;stroke-width:1.0;" width="20" x="20.5" y="205.2422"/><ellipse cx="25.5" cy="210.2422" fill="#84BE84" rx="3" ry="3" style="stroke:#038048;stroke-width:1.0;"/></a><a href="./../../../../../.././qc/src/net/sourceforge/plantuml/sdot/YMirror.java.html#58" target="_top" title="./../../../../../.././qc/src/net/sourceforge/plantuml/sdot/YMirror.java.html#58" xlink:actuate="onRequest" xlink:href="./../../../../../.././qc/src/net/sourceforge/plantuml/sdot/YMirror.java.html#58" xlink:show="new" xlink:title="./../../../../../.././qc/src/net/sourceforge/plantuml/sdot/YMirror.java.html#58" xlink:type="simple"><text fill="#000000" font-family="sans-serif" font-size="14" lengthAdjust="spacing" textLength="231" x="34.5" y="213.5889">getMirrored(XPoint2D) : XPoint2D</text></a><a href="./../../../../../.././qc/src/net/sourceforge/plantuml/sdot/YMirror.java.html#63" target="_top" title="./../../../../../.././qc/src/net/sourceforge/plantuml/sdot/YMirror.java.html#63" xlink:actuate="onRequest" xlink:href="./../../../../../.././qc/src/net/sourceforge/plantuml/sdot/YMirror.java.html#63" xlink:show="new" xlink:title="./../../../../../.././qc/src/net/sourceforge/plantuml/sdot/YMirror.java.html#63" xlink:type="simple"><rect fill="#F1F1F1" height="10" style="stroke:none;stroke-width:1.0;" width="20" x="20.5" y="221.5391"/><ellipse cx="25.5" cy="226.5391" fill="#84BE84" rx="3" ry="3" style="stroke:#038048;stroke-width:1.0;"/></a><a href="./../../../../../.././qc/src/net/sourceforge/plantuml/sdot/YMirror.java.html#63" target="_top" title="./../../../../../.././qc/src/net/sourceforge/plantuml/sdot/YMirror.java.html#63" xlink:actuate="onRequest" xlink:href="./../../../../../.././qc/src/net/sourceforge/plantuml/sdot/YMirror.java.html#63" xlink:show="new" xlink:title="./../../../../../.././qc/src/net/sourceforge/plantuml/sdot/YMirror.java.html#63" xlink:type="simple"><text fill="#000000" font-family="sans-serif" font-size="14" lengthAdjust="spacing" textLength="215" x="34.5" y="229.8857">getMirrored(DotPath) : DotPath</text></a><a href="./../../../../../.././qc/src/net/sourceforge/plantuml/sdot/YMirror.java.html#72" target="_top" title="./../../../../../.././qc/src/net/sourceforge/plantuml/sdot/YMirror.java.html#72" xlink:actuate="onRequest" xlink:href="./../../../../../.././qc/src/net/sourceforge/plantuml/sdot/YMirror.java.html#72" xlink:show="new" xlink:title="./../../../../../.././qc/src/net/sourceforge/plantuml/sdot/YMirror.java.html#72" xlink:type="simple"><rect fill="#F1F1F1" height="10" style="stroke:none;stroke-width:1.0;" width="20" x="20.5" y="237.8359"/><ellipse cx="25.5" cy="242.8359" fill="#84BE84" rx="3" ry="3" style="stroke:#038048;stroke-width:1.0;"/></a><a href="./../../../../../.././qc/src/net/sourceforge/plantuml/sdot/YMirror.java.html#72" target="_top" title="./../../../../../.././qc/src/net/sourceforge/plantuml/sdot/YMirror.java.html#72" xlink:actuate="onRequest" xlink:href="./../../../../../.././qc/src/net/sourceforge/plantuml/sdot/YMirror.java.html#72" xlink:show="new" xlink:title="./../../../../../.././qc/src/net/sourceforge/plantuml/sdot/YMirror.java.html#72" xlink:type="simple"><text fill="#000000" font-family="sans-serif" font-size="14" lengthAdjust="spacing" textLength="251" x="34.5" y="246.1826">getMirrored(UTranslate) : UTranslate</text></a></g><path d="M153,81.152 C153,93.2288 153,108.6536 153,123.9859 " fill="none" style="stroke:#181818;stroke-width:1.0;"/><polygon fill="#FFFFFF" points="153,81.152,147,97.152,159,97.152,153,81.152" style="stroke:#181818;stroke-width:1.0;"/><!--MD5=[d12c59a462f8ac09e69e607d1086e5a5]
@startuml
!pragma layout smetana
"java.lang.Object" <|- - "net.sourceforge.plantuml.sdot.YMirror"
class net.sourceforge.plantuml.sdot.YMirror {
+YMirror(double) : YMirror [[[./../../../../../.././qc/src/net/sourceforge/plantuml/sdot/YMirror.java.html#47]]]
+getMirrored(double) : double [[[./../../../../../.././qc/src/net/sourceforge/plantuml/sdot/YMirror.java.html#51]]]
+getMirrored(XPoint2D) : XPoint2D [[[./../../../../../.././qc/src/net/sourceforge/plantuml/sdot/YMirror.java.html#58]]]
+getMirrored(DotPath) : DotPath [[[./../../../../../.././qc/src/net/sourceforge/plantuml/sdot/YMirror.java.html#63]]]
+getMirrored(UTranslate) : UTranslate [[[./../../../../../.././qc/src/net/sourceforge/plantuml/sdot/YMirror.java.html#72]]]
} 
@enduml

PlantUML version 1.2022.7(Mon Aug 22 17:01:30 UTC 2022)
(GPL source distribution)
Java Runtime: OpenJDK Runtime Environment
JVM: OpenJDK 64-Bit Server VM
Default Encoding: UTF-8
Language: en
Country: null
--></g></svg>