<?xml version="1.0" encoding="UTF-8" standalone="no"?><svg xmlns="http://www.w3.org/2000/svg" xmlns:xlink="http://www.w3.org/1999/xlink" contentStyleType="text/css" height="186px" preserveAspectRatio="none" style="width:533px;height:186px;background:#FFFFFF;" version="1.1" viewBox="0 0 533 186" width="533px" zoomAndPan="magnify"><defs/><g><!--MD5=[eb129185e3f9e5226a7e638d4a0af713]
cluster net.sourceforge.plantuml.graphic--><g id="cluster_net.sourceforge.plantuml.graphic"><path d="M8.5,63 L274.5,63 A3.75,3.75 0 0 1 277,65.5 L284,85.2969 L523.5,85.2969 A2.5,2.5 0 0 1 526,87.7969 L526,176.5 A2.5,2.5 0 0 1 523.5,179 L8.5,179 A2.5,2.5 0 0 1 6,176.5 L6,65.5 A2.5,2.5 0 0 1 8.5,63 " fill="none" style="stroke:#000000;stroke-width:1.5;"/><line style="stroke:#000000;stroke-width:1.5;" x1="6" x2="284" y1="85.2969" y2="85.2969"/><text fill="#000000" font-family="sans-serif" font-size="14" font-weight="bold" lengthAdjust="spacing" textLength="265" x="10" y="77.9951">net.sourceforge.plantuml.graphic</text></g><!--MD5=[0e20a00bc3b35dcf5d17af8400babc95]
class TextBlock--><g id="elem_TextBlock"><rect fill="#F1F1F1" height="48" id="TextBlock" rx="2.5" ry="2.5" style="stroke:#181818;stroke-width:0.5;" width="100" x="216" y="6"/><ellipse cx="231" cy="22" fill="#ADD1B2" rx="11" ry="11" style="stroke:#181818;stroke-width:1.0;"/><path d="M233.9688,27.6406 Q233.3906,27.9375 232.75,28.0781 Q232.1094,28.2344 231.4063,28.2344 Q228.9063,28.2344 227.5781,26.5938 Q226.2656,24.9375 226.2656,21.8125 Q226.2656,18.6875 227.5781,17.0313 Q228.9063,15.375 231.4063,15.375 Q232.1094,15.375 232.75,15.5313 Q233.4063,15.6875 233.9688,15.9844 L233.9688,18.7031 Q233.3438,18.125 232.75,17.8594 Q232.1563,17.5781 231.5313,17.5781 Q230.1875,17.5781 229.5,18.6563 Q228.8125,19.7188 228.8125,21.8125 Q228.8125,23.9063 229.5,24.9844 Q230.1875,26.0469 231.5313,26.0469 Q232.1563,26.0469 232.75,25.7813 Q233.3438,25.5 233.9688,24.9219 L233.9688,27.6406 Z " fill="#000000"/><text fill="#000000" font-family="sans-serif" font-size="14" lengthAdjust="spacing" textLength="68" x="245" y="26.8467">TextBlock</text><line style="stroke:#181818;stroke-width:0.5;" x1="217" x2="315" y1="38" y2="38"/><line style="stroke:#181818;stroke-width:0.5;" x1="217" x2="315" y1="46" y2="46"/></g><!--MD5=[51af754b2e19b2a4bbd87999f4e38598]
class net.sourceforge.plantuml.graphic.AbstractTextBlock--><g id="elem_net.sourceforge.plantuml.graphic.AbstractTextBlock"><rect codeLine="3" fill="#F1F1F1" height="80.5938" id="net.sourceforge.plantuml.graphic.AbstractTextBlock" rx="2.5" ry="2.5" style="stroke:#181818;stroke-width:0.5;" width="503" x="14.5" y="90"/><ellipse cx="199.25" cy="106" fill="#ADD1B2" rx="11" ry="11" style="stroke:#181818;stroke-width:1.0;"/><path d="M202.2188,111.6406 Q201.6406,111.9375 201,112.0781 Q200.3594,112.2344 199.6563,112.2344 Q197.1563,112.2344 195.8281,110.5938 Q194.5156,108.9375 194.5156,105.8125 Q194.5156,102.6875 195.8281,101.0313 Q197.1563,99.375 199.6563,99.375 Q200.3594,99.375 201,99.5313 Q201.6563,99.6875 202.2188,99.9844 L202.2188,102.7031 Q201.5938,102.125 201,101.8594 Q200.4063,101.5781 199.7813,101.5781 Q198.4375,101.5781 197.75,102.6563 Q197.0625,103.7188 197.0625,105.8125 Q197.0625,107.9063 197.75,108.9844 Q198.4375,110.0469 199.7813,110.0469 Q200.4063,110.0469 201,109.7813 Q201.5938,109.5 202.2188,108.9219 L202.2188,111.6406 Z " fill="#000000"/><text fill="#000000" font-family="sans-serif" font-size="14" lengthAdjust="spacing" textLength="125" x="219.75" y="110.8467">AbstractTextBlock</text><line style="stroke:#181818;stroke-width:0.5;" x1="15.5" x2="516.5" y1="122" y2="122"/><line style="stroke:#181818;stroke-width:0.5;" x1="15.5" x2="516.5" y1="130" y2="130"/><a href="./../../../../../.././qc/src/net/sourceforge/plantuml/graphic/AbstractTextBlock.java.html#44" target="_top" title="./../../../../../.././qc/src/net/sourceforge/plantuml/graphic/AbstractTextBlock.java.html#44" xlink:actuate="onRequest" xlink:href="./../../../../../.././qc/src/net/sourceforge/plantuml/graphic/AbstractTextBlock.java.html#44" xlink:show="new" xlink:title="./../../../../../.././qc/src/net/sourceforge/plantuml/graphic/AbstractTextBlock.java.html#44" xlink:type="simple"><rect fill="#F1F1F1" height="10" style="stroke:none;stroke-width:1.0;" width="20" x="20.5" y="138.6484"/><ellipse cx="25.5" cy="143.6484" fill="#84BE84" rx="3" ry="3" style="stroke:#038048;stroke-width:1.0;"/></a><a href="./../../../../../.././qc/src/net/sourceforge/plantuml/graphic/AbstractTextBlock.java.html#44" target="_top" title="./../../../../../.././qc/src/net/sourceforge/plantuml/graphic/AbstractTextBlock.java.html#44" xlink:actuate="onRequest" xlink:href="./../../../../../.././qc/src/net/sourceforge/plantuml/graphic/AbstractTextBlock.java.html#44" xlink:show="new" xlink:title="./../../../../../.././qc/src/net/sourceforge/plantuml/graphic/AbstractTextBlock.java.html#44" xlink:type="simple"><text fill="#000000" font-family="sans-serif" font-size="14" lengthAdjust="spacing" textLength="477" x="34.5" y="146.9951">getInnerPosition(String;StringBounder;InnerStrategy) : XRectangle2D</text></a><a href="./../../../../../.././qc/src/net/sourceforge/plantuml/graphic/AbstractTextBlock.java.html#49" target="_top" title="./../../../../../.././qc/src/net/sourceforge/plantuml/graphic/AbstractTextBlock.java.html#49" xlink:actuate="onRequest" xlink:href="./../../../../../.././qc/src/net/sourceforge/plantuml/graphic/AbstractTextBlock.java.html#49" xlink:show="new" xlink:title="./../../../../../.././qc/src/net/sourceforge/plantuml/graphic/AbstractTextBlock.java.html#49" xlink:type="simple"><rect fill="#F1F1F1" height="10" style="stroke:none;stroke-width:1.0;" width="20" x="20.5" y="154.9453"/><ellipse cx="25.5" cy="159.9453" fill="#84BE84" rx="3" ry="3" style="stroke:#038048;stroke-width:1.0;"/></a><a href="./../../../../../.././qc/src/net/sourceforge/plantuml/graphic/AbstractTextBlock.java.html#49" target="_top" title="./../../../../../.././qc/src/net/sourceforge/plantuml/graphic/AbstractTextBlock.java.html#49" xlink:actuate="onRequest" xlink:href="./../../../../../.././qc/src/net/sourceforge/plantuml/graphic/AbstractTextBlock.java.html#49" xlink:show="new" xlink:title="./../../../../../.././qc/src/net/sourceforge/plantuml/graphic/AbstractTextBlock.java.html#49" xlink:type="simple"><text fill="#000000" font-family="sans-serif" font-size="14" lengthAdjust="spacing" textLength="248" x="34.5" y="163.292">getMinMax(StringBounder) : MinMax</text></a></g><path d="M266,54.0939 C266,64.784 266,77.7904 266,89.9706 " fill="none" style="stroke:#181818;stroke-width:1.0;"/><polygon fill="#FFFFFF" points="266,54.0939,260,70.0939,272,70.0939,266,54.0939" style="stroke:#181818;stroke-width:1.0;"/><!--MD5=[77b564aedb4f9c0e43469cabcf294e91]
@startuml
!pragma layout smetana
"TextBlock" <|- - "net.sourceforge.plantuml.graphic.AbstractTextBlock"
class net.sourceforge.plantuml.graphic.AbstractTextBlock {
+getInnerPosition(String;StringBounder;InnerStrategy) : XRectangle2D [[[./../../../../../.././qc/src/net/sourceforge/plantuml/graphic/AbstractTextBlock.java.html#44]]]
+getMinMax(StringBounder) : MinMax [[[./../../../../../.././qc/src/net/sourceforge/plantuml/graphic/AbstractTextBlock.java.html#49]]]
} 
@enduml

PlantUML version 1.2022.7(Mon Aug 22 17:01:30 UTC 2022)
(GPL source distribution)
Java Runtime: OpenJDK Runtime Environment
JVM: OpenJDK 64-Bit Server VM
Default Encoding: UTF-8
Language: en
Country: null
--></g></svg>