<?xml version="1.0" encoding="UTF-8" standalone="no"?><svg xmlns="http://www.w3.org/2000/svg" xmlns:xlink="http://www.w3.org/1999/xlink" contentStyleType="text/css" height="218px" preserveAspectRatio="none" style="width:617px;height:218px;background:#FFFFFF;" version="1.1" viewBox="0 0 617 218" width="617px" zoomAndPan="magnify"><defs/><g><!--MD5=[eb129185e3f9e5226a7e638d4a0af713]
cluster net.sourceforge.plantuml.graphic--><g id="cluster_net.sourceforge.plantuml.graphic"><path d="M8.5,63 L274.5,63 A3.75,3.75 0 0 1 277,65.5 L284,85.2969 L607.5,85.2969 A2.5,2.5 0 0 1 610,87.7969 L610,208.5 A2.5,2.5 0 0 1 607.5,211 L8.5,211 A2.5,2.5 0 0 1 6,208.5 L6,65.5 A2.5,2.5 0 0 1 8.5,63 " fill="none" style="stroke:#000000;stroke-width:1.5;"/><line style="stroke:#000000;stroke-width:1.5;" x1="6" x2="284" y1="85.2969" y2="85.2969"/><text fill="#000000" font-family="sans-serif" font-size="14" font-weight="bold" lengthAdjust="spacing" textLength="265" x="10" y="77.9951">net.sourceforge.plantuml.graphic</text></g><!--MD5=[51c245dabec8a65e00be058e8eb5d9e2]
class AbstractTextBlock--><g id="elem_AbstractTextBlock"><rect fill="#F1F1F1" height="48" id="AbstractTextBlock" rx="2.5" ry="2.5" style="stroke:#181818;stroke-width:0.5;" width="157" x="229.5" y="6"/><ellipse cx="244.5" cy="22" fill="#ADD1B2" rx="11" ry="11" style="stroke:#181818;stroke-width:1.0;"/><path d="M247.4688,27.6406 Q246.8906,27.9375 246.25,28.0781 Q245.6094,28.2344 244.9063,28.2344 Q242.4063,28.2344 241.0781,26.5938 Q239.7656,24.9375 239.7656,21.8125 Q239.7656,18.6875 241.0781,17.0313 Q242.4063,15.375 244.9063,15.375 Q245.6094,15.375 246.25,15.5313 Q246.9063,15.6875 247.4688,15.9844 L247.4688,18.7031 Q246.8438,18.125 246.25,17.8594 Q245.6563,17.5781 245.0313,17.5781 Q243.6875,17.5781 243,18.6563 Q242.3125,19.7188 242.3125,21.8125 Q242.3125,23.9063 243,24.9844 Q243.6875,26.0469 245.0313,26.0469 Q245.6563,26.0469 246.25,25.7813 Q246.8438,25.5 247.4688,24.9219 L247.4688,27.6406 Z " fill="#000000"/><text fill="#000000" font-family="sans-serif" font-size="14" lengthAdjust="spacing" textLength="125" x="258.5" y="26.8467">AbstractTextBlock</text><line style="stroke:#181818;stroke-width:0.5;" x1="230.5" x2="385.5" y1="38" y2="38"/><line style="stroke:#181818;stroke-width:0.5;" x1="230.5" x2="385.5" y1="46" y2="46"/></g><!--MD5=[3cdc307df0570e727755a158d7389afe]
class net.sourceforge.plantuml.graphic.TextBlockHorizontal--><g id="elem_net.sourceforge.plantuml.graphic.TextBlockHorizontal"><rect codeLine="3" fill="#F1F1F1" height="113.1875" id="net.sourceforge.plantuml.graphic.TextBlockHorizontal" rx="2.5" ry="2.5" style="stroke:#181818;stroke-width:0.5;" width="588" x="14" y="90"/><ellipse cx="235.25" cy="106" fill="#ADD1B2" rx="11" ry="11" style="stroke:#181818;stroke-width:1.0;"/><path d="M238.2188,111.6406 Q237.6406,111.9375 237,112.0781 Q236.3594,112.2344 235.6563,112.2344 Q233.1563,112.2344 231.8281,110.5938 Q230.5156,108.9375 230.5156,105.8125 Q230.5156,102.6875 231.8281,101.0313 Q233.1563,99.375 235.6563,99.375 Q236.3594,99.375 237,99.5313 Q237.6563,99.6875 238.2188,99.9844 L238.2188,102.7031 Q237.5938,102.125 237,101.8594 Q236.4063,101.5781 235.7813,101.5781 Q234.4375,101.5781 233.75,102.6563 Q233.0625,103.7188 233.0625,105.8125 Q233.0625,107.9063 233.75,108.9844 Q234.4375,110.0469 235.7813,110.0469 Q236.4063,110.0469 237,109.7813 Q237.5938,109.5 238.2188,108.9219 L238.2188,111.6406 Z " fill="#000000"/><text fill="#000000" font-family="sans-serif" font-size="14" lengthAdjust="spacing" textLength="137" x="255.75" y="110.8467">TextBlockHorizontal</text><line style="stroke:#181818;stroke-width:0.5;" x1="15" x2="601" y1="122" y2="122"/><line style="stroke:#181818;stroke-width:0.5;" x1="15" x2="601" y1="130" y2="130"/><a href="./../../../../../.././qc/src/net/sourceforge/plantuml/graphic/TextBlockHorizontal.java.html#50" target="_top" title="./../../../../../.././qc/src/net/sourceforge/plantuml/graphic/TextBlockHorizontal.java.html#50" xlink:actuate="onRequest" xlink:href="./../../../../../.././qc/src/net/sourceforge/plantuml/graphic/TextBlockHorizontal.java.html#50" xlink:show="new" xlink:title="./../../../../../.././qc/src/net/sourceforge/plantuml/graphic/TextBlockHorizontal.java.html#50" xlink:type="simple"><text fill="#000000" font-family="sans-serif" font-size="14" lengthAdjust="spacing" textLength="562" x="34" y="146.9951">TextBlockHorizontal(TextBlock;TextBlock;VerticalAlignment) : TextBlockHorizontal</text></a><a href="./../../../../../.././qc/src/net/sourceforge/plantuml/graphic/TextBlockHorizontal.java.html#56" target="_top" title="./../../../../../.././qc/src/net/sourceforge/plantuml/graphic/TextBlockHorizontal.java.html#56" xlink:actuate="onRequest" xlink:href="./../../../../../.././qc/src/net/sourceforge/plantuml/graphic/TextBlockHorizontal.java.html#56" xlink:show="new" xlink:title="./../../../../../.././qc/src/net/sourceforge/plantuml/graphic/TextBlockHorizontal.java.html#56" xlink:type="simple"><rect fill="#F1F1F1" height="10" style="stroke:none;stroke-width:1.0;" width="20" x="20" y="154.9453"/><ellipse cx="25" cy="159.9453" fill="#84BE84" rx="3" ry="3" style="stroke:#038048;stroke-width:1.0;"/></a><a href="./../../../../../.././qc/src/net/sourceforge/plantuml/graphic/TextBlockHorizontal.java.html#56" target="_top" title="./../../../../../.././qc/src/net/sourceforge/plantuml/graphic/TextBlockHorizontal.java.html#56" xlink:actuate="onRequest" xlink:href="./../../../../../.././qc/src/net/sourceforge/plantuml/graphic/TextBlockHorizontal.java.html#56" xlink:show="new" xlink:title="./../../../../../.././qc/src/net/sourceforge/plantuml/graphic/TextBlockHorizontal.java.html#56" xlink:type="simple"><text fill="#000000" font-family="sans-serif" font-size="14" lengthAdjust="spacing" textLength="536" x="34" y="163.292">TextBlockHorizontal(List&lt;TextBlock&gt;;VerticalAlignment) : TextBlockHorizontal</text></a><a href="./../../../../../.././qc/src/net/sourceforge/plantuml/graphic/TextBlockHorizontal.java.html#64" target="_top" title="./../../../../../.././qc/src/net/sourceforge/plantuml/graphic/TextBlockHorizontal.java.html#64" xlink:actuate="onRequest" xlink:href="./../../../../../.././qc/src/net/sourceforge/plantuml/graphic/TextBlockHorizontal.java.html#64" xlink:show="new" xlink:title="./../../../../../.././qc/src/net/sourceforge/plantuml/graphic/TextBlockHorizontal.java.html#64" xlink:type="simple"><rect fill="#F1F1F1" height="10" style="stroke:none;stroke-width:1.0;" width="20" x="20" y="171.2422"/><ellipse cx="25" cy="176.2422" fill="#84BE84" rx="3" ry="3" style="stroke:#038048;stroke-width:1.0;"/></a><a href="./../../../../../.././qc/src/net/sourceforge/plantuml/graphic/TextBlockHorizontal.java.html#64" target="_top" title="./../../../../../.././qc/src/net/sourceforge/plantuml/graphic/TextBlockHorizontal.java.html#64" xlink:actuate="onRequest" xlink:href="./../../../../../.././qc/src/net/sourceforge/plantuml/graphic/TextBlockHorizontal.java.html#64" xlink:show="new" xlink:title="./../../../../../.././qc/src/net/sourceforge/plantuml/graphic/TextBlockHorizontal.java.html#64" xlink:type="simple"><text fill="#000000" font-family="sans-serif" font-size="14" lengthAdjust="spacing" textLength="361" x="34" y="179.5889">calculateDimension(StringBounder) : XDimension2D</text></a><a href="./../../../../../.././qc/src/net/sourceforge/plantuml/graphic/TextBlockHorizontal.java.html#72" target="_top" title="./../../../../../.././qc/src/net/sourceforge/plantuml/graphic/TextBlockHorizontal.java.html#72" xlink:actuate="onRequest" xlink:href="./../../../../../.././qc/src/net/sourceforge/plantuml/graphic/TextBlockHorizontal.java.html#72" xlink:show="new" xlink:title="./../../../../../.././qc/src/net/sourceforge/plantuml/graphic/TextBlockHorizontal.java.html#72" xlink:type="simple"><rect fill="#F1F1F1" height="10" style="stroke:none;stroke-width:1.0;" width="20" x="20" y="187.5391"/><ellipse cx="25" cy="192.5391" fill="#84BE84" rx="3" ry="3" style="stroke:#038048;stroke-width:1.0;"/></a><a href="./../../../../../.././qc/src/net/sourceforge/plantuml/graphic/TextBlockHorizontal.java.html#72" target="_top" title="./../../../../../.././qc/src/net/sourceforge/plantuml/graphic/TextBlockHorizontal.java.html#72" xlink:actuate="onRequest" xlink:href="./../../../../../.././qc/src/net/sourceforge/plantuml/graphic/TextBlockHorizontal.java.html#72" xlink:show="new" xlink:title="./../../../../../.././qc/src/net/sourceforge/plantuml/graphic/TextBlockHorizontal.java.html#72" xlink:type="simple"><text fill="#000000" font-family="sans-serif" font-size="14" lengthAdjust="spacing" textLength="157" x="34" y="195.8857">drawU(UGraphic) : void</text></a></g><path d="M308,54.1708 C308,64.4955 308,77.1452 308,89.7017 " fill="none" style="stroke:#181818;stroke-width:1.0;"/><polygon fill="#FFFFFF" points="308,54.1708,302,70.1708,314,70.1708,308,54.1708" style="stroke:#181818;stroke-width:1.0;"/><!--MD5=[cd3135b3bce0efe6c1a9a5382c8ffdaa]
@startuml
!pragma layout smetana
"AbstractTextBlock" <|- - "net.sourceforge.plantuml.graphic.TextBlockHorizontal"
class net.sourceforge.plantuml.graphic.TextBlockHorizontal {
TextBlockHorizontal(TextBlock;TextBlock;VerticalAlignment) : TextBlockHorizontal [[[./../../../../../.././qc/src/net/sourceforge/plantuml/graphic/TextBlockHorizontal.java.html#50]]]
+TextBlockHorizontal(List<TextBlock>;VerticalAlignment) : TextBlockHorizontal [[[./../../../../../.././qc/src/net/sourceforge/plantuml/graphic/TextBlockHorizontal.java.html#56]]]
+calculateDimension(StringBounder) : XDimension2D [[[./../../../../../.././qc/src/net/sourceforge/plantuml/graphic/TextBlockHorizontal.java.html#64]]]
+drawU(UGraphic) : void [[[./../../../../../.././qc/src/net/sourceforge/plantuml/graphic/TextBlockHorizontal.java.html#72]]]
} 
@enduml

PlantUML version 1.2022.7(Mon Aug 22 17:01:30 UTC 2022)
(GPL source distribution)
Java Runtime: OpenJDK Runtime Environment
JVM: OpenJDK 64-Bit Server VM
Default Encoding: UTF-8
Language: en
Country: null
--></g></svg>