<?xml version="1.0" encoding="UTF-8" standalone="no"?><svg xmlns="http://www.w3.org/2000/svg" xmlns:xlink="http://www.w3.org/1999/xlink" contentStyleType="text/css" height="2216px" preserveAspectRatio="none" style="width:723px;height:2216px;background:#FFFFFF;" version="1.1" viewBox="0 0 723 2216" width="723px" zoomAndPan="magnify"><defs/><g><path d="M271.5,10 L271.5,26.1328 L251.5,30.1328 L271.5,34.1328 L271.5,50.2656 A0,0 0 0 0 271.5,50.2656 L660.5,50.2656 A0,0 0 0 0 660.5,50.2656 L660.5,20 L650.5,10 L271.5,10 A0,0 0 0 0 271.5,10 " fill="#FEFFDD" style="stroke:#181818;stroke-width:0.5;"/><path d="M650.5,10 L650.5,20 L660.5,20 L650.5,10 " fill="#FEFFDD" style="stroke:#181818;stroke-width:0.5;"/><text fill="#000000" font-family="sans-serif" font-size="13" lengthAdjust="spacing" textLength="368" x="277.5" y="27.0669">constructor TextBlockLineBefore(double defaultThickness,</text><text fill="#000000" font-family="sans-serif" font-size="13" lengthAdjust="spacing" textLength="320" x="277.5" y="42.1997">TextBlock textBlock,char separator,TextBlock title)</text><ellipse cx="241.5" cy="30.1328" fill="#222222" rx="10" ry="10" style="stroke:#222222;stroke-width:1.0;"/><rect fill="#F1F1F1" height="33.9688" rx="12.5" ry="12.5" style="stroke:#181818;stroke-width:0.5;" width="175" x="154" y="70.2656"/><text fill="#000000" font-family="sans-serif" font-size="12" lengthAdjust="spacing" textLength="155" x="164" y="91.4043">this.textBlock=textBlock;</text><rect fill="#F1F1F1" height="33.9688" rx="12.5" ry="12.5" style="stroke:#181818;stroke-width:0.5;" width="185" x="149" y="124.2344"/><text fill="#000000" font-family="sans-serif" font-size="12" lengthAdjust="spacing" textLength="165" x="159" y="145.373">this.separator=separator;</text><rect fill="#F1F1F1" height="33.9688" rx="12.5" ry="12.5" style="stroke:#181818;stroke-width:0.5;" width="109" x="187" y="178.2031"/><text fill="#000000" font-family="sans-serif" font-size="12" lengthAdjust="spacing" textLength="89" x="197" y="199.3418">this.title=title;</text><rect fill="#F1F1F1" height="33.9688" rx="12.5" ry="12.5" style="stroke:#181818;stroke-width:0.5;" width="273" x="105" y="232.1719"/><text fill="#000000" font-family="sans-serif" font-size="12" lengthAdjust="spacing" textLength="253" x="115" y="253.3105">this.defaultThickness=defaultThickness;</text><ellipse cx="241.5" cy="296.1406" fill="none" rx="10" ry="10" style="stroke:#222222;stroke-width:1.5;"/><line style="stroke:#222222;stroke-width:2.5;" x1="235.3128" x2="247.6872" y1="289.9534" y2="302.3278"/><line style="stroke:#222222;stroke-width:2.5;" x1="247.6872" x2="235.3128" y1="289.9534" y2="302.3278"/><path d="M271.5,316.1406 L271.5,332.2734 L251.5,336.2734 L271.5,340.2734 L271.5,356.4063 A0,0 0 0 0 271.5,356.4063 L660.5,356.4063 A0,0 0 0 0 660.5,356.4063 L660.5,326.1406 L650.5,316.1406 L271.5,316.1406 A0,0 0 0 0 271.5,316.1406 " fill="#FEFFDD" style="stroke:#181818;stroke-width:0.5;"/><path d="M650.5,316.1406 L650.5,326.1406 L660.5,326.1406 L650.5,316.1406 " fill="#FEFFDD" style="stroke:#181818;stroke-width:0.5;"/><text fill="#000000" font-family="sans-serif" font-size="13" lengthAdjust="spacing" textLength="368" x="277.5" y="333.2075">constructor TextBlockLineBefore(double defaultThickness,</text><text fill="#000000" font-family="sans-serif" font-size="13" lengthAdjust="spacing" textLength="227" x="277.5" y="348.3403">TextBlock textBlock,char separator)</text><ellipse cx="241.5" cy="336.2734" fill="#222222" rx="10" ry="10" style="stroke:#222222;stroke-width:1.0;"/><rect fill="#F1F1F1" height="47.9375" rx="12.5" ry="12.5" style="stroke:#181818;stroke-width:0.5;" width="285" x="99" y="376.4063"/><text fill="#000000" font-family="sans-serif" font-size="12" lengthAdjust="spacing" textLength="265" x="109" y="397.5449">this(defaultThickness,textBlock,separator,</text><text fill="#000000" font-family="sans-serif" font-size="12" lengthAdjust="spacing" textLength="35" x="109" y="411.5137">null );</text><ellipse cx="241.5" cy="454.3438" fill="none" rx="10" ry="10" style="stroke:#222222;stroke-width:1.5;"/><line style="stroke:#222222;stroke-width:2.5;" x1="235.3128" x2="247.6872" y1="448.1566" y2="460.5309"/><line style="stroke:#222222;stroke-width:2.5;" x1="247.6872" x2="235.3128" y1="448.1566" y2="460.5309"/><path d="M271.5,474.3438 L271.5,490.4766 L251.5,494.4766 L271.5,498.4766 L271.5,514.6094 A0,0 0 0 0 271.5,514.6094 L660.5,514.6094 A0,0 0 0 0 660.5,514.6094 L660.5,484.3438 L650.5,474.3438 L271.5,474.3438 A0,0 0 0 0 271.5,474.3438 " fill="#FEFFDD" style="stroke:#181818;stroke-width:0.5;"/><path d="M650.5,474.3438 L650.5,484.3438 L660.5,484.3438 L650.5,474.3438 " fill="#FEFFDD" style="stroke:#181818;stroke-width:0.5;"/><text fill="#000000" font-family="sans-serif" font-size="13" lengthAdjust="spacing" textLength="368" x="277.5" y="491.4106">constructor TextBlockLineBefore(double defaultThickness,</text><text fill="#000000" font-family="sans-serif" font-size="13" lengthAdjust="spacing" textLength="129" x="277.5" y="506.5435">TextBlock textBlock)</text><ellipse cx="241.5" cy="494.4766" fill="#222222" rx="10" ry="10" style="stroke:#222222;stroke-width:1.0;"/><rect fill="#F1F1F1" height="33.9688" rx="12.5" ry="12.5" style="stroke:#181818;stroke-width:0.5;" width="246" x="118.5" y="534.6094"/><text fill="#000000" font-family="sans-serif" font-size="12" lengthAdjust="spacing" textLength="226" x="128.5" y="555.748">this(defaultThickness,textBlock,'\0');</text><ellipse cx="241.5" cy="598.5781" fill="none" rx="10" ry="10" style="stroke:#222222;stroke-width:1.5;"/><line style="stroke:#222222;stroke-width:2.5;" x1="235.3128" x2="247.6872" y1="592.3909" y2="604.7653"/><line style="stroke:#222222;stroke-width:2.5;" x1="247.6872" x2="235.3128" y1="592.3909" y2="604.7653"/><path d="M271.5,618.5781 L271.5,627.1445 L251.5,631.1445 L271.5,635.1445 L271.5,643.7109 A0,0 0 0 0 271.5,643.7109 L711.5,643.7109 A0,0 0 0 0 711.5,643.7109 L711.5,628.5781 L701.5,618.5781 L271.5,618.5781 A0,0 0 0 0 271.5,618.5781 " fill="#FEFFDD" style="stroke:#181818;stroke-width:0.5;"/><path d="M701.5,618.5781 L701.5,628.5781 L711.5,628.5781 L701.5,618.5781 " fill="#FEFFDD" style="stroke:#181818;stroke-width:0.5;"/><text fill="#000000" font-family="sans-serif" font-size="13" lengthAdjust="spacing" textLength="419" x="277.5" y="635.645">XDimension2D calculateDimension(StringBounder stringBounder)</text><ellipse cx="241.5" cy="631.1445" fill="#222222" rx="10" ry="10" style="stroke:#222222;stroke-width:1.0;"/><rect fill="#F1F1F1" height="33.9688" rx="12.5" ry="12.5" style="stroke:#181818;stroke-width:0.5;" width="461" x="11" y="663.7109"/><text fill="#000000" font-family="sans-serif" font-size="12" lengthAdjust="spacing" textLength="441" x="21" y="684.8496">final XDimension2D dim=textBlock.calculateDimension(stringBounder);</text><rect fill="#F1F1F1" height="33.9688" rx="12.5" ry="12.5" style="stroke:#181818;stroke-width:0.5;" width="454" x="14.5" y="766.082"/><text fill="#000000" font-family="sans-serif" font-size="12" lengthAdjust="spacing" textLength="434" x="24.5" y="787.2207">final XDimension2D dimTitle=title.calculateDimension(stringBounder);</text><rect fill="#F1F1F1" height="47.9375" rx="12.5" ry="12.5" style="stroke:#181818;stroke-width:0.5;" width="362" x="60.5" y="820.0508"/><text fill="#000000" font-family="sans-serif" font-size="12" lengthAdjust="spacing" textLength="342" x="70.5" y="841.1895">return XDimension2D.atLeast(dim,dimTitle.getWidth()+</text><text fill="#000000" font-family="sans-serif" font-size="12" lengthAdjust="spacing" textLength="145" x="70.5" y="855.1582">8,dimTitle.getHeight());</text><ellipse cx="241.5" cy="898.9883" fill="none" rx="11" ry="11" style="stroke:#222222;stroke-width:1.0;"/><ellipse cx="241.5" cy="898.9883" fill="#222222" rx="6" ry="6" style="stroke:#111111;stroke-width:1.0;"/><polygon fill="#F1F1F1" points="213,717.6797,270,717.6797,282,729.6797,270,741.6797,213,741.6797,201,729.6797,213,717.6797" style="stroke:#181818;stroke-width:0.5;"/><text fill="#000000" font-family="sans-serif" font-size="11" lengthAdjust="spacing" textLength="20" x="245.5" y="751.8901">yes</text><text fill="#000000" font-family="sans-serif" font-size="11" lengthAdjust="spacing" textLength="53" x="213" y="733.4878">title!=null</text><rect fill="#F1F1F1" height="33.9688" rx="12.5" ry="12.5" style="stroke:#181818;stroke-width:0.5;" width="89" x="197" y="951.9883"/><text fill="#000000" font-family="sans-serif" font-size="12" lengthAdjust="spacing" textLength="69" x="207" y="973.127">return dim;</text><ellipse cx="241.5" cy="1016.957" fill="none" rx="11" ry="11" style="stroke:#222222;stroke-width:1.0;"/><ellipse cx="241.5" cy="1016.957" fill="#222222" rx="6" ry="6" style="stroke:#111111;stroke-width:1.0;"/><ellipse cx="241.5" cy="1047.957" fill="none" rx="10" ry="10" style="stroke:#222222;stroke-width:1.5;"/><line style="stroke:#222222;stroke-width:2.5;" x1="235.3128" x2="247.6872" y1="1041.7698" y2="1054.1442"/><line style="stroke:#222222;stroke-width:2.5;" x1="247.6872" x2="235.3128" y1="1041.7698" y2="1054.1442"/><path d="M271.5,1067.957 L271.5,1076.5234 L251.5,1080.5234 L271.5,1084.5234 L271.5,1093.0898 A0,0 0 0 0 271.5,1093.0898 L451.5,1093.0898 A0,0 0 0 0 451.5,1093.0898 L451.5,1077.957 L441.5,1067.957 L271.5,1067.957 A0,0 0 0 0 271.5,1067.957 " fill="#FEFFDD" style="stroke:#181818;stroke-width:0.5;"/><path d="M441.5,1067.957 L441.5,1077.957 L451.5,1077.957 L441.5,1067.957 " fill="#FEFFDD" style="stroke:#181818;stroke-width:0.5;"/><text fill="#000000" font-family="sans-serif" font-size="13" lengthAdjust="spacing" textLength="159" x="277.5" y="1085.0239">void drawU(UGraphic ug)</text><ellipse cx="241.5" cy="1080.5234" fill="#222222" rx="10" ry="10" style="stroke:#222222;stroke-width:1.0;"/><rect fill="#F1F1F1" height="33.9688" rx="12.5" ry="12.5" style="stroke:#181818;stroke-width:0.5;" width="298" x="92.5" y="1113.0898"/><text fill="#000000" font-family="sans-serif" font-size="12" lengthAdjust="spacing" textLength="278" x="102.5" y="1134.2285">final HColor color=ug.getParam().getColor();</text><rect fill="#F1F1F1" height="47.9375" rx="12.5" ry="12.5" style="stroke:#181818;stroke-width:0.5;" width="277" x="103" y="1215.4609"/><text fill="#000000" font-family="sans-serif" font-size="12" lengthAdjust="spacing" textLength="257" x="113" y="1236.5996">UHorizontalLine.infinite(defaultThickness,</text><text fill="#000000" font-family="sans-serif" font-size="12" lengthAdjust="spacing" textLength="173" x="113" y="1250.5684">1,1,separator).drawMe(ug);</text><polygon fill="#F1F1F1" points="210,1167.0586,273,1167.0586,285,1179.0586,273,1191.0586,210,1191.0586,198,1179.0586,210,1167.0586" style="stroke:#181818;stroke-width:0.5;"/><text fill="#000000" font-family="sans-serif" font-size="11" lengthAdjust="spacing" textLength="20" x="245.5" y="1201.269">yes</text><text fill="#000000" font-family="sans-serif" font-size="11" lengthAdjust="spacing" textLength="59" x="210" y="1182.8667">title==null</text><polygon fill="#F1F1F1" points="241.5,1283.3984,253.5,1295.3984,241.5,1307.3984,229.5,1295.3984,241.5,1283.3984" style="stroke:#181818;stroke-width:0.5;"/><rect fill="#F1F1F1" height="33.9688" rx="12.5" ry="12.5" style="stroke:#181818;stroke-width:0.5;" width="150" x="166.5" y="1327.3984"/><text fill="#000000" font-family="sans-serif" font-size="12" lengthAdjust="spacing" textLength="130" x="176.5" y="1348.5371">textBlock.drawU(ug);</text><polygon fill="#F1F1F1" points="206.5,1381.3672,276.5,1381.3672,288.5,1393.3672,276.5,1405.3672,206.5,1405.3672,194.5,1393.3672,206.5,1381.3672" style="stroke:#181818;stroke-width:0.5;"/><text fill="#000000" font-family="sans-serif" font-size="11" lengthAdjust="spacing" textLength="66" x="206.5" y="1397.1753">color==null</text><text fill="#000000" font-family="sans-serif" font-size="11" lengthAdjust="spacing" textLength="20" x="174.5" y="1390.7729">yes</text><text fill="#000000" font-family="sans-serif" font-size="11" lengthAdjust="spacing" textLength="14" x="288.5" y="1390.7729">no</text><rect fill="#F1F1F1" height="33.9688" rx="12.5" ry="12.5" style="stroke:#181818;stroke-width:0.5;" width="207" x="40.25" y="1415.3672"/><text fill="#000000" font-family="sans-serif" font-size="12" lengthAdjust="spacing" textLength="187" x="50.25" y="1436.5059">ug=ug.apply(HColors.none());</text><rect fill="#F1F1F1" height="33.9688" rx="12.5" ry="12.5" style="stroke:#181818;stroke-width:0.5;" width="144" x="267.25" y="1415.3672"/><text fill="#000000" font-family="sans-serif" font-size="12" lengthAdjust="spacing" textLength="124" x="277.25" y="1436.5059">ug=ug.apply(color);</text><polygon fill="#F1F1F1" points="241.5,1455.3359,253.5,1467.3359,241.5,1479.3359,229.5,1467.3359,241.5,1455.3359" style="stroke:#181818;stroke-width:0.5;"/><rect fill="#F1F1F1" height="47.9375" rx="12.5" ry="12.5" style="stroke:#181818;stroke-width:0.5;" width="277" x="103" y="1547.7383"/><text fill="#000000" font-family="sans-serif" font-size="12" lengthAdjust="spacing" textLength="257" x="113" y="1568.877">UHorizontalLine.infinite(defaultThickness,</text><text fill="#000000" font-family="sans-serif" font-size="12" lengthAdjust="spacing" textLength="201" x="113" y="1582.8457">1,1,title,separator).drawMe(ug);</text><polygon fill="#F1F1F1" points="213,1499.3359,270,1499.3359,282,1511.3359,270,1523.3359,213,1523.3359,201,1511.3359,213,1499.3359" style="stroke:#181818;stroke-width:0.5;"/><text fill="#000000" font-family="sans-serif" font-size="11" lengthAdjust="spacing" textLength="20" x="245.5" y="1533.5464">yes</text><text fill="#000000" font-family="sans-serif" font-size="11" lengthAdjust="spacing" textLength="53" x="213" y="1515.144">title!=null</text><polygon fill="#F1F1F1" points="241.5,1615.6758,253.5,1627.6758,241.5,1639.6758,229.5,1627.6758,241.5,1615.6758" style="stroke:#181818;stroke-width:0.5;"/><ellipse cx="241.5" cy="1669.6758" fill="none" rx="10" ry="10" style="stroke:#222222;stroke-width:1.5;"/><line style="stroke:#222222;stroke-width:2.5;" x1="235.3128" x2="247.6872" y1="1663.4886" y2="1675.863"/><line style="stroke:#222222;stroke-width:2.5;" x1="247.6872" x2="235.3128" y1="1663.4886" y2="1675.863"/><path d="M271.5,1689.6758 L271.5,1705.8086 L251.5,1709.8086 L271.5,1713.8086 L271.5,1729.9414 A0,0 0 0 0 271.5,1729.9414 L631.5,1729.9414 A0,0 0 0 0 631.5,1729.9414 L631.5,1699.6758 L621.5,1689.6758 L271.5,1689.6758 A0,0 0 0 0 271.5,1689.6758 " fill="#FEFFDD" style="stroke:#181818;stroke-width:0.5;"/><path d="M621.5,1689.6758 L621.5,1699.6758 L631.5,1699.6758 L621.5,1689.6758 " fill="#FEFFDD" style="stroke:#181818;stroke-width:0.5;"/><text fill="#000000" font-family="sans-serif" font-size="13" lengthAdjust="spacing" textLength="302" x="277.5" y="1706.7427">XRectangle2D getInnerPosition(String member,</text><text fill="#000000" font-family="sans-serif" font-size="13" lengthAdjust="spacing" textLength="339" x="277.5" y="1721.8755">StringBounder stringBounder,InnerStrategy strategy)</text><ellipse cx="241.5" cy="1709.8086" fill="#222222" rx="10" ry="10" style="stroke:#222222;stroke-width:1.0;"/><rect fill="#F1F1F1" height="47.9375" rx="12.5" ry="12.5" style="stroke:#181818;stroke-width:0.5;" width="287" x="98" y="1749.9414"/><text fill="#000000" font-family="sans-serif" font-size="12" lengthAdjust="spacing" textLength="267" x="108" y="1771.0801">return textBlock.getInnerPosition(member,</text><text fill="#000000" font-family="sans-serif" font-size="12" lengthAdjust="spacing" textLength="154" x="108" y="1785.0488">stringBounder,strategy);</text><ellipse cx="241.5" cy="1828.8789" fill="none" rx="11" ry="11" style="stroke:#222222;stroke-width:1.0;"/><ellipse cx="241.5" cy="1828.8789" fill="#222222" rx="6" ry="6" style="stroke:#111111;stroke-width:1.0;"/><ellipse cx="241.5" cy="1859.8789" fill="none" rx="10" ry="10" style="stroke:#222222;stroke-width:1.5;"/><line style="stroke:#222222;stroke-width:2.5;" x1="235.3128" x2="247.6872" y1="1853.6917" y2="1866.0661"/><line style="stroke:#222222;stroke-width:2.5;" x1="247.6872" x2="235.3128" y1="1853.6917" y2="1866.0661"/><path d="M271.5,1879.8789 L271.5,1888.4453 L251.5,1892.4453 L271.5,1896.4453 L271.5,1905.0117 A0,0 0 0 0 271.5,1905.0117 L579.5,1905.0117 A0,0 0 0 0 579.5,1905.0117 L579.5,1889.8789 L569.5,1879.8789 L271.5,1879.8789 A0,0 0 0 0 271.5,1879.8789 " fill="#FEFFDD" style="stroke:#181818;stroke-width:0.5;"/><path d="M569.5,1879.8789 L569.5,1889.8789 L579.5,1889.8789 L569.5,1879.8789 " fill="#FEFFDD" style="stroke:#181818;stroke-width:0.5;"/><text fill="#000000" font-family="sans-serif" font-size="13" lengthAdjust="spacing" textLength="287" x="277.5" y="1896.9458">Ports getPorts(StringBounder stringBounder)</text><ellipse cx="241.5" cy="1892.4453" fill="#222222" rx="10" ry="10" style="stroke:#222222;stroke-width:1.0;"/><rect fill="#F1F1F1" height="33.9688" rx="12.5" ry="12.5" style="stroke:#181818;stroke-width:0.5;" width="365" x="59" y="1973.4141"/><text fill="#000000" font-family="sans-serif" font-size="12" lengthAdjust="spacing" textLength="345" x="69" y="1994.5527">return ((WithPorts )textBlock).getPorts(stringBounder);</text><ellipse cx="241.5" cy="2046.8984" fill="none" rx="11" ry="11" style="stroke:#222222;stroke-width:1.0;"/><ellipse cx="241.5" cy="2046.8984" fill="#222222" rx="6" ry="6" style="stroke:#111111;stroke-width:1.0;"/><polygon fill="#F1F1F1" points="154,1925.0117,329,1925.0117,341,1937.0117,329,1949.0117,154,1949.0117,142,1937.0117,154,1925.0117" style="stroke:#181818;stroke-width:0.5;"/><text fill="#000000" font-family="sans-serif" font-size="11" lengthAdjust="spacing" textLength="20" x="245.5" y="1959.2222">yes</text><text fill="#000000" font-family="sans-serif" font-size="11" lengthAdjust="spacing" textLength="171" x="154" y="1940.8198">textBlock instanceof WithPorts</text><rect fill="#F1F1F1" height="33.9688" rx="12.5" ry="12.5" style="stroke:#181818;stroke-width:0.5;" width="139" x="172" y="2099.8984"/><text fill="#000000" font-family="sans-serif" font-size="12" lengthAdjust="spacing" textLength="119" x="182" y="2121.0371">return new Ports();</text><ellipse cx="241.5" cy="2164.8672" fill="none" rx="11" ry="11" style="stroke:#222222;stroke-width:1.0;"/><ellipse cx="241.5" cy="2164.8672" fill="#222222" rx="6" ry="6" style="stroke:#111111;stroke-width:1.0;"/><ellipse cx="241.5" cy="2195.8672" fill="none" rx="10" ry="10" style="stroke:#222222;stroke-width:1.5;"/><line style="stroke:#222222;stroke-width:2.5;" x1="235.3128" x2="247.6872" y1="2189.68" y2="2202.0544"/><line style="stroke:#222222;stroke-width:2.5;" x1="247.6872" x2="235.3128" y1="2189.68" y2="2202.0544"/><line style="stroke:#181818;stroke-width:1.0;" x1="241.5" x2="241.5" y1="40.1328" y2="70.2656"/><polygon fill="#181818" points="237.5,60.2656,241.5,70.2656,245.5,60.2656,241.5,64.2656" style="stroke:#181818;stroke-width:1.0;"/><line style="stroke:#181818;stroke-width:1.0;" x1="241.5" x2="241.5" y1="104.2344" y2="124.2344"/><polygon fill="#181818" points="237.5,114.2344,241.5,124.2344,245.5,114.2344,241.5,118.2344" style="stroke:#181818;stroke-width:1.0;"/><line style="stroke:#181818;stroke-width:1.0;" x1="241.5" x2="241.5" y1="158.2031" y2="178.2031"/><polygon fill="#181818" points="237.5,168.2031,241.5,178.2031,245.5,168.2031,241.5,172.2031" style="stroke:#181818;stroke-width:1.0;"/><line style="stroke:#181818;stroke-width:1.0;" x1="241.5" x2="241.5" y1="212.1719" y2="232.1719"/><polygon fill="#181818" points="237.5,222.1719,241.5,232.1719,245.5,222.1719,241.5,226.1719" style="stroke:#181818;stroke-width:1.0;"/><line style="stroke:#181818;stroke-width:1.0;" x1="241.5" x2="241.5" y1="266.1406" y2="286.1406"/><polygon fill="#181818" points="237.5,276.1406,241.5,286.1406,245.5,276.1406,241.5,280.1406" style="stroke:#181818;stroke-width:1.0;"/><line style="stroke:#181818;stroke-width:1.0;" x1="241.5" x2="241.5" y1="346.2734" y2="376.4063"/><polygon fill="#181818" points="237.5,366.4063,241.5,376.4063,245.5,366.4063,241.5,370.4063" style="stroke:#181818;stroke-width:1.0;"/><line style="stroke:#181818;stroke-width:1.0;" x1="241.5" x2="241.5" y1="424.3438" y2="444.3438"/><polygon fill="#181818" points="237.5,434.3438,241.5,444.3438,245.5,434.3438,241.5,438.3438" style="stroke:#181818;stroke-width:1.0;"/><line style="stroke:#181818;stroke-width:1.0;" x1="241.5" x2="241.5" y1="504.4766" y2="534.6094"/><polygon fill="#181818" points="237.5,524.6094,241.5,534.6094,245.5,524.6094,241.5,528.6094" style="stroke:#181818;stroke-width:1.0;"/><line style="stroke:#181818;stroke-width:1.0;" x1="241.5" x2="241.5" y1="568.5781" y2="588.5781"/><polygon fill="#181818" points="237.5,578.5781,241.5,588.5781,245.5,578.5781,241.5,582.5781" style="stroke:#181818;stroke-width:1.0;"/><line style="stroke:#181818;stroke-width:1.0;" x1="241.5" x2="241.5" y1="641.1445" y2="663.7109"/><polygon fill="#181818" points="237.5,653.7109,241.5,663.7109,245.5,653.7109,241.5,657.7109" style="stroke:#181818;stroke-width:1.0;"/><line style="stroke:#181818;stroke-width:1.0;" x1="241.5" x2="241.5" y1="800.0508" y2="820.0508"/><polygon fill="#181818" points="237.5,810.0508,241.5,820.0508,245.5,810.0508,241.5,814.0508" style="stroke:#181818;stroke-width:1.0;"/><line style="stroke:#181818;stroke-width:1.0;" x1="241.5" x2="241.5" y1="867.9883" y2="887.9883"/><polygon fill="#181818" points="237.5,877.9883,241.5,887.9883,245.5,877.9883,241.5,881.9883" style="stroke:#181818;stroke-width:1.0;"/><line style="stroke:#181818;stroke-width:1.0;" x1="241.5" x2="241.5" y1="741.6797" y2="766.082"/><polygon fill="#181818" points="237.5,756.082,241.5,766.082,245.5,756.082,241.5,760.082" style="stroke:#181818;stroke-width:1.0;"/><line style="stroke:#181818;stroke-width:1.0;" x1="282" x2="478.5" y1="729.6797" y2="729.6797"/><polygon fill="#181818" points="474.5,825.0352,478.5,835.0352,482.5,825.0352,478.5,829.0352" style="stroke:#181818;stroke-width:1.0;"/><line style="stroke:#181818;stroke-width:1.0;" x1="478.5" x2="478.5" y1="729.6797" y2="931.9883"/><line style="stroke:#181818;stroke-width:1.0;" x1="478.5" x2="241.5" y1="931.9883" y2="931.9883"/><line style="stroke:#181818;stroke-width:1.0;" x1="241.5" x2="241.5" y1="931.9883" y2="951.9883"/><polygon fill="#181818" points="237.5,941.9883,241.5,951.9883,245.5,941.9883,241.5,945.9883" style="stroke:#181818;stroke-width:1.0;"/><line style="stroke:#181818;stroke-width:1.0;" x1="241.5" x2="241.5" y1="697.6797" y2="717.6797"/><polygon fill="#181818" points="237.5,707.6797,241.5,717.6797,245.5,707.6797,241.5,711.6797" style="stroke:#181818;stroke-width:1.0;"/><line style="stroke:#181818;stroke-width:1.0;" x1="241.5" x2="241.5" y1="985.957" y2="1005.957"/><polygon fill="#181818" points="237.5,995.957,241.5,1005.957,245.5,995.957,241.5,999.957" style="stroke:#181818;stroke-width:1.0;"/><line style="stroke:#181818;stroke-width:1.0;" x1="241.5" x2="241.5" y1="1090.5234" y2="1113.0898"/><polygon fill="#181818" points="237.5,1103.0898,241.5,1113.0898,245.5,1103.0898,241.5,1107.0898" style="stroke:#181818;stroke-width:1.0;"/><line style="stroke:#181818;stroke-width:1.0;" x1="241.5" x2="241.5" y1="1191.0586" y2="1215.4609"/><polygon fill="#181818" points="237.5,1205.4609,241.5,1215.4609,245.5,1205.4609,241.5,1209.4609" style="stroke:#181818;stroke-width:1.0;"/><line style="stroke:#181818;stroke-width:1.0;" x1="285" x2="390" y1="1179.0586" y2="1179.0586"/><polygon fill="#181818" points="386,1229.4297,390,1239.4297,394,1229.4297,390,1233.4297" style="stroke:#181818;stroke-width:1.0;"/><line style="stroke:#181818;stroke-width:1.0;" x1="390" x2="390" y1="1179.0586" y2="1295.3984"/><line style="stroke:#181818;stroke-width:1.0;" x1="390" x2="253.5" y1="1295.3984" y2="1295.3984"/><polygon fill="#181818" points="263.5,1291.3984,253.5,1295.3984,263.5,1299.3984,259.5,1295.3984" style="stroke:#181818;stroke-width:1.0;"/><line style="stroke:#181818;stroke-width:1.0;" x1="241.5" x2="241.5" y1="1263.3984" y2="1283.3984"/><polygon fill="#181818" points="237.5,1273.3984,241.5,1283.3984,245.5,1273.3984,241.5,1277.3984" style="stroke:#181818;stroke-width:1.0;"/><line style="stroke:#181818;stroke-width:1.0;" x1="241.5" x2="241.5" y1="1147.0586" y2="1167.0586"/><polygon fill="#181818" points="237.5,1157.0586,241.5,1167.0586,245.5,1157.0586,241.5,1161.0586" style="stroke:#181818;stroke-width:1.0;"/><line style="stroke:#181818;stroke-width:1.0;" x1="241.5" x2="241.5" y1="1307.3984" y2="1327.3984"/><polygon fill="#181818" points="237.5,1317.3984,241.5,1327.3984,245.5,1317.3984,241.5,1321.3984" style="stroke:#181818;stroke-width:1.0;"/><line style="stroke:#181818;stroke-width:1.0;" x1="194.5" x2="143.75" y1="1393.3672" y2="1393.3672"/><line style="stroke:#181818;stroke-width:1.0;" x1="143.75" x2="143.75" y1="1393.3672" y2="1415.3672"/><polygon fill="#181818" points="139.75,1405.3672,143.75,1415.3672,147.75,1405.3672,143.75,1409.3672" style="stroke:#181818;stroke-width:1.0;"/><line style="stroke:#181818;stroke-width:1.0;" x1="288.5" x2="339.25" y1="1393.3672" y2="1393.3672"/><line style="stroke:#181818;stroke-width:1.0;" x1="339.25" x2="339.25" y1="1393.3672" y2="1415.3672"/><polygon fill="#181818" points="335.25,1405.3672,339.25,1415.3672,343.25,1405.3672,339.25,1409.3672" style="stroke:#181818;stroke-width:1.0;"/><line style="stroke:#181818;stroke-width:1.0;" x1="143.75" x2="143.75" y1="1449.3359" y2="1467.3359"/><line style="stroke:#181818;stroke-width:1.0;" x1="143.75" x2="229.5" y1="1467.3359" y2="1467.3359"/><polygon fill="#181818" points="219.5,1463.3359,229.5,1467.3359,219.5,1471.3359,223.5,1467.3359" style="stroke:#181818;stroke-width:1.0;"/><line style="stroke:#181818;stroke-width:1.0;" x1="339.25" x2="339.25" y1="1449.3359" y2="1467.3359"/><line style="stroke:#181818;stroke-width:1.0;" x1="339.25" x2="253.5" y1="1467.3359" y2="1467.3359"/><polygon fill="#181818" points="263.5,1463.3359,253.5,1467.3359,263.5,1471.3359,259.5,1467.3359" style="stroke:#181818;stroke-width:1.0;"/><line style="stroke:#181818;stroke-width:1.0;" x1="241.5" x2="241.5" y1="1361.3672" y2="1381.3672"/><polygon fill="#181818" points="237.5,1371.3672,241.5,1381.3672,245.5,1371.3672,241.5,1375.3672" style="stroke:#181818;stroke-width:1.0;"/><line style="stroke:#181818;stroke-width:1.0;" x1="241.5" x2="241.5" y1="1523.3359" y2="1547.7383"/><polygon fill="#181818" points="237.5,1537.7383,241.5,1547.7383,245.5,1537.7383,241.5,1541.7383" style="stroke:#181818;stroke-width:1.0;"/><line style="stroke:#181818;stroke-width:1.0;" x1="282" x2="390" y1="1511.3359" y2="1511.3359"/><polygon fill="#181818" points="386,1561.707,390,1571.707,394,1561.707,390,1565.707" style="stroke:#181818;stroke-width:1.0;"/><line style="stroke:#181818;stroke-width:1.0;" x1="390" x2="390" y1="1511.3359" y2="1627.6758"/><line style="stroke:#181818;stroke-width:1.0;" x1="390" x2="253.5" y1="1627.6758" y2="1627.6758"/><polygon fill="#181818" points="263.5,1623.6758,253.5,1627.6758,263.5,1631.6758,259.5,1627.6758" style="stroke:#181818;stroke-width:1.0;"/><line style="stroke:#181818;stroke-width:1.0;" x1="241.5" x2="241.5" y1="1595.6758" y2="1615.6758"/><polygon fill="#181818" points="237.5,1605.6758,241.5,1615.6758,245.5,1605.6758,241.5,1609.6758" style="stroke:#181818;stroke-width:1.0;"/><line style="stroke:#181818;stroke-width:1.0;" x1="241.5" x2="241.5" y1="1479.3359" y2="1499.3359"/><polygon fill="#181818" points="237.5,1489.3359,241.5,1499.3359,245.5,1489.3359,241.5,1493.3359" style="stroke:#181818;stroke-width:1.0;"/><line style="stroke:#181818;stroke-width:1.0;" x1="241.5" x2="241.5" y1="1639.6758" y2="1659.6758"/><polygon fill="#181818" points="237.5,1649.6758,241.5,1659.6758,245.5,1649.6758,241.5,1653.6758" style="stroke:#181818;stroke-width:1.0;"/><line style="stroke:#181818;stroke-width:1.0;" x1="241.5" x2="241.5" y1="1719.8086" y2="1749.9414"/><polygon fill="#181818" points="237.5,1739.9414,241.5,1749.9414,245.5,1739.9414,241.5,1743.9414" style="stroke:#181818;stroke-width:1.0;"/><line style="stroke:#181818;stroke-width:1.0;" x1="241.5" x2="241.5" y1="1797.8789" y2="1817.8789"/><polygon fill="#181818" points="237.5,1807.8789,241.5,1817.8789,245.5,1807.8789,241.5,1811.8789" style="stroke:#181818;stroke-width:1.0;"/><line style="stroke:#181818;stroke-width:1.0;" x1="241.5" x2="241.5" y1="2007.3828" y2="2035.8984"/><polygon fill="#181818" points="237.5,2025.8984,241.5,2035.8984,245.5,2025.8984,241.5,2029.8984" style="stroke:#181818;stroke-width:1.0;"/><line style="stroke:#181818;stroke-width:1.0;" x1="241.5" x2="241.5" y1="1949.0117" y2="1973.4141"/><polygon fill="#181818" points="237.5,1963.4141,241.5,1973.4141,245.5,1963.4141,241.5,1967.4141" style="stroke:#181818;stroke-width:1.0;"/><line style="stroke:#181818;stroke-width:1.0;" x1="341" x2="434" y1="1937.0117" y2="1937.0117"/><polygon fill="#181818" points="430,2005.8984,434,2015.8984,438,2005.8984,434,2009.8984" style="stroke:#181818;stroke-width:1.0;"/><line style="stroke:#181818;stroke-width:1.0;" x1="434" x2="434" y1="1937.0117" y2="2079.8984"/><line style="stroke:#181818;stroke-width:1.0;" x1="434" x2="241.5" y1="2079.8984" y2="2079.8984"/><line style="stroke:#181818;stroke-width:1.0;" x1="241.5" x2="241.5" y1="2079.8984" y2="2099.8984"/><polygon fill="#181818" points="237.5,2089.8984,241.5,2099.8984,245.5,2089.8984,241.5,2093.8984" style="stroke:#181818;stroke-width:1.0;"/><line style="stroke:#181818;stroke-width:1.0;" x1="241.5" x2="241.5" y1="1902.4453" y2="1925.0117"/><polygon fill="#181818" points="237.5,1915.0117,241.5,1925.0117,245.5,1915.0117,241.5,1919.0117" style="stroke:#181818;stroke-width:1.0;"/><line style="stroke:#181818;stroke-width:1.0;" x1="241.5" x2="241.5" y1="2133.8672" y2="2153.8672"/><polygon fill="#181818" points="237.5,2143.8672,241.5,2153.8672,245.5,2143.8672,241.5,2147.8672" style="stroke:#181818;stroke-width:1.0;"/><!--MD5=[7f02697ec4c7eb26224896c665f5ed16]
@startuml
!pragma layout smetana
start
note right
constructor TextBlockLineBefore(double defaultThickness,
TextBlock textBlock,char separator,TextBlock title)
end note
:this.textBlock=textBlock;;
:this.separator=separator;;
:this.title=title;;
:this.defaultThickness=defaultThickness;;
end
start
note right
constructor TextBlockLineBefore(double defaultThickness,
TextBlock textBlock,char separator)
end note
:this(defaultThickness,textBlock,separator,
null );;
end
start
note right
constructor TextBlockLineBefore(double defaultThickness,
TextBlock textBlock)
end note
:this(defaultThickness,textBlock,'\0');;
end
start
note right
XDimension2D calculateDimension(StringBounder stringBounder)
end note
:final XDimension2D dim=textBlock.calculateDimension(stringBounder);;
if (title!=null ) then (yes) 
:final XDimension2D dimTitle=title.calculateDimension(stringBounder);;
:return XDimension2D.atLeast(dim,dimTitle.getWidth()+
8,dimTitle.getHeight());;
stop
endif 
:return dim;;
stop
end
start
note right
void drawU(UGraphic ug)
end note
:final HColor color=ug.getParam().getColor();;
if (title==null ) then (yes) 
:UHorizontalLine.infinite(defaultThickness,
1,1,separator).drawMe(ug);;
endif 
:textBlock.drawU(ug);;
if (color==null ) then (yes) 
:ug=ug.apply(HColors.none());;
else (no)
:ug=ug.apply(color);;
endif 
if (title!=null ) then (yes) 
:UHorizontalLine.infinite(defaultThickness,
1,1,title,separator).drawMe(ug);;
endif 
end
start
note right
XRectangle2D getInnerPosition(String member,
StringBounder stringBounder,InnerStrategy strategy)
end note
:return textBlock.getInnerPosition(member,
stringBounder,strategy);;
stop
end
start
note right
Ports getPorts(StringBounder stringBounder)
end note
if (textBlock instanceof WithPorts ) then (yes) 
:return ((WithPorts )textBlock).getPorts(stringBounder);;
stop
endif 
:return new Ports();;
stop
end
@enduml

PlantUML version 1.2022.7(Mon Aug 22 17:01:30 UTC 2022)
(GPL source distribution)
Java Runtime: OpenJDK Runtime Environment
JVM: OpenJDK 64-Bit Server VM
Default Encoding: UTF-8
Language: en
Country: null
--></g></svg>