<?xml version="1.0" encoding="UTF-8" standalone="no"?><svg xmlns="http://www.w3.org/2000/svg" xmlns:xlink="http://www.w3.org/1999/xlink" contentStyleType="text/css" height="202px" preserveAspectRatio="none" style="width:294px;height:202px;background:#FFFFFF;" version="1.1" viewBox="0 0 294 202" width="294px" zoomAndPan="magnify"><defs/><g><!--MD5=[eb129185e3f9e5226a7e638d4a0af713]
cluster net.sourceforge.plantuml.graphic--><g id="cluster_net.sourceforge.plantuml.graphic"><path d="M8.5,63 L274.5,63 A3.75,3.75 0 0 1 277,65.5 L284,85.2969 L284.5,85.2969 A2.5,2.5 0 0 1 287,87.7969 L287,192.5 A2.5,2.5 0 0 1 284.5,195 L8.5,195 A2.5,2.5 0 0 1 6,192.5 L6,65.5 A2.5,2.5 0 0 1 8.5,63 " fill="none" style="stroke:#000000;stroke-width:1.5;"/><line style="stroke:#000000;stroke-width:1.5;" x1="6" x2="284" y1="85.2969" y2="85.2969"/><text fill="#000000" font-family="sans-serif" font-size="14" font-weight="bold" lengthAdjust="spacing" textLength="265" x="10" y="77.9951">net.sourceforge.plantuml.graphic</text></g><!--MD5=[3e4cfdda1ee10de789ef998aa0f56c4a]
class HtmlCommand--><g id="elem_HtmlCommand"><rect fill="#F1F1F1" height="48" id="HtmlCommand" rx="2.5" ry="2.5" style="stroke:#181818;stroke-width:0.5;" width="134" x="79" y="6"/><ellipse cx="94" cy="22" fill="#ADD1B2" rx="11" ry="11" style="stroke:#181818;stroke-width:1.0;"/><path d="M96.9688,27.6406 Q96.3906,27.9375 95.75,28.0781 Q95.1094,28.2344 94.4063,28.2344 Q91.9063,28.2344 90.5781,26.5938 Q89.2656,24.9375 89.2656,21.8125 Q89.2656,18.6875 90.5781,17.0313 Q91.9063,15.375 94.4063,15.375 Q95.1094,15.375 95.75,15.5313 Q96.4063,15.6875 96.9688,15.9844 L96.9688,18.7031 Q96.3438,18.125 95.75,17.8594 Q95.1563,17.5781 94.5313,17.5781 Q93.1875,17.5781 92.5,18.6563 Q91.8125,19.7188 91.8125,21.8125 Q91.8125,23.9063 92.5,24.9844 Q93.1875,26.0469 94.5313,26.0469 Q95.1563,26.0469 95.75,25.7813 Q96.3438,25.5 96.9688,24.9219 L96.9688,27.6406 Z " fill="#000000"/><text fill="#000000" font-family="sans-serif" font-size="14" lengthAdjust="spacing" textLength="102" x="108" y="26.8467">HtmlCommand</text><line style="stroke:#181818;stroke-width:0.5;" x1="80" x2="212" y1="38" y2="38"/><line style="stroke:#181818;stroke-width:0.5;" x1="80" x2="212" y1="46" y2="46"/></g><!--MD5=[5e945486f7f03e36c85598d11c1a7beb]
class net.sourceforge.plantuml.graphic.Text--><g id="elem_net.sourceforge.plantuml.graphic.Text"><rect codeLine="3" fill="#F1F1F1" height="96.8906" id="net.sourceforge.plantuml.graphic.Text" rx="2.5" ry="2.5" style="stroke:#181818;stroke-width:0.5;" width="170" x="61" y="90"/><ellipse cx="126.75" cy="106" fill="#ADD1B2" rx="11" ry="11" style="stroke:#181818;stroke-width:1.0;"/><path d="M129.7188,111.6406 Q129.1406,111.9375 128.5,112.0781 Q127.8594,112.2344 127.1563,112.2344 Q124.6563,112.2344 123.3281,110.5938 Q122.0156,108.9375 122.0156,105.8125 Q122.0156,102.6875 123.3281,101.0313 Q124.6563,99.375 127.1563,99.375 Q127.8594,99.375 128.5,99.5313 Q129.1563,99.6875 129.7188,99.9844 L129.7188,102.7031 Q129.0938,102.125 128.5,101.8594 Q127.9063,101.5781 127.2813,101.5781 Q125.9375,101.5781 125.25,102.6563 Q124.5625,103.7188 124.5625,105.8125 Q124.5625,107.9063 125.25,108.9844 Q125.9375,110.0469 127.2813,110.0469 Q127.9063,110.0469 128.5,109.7813 Q129.0938,109.5 129.7188,108.9219 L129.7188,111.6406 Z " fill="#000000"/><text fill="#000000" font-family="sans-serif" font-size="14" lengthAdjust="spacing" textLength="30" x="147.25" y="110.8467">Text</text><line style="stroke:#181818;stroke-width:0.5;" x1="62" x2="230" y1="122" y2="122"/><line style="stroke:#181818;stroke-width:0.5;" x1="62" x2="230" y1="130" y2="130"/><a href="./../../../../../.././qc/src/net/sourceforge/plantuml/graphic/Text.java.html#46" target="_top" title="./../../../../../.././qc/src/net/sourceforge/plantuml/graphic/Text.java.html#46" xlink:actuate="onRequest" xlink:href="./../../../../../.././qc/src/net/sourceforge/plantuml/graphic/Text.java.html#46" xlink:show="new" xlink:title="./../../../../../.././qc/src/net/sourceforge/plantuml/graphic/Text.java.html#46" xlink:type="simple"><text fill="#000000" font-family="sans-serif" font-size="14" lengthAdjust="spacing" textLength="123" x="81" y="146.9951">Text(String) : Text</text></a><a href="./../../../../../.././qc/src/net/sourceforge/plantuml/graphic/Text.java.html#56" target="_top" title="./../../../../../.././qc/src/net/sourceforge/plantuml/graphic/Text.java.html#56" xlink:actuate="onRequest" xlink:href="./../../../../../.././qc/src/net/sourceforge/plantuml/graphic/Text.java.html#56" xlink:show="new" xlink:title="./../../../../../.././qc/src/net/sourceforge/plantuml/graphic/Text.java.html#56" xlink:type="simple"><rect fill="#F1F1F1" height="10" style="stroke:none;stroke-width:1.0;" width="20" x="67" y="154.9453"/><ellipse cx="72" cy="159.9453" fill="#84BE84" rx="3" ry="3" style="stroke:#038048;stroke-width:1.0;"/></a><a href="./../../../../../.././qc/src/net/sourceforge/plantuml/graphic/Text.java.html#56" target="_top" title="./../../../../../.././qc/src/net/sourceforge/plantuml/graphic/Text.java.html#56" xlink:actuate="onRequest" xlink:href="./../../../../../.././qc/src/net/sourceforge/plantuml/graphic/Text.java.html#56" xlink:show="new" xlink:title="./../../../../../.././qc/src/net/sourceforge/plantuml/graphic/Text.java.html#56" xlink:type="simple"><text fill="#000000" font-family="sans-serif" font-size="14" lengthAdjust="spacing" textLength="116" x="81" y="163.292">getText() : String</text></a><a href="./../../../../../.././qc/src/net/sourceforge/plantuml/graphic/Text.java.html#61" target="_top" title="./../../../../../.././qc/src/net/sourceforge/plantuml/graphic/Text.java.html#61" xlink:actuate="onRequest" xlink:href="./../../../../../.././qc/src/net/sourceforge/plantuml/graphic/Text.java.html#61" xlink:show="new" xlink:title="./../../../../../.././qc/src/net/sourceforge/plantuml/graphic/Text.java.html#61" xlink:type="simple"><rect fill="#F1F1F1" height="10" style="stroke:none;stroke-width:1.0;" width="20" x="67" y="171.2422"/><ellipse cx="72" cy="176.2422" fill="#84BE84" rx="3" ry="3" style="stroke:#038048;stroke-width:1.0;"/></a><a href="./../../../../../.././qc/src/net/sourceforge/plantuml/graphic/Text.java.html#61" target="_top" title="./../../../../../.././qc/src/net/sourceforge/plantuml/graphic/Text.java.html#61" xlink:actuate="onRequest" xlink:href="./../../../../../.././qc/src/net/sourceforge/plantuml/graphic/Text.java.html#61" xlink:show="new" xlink:title="./../../../../../.././qc/src/net/sourceforge/plantuml/graphic/Text.java.html#61" xlink:type="simple"><text fill="#000000" font-family="sans-serif" font-size="14" lengthAdjust="spacing" textLength="144" x="81" y="179.5889">isNewline() : boolean</text></a></g><path d="M146,54.1089 C146,64.6313 146,77.495 146,89.9394 " fill="none" style="stroke:#181818;stroke-width:1.0;"/><polygon fill="#FFFFFF" points="146,54.1089,140,70.1089,152,70.1089,146,54.1089" style="stroke:#181818;stroke-width:1.0;"/><!--MD5=[f5f5fd73df4a52113375e7bab16499ab]
@startuml
!pragma layout smetana
"HtmlCommand" <|- - "net.sourceforge.plantuml.graphic.Text"
class net.sourceforge.plantuml.graphic.Text {
Text(String) : Text [[[./../../../../../.././qc/src/net/sourceforge/plantuml/graphic/Text.java.html#46]]]
+getText() : String [[[./../../../../../.././qc/src/net/sourceforge/plantuml/graphic/Text.java.html#56]]]
+isNewline() : boolean [[[./../../../../../.././qc/src/net/sourceforge/plantuml/graphic/Text.java.html#61]]]
} 
@enduml

PlantUML version 1.2022.7(Mon Aug 22 17:01:30 UTC 2022)
(GPL source distribution)
Java Runtime: OpenJDK Runtime Environment
JVM: OpenJDK 64-Bit Server VM
Default Encoding: UTF-8
Language: en
Country: null
--></g></svg>