<?xml version="1.0" encoding="UTF-8" standalone="no"?><svg xmlns="http://www.w3.org/2000/svg" xmlns:xlink="http://www.w3.org/1999/xlink" contentStyleType="text/css" height="2216px" preserveAspectRatio="none" style="width:713px;height:2216px;background:#FFFFFF;" version="1.1" viewBox="0 0 713 2216" width="713px" zoomAndPan="magnify"><defs/><g><path d="M269.5,10 L269.5,26.1328 L249.5,30.1328 L269.5,34.1328 L269.5,50.2656 A0,0 0 0 0 269.5,50.2656 L654.5,50.2656 A0,0 0 0 0 654.5,50.2656 L654.5,20 L644.5,10 L269.5,10 A0,0 0 0 0 269.5,10 " fill="#FEFFDD" style="stroke:#181818;stroke-width:0.5;"/><path d="M644.5,10 L644.5,20 L654.5,20 L644.5,10 " fill="#FEFFDD" style="stroke:#181818;stroke-width:0.5;"/><text fill="#000000" font-family="sans-serif" font-size="13" lengthAdjust="spacing" textLength="364" x="275.5" y="27.0669">constructor TextBlockLineBefore(doubledefaultThickness,</text><text fill="#000000" font-family="sans-serif" font-size="13" lengthAdjust="spacing" textLength="308" x="275.5" y="42.1997">TextBlocktextBlock,charseparator,TextBlocktitle)</text><ellipse cx="239.5" cy="30.1328" fill="#222222" rx="10" ry="10" style="stroke:#222222;stroke-width:1.0;"/><rect fill="#F1F1F1" height="33.9688" rx="12.5" ry="12.5" style="stroke:#181818;stroke-width:0.5;" width="175" x="152" y="70.2656"/><text fill="#000000" font-family="sans-serif" font-size="12" lengthAdjust="spacing" textLength="155" x="162" y="91.4043">this.textBlock=textBlock;</text><rect fill="#F1F1F1" height="33.9688" rx="12.5" ry="12.5" style="stroke:#181818;stroke-width:0.5;" width="185" x="147" y="124.2344"/><text fill="#000000" font-family="sans-serif" font-size="12" lengthAdjust="spacing" textLength="165" x="157" y="145.373">this.separator=separator;</text><rect fill="#F1F1F1" height="33.9688" rx="12.5" ry="12.5" style="stroke:#181818;stroke-width:0.5;" width="109" x="185" y="178.2031"/><text fill="#000000" font-family="sans-serif" font-size="12" lengthAdjust="spacing" textLength="89" x="195" y="199.3418">this.title=title;</text><rect fill="#F1F1F1" height="33.9688" rx="12.5" ry="12.5" style="stroke:#181818;stroke-width:0.5;" width="273" x="103" y="232.1719"/><text fill="#000000" font-family="sans-serif" font-size="12" lengthAdjust="spacing" textLength="253" x="113" y="253.3105">this.defaultThickness=defaultThickness;</text><ellipse cx="239.5" cy="296.1406" fill="none" rx="10" ry="10" style="stroke:#222222;stroke-width:1.5;"/><line style="stroke:#222222;stroke-width:2.5;" x1="233.3128" x2="245.6872" y1="289.9534" y2="302.3278"/><line style="stroke:#222222;stroke-width:2.5;" x1="245.6872" x2="233.3128" y1="289.9534" y2="302.3278"/><path d="M269.5,316.1406 L269.5,332.2734 L249.5,336.2734 L269.5,340.2734 L269.5,356.4063 A0,0 0 0 0 269.5,356.4063 L654.5,356.4063 A0,0 0 0 0 654.5,356.4063 L654.5,326.1406 L644.5,316.1406 L269.5,316.1406 A0,0 0 0 0 269.5,316.1406 " fill="#FEFFDD" style="stroke:#181818;stroke-width:0.5;"/><path d="M644.5,316.1406 L644.5,326.1406 L654.5,326.1406 L644.5,316.1406 " fill="#FEFFDD" style="stroke:#181818;stroke-width:0.5;"/><text fill="#000000" font-family="sans-serif" font-size="13" lengthAdjust="spacing" textLength="364" x="275.5" y="333.2075">constructor TextBlockLineBefore(doubledefaultThickness,</text><text fill="#000000" font-family="sans-serif" font-size="13" lengthAdjust="spacing" textLength="219" x="275.5" y="348.3403">TextBlocktextBlock,charseparator)</text><ellipse cx="239.5" cy="336.2734" fill="#222222" rx="10" ry="10" style="stroke:#222222;stroke-width:1.0;"/><rect fill="#F1F1F1" height="47.9375" rx="12.5" ry="12.5" style="stroke:#181818;stroke-width:0.5;" width="285" x="97" y="376.4063"/><text fill="#000000" font-family="sans-serif" font-size="12" lengthAdjust="spacing" textLength="265" x="107" y="397.5449">this(defaultThickness,textBlock,separator,</text><text fill="#000000" font-family="sans-serif" font-size="12" lengthAdjust="spacing" textLength="35" x="107" y="411.5137">null );</text><ellipse cx="239.5" cy="454.3438" fill="none" rx="10" ry="10" style="stroke:#222222;stroke-width:1.5;"/><line style="stroke:#222222;stroke-width:2.5;" x1="233.3128" x2="245.6872" y1="448.1566" y2="460.5309"/><line style="stroke:#222222;stroke-width:2.5;" x1="245.6872" x2="233.3128" y1="448.1566" y2="460.5309"/><path d="M269.5,474.3438 L269.5,490.4766 L249.5,494.4766 L269.5,498.4766 L269.5,514.6094 A0,0 0 0 0 269.5,514.6094 L654.5,514.6094 A0,0 0 0 0 654.5,514.6094 L654.5,484.3438 L644.5,474.3438 L269.5,474.3438 A0,0 0 0 0 269.5,474.3438 " fill="#FEFFDD" style="stroke:#181818;stroke-width:0.5;"/><path d="M644.5,474.3438 L644.5,484.3438 L654.5,484.3438 L644.5,474.3438 " fill="#FEFFDD" style="stroke:#181818;stroke-width:0.5;"/><text fill="#000000" font-family="sans-serif" font-size="13" lengthAdjust="spacing" textLength="364" x="275.5" y="491.4106">constructor TextBlockLineBefore(doubledefaultThickness,</text><text fill="#000000" font-family="sans-serif" font-size="13" lengthAdjust="spacing" textLength="125" x="275.5" y="506.5435">TextBlocktextBlock)</text><ellipse cx="239.5" cy="494.4766" fill="#222222" rx="10" ry="10" style="stroke:#222222;stroke-width:1.0;"/><rect fill="#F1F1F1" height="33.9688" rx="12.5" ry="12.5" style="stroke:#181818;stroke-width:0.5;" width="246" x="116.5" y="534.6094"/><text fill="#000000" font-family="sans-serif" font-size="12" lengthAdjust="spacing" textLength="226" x="126.5" y="555.748">this(defaultThickness,textBlock,'\0');</text><ellipse cx="239.5" cy="598.5781" fill="none" rx="10" ry="10" style="stroke:#222222;stroke-width:1.5;"/><line style="stroke:#222222;stroke-width:2.5;" x1="233.3128" x2="245.6872" y1="592.3909" y2="604.7653"/><line style="stroke:#222222;stroke-width:2.5;" x1="245.6872" x2="233.3128" y1="592.3909" y2="604.7653"/><path d="M269.5,618.5781 L269.5,627.1445 L249.5,631.1445 L269.5,635.1445 L269.5,643.7109 A0,0 0 0 0 269.5,643.7109 L701.5,643.7109 A0,0 0 0 0 701.5,643.7109 L701.5,628.5781 L691.5,618.5781 L269.5,618.5781 A0,0 0 0 0 269.5,618.5781 " fill="#FEFFDD" style="stroke:#181818;stroke-width:0.5;"/><path d="M691.5,618.5781 L691.5,628.5781 L701.5,628.5781 L691.5,618.5781 " fill="#FEFFDD" style="stroke:#181818;stroke-width:0.5;"/><text fill="#000000" font-family="sans-serif" font-size="13" lengthAdjust="spacing" textLength="411" x="275.5" y="635.645">XDimension2DcalculateDimension(StringBounderstringBounder)</text><ellipse cx="239.5" cy="631.1445" fill="#222222" rx="10" ry="10" style="stroke:#222222;stroke-width:1.0;"/><rect fill="#F1F1F1" height="33.9688" rx="12.5" ry="12.5" style="stroke:#181818;stroke-width:0.5;" width="457" x="11" y="663.7109"/><text fill="#000000" font-family="sans-serif" font-size="12" lengthAdjust="spacing" textLength="437" x="21" y="684.8496">final XDimension2Ddim=textBlock.calculateDimension(stringBounder);</text><rect fill="#F1F1F1" height="33.9688" rx="12.5" ry="12.5" style="stroke:#181818;stroke-width:0.5;" width="450" x="14.5" y="766.082"/><text fill="#000000" font-family="sans-serif" font-size="12" lengthAdjust="spacing" textLength="430" x="24.5" y="787.2207">final XDimension2DdimTitle=title.calculateDimension(stringBounder);</text><rect fill="#F1F1F1" height="47.9375" rx="12.5" ry="12.5" style="stroke:#181818;stroke-width:0.5;" width="362" x="58.5" y="820.0508"/><text fill="#000000" font-family="sans-serif" font-size="12" lengthAdjust="spacing" textLength="342" x="68.5" y="841.1895">return XDimension2D.atLeast(dim,dimTitle.getWidth()+</text><text fill="#000000" font-family="sans-serif" font-size="12" lengthAdjust="spacing" textLength="145" x="68.5" y="855.1582">8,dimTitle.getHeight());</text><ellipse cx="239.5" cy="898.9883" fill="none" rx="11" ry="11" style="stroke:#222222;stroke-width:1.0;"/><ellipse cx="239.5" cy="898.9883" fill="#222222" rx="6" ry="6" style="stroke:#111111;stroke-width:1.0;"/><polygon fill="#F1F1F1" points="211,717.6797,268,717.6797,280,729.6797,268,741.6797,211,741.6797,199,729.6797,211,717.6797" style="stroke:#181818;stroke-width:0.5;"/><text fill="#000000" font-family="sans-serif" font-size="11" lengthAdjust="spacing" textLength="20" x="243.5" y="751.8901">yes</text><text fill="#000000" font-family="sans-serif" font-size="11" lengthAdjust="spacing" textLength="53" x="211" y="733.4878">title!=null</text><rect fill="#F1F1F1" height="33.9688" rx="12.5" ry="12.5" style="stroke:#181818;stroke-width:0.5;" width="89" x="195" y="951.9883"/><text fill="#000000" font-family="sans-serif" font-size="12" lengthAdjust="spacing" textLength="69" x="205" y="973.127">return dim;</text><ellipse cx="239.5" cy="1016.957" fill="none" rx="11" ry="11" style="stroke:#222222;stroke-width:1.0;"/><ellipse cx="239.5" cy="1016.957" fill="#222222" rx="6" ry="6" style="stroke:#111111;stroke-width:1.0;"/><ellipse cx="239.5" cy="1047.957" fill="none" rx="10" ry="10" style="stroke:#222222;stroke-width:1.5;"/><line style="stroke:#222222;stroke-width:2.5;" x1="233.3128" x2="245.6872" y1="1041.7698" y2="1054.1442"/><line style="stroke:#222222;stroke-width:2.5;" x1="245.6872" x2="233.3128" y1="1041.7698" y2="1054.1442"/><path d="M269.5,1067.957 L269.5,1076.5234 L249.5,1080.5234 L269.5,1084.5234 L269.5,1093.0898 A0,0 0 0 0 269.5,1093.0898 L445.5,1093.0898 A0,0 0 0 0 445.5,1093.0898 L445.5,1077.957 L435.5,1067.957 L269.5,1067.957 A0,0 0 0 0 269.5,1067.957 " fill="#FEFFDD" style="stroke:#181818;stroke-width:0.5;"/><path d="M435.5,1067.957 L435.5,1077.957 L445.5,1077.957 L435.5,1067.957 " fill="#FEFFDD" style="stroke:#181818;stroke-width:0.5;"/><text fill="#000000" font-family="sans-serif" font-size="13" lengthAdjust="spacing" textLength="155" x="275.5" y="1085.0239">void drawU(UGraphicug)</text><ellipse cx="239.5" cy="1080.5234" fill="#222222" rx="10" ry="10" style="stroke:#222222;stroke-width:1.0;"/><rect fill="#F1F1F1" height="33.9688" rx="12.5" ry="12.5" style="stroke:#181818;stroke-width:0.5;" width="294" x="92.5" y="1113.0898"/><text fill="#000000" font-family="sans-serif" font-size="12" lengthAdjust="spacing" textLength="274" x="102.5" y="1134.2285">final HColorcolor=ug.getParam().getColor();</text><rect fill="#F1F1F1" height="47.9375" rx="12.5" ry="12.5" style="stroke:#181818;stroke-width:0.5;" width="277" x="101" y="1215.4609"/><text fill="#000000" font-family="sans-serif" font-size="12" lengthAdjust="spacing" textLength="257" x="111" y="1236.5996">UHorizontalLine.infinite(defaultThickness,</text><text fill="#000000" font-family="sans-serif" font-size="12" lengthAdjust="spacing" textLength="173" x="111" y="1250.5684">1,1,separator).drawMe(ug);</text><polygon fill="#F1F1F1" points="208,1167.0586,271,1167.0586,283,1179.0586,271,1191.0586,208,1191.0586,196,1179.0586,208,1167.0586" style="stroke:#181818;stroke-width:0.5;"/><text fill="#000000" font-family="sans-serif" font-size="11" lengthAdjust="spacing" textLength="20" x="243.5" y="1201.269">yes</text><text fill="#000000" font-family="sans-serif" font-size="11" lengthAdjust="spacing" textLength="59" x="208" y="1182.8667">title==null</text><polygon fill="#F1F1F1" points="239.5,1283.3984,251.5,1295.3984,239.5,1307.3984,227.5,1295.3984,239.5,1283.3984" style="stroke:#181818;stroke-width:0.5;"/><rect fill="#F1F1F1" height="33.9688" rx="12.5" ry="12.5" style="stroke:#181818;stroke-width:0.5;" width="150" x="164.5" y="1327.3984"/><text fill="#000000" font-family="sans-serif" font-size="12" lengthAdjust="spacing" textLength="130" x="174.5" y="1348.5371">textBlock.drawU(ug);</text><polygon fill="#F1F1F1" points="204.5,1381.3672,274.5,1381.3672,286.5,1393.3672,274.5,1405.3672,204.5,1405.3672,192.5,1393.3672,204.5,1381.3672" style="stroke:#181818;stroke-width:0.5;"/><text fill="#000000" font-family="sans-serif" font-size="11" lengthAdjust="spacing" textLength="66" x="204.5" y="1397.1753">color==null</text><text fill="#000000" font-family="sans-serif" font-size="11" lengthAdjust="spacing" textLength="20" x="172.5" y="1390.7729">yes</text><text fill="#000000" font-family="sans-serif" font-size="11" lengthAdjust="spacing" textLength="14" x="286.5" y="1390.7729">no</text><rect fill="#F1F1F1" height="33.9688" rx="12.5" ry="12.5" style="stroke:#181818;stroke-width:0.5;" width="207" x="38.25" y="1415.3672"/><text fill="#000000" font-family="sans-serif" font-size="12" lengthAdjust="spacing" textLength="187" x="48.25" y="1436.5059">ug=ug.apply(HColors.none());</text><rect fill="#F1F1F1" height="33.9688" rx="12.5" ry="12.5" style="stroke:#181818;stroke-width:0.5;" width="144" x="265.25" y="1415.3672"/><text fill="#000000" font-family="sans-serif" font-size="12" lengthAdjust="spacing" textLength="124" x="275.25" y="1436.5059">ug=ug.apply(color);</text><polygon fill="#F1F1F1" points="239.5,1455.3359,251.5,1467.3359,239.5,1479.3359,227.5,1467.3359,239.5,1455.3359" style="stroke:#181818;stroke-width:0.5;"/><rect fill="#F1F1F1" height="47.9375" rx="12.5" ry="12.5" style="stroke:#181818;stroke-width:0.5;" width="277" x="101" y="1547.7383"/><text fill="#000000" font-family="sans-serif" font-size="12" lengthAdjust="spacing" textLength="257" x="111" y="1568.877">UHorizontalLine.infinite(defaultThickness,</text><text fill="#000000" font-family="sans-serif" font-size="12" lengthAdjust="spacing" textLength="201" x="111" y="1582.8457">1,1,title,separator).drawMe(ug);</text><polygon fill="#F1F1F1" points="211,1499.3359,268,1499.3359,280,1511.3359,268,1523.3359,211,1523.3359,199,1511.3359,211,1499.3359" style="stroke:#181818;stroke-width:0.5;"/><text fill="#000000" font-family="sans-serif" font-size="11" lengthAdjust="spacing" textLength="20" x="243.5" y="1533.5464">yes</text><text fill="#000000" font-family="sans-serif" font-size="11" lengthAdjust="spacing" textLength="53" x="211" y="1515.144">title!=null</text><polygon fill="#F1F1F1" points="239.5,1615.6758,251.5,1627.6758,239.5,1639.6758,227.5,1627.6758,239.5,1615.6758" style="stroke:#181818;stroke-width:0.5;"/><ellipse cx="239.5" cy="1669.6758" fill="none" rx="10" ry="10" style="stroke:#222222;stroke-width:1.5;"/><line style="stroke:#222222;stroke-width:2.5;" x1="233.3128" x2="245.6872" y1="1663.4886" y2="1675.863"/><line style="stroke:#222222;stroke-width:2.5;" x1="245.6872" x2="233.3128" y1="1663.4886" y2="1675.863"/><path d="M269.5,1689.6758 L269.5,1705.8086 L249.5,1709.8086 L269.5,1713.8086 L269.5,1729.9414 A0,0 0 0 0 269.5,1729.9414 L621.5,1729.9414 A0,0 0 0 0 621.5,1729.9414 L621.5,1699.6758 L611.5,1689.6758 L269.5,1689.6758 A0,0 0 0 0 269.5,1689.6758 " fill="#FEFFDD" style="stroke:#181818;stroke-width:0.5;"/><path d="M611.5,1689.6758 L611.5,1699.6758 L621.5,1699.6758 L611.5,1689.6758 " fill="#FEFFDD" style="stroke:#181818;stroke-width:0.5;"/><text fill="#000000" font-family="sans-serif" font-size="13" lengthAdjust="spacing" textLength="294" x="275.5" y="1706.7427">XRectangle2DgetInnerPosition(Stringmember,</text><text fill="#000000" font-family="sans-serif" font-size="13" lengthAdjust="spacing" textLength="331" x="275.5" y="1721.8755">StringBounderstringBounder,InnerStrategystrategy)</text><ellipse cx="239.5" cy="1709.8086" fill="#222222" rx="10" ry="10" style="stroke:#222222;stroke-width:1.0;"/><rect fill="#F1F1F1" height="47.9375" rx="12.5" ry="12.5" style="stroke:#181818;stroke-width:0.5;" width="287" x="96" y="1749.9414"/><text fill="#000000" font-family="sans-serif" font-size="12" lengthAdjust="spacing" textLength="267" x="106" y="1771.0801">return textBlock.getInnerPosition(member,</text><text fill="#000000" font-family="sans-serif" font-size="12" lengthAdjust="spacing" textLength="154" x="106" y="1785.0488">stringBounder,strategy);</text><ellipse cx="239.5" cy="1828.8789" fill="none" rx="11" ry="11" style="stroke:#222222;stroke-width:1.0;"/><ellipse cx="239.5" cy="1828.8789" fill="#222222" rx="6" ry="6" style="stroke:#111111;stroke-width:1.0;"/><ellipse cx="239.5" cy="1859.8789" fill="none" rx="10" ry="10" style="stroke:#222222;stroke-width:1.5;"/><line style="stroke:#222222;stroke-width:2.5;" x1="233.3128" x2="245.6872" y1="1853.6917" y2="1866.0661"/><line style="stroke:#222222;stroke-width:2.5;" x1="245.6872" x2="233.3128" y1="1853.6917" y2="1866.0661"/><path d="M269.5,1879.8789 L269.5,1888.4453 L249.5,1892.4453 L269.5,1896.4453 L269.5,1905.0117 A0,0 0 0 0 269.5,1905.0117 L569.5,1905.0117 A0,0 0 0 0 569.5,1905.0117 L569.5,1889.8789 L559.5,1879.8789 L269.5,1879.8789 A0,0 0 0 0 269.5,1879.8789 " fill="#FEFFDD" style="stroke:#181818;stroke-width:0.5;"/><path d="M559.5,1879.8789 L559.5,1889.8789 L569.5,1889.8789 L559.5,1879.8789 " fill="#FEFFDD" style="stroke:#181818;stroke-width:0.5;"/><text fill="#000000" font-family="sans-serif" font-size="13" lengthAdjust="spacing" textLength="279" x="275.5" y="1896.9458">PortsgetPorts(StringBounderstringBounder)</text><ellipse cx="239.5" cy="1892.4453" fill="#222222" rx="10" ry="10" style="stroke:#222222;stroke-width:1.0;"/><rect fill="#F1F1F1" height="33.9688" rx="12.5" ry="12.5" style="stroke:#181818;stroke-width:0.5;" width="361" x="59" y="1973.4141"/><text fill="#000000" font-family="sans-serif" font-size="12" lengthAdjust="spacing" textLength="341" x="69" y="1994.5527">return ((WithPorts)textBlock).getPorts(stringBounder);</text><ellipse cx="239.5" cy="2046.8984" fill="none" rx="11" ry="11" style="stroke:#222222;stroke-width:1.0;"/><ellipse cx="239.5" cy="2046.8984" fill="#222222" rx="6" ry="6" style="stroke:#111111;stroke-width:1.0;"/><polygon fill="#F1F1F1" points="154,1925.0117,325,1925.0117,337,1937.0117,325,1949.0117,154,1949.0117,142,1937.0117,154,1925.0117" style="stroke:#181818;stroke-width:0.5;"/><text fill="#000000" font-family="sans-serif" font-size="11" lengthAdjust="spacing" textLength="20" x="243.5" y="1959.2222">yes</text><text fill="#000000" font-family="sans-serif" font-size="11" lengthAdjust="spacing" textLength="171" x="154" y="1940.8198">textBlock instanceof WithPorts</text><rect fill="#F1F1F1" height="33.9688" rx="12.5" ry="12.5" style="stroke:#181818;stroke-width:0.5;" width="139" x="170" y="2099.8984"/><text fill="#000000" font-family="sans-serif" font-size="12" lengthAdjust="spacing" textLength="119" x="180" y="2121.0371">return new Ports();</text><ellipse cx="239.5" cy="2164.8672" fill="none" rx="11" ry="11" style="stroke:#222222;stroke-width:1.0;"/><ellipse cx="239.5" cy="2164.8672" fill="#222222" rx="6" ry="6" style="stroke:#111111;stroke-width:1.0;"/><ellipse cx="239.5" cy="2195.8672" fill="none" rx="10" ry="10" style="stroke:#222222;stroke-width:1.5;"/><line style="stroke:#222222;stroke-width:2.5;" x1="233.3128" x2="245.6872" y1="2189.68" y2="2202.0544"/><line style="stroke:#222222;stroke-width:2.5;" x1="245.6872" x2="233.3128" y1="2189.68" y2="2202.0544"/><line style="stroke:#181818;stroke-width:1.0;" x1="239.5" x2="239.5" y1="40.1328" y2="70.2656"/><polygon fill="#181818" points="235.5,60.2656,239.5,70.2656,243.5,60.2656,239.5,64.2656" style="stroke:#181818;stroke-width:1.0;"/><line style="stroke:#181818;stroke-width:1.0;" x1="239.5" x2="239.5" y1="104.2344" y2="124.2344"/><polygon fill="#181818" points="235.5,114.2344,239.5,124.2344,243.5,114.2344,239.5,118.2344" style="stroke:#181818;stroke-width:1.0;"/><line style="stroke:#181818;stroke-width:1.0;" x1="239.5" x2="239.5" y1="158.2031" y2="178.2031"/><polygon fill="#181818" points="235.5,168.2031,239.5,178.2031,243.5,168.2031,239.5,172.2031" style="stroke:#181818;stroke-width:1.0;"/><line style="stroke:#181818;stroke-width:1.0;" x1="239.5" x2="239.5" y1="212.1719" y2="232.1719"/><polygon fill="#181818" points="235.5,222.1719,239.5,232.1719,243.5,222.1719,239.5,226.1719" style="stroke:#181818;stroke-width:1.0;"/><line style="stroke:#181818;stroke-width:1.0;" x1="239.5" x2="239.5" y1="266.1406" y2="286.1406"/><polygon fill="#181818" points="235.5,276.1406,239.5,286.1406,243.5,276.1406,239.5,280.1406" style="stroke:#181818;stroke-width:1.0;"/><line style="stroke:#181818;stroke-width:1.0;" x1="239.5" x2="239.5" y1="346.2734" y2="376.4063"/><polygon fill="#181818" points="235.5,366.4063,239.5,376.4063,243.5,366.4063,239.5,370.4063" style="stroke:#181818;stroke-width:1.0;"/><line style="stroke:#181818;stroke-width:1.0;" x1="239.5" x2="239.5" y1="424.3438" y2="444.3438"/><polygon fill="#181818" points="235.5,434.3438,239.5,444.3438,243.5,434.3438,239.5,438.3438" style="stroke:#181818;stroke-width:1.0;"/><line style="stroke:#181818;stroke-width:1.0;" x1="239.5" x2="239.5" y1="504.4766" y2="534.6094"/><polygon fill="#181818" points="235.5,524.6094,239.5,534.6094,243.5,524.6094,239.5,528.6094" style="stroke:#181818;stroke-width:1.0;"/><line style="stroke:#181818;stroke-width:1.0;" x1="239.5" x2="239.5" y1="568.5781" y2="588.5781"/><polygon fill="#181818" points="235.5,578.5781,239.5,588.5781,243.5,578.5781,239.5,582.5781" style="stroke:#181818;stroke-width:1.0;"/><line style="stroke:#181818;stroke-width:1.0;" x1="239.5" x2="239.5" y1="641.1445" y2="663.7109"/><polygon fill="#181818" points="235.5,653.7109,239.5,663.7109,243.5,653.7109,239.5,657.7109" style="stroke:#181818;stroke-width:1.0;"/><line style="stroke:#181818;stroke-width:1.0;" x1="239.5" x2="239.5" y1="800.0508" y2="820.0508"/><polygon fill="#181818" points="235.5,810.0508,239.5,820.0508,243.5,810.0508,239.5,814.0508" style="stroke:#181818;stroke-width:1.0;"/><line style="stroke:#181818;stroke-width:1.0;" x1="239.5" x2="239.5" y1="867.9883" y2="887.9883"/><polygon fill="#181818" points="235.5,877.9883,239.5,887.9883,243.5,877.9883,239.5,881.9883" style="stroke:#181818;stroke-width:1.0;"/><line style="stroke:#181818;stroke-width:1.0;" x1="239.5" x2="239.5" y1="741.6797" y2="766.082"/><polygon fill="#181818" points="235.5,756.082,239.5,766.082,243.5,756.082,239.5,760.082" style="stroke:#181818;stroke-width:1.0;"/><line style="stroke:#181818;stroke-width:1.0;" x1="280" x2="474.5" y1="729.6797" y2="729.6797"/><polygon fill="#181818" points="470.5,825.0352,474.5,835.0352,478.5,825.0352,474.5,829.0352" style="stroke:#181818;stroke-width:1.0;"/><line style="stroke:#181818;stroke-width:1.0;" x1="474.5" x2="474.5" y1="729.6797" y2="931.9883"/><line style="stroke:#181818;stroke-width:1.0;" x1="474.5" x2="239.5" y1="931.9883" y2="931.9883"/><line style="stroke:#181818;stroke-width:1.0;" x1="239.5" x2="239.5" y1="931.9883" y2="951.9883"/><polygon fill="#181818" points="235.5,941.9883,239.5,951.9883,243.5,941.9883,239.5,945.9883" style="stroke:#181818;stroke-width:1.0;"/><line style="stroke:#181818;stroke-width:1.0;" x1="239.5" x2="239.5" y1="697.6797" y2="717.6797"/><polygon fill="#181818" points="235.5,707.6797,239.5,717.6797,243.5,707.6797,239.5,711.6797" style="stroke:#181818;stroke-width:1.0;"/><line style="stroke:#181818;stroke-width:1.0;" x1="239.5" x2="239.5" y1="985.957" y2="1005.957"/><polygon fill="#181818" points="235.5,995.957,239.5,1005.957,243.5,995.957,239.5,999.957" style="stroke:#181818;stroke-width:1.0;"/><line style="stroke:#181818;stroke-width:1.0;" x1="239.5" x2="239.5" y1="1090.5234" y2="1113.0898"/><polygon fill="#181818" points="235.5,1103.0898,239.5,1113.0898,243.5,1103.0898,239.5,1107.0898" style="stroke:#181818;stroke-width:1.0;"/><line style="stroke:#181818;stroke-width:1.0;" x1="239.5" x2="239.5" y1="1191.0586" y2="1215.4609"/><polygon fill="#181818" points="235.5,1205.4609,239.5,1215.4609,243.5,1205.4609,239.5,1209.4609" style="stroke:#181818;stroke-width:1.0;"/><line style="stroke:#181818;stroke-width:1.0;" x1="283" x2="388" y1="1179.0586" y2="1179.0586"/><polygon fill="#181818" points="384,1229.4297,388,1239.4297,392,1229.4297,388,1233.4297" style="stroke:#181818;stroke-width:1.0;"/><line style="stroke:#181818;stroke-width:1.0;" x1="388" x2="388" y1="1179.0586" y2="1295.3984"/><line style="stroke:#181818;stroke-width:1.0;" x1="388" x2="251.5" y1="1295.3984" y2="1295.3984"/><polygon fill="#181818" points="261.5,1291.3984,251.5,1295.3984,261.5,1299.3984,257.5,1295.3984" style="stroke:#181818;stroke-width:1.0;"/><line style="stroke:#181818;stroke-width:1.0;" x1="239.5" x2="239.5" y1="1263.3984" y2="1283.3984"/><polygon fill="#181818" points="235.5,1273.3984,239.5,1283.3984,243.5,1273.3984,239.5,1277.3984" style="stroke:#181818;stroke-width:1.0;"/><line style="stroke:#181818;stroke-width:1.0;" x1="239.5" x2="239.5" y1="1147.0586" y2="1167.0586"/><polygon fill="#181818" points="235.5,1157.0586,239.5,1167.0586,243.5,1157.0586,239.5,1161.0586" style="stroke:#181818;stroke-width:1.0;"/><line style="stroke:#181818;stroke-width:1.0;" x1="239.5" x2="239.5" y1="1307.3984" y2="1327.3984"/><polygon fill="#181818" points="235.5,1317.3984,239.5,1327.3984,243.5,1317.3984,239.5,1321.3984" style="stroke:#181818;stroke-width:1.0;"/><line style="stroke:#181818;stroke-width:1.0;" x1="192.5" x2="141.75" y1="1393.3672" y2="1393.3672"/><line style="stroke:#181818;stroke-width:1.0;" x1="141.75" x2="141.75" y1="1393.3672" y2="1415.3672"/><polygon fill="#181818" points="137.75,1405.3672,141.75,1415.3672,145.75,1405.3672,141.75,1409.3672" style="stroke:#181818;stroke-width:1.0;"/><line style="stroke:#181818;stroke-width:1.0;" x1="286.5" x2="337.25" y1="1393.3672" y2="1393.3672"/><line style="stroke:#181818;stroke-width:1.0;" x1="337.25" x2="337.25" y1="1393.3672" y2="1415.3672"/><polygon fill="#181818" points="333.25,1405.3672,337.25,1415.3672,341.25,1405.3672,337.25,1409.3672" style="stroke:#181818;stroke-width:1.0;"/><line style="stroke:#181818;stroke-width:1.0;" x1="141.75" x2="141.75" y1="1449.3359" y2="1467.3359"/><line style="stroke:#181818;stroke-width:1.0;" x1="141.75" x2="227.5" y1="1467.3359" y2="1467.3359"/><polygon fill="#181818" points="217.5,1463.3359,227.5,1467.3359,217.5,1471.3359,221.5,1467.3359" style="stroke:#181818;stroke-width:1.0;"/><line style="stroke:#181818;stroke-width:1.0;" x1="337.25" x2="337.25" y1="1449.3359" y2="1467.3359"/><line style="stroke:#181818;stroke-width:1.0;" x1="337.25" x2="251.5" y1="1467.3359" y2="1467.3359"/><polygon fill="#181818" points="261.5,1463.3359,251.5,1467.3359,261.5,1471.3359,257.5,1467.3359" style="stroke:#181818;stroke-width:1.0;"/><line style="stroke:#181818;stroke-width:1.0;" x1="239.5" x2="239.5" y1="1361.3672" y2="1381.3672"/><polygon fill="#181818" points="235.5,1371.3672,239.5,1381.3672,243.5,1371.3672,239.5,1375.3672" style="stroke:#181818;stroke-width:1.0;"/><line style="stroke:#181818;stroke-width:1.0;" x1="239.5" x2="239.5" y1="1523.3359" y2="1547.7383"/><polygon fill="#181818" points="235.5,1537.7383,239.5,1547.7383,243.5,1537.7383,239.5,1541.7383" style="stroke:#181818;stroke-width:1.0;"/><line style="stroke:#181818;stroke-width:1.0;" x1="280" x2="388" y1="1511.3359" y2="1511.3359"/><polygon fill="#181818" points="384,1561.707,388,1571.707,392,1561.707,388,1565.707" style="stroke:#181818;stroke-width:1.0;"/><line style="stroke:#181818;stroke-width:1.0;" x1="388" x2="388" y1="1511.3359" y2="1627.6758"/><line style="stroke:#181818;stroke-width:1.0;" x1="388" x2="251.5" y1="1627.6758" y2="1627.6758"/><polygon fill="#181818" points="261.5,1623.6758,251.5,1627.6758,261.5,1631.6758,257.5,1627.6758" style="stroke:#181818;stroke-width:1.0;"/><line style="stroke:#181818;stroke-width:1.0;" x1="239.5" x2="239.5" y1="1595.6758" y2="1615.6758"/><polygon fill="#181818" points="235.5,1605.6758,239.5,1615.6758,243.5,1605.6758,239.5,1609.6758" style="stroke:#181818;stroke-width:1.0;"/><line style="stroke:#181818;stroke-width:1.0;" x1="239.5" x2="239.5" y1="1479.3359" y2="1499.3359"/><polygon fill="#181818" points="235.5,1489.3359,239.5,1499.3359,243.5,1489.3359,239.5,1493.3359" style="stroke:#181818;stroke-width:1.0;"/><line style="stroke:#181818;stroke-width:1.0;" x1="239.5" x2="239.5" y1="1639.6758" y2="1659.6758"/><polygon fill="#181818" points="235.5,1649.6758,239.5,1659.6758,243.5,1649.6758,239.5,1653.6758" style="stroke:#181818;stroke-width:1.0;"/><line style="stroke:#181818;stroke-width:1.0;" x1="239.5" x2="239.5" y1="1719.8086" y2="1749.9414"/><polygon fill="#181818" points="235.5,1739.9414,239.5,1749.9414,243.5,1739.9414,239.5,1743.9414" style="stroke:#181818;stroke-width:1.0;"/><line style="stroke:#181818;stroke-width:1.0;" x1="239.5" x2="239.5" y1="1797.8789" y2="1817.8789"/><polygon fill="#181818" points="235.5,1807.8789,239.5,1817.8789,243.5,1807.8789,239.5,1811.8789" style="stroke:#181818;stroke-width:1.0;"/><line style="stroke:#181818;stroke-width:1.0;" x1="239.5" x2="239.5" y1="2007.3828" y2="2035.8984"/><polygon fill="#181818" points="235.5,2025.8984,239.5,2035.8984,243.5,2025.8984,239.5,2029.8984" style="stroke:#181818;stroke-width:1.0;"/><line style="stroke:#181818;stroke-width:1.0;" x1="239.5" x2="239.5" y1="1949.0117" y2="1973.4141"/><polygon fill="#181818" points="235.5,1963.4141,239.5,1973.4141,243.5,1963.4141,239.5,1967.4141" style="stroke:#181818;stroke-width:1.0;"/><line style="stroke:#181818;stroke-width:1.0;" x1="337" x2="430" y1="1937.0117" y2="1937.0117"/><polygon fill="#181818" points="426,2005.8984,430,2015.8984,434,2005.8984,430,2009.8984" style="stroke:#181818;stroke-width:1.0;"/><line style="stroke:#181818;stroke-width:1.0;" x1="430" x2="430" y1="1937.0117" y2="2079.8984"/><line style="stroke:#181818;stroke-width:1.0;" x1="430" x2="239.5" y1="2079.8984" y2="2079.8984"/><line style="stroke:#181818;stroke-width:1.0;" x1="239.5" x2="239.5" y1="2079.8984" y2="2099.8984"/><polygon fill="#181818" points="235.5,2089.8984,239.5,2099.8984,243.5,2089.8984,239.5,2093.8984" style="stroke:#181818;stroke-width:1.0;"/><line style="stroke:#181818;stroke-width:1.0;" x1="239.5" x2="239.5" y1="1902.4453" y2="1925.0117"/><polygon fill="#181818" points="235.5,1915.0117,239.5,1925.0117,243.5,1915.0117,239.5,1919.0117" style="stroke:#181818;stroke-width:1.0;"/><line style="stroke:#181818;stroke-width:1.0;" x1="239.5" x2="239.5" y1="2133.8672" y2="2153.8672"/><polygon fill="#181818" points="235.5,2143.8672,239.5,2153.8672,243.5,2143.8672,239.5,2147.8672" style="stroke:#181818;stroke-width:1.0;"/><!--MD5=[f8f4570f55cc721cadb340846b47c9b6]
@startuml
!pragma layout smetana
start
note right
constructor TextBlockLineBefore(doubledefaultThickness,
TextBlocktextBlock,charseparator,TextBlocktitle)
end note
:this.textBlock=textBlock;;
:this.separator=separator;;
:this.title=title;;
:this.defaultThickness=defaultThickness;;
end
start
note right
constructor TextBlockLineBefore(doubledefaultThickness,
TextBlocktextBlock,charseparator)
end note
:this(defaultThickness,textBlock,separator,
null );;
end
start
note right
constructor TextBlockLineBefore(doubledefaultThickness,
TextBlocktextBlock)
end note
:this(defaultThickness,textBlock,'\0');;
end
start
note right
XDimension2DcalculateDimension(StringBounderstringBounder)
end note
:final XDimension2Ddim=textBlock.calculateDimension(stringBounder);;
if (title!=null ) then (yes) 
:final XDimension2DdimTitle=title.calculateDimension(stringBounder);;
:return XDimension2D.atLeast(dim,dimTitle.getWidth()+
8,dimTitle.getHeight());;
stop
endif 
:return dim;;
stop
end
start
note right
void drawU(UGraphicug)
end note
:final HColorcolor=ug.getParam().getColor();;
if (title==null ) then (yes) 
:UHorizontalLine.infinite(defaultThickness,
1,1,separator).drawMe(ug);;
endif 
:textBlock.drawU(ug);;
if (color==null ) then (yes) 
:ug=ug.apply(HColors.none());;
else (no)
:ug=ug.apply(color);;
endif 
if (title!=null ) then (yes) 
:UHorizontalLine.infinite(defaultThickness,
1,1,title,separator).drawMe(ug);;
endif 
end
start
note right
XRectangle2DgetInnerPosition(Stringmember,
StringBounderstringBounder,InnerStrategystrategy)
end note
:return textBlock.getInnerPosition(member,
stringBounder,strategy);;
stop
end
start
note right
PortsgetPorts(StringBounderstringBounder)
end note
if (textBlock instanceof WithPorts) then (yes) 
:return ((WithPorts)textBlock).getPorts(stringBounder);;
stop
endif 
:return new Ports();;
stop
end
@enduml

PlantUML version 1.2022.7(Mon Aug 22 17:01:30 UTC 2022)
(GPL source distribution)
Java Runtime: OpenJDK Runtime Environment
JVM: OpenJDK 64-Bit Server VM
Default Encoding: UTF-8
Language: en
Country: null
--></g></svg>