<?xml version="1.0" encoding="UTF-8" standalone="no"?><svg xmlns="http://www.w3.org/2000/svg" xmlns:xlink="http://www.w3.org/1999/xlink" contentStyleType="text/css" height="201px" preserveAspectRatio="none" style="width:730px;height:201px;background:#FFFFFF;" version="1.1" viewBox="0 0 730 201" width="730px" zoomAndPan="magnify"><defs/><g><path d="M356.5,10 L356.5,26.1328 L336.5,30.1328 L356.5,34.1328 L356.5,50.2656 A0,0 0 0 0 356.5,50.2656 L718.5,50.2656 A0,0 0 0 0 718.5,50.2656 L718.5,20 L708.5,10 L356.5,10 A0,0 0 0 0 356.5,10 " fill="#FEFFDD" style="stroke:#181818;stroke-width:0.5;"/><path d="M708.5,10 L708.5,20 L718.5,20 L708.5,10 " fill="#FEFFDD" style="stroke:#181818;stroke-width:0.5;"/><text fill="#000000" font-family="sans-serif" font-size="13" lengthAdjust="spacing" textLength="341" x="362.5" y="27.0669">UDrawable move(final UDrawable orig,final double dx,</text><text fill="#000000" font-family="sans-serif" font-size="13" lengthAdjust="spacing" textLength="97" x="362.5" y="42.1997">final double dy)</text><ellipse cx="326.5" cy="30.1328" fill="#222222" rx="10" ry="10" style="stroke:#222222;stroke-width:1.0;"/><rect fill="#F1F1F1" height="47.9375" rx="12.5" ry="12.5" style="stroke:#181818;stroke-width:0.5;" width="631" x="11" y="70.2656"/><text fill="#000000" font-family="sans-serif" font-size="12" lengthAdjust="spacing" textLength="611" x="21" y="91.4043">return new UDrawable(){public void drawU(UGraphic ug){orig.drawU(ug.apply(new UTranslate(dx,</text><text fill="#000000" font-family="sans-serif" font-size="12" lengthAdjust="spacing" textLength="53" x="21" y="105.373">dy)));}};</text><ellipse cx="326.5" cy="149.2031" fill="none" rx="11" ry="11" style="stroke:#222222;stroke-width:1.0;"/><ellipse cx="326.5" cy="149.2031" fill="#222222" rx="6" ry="6" style="stroke:#111111;stroke-width:1.0;"/><ellipse cx="326.5" cy="180.2031" fill="none" rx="10" ry="10" style="stroke:#222222;stroke-width:1.5;"/><line style="stroke:#222222;stroke-width:2.5;" x1="320.3128" x2="332.6872" y1="174.0159" y2="186.3903"/><line style="stroke:#222222;stroke-width:2.5;" x1="332.6872" x2="320.3128" y1="174.0159" y2="186.3903"/><line style="stroke:#181818;stroke-width:1.0;" x1="326.5" x2="326.5" y1="40.1328" y2="70.2656"/><polygon fill="#181818" points="322.5,60.2656,326.5,70.2656,330.5,60.2656,326.5,64.2656" style="stroke:#181818;stroke-width:1.0;"/><line style="stroke:#181818;stroke-width:1.0;" x1="326.5" x2="326.5" y1="118.2031" y2="138.2031"/><polygon fill="#181818" points="322.5,128.2031,326.5,138.2031,330.5,128.2031,326.5,132.2031" style="stroke:#181818;stroke-width:1.0;"/><!--MD5=[5970a5741d985b84ce7bdf7665964738]
@startuml
!pragma layout smetana
start
note right
UDrawable move(final UDrawable orig,final double dx,
final double dy)
end note
:return new UDrawable(){public void drawU(UGraphic ug){orig.drawU(ug.apply(new UTranslate(dx,
dy)));}};;
stop
end
@enduml

PlantUML version 1.2022.7(Mon Aug 22 17:01:30 UTC 2022)
(GPL source distribution)
Java Runtime: OpenJDK Runtime Environment
JVM: OpenJDK 64-Bit Server VM
Default Encoding: UTF-8
Language: en
Country: null
--></g></svg>