<?xml version="1.0" encoding="UTF-8" standalone="no"?><svg xmlns="http://www.w3.org/2000/svg" xmlns:xlink="http://www.w3.org/1999/xlink" contentStyleType="text/css" height="186px" preserveAspectRatio="none" style="width:329px;height:186px;background:#FFFFFF;" version="1.1" viewBox="0 0 329 186" width="329px" zoomAndPan="magnify"><defs/><g><!--MD5=[eb129185e3f9e5226a7e638d4a0af713]
cluster net.sourceforge.plantuml.graphic--><g id="cluster_net.sourceforge.plantuml.graphic"><path d="M8.5,63 L274.5,63 A3.75,3.75 0 0 1 277,65.5 L284,85.2969 L319.5,85.2969 A2.5,2.5 0 0 1 322,87.7969 L322,176.5 A2.5,2.5 0 0 1 319.5,179 L8.5,179 A2.5,2.5 0 0 1 6,176.5 L6,65.5 A2.5,2.5 0 0 1 8.5,63 " fill="none" style="stroke:#000000;stroke-width:1.5;"/><line style="stroke:#000000;stroke-width:1.5;" x1="6" x2="284" y1="85.2969" y2="85.2969"/><text fill="#000000" font-family="sans-serif" font-size="14" font-weight="bold" lengthAdjust="spacing" textLength="265" x="10" y="77.9951">net.sourceforge.plantuml.graphic</text></g><!--MD5=[e49655a5ce207c57ede8a07b2e6a5757]
class USymbolSimpleAbstract--><g id="elem_USymbolSimpleAbstract"><rect fill="#F1F1F1" height="48" id="USymbolSimpleAbstract" rx="2.5" ry="2.5" style="stroke:#181818;stroke-width:0.5;" width="195" x="66.5" y="6"/><ellipse cx="81.5" cy="22" fill="#ADD1B2" rx="11" ry="11" style="stroke:#181818;stroke-width:1.0;"/><path d="M84.4688,27.6406 Q83.8906,27.9375 83.25,28.0781 Q82.6094,28.2344 81.9063,28.2344 Q79.4063,28.2344 78.0781,26.5938 Q76.7656,24.9375 76.7656,21.8125 Q76.7656,18.6875 78.0781,17.0313 Q79.4063,15.375 81.9063,15.375 Q82.6094,15.375 83.25,15.5313 Q83.9063,15.6875 84.4688,15.9844 L84.4688,18.7031 Q83.8438,18.125 83.25,17.8594 Q82.6563,17.5781 82.0313,17.5781 Q80.6875,17.5781 80,18.6563 Q79.3125,19.7188 79.3125,21.8125 Q79.3125,23.9063 80,24.9844 Q80.6875,26.0469 82.0313,26.0469 Q82.6563,26.0469 83.25,25.7813 Q83.8438,25.5 84.4688,24.9219 L84.4688,27.6406 Z " fill="#000000"/><text fill="#000000" font-family="sans-serif" font-size="14" lengthAdjust="spacing" textLength="163" x="95.5" y="26.8467">USymbolSimpleAbstract</text><line style="stroke:#181818;stroke-width:0.5;" x1="67.5" x2="260.5" y1="38" y2="38"/><line style="stroke:#181818;stroke-width:0.5;" x1="67.5" x2="260.5" y1="46" y2="46"/></g><!--MD5=[8885db2a811f25a9e7e56824a004fce3]
class net.sourceforge.plantuml.graphic.USymbolControl--><g id="elem_net.sourceforge.plantuml.graphic.USymbolControl"><rect codeLine="3" fill="#F1F1F1" height="80.5938" id="net.sourceforge.plantuml.graphic.USymbolControl" rx="2.5" ry="2.5" style="stroke:#181818;stroke-width:0.5;" width="300" x="14" y="90"/><ellipse cx="104.75" cy="106" fill="#ADD1B2" rx="11" ry="11" style="stroke:#181818;stroke-width:1.0;"/><path d="M107.7188,111.6406 Q107.1406,111.9375 106.5,112.0781 Q105.8594,112.2344 105.1563,112.2344 Q102.6563,112.2344 101.3281,110.5938 Q100.0156,108.9375 100.0156,105.8125 Q100.0156,102.6875 101.3281,101.0313 Q102.6563,99.375 105.1563,99.375 Q105.8594,99.375 106.5,99.5313 Q107.1563,99.6875 107.7188,99.9844 L107.7188,102.7031 Q107.0938,102.125 106.5,101.8594 Q105.9063,101.5781 105.2813,101.5781 Q103.9375,101.5781 103.25,102.6563 Q102.5625,103.7188 102.5625,105.8125 Q102.5625,107.9063 103.25,108.9844 Q103.9375,110.0469 105.2813,110.0469 Q105.9063,110.0469 106.5,109.7813 Q107.0938,109.5 107.7188,108.9219 L107.7188,111.6406 Z " fill="#000000"/><text fill="#000000" font-family="sans-serif" font-size="14" lengthAdjust="spacing" textLength="110" x="125.25" y="110.8467">USymbolControl</text><line style="stroke:#181818;stroke-width:0.5;" x1="15" x2="313" y1="122" y2="122"/><line style="stroke:#181818;stroke-width:0.5;" x1="15" x2="313" y1="130" y2="130"/><a href="./../../../../../.././qc/src/net/sourceforge/plantuml/graphic/USymbolControl.java.html#44" target="_top" title="./../../../../../.././qc/src/net/sourceforge/plantuml/graphic/USymbolControl.java.html#44" xlink:actuate="onRequest" xlink:href="./../../../../../.././qc/src/net/sourceforge/plantuml/graphic/USymbolControl.java.html#44" xlink:show="new" xlink:title="./../../../../../.././qc/src/net/sourceforge/plantuml/graphic/USymbolControl.java.html#44" xlink:type="simple"><rect fill="#F1F1F1" height="10" style="stroke:none;stroke-width:1.0;" width="20" x="20" y="138.6484"/><ellipse cx="25" cy="143.6484" fill="#84BE84" rx="3" ry="3" style="stroke:#038048;stroke-width:1.0;"/></a><a href="./../../../../../.././qc/src/net/sourceforge/plantuml/graphic/USymbolControl.java.html#44" target="_top" title="./../../../../../.././qc/src/net/sourceforge/plantuml/graphic/USymbolControl.java.html#44" xlink:actuate="onRequest" xlink:href="./../../../../../.././qc/src/net/sourceforge/plantuml/graphic/USymbolControl.java.html#44" xlink:show="new" xlink:title="./../../../../../.././qc/src/net/sourceforge/plantuml/graphic/USymbolControl.java.html#44" xlink:type="simple"><text fill="#000000" font-family="sans-serif" font-size="14" lengthAdjust="spacing" textLength="144" x="34" y="146.9951">getSName() : SName</text></a><a href="./../../../../../.././qc/src/net/sourceforge/plantuml/graphic/USymbolControl.java.html#49" target="_top" title="./../../../../../.././qc/src/net/sourceforge/plantuml/graphic/USymbolControl.java.html#49" xlink:actuate="onRequest" xlink:href="./../../../../../.././qc/src/net/sourceforge/plantuml/graphic/USymbolControl.java.html#49" xlink:show="new" xlink:title="./../../../../../.././qc/src/net/sourceforge/plantuml/graphic/USymbolControl.java.html#49" xlink:type="simple"><text fill="#000000" font-family="sans-serif" font-size="14" lengthAdjust="spacing" textLength="274" x="34" y="163.292">getDrawing(SymbolContext) : TextBlock</text></a></g><path d="M164,54.0939 C164,64.784 164,77.7904 164,89.9706 " fill="none" style="stroke:#181818;stroke-width:1.0;"/><polygon fill="#FFFFFF" points="164,54.0939,158,70.0939,170,70.0939,164,54.0939" style="stroke:#181818;stroke-width:1.0;"/><!--MD5=[83c17c815e47979e3d38e41f48d9d34f]
@startuml
!pragma layout smetana
"USymbolSimpleAbstract" <|- - "net.sourceforge.plantuml.graphic.USymbolControl"
class net.sourceforge.plantuml.graphic.USymbolControl {
+getSName() : SName [[[./../../../../../.././qc/src/net/sourceforge/plantuml/graphic/USymbolControl.java.html#44]]]
getDrawing(SymbolContext) : TextBlock [[[./../../../../../.././qc/src/net/sourceforge/plantuml/graphic/USymbolControl.java.html#49]]]
} 
@enduml

PlantUML version 1.2022.7(Mon Aug 22 17:01:30 UTC 2022)
(GPL source distribution)
Java Runtime: OpenJDK Runtime Environment
JVM: OpenJDK 64-Bit Server VM
Default Encoding: UTF-8
Language: en
Country: null
--></g></svg>