<?xml version="1.0" encoding="UTF-8" standalone="no"?><svg xmlns="http://www.w3.org/2000/svg" xmlns:xlink="http://www.w3.org/1999/xlink" contentStyleType="text/css" height="333px" preserveAspectRatio="none" style="width:749px;height:333px;background:#FFFFFF;" version="1.1" viewBox="0 0 749 333" width="749px" zoomAndPan="magnify"><defs/><g><path d="M341,10 L341,18.5664 L321,22.5664 L341,26.5664 L341,35.1328 A0,0 0 0 0 341,35.1328 L493,35.1328 A0,0 0 0 0 493,35.1328 L493,20 L483,10 L341,10 A0,0 0 0 0 341,10 " fill="#FEFFDD" style="stroke:#181818;stroke-width:0.5;"/><path d="M483,10 L483,20 L493,20 L483,10 " fill="#FEFFDD" style="stroke:#181818;stroke-width:0.5;"/><text fill="#000000" font-family="sans-serif" font-size="13" lengthAdjust="spacing" textLength="131" x="347" y="27.0669">SName getSName()</text><ellipse cx="311" cy="22.5664" fill="#222222" rx="10" ry="10" style="stroke:#222222;stroke-width:1.0;"/><rect fill="#F1F1F1" height="33.9688" rx="12.5" ry="12.5" style="stroke:#181818;stroke-width:0.5;" width="159" x="231.5" y="55.1328"/><text fill="#000000" font-family="sans-serif" font-size="12" lengthAdjust="spacing" textLength="139" x="241.5" y="76.2715">return SName.control;</text><ellipse cx="311" cy="120.1016" fill="none" rx="11" ry="11" style="stroke:#222222;stroke-width:1.0;"/><ellipse cx="311" cy="120.1016" fill="#222222" rx="6" ry="6" style="stroke:#111111;stroke-width:1.0;"/><ellipse cx="311" cy="151.1016" fill="none" rx="10" ry="10" style="stroke:#222222;stroke-width:1.5;"/><line style="stroke:#222222;stroke-width:2.5;" x1="304.8128" x2="317.1872" y1="144.9144" y2="157.2887"/><line style="stroke:#222222;stroke-width:2.5;" x1="317.1872" x2="304.8128" y1="144.9144" y2="157.2887"/><path d="M341,171.1016 L341,179.668 L321,183.668 L341,187.668 L341,196.2344 A0,0 0 0 0 341,196.2344 L737,196.2344 A0,0 0 0 0 737,196.2344 L737,181.1016 L727,171.1016 L341,171.1016 A0,0 0 0 0 341,171.1016 " fill="#FEFFDD" style="stroke:#181818;stroke-width:0.5;"/><path d="M727,171.1016 L727,181.1016 L737,181.1016 L727,171.1016 " fill="#FEFFDD" style="stroke:#181818;stroke-width:0.5;"/><text fill="#000000" font-family="sans-serif" font-size="13" lengthAdjust="spacing" textLength="375" x="347" y="188.1685">TextBlock getDrawing(final SymbolContext symbolContext)</text><ellipse cx="311" cy="183.668" fill="#222222" rx="10" ry="10" style="stroke:#222222;stroke-width:1.0;"/><rect fill="#F1F1F1" height="33.9688" rx="12.5" ry="12.5" style="stroke:#181818;stroke-width:0.5;" width="600" x="11" y="216.2344"/><text fill="#000000" font-family="sans-serif" font-size="12" lengthAdjust="spacing" textLength="580" x="21" y="237.373">return new Control(symbolContext.withDeltaShadow(symbolContext.isShadowing()? 4.0:0.0));</text><ellipse cx="311" cy="281.2031" fill="none" rx="11" ry="11" style="stroke:#222222;stroke-width:1.0;"/><ellipse cx="311" cy="281.2031" fill="#222222" rx="6" ry="6" style="stroke:#111111;stroke-width:1.0;"/><ellipse cx="311" cy="312.2031" fill="none" rx="10" ry="10" style="stroke:#222222;stroke-width:1.5;"/><line style="stroke:#222222;stroke-width:2.5;" x1="304.8128" x2="317.1872" y1="306.0159" y2="318.3903"/><line style="stroke:#222222;stroke-width:2.5;" x1="317.1872" x2="304.8128" y1="306.0159" y2="318.3903"/><line style="stroke:#181818;stroke-width:1.0;" x1="311" x2="311" y1="32.5664" y2="55.1328"/><polygon fill="#181818" points="307,45.1328,311,55.1328,315,45.1328,311,49.1328" style="stroke:#181818;stroke-width:1.0;"/><line style="stroke:#181818;stroke-width:1.0;" x1="311" x2="311" y1="89.1016" y2="109.1016"/><polygon fill="#181818" points="307,99.1016,311,109.1016,315,99.1016,311,103.1016" style="stroke:#181818;stroke-width:1.0;"/><line style="stroke:#181818;stroke-width:1.0;" x1="311" x2="311" y1="193.668" y2="216.2344"/><polygon fill="#181818" points="307,206.2344,311,216.2344,315,206.2344,311,210.2344" style="stroke:#181818;stroke-width:1.0;"/><line style="stroke:#181818;stroke-width:1.0;" x1="311" x2="311" y1="250.2031" y2="270.2031"/><polygon fill="#181818" points="307,260.2031,311,270.2031,315,260.2031,311,264.2031" style="stroke:#181818;stroke-width:1.0;"/><!--MD5=[d59fa9cd06c544db397c0d43d16bfae7]
@startuml
!pragma layout smetana
start
note right
SName getSName()
end note
:return SName.control;;
stop
end
start
note right
TextBlock getDrawing(final SymbolContext symbolContext)
end note
:return new Control(symbolContext.withDeltaShadow(symbolContext.isShadowing()? 4.0:0.0));;
stop
end
@enduml

PlantUML version 1.2022.7(Mon Aug 22 17:01:30 UTC 2022)
(GPL source distribution)
Java Runtime: OpenJDK Runtime Environment
JVM: OpenJDK 64-Bit Server VM
Default Encoding: UTF-8
Language: en
Country: null
--></g></svg>