<?xml version="1.0" encoding="UTF-8" standalone="no"?><svg xmlns="http://www.w3.org/2000/svg" xmlns:xlink="http://www.w3.org/1999/xlink" contentStyleType="text/css" height="1067px" preserveAspectRatio="none" style="width:3702px;height:1067px;background:#FFFFFF;" version="1.1" viewBox="0 0 3702 1067" width="3702px" zoomAndPan="magnify"><defs/><g><path d="M1881,10 L1881,18.5664 L1861,22.5664 L1881,26.5664 L1881,35.1328 A0,0 0 0 0 1881,35.1328 L2029,35.1328 A0,0 0 0 0 2029,35.1328 L2029,20 L2019,10 L1881,10 A0,0 0 0 0 1881,10 " fill="#FEFFDD" style="stroke:#181818;stroke-width:0.5;"/><path d="M2019,10 L2019,20 L2029,20 L2019,10 " fill="#FEFFDD" style="stroke:#181818;stroke-width:0.5;"/><text fill="#000000" font-family="sans-serif" font-size="13" lengthAdjust="spacing" textLength="127" x="1887" y="27.0669">SNamegetSName()</text><ellipse cx="1851" cy="22.5664" fill="#222222" rx="10" ry="10" style="stroke:#222222;stroke-width:1.0;"/><rect fill="#F1F1F1" height="33.9688" rx="12.5" ry="12.5" style="stroke:#181818;stroke-width:0.5;" width="164" x="1769" y="55.1328"/><text fill="#000000" font-family="sans-serif" font-size="12" lengthAdjust="spacing" textLength="144" x="1779" y="76.2715">return SName.storage;</text><ellipse cx="1851" cy="120.1016" fill="none" rx="11" ry="11" style="stroke:#222222;stroke-width:1.0;"/><ellipse cx="1851" cy="120.1016" fill="#222222" rx="6" ry="6" style="stroke:#111111;stroke-width:1.0;"/><ellipse cx="1851" cy="151.1016" fill="none" rx="10" ry="10" style="stroke:#222222;stroke-width:1.5;"/><line style="stroke:#222222;stroke-width:2.5;" x1="1844.8128" x2="1857.1872" y1="144.9144" y2="157.2887"/><line style="stroke:#222222;stroke-width:2.5;" x1="1857.1872" x2="1844.8128" y1="144.9144" y2="157.2887"/><path d="M1881,171.1016 L1881,187.2344 L1861,191.2344 L1881,195.2344 L1881,211.3672 A0,0 0 0 0 1881,211.3672 L2264,211.3672 A0,0 0 0 0 2264,211.3672 L2264,181.1016 L2254,171.1016 L1881,171.1016 A0,0 0 0 0 1881,171.1016 " fill="#FEFFDD" style="stroke:#181818;stroke-width:0.5;"/><path d="M2254,171.1016 L2254,181.1016 L2264,181.1016 L2254,171.1016 " fill="#FEFFDD" style="stroke:#181818;stroke-width:0.5;"/><text fill="#000000" font-family="sans-serif" font-size="13" lengthAdjust="spacing" textLength="362" x="1887" y="188.1685">void drawStorage(UGraphicug,doublewidth,doubleheight,</text><text fill="#000000" font-family="sans-serif" font-size="13" lengthAdjust="spacing" textLength="115" x="1887" y="203.3013">doubleshadowing)</text><ellipse cx="1851" cy="191.2344" fill="#222222" rx="10" ry="10" style="stroke:#222222;stroke-width:1.0;"/><rect fill="#F1F1F1" height="47.9375" rx="12.5" ry="12.5" style="stroke:#181818;stroke-width:0.5;" width="314" x="1694" y="231.3672"/><text fill="#000000" font-family="sans-serif" font-size="12" lengthAdjust="spacing" textLength="294" x="1704" y="252.5059">final URectangleshape=new URectangle(width,</text><text fill="#000000" font-family="sans-serif" font-size="12" lengthAdjust="spacing" textLength="132" x="1704" y="266.4746">height).rounded(70);</text><rect fill="#F1F1F1" height="33.9688" rx="12.5" ry="12.5" style="stroke:#181818;stroke-width:0.5;" width="246" x="1728" y="299.3047"/><text fill="#000000" font-family="sans-serif" font-size="12" lengthAdjust="spacing" textLength="226" x="1738" y="320.4434">shape.setDeltaShadow(shadowing);</text><rect fill="#F1F1F1" height="33.9688" rx="12.5" ry="12.5" style="stroke:#181818;stroke-width:0.5;" width="123" x="1789.5" y="353.2734"/><text fill="#000000" font-family="sans-serif" font-size="12" lengthAdjust="spacing" textLength="103" x="1799.5" y="374.4121">ug.draw(shape);</text><ellipse cx="1851" cy="417.2422" fill="none" rx="10" ry="10" style="stroke:#222222;stroke-width:1.5;"/><line style="stroke:#222222;stroke-width:2.5;" x1="1844.8128" x2="1857.1872" y1="411.055" y2="423.4294"/><line style="stroke:#222222;stroke-width:2.5;" x1="1857.1872" x2="1844.8128" y1="411.055" y2="423.4294"/><path d="M1881,437.2422 L1881,445.8086 L1861,449.8086 L1881,453.8086 L1881,462.375 A0,0 0 0 0 1881,462.375 L2019,462.375 A0,0 0 0 0 2019,462.375 L2019,447.2422 L2009,437.2422 L1881,437.2422 A0,0 0 0 0 1881,437.2422 " fill="#FEFFDD" style="stroke:#181818;stroke-width:0.5;"/><path d="M2009,437.2422 L2009,447.2422 L2019,447.2422 L2009,437.2422 " fill="#FEFFDD" style="stroke:#181818;stroke-width:0.5;"/><text fill="#000000" font-family="sans-serif" font-size="13" lengthAdjust="spacing" textLength="117" x="1887" y="454.3091">MargingetMargin()</text><ellipse cx="1851" cy="449.8086" fill="#222222" rx="10" ry="10" style="stroke:#222222;stroke-width:1.0;"/><rect fill="#F1F1F1" height="33.9688" rx="12.5" ry="12.5" style="stroke:#181818;stroke-width:0.5;" width="224" x="1739" y="482.375"/><text fill="#000000" font-family="sans-serif" font-size="12" lengthAdjust="spacing" textLength="204" x="1749" y="503.5137">return new Margin(10,10,10,10);</text><ellipse cx="1851" cy="547.3438" fill="none" rx="11" ry="11" style="stroke:#222222;stroke-width:1.0;"/><ellipse cx="1851" cy="547.3438" fill="#222222" rx="6" ry="6" style="stroke:#111111;stroke-width:1.0;"/><ellipse cx="1851" cy="578.3438" fill="none" rx="10" ry="10" style="stroke:#222222;stroke-width:1.5;"/><line style="stroke:#222222;stroke-width:2.5;" x1="1844.8128" x2="1857.1872" y1="572.1566" y2="584.5309"/><line style="stroke:#222222;stroke-width:2.5;" x1="1857.1872" x2="1844.8128" y1="572.1566" y2="584.5309"/><path d="M1881,598.3438 L1881,622.043 L1861,626.043 L1881,630.043 L1881,653.7422 A0,0 0 0 0 1881,653.7422 L2294,653.7422 A0,0 0 0 0 2294,653.7422 L2294,608.3438 L2284,598.3438 L1881,598.3438 A0,0 0 0 0 1881,598.3438 " fill="#FEFFDD" style="stroke:#181818;stroke-width:0.5;"/><path d="M2284,598.3438 L2284,608.3438 L2294,608.3438 L2284,598.3438 " fill="#FEFFDD" style="stroke:#181818;stroke-width:0.5;"/><text fill="#000000" font-family="sans-serif" font-size="13" lengthAdjust="spacing" textLength="344" x="1887" y="615.4106">TextBlockasSmall(TextBlockname,final TextBlocklabel,</text><text fill="#000000" font-family="sans-serif" font-size="13" lengthAdjust="spacing" textLength="392" x="1887" y="630.5435">final TextBlockstereotype,final SymbolContextsymbolContext,</text><text fill="#000000" font-family="sans-serif" font-size="13" lengthAdjust="spacing" textLength="271" x="1887" y="645.6763">final HorizontalAlignmentstereoAlignment)</text><ellipse cx="1851" cy="626.043" fill="#222222" rx="10" ry="10" style="stroke:#222222;stroke-width:1.0;"/><rect fill="#F1F1F1" height="89.8438" rx="12.5" ry="12.5" style="stroke:#181818;stroke-width:0.5;" width="2046" x="828" y="673.7422"/><text fill="#000000" font-family="sans-serif" font-size="12" lengthAdjust="spacing" textLength="1025" x="838" y="694.8809">return new AbstractTextBlock(){public void drawU(UGraphicug){final XDimension2Ddim=calculateDimension(ug.getStringBounder());ug=UGraphicStencil.create(ug,</text><text fill="#000000" font-family="sans-serif" font-size="12" lengthAdjust="spacing" textLength="320" x="838" y="708.8496">dim);ug=symbolContext.apply(ug);drawStorage(ug,</text><text fill="#000000" font-family="sans-serif" font-size="12" lengthAdjust="spacing" textLength="951" x="838" y="722.8184">dim.getWidth(),dim.getHeight(),symbolContext.getDeltaShadow());final Marginmargin=getMargin();final TextBlocktb=TextBlockUtils.mergeTB(stereotype,</text><text fill="#000000" font-family="sans-serif" font-size="12" lengthAdjust="spacing" textLength="537" x="838" y="736.7871">label,HorizontalAlignment.CENTER);tb.drawU(ug.apply(new UTranslate(margin.getX1(),</text><text fill="#000000" font-family="sans-serif" font-size="12" lengthAdjust="spacing" textLength="2026" x="838" y="750.7559">margin.getY1())));}public XDimension2DcalculateDimension(StringBounderstringBounder){final XDimension2DdimLabel=label.calculateDimension(stringBounder);final XDimension2DdimStereo=stereotype.calculateDimension(stringBounder);return getMargin().addDimension(XDimension2D.mergeTB(dimStereo,dimLabel));}};</text><ellipse cx="1851" cy="794.5859" fill="none" rx="11" ry="11" style="stroke:#222222;stroke-width:1.0;"/><ellipse cx="1851" cy="794.5859" fill="#222222" rx="6" ry="6" style="stroke:#111111;stroke-width:1.0;"/><ellipse cx="1851" cy="825.5859" fill="none" rx="10" ry="10" style="stroke:#222222;stroke-width:1.5;"/><line style="stroke:#222222;stroke-width:2.5;" x1="1844.8128" x2="1857.1872" y1="819.3988" y2="831.7731"/><line style="stroke:#222222;stroke-width:2.5;" x1="1857.1872" x2="1844.8128" y1="819.3988" y2="831.7731"/><path d="M1881,845.5859 L1881,876.8516 L1861,880.8516 L1881,884.8516 L1881,916.1172 A0,0 0 0 0 1881,916.1172 L2351,916.1172 A0,0 0 0 0 2351,916.1172 L2351,855.5859 L2341,845.5859 L1881,845.5859 A0,0 0 0 0 1881,845.5859 " fill="#FEFFDD" style="stroke:#181818;stroke-width:0.5;"/><path d="M2341,845.5859 L2341,855.5859 L2351,855.5859 L2341,845.5859 " fill="#FEFFDD" style="stroke:#181818;stroke-width:0.5;"/><text fill="#000000" font-family="sans-serif" font-size="13" lengthAdjust="spacing" textLength="449" x="1887" y="862.6528">TextBlockasBig(final TextBlocktitle,HorizontalAlignmentlabelAlignment,</text><text fill="#000000" font-family="sans-serif" font-size="13" lengthAdjust="spacing" textLength="274" x="1887" y="877.7856">final TextBlockstereotype,final doublewidth,</text><text fill="#000000" font-family="sans-serif" font-size="13" lengthAdjust="spacing" textLength="345" x="1887" y="892.9185">final doubleheight,final SymbolContextsymbolContext,</text><text fill="#000000" font-family="sans-serif" font-size="13" lengthAdjust="spacing" textLength="271" x="1887" y="908.0513">final HorizontalAlignmentstereoAlignment)</text><ellipse cx="1851" cy="880.8516" fill="#222222" rx="10" ry="10" style="stroke:#222222;stroke-width:1.0;"/><rect fill="#F1F1F1" height="47.9375" rx="12.5" ry="12.5" style="stroke:#181818;stroke-width:0.5;" width="3680" x="11" y="936.1172"/><text fill="#000000" font-family="sans-serif" font-size="12" lengthAdjust="spacing" textLength="1119" x="21" y="957.2559">return new AbstractTextBlock(){public void drawU(UGraphicug){final XDimension2Ddim=calculateDimension(ug.getStringBounder());ug=symbolContext.apply(ug);drawStorage(ug,</text><text fill="#000000" font-family="sans-serif" font-size="12" lengthAdjust="spacing" textLength="3660" x="21" y="971.2246">dim.getWidth(),dim.getHeight(),symbolContext.getDeltaShadow());final XDimension2DdimStereo=stereotype.calculateDimension(ug.getStringBounder());final doubleposStereo=(width-dimStereo.getWidth())/2;stereotype.drawU(ug.apply(new UTranslate(posStereo,5)));final XDimension2DdimTitle=title.calculateDimension(ug.getStringBounder());final doubleposTitle=(width-dimTitle.getWidth())/2;title.drawU(ug.apply(new UTranslate(posTitle,7+dimStereo.getHeight())));}public XDimension2DcalculateDimension(StringBounderstringBounder){return new XDimension2D(width,height);}};</text><ellipse cx="1851" cy="1015.0547" fill="none" rx="11" ry="11" style="stroke:#222222;stroke-width:1.0;"/><ellipse cx="1851" cy="1015.0547" fill="#222222" rx="6" ry="6" style="stroke:#111111;stroke-width:1.0;"/><ellipse cx="1851" cy="1046.0547" fill="none" rx="10" ry="10" style="stroke:#222222;stroke-width:1.5;"/><line style="stroke:#222222;stroke-width:2.5;" x1="1844.8128" x2="1857.1872" y1="1039.8675" y2="1052.2419"/><line style="stroke:#222222;stroke-width:2.5;" x1="1857.1872" x2="1844.8128" y1="1039.8675" y2="1052.2419"/><line style="stroke:#181818;stroke-width:1.0;" x1="1851" x2="1851" y1="32.5664" y2="55.1328"/><polygon fill="#181818" points="1847,45.1328,1851,55.1328,1855,45.1328,1851,49.1328" style="stroke:#181818;stroke-width:1.0;"/><line style="stroke:#181818;stroke-width:1.0;" x1="1851" x2="1851" y1="89.1016" y2="109.1016"/><polygon fill="#181818" points="1847,99.1016,1851,109.1016,1855,99.1016,1851,103.1016" style="stroke:#181818;stroke-width:1.0;"/><line style="stroke:#181818;stroke-width:1.0;" x1="1851" x2="1851" y1="201.2344" y2="231.3672"/><polygon fill="#181818" points="1847,221.3672,1851,231.3672,1855,221.3672,1851,225.3672" style="stroke:#181818;stroke-width:1.0;"/><line style="stroke:#181818;stroke-width:1.0;" x1="1851" x2="1851" y1="279.3047" y2="299.3047"/><polygon fill="#181818" points="1847,289.3047,1851,299.3047,1855,289.3047,1851,293.3047" style="stroke:#181818;stroke-width:1.0;"/><line style="stroke:#181818;stroke-width:1.0;" x1="1851" x2="1851" y1="333.2734" y2="353.2734"/><polygon fill="#181818" points="1847,343.2734,1851,353.2734,1855,343.2734,1851,347.2734" style="stroke:#181818;stroke-width:1.0;"/><line style="stroke:#181818;stroke-width:1.0;" x1="1851" x2="1851" y1="387.2422" y2="407.2422"/><polygon fill="#181818" points="1847,397.2422,1851,407.2422,1855,397.2422,1851,401.2422" style="stroke:#181818;stroke-width:1.0;"/><line style="stroke:#181818;stroke-width:1.0;" x1="1851" x2="1851" y1="459.8086" y2="482.375"/><polygon fill="#181818" points="1847,472.375,1851,482.375,1855,472.375,1851,476.375" style="stroke:#181818;stroke-width:1.0;"/><line style="stroke:#181818;stroke-width:1.0;" x1="1851" x2="1851" y1="516.3438" y2="536.3438"/><polygon fill="#181818" points="1847,526.3438,1851,536.3438,1855,526.3438,1851,530.3438" style="stroke:#181818;stroke-width:1.0;"/><line style="stroke:#181818;stroke-width:1.0;" x1="1851" x2="1851" y1="636.043" y2="673.7422"/><polygon fill="#181818" points="1847,663.7422,1851,673.7422,1855,663.7422,1851,667.7422" style="stroke:#181818;stroke-width:1.0;"/><line style="stroke:#181818;stroke-width:1.0;" x1="1851" x2="1851" y1="763.5859" y2="783.5859"/><polygon fill="#181818" points="1847,773.5859,1851,783.5859,1855,773.5859,1851,777.5859" style="stroke:#181818;stroke-width:1.0;"/><line style="stroke:#181818;stroke-width:1.0;" x1="1851" x2="1851" y1="890.8516" y2="936.1172"/><polygon fill="#181818" points="1847,926.1172,1851,936.1172,1855,926.1172,1851,930.1172" style="stroke:#181818;stroke-width:1.0;"/><line style="stroke:#181818;stroke-width:1.0;" x1="1851" x2="1851" y1="984.0547" y2="1004.0547"/><polygon fill="#181818" points="1847,994.0547,1851,1004.0547,1855,994.0547,1851,998.0547" style="stroke:#181818;stroke-width:1.0;"/><!--MD5=[f730d9e12ec0127ac61060f4180556e1]
@startuml
!pragma layout smetana
start
note right
SNamegetSName()
end note
:return SName.storage;;
stop
end
start
note right
void drawStorage(UGraphicug,doublewidth,doubleheight,
doubleshadowing)
end note
:final URectangleshape=new URectangle(width,
height).rounded(70);;
:shape.setDeltaShadow(shadowing);;
:ug.draw(shape);;
end
start
note right
MargingetMargin()
end note
:return new Margin(10,10,10,10);;
stop
end
start
note right
TextBlockasSmall(TextBlockname,final TextBlocklabel,
final TextBlockstereotype,final SymbolContextsymbolContext,
final HorizontalAlignmentstereoAlignment)
end note
:return new AbstractTextBlock(){public void drawU(UGraphicug){final XDimension2Ddim=calculateDimension(ug.getStringBounder());ug=UGraphicStencil.create(ug,
dim);ug=symbolContext.apply(ug);drawStorage(ug,
dim.getWidth(),dim.getHeight(),symbolContext.getDeltaShadow());final Marginmargin=getMargin();final TextBlocktb=TextBlockUtils.mergeTB(stereotype,
label,HorizontalAlignment.CENTER);tb.drawU(ug.apply(new UTranslate(margin.getX1(),
margin.getY1())));}public XDimension2DcalculateDimension(StringBounderstringBounder){final XDimension2DdimLabel=label.calculateDimension(stringBounder);final XDimension2DdimStereo=stereotype.calculateDimension(stringBounder);return getMargin().addDimension(XDimension2D.mergeTB(dimStereo,dimLabel));}};;
stop
end
start
note right
TextBlockasBig(final TextBlocktitle,HorizontalAlignmentlabelAlignment,
final TextBlockstereotype,final doublewidth,
final doubleheight,final SymbolContextsymbolContext,
final HorizontalAlignmentstereoAlignment)
end note
:return new AbstractTextBlock(){public void drawU(UGraphicug){final XDimension2Ddim=calculateDimension(ug.getStringBounder());ug=symbolContext.apply(ug);drawStorage(ug,
dim.getWidth(),dim.getHeight(),symbolContext.getDeltaShadow());final XDimension2DdimStereo=stereotype.calculateDimension(ug.getStringBounder());final doubleposStereo=(width-dimStereo.getWidth())/2;stereotype.drawU(ug.apply(new UTranslate(posStereo,5)));final XDimension2DdimTitle=title.calculateDimension(ug.getStringBounder());final doubleposTitle=(width-dimTitle.getWidth())/2;title.drawU(ug.apply(new UTranslate(posTitle,7+dimStereo.getHeight())));}public XDimension2DcalculateDimension(StringBounderstringBounder){return new XDimension2D(width,height);}};;
stop
end
@enduml

PlantUML version 1.2022.7(Mon Aug 22 17:01:30 UTC 2022)
(GPL source distribution)
Java Runtime: OpenJDK Runtime Environment
JVM: OpenJDK 64-Bit Server VM
Default Encoding: UTF-8
Language: en
Country: null
--></g></svg>