<?xml version="1.0" encoding="UTF-8" standalone="no"?><svg xmlns="http://www.w3.org/2000/svg" xmlns:xlink="http://www.w3.org/1999/xlink" contentStyleType="text/css" height="1837px" preserveAspectRatio="none" style="width:657px;height:1837px;background:#FFFFFF;" version="1.1" viewBox="0 0 657 1837" width="657px" zoomAndPan="magnify"><defs/><g><path d="M234.5,10 L234.5,18.5664 L214.5,22.5664 L234.5,26.5664 L234.5,35.1328 A0,0 0 0 0 234.5,35.1328 L641.5,35.1328 A0,0 0 0 0 641.5,35.1328 L641.5,20 L631.5,10 L234.5,10 A0,0 0 0 0 234.5,10 " fill="#FEFFDD" style="stroke:#181818;stroke-width:0.5;"/><path d="M631.5,10 L631.5,20 L641.5,20 L631.5,10 " fill="#FEFFDD" style="stroke:#181818;stroke-width:0.5;"/><text fill="#000000" font-family="sans-serif" font-size="13" lengthAdjust="spacing" textLength="386" x="240.5" y="27.0669">constructor PngFlashcoder(List&lt;BufferedImage&gt;flashcodes)</text><ellipse cx="204.5" cy="22.5664" fill="#222222" rx="10" ry="10" style="stroke:#222222;stroke-width:1.0;"/><rect fill="#F1F1F1" height="33.9688" rx="12.5" ry="12.5" style="stroke:#181818;stroke-width:0.5;" width="197" x="106" y="55.1328"/><text fill="#000000" font-family="sans-serif" font-size="12" lengthAdjust="spacing" textLength="177" x="116" y="76.2715">this.flashcodes=flashcodes;</text><ellipse cx="204.5" cy="119.1016" fill="none" rx="10" ry="10" style="stroke:#222222;stroke-width:1.5;"/><line style="stroke:#222222;stroke-width:2.5;" x1="198.3128" x2="210.6872" y1="112.9144" y2="125.2887"/><line style="stroke:#222222;stroke-width:2.5;" x1="210.6872" x2="198.3128" y1="112.9144" y2="125.2887"/><path d="M234.5,139.1016 L234.5,155.2344 L214.5,159.2344 L234.5,163.2344 L234.5,179.3672 A0,0 0 0 0 234.5,179.3672 L558.5,179.3672 A0,0 0 0 0 558.5,179.3672 L558.5,149.1016 L548.5,139.1016 L234.5,139.1016 A0,0 0 0 0 234.5,139.1016 " fill="#FEFFDD" style="stroke:#181818;stroke-width:0.5;"/><path d="M548.5,139.1016 L548.5,149.1016 L558.5,149.1016 L548.5,139.1016 " fill="#FEFFDD" style="stroke:#181818;stroke-width:0.5;"/><text fill="#000000" font-family="sans-serif" font-size="13" lengthAdjust="spacing" textLength="303" x="240.5" y="156.1685">BufferedImageprocessImage(BufferedImageim,</text><text fill="#000000" font-family="sans-serif" font-size="13" lengthAdjust="spacing" textLength="113" x="240.5" y="171.3013">Colorbackground)</text><ellipse cx="204.5" cy="159.2344" fill="#222222" rx="10" ry="10" style="stroke:#222222;stroke-width:1.0;"/><rect fill="#F1F1F1" height="33.9688" rx="12.5" ry="12.5" style="stroke:#181818;stroke-width:0.5;" width="213" x="98" y="247.7695"/><text fill="#000000" font-family="sans-serif" font-size="12" lengthAdjust="spacing" textLength="193" x="108" y="268.9082">im=addImage(im,background);</text><polygon fill="#F1F1F1" points="155.5,199.3672,253.5,199.3672,265.5,211.3672,253.5,223.3672,155.5,223.3672,143.5,211.3672,155.5,199.3672" style="stroke:#181818;stroke-width:0.5;"/><text fill="#000000" font-family="sans-serif" font-size="11" lengthAdjust="spacing" textLength="20" x="208.5" y="233.5776">yes</text><text fill="#000000" font-family="sans-serif" font-size="11" lengthAdjust="spacing" textLength="94" x="155.5" y="215.1753">flashcodes!=null</text><polygon fill="#F1F1F1" points="204.5,301.7383,216.5,313.7383,204.5,325.7383,192.5,313.7383,204.5,301.7383" style="stroke:#181818;stroke-width:0.5;"/><rect fill="#F1F1F1" height="33.9688" rx="12.5" ry="12.5" style="stroke:#181818;stroke-width:0.5;" width="81" x="164" y="345.7383"/><text fill="#000000" font-family="sans-serif" font-size="12" lengthAdjust="spacing" textLength="61" x="174" y="366.877">return im;</text><ellipse cx="204.5" cy="410.707" fill="none" rx="11" ry="11" style="stroke:#222222;stroke-width:1.0;"/><ellipse cx="204.5" cy="410.707" fill="#222222" rx="6" ry="6" style="stroke:#111111;stroke-width:1.0;"/><ellipse cx="204.5" cy="441.707" fill="none" rx="10" ry="10" style="stroke:#222222;stroke-width:1.5;"/><line style="stroke:#222222;stroke-width:2.5;" x1="198.3128" x2="210.6872" y1="435.5198" y2="447.8942"/><line style="stroke:#222222;stroke-width:2.5;" x1="210.6872" x2="198.3128" y1="435.5198" y2="447.8942"/><path d="M234.5,461.707 L234.5,470.2734 L214.5,474.2734 L234.5,478.2734 L234.5,486.8398 A0,0 0 0 0 234.5,486.8398 L645.5,486.8398 A0,0 0 0 0 645.5,486.8398 L645.5,471.707 L635.5,461.707 L234.5,461.707 A0,0 0 0 0 234.5,461.707 " fill="#FEFFDD" style="stroke:#181818;stroke-width:0.5;"/><path d="M635.5,461.707 L635.5,471.707 L645.5,471.707 L635.5,461.707 " fill="#FEFFDD" style="stroke:#181818;stroke-width:0.5;"/><text fill="#000000" font-family="sans-serif" font-size="13" lengthAdjust="spacing" textLength="390" x="240.5" y="478.7739">BufferedImageaddImage(BufferedImageim,Colorbackground)</text><ellipse cx="204.5" cy="474.2734" fill="#222222" rx="10" ry="10" style="stroke:#222222;stroke-width:1.0;"/><rect fill="#F1F1F1" height="47.9375" rx="12.5" ry="12.5" style="stroke:#181818;stroke-width:0.5;" width="289" x="60" y="506.8398"/><text fill="#000000" font-family="sans-serif" font-size="12" lengthAdjust="spacing" textLength="269" x="70" y="527.9785">final doublewidth=Math.max(im.getWidth(),</text><text fill="#000000" font-family="sans-serif" font-size="12" lengthAdjust="spacing" textLength="143" x="70" y="541.9473">getWidth(flashcodes));</text><rect fill="#F1F1F1" height="33.9688" rx="12.5" ry="12.5" style="stroke:#181818;stroke-width:0.5;" width="387" x="11" y="574.7773"/><text fill="#000000" font-family="sans-serif" font-size="12" lengthAdjust="spacing" textLength="367" x="21" y="595.916">final doubleheight=im.getHeight()+getHeight(flashcodes);</text><rect fill="#F1F1F1" height="47.9375" rx="12.5" ry="12.5" style="stroke:#181818;stroke-width:0.5;" width="378" x="15.5" y="628.7461"/><text fill="#000000" font-family="sans-serif" font-size="12" lengthAdjust="spacing" textLength="358" x="25.5" y="649.8848">final BufferedImagenewIm=new BufferedImage((int)width,</text><text fill="#000000" font-family="sans-serif" font-size="12" lengthAdjust="spacing" textLength="260" x="25.5" y="663.8535">(int)height,BufferedImage.TYPE_INT_RGB);</text><rect fill="#F1F1F1" height="33.9688" rx="12.5" ry="12.5" style="stroke:#181818;stroke-width:0.5;" width="309" x="50" y="696.6836"/><text fill="#000000" font-family="sans-serif" font-size="12" lengthAdjust="spacing" textLength="289" x="60" y="717.8223">final Graphics2Dg2d=newIm.createGraphics();</text><rect fill="#F1F1F1" height="33.9688" rx="12.5" ry="12.5" style="stroke:#181818;stroke-width:0.5;" width="296" x="56.5" y="750.6523"/><text fill="#000000" font-family="sans-serif" font-size="12" lengthAdjust="spacing" textLength="276" x="66.5" y="771.791">UAntiAliasing.ANTI_ALIASING_OFF.apply(g2d);</text><rect fill="#F1F1F1" height="33.9688" rx="12.5" ry="12.5" style="stroke:#181818;stroke-width:0.5;" width="189" x="110" y="804.6211"/><text fill="#000000" font-family="sans-serif" font-size="12" lengthAdjust="spacing" textLength="169" x="120" y="825.7598">g2d.setColor(background);</text><rect fill="#F1F1F1" height="33.9688" rx="12.5" ry="12.5" style="stroke:#181818;stroke-width:0.5;" width="355" x="27" y="858.5898"/><text fill="#000000" font-family="sans-serif" font-size="12" lengthAdjust="spacing" textLength="335" x="37" y="879.7285">g2d.fillRect(0,0,newIm.getWidth(),newIm.getHeight());</text><rect fill="#F1F1F1" height="33.9688" rx="12.5" ry="12.5" style="stroke:#181818;stroke-width:0.5;" width="198" x="105.5" y="912.5586"/><text fill="#000000" font-family="sans-serif" font-size="12" lengthAdjust="spacing" textLength="178" x="115.5" y="933.6973">g2d.drawImage(im,null ,0,0);</text><rect fill="#F1F1F1" height="33.9688" rx="12.5" ry="12.5" style="stroke:#181818;stroke-width:0.5;" width="64" x="172.5" y="966.5273"/><text fill="#000000" font-family="sans-serif" font-size="12" lengthAdjust="spacing" textLength="44" x="182.5" y="987.666">intx=0;</text><rect fill="#F1F1F1" height="33.9688" rx="12.5" ry="12.5" style="stroke:#181818;stroke-width:0.5;" width="294" x="57.5" y="1020.4961"/><text fill="#000000" font-family="sans-serif" font-size="12" lengthAdjust="spacing" textLength="274" x="67.5" y="1041.6348">g2d.drawImage(f,null ,x,(int)im.getHeight());</text><rect fill="#F1F1F1" height="33.9688" rx="12.5" ry="12.5" style="stroke:#181818;stroke-width:0.5;" width="124" x="142.5" y="1074.4648"/><text fill="#000000" font-family="sans-serif" font-size="12" lengthAdjust="spacing" textLength="104" x="152.5" y="1095.6035">x+=f.getWidth();</text><rect fill="#F1F1F1" height="33.9688" rx="12.5" ry="12.5" style="stroke:#181818;stroke-width:0.5;" width="111" x="149" y="1128.4336"/><text fill="#000000" font-family="sans-serif" font-size="12" lengthAdjust="spacing" textLength="91" x="159" y="1149.5723">g2d.dispose();</text><rect fill="#F1F1F1" height="33.9688" rx="12.5" ry="12.5" style="stroke:#181818;stroke-width:0.5;" width="106" x="151.5" y="1182.4023"/><text fill="#000000" font-family="sans-serif" font-size="12" lengthAdjust="spacing" textLength="86" x="161.5" y="1203.541">return newIm;</text><ellipse cx="204.5" cy="1247.3711" fill="none" rx="11" ry="11" style="stroke:#222222;stroke-width:1.0;"/><ellipse cx="204.5" cy="1247.3711" fill="#222222" rx="6" ry="6" style="stroke:#111111;stroke-width:1.0;"/><ellipse cx="204.5" cy="1278.3711" fill="none" rx="10" ry="10" style="stroke:#222222;stroke-width:1.5;"/><line style="stroke:#222222;stroke-width:2.5;" x1="198.3128" x2="210.6872" y1="1272.1839" y2="1284.5583"/><line style="stroke:#222222;stroke-width:2.5;" x1="210.6872" x2="198.3128" y1="1272.1839" y2="1284.5583"/><path d="M234.5,1298.3711 L234.5,1306.9375 L214.5,1310.9375 L234.5,1314.9375 L234.5,1323.5039 A0,0 0 0 0 234.5,1323.5039 L550.5,1323.5039 A0,0 0 0 0 550.5,1323.5039 L550.5,1308.3711 L540.5,1298.3711 L234.5,1298.3711 A0,0 0 0 0 234.5,1298.3711 " fill="#FEFFDD" style="stroke:#181818;stroke-width:0.5;"/><path d="M540.5,1298.3711 L540.5,1308.3711 L550.5,1308.3711 L540.5,1298.3711 " fill="#FEFFDD" style="stroke:#181818;stroke-width:0.5;"/><text fill="#000000" font-family="sans-serif" font-size="13" lengthAdjust="spacing" textLength="295" x="240.5" y="1315.438">intgetHeight(List&lt;BufferedImage&gt;flashcodes)</text><ellipse cx="204.5" cy="1310.9375" fill="#222222" rx="10" ry="10" style="stroke:#222222;stroke-width:1.0;"/><rect fill="#F1F1F1" height="33.9688" rx="12.5" ry="12.5" style="stroke:#181818;stroke-width:0.5;" width="94" x="157.5" y="1343.5039"/><text fill="#000000" font-family="sans-serif" font-size="12" lengthAdjust="spacing" textLength="74" x="167.5" y="1364.6426">intresult=0;</text><rect fill="#F1F1F1" height="33.9688" rx="12.5" ry="12.5" style="stroke:#181818;stroke-width:0.5;" width="264" x="72.5" y="1397.4727"/><text fill="#000000" font-family="sans-serif" font-size="12" lengthAdjust="spacing" textLength="244" x="82.5" y="1418.6113">result=Math.max(result,im.getWidth());</text><rect fill="#F1F1F1" height="33.9688" rx="12.5" ry="12.5" style="stroke:#181818;stroke-width:0.5;" width="103" x="153" y="1451.4414"/><text fill="#000000" font-family="sans-serif" font-size="12" lengthAdjust="spacing" textLength="83" x="163" y="1472.5801">return result;</text><ellipse cx="204.5" cy="1516.4102" fill="none" rx="11" ry="11" style="stroke:#222222;stroke-width:1.0;"/><ellipse cx="204.5" cy="1516.4102" fill="#222222" rx="6" ry="6" style="stroke:#111111;stroke-width:1.0;"/><ellipse cx="204.5" cy="1547.4102" fill="none" rx="10" ry="10" style="stroke:#222222;stroke-width:1.5;"/><line style="stroke:#222222;stroke-width:2.5;" x1="198.3128" x2="210.6872" y1="1541.223" y2="1553.5973"/><line style="stroke:#222222;stroke-width:2.5;" x1="210.6872" x2="198.3128" y1="1541.223" y2="1553.5973"/><path d="M234.5,1567.4102 L234.5,1575.9766 L214.5,1579.9766 L234.5,1583.9766 L234.5,1592.543 A0,0 0 0 0 234.5,1592.543 L543.5,1592.543 A0,0 0 0 0 543.5,1592.543 L543.5,1577.4102 L533.5,1567.4102 L234.5,1567.4102 A0,0 0 0 0 234.5,1567.4102 " fill="#FEFFDD" style="stroke:#181818;stroke-width:0.5;"/><path d="M533.5,1567.4102 L533.5,1577.4102 L543.5,1577.4102 L533.5,1567.4102 " fill="#FEFFDD" style="stroke:#181818;stroke-width:0.5;"/><text fill="#000000" font-family="sans-serif" font-size="13" lengthAdjust="spacing" textLength="288" x="240.5" y="1584.4771">intgetWidth(List&lt;BufferedImage&gt;flashcodes)</text><ellipse cx="204.5" cy="1579.9766" fill="#222222" rx="10" ry="10" style="stroke:#222222;stroke-width:1.0;"/><rect fill="#F1F1F1" height="33.9688" rx="12.5" ry="12.5" style="stroke:#181818;stroke-width:0.5;" width="94" x="157.5" y="1612.543"/><text fill="#000000" font-family="sans-serif" font-size="12" lengthAdjust="spacing" textLength="74" x="167.5" y="1633.6816">intresult=0;</text><rect fill="#F1F1F1" height="33.9688" rx="12.5" ry="12.5" style="stroke:#181818;stroke-width:0.5;" width="164" x="122.5" y="1666.5117"/><text fill="#000000" font-family="sans-serif" font-size="12" lengthAdjust="spacing" textLength="144" x="132.5" y="1687.6504">result+=im.getWidth();</text><rect fill="#F1F1F1" height="33.9688" rx="12.5" ry="12.5" style="stroke:#181818;stroke-width:0.5;" width="103" x="153" y="1720.4805"/><text fill="#000000" font-family="sans-serif" font-size="12" lengthAdjust="spacing" textLength="83" x="163" y="1741.6191">return result;</text><ellipse cx="204.5" cy="1785.4492" fill="none" rx="11" ry="11" style="stroke:#222222;stroke-width:1.0;"/><ellipse cx="204.5" cy="1785.4492" fill="#222222" rx="6" ry="6" style="stroke:#111111;stroke-width:1.0;"/><ellipse cx="204.5" cy="1816.4492" fill="none" rx="10" ry="10" style="stroke:#222222;stroke-width:1.5;"/><line style="stroke:#222222;stroke-width:2.5;" x1="198.3128" x2="210.6872" y1="1810.262" y2="1822.6364"/><line style="stroke:#222222;stroke-width:2.5;" x1="210.6872" x2="198.3128" y1="1810.262" y2="1822.6364"/><line style="stroke:#181818;stroke-width:1.0;" x1="204.5" x2="204.5" y1="32.5664" y2="55.1328"/><polygon fill="#181818" points="200.5,45.1328,204.5,55.1328,208.5,45.1328,204.5,49.1328" style="stroke:#181818;stroke-width:1.0;"/><line style="stroke:#181818;stroke-width:1.0;" x1="204.5" x2="204.5" y1="89.1016" y2="109.1016"/><polygon fill="#181818" points="200.5,99.1016,204.5,109.1016,208.5,99.1016,204.5,103.1016" style="stroke:#181818;stroke-width:1.0;"/><line style="stroke:#181818;stroke-width:1.0;" x1="204.5" x2="204.5" y1="223.3672" y2="247.7695"/><polygon fill="#181818" points="200.5,237.7695,204.5,247.7695,208.5,237.7695,204.5,241.7695" style="stroke:#181818;stroke-width:1.0;"/><line style="stroke:#181818;stroke-width:1.0;" x1="265.5" x2="321" y1="211.3672" y2="211.3672"/><polygon fill="#181818" points="317,254.7539,321,264.7539,325,254.7539,321,258.7539" style="stroke:#181818;stroke-width:1.0;"/><line style="stroke:#181818;stroke-width:1.0;" x1="321" x2="321" y1="211.3672" y2="313.7383"/><line style="stroke:#181818;stroke-width:1.0;" x1="321" x2="216.5" y1="313.7383" y2="313.7383"/><polygon fill="#181818" points="226.5,309.7383,216.5,313.7383,226.5,317.7383,222.5,313.7383" style="stroke:#181818;stroke-width:1.0;"/><line style="stroke:#181818;stroke-width:1.0;" x1="204.5" x2="204.5" y1="281.7383" y2="301.7383"/><polygon fill="#181818" points="200.5,291.7383,204.5,301.7383,208.5,291.7383,204.5,295.7383" style="stroke:#181818;stroke-width:1.0;"/><line style="stroke:#181818;stroke-width:1.0;" x1="204.5" x2="204.5" y1="169.2344" y2="199.3672"/><polygon fill="#181818" points="200.5,189.3672,204.5,199.3672,208.5,189.3672,204.5,193.3672" style="stroke:#181818;stroke-width:1.0;"/><line style="stroke:#181818;stroke-width:1.0;" x1="204.5" x2="204.5" y1="325.7383" y2="345.7383"/><polygon fill="#181818" points="200.5,335.7383,204.5,345.7383,208.5,335.7383,204.5,339.7383" style="stroke:#181818;stroke-width:1.0;"/><line style="stroke:#181818;stroke-width:1.0;" x1="204.5" x2="204.5" y1="379.707" y2="399.707"/><polygon fill="#181818" points="200.5,389.707,204.5,399.707,208.5,389.707,204.5,393.707" style="stroke:#181818;stroke-width:1.0;"/><line style="stroke:#181818;stroke-width:1.0;" x1="204.5" x2="204.5" y1="484.2734" y2="506.8398"/><polygon fill="#181818" points="200.5,496.8398,204.5,506.8398,208.5,496.8398,204.5,500.8398" style="stroke:#181818;stroke-width:1.0;"/><line style="stroke:#181818;stroke-width:1.0;" x1="204.5" x2="204.5" y1="554.7773" y2="574.7773"/><polygon fill="#181818" points="200.5,564.7773,204.5,574.7773,208.5,564.7773,204.5,568.7773" style="stroke:#181818;stroke-width:1.0;"/><line style="stroke:#181818;stroke-width:1.0;" x1="204.5" x2="204.5" y1="608.7461" y2="628.7461"/><polygon fill="#181818" points="200.5,618.7461,204.5,628.7461,208.5,618.7461,204.5,622.7461" style="stroke:#181818;stroke-width:1.0;"/><line style="stroke:#181818;stroke-width:1.0;" x1="204.5" x2="204.5" y1="676.6836" y2="696.6836"/><polygon fill="#181818" points="200.5,686.6836,204.5,696.6836,208.5,686.6836,204.5,690.6836" style="stroke:#181818;stroke-width:1.0;"/><line style="stroke:#181818;stroke-width:1.0;" x1="204.5" x2="204.5" y1="730.6523" y2="750.6523"/><polygon fill="#181818" points="200.5,740.6523,204.5,750.6523,208.5,740.6523,204.5,744.6523" style="stroke:#181818;stroke-width:1.0;"/><line style="stroke:#181818;stroke-width:1.0;" x1="204.5" x2="204.5" y1="784.6211" y2="804.6211"/><polygon fill="#181818" points="200.5,794.6211,204.5,804.6211,208.5,794.6211,204.5,798.6211" style="stroke:#181818;stroke-width:1.0;"/><line style="stroke:#181818;stroke-width:1.0;" x1="204.5" x2="204.5" y1="838.5898" y2="858.5898"/><polygon fill="#181818" points="200.5,848.5898,204.5,858.5898,208.5,848.5898,204.5,852.5898" style="stroke:#181818;stroke-width:1.0;"/><line style="stroke:#181818;stroke-width:1.0;" x1="204.5" x2="204.5" y1="892.5586" y2="912.5586"/><polygon fill="#181818" points="200.5,902.5586,204.5,912.5586,208.5,902.5586,204.5,906.5586" style="stroke:#181818;stroke-width:1.0;"/><line style="stroke:#181818;stroke-width:1.0;" x1="204.5" x2="204.5" y1="946.5273" y2="966.5273"/><polygon fill="#181818" points="200.5,956.5273,204.5,966.5273,208.5,956.5273,204.5,960.5273" style="stroke:#181818;stroke-width:1.0;"/><line style="stroke:#181818;stroke-width:1.0;" x1="204.5" x2="204.5" y1="1000.4961" y2="1020.4961"/><polygon fill="#181818" points="200.5,1010.4961,204.5,1020.4961,208.5,1010.4961,204.5,1014.4961" style="stroke:#181818;stroke-width:1.0;"/><line style="stroke:#181818;stroke-width:1.0;" x1="204.5" x2="204.5" y1="1054.4648" y2="1074.4648"/><polygon fill="#181818" points="200.5,1064.4648,204.5,1074.4648,208.5,1064.4648,204.5,1068.4648" style="stroke:#181818;stroke-width:1.0;"/><line style="stroke:#181818;stroke-width:1.0;" x1="204.5" x2="204.5" y1="1108.4336" y2="1128.4336"/><polygon fill="#181818" points="200.5,1118.4336,204.5,1128.4336,208.5,1118.4336,204.5,1122.4336" style="stroke:#181818;stroke-width:1.0;"/><line style="stroke:#181818;stroke-width:1.0;" x1="204.5" x2="204.5" y1="1162.4023" y2="1182.4023"/><polygon fill="#181818" points="200.5,1172.4023,204.5,1182.4023,208.5,1172.4023,204.5,1176.4023" style="stroke:#181818;stroke-width:1.0;"/><line style="stroke:#181818;stroke-width:1.0;" x1="204.5" x2="204.5" y1="1216.3711" y2="1236.3711"/><polygon fill="#181818" points="200.5,1226.3711,204.5,1236.3711,208.5,1226.3711,204.5,1230.3711" style="stroke:#181818;stroke-width:1.0;"/><line style="stroke:#181818;stroke-width:1.0;" x1="204.5" x2="204.5" y1="1320.9375" y2="1343.5039"/><polygon fill="#181818" points="200.5,1333.5039,204.5,1343.5039,208.5,1333.5039,204.5,1337.5039" style="stroke:#181818;stroke-width:1.0;"/><line style="stroke:#181818;stroke-width:1.0;" x1="204.5" x2="204.5" y1="1377.4727" y2="1397.4727"/><polygon fill="#181818" points="200.5,1387.4727,204.5,1397.4727,208.5,1387.4727,204.5,1391.4727" style="stroke:#181818;stroke-width:1.0;"/><line style="stroke:#181818;stroke-width:1.0;" x1="204.5" x2="204.5" y1="1431.4414" y2="1451.4414"/><polygon fill="#181818" points="200.5,1441.4414,204.5,1451.4414,208.5,1441.4414,204.5,1445.4414" style="stroke:#181818;stroke-width:1.0;"/><line style="stroke:#181818;stroke-width:1.0;" x1="204.5" x2="204.5" y1="1485.4102" y2="1505.4102"/><polygon fill="#181818" points="200.5,1495.4102,204.5,1505.4102,208.5,1495.4102,204.5,1499.4102" style="stroke:#181818;stroke-width:1.0;"/><line style="stroke:#181818;stroke-width:1.0;" x1="204.5" x2="204.5" y1="1589.9766" y2="1612.543"/><polygon fill="#181818" points="200.5,1602.543,204.5,1612.543,208.5,1602.543,204.5,1606.543" style="stroke:#181818;stroke-width:1.0;"/><line style="stroke:#181818;stroke-width:1.0;" x1="204.5" x2="204.5" y1="1646.5117" y2="1666.5117"/><polygon fill="#181818" points="200.5,1656.5117,204.5,1666.5117,208.5,1656.5117,204.5,1660.5117" style="stroke:#181818;stroke-width:1.0;"/><line style="stroke:#181818;stroke-width:1.0;" x1="204.5" x2="204.5" y1="1700.4805" y2="1720.4805"/><polygon fill="#181818" points="200.5,1710.4805,204.5,1720.4805,208.5,1710.4805,204.5,1714.4805" style="stroke:#181818;stroke-width:1.0;"/><line style="stroke:#181818;stroke-width:1.0;" x1="204.5" x2="204.5" y1="1754.4492" y2="1774.4492"/><polygon fill="#181818" points="200.5,1764.4492,204.5,1774.4492,208.5,1764.4492,204.5,1768.4492" style="stroke:#181818;stroke-width:1.0;"/><!--MD5=[e72a36260d42b056378fb901cb5f48cb]
@startuml
!pragma layout smetana
start
note right
constructor PngFlashcoder(List<BufferedImage>flashcodes)
end note
:this.flashcodes=flashcodes;;
end
start
note right
BufferedImageprocessImage(BufferedImageim,
Colorbackground)
end note
if (flashcodes!=null ) then (yes) 
:im=addImage(im,background);;
endif 
:return im;;
stop
end
start
note right
BufferedImageaddImage(BufferedImageim,Colorbackground)
end note
:final doublewidth=Math.max(im.getWidth(),
getWidth(flashcodes));;
:final doubleheight=im.getHeight()+getHeight(flashcodes);;
:final BufferedImagenewIm=new BufferedImage((int)width,
(int)height,BufferedImage.TYPE_INT_RGB);;
:final Graphics2Dg2d=newIm.createGraphics();;
:UAntiAliasing.ANTI_ALIASING_OFF.apply(g2d);;
:g2d.setColor(background);;
:g2d.fillRect(0,0,newIm.getWidth(),newIm.getHeight());;
:g2d.drawImage(im,null ,0,0);;
:intx=0;;
:g2d.drawImage(f,null ,x,(int)im.getHeight());;
:x+=f.getWidth();;
:g2d.dispose();;
:return newIm;;
stop
end
start
note right
intgetHeight(List<BufferedImage>flashcodes)
end note
:intresult=0;;
:result=Math.max(result,im.getWidth());;
:return result;;
stop
end
start
note right
intgetWidth(List<BufferedImage>flashcodes)
end note
:intresult=0;;
:result+=im.getWidth();;
:return result;;
stop
end
@enduml

PlantUML version 1.2022.7(Mon Aug 22 17:01:30 UTC 2022)
(GPL source distribution)
Java Runtime: OpenJDK Runtime Environment
JVM: OpenJDK 64-Bit Server VM
Default Encoding: UTF-8
Language: en
Country: null
--></g></svg>