<?xml version="1.0" encoding="UTF-8" standalone="no"?><svg xmlns="http://www.w3.org/2000/svg" xmlns:xlink="http://www.w3.org/1999/xlink" contentStyleType="text/css" height="220px" preserveAspectRatio="none" style="width:515px;height:220px;background:#FFFFFF;" version="1.1" viewBox="0 0 515 220" width="515px" zoomAndPan="magnify"><defs/><g><!--MD5=[aa8f7b917213fcc1c2766e2d59b49067]
cluster java.lang--><g id="cluster_java.lang"><path d="M212.5,6 L282.5,6 A3.75,3.75 0 0 1 285,8.5 L292,28.2969 L301.5,28.2969 A2.5,2.5 0 0 1 304,30.7969 L304,86.5 A2.5,2.5 0 0 1 301.5,89 L212.5,89 A2.5,2.5 0 0 1 210,86.5 L210,8.5 A2.5,2.5 0 0 1 212.5,6 " fill="none" style="stroke:#000000;stroke-width:1.5;"/><line style="stroke:#000000;stroke-width:1.5;" x1="210" x2="292" y1="28.2969" y2="28.2969"/><text fill="#000000" font-family="sans-serif" font-size="14" font-weight="bold" lengthAdjust="spacing" textLength="69" x="214" y="20.9951">java.lang</text></g><!--MD5=[09b801f85bd539df8d6ff1e4bb9df266]
cluster net.sourceforge.plantuml.png--><g id="cluster_net.sourceforge.plantuml.png"><path d="M8.5,97 L245.5,97 A3.75,3.75 0 0 1 248,99.5 L255,119.2969 L505.5,119.2969 A2.5,2.5 0 0 1 508,121.7969 L508,210.5 A2.5,2.5 0 0 1 505.5,213 L8.5,213 A2.5,2.5 0 0 1 6,210.5 L6,99.5 A2.5,2.5 0 0 1 8.5,97 " fill="none" style="stroke:#000000;stroke-width:1.5;"/><line style="stroke:#000000;stroke-width:1.5;" x1="6" x2="255" y1="119.2969" y2="119.2969"/><text fill="#000000" font-family="sans-serif" font-size="14" font-weight="bold" lengthAdjust="spacing" textLength="236" x="10" y="111.9951">net.sourceforge.plantuml.png</text></g><!--MD5=[274ad5661286b626a93603d287cbf95a]
class java.lang.Object--><g id="elem_java.lang.Object"><rect fill="#F1F1F1" height="48" id="java.lang.Object" rx="2.5" ry="2.5" style="stroke:#181818;stroke-width:0.5;" width="77" x="218.5" y="33"/><ellipse cx="233.5" cy="49" fill="#ADD1B2" rx="11" ry="11" style="stroke:#181818;stroke-width:1.0;"/><path d="M236.4688,54.6406 Q235.8906,54.9375 235.25,55.0781 Q234.6094,55.2344 233.9063,55.2344 Q231.4063,55.2344 230.0781,53.5938 Q228.7656,51.9375 228.7656,48.8125 Q228.7656,45.6875 230.0781,44.0313 Q231.4063,42.375 233.9063,42.375 Q234.6094,42.375 235.25,42.5313 Q235.9063,42.6875 236.4688,42.9844 L236.4688,45.7031 Q235.8438,45.125 235.25,44.8594 Q234.6563,44.5781 234.0313,44.5781 Q232.6875,44.5781 232,45.6563 Q231.3125,46.7188 231.3125,48.8125 Q231.3125,50.9063 232,51.9844 Q232.6875,53.0469 234.0313,53.0469 Q234.6563,53.0469 235.25,52.7813 Q235.8438,52.5 236.4688,51.9219 L236.4688,54.6406 Z " fill="#000000"/><text fill="#000000" font-family="sans-serif" font-size="14" lengthAdjust="spacing" textLength="45" x="247.5" y="53.8467">Object</text><line style="stroke:#181818;stroke-width:0.5;" x1="219.5" x2="294.5" y1="65" y2="65"/><line style="stroke:#181818;stroke-width:0.5;" x1="219.5" x2="294.5" y1="73" y2="73"/></g><!--MD5=[f7b4a7223de68cc10cf3ee5010e51057]
class net.sourceforge.plantuml.png.PngSplitter--><g id="elem_net.sourceforge.plantuml.png.PngSplitter"><rect codeLine="3" fill="#F1F1F1" height="80.5938" id="net.sourceforge.plantuml.png.PngSplitter" rx="2.5" ry="2.5" style="stroke:#181818;stroke-width:0.5;" width="486" x="14" y="124"/><ellipse cx="215.25" cy="140" fill="#ADD1B2" rx="11" ry="11" style="stroke:#181818;stroke-width:1.0;"/><path d="M218.2188,145.6406 Q217.6406,145.9375 217,146.0781 Q216.3594,146.2344 215.6563,146.2344 Q213.1563,146.2344 211.8281,144.5938 Q210.5156,142.9375 210.5156,139.8125 Q210.5156,136.6875 211.8281,135.0313 Q213.1563,133.375 215.6563,133.375 Q216.3594,133.375 217,133.5313 Q217.6563,133.6875 218.2188,133.9844 L218.2188,136.7031 Q217.5938,136.125 217,135.8594 Q216.4063,135.5781 215.7813,135.5781 Q214.4375,135.5781 213.75,136.6563 Q213.0625,137.7188 213.0625,139.8125 Q213.0625,141.9063 213.75,142.9844 Q214.4375,144.0469 215.7813,144.0469 Q216.4063,144.0469 217,143.7813 Q217.5938,143.5 218.2188,142.9219 L218.2188,145.6406 Z " fill="#000000"/><text fill="#000000" font-family="sans-serif" font-size="14" lengthAdjust="spacing" textLength="75" x="235.75" y="144.8467">PngSplitter</text><line style="stroke:#181818;stroke-width:0.5;" x1="15" x2="499" y1="156" y2="156"/><line style="stroke:#181818;stroke-width:0.5;" x1="15" x2="499" y1="164" y2="164"/><a href="./../../../../../.././qc/src/net/sourceforge/plantuml/png/PngSplitter.java.html#55" target="_top" title="./../../../../../.././qc/src/net/sourceforge/plantuml/png/PngSplitter.java.html#55" xlink:actuate="onRequest" xlink:href="./../../../../../.././qc/src/net/sourceforge/plantuml/png/PngSplitter.java.html#55" xlink:show="new" xlink:title="./../../../../../.././qc/src/net/sourceforge/plantuml/png/PngSplitter.java.html#55" xlink:type="simple"><rect fill="#F1F1F1" height="10" style="stroke:none;stroke-width:1.0;" width="20" x="20" y="172.6484"/><ellipse cx="25" cy="177.6484" fill="#84BE84" rx="3" ry="3" style="stroke:#038048;stroke-width:1.0;"/></a><a href="./../../../../../.././qc/src/net/sourceforge/plantuml/png/PngSplitter.java.html#55" target="_top" title="./../../../../../.././qc/src/net/sourceforge/plantuml/png/PngSplitter.java.html#55" xlink:actuate="onRequest" xlink:href="./../../../../../.././qc/src/net/sourceforge/plantuml/png/PngSplitter.java.html#55" xlink:show="new" xlink:title="./../../../../../.././qc/src/net/sourceforge/plantuml/png/PngSplitter.java.html#55" xlink:type="simple"><text fill="#000000" font-family="sans-serif" font-size="14" lengthAdjust="spacing" textLength="460" x="34" y="180.9951">PngSplitter(SuggestedFile;int;int;String;int;SplitParam) : PngSplitter</text></a><a href="./../../../../../.././qc/src/net/sourceforge/plantuml/png/PngSplitter.java.html#118" target="_top" title="./../../../../../.././qc/src/net/sourceforge/plantuml/png/PngSplitter.java.html#118" xlink:actuate="onRequest" xlink:href="./../../../../../.././qc/src/net/sourceforge/plantuml/png/PngSplitter.java.html#118" xlink:show="new" xlink:title="./../../../../../.././qc/src/net/sourceforge/plantuml/png/PngSplitter.java.html#118" xlink:type="simple"><rect fill="#F1F1F1" height="10" style="stroke:none;stroke-width:1.0;" width="20" x="20" y="188.9453"/><ellipse cx="25" cy="193.9453" fill="#84BE84" rx="3" ry="3" style="stroke:#038048;stroke-width:1.0;"/></a><a href="./../../../../../.././qc/src/net/sourceforge/plantuml/png/PngSplitter.java.html#118" target="_top" title="./../../../../../.././qc/src/net/sourceforge/plantuml/png/PngSplitter.java.html#118" xlink:actuate="onRequest" xlink:href="./../../../../../.././qc/src/net/sourceforge/plantuml/png/PngSplitter.java.html#118" xlink:show="new" xlink:title="./../../../../../.././qc/src/net/sourceforge/plantuml/png/PngSplitter.java.html#118" xlink:type="simple"><text fill="#000000" font-family="sans-serif" font-size="14" lengthAdjust="spacing" textLength="156" x="34" y="197.292">getFiles() : List&lt;SFile&gt;</text></a></g><path d="M257,81.1524 C257,93.6475 257,109.4184 257,123.8064 " fill="none" style="stroke:#181818;stroke-width:1.0;"/><polygon fill="#FFFFFF" points="257,81.1524,251,97.1524,263,97.1524,257,81.1524" style="stroke:#181818;stroke-width:1.0;"/><!--MD5=[326675c16b274a3c954043a6ca9480eb]
@startuml
!pragma layout smetana
"java.lang.Object" <|- - "net.sourceforge.plantuml.png.PngSplitter"
class net.sourceforge.plantuml.png.PngSplitter {
+PngSplitter(SuggestedFile;int;int;String;int;SplitParam) : PngSplitter [[[./../../../../../.././qc/src/net/sourceforge/plantuml/png/PngSplitter.java.html#55]]]
+getFiles() : List<SFile> [[[./../../../../../.././qc/src/net/sourceforge/plantuml/png/PngSplitter.java.html#118]]]
} 
@enduml

PlantUML version 1.2022.7(Mon Aug 22 17:01:30 UTC 2022)
(GPL source distribution)
Java Runtime: OpenJDK Runtime Environment
JVM: OpenJDK 64-Bit Server VM
Default Encoding: UTF-8
Language: en
Country: null
--></g></svg>