<?xml version="1.0" encoding="UTF-8" standalone="no"?><svg xmlns="http://www.w3.org/2000/svg" xmlns:xlink="http://www.w3.org/1999/xlink" contentStyleType="text/css" height="2436px" preserveAspectRatio="none" style="width:740px;height:2436px;background:#FFFFFF;" version="1.1" viewBox="0 0 740 2436" width="740px" zoomAndPan="magnify"><defs/><g><path d="M363.5,10 L363.5,33.6992 L343.5,37.6992 L363.5,41.6992 L363.5,65.3984 A0,0 0 0 0 363.5,65.3984 L728.5,65.3984 A0,0 0 0 0 728.5,65.3984 L728.5,20 L718.5,10 L363.5,10 A0,0 0 0 0 363.5,10 " fill="#FEFFDD" style="stroke:#181818;stroke-width:0.5;"/><path d="M718.5,10 L718.5,20 L728.5,20 L718.5,10 " fill="#FEFFDD" style="stroke:#181818;stroke-width:0.5;"/><text fill="#000000" font-family="sans-serif" font-size="13" lengthAdjust="spacing" textLength="295" x="369.5" y="27.0669">constructor PngSplitter(SuggestedFile pngFile,</text><text fill="#000000" font-family="sans-serif" font-size="13" lengthAdjust="spacing" textLength="344" x="369.5" y="42.1997">int horizontalPages,int verticalPages,String metadata,</text><text fill="#000000" font-family="sans-serif" font-size="13" lengthAdjust="spacing" textLength="190" x="369.5" y="57.3325">int dpi,SplitParam splitParam)</text><ellipse cx="333.5" cy="37.6992" fill="#222222" rx="10" ry="10" style="stroke:#222222;stroke-width:1.0;"/><rect fill="#F1F1F1" height="33.9688" rx="12.5" ry="12.5" style="stroke:#181818;stroke-width:0.5;" width="223" x="222" y="133.8008"/><text fill="#000000" font-family="sans-serif" font-size="12" lengthAdjust="spacing" textLength="203" x="232" y="154.9395">this.files.add(pngFile.getFile(0));</text><rect fill="#F1F1F1" height="33.9688" rx="12.5" ry="12.5" style="stroke:#181818;stroke-width:0.5;" width="67" x="300" y="187.7695"/><text fill="#000000" font-family="sans-serif" font-size="12" lengthAdjust="spacing" textLength="47" x="310" y="208.9082">return ;</text><ellipse cx="333.5" cy="252.7383" fill="none" rx="11" ry="11" style="stroke:#222222;stroke-width:1.0;"/><ellipse cx="333.5" cy="252.7383" fill="#222222" rx="6" ry="6" style="stroke:#111111;stroke-width:1.0;"/><polygon fill="#F1F1F1" points="215.5,85.3984,451.5,85.3984,463.5,97.3984,451.5,109.3984,215.5,109.3984,203.5,97.3984,215.5,85.3984" style="stroke:#181818;stroke-width:0.5;"/><text fill="#000000" font-family="sans-serif" font-size="11" lengthAdjust="spacing" textLength="20" x="337.5" y="119.6089">yes</text><text fill="#000000" font-family="sans-serif" font-size="11" lengthAdjust="spacing" textLength="236" x="215.5" y="101.2065">horizontalPages==1&amp;&amp;verticalPages==1</text><rect fill="#F1F1F1" height="47.9375" rx="12.5" ry="12.5" style="stroke:#181818;stroke-width:0.5;" width="293" x="187" y="305.7383"/><text fill="#000000" font-family="sans-serif" font-size="12" lengthAdjust="spacing" textLength="273" x="197" y="326.877">Log.info("Splitting "+horizontalPages+" x "+</text><text fill="#000000" font-family="sans-serif" font-size="12" lengthAdjust="spacing" textLength="93" x="197" y="340.8457">verticalPages);</text><rect fill="#F1F1F1" height="33.9688" rx="12.5" ry="12.5" style="stroke:#181818;stroke-width:0.5;" width="242" x="212.5" y="373.6758"/><text fill="#000000" font-family="sans-serif" font-size="12" lengthAdjust="spacing" textLength="222" x="222.5" y="394.8145">final SFile full=pngFile.getTmpFile();</text><rect fill="#F1F1F1" height="33.9688" rx="12.5" ry="12.5" style="stroke:#181818;stroke-width:0.5;" width="96" x="285.5" y="427.6445"/><text fill="#000000" font-family="sans-serif" font-size="12" lengthAdjust="spacing" textLength="76" x="295.5" y="448.7832">full.delete();</text><rect fill="#F1F1F1" height="33.9688" rx="12.5" ry="12.5" style="stroke:#181818;stroke-width:0.5;" width="338" x="164.5" y="481.6133"/><text fill="#000000" font-family="sans-serif" font-size="12" lengthAdjust="spacing" textLength="318" x="174.5" y="502.752">final boolean ok=pngFile.getFile(0).renameTo(full);</text><rect fill="#F1F1F1" height="33.9688" rx="12.5" ry="12.5" style="stroke:#181818;stroke-width:0.5;" width="282" x="192.5" y="583.9844"/><text fill="#000000" font-family="sans-serif" font-size="12" lengthAdjust="spacing" textLength="262" x="202.5" y="605.123">throw new IOException("Cannot rename");</text><ellipse cx="333.5" cy="657.4688" fill="none" rx="11" ry="11" style="stroke:#222222;stroke-width:1.0;"/><ellipse cx="333.5" cy="657.4688" fill="#222222" rx="6" ry="6" style="stroke:#111111;stroke-width:1.0;"/><polygon fill="#F1F1F1" points="304,535.582,363,535.582,375,547.582,363,559.582,304,559.582,292,547.582,304,535.582" style="stroke:#181818;stroke-width:0.5;"/><text fill="#000000" font-family="sans-serif" font-size="11" lengthAdjust="spacing" textLength="20" x="337.5" y="569.7925">yes</text><text fill="#000000" font-family="sans-serif" font-size="11" lengthAdjust="spacing" textLength="59" x="304" y="551.3901">ok==false</text><rect fill="#F1F1F1" height="33.9688" rx="12.5" ry="12.5" style="stroke:#181818;stroke-width:0.5;" width="292" x="187.5" y="710.4688"/><text fill="#000000" font-family="sans-serif" font-size="12" lengthAdjust="spacing" textLength="272" x="197.5" y="731.6074">final BufferedImage im=SImageIO.read(full);</text><rect fill="#F1F1F1" height="47.9375" rx="12.5" ry="12.5" style="stroke:#181818;stroke-width:0.5;" width="463" x="102" y="764.4375"/><text fill="#000000" font-family="sans-serif" font-size="12" lengthAdjust="spacing" textLength="443" x="112" y="785.5762">final PngSegment horizontalSegment=new PngSegment(im.getWidth(),</text><text fill="#000000" font-family="sans-serif" font-size="12" lengthAdjust="spacing" textLength="109" x="112" y="799.5449">horizontalPages);</text><rect fill="#F1F1F1" height="47.9375" rx="12.5" ry="12.5" style="stroke:#181818;stroke-width:0.5;" width="453" x="107" y="832.375"/><text fill="#000000" font-family="sans-serif" font-size="12" lengthAdjust="spacing" textLength="433" x="117" y="853.5137">final PngSegment verticalSegment=new PngSegment(im.getHeight(),</text><text fill="#000000" font-family="sans-serif" font-size="12" lengthAdjust="spacing" textLength="93" x="117" y="867.4824">verticalPages);</text><rect fill="#F1F1F1" height="33.9688" rx="12.5" ry="12.5" style="stroke:#181818;stroke-width:0.5;" width="68" x="299.5" y="900.3125"/><text fill="#000000" font-family="sans-serif" font-size="12" lengthAdjust="spacing" textLength="48" x="309.5" y="921.4512">int x=0;</text><rect fill="#F1F1F1" height="33.9688" rx="12.5" ry="12.5" style="stroke:#181818;stroke-width:0.5;" width="228" x="219.5" y="954.2813"/><text fill="#000000" font-family="sans-serif" font-size="12" lengthAdjust="spacing" textLength="208" x="229.5" y="975.4199">final SFile f=pngFile.getFile(x++);</text><rect fill="#F1F1F1" height="33.9688" rx="12.5" ry="12.5" style="stroke:#181818;stroke-width:0.5;" width="118" x="274.5" y="1008.25"/><text fill="#000000" font-family="sans-serif" font-size="12" lengthAdjust="spacing" textLength="98" x="284.5" y="1029.3887">this.files.add(f);</text><rect fill="#F1F1F1" height="33.9688" rx="12.5" ry="12.5" style="stroke:#181818;stroke-width:0.5;" width="294" x="186.5" y="1062.2188"/><text fill="#000000" font-family="sans-serif" font-size="12" lengthAdjust="spacing" textLength="274" x="196.5" y="1083.3574">final int width=horizontalSegment.getLen(i);</text><rect fill="#F1F1F1" height="33.9688" rx="12.5" ry="12.5" style="stroke:#181818;stroke-width:0.5;" width="285" x="191" y="1116.1875"/><text fill="#000000" font-family="sans-serif" font-size="12" lengthAdjust="spacing" textLength="265" x="201" y="1137.3262">final int height=verticalSegment.getLen(j);</text><rect fill="#F1F1F1" height="47.9375" rx="12.5" ry="12.5" style="stroke:#181818;stroke-width:0.5;" width="455" x="106" y="1170.1563"/><text fill="#000000" font-family="sans-serif" font-size="12" lengthAdjust="spacing" textLength="435" x="116" y="1191.2949">BufferedImage piece=im.getSubimage(horizontalSegment.getStart(i),</text><text fill="#000000" font-family="sans-serif" font-size="12" lengthAdjust="spacing" textLength="260" x="116" y="1205.2637">verticalSegment.getStart(j),width,height);</text><rect fill="#F1F1F1" height="61.9063" rx="12.5" ry="12.5" style="stroke:#181818;stroke-width:0.5;" width="494" x="86.5" y="1286.4961"/><text fill="#000000" font-family="sans-serif" font-size="12" lengthAdjust="spacing" textLength="340" x="96.5" y="1307.6348">BufferedImage withMargin=new BufferedImage(width+</text><text fill="#000000" font-family="sans-serif" font-size="12" lengthAdjust="spacing" textLength="474" x="96.5" y="1321.6035">2*splitParam.getExternalMargin(),height+2*splitParam.getExternalMargin(),</text><text fill="#000000" font-family="sans-serif" font-size="12" lengthAdjust="spacing" textLength="198" x="96.5" y="1335.5723">BufferedImage.TYPE_INT_ARGB);</text><rect fill="#F1F1F1" height="33.9688" rx="12.5" ry="12.5" style="stroke:#181818;stroke-width:0.5;" width="341" x="163" y="1368.4023"/><text fill="#000000" font-family="sans-serif" font-size="12" lengthAdjust="spacing" textLength="321" x="173" y="1389.541">final Graphics2D g2d=withMargin.createGraphics();</text><rect fill="#F1F1F1" height="33.9688" rx="12.5" ry="12.5" style="stroke:#181818;stroke-width:0.5;" width="298" x="184.5" y="1470.7734"/><text fill="#000000" font-family="sans-serif" font-size="12" lengthAdjust="spacing" textLength="278" x="194.5" y="1491.9121">g2d.setColor(splitParam.getExternalColor());</text><rect fill="#F1F1F1" height="33.9688" rx="12.5" ry="12.5" style="stroke:#181818;stroke-width:0.5;" width="411" x="128" y="1539.7422"/><text fill="#000000" font-family="sans-serif" font-size="12" lengthAdjust="spacing" textLength="391" x="138" y="1560.8809">g2d.fillRect(0,0,withMargin.getWidth(),withMargin.getHeight());</text><polygon fill="#F1F1F1" points="232,1422.3711,435,1422.3711,447,1434.3711,435,1446.3711,232,1446.3711,220,1434.3711,232,1422.3711" style="stroke:#181818;stroke-width:0.5;"/><text fill="#000000" font-family="sans-serif" font-size="11" lengthAdjust="spacing" textLength="20" x="337.5" y="1456.5815">yes</text><text fill="#000000" font-family="sans-serif" font-size="11" lengthAdjust="spacing" textLength="199" x="232" y="1438.1792">splitParam.getExternalColor()!=null</text><polygon fill="#F1F1F1" points="333.5,1593.7109,345.5,1605.7109,333.5,1617.7109,321.5,1605.7109,333.5,1593.7109" style="stroke:#181818;stroke-width:0.5;"/><rect fill="#F1F1F1" height="47.9375" rx="12.5" ry="12.5" style="stroke:#181818;stroke-width:0.5;" width="357" x="155" y="1637.7109"/><text fill="#000000" font-family="sans-serif" font-size="12" lengthAdjust="spacing" textLength="337" x="165" y="1658.8496">g2d.drawImage(piece,splitParam.getExternalMargin(),</text><text fill="#000000" font-family="sans-serif" font-size="12" lengthAdjust="spacing" textLength="233" x="165" y="1672.8184">splitParam.getExternalMargin(),null );</text><rect fill="#F1F1F1" height="33.9688" rx="12.5" ry="12.5" style="stroke:#181818;stroke-width:0.5;" width="289" x="189" y="1754.0508"/><text fill="#000000" font-family="sans-serif" font-size="12" lengthAdjust="spacing" textLength="269" x="199" y="1775.1895">g2d.setColor(splitParam.getBorderColor());</text><rect fill="#F1F1F1" height="47.9375" rx="12.5" ry="12.5" style="stroke:#181818;stroke-width:0.5;" width="645" x="11" y="1818.5352"/><text fill="#000000" font-family="sans-serif" font-size="12" lengthAdjust="spacing" textLength="625" x="21" y="1839.6738">g2d.drawRect(splitParam.getExternalMargin()-1,splitParam.getExternalMargin()-1,piece.getWidth()+</text><text fill="#000000" font-family="sans-serif" font-size="12" lengthAdjust="spacing" textLength="149" x="21" y="1853.6426">1,piece.getHeight()+1);</text><polygon fill="#F1F1F1" points="235.5,1705.6484,431.5,1705.6484,443.5,1717.6484,431.5,1729.6484,235.5,1729.6484,223.5,1717.6484,235.5,1705.6484" style="stroke:#181818;stroke-width:0.5;"/><text fill="#000000" font-family="sans-serif" font-size="11" lengthAdjust="spacing" textLength="20" x="337.5" y="1739.8589">yes</text><text fill="#000000" font-family="sans-serif" font-size="11" lengthAdjust="spacing" textLength="192" x="235.5" y="1721.4565">splitParam.getBorderColor()!=null</text><polygon fill="#F1F1F1" points="333.5,1886.4727,345.5,1898.4727,333.5,1910.4727,321.5,1898.4727,333.5,1886.4727" style="stroke:#181818;stroke-width:0.5;"/><rect fill="#F1F1F1" height="33.9688" rx="12.5" ry="12.5" style="stroke:#181818;stroke-width:0.5;" width="135" x="266" y="1930.4727"/><text fill="#000000" font-family="sans-serif" font-size="12" lengthAdjust="spacing" textLength="115" x="276" y="1951.6113">piece=withMargin;</text><rect fill="#F1F1F1" height="33.9688" rx="12.5" ry="12.5" style="stroke:#181818;stroke-width:0.5;" width="111" x="278" y="1984.4414"/><text fill="#000000" font-family="sans-serif" font-size="12" lengthAdjust="spacing" textLength="91" x="288" y="2005.5801">g2d.dispose();</text><polygon fill="#F1F1F1" points="282.5,1238.0938,384.5,1238.0938,396.5,1250.0938,384.5,1262.0938,282.5,1262.0938,270.5,1250.0938,282.5,1238.0938" style="stroke:#181818;stroke-width:0.5;"/><text fill="#000000" font-family="sans-serif" font-size="11" lengthAdjust="spacing" textLength="20" x="337.5" y="1272.3042">yes</text><text fill="#000000" font-family="sans-serif" font-size="11" lengthAdjust="spacing" textLength="102" x="282.5" y="1253.9019">splitParam.isSet()</text><polygon fill="#F1F1F1" points="333.5,2038.4102,345.5,2050.4102,333.5,2062.4102,321.5,2050.4102,333.5,2038.4102" style="stroke:#181818;stroke-width:0.5;"/><rect fill="#F1F1F1" height="33.9688" rx="12.5" ry="12.5" style="stroke:#181818;stroke-width:0.5;" width="234" x="216.5" y="2082.4102"/><text fill="#000000" font-family="sans-serif" font-size="12" lengthAdjust="spacing" textLength="214" x="226.5" y="2103.5488">PngIO.write(piece,f,metadata,dpi);</text><rect fill="#F1F1F1" height="33.9688" rx="12.5" ry="12.5" style="stroke:#181818;stroke-width:0.5;" width="96" x="285.5" y="2136.3789"/><text fill="#000000" font-family="sans-serif" font-size="12" lengthAdjust="spacing" textLength="76" x="295.5" y="2157.5176">full.delete();</text><rect fill="#F1F1F1" height="33.9688" rx="12.5" ry="12.5" style="stroke:#181818;stroke-width:0.5;" width="187" x="240" y="2190.3477"/><text fill="#000000" font-family="sans-serif" font-size="12" lengthAdjust="spacing" textLength="167" x="250" y="2211.4863">Log.info("End of splitting");</text><ellipse cx="333.5" cy="2254.3164" fill="none" rx="10" ry="10" style="stroke:#222222;stroke-width:1.5;"/><line style="stroke:#222222;stroke-width:2.5;" x1="327.3128" x2="339.6872" y1="2248.1292" y2="2260.5036"/><line style="stroke:#222222;stroke-width:2.5;" x1="339.6872" x2="327.3128" y1="2248.1292" y2="2260.5036"/><path d="M363.5,2274.3164 L363.5,2282.8828 L343.5,2286.8828 L363.5,2290.8828 L363.5,2299.4492 A0,0 0 0 0 363.5,2299.4492 L521.5,2299.4492 A0,0 0 0 0 521.5,2299.4492 L521.5,2284.3164 L511.5,2274.3164 L363.5,2274.3164 A0,0 0 0 0 363.5,2274.3164 " fill="#FEFFDD" style="stroke:#181818;stroke-width:0.5;"/><path d="M511.5,2274.3164 L511.5,2284.3164 L521.5,2284.3164 L511.5,2274.3164 " fill="#FEFFDD" style="stroke:#181818;stroke-width:0.5;"/><text fill="#000000" font-family="sans-serif" font-size="13" lengthAdjust="spacing" textLength="137" x="369.5" y="2291.3833">List&lt;SFile&gt; getFiles()</text><ellipse cx="333.5" cy="2286.8828" fill="#222222" rx="10" ry="10" style="stroke:#222222;stroke-width:1.0;"/><rect fill="#F1F1F1" height="33.9688" rx="12.5" ry="12.5" style="stroke:#181818;stroke-width:0.5;" width="275" x="196" y="2319.4492"/><text fill="#000000" font-family="sans-serif" font-size="12" lengthAdjust="spacing" textLength="255" x="206" y="2340.5879">return Collections.unmodifiableList(files);</text><ellipse cx="333.5" cy="2384.418" fill="none" rx="11" ry="11" style="stroke:#222222;stroke-width:1.0;"/><ellipse cx="333.5" cy="2384.418" fill="#222222" rx="6" ry="6" style="stroke:#111111;stroke-width:1.0;"/><ellipse cx="333.5" cy="2415.418" fill="none" rx="10" ry="10" style="stroke:#222222;stroke-width:1.5;"/><line style="stroke:#222222;stroke-width:2.5;" x1="327.3128" x2="339.6872" y1="2409.2308" y2="2421.6052"/><line style="stroke:#222222;stroke-width:2.5;" x1="339.6872" x2="327.3128" y1="2409.2308" y2="2421.6052"/><line style="stroke:#181818;stroke-width:1.0;" x1="333.5" x2="333.5" y1="167.7695" y2="187.7695"/><polygon fill="#181818" points="329.5,177.7695,333.5,187.7695,337.5,177.7695,333.5,181.7695" style="stroke:#181818;stroke-width:1.0;"/><line style="stroke:#181818;stroke-width:1.0;" x1="333.5" x2="333.5" y1="221.7383" y2="241.7383"/><polygon fill="#181818" points="329.5,231.7383,333.5,241.7383,337.5,231.7383,333.5,235.7383" style="stroke:#181818;stroke-width:1.0;"/><line style="stroke:#181818;stroke-width:1.0;" x1="333.5" x2="333.5" y1="109.3984" y2="133.8008"/><polygon fill="#181818" points="329.5,123.8008,333.5,133.8008,337.5,123.8008,333.5,127.8008" style="stroke:#181818;stroke-width:1.0;"/><line style="stroke:#181818;stroke-width:1.0;" x1="463.5" x2="475.5" y1="97.3984" y2="97.3984"/><polygon fill="#181818" points="471.5,185.7695,475.5,195.7695,479.5,185.7695,475.5,189.7695" style="stroke:#181818;stroke-width:1.0;"/><line style="stroke:#181818;stroke-width:1.0;" x1="475.5" x2="475.5" y1="97.3984" y2="285.7383"/><line style="stroke:#181818;stroke-width:1.0;" x1="475.5" x2="333.5" y1="285.7383" y2="285.7383"/><line style="stroke:#181818;stroke-width:1.0;" x1="333.5" x2="333.5" y1="285.7383" y2="305.7383"/><polygon fill="#181818" points="329.5,295.7383,333.5,305.7383,337.5,295.7383,333.5,299.7383" style="stroke:#181818;stroke-width:1.0;"/><line style="stroke:#181818;stroke-width:1.0;" x1="333.5" x2="333.5" y1="47.6992" y2="85.3984"/><polygon fill="#181818" points="329.5,75.3984,333.5,85.3984,337.5,75.3984,333.5,79.3984" style="stroke:#181818;stroke-width:1.0;"/><line style="stroke:#181818;stroke-width:1.0;" x1="333.5" x2="333.5" y1="353.6758" y2="373.6758"/><polygon fill="#181818" points="329.5,363.6758,333.5,373.6758,337.5,363.6758,333.5,367.6758" style="stroke:#181818;stroke-width:1.0;"/><line style="stroke:#181818;stroke-width:1.0;" x1="333.5" x2="333.5" y1="407.6445" y2="427.6445"/><polygon fill="#181818" points="329.5,417.6445,333.5,427.6445,337.5,417.6445,333.5,421.6445" style="stroke:#181818;stroke-width:1.0;"/><line style="stroke:#181818;stroke-width:1.0;" x1="333.5" x2="333.5" y1="461.6133" y2="481.6133"/><polygon fill="#181818" points="329.5,471.6133,333.5,481.6133,337.5,471.6133,333.5,475.6133" style="stroke:#181818;stroke-width:1.0;"/><line style="stroke:#181818;stroke-width:1.0;" x1="333.5" x2="333.5" y1="617.9531" y2="646.4688"/><polygon fill="#181818" points="329.5,636.4688,333.5,646.4688,337.5,636.4688,333.5,640.4688" style="stroke:#181818;stroke-width:1.0;"/><line style="stroke:#181818;stroke-width:1.0;" x1="333.5" x2="333.5" y1="559.582" y2="583.9844"/><polygon fill="#181818" points="329.5,573.9844,333.5,583.9844,337.5,573.9844,333.5,577.9844" style="stroke:#181818;stroke-width:1.0;"/><line style="stroke:#181818;stroke-width:1.0;" x1="375" x2="484.5" y1="547.582" y2="547.582"/><polygon fill="#181818" points="480.5,616.4688,484.5,626.4688,488.5,616.4688,484.5,620.4688" style="stroke:#181818;stroke-width:1.0;"/><line style="stroke:#181818;stroke-width:1.0;" x1="484.5" x2="484.5" y1="547.582" y2="690.4688"/><line style="stroke:#181818;stroke-width:1.0;" x1="484.5" x2="333.5" y1="690.4688" y2="690.4688"/><line style="stroke:#181818;stroke-width:1.0;" x1="333.5" x2="333.5" y1="690.4688" y2="710.4688"/><polygon fill="#181818" points="329.5,700.4688,333.5,710.4688,337.5,700.4688,333.5,704.4688" style="stroke:#181818;stroke-width:1.0;"/><line style="stroke:#181818;stroke-width:1.0;" x1="333.5" x2="333.5" y1="515.582" y2="535.582"/><polygon fill="#181818" points="329.5,525.582,333.5,535.582,337.5,525.582,333.5,529.582" style="stroke:#181818;stroke-width:1.0;"/><line style="stroke:#181818;stroke-width:1.0;" x1="333.5" x2="333.5" y1="744.4375" y2="764.4375"/><polygon fill="#181818" points="329.5,754.4375,333.5,764.4375,337.5,754.4375,333.5,758.4375" style="stroke:#181818;stroke-width:1.0;"/><line style="stroke:#181818;stroke-width:1.0;" x1="333.5" x2="333.5" y1="812.375" y2="832.375"/><polygon fill="#181818" points="329.5,822.375,333.5,832.375,337.5,822.375,333.5,826.375" style="stroke:#181818;stroke-width:1.0;"/><line style="stroke:#181818;stroke-width:1.0;" x1="333.5" x2="333.5" y1="880.3125" y2="900.3125"/><polygon fill="#181818" points="329.5,890.3125,333.5,900.3125,337.5,890.3125,333.5,894.3125" style="stroke:#181818;stroke-width:1.0;"/><line style="stroke:#181818;stroke-width:1.0;" x1="333.5" x2="333.5" y1="934.2813" y2="954.2813"/><polygon fill="#181818" points="329.5,944.2813,333.5,954.2813,337.5,944.2813,333.5,948.2813" style="stroke:#181818;stroke-width:1.0;"/><line style="stroke:#181818;stroke-width:1.0;" x1="333.5" x2="333.5" y1="988.25" y2="1008.25"/><polygon fill="#181818" points="329.5,998.25,333.5,1008.25,337.5,998.25,333.5,1002.25" style="stroke:#181818;stroke-width:1.0;"/><line style="stroke:#181818;stroke-width:1.0;" x1="333.5" x2="333.5" y1="1042.2188" y2="1062.2188"/><polygon fill="#181818" points="329.5,1052.2188,333.5,1062.2188,337.5,1052.2188,333.5,1056.2188" style="stroke:#181818;stroke-width:1.0;"/><line style="stroke:#181818;stroke-width:1.0;" x1="333.5" x2="333.5" y1="1096.1875" y2="1116.1875"/><polygon fill="#181818" points="329.5,1106.1875,333.5,1116.1875,337.5,1106.1875,333.5,1110.1875" style="stroke:#181818;stroke-width:1.0;"/><line style="stroke:#181818;stroke-width:1.0;" x1="333.5" x2="333.5" y1="1150.1563" y2="1170.1563"/><polygon fill="#181818" points="329.5,1160.1563,333.5,1170.1563,337.5,1160.1563,333.5,1164.1563" style="stroke:#181818;stroke-width:1.0;"/><line style="stroke:#181818;stroke-width:1.0;" x1="333.5" x2="333.5" y1="1348.4023" y2="1368.4023"/><polygon fill="#181818" points="329.5,1358.4023,333.5,1368.4023,337.5,1358.4023,333.5,1362.4023" style="stroke:#181818;stroke-width:1.0;"/><line style="stroke:#181818;stroke-width:1.0;" x1="333.5" x2="333.5" y1="1504.7422" y2="1539.7422"/><polygon fill="#181818" points="329.5,1529.7422,333.5,1539.7422,337.5,1529.7422,333.5,1533.7422" style="stroke:#181818;stroke-width:1.0;"/><line style="stroke:#181818;stroke-width:1.0;" x1="333.5" x2="333.5" y1="1446.3711" y2="1470.7734"/><polygon fill="#181818" points="329.5,1460.7734,333.5,1470.7734,337.5,1460.7734,333.5,1464.7734" style="stroke:#181818;stroke-width:1.0;"/><line style="stroke:#181818;stroke-width:1.0;" x1="447" x2="549" y1="1434.3711" y2="1434.3711"/><polygon fill="#181818" points="545,1512.2422,549,1522.2422,553,1512.2422,549,1516.2422" style="stroke:#181818;stroke-width:1.0;"/><line style="stroke:#181818;stroke-width:1.0;" x1="549" x2="549" y1="1434.3711" y2="1605.7109"/><line style="stroke:#181818;stroke-width:1.0;" x1="549" x2="345.5" y1="1605.7109" y2="1605.7109"/><polygon fill="#181818" points="355.5,1601.7109,345.5,1605.7109,355.5,1609.7109,351.5,1605.7109" style="stroke:#181818;stroke-width:1.0;"/><line style="stroke:#181818;stroke-width:1.0;" x1="333.5" x2="333.5" y1="1573.7109" y2="1593.7109"/><polygon fill="#181818" points="329.5,1583.7109,333.5,1593.7109,337.5,1583.7109,333.5,1587.7109" style="stroke:#181818;stroke-width:1.0;"/><line style="stroke:#181818;stroke-width:1.0;" x1="333.5" x2="333.5" y1="1402.3711" y2="1422.3711"/><polygon fill="#181818" points="329.5,1412.3711,333.5,1422.3711,337.5,1412.3711,333.5,1416.3711" style="stroke:#181818;stroke-width:1.0;"/><line style="stroke:#181818;stroke-width:1.0;" x1="333.5" x2="333.5" y1="1617.7109" y2="1637.7109"/><polygon fill="#181818" points="329.5,1627.7109,333.5,1637.7109,337.5,1627.7109,333.5,1631.7109" style="stroke:#181818;stroke-width:1.0;"/><line style="stroke:#181818;stroke-width:1.0;" x1="333.5" x2="333.5" y1="1788.0195" y2="1818.5352"/><polygon fill="#181818" points="329.5,1808.5352,333.5,1818.5352,337.5,1808.5352,333.5,1812.5352" style="stroke:#181818;stroke-width:1.0;"/><line style="stroke:#181818;stroke-width:1.0;" x1="333.5" x2="333.5" y1="1729.6484" y2="1754.0508"/><polygon fill="#181818" points="329.5,1744.0508,333.5,1754.0508,337.5,1744.0508,333.5,1748.0508" style="stroke:#181818;stroke-width:1.0;"/><line style="stroke:#181818;stroke-width:1.0;" x1="443.5" x2="666" y1="1717.6484" y2="1717.6484"/><polygon fill="#181818" points="662,1798.0195,666,1808.0195,670,1798.0195,666,1802.0195" style="stroke:#181818;stroke-width:1.0;"/><line style="stroke:#181818;stroke-width:1.0;" x1="666" x2="666" y1="1717.6484" y2="1898.4727"/><line style="stroke:#181818;stroke-width:1.0;" x1="666" x2="345.5" y1="1898.4727" y2="1898.4727"/><polygon fill="#181818" points="355.5,1894.4727,345.5,1898.4727,355.5,1902.4727,351.5,1898.4727" style="stroke:#181818;stroke-width:1.0;"/><line style="stroke:#181818;stroke-width:1.0;" x1="333.5" x2="333.5" y1="1866.4727" y2="1886.4727"/><polygon fill="#181818" points="329.5,1876.4727,333.5,1886.4727,337.5,1876.4727,333.5,1880.4727" style="stroke:#181818;stroke-width:1.0;"/><line style="stroke:#181818;stroke-width:1.0;" x1="333.5" x2="333.5" y1="1685.6484" y2="1705.6484"/><polygon fill="#181818" points="329.5,1695.6484,333.5,1705.6484,337.5,1695.6484,333.5,1699.6484" style="stroke:#181818;stroke-width:1.0;"/><line style="stroke:#181818;stroke-width:1.0;" x1="333.5" x2="333.5" y1="1910.4727" y2="1930.4727"/><polygon fill="#181818" points="329.5,1920.4727,333.5,1930.4727,337.5,1920.4727,333.5,1924.4727" style="stroke:#181818;stroke-width:1.0;"/><line style="stroke:#181818;stroke-width:1.0;" x1="333.5" x2="333.5" y1="1964.4414" y2="1984.4414"/><polygon fill="#181818" points="329.5,1974.4414,333.5,1984.4414,337.5,1974.4414,333.5,1978.4414" style="stroke:#181818;stroke-width:1.0;"/><line style="stroke:#181818;stroke-width:1.0;" x1="333.5" x2="333.5" y1="1262.0938" y2="1286.4961"/><polygon fill="#181818" points="329.5,1276.4961,333.5,1286.4961,337.5,1276.4961,333.5,1280.4961" style="stroke:#181818;stroke-width:1.0;"/><line style="stroke:#181818;stroke-width:1.0;" x1="396.5" x2="688" y1="1250.0938" y2="1250.0938"/><polygon fill="#181818" points="684,1644.6953,688,1654.6953,692,1644.6953,688,1648.6953" style="stroke:#181818;stroke-width:1.0;"/><line style="stroke:#181818;stroke-width:1.0;" x1="688" x2="688" y1="1250.0938" y2="2050.4102"/><line style="stroke:#181818;stroke-width:1.0;" x1="688" x2="345.5" y1="2050.4102" y2="2050.4102"/><polygon fill="#181818" points="355.5,2046.4102,345.5,2050.4102,355.5,2054.4102,351.5,2050.4102" style="stroke:#181818;stroke-width:1.0;"/><line style="stroke:#181818;stroke-width:1.0;" x1="333.5" x2="333.5" y1="2018.4102" y2="2038.4102"/><polygon fill="#181818" points="329.5,2028.4102,333.5,2038.4102,337.5,2028.4102,333.5,2032.4102" style="stroke:#181818;stroke-width:1.0;"/><line style="stroke:#181818;stroke-width:1.0;" x1="333.5" x2="333.5" y1="1218.0938" y2="1238.0938"/><polygon fill="#181818" points="329.5,1228.0938,333.5,1238.0938,337.5,1228.0938,333.5,1232.0938" style="stroke:#181818;stroke-width:1.0;"/><line style="stroke:#181818;stroke-width:1.0;" x1="333.5" x2="333.5" y1="2062.4102" y2="2082.4102"/><polygon fill="#181818" points="329.5,2072.4102,333.5,2082.4102,337.5,2072.4102,333.5,2076.4102" style="stroke:#181818;stroke-width:1.0;"/><line style="stroke:#181818;stroke-width:1.0;" x1="333.5" x2="333.5" y1="2116.3789" y2="2136.3789"/><polygon fill="#181818" points="329.5,2126.3789,333.5,2136.3789,337.5,2126.3789,333.5,2130.3789" style="stroke:#181818;stroke-width:1.0;"/><line style="stroke:#181818;stroke-width:1.0;" x1="333.5" x2="333.5" y1="2170.3477" y2="2190.3477"/><polygon fill="#181818" points="329.5,2180.3477,333.5,2190.3477,337.5,2180.3477,333.5,2184.3477" style="stroke:#181818;stroke-width:1.0;"/><line style="stroke:#181818;stroke-width:1.0;" x1="333.5" x2="333.5" y1="2224.3164" y2="2244.3164"/><polygon fill="#181818" points="329.5,2234.3164,333.5,2244.3164,337.5,2234.3164,333.5,2238.3164" style="stroke:#181818;stroke-width:1.0;"/><line style="stroke:#181818;stroke-width:1.0;" x1="333.5" x2="333.5" y1="2296.8828" y2="2319.4492"/><polygon fill="#181818" points="329.5,2309.4492,333.5,2319.4492,337.5,2309.4492,333.5,2313.4492" style="stroke:#181818;stroke-width:1.0;"/><line style="stroke:#181818;stroke-width:1.0;" x1="333.5" x2="333.5" y1="2353.418" y2="2373.418"/><polygon fill="#181818" points="329.5,2363.418,333.5,2373.418,337.5,2363.418,333.5,2367.418" style="stroke:#181818;stroke-width:1.0;"/><!--MD5=[631d78409aab932386bf97607796c324]
@startuml
!pragma layout smetana
start
note right
constructor PngSplitter(SuggestedFile pngFile,
int horizontalPages,int verticalPages,String metadata,
int dpi,SplitParam splitParam)
end note
if (horizontalPages==1&&verticalPages==1) then (yes) 
:this.files.add(pngFile.getFile(0));;
:return ;;
stop
endif 
:Log.info("Splitting "+horizontalPages+" x "+
verticalPages);;
:final SFile full=pngFile.getTmpFile();;
:full.delete();;
:final boolean ok=pngFile.getFile(0).renameTo(full);;
if (ok==false) then (yes) 
:throw new IOException("Cannot rename");;
stop
endif 
:final BufferedImage im=SImageIO.read(full);;
:final PngSegment horizontalSegment=new PngSegment(im.getWidth(),
horizontalPages);;
:final PngSegment verticalSegment=new PngSegment(im.getHeight(),
verticalPages);;
:int x=0;;
:final SFile f=pngFile.getFile(x++);;
:this.files.add(f);;
:final int width=horizontalSegment.getLen(i);;
:final int height=verticalSegment.getLen(j);;
:BufferedImage piece=im.getSubimage(horizontalSegment.getStart(i),
verticalSegment.getStart(j),width,height);;
if (splitParam.isSet()) then (yes) 
:BufferedImage withMargin=new BufferedImage(width+
2*splitParam.getExternalMargin(),height+2*splitParam.getExternalMargin(),
BufferedImage.TYPE_INT_ARGB);;
:final Graphics2D g2d=withMargin.createGraphics();;
if (splitParam.getExternalColor()!=null ) then (yes) 
:g2d.setColor(splitParam.getExternalColor());;
:g2d.fillRect(0,0,withMargin.getWidth(),withMargin.getHeight());;
endif 
:g2d.drawImage(piece,splitParam.getExternalMargin(),
splitParam.getExternalMargin(),null );;
if (splitParam.getBorderColor()!=null ) then (yes) 
:g2d.setColor(splitParam.getBorderColor());;
:g2d.drawRect(splitParam.getExternalMargin()-1,splitParam.getExternalMargin()-1,piece.getWidth()+
1,piece.getHeight()+1);;
endif 
:piece=withMargin;;
:g2d.dispose();;
endif 
:PngIO.write(piece,f,metadata,dpi);;
:full.delete();;
:Log.info("End of splitting");;
end
start
note right
List<SFile> getFiles()
end note
:return Collections.unmodifiableList(files);;
stop
end
@enduml

PlantUML version 1.2022.7(Mon Aug 22 17:01:30 UTC 2022)
(GPL source distribution)
Java Runtime: OpenJDK Runtime Environment
JVM: OpenJDK 64-Bit Server VM
Default Encoding: UTF-8
Language: en
Country: null
--></g></svg>