<?xml version="1.0" encoding="UTF-8" standalone="no"?><svg xmlns="http://www.w3.org/2000/svg" xmlns:xlink="http://www.w3.org/1999/xlink" contentStyleType="text/css" height="202px" preserveAspectRatio="none" style="width:525px;height:202px;background:#FFFFFF;" version="1.1" viewBox="0 0 525 202" width="525px" zoomAndPan="magnify"><defs/><g><!--MD5=[782c9503a6c3485d1a9fe8e1e8423b77]
cluster net.sourceforge.plantuml.eggs--><g id="cluster_net.sourceforge.plantuml.eggs"><path d="M8.5,63 L254.5,63 A3.75,3.75 0 0 1 257,65.5 L264,85.2969 L515.5,85.2969 A2.5,2.5 0 0 1 518,87.7969 L518,192.5 A2.5,2.5 0 0 1 515.5,195 L8.5,195 A2.5,2.5 0 0 1 6,192.5 L6,65.5 A2.5,2.5 0 0 1 8.5,63 " fill="none" style="stroke:#000000;stroke-width:1.5;"/><line style="stroke:#000000;stroke-width:1.5;" x1="6" x2="264" y1="85.2969" y2="85.2969"/><text fill="#000000" font-family="sans-serif" font-size="14" font-weight="bold" lengthAdjust="spacing" textLength="245" x="10" y="77.9951">net.sourceforge.plantuml.eggs</text></g><!--MD5=[75bab69663b9cbe6059cb37b9047eb5d]
class AbstractPSystem--><g id="elem_AbstractPSystem"><rect fill="#F1F1F1" height="48" id="AbstractPSystem" rx="2.5" ry="2.5" style="stroke:#181818;stroke-width:0.5;" width="149" x="187.5" y="6"/><ellipse cx="202.5" cy="22" fill="#ADD1B2" rx="11" ry="11" style="stroke:#181818;stroke-width:1.0;"/><path d="M205.4688,27.6406 Q204.8906,27.9375 204.25,28.0781 Q203.6094,28.2344 202.9063,28.2344 Q200.4063,28.2344 199.0781,26.5938 Q197.7656,24.9375 197.7656,21.8125 Q197.7656,18.6875 199.0781,17.0313 Q200.4063,15.375 202.9063,15.375 Q203.6094,15.375 204.25,15.5313 Q204.9063,15.6875 205.4688,15.9844 L205.4688,18.7031 Q204.8438,18.125 204.25,17.8594 Q203.6563,17.5781 203.0313,17.5781 Q201.6875,17.5781 201,18.6563 Q200.3125,19.7188 200.3125,21.8125 Q200.3125,23.9063 201,24.9844 Q201.6875,26.0469 203.0313,26.0469 Q203.6563,26.0469 204.25,25.7813 Q204.8438,25.5 205.4688,24.9219 L205.4688,27.6406 Z " fill="#000000"/><text fill="#000000" font-family="sans-serif" font-size="14" lengthAdjust="spacing" textLength="117" x="216.5" y="26.8467">AbstractPSystem</text><line style="stroke:#181818;stroke-width:0.5;" x1="188.5" x2="335.5" y1="38" y2="38"/><line style="stroke:#181818;stroke-width:0.5;" x1="188.5" x2="335.5" y1="46" y2="46"/></g><!--MD5=[35a0d967406e16678fbc8694cb19c86f]
class net.sourceforge.plantuml.eggs.PSystemPath--><g id="elem_net.sourceforge.plantuml.eggs.PSystemPath"><rect codeLine="3" fill="#F1F1F1" height="96.8906" id="net.sourceforge.plantuml.eggs.PSystemPath" rx="2.5" ry="2.5" style="stroke:#181818;stroke-width:0.5;" width="495" x="14.5" y="90"/><ellipse cx="212.25" cy="106" fill="#ADD1B2" rx="11" ry="11" style="stroke:#181818;stroke-width:1.0;"/><path d="M215.2188,111.6406 Q214.6406,111.9375 214,112.0781 Q213.3594,112.2344 212.6563,112.2344 Q210.1563,112.2344 208.8281,110.5938 Q207.5156,108.9375 207.5156,105.8125 Q207.5156,102.6875 208.8281,101.0313 Q210.1563,99.375 212.6563,99.375 Q213.3594,99.375 214,99.5313 Q214.6563,99.6875 215.2188,99.9844 L215.2188,102.7031 Q214.5938,102.125 214,101.8594 Q213.4063,101.5781 212.7813,101.5781 Q211.4375,101.5781 210.75,102.6563 Q210.0625,103.7188 210.0625,105.8125 Q210.0625,107.9063 210.75,108.9844 Q211.4375,110.0469 212.7813,110.0469 Q213.4063,110.0469 214,109.7813 Q214.5938,109.5 215.2188,108.9219 L215.2188,111.6406 Z " fill="#000000"/><text fill="#000000" font-family="sans-serif" font-size="14" lengthAdjust="spacing" textLength="91" x="232.75" y="110.8467">PSystemPath</text><line style="stroke:#181818;stroke-width:0.5;" x1="15.5" x2="508.5" y1="122" y2="122"/><line style="stroke:#181818;stroke-width:0.5;" x1="15.5" x2="508.5" y1="130" y2="130"/><a href="./../../../../../.././qc/src/net/sourceforge/plantuml/eggs/PSystemPath.java.html#52" target="_top" title="./../../../../../.././qc/src/net/sourceforge/plantuml/eggs/PSystemPath.java.html#52" xlink:actuate="onRequest" xlink:href="./../../../../../.././qc/src/net/sourceforge/plantuml/eggs/PSystemPath.java.html#52" xlink:show="new" xlink:title="./../../../../../.././qc/src/net/sourceforge/plantuml/eggs/PSystemPath.java.html#52" xlink:type="simple"><rect fill="#F1F1F1" height="10" style="stroke:none;stroke-width:1.0;" width="20" x="20.5" y="138.6484"/><ellipse cx="25.5" cy="143.6484" fill="#84BE84" rx="3" ry="3" style="stroke:#038048;stroke-width:1.0;"/></a><a href="./../../../../../.././qc/src/net/sourceforge/plantuml/eggs/PSystemPath.java.html#52" target="_top" title="./../../../../../.././qc/src/net/sourceforge/plantuml/eggs/PSystemPath.java.html#52" xlink:actuate="onRequest" xlink:href="./../../../../../.././qc/src/net/sourceforge/plantuml/eggs/PSystemPath.java.html#52" xlink:show="new" xlink:title="./../../../../../.././qc/src/net/sourceforge/plantuml/eggs/PSystemPath.java.html#52" xlink:type="simple"><text fill="#000000" font-family="sans-serif" font-size="14" lengthAdjust="spacing" textLength="325" x="34.5" y="146.9951">PSystemPath(UmlSource;String) : PSystemPath</text></a><a href="./../../../../../.././qc/src/net/sourceforge/plantuml/eggs/PSystemPath.java.html#58" target="_top" title="./../../../../../.././qc/src/net/sourceforge/plantuml/eggs/PSystemPath.java.html#58" xlink:actuate="onRequest" xlink:href="./../../../../../.././qc/src/net/sourceforge/plantuml/eggs/PSystemPath.java.html#58" xlink:show="new" xlink:title="./../../../../../.././qc/src/net/sourceforge/plantuml/eggs/PSystemPath.java.html#58" xlink:type="simple"><text fill="#000000" font-family="sans-serif" font-size="14" lengthAdjust="spacing" textLength="469" x="34.5" y="163.292">exportDiagramNow(OutputStream;int;FileFormatOption) : ImageData</text></a><a href="./../../../../../.././qc/src/net/sourceforge/plantuml/eggs/PSystemPath.java.html#63" target="_top" title="./../../../../../.././qc/src/net/sourceforge/plantuml/eggs/PSystemPath.java.html#63" xlink:actuate="onRequest" xlink:href="./../../../../../.././qc/src/net/sourceforge/plantuml/eggs/PSystemPath.java.html#63" xlink:show="new" xlink:title="./../../../../../.././qc/src/net/sourceforge/plantuml/eggs/PSystemPath.java.html#63" xlink:type="simple"><rect fill="#F1F1F1" height="10" style="stroke:none;stroke-width:1.0;" width="20" x="20.5" y="171.2422"/><ellipse cx="25.5" cy="176.2422" fill="#84BE84" rx="3" ry="3" style="stroke:#038048;stroke-width:1.0;"/></a><a href="./../../../../../.././qc/src/net/sourceforge/plantuml/eggs/PSystemPath.java.html#63" target="_top" title="./../../../../../.././qc/src/net/sourceforge/plantuml/eggs/PSystemPath.java.html#63" xlink:actuate="onRequest" xlink:href="./../../../../../.././qc/src/net/sourceforge/plantuml/eggs/PSystemPath.java.html#63" xlink:show="new" xlink:title="./../../../../../.././qc/src/net/sourceforge/plantuml/eggs/PSystemPath.java.html#63" xlink:type="simple"><text fill="#000000" font-family="sans-serif" font-size="14" lengthAdjust="spacing" textLength="261" x="34.5" y="179.5889">getDescription() : DiagramDescription</text></a></g><path d="M262,54.1089 C262,64.6313 262,77.495 262,89.9394 " fill="none" style="stroke:#181818;stroke-width:1.0;"/><polygon fill="#FFFFFF" points="262,54.1089,256,70.1089,268,70.1089,262,54.1089" style="stroke:#181818;stroke-width:1.0;"/><!--MD5=[31a378eba8e2420586f781838d47ae1a]
@startuml
!pragma layout smetana
"AbstractPSystem" <|- - "net.sourceforge.plantuml.eggs.PSystemPath"
class net.sourceforge.plantuml.eggs.PSystemPath {
+PSystemPath(UmlSource;String) : PSystemPath [[[./../../../../../.././qc/src/net/sourceforge/plantuml/eggs/PSystemPath.java.html#52]]]
exportDiagramNow(OutputStream;int;FileFormatOption) : ImageData [[[./../../../../../.././qc/src/net/sourceforge/plantuml/eggs/PSystemPath.java.html#58]]]
+getDescription() : DiagramDescription [[[./../../../../../.././qc/src/net/sourceforge/plantuml/eggs/PSystemPath.java.html#63]]]
} 
@enduml

PlantUML version 1.2022.7(Mon Aug 22 17:01:30 UTC 2022)
(GPL source distribution)
Java Runtime: OpenJDK Runtime Environment
JVM: OpenJDK 64-Bit Server VM
Default Encoding: UTF-8
Language: en
Country: null
--></g></svg>