<?xml version="1.0" encoding="UTF-8" standalone="no"?><svg xmlns="http://www.w3.org/2000/svg" xmlns:xlink="http://www.w3.org/1999/xlink" contentStyleType="text/css" height="1953px" preserveAspectRatio="none" style="width:775px;height:1953px;background:#FFFFFF;" version="1.1" viewBox="0 0 775 1953" width="775px" zoomAndPan="magnify"><defs/><g><path d="M339.5,10 L339.5,26.1328 L319.5,30.1328 L339.5,34.1328 L339.5,50.2656 A0,0 0 0 0 339.5,50.2656 L675.5,50.2656 A0,0 0 0 0 675.5,50.2656 L675.5,20 L665.5,10 L339.5,10 A0,0 0 0 0 339.5,10 " fill="#FEFFDD" style="stroke:#181818;stroke-width:0.5;"/><path d="M665.5,10 L665.5,20 L675.5,20 L665.5,10 " fill="#FEFFDD" style="stroke:#181818;stroke-width:0.5;"/><text fill="#000000" font-family="sans-serif" font-size="13" lengthAdjust="spacing" textLength="315" x="345.5" y="27.0669">constructor PSystemWelcome(UmlSourcesource,</text><text fill="#000000" font-family="sans-serif" font-size="13" lengthAdjust="spacing" textLength="154" x="345.5" y="42.1997">GraphicPositionposition)</text><ellipse cx="309.5" cy="30.1328" fill="#222222" rx="10" ry="10" style="stroke:#222222;stroke-width:1.0;"/><rect fill="#F1F1F1" height="33.9688" rx="12.5" ry="12.5" style="stroke:#181818;stroke-width:0.5;" width="117" x="251" y="70.2656"/><text fill="#000000" font-family="sans-serif" font-size="12" lengthAdjust="spacing" textLength="97" x="261" y="91.4043">super (source);</text><rect fill="#F1F1F1" height="33.9688" rx="12.5" ry="12.5" style="stroke:#181818;stroke-width:0.5;" width="161" x="229" y="124.2344"/><text fill="#000000" font-family="sans-serif" font-size="12" lengthAdjust="spacing" textLength="141" x="239" y="145.373">this.position=position;</text><rect fill="#F1F1F1" height="33.9688" rx="12.5" ry="12.5" style="stroke:#181818;stroke-width:0.5;" width="276" x="171.5" y="178.2031"/><text fill="#000000" font-family="sans-serif" font-size="12" lengthAdjust="spacing" textLength="81" x="181.5" y="199.3418">strings.add("</text><text fill="#000000" font-family="sans-serif" font-size="12" font-weight="bold" lengthAdjust="spacing" textLength="175" x="262.5" y="199.3418">Welcome to PlantUML!");</text><rect fill="#F1F1F1" height="33.9688" rx="12.5" ry="12.5" style="stroke:#181818;stroke-width:0.5;" width="119" x="250" y="232.1719"/><text fill="#000000" font-family="sans-serif" font-size="12" lengthAdjust="spacing" textLength="99" x="260" y="253.3105">strings.add(" ");</text><rect fill="#F1F1F1" height="33.9688" rx="12.5" ry="12.5" style="stroke:#181818;stroke-width:0.5;" width="398" x="110.5" y="286.1406"/><text fill="#000000" font-family="sans-serif" font-size="12" lengthAdjust="spacing" textLength="378" x="120.5" y="307.2793">strings.add("You can start with a simple UML Diagram like:");</text><rect fill="#F1F1F1" height="33.9688" rx="12.5" ry="12.5" style="stroke:#181818;stroke-width:0.5;" width="119" x="250" y="340.1094"/><text fill="#000000" font-family="sans-serif" font-size="12" lengthAdjust="spacing" textLength="99" x="260" y="361.248">strings.add(" ");</text><rect fill="#F1F1F1" height="33.9688" rx="12.5" ry="12.5" style="stroke:#181818;stroke-width:0.5;" width="257" x="181" y="394.0781"/><text fill="#000000" font-family="sans-serif" font-size="12" lengthAdjust="spacing" textLength="237" x="191" y="415.2168">strings.add("\"\"Bob-&gt;Alice: Hello\"\"");</text><rect fill="#F1F1F1" height="33.9688" rx="12.5" ry="12.5" style="stroke:#181818;stroke-width:0.5;" width="119" x="250" y="448.0469"/><text fill="#000000" font-family="sans-serif" font-size="12" lengthAdjust="spacing" textLength="99" x="260" y="469.1855">strings.add(" ");</text><rect fill="#F1F1F1" height="33.9688" rx="12.5" ry="12.5" style="stroke:#181818;stroke-width:0.5;" width="129" x="245" y="502.0156"/><text fill="#000000" font-family="sans-serif" font-size="12" lengthAdjust="spacing" textLength="109" x="255" y="523.1543">strings.add("Or");</text><rect fill="#F1F1F1" height="33.9688" rx="12.5" ry="12.5" style="stroke:#181818;stroke-width:0.5;" width="119" x="250" y="555.9844"/><text fill="#000000" font-family="sans-serif" font-size="12" lengthAdjust="spacing" textLength="99" x="260" y="577.123">strings.add(" ");</text><rect fill="#F1F1F1" height="33.9688" rx="12.5" ry="12.5" style="stroke:#181818;stroke-width:0.5;" width="239" x="190" y="609.9531"/><text fill="#000000" font-family="sans-serif" font-size="12" lengthAdjust="spacing" textLength="219" x="200" y="631.0918">strings.add("\"\"class Example\"\"");</text><rect fill="#F1F1F1" height="33.9688" rx="12.5" ry="12.5" style="stroke:#181818;stroke-width:0.5;" width="119" x="250" y="663.9219"/><text fill="#000000" font-family="sans-serif" font-size="12" lengthAdjust="spacing" textLength="99" x="260" y="685.0605">strings.add(" ");</text><rect fill="#F1F1F1" height="33.9688" rx="12.5" ry="12.5" style="stroke:#181818;stroke-width:0.5;" width="597" x="11" y="717.8906"/><text fill="#000000" font-family="sans-serif" font-size="12" lengthAdjust="spacing" textLength="430" x="21" y="739.0293">strings.add("You will find more information about PlantUML syntax on</text><text fill="#000000" font-family="sans-serif" font-size="12" lengthAdjust="spacing" text-decoration="underline" textLength="129" x="455" y="739.0293">https://plantuml.com</text><text fill="#000000" font-family="sans-serif" font-size="12" lengthAdjust="spacing" textLength="14" x="584" y="739.0293">");</text><rect fill="#F1F1F1" height="33.9688" rx="12.5" ry="12.5" style="stroke:#181818;stroke-width:0.5;" width="119" x="250" y="771.8594"/><text fill="#000000" font-family="sans-serif" font-size="12" lengthAdjust="spacing" textLength="99" x="260" y="792.998">strings.add(" ");</text><rect fill="#F1F1F1" height="33.9688" rx="12.5" ry="12.5" style="stroke:#181818;stroke-width:0.5;" width="367" x="126" y="825.8281"/><text fill="#000000" font-family="sans-serif" font-size="12" lengthAdjust="spacing" textLength="347" x="136" y="846.9668">strings.add("(Details by typing \"\"license\"\" keyword)");</text><rect fill="#F1F1F1" height="33.9688" rx="12.5" ry="12.5" style="stroke:#181818;stroke-width:0.5;" width="119" x="250" y="879.7969"/><text fill="#000000" font-family="sans-serif" font-size="12" lengthAdjust="spacing" textLength="99" x="260" y="900.9355">strings.add(" ");</text><rect fill="#F1F1F1" height="33.9688" rx="12.5" ry="12.5" style="stroke:#181818;stroke-width:0.5;" width="119" x="250" y="982.168"/><text fill="#000000" font-family="sans-serif" font-size="12" lengthAdjust="spacing" textLength="99" x="260" y="1003.3066">strings.add(" ");</text><rect fill="#F1F1F1" height="33.9688" rx="12.5" ry="12.5" style="stroke:#181818;stroke-width:0.5;" width="119" x="250" y="1036.1367"/><text fill="#000000" font-family="sans-serif" font-size="12" lengthAdjust="spacing" textLength="99" x="260" y="1057.2754">strings.add(" ");</text><rect fill="#F1F1F1" height="33.9688" rx="12.5" ry="12.5" style="stroke:#181818;stroke-width:0.5;" width="119" x="250" y="1105.1055"/><text fill="#000000" font-family="sans-serif" font-size="12" lengthAdjust="spacing" textLength="99" x="260" y="1126.2441">strings.add(" ");</text><rect fill="#F1F1F1" height="33.9688" rx="12.5" ry="12.5" style="stroke:#181818;stroke-width:0.5;" width="119" x="250" y="1159.0742"/><text fill="#000000" font-family="sans-serif" font-size="12" lengthAdjust="spacing" textLength="99" x="260" y="1180.2129">strings.add(" ");</text><polygon fill="#F1F1F1" points="118.5,933.7656,500.5,933.7656,512.5,945.7656,500.5,957.7656,118.5,957.7656,106.5,945.7656,118.5,933.7656" style="stroke:#181818;stroke-width:0.5;"/><text fill="#000000" font-family="sans-serif" font-size="11" lengthAdjust="spacing" textLength="20" x="313.5" y="967.9761">yes</text><text fill="#000000" font-family="sans-serif" font-size="11" lengthAdjust="spacing" textLength="382" x="118.5" y="949.5737">position==GraphicPosition.BACKGROUND_CORNER_BOTTOM_RIGHT</text><polygon fill="#F1F1F1" points="309.5,1213.043,321.5,1225.043,309.5,1237.043,297.5,1225.043,309.5,1213.043" style="stroke:#181818;stroke-width:0.5;"/><ellipse cx="309.5" cy="1267.043" fill="none" rx="10" ry="10" style="stroke:#222222;stroke-width:1.5;"/><line style="stroke:#222222;stroke-width:2.5;" x1="303.3128" x2="315.6872" y1="1260.8558" y2="1273.2302"/><line style="stroke:#222222;stroke-width:2.5;" x1="315.6872" x2="303.3128" y1="1260.8558" y2="1273.2302"/><path d="M339.5,1287.043 L339.5,1295.6094 L319.5,1299.6094 L339.5,1303.6094 L339.5,1312.1758 A0,0 0 0 0 339.5,1312.1758 L763.5,1312.1758 A0,0 0 0 0 763.5,1312.1758 L763.5,1297.043 L753.5,1287.043 L339.5,1287.043 A0,0 0 0 0 339.5,1287.043 " fill="#FEFFDD" style="stroke:#181818;stroke-width:0.5;"/><path d="M753.5,1287.043 L753.5,1297.043 L763.5,1297.043 L753.5,1287.043 " fill="#FEFFDD" style="stroke:#181818;stroke-width:0.5;"/><text fill="#000000" font-family="sans-serif" font-size="13" lengthAdjust="spacing" textLength="403" x="345.5" y="1304.1099">UDrawablegetRootDrawable(FileFormatOptionfileFormatOption)</text><ellipse cx="309.5" cy="1299.6094" fill="#222222" rx="10" ry="10" style="stroke:#222222;stroke-width:1.0;"/><rect fill="#F1F1F1" height="33.9688" rx="12.5" ry="12.5" style="stroke:#181818;stroke-width:0.5;" width="190" x="214.5" y="1332.1758"/><text fill="#000000" font-family="sans-serif" font-size="12" lengthAdjust="spacing" textLength="170" x="224.5" y="1353.3145">return getGraphicStrings();</text><ellipse cx="309.5" cy="1397.1445" fill="none" rx="11" ry="11" style="stroke:#222222;stroke-width:1.0;"/><ellipse cx="309.5" cy="1397.1445" fill="#222222" rx="6" ry="6" style="stroke:#111111;stroke-width:1.0;"/><ellipse cx="309.5" cy="1428.1445" fill="none" rx="10" ry="10" style="stroke:#222222;stroke-width:1.5;"/><line style="stroke:#222222;stroke-width:2.5;" x1="303.3128" x2="315.6872" y1="1421.9573" y2="1434.3317"/><line style="stroke:#222222;stroke-width:2.5;" x1="315.6872" x2="303.3128" y1="1421.9573" y2="1434.3317"/><path d="M339.5,1448.1445 L339.5,1456.7109 L319.5,1460.7109 L339.5,1464.7109 L339.5,1473.2773 A0,0 0 0 0 339.5,1473.2773 L624.5,1473.2773 A0,0 0 0 0 624.5,1473.2773 L624.5,1458.1445 L614.5,1448.1445 L339.5,1448.1445 A0,0 0 0 0 339.5,1448.1445 " fill="#FEFFDD" style="stroke:#181818;stroke-width:0.5;"/><path d="M614.5,1448.1445 L614.5,1458.1445 L624.5,1458.1445 L614.5,1448.1445 " fill="#FEFFDD" style="stroke:#181818;stroke-width:0.5;"/><text fill="#000000" font-family="sans-serif" font-size="13" lengthAdjust="spacing" textLength="264" x="345.5" y="1465.2114">TextBlockBackcoloredgetGraphicStrings()</text><ellipse cx="309.5" cy="1460.7109" fill="#222222" rx="10" ry="10" style="stroke:#222222;stroke-width:1.0;"/><rect fill="#F1F1F1" height="47.9375" rx="12.5" ry="12.5" style="stroke:#181818;stroke-width:0.5;" width="337" x="141" y="1541.6797"/><text fill="#000000" font-family="sans-serif" font-size="12" lengthAdjust="spacing" textLength="317" x="151" y="1562.8184">return GraphicStrings.createBlackOnWhite(strings,</text><text fill="#000000" font-family="sans-serif" font-size="12" lengthAdjust="spacing" textLength="290" x="151" y="1576.7871">PSystemVersion.getPlantumlImage(),position);</text><ellipse cx="309.5" cy="1622.1484" fill="none" rx="11" ry="11" style="stroke:#222222;stroke-width:1.0;"/><ellipse cx="309.5" cy="1622.1484" fill="#222222" rx="6" ry="6" style="stroke:#111111;stroke-width:1.0;"/><polygon fill="#F1F1F1" points="269,1493.2773,350,1493.2773,362,1505.2773,350,1517.2773,269,1517.2773,257,1505.2773,269,1493.2773" style="stroke:#181818;stroke-width:0.5;"/><text fill="#000000" font-family="sans-serif" font-size="11" lengthAdjust="spacing" textLength="20" x="313.5" y="1527.4878">yes</text><text fill="#000000" font-family="sans-serif" font-size="11" lengthAdjust="spacing" textLength="77" x="269" y="1509.0854">position!=null</text><rect fill="#F1F1F1" height="33.9688" rx="12.5" ry="12.5" style="stroke:#181818;stroke-width:0.5;" width="342" x="138.5" y="1675.1484"/><text fill="#000000" font-family="sans-serif" font-size="12" lengthAdjust="spacing" textLength="322" x="148.5" y="1696.2871">return GraphicStrings.createBlackOnWhite(strings);</text><ellipse cx="309.5" cy="1740.1172" fill="none" rx="11" ry="11" style="stroke:#222222;stroke-width:1.0;"/><ellipse cx="309.5" cy="1740.1172" fill="#222222" rx="6" ry="6" style="stroke:#111111;stroke-width:1.0;"/><ellipse cx="309.5" cy="1771.1172" fill="none" rx="10" ry="10" style="stroke:#222222;stroke-width:1.5;"/><line style="stroke:#222222;stroke-width:2.5;" x1="303.3128" x2="315.6872" y1="1764.93" y2="1777.3044"/><line style="stroke:#222222;stroke-width:2.5;" x1="315.6872" x2="303.3128" y1="1764.93" y2="1777.3044"/><path d="M339.5,1791.1172 L339.5,1799.6836 L319.5,1803.6836 L339.5,1807.6836 L339.5,1816.25 A0,0 0 0 0 339.5,1816.25 L590.5,1816.25 A0,0 0 0 0 590.5,1816.25 L590.5,1801.1172 L580.5,1791.1172 L339.5,1791.1172 A0,0 0 0 0 339.5,1791.1172 " fill="#FEFFDD" style="stroke:#181818;stroke-width:0.5;"/><path d="M580.5,1791.1172 L580.5,1801.1172 L590.5,1801.1172 L580.5,1791.1172 " fill="#FEFFDD" style="stroke:#181818;stroke-width:0.5;"/><text fill="#000000" font-family="sans-serif" font-size="13" lengthAdjust="spacing" textLength="230" x="345.5" y="1808.1841">DiagramDescriptiongetDescription()</text><ellipse cx="309.5" cy="1803.6836" fill="#222222" rx="10" ry="10" style="stroke:#222222;stroke-width:1.0;"/><rect fill="#F1F1F1" height="33.9688" rx="12.5" ry="12.5" style="stroke:#181818;stroke-width:0.5;" width="287" x="166" y="1836.25"/><text fill="#000000" font-family="sans-serif" font-size="12" lengthAdjust="spacing" textLength="267" x="176" y="1857.3887">return new DiagramDescription("(Empty)");</text><ellipse cx="309.5" cy="1901.2188" fill="none" rx="11" ry="11" style="stroke:#222222;stroke-width:1.0;"/><ellipse cx="309.5" cy="1901.2188" fill="#222222" rx="6" ry="6" style="stroke:#111111;stroke-width:1.0;"/><ellipse cx="309.5" cy="1932.2188" fill="none" rx="10" ry="10" style="stroke:#222222;stroke-width:1.5;"/><line style="stroke:#222222;stroke-width:2.5;" x1="303.3128" x2="315.6872" y1="1926.0316" y2="1938.4059"/><line style="stroke:#222222;stroke-width:2.5;" x1="315.6872" x2="303.3128" y1="1926.0316" y2="1938.4059"/><line style="stroke:#181818;stroke-width:1.0;" x1="309.5" x2="309.5" y1="40.1328" y2="70.2656"/><polygon fill="#181818" points="305.5,60.2656,309.5,70.2656,313.5,60.2656,309.5,64.2656" style="stroke:#181818;stroke-width:1.0;"/><line style="stroke:#181818;stroke-width:1.0;" x1="309.5" x2="309.5" y1="104.2344" y2="124.2344"/><polygon fill="#181818" points="305.5,114.2344,309.5,124.2344,313.5,114.2344,309.5,118.2344" style="stroke:#181818;stroke-width:1.0;"/><line style="stroke:#181818;stroke-width:1.0;" x1="309.5" x2="309.5" y1="158.2031" y2="178.2031"/><polygon fill="#181818" points="305.5,168.2031,309.5,178.2031,313.5,168.2031,309.5,172.2031" style="stroke:#181818;stroke-width:1.0;"/><line style="stroke:#181818;stroke-width:1.0;" x1="309.5" x2="309.5" y1="212.1719" y2="232.1719"/><polygon fill="#181818" points="305.5,222.1719,309.5,232.1719,313.5,222.1719,309.5,226.1719" style="stroke:#181818;stroke-width:1.0;"/><line style="stroke:#181818;stroke-width:1.0;" x1="309.5" x2="309.5" y1="266.1406" y2="286.1406"/><polygon fill="#181818" points="305.5,276.1406,309.5,286.1406,313.5,276.1406,309.5,280.1406" style="stroke:#181818;stroke-width:1.0;"/><line style="stroke:#181818;stroke-width:1.0;" x1="309.5" x2="309.5" y1="320.1094" y2="340.1094"/><polygon fill="#181818" points="305.5,330.1094,309.5,340.1094,313.5,330.1094,309.5,334.1094" style="stroke:#181818;stroke-width:1.0;"/><line style="stroke:#181818;stroke-width:1.0;" x1="309.5" x2="309.5" y1="374.0781" y2="394.0781"/><polygon fill="#181818" points="305.5,384.0781,309.5,394.0781,313.5,384.0781,309.5,388.0781" style="stroke:#181818;stroke-width:1.0;"/><line style="stroke:#181818;stroke-width:1.0;" x1="309.5" x2="309.5" y1="428.0469" y2="448.0469"/><polygon fill="#181818" points="305.5,438.0469,309.5,448.0469,313.5,438.0469,309.5,442.0469" style="stroke:#181818;stroke-width:1.0;"/><line style="stroke:#181818;stroke-width:1.0;" x1="309.5" x2="309.5" y1="482.0156" y2="502.0156"/><polygon fill="#181818" points="305.5,492.0156,309.5,502.0156,313.5,492.0156,309.5,496.0156" style="stroke:#181818;stroke-width:1.0;"/><line style="stroke:#181818;stroke-width:1.0;" x1="309.5" x2="309.5" y1="535.9844" y2="555.9844"/><polygon fill="#181818" points="305.5,545.9844,309.5,555.9844,313.5,545.9844,309.5,549.9844" style="stroke:#181818;stroke-width:1.0;"/><line style="stroke:#181818;stroke-width:1.0;" x1="309.5" x2="309.5" y1="589.9531" y2="609.9531"/><polygon fill="#181818" points="305.5,599.9531,309.5,609.9531,313.5,599.9531,309.5,603.9531" style="stroke:#181818;stroke-width:1.0;"/><line style="stroke:#181818;stroke-width:1.0;" x1="309.5" x2="309.5" y1="643.9219" y2="663.9219"/><polygon fill="#181818" points="305.5,653.9219,309.5,663.9219,313.5,653.9219,309.5,657.9219" style="stroke:#181818;stroke-width:1.0;"/><line style="stroke:#181818;stroke-width:1.0;" x1="309.5" x2="309.5" y1="697.8906" y2="717.8906"/><polygon fill="#181818" points="305.5,707.8906,309.5,717.8906,313.5,707.8906,309.5,711.8906" style="stroke:#181818;stroke-width:1.0;"/><line style="stroke:#181818;stroke-width:1.0;" x1="309.5" x2="309.5" y1="751.8594" y2="771.8594"/><polygon fill="#181818" points="305.5,761.8594,309.5,771.8594,313.5,761.8594,309.5,765.8594" style="stroke:#181818;stroke-width:1.0;"/><line style="stroke:#181818;stroke-width:1.0;" x1="309.5" x2="309.5" y1="805.8281" y2="825.8281"/><polygon fill="#181818" points="305.5,815.8281,309.5,825.8281,313.5,815.8281,309.5,819.8281" style="stroke:#181818;stroke-width:1.0;"/><line style="stroke:#181818;stroke-width:1.0;" x1="309.5" x2="309.5" y1="859.7969" y2="879.7969"/><polygon fill="#181818" points="305.5,869.7969,309.5,879.7969,313.5,869.7969,309.5,873.7969" style="stroke:#181818;stroke-width:1.0;"/><line style="stroke:#181818;stroke-width:1.0;" x1="309.5" x2="309.5" y1="1016.1367" y2="1036.1367"/><polygon fill="#181818" points="305.5,1026.1367,309.5,1036.1367,313.5,1026.1367,309.5,1030.1367" style="stroke:#181818;stroke-width:1.0;"/><line style="stroke:#181818;stroke-width:1.0;" x1="309.5" x2="309.5" y1="1070.1055" y2="1105.1055"/><polygon fill="#181818" points="305.5,1095.1055,309.5,1105.1055,313.5,1095.1055,309.5,1099.1055" style="stroke:#181818;stroke-width:1.0;"/><line style="stroke:#181818;stroke-width:1.0;" x1="309.5" x2="309.5" y1="1139.0742" y2="1159.0742"/><polygon fill="#181818" points="305.5,1149.0742,309.5,1159.0742,313.5,1149.0742,309.5,1153.0742" style="stroke:#181818;stroke-width:1.0;"/><line style="stroke:#181818;stroke-width:1.0;" x1="309.5" x2="309.5" y1="957.7656" y2="982.168"/><polygon fill="#181818" points="305.5,972.168,309.5,982.168,313.5,972.168,309.5,976.168" style="stroke:#181818;stroke-width:1.0;"/><line style="stroke:#181818;stroke-width:1.0;" x1="512.5" x2="524.5" y1="945.7656" y2="945.7656"/><polygon fill="#181818" points="520.5,1077.6055,524.5,1087.6055,528.5,1077.6055,524.5,1081.6055" style="stroke:#181818;stroke-width:1.0;"/><line style="stroke:#181818;stroke-width:1.0;" x1="524.5" x2="524.5" y1="945.7656" y2="1225.043"/><line style="stroke:#181818;stroke-width:1.0;" x1="524.5" x2="321.5" y1="1225.043" y2="1225.043"/><polygon fill="#181818" points="331.5,1221.043,321.5,1225.043,331.5,1229.043,327.5,1225.043" style="stroke:#181818;stroke-width:1.0;"/><line style="stroke:#181818;stroke-width:1.0;" x1="309.5" x2="309.5" y1="1193.043" y2="1213.043"/><polygon fill="#181818" points="305.5,1203.043,309.5,1213.043,313.5,1203.043,309.5,1207.043" style="stroke:#181818;stroke-width:1.0;"/><line style="stroke:#181818;stroke-width:1.0;" x1="309.5" x2="309.5" y1="913.7656" y2="933.7656"/><polygon fill="#181818" points="305.5,923.7656,309.5,933.7656,313.5,923.7656,309.5,927.7656" style="stroke:#181818;stroke-width:1.0;"/><line style="stroke:#181818;stroke-width:1.0;" x1="309.5" x2="309.5" y1="1237.043" y2="1257.043"/><polygon fill="#181818" points="305.5,1247.043,309.5,1257.043,313.5,1247.043,309.5,1251.043" style="stroke:#181818;stroke-width:1.0;"/><line style="stroke:#181818;stroke-width:1.0;" x1="309.5" x2="309.5" y1="1309.6094" y2="1332.1758"/><polygon fill="#181818" points="305.5,1322.1758,309.5,1332.1758,313.5,1322.1758,309.5,1326.1758" style="stroke:#181818;stroke-width:1.0;"/><line style="stroke:#181818;stroke-width:1.0;" x1="309.5" x2="309.5" y1="1366.1445" y2="1386.1445"/><polygon fill="#181818" points="305.5,1376.1445,309.5,1386.1445,313.5,1376.1445,309.5,1380.1445" style="stroke:#181818;stroke-width:1.0;"/><line style="stroke:#181818;stroke-width:1.0;" x1="309.5" x2="309.5" y1="1589.6172" y2="1611.1484"/><polygon fill="#181818" points="305.5,1601.1484,309.5,1611.1484,313.5,1601.1484,309.5,1605.1484" style="stroke:#181818;stroke-width:1.0;"/><line style="stroke:#181818;stroke-width:1.0;" x1="309.5" x2="309.5" y1="1517.2773" y2="1541.6797"/><polygon fill="#181818" points="305.5,1531.6797,309.5,1541.6797,313.5,1531.6797,309.5,1535.6797" style="stroke:#181818;stroke-width:1.0;"/><line style="stroke:#181818;stroke-width:1.0;" x1="362" x2="488" y1="1505.2773" y2="1505.2773"/><polygon fill="#181818" points="484,1581.1484,488,1591.1484,492,1581.1484,488,1585.1484" style="stroke:#181818;stroke-width:1.0;"/><line style="stroke:#181818;stroke-width:1.0;" x1="488" x2="488" y1="1505.2773" y2="1655.1484"/><line style="stroke:#181818;stroke-width:1.0;" x1="488" x2="309.5" y1="1655.1484" y2="1655.1484"/><line style="stroke:#181818;stroke-width:1.0;" x1="309.5" x2="309.5" y1="1655.1484" y2="1675.1484"/><polygon fill="#181818" points="305.5,1665.1484,309.5,1675.1484,313.5,1665.1484,309.5,1669.1484" style="stroke:#181818;stroke-width:1.0;"/><line style="stroke:#181818;stroke-width:1.0;" x1="309.5" x2="309.5" y1="1470.7109" y2="1493.2773"/><polygon fill="#181818" points="305.5,1483.2773,309.5,1493.2773,313.5,1483.2773,309.5,1487.2773" style="stroke:#181818;stroke-width:1.0;"/><line style="stroke:#181818;stroke-width:1.0;" x1="309.5" x2="309.5" y1="1709.1172" y2="1729.1172"/><polygon fill="#181818" points="305.5,1719.1172,309.5,1729.1172,313.5,1719.1172,309.5,1723.1172" style="stroke:#181818;stroke-width:1.0;"/><line style="stroke:#181818;stroke-width:1.0;" x1="309.5" x2="309.5" y1="1813.6836" y2="1836.25"/><polygon fill="#181818" points="305.5,1826.25,309.5,1836.25,313.5,1826.25,309.5,1830.25" style="stroke:#181818;stroke-width:1.0;"/><line style="stroke:#181818;stroke-width:1.0;" x1="309.5" x2="309.5" y1="1870.2188" y2="1890.2188"/><polygon fill="#181818" points="305.5,1880.2188,309.5,1890.2188,313.5,1880.2188,309.5,1884.2188" style="stroke:#181818;stroke-width:1.0;"/><!--MD5=[4c39d538731dc35d0dfe2760ae475bda]
@startuml
!pragma layout smetana
start
note right
constructor PSystemWelcome(UmlSourcesource,
GraphicPositionposition)
end note
:super (source);;
:this.position=position;;
:strings.add("<b>Welcome to PlantUML!");;
:strings.add(" ");;
:strings.add("You can start with a simple UML Diagram like:");;
:strings.add(" ");;
:strings.add("\"\"Bob->Alice: Hello\"\"");;
:strings.add(" ");;
:strings.add("Or");;
:strings.add(" ");;
:strings.add("\"\"class Example\"\"");;
:strings.add(" ");;
:strings.add("You will find more information about PlantUML syntax on <u>https://plantuml.com</u>");;
:strings.add(" ");;
:strings.add("(Details by typing \"\"license\"\" keyword)");;
:strings.add(" ");;
if (position==GraphicPosition.BACKGROUND_CORNER_BOTTOM_RIGHT) then (yes) 
:strings.add(" ");;
:strings.add(" ");;
:strings.add(" ");;
:strings.add(" ");;
endif 
end
start
note right
UDrawablegetRootDrawable(FileFormatOptionfileFormatOption)
end note
:return getGraphicStrings();;
stop
end
start
note right
TextBlockBackcoloredgetGraphicStrings()
end note
if (position!=null ) then (yes) 
:return GraphicStrings.createBlackOnWhite(strings,
PSystemVersion.getPlantumlImage(),position);;
stop
endif 
:return GraphicStrings.createBlackOnWhite(strings);;
stop
end
start
note right
DiagramDescriptiongetDescription()
end note
:return new DiagramDescription("(Empty)");;
stop
end
@enduml

PlantUML version 1.2022.7(Mon Aug 22 17:01:30 UTC 2022)
(GPL source distribution)
Java Runtime: OpenJDK Runtime Environment
JVM: OpenJDK 64-Bit Server VM
Default Encoding: UTF-8
Language: en
Country: null
--></g></svg>