<?xml version="1.0" encoding="UTF-8" standalone="no"?><svg xmlns="http://www.w3.org/2000/svg" xmlns:xlink="http://www.w3.org/1999/xlink" contentStyleType="text/css" height="186px" preserveAspectRatio="none" style="width:409px;height:186px;background:#FFFFFF;" version="1.1" viewBox="0 0 409 186" width="409px" zoomAndPan="magnify"><defs/><g><!--MD5=[782c9503a6c3485d1a9fe8e1e8423b77]
cluster net.sourceforge.plantuml.eggs--><g id="cluster_net.sourceforge.plantuml.eggs"><path d="M8.5,63 L254.5,63 A3.75,3.75 0 0 1 257,65.5 L264,85.2969 L399.5,85.2969 A2.5,2.5 0 0 1 402,87.7969 L402,176.5 A2.5,2.5 0 0 1 399.5,179 L8.5,179 A2.5,2.5 0 0 1 6,176.5 L6,65.5 A2.5,2.5 0 0 1 8.5,63 " fill="none" style="stroke:#000000;stroke-width:1.5;"/><line style="stroke:#000000;stroke-width:1.5;" x1="6" x2="264" y1="85.2969" y2="85.2969"/><text fill="#000000" font-family="sans-serif" font-size="14" font-weight="bold" lengthAdjust="spacing" textLength="245" x="10" y="77.9951">net.sourceforge.plantuml.eggs</text></g><!--MD5=[8ea4d35ad757f6d93229d655866b76c1]
class PlainStringsDiagram--><g id="elem_PlainStringsDiagram"><rect fill="#F1F1F1" height="48" id="PlainStringsDiagram" rx="2.5" ry="2.5" style="stroke:#181818;stroke-width:0.5;" width="169" x="119.5" y="6"/><ellipse cx="134.5" cy="22" fill="#ADD1B2" rx="11" ry="11" style="stroke:#181818;stroke-width:1.0;"/><path d="M137.4688,27.6406 Q136.8906,27.9375 136.25,28.0781 Q135.6094,28.2344 134.9063,28.2344 Q132.4063,28.2344 131.0781,26.5938 Q129.7656,24.9375 129.7656,21.8125 Q129.7656,18.6875 131.0781,17.0313 Q132.4063,15.375 134.9063,15.375 Q135.6094,15.375 136.25,15.5313 Q136.9063,15.6875 137.4688,15.9844 L137.4688,18.7031 Q136.8438,18.125 136.25,17.8594 Q135.6563,17.5781 135.0313,17.5781 Q133.6875,17.5781 133,18.6563 Q132.3125,19.7188 132.3125,21.8125 Q132.3125,23.9063 133,24.9844 Q133.6875,26.0469 135.0313,26.0469 Q135.6563,26.0469 136.25,25.7813 Q136.8438,25.5 137.4688,24.9219 L137.4688,27.6406 Z " fill="#000000"/><text fill="#000000" font-family="sans-serif" font-size="14" lengthAdjust="spacing" textLength="137" x="148.5" y="26.8467">PlainStringsDiagram</text><line style="stroke:#181818;stroke-width:0.5;" x1="120.5" x2="287.5" y1="38" y2="38"/><line style="stroke:#181818;stroke-width:0.5;" x1="120.5" x2="287.5" y1="46" y2="46"/></g><!--MD5=[f07f525a737c4946e49108734bbccd6e]
class net.sourceforge.plantuml.eggs.PSystemAppleTwo--><g id="elem_net.sourceforge.plantuml.eggs.PSystemAppleTwo"><rect codeLine="3" fill="#F1F1F1" height="80.5938" id="net.sourceforge.plantuml.eggs.PSystemAppleTwo" rx="2.5" ry="2.5" style="stroke:#181818;stroke-width:0.5;" width="380" x="14" y="90"/><ellipse cx="135.75" cy="106" fill="#ADD1B2" rx="11" ry="11" style="stroke:#181818;stroke-width:1.0;"/><path d="M138.7188,111.6406 Q138.1406,111.9375 137.5,112.0781 Q136.8594,112.2344 136.1563,112.2344 Q133.6563,112.2344 132.3281,110.5938 Q131.0156,108.9375 131.0156,105.8125 Q131.0156,102.6875 132.3281,101.0313 Q133.6563,99.375 136.1563,99.375 Q136.8594,99.375 137.5,99.5313 Q138.1563,99.6875 138.7188,99.9844 L138.7188,102.7031 Q138.0938,102.125 137.5,101.8594 Q136.9063,101.5781 136.2813,101.5781 Q134.9375,101.5781 134.25,102.6563 Q133.5625,103.7188 133.5625,105.8125 Q133.5625,107.9063 134.25,108.9844 Q134.9375,110.0469 136.2813,110.0469 Q136.9063,110.0469 137.5,109.7813 Q138.0938,109.5 138.7188,108.9219 L138.7188,111.6406 Z " fill="#000000"/><text fill="#000000" font-family="sans-serif" font-size="14" lengthAdjust="spacing" textLength="128" x="156.25" y="110.8467">PSystemAppleTwo</text><line style="stroke:#181818;stroke-width:0.5;" x1="15" x2="393" y1="122" y2="122"/><line style="stroke:#181818;stroke-width:0.5;" x1="15" x2="393" y1="130" y2="130"/><a href="./../../../../../.././qc/src/net/sourceforge/plantuml/eggs/PSystemAppleTwo.java.html#48" target="_top" title="./../../../../../.././qc/src/net/sourceforge/plantuml/eggs/PSystemAppleTwo.java.html#48" xlink:actuate="onRequest" xlink:href="./../../../../../.././qc/src/net/sourceforge/plantuml/eggs/PSystemAppleTwo.java.html#48" xlink:show="new" xlink:title="./../../../../../.././qc/src/net/sourceforge/plantuml/eggs/PSystemAppleTwo.java.html#48" xlink:type="simple"><rect fill="#F1F1F1" height="10" style="stroke:none;stroke-width:1.0;" width="20" x="20" y="138.6484"/><ellipse cx="25" cy="143.6484" fill="#84BE84" rx="3" ry="3" style="stroke:#038048;stroke-width:1.0;"/></a><a href="./../../../../../.././qc/src/net/sourceforge/plantuml/eggs/PSystemAppleTwo.java.html#48" target="_top" title="./../../../../../.././qc/src/net/sourceforge/plantuml/eggs/PSystemAppleTwo.java.html#48" xlink:actuate="onRequest" xlink:href="./../../../../../.././qc/src/net/sourceforge/plantuml/eggs/PSystemAppleTwo.java.html#48" xlink:show="new" xlink:title="./../../../../../.././qc/src/net/sourceforge/plantuml/eggs/PSystemAppleTwo.java.html#48" xlink:type="simple"><text fill="#000000" font-family="sans-serif" font-size="14" lengthAdjust="spacing" textLength="354" x="34" y="146.9951">PSystemAppleTwo(UmlSource) : PSystemAppleTwo</text></a><a href="./../../../../../.././qc/src/net/sourceforge/plantuml/eggs/PSystemAppleTwo.java.html#57" target="_top" title="./../../../../../.././qc/src/net/sourceforge/plantuml/eggs/PSystemAppleTwo.java.html#57" xlink:actuate="onRequest" xlink:href="./../../../../../.././qc/src/net/sourceforge/plantuml/eggs/PSystemAppleTwo.java.html#57" xlink:show="new" xlink:title="./../../../../../.././qc/src/net/sourceforge/plantuml/eggs/PSystemAppleTwo.java.html#57" xlink:type="simple"><rect fill="#F1F1F1" height="10" style="stroke:none;stroke-width:1.0;" width="20" x="20" y="154.9453"/><ellipse cx="25" cy="159.9453" fill="#84BE84" rx="3" ry="3" style="stroke:#038048;stroke-width:1.0;"/></a><a href="./../../../../../.././qc/src/net/sourceforge/plantuml/eggs/PSystemAppleTwo.java.html#57" target="_top" title="./../../../../../.././qc/src/net/sourceforge/plantuml/eggs/PSystemAppleTwo.java.html#57" xlink:actuate="onRequest" xlink:href="./../../../../../.././qc/src/net/sourceforge/plantuml/eggs/PSystemAppleTwo.java.html#57" xlink:show="new" xlink:title="./../../../../../.././qc/src/net/sourceforge/plantuml/eggs/PSystemAppleTwo.java.html#57" xlink:type="simple"><text fill="#000000" font-family="sans-serif" font-size="14" lengthAdjust="spacing" textLength="261" x="34" y="163.292">getDescription() : DiagramDescription</text></a></g><path d="M204,54.0939 C204,64.784 204,77.7904 204,89.9706 " fill="none" style="stroke:#181818;stroke-width:1.0;"/><polygon fill="#FFFFFF" points="204,54.0939,198,70.0939,210,70.0939,204,54.0939" style="stroke:#181818;stroke-width:1.0;"/><!--MD5=[358d422b942f71688fa3bd62913a27f3]
@startuml
!pragma layout smetana
"PlainStringsDiagram" <|- - "net.sourceforge.plantuml.eggs.PSystemAppleTwo"
class net.sourceforge.plantuml.eggs.PSystemAppleTwo {
+PSystemAppleTwo(UmlSource) : PSystemAppleTwo [[[./../../../../../.././qc/src/net/sourceforge/plantuml/eggs/PSystemAppleTwo.java.html#48]]]
+getDescription() : DiagramDescription [[[./../../../../../.././qc/src/net/sourceforge/plantuml/eggs/PSystemAppleTwo.java.html#57]]]
} 
@enduml

PlantUML version 1.2022.7(Mon Aug 22 17:01:30 UTC 2022)
(GPL source distribution)
Java Runtime: OpenJDK Runtime Environment
JVM: OpenJDK 64-Bit Server VM
Default Encoding: UTF-8
Language: en
Country: null
--></g></svg>