<?xml version="1.0" encoding="UTF-8" standalone="no"?><svg xmlns="http://www.w3.org/2000/svg" xmlns:xlink="http://www.w3.org/1999/xlink" contentStyleType="text/css" height="220px" preserveAspectRatio="none" style="width:423px;height:220px;background:#FFFFFF;" version="1.1" viewBox="0 0 423 220" width="423px" zoomAndPan="magnify"><defs/><g><!--MD5=[aa8f7b917213fcc1c2766e2d59b49067]
cluster java.lang--><g id="cluster_java.lang"><path d="M166.5,6 L236.5,6 A3.75,3.75 0 0 1 239,8.5 L246,28.2969 L255.5,28.2969 A2.5,2.5 0 0 1 258,30.7969 L258,86.5 A2.5,2.5 0 0 1 255.5,89 L166.5,89 A2.5,2.5 0 0 1 164,86.5 L164,8.5 A2.5,2.5 0 0 1 166.5,6 " fill="none" style="stroke:#000000;stroke-width:1.5;"/><line style="stroke:#000000;stroke-width:1.5;" x1="164" x2="246" y1="28.2969" y2="28.2969"/><text fill="#000000" font-family="sans-serif" font-size="14" font-weight="bold" lengthAdjust="spacing" textLength="69" x="168" y="20.9951">java.lang</text></g><!--MD5=[782c9503a6c3485d1a9fe8e1e8423b77]
cluster net.sourceforge.plantuml.eggs--><g id="cluster_net.sourceforge.plantuml.eggs"><path d="M8.5,97 L254.5,97 A3.75,3.75 0 0 1 257,99.5 L264,119.2969 L413.5,119.2969 A2.5,2.5 0 0 1 416,121.7969 L416,210.5 A2.5,2.5 0 0 1 413.5,213 L8.5,213 A2.5,2.5 0 0 1 6,210.5 L6,99.5 A2.5,2.5 0 0 1 8.5,97 " fill="none" style="stroke:#000000;stroke-width:1.5;"/><line style="stroke:#000000;stroke-width:1.5;" x1="6" x2="264" y1="119.2969" y2="119.2969"/><text fill="#000000" font-family="sans-serif" font-size="14" font-weight="bold" lengthAdjust="spacing" textLength="245" x="10" y="111.9951">net.sourceforge.plantuml.eggs</text></g><!--MD5=[274ad5661286b626a93603d287cbf95a]
class java.lang.Object--><g id="elem_java.lang.Object"><rect fill="#F1F1F1" height="48" id="java.lang.Object" rx="2.5" ry="2.5" style="stroke:#181818;stroke-width:0.5;" width="77" x="172.5" y="33"/><ellipse cx="187.5" cy="49" fill="#ADD1B2" rx="11" ry="11" style="stroke:#181818;stroke-width:1.0;"/><path d="M190.4688,54.6406 Q189.8906,54.9375 189.25,55.0781 Q188.6094,55.2344 187.9063,55.2344 Q185.4063,55.2344 184.0781,53.5938 Q182.7656,51.9375 182.7656,48.8125 Q182.7656,45.6875 184.0781,44.0313 Q185.4063,42.375 187.9063,42.375 Q188.6094,42.375 189.25,42.5313 Q189.9063,42.6875 190.4688,42.9844 L190.4688,45.7031 Q189.8438,45.125 189.25,44.8594 Q188.6563,44.5781 188.0313,44.5781 Q186.6875,44.5781 186,45.6563 Q185.3125,46.7188 185.3125,48.8125 Q185.3125,50.9063 186,51.9844 Q186.6875,53.0469 188.0313,53.0469 Q188.6563,53.0469 189.25,52.7813 Q189.8438,52.5 190.4688,51.9219 L190.4688,54.6406 Z " fill="#000000"/><text fill="#000000" font-family="sans-serif" font-size="14" lengthAdjust="spacing" textLength="45" x="201.5" y="53.8467">Object</text><line style="stroke:#181818;stroke-width:0.5;" x1="173.5" x2="248.5" y1="65" y2="65"/><line style="stroke:#181818;stroke-width:0.5;" x1="173.5" x2="248.5" y1="73" y2="73"/></g><!--MD5=[0ad6566db2291776fa9bf353d073d055]
class net.sourceforge.plantuml.eggs.SentenceProducer--><g id="elem_net.sourceforge.plantuml.eggs.SentenceProducer"><rect codeLine="3" fill="#F1F1F1" height="80.5938" id="net.sourceforge.plantuml.eggs.SentenceProducer" rx="2.5" ry="2.5" style="stroke:#181818;stroke-width:0.5;" width="394" x="14" y="124"/><ellipse cx="141.75" cy="140" fill="#ADD1B2" rx="11" ry="11" style="stroke:#181818;stroke-width:1.0;"/><path d="M144.7188,145.6406 Q144.1406,145.9375 143.5,146.0781 Q142.8594,146.2344 142.1563,146.2344 Q139.6563,146.2344 138.3281,144.5938 Q137.0156,142.9375 137.0156,139.8125 Q137.0156,136.6875 138.3281,135.0313 Q139.6563,133.375 142.1563,133.375 Q142.8594,133.375 143.5,133.5313 Q144.1563,133.6875 144.7188,133.9844 L144.7188,136.7031 Q144.0938,136.125 143.5,135.8594 Q142.9063,135.5781 142.2813,135.5781 Q140.9375,135.5781 140.25,136.6563 Q139.5625,137.7188 139.5625,139.8125 Q139.5625,141.9063 140.25,142.9844 Q140.9375,144.0469 142.2813,144.0469 Q142.9063,144.0469 143.5,143.7813 Q144.0938,143.5 144.7188,142.9219 L144.7188,145.6406 Z " fill="#000000"/><text fill="#000000" font-family="sans-serif" font-size="14" lengthAdjust="spacing" textLength="130" x="162.25" y="144.8467">SentenceProducer</text><line style="stroke:#181818;stroke-width:0.5;" x1="15" x2="407" y1="156" y2="156"/><line style="stroke:#181818;stroke-width:0.5;" x1="15" x2="407" y1="164" y2="164"/><a href="./../../../../../.././qc/src/net/sourceforge/plantuml/eggs/SentenceProducer.java.html#44" target="_top" title="./../../../../../.././qc/src/net/sourceforge/plantuml/eggs/SentenceProducer.java.html#44" xlink:actuate="onRequest" xlink:href="./../../../../../.././qc/src/net/sourceforge/plantuml/eggs/SentenceProducer.java.html#44" xlink:show="new" xlink:title="./../../../../../.././qc/src/net/sourceforge/plantuml/eggs/SentenceProducer.java.html#44" xlink:type="simple"><rect fill="#F1F1F1" height="10" style="stroke:none;stroke-width:1.0;" width="20" x="20" y="172.6484"/><ellipse cx="25" cy="177.6484" fill="#84BE84" rx="3" ry="3" style="stroke:#038048;stroke-width:1.0;"/></a><a href="./../../../../../.././qc/src/net/sourceforge/plantuml/eggs/SentenceProducer.java.html#44" target="_top" title="./../../../../../.././qc/src/net/sourceforge/plantuml/eggs/SentenceProducer.java.html#44" xlink:actuate="onRequest" xlink:href="./../../../../../.././qc/src/net/sourceforge/plantuml/eggs/SentenceProducer.java.html#44" xlink:show="new" xlink:title="./../../../../../.././qc/src/net/sourceforge/plantuml/eggs/SentenceProducer.java.html#44" xlink:type="simple"><text fill="#000000" font-family="sans-serif" font-size="14" lengthAdjust="spacing" textLength="368" x="34" y="180.9951">SentenceProducer(String;String) : SentenceProducer</text></a><a href="./../../../../../.././qc/src/net/sourceforge/plantuml/eggs/SentenceProducer.java.html#51" target="_top" title="./../../../../../.././qc/src/net/sourceforge/plantuml/eggs/SentenceProducer.java.html#51" xlink:actuate="onRequest" xlink:href="./../../../../../.././qc/src/net/sourceforge/plantuml/eggs/SentenceProducer.java.html#51" xlink:show="new" xlink:title="./../../../../../.././qc/src/net/sourceforge/plantuml/eggs/SentenceProducer.java.html#51" xlink:type="simple"><rect fill="#F1F1F1" height="10" style="stroke:none;stroke-width:1.0;" width="20" x="20" y="188.9453"/><ellipse cx="25" cy="193.9453" fill="#84BE84" rx="3" ry="3" style="stroke:#038048;stroke-width:1.0;"/></a><a href="./../../../../../.././qc/src/net/sourceforge/plantuml/eggs/SentenceProducer.java.html#51" target="_top" title="./../../../../../.././qc/src/net/sourceforge/plantuml/eggs/SentenceProducer.java.html#51" xlink:actuate="onRequest" xlink:href="./../../../../../.././qc/src/net/sourceforge/plantuml/eggs/SentenceProducer.java.html#51" xlink:show="new" xlink:title="./../../../../../.././qc/src/net/sourceforge/plantuml/eggs/SentenceProducer.java.html#51" xlink:type="simple"><text fill="#000000" font-family="sans-serif" font-size="14" lengthAdjust="spacing" textLength="131" x="34" y="197.292">getSecret() : String</text></a></g><path d="M211,81.1524 C211,93.6475 211,109.4184 211,123.8064 " fill="none" style="stroke:#181818;stroke-width:1.0;"/><polygon fill="#FFFFFF" points="211,81.1524,205,97.1524,217,97.1524,211,81.1524" style="stroke:#181818;stroke-width:1.0;"/><!--MD5=[b1c6f364430ff053f156cb4029ae3c3a]
@startuml
!pragma layout smetana
"java.lang.Object" <|- - "net.sourceforge.plantuml.eggs.SentenceProducer"
class net.sourceforge.plantuml.eggs.SentenceProducer {
+SentenceProducer(String;String) : SentenceProducer [[[./../../../../../.././qc/src/net/sourceforge/plantuml/eggs/SentenceProducer.java.html#44]]]
+getSecret() : String [[[./../../../../../.././qc/src/net/sourceforge/plantuml/eggs/SentenceProducer.java.html#51]]]
} 
@enduml

PlantUML version 1.2022.7(Mon Aug 22 17:01:30 UTC 2022)
(GPL source distribution)
Java Runtime: OpenJDK Runtime Environment
JVM: OpenJDK 64-Bit Server VM
Default Encoding: UTF-8
Language: en
Country: null
--></g></svg>