<?xml version="1.0" encoding="UTF-8" standalone="no"?><svg xmlns="http://www.w3.org/2000/svg" xmlns:xlink="http://www.w3.org/1999/xlink" contentStyleType="text/css" height="155px" preserveAspectRatio="none" style="width:585px;height:155px;background:#FFFFFF;" version="1.1" viewBox="0 0 585 155" width="585px" zoomAndPan="magnify"><defs/><g><path d="M154,10 L154,26.1328 L134,30.1328 L154,34.1328 L154,50.2656 A0,0 0 0 0 154,50.2656 L573,50.2656 A0,0 0 0 0 573,50.2656 L573,20 L563,10 L154,10 A0,0 0 0 0 154,10 " fill="#FEFFDD" style="stroke:#181818;stroke-width:0.5;"/><path d="M563,10 L563,20 L573,20 L563,10 " fill="#FEFFDD" style="stroke:#181818;stroke-width:0.5;"/><text fill="#000000" font-family="sans-serif" font-size="13" lengthAdjust="spacing" textLength="398" x="160" y="27.0669">void draw(UPolygonpoly,doublex,doubley,ColorMappermapper,</text><text fill="#000000" font-family="sans-serif" font-size="13" lengthAdjust="spacing" textLength="217" x="160" y="42.1997">UParamparam,VisioGraphicsvisio)</text><ellipse cx="124" cy="30.1328" fill="#222222" rx="10" ry="10" style="stroke:#222222;stroke-width:1.0;"/><rect fill="#F1F1F1" height="33.9688" rx="12.5" ry="12.5" style="stroke:#181818;stroke-width:0.5;" width="226" x="11" y="70.2656"/><text fill="#000000" font-family="sans-serif" font-size="12" lengthAdjust="spacing" textLength="206" x="21" y="91.4043">visio.polygon(poly.translate(x,y));</text><ellipse cx="124" cy="134.2344" fill="none" rx="10" ry="10" style="stroke:#222222;stroke-width:1.5;"/><line style="stroke:#222222;stroke-width:2.5;" x1="117.8128" x2="130.1872" y1="128.0472" y2="140.4216"/><line style="stroke:#222222;stroke-width:2.5;" x1="130.1872" x2="117.8128" y1="128.0472" y2="140.4216"/><line style="stroke:#181818;stroke-width:1.0;" x1="124" x2="124" y1="40.1328" y2="70.2656"/><polygon fill="#181818" points="120,60.2656,124,70.2656,128,60.2656,124,64.2656" style="stroke:#181818;stroke-width:1.0;"/><line style="stroke:#181818;stroke-width:1.0;" x1="124" x2="124" y1="104.2344" y2="124.2344"/><polygon fill="#181818" points="120,114.2344,124,124.2344,128,114.2344,124,118.2344" style="stroke:#181818;stroke-width:1.0;"/><!--MD5=[b3eb83d461b0433a8649ded749d49cfb]
@startuml
!pragma layout smetana
start
note right
void draw(UPolygonpoly,doublex,doubley,ColorMappermapper,
UParamparam,VisioGraphicsvisio)
end note
:visio.polygon(poly.translate(x,y));;
end
@enduml

PlantUML version 1.2022.7(Mon Aug 22 17:01:30 UTC 2022)
(GPL source distribution)
Java Runtime: OpenJDK Runtime Environment
JVM: OpenJDK 64-Bit Server VM
Default Encoding: UTF-8
Language: en
Country: null
--></g></svg>