<?xml version="1.0" encoding="UTF-8" standalone="no"?><svg xmlns="http://www.w3.org/2000/svg" xmlns:xlink="http://www.w3.org/1999/xlink" contentStyleType="text/css" height="202px" preserveAspectRatio="none" style="width:541px;height:202px;background:#FFFFFF;" version="1.1" viewBox="0 0 541 202" width="541px" zoomAndPan="magnify"><defs/><g><!--MD5=[87f369746c160a798da9214e8b9bcb09]
cluster net.sourceforge.plantuml.salt.factory--><g id="cluster_net.sourceforge.plantuml.salt.factory"><path d="M8.5,63 L304.5,63 A3.75,3.75 0 0 1 307,65.5 L314,85.2969 L531.5,85.2969 A2.5,2.5 0 0 1 534,87.7969 L534,192.5 A2.5,2.5 0 0 1 531.5,195 L8.5,195 A2.5,2.5 0 0 1 6,192.5 L6,65.5 A2.5,2.5 0 0 1 8.5,63 " fill="none" style="stroke:#000000;stroke-width:1.5;"/><line style="stroke:#000000;stroke-width:1.5;" x1="6" x2="314" y1="85.2969" y2="85.2969"/><text fill="#000000" font-family="sans-serif" font-size="14" font-weight="bold" lengthAdjust="spacing" textLength="295" x="10" y="77.9951">net.sourceforge.plantuml.salt.factory</text></g><!--MD5=[7da30a5a0f293128d0f221966bfa69b6]
class AbstractElementFactoryComplex--><g id="elem_AbstractElementFactoryComplex"><rect fill="#F1F1F1" height="48" id="AbstractElementFactoryComplex" rx="2.5" ry="2.5" style="stroke:#181818;stroke-width:0.5;" width="256" x="142" y="6"/><ellipse cx="157" cy="22" fill="#ADD1B2" rx="11" ry="11" style="stroke:#181818;stroke-width:1.0;"/><path d="M159.9688,27.6406 Q159.3906,27.9375 158.75,28.0781 Q158.1094,28.2344 157.4063,28.2344 Q154.9063,28.2344 153.5781,26.5938 Q152.2656,24.9375 152.2656,21.8125 Q152.2656,18.6875 153.5781,17.0313 Q154.9063,15.375 157.4063,15.375 Q158.1094,15.375 158.75,15.5313 Q159.4063,15.6875 159.9688,15.9844 L159.9688,18.7031 Q159.3438,18.125 158.75,17.8594 Q158.1563,17.5781 157.5313,17.5781 Q156.1875,17.5781 155.5,18.6563 Q154.8125,19.7188 154.8125,21.8125 Q154.8125,23.9063 155.5,24.9844 Q156.1875,26.0469 157.5313,26.0469 Q158.1563,26.0469 158.75,25.7813 Q159.3438,25.5 159.9688,24.9219 L159.9688,27.6406 Z " fill="#000000"/><text fill="#000000" font-family="sans-serif" font-size="14" lengthAdjust="spacing" textLength="224" x="171" y="26.8467">AbstractElementFactoryComplex</text><line style="stroke:#181818;stroke-width:0.5;" x1="143" x2="397" y1="38" y2="38"/><line style="stroke:#181818;stroke-width:0.5;" x1="143" x2="397" y1="46" y2="46"/></g><!--MD5=[18bc3bd74c91706247c9ad9f20497529]
class net.sourceforge.plantuml.salt.factory.ElementFactoryBorder--><g id="elem_net.sourceforge.plantuml.salt.factory.ElementFactoryBorder"><rect codeLine="3" fill="#F1F1F1" height="96.8906" id="net.sourceforge.plantuml.salt.factory.ElementFactoryBorder" rx="2.5" ry="2.5" style="stroke:#181818;stroke-width:0.5;" width="511" x="14.5" y="90"/><ellipse cx="188.75" cy="106" fill="#ADD1B2" rx="11" ry="11" style="stroke:#181818;stroke-width:1.0;"/><path d="M191.7188,111.6406 Q191.1406,111.9375 190.5,112.0781 Q189.8594,112.2344 189.1563,112.2344 Q186.6563,112.2344 185.3281,110.5938 Q184.0156,108.9375 184.0156,105.8125 Q184.0156,102.6875 185.3281,101.0313 Q186.6563,99.375 189.1563,99.375 Q189.8594,99.375 190.5,99.5313 Q191.1563,99.6875 191.7188,99.9844 L191.7188,102.7031 Q191.0938,102.125 190.5,101.8594 Q189.9063,101.5781 189.2813,101.5781 Q187.9375,101.5781 187.25,102.6563 Q186.5625,103.7188 186.5625,105.8125 Q186.5625,107.9063 187.25,108.9844 Q187.9375,110.0469 189.2813,110.0469 Q189.9063,110.0469 190.5,109.7813 Q191.0938,109.5 191.7188,108.9219 L191.7188,111.6406 Z " fill="#000000"/><text fill="#000000" font-family="sans-serif" font-size="14" lengthAdjust="spacing" textLength="154" x="209.25" y="110.8467">ElementFactoryBorder</text><line style="stroke:#181818;stroke-width:0.5;" x1="15.5" x2="524.5" y1="122" y2="122"/><line style="stroke:#181818;stroke-width:0.5;" x1="15.5" x2="524.5" y1="130" y2="130"/><a href="./../../../../../../.././qc/src/net/sourceforge/plantuml/salt/factory/ElementFactoryBorder.java.html#46" target="_top" title="./../../../../../../.././qc/src/net/sourceforge/plantuml/salt/factory/ElementFactoryBorder.java.html#46" xlink:actuate="onRequest" xlink:href="./../../../../../../.././qc/src/net/sourceforge/plantuml/salt/factory/ElementFactoryBorder.java.html#46" xlink:show="new" xlink:title="./../../../../../../.././qc/src/net/sourceforge/plantuml/salt/factory/ElementFactoryBorder.java.html#46" xlink:type="simple"><rect fill="#F1F1F1" height="10" style="stroke:none;stroke-width:1.0;" width="20" x="20.5" y="138.6484"/><ellipse cx="25.5" cy="143.6484" fill="#84BE84" rx="3" ry="3" style="stroke:#038048;stroke-width:1.0;"/></a><a href="./../../../../../../.././qc/src/net/sourceforge/plantuml/salt/factory/ElementFactoryBorder.java.html#46" target="_top" title="./../../../../../../.././qc/src/net/sourceforge/plantuml/salt/factory/ElementFactoryBorder.java.html#46" xlink:actuate="onRequest" xlink:href="./../../../../../../.././qc/src/net/sourceforge/plantuml/salt/factory/ElementFactoryBorder.java.html#46" xlink:show="new" xlink:title="./../../../../../../.././qc/src/net/sourceforge/plantuml/salt/factory/ElementFactoryBorder.java.html#46" xlink:type="simple"><text fill="#000000" font-family="sans-serif" font-size="14" lengthAdjust="spacing" textLength="485" x="34.5" y="146.9951">ElementFactoryBorder(DataSource;Dictionary) : ElementFactoryBorder</text></a><a href="./../../../../../../.././qc/src/net/sourceforge/plantuml/salt/factory/ElementFactoryBorder.java.html#50" target="_top" title="./../../../../../../.././qc/src/net/sourceforge/plantuml/salt/factory/ElementFactoryBorder.java.html#50" xlink:actuate="onRequest" xlink:href="./../../../../../../.././qc/src/net/sourceforge/plantuml/salt/factory/ElementFactoryBorder.java.html#50" xlink:show="new" xlink:title="./../../../../../../.././qc/src/net/sourceforge/plantuml/salt/factory/ElementFactoryBorder.java.html#50" xlink:type="simple"><rect fill="#F1F1F1" height="10" style="stroke:none;stroke-width:1.0;" width="20" x="20.5" y="154.9453"/><ellipse cx="25.5" cy="159.9453" fill="#84BE84" rx="3" ry="3" style="stroke:#038048;stroke-width:1.0;"/></a><a href="./../../../../../../.././qc/src/net/sourceforge/plantuml/salt/factory/ElementFactoryBorder.java.html#50" target="_top" title="./../../../../../../.././qc/src/net/sourceforge/plantuml/salt/factory/ElementFactoryBorder.java.html#50" xlink:actuate="onRequest" xlink:href="./../../../../../../.././qc/src/net/sourceforge/plantuml/salt/factory/ElementFactoryBorder.java.html#50" xlink:show="new" xlink:title="./../../../../../../.././qc/src/net/sourceforge/plantuml/salt/factory/ElementFactoryBorder.java.html#50" xlink:type="simple"><text fill="#000000" font-family="sans-serif" font-size="14" lengthAdjust="spacing" textLength="227" x="34.5" y="163.292">create() : Terminated&lt;Element&gt;</text></a><a href="./../../../../../../.././qc/src/net/sourceforge/plantuml/salt/factory/ElementFactoryBorder.java.html#91" target="_top" title="./../../../../../../.././qc/src/net/sourceforge/plantuml/salt/factory/ElementFactoryBorder.java.html#91" xlink:actuate="onRequest" xlink:href="./../../../../../../.././qc/src/net/sourceforge/plantuml/salt/factory/ElementFactoryBorder.java.html#91" xlink:show="new" xlink:title="./../../../../../../.././qc/src/net/sourceforge/plantuml/salt/factory/ElementFactoryBorder.java.html#91" xlink:type="simple"><rect fill="#F1F1F1" height="10" style="stroke:none;stroke-width:1.0;" width="20" x="20.5" y="171.2422"/><ellipse cx="25.5" cy="176.2422" fill="#84BE84" rx="3" ry="3" style="stroke:#038048;stroke-width:1.0;"/></a><a href="./../../../../../../.././qc/src/net/sourceforge/plantuml/salt/factory/ElementFactoryBorder.java.html#91" target="_top" title="./../../../../../../.././qc/src/net/sourceforge/plantuml/salt/factory/ElementFactoryBorder.java.html#91" xlink:actuate="onRequest" xlink:href="./../../../../../../.././qc/src/net/sourceforge/plantuml/salt/factory/ElementFactoryBorder.java.html#91" xlink:show="new" xlink:title="./../../../../../../.././qc/src/net/sourceforge/plantuml/salt/factory/ElementFactoryBorder.java.html#91" xlink:type="simple"><text fill="#000000" font-family="sans-serif" font-size="14" lengthAdjust="spacing" textLength="117" x="34.5" y="179.5889">ready() : boolean</text></a></g><path d="M270,54.1089 C270,64.6313 270,77.495 270,89.9394 " fill="none" style="stroke:#181818;stroke-width:1.0;"/><polygon fill="#FFFFFF" points="270,54.1089,264,70.1089,276,70.1089,270,54.1089" style="stroke:#181818;stroke-width:1.0;"/><!--MD5=[f8c833187976f5c03ce95b6663392ea1]
@startuml
!pragma layout smetana
"AbstractElementFactoryComplex" <|- - "net.sourceforge.plantuml.salt.factory.ElementFactoryBorder"
class net.sourceforge.plantuml.salt.factory.ElementFactoryBorder {
+ElementFactoryBorder(DataSource;Dictionary) : ElementFactoryBorder [[[./../../../../../../.././qc/src/net/sourceforge/plantuml/salt/factory/ElementFactoryBorder.java.html#46]]]
+create() : Terminated<Element> [[[./../../../../../../.././qc/src/net/sourceforge/plantuml/salt/factory/ElementFactoryBorder.java.html#50]]]
+ready() : boolean [[[./../../../../../../.././qc/src/net/sourceforge/plantuml/salt/factory/ElementFactoryBorder.java.html#91]]]
} 
@enduml

PlantUML version 1.2022.7(Mon Aug 22 17:01:30 UTC 2022)
(GPL source distribution)
Java Runtime: OpenJDK Runtime Environment
JVM: OpenJDK 64-Bit Server VM
Default Encoding: UTF-8
Language: en
Country: null
--></g></svg>