<?xml version="1.0" encoding="UTF-8" standalone="no"?><svg xmlns="http://www.w3.org/2000/svg" xmlns:xlink="http://www.w3.org/1999/xlink" contentStyleType="text/css" height="186px" preserveAspectRatio="none" style="width:575px;height:186px;background:#FFFFFF;" version="1.1" viewBox="0 0 575 186" width="575px" zoomAndPan="magnify"><defs/><g><!--MD5=[6c98219dce0294685b2567e41f976c90]
cluster net.sourceforge.plantuml.descdiagram--><g id="cluster_net.sourceforge.plantuml.descdiagram"><path d="M8.5,63 L316.5,63 A3.75,3.75 0 0 1 319,65.5 L326,85.2969 L565.5,85.2969 A2.5,2.5 0 0 1 568,87.7969 L568,176.5 A2.5,2.5 0 0 1 565.5,179 L8.5,179 A2.5,2.5 0 0 1 6,176.5 L6,65.5 A2.5,2.5 0 0 1 8.5,63 " fill="none" style="stroke:#000000;stroke-width:1.5;"/><line style="stroke:#000000;stroke-width:1.5;" x1="6" x2="326" y1="85.2969" y2="85.2969"/><text fill="#000000" font-family="sans-serif" font-size="14" font-weight="bold" lengthAdjust="spacing" textLength="307" x="10" y="77.9951">net.sourceforge.plantuml.descdiagram</text></g><!--MD5=[ade19ff5ad2951871d04c6ec2e133abc]
class PSystemCommandFactory--><g id="elem_PSystemCommandFactory"><rect fill="#F1F1F1" height="48" id="PSystemCommandFactory" rx="2.5" ry="2.5" style="stroke:#181818;stroke-width:0.5;" width="213" x="180.5" y="6"/><ellipse cx="195.5" cy="22" fill="#ADD1B2" rx="11" ry="11" style="stroke:#181818;stroke-width:1.0;"/><path d="M198.4688,27.6406 Q197.8906,27.9375 197.25,28.0781 Q196.6094,28.2344 195.9063,28.2344 Q193.4063,28.2344 192.0781,26.5938 Q190.7656,24.9375 190.7656,21.8125 Q190.7656,18.6875 192.0781,17.0313 Q193.4063,15.375 195.9063,15.375 Q196.6094,15.375 197.25,15.5313 Q197.9063,15.6875 198.4688,15.9844 L198.4688,18.7031 Q197.8438,18.125 197.25,17.8594 Q196.6563,17.5781 196.0313,17.5781 Q194.6875,17.5781 194,18.6563 Q193.3125,19.7188 193.3125,21.8125 Q193.3125,23.9063 194,24.9844 Q194.6875,26.0469 196.0313,26.0469 Q196.6563,26.0469 197.25,25.7813 Q197.8438,25.5 198.4688,24.9219 L198.4688,27.6406 Z " fill="#000000"/><text fill="#000000" font-family="sans-serif" font-size="14" lengthAdjust="spacing" textLength="181" x="209.5" y="26.8467">PSystemCommandFactory</text><line style="stroke:#181818;stroke-width:0.5;" x1="181.5" x2="392.5" y1="38" y2="38"/><line style="stroke:#181818;stroke-width:0.5;" x1="181.5" x2="392.5" y1="46" y2="46"/></g><!--MD5=[40bfaa4873dc45c2e723f944a7b90ba9]
class net.sourceforge.plantuml.descdiagram.DescriptionDiagramFactory--><g id="elem_net.sourceforge.plantuml.descdiagram.DescriptionDiagramFactory"><rect codeLine="3" fill="#F1F1F1" height="80.5938" id="net.sourceforge.plantuml.descdiagram.DescriptionDiagramFactory" rx="2.5" ry="2.5" style="stroke:#181818;stroke-width:0.5;" width="546" x="14" y="90"/><ellipse cx="189.75" cy="106" fill="#ADD1B2" rx="11" ry="11" style="stroke:#181818;stroke-width:1.0;"/><path d="M192.7188,111.6406 Q192.1406,111.9375 191.5,112.0781 Q190.8594,112.2344 190.1563,112.2344 Q187.6563,112.2344 186.3281,110.5938 Q185.0156,108.9375 185.0156,105.8125 Q185.0156,102.6875 186.3281,101.0313 Q187.6563,99.375 190.1563,99.375 Q190.8594,99.375 191.5,99.5313 Q192.1563,99.6875 192.7188,99.9844 L192.7188,102.7031 Q192.0938,102.125 191.5,101.8594 Q190.9063,101.5781 190.2813,101.5781 Q188.9375,101.5781 188.25,102.6563 Q187.5625,103.7188 187.5625,105.8125 Q187.5625,107.9063 188.25,108.9844 Q188.9375,110.0469 190.2813,110.0469 Q190.9063,110.0469 191.5,109.7813 Q192.0938,109.5 192.7188,108.9219 L192.7188,111.6406 Z " fill="#000000"/><text fill="#000000" font-family="sans-serif" font-size="14" lengthAdjust="spacing" textLength="186" x="210.25" y="110.8467">DescriptionDiagramFactory</text><line style="stroke:#181818;stroke-width:0.5;" x1="15" x2="559" y1="122" y2="122"/><line style="stroke:#181818;stroke-width:0.5;" x1="15" x2="559" y1="130" y2="130"/><a href="./../../../../../.././qc/src/net/sourceforge/plantuml/descdiagram/DescriptionDiagramFactory.java.html#72" target="_top" title="./../../../../../.././qc/src/net/sourceforge/plantuml/descdiagram/DescriptionDiagramFactory.java.html#72" xlink:actuate="onRequest" xlink:href="./../../../../../.././qc/src/net/sourceforge/plantuml/descdiagram/DescriptionDiagramFactory.java.html#72" xlink:show="new" xlink:title="./../../../../../.././qc/src/net/sourceforge/plantuml/descdiagram/DescriptionDiagramFactory.java.html#72" xlink:type="simple"><rect fill="#F1F1F1" height="10" style="stroke:none;stroke-width:1.0;" width="20" x="20" y="138.6484"/><ellipse cx="25" cy="143.6484" fill="#84BE84" rx="3" ry="3" style="stroke:#038048;stroke-width:1.0;"/></a><a href="./../../../../../.././qc/src/net/sourceforge/plantuml/descdiagram/DescriptionDiagramFactory.java.html#72" target="_top" title="./../../../../../.././qc/src/net/sourceforge/plantuml/descdiagram/DescriptionDiagramFactory.java.html#72" xlink:actuate="onRequest" xlink:href="./../../../../../.././qc/src/net/sourceforge/plantuml/descdiagram/DescriptionDiagramFactory.java.html#72" xlink:show="new" xlink:title="./../../../../../.././qc/src/net/sourceforge/plantuml/descdiagram/DescriptionDiagramFactory.java.html#72" xlink:type="simple"><text fill="#000000" font-family="sans-serif" font-size="14" lengthAdjust="spacing" textLength="520" x="34" y="146.9951">createEmptyDiagram(UmlSource;Map&lt;String,String&gt;) : DescriptionDiagram</text></a><a href="./../../../../../.././qc/src/net/sourceforge/plantuml/descdiagram/DescriptionDiagramFactory.java.html#77" target="_top" title="./../../../../../.././qc/src/net/sourceforge/plantuml/descdiagram/DescriptionDiagramFactory.java.html#77" xlink:actuate="onRequest" xlink:href="./../../../../../.././qc/src/net/sourceforge/plantuml/descdiagram/DescriptionDiagramFactory.java.html#77" xlink:show="new" xlink:title="./../../../../../.././qc/src/net/sourceforge/plantuml/descdiagram/DescriptionDiagramFactory.java.html#77" xlink:type="simple"><text fill="#000000" font-family="sans-serif" font-size="14" lengthAdjust="spacing" textLength="264" x="34" y="163.292">createCommands() : List&lt;Command&gt;</text></a></g><path d="M287,54.0939 C287,64.784 287,77.7904 287,89.9706 " fill="none" style="stroke:#181818;stroke-width:1.0;"/><polygon fill="#FFFFFF" points="287,54.0939,281,70.0939,293,70.0939,287,54.0939" style="stroke:#181818;stroke-width:1.0;"/><!--MD5=[462e077fab7ef58ea4cf8b01013d81d6]
@startuml
!pragma layout smetana
"PSystemCommandFactory" <|- - "net.sourceforge.plantuml.descdiagram.DescriptionDiagramFactory"
class net.sourceforge.plantuml.descdiagram.DescriptionDiagramFactory {
+createEmptyDiagram(UmlSource;Map<String,String>) : DescriptionDiagram [[[./../../../../../.././qc/src/net/sourceforge/plantuml/descdiagram/DescriptionDiagramFactory.java.html#72]]]
createCommands() : List<Command> [[[./../../../../../.././qc/src/net/sourceforge/plantuml/descdiagram/DescriptionDiagramFactory.java.html#77]]]
} 
@enduml

PlantUML version 1.2022.7(Mon Aug 22 17:01:30 UTC 2022)
(GPL source distribution)
Java Runtime: OpenJDK Runtime Environment
JVM: OpenJDK 64-Bit Server VM
Default Encoding: UTF-8
Language: en
Country: null
--></g></svg>