<?xml version="1.0" encoding="UTF-8" standalone="no"?><svg xmlns="http://www.w3.org/2000/svg" xmlns:xlink="http://www.w3.org/1999/xlink" contentStyleType="text/css" height="3676px" preserveAspectRatio="none" style="width:1099px;height:3676px;background:#FFFFFF;" version="1.1" viewBox="0 0 1099 3676" width="1099px" zoomAndPan="magnify"><defs/><g><path d="M471.5,10 L471.5,26.1328 L451.5,30.1328 L471.5,34.1328 L471.5,50.2656 A0,0 0 0 0 471.5,50.2656 L834.5,50.2656 A0,0 0 0 0 834.5,50.2656 L834.5,20 L824.5,10 L471.5,10 A0,0 0 0 0 471.5,10 " fill="#FEFFDD" style="stroke:#181818;stroke-width:0.5;"/><path d="M824.5,10 L824.5,20 L834.5,20 L824.5,10 " fill="#FEFFDD" style="stroke:#181818;stroke-width:0.5;"/><text fill="#000000" font-family="sans-serif" font-size="13" lengthAdjust="spacing" textLength="342" x="477.5" y="27.0669">constructor EntityImageDesignedDomain(ILeaf entity,</text><text fill="#000000" font-family="sans-serif" font-size="13" lengthAdjust="spacing" textLength="148" x="477.5" y="42.1997">ISkinParam skinParam)</text><ellipse cx="441.5" cy="30.1328" fill="#222222" rx="10" ry="10" style="stroke:#222222;stroke-width:1.0;"/><rect fill="#F1F1F1" height="33.9688" rx="12.5" ry="12.5" style="stroke:#181818;stroke-width:0.5;" width="178" x="352.5" y="70.2656"/><text fill="#000000" font-family="sans-serif" font-size="12" lengthAdjust="spacing" textLength="158" x="362.5" y="91.4043">super (entity,skinParam);</text><rect fill="#F1F1F1" height="33.9688" rx="12.5" ry="12.5" style="stroke:#181818;stroke-width:0.5;" width="344" x="269.5" y="124.2344"/><text fill="#000000" font-family="sans-serif" font-size="12" lengthAdjust="spacing" textLength="324" x="279.5" y="145.373">final Stereotype stereotype=entity.getStereotype();</text><rect fill="#F1F1F1" height="61.9063" rx="12.5" ry="12.5" style="stroke:#181818;stroke-width:0.5;" width="681" x="101" y="178.2031"/><text fill="#000000" font-family="sans-serif" font-size="12" lengthAdjust="spacing" textLength="661" x="111" y="199.3418">this.name=TextBlockUtils.withMargin(entity.getDisplay().create(FontConfiguration.create(getSkinParam(),</text><text fill="#000000" font-family="sans-serif" font-size="12" lengthAdjust="spacing" textLength="450" x="111" y="213.3105">FontParam.DESIGNED_DOMAIN,stereotype),HorizontalAlignment.CENTER,</text><text fill="#000000" font-family="sans-serif" font-size="12" lengthAdjust="spacing" textLength="103" x="111" y="227.2793">skinParam),2,2);</text><polygon fill="#F1F1F1" points="211,260.1094,672,260.1094,684,272.1094,672,284.1094,211,284.1094,199,272.1094,211,260.1094" style="stroke:#181818;stroke-width:0.5;"/><text fill="#000000" font-family="sans-serif" font-size="11" lengthAdjust="spacing" textLength="457" x="211" y="275.9175">stereotype==null ||stereotype.getLabel(Guillemet.DOUBLE_COMPARATOR)==null</text><text fill="#000000" font-family="sans-serif" font-size="11" lengthAdjust="spacing" textLength="20" x="179" y="269.5151">yes</text><text fill="#000000" font-family="sans-serif" font-size="11" lengthAdjust="spacing" textLength="14" x="684" y="269.5151">no</text><rect fill="#F1F1F1" height="33.9688" rx="12.5" ry="12.5" style="stroke:#181818;stroke-width:0.5;" width="128" x="125" y="294.1094"/><text fill="#000000" font-family="sans-serif" font-size="12" lengthAdjust="spacing" textLength="108" x="135" y="315.248">this.stereo=null ;</text><rect fill="#F1F1F1" height="61.9063" rx="12.5" ry="12.5" style="stroke:#181818;stroke-width:0.5;" width="789" x="299.5" y="294.1094"/><text fill="#000000" font-family="sans-serif" font-size="12" lengthAdjust="spacing" textLength="769" x="309.5" y="315.248">this.stereo=Display.create(stereotype.getLabels(skinParam.guillemet())).create(FontConfiguration.create(getSkinParam(),</text><text fill="#000000" font-family="sans-serif" font-size="12" lengthAdjust="spacing" textLength="354" x="309.5" y="329.2168">FontParam.DESIGNED_DOMAIN_STEREOTYPE,stereotype),</text><text fill="#000000" font-family="sans-serif" font-size="12" lengthAdjust="spacing" textLength="254" x="309.5" y="343.1855">HorizontalAlignment.CENTER,skinParam);</text><polygon fill="#F1F1F1" points="441.5,362.0156,453.5,374.0156,441.5,386.0156,429.5,374.0156,441.5,362.0156" style="stroke:#181818;stroke-width:0.5;"/><rect fill="#F1F1F1" height="33.9688" rx="12.5" ry="12.5" style="stroke:#181818;stroke-width:0.5;" width="180" x="351.5" y="406.0156"/><text fill="#000000" font-family="sans-serif" font-size="12" lengthAdjust="spacing" textLength="160" x="361.5" y="427.1543">this.url=entity.getUrl99();</text><ellipse cx="441.5" cy="469.9844" fill="none" rx="10" ry="10" style="stroke:#222222;stroke-width:1.5;"/><line style="stroke:#222222;stroke-width:2.5;" x1="435.3128" x2="447.6872" y1="463.7972" y2="476.1716"/><line style="stroke:#222222;stroke-width:2.5;" x1="447.6872" x2="435.3128" y1="463.7972" y2="476.1716"/><path d="M471.5,489.9844 L471.5,498.5508 L451.5,502.5508 L471.5,506.5508 L471.5,515.1172 A0,0 0 0 0 471.5,515.1172 L621.5,515.1172 A0,0 0 0 0 621.5,515.1172 L621.5,499.9844 L611.5,489.9844 L471.5,489.9844 A0,0 0 0 0 471.5,489.9844 " fill="#FEFFDD" style="stroke:#181818;stroke-width:0.5;"/><path d="M611.5,489.9844 L611.5,499.9844 L621.5,499.9844 L611.5,489.9844 " fill="#FEFFDD" style="stroke:#181818;stroke-width:0.5;"/><text fill="#000000" font-family="sans-serif" font-size="13" lengthAdjust="spacing" textLength="129" x="477.5" y="507.0513">UStroke getStroke()</text><ellipse cx="441.5" cy="502.5508" fill="#222222" rx="10" ry="10" style="stroke:#222222;stroke-width:1.0;"/><rect fill="#F1F1F1" height="47.9375" rx="12.5" ry="12.5" style="stroke:#181818;stroke-width:0.5;" width="533" x="175" y="535.1172"/><text fill="#000000" font-family="sans-serif" font-size="12" lengthAdjust="spacing" textLength="513" x="185" y="556.2559">UStroke stroke=getSkinParam().getThickness(LineParam.designedDomainBorder,</text><text fill="#000000" font-family="sans-serif" font-size="12" lengthAdjust="spacing" textLength="82" x="185" y="570.2246">getStereo());</text><rect fill="#F1F1F1" height="33.9688" rx="12.5" ry="12.5" style="stroke:#181818;stroke-width:0.5;" width="183" x="350" y="651.457"/><text fill="#000000" font-family="sans-serif" font-size="12" lengthAdjust="spacing" textLength="163" x="360" y="672.5957">stroke=new UStroke(1.5);</text><polygon fill="#F1F1F1" points="402.5,603.0547,480.5,603.0547,492.5,615.0547,480.5,627.0547,402.5,627.0547,390.5,615.0547,402.5,603.0547" style="stroke:#181818;stroke-width:0.5;"/><text fill="#000000" font-family="sans-serif" font-size="11" lengthAdjust="spacing" textLength="20" x="445.5" y="637.2651">yes</text><text fill="#000000" font-family="sans-serif" font-size="11" lengthAdjust="spacing" textLength="74" x="402.5" y="618.8628">stroke==null</text><polygon fill="#F1F1F1" points="441.5,705.4258,453.5,717.4258,441.5,729.4258,429.5,717.4258,441.5,705.4258" style="stroke:#181818;stroke-width:0.5;"/><rect fill="#F1F1F1" height="33.9688" rx="12.5" ry="12.5" style="stroke:#181818;stroke-width:0.5;" width="107" x="388" y="749.4258"/><text fill="#000000" font-family="sans-serif" font-size="12" lengthAdjust="spacing" textLength="87" x="398" y="770.5645">return stroke;</text><ellipse cx="441.5" cy="814.3945" fill="none" rx="11" ry="11" style="stroke:#222222;stroke-width:1.0;"/><ellipse cx="441.5" cy="814.3945" fill="#222222" rx="6" ry="6" style="stroke:#111111;stroke-width:1.0;"/><ellipse cx="441.5" cy="845.3945" fill="none" rx="10" ry="10" style="stroke:#222222;stroke-width:1.5;"/><line style="stroke:#222222;stroke-width:2.5;" x1="435.3128" x2="447.6872" y1="839.2073" y2="851.5817"/><line style="stroke:#222222;stroke-width:2.5;" x1="447.6872" x2="435.3128" y1="839.2073" y2="851.5817"/><path d="M471.5,865.3945 L471.5,873.9609 L451.5,877.9609 L471.5,881.9609 L471.5,890.5273 A0,0 0 0 0 471.5,890.5273 L901.5,890.5273 A0,0 0 0 0 901.5,890.5273 L901.5,875.3945 L891.5,865.3945 L471.5,865.3945 A0,0 0 0 0 471.5,865.3945 " fill="#FEFFDD" style="stroke:#181818;stroke-width:0.5;"/><path d="M891.5,865.3945 L891.5,875.3945 L901.5,875.3945 L891.5,865.3945 " fill="#FEFFDD" style="stroke:#181818;stroke-width:0.5;"/><text fill="#000000" font-family="sans-serif" font-size="13" lengthAdjust="spacing" textLength="409" x="477.5" y="882.4614">XDimension2D getTitleDimension(StringBounder stringBounder)</text><ellipse cx="441.5" cy="877.9609" fill="#222222" rx="10" ry="10" style="stroke:#222222;stroke-width:1.0;"/><rect fill="#F1F1F1" height="33.9688" rx="12.5" ry="12.5" style="stroke:#181818;stroke-width:0.5;" width="373" x="255" y="910.5273"/><text fill="#000000" font-family="sans-serif" font-size="12" lengthAdjust="spacing" textLength="353" x="265" y="931.666">return getNameAndSteretypeDimension(stringBounder);</text><ellipse cx="441.5" cy="975.4961" fill="none" rx="11" ry="11" style="stroke:#222222;stroke-width:1.0;"/><ellipse cx="441.5" cy="975.4961" fill="#222222" rx="6" ry="6" style="stroke:#111111;stroke-width:1.0;"/><ellipse cx="441.5" cy="1006.4961" fill="none" rx="10" ry="10" style="stroke:#222222;stroke-width:1.5;"/><line style="stroke:#222222;stroke-width:2.5;" x1="435.3128" x2="447.6872" y1="1000.3089" y2="1012.6833"/><line style="stroke:#222222;stroke-width:2.5;" x1="447.6872" x2="435.3128" y1="1000.3089" y2="1012.6833"/><path d="M471.5,1026.4961 L471.5,1035.0625 L451.5,1039.0625 L471.5,1043.0625 L471.5,1051.6289 A0,0 0 0 0 471.5,1051.6289 L1002.5,1051.6289 A0,0 0 0 0 1002.5,1051.6289 L1002.5,1036.4961 L992.5,1026.4961 L471.5,1026.4961 A0,0 0 0 0 471.5,1026.4961 " fill="#FEFFDD" style="stroke:#181818;stroke-width:0.5;"/><path d="M992.5,1026.4961 L992.5,1036.4961 L1002.5,1036.4961 L992.5,1026.4961 " fill="#FEFFDD" style="stroke:#181818;stroke-width:0.5;"/><text fill="#000000" font-family="sans-serif" font-size="13" lengthAdjust="spacing" textLength="510" x="477.5" y="1043.563">XDimension2D getNameAndSteretypeDimension(StringBounder stringBounder)</text><ellipse cx="441.5" cy="1039.0625" fill="#222222" rx="10" ry="10" style="stroke:#222222;stroke-width:1.0;"/><rect fill="#F1F1F1" height="33.9688" rx="12.5" ry="12.5" style="stroke:#181818;stroke-width:0.5;" width="475" x="204" y="1071.6289"/><text fill="#000000" font-family="sans-serif" font-size="12" lengthAdjust="spacing" textLength="455" x="214" y="1092.7676">final XDimension2D nameDim=name.calculateDimension(stringBounder);</text><rect fill="#F1F1F1" height="47.9375" rx="12.5" ry="12.5" style="stroke:#181818;stroke-width:0.5;" width="449" x="217" y="1125.5977"/><text fill="#000000" font-family="sans-serif" font-size="12" lengthAdjust="spacing" textLength="429" x="227" y="1146.7363">final XDimension2D stereoDim=stereo==null ? new XDimension2D(0,</text><text fill="#000000" font-family="sans-serif" font-size="12" lengthAdjust="spacing" textLength="287" x="227" y="1160.7051">0):stereo.calculateDimension(stringBounder);</text><rect fill="#F1F1F1" height="47.9375" rx="12.5" ry="12.5" style="stroke:#181818;stroke-width:0.5;" width="861" x="11" y="1193.5352"/><text fill="#000000" font-family="sans-serif" font-size="12" lengthAdjust="spacing" textLength="841" x="21" y="1214.6738">final XDimension2D nameAndStereo=new XDimension2D(Math.max(nameDim.getWidth(),stereoDim.getWidth()),nameDim.getHeight()+</text><text fill="#000000" font-family="sans-serif" font-size="12" lengthAdjust="spacing" textLength="149" x="21" y="1228.6426">stereoDim.getHeight());</text><rect fill="#F1F1F1" height="33.9688" rx="12.5" ry="12.5" style="stroke:#181818;stroke-width:0.5;" width="168" x="357.5" y="1261.4727"/><text fill="#000000" font-family="sans-serif" font-size="12" lengthAdjust="spacing" textLength="148" x="367.5" y="1282.6113">return nameAndStereo;</text><ellipse cx="441.5" cy="1326.4414" fill="none" rx="11" ry="11" style="stroke:#222222;stroke-width:1.0;"/><ellipse cx="441.5" cy="1326.4414" fill="#222222" rx="6" ry="6" style="stroke:#111111;stroke-width:1.0;"/><ellipse cx="441.5" cy="1357.4414" fill="none" rx="10" ry="10" style="stroke:#222222;stroke-width:1.5;"/><line style="stroke:#222222;stroke-width:2.5;" x1="435.3128" x2="447.6872" y1="1351.2542" y2="1363.6286"/><line style="stroke:#222222;stroke-width:2.5;" x1="447.6872" x2="435.3128" y1="1351.2542" y2="1363.6286"/><path d="M471.5,1377.4414 L471.5,1393.5742 L451.5,1397.5742 L471.5,1401.5742 L471.5,1417.707 A0,0 0 0 0 471.5,1417.707 L814.5,1417.707 A0,0 0 0 0 814.5,1417.707 L814.5,1387.4414 L804.5,1377.4414 L471.5,1377.4414 A0,0 0 0 0 471.5,1377.4414 " fill="#FEFFDD" style="stroke:#181818;stroke-width:0.5;"/><path d="M804.5,1377.4414 L804.5,1387.4414 L814.5,1387.4414 L804.5,1377.4414 " fill="#FEFFDD" style="stroke:#181818;stroke-width:0.5;"/><text fill="#000000" font-family="sans-serif" font-size="13" lengthAdjust="spacing" textLength="322" x="477.5" y="1394.5083">double getStartingX(StringBounder stringBounder,</text><text fill="#000000" font-family="sans-serif" font-size="13" lengthAdjust="spacing" textLength="59" x="477.5" y="1409.6411">double y)</text><ellipse cx="441.5" cy="1397.5742" fill="#222222" rx="10" ry="10" style="stroke:#222222;stroke-width:1.0;"/><rect fill="#F1F1F1" height="33.9688" rx="12.5" ry="12.5" style="stroke:#181818;stroke-width:0.5;" width="75" x="404" y="1437.707"/><text fill="#000000" font-family="sans-serif" font-size="12" lengthAdjust="spacing" textLength="55" x="414" y="1458.8457">return 0;</text><ellipse cx="441.5" cy="1502.6758" fill="none" rx="11" ry="11" style="stroke:#222222;stroke-width:1.0;"/><ellipse cx="441.5" cy="1502.6758" fill="#222222" rx="6" ry="6" style="stroke:#111111;stroke-width:1.0;"/><ellipse cx="441.5" cy="1533.6758" fill="none" rx="10" ry="10" style="stroke:#222222;stroke-width:1.5;"/><line style="stroke:#222222;stroke-width:2.5;" x1="435.3128" x2="447.6872" y1="1527.4886" y2="1539.863"/><line style="stroke:#222222;stroke-width:2.5;" x1="447.6872" x2="435.3128" y1="1527.4886" y2="1539.863"/><path d="M471.5,1553.6758 L471.5,1569.8086 L451.5,1573.8086 L471.5,1577.8086 L471.5,1593.9414 A0,0 0 0 0 471.5,1593.9414 L806.5,1593.9414 A0,0 0 0 0 806.5,1593.9414 L806.5,1563.6758 L796.5,1553.6758 L471.5,1553.6758 A0,0 0 0 0 471.5,1553.6758 " fill="#FEFFDD" style="stroke:#181818;stroke-width:0.5;"/><path d="M796.5,1553.6758 L796.5,1563.6758 L806.5,1563.6758 L796.5,1553.6758 " fill="#FEFFDD" style="stroke:#181818;stroke-width:0.5;"/><text fill="#000000" font-family="sans-serif" font-size="13" lengthAdjust="spacing" textLength="314" x="477.5" y="1570.7427">double getEndingX(StringBounder stringBounder,</text><text fill="#000000" font-family="sans-serif" font-size="13" lengthAdjust="spacing" textLength="59" x="477.5" y="1585.8755">double y)</text><ellipse cx="441.5" cy="1573.8086" fill="#222222" rx="10" ry="10" style="stroke:#222222;stroke-width:1.0;"/><rect fill="#F1F1F1" height="47.9375" rx="12.5" ry="12.5" style="stroke:#181818;stroke-width:0.5;" width="284" x="299.5" y="1613.9414"/><text fill="#000000" font-family="sans-serif" font-size="12" lengthAdjust="spacing" textLength="264" x="309.5" y="1635.0801">return calculateDimension(stringBounder)</text><text fill="#000000" font-family="sans-serif" font-size="12" lengthAdjust="spacing" textLength="74" x="309.5" y="1649.0488">.getWidth();</text><ellipse cx="441.5" cy="1692.8789" fill="none" rx="11" ry="11" style="stroke:#222222;stroke-width:1.0;"/><ellipse cx="441.5" cy="1692.8789" fill="#222222" rx="6" ry="6" style="stroke:#111111;stroke-width:1.0;"/><ellipse cx="441.5" cy="1723.8789" fill="none" rx="10" ry="10" style="stroke:#222222;stroke-width:1.5;"/><line style="stroke:#222222;stroke-width:2.5;" x1="435.3128" x2="447.6872" y1="1717.6917" y2="1730.0661"/><line style="stroke:#222222;stroke-width:2.5;" x1="447.6872" x2="435.3128" y1="1717.6917" y2="1730.0661"/><path d="M471.5,1743.8789 L471.5,1752.4453 L451.5,1756.4453 L471.5,1760.4453 L471.5,1769.0117 A0,0 0 0 0 471.5,1769.0117 L651.5,1769.0117 A0,0 0 0 0 651.5,1769.0117 L651.5,1753.8789 L641.5,1743.8789 L471.5,1743.8789 A0,0 0 0 0 471.5,1743.8789 " fill="#FEFFDD" style="stroke:#181818;stroke-width:0.5;"/><path d="M641.5,1743.8789 L641.5,1753.8789 L651.5,1753.8789 L641.5,1743.8789 " fill="#FEFFDD" style="stroke:#181818;stroke-width:0.5;"/><text fill="#000000" font-family="sans-serif" font-size="13" lengthAdjust="spacing" textLength="159" x="477.5" y="1760.9458">void drawU(UGraphic ug)</text><ellipse cx="441.5" cy="1756.4453" fill="#222222" rx="10" ry="10" style="stroke:#222222;stroke-width:1.0;"/><rect fill="#F1F1F1" height="33.9688" rx="12.5" ry="12.5" style="stroke:#181818;stroke-width:0.5;" width="388" x="247.5" y="1789.0117"/><text fill="#000000" font-family="sans-serif" font-size="12" lengthAdjust="spacing" textLength="368" x="257.5" y="1810.1504">final StringBounder stringBounder=ug.getStringBounder();</text><rect fill="#F1F1F1" height="33.9688" rx="12.5" ry="12.5" style="stroke:#181818;stroke-width:0.5;" width="431" x="226" y="1842.9805"/><text fill="#000000" font-family="sans-serif" font-size="12" lengthAdjust="spacing" textLength="411" x="236" y="1864.1191">final XDimension2D dimTotal=calculateDimension(stringBounder);</text><rect fill="#F1F1F1" height="33.9688" rx="12.5" ry="12.5" style="stroke:#181818;stroke-width:0.5;" width="416" x="233.5" y="1896.9492"/><text fill="#000000" font-family="sans-serif" font-size="12" lengthAdjust="spacing" textLength="396" x="243.5" y="1918.0879">final XDimension2D dimTitle=getTitleDimension(stringBounder);</text><rect fill="#F1F1F1" height="33.9688" rx="12.5" ry="12.5" style="stroke:#181818;stroke-width:0.5;" width="298" x="292.5" y="1950.918"/><text fill="#000000" font-family="sans-serif" font-size="12" lengthAdjust="spacing" textLength="278" x="302.5" y="1972.0566">final double widthTotal=dimTotal.getWidth();</text><rect fill="#F1F1F1" height="33.9688" rx="12.5" ry="12.5" style="stroke:#181818;stroke-width:0.5;" width="311" x="286" y="2004.8867"/><text fill="#000000" font-family="sans-serif" font-size="12" lengthAdjust="spacing" textLength="291" x="296" y="2026.0254">final double heightTotal=dimTotal.getHeight();</text><rect fill="#F1F1F1" height="47.9375" rx="12.5" ry="12.5" style="stroke:#181818;stroke-width:0.5;" width="335" x="274" y="2058.8555"/><text fill="#000000" font-family="sans-serif" font-size="12" lengthAdjust="spacing" textLength="315" x="284" y="2079.9941">final URectangle rect=new URectangle(widthTotal,</text><text fill="#000000" font-family="sans-serif" font-size="12" lengthAdjust="spacing" textLength="80" x="284" y="2093.9629">heightTotal);</text><rect fill="#F1F1F1" height="33.9688" rx="12.5" ry="12.5" style="stroke:#181818;stroke-width:0.5;" width="337" x="273" y="2126.793"/><text fill="#000000" font-family="sans-serif" font-size="12" lengthAdjust="spacing" textLength="317" x="283" y="2147.9316">URectangle rect2=new URectangle(4,heightTotal);</text><rect fill="#F1F1F1" height="47.9375" rx="12.5" ry="12.5" style="stroke:#181818;stroke-width:0.5;" width="360" x="261.5" y="2180.7617"/><text fill="#000000" font-family="sans-serif" font-size="12" lengthAdjust="spacing" textLength="340" x="271.5" y="2201.9004">ug=ug.apply(SkinParamUtils.getColor(getSkinParam(),</text><text fill="#000000" font-family="sans-serif" font-size="12" lengthAdjust="spacing" textLength="267" x="271.5" y="2215.8691">getStereo(),ColorParam.designedBorder));</text><rect fill="#F1F1F1" height="47.9375" rx="12.5" ry="12.5" style="stroke:#181818;stroke-width:0.5;" width="276" x="303.5" y="2248.6992"/><text fill="#000000" font-family="sans-serif" font-size="12" lengthAdjust="spacing" textLength="256" x="313.5" y="2269.8379">HColor backcolor=getEntity().getColors()</text><text fill="#000000" font-family="sans-serif" font-size="12" lengthAdjust="spacing" textLength="167" x="313.5" y="2283.8066">.getColor(ColorType.BACK);</text><rect fill="#F1F1F1" height="47.9375" rx="12.5" ry="12.5" style="stroke:#181818;stroke-width:0.5;" width="347" x="268" y="2365.0391"/><text fill="#000000" font-family="sans-serif" font-size="12" lengthAdjust="spacing" textLength="327" x="278" y="2386.1777">backcolor=SkinParamUtils.getColor(getSkinParam(),</text><text fill="#000000" font-family="sans-serif" font-size="12" lengthAdjust="spacing" textLength="295" x="278" y="2400.1465">getStereo(),ColorParam.designedBackground);</text><polygon fill="#F1F1F1" points="393.5,2316.6367,489.5,2316.6367,501.5,2328.6367,489.5,2340.6367,393.5,2340.6367,381.5,2328.6367,393.5,2316.6367" style="stroke:#181818;stroke-width:0.5;"/><text fill="#000000" font-family="sans-serif" font-size="11" lengthAdjust="spacing" textLength="20" x="445.5" y="2350.8472">yes</text><text fill="#000000" font-family="sans-serif" font-size="11" lengthAdjust="spacing" textLength="92" x="393.5" y="2332.4448">backcolor==null</text><polygon fill="#F1F1F1" points="441.5,2432.9766,453.5,2444.9766,441.5,2456.9766,429.5,2444.9766,441.5,2432.9766" style="stroke:#181818;stroke-width:0.5;"/><rect fill="#F1F1F1" height="33.9688" rx="12.5" ry="12.5" style="stroke:#181818;stroke-width:0.5;" width="204" x="339.5" y="2476.9766"/><text fill="#000000" font-family="sans-serif" font-size="12" lengthAdjust="spacing" textLength="184" x="349.5" y="2498.1152">ug=ug.apply(backcolor.bg());</text><rect fill="#F1F1F1" height="33.9688" rx="12.5" ry="12.5" style="stroke:#181818;stroke-width:0.5;" width="117" x="383" y="2579.3477"/><text fill="#000000" font-family="sans-serif" font-size="12" lengthAdjust="spacing" textLength="97" x="393" y="2600.4863">ug.startUrl(url);</text><polygon fill="#F1F1F1" points="416,2530.9453,467,2530.9453,479,2542.9453,467,2554.9453,416,2554.9453,404,2542.9453,416,2530.9453" style="stroke:#181818;stroke-width:0.5;"/><text fill="#000000" font-family="sans-serif" font-size="11" lengthAdjust="spacing" textLength="20" x="445.5" y="2565.1558">yes</text><text fill="#000000" font-family="sans-serif" font-size="11" lengthAdjust="spacing" textLength="47" x="416" y="2546.7534">url!=null</text><polygon fill="#F1F1F1" points="441.5,2633.3164,453.5,2645.3164,441.5,2657.3164,429.5,2645.3164,441.5,2633.3164" style="stroke:#181818;stroke-width:0.5;"/><rect fill="#F1F1F1" height="33.9688" rx="12.5" ry="12.5" style="stroke:#181818;stroke-width:0.5;" width="230" x="326.5" y="2677.3164"/><text fill="#000000" font-family="sans-serif" font-size="12" lengthAdjust="spacing" textLength="210" x="336.5" y="2698.4551">final UStroke stroke=getStroke();</text><rect fill="#F1F1F1" height="33.9688" rx="12.5" ry="12.5" style="stroke:#181818;stroke-width:0.5;" width="196" x="343.5" y="2731.2852"/><text fill="#000000" font-family="sans-serif" font-size="12" lengthAdjust="spacing" textLength="176" x="353.5" y="2752.4238">ug.apply(stroke).draw(rect);</text><rect fill="#F1F1F1" height="33.9688" rx="12.5" ry="12.5" style="stroke:#181818;stroke-width:0.5;" width="204" x="339.5" y="2785.2539"/><text fill="#000000" font-family="sans-serif" font-size="12" lengthAdjust="spacing" textLength="184" x="349.5" y="2806.3926">ug.apply(stroke).draw(rect2);</text><rect fill="#F1F1F1" height="33.9688" rx="12.5" ry="12.5" style="stroke:#181818;stroke-width:0.5;" width="657" x="113" y="2839.2227"/><text fill="#000000" font-family="sans-serif" font-size="12" lengthAdjust="spacing" textLength="637" x="123" y="2860.3613">final ULayoutGroup header=new ULayoutGroup(new PlacementStrategyY1Y2(ug.getStringBounder()));</text><rect fill="#F1F1F1" height="33.9688" rx="12.5" ry="12.5" style="stroke:#181818;stroke-width:0.5;" width="142" x="370.5" y="2893.1914"/><text fill="#000000" font-family="sans-serif" font-size="12" lengthAdjust="spacing" textLength="122" x="380.5" y="2914.3301">header.add(name);</text><rect fill="#F1F1F1" height="47.9375" rx="12.5" ry="12.5" style="stroke:#181818;stroke-width:0.5;" width="284" x="299.5" y="2947.1602"/><text fill="#000000" font-family="sans-serif" font-size="12" lengthAdjust="spacing" textLength="264" x="309.5" y="2968.2988">header.drawU(ug.apply(UTranslate.dx(4)),</text><text fill="#000000" font-family="sans-serif" font-size="12" lengthAdjust="spacing" textLength="260" x="309.5" y="2982.2676">dimTotal.getWidth(),dimTitle.getHeight());</text><rect fill="#F1F1F1" height="33.9688" rx="12.5" ry="12.5" style="stroke:#181818;stroke-width:0.5;" width="104" x="389.5" y="3063.5"/><text fill="#000000" font-family="sans-serif" font-size="12" lengthAdjust="spacing" textLength="84" x="399.5" y="3084.6387">ug.closeUrl();</text><polygon fill="#F1F1F1" points="416,3015.0977,467,3015.0977,479,3027.0977,467,3039.0977,416,3039.0977,404,3027.0977,416,3015.0977" style="stroke:#181818;stroke-width:0.5;"/><text fill="#000000" font-family="sans-serif" font-size="11" lengthAdjust="spacing" textLength="20" x="445.5" y="3049.3081">yes</text><text fill="#000000" font-family="sans-serif" font-size="11" lengthAdjust="spacing" textLength="47" x="416" y="3030.9058">url!=null</text><polygon fill="#F1F1F1" points="441.5,3117.4688,453.5,3129.4688,441.5,3141.4688,429.5,3129.4688,441.5,3117.4688" style="stroke:#181818;stroke-width:0.5;"/><ellipse cx="441.5" cy="3171.4688" fill="none" rx="10" ry="10" style="stroke:#222222;stroke-width:1.5;"/><line style="stroke:#222222;stroke-width:2.5;" x1="435.3128" x2="447.6872" y1="3165.2816" y2="3177.6559"/><line style="stroke:#222222;stroke-width:2.5;" x1="447.6872" x2="435.3128" y1="3165.2816" y2="3177.6559"/><path d="M471.5,3191.4688 L471.5,3200.0352 L451.5,3204.0352 L471.5,3208.0352 L471.5,3216.6016 A0,0 0 0 0 471.5,3216.6016 L669.5,3216.6016 A0,0 0 0 0 669.5,3216.6016 L669.5,3201.4688 L659.5,3191.4688 L471.5,3191.4688 A0,0 0 0 0 471.5,3191.4688 " fill="#FEFFDD" style="stroke:#181818;stroke-width:0.5;"/><path d="M659.5,3191.4688 L659.5,3201.4688 L669.5,3201.4688 L659.5,3191.4688 " fill="#FEFFDD" style="stroke:#181818;stroke-width:0.5;"/><text fill="#000000" font-family="sans-serif" font-size="13" lengthAdjust="spacing" textLength="177" x="477.5" y="3208.5356">ShapeType getShapeType()</text><ellipse cx="441.5" cy="3204.0352" fill="#222222" rx="10" ry="10" style="stroke:#222222;stroke-width:1.0;"/><rect fill="#F1F1F1" height="33.9688" rx="12.5" ry="12.5" style="stroke:#181818;stroke-width:0.5;" width="211" x="336" y="3236.6016"/><text fill="#000000" font-family="sans-serif" font-size="12" lengthAdjust="spacing" textLength="191" x="346" y="3257.7402">return ShapeType.RECTANGLE;</text><ellipse cx="441.5" cy="3301.5703" fill="none" rx="11" ry="11" style="stroke:#222222;stroke-width:1.0;"/><ellipse cx="441.5" cy="3301.5703" fill="#222222" rx="6" ry="6" style="stroke:#111111;stroke-width:1.0;"/><ellipse cx="441.5" cy="3332.5703" fill="none" rx="10" ry="10" style="stroke:#222222;stroke-width:1.5;"/><line style="stroke:#222222;stroke-width:2.5;" x1="435.3128" x2="447.6872" y1="3326.3831" y2="3338.7575"/><line style="stroke:#222222;stroke-width:2.5;" x1="447.6872" x2="435.3128" y1="3326.3831" y2="3338.7575"/><path d="M471.5,3352.5703 L471.5,3361.1367 L451.5,3365.1367 L471.5,3369.1367 L471.5,3377.7031 A0,0 0 0 0 471.5,3377.7031 L911.5,3377.7031 A0,0 0 0 0 911.5,3377.7031 L911.5,3362.5703 L901.5,3352.5703 L471.5,3352.5703 A0,0 0 0 0 471.5,3352.5703 " fill="#FEFFDD" style="stroke:#181818;stroke-width:0.5;"/><path d="M901.5,3352.5703 L901.5,3362.5703 L911.5,3362.5703 L901.5,3352.5703 " fill="#FEFFDD" style="stroke:#181818;stroke-width:0.5;"/><text fill="#000000" font-family="sans-serif" font-size="13" lengthAdjust="spacing" textLength="419" x="477.5" y="3369.6372">XDimension2D calculateDimension(StringBounder stringBounder)</text><ellipse cx="441.5" cy="3365.1367" fill="#222222" rx="10" ry="10" style="stroke:#222222;stroke-width:1.0;"/><rect fill="#F1F1F1" height="33.9688" rx="12.5" ry="12.5" style="stroke:#181818;stroke-width:0.5;" width="416" x="233.5" y="3397.7031"/><text fill="#000000" font-family="sans-serif" font-size="12" lengthAdjust="spacing" textLength="396" x="243.5" y="3418.8418">final XDimension2D dimTitle=getTitleDimension(stringBounder);</text><rect fill="#F1F1F1" height="33.9688" rx="12.5" ry="12.5" style="stroke:#181818;stroke-width:0.5;" width="262" x="310.5" y="3451.6719"/><text fill="#000000" font-family="sans-serif" font-size="12" lengthAdjust="spacing" textLength="242" x="320.5" y="3472.8105">final double width=dimTitle.getWidth();</text><rect fill="#F1F1F1" height="33.9688" rx="12.5" ry="12.5" style="stroke:#181818;stroke-width:0.5;" width="275" x="304" y="3505.6406"/><text fill="#000000" font-family="sans-serif" font-size="12" lengthAdjust="spacing" textLength="255" x="314" y="3526.7793">final double height=dimTitle.getHeight();</text><rect fill="#F1F1F1" height="33.9688" rx="12.5" ry="12.5" style="stroke:#181818;stroke-width:0.5;" width="290" x="296.5" y="3559.6094"/><text fill="#000000" font-family="sans-serif" font-size="12" lengthAdjust="spacing" textLength="270" x="306.5" y="3580.748">return new XDimension2D(width+5,height);</text><ellipse cx="441.5" cy="3624.5781" fill="none" rx="11" ry="11" style="stroke:#222222;stroke-width:1.0;"/><ellipse cx="441.5" cy="3624.5781" fill="#222222" rx="6" ry="6" style="stroke:#111111;stroke-width:1.0;"/><ellipse cx="441.5" cy="3655.5781" fill="none" rx="10" ry="10" style="stroke:#222222;stroke-width:1.5;"/><line style="stroke:#222222;stroke-width:2.5;" x1="435.3128" x2="447.6872" y1="3649.3909" y2="3661.7653"/><line style="stroke:#222222;stroke-width:2.5;" x1="447.6872" x2="435.3128" y1="3649.3909" y2="3661.7653"/><line style="stroke:#181818;stroke-width:1.0;" x1="441.5" x2="441.5" y1="40.1328" y2="70.2656"/><polygon fill="#181818" points="437.5,60.2656,441.5,70.2656,445.5,60.2656,441.5,64.2656" style="stroke:#181818;stroke-width:1.0;"/><line style="stroke:#181818;stroke-width:1.0;" x1="441.5" x2="441.5" y1="104.2344" y2="124.2344"/><polygon fill="#181818" points="437.5,114.2344,441.5,124.2344,445.5,114.2344,441.5,118.2344" style="stroke:#181818;stroke-width:1.0;"/><line style="stroke:#181818;stroke-width:1.0;" x1="441.5" x2="441.5" y1="158.2031" y2="178.2031"/><polygon fill="#181818" points="437.5,168.2031,441.5,178.2031,445.5,168.2031,441.5,172.2031" style="stroke:#181818;stroke-width:1.0;"/><line style="stroke:#181818;stroke-width:1.0;" x1="199" x2="189" y1="272.1094" y2="272.1094"/><line style="stroke:#181818;stroke-width:1.0;" x1="189" x2="189" y1="272.1094" y2="294.1094"/><polygon fill="#181818" points="185,284.1094,189,294.1094,193,284.1094,189,288.1094" style="stroke:#181818;stroke-width:1.0;"/><line style="stroke:#181818;stroke-width:1.0;" x1="684" x2="694" y1="272.1094" y2="272.1094"/><line style="stroke:#181818;stroke-width:1.0;" x1="694" x2="694" y1="272.1094" y2="294.1094"/><polygon fill="#181818" points="690,284.1094,694,294.1094,698,284.1094,694,288.1094" style="stroke:#181818;stroke-width:1.0;"/><line style="stroke:#181818;stroke-width:1.0;" x1="189" x2="189" y1="328.0781" y2="374.0156"/><line style="stroke:#181818;stroke-width:1.0;" x1="189" x2="429.5" y1="374.0156" y2="374.0156"/><polygon fill="#181818" points="419.5,370.0156,429.5,374.0156,419.5,378.0156,423.5,374.0156" style="stroke:#181818;stroke-width:1.0;"/><line style="stroke:#181818;stroke-width:1.0;" x1="694" x2="694" y1="356.0156" y2="374.0156"/><line style="stroke:#181818;stroke-width:1.0;" x1="694" x2="453.5" y1="374.0156" y2="374.0156"/><polygon fill="#181818" points="463.5,370.0156,453.5,374.0156,463.5,378.0156,459.5,374.0156" style="stroke:#181818;stroke-width:1.0;"/><line style="stroke:#181818;stroke-width:1.0;" x1="441.5" x2="441.5" y1="240.1094" y2="260.1094"/><polygon fill="#181818" points="437.5,250.1094,441.5,260.1094,445.5,250.1094,441.5,254.1094" style="stroke:#181818;stroke-width:1.0;"/><line style="stroke:#181818;stroke-width:1.0;" x1="441.5" x2="441.5" y1="386.0156" y2="406.0156"/><polygon fill="#181818" points="437.5,396.0156,441.5,406.0156,445.5,396.0156,441.5,400.0156" style="stroke:#181818;stroke-width:1.0;"/><line style="stroke:#181818;stroke-width:1.0;" x1="441.5" x2="441.5" y1="439.9844" y2="459.9844"/><polygon fill="#181818" points="437.5,449.9844,441.5,459.9844,445.5,449.9844,441.5,453.9844" style="stroke:#181818;stroke-width:1.0;"/><line style="stroke:#181818;stroke-width:1.0;" x1="441.5" x2="441.5" y1="512.5508" y2="535.1172"/><polygon fill="#181818" points="437.5,525.1172,441.5,535.1172,445.5,525.1172,441.5,529.1172" style="stroke:#181818;stroke-width:1.0;"/><line style="stroke:#181818;stroke-width:1.0;" x1="441.5" x2="441.5" y1="627.0547" y2="651.457"/><polygon fill="#181818" points="437.5,641.457,441.5,651.457,445.5,641.457,441.5,645.457" style="stroke:#181818;stroke-width:1.0;"/><line style="stroke:#181818;stroke-width:1.0;" x1="492.5" x2="543" y1="615.0547" y2="615.0547"/><polygon fill="#181818" points="539,658.4414,543,668.4414,547,658.4414,543,662.4414" style="stroke:#181818;stroke-width:1.0;"/><line style="stroke:#181818;stroke-width:1.0;" x1="543" x2="543" y1="615.0547" y2="717.4258"/><line style="stroke:#181818;stroke-width:1.0;" x1="543" x2="453.5" y1="717.4258" y2="717.4258"/><polygon fill="#181818" points="463.5,713.4258,453.5,717.4258,463.5,721.4258,459.5,717.4258" style="stroke:#181818;stroke-width:1.0;"/><line style="stroke:#181818;stroke-width:1.0;" x1="441.5" x2="441.5" y1="685.4258" y2="705.4258"/><polygon fill="#181818" points="437.5,695.4258,441.5,705.4258,445.5,695.4258,441.5,699.4258" style="stroke:#181818;stroke-width:1.0;"/><line style="stroke:#181818;stroke-width:1.0;" x1="441.5" x2="441.5" y1="583.0547" y2="603.0547"/><polygon fill="#181818" points="437.5,593.0547,441.5,603.0547,445.5,593.0547,441.5,597.0547" style="stroke:#181818;stroke-width:1.0;"/><line style="stroke:#181818;stroke-width:1.0;" x1="441.5" x2="441.5" y1="729.4258" y2="749.4258"/><polygon fill="#181818" points="437.5,739.4258,441.5,749.4258,445.5,739.4258,441.5,743.4258" style="stroke:#181818;stroke-width:1.0;"/><line style="stroke:#181818;stroke-width:1.0;" x1="441.5" x2="441.5" y1="783.3945" y2="803.3945"/><polygon fill="#181818" points="437.5,793.3945,441.5,803.3945,445.5,793.3945,441.5,797.3945" style="stroke:#181818;stroke-width:1.0;"/><line style="stroke:#181818;stroke-width:1.0;" x1="441.5" x2="441.5" y1="887.9609" y2="910.5273"/><polygon fill="#181818" points="437.5,900.5273,441.5,910.5273,445.5,900.5273,441.5,904.5273" style="stroke:#181818;stroke-width:1.0;"/><line style="stroke:#181818;stroke-width:1.0;" x1="441.5" x2="441.5" y1="944.4961" y2="964.4961"/><polygon fill="#181818" points="437.5,954.4961,441.5,964.4961,445.5,954.4961,441.5,958.4961" style="stroke:#181818;stroke-width:1.0;"/><line style="stroke:#181818;stroke-width:1.0;" x1="441.5" x2="441.5" y1="1049.0625" y2="1071.6289"/><polygon fill="#181818" points="437.5,1061.6289,441.5,1071.6289,445.5,1061.6289,441.5,1065.6289" style="stroke:#181818;stroke-width:1.0;"/><line style="stroke:#181818;stroke-width:1.0;" x1="441.5" x2="441.5" y1="1105.5977" y2="1125.5977"/><polygon fill="#181818" points="437.5,1115.5977,441.5,1125.5977,445.5,1115.5977,441.5,1119.5977" style="stroke:#181818;stroke-width:1.0;"/><line style="stroke:#181818;stroke-width:1.0;" x1="441.5" x2="441.5" y1="1173.5352" y2="1193.5352"/><polygon fill="#181818" points="437.5,1183.5352,441.5,1193.5352,445.5,1183.5352,441.5,1187.5352" style="stroke:#181818;stroke-width:1.0;"/><line style="stroke:#181818;stroke-width:1.0;" x1="441.5" x2="441.5" y1="1241.4727" y2="1261.4727"/><polygon fill="#181818" points="437.5,1251.4727,441.5,1261.4727,445.5,1251.4727,441.5,1255.4727" style="stroke:#181818;stroke-width:1.0;"/><line style="stroke:#181818;stroke-width:1.0;" x1="441.5" x2="441.5" y1="1295.4414" y2="1315.4414"/><polygon fill="#181818" points="437.5,1305.4414,441.5,1315.4414,445.5,1305.4414,441.5,1309.4414" style="stroke:#181818;stroke-width:1.0;"/><line style="stroke:#181818;stroke-width:1.0;" x1="441.5" x2="441.5" y1="1407.5742" y2="1437.707"/><polygon fill="#181818" points="437.5,1427.707,441.5,1437.707,445.5,1427.707,441.5,1431.707" style="stroke:#181818;stroke-width:1.0;"/><line style="stroke:#181818;stroke-width:1.0;" x1="441.5" x2="441.5" y1="1471.6758" y2="1491.6758"/><polygon fill="#181818" points="437.5,1481.6758,441.5,1491.6758,445.5,1481.6758,441.5,1485.6758" style="stroke:#181818;stroke-width:1.0;"/><line style="stroke:#181818;stroke-width:1.0;" x1="441.5" x2="441.5" y1="1583.8086" y2="1613.9414"/><polygon fill="#181818" points="437.5,1603.9414,441.5,1613.9414,445.5,1603.9414,441.5,1607.9414" style="stroke:#181818;stroke-width:1.0;"/><line style="stroke:#181818;stroke-width:1.0;" x1="441.5" x2="441.5" y1="1661.8789" y2="1681.8789"/><polygon fill="#181818" points="437.5,1671.8789,441.5,1681.8789,445.5,1671.8789,441.5,1675.8789" style="stroke:#181818;stroke-width:1.0;"/><line style="stroke:#181818;stroke-width:1.0;" x1="441.5" x2="441.5" y1="1766.4453" y2="1789.0117"/><polygon fill="#181818" points="437.5,1779.0117,441.5,1789.0117,445.5,1779.0117,441.5,1783.0117" style="stroke:#181818;stroke-width:1.0;"/><line style="stroke:#181818;stroke-width:1.0;" x1="441.5" x2="441.5" y1="1822.9805" y2="1842.9805"/><polygon fill="#181818" points="437.5,1832.9805,441.5,1842.9805,445.5,1832.9805,441.5,1836.9805" style="stroke:#181818;stroke-width:1.0;"/><line style="stroke:#181818;stroke-width:1.0;" x1="441.5" x2="441.5" y1="1876.9492" y2="1896.9492"/><polygon fill="#181818" points="437.5,1886.9492,441.5,1896.9492,445.5,1886.9492,441.5,1890.9492" style="stroke:#181818;stroke-width:1.0;"/><line style="stroke:#181818;stroke-width:1.0;" x1="441.5" x2="441.5" y1="1930.918" y2="1950.918"/><polygon fill="#181818" points="437.5,1940.918,441.5,1950.918,445.5,1940.918,441.5,1944.918" style="stroke:#181818;stroke-width:1.0;"/><line style="stroke:#181818;stroke-width:1.0;" x1="441.5" x2="441.5" y1="1984.8867" y2="2004.8867"/><polygon fill="#181818" points="437.5,1994.8867,441.5,2004.8867,445.5,1994.8867,441.5,1998.8867" style="stroke:#181818;stroke-width:1.0;"/><line style="stroke:#181818;stroke-width:1.0;" x1="441.5" x2="441.5" y1="2038.8555" y2="2058.8555"/><polygon fill="#181818" points="437.5,2048.8555,441.5,2058.8555,445.5,2048.8555,441.5,2052.8555" style="stroke:#181818;stroke-width:1.0;"/><line style="stroke:#181818;stroke-width:1.0;" x1="441.5" x2="441.5" y1="2106.793" y2="2126.793"/><polygon fill="#181818" points="437.5,2116.793,441.5,2126.793,445.5,2116.793,441.5,2120.793" style="stroke:#181818;stroke-width:1.0;"/><line style="stroke:#181818;stroke-width:1.0;" x1="441.5" x2="441.5" y1="2160.7617" y2="2180.7617"/><polygon fill="#181818" points="437.5,2170.7617,441.5,2180.7617,445.5,2170.7617,441.5,2174.7617" style="stroke:#181818;stroke-width:1.0;"/><line style="stroke:#181818;stroke-width:1.0;" x1="441.5" x2="441.5" y1="2228.6992" y2="2248.6992"/><polygon fill="#181818" points="437.5,2238.6992,441.5,2248.6992,445.5,2238.6992,441.5,2242.6992" style="stroke:#181818;stroke-width:1.0;"/><line style="stroke:#181818;stroke-width:1.0;" x1="441.5" x2="441.5" y1="2340.6367" y2="2365.0391"/><polygon fill="#181818" points="437.5,2355.0391,441.5,2365.0391,445.5,2355.0391,441.5,2359.0391" style="stroke:#181818;stroke-width:1.0;"/><line style="stroke:#181818;stroke-width:1.0;" x1="501.5" x2="625" y1="2328.6367" y2="2328.6367"/><polygon fill="#181818" points="621,2379.0078,625,2389.0078,629,2379.0078,625,2383.0078" style="stroke:#181818;stroke-width:1.0;"/><line style="stroke:#181818;stroke-width:1.0;" x1="625" x2="625" y1="2328.6367" y2="2444.9766"/><line style="stroke:#181818;stroke-width:1.0;" x1="625" x2="453.5" y1="2444.9766" y2="2444.9766"/><polygon fill="#181818" points="463.5,2440.9766,453.5,2444.9766,463.5,2448.9766,459.5,2444.9766" style="stroke:#181818;stroke-width:1.0;"/><line style="stroke:#181818;stroke-width:1.0;" x1="441.5" x2="441.5" y1="2412.9766" y2="2432.9766"/><polygon fill="#181818" points="437.5,2422.9766,441.5,2432.9766,445.5,2422.9766,441.5,2426.9766" style="stroke:#181818;stroke-width:1.0;"/><line style="stroke:#181818;stroke-width:1.0;" x1="441.5" x2="441.5" y1="2296.6367" y2="2316.6367"/><polygon fill="#181818" points="437.5,2306.6367,441.5,2316.6367,445.5,2306.6367,441.5,2310.6367" style="stroke:#181818;stroke-width:1.0;"/><line style="stroke:#181818;stroke-width:1.0;" x1="441.5" x2="441.5" y1="2456.9766" y2="2476.9766"/><polygon fill="#181818" points="437.5,2466.9766,441.5,2476.9766,445.5,2466.9766,441.5,2470.9766" style="stroke:#181818;stroke-width:1.0;"/><line style="stroke:#181818;stroke-width:1.0;" x1="441.5" x2="441.5" y1="2554.9453" y2="2579.3477"/><polygon fill="#181818" points="437.5,2569.3477,441.5,2579.3477,445.5,2569.3477,441.5,2573.3477" style="stroke:#181818;stroke-width:1.0;"/><line style="stroke:#181818;stroke-width:1.0;" x1="479" x2="510" y1="2542.9453" y2="2542.9453"/><polygon fill="#181818" points="506,2586.332,510,2596.332,514,2586.332,510,2590.332" style="stroke:#181818;stroke-width:1.0;"/><line style="stroke:#181818;stroke-width:1.0;" x1="510" x2="510" y1="2542.9453" y2="2645.3164"/><line style="stroke:#181818;stroke-width:1.0;" x1="510" x2="453.5" y1="2645.3164" y2="2645.3164"/><polygon fill="#181818" points="463.5,2641.3164,453.5,2645.3164,463.5,2649.3164,459.5,2645.3164" style="stroke:#181818;stroke-width:1.0;"/><line style="stroke:#181818;stroke-width:1.0;" x1="441.5" x2="441.5" y1="2613.3164" y2="2633.3164"/><polygon fill="#181818" points="437.5,2623.3164,441.5,2633.3164,445.5,2623.3164,441.5,2627.3164" style="stroke:#181818;stroke-width:1.0;"/><line style="stroke:#181818;stroke-width:1.0;" x1="441.5" x2="441.5" y1="2510.9453" y2="2530.9453"/><polygon fill="#181818" points="437.5,2520.9453,441.5,2530.9453,445.5,2520.9453,441.5,2524.9453" style="stroke:#181818;stroke-width:1.0;"/><line style="stroke:#181818;stroke-width:1.0;" x1="441.5" x2="441.5" y1="2657.3164" y2="2677.3164"/><polygon fill="#181818" points="437.5,2667.3164,441.5,2677.3164,445.5,2667.3164,441.5,2671.3164" style="stroke:#181818;stroke-width:1.0;"/><line style="stroke:#181818;stroke-width:1.0;" x1="441.5" x2="441.5" y1="2711.2852" y2="2731.2852"/><polygon fill="#181818" points="437.5,2721.2852,441.5,2731.2852,445.5,2721.2852,441.5,2725.2852" style="stroke:#181818;stroke-width:1.0;"/><line style="stroke:#181818;stroke-width:1.0;" x1="441.5" x2="441.5" y1="2765.2539" y2="2785.2539"/><polygon fill="#181818" points="437.5,2775.2539,441.5,2785.2539,445.5,2775.2539,441.5,2779.2539" style="stroke:#181818;stroke-width:1.0;"/><line style="stroke:#181818;stroke-width:1.0;" x1="441.5" x2="441.5" y1="2819.2227" y2="2839.2227"/><polygon fill="#181818" points="437.5,2829.2227,441.5,2839.2227,445.5,2829.2227,441.5,2833.2227" style="stroke:#181818;stroke-width:1.0;"/><line style="stroke:#181818;stroke-width:1.0;" x1="441.5" x2="441.5" y1="2873.1914" y2="2893.1914"/><polygon fill="#181818" points="437.5,2883.1914,441.5,2893.1914,445.5,2883.1914,441.5,2887.1914" style="stroke:#181818;stroke-width:1.0;"/><line style="stroke:#181818;stroke-width:1.0;" x1="441.5" x2="441.5" y1="2927.1602" y2="2947.1602"/><polygon fill="#181818" points="437.5,2937.1602,441.5,2947.1602,445.5,2937.1602,441.5,2941.1602" style="stroke:#181818;stroke-width:1.0;"/><line style="stroke:#181818;stroke-width:1.0;" x1="441.5" x2="441.5" y1="3039.0977" y2="3063.5"/><polygon fill="#181818" points="437.5,3053.5,441.5,3063.5,445.5,3053.5,441.5,3057.5" style="stroke:#181818;stroke-width:1.0;"/><line style="stroke:#181818;stroke-width:1.0;" x1="479" x2="503.5" y1="3027.0977" y2="3027.0977"/><polygon fill="#181818" points="499.5,3070.4844,503.5,3080.4844,507.5,3070.4844,503.5,3074.4844" style="stroke:#181818;stroke-width:1.0;"/><line style="stroke:#181818;stroke-width:1.0;" x1="503.5" x2="503.5" y1="3027.0977" y2="3129.4688"/><line style="stroke:#181818;stroke-width:1.0;" x1="503.5" x2="453.5" y1="3129.4688" y2="3129.4688"/><polygon fill="#181818" points="463.5,3125.4688,453.5,3129.4688,463.5,3133.4688,459.5,3129.4688" style="stroke:#181818;stroke-width:1.0;"/><line style="stroke:#181818;stroke-width:1.0;" x1="441.5" x2="441.5" y1="3097.4688" y2="3117.4688"/><polygon fill="#181818" points="437.5,3107.4688,441.5,3117.4688,445.5,3107.4688,441.5,3111.4688" style="stroke:#181818;stroke-width:1.0;"/><line style="stroke:#181818;stroke-width:1.0;" x1="441.5" x2="441.5" y1="2995.0977" y2="3015.0977"/><polygon fill="#181818" points="437.5,3005.0977,441.5,3015.0977,445.5,3005.0977,441.5,3009.0977" style="stroke:#181818;stroke-width:1.0;"/><line style="stroke:#181818;stroke-width:1.0;" x1="441.5" x2="441.5" y1="3141.4688" y2="3161.4688"/><polygon fill="#181818" points="437.5,3151.4688,441.5,3161.4688,445.5,3151.4688,441.5,3155.4688" style="stroke:#181818;stroke-width:1.0;"/><line style="stroke:#181818;stroke-width:1.0;" x1="441.5" x2="441.5" y1="3214.0352" y2="3236.6016"/><polygon fill="#181818" points="437.5,3226.6016,441.5,3236.6016,445.5,3226.6016,441.5,3230.6016" style="stroke:#181818;stroke-width:1.0;"/><line style="stroke:#181818;stroke-width:1.0;" x1="441.5" x2="441.5" y1="3270.5703" y2="3290.5703"/><polygon fill="#181818" points="437.5,3280.5703,441.5,3290.5703,445.5,3280.5703,441.5,3284.5703" style="stroke:#181818;stroke-width:1.0;"/><line style="stroke:#181818;stroke-width:1.0;" x1="441.5" x2="441.5" y1="3375.1367" y2="3397.7031"/><polygon fill="#181818" points="437.5,3387.7031,441.5,3397.7031,445.5,3387.7031,441.5,3391.7031" style="stroke:#181818;stroke-width:1.0;"/><line style="stroke:#181818;stroke-width:1.0;" x1="441.5" x2="441.5" y1="3431.6719" y2="3451.6719"/><polygon fill="#181818" points="437.5,3441.6719,441.5,3451.6719,445.5,3441.6719,441.5,3445.6719" style="stroke:#181818;stroke-width:1.0;"/><line style="stroke:#181818;stroke-width:1.0;" x1="441.5" x2="441.5" y1="3485.6406" y2="3505.6406"/><polygon fill="#181818" points="437.5,3495.6406,441.5,3505.6406,445.5,3495.6406,441.5,3499.6406" style="stroke:#181818;stroke-width:1.0;"/><line style="stroke:#181818;stroke-width:1.0;" x1="441.5" x2="441.5" y1="3539.6094" y2="3559.6094"/><polygon fill="#181818" points="437.5,3549.6094,441.5,3559.6094,445.5,3549.6094,441.5,3553.6094" style="stroke:#181818;stroke-width:1.0;"/><line style="stroke:#181818;stroke-width:1.0;" x1="441.5" x2="441.5" y1="3593.5781" y2="3613.5781"/><polygon fill="#181818" points="437.5,3603.5781,441.5,3613.5781,445.5,3603.5781,441.5,3607.5781" style="stroke:#181818;stroke-width:1.0;"/><!--MD5=[644955fbf8c8d15bc04907bbda284800]
@startuml
!pragma layout smetana
start
note right
constructor EntityImageDesignedDomain(ILeaf entity,
ISkinParam skinParam)
end note
:super (entity,skinParam);;
:final Stereotype stereotype=entity.getStereotype();;
:this.name=TextBlockUtils.withMargin(entity.getDisplay().create(FontConfiguration.create(getSkinParam(),
FontParam.DESIGNED_DOMAIN,stereotype),HorizontalAlignment.CENTER,
skinParam),2,2);;
if (stereotype==null ||stereotype.getLabel(Guillemet.DOUBLE_COMPARATOR)==null ) then (yes) 
:this.stereo=null ;;
else (no)
:this.stereo=Display.create(stereotype.getLabels(skinParam.guillemet())).create(FontConfiguration.create(getSkinParam(),
FontParam.DESIGNED_DOMAIN_STEREOTYPE,stereotype),
HorizontalAlignment.CENTER,skinParam);;
endif 
:this.url=entity.getUrl99();;
end
start
note right
UStroke getStroke()
end note
:UStroke stroke=getSkinParam().getThickness(LineParam.designedDomainBorder,
getStereo());;
if (stroke==null ) then (yes) 
:stroke=new UStroke(1.5);;
endif 
:return stroke;;
stop
end
start
note right
XDimension2D getTitleDimension(StringBounder stringBounder)
end note
:return getNameAndSteretypeDimension(stringBounder);;
stop
end
start
note right
XDimension2D getNameAndSteretypeDimension(StringBounder stringBounder)
end note
:final XDimension2D nameDim=name.calculateDimension(stringBounder);;
:final XDimension2D stereoDim=stereo==null ? new XDimension2D(0,
0):stereo.calculateDimension(stringBounder);;
:final XDimension2D nameAndStereo=new XDimension2D(Math.max(nameDim.getWidth(),stereoDim.getWidth()),nameDim.getHeight()+
stereoDim.getHeight());;
:return nameAndStereo;;
stop
end
start
note right
double getStartingX(StringBounder stringBounder,
double y)
end note
:return 0;;
stop
end
start
note right
double getEndingX(StringBounder stringBounder,
double y)
end note
:return calculateDimension(stringBounder)
.getWidth();;
stop
end
start
note right
void drawU(UGraphic ug)
end note
:final StringBounder stringBounder=ug.getStringBounder();;
:final XDimension2D dimTotal=calculateDimension(stringBounder);;
:final XDimension2D dimTitle=getTitleDimension(stringBounder);;
:final double widthTotal=dimTotal.getWidth();;
:final double heightTotal=dimTotal.getHeight();;
:final URectangle rect=new URectangle(widthTotal,
heightTotal);;
:URectangle rect2=new URectangle(4,heightTotal);;
:ug=ug.apply(SkinParamUtils.getColor(getSkinParam(),
getStereo(),ColorParam.designedBorder));;
:HColor backcolor=getEntity().getColors()
.getColor(ColorType.BACK);;
if (backcolor==null ) then (yes) 
:backcolor=SkinParamUtils.getColor(getSkinParam(),
getStereo(),ColorParam.designedBackground);;
endif 
:ug=ug.apply(backcolor.bg());;
if (url!=null ) then (yes) 
:ug.startUrl(url);;
endif 
:final UStroke stroke=getStroke();;
:ug.apply(stroke).draw(rect);;
:ug.apply(stroke).draw(rect2);;
:final ULayoutGroup header=new ULayoutGroup(new PlacementStrategyY1Y2(ug.getStringBounder()));;
:header.add(name);;
:header.drawU(ug.apply(UTranslate.dx(4)),
dimTotal.getWidth(),dimTitle.getHeight());;
if (url!=null ) then (yes) 
:ug.closeUrl();;
endif 
end
start
note right
ShapeType getShapeType()
end note
:return ShapeType.RECTANGLE;;
stop
end
start
note right
XDimension2D calculateDimension(StringBounder stringBounder)
end note
:final XDimension2D dimTitle=getTitleDimension(stringBounder);;
:final double width=dimTitle.getWidth();;
:final double height=dimTitle.getHeight();;
:return new XDimension2D(width+5,height);;
stop
end
@enduml

PlantUML version 1.2022.7(Mon Aug 22 17:01:30 UTC 2022)
(GPL source distribution)
Java Runtime: OpenJDK Runtime Environment
JVM: OpenJDK 64-Bit Server VM
Default Encoding: UTF-8
Language: en
Country: null
--></g></svg>