<?xml version="1.0" encoding="UTF-8" standalone="no"?><svg xmlns="http://www.w3.org/2000/svg" xmlns:xlink="http://www.w3.org/1999/xlink" contentStyleType="text/css" height="218px" preserveAspectRatio="none" style="width:291px;height:218px;background:#FFFFFF;" version="1.1" viewBox="0 0 291 218" width="291px" zoomAndPan="magnify"><defs/><g><!--MD5=[3e53abe586738340e84bd856ee0cc523]
cluster net.sourceforge.plantuml.project--><g id="cluster_net.sourceforge.plantuml.project"><path d="M8.5,63 L271.5,63 A3.75,3.75 0 0 1 274,65.5 L281,85.2969 L281.5,85.2969 A2.5,2.5 0 0 1 284,87.7969 L284,208.5 A2.5,2.5 0 0 1 281.5,211 L8.5,211 A2.5,2.5 0 0 1 6,208.5 L6,65.5 A2.5,2.5 0 0 1 8.5,63 " fill="none" style="stroke:#000000;stroke-width:1.5;"/><line style="stroke:#000000;stroke-width:1.5;" x1="6" x2="281" y1="85.2969" y2="85.2969"/><text fill="#000000" font-family="sans-serif" font-size="14" font-weight="bold" lengthAdjust="spacing" textLength="262" x="10" y="77.9951">net.sourceforge.plantuml.project</text></g><!--MD5=[ee806f6b3b6f9743b0c2f67732032c9b]
class LoadPlanable--><g id="elem_LoadPlanable"><rect fill="#F1F1F1" height="48" id="LoadPlanable" rx="2.5" ry="2.5" style="stroke:#181818;stroke-width:0.5;" width="123" x="83.5" y="6"/><ellipse cx="98.5" cy="22" fill="#ADD1B2" rx="11" ry="11" style="stroke:#181818;stroke-width:1.0;"/><path d="M101.4688,27.6406 Q100.8906,27.9375 100.25,28.0781 Q99.6094,28.2344 98.9063,28.2344 Q96.4063,28.2344 95.0781,26.5938 Q93.7656,24.9375 93.7656,21.8125 Q93.7656,18.6875 95.0781,17.0313 Q96.4063,15.375 98.9063,15.375 Q99.6094,15.375 100.25,15.5313 Q100.9063,15.6875 101.4688,15.9844 L101.4688,18.7031 Q100.8438,18.125 100.25,17.8594 Q99.6563,17.5781 99.0313,17.5781 Q97.6875,17.5781 97,18.6563 Q96.3125,19.7188 96.3125,21.8125 Q96.3125,23.9063 97,24.9844 Q97.6875,26.0469 99.0313,26.0469 Q99.6563,26.0469 100.25,25.7813 Q100.8438,25.5 101.4688,24.9219 L101.4688,27.6406 Z " fill="#000000"/><text fill="#000000" font-family="sans-serif" font-size="14" lengthAdjust="spacing" textLength="91" x="112.5" y="26.8467">LoadPlanable</text><line style="stroke:#181818;stroke-width:0.5;" x1="84.5" x2="205.5" y1="38" y2="38"/><line style="stroke:#181818;stroke-width:0.5;" x1="84.5" x2="205.5" y1="46" y2="46"/></g><!--MD5=[2cc8834d9e6a425307c76989528cee2f]
class net.sourceforge.plantuml.project.ConstantPlan--><g id="elem_net.sourceforge.plantuml.project.ConstantPlan"><rect codeLine="3" fill="#F1F1F1" height="113.1875" id="net.sourceforge.plantuml.project.ConstantPlan" rx="2.5" ry="2.5" style="stroke:#181818;stroke-width:0.5;" width="250" x="20" y="90"/><ellipse cx="94.75" cy="106" fill="#ADD1B2" rx="11" ry="11" style="stroke:#181818;stroke-width:1.0;"/><path d="M97.7188,111.6406 Q97.1406,111.9375 96.5,112.0781 Q95.8594,112.2344 95.1563,112.2344 Q92.6563,112.2344 91.3281,110.5938 Q90.0156,108.9375 90.0156,105.8125 Q90.0156,102.6875 91.3281,101.0313 Q92.6563,99.375 95.1563,99.375 Q95.8594,99.375 96.5,99.5313 Q97.1563,99.6875 97.7188,99.9844 L97.7188,102.7031 Q97.0938,102.125 96.5,101.8594 Q95.9063,101.5781 95.2813,101.5781 Q93.9375,101.5781 93.25,102.6563 Q92.5625,103.7188 92.5625,105.8125 Q92.5625,107.9063 93.25,108.9844 Q93.9375,110.0469 95.2813,110.0469 Q95.9063,110.0469 96.5,109.7813 Q97.0938,109.5 97.7188,108.9219 L97.7188,111.6406 Z " fill="#000000"/><text fill="#000000" font-family="sans-serif" font-size="14" lengthAdjust="spacing" textLength="92" x="115.25" y="110.8467">ConstantPlan</text><line style="stroke:#181818;stroke-width:0.5;" x1="21" x2="269" y1="122" y2="122"/><line style="stroke:#181818;stroke-width:0.5;" x1="21" x2="269" y1="130" y2="130"/><a href="./../../../../../.././qc/src/net/sourceforge/plantuml/project/ConstantPlan.java.html#44" target="_top" title="./../../../../../.././qc/src/net/sourceforge/plantuml/project/ConstantPlan.java.html#44" xlink:actuate="onRequest" xlink:href="./../../../../../.././qc/src/net/sourceforge/plantuml/project/ConstantPlan.java.html#44" xlink:show="new" xlink:title="./../../../../../.././qc/src/net/sourceforge/plantuml/project/ConstantPlan.java.html#44" xlink:type="simple"><rect fill="#F1F1F1" height="10" style="stroke:none;stroke-width:1.0;" width="20" x="26" y="138.6484"/><rect fill="#F24D5C" height="6" style="stroke:#C82930;stroke-width:1.0;" width="6" x="28" y="140.6484"/></a><a href="./../../../../../.././qc/src/net/sourceforge/plantuml/project/ConstantPlan.java.html#44" target="_top" title="./../../../../../.././qc/src/net/sourceforge/plantuml/project/ConstantPlan.java.html#44" xlink:actuate="onRequest" xlink:href="./../../../../../.././qc/src/net/sourceforge/plantuml/project/ConstantPlan.java.html#44" xlink:show="new" xlink:title="./../../../../../.././qc/src/net/sourceforge/plantuml/project/ConstantPlan.java.html#44" xlink:type="simple"><text fill="#000000" font-family="sans-serif" font-size="14" lengthAdjust="spacing" textLength="224" x="40" y="146.9951">ConstantPlan(int) : ConstantPlan</text></a><a href="./../../../../../.././qc/src/net/sourceforge/plantuml/project/ConstantPlan.java.html#48" target="_top" title="./../../../../../.././qc/src/net/sourceforge/plantuml/project/ConstantPlan.java.html#48" xlink:actuate="onRequest" xlink:href="./../../../../../.././qc/src/net/sourceforge/plantuml/project/ConstantPlan.java.html#48" xlink:show="new" xlink:title="./../../../../../.././qc/src/net/sourceforge/plantuml/project/ConstantPlan.java.html#48" xlink:type="simple"><rect fill="#F1F1F1" height="10" style="stroke:none;stroke-width:1.0;" width="20" x="26" y="154.9453"/><ellipse cx="31" cy="159.9453" fill="#84BE84" rx="3" ry="3" style="stroke:#038048;stroke-width:1.0;"/></a><a href="./../../../../../.././qc/src/net/sourceforge/plantuml/project/ConstantPlan.java.html#48" target="_top" title="./../../../../../.././qc/src/net/sourceforge/plantuml/project/ConstantPlan.java.html#48" xlink:actuate="onRequest" xlink:href="./../../../../../.././qc/src/net/sourceforge/plantuml/project/ConstantPlan.java.html#48" xlink:show="new" xlink:title="./../../../../../.././qc/src/net/sourceforge/plantuml/project/ConstantPlan.java.html#48" xlink:type="simple"><text fill="#000000" font-family="sans-serif" font-size="14" lengthAdjust="spacing" textLength="161" x="40" y="163.292">normal() : LoadPlanable</text></a><a href="./../../../../../.././qc/src/net/sourceforge/plantuml/project/ConstantPlan.java.html#52" target="_top" title="./../../../../../.././qc/src/net/sourceforge/plantuml/project/ConstantPlan.java.html#52" xlink:actuate="onRequest" xlink:href="./../../../../../.././qc/src/net/sourceforge/plantuml/project/ConstantPlan.java.html#52" xlink:show="new" xlink:title="./../../../../../.././qc/src/net/sourceforge/plantuml/project/ConstantPlan.java.html#52" xlink:type="simple"><rect fill="#F1F1F1" height="10" style="stroke:none;stroke-width:1.0;" width="20" x="26" y="171.2422"/><ellipse cx="31" cy="176.2422" fill="#84BE84" rx="3" ry="3" style="stroke:#038048;stroke-width:1.0;"/></a><a href="./../../../../../.././qc/src/net/sourceforge/plantuml/project/ConstantPlan.java.html#52" target="_top" title="./../../../../../.././qc/src/net/sourceforge/plantuml/project/ConstantPlan.java.html#52" xlink:actuate="onRequest" xlink:href="./../../../../../.././qc/src/net/sourceforge/plantuml/project/ConstantPlan.java.html#52" xlink:show="new" xlink:title="./../../../../../.././qc/src/net/sourceforge/plantuml/project/ConstantPlan.java.html#52" xlink:type="simple"><text fill="#000000" font-family="sans-serif" font-size="14" lengthAdjust="spacing" textLength="172" x="40" y="179.5889">partial(int) : LoadPlanable</text></a><a href="./../../../../../.././qc/src/net/sourceforge/plantuml/project/ConstantPlan.java.html#56" target="_top" title="./../../../../../.././qc/src/net/sourceforge/plantuml/project/ConstantPlan.java.html#56" xlink:actuate="onRequest" xlink:href="./../../../../../.././qc/src/net/sourceforge/plantuml/project/ConstantPlan.java.html#56" xlink:show="new" xlink:title="./../../../../../.././qc/src/net/sourceforge/plantuml/project/ConstantPlan.java.html#56" xlink:type="simple"><rect fill="#F1F1F1" height="10" style="stroke:none;stroke-width:1.0;" width="20" x="26" y="187.5391"/><ellipse cx="31" cy="192.5391" fill="#84BE84" rx="3" ry="3" style="stroke:#038048;stroke-width:1.0;"/></a><a href="./../../../../../.././qc/src/net/sourceforge/plantuml/project/ConstantPlan.java.html#56" target="_top" title="./../../../../../.././qc/src/net/sourceforge/plantuml/project/ConstantPlan.java.html#56" xlink:actuate="onRequest" xlink:href="./../../../../../.././qc/src/net/sourceforge/plantuml/project/ConstantPlan.java.html#56" xlink:show="new" xlink:title="./../../../../../.././qc/src/net/sourceforge/plantuml/project/ConstantPlan.java.html#56" xlink:type="simple"><text fill="#000000" font-family="sans-serif" font-size="14" lengthAdjust="spacing" textLength="136" x="40" y="195.8857">getLoadAt(Day) : int</text></a></g><path d="M145,54.1708 C145,64.4955 145,77.1452 145,89.7017 " fill="none" style="stroke:#181818;stroke-width:1.0;"/><polygon fill="#FFFFFF" points="145,54.1708,139,70.1708,151,70.1708,145,54.1708" style="stroke:#181818;stroke-width:1.0;"/><!--MD5=[0f188f9dd64310c4adeacc12d116493c]
@startuml
!pragma layout smetana
"LoadPlanable" <|- - "net.sourceforge.plantuml.project.ConstantPlan"
class net.sourceforge.plantuml.project.ConstantPlan {
-ConstantPlan(int) : ConstantPlan [[[./../../../../../.././qc/src/net/sourceforge/plantuml/project/ConstantPlan.java.html#44]]]
+normal() : LoadPlanable [[[./../../../../../.././qc/src/net/sourceforge/plantuml/project/ConstantPlan.java.html#48]]]
+partial(int) : LoadPlanable [[[./../../../../../.././qc/src/net/sourceforge/plantuml/project/ConstantPlan.java.html#52]]]
+getLoadAt(Day) : int [[[./../../../../../.././qc/src/net/sourceforge/plantuml/project/ConstantPlan.java.html#56]]]
} 
@enduml

PlantUML version 1.2022.7(Mon Aug 22 17:01:30 UTC 2022)
(GPL source distribution)
Java Runtime: OpenJDK Runtime Environment
JVM: OpenJDK 64-Bit Server VM
Default Encoding: UTF-8
Language: en
Country: null
--></g></svg>