<?xml version="1.0" encoding="UTF-8" standalone="no"?><svg xmlns="http://www.w3.org/2000/svg" xmlns:xlink="http://www.w3.org/1999/xlink" contentStyleType="text/css" height="853px" preserveAspectRatio="none" style="width:544px;height:853px;background:#FFFFFF;" version="1.1" viewBox="0 0 544 853" width="544px" zoomAndPan="magnify"><defs/><g><path d="M198,10 L198,26.1328 L178,30.1328 L198,34.1328 L198,50.2656 A0,0 0 0 0 198,50.2656 L532,50.2656 A0,0 0 0 0 532,50.2656 L532,20 L522,10 L198,10 A0,0 0 0 0 198,10 " fill="#FEFFDD" style="stroke:#181818;stroke-width:0.5;"/><path d="M522,10 L522,20 L532,20 L522,10 " fill="#FEFFDD" style="stroke:#181818;stroke-width:0.5;"/><text fill="#000000" font-family="sans-serif" font-size="13" lengthAdjust="spacing" textLength="313" x="204" y="27.0669">constructor LabelStrategy(LabelPosition position,</text><text fill="#000000" font-family="sans-serif" font-size="13" lengthAdjust="spacing" textLength="203" x="204" y="42.1997">HorizontalAlignment alignment)</text><ellipse cx="168" cy="30.1328" fill="#222222" rx="10" ry="10" style="stroke:#222222;stroke-width:1.0;"/><rect fill="#F1F1F1" height="33.9688" rx="12.5" ry="12.5" style="stroke:#181818;stroke-width:0.5;" width="161" x="87.5" y="70.2656"/><text fill="#000000" font-family="sans-serif" font-size="12" lengthAdjust="spacing" textLength="141" x="97.5" y="91.4043">this.position=position;</text><rect fill="#F1F1F1" height="33.9688" rx="12.5" ry="12.5" style="stroke:#181818;stroke-width:0.5;" width="185" x="75.5" y="124.2344"/><text fill="#000000" font-family="sans-serif" font-size="12" lengthAdjust="spacing" textLength="165" x="85.5" y="145.373">this.alignment=alignment;</text><ellipse cx="168" cy="188.2031" fill="none" rx="10" ry="10" style="stroke:#222222;stroke-width:1.5;"/><line style="stroke:#222222;stroke-width:2.5;" x1="161.8128" x2="174.1872" y1="182.0159" y2="194.3903"/><line style="stroke:#222222;stroke-width:2.5;" x1="174.1872" x2="161.8128" y1="182.0159" y2="194.3903"/><path d="M198,208.2031 L198,216.7695 L178,220.7695 L198,224.7695 L198,233.3359 A0,0 0 0 0 198,233.3359 L395,233.3359 A0,0 0 0 0 395,233.3359 L395,218.2031 L385,208.2031 L198,208.2031 A0,0 0 0 0 198,208.2031 " fill="#FEFFDD" style="stroke:#181818;stroke-width:0.5;"/><path d="M385,208.2031 L385,218.2031 L395,218.2031 L385,208.2031 " fill="#FEFFDD" style="stroke:#181818;stroke-width:0.5;"/><text fill="#000000" font-family="sans-serif" font-size="13" lengthAdjust="spacing" textLength="176" x="204" y="225.27">boolean titleInFirstColumn()</text><ellipse cx="168" cy="220.7695" fill="#222222" rx="10" ry="10" style="stroke:#222222;stroke-width:1.0;"/><rect fill="#F1F1F1" height="33.9688" rx="12.5" ry="12.5" style="stroke:#181818;stroke-width:0.5;" width="314" x="11" y="253.3359"/><text fill="#000000" font-family="sans-serif" font-size="12" lengthAdjust="spacing" textLength="294" x="21" y="274.4746">return position==LabelPosition.FIRST_COLUMN;</text><ellipse cx="168" cy="318.3047" fill="none" rx="11" ry="11" style="stroke:#222222;stroke-width:1.0;"/><ellipse cx="168" cy="318.3047" fill="#222222" rx="6" ry="6" style="stroke:#111111;stroke-width:1.0;"/><ellipse cx="168" cy="349.3047" fill="none" rx="10" ry="10" style="stroke:#222222;stroke-width:1.5;"/><line style="stroke:#222222;stroke-width:2.5;" x1="161.8128" x2="174.1872" y1="343.1175" y2="355.4919"/><line style="stroke:#222222;stroke-width:2.5;" x1="174.1872" x2="161.8128" y1="343.1175" y2="355.4919"/><path d="M198,369.3047 L198,377.8711 L178,381.8711 L198,385.8711 L198,394.4375 A0,0 0 0 0 198,394.4375 L395,394.4375 A0,0 0 0 0 395,394.4375 L395,379.3047 L385,369.3047 L198,369.3047 A0,0 0 0 0 198,369.3047 " fill="#FEFFDD" style="stroke:#181818;stroke-width:0.5;"/><path d="M385,369.3047 L385,379.3047 L395,379.3047 L385,369.3047 " fill="#FEFFDD" style="stroke:#181818;stroke-width:0.5;"/><text fill="#000000" font-family="sans-serif" font-size="13" lengthAdjust="spacing" textLength="176" x="204" y="386.3716">boolean titleInLastColumn()</text><ellipse cx="168" cy="381.8711" fill="#222222" rx="10" ry="10" style="stroke:#222222;stroke-width:1.0;"/><rect fill="#F1F1F1" height="33.9688" rx="12.5" ry="12.5" style="stroke:#181818;stroke-width:0.5;" width="310" x="13" y="414.4375"/><text fill="#000000" font-family="sans-serif" font-size="12" lengthAdjust="spacing" textLength="290" x="23" y="435.5762">return position==LabelPosition.LAST_COLUMN;</text><ellipse cx="168" cy="479.4063" fill="none" rx="11" ry="11" style="stroke:#222222;stroke-width:1.0;"/><ellipse cx="168" cy="479.4063" fill="#222222" rx="6" ry="6" style="stroke:#111111;stroke-width:1.0;"/><ellipse cx="168" cy="510.4063" fill="none" rx="10" ry="10" style="stroke:#222222;stroke-width:1.5;"/><line style="stroke:#222222;stroke-width:2.5;" x1="161.8128" x2="174.1872" y1="504.2191" y2="516.5934"/><line style="stroke:#222222;stroke-width:2.5;" x1="174.1872" x2="161.8128" y1="504.2191" y2="516.5934"/><path d="M198,530.4063 L198,538.9727 L178,542.9727 L198,546.9727 L198,555.5391 A0,0 0 0 0 198,555.5391 L345,555.5391 A0,0 0 0 0 345,555.5391 L345,540.4063 L335,530.4063 L198,530.4063 A0,0 0 0 0 198,530.4063 " fill="#FEFFDD" style="stroke:#181818;stroke-width:0.5;"/><path d="M335,530.4063 L335,540.4063 L345,540.4063 L335,530.4063 " fill="#FEFFDD" style="stroke:#181818;stroke-width:0.5;"/><text fill="#000000" font-family="sans-serif" font-size="13" lengthAdjust="spacing" textLength="126" x="204" y="547.4731">boolean titleInside()</text><ellipse cx="168" cy="542.9727" fill="#222222" rx="10" ry="10" style="stroke:#222222;stroke-width:1.0;"/><rect fill="#F1F1F1" height="33.9688" rx="12.5" ry="12.5" style="stroke:#181818;stroke-width:0.5;" width="270" x="33" y="575.5391"/><text fill="#000000" font-family="sans-serif" font-size="12" lengthAdjust="spacing" textLength="250" x="43" y="596.6777">return position==LabelPosition.LEGACY;</text><ellipse cx="168" cy="640.5078" fill="none" rx="11" ry="11" style="stroke:#222222;stroke-width:1.0;"/><ellipse cx="168" cy="640.5078" fill="#222222" rx="6" ry="6" style="stroke:#111111;stroke-width:1.0;"/><ellipse cx="168" cy="671.5078" fill="none" rx="10" ry="10" style="stroke:#222222;stroke-width:1.5;"/><line style="stroke:#222222;stroke-width:2.5;" x1="161.8128" x2="174.1872" y1="665.3206" y2="677.695"/><line style="stroke:#222222;stroke-width:2.5;" x1="174.1872" x2="161.8128" y1="665.3206" y2="677.695"/><path d="M198,691.5078 L198,700.0742 L178,704.0742 L198,708.0742 L198,716.6406 A0,0 0 0 0 198,716.6406 L360,716.6406 A0,0 0 0 0 360,716.6406 L360,701.5078 L350,691.5078 L198,691.5078 A0,0 0 0 0 198,691.5078 " fill="#FEFFDD" style="stroke:#181818;stroke-width:0.5;"/><path d="M350,691.5078 L350,701.5078 L360,701.5078 L350,691.5078 " fill="#FEFFDD" style="stroke:#181818;stroke-width:0.5;"/><text fill="#000000" font-family="sans-serif" font-size="13" lengthAdjust="spacing" textLength="141" x="204" y="708.5747">boolean rightAligned()</text><ellipse cx="168" cy="704.0742" fill="#222222" rx="10" ry="10" style="stroke:#222222;stroke-width:1.0;"/><rect fill="#F1F1F1" height="33.9688" rx="12.5" ry="12.5" style="stroke:#181818;stroke-width:0.5;" width="313" x="11.5" y="736.6406"/><text fill="#000000" font-family="sans-serif" font-size="12" lengthAdjust="spacing" textLength="293" x="21.5" y="757.7793">return alignment==HorizontalAlignment.RIGHT;</text><ellipse cx="168" cy="801.6094" fill="none" rx="11" ry="11" style="stroke:#222222;stroke-width:1.0;"/><ellipse cx="168" cy="801.6094" fill="#222222" rx="6" ry="6" style="stroke:#111111;stroke-width:1.0;"/><ellipse cx="168" cy="832.6094" fill="none" rx="10" ry="10" style="stroke:#222222;stroke-width:1.5;"/><line style="stroke:#222222;stroke-width:2.5;" x1="161.8128" x2="174.1872" y1="826.4222" y2="838.7966"/><line style="stroke:#222222;stroke-width:2.5;" x1="174.1872" x2="161.8128" y1="826.4222" y2="838.7966"/><line style="stroke:#181818;stroke-width:1.0;" x1="168" x2="168" y1="40.1328" y2="70.2656"/><polygon fill="#181818" points="164,60.2656,168,70.2656,172,60.2656,168,64.2656" style="stroke:#181818;stroke-width:1.0;"/><line style="stroke:#181818;stroke-width:1.0;" x1="168" x2="168" y1="104.2344" y2="124.2344"/><polygon fill="#181818" points="164,114.2344,168,124.2344,172,114.2344,168,118.2344" style="stroke:#181818;stroke-width:1.0;"/><line style="stroke:#181818;stroke-width:1.0;" x1="168" x2="168" y1="158.2031" y2="178.2031"/><polygon fill="#181818" points="164,168.2031,168,178.2031,172,168.2031,168,172.2031" style="stroke:#181818;stroke-width:1.0;"/><line style="stroke:#181818;stroke-width:1.0;" x1="168" x2="168" y1="230.7695" y2="253.3359"/><polygon fill="#181818" points="164,243.3359,168,253.3359,172,243.3359,168,247.3359" style="stroke:#181818;stroke-width:1.0;"/><line style="stroke:#181818;stroke-width:1.0;" x1="168" x2="168" y1="287.3047" y2="307.3047"/><polygon fill="#181818" points="164,297.3047,168,307.3047,172,297.3047,168,301.3047" style="stroke:#181818;stroke-width:1.0;"/><line style="stroke:#181818;stroke-width:1.0;" x1="168" x2="168" y1="391.8711" y2="414.4375"/><polygon fill="#181818" points="164,404.4375,168,414.4375,172,404.4375,168,408.4375" style="stroke:#181818;stroke-width:1.0;"/><line style="stroke:#181818;stroke-width:1.0;" x1="168" x2="168" y1="448.4063" y2="468.4063"/><polygon fill="#181818" points="164,458.4063,168,468.4063,172,458.4063,168,462.4063" style="stroke:#181818;stroke-width:1.0;"/><line style="stroke:#181818;stroke-width:1.0;" x1="168" x2="168" y1="552.9727" y2="575.5391"/><polygon fill="#181818" points="164,565.5391,168,575.5391,172,565.5391,168,569.5391" style="stroke:#181818;stroke-width:1.0;"/><line style="stroke:#181818;stroke-width:1.0;" x1="168" x2="168" y1="609.5078" y2="629.5078"/><polygon fill="#181818" points="164,619.5078,168,629.5078,172,619.5078,168,623.5078" style="stroke:#181818;stroke-width:1.0;"/><line style="stroke:#181818;stroke-width:1.0;" x1="168" x2="168" y1="714.0742" y2="736.6406"/><polygon fill="#181818" points="164,726.6406,168,736.6406,172,726.6406,168,730.6406" style="stroke:#181818;stroke-width:1.0;"/><line style="stroke:#181818;stroke-width:1.0;" x1="168" x2="168" y1="770.6094" y2="790.6094"/><polygon fill="#181818" points="164,780.6094,168,790.6094,172,780.6094,168,784.6094" style="stroke:#181818;stroke-width:1.0;"/><!--MD5=[33f011849298bffd34aab0e823c2104e]
@startuml
!pragma layout smetana
start
note right
constructor LabelStrategy(LabelPosition position,
HorizontalAlignment alignment)
end note
:this.position=position;;
:this.alignment=alignment;;
end
start
note right
boolean titleInFirstColumn()
end note
:return position==LabelPosition.FIRST_COLUMN;;
stop
end
start
note right
boolean titleInLastColumn()
end note
:return position==LabelPosition.LAST_COLUMN;;
stop
end
start
note right
boolean titleInside()
end note
:return position==LabelPosition.LEGACY;;
stop
end
start
note right
boolean rightAligned()
end note
:return alignment==HorizontalAlignment.RIGHT;;
stop
end
@enduml

PlantUML version 1.2022.7(Mon Aug 22 17:01:30 UTC 2022)
(GPL source distribution)
Java Runtime: OpenJDK Runtime Environment
JVM: OpenJDK 64-Bit Server VM
Default Encoding: UTF-8
Language: en
Country: null
--></g></svg>