<?xml version="1.0" encoding="UTF-8" standalone="no"?><svg xmlns="http://www.w3.org/2000/svg" xmlns:xlink="http://www.w3.org/1999/xlink" contentStyleType="text/css" height="1569px" preserveAspectRatio="none" style="width:1007px;height:1569px;background:#FFFFFF;" version="1.1" viewBox="0 0 1007 1569" width="1007px" zoomAndPan="magnify"><defs/><g><path d="M533.5,10 L533.5,18.5664 L513.5,22.5664 L533.5,26.5664 L533.5,35.1328 A0,0 0 0 0 533.5,35.1328 L780.5,35.1328 A0,0 0 0 0 780.5,35.1328 L780.5,20 L770.5,10 L533.5,10 A0,0 0 0 0 533.5,10 " fill="#FEFFDD" style="stroke:#181818;stroke-width:0.5;"/><path d="M770.5,10 L770.5,20 L780.5,20 L770.5,10 " fill="#FEFFDD" style="stroke:#181818;stroke-width:0.5;"/><text fill="#000000" font-family="sans-serif" font-size="13" lengthAdjust="spacing" textLength="226" x="539.5" y="27.0669">void convert(File svgFile,File pdfFile)</text><ellipse cx="503.5" cy="22.5664" fill="#222222" rx="10" ry="10" style="stroke:#222222;stroke-width:1.0;"/><rect fill="#F1F1F1" height="33.9688" rx="12.5" ry="12.5" style="stroke:#181818;stroke-width:0.5;" width="260" x="373.5" y="103.5352"/><text fill="#000000" font-family="sans-serif" font-size="12" lengthAdjust="spacing" textLength="240" x="383.5" y="124.6738">throw new IllegalArgumentException();</text><ellipse cx="503.5" cy="177.0195" fill="none" rx="11" ry="11" style="stroke:#222222;stroke-width:1.0;"/><ellipse cx="503.5" cy="177.0195" fill="#222222" rx="6" ry="6" style="stroke:#111111;stroke-width:1.0;"/><polygon fill="#F1F1F1" points="438,55.1328,569,55.1328,581,67.1328,569,79.1328,438,79.1328,426,67.1328,438,55.1328" style="stroke:#181818;stroke-width:0.5;"/><text fill="#000000" font-family="sans-serif" font-size="11" lengthAdjust="spacing" textLength="20" x="507.5" y="89.3433">yes</text><text fill="#000000" font-family="sans-serif" font-size="11" lengthAdjust="spacing" textLength="131" x="438" y="70.9409">svgFile.exists()==false</text><rect fill="#F1F1F1" height="33.9688" rx="12.5" ry="12.5" style="stroke:#181818;stroke-width:0.5;" width="119" x="444" y="230.0195"/><text fill="#000000" font-family="sans-serif" font-size="12" lengthAdjust="spacing" textLength="99" x="454" y="251.1582">pdfFile.delete();</text><rect fill="#F1F1F1" height="33.9688" rx="12.5" ry="12.5" style="stroke:#181818;stroke-width:0.5;" width="233" x="387" y="332.3906"/><text fill="#000000" font-family="sans-serif" font-size="12" lengthAdjust="spacing" textLength="213" x="397" y="353.5293">throw new IllegalStateException();</text><ellipse cx="503.5" cy="405.875" fill="none" rx="11" ry="11" style="stroke:#222222;stroke-width:1.0;"/><ellipse cx="503.5" cy="405.875" fill="#222222" rx="6" ry="6" style="stroke:#111111;stroke-width:1.0;"/><polygon fill="#F1F1F1" points="462,283.9883,545,283.9883,557,295.9883,545,307.9883,462,307.9883,450,295.9883,462,283.9883" style="stroke:#181818;stroke-width:0.5;"/><text fill="#000000" font-family="sans-serif" font-size="11" lengthAdjust="spacing" textLength="20" x="507.5" y="318.1987">yes</text><text fill="#000000" font-family="sans-serif" font-size="11" lengthAdjust="spacing" textLength="83" x="462" y="299.7964">pdfFile.exists()</text><polygon fill="#F1F1F1" points="462.5,458.875,544.5,458.875,556.5,470.875,544.5,482.875,462.5,482.875,450.5,470.875,462.5,458.875" style="stroke:#181818;stroke-width:0.5;"/><text fill="#000000" font-family="sans-serif" font-size="11" lengthAdjust="spacing" textLength="82" x="462.5" y="474.6831">try/catch block</text><rect fill="#F1F1F1" height="33.9688" rx="12.5" ry="12.5" style="stroke:#181818;stroke-width:0.5;" width="284" x="198" y="518.4844"/><text fill="#000000" font-family="sans-serif" font-size="12" lengthAdjust="spacing" textLength="264" x="208" y="539.623">System.setProperty("log4j.debug","false");</text><rect fill="#F1F1F1" height="33.9688" rx="12.5" ry="12.5" style="stroke:#181818;stroke-width:0.5;" width="628" x="26" y="572.4531"/><text fill="#000000" font-family="sans-serif" font-size="12" lengthAdjust="spacing" textLength="608" x="36" y="593.5918">final Class&lt;?&gt; clSVGConverter=Class.forName("org.apache.batik.apps.rasterizer.SVGConverter");</text><rect fill="#F1F1F1" height="33.9688" rx="12.5" ry="12.5" style="stroke:#181818;stroke-width:0.5;" width="357" x="161.5" y="626.4219"/><text fill="#000000" font-family="sans-serif" font-size="12" lengthAdjust="spacing" textLength="337" x="171.5" y="647.5605">final Object converter=clSVGConverter.newInstance();</text><rect fill="#F1F1F1" height="33.9688" rx="12.5" ry="12.5" style="stroke:#181818;stroke-width:0.5;" width="658" x="11" y="680.3906"/><text fill="#000000" font-family="sans-serif" font-size="12" lengthAdjust="spacing" textLength="638" x="21" y="701.5293">final Class&lt;?&gt; clDestinationType=Class.forName("org.apache.batik.apps.rasterizer.DestinationType");</text><rect fill="#F1F1F1" height="47.9375" rx="12.5" ry="12.5" style="stroke:#181818;stroke-width:0.5;" width="333" x="173.5" y="734.3594"/><text fill="#000000" font-family="sans-serif" font-size="12" lengthAdjust="spacing" textLength="313" x="183.5" y="755.498">final Object pdf=clDestinationType.getField("PDF")</text><text fill="#000000" font-family="sans-serif" font-size="12" lengthAdjust="spacing" textLength="65" x="183.5" y="769.4668">.get(null );</text><rect fill="#F1F1F1" height="47.9375" rx="12.5" ry="12.5" style="stroke:#181818;stroke-width:0.5;" width="540" x="70" y="802.2969"/><text fill="#000000" font-family="sans-serif" font-size="12" lengthAdjust="spacing" textLength="520" x="80" y="823.4355">final Method setDestinationType=clSVGConverter.getMethod("setDestinationType",</text><text fill="#000000" font-family="sans-serif" font-size="12" lengthAdjust="spacing" textLength="120" x="80" y="837.4043">clDestinationType);</text><rect fill="#F1F1F1" height="33.9688" rx="12.5" ry="12.5" style="stroke:#181818;stroke-width:0.5;" width="283" x="198.5" y="870.2344"/><text fill="#000000" font-family="sans-serif" font-size="12" lengthAdjust="spacing" textLength="263" x="208.5" y="891.373">setDestinationType.invoke(converter,pdf);</text><rect fill="#F1F1F1" height="33.9688" rx="12.5" ry="12.5" style="stroke:#181818;stroke-width:0.5;" width="397" x="141.5" y="924.2031"/><text fill="#000000" font-family="sans-serif" font-size="12" lengthAdjust="spacing" textLength="377" x="151.5" y="945.3418">final String[] path=new String[]{svgFile.getAbsolutePath()};</text><rect fill="#F1F1F1" height="47.9375" rx="12.5" ry="12.5" style="stroke:#181818;stroke-width:0.5;" width="440" x="120" y="978.1719"/><text fill="#000000" font-family="sans-serif" font-size="12" lengthAdjust="spacing" textLength="420" x="130" y="999.3105">final Method setSources=clSVGConverter.getMethod("setSources",</text><text fill="#000000" font-family="sans-serif" font-size="12" lengthAdjust="spacing" textLength="106" x="130" y="1013.2793">path.getClass());</text><rect fill="#F1F1F1" height="33.9688" rx="12.5" ry="12.5" style="stroke:#181818;stroke-width:0.5;" width="337" x="171.5" y="1046.1094"/><text fill="#000000" font-family="sans-serif" font-size="12" lengthAdjust="spacing" textLength="317" x="181.5" y="1067.248">setSources.invoke(converter,new Object[]{path});</text><rect fill="#F1F1F1" height="47.9375" rx="12.5" ry="12.5" style="stroke:#181818;stroke-width:0.5;" width="380" x="150" y="1100.0781"/><text fill="#000000" font-family="sans-serif" font-size="12" lengthAdjust="spacing" textLength="360" x="160" y="1121.2168">final Method setDst=clSVGConverter.getMethod("setDst",</text><text fill="#000000" font-family="sans-serif" font-size="12" lengthAdjust="spacing" textLength="118" x="160" y="1135.1855">pdfFile.getClass());</text><rect fill="#F1F1F1" height="33.9688" rx="12.5" ry="12.5" style="stroke:#181818;stroke-width:0.5;" width="319" x="180.5" y="1168.0156"/><text fill="#000000" font-family="sans-serif" font-size="12" lengthAdjust="spacing" textLength="299" x="190.5" y="1189.1543">setDst.invoke(converter,new Object[]{pdfFile});</text><rect fill="#F1F1F1" height="33.9688" rx="12.5" ry="12.5" style="stroke:#181818;stroke-width:0.5;" width="403" x="138.5" y="1221.9844"/><text fill="#000000" font-family="sans-serif" font-size="12" lengthAdjust="spacing" textLength="383" x="148.5" y="1243.123">final Method execute=clSVGConverter.getMethod("execute");</text><rect fill="#F1F1F1" height="33.9688" rx="12.5" ry="12.5" style="stroke:#181818;stroke-width:0.5;" width="188" x="246" y="1275.9531"/><text fill="#000000" font-family="sans-serif" font-size="12" lengthAdjust="spacing" textLength="168" x="256" y="1297.0918">execute.invoke(converter);</text><rect fill="#F1F1F1" height="33.9688" rx="12.5" ry="12.5" style="stroke:#181818;stroke-width:0.5;" width="118" x="783.5" y="518.4844"/><text fill="#000000" font-family="sans-serif" font-size="12" lengthAdjust="spacing" textLength="98" x="793.5" y="539.623">Logme.error(e);</text><rect fill="#F1F1F1" height="33.9688" rx="12.5" ry="12.5" style="stroke:#181818;stroke-width:0.5;" width="307" x="689" y="572.4531"/><text fill="#000000" font-family="sans-serif" font-size="12" lengthAdjust="spacing" textLength="287" x="699" y="593.5918">throw new UnsupportedOperationException();</text><ellipse cx="842.5" cy="637.4219" fill="none" rx="11" ry="11" style="stroke:#222222;stroke-width:1.0;"/><ellipse cx="842.5" cy="637.4219" fill="#222222" rx="6" ry="6" style="stroke:#111111;stroke-width:1.0;"/><polygon fill="#F1F1F1" points="503.5,1319.9219,503.5,1319.9219,515.5,1331.9219,503.5,1343.9219,503.5,1343.9219,491.5,1331.9219,503.5,1319.9219" style="stroke:#181818;stroke-width:0.5;"/><rect fill="#F1F1F1" height="33.9688" rx="12.5" ry="12.5" style="stroke:#181818;stroke-width:0.5;" width="233" x="387" y="1412.3242"/><text fill="#000000" font-family="sans-serif" font-size="12" lengthAdjust="spacing" textLength="213" x="397" y="1433.4629">throw new IllegalStateException();</text><ellipse cx="503.5" cy="1485.8086" fill="none" rx="11" ry="11" style="stroke:#222222;stroke-width:1.0;"/><ellipse cx="503.5" cy="1485.8086" fill="#222222" rx="6" ry="6" style="stroke:#111111;stroke-width:1.0;"/><polygon fill="#F1F1F1" points="439,1363.9219,568,1363.9219,580,1375.9219,568,1387.9219,439,1387.9219,427,1375.9219,439,1363.9219" style="stroke:#181818;stroke-width:0.5;"/><text fill="#000000" font-family="sans-serif" font-size="11" lengthAdjust="spacing" textLength="20" x="507.5" y="1398.1323">yes</text><text fill="#000000" font-family="sans-serif" font-size="11" lengthAdjust="spacing" textLength="129" x="439" y="1379.73">pdfFile.exists()==false</text><ellipse cx="503.5" cy="1548.8086" fill="none" rx="10" ry="10" style="stroke:#222222;stroke-width:1.5;"/><line style="stroke:#222222;stroke-width:2.5;" x1="497.3128" x2="509.6872" y1="1542.6214" y2="1554.9958"/><line style="stroke:#222222;stroke-width:2.5;" x1="509.6872" x2="497.3128" y1="1542.6214" y2="1554.9958"/><line style="stroke:#181818;stroke-width:1.0;" x1="503.5" x2="503.5" y1="137.5039" y2="166.0195"/><polygon fill="#181818" points="499.5,156.0195,503.5,166.0195,507.5,156.0195,503.5,160.0195" style="stroke:#181818;stroke-width:1.0;"/><line style="stroke:#181818;stroke-width:1.0;" x1="503.5" x2="503.5" y1="79.1328" y2="103.5352"/><polygon fill="#181818" points="499.5,93.5352,503.5,103.5352,507.5,93.5352,503.5,97.5352" style="stroke:#181818;stroke-width:1.0;"/><line style="stroke:#181818;stroke-width:1.0;" x1="581" x2="643.5" y1="67.1328" y2="67.1328"/><polygon fill="#181818" points="639.5,136.0195,643.5,146.0195,647.5,136.0195,643.5,140.0195" style="stroke:#181818;stroke-width:1.0;"/><line style="stroke:#181818;stroke-width:1.0;" x1="643.5" x2="643.5" y1="67.1328" y2="210.0195"/><line style="stroke:#181818;stroke-width:1.0;" x1="643.5" x2="503.5" y1="210.0195" y2="210.0195"/><line style="stroke:#181818;stroke-width:1.0;" x1="503.5" x2="503.5" y1="210.0195" y2="230.0195"/><polygon fill="#181818" points="499.5,220.0195,503.5,230.0195,507.5,220.0195,503.5,224.0195" style="stroke:#181818;stroke-width:1.0;"/><line style="stroke:#181818;stroke-width:1.0;" x1="503.5" x2="503.5" y1="32.5664" y2="55.1328"/><polygon fill="#181818" points="499.5,45.1328,503.5,55.1328,507.5,45.1328,503.5,49.1328" style="stroke:#181818;stroke-width:1.0;"/><line style="stroke:#181818;stroke-width:1.0;" x1="503.5" x2="503.5" y1="366.3594" y2="394.875"/><polygon fill="#181818" points="499.5,384.875,503.5,394.875,507.5,384.875,503.5,388.875" style="stroke:#181818;stroke-width:1.0;"/><line style="stroke:#181818;stroke-width:1.0;" x1="503.5" x2="503.5" y1="307.9883" y2="332.3906"/><polygon fill="#181818" points="499.5,322.3906,503.5,332.3906,507.5,322.3906,503.5,326.3906" style="stroke:#181818;stroke-width:1.0;"/><line style="stroke:#181818;stroke-width:1.0;" x1="557" x2="630" y1="295.9883" y2="295.9883"/><polygon fill="#181818" points="626,364.875,630,374.875,634,364.875,630,368.875" style="stroke:#181818;stroke-width:1.0;"/><line style="stroke:#181818;stroke-width:1.0;" x1="630" x2="630" y1="295.9883" y2="438.875"/><line style="stroke:#181818;stroke-width:1.0;" x1="630" x2="503.5" y1="438.875" y2="438.875"/><line style="stroke:#181818;stroke-width:1.0;" x1="503.5" x2="503.5" y1="438.875" y2="458.875"/><polygon fill="#181818" points="499.5,448.875,503.5,458.875,507.5,448.875,503.5,452.875" style="stroke:#181818;stroke-width:1.0;"/><line style="stroke:#181818;stroke-width:1.0;" x1="503.5" x2="503.5" y1="263.9883" y2="283.9883"/><polygon fill="#181818" points="499.5,273.9883,503.5,283.9883,507.5,273.9883,503.5,277.9883" style="stroke:#181818;stroke-width:1.0;"/><line style="stroke:#181818;stroke-width:1.0;" x1="340" x2="340" y1="552.4531" y2="572.4531"/><polygon fill="#181818" points="336,562.4531,340,572.4531,344,562.4531,340,566.4531" style="stroke:#181818;stroke-width:1.0;"/><line style="stroke:#181818;stroke-width:1.0;" x1="340" x2="340" y1="606.4219" y2="626.4219"/><polygon fill="#181818" points="336,616.4219,340,626.4219,344,616.4219,340,620.4219" style="stroke:#181818;stroke-width:1.0;"/><line style="stroke:#181818;stroke-width:1.0;" x1="340" x2="340" y1="660.3906" y2="680.3906"/><polygon fill="#181818" points="336,670.3906,340,680.3906,344,670.3906,340,674.3906" style="stroke:#181818;stroke-width:1.0;"/><line style="stroke:#181818;stroke-width:1.0;" x1="340" x2="340" y1="714.3594" y2="734.3594"/><polygon fill="#181818" points="336,724.3594,340,734.3594,344,724.3594,340,728.3594" style="stroke:#181818;stroke-width:1.0;"/><line style="stroke:#181818;stroke-width:1.0;" x1="340" x2="340" y1="782.2969" y2="802.2969"/><polygon fill="#181818" points="336,792.2969,340,802.2969,344,792.2969,340,796.2969" style="stroke:#181818;stroke-width:1.0;"/><line style="stroke:#181818;stroke-width:1.0;" x1="340" x2="340" y1="850.2344" y2="870.2344"/><polygon fill="#181818" points="336,860.2344,340,870.2344,344,860.2344,340,864.2344" style="stroke:#181818;stroke-width:1.0;"/><line style="stroke:#181818;stroke-width:1.0;" x1="340" x2="340" y1="904.2031" y2="924.2031"/><polygon fill="#181818" points="336,914.2031,340,924.2031,344,914.2031,340,918.2031" style="stroke:#181818;stroke-width:1.0;"/><line style="stroke:#181818;stroke-width:1.0;" x1="340" x2="340" y1="958.1719" y2="978.1719"/><polygon fill="#181818" points="336,968.1719,340,978.1719,344,968.1719,340,972.1719" style="stroke:#181818;stroke-width:1.0;"/><line style="stroke:#181818;stroke-width:1.0;" x1="340" x2="340" y1="1026.1094" y2="1046.1094"/><polygon fill="#181818" points="336,1036.1094,340,1046.1094,344,1036.1094,340,1040.1094" style="stroke:#181818;stroke-width:1.0;"/><line style="stroke:#181818;stroke-width:1.0;" x1="340" x2="340" y1="1080.0781" y2="1100.0781"/><polygon fill="#181818" points="336,1090.0781,340,1100.0781,344,1090.0781,340,1094.0781" style="stroke:#181818;stroke-width:1.0;"/><line style="stroke:#181818;stroke-width:1.0;" x1="340" x2="340" y1="1148.0156" y2="1168.0156"/><polygon fill="#181818" points="336,1158.0156,340,1168.0156,344,1158.0156,340,1162.0156" style="stroke:#181818;stroke-width:1.0;"/><line style="stroke:#181818;stroke-width:1.0;" x1="340" x2="340" y1="1201.9844" y2="1221.9844"/><polygon fill="#181818" points="336,1211.9844,340,1221.9844,344,1211.9844,340,1215.9844" style="stroke:#181818;stroke-width:1.0;"/><line style="stroke:#181818;stroke-width:1.0;" x1="340" x2="340" y1="1255.9531" y2="1275.9531"/><polygon fill="#181818" points="336,1265.9531,340,1275.9531,344,1265.9531,340,1269.9531" style="stroke:#181818;stroke-width:1.0;"/><line style="stroke:#181818;stroke-width:1.0;" x1="842.5" x2="842.5" y1="552.4531" y2="572.4531"/><polygon fill="#181818" points="838.5,562.4531,842.5,572.4531,846.5,562.4531,842.5,566.4531" style="stroke:#181818;stroke-width:1.0;"/><line style="stroke:#181818;stroke-width:1.0;" x1="842.5" x2="842.5" y1="606.4219" y2="626.4219"/><polygon fill="#181818" points="838.5,616.4219,842.5,626.4219,846.5,616.4219,842.5,620.4219" style="stroke:#181818;stroke-width:1.0;"/><line style="stroke:#181818;stroke-width:1.0;" x1="450.5" x2="340" y1="470.875" y2="470.875"/><line style="stroke:#181818;stroke-width:1.0;" x1="340" x2="340" y1="470.875" y2="518.4844"/><polygon fill="#181818" points="336,508.4844,340,518.4844,344,508.4844,340,512.4844" style="stroke:#181818;stroke-width:1.0;"/><text fill="#000000" font-family="sans-serif" font-size="11" lengthAdjust="spacing" textLength="15" x="340" y="498.4878">try</text><line style="stroke:#181818;stroke-width:1.0;" x1="556.5" x2="842.5" y1="470.875" y2="470.875"/><line style="stroke:#181818;stroke-width:1.0;" x1="842.5" x2="842.5" y1="470.875" y2="518.4844"/><polygon fill="#181818" points="838.5,508.4844,842.5,518.4844,846.5,508.4844,842.5,512.4844" style="stroke:#181818;stroke-width:1.0;"/><text fill="#000000" font-family="sans-serif" font-size="11" lengthAdjust="spacing" textLength="107" x="842.5" y="498.4878">catch (Exception e)</text><line style="stroke:#181818;stroke-width:1.0;" x1="340" x2="340" y1="1309.9219" y2="1331.9219"/><line style="stroke:#181818;stroke-width:1.0;" x1="340" x2="491.5" y1="1331.9219" y2="1331.9219"/><polygon fill="#181818" points="481.5,1327.9219,491.5,1331.9219,481.5,1335.9219,485.5,1331.9219" style="stroke:#181818;stroke-width:1.0;"/><line style="stroke:#181818;stroke-width:1.0;" x1="503.5" x2="503.5" y1="1446.293" y2="1474.8086"/><polygon fill="#181818" points="499.5,1464.8086,503.5,1474.8086,507.5,1464.8086,503.5,1468.8086" style="stroke:#181818;stroke-width:1.0;"/><line style="stroke:#181818;stroke-width:1.0;" x1="503.5" x2="503.5" y1="1387.9219" y2="1412.3242"/><polygon fill="#181818" points="499.5,1402.3242,503.5,1412.3242,507.5,1402.3242,503.5,1406.3242" style="stroke:#181818;stroke-width:1.0;"/><line style="stroke:#181818;stroke-width:1.0;" x1="580" x2="630" y1="1375.9219" y2="1375.9219"/><polygon fill="#181818" points="626,1444.8086,630,1454.8086,634,1444.8086,630,1448.8086" style="stroke:#181818;stroke-width:1.0;"/><line style="stroke:#181818;stroke-width:1.0;" x1="630" x2="630" y1="1375.9219" y2="1518.8086"/><line style="stroke:#181818;stroke-width:1.0;" x1="630" x2="503.5" y1="1518.8086" y2="1518.8086"/><line style="stroke:#181818;stroke-width:1.0;" x1="503.5" x2="503.5" y1="1518.8086" y2="1538.8086"/><polygon fill="#181818" points="499.5,1528.8086,503.5,1538.8086,507.5,1528.8086,503.5,1532.8086" style="stroke:#181818;stroke-width:1.0;"/><line style="stroke:#181818;stroke-width:1.0;" x1="503.5" x2="503.5" y1="1343.9219" y2="1363.9219"/><polygon fill="#181818" points="499.5,1353.9219,503.5,1363.9219,507.5,1353.9219,503.5,1357.9219" style="stroke:#181818;stroke-width:1.0;"/><!--MD5=[d153962755490727b7cd72d400e92c15]
@startuml
!pragma layout smetana
start
note right
void convert(File svgFile,File pdfFile)
end note
if (svgFile.exists()==false) then (yes) 
:throw new IllegalArgumentException();;
stop
endif 
:pdfFile.delete();;
if (pdfFile.exists()) then (yes) 
:throw new IllegalStateException();;
stop
endif 
switch (try/catch block)
case (try)
:System.setProperty("log4j.debug","false");;
:final Class<?> clSVGConverter=Class.forName("org.apache.batik.apps.rasterizer.SVGConverter");;
:final Object converter=clSVGConverter.newInstance();;
:final Class<?> clDestinationType=Class.forName("org.apache.batik.apps.rasterizer.DestinationType");;
:final Object pdf=clDestinationType.getField("PDF")
.get(null );;
:final Method setDestinationType=clSVGConverter.getMethod("setDestinationType",
clDestinationType);;
:setDestinationType.invoke(converter,pdf);;
:final String[] path=new String[]{svgFile.getAbsolutePath()};;
:final Method setSources=clSVGConverter.getMethod("setSources",
path.getClass());;
:setSources.invoke(converter,new Object[]{path});;
:final Method setDst=clSVGConverter.getMethod("setDst",
pdfFile.getClass());;
:setDst.invoke(converter,new Object[]{pdfFile});;
:final Method execute=clSVGConverter.getMethod("execute");;
:execute.invoke(converter);;
case (catch (Exception e))
:Logme.error(e);;
:throw new UnsupportedOperationException();;
stop
endswitch
if (pdfFile.exists()==false) then (yes) 
:throw new IllegalStateException();;
stop
endif 
end
@enduml

PlantUML version 1.2022.7(Mon Aug 22 17:01:30 UTC 2022)
(GPL source distribution)
Java Runtime: OpenJDK Runtime Environment
JVM: OpenJDK 64-Bit Server VM
Default Encoding: UTF-8
Language: en
Country: null
--></g></svg>