<?xml version="1.0" encoding="UTF-8" standalone="no"?><svg xmlns="http://www.w3.org/2000/svg" xmlns:xlink="http://www.w3.org/1999/xlink" contentStyleType="text/css" height="2607px" preserveAspectRatio="none" style="width:1327px;height:2607px;background:#FFFFFF;" version="1.1" viewBox="0 0 1327 2607" width="1327px" zoomAndPan="magnify"><defs/><g><path d="M693.5,10 L693.5,26.1328 L673.5,30.1328 L693.5,34.1328 L693.5,50.2656 A0,0 0 0 0 693.5,50.2656 L1046.5,50.2656 A0,0 0 0 0 1046.5,50.2656 L1046.5,20 L1036.5,10 L693.5,10 A0,0 0 0 0 693.5,10 " fill="#FEFFDD" style="stroke:#181818;stroke-width:0.5;"/><path d="M1036.5,10 L1036.5,20 L1046.5,20 L1036.5,10 " fill="#FEFFDD" style="stroke:#181818;stroke-width:0.5;"/><text fill="#000000" font-family="sans-serif" font-size="13" lengthAdjust="spacing" textLength="332" x="699.5" y="27.0669">constructor CommandFactoryTipOnEntity(Stringkey,</text><text fill="#000000" font-family="sans-serif" font-size="13" lengthAdjust="spacing" textLength="134" x="699.5" y="42.1997">IRegexpartialPattern)</text><ellipse cx="663.5" cy="30.1328" fill="#222222" rx="10" ry="10" style="stroke:#222222;stroke-width:1.0;"/><rect fill="#F1F1F1" height="33.9688" rx="12.5" ry="12.5" style="stroke:#181818;stroke-width:0.5;" width="235" x="546" y="70.2656"/><text fill="#000000" font-family="sans-serif" font-size="12" lengthAdjust="spacing" textLength="215" x="556" y="91.4043">this.partialPattern=partialPattern;</text><rect fill="#F1F1F1" height="33.9688" rx="12.5" ry="12.5" style="stroke:#181818;stroke-width:0.5;" width="103" x="612" y="124.2344"/><text fill="#000000" font-family="sans-serif" font-size="12" lengthAdjust="spacing" textLength="83" x="622" y="145.373">this.key=key;</text><ellipse cx="663.5" cy="188.2031" fill="none" rx="10" ry="10" style="stroke:#222222;stroke-width:1.5;"/><line style="stroke:#222222;stroke-width:2.5;" x1="657.3128" x2="669.6872" y1="182.0159" y2="194.3903"/><line style="stroke:#222222;stroke-width:2.5;" x1="669.6872" x2="657.3128" y1="182.0159" y2="194.3903"/><path d="M693.5,208.2031 L693.5,224.3359 L673.5,228.3359 L693.5,232.3359 L693.5,248.4688 A0,0 0 0 0 693.5,248.4688 L1097.5,248.4688 A0,0 0 0 0 1097.5,248.4688 L1097.5,218.2031 L1087.5,208.2031 L693.5,208.2031 A0,0 0 0 0 693.5,208.2031 " fill="#FEFFDD" style="stroke:#181818;stroke-width:0.5;"/><path d="M1087.5,208.2031 L1087.5,218.2031 L1097.5,218.2031 L1087.5,208.2031 " fill="#FEFFDD" style="stroke:#181818;stroke-width:0.5;"/><text fill="#000000" font-family="sans-serif" font-size="13" lengthAdjust="spacing" textLength="383" x="699.5" y="225.27">RegexConcatgetRegexConcatMultiLine(IRegexpartialPattern,</text><text fill="#000000" font-family="sans-serif" font-size="13" lengthAdjust="spacing" textLength="160" x="699.5" y="240.4028">final booleanwithBracket)</text><ellipse cx="663.5" cy="228.3359" fill="#222222" rx="10" ry="10" style="stroke:#222222;stroke-width:1.0;"/><rect fill="#F1F1F1" height="117.7813" rx="12.5" ry="12.5" style="stroke:#181818;stroke-width:0.5;" width="1101" x="113" y="316.8711"/><text fill="#000000" font-family="sans-serif" font-size="12" lengthAdjust="spacing" textLength="463" x="123" y="338.0098">return RegexConcat.build(CommandFactoryTipOnEntity.class .getName()+</text><text fill="#000000" font-family="sans-serif" font-size="12" lengthAdjust="spacing" textLength="366" x="123" y="351.9785">key+withBracket,RegexLeaf.start(),new RegexLeaf("note"),</text><text fill="#000000" font-family="sans-serif" font-size="12" lengthAdjust="spacing" textLength="358" x="123" y="365.9473">RegexLeaf.spaceOneOrMore(),new RegexLeaf("POSITION",</text><text fill="#000000" font-family="sans-serif" font-size="12" lengthAdjust="spacing" textLength="272" x="123" y="379.916">"(right|left)"),RegexLeaf.spaceOneOrMore(),</text><text fill="#000000" font-family="sans-serif" font-size="12" lengthAdjust="spacing" textLength="1081" x="123" y="393.8848">new RegexLeaf("of"),RegexLeaf.spaceOneOrMore(),partialPattern,RegexLeaf.spaceZeroOrMore(),ColorParser.exp1(),RegexLeaf.spaceZeroOrMore(),new RegexLeaf("URL","("+</text><text fill="#000000" font-family="sans-serif" font-size="12" lengthAdjust="spacing" textLength="376" x="123" y="407.8535">UrlBuilder.getRegexp()+")?"),RegexLeaf.spaceZeroOrMore(),</text><text fill="#000000" font-family="sans-serif" font-size="12" lengthAdjust="spacing" textLength="244" x="123" y="421.8223">new RegexLeaf("\\{"),RegexLeaf.end());</text><ellipse cx="663.5" cy="465.6523" fill="none" rx="11" ry="11" style="stroke:#222222;stroke-width:1.0;"/><ellipse cx="663.5" cy="465.6523" fill="#222222" rx="6" ry="6" style="stroke:#111111;stroke-width:1.0;"/><polygon fill="#F1F1F1" points="630.5,268.4688,696.5,268.4688,708.5,280.4688,696.5,292.4688,630.5,292.4688,618.5,280.4688,630.5,268.4688" style="stroke:#181818;stroke-width:0.5;"/><text fill="#000000" font-family="sans-serif" font-size="11" lengthAdjust="spacing" textLength="20" x="667.5" y="302.6792">yes</text><text fill="#000000" font-family="sans-serif" font-size="11" lengthAdjust="spacing" textLength="66" x="630.5" y="284.2769">withBracket</text><rect fill="#F1F1F1" height="103.8125" rx="12.5" ry="12.5" style="stroke:#181818;stroke-width:0.5;" width="1101" x="113" y="518.6523"/><text fill="#000000" font-family="sans-serif" font-size="12" lengthAdjust="spacing" textLength="463" x="123" y="539.791">return RegexConcat.build(CommandFactoryTipOnEntity.class .getName()+</text><text fill="#000000" font-family="sans-serif" font-size="12" lengthAdjust="spacing" textLength="366" x="123" y="553.7598">key+withBracket,RegexLeaf.start(),new RegexLeaf("note"),</text><text fill="#000000" font-family="sans-serif" font-size="12" lengthAdjust="spacing" textLength="358" x="123" y="567.7285">RegexLeaf.spaceOneOrMore(),new RegexLeaf("POSITION",</text><text fill="#000000" font-family="sans-serif" font-size="12" lengthAdjust="spacing" textLength="272" x="123" y="581.6973">"(right|left)"),RegexLeaf.spaceOneOrMore(),</text><text fill="#000000" font-family="sans-serif" font-size="12" lengthAdjust="spacing" textLength="1081" x="123" y="595.666">new RegexLeaf("of"),RegexLeaf.spaceOneOrMore(),partialPattern,RegexLeaf.spaceZeroOrMore(),ColorParser.exp1(),RegexLeaf.spaceZeroOrMore(),new RegexLeaf("URL","("+</text><text fill="#000000" font-family="sans-serif" font-size="12" lengthAdjust="spacing" textLength="292" x="123" y="609.6348">UrlBuilder.getRegexp()+")?"),RegexLeaf.end());</text><ellipse cx="663.5" cy="653.4648" fill="none" rx="11" ry="11" style="stroke:#222222;stroke-width:1.0;"/><ellipse cx="663.5" cy="653.4648" fill="#222222" rx="6" ry="6" style="stroke:#111111;stroke-width:1.0;"/><ellipse cx="663.5" cy="684.4648" fill="none" rx="10" ry="10" style="stroke:#222222;stroke-width:1.5;"/><line style="stroke:#222222;stroke-width:2.5;" x1="657.3128" x2="669.6872" y1="678.2777" y2="690.652"/><line style="stroke:#222222;stroke-width:2.5;" x1="669.6872" x2="657.3128" y1="678.2777" y2="690.652"/><path d="M693.5,704.4648 L693.5,713.0313 L673.5,717.0313 L693.5,721.0313 L693.5,729.5977 A0,0 0 0 0 693.5,729.5977 L1064.5,729.5977 A0,0 0 0 0 1064.5,729.5977 L1064.5,714.4648 L1054.5,704.4648 L693.5,704.4648 A0,0 0 0 0 693.5,704.4648 " fill="#FEFFDD" style="stroke:#181818;stroke-width:0.5;"/><path d="M1054.5,704.4648 L1054.5,714.4648 L1064.5,714.4648 L1054.5,704.4648 " fill="#FEFFDD" style="stroke:#181818;stroke-width:0.5;"/><text fill="#000000" font-family="sans-serif" font-size="13" lengthAdjust="spacing" textLength="350" x="699.5" y="721.5317">Command&lt;AbstractEntityDiagram&gt;createSingleLine()</text><ellipse cx="663.5" cy="717.0313" fill="#222222" rx="10" ry="10" style="stroke:#222222;stroke-width:1.0;"/><rect fill="#F1F1F1" height="33.9688" rx="12.5" ry="12.5" style="stroke:#181818;stroke-width:0.5;" width="307" x="510" y="749.5977"/><text fill="#000000" font-family="sans-serif" font-size="12" lengthAdjust="spacing" textLength="287" x="520" y="770.7363">throw new UnsupportedOperationException();</text><ellipse cx="663.5" cy="814.5664" fill="none" rx="11" ry="11" style="stroke:#222222;stroke-width:1.0;"/><ellipse cx="663.5" cy="814.5664" fill="#222222" rx="6" ry="6" style="stroke:#111111;stroke-width:1.0;"/><ellipse cx="663.5" cy="845.5664" fill="none" rx="10" ry="10" style="stroke:#222222;stroke-width:1.5;"/><line style="stroke:#222222;stroke-width:2.5;" x1="657.3128" x2="669.6872" y1="839.3792" y2="851.7536"/><line style="stroke:#222222;stroke-width:2.5;" x1="669.6872" x2="657.3128" y1="839.3792" y2="851.7536"/><path d="M693.5,865.5664 L693.5,874.1328 L673.5,878.1328 L693.5,882.1328 L693.5,890.6992 A0,0 0 0 0 693.5,890.6992 L1210.5,890.6992 A0,0 0 0 0 1210.5,890.6992 L1210.5,875.5664 L1200.5,865.5664 L693.5,865.5664 A0,0 0 0 0 693.5,865.5664 " fill="#FEFFDD" style="stroke:#181818;stroke-width:0.5;"/><path d="M1200.5,865.5664 L1200.5,875.5664 L1210.5,875.5664 L1200.5,865.5664 " fill="#FEFFDD" style="stroke:#181818;stroke-width:0.5;"/><text fill="#000000" font-family="sans-serif" font-size="13" lengthAdjust="spacing" textLength="496" x="699.5" y="882.6333">Command&lt;AbstractEntityDiagram&gt;createMultiLine(final booleanwithBracket)</text><ellipse cx="663.5" cy="878.1328" fill="#222222" rx="10" ry="10" style="stroke:#222222;stroke-width:1.0;"/><rect fill="#F1F1F1" height="145.7188" rx="12.5" ry="12.5" style="stroke:#181818;stroke-width:0.5;" width="1305" x="11" y="910.6992"/><text fill="#000000" font-family="sans-serif" font-size="12" lengthAdjust="spacing" textLength="618" x="21" y="931.8379">return new CommandMultilines2&lt;AbstractEntityDiagram&gt;(getRegexConcatMultiLine(partialPattern,</text><text fill="#000000" font-family="sans-serif" font-size="12" lengthAdjust="spacing" textLength="345" x="21" y="945.8066">withBracket),MultilinesStrategy.KEEP_STARTING_QUOTE,</text><text fill="#000000" font-family="sans-serif" font-size="12" lengthAdjust="spacing" textLength="1285" x="21" y="959.7754">Trim.BOTH){@Override public StringgetPatternEnd(){if (withBracket){return "^(\\})$";}return "^[%s]*(end[%s]?note)$";}protected CommandExecutionResultexecuteNow(final AbstractEntityDiagramsystem,</text><text fill="#000000" font-family="sans-serif" font-size="12" lengthAdjust="spacing" textLength="1039" x="21" y="973.7441">BlocLineslines)throws NoSuchColorException{final RegexResultline0=getStartingPattern().matcher(lines.getFirst().getTrimmed().getString());lines=lines.subExtract(1,</text><text fill="#000000" font-family="sans-serif" font-size="12" lengthAdjust="spacing" textLength="426" x="21" y="987.7129">1);lines=lines.removeEmptyColumns();Urlurl=null ;if (line0.get("URL",</text><text fill="#000000" font-family="sans-serif" font-size="12" lengthAdjust="spacing" textLength="586" x="21" y="1001.6816">0)!=null ){final UrlBuilderurlBuilder=new UrlBuilder(system.getSkinParam().getValue("topurl"),</text><text fill="#000000" font-family="sans-serif" font-size="12" lengthAdjust="spacing" textLength="334" x="21" y="1015.6504">UrlMode.STRICT);url=urlBuilder.getUrl(line0.get("URL",</text><text fill="#000000" font-family="sans-serif" font-size="12" lengthAdjust="spacing" textLength="258" x="21" y="1029.6191">0));}return executeInternal(line0,system,</text><text fill="#000000" font-family="sans-serif" font-size="12" lengthAdjust="spacing" textLength="78" x="21" y="1043.5879">url,lines);}};</text><ellipse cx="663.5" cy="1087.418" fill="none" rx="11" ry="11" style="stroke:#222222;stroke-width:1.0;"/><ellipse cx="663.5" cy="1087.418" fill="#222222" rx="6" ry="6" style="stroke:#111111;stroke-width:1.0;"/><ellipse cx="663.5" cy="1118.418" fill="none" rx="10" ry="10" style="stroke:#222222;stroke-width:1.5;"/><line style="stroke:#222222;stroke-width:2.5;" x1="657.3128" x2="669.6872" y1="1112.2308" y2="1124.6052"/><line style="stroke:#222222;stroke-width:2.5;" x1="669.6872" x2="657.3128" y1="1112.2308" y2="1124.6052"/><path d="M693.5,1138.418 L693.5,1154.5508 L673.5,1158.5508 L693.5,1162.5508 L693.5,1178.6836 A0,0 0 0 0 693.5,1178.6836 L1098.5,1178.6836 A0,0 0 0 0 1098.5,1178.6836 L1098.5,1148.418 L1088.5,1138.418 L693.5,1138.418 A0,0 0 0 0 693.5,1138.418 " fill="#FEFFDD" style="stroke:#181818;stroke-width:0.5;"/><path d="M1088.5,1138.418 L1088.5,1148.418 L1098.5,1148.418 L1088.5,1138.418 " fill="#FEFFDD" style="stroke:#181818;stroke-width:0.5;"/><text fill="#000000" font-family="sans-serif" font-size="13" lengthAdjust="spacing" textLength="384" x="699.5" y="1155.4849">CommandExecutionResultexecuteInternal(RegexResultline0,</text><text fill="#000000" font-family="sans-serif" font-size="13" lengthAdjust="spacing" textLength="334" x="699.5" y="1170.6177">AbstractEntityDiagramdiagram,Urlurl,BlocLineslines)</text><ellipse cx="663.5" cy="1158.5508" fill="#222222" rx="10" ry="10" style="stroke:#222222;stroke-width:1.0;"/><rect fill="#F1F1F1" height="33.9688" rx="12.5" ry="12.5" style="stroke:#181818;stroke-width:0.5;" width="267" x="530" y="1198.6836"/><text fill="#000000" font-family="sans-serif" font-size="12" lengthAdjust="spacing" textLength="247" x="540" y="1219.8223">final Stringpos=line0.get("POSITION",0);</text><rect fill="#F1F1F1" height="33.9688" rx="12.5" ry="12.5" style="stroke:#181818;stroke-width:0.5;" width="274" x="526.5" y="1252.6523"/><text fill="#000000" font-family="sans-serif" font-size="12" lengthAdjust="spacing" textLength="254" x="536.5" y="1273.791">final StringidShort=line0.get("ENTITY",0);</text><rect fill="#F1F1F1" height="33.9688" rx="12.5" ry="12.5" style="stroke:#181818;stroke-width:0.5;" width="360" x="483.5" y="1306.6211"/><text fill="#000000" font-family="sans-serif" font-size="12" lengthAdjust="spacing" textLength="340" x="493.5" y="1327.7598">final IdentidentShort=diagram.buildLeafIdent(idShort);</text><rect fill="#F1F1F1" height="33.9688" rx="12.5" ry="12.5" style="stroke:#181818;stroke-width:0.5;" width="518" x="404.5" y="1360.5898"/><text fill="#000000" font-family="sans-serif" font-size="12" lengthAdjust="spacing" textLength="498" x="414.5" y="1381.7285">final CodecodeShort=diagram.V1972()? identShort:diagram.buildCode(idShort);</text><rect fill="#F1F1F1" height="47.9375" rx="12.5" ry="12.5" style="stroke:#181818;stroke-width:0.5;" width="647" x="340" y="1414.5586"/><text fill="#000000" font-family="sans-serif" font-size="12" lengthAdjust="spacing" textLength="627" x="350" y="1435.6973">final Stringmember=StringUtils.eventuallyRemoveStartingAndEndingDoubleQuote(line0.get("ENTITY",</text><text fill="#000000" font-family="sans-serif" font-size="12" lengthAdjust="spacing" textLength="22" x="350" y="1449.666">1));</text><rect fill="#F1F1F1" height="33.9688" rx="12.5" ry="12.5" style="stroke:#181818;stroke-width:0.5;" width="98" x="614.5" y="1530.8984"/><text fill="#000000" font-family="sans-serif" font-size="12" lengthAdjust="spacing" textLength="78" x="624.5" y="1552.0371">assert false;</text><rect fill="#F1F1F1" height="33.9688" rx="12.5" ry="12.5" style="stroke:#181818;stroke-width:0.5;" width="400" x="463.5" y="1584.8672"/><text fill="#000000" font-family="sans-serif" font-size="12" lengthAdjust="spacing" textLength="380" x="473.5" y="1606.0059">return CommandExecutionResult.error("Nothing to note to");</text><ellipse cx="663.5" cy="1649.8359" fill="none" rx="11" ry="11" style="stroke:#222222;stroke-width:1.0;"/><ellipse cx="663.5" cy="1649.8359" fill="#222222" rx="6" ry="6" style="stroke:#111111;stroke-width:1.0;"/><polygon fill="#F1F1F1" points="613.5,1482.4961,713.5,1482.4961,725.5,1494.4961,713.5,1506.4961,613.5,1506.4961,601.5,1494.4961,613.5,1482.4961" style="stroke:#181818;stroke-width:0.5;"/><text fill="#000000" font-family="sans-serif" font-size="11" lengthAdjust="spacing" textLength="20" x="667.5" y="1516.7065">yes</text><text fill="#000000" font-family="sans-serif" font-size="11" lengthAdjust="spacing" textLength="96" x="613.5" y="1498.3042">codeShort==null</text><rect fill="#F1F1F1" height="47.9375" rx="12.5" ry="12.5" style="stroke:#181818;stroke-width:0.5;" width="349" x="489" y="1702.8359"/><text fill="#000000" font-family="sans-serif" font-size="12" lengthAdjust="spacing" textLength="329" x="499" y="1723.9746">final IEntitycl1=diagram.getOrCreateLeaf(identShort,</text><text fill="#000000" font-family="sans-serif" font-size="12" lengthAdjust="spacing" textLength="134" x="499" y="1737.9434">codeShort,null ,null );</text><rect fill="#F1F1F1" height="47.9375" rx="12.5" ry="12.5" style="stroke:#181818;stroke-width:0.5;" width="456" x="435.5" y="1770.7734"/><text fill="#000000" font-family="sans-serif" font-size="12" lengthAdjust="spacing" textLength="436" x="445.5" y="1791.9121">final Positionposition=Position.valueOf(StringUtils.goUpperCase(pos))</text><text fill="#000000" font-family="sans-serif" font-size="12" lengthAdjust="spacing" textLength="324" x="445.5" y="1805.8809">.withRankdir(diagram.getSkinParam().getRankdir());</text><rect fill="#F1F1F1" height="47.9375" rx="12.5" ry="12.5" style="stroke:#181818;stroke-width:0.5;" width="345" x="491" y="1838.7109"/><text fill="#000000" font-family="sans-serif" font-size="12" lengthAdjust="spacing" textLength="325" x="501" y="1859.8496">final IdentidentTip=diagram.buildLeafIdent(idShort+</text><text fill="#000000" font-family="sans-serif" font-size="12" lengthAdjust="spacing" textLength="152" x="501" y="1873.8184">"$$$"+position.name());</text><rect fill="#F1F1F1" height="33.9688" rx="12.5" ry="12.5" style="stroke:#181818;stroke-width:0.5;" width="290" x="518.5" y="1906.6484"/><text fill="#000000" font-family="sans-serif" font-size="12" lengthAdjust="spacing" textLength="270" x="528.5" y="1927.7871">IEntitytips=diagram.getLeafStrict(identTip);</text><rect fill="#F1F1F1" height="47.9375" rx="12.5" ry="12.5" style="stroke:#181818;stroke-width:0.5;" width="434" x="446.5" y="2009.0195"/><text fill="#000000" font-family="sans-serif" font-size="12" lengthAdjust="spacing" textLength="414" x="456.5" y="2030.1582">tips=diagram.getOrCreateLeaf(identTip,identTip.toCode(diagram),</text><text fill="#000000" font-family="sans-serif" font-size="12" lengthAdjust="spacing" textLength="124" x="456.5" y="2044.127">LeafType.TIPS,null );</text><rect fill="#F1F1F1" height="47.9375" rx="12.5" ry="12.5" style="stroke:#181818;stroke-width:0.5;" width="331" x="498" y="2076.957"/><text fill="#000000" font-family="sans-serif" font-size="12" lengthAdjust="spacing" textLength="311" x="508" y="2098.0957">final LinkTypetype=new LinkType(LinkDecor.NONE,</text><text fill="#000000" font-family="sans-serif" font-size="12" lengthAdjust="spacing" textLength="193" x="508" y="2112.0645">LinkDecor.NONE).getInvisible();</text><rect fill="#F1F1F1" height="33.9688" rx="12.5" ry="12.5" style="stroke:#181818;stroke-width:0.5;" width="99" x="614" y="2144.8945"/><text fill="#000000" font-family="sans-serif" font-size="12" lengthAdjust="spacing" textLength="79" x="624" y="2166.0332">final Linklink;</text><polygon fill="#F1F1F1" points="590.5,2206.8945,736.5,2206.8945,748.5,2218.8945,736.5,2230.8945,590.5,2230.8945,578.5,2218.8945,590.5,2206.8945" style="stroke:#181818;stroke-width:0.5;"/><text fill="#000000" font-family="sans-serif" font-size="11" lengthAdjust="spacing" textLength="146" x="590.5" y="2222.7026">position==Position.RIGHT</text><text fill="#000000" font-family="sans-serif" font-size="11" lengthAdjust="spacing" textLength="20" x="558.5" y="2216.3003">yes</text><text fill="#000000" font-family="sans-serif" font-size="11" lengthAdjust="spacing" textLength="14" x="748.5" y="2216.3003">no</text><rect fill="#F1F1F1" height="47.9375" rx="12.5" ry="12.5" style="stroke:#181818;stroke-width:0.5;" width="420" x="233.5" y="2240.8945"/><text fill="#000000" font-family="sans-serif" font-size="12" lengthAdjust="spacing" textLength="400" x="243.5" y="2262.0332">link=new Link(diagram.getSkinParam().getCurrentStyleBuilder(),</text><text fill="#000000" font-family="sans-serif" font-size="12" lengthAdjust="spacing" textLength="264" x="243.5" y="2276.002">cl1,(IEntity)tips,type,LinkArg.noDisplay(1));</text><rect fill="#F1F1F1" height="47.9375" rx="12.5" ry="12.5" style="stroke:#181818;stroke-width:0.5;" width="420" x="673.5" y="2240.8945"/><text fill="#000000" font-family="sans-serif" font-size="12" lengthAdjust="spacing" textLength="400" x="683.5" y="2262.0332">link=new Link(diagram.getSkinParam().getCurrentStyleBuilder(),</text><text fill="#000000" font-family="sans-serif" font-size="12" lengthAdjust="spacing" textLength="264" x="683.5" y="2276.002">(IEntity)tips,cl1,type,LinkArg.noDisplay(1));</text><polygon fill="#F1F1F1" points="663.5,2294.832,675.5,2306.832,663.5,2318.832,651.5,2306.832,663.5,2294.832" style="stroke:#181818;stroke-width:0.5;"/><rect fill="#F1F1F1" height="33.9688" rx="12.5" ry="12.5" style="stroke:#181818;stroke-width:0.5;" width="158" x="584.5" y="2338.832"/><text fill="#000000" font-family="sans-serif" font-size="12" lengthAdjust="spacing" textLength="138" x="594.5" y="2359.9707">diagram.addLink(link);</text><polygon fill="#F1F1F1" points="632,1960.6172,695,1960.6172,707,1972.6172,695,1984.6172,632,1984.6172,620,1972.6172,632,1960.6172" style="stroke:#181818;stroke-width:0.5;"/><text fill="#000000" font-family="sans-serif" font-size="11" lengthAdjust="spacing" textLength="20" x="667.5" y="1994.8276">yes</text><text fill="#000000" font-family="sans-serif" font-size="11" lengthAdjust="spacing" textLength="59" x="632" y="1976.4253">tips==null</text><polygon fill="#F1F1F1" points="663.5,2392.8008,675.5,2404.8008,663.5,2416.8008,651.5,2404.8008,663.5,2392.8008" style="stroke:#181818;stroke-width:0.5;"/><rect fill="#F1F1F1" height="33.9688" rx="12.5" ry="12.5" style="stroke:#181818;stroke-width:0.5;" width="255" x="536" y="2436.8008"/><text fill="#000000" font-family="sans-serif" font-size="12" lengthAdjust="spacing" textLength="235" x="546" y="2457.9395">tips.putTip(member,lines.toDisplay());</text><rect fill="#F1F1F1" height="33.9688" rx="12.5" ry="12.5" style="stroke:#181818;stroke-width:0.5;" width="258" x="534.5" y="2490.7695"/><text fill="#000000" font-family="sans-serif" font-size="12" lengthAdjust="spacing" textLength="238" x="544.5" y="2511.9082">return CommandExecutionResult.ok();</text><ellipse cx="663.5" cy="2555.7383" fill="none" rx="11" ry="11" style="stroke:#222222;stroke-width:1.0;"/><ellipse cx="663.5" cy="2555.7383" fill="#222222" rx="6" ry="6" style="stroke:#111111;stroke-width:1.0;"/><ellipse cx="663.5" cy="2586.7383" fill="none" rx="10" ry="10" style="stroke:#222222;stroke-width:1.5;"/><line style="stroke:#222222;stroke-width:2.5;" x1="657.3128" x2="669.6872" y1="2580.5511" y2="2592.9255"/><line style="stroke:#222222;stroke-width:2.5;" x1="669.6872" x2="657.3128" y1="2580.5511" y2="2592.9255"/><line style="stroke:#181818;stroke-width:1.0;" x1="663.5" x2="663.5" y1="40.1328" y2="70.2656"/><polygon fill="#181818" points="659.5,60.2656,663.5,70.2656,667.5,60.2656,663.5,64.2656" style="stroke:#181818;stroke-width:1.0;"/><line style="stroke:#181818;stroke-width:1.0;" x1="663.5" x2="663.5" y1="104.2344" y2="124.2344"/><polygon fill="#181818" points="659.5,114.2344,663.5,124.2344,667.5,114.2344,663.5,118.2344" style="stroke:#181818;stroke-width:1.0;"/><line style="stroke:#181818;stroke-width:1.0;" x1="663.5" x2="663.5" y1="158.2031" y2="178.2031"/><polygon fill="#181818" points="659.5,168.2031,663.5,178.2031,667.5,168.2031,663.5,172.2031" style="stroke:#181818;stroke-width:1.0;"/><line style="stroke:#181818;stroke-width:1.0;" x1="663.5" x2="663.5" y1="434.6523" y2="454.6523"/><polygon fill="#181818" points="659.5,444.6523,663.5,454.6523,667.5,444.6523,663.5,448.6523" style="stroke:#181818;stroke-width:1.0;"/><line style="stroke:#181818;stroke-width:1.0;" x1="663.5" x2="663.5" y1="292.4688" y2="316.8711"/><polygon fill="#181818" points="659.5,306.8711,663.5,316.8711,667.5,306.8711,663.5,310.8711" style="stroke:#181818;stroke-width:1.0;"/><line style="stroke:#181818;stroke-width:1.0;" x1="708.5" x2="1224" y1="280.4688" y2="280.4688"/><polygon fill="#181818" points="1220,391.2617,1224,401.2617,1228,391.2617,1224,395.2617" style="stroke:#181818;stroke-width:1.0;"/><line style="stroke:#181818;stroke-width:1.0;" x1="1224" x2="1224" y1="280.4688" y2="498.6523"/><line style="stroke:#181818;stroke-width:1.0;" x1="1224" x2="663.5" y1="498.6523" y2="498.6523"/><line style="stroke:#181818;stroke-width:1.0;" x1="663.5" x2="663.5" y1="498.6523" y2="518.6523"/><polygon fill="#181818" points="659.5,508.6523,663.5,518.6523,667.5,508.6523,663.5,512.6523" style="stroke:#181818;stroke-width:1.0;"/><line style="stroke:#181818;stroke-width:1.0;" x1="663.5" x2="663.5" y1="238.3359" y2="268.4688"/><polygon fill="#181818" points="659.5,258.4688,663.5,268.4688,667.5,258.4688,663.5,262.4688" style="stroke:#181818;stroke-width:1.0;"/><line style="stroke:#181818;stroke-width:1.0;" x1="663.5" x2="663.5" y1="622.4648" y2="642.4648"/><polygon fill="#181818" points="659.5,632.4648,663.5,642.4648,667.5,632.4648,663.5,636.4648" style="stroke:#181818;stroke-width:1.0;"/><line style="stroke:#181818;stroke-width:1.0;" x1="663.5" x2="663.5" y1="727.0313" y2="749.5977"/><polygon fill="#181818" points="659.5,739.5977,663.5,749.5977,667.5,739.5977,663.5,743.5977" style="stroke:#181818;stroke-width:1.0;"/><line style="stroke:#181818;stroke-width:1.0;" x1="663.5" x2="663.5" y1="783.5664" y2="803.5664"/><polygon fill="#181818" points="659.5,793.5664,663.5,803.5664,667.5,793.5664,663.5,797.5664" style="stroke:#181818;stroke-width:1.0;"/><line style="stroke:#181818;stroke-width:1.0;" x1="663.5" x2="663.5" y1="888.1328" y2="910.6992"/><polygon fill="#181818" points="659.5,900.6992,663.5,910.6992,667.5,900.6992,663.5,904.6992" style="stroke:#181818;stroke-width:1.0;"/><line style="stroke:#181818;stroke-width:1.0;" x1="663.5" x2="663.5" y1="1056.418" y2="1076.418"/><polygon fill="#181818" points="659.5,1066.418,663.5,1076.418,667.5,1066.418,663.5,1070.418" style="stroke:#181818;stroke-width:1.0;"/><line style="stroke:#181818;stroke-width:1.0;" x1="663.5" x2="663.5" y1="1168.5508" y2="1198.6836"/><polygon fill="#181818" points="659.5,1188.6836,663.5,1198.6836,667.5,1188.6836,663.5,1192.6836" style="stroke:#181818;stroke-width:1.0;"/><line style="stroke:#181818;stroke-width:1.0;" x1="663.5" x2="663.5" y1="1232.6523" y2="1252.6523"/><polygon fill="#181818" points="659.5,1242.6523,663.5,1252.6523,667.5,1242.6523,663.5,1246.6523" style="stroke:#181818;stroke-width:1.0;"/><line style="stroke:#181818;stroke-width:1.0;" x1="663.5" x2="663.5" y1="1286.6211" y2="1306.6211"/><polygon fill="#181818" points="659.5,1296.6211,663.5,1306.6211,667.5,1296.6211,663.5,1300.6211" style="stroke:#181818;stroke-width:1.0;"/><line style="stroke:#181818;stroke-width:1.0;" x1="663.5" x2="663.5" y1="1340.5898" y2="1360.5898"/><polygon fill="#181818" points="659.5,1350.5898,663.5,1360.5898,667.5,1350.5898,663.5,1354.5898" style="stroke:#181818;stroke-width:1.0;"/><line style="stroke:#181818;stroke-width:1.0;" x1="663.5" x2="663.5" y1="1394.5586" y2="1414.5586"/><polygon fill="#181818" points="659.5,1404.5586,663.5,1414.5586,667.5,1404.5586,663.5,1408.5586" style="stroke:#181818;stroke-width:1.0;"/><line style="stroke:#181818;stroke-width:1.0;" x1="663.5" x2="663.5" y1="1564.8672" y2="1584.8672"/><polygon fill="#181818" points="659.5,1574.8672,663.5,1584.8672,667.5,1574.8672,663.5,1578.8672" style="stroke:#181818;stroke-width:1.0;"/><line style="stroke:#181818;stroke-width:1.0;" x1="663.5" x2="663.5" y1="1618.8359" y2="1638.8359"/><polygon fill="#181818" points="659.5,1628.8359,663.5,1638.8359,667.5,1628.8359,663.5,1632.8359" style="stroke:#181818;stroke-width:1.0;"/><line style="stroke:#181818;stroke-width:1.0;" x1="663.5" x2="663.5" y1="1506.4961" y2="1530.8984"/><polygon fill="#181818" points="659.5,1520.8984,663.5,1530.8984,667.5,1520.8984,663.5,1524.8984" style="stroke:#181818;stroke-width:1.0;"/><line style="stroke:#181818;stroke-width:1.0;" x1="725.5" x2="873.5" y1="1494.4961" y2="1494.4961"/><polygon fill="#181818" points="869.5,1582.8672,873.5,1592.8672,877.5,1582.8672,873.5,1586.8672" style="stroke:#181818;stroke-width:1.0;"/><line style="stroke:#181818;stroke-width:1.0;" x1="873.5" x2="873.5" y1="1494.4961" y2="1682.8359"/><line style="stroke:#181818;stroke-width:1.0;" x1="873.5" x2="663.5" y1="1682.8359" y2="1682.8359"/><line style="stroke:#181818;stroke-width:1.0;" x1="663.5" x2="663.5" y1="1682.8359" y2="1702.8359"/><polygon fill="#181818" points="659.5,1692.8359,663.5,1702.8359,667.5,1692.8359,663.5,1696.8359" style="stroke:#181818;stroke-width:1.0;"/><line style="stroke:#181818;stroke-width:1.0;" x1="663.5" x2="663.5" y1="1462.4961" y2="1482.4961"/><polygon fill="#181818" points="659.5,1472.4961,663.5,1482.4961,667.5,1472.4961,663.5,1476.4961" style="stroke:#181818;stroke-width:1.0;"/><line style="stroke:#181818;stroke-width:1.0;" x1="663.5" x2="663.5" y1="1750.7734" y2="1770.7734"/><polygon fill="#181818" points="659.5,1760.7734,663.5,1770.7734,667.5,1760.7734,663.5,1764.7734" style="stroke:#181818;stroke-width:1.0;"/><line style="stroke:#181818;stroke-width:1.0;" x1="663.5" x2="663.5" y1="1818.7109" y2="1838.7109"/><polygon fill="#181818" points="659.5,1828.7109,663.5,1838.7109,667.5,1828.7109,663.5,1832.7109" style="stroke:#181818;stroke-width:1.0;"/><line style="stroke:#181818;stroke-width:1.0;" x1="663.5" x2="663.5" y1="1886.6484" y2="1906.6484"/><polygon fill="#181818" points="659.5,1896.6484,663.5,1906.6484,667.5,1896.6484,663.5,1900.6484" style="stroke:#181818;stroke-width:1.0;"/><line style="stroke:#181818;stroke-width:1.0;" x1="663.5" x2="663.5" y1="2056.957" y2="2076.957"/><polygon fill="#181818" points="659.5,2066.957,663.5,2076.957,667.5,2066.957,663.5,2070.957" style="stroke:#181818;stroke-width:1.0;"/><line style="stroke:#181818;stroke-width:1.0;" x1="663.5" x2="663.5" y1="2124.8945" y2="2144.8945"/><polygon fill="#181818" points="659.5,2134.8945,663.5,2144.8945,667.5,2134.8945,663.5,2138.8945" style="stroke:#181818;stroke-width:1.0;"/><line style="stroke:#181818;stroke-width:1.0;" x1="578.5" x2="443.5" y1="2218.8945" y2="2218.8945"/><line style="stroke:#181818;stroke-width:1.0;" x1="443.5" x2="443.5" y1="2218.8945" y2="2240.8945"/><polygon fill="#181818" points="439.5,2230.8945,443.5,2240.8945,447.5,2230.8945,443.5,2234.8945" style="stroke:#181818;stroke-width:1.0;"/><line style="stroke:#181818;stroke-width:1.0;" x1="748.5" x2="883.5" y1="2218.8945" y2="2218.8945"/><line style="stroke:#181818;stroke-width:1.0;" x1="883.5" x2="883.5" y1="2218.8945" y2="2240.8945"/><polygon fill="#181818" points="879.5,2230.8945,883.5,2240.8945,887.5,2230.8945,883.5,2234.8945" style="stroke:#181818;stroke-width:1.0;"/><line style="stroke:#181818;stroke-width:1.0;" x1="443.5" x2="443.5" y1="2288.832" y2="2306.832"/><line style="stroke:#181818;stroke-width:1.0;" x1="443.5" x2="651.5" y1="2306.832" y2="2306.832"/><polygon fill="#181818" points="641.5,2302.832,651.5,2306.832,641.5,2310.832,645.5,2306.832" style="stroke:#181818;stroke-width:1.0;"/><line style="stroke:#181818;stroke-width:1.0;" x1="883.5" x2="883.5" y1="2288.832" y2="2306.832"/><line style="stroke:#181818;stroke-width:1.0;" x1="883.5" x2="675.5" y1="2306.832" y2="2306.832"/><polygon fill="#181818" points="685.5,2302.832,675.5,2306.832,685.5,2310.832,681.5,2306.832" style="stroke:#181818;stroke-width:1.0;"/><line style="stroke:#181818;stroke-width:1.0;" x1="663.5" x2="663.5" y1="2178.8633" y2="2206.8945"/><polygon fill="#181818" points="659.5,2196.8945,663.5,2206.8945,667.5,2196.8945,663.5,2200.8945" style="stroke:#181818;stroke-width:1.0;"/><line style="stroke:#181818;stroke-width:1.0;" x1="663.5" x2="663.5" y1="2318.832" y2="2338.832"/><polygon fill="#181818" points="659.5,2328.832,663.5,2338.832,667.5,2328.832,663.5,2332.832" style="stroke:#181818;stroke-width:1.0;"/><line style="stroke:#181818;stroke-width:1.0;" x1="663.5" x2="663.5" y1="1984.6172" y2="2009.0195"/><polygon fill="#181818" points="659.5,1999.0195,663.5,2009.0195,667.5,1999.0195,663.5,2003.0195" style="stroke:#181818;stroke-width:1.0;"/><line style="stroke:#181818;stroke-width:1.0;" x1="707" x2="1113.5" y1="1972.6172" y2="1972.6172"/><polygon fill="#181818" points="1109.5,2176.8945,1113.5,2186.8945,1117.5,2176.8945,1113.5,2180.8945" style="stroke:#181818;stroke-width:1.0;"/><line style="stroke:#181818;stroke-width:1.0;" x1="1113.5" x2="1113.5" y1="1972.6172" y2="2404.8008"/><line style="stroke:#181818;stroke-width:1.0;" x1="1113.5" x2="675.5" y1="2404.8008" y2="2404.8008"/><polygon fill="#181818" points="685.5,2400.8008,675.5,2404.8008,685.5,2408.8008,681.5,2404.8008" style="stroke:#181818;stroke-width:1.0;"/><line style="stroke:#181818;stroke-width:1.0;" x1="663.5" x2="663.5" y1="2372.8008" y2="2392.8008"/><polygon fill="#181818" points="659.5,2382.8008,663.5,2392.8008,667.5,2382.8008,663.5,2386.8008" style="stroke:#181818;stroke-width:1.0;"/><line style="stroke:#181818;stroke-width:1.0;" x1="663.5" x2="663.5" y1="1940.6172" y2="1960.6172"/><polygon fill="#181818" points="659.5,1950.6172,663.5,1960.6172,667.5,1950.6172,663.5,1954.6172" style="stroke:#181818;stroke-width:1.0;"/><line style="stroke:#181818;stroke-width:1.0;" x1="663.5" x2="663.5" y1="2416.8008" y2="2436.8008"/><polygon fill="#181818" points="659.5,2426.8008,663.5,2436.8008,667.5,2426.8008,663.5,2430.8008" style="stroke:#181818;stroke-width:1.0;"/><line style="stroke:#181818;stroke-width:1.0;" x1="663.5" x2="663.5" y1="2470.7695" y2="2490.7695"/><polygon fill="#181818" points="659.5,2480.7695,663.5,2490.7695,667.5,2480.7695,663.5,2484.7695" style="stroke:#181818;stroke-width:1.0;"/><line style="stroke:#181818;stroke-width:1.0;" x1="663.5" x2="663.5" y1="2524.7383" y2="2544.7383"/><polygon fill="#181818" points="659.5,2534.7383,663.5,2544.7383,667.5,2534.7383,663.5,2538.7383" style="stroke:#181818;stroke-width:1.0;"/><!--MD5=[1497f6ae7f492a6852d662b8aaa64c11]
@startuml
!pragma layout smetana
start
note right
constructor CommandFactoryTipOnEntity(Stringkey,
IRegexpartialPattern)
end note
:this.partialPattern=partialPattern;;
:this.key=key;;
end
start
note right
RegexConcatgetRegexConcatMultiLine(IRegexpartialPattern,
final booleanwithBracket)
end note
if (withBracket) then (yes) 
:return RegexConcat.build(CommandFactoryTipOnEntity.class .getName()+
key+withBracket,RegexLeaf.start(),new RegexLeaf("note"),
RegexLeaf.spaceOneOrMore(),new RegexLeaf("POSITION",
"(right|left)"),RegexLeaf.spaceOneOrMore(),
new RegexLeaf("of"),RegexLeaf.spaceOneOrMore(),partialPattern,RegexLeaf.spaceZeroOrMore(),ColorParser.exp1(),RegexLeaf.spaceZeroOrMore(),new RegexLeaf("URL","("+
UrlBuilder.getRegexp()+")?"),RegexLeaf.spaceZeroOrMore(),
new RegexLeaf("\\{"),RegexLeaf.end());;
stop
endif 
:return RegexConcat.build(CommandFactoryTipOnEntity.class .getName()+
key+withBracket,RegexLeaf.start(),new RegexLeaf("note"),
RegexLeaf.spaceOneOrMore(),new RegexLeaf("POSITION",
"(right|left)"),RegexLeaf.spaceOneOrMore(),
new RegexLeaf("of"),RegexLeaf.spaceOneOrMore(),partialPattern,RegexLeaf.spaceZeroOrMore(),ColorParser.exp1(),RegexLeaf.spaceZeroOrMore(),new RegexLeaf("URL","("+
UrlBuilder.getRegexp()+")?"),RegexLeaf.end());;
stop
end
start
note right
Command<AbstractEntityDiagram>createSingleLine()
end note
:throw new UnsupportedOperationException();;
stop
end
start
note right
Command<AbstractEntityDiagram>createMultiLine(final booleanwithBracket)
end note
:return new CommandMultilines2<AbstractEntityDiagram>(getRegexConcatMultiLine(partialPattern,
withBracket),MultilinesStrategy.KEEP_STARTING_QUOTE,
Trim.BOTH){@Override public StringgetPatternEnd(){if (withBracket){return "^(\\})$";}return "^[%s]*(end[%s]?note)$";}protected CommandExecutionResultexecuteNow(final AbstractEntityDiagramsystem,
BlocLineslines)throws NoSuchColorException{final RegexResultline0=getStartingPattern().matcher(lines.getFirst().getTrimmed().getString());lines=lines.subExtract(1,
1);lines=lines.removeEmptyColumns();Urlurl=null ;if (line0.get("URL",
0)!=null ){final UrlBuilderurlBuilder=new UrlBuilder(system.getSkinParam().getValue("topurl"),
UrlMode.STRICT);url=urlBuilder.getUrl(line0.get("URL",
0));}return executeInternal(line0,system,
url,lines);}};;
stop
end
start
note right
CommandExecutionResultexecuteInternal(RegexResultline0,
AbstractEntityDiagramdiagram,Urlurl,BlocLineslines)
end note
:final Stringpos=line0.get("POSITION",0);;
:final StringidShort=line0.get("ENTITY",0);;
:final IdentidentShort=diagram.buildLeafIdent(idShort);;
:final CodecodeShort=diagram.V1972()? identShort:diagram.buildCode(idShort);;
:final Stringmember=StringUtils.eventuallyRemoveStartingAndEndingDoubleQuote(line0.get("ENTITY",
1));;
if (codeShort==null ) then (yes) 
:assert false;;
:return CommandExecutionResult.error("Nothing to note to");;
stop
endif 
:final IEntitycl1=diagram.getOrCreateLeaf(identShort,
codeShort,null ,null );;
:final Positionposition=Position.valueOf(StringUtils.goUpperCase(pos))
.withRankdir(diagram.getSkinParam().getRankdir());;
:final IdentidentTip=diagram.buildLeafIdent(idShort+
"$$$"+position.name());;
:IEntitytips=diagram.getLeafStrict(identTip);;
if (tips==null ) then (yes) 
:tips=diagram.getOrCreateLeaf(identTip,identTip.toCode(diagram),
LeafType.TIPS,null );;
:final LinkTypetype=new LinkType(LinkDecor.NONE,
LinkDecor.NONE).getInvisible();;
:final Linklink;;
if (position==Position.RIGHT) then (yes) 
:link=new Link(diagram.getSkinParam().getCurrentStyleBuilder(),
cl1,(IEntity)tips,type,LinkArg.noDisplay(1));;
else (no)
:link=new Link(diagram.getSkinParam().getCurrentStyleBuilder(),
(IEntity)tips,cl1,type,LinkArg.noDisplay(1));;
endif 
:diagram.addLink(link);;
endif 
:tips.putTip(member,lines.toDisplay());;
:return CommandExecutionResult.ok();;
stop
end
@enduml

PlantUML version 1.2022.7(Mon Aug 22 17:01:30 UTC 2022)
(GPL source distribution)
Java Runtime: OpenJDK Runtime Environment
JVM: OpenJDK 64-Bit Server VM
Default Encoding: UTF-8
Language: en
Country: null
--></g></svg>