<?xml version="1.0" encoding="UTF-8" standalone="no"?><svg xmlns="http://www.w3.org/2000/svg" xmlns:xlink="http://www.w3.org/1999/xlink" contentStyleType="text/css" height="2607px" preserveAspectRatio="none" style="width:1339px;height:2607px;background:#FFFFFF;" version="1.1" viewBox="0 0 1339 2607" width="1339px" zoomAndPan="magnify"><defs/><g><path d="M699.5,10 L699.5,26.1328 L679.5,30.1328 L699.5,34.1328 L699.5,50.2656 A0,0 0 0 0 699.5,50.2656 L1056.5,50.2656 A0,0 0 0 0 1056.5,50.2656 L1056.5,20 L1046.5,10 L699.5,10 A0,0 0 0 0 699.5,10 " fill="#FEFFDD" style="stroke:#181818;stroke-width:0.5;"/><path d="M1046.5,10 L1046.5,20 L1056.5,20 L1046.5,10 " fill="#FEFFDD" style="stroke:#181818;stroke-width:0.5;"/><text fill="#000000" font-family="sans-serif" font-size="13" lengthAdjust="spacing" textLength="336" x="705.5" y="27.0669">constructor CommandFactoryTipOnEntity(String key,</text><text fill="#000000" font-family="sans-serif" font-size="13" lengthAdjust="spacing" textLength="138" x="705.5" y="42.1997">IRegex partialPattern)</text><ellipse cx="669.5" cy="30.1328" fill="#222222" rx="10" ry="10" style="stroke:#222222;stroke-width:1.0;"/><rect fill="#F1F1F1" height="33.9688" rx="12.5" ry="12.5" style="stroke:#181818;stroke-width:0.5;" width="235" x="552" y="70.2656"/><text fill="#000000" font-family="sans-serif" font-size="12" lengthAdjust="spacing" textLength="215" x="562" y="91.4043">this.partialPattern=partialPattern;</text><rect fill="#F1F1F1" height="33.9688" rx="12.5" ry="12.5" style="stroke:#181818;stroke-width:0.5;" width="103" x="618" y="124.2344"/><text fill="#000000" font-family="sans-serif" font-size="12" lengthAdjust="spacing" textLength="83" x="628" y="145.373">this.key=key;</text><ellipse cx="669.5" cy="188.2031" fill="none" rx="10" ry="10" style="stroke:#222222;stroke-width:1.5;"/><line style="stroke:#222222;stroke-width:2.5;" x1="663.3128" x2="675.6872" y1="182.0159" y2="194.3903"/><line style="stroke:#222222;stroke-width:2.5;" x1="675.6872" x2="663.3128" y1="182.0159" y2="194.3903"/><path d="M699.5,208.2031 L699.5,224.3359 L679.5,228.3359 L699.5,232.3359 L699.5,248.4688 A0,0 0 0 0 699.5,248.4688 L1111.5,248.4688 A0,0 0 0 0 1111.5,248.4688 L1111.5,218.2031 L1101.5,208.2031 L699.5,208.2031 A0,0 0 0 0 699.5,208.2031 " fill="#FEFFDD" style="stroke:#181818;stroke-width:0.5;"/><path d="M1101.5,208.2031 L1101.5,218.2031 L1111.5,218.2031 L1101.5,208.2031 " fill="#FEFFDD" style="stroke:#181818;stroke-width:0.5;"/><text fill="#000000" font-family="sans-serif" font-size="13" lengthAdjust="spacing" textLength="391" x="705.5" y="225.27">RegexConcat getRegexConcatMultiLine(IRegex partialPattern,</text><text fill="#000000" font-family="sans-serif" font-size="13" lengthAdjust="spacing" textLength="164" x="705.5" y="240.4028">final boolean withBracket)</text><ellipse cx="669.5" cy="228.3359" fill="#222222" rx="10" ry="10" style="stroke:#222222;stroke-width:1.0;"/><rect fill="#F1F1F1" height="117.7813" rx="12.5" ry="12.5" style="stroke:#181818;stroke-width:0.5;" width="1101" x="119" y="316.8711"/><text fill="#000000" font-family="sans-serif" font-size="12" lengthAdjust="spacing" textLength="463" x="129" y="338.0098">return RegexConcat.build(CommandFactoryTipOnEntity.class .getName()+</text><text fill="#000000" font-family="sans-serif" font-size="12" lengthAdjust="spacing" textLength="366" x="129" y="351.9785">key+withBracket,RegexLeaf.start(),new RegexLeaf("note"),</text><text fill="#000000" font-family="sans-serif" font-size="12" lengthAdjust="spacing" textLength="358" x="129" y="365.9473">RegexLeaf.spaceOneOrMore(),new RegexLeaf("POSITION",</text><text fill="#000000" font-family="sans-serif" font-size="12" lengthAdjust="spacing" textLength="272" x="129" y="379.916">"(right|left)"),RegexLeaf.spaceOneOrMore(),</text><text fill="#000000" font-family="sans-serif" font-size="12" lengthAdjust="spacing" textLength="1081" x="129" y="393.8848">new RegexLeaf("of"),RegexLeaf.spaceOneOrMore(),partialPattern,RegexLeaf.spaceZeroOrMore(),ColorParser.exp1(),RegexLeaf.spaceZeroOrMore(),new RegexLeaf("URL","("+</text><text fill="#000000" font-family="sans-serif" font-size="12" lengthAdjust="spacing" textLength="376" x="129" y="407.8535">UrlBuilder.getRegexp()+")?"),RegexLeaf.spaceZeroOrMore(),</text><text fill="#000000" font-family="sans-serif" font-size="12" lengthAdjust="spacing" textLength="244" x="129" y="421.8223">new RegexLeaf("\\{"),RegexLeaf.end());</text><ellipse cx="669.5" cy="465.6523" fill="none" rx="11" ry="11" style="stroke:#222222;stroke-width:1.0;"/><ellipse cx="669.5" cy="465.6523" fill="#222222" rx="6" ry="6" style="stroke:#111111;stroke-width:1.0;"/><polygon fill="#F1F1F1" points="636.5,268.4688,702.5,268.4688,714.5,280.4688,702.5,292.4688,636.5,292.4688,624.5,280.4688,636.5,268.4688" style="stroke:#181818;stroke-width:0.5;"/><text fill="#000000" font-family="sans-serif" font-size="11" lengthAdjust="spacing" textLength="20" x="673.5" y="302.6792">yes</text><text fill="#000000" font-family="sans-serif" font-size="11" lengthAdjust="spacing" textLength="66" x="636.5" y="284.2769">withBracket</text><rect fill="#F1F1F1" height="103.8125" rx="12.5" ry="12.5" style="stroke:#181818;stroke-width:0.5;" width="1101" x="119" y="518.6523"/><text fill="#000000" font-family="sans-serif" font-size="12" lengthAdjust="spacing" textLength="463" x="129" y="539.791">return RegexConcat.build(CommandFactoryTipOnEntity.class .getName()+</text><text fill="#000000" font-family="sans-serif" font-size="12" lengthAdjust="spacing" textLength="366" x="129" y="553.7598">key+withBracket,RegexLeaf.start(),new RegexLeaf("note"),</text><text fill="#000000" font-family="sans-serif" font-size="12" lengthAdjust="spacing" textLength="358" x="129" y="567.7285">RegexLeaf.spaceOneOrMore(),new RegexLeaf("POSITION",</text><text fill="#000000" font-family="sans-serif" font-size="12" lengthAdjust="spacing" textLength="272" x="129" y="581.6973">"(right|left)"),RegexLeaf.spaceOneOrMore(),</text><text fill="#000000" font-family="sans-serif" font-size="12" lengthAdjust="spacing" textLength="1081" x="129" y="595.666">new RegexLeaf("of"),RegexLeaf.spaceOneOrMore(),partialPattern,RegexLeaf.spaceZeroOrMore(),ColorParser.exp1(),RegexLeaf.spaceZeroOrMore(),new RegexLeaf("URL","("+</text><text fill="#000000" font-family="sans-serif" font-size="12" lengthAdjust="spacing" textLength="292" x="129" y="609.6348">UrlBuilder.getRegexp()+")?"),RegexLeaf.end());</text><ellipse cx="669.5" cy="653.4648" fill="none" rx="11" ry="11" style="stroke:#222222;stroke-width:1.0;"/><ellipse cx="669.5" cy="653.4648" fill="#222222" rx="6" ry="6" style="stroke:#111111;stroke-width:1.0;"/><ellipse cx="669.5" cy="684.4648" fill="none" rx="10" ry="10" style="stroke:#222222;stroke-width:1.5;"/><line style="stroke:#222222;stroke-width:2.5;" x1="663.3128" x2="675.6872" y1="678.2777" y2="690.652"/><line style="stroke:#222222;stroke-width:2.5;" x1="675.6872" x2="663.3128" y1="678.2777" y2="690.652"/><path d="M699.5,704.4648 L699.5,713.0313 L679.5,717.0313 L699.5,721.0313 L699.5,729.5977 A0,0 0 0 0 699.5,729.5977 L1074.5,729.5977 A0,0 0 0 0 1074.5,729.5977 L1074.5,714.4648 L1064.5,704.4648 L699.5,704.4648 A0,0 0 0 0 699.5,704.4648 " fill="#FEFFDD" style="stroke:#181818;stroke-width:0.5;"/><path d="M1064.5,704.4648 L1064.5,714.4648 L1074.5,714.4648 L1064.5,704.4648 " fill="#FEFFDD" style="stroke:#181818;stroke-width:0.5;"/><text fill="#000000" font-family="sans-serif" font-size="13" lengthAdjust="spacing" textLength="354" x="705.5" y="721.5317">Command&lt;AbstractEntityDiagram&gt; createSingleLine()</text><ellipse cx="669.5" cy="717.0313" fill="#222222" rx="10" ry="10" style="stroke:#222222;stroke-width:1.0;"/><rect fill="#F1F1F1" height="33.9688" rx="12.5" ry="12.5" style="stroke:#181818;stroke-width:0.5;" width="307" x="516" y="749.5977"/><text fill="#000000" font-family="sans-serif" font-size="12" lengthAdjust="spacing" textLength="287" x="526" y="770.7363">throw new UnsupportedOperationException();</text><ellipse cx="669.5" cy="814.5664" fill="none" rx="11" ry="11" style="stroke:#222222;stroke-width:1.0;"/><ellipse cx="669.5" cy="814.5664" fill="#222222" rx="6" ry="6" style="stroke:#111111;stroke-width:1.0;"/><ellipse cx="669.5" cy="845.5664" fill="none" rx="10" ry="10" style="stroke:#222222;stroke-width:1.5;"/><line style="stroke:#222222;stroke-width:2.5;" x1="663.3128" x2="675.6872" y1="839.3792" y2="851.7536"/><line style="stroke:#222222;stroke-width:2.5;" x1="675.6872" x2="663.3128" y1="839.3792" y2="851.7536"/><path d="M699.5,865.5664 L699.5,874.1328 L679.5,878.1328 L699.5,882.1328 L699.5,890.6992 A0,0 0 0 0 699.5,890.6992 L1224.5,890.6992 A0,0 0 0 0 1224.5,890.6992 L1224.5,875.5664 L1214.5,865.5664 L699.5,865.5664 A0,0 0 0 0 699.5,865.5664 " fill="#FEFFDD" style="stroke:#181818;stroke-width:0.5;"/><path d="M1214.5,865.5664 L1214.5,875.5664 L1224.5,875.5664 L1214.5,865.5664 " fill="#FEFFDD" style="stroke:#181818;stroke-width:0.5;"/><text fill="#000000" font-family="sans-serif" font-size="13" lengthAdjust="spacing" textLength="504" x="705.5" y="882.6333">Command&lt;AbstractEntityDiagram&gt; createMultiLine(final boolean withBracket)</text><ellipse cx="669.5" cy="878.1328" fill="#222222" rx="10" ry="10" style="stroke:#222222;stroke-width:1.0;"/><rect fill="#F1F1F1" height="145.7188" rx="12.5" ry="12.5" style="stroke:#181818;stroke-width:0.5;" width="1317" x="11" y="910.6992"/><text fill="#000000" font-family="sans-serif" font-size="12" lengthAdjust="spacing" textLength="622" x="21" y="931.8379">return new CommandMultilines2&lt;AbstractEntityDiagram &gt;(getRegexConcatMultiLine(partialPattern,</text><text fill="#000000" font-family="sans-serif" font-size="12" lengthAdjust="spacing" textLength="345" x="21" y="945.8066">withBracket),MultilinesStrategy.KEEP_STARTING_QUOTE,</text><text fill="#000000" font-family="sans-serif" font-size="12" lengthAdjust="spacing" textLength="1297" x="21" y="959.7754">Trim.BOTH){@Override public String getPatternEnd(){if (withBracket){return "^(\\})$";}return "^[%s]*(end[%s]?note)$";}protected CommandExecutionResult executeNow(final AbstractEntityDiagram system,</text><text fill="#000000" font-family="sans-serif" font-size="12" lengthAdjust="spacing" textLength="1047" x="21" y="973.7441">BlocLines lines)throws NoSuchColorException{final RegexResult line0=getStartingPattern().matcher(lines.getFirst().getTrimmed().getString());lines=lines.subExtract(1,</text><text fill="#000000" font-family="sans-serif" font-size="12" lengthAdjust="spacing" textLength="430" x="21" y="987.7129">1);lines=lines.removeEmptyColumns();Url url=null ;if (line0.get("URL",</text><text fill="#000000" font-family="sans-serif" font-size="12" lengthAdjust="spacing" textLength="590" x="21" y="1001.6816">0)!=null ){final UrlBuilder urlBuilder=new UrlBuilder(system.getSkinParam().getValue("topurl"),</text><text fill="#000000" font-family="sans-serif" font-size="12" lengthAdjust="spacing" textLength="334" x="21" y="1015.6504">UrlMode.STRICT);url=urlBuilder.getUrl(line0.get("URL",</text><text fill="#000000" font-family="sans-serif" font-size="12" lengthAdjust="spacing" textLength="258" x="21" y="1029.6191">0));}return executeInternal(line0,system,</text><text fill="#000000" font-family="sans-serif" font-size="12" lengthAdjust="spacing" textLength="78" x="21" y="1043.5879">url,lines);}};</text><ellipse cx="669.5" cy="1087.418" fill="none" rx="11" ry="11" style="stroke:#222222;stroke-width:1.0;"/><ellipse cx="669.5" cy="1087.418" fill="#222222" rx="6" ry="6" style="stroke:#111111;stroke-width:1.0;"/><ellipse cx="669.5" cy="1118.418" fill="none" rx="10" ry="10" style="stroke:#222222;stroke-width:1.5;"/><line style="stroke:#222222;stroke-width:2.5;" x1="663.3128" x2="675.6872" y1="1112.2308" y2="1124.6052"/><line style="stroke:#222222;stroke-width:2.5;" x1="675.6872" x2="663.3128" y1="1112.2308" y2="1124.6052"/><path d="M699.5,1138.418 L699.5,1154.5508 L679.5,1158.5508 L699.5,1162.5508 L699.5,1178.6836 A0,0 0 0 0 699.5,1178.6836 L1112.5,1178.6836 A0,0 0 0 0 1112.5,1178.6836 L1112.5,1148.418 L1102.5,1138.418 L699.5,1138.418 A0,0 0 0 0 699.5,1138.418 " fill="#FEFFDD" style="stroke:#181818;stroke-width:0.5;"/><path d="M1102.5,1138.418 L1102.5,1148.418 L1112.5,1148.418 L1102.5,1138.418 " fill="#FEFFDD" style="stroke:#181818;stroke-width:0.5;"/><text fill="#000000" font-family="sans-serif" font-size="13" lengthAdjust="spacing" textLength="392" x="705.5" y="1155.4849">CommandExecutionResult executeInternal(RegexResult line0,</text><text fill="#000000" font-family="sans-serif" font-size="13" lengthAdjust="spacing" textLength="346" x="705.5" y="1170.6177">AbstractEntityDiagram diagram,Url url,BlocLines lines)</text><ellipse cx="669.5" cy="1158.5508" fill="#222222" rx="10" ry="10" style="stroke:#222222;stroke-width:1.0;"/><rect fill="#F1F1F1" height="33.9688" rx="12.5" ry="12.5" style="stroke:#181818;stroke-width:0.5;" width="271" x="534" y="1198.6836"/><text fill="#000000" font-family="sans-serif" font-size="12" lengthAdjust="spacing" textLength="251" x="544" y="1219.8223">final String pos=line0.get("POSITION",0);</text><rect fill="#F1F1F1" height="33.9688" rx="12.5" ry="12.5" style="stroke:#181818;stroke-width:0.5;" width="278" x="530.5" y="1252.6523"/><text fill="#000000" font-family="sans-serif" font-size="12" lengthAdjust="spacing" textLength="258" x="540.5" y="1273.791">final String idShort=line0.get("ENTITY",0);</text><rect fill="#F1F1F1" height="33.9688" rx="12.5" ry="12.5" style="stroke:#181818;stroke-width:0.5;" width="364" x="487.5" y="1306.6211"/><text fill="#000000" font-family="sans-serif" font-size="12" lengthAdjust="spacing" textLength="344" x="497.5" y="1327.7598">final Ident identShort=diagram.buildLeafIdent(idShort);</text><rect fill="#F1F1F1" height="33.9688" rx="12.5" ry="12.5" style="stroke:#181818;stroke-width:0.5;" width="522" x="408.5" y="1360.5898"/><text fill="#000000" font-family="sans-serif" font-size="12" lengthAdjust="spacing" textLength="502" x="418.5" y="1381.7285">final Code codeShort=diagram.V1972()? identShort:diagram.buildCode(idShort);</text><rect fill="#F1F1F1" height="47.9375" rx="12.5" ry="12.5" style="stroke:#181818;stroke-width:0.5;" width="651" x="344" y="1414.5586"/><text fill="#000000" font-family="sans-serif" font-size="12" lengthAdjust="spacing" textLength="631" x="354" y="1435.6973">final String member=StringUtils.eventuallyRemoveStartingAndEndingDoubleQuote(line0.get("ENTITY",</text><text fill="#000000" font-family="sans-serif" font-size="12" lengthAdjust="spacing" textLength="22" x="354" y="1449.666">1));</text><rect fill="#F1F1F1" height="33.9688" rx="12.5" ry="12.5" style="stroke:#181818;stroke-width:0.5;" width="98" x="620.5" y="1530.8984"/><text fill="#000000" font-family="sans-serif" font-size="12" lengthAdjust="spacing" textLength="78" x="630.5" y="1552.0371">assert false;</text><rect fill="#F1F1F1" height="33.9688" rx="12.5" ry="12.5" style="stroke:#181818;stroke-width:0.5;" width="400" x="469.5" y="1584.8672"/><text fill="#000000" font-family="sans-serif" font-size="12" lengthAdjust="spacing" textLength="380" x="479.5" y="1606.0059">return CommandExecutionResult.error("Nothing to note to");</text><ellipse cx="669.5" cy="1649.8359" fill="none" rx="11" ry="11" style="stroke:#222222;stroke-width:1.0;"/><ellipse cx="669.5" cy="1649.8359" fill="#222222" rx="6" ry="6" style="stroke:#111111;stroke-width:1.0;"/><polygon fill="#F1F1F1" points="619.5,1482.4961,719.5,1482.4961,731.5,1494.4961,719.5,1506.4961,619.5,1506.4961,607.5,1494.4961,619.5,1482.4961" style="stroke:#181818;stroke-width:0.5;"/><text fill="#000000" font-family="sans-serif" font-size="11" lengthAdjust="spacing" textLength="20" x="673.5" y="1516.7065">yes</text><text fill="#000000" font-family="sans-serif" font-size="11" lengthAdjust="spacing" textLength="96" x="619.5" y="1498.3042">codeShort==null</text><rect fill="#F1F1F1" height="47.9375" rx="12.5" ry="12.5" style="stroke:#181818;stroke-width:0.5;" width="353" x="493" y="1702.8359"/><text fill="#000000" font-family="sans-serif" font-size="12" lengthAdjust="spacing" textLength="333" x="503" y="1723.9746">final IEntity cl1=diagram.getOrCreateLeaf(identShort,</text><text fill="#000000" font-family="sans-serif" font-size="12" lengthAdjust="spacing" textLength="134" x="503" y="1737.9434">codeShort,null ,null );</text><rect fill="#F1F1F1" height="47.9375" rx="12.5" ry="12.5" style="stroke:#181818;stroke-width:0.5;" width="460" x="439.5" y="1770.7734"/><text fill="#000000" font-family="sans-serif" font-size="12" lengthAdjust="spacing" textLength="440" x="449.5" y="1791.9121">final Position position=Position.valueOf(StringUtils.goUpperCase(pos))</text><text fill="#000000" font-family="sans-serif" font-size="12" lengthAdjust="spacing" textLength="324" x="449.5" y="1805.8809">.withRankdir(diagram.getSkinParam().getRankdir());</text><rect fill="#F1F1F1" height="47.9375" rx="12.5" ry="12.5" style="stroke:#181818;stroke-width:0.5;" width="349" x="495" y="1838.7109"/><text fill="#000000" font-family="sans-serif" font-size="12" lengthAdjust="spacing" textLength="329" x="505" y="1859.8496">final Ident identTip=diagram.buildLeafIdent(idShort+</text><text fill="#000000" font-family="sans-serif" font-size="12" lengthAdjust="spacing" textLength="152" x="505" y="1873.8184">"$$$"+position.name());</text><rect fill="#F1F1F1" height="33.9688" rx="12.5" ry="12.5" style="stroke:#181818;stroke-width:0.5;" width="294" x="522.5" y="1906.6484"/><text fill="#000000" font-family="sans-serif" font-size="12" lengthAdjust="spacing" textLength="274" x="532.5" y="1927.7871">IEntity tips=diagram.getLeafStrict(identTip);</text><rect fill="#F1F1F1" height="47.9375" rx="12.5" ry="12.5" style="stroke:#181818;stroke-width:0.5;" width="434" x="452.5" y="2009.0195"/><text fill="#000000" font-family="sans-serif" font-size="12" lengthAdjust="spacing" textLength="414" x="462.5" y="2030.1582">tips=diagram.getOrCreateLeaf(identTip,identTip.toCode(diagram),</text><text fill="#000000" font-family="sans-serif" font-size="12" lengthAdjust="spacing" textLength="124" x="462.5" y="2044.127">LeafType.TIPS,null );</text><rect fill="#F1F1F1" height="47.9375" rx="12.5" ry="12.5" style="stroke:#181818;stroke-width:0.5;" width="335" x="502" y="2076.957"/><text fill="#000000" font-family="sans-serif" font-size="12" lengthAdjust="spacing" textLength="315" x="512" y="2098.0957">final LinkType type=new LinkType(LinkDecor.NONE,</text><text fill="#000000" font-family="sans-serif" font-size="12" lengthAdjust="spacing" textLength="193" x="512" y="2112.0645">LinkDecor.NONE).getInvisible();</text><rect fill="#F1F1F1" height="33.9688" rx="12.5" ry="12.5" style="stroke:#181818;stroke-width:0.5;" width="103" x="618" y="2144.8945"/><text fill="#000000" font-family="sans-serif" font-size="12" lengthAdjust="spacing" textLength="83" x="628" y="2166.0332">final Link link;</text><polygon fill="#F1F1F1" points="596.5,2206.8945,742.5,2206.8945,754.5,2218.8945,742.5,2230.8945,596.5,2230.8945,584.5,2218.8945,596.5,2206.8945" style="stroke:#181818;stroke-width:0.5;"/><text fill="#000000" font-family="sans-serif" font-size="11" lengthAdjust="spacing" textLength="146" x="596.5" y="2222.7026">position==Position.RIGHT</text><text fill="#000000" font-family="sans-serif" font-size="11" lengthAdjust="spacing" textLength="20" x="564.5" y="2216.3003">yes</text><text fill="#000000" font-family="sans-serif" font-size="11" lengthAdjust="spacing" textLength="14" x="754.5" y="2216.3003">no</text><rect fill="#F1F1F1" height="47.9375" rx="12.5" ry="12.5" style="stroke:#181818;stroke-width:0.5;" width="420" x="239.5" y="2240.8945"/><text fill="#000000" font-family="sans-serif" font-size="12" lengthAdjust="spacing" textLength="400" x="249.5" y="2262.0332">link=new Link(diagram.getSkinParam().getCurrentStyleBuilder(),</text><text fill="#000000" font-family="sans-serif" font-size="12" lengthAdjust="spacing" textLength="268" x="249.5" y="2276.002">cl1,(IEntity )tips,type,LinkArg.noDisplay(1));</text><rect fill="#F1F1F1" height="47.9375" rx="12.5" ry="12.5" style="stroke:#181818;stroke-width:0.5;" width="420" x="679.5" y="2240.8945"/><text fill="#000000" font-family="sans-serif" font-size="12" lengthAdjust="spacing" textLength="400" x="689.5" y="2262.0332">link=new Link(diagram.getSkinParam().getCurrentStyleBuilder(),</text><text fill="#000000" font-family="sans-serif" font-size="12" lengthAdjust="spacing" textLength="268" x="689.5" y="2276.002">(IEntity )tips,cl1,type,LinkArg.noDisplay(1));</text><polygon fill="#F1F1F1" points="669.5,2294.832,681.5,2306.832,669.5,2318.832,657.5,2306.832,669.5,2294.832" style="stroke:#181818;stroke-width:0.5;"/><rect fill="#F1F1F1" height="33.9688" rx="12.5" ry="12.5" style="stroke:#181818;stroke-width:0.5;" width="158" x="590.5" y="2338.832"/><text fill="#000000" font-family="sans-serif" font-size="12" lengthAdjust="spacing" textLength="138" x="600.5" y="2359.9707">diagram.addLink(link);</text><polygon fill="#F1F1F1" points="638,1960.6172,701,1960.6172,713,1972.6172,701,1984.6172,638,1984.6172,626,1972.6172,638,1960.6172" style="stroke:#181818;stroke-width:0.5;"/><text fill="#000000" font-family="sans-serif" font-size="11" lengthAdjust="spacing" textLength="20" x="673.5" y="1994.8276">yes</text><text fill="#000000" font-family="sans-serif" font-size="11" lengthAdjust="spacing" textLength="59" x="638" y="1976.4253">tips==null</text><polygon fill="#F1F1F1" points="669.5,2392.8008,681.5,2404.8008,669.5,2416.8008,657.5,2404.8008,669.5,2392.8008" style="stroke:#181818;stroke-width:0.5;"/><rect fill="#F1F1F1" height="33.9688" rx="12.5" ry="12.5" style="stroke:#181818;stroke-width:0.5;" width="255" x="542" y="2436.8008"/><text fill="#000000" font-family="sans-serif" font-size="12" lengthAdjust="spacing" textLength="235" x="552" y="2457.9395">tips.putTip(member,lines.toDisplay());</text><rect fill="#F1F1F1" height="33.9688" rx="12.5" ry="12.5" style="stroke:#181818;stroke-width:0.5;" width="258" x="540.5" y="2490.7695"/><text fill="#000000" font-family="sans-serif" font-size="12" lengthAdjust="spacing" textLength="238" x="550.5" y="2511.9082">return CommandExecutionResult.ok();</text><ellipse cx="669.5" cy="2555.7383" fill="none" rx="11" ry="11" style="stroke:#222222;stroke-width:1.0;"/><ellipse cx="669.5" cy="2555.7383" fill="#222222" rx="6" ry="6" style="stroke:#111111;stroke-width:1.0;"/><ellipse cx="669.5" cy="2586.7383" fill="none" rx="10" ry="10" style="stroke:#222222;stroke-width:1.5;"/><line style="stroke:#222222;stroke-width:2.5;" x1="663.3128" x2="675.6872" y1="2580.5511" y2="2592.9255"/><line style="stroke:#222222;stroke-width:2.5;" x1="675.6872" x2="663.3128" y1="2580.5511" y2="2592.9255"/><line style="stroke:#181818;stroke-width:1.0;" x1="669.5" x2="669.5" y1="40.1328" y2="70.2656"/><polygon fill="#181818" points="665.5,60.2656,669.5,70.2656,673.5,60.2656,669.5,64.2656" style="stroke:#181818;stroke-width:1.0;"/><line style="stroke:#181818;stroke-width:1.0;" x1="669.5" x2="669.5" y1="104.2344" y2="124.2344"/><polygon fill="#181818" points="665.5,114.2344,669.5,124.2344,673.5,114.2344,669.5,118.2344" style="stroke:#181818;stroke-width:1.0;"/><line style="stroke:#181818;stroke-width:1.0;" x1="669.5" x2="669.5" y1="158.2031" y2="178.2031"/><polygon fill="#181818" points="665.5,168.2031,669.5,178.2031,673.5,168.2031,669.5,172.2031" style="stroke:#181818;stroke-width:1.0;"/><line style="stroke:#181818;stroke-width:1.0;" x1="669.5" x2="669.5" y1="434.6523" y2="454.6523"/><polygon fill="#181818" points="665.5,444.6523,669.5,454.6523,673.5,444.6523,669.5,448.6523" style="stroke:#181818;stroke-width:1.0;"/><line style="stroke:#181818;stroke-width:1.0;" x1="669.5" x2="669.5" y1="292.4688" y2="316.8711"/><polygon fill="#181818" points="665.5,306.8711,669.5,316.8711,673.5,306.8711,669.5,310.8711" style="stroke:#181818;stroke-width:1.0;"/><line style="stroke:#181818;stroke-width:1.0;" x1="714.5" x2="1230" y1="280.4688" y2="280.4688"/><polygon fill="#181818" points="1226,391.2617,1230,401.2617,1234,391.2617,1230,395.2617" style="stroke:#181818;stroke-width:1.0;"/><line style="stroke:#181818;stroke-width:1.0;" x1="1230" x2="1230" y1="280.4688" y2="498.6523"/><line style="stroke:#181818;stroke-width:1.0;" x1="1230" x2="669.5" y1="498.6523" y2="498.6523"/><line style="stroke:#181818;stroke-width:1.0;" x1="669.5" x2="669.5" y1="498.6523" y2="518.6523"/><polygon fill="#181818" points="665.5,508.6523,669.5,518.6523,673.5,508.6523,669.5,512.6523" style="stroke:#181818;stroke-width:1.0;"/><line style="stroke:#181818;stroke-width:1.0;" x1="669.5" x2="669.5" y1="238.3359" y2="268.4688"/><polygon fill="#181818" points="665.5,258.4688,669.5,268.4688,673.5,258.4688,669.5,262.4688" style="stroke:#181818;stroke-width:1.0;"/><line style="stroke:#181818;stroke-width:1.0;" x1="669.5" x2="669.5" y1="622.4648" y2="642.4648"/><polygon fill="#181818" points="665.5,632.4648,669.5,642.4648,673.5,632.4648,669.5,636.4648" style="stroke:#181818;stroke-width:1.0;"/><line style="stroke:#181818;stroke-width:1.0;" x1="669.5" x2="669.5" y1="727.0313" y2="749.5977"/><polygon fill="#181818" points="665.5,739.5977,669.5,749.5977,673.5,739.5977,669.5,743.5977" style="stroke:#181818;stroke-width:1.0;"/><line style="stroke:#181818;stroke-width:1.0;" x1="669.5" x2="669.5" y1="783.5664" y2="803.5664"/><polygon fill="#181818" points="665.5,793.5664,669.5,803.5664,673.5,793.5664,669.5,797.5664" style="stroke:#181818;stroke-width:1.0;"/><line style="stroke:#181818;stroke-width:1.0;" x1="669.5" x2="669.5" y1="888.1328" y2="910.6992"/><polygon fill="#181818" points="665.5,900.6992,669.5,910.6992,673.5,900.6992,669.5,904.6992" style="stroke:#181818;stroke-width:1.0;"/><line style="stroke:#181818;stroke-width:1.0;" x1="669.5" x2="669.5" y1="1056.418" y2="1076.418"/><polygon fill="#181818" points="665.5,1066.418,669.5,1076.418,673.5,1066.418,669.5,1070.418" style="stroke:#181818;stroke-width:1.0;"/><line style="stroke:#181818;stroke-width:1.0;" x1="669.5" x2="669.5" y1="1168.5508" y2="1198.6836"/><polygon fill="#181818" points="665.5,1188.6836,669.5,1198.6836,673.5,1188.6836,669.5,1192.6836" style="stroke:#181818;stroke-width:1.0;"/><line style="stroke:#181818;stroke-width:1.0;" x1="669.5" x2="669.5" y1="1232.6523" y2="1252.6523"/><polygon fill="#181818" points="665.5,1242.6523,669.5,1252.6523,673.5,1242.6523,669.5,1246.6523" style="stroke:#181818;stroke-width:1.0;"/><line style="stroke:#181818;stroke-width:1.0;" x1="669.5" x2="669.5" y1="1286.6211" y2="1306.6211"/><polygon fill="#181818" points="665.5,1296.6211,669.5,1306.6211,673.5,1296.6211,669.5,1300.6211" style="stroke:#181818;stroke-width:1.0;"/><line style="stroke:#181818;stroke-width:1.0;" x1="669.5" x2="669.5" y1="1340.5898" y2="1360.5898"/><polygon fill="#181818" points="665.5,1350.5898,669.5,1360.5898,673.5,1350.5898,669.5,1354.5898" style="stroke:#181818;stroke-width:1.0;"/><line style="stroke:#181818;stroke-width:1.0;" x1="669.5" x2="669.5" y1="1394.5586" y2="1414.5586"/><polygon fill="#181818" points="665.5,1404.5586,669.5,1414.5586,673.5,1404.5586,669.5,1408.5586" style="stroke:#181818;stroke-width:1.0;"/><line style="stroke:#181818;stroke-width:1.0;" x1="669.5" x2="669.5" y1="1564.8672" y2="1584.8672"/><polygon fill="#181818" points="665.5,1574.8672,669.5,1584.8672,673.5,1574.8672,669.5,1578.8672" style="stroke:#181818;stroke-width:1.0;"/><line style="stroke:#181818;stroke-width:1.0;" x1="669.5" x2="669.5" y1="1618.8359" y2="1638.8359"/><polygon fill="#181818" points="665.5,1628.8359,669.5,1638.8359,673.5,1628.8359,669.5,1632.8359" style="stroke:#181818;stroke-width:1.0;"/><line style="stroke:#181818;stroke-width:1.0;" x1="669.5" x2="669.5" y1="1506.4961" y2="1530.8984"/><polygon fill="#181818" points="665.5,1520.8984,669.5,1530.8984,673.5,1520.8984,669.5,1524.8984" style="stroke:#181818;stroke-width:1.0;"/><line style="stroke:#181818;stroke-width:1.0;" x1="731.5" x2="879.5" y1="1494.4961" y2="1494.4961"/><polygon fill="#181818" points="875.5,1582.8672,879.5,1592.8672,883.5,1582.8672,879.5,1586.8672" style="stroke:#181818;stroke-width:1.0;"/><line style="stroke:#181818;stroke-width:1.0;" x1="879.5" x2="879.5" y1="1494.4961" y2="1682.8359"/><line style="stroke:#181818;stroke-width:1.0;" x1="879.5" x2="669.5" y1="1682.8359" y2="1682.8359"/><line style="stroke:#181818;stroke-width:1.0;" x1="669.5" x2="669.5" y1="1682.8359" y2="1702.8359"/><polygon fill="#181818" points="665.5,1692.8359,669.5,1702.8359,673.5,1692.8359,669.5,1696.8359" style="stroke:#181818;stroke-width:1.0;"/><line style="stroke:#181818;stroke-width:1.0;" x1="669.5" x2="669.5" y1="1462.4961" y2="1482.4961"/><polygon fill="#181818" points="665.5,1472.4961,669.5,1482.4961,673.5,1472.4961,669.5,1476.4961" style="stroke:#181818;stroke-width:1.0;"/><line style="stroke:#181818;stroke-width:1.0;" x1="669.5" x2="669.5" y1="1750.7734" y2="1770.7734"/><polygon fill="#181818" points="665.5,1760.7734,669.5,1770.7734,673.5,1760.7734,669.5,1764.7734" style="stroke:#181818;stroke-width:1.0;"/><line style="stroke:#181818;stroke-width:1.0;" x1="669.5" x2="669.5" y1="1818.7109" y2="1838.7109"/><polygon fill="#181818" points="665.5,1828.7109,669.5,1838.7109,673.5,1828.7109,669.5,1832.7109" style="stroke:#181818;stroke-width:1.0;"/><line style="stroke:#181818;stroke-width:1.0;" x1="669.5" x2="669.5" y1="1886.6484" y2="1906.6484"/><polygon fill="#181818" points="665.5,1896.6484,669.5,1906.6484,673.5,1896.6484,669.5,1900.6484" style="stroke:#181818;stroke-width:1.0;"/><line style="stroke:#181818;stroke-width:1.0;" x1="669.5" x2="669.5" y1="2056.957" y2="2076.957"/><polygon fill="#181818" points="665.5,2066.957,669.5,2076.957,673.5,2066.957,669.5,2070.957" style="stroke:#181818;stroke-width:1.0;"/><line style="stroke:#181818;stroke-width:1.0;" x1="669.5" x2="669.5" y1="2124.8945" y2="2144.8945"/><polygon fill="#181818" points="665.5,2134.8945,669.5,2144.8945,673.5,2134.8945,669.5,2138.8945" style="stroke:#181818;stroke-width:1.0;"/><line style="stroke:#181818;stroke-width:1.0;" x1="584.5" x2="449.5" y1="2218.8945" y2="2218.8945"/><line style="stroke:#181818;stroke-width:1.0;" x1="449.5" x2="449.5" y1="2218.8945" y2="2240.8945"/><polygon fill="#181818" points="445.5,2230.8945,449.5,2240.8945,453.5,2230.8945,449.5,2234.8945" style="stroke:#181818;stroke-width:1.0;"/><line style="stroke:#181818;stroke-width:1.0;" x1="754.5" x2="889.5" y1="2218.8945" y2="2218.8945"/><line style="stroke:#181818;stroke-width:1.0;" x1="889.5" x2="889.5" y1="2218.8945" y2="2240.8945"/><polygon fill="#181818" points="885.5,2230.8945,889.5,2240.8945,893.5,2230.8945,889.5,2234.8945" style="stroke:#181818;stroke-width:1.0;"/><line style="stroke:#181818;stroke-width:1.0;" x1="449.5" x2="449.5" y1="2288.832" y2="2306.832"/><line style="stroke:#181818;stroke-width:1.0;" x1="449.5" x2="657.5" y1="2306.832" y2="2306.832"/><polygon fill="#181818" points="647.5,2302.832,657.5,2306.832,647.5,2310.832,651.5,2306.832" style="stroke:#181818;stroke-width:1.0;"/><line style="stroke:#181818;stroke-width:1.0;" x1="889.5" x2="889.5" y1="2288.832" y2="2306.832"/><line style="stroke:#181818;stroke-width:1.0;" x1="889.5" x2="681.5" y1="2306.832" y2="2306.832"/><polygon fill="#181818" points="691.5,2302.832,681.5,2306.832,691.5,2310.832,687.5,2306.832" style="stroke:#181818;stroke-width:1.0;"/><line style="stroke:#181818;stroke-width:1.0;" x1="669.5" x2="669.5" y1="2178.8633" y2="2206.8945"/><polygon fill="#181818" points="665.5,2196.8945,669.5,2206.8945,673.5,2196.8945,669.5,2200.8945" style="stroke:#181818;stroke-width:1.0;"/><line style="stroke:#181818;stroke-width:1.0;" x1="669.5" x2="669.5" y1="2318.832" y2="2338.832"/><polygon fill="#181818" points="665.5,2328.832,669.5,2338.832,673.5,2328.832,669.5,2332.832" style="stroke:#181818;stroke-width:1.0;"/><line style="stroke:#181818;stroke-width:1.0;" x1="669.5" x2="669.5" y1="1984.6172" y2="2009.0195"/><polygon fill="#181818" points="665.5,1999.0195,669.5,2009.0195,673.5,1999.0195,669.5,2003.0195" style="stroke:#181818;stroke-width:1.0;"/><line style="stroke:#181818;stroke-width:1.0;" x1="713" x2="1119.5" y1="1972.6172" y2="1972.6172"/><polygon fill="#181818" points="1115.5,2176.8945,1119.5,2186.8945,1123.5,2176.8945,1119.5,2180.8945" style="stroke:#181818;stroke-width:1.0;"/><line style="stroke:#181818;stroke-width:1.0;" x1="1119.5" x2="1119.5" y1="1972.6172" y2="2404.8008"/><line style="stroke:#181818;stroke-width:1.0;" x1="1119.5" x2="681.5" y1="2404.8008" y2="2404.8008"/><polygon fill="#181818" points="691.5,2400.8008,681.5,2404.8008,691.5,2408.8008,687.5,2404.8008" style="stroke:#181818;stroke-width:1.0;"/><line style="stroke:#181818;stroke-width:1.0;" x1="669.5" x2="669.5" y1="2372.8008" y2="2392.8008"/><polygon fill="#181818" points="665.5,2382.8008,669.5,2392.8008,673.5,2382.8008,669.5,2386.8008" style="stroke:#181818;stroke-width:1.0;"/><line style="stroke:#181818;stroke-width:1.0;" x1="669.5" x2="669.5" y1="1940.6172" y2="1960.6172"/><polygon fill="#181818" points="665.5,1950.6172,669.5,1960.6172,673.5,1950.6172,669.5,1954.6172" style="stroke:#181818;stroke-width:1.0;"/><line style="stroke:#181818;stroke-width:1.0;" x1="669.5" x2="669.5" y1="2416.8008" y2="2436.8008"/><polygon fill="#181818" points="665.5,2426.8008,669.5,2436.8008,673.5,2426.8008,669.5,2430.8008" style="stroke:#181818;stroke-width:1.0;"/><line style="stroke:#181818;stroke-width:1.0;" x1="669.5" x2="669.5" y1="2470.7695" y2="2490.7695"/><polygon fill="#181818" points="665.5,2480.7695,669.5,2490.7695,673.5,2480.7695,669.5,2484.7695" style="stroke:#181818;stroke-width:1.0;"/><line style="stroke:#181818;stroke-width:1.0;" x1="669.5" x2="669.5" y1="2524.7383" y2="2544.7383"/><polygon fill="#181818" points="665.5,2534.7383,669.5,2544.7383,673.5,2534.7383,669.5,2538.7383" style="stroke:#181818;stroke-width:1.0;"/><!--MD5=[ddf4520fc0f3600978ea4c179fbe3d43]
@startuml
!pragma layout smetana
start
note right
constructor CommandFactoryTipOnEntity(String key,
IRegex partialPattern)
end note
:this.partialPattern=partialPattern;;
:this.key=key;;
end
start
note right
RegexConcat getRegexConcatMultiLine(IRegex partialPattern,
final boolean withBracket)
end note
if (withBracket) then (yes) 
:return RegexConcat.build(CommandFactoryTipOnEntity.class .getName()+
key+withBracket,RegexLeaf.start(),new RegexLeaf("note"),
RegexLeaf.spaceOneOrMore(),new RegexLeaf("POSITION",
"(right|left)"),RegexLeaf.spaceOneOrMore(),
new RegexLeaf("of"),RegexLeaf.spaceOneOrMore(),partialPattern,RegexLeaf.spaceZeroOrMore(),ColorParser.exp1(),RegexLeaf.spaceZeroOrMore(),new RegexLeaf("URL","("+
UrlBuilder.getRegexp()+")?"),RegexLeaf.spaceZeroOrMore(),
new RegexLeaf("\\{"),RegexLeaf.end());;
stop
endif 
:return RegexConcat.build(CommandFactoryTipOnEntity.class .getName()+
key+withBracket,RegexLeaf.start(),new RegexLeaf("note"),
RegexLeaf.spaceOneOrMore(),new RegexLeaf("POSITION",
"(right|left)"),RegexLeaf.spaceOneOrMore(),
new RegexLeaf("of"),RegexLeaf.spaceOneOrMore(),partialPattern,RegexLeaf.spaceZeroOrMore(),ColorParser.exp1(),RegexLeaf.spaceZeroOrMore(),new RegexLeaf("URL","("+
UrlBuilder.getRegexp()+")?"),RegexLeaf.end());;
stop
end
start
note right
Command<AbstractEntityDiagram> createSingleLine()
end note
:throw new UnsupportedOperationException();;
stop
end
start
note right
Command<AbstractEntityDiagram> createMultiLine(final boolean withBracket)
end note
:return new CommandMultilines2<AbstractEntityDiagram >(getRegexConcatMultiLine(partialPattern,
withBracket),MultilinesStrategy.KEEP_STARTING_QUOTE,
Trim.BOTH){@Override public String getPatternEnd(){if (withBracket){return "^(\\})$";}return "^[%s]*(end[%s]?note)$";}protected CommandExecutionResult executeNow(final AbstractEntityDiagram system,
BlocLines lines)throws NoSuchColorException{final RegexResult line0=getStartingPattern().matcher(lines.getFirst().getTrimmed().getString());lines=lines.subExtract(1,
1);lines=lines.removeEmptyColumns();Url url=null ;if (line0.get("URL",
0)!=null ){final UrlBuilder urlBuilder=new UrlBuilder(system.getSkinParam().getValue("topurl"),
UrlMode.STRICT);url=urlBuilder.getUrl(line0.get("URL",
0));}return executeInternal(line0,system,
url,lines);}};;
stop
end
start
note right
CommandExecutionResult executeInternal(RegexResult line0,
AbstractEntityDiagram diagram,Url url,BlocLines lines)
end note
:final String pos=line0.get("POSITION",0);;
:final String idShort=line0.get("ENTITY",0);;
:final Ident identShort=diagram.buildLeafIdent(idShort);;
:final Code codeShort=diagram.V1972()? identShort:diagram.buildCode(idShort);;
:final String member=StringUtils.eventuallyRemoveStartingAndEndingDoubleQuote(line0.get("ENTITY",
1));;
if (codeShort==null ) then (yes) 
:assert false;;
:return CommandExecutionResult.error("Nothing to note to");;
stop
endif 
:final IEntity cl1=diagram.getOrCreateLeaf(identShort,
codeShort,null ,null );;
:final Position position=Position.valueOf(StringUtils.goUpperCase(pos))
.withRankdir(diagram.getSkinParam().getRankdir());;
:final Ident identTip=diagram.buildLeafIdent(idShort+
"$$$"+position.name());;
:IEntity tips=diagram.getLeafStrict(identTip);;
if (tips==null ) then (yes) 
:tips=diagram.getOrCreateLeaf(identTip,identTip.toCode(diagram),
LeafType.TIPS,null );;
:final LinkType type=new LinkType(LinkDecor.NONE,
LinkDecor.NONE).getInvisible();;
:final Link link;;
if (position==Position.RIGHT) then (yes) 
:link=new Link(diagram.getSkinParam().getCurrentStyleBuilder(),
cl1,(IEntity )tips,type,LinkArg.noDisplay(1));;
else (no)
:link=new Link(diagram.getSkinParam().getCurrentStyleBuilder(),
(IEntity )tips,cl1,type,LinkArg.noDisplay(1));;
endif 
:diagram.addLink(link);;
endif 
:tips.putTip(member,lines.toDisplay());;
:return CommandExecutionResult.ok();;
stop
end
@enduml

PlantUML version 1.2022.7(Mon Aug 22 17:01:30 UTC 2022)
(GPL source distribution)
Java Runtime: OpenJDK Runtime Environment
JVM: OpenJDK 64-Bit Server VM
Default Encoding: UTF-8
Language: en
Country: null
--></g></svg>