<?xml version="1.0" encoding="UTF-8" standalone="no"?><svg xmlns="http://www.w3.org/2000/svg" xmlns:xlink="http://www.w3.org/1999/xlink" contentStyleType="text/css" height="3668px" preserveAspectRatio="none" style="width:764px;height:3668px;background:#FFFFFF;" version="1.1" viewBox="0 0 764 3668" width="764px" zoomAndPan="magnify"><defs/><g><path d="M371,10 L371,18.5664 L351,22.5664 L371,26.5664 L371,35.1328 A0,0 0 0 0 371,35.1328 L547,35.1328 A0,0 0 0 0 547,35.1328 L547,20 L537,10 L371,10 A0,0 0 0 0 371,10 " fill="#FEFFDD" style="stroke:#181818;stroke-width:0.5;"/><path d="M537,10 L537,20 L547,20 L537,10 " fill="#FEFFDD" style="stroke:#181818;stroke-width:0.5;"/><text fill="#000000" font-family="sans-serif" font-size="13" lengthAdjust="spacing" textLength="155" x="377" y="27.0669">void begin_component()</text><ellipse cx="341" cy="22.5664" fill="#222222" rx="10" ry="10" style="stroke:#222222;stroke-width:1.0;"/><rect fill="#F1F1F1" height="33.9688" rx="12.5" ry="12.5" style="stroke:#181818;stroke-width:0.5;" width="411" x="135.5" y="55.1328"/><text fill="#000000" font-family="sans-serif" font-size="12" lengthAdjust="spacing" textLength="391" x="145.5" y="76.2715">ENTERING("7ggrwt0f912kp1marrxdjq155","begin_component");</text><polygon fill="#F1F1F1" points="300,109.1016,382,109.1016,394,121.1016,382,133.1016,300,133.1016,288,121.1016,300,109.1016" style="stroke:#181818;stroke-width:0.5;"/><text fill="#000000" font-family="sans-serif" font-size="11" lengthAdjust="spacing" textLength="82" x="300" y="124.9097">try/catch block</text><rect fill="#F1F1F1" height="33.9688" rx="12.5" ry="12.5" style="stroke:#181818;stroke-width:0.5;" width="211" x="235.5" y="165.9063"/><text fill="#000000" font-family="sans-serif" font-size="12" lengthAdjust="spacing" textLength="191" x="245.5" y="187.0449">GD_nlist(Z.z().G_decomp,null );</text><rect fill="#F1F1F1" height="33.9688" rx="12.5" ry="12.5" style="stroke:#181818;stroke-width:0.5;" width="212" x="235" y="219.875"/><text fill="#000000" font-family="sans-serif" font-size="12" lengthAdjust="spacing" textLength="192" x="245" y="241.0137">Z.z().Last_node_decomp=null ;</text><polygon fill="#F1F1F1" points="341,273.8438,341,273.8438,353,285.8438,341,297.8438,341,297.8438,329,285.8438,341,273.8438" style="stroke:#181818;stroke-width:0.5;"/><ellipse cx="341" cy="327.8438" fill="none" rx="10" ry="10" style="stroke:#222222;stroke-width:1.5;"/><line style="stroke:#222222;stroke-width:2.5;" x1="334.8128" x2="347.1872" y1="321.6566" y2="334.0309"/><line style="stroke:#222222;stroke-width:2.5;" x1="347.1872" x2="334.8128" y1="321.6566" y2="334.0309"/><path d="M371,347.8438 L371,356.4102 L351,360.4102 L371,364.4102 L371,372.9766 A0,0 0 0 0 371,372.9766 L654,372.9766 A0,0 0 0 0 654,372.9766 L654,357.8438 L644,347.8438 L371,347.8438 A0,0 0 0 0 371,347.8438 " fill="#FEFFDD" style="stroke:#181818;stroke-width:0.5;"/><path d="M644,347.8438 L644,357.8438 L654,357.8438 L644,347.8438 " fill="#FEFFDD" style="stroke:#181818;stroke-width:0.5;"/><text fill="#000000" font-family="sans-serif" font-size="13" lengthAdjust="spacing" textLength="262" x="377" y="364.9106">void add_to_component(ST_Agnode_s n)</text><ellipse cx="341" cy="360.4102" fill="#222222" rx="10" ry="10" style="stroke:#222222;stroke-width:1.0;"/><rect fill="#F1F1F1" height="33.9688" rx="12.5" ry="12.5" style="stroke:#181818;stroke-width:0.5;" width="415" x="133.5" y="392.9766"/><text fill="#000000" font-family="sans-serif" font-size="12" lengthAdjust="spacing" textLength="395" x="143.5" y="414.1152">ENTERING("7icc6b2pvnj6te1yndbel47gg","add_to_component");</text><polygon fill="#F1F1F1" points="300,446.9453,382,446.9453,394,458.9453,382,470.9453,300,470.9453,288,458.9453,300,446.9453" style="stroke:#181818;stroke-width:0.5;"/><text fill="#000000" font-family="sans-serif" font-size="11" lengthAdjust="spacing" textLength="82" x="300" y="462.7534">try/catch block</text><rect fill="#F1F1F1" height="47.9375" rx="12.5" ry="12.5" style="stroke:#181818;stroke-width:0.5;" width="313" x="198.5" y="503.75"/><text fill="#000000" font-family="sans-serif" font-size="12" lengthAdjust="spacing" textLength="293" x="208.5" y="524.8887">GD_n_nodes(Z.z().G_decomp,GD_n_nodes(Z.z()</text><text fill="#000000" font-family="sans-serif" font-size="12" lengthAdjust="spacing" textLength="101" x="208.5" y="538.8574">.G_decomp)+1);</text><rect fill="#F1F1F1" height="33.9688" rx="12.5" ry="12.5" style="stroke:#181818;stroke-width:0.5;" width="172" x="269" y="571.6875"/><text fill="#000000" font-family="sans-serif" font-size="12" lengthAdjust="spacing" textLength="152" x="279" y="592.8262">ND_mark(n,Z.z().Cmark);</text><polygon fill="#F1F1F1" points="267.5,625.6563,442.5,625.6563,454.5,637.6563,442.5,649.6563,267.5,649.6563,255.5,637.6563,267.5,625.6563" style="stroke:#181818;stroke-width:0.5;"/><text fill="#000000" font-family="sans-serif" font-size="11" lengthAdjust="spacing" textLength="171" x="267.5" y="641.4644">Z.z().Last_node_decomp!=null</text><text fill="#000000" font-family="sans-serif" font-size="11" lengthAdjust="spacing" textLength="20" x="235.5" y="635.062">yes</text><text fill="#000000" font-family="sans-serif" font-size="11" lengthAdjust="spacing" textLength="14" x="454.5" y="635.062">no</text><rect fill="#F1F1F1" height="33.9688" rx="12.5" ry="12.5" style="stroke:#181818;stroke-width:0.5;" width="249" x="110" y="659.6563"/><text fill="#000000" font-family="sans-serif" font-size="12" lengthAdjust="spacing" textLength="229" x="120" y="680.7949">ND_prev(n,Z.z().Last_node_decomp);</text><rect fill="#F1F1F1" height="33.9688" rx="12.5" ry="12.5" style="stroke:#181818;stroke-width:0.5;" width="249" x="110" y="713.625"/><text fill="#000000" font-family="sans-serif" font-size="12" lengthAdjust="spacing" textLength="229" x="120" y="734.7637">ND_next(Z.z().Last_node_decomp,n);</text><rect fill="#F1F1F1" height="33.9688" rx="12.5" ry="12.5" style="stroke:#181818;stroke-width:0.5;" width="123" x="414" y="659.6563"/><text fill="#000000" font-family="sans-serif" font-size="12" lengthAdjust="spacing" textLength="103" x="424" y="680.7949">ND_prev(n,null );</text><rect fill="#F1F1F1" height="33.9688" rx="12.5" ry="12.5" style="stroke:#181818;stroke-width:0.5;" width="193" x="379" y="713.625"/><text fill="#000000" font-family="sans-serif" font-size="12" lengthAdjust="spacing" textLength="173" x="389" y="734.7637">GD_nlist(Z.z().G_decomp,n);</text><polygon fill="#F1F1F1" points="355,753.5938,367,765.5938,355,777.5938,343,765.5938,355,753.5938" style="stroke:#181818;stroke-width:0.5;"/><rect fill="#F1F1F1" height="33.9688" rx="12.5" ry="12.5" style="stroke:#181818;stroke-width:0.5;" width="194" x="258" y="797.5938"/><text fill="#000000" font-family="sans-serif" font-size="12" lengthAdjust="spacing" textLength="174" x="268" y="818.7324">Z.z().Last_node_decomp=n;</text><rect fill="#F1F1F1" height="33.9688" rx="12.5" ry="12.5" style="stroke:#181818;stroke-width:0.5;" width="123" x="293.5" y="851.5625"/><text fill="#000000" font-family="sans-serif" font-size="12" lengthAdjust="spacing" textLength="103" x="303.5" y="872.7012">ND_next(n,null );</text><polygon fill="#F1F1F1" points="341,905.5313,341,905.5313,353,917.5313,341,929.5313,341,929.5313,329,917.5313,341,905.5313" style="stroke:#181818;stroke-width:0.5;"/><ellipse cx="341" cy="959.5313" fill="none" rx="10" ry="10" style="stroke:#222222;stroke-width:1.5;"/><line style="stroke:#222222;stroke-width:2.5;" x1="334.8128" x2="347.1872" y1="953.3441" y2="965.7184"/><line style="stroke:#222222;stroke-width:2.5;" x1="347.1872" x2="334.8128" y1="953.3441" y2="965.7184"/><path d="M371,979.5313 L371,988.0977 L351,992.0977 L371,996.0977 L371,1004.6641 A0,0 0 0 0 371,1004.6641 L536,1004.6641 A0,0 0 0 0 536,1004.6641 L536,989.5313 L526,979.5313 L371,979.5313 A0,0 0 0 0 371,979.5313 " fill="#FEFFDD" style="stroke:#181818;stroke-width:0.5;"/><path d="M526,979.5313 L526,989.5313 L536,989.5313 L526,979.5313 " fill="#FEFFDD" style="stroke:#181818;stroke-width:0.5;"/><text fill="#000000" font-family="sans-serif" font-size="13" lengthAdjust="spacing" textLength="144" x="377" y="996.5981">void end_component()</text><ellipse cx="341" cy="992.0977" fill="#222222" rx="10" ry="10" style="stroke:#222222;stroke-width:1.0;"/><rect fill="#F1F1F1" height="33.9688" rx="12.5" ry="12.5" style="stroke:#181818;stroke-width:0.5;" width="406" x="138" y="1024.6641"/><text fill="#000000" font-family="sans-serif" font-size="12" lengthAdjust="spacing" textLength="386" x="148" y="1045.8027">ENTERING("5o8hxpr6ppi15pinuy79m7u04","end_component");</text><polygon fill="#F1F1F1" points="300,1078.6328,382,1078.6328,394,1090.6328,382,1102.6328,300,1102.6328,288,1090.6328,300,1078.6328" style="stroke:#181818;stroke-width:0.5;"/><text fill="#000000" font-family="sans-serif" font-size="11" lengthAdjust="spacing" textLength="82" x="300" y="1094.4409">try/catch block</text><rect fill="#F1F1F1" height="33.9688" rx="12.5" ry="12.5" style="stroke:#181818;stroke-width:0.5;" width="47" x="317.5" y="1135.4375"/><text fill="#000000" font-family="sans-serif" font-size="12" lengthAdjust="spacing" textLength="27" x="327.5" y="1156.5762">int i;</text><rect fill="#F1F1F1" height="33.9688" rx="12.5" ry="12.5" style="stroke:#181818;stroke-width:0.5;" width="249" x="216.5" y="1189.4063"/><text fill="#000000" font-family="sans-serif" font-size="12" lengthAdjust="spacing" textLength="229" x="226.5" y="1210.5449">i=GD_comp(Z.z().G_decomp).size++;</text><rect fill="#F1F1F1" height="47.9375" rx="12.5" ry="12.5" style="stroke:#181818;stroke-width:0.5;" width="660" x="11" y="1243.375"/><text fill="#000000" font-family="sans-serif" font-size="12" lengthAdjust="spacing" textLength="640" x="21" y="1264.5137">GD_comp(Z.z().G_decomp).list=CArrayOfStar.&lt;ST_Agnode_s &gt;REALLOC(GD_comp(Z.z().G_decomp).size,</text><text fill="#000000" font-family="sans-serif" font-size="12" lengthAdjust="spacing" textLength="322" x="21" y="1278.4824">GD_comp(Z.z().G_decomp).list,ST_Agnode_s.class );</text><rect fill="#F1F1F1" height="47.9375" rx="12.5" ry="12.5" style="stroke:#181818;stroke-width:0.5;" width="332" x="175" y="1311.3125"/><text fill="#000000" font-family="sans-serif" font-size="12" lengthAdjust="spacing" textLength="312" x="185" y="1332.4512">GD_comp(Z.z().G_decomp).list.set_(i,GD_nlist(Z.z()</text><text fill="#000000" font-family="sans-serif" font-size="12" lengthAdjust="spacing" textLength="83" x="185" y="1346.4199">.G_decomp));</text><polygon fill="#F1F1F1" points="341,1379.25,341,1379.25,353,1391.25,341,1403.25,341,1403.25,329,1391.25,341,1379.25" style="stroke:#181818;stroke-width:0.5;"/><ellipse cx="341" cy="1433.25" fill="none" rx="10" ry="10" style="stroke:#222222;stroke-width:1.5;"/><line style="stroke:#222222;stroke-width:2.5;" x1="334.8128" x2="347.1872" y1="1427.0628" y2="1439.4372"/><line style="stroke:#222222;stroke-width:2.5;" x1="347.1872" x2="334.8128" y1="1427.0628" y2="1439.4372"/><path d="M371,1453.25 L371,1461.8164 L351,1465.8164 L371,1469.8164 L371,1478.3828 A0,0 0 0 0 371,1478.3828 L752,1478.3828 A0,0 0 0 0 752,1478.3828 L752,1463.25 L742,1453.25 L371,1453.25 A0,0 0 0 0 371,1453.25 " fill="#FEFFDD" style="stroke:#181818;stroke-width:0.5;"/><path d="M742,1453.25 L742,1463.25 L752,1463.25 L742,1453.25 " fill="#FEFFDD" style="stroke:#181818;stroke-width:0.5;"/><text fill="#000000" font-family="sans-serif" font-size="13" lengthAdjust="spacing" textLength="360" x="377" y="1470.3169">void search_component(ST_Agraph_s g,ST_Agnode_s n)</text><ellipse cx="341" cy="1465.8164" fill="#222222" rx="10" ry="10" style="stroke:#222222;stroke-width:1.0;"/><rect fill="#F1F1F1" height="33.9688" rx="12.5" ry="12.5" style="stroke:#181818;stroke-width:0.5;" width="411" x="135.5" y="1498.3828"/><text fill="#000000" font-family="sans-serif" font-size="12" lengthAdjust="spacing" textLength="391" x="145.5" y="1519.5215">ENTERING("c5u5lnfbu0pmlk6vsvyrdj8ep","search_component");</text><polygon fill="#F1F1F1" points="300,1552.3516,382,1552.3516,394,1564.3516,382,1576.3516,300,1576.3516,288,1564.3516,300,1552.3516" style="stroke:#181818;stroke-width:0.5;"/><text fill="#000000" font-family="sans-serif" font-size="11" lengthAdjust="spacing" textLength="82" x="300" y="1568.1597">try/catch block</text><rect fill="#F1F1F1" height="33.9688" rx="12.5" ry="12.5" style="stroke:#181818;stroke-width:0.5;" width="58" x="300" y="1609.1563"/><text fill="#000000" font-family="sans-serif" font-size="12" lengthAdjust="spacing" textLength="38" x="310" y="1630.2949">int c,i;</text><rect fill="#F1F1F1" height="47.9375" rx="12.5" ry="12.5" style="stroke:#181818;stroke-width:0.5;" width="326" x="166" y="1663.125"/><text fill="#000000" font-family="sans-serif" font-size="12" lengthAdjust="spacing" textLength="306" x="176" y="1684.2637">final ST_elist vec[]=new ST_elist[]{new ST_elist(),</text><text fill="#000000" font-family="sans-serif" font-size="12" lengthAdjust="spacing" textLength="278" x="176" y="1698.2324">new ST_elist(),new ST_elist(),new ST_elist()};</text><rect fill="#F1F1F1" height="33.9688" rx="12.5" ry="12.5" style="stroke:#181818;stroke-width:0.5;" width="144" x="257" y="1731.0625"/><text fill="#000000" font-family="sans-serif" font-size="12" lengthAdjust="spacing" textLength="124" x="267" y="1752.2012">ST_Agnode_s other;</text><rect fill="#F1F1F1" height="33.9688" rx="12.5" ry="12.5" style="stroke:#181818;stroke-width:0.5;" width="118" x="270" y="1785.0313"/><text fill="#000000" font-family="sans-serif" font-size="12" lengthAdjust="spacing" textLength="98" x="280" y="1806.1699">ST_Agedge_s e;</text><rect fill="#F1F1F1" height="33.9688" rx="12.5" ry="12.5" style="stroke:#181818;stroke-width:0.5;" width="162" x="248" y="1839"/><text fill="#000000" font-family="sans-serif" font-size="12" lengthAdjust="spacing" textLength="142" x="258" y="1860.1387">add_to_component(n);</text><rect fill="#F1F1F1" height="33.9688" rx="12.5" ry="12.5" style="stroke:#181818;stroke-width:0.5;" width="158" x="250" y="1892.9688"/><text fill="#000000" font-family="sans-serif" font-size="12" lengthAdjust="spacing" textLength="138" x="260" y="1914.1074">vec[0].___(ND_out(n));</text><rect fill="#F1F1F1" height="33.9688" rx="12.5" ry="12.5" style="stroke:#181818;stroke-width:0.5;" width="148" x="255" y="1946.9375"/><text fill="#000000" font-family="sans-serif" font-size="12" lengthAdjust="spacing" textLength="128" x="265" y="1968.0762">vec[1].___(ND_in(n));</text><rect fill="#F1F1F1" height="33.9688" rx="12.5" ry="12.5" style="stroke:#181818;stroke-width:0.5;" width="184" x="237" y="2000.9063"/><text fill="#000000" font-family="sans-serif" font-size="12" lengthAdjust="spacing" textLength="164" x="247" y="2022.0449">vec[2].___(ND_flat_out(n));</text><rect fill="#F1F1F1" height="33.9688" rx="12.5" ry="12.5" style="stroke:#181818;stroke-width:0.5;" width="174" x="242" y="2054.875"/><text fill="#000000" font-family="sans-serif" font-size="12" lengthAdjust="spacing" textLength="154" x="252" y="2076.0137">vec[3].___(ND_flat_in(n));</text><rect fill="#F1F1F1" height="33.9688" rx="12.5" ry="12.5" style="stroke:#181818;stroke-width:0.5;" width="121" x="268.5" y="2205.6484"/><text fill="#000000" font-family="sans-serif" font-size="12" lengthAdjust="spacing" textLength="101" x="278.5" y="2226.7871">other=agtail(e);</text><polygon fill="#F1F1F1" points="263.5,2157.2461,394.5,2157.2461,406.5,2169.2461,394.5,2181.2461,263.5,2181.2461,251.5,2169.2461,263.5,2157.2461" style="stroke:#181818;stroke-width:0.5;"/><text fill="#000000" font-family="sans-serif" font-size="11" lengthAdjust="spacing" textLength="20" x="333" y="2191.4565">yes</text><text fill="#000000" font-family="sans-serif" font-size="11" lengthAdjust="spacing" textLength="131" x="263.5" y="2173.0542">EQ(other=aghead(e),n)</text><polygon fill="#F1F1F1" points="329,2259.6172,341,2271.6172,329,2283.6172,317,2271.6172,329,2259.6172" style="stroke:#181818;stroke-width:0.5;"/><rect fill="#F1F1F1" height="33.9688" rx="12.5" ry="12.5" style="stroke:#181818;stroke-width:0.5;" width="200" x="229" y="2367.0195"/><text fill="#000000" font-family="sans-serif" font-size="12" lengthAdjust="spacing" textLength="180" x="239" y="2388.1582">search_component(g,other);</text><polygon fill="#F1F1F1" points="158.5,2318.6172,499.5,2318.6172,511.5,2330.6172,499.5,2342.6172,158.5,2342.6172,146.5,2330.6172,158.5,2318.6172" style="stroke:#181818;stroke-width:0.5;"/><text fill="#000000" font-family="sans-serif" font-size="11" lengthAdjust="spacing" textLength="20" x="333" y="2352.8276">yes</text><text fill="#000000" font-family="sans-serif" font-size="11" lengthAdjust="spacing" textLength="341" x="158.5" y="2334.4253">(ND_mark(other)!=Z.z().Cmark)&amp;&amp;(EQ(other,UF_find(other)))</text><polygon fill="#F1F1F1" points="329,2420.9883,341,2432.9883,329,2444.9883,317,2432.9883,329,2420.9883" style="stroke:#181818;stroke-width:0.5;"/><polygon fill="#F1F1F1" points="284,2108.8438,374,2108.8438,386,2120.8438,374,2132.8438,284,2132.8438,272,2120.8438,284,2108.8438" style="stroke:#181818;stroke-width:0.5;"/><text fill="#000000" font-family="sans-serif" font-size="11" lengthAdjust="spacing" textLength="20" x="333" y="2143.0542">yes</text><text fill="#000000" font-family="sans-serif" font-size="11" lengthAdjust="spacing" textLength="86" x="284" y="2124.6519">vec[c].list!=null</text><polygon fill="#F1F1F1" points="329,2464.9883,341,2476.9883,329,2488.9883,317,2476.9883,329,2464.9883" style="stroke:#181818;stroke-width:0.5;"/><polygon fill="#F1F1F1" points="341,2508.9883,341,2508.9883,353,2520.9883,341,2532.9883,341,2532.9883,329,2520.9883,341,2508.9883" style="stroke:#181818;stroke-width:0.5;"/><ellipse cx="341" cy="2562.9883" fill="none" rx="10" ry="10" style="stroke:#222222;stroke-width:1.5;"/><line style="stroke:#222222;stroke-width:2.5;" x1="334.8128" x2="347.1872" y1="2556.8011" y2="2569.1755"/><line style="stroke:#222222;stroke-width:2.5;" x1="347.1872" x2="334.8128" y1="2556.8011" y2="2569.1755"/><path d="M371,2582.9883 L371,2591.5547 L351,2595.5547 L371,2599.5547 L371,2608.1211 A0,0 0 0 0 371,2608.1211 L656,2608.1211 A0,0 0 0 0 656,2608.1211 L656,2592.9883 L646,2582.9883 L371,2582.9883 A0,0 0 0 0 371,2582.9883 " fill="#FEFFDD" style="stroke:#181818;stroke-width:0.5;"/><path d="M646,2582.9883 L646,2592.9883 L656,2592.9883 L646,2582.9883 " fill="#FEFFDD" style="stroke:#181818;stroke-width:0.5;"/><text fill="#000000" font-family="sans-serif" font-size="13" lengthAdjust="spacing" textLength="264" x="377" y="2600.0552">void decompose(ST_Agraph_s g,int pass)</text><ellipse cx="341" cy="2595.5547" fill="#222222" rx="10" ry="10" style="stroke:#222222;stroke-width:1.0;"/><rect fill="#F1F1F1" height="33.9688" rx="12.5" ry="12.5" style="stroke:#181818;stroke-width:0.5;" width="354" x="164" y="2628.1211"/><text fill="#000000" font-family="sans-serif" font-size="12" lengthAdjust="spacing" textLength="334" x="174" y="2649.2598">ENTERING("2t7r964kqtl5qrl7i57i22tqy","decompose");</text><polygon fill="#F1F1F1" points="300,2682.0898,382,2682.0898,394,2694.0898,382,2706.0898,300,2706.0898,288,2694.0898,300,2682.0898" style="stroke:#181818;stroke-width:0.5;"/><text fill="#000000" font-family="sans-serif" font-size="11" lengthAdjust="spacing" textLength="82" x="300" y="2697.8979">try/catch block</text><rect fill="#F1F1F1" height="33.9688" rx="12.5" ry="12.5" style="stroke:#181818;stroke-width:0.5;" width="138" x="272" y="2738.8945"/><text fill="#000000" font-family="sans-serif" font-size="12" lengthAdjust="spacing" textLength="118" x="282" y="2760.0332">ST_Agraph_s subg;</text><rect fill="#F1F1F1" height="33.9688" rx="12.5" ry="12.5" style="stroke:#181818;stroke-width:0.5;" width="128" x="277" y="2792.8633"/><text fill="#000000" font-family="sans-serif" font-size="12" lengthAdjust="spacing" textLength="108" x="287" y="2814.002">ST_Agnode_s n,v;</text><rect fill="#F1F1F1" height="33.9688" rx="12.5" ry="12.5" style="stroke:#181818;stroke-width:0.5;" width="139" x="271.5" y="2846.832"/><text fill="#000000" font-family="sans-serif" font-size="12" lengthAdjust="spacing" textLength="119" x="281.5" y="2867.9707">Z.z().G_decomp=g;</text><rect fill="#F1F1F1" height="33.9688" rx="12.5" ry="12.5" style="stroke:#181818;stroke-width:0.5;" width="113" x="284.5" y="2949.2031"/><text fill="#000000" font-family="sans-serif" font-size="12" lengthAdjust="spacing" textLength="93" x="294.5" y="2970.3418">Z.z().Cmark=1;</text><polygon fill="#F1F1F1" points="286,2900.8008,396,2900.8008,408,2912.8008,396,2924.8008,286,2924.8008,274,2912.8008,286,2900.8008" style="stroke:#181818;stroke-width:0.5;"/><text fill="#000000" font-family="sans-serif" font-size="11" lengthAdjust="spacing" textLength="20" x="345" y="2935.0112">yes</text><text fill="#000000" font-family="sans-serif" font-size="11" lengthAdjust="spacing" textLength="110" x="286" y="2916.6089">++Z.z().Cmark==0</text><polygon fill="#F1F1F1" points="341,3003.1719,353,3015.1719,341,3027.1719,329,3015.1719,341,3003.1719" style="stroke:#181818;stroke-width:0.5;"/><rect fill="#F1F1F1" height="33.9688" rx="12.5" ry="12.5" style="stroke:#181818;stroke-width:0.5;" width="145" x="268.5" y="3047.1719"/><text fill="#000000" font-family="sans-serif" font-size="12" lengthAdjust="spacing" textLength="125" x="278.5" y="3068.3105">GD_comp(g).size=0;</text><rect fill="#F1F1F1" height="33.9688" rx="12.5" ry="12.5" style="stroke:#181818;stroke-width:0.5;" width="131" x="275.5" y="3101.1406"/><text fill="#000000" font-family="sans-serif" font-size="12" lengthAdjust="spacing" textLength="111" x="285.5" y="3122.2793">GD_n_nodes(g,0);</text><rect fill="#F1F1F1" height="33.9688" rx="12.5" ry="12.5" style="stroke:#181818;stroke-width:0.5;" width="48" x="317" y="3155.1094"/><text fill="#000000" font-family="sans-serif" font-size="12" lengthAdjust="spacing" textLength="28" x="327" y="3176.248">v=n;</text><polygon fill="#F1F1F1" points="149.5,3209.0781,365.5,3209.0781,377.5,3221.0781,365.5,3233.0781,149.5,3233.0781,137.5,3221.0781,149.5,3209.0781" style="stroke:#181818;stroke-width:0.5;"/><text fill="#000000" font-family="sans-serif" font-size="11" lengthAdjust="spacing" textLength="20" x="261.5" y="3243.2886">yes</text><text fill="#000000" font-family="sans-serif" font-size="11" lengthAdjust="spacing" textLength="212" x="149.5" y="3224.8862">(pass&gt;0)&amp;&amp;(subg=ND_clust(v))!=null</text><rect fill="#F1F1F1" height="33.9688" rx="12.5" ry="12.5" style="stroke:#181818;stroke-width:0.5;" width="282" x="116.5" y="3264.7886"/><text fill="#000000" font-family="sans-serif" font-size="12" lengthAdjust="spacing" textLength="262" x="126.5" y="3285.9272">v=GD_rankleader(subg).get_(ND_rank(v));</text><polygon fill="#F1F1F1" points="430.5,3209.0781,503.5,3209.0781,515.5,3221.0781,503.5,3233.0781,430.5,3233.0781,418.5,3221.0781,430.5,3209.0781" style="stroke:#181818;stroke-width:0.5;"/><text fill="#000000" font-family="sans-serif" font-size="11" lengthAdjust="spacing" textLength="20" x="471" y="3243.2886">yes</text><text fill="#000000" font-family="sans-serif" font-size="11" lengthAdjust="spacing" textLength="73" x="430.5" y="3224.8862">v!=UF_find(v)</text><rect fill="#F1F1F1" height="33.9688" rx="12.5" ry="12.5" style="stroke:#181818;stroke-width:0.5;" width="83" x="425.5" y="3264.7886"/><text fill="#000000" font-family="sans-serif" font-size="12" lengthAdjust="spacing" textLength="63" x="435.5" y="3285.9272">continue ;</text><rect fill="#F1F1F1" height="33.9688" rx="12.5" ry="12.5" style="stroke:#181818;stroke-width:0.5;" width="146" x="268" y="3387.1597"/><text fill="#000000" font-family="sans-serif" font-size="12" lengthAdjust="spacing" textLength="126" x="278" y="3408.2983">begin_component();</text><rect fill="#F1F1F1" height="33.9688" rx="12.5" ry="12.5" style="stroke:#181818;stroke-width:0.5;" width="172" x="255" y="3441.1284"/><text fill="#000000" font-family="sans-serif" font-size="12" lengthAdjust="spacing" textLength="152" x="265" y="3462.2671">search_component(g,v);</text><rect fill="#F1F1F1" height="33.9688" rx="12.5" ry="12.5" style="stroke:#181818;stroke-width:0.5;" width="135" x="273.5" y="3495.0972"/><text fill="#000000" font-family="sans-serif" font-size="12" lengthAdjust="spacing" textLength="115" x="283.5" y="3516.2358">end_component();</text><polygon fill="#F1F1F1" points="269,3338.7573,413,3338.7573,425,3350.7573,413,3362.7573,269,3362.7573,257,3350.7573,269,3338.7573" style="stroke:#181818;stroke-width:0.5;"/><text fill="#000000" font-family="sans-serif" font-size="11" lengthAdjust="spacing" textLength="20" x="345" y="3372.9678">yes</text><text fill="#000000" font-family="sans-serif" font-size="11" lengthAdjust="spacing" textLength="144" x="269" y="3354.5654">ND_mark(v)!=Z.z().Cmark</text><polygon fill="#F1F1F1" points="341,3549.0659,353,3561.0659,341,3573.0659,329,3561.0659,341,3549.0659" style="stroke:#181818;stroke-width:0.5;"/><polygon fill="#F1F1F1" points="341,3593.0659,341,3593.0659,353,3605.0659,341,3617.0659,341,3617.0659,329,3605.0659,341,3593.0659" style="stroke:#181818;stroke-width:0.5;"/><ellipse cx="341" cy="3647.0659" fill="none" rx="10" ry="10" style="stroke:#222222;stroke-width:1.5;"/><line style="stroke:#222222;stroke-width:2.5;" x1="334.8128" x2="347.1872" y1="3640.8787" y2="3653.2531"/><line style="stroke:#222222;stroke-width:2.5;" x1="347.1872" x2="334.8128" y1="3640.8787" y2="3653.2531"/><line style="stroke:#181818;stroke-width:1.0;" x1="341" x2="341" y1="32.5664" y2="55.1328"/><polygon fill="#181818" points="337,45.1328,341,55.1328,345,45.1328,341,49.1328" style="stroke:#181818;stroke-width:1.0;"/><line style="stroke:#181818;stroke-width:1.0;" x1="341" x2="341" y1="199.875" y2="219.875"/><polygon fill="#181818" points="337,209.875,341,219.875,345,209.875,341,213.875" style="stroke:#181818;stroke-width:1.0;"/><line style="stroke:#181818;stroke-width:1.0;" x1="341" x2="341" y1="133.1016" y2="165.9063"/><polygon fill="#181818" points="337,155.9063,341,165.9063,345,155.9063,341,159.9063" style="stroke:#181818;stroke-width:1.0;"/><text fill="#000000" font-family="sans-serif" font-size="11" lengthAdjust="spacing" textLength="15" x="345" y="153.312">try</text><line style="stroke:#181818;stroke-width:1.0;" x1="341" x2="341" y1="253.8438" y2="273.8438"/><polygon fill="#181818" points="337,263.8438,341,273.8438,345,263.8438,341,267.8438" style="stroke:#181818;stroke-width:1.0;"/><line style="stroke:#181818;stroke-width:1.0;" x1="341" x2="341" y1="89.1016" y2="109.1016"/><polygon fill="#181818" points="337,99.1016,341,109.1016,345,99.1016,341,103.1016" style="stroke:#181818;stroke-width:1.0;"/><line style="stroke:#181818;stroke-width:1.0;" x1="341" x2="341" y1="297.8438" y2="317.8438"/><polygon fill="#181818" points="337,307.8438,341,317.8438,345,307.8438,341,311.8438" style="stroke:#181818;stroke-width:1.0;"/><line style="stroke:#181818;stroke-width:1.0;" x1="341" x2="341" y1="370.4102" y2="392.9766"/><polygon fill="#181818" points="337,382.9766,341,392.9766,345,382.9766,341,386.9766" style="stroke:#181818;stroke-width:1.0;"/><line style="stroke:#181818;stroke-width:1.0;" x1="355" x2="355" y1="551.6875" y2="571.6875"/><polygon fill="#181818" points="351,561.6875,355,571.6875,359,561.6875,355,565.6875" style="stroke:#181818;stroke-width:1.0;"/><line style="stroke:#181818;stroke-width:1.0;" x1="234.5" x2="234.5" y1="693.625" y2="713.625"/><polygon fill="#181818" points="230.5,703.625,234.5,713.625,238.5,703.625,234.5,707.625" style="stroke:#181818;stroke-width:1.0;"/><line style="stroke:#181818;stroke-width:1.0;" x1="475.5" x2="475.5" y1="693.625" y2="713.625"/><polygon fill="#181818" points="471.5,703.625,475.5,713.625,479.5,703.625,475.5,707.625" style="stroke:#181818;stroke-width:1.0;"/><line style="stroke:#181818;stroke-width:1.0;" x1="255.5" x2="234.5" y1="637.6563" y2="637.6563"/><line style="stroke:#181818;stroke-width:1.0;" x1="234.5" x2="234.5" y1="637.6563" y2="659.6563"/><polygon fill="#181818" points="230.5,649.6563,234.5,659.6563,238.5,649.6563,234.5,653.6563" style="stroke:#181818;stroke-width:1.0;"/><line style="stroke:#181818;stroke-width:1.0;" x1="454.5" x2="475.5" y1="637.6563" y2="637.6563"/><line style="stroke:#181818;stroke-width:1.0;" x1="475.5" x2="475.5" y1="637.6563" y2="659.6563"/><polygon fill="#181818" points="471.5,649.6563,475.5,659.6563,479.5,649.6563,475.5,653.6563" style="stroke:#181818;stroke-width:1.0;"/><line style="stroke:#181818;stroke-width:1.0;" x1="234.5" x2="234.5" y1="747.5938" y2="765.5938"/><line style="stroke:#181818;stroke-width:1.0;" x1="234.5" x2="343" y1="765.5938" y2="765.5938"/><polygon fill="#181818" points="333,761.5938,343,765.5938,333,769.5938,337,765.5938" style="stroke:#181818;stroke-width:1.0;"/><line style="stroke:#181818;stroke-width:1.0;" x1="475.5" x2="475.5" y1="747.5938" y2="765.5938"/><line style="stroke:#181818;stroke-width:1.0;" x1="475.5" x2="367" y1="765.5938" y2="765.5938"/><polygon fill="#181818" points="377,761.5938,367,765.5938,377,769.5938,373,765.5938" style="stroke:#181818;stroke-width:1.0;"/><line style="stroke:#181818;stroke-width:1.0;" x1="355" x2="355" y1="605.6563" y2="625.6563"/><polygon fill="#181818" points="351,615.6563,355,625.6563,359,615.6563,355,619.6563" style="stroke:#181818;stroke-width:1.0;"/><line style="stroke:#181818;stroke-width:1.0;" x1="355" x2="355" y1="777.5938" y2="797.5938"/><polygon fill="#181818" points="351,787.5938,355,797.5938,359,787.5938,355,791.5938" style="stroke:#181818;stroke-width:1.0;"/><line style="stroke:#181818;stroke-width:1.0;" x1="355" x2="355" y1="831.5625" y2="851.5625"/><polygon fill="#181818" points="351,841.5625,355,851.5625,359,841.5625,355,845.5625" style="stroke:#181818;stroke-width:1.0;"/><line style="stroke:#181818;stroke-width:1.0;" x1="355" x2="355" y1="470.9453" y2="503.75"/><polygon fill="#181818" points="351,493.75,355,503.75,359,493.75,355,497.75" style="stroke:#181818;stroke-width:1.0;"/><text fill="#000000" font-family="sans-serif" font-size="11" lengthAdjust="spacing" textLength="15" x="359" y="491.1558">try</text><line style="stroke:#181818;stroke-width:1.0;" x1="341" x2="341" y1="885.5313" y2="905.5313"/><polygon fill="#181818" points="337,895.5313,341,905.5313,345,895.5313,341,899.5313" style="stroke:#181818;stroke-width:1.0;"/><line style="stroke:#181818;stroke-width:1.0;" x1="341" x2="341" y1="426.9453" y2="446.9453"/><polygon fill="#181818" points="337,436.9453,341,446.9453,345,436.9453,341,440.9453" style="stroke:#181818;stroke-width:1.0;"/><line style="stroke:#181818;stroke-width:1.0;" x1="341" x2="341" y1="929.5313" y2="949.5313"/><polygon fill="#181818" points="337,939.5313,341,949.5313,345,939.5313,341,943.5313" style="stroke:#181818;stroke-width:1.0;"/><line style="stroke:#181818;stroke-width:1.0;" x1="341" x2="341" y1="1002.0977" y2="1024.6641"/><polygon fill="#181818" points="337,1014.6641,341,1024.6641,345,1014.6641,341,1018.6641" style="stroke:#181818;stroke-width:1.0;"/><line style="stroke:#181818;stroke-width:1.0;" x1="341" x2="341" y1="1169.4063" y2="1189.4063"/><polygon fill="#181818" points="337,1179.4063,341,1189.4063,345,1179.4063,341,1183.4063" style="stroke:#181818;stroke-width:1.0;"/><line style="stroke:#181818;stroke-width:1.0;" x1="341" x2="341" y1="1223.375" y2="1243.375"/><polygon fill="#181818" points="337,1233.375,341,1243.375,345,1233.375,341,1237.375" style="stroke:#181818;stroke-width:1.0;"/><line style="stroke:#181818;stroke-width:1.0;" x1="341" x2="341" y1="1291.3125" y2="1311.3125"/><polygon fill="#181818" points="337,1301.3125,341,1311.3125,345,1301.3125,341,1305.3125" style="stroke:#181818;stroke-width:1.0;"/><line style="stroke:#181818;stroke-width:1.0;" x1="341" x2="341" y1="1102.6328" y2="1135.4375"/><polygon fill="#181818" points="337,1125.4375,341,1135.4375,345,1125.4375,341,1129.4375" style="stroke:#181818;stroke-width:1.0;"/><text fill="#000000" font-family="sans-serif" font-size="11" lengthAdjust="spacing" textLength="15" x="345" y="1122.8433">try</text><line style="stroke:#181818;stroke-width:1.0;" x1="341" x2="341" y1="1359.25" y2="1379.25"/><polygon fill="#181818" points="337,1369.25,341,1379.25,345,1369.25,341,1373.25" style="stroke:#181818;stroke-width:1.0;"/><line style="stroke:#181818;stroke-width:1.0;" x1="341" x2="341" y1="1058.6328" y2="1078.6328"/><polygon fill="#181818" points="337,1068.6328,341,1078.6328,345,1068.6328,341,1072.6328" style="stroke:#181818;stroke-width:1.0;"/><line style="stroke:#181818;stroke-width:1.0;" x1="341" x2="341" y1="1403.25" y2="1423.25"/><polygon fill="#181818" points="337,1413.25,341,1423.25,345,1413.25,341,1417.25" style="stroke:#181818;stroke-width:1.0;"/><line style="stroke:#181818;stroke-width:1.0;" x1="341" x2="341" y1="1475.8164" y2="1498.3828"/><polygon fill="#181818" points="337,1488.3828,341,1498.3828,345,1488.3828,341,1492.3828" style="stroke:#181818;stroke-width:1.0;"/><line style="stroke:#181818;stroke-width:1.0;" x1="329" x2="329" y1="1643.125" y2="1663.125"/><polygon fill="#181818" points="325,1653.125,329,1663.125,333,1653.125,329,1657.125" style="stroke:#181818;stroke-width:1.0;"/><line style="stroke:#181818;stroke-width:1.0;" x1="329" x2="329" y1="1711.0625" y2="1731.0625"/><polygon fill="#181818" points="325,1721.0625,329,1731.0625,333,1721.0625,329,1725.0625" style="stroke:#181818;stroke-width:1.0;"/><line style="stroke:#181818;stroke-width:1.0;" x1="329" x2="329" y1="1765.0313" y2="1785.0313"/><polygon fill="#181818" points="325,1775.0313,329,1785.0313,333,1775.0313,329,1779.0313" style="stroke:#181818;stroke-width:1.0;"/><line style="stroke:#181818;stroke-width:1.0;" x1="329" x2="329" y1="1819" y2="1839"/><polygon fill="#181818" points="325,1829,329,1839,333,1829,329,1833" style="stroke:#181818;stroke-width:1.0;"/><line style="stroke:#181818;stroke-width:1.0;" x1="329" x2="329" y1="1872.9688" y2="1892.9688"/><polygon fill="#181818" points="325,1882.9688,329,1892.9688,333,1882.9688,329,1886.9688" style="stroke:#181818;stroke-width:1.0;"/><line style="stroke:#181818;stroke-width:1.0;" x1="329" x2="329" y1="1926.9375" y2="1946.9375"/><polygon fill="#181818" points="325,1936.9375,329,1946.9375,333,1936.9375,329,1940.9375" style="stroke:#181818;stroke-width:1.0;"/><line style="stroke:#181818;stroke-width:1.0;" x1="329" x2="329" y1="1980.9063" y2="2000.9063"/><polygon fill="#181818" points="325,1990.9063,329,2000.9063,333,1990.9063,329,1994.9063" style="stroke:#181818;stroke-width:1.0;"/><line style="stroke:#181818;stroke-width:1.0;" x1="329" x2="329" y1="2034.875" y2="2054.875"/><polygon fill="#181818" points="325,2044.875,329,2054.875,333,2044.875,329,2048.875" style="stroke:#181818;stroke-width:1.0;"/><line style="stroke:#181818;stroke-width:1.0;" x1="329" x2="329" y1="2181.2461" y2="2205.6484"/><polygon fill="#181818" points="325,2195.6484,329,2205.6484,333,2195.6484,329,2199.6484" style="stroke:#181818;stroke-width:1.0;"/><line style="stroke:#181818;stroke-width:1.0;" x1="406.5" x2="418.5" y1="2169.2461" y2="2169.2461"/><polygon fill="#181818" points="414.5,2212.6328,418.5,2222.6328,422.5,2212.6328,418.5,2216.6328" style="stroke:#181818;stroke-width:1.0;"/><line style="stroke:#181818;stroke-width:1.0;" x1="418.5" x2="418.5" y1="2169.2461" y2="2271.6172"/><line style="stroke:#181818;stroke-width:1.0;" x1="418.5" x2="341" y1="2271.6172" y2="2271.6172"/><polygon fill="#181818" points="351,2267.6172,341,2271.6172,351,2275.6172,347,2271.6172" style="stroke:#181818;stroke-width:1.0;"/><line style="stroke:#181818;stroke-width:1.0;" x1="329" x2="329" y1="2239.6172" y2="2259.6172"/><polygon fill="#181818" points="325,2249.6172,329,2259.6172,333,2249.6172,329,2253.6172" style="stroke:#181818;stroke-width:1.0;"/><line style="stroke:#181818;stroke-width:1.0;" x1="329" x2="329" y1="2342.6172" y2="2367.0195"/><polygon fill="#181818" points="325,2357.0195,329,2367.0195,333,2357.0195,329,2361.0195" style="stroke:#181818;stroke-width:1.0;"/><line style="stroke:#181818;stroke-width:1.0;" x1="511.5" x2="523.5" y1="2330.6172" y2="2330.6172"/><polygon fill="#181818" points="519.5,2374.0039,523.5,2384.0039,527.5,2374.0039,523.5,2378.0039" style="stroke:#181818;stroke-width:1.0;"/><line style="stroke:#181818;stroke-width:1.0;" x1="523.5" x2="523.5" y1="2330.6172" y2="2432.9883"/><line style="stroke:#181818;stroke-width:1.0;" x1="523.5" x2="341" y1="2432.9883" y2="2432.9883"/><polygon fill="#181818" points="351,2428.9883,341,2432.9883,351,2436.9883,347,2432.9883" style="stroke:#181818;stroke-width:1.0;"/><line style="stroke:#181818;stroke-width:1.0;" x1="329" x2="329" y1="2400.9883" y2="2420.9883"/><polygon fill="#181818" points="325,2410.9883,329,2420.9883,333,2410.9883,329,2414.9883" style="stroke:#181818;stroke-width:1.0;"/><line style="stroke:#181818;stroke-width:1.0;" x1="329" x2="329" y1="2283.6172" y2="2318.6172"/><polygon fill="#181818" points="325,2308.6172,329,2318.6172,333,2308.6172,329,2312.6172" style="stroke:#181818;stroke-width:1.0;"/><line style="stroke:#181818;stroke-width:1.0;" x1="329" x2="329" y1="2132.8438" y2="2157.2461"/><polygon fill="#181818" points="325,2147.2461,329,2157.2461,333,2147.2461,329,2151.2461" style="stroke:#181818;stroke-width:1.0;"/><line style="stroke:#181818;stroke-width:1.0;" x1="386" x2="533.5" y1="2120.8438" y2="2120.8438"/><polygon fill="#181818" points="529.5,2291.1172,533.5,2301.1172,537.5,2291.1172,533.5,2295.1172" style="stroke:#181818;stroke-width:1.0;"/><line style="stroke:#181818;stroke-width:1.0;" x1="533.5" x2="533.5" y1="2120.8438" y2="2476.9883"/><line style="stroke:#181818;stroke-width:1.0;" x1="533.5" x2="341" y1="2476.9883" y2="2476.9883"/><polygon fill="#181818" points="351,2472.9883,341,2476.9883,351,2480.9883,347,2476.9883" style="stroke:#181818;stroke-width:1.0;"/><line style="stroke:#181818;stroke-width:1.0;" x1="329" x2="329" y1="2444.9883" y2="2464.9883"/><polygon fill="#181818" points="325,2454.9883,329,2464.9883,333,2454.9883,329,2458.9883" style="stroke:#181818;stroke-width:1.0;"/><line style="stroke:#181818;stroke-width:1.0;" x1="329" x2="329" y1="2088.8438" y2="2108.8438"/><polygon fill="#181818" points="325,2098.8438,329,2108.8438,333,2098.8438,329,2102.8438" style="stroke:#181818;stroke-width:1.0;"/><line style="stroke:#181818;stroke-width:1.0;" x1="329" x2="329" y1="1576.3516" y2="1609.1563"/><polygon fill="#181818" points="325,1599.1563,329,1609.1563,333,1599.1563,329,1603.1563" style="stroke:#181818;stroke-width:1.0;"/><text fill="#000000" font-family="sans-serif" font-size="11" lengthAdjust="spacing" textLength="15" x="333" y="1596.562">try</text><line style="stroke:#181818;stroke-width:1.0;" x1="341" x2="341" y1="2488.9883" y2="2508.9883"/><polygon fill="#181818" points="337,2498.9883,341,2508.9883,345,2498.9883,341,2502.9883" style="stroke:#181818;stroke-width:1.0;"/><line style="stroke:#181818;stroke-width:1.0;" x1="341" x2="341" y1="1532.3516" y2="1552.3516"/><polygon fill="#181818" points="337,1542.3516,341,1552.3516,345,1542.3516,341,1546.3516" style="stroke:#181818;stroke-width:1.0;"/><line style="stroke:#181818;stroke-width:1.0;" x1="341" x2="341" y1="2532.9883" y2="2552.9883"/><polygon fill="#181818" points="337,2542.9883,341,2552.9883,345,2542.9883,341,2546.9883" style="stroke:#181818;stroke-width:1.0;"/><line style="stroke:#181818;stroke-width:1.0;" x1="341" x2="341" y1="2605.5547" y2="2628.1211"/><polygon fill="#181818" points="337,2618.1211,341,2628.1211,345,2618.1211,341,2622.1211" style="stroke:#181818;stroke-width:1.0;"/><line style="stroke:#181818;stroke-width:1.0;" x1="341" x2="341" y1="2772.8633" y2="2792.8633"/><polygon fill="#181818" points="337,2782.8633,341,2792.8633,345,2782.8633,341,2786.8633" style="stroke:#181818;stroke-width:1.0;"/><line style="stroke:#181818;stroke-width:1.0;" x1="341" x2="341" y1="2826.832" y2="2846.832"/><polygon fill="#181818" points="337,2836.832,341,2846.832,345,2836.832,341,2840.832" style="stroke:#181818;stroke-width:1.0;"/><line style="stroke:#181818;stroke-width:1.0;" x1="341" x2="341" y1="2924.8008" y2="2949.2031"/><polygon fill="#181818" points="337,2939.2031,341,2949.2031,345,2939.2031,341,2943.2031" style="stroke:#181818;stroke-width:1.0;"/><line style="stroke:#181818;stroke-width:1.0;" x1="408" x2="420" y1="2912.8008" y2="2912.8008"/><polygon fill="#181818" points="416,2956.1875,420,2966.1875,424,2956.1875,420,2960.1875" style="stroke:#181818;stroke-width:1.0;"/><line style="stroke:#181818;stroke-width:1.0;" x1="420" x2="420" y1="2912.8008" y2="3015.1719"/><line style="stroke:#181818;stroke-width:1.0;" x1="420" x2="353" y1="3015.1719" y2="3015.1719"/><polygon fill="#181818" points="363,3011.1719,353,3015.1719,363,3019.1719,359,3015.1719" style="stroke:#181818;stroke-width:1.0;"/><line style="stroke:#181818;stroke-width:1.0;" x1="341" x2="341" y1="2983.1719" y2="3003.1719"/><polygon fill="#181818" points="337,2993.1719,341,3003.1719,345,2993.1719,341,2997.1719" style="stroke:#181818;stroke-width:1.0;"/><line style="stroke:#181818;stroke-width:1.0;" x1="341" x2="341" y1="2880.8008" y2="2900.8008"/><polygon fill="#181818" points="337,2890.8008,341,2900.8008,345,2890.8008,341,2894.8008" style="stroke:#181818;stroke-width:1.0;"/><line style="stroke:#181818;stroke-width:1.0;" x1="341" x2="341" y1="3027.1719" y2="3047.1719"/><polygon fill="#181818" points="337,3037.1719,341,3047.1719,345,3037.1719,341,3041.1719" style="stroke:#181818;stroke-width:1.0;"/><line style="stroke:#181818;stroke-width:1.0;" x1="341" x2="341" y1="3081.1406" y2="3101.1406"/><polygon fill="#181818" points="337,3091.1406,341,3101.1406,345,3091.1406,341,3095.1406" style="stroke:#181818;stroke-width:1.0;"/><line style="stroke:#181818;stroke-width:1.0;" x1="341" x2="341" y1="3135.1094" y2="3155.1094"/><polygon fill="#181818" points="337,3145.1094,341,3155.1094,345,3145.1094,341,3149.1094" style="stroke:#181818;stroke-width:1.0;"/><line style="stroke:#181818;stroke-width:1.0;" x1="257.5" x2="257.5" y1="3233.0781" y2="3264.7886"/><polygon fill="#181818" points="253.5,3254.7886,257.5,3264.7886,261.5,3254.7886,257.5,3258.7886" style="stroke:#181818;stroke-width:1.0;"/><line style="stroke:#181818;stroke-width:1.0;" x1="257.5" x2="257.5" y1="3298.7573" y2="3318.7573"/><polygon fill="#181818" points="253.5,3308.7573,257.5,3318.7573,261.5,3308.7573,257.5,3312.7573" style="stroke:#181818;stroke-width:1.0;"/><line style="stroke:#181818;stroke-width:1.0;" x1="467" x2="467" y1="3233.0781" y2="3264.7886"/><polygon fill="#181818" points="463,3254.7886,467,3264.7886,471,3254.7886,467,3258.7886" style="stroke:#181818;stroke-width:1.0;"/><line style="stroke:#181818;stroke-width:1.0;" x1="467" x2="467" y1="3298.7573" y2="3318.7573"/><polygon fill="#181818" points="463,3308.7573,467,3318.7573,471,3308.7573,467,3312.7573" style="stroke:#181818;stroke-width:1.0;"/><line style="stroke:#181818;stroke-width:1.0;" x1="377.5" x2="418.5" y1="3221.0781" y2="3221.0781"/><polygon fill="#181818" points="408.5,3217.0781,418.5,3221.0781,408.5,3225.0781,412.5,3221.0781" style="stroke:#181818;stroke-width:1.0;"/><line style="stroke:#181818;stroke-width:1.0;" x1="341" x2="341" y1="3189.0781" y2="3194.0781"/><line style="stroke:#181818;stroke-width:1.0;" x1="341" x2="257.5" y1="3194.0781" y2="3194.0781"/><line style="stroke:#181818;stroke-width:1.0;" x1="257.5" x2="257.5" y1="3194.0781" y2="3209.0781"/><polygon fill="#181818" points="253.5,3199.0781,257.5,3209.0781,261.5,3199.0781,257.5,3203.0781" style="stroke:#181818;stroke-width:1.0;"/><line style="stroke:#181818;stroke-width:1.0;" x1="515.5" x2="550.5" y1="3221.0781" y2="3221.0781"/><line style="stroke:#181818;stroke-width:1.0;" x1="550.5" x2="550.5" y1="3221.0781" y2="3318.7573"/><polygon fill="#181818" points="546.5,3308.7573,550.5,3318.7573,554.5,3308.7573,550.5,3312.7573" style="stroke:#181818;stroke-width:1.0;"/><line style="stroke:#181818;stroke-width:1.0;" x1="257.5" x2="550.5" y1="3318.7573" y2="3318.7573"/><line style="stroke:#181818;stroke-width:1.0;" x1="341" x2="341" y1="3421.1284" y2="3441.1284"/><polygon fill="#181818" points="337,3431.1284,341,3441.1284,345,3431.1284,341,3435.1284" style="stroke:#181818;stroke-width:1.0;"/><line style="stroke:#181818;stroke-width:1.0;" x1="341" x2="341" y1="3475.0972" y2="3495.0972"/><polygon fill="#181818" points="337,3485.0972,341,3495.0972,345,3485.0972,341,3489.0972" style="stroke:#181818;stroke-width:1.0;"/><line style="stroke:#181818;stroke-width:1.0;" x1="341" x2="341" y1="3362.7573" y2="3387.1597"/><polygon fill="#181818" points="337,3377.1597,341,3387.1597,345,3377.1597,341,3381.1597" style="stroke:#181818;stroke-width:1.0;"/><line style="stroke:#181818;stroke-width:1.0;" x1="425" x2="437" y1="3350.7573" y2="3350.7573"/><polygon fill="#181818" points="433,3448.1128,437,3458.1128,441,3448.1128,437,3452.1128" style="stroke:#181818;stroke-width:1.0;"/><line style="stroke:#181818;stroke-width:1.0;" x1="437" x2="437" y1="3350.7573" y2="3561.0659"/><line style="stroke:#181818;stroke-width:1.0;" x1="437" x2="353" y1="3561.0659" y2="3561.0659"/><polygon fill="#181818" points="363,3557.0659,353,3561.0659,363,3565.0659,359,3561.0659" style="stroke:#181818;stroke-width:1.0;"/><line style="stroke:#181818;stroke-width:1.0;" x1="341" x2="341" y1="3529.0659" y2="3549.0659"/><polygon fill="#181818" points="337,3539.0659,341,3549.0659,345,3539.0659,341,3543.0659" style="stroke:#181818;stroke-width:1.0;"/><line style="stroke:#181818;stroke-width:1.0;" x1="341" x2="341" y1="3318.7573" y2="3338.7573"/><polygon fill="#181818" points="337,3328.7573,341,3338.7573,345,3328.7573,341,3332.7573" style="stroke:#181818;stroke-width:1.0;"/><line style="stroke:#181818;stroke-width:1.0;" x1="341" x2="341" y1="2706.0898" y2="2738.8945"/><polygon fill="#181818" points="337,2728.8945,341,2738.8945,345,2728.8945,341,2732.8945" style="stroke:#181818;stroke-width:1.0;"/><text fill="#000000" font-family="sans-serif" font-size="11" lengthAdjust="spacing" textLength="15" x="345" y="2726.3003">try</text><line style="stroke:#181818;stroke-width:1.0;" x1="341" x2="341" y1="3573.0659" y2="3593.0659"/><polygon fill="#181818" points="337,3583.0659,341,3593.0659,345,3583.0659,341,3587.0659" style="stroke:#181818;stroke-width:1.0;"/><line style="stroke:#181818;stroke-width:1.0;" x1="341" x2="341" y1="2662.0898" y2="2682.0898"/><polygon fill="#181818" points="337,2672.0898,341,2682.0898,345,2672.0898,341,2676.0898" style="stroke:#181818;stroke-width:1.0;"/><line style="stroke:#181818;stroke-width:1.0;" x1="341" x2="341" y1="3617.0659" y2="3637.0659"/><polygon fill="#181818" points="337,3627.0659,341,3637.0659,345,3627.0659,341,3631.0659" style="stroke:#181818;stroke-width:1.0;"/><!--MD5=[1a154cd76eadd04e94c0305015aad756]
@startuml
!pragma layout smetana
start
note right
void begin_component()
end note
:ENTERING("7ggrwt0f912kp1marrxdjq155","begin_component");;
switch (try/catch block)
case (try)
:GD_nlist(Z.z().G_decomp,null );;
:Z.z().Last_node_decomp=null ;;
endswitch
end
start
note right
void add_to_component(ST_Agnode_s n)
end note
:ENTERING("7icc6b2pvnj6te1yndbel47gg","add_to_component");;
switch (try/catch block)
case (try)
:GD_n_nodes(Z.z().G_decomp,GD_n_nodes(Z.z()
.G_decomp)+1);;
:ND_mark(n,Z.z().Cmark);;
if (Z.z().Last_node_decomp!=null ) then (yes) 
:ND_prev(n,Z.z().Last_node_decomp);;
:ND_next(Z.z().Last_node_decomp,n);;
else (no)
:ND_prev(n,null );;
:GD_nlist(Z.z().G_decomp,n);;
endif 
:Z.z().Last_node_decomp=n;;
:ND_next(n,null );;
endswitch
end
start
note right
void end_component()
end note
:ENTERING("5o8hxpr6ppi15pinuy79m7u04","end_component");;
switch (try/catch block)
case (try)
:int i;;
:i=GD_comp(Z.z().G_decomp).size++;;
:GD_comp(Z.z().G_decomp).list=CArrayOfStar.<ST_Agnode_s >REALLOC(GD_comp(Z.z().G_decomp).size,
GD_comp(Z.z().G_decomp).list,ST_Agnode_s.class );;
:GD_comp(Z.z().G_decomp).list.set_(i,GD_nlist(Z.z()
.G_decomp));;
endswitch
end
start
note right
void search_component(ST_Agraph_s g,ST_Agnode_s n)
end note
:ENTERING("c5u5lnfbu0pmlk6vsvyrdj8ep","search_component");;
switch (try/catch block)
case (try)
:int c,i;;
:final ST_elist vec[]=new ST_elist[]{new ST_elist(),
new ST_elist(),new ST_elist(),new ST_elist()};;
:ST_Agnode_s other;;
:ST_Agedge_s e;;
:add_to_component(n);;
:vec[0].___(ND_out(n));;
:vec[1].___(ND_in(n));;
:vec[2].___(ND_flat_out(n));;
:vec[3].___(ND_flat_in(n));;
if (vec[c].list!=null ) then (yes) 
if (EQ(other=aghead(e),n)) then (yes) 
:other=agtail(e);;
endif 
if ((ND_mark(other)!=Z.z().Cmark)&&(EQ(other,UF_find(other)))) then (yes) 
:search_component(g,other);;
endif 
endif 
endswitch
end
start
note right
void decompose(ST_Agraph_s g,int pass)
end note
:ENTERING("2t7r964kqtl5qrl7i57i22tqy","decompose");;
switch (try/catch block)
case (try)
:ST_Agraph_s subg;;
:ST_Agnode_s n,v;;
:Z.z().G_decomp=g;;
if (++Z.z().Cmark==0) then (yes) 
:Z.z().Cmark=1;;
endif 
:GD_comp(g).size=0;;
:GD_n_nodes(g,0);;
:v=n;;
if ((pass>0)&&(subg=ND_clust(v))!=null ) then (yes) 
:v=GD_rankleader(subg).get_(ND_rank(v));;
else if (v!=UF_find(v)) then (yes) 
:continue ;;
endif 
if (ND_mark(v)!=Z.z().Cmark) then (yes) 
:begin_component();;
:search_component(g,v);;
:end_component();;
endif 
endswitch
end
@enduml

PlantUML version 1.2022.7(Mon Aug 22 17:01:30 UTC 2022)
(GPL source distribution)
Java Runtime: OpenJDK Runtime Environment
JVM: OpenJDK 64-Bit Server VM
Default Encoding: UTF-8
Language: en
Country: null
--></g></svg>