<?xml version="1.0" encoding="UTF-8" standalone="no"?><svg xmlns="http://www.w3.org/2000/svg" xmlns:xlink="http://www.w3.org/1999/xlink" contentStyleType="text/css" height="317px" preserveAspectRatio="none" style="width:399px;height:317px;background:#FFFFFF;" version="1.1" viewBox="0 0 399 317" width="399px" zoomAndPan="magnify"><defs/><g><!--MD5=[aa8f7b917213fcc1c2766e2d59b49067]
cluster java.lang--><g id="cluster_java.lang"><path d="M154.5,6 L224.5,6 A3.75,3.75 0 0 1 227,8.5 L234,28.2969 L243.5,28.2969 A2.5,2.5 0 0 1 246,30.7969 L246,86.5 A2.5,2.5 0 0 1 243.5,89 L154.5,89 A2.5,2.5 0 0 1 152,86.5 L152,8.5 A2.5,2.5 0 0 1 154.5,6 " fill="none" style="stroke:#000000;stroke-width:1.5;"/><line style="stroke:#000000;stroke-width:1.5;" x1="152" x2="234" y1="28.2969" y2="28.2969"/><text fill="#000000" font-family="sans-serif" font-size="14" font-weight="bold" lengthAdjust="spacing" textLength="69" x="156" y="20.9951">java.lang</text></g><!--MD5=[343a844b186a40f521ece1973eeebd2e]
cluster gen.lib.dotgen--><g id="cluster_gen.lib.dotgen"><path d="M8.5,97 L123.5,97 A3.75,3.75 0 0 1 126,99.5 L133,119.2969 L389.5,119.2969 A2.5,2.5 0 0 1 392,121.7969 L392,307.5 A2.5,2.5 0 0 1 389.5,310 L8.5,310 A2.5,2.5 0 0 1 6,307.5 L6,99.5 A2.5,2.5 0 0 1 8.5,97 " fill="none" style="stroke:#000000;stroke-width:1.5;"/><line style="stroke:#000000;stroke-width:1.5;" x1="6" x2="133" y1="119.2969" y2="119.2969"/><text fill="#000000" font-family="sans-serif" font-size="14" font-weight="bold" lengthAdjust="spacing" textLength="114" x="10" y="111.9951">gen.lib.dotgen</text></g><!--MD5=[274ad5661286b626a93603d287cbf95a]
class java.lang.Object--><g id="elem_java.lang.Object"><rect fill="#F1F1F1" height="48" id="java.lang.Object" rx="2.5" ry="2.5" style="stroke:#181818;stroke-width:0.5;" width="77" x="160.5" y="33"/><ellipse cx="175.5" cy="49" fill="#ADD1B2" rx="11" ry="11" style="stroke:#181818;stroke-width:1.0;"/><path d="M178.4688,54.6406 Q177.8906,54.9375 177.25,55.0781 Q176.6094,55.2344 175.9063,55.2344 Q173.4063,55.2344 172.0781,53.5938 Q170.7656,51.9375 170.7656,48.8125 Q170.7656,45.6875 172.0781,44.0313 Q173.4063,42.375 175.9063,42.375 Q176.6094,42.375 177.25,42.5313 Q177.9063,42.6875 178.4688,42.9844 L178.4688,45.7031 Q177.8438,45.125 177.25,44.8594 Q176.6563,44.5781 176.0313,44.5781 Q174.6875,44.5781 174,45.6563 Q173.3125,46.7188 173.3125,48.8125 Q173.3125,50.9063 174,51.9844 Q174.6875,53.0469 176.0313,53.0469 Q176.6563,53.0469 177.25,52.7813 Q177.8438,52.5 178.4688,51.9219 L178.4688,54.6406 Z " fill="#000000"/><text fill="#000000" font-family="sans-serif" font-size="14" lengthAdjust="spacing" textLength="45" x="189.5" y="53.8467">Object</text><line style="stroke:#181818;stroke-width:0.5;" x1="161.5" x2="236.5" y1="65" y2="65"/><line style="stroke:#181818;stroke-width:0.5;" x1="161.5" x2="236.5" y1="73" y2="73"/></g><!--MD5=[ebd57321658f2db2bb6c489b4ef1ec34]
class gen.lib.dotgen.flat__c--><g id="elem_gen.lib.dotgen.flat__c"><rect codeLine="3" fill="#F1F1F1" height="178.375" id="gen.lib.dotgen.flat__c" rx="2.5" ry="2.5" style="stroke:#181818;stroke-width:0.5;" width="369" x="14.5" y="124"/><ellipse cx="173.75" cy="140" fill="#ADD1B2" rx="11" ry="11" style="stroke:#181818;stroke-width:1.0;"/><path d="M176.7188,145.6406 Q176.1406,145.9375 175.5,146.0781 Q174.8594,146.2344 174.1563,146.2344 Q171.6563,146.2344 170.3281,144.5938 Q169.0156,142.9375 169.0156,139.8125 Q169.0156,136.6875 170.3281,135.0313 Q171.6563,133.375 174.1563,133.375 Q174.8594,133.375 175.5,133.5313 Q176.1563,133.6875 176.7188,133.9844 L176.7188,136.7031 Q176.0938,136.125 175.5,135.8594 Q174.9063,135.5781 174.2813,135.5781 Q172.9375,135.5781 172.25,136.6563 Q171.5625,137.7188 171.5625,139.8125 Q171.5625,141.9063 172.25,142.9844 Q172.9375,144.0469 174.2813,144.0469 Q174.9063,144.0469 175.5,143.7813 Q176.0938,143.5 176.7188,142.9219 L176.7188,145.6406 Z " fill="#000000"/><text fill="#000000" font-family="sans-serif" font-size="14" lengthAdjust="spacing" textLength="42" x="194.25" y="144.8467">flat__c</text><line style="stroke:#181818;stroke-width:0.5;" x1="15.5" x2="382.5" y1="156" y2="156"/><line style="stroke:#181818;stroke-width:0.5;" x1="15.5" x2="382.5" y1="164" y2="164"/><a href="./../../../../.././qc/src/gen/lib/dotgen/flat__c.java.html#118" target="_top" title="./../../../../.././qc/src/gen/lib/dotgen/flat__c.java.html#118" xlink:actuate="onRequest" xlink:href="./../../../../.././qc/src/gen/lib/dotgen/flat__c.java.html#118" xlink:show="new" xlink:title="./../../../../.././qc/src/gen/lib/dotgen/flat__c.java.html#118" xlink:type="simple"><rect fill="#F1F1F1" height="10" style="stroke:none;stroke-width:1.0;" width="20" x="20.5" y="172.6484"/><ellipse cx="25.5" cy="177.6484" fill="#84BE84" rx="3" ry="3" style="stroke:#038048;stroke-width:1.0;"/></a><a href="./../../../../.././qc/src/gen/lib/dotgen/flat__c.java.html#118" target="_top" title="./../../../../.././qc/src/gen/lib/dotgen/flat__c.java.html#118" xlink:actuate="onRequest" xlink:href="./../../../../.././qc/src/gen/lib/dotgen/flat__c.java.html#118" xlink:show="new" xlink:title="./../../../../.././qc/src/gen/lib/dotgen/flat__c.java.html#118" xlink:type="simple"><text fill="#000000" font-family="sans-serif" font-size="14" lengthAdjust="spacing" textLength="343" x="34.5" y="180.9951">make_vn_slot(ST_Agraph_s;int;int) : ST_Agnode_s</text></a><a href="./../../../../.././qc/src/gen/lib/dotgen/flat__c.java.html#149" target="_top" title="./../../../../.././qc/src/gen/lib/dotgen/flat__c.java.html#149" xlink:actuate="onRequest" xlink:href="./../../../../.././qc/src/gen/lib/dotgen/flat__c.java.html#149" xlink:show="new" xlink:title="./../../../../.././qc/src/gen/lib/dotgen/flat__c.java.html#149" xlink:type="simple"><rect fill="#F1F1F1" height="10" style="stroke:none;stroke-width:1.0;" width="20" x="20.5" y="188.9453"/><ellipse cx="25.5" cy="193.9453" fill="#84BE84" rx="3" ry="3" style="stroke:#038048;stroke-width:1.0;"/></a><a href="./../../../../.././qc/src/gen/lib/dotgen/flat__c.java.html#149" target="_top" title="./../../../../.././qc/src/gen/lib/dotgen/flat__c.java.html#149" xlink:actuate="onRequest" xlink:href="./../../../../.././qc/src/gen/lib/dotgen/flat__c.java.html#149" xlink:show="new" xlink:title="./../../../../.././qc/src/gen/lib/dotgen/flat__c.java.html#149" xlink:type="simple"><text fill="#000000" font-family="sans-serif" font-size="14" lengthAdjust="spacing" textLength="341" x="34.5" y="197.292">findlr(ST_Agnode_s;ST_Agnode_s;int[];int[]) : void</text></a><a href="./../../../../.././qc/src/gen/lib/dotgen/flat__c.java.html#174" target="_top" title="./../../../../.././qc/src/gen/lib/dotgen/flat__c.java.html#174" xlink:actuate="onRequest" xlink:href="./../../../../.././qc/src/gen/lib/dotgen/flat__c.java.html#174" xlink:show="new" xlink:title="./../../../../.././qc/src/gen/lib/dotgen/flat__c.java.html#174" xlink:type="simple"><rect fill="#F1F1F1" height="10" style="stroke:none;stroke-width:1.0;" width="20" x="20.5" y="205.2422"/><ellipse cx="25.5" cy="210.2422" fill="#84BE84" rx="3" ry="3" style="stroke:#038048;stroke-width:1.0;"/></a><a href="./../../../../.././qc/src/gen/lib/dotgen/flat__c.java.html#174" target="_top" title="./../../../../.././qc/src/gen/lib/dotgen/flat__c.java.html#174" xlink:actuate="onRequest" xlink:href="./../../../../.././qc/src/gen/lib/dotgen/flat__c.java.html#174" xlink:show="new" xlink:title="./../../../../.././qc/src/gen/lib/dotgen/flat__c.java.html#174" xlink:type="simple"><text fill="#000000" font-family="sans-serif" font-size="14" lengthAdjust="spacing" textLength="316" x="34.5" y="213.5889">setbounds(ST_Agnode_s;int[];int[];int[]) : void</text></a><a href="./../../../../.././qc/src/gen/lib/dotgen/flat__c.java.html#233" target="_top" title="./../../../../.././qc/src/gen/lib/dotgen/flat__c.java.html#233" xlink:actuate="onRequest" xlink:href="./../../../../.././qc/src/gen/lib/dotgen/flat__c.java.html#233" xlink:show="new" xlink:title="./../../../../.././qc/src/gen/lib/dotgen/flat__c.java.html#233" xlink:type="simple"><rect fill="#F1F1F1" height="10" style="stroke:none;stroke-width:1.0;" width="20" x="20.5" y="221.5391"/><ellipse cx="25.5" cy="226.5391" fill="#84BE84" rx="3" ry="3" style="stroke:#038048;stroke-width:1.0;"/></a><a href="./../../../../.././qc/src/gen/lib/dotgen/flat__c.java.html#233" target="_top" title="./../../../../.././qc/src/gen/lib/dotgen/flat__c.java.html#233" xlink:actuate="onRequest" xlink:href="./../../../../.././qc/src/gen/lib/dotgen/flat__c.java.html#233" xlink:show="new" xlink:title="./../../../../.././qc/src/gen/lib/dotgen/flat__c.java.html#233" xlink:type="simple"><text fill="#000000" font-family="sans-serif" font-size="14" lengthAdjust="spacing" textLength="290" x="34.5" y="229.8857">flat_limits(ST_Agraph_s;ST_Agedge_s) : int</text></a><a href="./../../../../.././qc/src/gen/lib/dotgen/flat__c.java.html#282" target="_top" title="./../../../../.././qc/src/gen/lib/dotgen/flat__c.java.html#282" xlink:actuate="onRequest" xlink:href="./../../../../.././qc/src/gen/lib/dotgen/flat__c.java.html#282" xlink:show="new" xlink:title="./../../../../.././qc/src/gen/lib/dotgen/flat__c.java.html#282" xlink:type="simple"><rect fill="#F1F1F1" height="10" style="stroke:none;stroke-width:1.0;" width="20" x="20.5" y="237.8359"/><ellipse cx="25.5" cy="242.8359" fill="#84BE84" rx="3" ry="3" style="stroke:#038048;stroke-width:1.0;"/></a><a href="./../../../../.././qc/src/gen/lib/dotgen/flat__c.java.html#282" target="_top" title="./../../../../.././qc/src/gen/lib/dotgen/flat__c.java.html#282" xlink:actuate="onRequest" xlink:href="./../../../../.././qc/src/gen/lib/dotgen/flat__c.java.html#282" xlink:show="new" xlink:title="./../../../../.././qc/src/gen/lib/dotgen/flat__c.java.html#282" xlink:type="simple"><text fill="#000000" font-family="sans-serif" font-size="14" lengthAdjust="spacing" textLength="208" x="34.5" y="246.1826">flat_node(ST_Agedge_s) : void</text></a><a href="./../../../../.././qc/src/gen/lib/dotgen/flat__c.java.html#344" target="_top" title="./../../../../.././qc/src/gen/lib/dotgen/flat__c.java.html#344" xlink:actuate="onRequest" xlink:href="./../../../../.././qc/src/gen/lib/dotgen/flat__c.java.html#344" xlink:show="new" xlink:title="./../../../../.././qc/src/gen/lib/dotgen/flat__c.java.html#344" xlink:type="simple"><rect fill="#F1F1F1" height="10" style="stroke:none;stroke-width:1.0;" width="20" x="20.5" y="254.1328"/><ellipse cx="25.5" cy="259.1328" fill="#84BE84" rx="3" ry="3" style="stroke:#038048;stroke-width:1.0;"/></a><a href="./../../../../.././qc/src/gen/lib/dotgen/flat__c.java.html#344" target="_top" title="./../../../../.././qc/src/gen/lib/dotgen/flat__c.java.html#344" xlink:actuate="onRequest" xlink:href="./../../../../.././qc/src/gen/lib/dotgen/flat__c.java.html#344" xlink:show="new" xlink:title="./../../../../.././qc/src/gen/lib/dotgen/flat__c.java.html#344" xlink:type="simple"><text fill="#000000" font-family="sans-serif" font-size="14" lengthAdjust="spacing" textLength="225" x="34.5" y="262.4795">abomination(ST_Agraph_s) : void</text></a><a href="./../../../../.././qc/src/gen/lib/dotgen/flat__c.java.html#384" target="_top" title="./../../../../.././qc/src/gen/lib/dotgen/flat__c.java.html#384" xlink:actuate="onRequest" xlink:href="./../../../../.././qc/src/gen/lib/dotgen/flat__c.java.html#384" xlink:show="new" xlink:title="./../../../../.././qc/src/gen/lib/dotgen/flat__c.java.html#384" xlink:type="simple"><rect fill="#F1F1F1" height="10" style="stroke:none;stroke-width:1.0;" width="20" x="20.5" y="270.4297"/><ellipse cx="25.5" cy="275.4297" fill="#84BE84" rx="3" ry="3" style="stroke:#038048;stroke-width:1.0;"/></a><a href="./../../../../.././qc/src/gen/lib/dotgen/flat__c.java.html#384" target="_top" title="./../../../../.././qc/src/gen/lib/dotgen/flat__c.java.html#384" xlink:actuate="onRequest" xlink:href="./../../../../.././qc/src/gen/lib/dotgen/flat__c.java.html#384" xlink:show="new" xlink:title="./../../../../.././qc/src/gen/lib/dotgen/flat__c.java.html#384" xlink:type="simple"><text fill="#000000" font-family="sans-serif" font-size="14" lengthAdjust="spacing" textLength="271" x="34.5" y="278.7764">checkFlatAdjacent(ST_Agedge_s) : void</text></a><a href="./../../../../.././qc/src/gen/lib/dotgen/flat__c.java.html#442" target="_top" title="./../../../../.././qc/src/gen/lib/dotgen/flat__c.java.html#442" xlink:actuate="onRequest" xlink:href="./../../../../.././qc/src/gen/lib/dotgen/flat__c.java.html#442" xlink:show="new" xlink:title="./../../../../.././qc/src/gen/lib/dotgen/flat__c.java.html#442" xlink:type="simple"><rect fill="#F1F1F1" height="10" style="stroke:none;stroke-width:1.0;" width="20" x="20.5" y="286.7266"/><ellipse cx="25.5" cy="291.7266" fill="#84BE84" rx="3" ry="3" style="stroke:#038048;stroke-width:1.0;"/></a><a href="./../../../../.././qc/src/gen/lib/dotgen/flat__c.java.html#442" target="_top" title="./../../../../.././qc/src/gen/lib/dotgen/flat__c.java.html#442" xlink:actuate="onRequest" xlink:href="./../../../../.././qc/src/gen/lib/dotgen/flat__c.java.html#442" xlink:show="new" xlink:title="./../../../../.././qc/src/gen/lib/dotgen/flat__c.java.html#442" xlink:type="simple"><text fill="#000000" font-family="sans-serif" font-size="14" lengthAdjust="spacing" textLength="239" x="34.5" y="295.0732">flat_edges(ST_Agraph_s) : boolean</text></a></g><path d="M199,81.0554 C199,92.8025 199,107.9158 199,123.6763 " fill="none" style="stroke:#181818;stroke-width:1.0;"/><polygon fill="#FFFFFF" points="199,81.0554,193,97.0554,205,97.0554,199,81.0554" style="stroke:#181818;stroke-width:1.0;"/><!--MD5=[7472a99eb0bfebc78099cd025434c317]
@startuml
!pragma layout smetana
"java.lang.Object" <|- - "gen.lib.dotgen.flat__c"
class gen.lib.dotgen.flat__c {
+make_vn_slot(ST_Agraph_s;int;int) : ST_Agnode_s [[[./../../../../.././qc/src/gen/lib/dotgen/flat__c.java.html#118]]]
+findlr(ST_Agnode_s;ST_Agnode_s;int[];int[]) : void [[[./../../../../.././qc/src/gen/lib/dotgen/flat__c.java.html#149]]]
+setbounds(ST_Agnode_s;int[];int[];int[]) : void [[[./../../../../.././qc/src/gen/lib/dotgen/flat__c.java.html#174]]]
+flat_limits(ST_Agraph_s;ST_Agedge_s) : int [[[./../../../../.././qc/src/gen/lib/dotgen/flat__c.java.html#233]]]
+flat_node(ST_Agedge_s) : void [[[./../../../../.././qc/src/gen/lib/dotgen/flat__c.java.html#282]]]
+abomination(ST_Agraph_s) : void [[[./../../../../.././qc/src/gen/lib/dotgen/flat__c.java.html#344]]]
+checkFlatAdjacent(ST_Agedge_s) : void [[[./../../../../.././qc/src/gen/lib/dotgen/flat__c.java.html#384]]]
+flat_edges(ST_Agraph_s) : boolean [[[./../../../../.././qc/src/gen/lib/dotgen/flat__c.java.html#442]]]
} 
@enduml

PlantUML version 1.2022.7(Mon Aug 22 17:01:30 UTC 2022)
(GPL source distribution)
Java Runtime: OpenJDK Runtime Environment
JVM: OpenJDK 64-Bit Server VM
Default Encoding: UTF-8
Language: en
Country: null
--></g></svg>