<?xml version="1.0" encoding="UTF-8" standalone="no"?><svg xmlns="http://www.w3.org/2000/svg" xmlns:xlink="http://www.w3.org/1999/xlink" contentStyleType="text/css" height="203px" preserveAspectRatio="none" style="width:299px;height:203px;background:#FFFFFF;" version="1.1" viewBox="0 0 299 203" width="299px" zoomAndPan="magnify"><defs/><g><!--MD5=[aa8f7b917213fcc1c2766e2d59b49067]
cluster java.lang--><g id="cluster_java.lang"><path d="M104.5,6 L174.5,6 A3.75,3.75 0 0 1 177,8.5 L184,28.2969 L193.5,28.2969 A2.5,2.5 0 0 1 196,30.7969 L196,86.5 A2.5,2.5 0 0 1 193.5,89 L104.5,89 A2.5,2.5 0 0 1 102,86.5 L102,8.5 A2.5,2.5 0 0 1 104.5,6 " fill="none" style="stroke:#000000;stroke-width:1.5;"/><line style="stroke:#000000;stroke-width:1.5;" x1="102" x2="184" y1="28.2969" y2="28.2969"/><text fill="#000000" font-family="sans-serif" font-size="14" font-weight="bold" lengthAdjust="spacing" textLength="69" x="106" y="20.9951">java.lang</text></g><!--MD5=[343a844b186a40f521ece1973eeebd2e]
cluster gen.lib.dotgen--><g id="cluster_gen.lib.dotgen"><path d="M8.5,97 L123.5,97 A3.75,3.75 0 0 1 126,99.5 L133,119.2969 L289.5,119.2969 A2.5,2.5 0 0 1 292,121.7969 L292,193.5 A2.5,2.5 0 0 1 289.5,196 L8.5,196 A2.5,2.5 0 0 1 6,193.5 L6,99.5 A2.5,2.5 0 0 1 8.5,97 " fill="none" style="stroke:#000000;stroke-width:1.5;"/><line style="stroke:#000000;stroke-width:1.5;" x1="6" x2="133" y1="119.2969" y2="119.2969"/><text fill="#000000" font-family="sans-serif" font-size="14" font-weight="bold" lengthAdjust="spacing" textLength="114" x="10" y="111.9951">gen.lib.dotgen</text></g><!--MD5=[274ad5661286b626a93603d287cbf95a]
class java.lang.Object--><g id="elem_java.lang.Object"><rect fill="#F1F1F1" height="48" id="java.lang.Object" rx="2.5" ry="2.5" style="stroke:#181818;stroke-width:0.5;" width="77" x="110.5" y="33"/><ellipse cx="125.5" cy="49" fill="#ADD1B2" rx="11" ry="11" style="stroke:#181818;stroke-width:1.0;"/><path d="M128.4688,54.6406 Q127.8906,54.9375 127.25,55.0781 Q126.6094,55.2344 125.9063,55.2344 Q123.4063,55.2344 122.0781,53.5938 Q120.7656,51.9375 120.7656,48.8125 Q120.7656,45.6875 122.0781,44.0313 Q123.4063,42.375 125.9063,42.375 Q126.6094,42.375 127.25,42.5313 Q127.9063,42.6875 128.4688,42.9844 L128.4688,45.7031 Q127.8438,45.125 127.25,44.8594 Q126.6563,44.5781 126.0313,44.5781 Q124.6875,44.5781 124,45.6563 Q123.3125,46.7188 123.3125,48.8125 Q123.3125,50.9063 124,51.9844 Q124.6875,53.0469 126.0313,53.0469 Q126.6563,53.0469 127.25,52.7813 Q127.8438,52.5 128.4688,51.9219 L128.4688,54.6406 Z " fill="#000000"/><text fill="#000000" font-family="sans-serif" font-size="14" lengthAdjust="spacing" textLength="45" x="139.5" y="53.8467">Object</text><line style="stroke:#181818;stroke-width:0.5;" x1="111.5" x2="186.5" y1="65" y2="65"/><line style="stroke:#181818;stroke-width:0.5;" x1="111.5" x2="186.5" y1="73" y2="73"/></g><!--MD5=[a5d7b2f575c2c69b6ab22085005ad1ae]
class gen.lib.dotgen.sameport__c--><g id="elem_gen.lib.dotgen.sameport__c"><rect codeLine="3" fill="#F1F1F1" height="64.2969" id="gen.lib.dotgen.sameport__c" rx="2.5" ry="2.5" style="stroke:#181818;stroke-width:0.5;" width="270" x="14" y="124"/><ellipse cx="100.75" cy="140" fill="#ADD1B2" rx="11" ry="11" style="stroke:#181818;stroke-width:1.0;"/><path d="M103.7188,145.6406 Q103.1406,145.9375 102.5,146.0781 Q101.8594,146.2344 101.1563,146.2344 Q98.6563,146.2344 97.3281,144.5938 Q96.0156,142.9375 96.0156,139.8125 Q96.0156,136.6875 97.3281,135.0313 Q98.6563,133.375 101.1563,133.375 Q101.8594,133.375 102.5,133.5313 Q103.1563,133.6875 103.7188,133.9844 L103.7188,136.7031 Q103.0938,136.125 102.5,135.8594 Q101.9063,135.5781 101.2813,135.5781 Q99.9375,135.5781 99.25,136.6563 Q98.5625,137.7188 98.5625,139.8125 Q98.5625,141.9063 99.25,142.9844 Q99.9375,144.0469 101.2813,144.0469 Q101.9063,144.0469 102.5,143.7813 Q103.0938,143.5 103.7188,142.9219 L103.7188,145.6406 Z " fill="#000000"/><text fill="#000000" font-family="sans-serif" font-size="14" lengthAdjust="spacing" textLength="88" x="121.25" y="144.8467">sameport__c</text><line style="stroke:#181818;stroke-width:0.5;" x1="15" x2="283" y1="156" y2="156"/><line style="stroke:#181818;stroke-width:0.5;" x1="15" x2="283" y1="164" y2="164"/><a href="./../../../../.././qc/src/gen/lib/dotgen/sameport__c.java.html#71" target="_top" title="./../../../../.././qc/src/gen/lib/dotgen/sameport__c.java.html#71" xlink:actuate="onRequest" xlink:href="./../../../../.././qc/src/gen/lib/dotgen/sameport__c.java.html#71" xlink:show="new" xlink:title="./../../../../.././qc/src/gen/lib/dotgen/sameport__c.java.html#71" xlink:type="simple"><rect fill="#F1F1F1" height="10" style="stroke:none;stroke-width:1.0;" width="20" x="20" y="172.6484"/><ellipse cx="25" cy="177.6484" fill="#84BE84" rx="3" ry="3" style="stroke:#038048;stroke-width:1.0;"/></a><a href="./../../../../.././qc/src/gen/lib/dotgen/sameport__c.java.html#71" target="_top" title="./../../../../.././qc/src/gen/lib/dotgen/sameport__c.java.html#71" xlink:actuate="onRequest" xlink:href="./../../../../.././qc/src/gen/lib/dotgen/sameport__c.java.html#71" xlink:show="new" xlink:title="./../../../../.././qc/src/gen/lib/dotgen/sameport__c.java.html#71" xlink:type="simple"><text fill="#000000" font-family="sans-serif" font-size="14" lengthAdjust="spacing" textLength="244" x="34" y="180.9951">dot_sameports(ST_Agraph_s) : void</text></a></g><path d="M149,81.481 C149,94.1526 149,109.962 149,123.6701 " fill="none" style="stroke:#181818;stroke-width:1.0;"/><polygon fill="#FFFFFF" points="149,81.481,143,97.481,155,97.481,149,81.481" style="stroke:#181818;stroke-width:1.0;"/><!--MD5=[1c7474c0b2b2868dd018bcb7a01c95bc]
@startuml
!pragma layout smetana
"java.lang.Object" <|- - "gen.lib.dotgen.sameport__c"
class gen.lib.dotgen.sameport__c {
+dot_sameports(ST_Agraph_s) : void [[[./../../../../.././qc/src/gen/lib/dotgen/sameport__c.java.html#71]]]
} 
@enduml

PlantUML version 1.2022.7(Mon Aug 22 17:01:30 UTC 2022)
(GPL source distribution)
Java Runtime: OpenJDK Runtime Environment
JVM: OpenJDK 64-Bit Server VM
Default Encoding: UTF-8
Language: en
Country: null
--></g></svg>