<?xml version="1.0" encoding="UTF-8" standalone="no"?><svg xmlns="http://www.w3.org/2000/svg" xmlns:xlink="http://www.w3.org/1999/xlink" contentStyleType="text/css" height="301px" preserveAspectRatio="none" style="width:317px;height:301px;background:#FFFFFF;" version="1.1" viewBox="0 0 317 301" width="317px" zoomAndPan="magnify"><defs/><g><!--MD5=[aa8f7b917213fcc1c2766e2d59b49067]
cluster java.lang--><g id="cluster_java.lang"><path d="M113.5,6 L183.5,6 A3.75,3.75 0 0 1 186,8.5 L193,28.2969 L202.5,28.2969 A2.5,2.5 0 0 1 205,30.7969 L205,86.5 A2.5,2.5 0 0 1 202.5,89 L113.5,89 A2.5,2.5 0 0 1 111,86.5 L111,8.5 A2.5,2.5 0 0 1 113.5,6 " fill="none" style="stroke:#000000;stroke-width:1.5;"/><line style="stroke:#000000;stroke-width:1.5;" x1="111" x2="193" y1="28.2969" y2="28.2969"/><text fill="#000000" font-family="sans-serif" font-size="14" font-weight="bold" lengthAdjust="spacing" textLength="69" x="115" y="20.9951">java.lang</text></g><!--MD5=[27d26bb92a775543bce3d1e4e22f0b5a]
cluster net.sourceforge.plantuml.emoji--><g id="cluster_net.sourceforge.plantuml.emoji"><path d="M8.5,97 L257.5,97 A3.75,3.75 0 0 1 260,99.5 L267,119.2969 L307.5,119.2969 A2.5,2.5 0 0 1 310,121.7969 L310,291.5 A2.5,2.5 0 0 1 307.5,294 L8.5,294 A2.5,2.5 0 0 1 6,291.5 L6,99.5 A2.5,2.5 0 0 1 8.5,97 " fill="none" style="stroke:#000000;stroke-width:1.5;"/><line style="stroke:#000000;stroke-width:1.5;" x1="6" x2="267" y1="119.2969" y2="119.2969"/><text fill="#000000" font-family="sans-serif" font-size="14" font-weight="bold" lengthAdjust="spacing" textLength="248" x="10" y="111.9951">net.sourceforge.plantuml.emoji</text></g><!--MD5=[274ad5661286b626a93603d287cbf95a]
class java.lang.Object--><g id="elem_java.lang.Object"><rect fill="#F1F1F1" height="48" id="java.lang.Object" rx="2.5" ry="2.5" style="stroke:#181818;stroke-width:0.5;" width="77" x="119.5" y="33"/><ellipse cx="134.5" cy="49" fill="#ADD1B2" rx="11" ry="11" style="stroke:#181818;stroke-width:1.0;"/><path d="M137.4688,54.6406 Q136.8906,54.9375 136.25,55.0781 Q135.6094,55.2344 134.9063,55.2344 Q132.4063,55.2344 131.0781,53.5938 Q129.7656,51.9375 129.7656,48.8125 Q129.7656,45.6875 131.0781,44.0313 Q132.4063,42.375 134.9063,42.375 Q135.6094,42.375 136.25,42.5313 Q136.9063,42.6875 137.4688,42.9844 L137.4688,45.7031 Q136.8438,45.125 136.25,44.8594 Q135.6563,44.5781 135.0313,44.5781 Q133.6875,44.5781 133,45.6563 Q132.3125,46.7188 132.3125,48.8125 Q132.3125,50.9063 133,51.9844 Q133.6875,53.0469 135.0313,53.0469 Q135.6563,53.0469 136.25,52.7813 Q136.8438,52.5 137.4688,51.9219 L137.4688,54.6406 Z " fill="#000000"/><text fill="#000000" font-family="sans-serif" font-size="14" lengthAdjust="spacing" textLength="45" x="148.5" y="53.8467">Object</text><line style="stroke:#181818;stroke-width:0.5;" x1="120.5" x2="195.5" y1="65" y2="65"/><line style="stroke:#181818;stroke-width:0.5;" x1="120.5" x2="195.5" y1="73" y2="73"/></g><!--MD5=[52c33357ecee39aea695f8d81bb68fc0]
class net.sourceforge.plantuml.emoji.Emoji--><g id="elem_net.sourceforge.plantuml.emoji.Emoji"><rect codeLine="3" fill="#F1F1F1" height="162.0781" id="net.sourceforge.plantuml.emoji.Emoji" rx="2.5" ry="2.5" style="stroke:#181818;stroke-width:0.5;" width="287" x="14.5" y="124"/><ellipse cx="135.25" cy="140" fill="#ADD1B2" rx="11" ry="11" style="stroke:#181818;stroke-width:1.0;"/><path d="M138.2188,145.6406 Q137.6406,145.9375 137,146.0781 Q136.3594,146.2344 135.6563,146.2344 Q133.1563,146.2344 131.8281,144.5938 Q130.5156,142.9375 130.5156,139.8125 Q130.5156,136.6875 131.8281,135.0313 Q133.1563,133.375 135.6563,133.375 Q136.3594,133.375 137,133.5313 Q137.6563,133.6875 138.2188,133.9844 L138.2188,136.7031 Q137.5938,136.125 137,135.8594 Q136.4063,135.5781 135.7813,135.5781 Q134.4375,135.5781 133.75,136.6563 Q133.0625,137.7188 133.0625,139.8125 Q133.0625,141.9063 133.75,142.9844 Q134.4375,144.0469 135.7813,144.0469 Q136.4063,144.0469 137,143.7813 Q137.5938,143.5 138.2188,142.9219 L138.2188,145.6406 Z " fill="#000000"/><text fill="#000000" font-family="sans-serif" font-size="14" lengthAdjust="spacing" textLength="37" x="155.75" y="144.8467">Emoji</text><line style="stroke:#181818;stroke-width:0.5;" x1="15.5" x2="300.5" y1="156" y2="156"/><line style="stroke:#181818;stroke-width:0.5;" x1="15.5" x2="300.5" y1="164" y2="164"/><a href="./../../../../../.././qc/src/net/sourceforge/plantuml/emoji/Emoji.java.html#37" target="_top" title="./../../../../../.././qc/src/net/sourceforge/plantuml/emoji/Emoji.java.html#37" xlink:actuate="onRequest" xlink:href="./../../../../../.././qc/src/net/sourceforge/plantuml/emoji/Emoji.java.html#37" xlink:show="new" xlink:title="./../../../../../.././qc/src/net/sourceforge/plantuml/emoji/Emoji.java.html#37" xlink:type="simple"><rect fill="#F1F1F1" height="10" style="stroke:none;stroke-width:1.0;" width="20" x="20.5" y="172.6484"/><ellipse cx="25.5" cy="177.6484" fill="#84BE84" rx="3" ry="3" style="stroke:#038048;stroke-width:1.0;"/></a><a href="./../../../../../.././qc/src/net/sourceforge/plantuml/emoji/Emoji.java.html#37" target="_top" title="./../../../../../.././qc/src/net/sourceforge/plantuml/emoji/Emoji.java.html#37" xlink:actuate="onRequest" xlink:href="./../../../../../.././qc/src/net/sourceforge/plantuml/emoji/Emoji.java.html#37" xlink:show="new" xlink:title="./../../../../../.././qc/src/net/sourceforge/plantuml/emoji/Emoji.java.html#37" xlink:type="simple"><text fill="#000000" font-family="sans-serif" font-size="14" lengthAdjust="spacing" textLength="195" x="34.5" y="180.9951">getAll() : Map&lt;String,Emoji&gt;</text></a><a href="./../../../../../.././qc/src/net/sourceforge/plantuml/emoji/Emoji.java.html#46" target="_top" title="./../../../../../.././qc/src/net/sourceforge/plantuml/emoji/Emoji.java.html#46" xlink:actuate="onRequest" xlink:href="./../../../../../.././qc/src/net/sourceforge/plantuml/emoji/Emoji.java.html#46" xlink:show="new" xlink:title="./../../../../../.././qc/src/net/sourceforge/plantuml/emoji/Emoji.java.html#46" xlink:type="simple"><rect fill="#F1F1F1" height="10" style="stroke:none;stroke-width:1.0;" width="20" x="20.5" y="188.9453"/><rect fill="#F24D5C" height="6" style="stroke:#C82930;stroke-width:1.0;" width="6" x="22.5" y="190.9453"/></a><a href="./../../../../../.././qc/src/net/sourceforge/plantuml/emoji/Emoji.java.html#46" target="_top" title="./../../../../../.././qc/src/net/sourceforge/plantuml/emoji/Emoji.java.html#46" xlink:actuate="onRequest" xlink:href="./../../../../../.././qc/src/net/sourceforge/plantuml/emoji/Emoji.java.html#46" xlink:show="new" xlink:title="./../../../../../.././qc/src/net/sourceforge/plantuml/emoji/Emoji.java.html#46" xlink:type="simple"><text fill="#000000" font-family="sans-serif" font-size="14" lengthAdjust="spacing" textLength="137" x="34.5" y="197.292">Emoji(String) : Emoji</text></a><a href="./../../../../../.././qc/src/net/sourceforge/plantuml/emoji/Emoji.java.html#59" target="_top" title="./../../../../../.././qc/src/net/sourceforge/plantuml/emoji/Emoji.java.html#59" xlink:actuate="onRequest" xlink:href="./../../../../../.././qc/src/net/sourceforge/plantuml/emoji/Emoji.java.html#59" xlink:show="new" xlink:title="./../../../../../.././qc/src/net/sourceforge/plantuml/emoji/Emoji.java.html#59" xlink:type="simple"><rect fill="#F1F1F1" height="10" style="stroke:none;stroke-width:1.0;" width="20" x="20.5" y="205.2422"/><ellipse cx="25.5" cy="210.2422" fill="#84BE84" rx="3" ry="3" style="stroke:#038048;stroke-width:1.0;"/></a><a href="./../../../../../.././qc/src/net/sourceforge/plantuml/emoji/Emoji.java.html#59" target="_top" title="./../../../../../.././qc/src/net/sourceforge/plantuml/emoji/Emoji.java.html#59" xlink:actuate="onRequest" xlink:href="./../../../../../.././qc/src/net/sourceforge/plantuml/emoji/Emoji.java.html#59" xlink:show="new" xlink:title="./../../../../../.././qc/src/net/sourceforge/plantuml/emoji/Emoji.java.html#59" xlink:type="simple"><text fill="#000000" font-family="sans-serif" font-size="14" lengthAdjust="spacing" textLength="113" x="34.5" y="213.5889">pattern() : String</text></a><a href="./../../../../../.././qc/src/net/sourceforge/plantuml/emoji/Emoji.java.html#70" target="_top" title="./../../../../../.././qc/src/net/sourceforge/plantuml/emoji/Emoji.java.html#70" xlink:actuate="onRequest" xlink:href="./../../../../../.././qc/src/net/sourceforge/plantuml/emoji/Emoji.java.html#70" xlink:show="new" xlink:title="./../../../../../.././qc/src/net/sourceforge/plantuml/emoji/Emoji.java.html#70" xlink:type="simple"><rect fill="#F1F1F1" height="10" style="stroke:none;stroke-width:1.0;" width="20" x="20.5" y="221.5391"/><ellipse cx="25.5" cy="226.5391" fill="#84BE84" rx="3" ry="3" style="stroke:#038048;stroke-width:1.0;"/></a><a href="./../../../../../.././qc/src/net/sourceforge/plantuml/emoji/Emoji.java.html#70" target="_top" title="./../../../../../.././qc/src/net/sourceforge/plantuml/emoji/Emoji.java.html#70" xlink:actuate="onRequest" xlink:href="./../../../../../.././qc/src/net/sourceforge/plantuml/emoji/Emoji.java.html#70" xlink:show="new" xlink:title="./../../../../../.././qc/src/net/sourceforge/plantuml/emoji/Emoji.java.html#70" xlink:type="simple"><text fill="#000000" font-family="sans-serif" font-size="14" lengthAdjust="spacing" textLength="152" x="34.5" y="229.8857">retrieve(String) : Emoji</text></a><a href="./../../../../../.././qc/src/net/sourceforge/plantuml/emoji/Emoji.java.html#74" target="_top" title="./../../../../../.././qc/src/net/sourceforge/plantuml/emoji/Emoji.java.html#74" xlink:actuate="onRequest" xlink:href="./../../../../../.././qc/src/net/sourceforge/plantuml/emoji/Emoji.java.html#74" xlink:show="new" xlink:title="./../../../../../.././qc/src/net/sourceforge/plantuml/emoji/Emoji.java.html#74" xlink:type="simple"><rect fill="#F1F1F1" height="10" style="stroke:none;stroke-width:1.0;" width="20" x="20.5" y="237.8359"/><rect fill="#F24D5C" height="6" style="stroke:#C82930;stroke-width:1.0;" width="6" x="22.5" y="239.8359"/></a><a href="./../../../../../.././qc/src/net/sourceforge/plantuml/emoji/Emoji.java.html#74" target="_top" title="./../../../../../.././qc/src/net/sourceforge/plantuml/emoji/Emoji.java.html#74" xlink:actuate="onRequest" xlink:href="./../../../../../.././qc/src/net/sourceforge/plantuml/emoji/Emoji.java.html#74" xlink:show="new" xlink:title="./../../../../../.././qc/src/net/sourceforge/plantuml/emoji/Emoji.java.html#74" xlink:type="simple"><text fill="#000000" font-family="sans-serif" font-size="14" lengthAdjust="spacing" textLength="124" x="34.5" y="246.1826">loadIfNeed() : void</text></a><a href="./../../../../../.././qc/src/net/sourceforge/plantuml/emoji/Emoji.java.html#87" target="_top" title="./../../../../../.././qc/src/net/sourceforge/plantuml/emoji/Emoji.java.html#87" xlink:actuate="onRequest" xlink:href="./../../../../../.././qc/src/net/sourceforge/plantuml/emoji/Emoji.java.html#87" xlink:show="new" xlink:title="./../../../../../.././qc/src/net/sourceforge/plantuml/emoji/Emoji.java.html#87" xlink:type="simple"><rect fill="#F1F1F1" height="10" style="stroke:none;stroke-width:1.0;" width="20" x="20.5" y="254.1328"/><ellipse cx="25.5" cy="259.1328" fill="#84BE84" rx="3" ry="3" style="stroke:#038048;stroke-width:1.0;"/></a><a href="./../../../../../.././qc/src/net/sourceforge/plantuml/emoji/Emoji.java.html#87" target="_top" title="./../../../../../.././qc/src/net/sourceforge/plantuml/emoji/Emoji.java.html#87" xlink:actuate="onRequest" xlink:href="./../../../../../.././qc/src/net/sourceforge/plantuml/emoji/Emoji.java.html#87" xlink:show="new" xlink:title="./../../../../../.././qc/src/net/sourceforge/plantuml/emoji/Emoji.java.html#87" xlink:type="simple"><text fill="#000000" font-family="sans-serif" font-size="14" lengthAdjust="spacing" textLength="261" x="34.5" y="262.4795">drawU(UGraphic;double;HColor) : void</text></a><a href="./../../../../../.././qc/src/net/sourceforge/plantuml/emoji/Emoji.java.html#96" target="_top" title="./../../../../../.././qc/src/net/sourceforge/plantuml/emoji/Emoji.java.html#96" xlink:actuate="onRequest" xlink:href="./../../../../../.././qc/src/net/sourceforge/plantuml/emoji/Emoji.java.html#96" xlink:show="new" xlink:title="./../../../../../.././qc/src/net/sourceforge/plantuml/emoji/Emoji.java.html#96" xlink:type="simple"><rect fill="#F1F1F1" height="10" style="stroke:none;stroke-width:1.0;" width="20" x="20.5" y="270.4297"/><ellipse cx="25.5" cy="275.4297" fill="#84BE84" rx="3" ry="3" style="stroke:#038048;stroke-width:1.0;"/></a><a href="./../../../../../.././qc/src/net/sourceforge/plantuml/emoji/Emoji.java.html#96" target="_top" title="./../../../../../.././qc/src/net/sourceforge/plantuml/emoji/Emoji.java.html#96" xlink:actuate="onRequest" xlink:href="./../../../../../.././qc/src/net/sourceforge/plantuml/emoji/Emoji.java.html#96" xlink:show="new" xlink:title="./../../../../../.././qc/src/net/sourceforge/plantuml/emoji/Emoji.java.html#96" xlink:type="simple"><text fill="#000000" font-family="sans-serif" font-size="14" lengthAdjust="spacing" textLength="145" x="34.5" y="278.7764">getShortcut() : String</text></a></g><path d="M158,81.1341 C158,92.9539 158,108.1145 158,123.7234 " fill="none" style="stroke:#181818;stroke-width:1.0;"/><polygon fill="#FFFFFF" points="158,81.1341,152,97.1341,164,97.1341,158,81.1341" style="stroke:#181818;stroke-width:1.0;"/><!--MD5=[a28fae92acd2a2d497d33b71545e05ec]
@startuml
!pragma layout smetana
"java.lang.Object" <|- - "net.sourceforge.plantuml.emoji.Emoji"
class net.sourceforge.plantuml.emoji.Emoji {
+getAll() : Map<String,Emoji> [[[./../../../../../.././qc/src/net/sourceforge/plantuml/emoji/Emoji.java.html#37]]]
-Emoji(String) : Emoji [[[./../../../../../.././qc/src/net/sourceforge/plantuml/emoji/Emoji.java.html#46]]]
+pattern() : String [[[./../../../../../.././qc/src/net/sourceforge/plantuml/emoji/Emoji.java.html#59]]]
+retrieve(String) : Emoji [[[./../../../../../.././qc/src/net/sourceforge/plantuml/emoji/Emoji.java.html#70]]]
-loadIfNeed() : void [[[./../../../../../.././qc/src/net/sourceforge/plantuml/emoji/Emoji.java.html#74]]]
+drawU(UGraphic;double;HColor) : void [[[./../../../../../.././qc/src/net/sourceforge/plantuml/emoji/Emoji.java.html#87]]]
+getShortcut() : String [[[./../../../../../.././qc/src/net/sourceforge/plantuml/emoji/Emoji.java.html#96]]]
} 
@enduml

PlantUML version 1.2022.7(Mon Aug 22 17:01:30 UTC 2022)
(GPL source distribution)
Java Runtime: OpenJDK Runtime Environment
JVM: OpenJDK 64-Bit Server VM
Default Encoding: UTF-8
Language: en
Country: null
--></g></svg>