<?xml version="1.0" encoding="UTF-8" standalone="no"?><svg xmlns="http://www.w3.org/2000/svg" xmlns:xlink="http://www.w3.org/1999/xlink" contentStyleType="text/css" height="385px" preserveAspectRatio="none" style="width:1348px;height:385px;background:#FFFFFF;" version="1.1" viewBox="0 0 1348 385" width="1348px" zoomAndPan="magnify"><defs/><g><path d="M704,10 L704,18.5664 L684,22.5664 L704,26.5664 L704,35.1328 A0,0 0 0 0 704,35.1328 L939,35.1328 A0,0 0 0 0 939,35.1328 L939,20 L929,10 L704,10 A0,0 0 0 0 704,10 " fill="#FEFFDD" style="stroke:#181818;stroke-width:0.5;"/><path d="M929,10 L929,20 L939,20 L929,10 " fill="#FEFFDD" style="stroke:#181818;stroke-width:0.5;"/><text fill="#000000" font-family="sans-serif" font-size="13" lengthAdjust="spacing" textLength="214" x="710" y="27.0669">constructor CommandLinkState()</text><ellipse cx="674" cy="22.5664" fill="#222222" rx="10" ry="10" style="stroke:#222222;stroke-width:1.0;"/><rect fill="#F1F1F1" height="33.9688" rx="12.5" ry="12.5" style="stroke:#181818;stroke-width:0.5;" width="143" x="602.5" y="55.1328"/><text fill="#000000" font-family="sans-serif" font-size="12" lengthAdjust="spacing" textLength="123" x="612.5" y="76.2715">super (getRegex());</text><ellipse cx="674" cy="119.1016" fill="none" rx="10" ry="10" style="stroke:#222222;stroke-width:1.5;"/><line style="stroke:#222222;stroke-width:2.5;" x1="667.8128" x2="680.1872" y1="112.9144" y2="125.2887"/><line style="stroke:#222222;stroke-width:2.5;" x1="680.1872" x2="667.8128" y1="112.9144" y2="125.2887"/><path d="M704,139.1016 L704,147.668 L684,151.668 L704,155.668 L704,164.2344 A0,0 0 0 0 704,164.2344 L879,164.2344 A0,0 0 0 0 879,164.2344 L879,149.1016 L869,139.1016 L704,139.1016 A0,0 0 0 0 704,139.1016 " fill="#FEFFDD" style="stroke:#181818;stroke-width:0.5;"/><path d="M869,139.1016 L869,149.1016 L879,149.1016 L869,139.1016 " fill="#FEFFDD" style="stroke:#181818;stroke-width:0.5;"/><text fill="#000000" font-family="sans-serif" font-size="13" lengthAdjust="spacing" textLength="154" x="710" y="156.1685">RegexConcatgetRegex()</text><ellipse cx="674" cy="151.668" fill="#222222" rx="10" ry="10" style="stroke:#222222;stroke-width:1.0;"/><rect fill="#F1F1F1" height="117.7813" rx="12.5" ry="12.5" style="stroke:#181818;stroke-width:0.5;" width="1326" x="11" y="184.2344"/><text fill="#000000" font-family="sans-serif" font-size="12" lengthAdjust="spacing" textLength="399" x="21" y="205.373">return RegexConcat.build(CommandLinkState.class .getName(),</text><text fill="#000000" font-family="sans-serif" font-size="12" lengthAdjust="spacing" textLength="1096" x="21" y="219.3418">RegexLeaf.start(),getStatePattern("ENT1"),RegexLeaf.spaceZeroOrMore(),new RegexConcat(new RegexLeaf("ARROW_CROSS_START","(x)?"),new RegexLeaf("ARROW_BODY1","(-+</text><text fill="#000000" font-family="sans-serif" font-size="12" lengthAdjust="spacing" textLength="278" x="21" y="233.3105">)"),new RegexLeaf("ARROW_STYLE1","(?:\\[("+</text><text fill="#000000" font-family="sans-serif" font-size="12" lengthAdjust="spacing" textLength="988" x="21" y="247.2793">CommandLinkElement.LINE_STYLE+")\\])?"),new RegexLeaf("ARROW_DIRECTION","(left|right|up|down|le?|ri?|up?|do?)?"),new RegexLeaf("ARROW_STYLE2","(?:\\[("+</text><text fill="#000000" font-family="sans-serif" font-size="12" lengthAdjust="spacing" textLength="935" x="21" y="261.248">CommandLinkElement.LINE_STYLE+")\\])?"),new RegexLeaf("ARROW_BODY2","(-*)"),new RegexLeaf("\\&gt;"),new RegexLeaf("ARROW_CIRCLE_END","(o[%s]+</text><text fill="#000000" font-family="sans-serif" font-size="12" lengthAdjust="spacing" textLength="1306" x="21" y="275.2168">)?")),RegexLeaf.spaceZeroOrMore(),getStatePattern("ENT2"),RegexLeaf.spaceZeroOrMore(),new RegexOptional(new RegexConcat(new RegexLeaf(":"),RegexLeaf.spaceZeroOrMore(),new RegexLeaf("LABEL","(.+</text><text fill="#000000" font-family="sans-serif" font-size="12" lengthAdjust="spacing" textLength="140" x="21" y="289.1855">)"))),RegexLeaf.end());</text><ellipse cx="674" cy="333.0156" fill="none" rx="11" ry="11" style="stroke:#222222;stroke-width:1.0;"/><ellipse cx="674" cy="333.0156" fill="#222222" rx="6" ry="6" style="stroke:#111111;stroke-width:1.0;"/><ellipse cx="674" cy="364.0156" fill="none" rx="10" ry="10" style="stroke:#222222;stroke-width:1.5;"/><line style="stroke:#222222;stroke-width:2.5;" x1="667.8128" x2="680.1872" y1="357.8284" y2="370.2028"/><line style="stroke:#222222;stroke-width:2.5;" x1="680.1872" x2="667.8128" y1="357.8284" y2="370.2028"/><line style="stroke:#181818;stroke-width:1.0;" x1="674" x2="674" y1="32.5664" y2="55.1328"/><polygon fill="#181818" points="670,45.1328,674,55.1328,678,45.1328,674,49.1328" style="stroke:#181818;stroke-width:1.0;"/><line style="stroke:#181818;stroke-width:1.0;" x1="674" x2="674" y1="89.1016" y2="109.1016"/><polygon fill="#181818" points="670,99.1016,674,109.1016,678,99.1016,674,103.1016" style="stroke:#181818;stroke-width:1.0;"/><line style="stroke:#181818;stroke-width:1.0;" x1="674" x2="674" y1="161.668" y2="184.2344"/><polygon fill="#181818" points="670,174.2344,674,184.2344,678,174.2344,674,178.2344" style="stroke:#181818;stroke-width:1.0;"/><line style="stroke:#181818;stroke-width:1.0;" x1="674" x2="674" y1="302.0156" y2="322.0156"/><polygon fill="#181818" points="670,312.0156,674,322.0156,678,312.0156,674,316.0156" style="stroke:#181818;stroke-width:1.0;"/><!--MD5=[52e8b98c8f303b0bdab291a7d0d623ad]
@startuml
!pragma layout smetana
start
note right
constructor CommandLinkState()
end note
:super (getRegex());;
end
start
note right
RegexConcatgetRegex()
end note
:return RegexConcat.build(CommandLinkState.class .getName(),
RegexLeaf.start(),getStatePattern("ENT1"),RegexLeaf.spaceZeroOrMore(),new RegexConcat(new RegexLeaf("ARROW_CROSS_START","(x)?"),new RegexLeaf("ARROW_BODY1","(-+
)"),new RegexLeaf("ARROW_STYLE1","(?:\\[("+
CommandLinkElement.LINE_STYLE+")\\])?"),new RegexLeaf("ARROW_DIRECTION","(left|right|up|down|le?|ri?|up?|do?)?"),new RegexLeaf("ARROW_STYLE2","(?:\\[("+
CommandLinkElement.LINE_STYLE+")\\])?"),new RegexLeaf("ARROW_BODY2","(-*)"),new RegexLeaf("\\>"),new RegexLeaf("ARROW_CIRCLE_END","(o[%s]+
)?")),RegexLeaf.spaceZeroOrMore(),getStatePattern("ENT2"),RegexLeaf.spaceZeroOrMore(),new RegexOptional(new RegexConcat(new RegexLeaf(":"),RegexLeaf.spaceZeroOrMore(),new RegexLeaf("LABEL","(.+
)"))),RegexLeaf.end());;
stop
end
@enduml

PlantUML version 1.2022.7(Mon Aug 22 17:01:30 UTC 2022)
(GPL source distribution)
Java Runtime: OpenJDK Runtime Environment
JVM: OpenJDK 64-Bit Server VM
Default Encoding: UTF-8
Language: en
Country: null
--></g></svg>