<?xml version="1.0" encoding="UTF-8" standalone="no"?><svg xmlns="http://www.w3.org/2000/svg" xmlns:xlink="http://www.w3.org/1999/xlink" contentStyleType="text/css" height="1109px" preserveAspectRatio="none" style="width:887px;height:1109px;background:#FFFFFF;" version="1.1" viewBox="0 0 887 1109" width="887px" zoomAndPan="magnify"><defs/><g><path d="M461,10 L461,18.5664 L441,22.5664 L461,26.5664 L461,35.1328 A0,0 0 0 0 461,35.1328 L690,35.1328 A0,0 0 0 0 690,35.1328 L690,20 L680,10 L461,10 A0,0 0 0 0 461,10 " fill="#FEFFDD" style="stroke:#181818;stroke-width:0.5;"/><path d="M680,10 L680,20 L690,20 L680,10 " fill="#FEFFDD" style="stroke:#181818;stroke-width:0.5;"/><text fill="#000000" font-family="sans-serif" font-size="13" lengthAdjust="spacing" textLength="208" x="467" y="27.0669">constructor CommandAddField()</text><ellipse cx="431" cy="22.5664" fill="#222222" rx="10" ry="10" style="stroke:#222222;stroke-width:1.0;"/><rect fill="#F1F1F1" height="33.9688" rx="12.5" ry="12.5" style="stroke:#181818;stroke-width:0.5;" width="187" x="337.5" y="55.1328"/><text fill="#000000" font-family="sans-serif" font-size="12" lengthAdjust="spacing" textLength="167" x="347.5" y="76.2715">super (getRegexConcat());</text><ellipse cx="431" cy="119.1016" fill="none" rx="10" ry="10" style="stroke:#222222;stroke-width:1.5;"/><line style="stroke:#222222;stroke-width:2.5;" x1="424.8128" x2="437.1872" y1="112.9144" y2="125.2887"/><line style="stroke:#222222;stroke-width:2.5;" x1="437.1872" x2="424.8128" y1="112.9144" y2="125.2887"/><path d="M461,139.1016 L461,147.668 L441,151.668 L461,155.668 L461,164.2344 A0,0 0 0 0 461,164.2344 L639,164.2344 A0,0 0 0 0 639,164.2344 L639,149.1016 L629,139.1016 L461,139.1016 A0,0 0 0 0 461,139.1016 " fill="#FEFFDD" style="stroke:#181818;stroke-width:0.5;"/><path d="M629,139.1016 L629,149.1016 L639,149.1016 L629,139.1016 " fill="#FEFFDD" style="stroke:#181818;stroke-width:0.5;"/><text fill="#000000" font-family="sans-serif" font-size="13" lengthAdjust="spacing" textLength="157" x="467" y="156.1685">IRegexgetRegexConcat()</text><ellipse cx="431" cy="151.668" fill="#222222" rx="10" ry="10" style="stroke:#222222;stroke-width:1.0;"/><rect fill="#F1F1F1" height="89.8438" rx="12.5" ry="12.5" style="stroke:#181818;stroke-width:0.5;" width="840" x="11" y="184.2344"/><text fill="#000000" font-family="sans-serif" font-size="12" lengthAdjust="spacing" textLength="820" x="21" y="205.373">return RegexConcat.build(CommandAddField.class .getName(),RegexLeaf.start(),new RegexOr(new RegexLeaf("CODE3","([%pLN_.]+</text><text fill="#000000" font-family="sans-serif" font-size="12" lengthAdjust="spacing" textLength="314" x="21" y="219.3418">)"),new RegexLeaf("CODE4","[%g]([^%g]+)[%g]")),</text><text fill="#000000" font-family="sans-serif" font-size="12" lengthAdjust="spacing" textLength="316" x="21" y="233.3105">RegexLeaf.spaceZeroOrMore(),new RegexLeaf(":"),</text><text fill="#000000" font-family="sans-serif" font-size="12" lengthAdjust="spacing" textLength="340" x="21" y="247.2793">RegexLeaf.spaceZeroOrMore(),new RegexLeaf("FIELD",</text><text fill="#000000" font-family="sans-serif" font-size="12" lengthAdjust="spacing" textLength="150" x="21" y="261.248">"(.*)"),RegexLeaf.end());</text><ellipse cx="431" cy="305.0781" fill="none" rx="11" ry="11" style="stroke:#222222;stroke-width:1.0;"/><ellipse cx="431" cy="305.0781" fill="#222222" rx="6" ry="6" style="stroke:#111111;stroke-width:1.0;"/><ellipse cx="431" cy="336.0781" fill="none" rx="10" ry="10" style="stroke:#222222;stroke-width:1.5;"/><line style="stroke:#222222;stroke-width:2.5;" x1="424.8128" x2="437.1872" y1="329.8909" y2="342.2653"/><line style="stroke:#222222;stroke-width:2.5;" x1="437.1872" x2="424.8128" y1="329.8909" y2="342.2653"/><path d="M461,356.0781 L461,372.2109 L441,376.2109 L461,380.2109 L461,396.3438 A0,0 0 0 0 461,396.3438 L875,396.3438 A0,0 0 0 0 875,396.3438 L875,366.0781 L865,356.0781 L461,356.0781 A0,0 0 0 0 461,356.0781 " fill="#FEFFDD" style="stroke:#181818;stroke-width:0.5;"/><path d="M865,356.0781 L865,366.0781 L875,366.0781 L865,356.0781 " fill="#FEFFDD" style="stroke:#181818;stroke-width:0.5;"/><text fill="#000000" font-family="sans-serif" font-size="13" lengthAdjust="spacing" textLength="393" x="467" y="373.145">CommandExecutionResultexecuteArg(StateDiagramdiagram,</text><text fill="#000000" font-family="sans-serif" font-size="13" lengthAdjust="spacing" textLength="238" x="467" y="388.2778">LineLocationlocation,RegexResultarg)</text><ellipse cx="431" cy="376.2109" fill="#222222" rx="10" ry="10" style="stroke:#222222;stroke-width:1.0;"/><rect fill="#F1F1F1" height="33.9688" rx="12.5" ry="12.5" style="stroke:#181818;stroke-width:0.5;" width="311" x="275.5" y="416.3438"/><text fill="#000000" font-family="sans-serif" font-size="12" lengthAdjust="spacing" textLength="291" x="285.5" y="437.4824">final StringcodeString=arg.getLazzy("CODE",0);</text><rect fill="#F1F1F1" height="33.9688" rx="12.5" ry="12.5" style="stroke:#181818;stroke-width:0.5;" width="238" x="312" y="470.3125"/><text fill="#000000" font-family="sans-serif" font-size="12" lengthAdjust="spacing" textLength="218" x="322" y="491.4512">final Stringfield=arg.get("FIELD",0);</text><rect fill="#F1F1F1" height="33.9688" rx="12.5" ry="12.5" style="stroke:#181818;stroke-width:0.5;" width="319" x="271.5" y="524.2813"/><text fill="#000000" font-family="sans-serif" font-size="12" lengthAdjust="spacing" textLength="299" x="281.5" y="545.4199">Identident=diagram.buildLeafIdent(codeString);</text><rect fill="#F1F1F1" height="33.9688" rx="12.5" ry="12.5" style="stroke:#181818;stroke-width:0.5;" width="154" x="354" y="675.0547"/><text fill="#000000" font-family="sans-serif" font-size="12" lengthAdjust="spacing" textLength="134" x="364" y="696.1934">ident=ident.parent();</text><polygon fill="#F1F1F1" points="310,626.6523,552,626.6523,564,638.6523,552,650.6523,310,650.6523,298,638.6523,310,626.6523" style="stroke:#181818;stroke-width:0.5;"/><text fill="#000000" font-family="sans-serif" font-size="11" lengthAdjust="spacing" textLength="20" x="435" y="660.8628">yes</text><text fill="#000000" font-family="sans-serif" font-size="11" lengthAdjust="spacing" textLength="242" x="310" y="642.4604">ident.parent().getLast().equals(codeString)</text><polygon fill="#F1F1F1" points="431,729.0234,443,741.0234,431,753.0234,419,741.0234,431,729.0234" style="stroke:#181818;stroke-width:0.5;"/><polygon fill="#F1F1F1" points="384,578.25,478,578.25,490,590.25,478,602.25,384,602.25,372,590.25,384,578.25" style="stroke:#181818;stroke-width:0.5;"/><text fill="#000000" font-family="sans-serif" font-size="11" lengthAdjust="spacing" textLength="20" x="435" y="612.4604">yes</text><text fill="#000000" font-family="sans-serif" font-size="11" lengthAdjust="spacing" textLength="94" x="384" y="594.0581">diagram.V1972()</text><polygon fill="#F1F1F1" points="431,773.0234,443,785.0234,431,797.0234,419,785.0234,431,773.0234" style="stroke:#181818;stroke-width:0.5;"/><rect fill="#F1F1F1" height="33.9688" rx="12.5" ry="12.5" style="stroke:#181818;stroke-width:0.5;" width="473" x="194.5" y="817.0234"/><text fill="#000000" font-family="sans-serif" font-size="12" lengthAdjust="spacing" textLength="453" x="204.5" y="838.1621">final Codecode=diagram.V1972()? ident:diagram.buildCode(codeString);</text><rect fill="#F1F1F1" height="47.9375" rx="12.5" ry="12.5" style="stroke:#181818;stroke-width:0.5;" width="332" x="265" y="870.9922"/><text fill="#000000" font-family="sans-serif" font-size="12" lengthAdjust="spacing" textLength="312" x="275" y="892.1309">final IEntityentity=diagram.getOrCreateLeaf(ident,</text><text fill="#000000" font-family="sans-serif" font-size="12" lengthAdjust="spacing" textLength="100" x="275" y="906.0996">code,null ,null );</text><rect fill="#F1F1F1" height="33.9688" rx="12.5" ry="12.5" style="stroke:#181818;stroke-width:0.5;" width="288" x="287" y="938.9297"/><text fill="#000000" font-family="sans-serif" font-size="12" lengthAdjust="spacing" textLength="268" x="297" y="960.0684">entity.getBodier().addFieldOrMethod(field);</text><rect fill="#F1F1F1" height="33.9688" rx="12.5" ry="12.5" style="stroke:#181818;stroke-width:0.5;" width="258" x="302" y="992.8984"/><text fill="#000000" font-family="sans-serif" font-size="12" lengthAdjust="spacing" textLength="238" x="312" y="1014.0371">return CommandExecutionResult.ok();</text><ellipse cx="431" cy="1057.8672" fill="none" rx="11" ry="11" style="stroke:#222222;stroke-width:1.0;"/><ellipse cx="431" cy="1057.8672" fill="#222222" rx="6" ry="6" style="stroke:#111111;stroke-width:1.0;"/><ellipse cx="431" cy="1088.8672" fill="none" rx="10" ry="10" style="stroke:#222222;stroke-width:1.5;"/><line style="stroke:#222222;stroke-width:2.5;" x1="424.8128" x2="437.1872" y1="1082.68" y2="1095.0544"/><line style="stroke:#222222;stroke-width:2.5;" x1="437.1872" x2="424.8128" y1="1082.68" y2="1095.0544"/><line style="stroke:#181818;stroke-width:1.0;" x1="431" x2="431" y1="32.5664" y2="55.1328"/><polygon fill="#181818" points="427,45.1328,431,55.1328,435,45.1328,431,49.1328" style="stroke:#181818;stroke-width:1.0;"/><line style="stroke:#181818;stroke-width:1.0;" x1="431" x2="431" y1="89.1016" y2="109.1016"/><polygon fill="#181818" points="427,99.1016,431,109.1016,435,99.1016,431,103.1016" style="stroke:#181818;stroke-width:1.0;"/><line style="stroke:#181818;stroke-width:1.0;" x1="431" x2="431" y1="161.668" y2="184.2344"/><polygon fill="#181818" points="427,174.2344,431,184.2344,435,174.2344,431,178.2344" style="stroke:#181818;stroke-width:1.0;"/><line style="stroke:#181818;stroke-width:1.0;" x1="431" x2="431" y1="274.0781" y2="294.0781"/><polygon fill="#181818" points="427,284.0781,431,294.0781,435,284.0781,431,288.0781" style="stroke:#181818;stroke-width:1.0;"/><line style="stroke:#181818;stroke-width:1.0;" x1="431" x2="431" y1="386.2109" y2="416.3438"/><polygon fill="#181818" points="427,406.3438,431,416.3438,435,406.3438,431,410.3438" style="stroke:#181818;stroke-width:1.0;"/><line style="stroke:#181818;stroke-width:1.0;" x1="431" x2="431" y1="450.3125" y2="470.3125"/><polygon fill="#181818" points="427,460.3125,431,470.3125,435,460.3125,431,464.3125" style="stroke:#181818;stroke-width:1.0;"/><line style="stroke:#181818;stroke-width:1.0;" x1="431" x2="431" y1="504.2813" y2="524.2813"/><polygon fill="#181818" points="427,514.2813,431,524.2813,435,514.2813,431,518.2813" style="stroke:#181818;stroke-width:1.0;"/><line style="stroke:#181818;stroke-width:1.0;" x1="431" x2="431" y1="650.6523" y2="675.0547"/><polygon fill="#181818" points="427,665.0547,431,675.0547,435,665.0547,431,669.0547" style="stroke:#181818;stroke-width:1.0;"/><line style="stroke:#181818;stroke-width:1.0;" x1="564" x2="576" y1="638.6523" y2="638.6523"/><polygon fill="#181818" points="572,682.0391,576,692.0391,580,682.0391,576,686.0391" style="stroke:#181818;stroke-width:1.0;"/><line style="stroke:#181818;stroke-width:1.0;" x1="576" x2="576" y1="638.6523" y2="741.0234"/><line style="stroke:#181818;stroke-width:1.0;" x1="576" x2="443" y1="741.0234" y2="741.0234"/><polygon fill="#181818" points="453,737.0234,443,741.0234,453,745.0234,449,741.0234" style="stroke:#181818;stroke-width:1.0;"/><line style="stroke:#181818;stroke-width:1.0;" x1="431" x2="431" y1="709.0234" y2="729.0234"/><polygon fill="#181818" points="427,719.0234,431,729.0234,435,719.0234,431,723.0234" style="stroke:#181818;stroke-width:1.0;"/><line style="stroke:#181818;stroke-width:1.0;" x1="431" x2="431" y1="602.25" y2="626.6523"/><polygon fill="#181818" points="427,616.6523,431,626.6523,435,616.6523,431,620.6523" style="stroke:#181818;stroke-width:1.0;"/><line style="stroke:#181818;stroke-width:1.0;" x1="490" x2="586" y1="590.25" y2="590.25"/><polygon fill="#181818" points="582,682.0391,586,692.0391,590,682.0391,586,686.0391" style="stroke:#181818;stroke-width:1.0;"/><line style="stroke:#181818;stroke-width:1.0;" x1="586" x2="586" y1="590.25" y2="785.0234"/><line style="stroke:#181818;stroke-width:1.0;" x1="586" x2="443" y1="785.0234" y2="785.0234"/><polygon fill="#181818" points="453,781.0234,443,785.0234,453,789.0234,449,785.0234" style="stroke:#181818;stroke-width:1.0;"/><line style="stroke:#181818;stroke-width:1.0;" x1="431" x2="431" y1="753.0234" y2="773.0234"/><polygon fill="#181818" points="427,763.0234,431,773.0234,435,763.0234,431,767.0234" style="stroke:#181818;stroke-width:1.0;"/><line style="stroke:#181818;stroke-width:1.0;" x1="431" x2="431" y1="558.25" y2="578.25"/><polygon fill="#181818" points="427,568.25,431,578.25,435,568.25,431,572.25" style="stroke:#181818;stroke-width:1.0;"/><line style="stroke:#181818;stroke-width:1.0;" x1="431" x2="431" y1="797.0234" y2="817.0234"/><polygon fill="#181818" points="427,807.0234,431,817.0234,435,807.0234,431,811.0234" style="stroke:#181818;stroke-width:1.0;"/><line style="stroke:#181818;stroke-width:1.0;" x1="431" x2="431" y1="850.9922" y2="870.9922"/><polygon fill="#181818" points="427,860.9922,431,870.9922,435,860.9922,431,864.9922" style="stroke:#181818;stroke-width:1.0;"/><line style="stroke:#181818;stroke-width:1.0;" x1="431" x2="431" y1="918.9297" y2="938.9297"/><polygon fill="#181818" points="427,928.9297,431,938.9297,435,928.9297,431,932.9297" style="stroke:#181818;stroke-width:1.0;"/><line style="stroke:#181818;stroke-width:1.0;" x1="431" x2="431" y1="972.8984" y2="992.8984"/><polygon fill="#181818" points="427,982.8984,431,992.8984,435,982.8984,431,986.8984" style="stroke:#181818;stroke-width:1.0;"/><line style="stroke:#181818;stroke-width:1.0;" x1="431" x2="431" y1="1026.8672" y2="1046.8672"/><polygon fill="#181818" points="427,1036.8672,431,1046.8672,435,1036.8672,431,1040.8672" style="stroke:#181818;stroke-width:1.0;"/><!--MD5=[196591a05f605ef4a2c1a9ec85524c33]
@startuml
!pragma layout smetana
start
note right
constructor CommandAddField()
end note
:super (getRegexConcat());;
end
start
note right
IRegexgetRegexConcat()
end note
:return RegexConcat.build(CommandAddField.class .getName(),RegexLeaf.start(),new RegexOr(new RegexLeaf("CODE3","([%pLN_.]+
)"),new RegexLeaf("CODE4","[%g]([^%g]+)[%g]")),
RegexLeaf.spaceZeroOrMore(),new RegexLeaf(":"),
RegexLeaf.spaceZeroOrMore(),new RegexLeaf("FIELD",
"(.*)"),RegexLeaf.end());;
stop
end
start
note right
CommandExecutionResultexecuteArg(StateDiagramdiagram,
LineLocationlocation,RegexResultarg)
end note
:final StringcodeString=arg.getLazzy("CODE",0);;
:final Stringfield=arg.get("FIELD",0);;
:Identident=diagram.buildLeafIdent(codeString);;
if (diagram.V1972()) then (yes) 
if (ident.parent().getLast().equals(codeString)) then (yes) 
:ident=ident.parent();;
endif 
endif 
:final Codecode=diagram.V1972()? ident:diagram.buildCode(codeString);;
:final IEntityentity=diagram.getOrCreateLeaf(ident,
code,null ,null );;
:entity.getBodier().addFieldOrMethod(field);;
:return CommandExecutionResult.ok();;
stop
end
@enduml

PlantUML version 1.2022.7(Mon Aug 22 17:01:30 UTC 2022)
(GPL source distribution)
Java Runtime: OpenJDK Runtime Environment
JVM: OpenJDK 64-Bit Server VM
Default Encoding: UTF-8
Language: en
Country: null
--></g></svg>