<?xml version="1.0" encoding="UTF-8" standalone="no"?><svg xmlns="http://www.w3.org/2000/svg" xmlns:xlink="http://www.w3.org/1999/xlink" contentStyleType="text/css" height="218px" preserveAspectRatio="none" style="width:841px;height:218px;background:#FFFFFF;" version="1.1" viewBox="0 0 841 218" width="841px" zoomAndPan="magnify"><defs/><g><!--MD5=[2105ea09b827cd0b406d452e31546668]
cluster jcckit.transformation--><g id="cluster_jcckit.transformation"><path d="M8.5,63 L172.5,63 A3.75,3.75 0 0 1 175,65.5 L182,85.2969 L831.5,85.2969 A2.5,2.5 0 0 1 834,87.7969 L834,208.5 A2.5,2.5 0 0 1 831.5,211 L8.5,211 A2.5,2.5 0 0 1 6,208.5 L6,65.5 A2.5,2.5 0 0 1 8.5,63 " fill="none" style="stroke:#000000;stroke-width:1.5;"/><line style="stroke:#000000;stroke-width:1.5;" x1="6" x2="182" y1="85.2969" y2="85.2969"/><text fill="#000000" font-family="sans-serif" font-size="14" font-weight="bold" lengthAdjust="spacing" textLength="163" x="10" y="77.9951">jcckit.transformation</text></g><!--MD5=[6ab62d51f073ced924755ebd8ee65b99]
class Transformation--><g id="elem_Transformation"><rect fill="#F1F1F1" height="48" id="Transformation" rx="2.5" ry="2.5" style="stroke:#181818;stroke-width:0.5;" width="136" x="352" y="6"/><ellipse cx="367" cy="22" fill="#ADD1B2" rx="11" ry="11" style="stroke:#181818;stroke-width:1.0;"/><path d="M369.9688,27.6406 Q369.3906,27.9375 368.75,28.0781 Q368.1094,28.2344 367.4063,28.2344 Q364.9063,28.2344 363.5781,26.5938 Q362.2656,24.9375 362.2656,21.8125 Q362.2656,18.6875 363.5781,17.0313 Q364.9063,15.375 367.4063,15.375 Q368.1094,15.375 368.75,15.5313 Q369.4063,15.6875 369.9688,15.9844 L369.9688,18.7031 Q369.3438,18.125 368.75,17.8594 Q368.1563,17.5781 367.5313,17.5781 Q366.1875,17.5781 365.5,18.6563 Q364.8125,19.7188 364.8125,21.8125 Q364.8125,23.9063 365.5,24.9844 Q366.1875,26.0469 367.5313,26.0469 Q368.1563,26.0469 368.75,25.7813 Q369.3438,25.5 369.9688,24.9219 L369.9688,27.6406 Z " fill="#000000"/><text fill="#000000" font-family="sans-serif" font-size="14" lengthAdjust="spacing" textLength="104" x="381" y="26.8467">Transformation</text><line style="stroke:#181818;stroke-width:0.5;" x1="353" x2="487" y1="38" y2="38"/><line style="stroke:#181818;stroke-width:0.5;" x1="353" x2="487" y1="46" y2="46"/></g><!--MD5=[dc22b1a6ba0dee5291084c15e7f51c94]
class jcckit.transformation.CartesianTransformation--><g id="elem_jcckit.transformation.CartesianTransformation"><rect codeLine="3" fill="#F1F1F1" height="113.1875" id="jcckit.transformation.CartesianTransformation" rx="2.5" ry="2.5" style="stroke:#181818;stroke-width:0.5;" width="812" x="14" y="90"/><ellipse cx="331.25" cy="106" fill="#ADD1B2" rx="11" ry="11" style="stroke:#181818;stroke-width:1.0;"/><path d="M334.2188,111.6406 Q333.6406,111.9375 333,112.0781 Q332.3594,112.2344 331.6563,112.2344 Q329.1563,112.2344 327.8281,110.5938 Q326.5156,108.9375 326.5156,105.8125 Q326.5156,102.6875 327.8281,101.0313 Q329.1563,99.375 331.6563,99.375 Q332.3594,99.375 333,99.5313 Q333.6563,99.6875 334.2188,99.9844 L334.2188,102.7031 Q333.5938,102.125 333,101.8594 Q332.4063,101.5781 331.7813,101.5781 Q330.4375,101.5781 329.75,102.6563 Q329.0625,103.7188 329.0625,105.8125 Q329.0625,107.9063 329.75,108.9844 Q330.4375,110.0469 331.7813,110.0469 Q332.4063,110.0469 333,109.7813 Q333.5938,109.5 334.2188,108.9219 L334.2188,111.6406 Z " fill="#000000"/><text fill="#000000" font-family="sans-serif" font-size="14" lengthAdjust="spacing" textLength="169" x="351.75" y="110.8467">CartesianTransformation</text><line style="stroke:#181818;stroke-width:0.5;" x1="15" x2="825" y1="122" y2="122"/><line style="stroke:#181818;stroke-width:0.5;" x1="15" x2="825" y1="130" y2="130"/><a href="./../../../.././qc/src/jcckit/transformation/CartesianTransformation.java.html#56" target="_top" title="./../../../.././qc/src/jcckit/transformation/CartesianTransformation.java.html#56" xlink:actuate="onRequest" xlink:href="./../../../.././qc/src/jcckit/transformation/CartesianTransformation.java.html#56" xlink:show="new" xlink:title="./../../../.././qc/src/jcckit/transformation/CartesianTransformation.java.html#56" xlink:type="simple"><rect fill="#F1F1F1" height="10" style="stroke:none;stroke-width:1.0;" width="20" x="20" y="138.6484"/><ellipse cx="25" cy="143.6484" fill="#84BE84" rx="3" ry="3" style="stroke:#038048;stroke-width:1.0;"/></a><a href="./../../../.././qc/src/jcckit/transformation/CartesianTransformation.java.html#56" target="_top" title="./../../../.././qc/src/jcckit/transformation/CartesianTransformation.java.html#56" xlink:actuate="onRequest" xlink:href="./../../../.././qc/src/jcckit/transformation/CartesianTransformation.java.html#56" xlink:show="new" xlink:title="./../../../.././qc/src/jcckit/transformation/CartesianTransformation.java.html#56" xlink:type="simple"><text fill="#000000" font-family="sans-serif" font-size="14" lengthAdjust="spacing" textLength="786" x="34" y="146.9951">CartesianTransformation(boolean;boolean;DataPoint;GraphPoint;DataPoint;GraphPoint) : CartesianTransformation</text></a><a href="./../../../.././qc/src/jcckit/transformation/CartesianTransformation.java.html#76" target="_top" title="./../../../.././qc/src/jcckit/transformation/CartesianTransformation.java.html#76" xlink:actuate="onRequest" xlink:href="./../../../.././qc/src/jcckit/transformation/CartesianTransformation.java.html#76" xlink:show="new" xlink:title="./../../../.././qc/src/jcckit/transformation/CartesianTransformation.java.html#76" xlink:type="simple"><rect fill="#F1F1F1" height="10" style="stroke:none;stroke-width:1.0;" width="20" x="20" y="154.9453"/><rect fill="#F24D5C" height="6" style="stroke:#C82930;stroke-width:1.0;" width="6" x="22" y="156.9453"/></a><a href="./../../../.././qc/src/jcckit/transformation/CartesianTransformation.java.html#76" target="_top" title="./../../../.././qc/src/jcckit/transformation/CartesianTransformation.java.html#76" xlink:actuate="onRequest" xlink:href="./../../../.././qc/src/jcckit/transformation/CartesianTransformation.java.html#76" xlink:show="new" xlink:title="./../../../.././qc/src/jcckit/transformation/CartesianTransformation.java.html#76" xlink:type="simple"><text fill="#000000" font-family="sans-serif" font-size="14" lengthAdjust="spacing" textLength="284" x="34" y="163.292">check(double;String;String;double) : void</text></a><a href="./../../../.././qc/src/jcckit/transformation/CartesianTransformation.java.html#85" target="_top" title="./../../../.././qc/src/jcckit/transformation/CartesianTransformation.java.html#85" xlink:actuate="onRequest" xlink:href="./../../../.././qc/src/jcckit/transformation/CartesianTransformation.java.html#85" xlink:show="new" xlink:title="./../../../.././qc/src/jcckit/transformation/CartesianTransformation.java.html#85" xlink:type="simple"><rect fill="#F1F1F1" height="10" style="stroke:none;stroke-width:1.0;" width="20" x="20" y="171.2422"/><ellipse cx="25" cy="176.2422" fill="#84BE84" rx="3" ry="3" style="stroke:#038048;stroke-width:1.0;"/></a><a href="./../../../.././qc/src/jcckit/transformation/CartesianTransformation.java.html#85" target="_top" title="./../../../.././qc/src/jcckit/transformation/CartesianTransformation.java.html#85" xlink:actuate="onRequest" xlink:href="./../../../.././qc/src/jcckit/transformation/CartesianTransformation.java.html#85" xlink:show="new" xlink:title="./../../../.././qc/src/jcckit/transformation/CartesianTransformation.java.html#85" xlink:type="simple"><text fill="#000000" font-family="sans-serif" font-size="14" lengthAdjust="spacing" textLength="293" x="34" y="179.5889">transformToGraph(DataPoint) : GraphPoint</text></a><a href="./../../../.././qc/src/jcckit/transformation/CartesianTransformation.java.html#91" target="_top" title="./../../../.././qc/src/jcckit/transformation/CartesianTransformation.java.html#91" xlink:actuate="onRequest" xlink:href="./../../../.././qc/src/jcckit/transformation/CartesianTransformation.java.html#91" xlink:show="new" xlink:title="./../../../.././qc/src/jcckit/transformation/CartesianTransformation.java.html#91" xlink:type="simple"><rect fill="#F1F1F1" height="10" style="stroke:none;stroke-width:1.0;" width="20" x="20" y="187.5391"/><ellipse cx="25" cy="192.5391" fill="#84BE84" rx="3" ry="3" style="stroke:#038048;stroke-width:1.0;"/></a><a href="./../../../.././qc/src/jcckit/transformation/CartesianTransformation.java.html#91" target="_top" title="./../../../.././qc/src/jcckit/transformation/CartesianTransformation.java.html#91" xlink:actuate="onRequest" xlink:href="./../../../.././qc/src/jcckit/transformation/CartesianTransformation.java.html#91" xlink:show="new" xlink:title="./../../../.././qc/src/jcckit/transformation/CartesianTransformation.java.html#91" xlink:type="simple"><text fill="#000000" font-family="sans-serif" font-size="14" lengthAdjust="spacing" textLength="283" x="34" y="195.8857">transformToData(GraphPoint) : DataPoint</text></a></g><path d="M420,54.1708 C420,64.4955 420,77.1452 420,89.7017 " fill="none" style="stroke:#181818;stroke-width:1.0;"/><polygon fill="#FFFFFF" points="420,54.1708,414,70.1708,426,70.1708,420,54.1708" style="stroke:#181818;stroke-width:1.0;"/><!--MD5=[1db0bc972b0c4af70dcc3c7500314eb8]
@startuml
!pragma layout smetana
"Transformation" <|- - "jcckit.transformation.CartesianTransformation"
class jcckit.transformation.CartesianTransformation {
+CartesianTransformation(boolean;boolean;DataPoint;GraphPoint;DataPoint;GraphPoint) : CartesianTransformation [[[./../../../.././qc/src/jcckit/transformation/CartesianTransformation.java.html#56]]]
-check(double;String;String;double) : void [[[./../../../.././qc/src/jcckit/transformation/CartesianTransformation.java.html#76]]]
+transformToGraph(DataPoint) : GraphPoint [[[./../../../.././qc/src/jcckit/transformation/CartesianTransformation.java.html#85]]]
+transformToData(GraphPoint) : DataPoint [[[./../../../.././qc/src/jcckit/transformation/CartesianTransformation.java.html#91]]]
} 
@enduml

PlantUML version 1.2022.7(Mon Aug 22 17:01:30 UTC 2022)
(GPL source distribution)
Java Runtime: OpenJDK Runtime Environment
JVM: OpenJDK 64-Bit Server VM
Default Encoding: UTF-8
Language: en
Country: null
--></g></svg>