<?xml version="1.0" encoding="UTF-8" standalone="no"?><svg xmlns="http://www.w3.org/2000/svg" xmlns:xlink="http://www.w3.org/1999/xlink" contentStyleType="text/css" height="187px" preserveAspectRatio="none" style="width:219px;height:187px;background:#FFFFFF;" version="1.1" viewBox="0 0 219 187" width="219px" zoomAndPan="magnify"><defs/><g><!--MD5=[aa8f7b917213fcc1c2766e2d59b49067]
cluster java.lang--><g id="cluster_java.lang"><path d="M64.5,6 L134.5,6 A3.75,3.75 0 0 1 137,8.5 L144,28.2969 L153.5,28.2969 A2.5,2.5 0 0 1 156,30.7969 L156,86.5 A2.5,2.5 0 0 1 153.5,89 L64.5,89 A2.5,2.5 0 0 1 62,86.5 L62,8.5 A2.5,2.5 0 0 1 64.5,6 " fill="none" style="stroke:#000000;stroke-width:1.5;"/><line style="stroke:#000000;stroke-width:1.5;" x1="62" x2="144" y1="28.2969" y2="28.2969"/><text fill="#000000" font-family="sans-serif" font-size="14" font-weight="bold" lengthAdjust="spacing" textLength="69" x="66" y="20.9951">java.lang</text></g><!--MD5=[497117bed918e07ccba97b4cba75c114]
cluster gen.plugin.dot_layout--><g id="cluster_gen.plugin.dot_layout"><path d="M8.5,97 L178.5,97 A3.75,3.75 0 0 1 181,99.5 L188,119.2969 L209.5,119.2969 A2.5,2.5 0 0 1 212,121.7969 L212,177.5 A2.5,2.5 0 0 1 209.5,180 L8.5,180 A2.5,2.5 0 0 1 6,177.5 L6,99.5 A2.5,2.5 0 0 1 8.5,97 " fill="none" style="stroke:#000000;stroke-width:1.5;"/><line style="stroke:#000000;stroke-width:1.5;" x1="6" x2="188" y1="119.2969" y2="119.2969"/><text fill="#000000" font-family="sans-serif" font-size="14" font-weight="bold" lengthAdjust="spacing" textLength="169" x="10" y="111.9951">gen.plugin.dot_layout</text></g><!--MD5=[274ad5661286b626a93603d287cbf95a]
class java.lang.Object--><g id="elem_java.lang.Object"><rect fill="#F1F1F1" height="48" id="java.lang.Object" rx="2.5" ry="2.5" style="stroke:#181818;stroke-width:0.5;" width="77" x="70.5" y="33"/><ellipse cx="85.5" cy="49" fill="#ADD1B2" rx="11" ry="11" style="stroke:#181818;stroke-width:1.0;"/><path d="M88.4688,54.6406 Q87.8906,54.9375 87.25,55.0781 Q86.6094,55.2344 85.9063,55.2344 Q83.4063,55.2344 82.0781,53.5938 Q80.7656,51.9375 80.7656,48.8125 Q80.7656,45.6875 82.0781,44.0313 Q83.4063,42.375 85.9063,42.375 Q86.6094,42.375 87.25,42.5313 Q87.9063,42.6875 88.4688,42.9844 L88.4688,45.7031 Q87.8438,45.125 87.25,44.8594 Q86.6563,44.5781 86.0313,44.5781 Q84.6875,44.5781 84,45.6563 Q83.3125,46.7188 83.3125,48.8125 Q83.3125,50.9063 84,51.9844 Q84.6875,53.0469 86.0313,53.0469 Q86.6563,53.0469 87.25,52.7813 Q87.8438,52.5 88.4688,51.9219 L88.4688,54.6406 Z " fill="#000000"/><text fill="#000000" font-family="sans-serif" font-size="14" lengthAdjust="spacing" textLength="45" x="99.5" y="53.8467">Object</text><line style="stroke:#181818;stroke-width:0.5;" x1="71.5" x2="146.5" y1="65" y2="65"/><line style="stroke:#181818;stroke-width:0.5;" x1="71.5" x2="146.5" y1="73" y2="73"/></g><!--MD5=[e157e5ae54da4e838e00cab6ea00b20e]
class gen.plugin.dot_layout.gvplugin_dot_layout__c--><g id="elem_gen.plugin.dot_layout.gvplugin_dot_layout__c"><rect codeLine="3" fill="#F1F1F1" height="48" id="gen.plugin.dot_layout.gvplugin_dot_layout__c" rx="2.5" ry="2.5" style="stroke:#181818;stroke-width:0.5;" width="190" x="14" y="124"/><ellipse cx="29" cy="140" fill="#ADD1B2" rx="11" ry="11" style="stroke:#181818;stroke-width:1.0;"/><path d="M31.9688,145.6406 Q31.3906,145.9375 30.75,146.0781 Q30.1094,146.2344 29.4063,146.2344 Q26.9063,146.2344 25.5781,144.5938 Q24.2656,142.9375 24.2656,139.8125 Q24.2656,136.6875 25.5781,135.0313 Q26.9063,133.375 29.4063,133.375 Q30.1094,133.375 30.75,133.5313 Q31.4063,133.6875 31.9688,133.9844 L31.9688,136.7031 Q31.3438,136.125 30.75,135.8594 Q30.1563,135.5781 29.5313,135.5781 Q28.1875,135.5781 27.5,136.6563 Q26.8125,137.7188 26.8125,139.8125 Q26.8125,141.9063 27.5,142.9844 Q28.1875,144.0469 29.5313,144.0469 Q30.1563,144.0469 30.75,143.7813 Q31.3438,143.5 31.9688,142.9219 L31.9688,145.6406 Z " fill="#000000"/><text fill="#000000" font-family="sans-serif" font-size="14" lengthAdjust="spacing" textLength="158" x="43" y="144.8467">gvplugin_dot_layout__c</text><line style="stroke:#181818;stroke-width:0.5;" x1="15" x2="203" y1="156" y2="156"/><line style="stroke:#181818;stroke-width:0.5;" x1="15" x2="203" y1="164" y2="164"/></g><path d="M109,81.3837 C109,94.4653 109,110.7162 109,123.7725 " fill="none" style="stroke:#181818;stroke-width:1.0;"/><polygon fill="#FFFFFF" points="109,81.3837,103,97.3837,115,97.3837,109,81.3837" style="stroke:#181818;stroke-width:1.0;"/><!--MD5=[3d728a568bbf737f5013b564ea52dbcd]
@startuml
!pragma layout smetana
"java.lang.Object" <|- - "gen.plugin.dot_layout.gvplugin_dot_layout__c"
class gen.plugin.dot_layout.gvplugin_dot_layout__c {
} 
@enduml

PlantUML version 1.2022.7(Mon Aug 22 17:01:30 UTC 2022)
(GPL source distribution)
Java Runtime: OpenJDK Runtime Environment
JVM: OpenJDK 64-Bit Server VM
Default Encoding: UTF-8
Language: en
Country: null
--></g></svg>