<?xml version="1.0" encoding="UTF-8" standalone="no"?><svg xmlns="http://www.w3.org/2000/svg" xmlns:xlink="http://www.w3.org/1999/xlink" contentStyleType="text/css" height="2510px" preserveAspectRatio="none" style="width:840px;height:2510px;background:#FFFFFF;" version="1.1" viewBox="0 0 840 2510" width="840px" zoomAndPan="magnify"><defs/><g><rect fill="#F1F1F1" height="33.9688" rx="12.5" ry="12.5" style="stroke:#181818;stroke-width:0.5;" width="413" x="213.5" y="11"/><text fill="#000000" font-family="sans-serif" font-size="12" lengthAdjust="spacing" textLength="393" x="223.5" y="32.1387">dateFormatGmt.setTimeZone(TimeZone.getTimeZone("GMT"));</text><path d="M450,62.4023 L450,70.9688 L430,74.9688 L450,78.9688 L450,87.5352 A0,0 0 0 0 450,87.5352 L692,87.5352 A0,0 0 0 0 692,87.5352 L692,72.4023 L682,62.4023 L450,62.4023 A0,0 0 0 0 450,62.4023 " fill="#FEFFDD" style="stroke:#181818;stroke-width:0.5;"/><path d="M682,62.4023 L682,72.4023 L692,72.4023 L682,62.4023 " fill="#FEFFDD" style="stroke:#181818;stroke-width:0.5;"/><text fill="#000000" font-family="sans-serif" font-size="13" lengthAdjust="spacing" textLength="221" x="456" y="79.4692">constructor DayOfWeek(int legacy)</text><ellipse cx="420" cy="74.9688" fill="#222222" rx="10" ry="10" style="stroke:#222222;stroke-width:1.0;"/><rect fill="#F1F1F1" height="33.9688" rx="12.5" ry="12.5" style="stroke:#181818;stroke-width:0.5;" width="141" x="349.5" y="107.5352"/><text fill="#000000" font-family="sans-serif" font-size="12" lengthAdjust="spacing" textLength="121" x="359.5" y="128.6738">this.legacy=legacy;</text><ellipse cx="420" cy="171.5039" fill="none" rx="10" ry="10" style="stroke:#222222;stroke-width:1.5;"/><line style="stroke:#222222;stroke-width:2.5;" x1="413.8128" x2="426.1872" y1="165.3167" y2="177.6911"/><line style="stroke:#222222;stroke-width:2.5;" x1="426.1872" x2="413.8128" y1="165.3167" y2="177.6911"/><path d="M450,191.5039 L450,200.0703 L430,204.0703 L450,208.0703 L450,216.6367 A0,0 0 0 0 450,216.6367 L629,216.6367 A0,0 0 0 0 629,216.6367 L629,201.5039 L619,191.5039 L450,191.5039 A0,0 0 0 0 450,191.5039 " fill="#FEFFDD" style="stroke:#181818;stroke-width:0.5;"/><path d="M619,191.5039 L619,201.5039 L629,201.5039 L619,191.5039 " fill="#FEFFDD" style="stroke:#181818;stroke-width:0.5;"/><text fill="#000000" font-family="sans-serif" font-size="13" lengthAdjust="spacing" textLength="158" x="456" y="208.5708">int getLegacyJavaValue()</text><ellipse cx="420" cy="204.0703" fill="#222222" rx="10" ry="10" style="stroke:#222222;stroke-width:1.0;"/><rect fill="#F1F1F1" height="33.9688" rx="12.5" ry="12.5" style="stroke:#181818;stroke-width:0.5;" width="107" x="366.5" y="236.6367"/><text fill="#000000" font-family="sans-serif" font-size="12" lengthAdjust="spacing" textLength="87" x="376.5" y="257.7754">return legacy;</text><ellipse cx="420" cy="301.6055" fill="none" rx="11" ry="11" style="stroke:#222222;stroke-width:1.0;"/><ellipse cx="420" cy="301.6055" fill="#222222" rx="6" ry="6" style="stroke:#111111;stroke-width:1.0;"/><ellipse cx="420" cy="332.6055" fill="none" rx="10" ry="10" style="stroke:#222222;stroke-width:1.5;"/><line style="stroke:#222222;stroke-width:2.5;" x1="413.8128" x2="426.1872" y1="326.4183" y2="338.7927"/><line style="stroke:#222222;stroke-width:2.5;" x1="426.1872" x2="413.8128" y1="326.4183" y2="338.7927"/><path d="M450,352.6055 L450,361.1719 L430,365.1719 L450,369.1719 L450,377.7383 A0,0 0 0 0 450,377.7383 L679,377.7383 A0,0 0 0 0 679,377.7383 L679,362.6055 L669,352.6055 L450,352.6055 A0,0 0 0 0 450,352.6055 " fill="#FEFFDD" style="stroke:#181818;stroke-width:0.5;"/><path d="M669,352.6055 L669,362.6055 L679,362.6055 L669,352.6055 " fill="#FEFFDD" style="stroke:#181818;stroke-width:0.5;"/><text fill="#000000" font-family="sans-serif" font-size="13" lengthAdjust="spacing" textLength="208" x="456" y="369.6724">DayOfWeek fromTime(long time)</text><ellipse cx="420" cy="365.1719" fill="#222222" rx="10" ry="10" style="stroke:#222222;stroke-width:1.0;"/><rect fill="#F1F1F1" height="33.9688" rx="12.5" ry="12.5" style="stroke:#181818;stroke-width:0.5;" width="178" x="331" y="397.7383"/><text fill="#000000" font-family="sans-serif" font-size="12" lengthAdjust="spacing" textLength="158" x="341" y="418.877">gmt.setTimeInMillis(time);</text><rect fill="#F1F1F1" height="33.9688" rx="12.5" ry="12.5" style="stroke:#181818;stroke-width:0.5;" width="325" x="257.5" y="451.707"/><text fill="#000000" font-family="sans-serif" font-size="12" lengthAdjust="spacing" textLength="305" x="267.5" y="472.8457">final int result=gmt.get(Calendar.DAY_OF_WEEK);</text><rect fill="#F1F1F1" height="33.9688" rx="12.5" ry="12.5" style="stroke:#181818;stroke-width:0.5;" width="117" x="361.5" y="554.0781"/><text fill="#000000" font-family="sans-serif" font-size="12" lengthAdjust="spacing" textLength="97" x="371.5" y="575.2168">return SUNDAY;</text><ellipse cx="420" cy="627.5625" fill="none" rx="11" ry="11" style="stroke:#222222;stroke-width:1.0;"/><ellipse cx="420" cy="627.5625" fill="#222222" rx="6" ry="6" style="stroke:#111111;stroke-width:1.0;"/><polygon fill="#F1F1F1" points="344,505.6758,496,505.6758,508,517.6758,496,529.6758,344,529.6758,332,517.6758,344,505.6758" style="stroke:#181818;stroke-width:0.5;"/><text fill="#000000" font-family="sans-serif" font-size="11" lengthAdjust="spacing" textLength="20" x="424" y="539.8862">yes</text><text fill="#000000" font-family="sans-serif" font-size="11" lengthAdjust="spacing" textLength="152" x="344" y="521.4839">result==Calendar.SUNDAY</text><rect fill="#F1F1F1" height="33.9688" rx="12.5" ry="12.5" style="stroke:#181818;stroke-width:0.5;" width="249" x="295.5" y="680.5625"/><text fill="#000000" font-family="sans-serif" font-size="12" lengthAdjust="spacing" textLength="229" x="305.5" y="701.7012">return DayOfWeek.values()[result-2];</text><ellipse cx="420" cy="745.5313" fill="none" rx="11" ry="11" style="stroke:#222222;stroke-width:1.0;"/><ellipse cx="420" cy="745.5313" fill="#222222" rx="6" ry="6" style="stroke:#111111;stroke-width:1.0;"/><ellipse cx="420" cy="776.5313" fill="none" rx="10" ry="10" style="stroke:#222222;stroke-width:1.5;"/><line style="stroke:#222222;stroke-width:2.5;" x1="413.8128" x2="426.1872" y1="770.3441" y2="782.7184"/><line style="stroke:#222222;stroke-width:2.5;" x1="426.1872" x2="413.8128" y1="770.3441" y2="782.7184"/><path d="M450,796.5313 L450,805.0977 L430,809.0977 L450,813.0977 L450,821.6641 A0,0 0 0 0 450,821.6641 L621,821.6641 A0,0 0 0 0 621,821.6641 L621,806.5313 L611,796.5313 L450,796.5313 A0,0 0 0 0 450,796.5313 " fill="#FEFFDD" style="stroke:#181818;stroke-width:0.5;"/><path d="M611,796.5313 L611,806.5313 L621,806.5313 L611,796.5313 " fill="#FEFFDD" style="stroke:#181818;stroke-width:0.5;"/><text fill="#000000" font-family="sans-serif" font-size="13" lengthAdjust="spacing" textLength="150" x="456" y="813.5981">String getRegexString()</text><ellipse cx="420" cy="809.0977" fill="#222222" rx="10" ry="10" style="stroke:#222222;stroke-width:1.0;"/><rect fill="#F1F1F1" height="33.9688" rx="12.5" ry="12.5" style="stroke:#181818;stroke-width:0.5;" width="282" x="279" y="841.6641"/><text fill="#000000" font-family="sans-serif" font-size="12" lengthAdjust="spacing" textLength="262" x="289" y="862.8027">final StringBuilder sb=new StringBuilder();</text><rect fill="#F1F1F1" height="33.9688" rx="12.5" ry="12.5" style="stroke:#181818;stroke-width:0.5;" width="115" x="362.5" y="944.0352"/><text fill="#000000" font-family="sans-serif" font-size="12" lengthAdjust="spacing" textLength="95" x="372.5" y="965.1738">sb.append("|");</text><polygon fill="#F1F1F1" points="381.5,895.6328,458.5,895.6328,470.5,907.6328,458.5,919.6328,381.5,919.6328,369.5,907.6328,381.5,895.6328" style="stroke:#181818;stroke-width:0.5;"/><text fill="#000000" font-family="sans-serif" font-size="11" lengthAdjust="spacing" textLength="20" x="424" y="929.8433">yes</text><text fill="#000000" font-family="sans-serif" font-size="11" lengthAdjust="spacing" textLength="77" x="381.5" y="911.4409">sb.length()&gt;0</text><polygon fill="#F1F1F1" points="420,998.0039,432,1010.0039,420,1022.0039,408,1010.0039,420,998.0039" style="stroke:#181818;stroke-width:0.5;"/><rect fill="#F1F1F1" height="33.9688" rx="12.5" ry="12.5" style="stroke:#181818;stroke-width:0.5;" width="318" x="261" y="1042.0039"/><text fill="#000000" font-family="sans-serif" font-size="12" lengthAdjust="spacing" textLength="298" x="271" y="1063.1426">sb.append(day.name().substring(0,3)+"[a-z]*");</text><rect fill="#F1F1F1" height="33.9688" rx="12.5" ry="12.5" style="stroke:#181818;stroke-width:0.5;" width="146" x="347" y="1095.9727"/><text fill="#000000" font-family="sans-serif" font-size="12" lengthAdjust="spacing" textLength="126" x="357" y="1117.1113">return sb.toString();</text><ellipse cx="420" cy="1160.9414" fill="none" rx="11" ry="11" style="stroke:#222222;stroke-width:1.0;"/><ellipse cx="420" cy="1160.9414" fill="#222222" rx="6" ry="6" style="stroke:#111111;stroke-width:1.0;"/><ellipse cx="420" cy="1191.9414" fill="none" rx="10" ry="10" style="stroke:#222222;stroke-width:1.5;"/><line style="stroke:#222222;stroke-width:2.5;" x1="413.8128" x2="426.1872" y1="1185.7542" y2="1198.1286"/><line style="stroke:#222222;stroke-width:2.5;" x1="426.1872" x2="413.8128" y1="1185.7542" y2="1198.1286"/><path d="M450,1211.9414 L450,1220.5078 L430,1224.5078 L450,1228.5078 L450,1237.0742 A0,0 0 0 0 450,1237.0742 L702,1237.0742 A0,0 0 0 0 702,1237.0742 L702,1221.9414 L692,1211.9414 L450,1211.9414 A0,0 0 0 0 450,1211.9414 " fill="#FEFFDD" style="stroke:#181818;stroke-width:0.5;"/><path d="M692,1211.9414 L692,1221.9414 L702,1221.9414 L692,1211.9414 " fill="#FEFFDD" style="stroke:#181818;stroke-width:0.5;"/><text fill="#000000" font-family="sans-serif" font-size="13" lengthAdjust="spacing" textLength="231" x="456" y="1229.0083">DayOfWeek fromString(String value)</text><ellipse cx="420" cy="1224.5078" fill="#222222" rx="10" ry="10" style="stroke:#222222;stroke-width:1.0;"/><rect fill="#F1F1F1" height="33.9688" rx="12.5" ry="12.5" style="stroke:#181818;stroke-width:0.5;" width="356" x="242" y="1257.0742"/><text fill="#000000" font-family="sans-serif" font-size="12" lengthAdjust="spacing" textLength="336" x="252" y="1278.2129">value=StringUtils.goUpperCase(value).substring(0,3);</text><rect fill="#F1F1F1" height="33.9688" rx="12.5" ry="12.5" style="stroke:#181818;stroke-width:0.5;" width="89" x="375.5" y="1359.4453"/><text fill="#000000" font-family="sans-serif" font-size="12" lengthAdjust="spacing" textLength="69" x="385.5" y="1380.584">return day;</text><ellipse cx="420" cy="1432.9297" fill="none" rx="11" ry="11" style="stroke:#222222;stroke-width:1.0;"/><ellipse cx="420" cy="1432.9297" fill="#222222" rx="6" ry="6" style="stroke:#111111;stroke-width:1.0;"/><polygon fill="#F1F1F1" points="338.5,1311.043,501.5,1311.043,513.5,1323.043,501.5,1335.043,338.5,1335.043,326.5,1323.043,338.5,1311.043" style="stroke:#181818;stroke-width:0.5;"/><text fill="#000000" font-family="sans-serif" font-size="11" lengthAdjust="spacing" textLength="20" x="424" y="1345.2534">yes</text><text fill="#000000" font-family="sans-serif" font-size="11" lengthAdjust="spacing" textLength="163" x="338.5" y="1326.8511">day.name().startsWith(value)</text><rect fill="#F1F1F1" height="33.9688" rx="12.5" ry="12.5" style="stroke:#181818;stroke-width:0.5;" width="260" x="290" y="1485.9297"/><text fill="#000000" font-family="sans-serif" font-size="12" lengthAdjust="spacing" textLength="240" x="300" y="1507.0684">throw new IllegalArgumentException();</text><ellipse cx="420" cy="1550.8984" fill="none" rx="11" ry="11" style="stroke:#222222;stroke-width:1.0;"/><ellipse cx="420" cy="1550.8984" fill="#222222" rx="6" ry="6" style="stroke:#111111;stroke-width:1.0;"/><ellipse cx="420" cy="1581.8984" fill="none" rx="10" ry="10" style="stroke:#222222;stroke-width:1.5;"/><line style="stroke:#222222;stroke-width:2.5;" x1="413.8128" x2="426.1872" y1="1575.7113" y2="1588.0856"/><line style="stroke:#222222;stroke-width:2.5;" x1="426.1872" x2="413.8128" y1="1575.7113" y2="1588.0856"/><path d="M450,1601.8984 L450,1610.4648 L430,1614.4648 L450,1618.4648 L450,1627.0313 A0,0 0 0 0 450,1627.0313 L586,1627.0313 A0,0 0 0 0 586,1627.0313 L586,1611.8984 L576,1601.8984 L450,1601.8984 A0,0 0 0 0 450,1601.8984 " fill="#FEFFDD" style="stroke:#181818;stroke-width:0.5;"/><path d="M576,1601.8984 L576,1611.8984 L586,1611.8984 L576,1601.8984 " fill="#FEFFDD" style="stroke:#181818;stroke-width:0.5;"/><text fill="#000000" font-family="sans-serif" font-size="13" lengthAdjust="spacing" textLength="115" x="456" y="1618.9653">DayOfWeek next()</text><ellipse cx="420" cy="1614.4648" fill="#222222" rx="10" ry="10" style="stroke:#222222;stroke-width:1.0;"/><rect fill="#F1F1F1" height="33.9688" rx="12.5" ry="12.5" style="stroke:#181818;stroke-width:0.5;" width="301" x="269.5" y="1647.0313"/><text fill="#000000" font-family="sans-serif" font-size="12" lengthAdjust="spacing" textLength="281" x="279.5" y="1668.1699">return DayOfWeek.values()[(ordinal()+1)%7];</text><ellipse cx="420" cy="1712" fill="none" rx="11" ry="11" style="stroke:#222222;stroke-width:1.0;"/><ellipse cx="420" cy="1712" fill="#222222" rx="6" ry="6" style="stroke:#111111;stroke-width:1.0;"/><ellipse cx="420" cy="1743" fill="none" rx="10" ry="10" style="stroke:#222222;stroke-width:1.5;"/><line style="stroke:#222222;stroke-width:2.5;" x1="413.8128" x2="426.1872" y1="1736.8128" y2="1749.1872"/><line style="stroke:#222222;stroke-width:2.5;" x1="426.1872" x2="413.8128" y1="1736.8128" y2="1749.1872"/><path d="M450,1763 L450,1771.5664 L430,1775.5664 L450,1779.5664 L450,1788.1328 A0,0 0 0 0 450,1788.1328 L626,1788.1328 A0,0 0 0 0 626,1788.1328 L626,1773 L616,1763 L450,1763 A0,0 0 0 0 450,1763 " fill="#FEFFDD" style="stroke:#181818;stroke-width:0.5;"/><path d="M616,1763 L616,1773 L626,1773 L616,1763 " fill="#FEFFDD" style="stroke:#181818;stroke-width:0.5;"/><text fill="#000000" font-family="sans-serif" font-size="13" lengthAdjust="spacing" textLength="155" x="456" y="1780.0669">DayOfWeek fromH(int h)</text><ellipse cx="420" cy="1775.5664" fill="#222222" rx="10" ry="10" style="stroke:#222222;stroke-width:1.0;"/><rect fill="#F1F1F1" height="33.9688" rx="12.5" ry="12.5" style="stroke:#181818;stroke-width:0.5;" width="256" x="292" y="1808.1328"/><text fill="#000000" font-family="sans-serif" font-size="12" lengthAdjust="spacing" textLength="236" x="302" y="1829.2715">return DayOfWeek.values()[(h+5)%7];</text><ellipse cx="420" cy="1873.1016" fill="none" rx="11" ry="11" style="stroke:#222222;stroke-width:1.0;"/><ellipse cx="420" cy="1873.1016" fill="#222222" rx="6" ry="6" style="stroke:#111111;stroke-width:1.0;"/><ellipse cx="420" cy="1904.1016" fill="none" rx="10" ry="10" style="stroke:#222222;stroke-width:1.5;"/><line style="stroke:#222222;stroke-width:2.5;" x1="413.8128" x2="426.1872" y1="1897.9144" y2="1910.2887"/><line style="stroke:#222222;stroke-width:2.5;" x1="426.1872" x2="413.8128" y1="1897.9144" y2="1910.2887"/><path d="M450,1924.1016 L450,1932.668 L430,1936.668 L450,1940.668 L450,1949.2344 A0,0 0 0 0 450,1949.2344 L677,1949.2344 A0,0 0 0 0 677,1949.2344 L677,1934.1016 L667,1924.1016 L450,1924.1016 A0,0 0 0 0 450,1924.1016 " fill="#FEFFDD" style="stroke:#181818;stroke-width:0.5;"/><path d="M667,1924.1016 L667,1934.1016 L677,1934.1016 L667,1924.1016 " fill="#FEFFDD" style="stroke:#181818;stroke-width:0.5;"/><text fill="#000000" font-family="sans-serif" font-size="13" lengthAdjust="spacing" textLength="206" x="456" y="1941.1685">String shortName(Locale locale)</text><ellipse cx="420" cy="1936.668" fill="#222222" rx="10" ry="10" style="stroke:#222222;stroke-width:1.0;"/><rect fill="#F1F1F1" height="47.9375" rx="12.5" ry="12.5" style="stroke:#181818;stroke-width:0.5;" width="319" x="260.5" y="2017.6367"/><text fill="#000000" font-family="sans-serif" font-size="12" lengthAdjust="spacing" textLength="299" x="270.5" y="2038.7754">return StringUtils.capitalize(name().substring(0,</text><text fill="#000000" font-family="sans-serif" font-size="12" lengthAdjust="spacing" textLength="22" x="270.5" y="2052.7441">2));</text><ellipse cx="420" cy="2098.1055" fill="none" rx="11" ry="11" style="stroke:#222222;stroke-width:1.0;"/><ellipse cx="420" cy="2098.1055" fill="#222222" rx="6" ry="6" style="stroke:#111111;stroke-width:1.0;"/><polygon fill="#F1F1F1" points="350,1969.2344,490,1969.2344,502,1981.2344,490,1993.2344,350,1993.2344,338,1981.2344,350,1969.2344" style="stroke:#181818;stroke-width:0.5;"/><text fill="#000000" font-family="sans-serif" font-size="11" lengthAdjust="spacing" textLength="20" x="424" y="2003.4448">yes</text><text fill="#000000" font-family="sans-serif" font-size="11" lengthAdjust="spacing" textLength="140" x="350" y="1985.0425">locale==Locale.ENGLISH</text><rect fill="#F1F1F1" height="47.9375" rx="12.5" ry="12.5" style="stroke:#181818;stroke-width:0.5;" width="818" x="11" y="2151.1055"/><text fill="#000000" font-family="sans-serif" font-size="12" lengthAdjust="spacing" textLength="798" x="21" y="2172.2441">final String s=StringUtils.capitalize(java.time.DayOfWeek.valueOf(this.toString()).getDisplayName(TextStyle.SHORT_STANDALONE,</text><text fill="#000000" font-family="sans-serif" font-size="12" lengthAdjust="spacing" textLength="51" x="21" y="2186.2129">locale));</text><rect fill="#F1F1F1" height="33.9688" rx="12.5" ry="12.5" style="stroke:#181818;stroke-width:0.5;" width="167" x="336.5" y="2267.4453"/><text fill="#000000" font-family="sans-serif" font-size="12" lengthAdjust="spacing" textLength="147" x="346.5" y="2288.584">return s.substring(0,2);</text><ellipse cx="420" cy="2340.9297" fill="none" rx="11" ry="11" style="stroke:#222222;stroke-width:1.0;"/><ellipse cx="420" cy="2340.9297" fill="#222222" rx="6" ry="6" style="stroke:#111111;stroke-width:1.0;"/><polygon fill="#F1F1F1" points="385,2219.043,455,2219.043,467,2231.043,455,2243.043,385,2243.043,373,2231.043,385,2219.043" style="stroke:#181818;stroke-width:0.5;"/><text fill="#000000" font-family="sans-serif" font-size="11" lengthAdjust="spacing" textLength="20" x="424" y="2253.2534">yes</text><text fill="#000000" font-family="sans-serif" font-size="11" lengthAdjust="spacing" textLength="70" x="385" y="2234.8511">s.length()&gt;2</text><rect fill="#F1F1F1" height="33.9688" rx="12.5" ry="12.5" style="stroke:#181818;stroke-width:0.5;" width="74" x="383" y="2393.9297"/><text fill="#000000" font-family="sans-serif" font-size="12" lengthAdjust="spacing" textLength="54" x="393" y="2415.0684">return s;</text><ellipse cx="420" cy="2458.8984" fill="none" rx="11" ry="11" style="stroke:#222222;stroke-width:1.0;"/><ellipse cx="420" cy="2458.8984" fill="#222222" rx="6" ry="6" style="stroke:#111111;stroke-width:1.0;"/><ellipse cx="420" cy="2489.8984" fill="none" rx="10" ry="10" style="stroke:#222222;stroke-width:1.5;"/><line style="stroke:#222222;stroke-width:2.5;" x1="413.8128" x2="426.1872" y1="2483.7113" y2="2496.0856"/><line style="stroke:#222222;stroke-width:2.5;" x1="426.1872" x2="413.8128" y1="2483.7113" y2="2496.0856"/><line style="stroke:#181818;stroke-width:1.0;" x1="420" x2="420" y1="44.9688" y2="64.9688"/><polygon fill="#181818" points="416,54.9688,420,64.9688,424,54.9688,420,58.9688" style="stroke:#181818;stroke-width:1.0;"/><line style="stroke:#181818;stroke-width:1.0;" x1="420" x2="420" y1="84.9688" y2="107.5352"/><polygon fill="#181818" points="416,97.5352,420,107.5352,424,97.5352,420,101.5352" style="stroke:#181818;stroke-width:1.0;"/><line style="stroke:#181818;stroke-width:1.0;" x1="420" x2="420" y1="141.5039" y2="161.5039"/><polygon fill="#181818" points="416,151.5039,420,161.5039,424,151.5039,420,155.5039" style="stroke:#181818;stroke-width:1.0;"/><line style="stroke:#181818;stroke-width:1.0;" x1="420" x2="420" y1="214.0703" y2="236.6367"/><polygon fill="#181818" points="416,226.6367,420,236.6367,424,226.6367,420,230.6367" style="stroke:#181818;stroke-width:1.0;"/><line style="stroke:#181818;stroke-width:1.0;" x1="420" x2="420" y1="270.6055" y2="290.6055"/><polygon fill="#181818" points="416,280.6055,420,290.6055,424,280.6055,420,284.6055" style="stroke:#181818;stroke-width:1.0;"/><line style="stroke:#181818;stroke-width:1.0;" x1="420" x2="420" y1="375.1719" y2="397.7383"/><polygon fill="#181818" points="416,387.7383,420,397.7383,424,387.7383,420,391.7383" style="stroke:#181818;stroke-width:1.0;"/><line style="stroke:#181818;stroke-width:1.0;" x1="420" x2="420" y1="431.707" y2="451.707"/><polygon fill="#181818" points="416,441.707,420,451.707,424,441.707,420,445.707" style="stroke:#181818;stroke-width:1.0;"/><line style="stroke:#181818;stroke-width:1.0;" x1="420" x2="420" y1="588.0469" y2="616.5625"/><polygon fill="#181818" points="416,606.5625,420,616.5625,424,606.5625,420,610.5625" style="stroke:#181818;stroke-width:1.0;"/><line style="stroke:#181818;stroke-width:1.0;" x1="420" x2="420" y1="529.6758" y2="554.0781"/><polygon fill="#181818" points="416,544.0781,420,554.0781,424,544.0781,420,548.0781" style="stroke:#181818;stroke-width:1.0;"/><line style="stroke:#181818;stroke-width:1.0;" x1="508" x2="520" y1="517.6758" y2="517.6758"/><polygon fill="#181818" points="516,586.5625,520,596.5625,524,586.5625,520,590.5625" style="stroke:#181818;stroke-width:1.0;"/><line style="stroke:#181818;stroke-width:1.0;" x1="520" x2="520" y1="517.6758" y2="660.5625"/><line style="stroke:#181818;stroke-width:1.0;" x1="520" x2="420" y1="660.5625" y2="660.5625"/><line style="stroke:#181818;stroke-width:1.0;" x1="420" x2="420" y1="660.5625" y2="680.5625"/><polygon fill="#181818" points="416,670.5625,420,680.5625,424,670.5625,420,674.5625" style="stroke:#181818;stroke-width:1.0;"/><line style="stroke:#181818;stroke-width:1.0;" x1="420" x2="420" y1="485.6758" y2="505.6758"/><polygon fill="#181818" points="416,495.6758,420,505.6758,424,495.6758,420,499.6758" style="stroke:#181818;stroke-width:1.0;"/><line style="stroke:#181818;stroke-width:1.0;" x1="420" x2="420" y1="714.5313" y2="734.5313"/><polygon fill="#181818" points="416,724.5313,420,734.5313,424,724.5313,420,728.5313" style="stroke:#181818;stroke-width:1.0;"/><line style="stroke:#181818;stroke-width:1.0;" x1="420" x2="420" y1="819.0977" y2="841.6641"/><polygon fill="#181818" points="416,831.6641,420,841.6641,424,831.6641,420,835.6641" style="stroke:#181818;stroke-width:1.0;"/><line style="stroke:#181818;stroke-width:1.0;" x1="420" x2="420" y1="919.6328" y2="944.0352"/><polygon fill="#181818" points="416,934.0352,420,944.0352,424,934.0352,420,938.0352" style="stroke:#181818;stroke-width:1.0;"/><line style="stroke:#181818;stroke-width:1.0;" x1="470.5" x2="487.5" y1="907.6328" y2="907.6328"/><polygon fill="#181818" points="483.5,951.0195,487.5,961.0195,491.5,951.0195,487.5,955.0195" style="stroke:#181818;stroke-width:1.0;"/><line style="stroke:#181818;stroke-width:1.0;" x1="487.5" x2="487.5" y1="907.6328" y2="1010.0039"/><line style="stroke:#181818;stroke-width:1.0;" x1="487.5" x2="432" y1="1010.0039" y2="1010.0039"/><polygon fill="#181818" points="442,1006.0039,432,1010.0039,442,1014.0039,438,1010.0039" style="stroke:#181818;stroke-width:1.0;"/><line style="stroke:#181818;stroke-width:1.0;" x1="420" x2="420" y1="978.0039" y2="998.0039"/><polygon fill="#181818" points="416,988.0039,420,998.0039,424,988.0039,420,992.0039" style="stroke:#181818;stroke-width:1.0;"/><line style="stroke:#181818;stroke-width:1.0;" x1="420" x2="420" y1="875.6328" y2="895.6328"/><polygon fill="#181818" points="416,885.6328,420,895.6328,424,885.6328,420,889.6328" style="stroke:#181818;stroke-width:1.0;"/><line style="stroke:#181818;stroke-width:1.0;" x1="420" x2="420" y1="1022.0039" y2="1042.0039"/><polygon fill="#181818" points="416,1032.0039,420,1042.0039,424,1032.0039,420,1036.0039" style="stroke:#181818;stroke-width:1.0;"/><line style="stroke:#181818;stroke-width:1.0;" x1="420" x2="420" y1="1075.9727" y2="1095.9727"/><polygon fill="#181818" points="416,1085.9727,420,1095.9727,424,1085.9727,420,1089.9727" style="stroke:#181818;stroke-width:1.0;"/><line style="stroke:#181818;stroke-width:1.0;" x1="420" x2="420" y1="1129.9414" y2="1149.9414"/><polygon fill="#181818" points="416,1139.9414,420,1149.9414,424,1139.9414,420,1143.9414" style="stroke:#181818;stroke-width:1.0;"/><line style="stroke:#181818;stroke-width:1.0;" x1="420" x2="420" y1="1234.5078" y2="1257.0742"/><polygon fill="#181818" points="416,1247.0742,420,1257.0742,424,1247.0742,420,1251.0742" style="stroke:#181818;stroke-width:1.0;"/><line style="stroke:#181818;stroke-width:1.0;" x1="420" x2="420" y1="1393.4141" y2="1421.9297"/><polygon fill="#181818" points="416,1411.9297,420,1421.9297,424,1411.9297,420,1415.9297" style="stroke:#181818;stroke-width:1.0;"/><line style="stroke:#181818;stroke-width:1.0;" x1="420" x2="420" y1="1335.043" y2="1359.4453"/><polygon fill="#181818" points="416,1349.4453,420,1359.4453,424,1349.4453,420,1353.4453" style="stroke:#181818;stroke-width:1.0;"/><line style="stroke:#181818;stroke-width:1.0;" x1="513.5" x2="525.5" y1="1323.043" y2="1323.043"/><polygon fill="#181818" points="521.5,1391.9297,525.5,1401.9297,529.5,1391.9297,525.5,1395.9297" style="stroke:#181818;stroke-width:1.0;"/><line style="stroke:#181818;stroke-width:1.0;" x1="525.5" x2="525.5" y1="1323.043" y2="1465.9297"/><line style="stroke:#181818;stroke-width:1.0;" x1="525.5" x2="420" y1="1465.9297" y2="1465.9297"/><line style="stroke:#181818;stroke-width:1.0;" x1="420" x2="420" y1="1465.9297" y2="1485.9297"/><polygon fill="#181818" points="416,1475.9297,420,1485.9297,424,1475.9297,420,1479.9297" style="stroke:#181818;stroke-width:1.0;"/><line style="stroke:#181818;stroke-width:1.0;" x1="420" x2="420" y1="1291.043" y2="1311.043"/><polygon fill="#181818" points="416,1301.043,420,1311.043,424,1301.043,420,1305.043" style="stroke:#181818;stroke-width:1.0;"/><line style="stroke:#181818;stroke-width:1.0;" x1="420" x2="420" y1="1519.8984" y2="1539.8984"/><polygon fill="#181818" points="416,1529.8984,420,1539.8984,424,1529.8984,420,1533.8984" style="stroke:#181818;stroke-width:1.0;"/><line style="stroke:#181818;stroke-width:1.0;" x1="420" x2="420" y1="1624.4648" y2="1647.0313"/><polygon fill="#181818" points="416,1637.0313,420,1647.0313,424,1637.0313,420,1641.0313" style="stroke:#181818;stroke-width:1.0;"/><line style="stroke:#181818;stroke-width:1.0;" x1="420" x2="420" y1="1681" y2="1701"/><polygon fill="#181818" points="416,1691,420,1701,424,1691,420,1695" style="stroke:#181818;stroke-width:1.0;"/><line style="stroke:#181818;stroke-width:1.0;" x1="420" x2="420" y1="1785.5664" y2="1808.1328"/><polygon fill="#181818" points="416,1798.1328,420,1808.1328,424,1798.1328,420,1802.1328" style="stroke:#181818;stroke-width:1.0;"/><line style="stroke:#181818;stroke-width:1.0;" x1="420" x2="420" y1="1842.1016" y2="1862.1016"/><polygon fill="#181818" points="416,1852.1016,420,1862.1016,424,1852.1016,420,1856.1016" style="stroke:#181818;stroke-width:1.0;"/><line style="stroke:#181818;stroke-width:1.0;" x1="420" x2="420" y1="2065.5742" y2="2087.1055"/><polygon fill="#181818" points="416,2077.1055,420,2087.1055,424,2077.1055,420,2081.1055" style="stroke:#181818;stroke-width:1.0;"/><line style="stroke:#181818;stroke-width:1.0;" x1="420" x2="420" y1="1993.2344" y2="2017.6367"/><polygon fill="#181818" points="416,2007.6367,420,2017.6367,424,2007.6367,420,2011.6367" style="stroke:#181818;stroke-width:1.0;"/><line style="stroke:#181818;stroke-width:1.0;" x1="502" x2="589.5" y1="1981.2344" y2="1981.2344"/><polygon fill="#181818" points="585.5,2057.1055,589.5,2067.1055,593.5,2057.1055,589.5,2061.1055" style="stroke:#181818;stroke-width:1.0;"/><line style="stroke:#181818;stroke-width:1.0;" x1="589.5" x2="589.5" y1="1981.2344" y2="2131.1055"/><line style="stroke:#181818;stroke-width:1.0;" x1="589.5" x2="420" y1="2131.1055" y2="2131.1055"/><line style="stroke:#181818;stroke-width:1.0;" x1="420" x2="420" y1="2131.1055" y2="2151.1055"/><polygon fill="#181818" points="416,2141.1055,420,2151.1055,424,2141.1055,420,2145.1055" style="stroke:#181818;stroke-width:1.0;"/><line style="stroke:#181818;stroke-width:1.0;" x1="420" x2="420" y1="1946.668" y2="1969.2344"/><polygon fill="#181818" points="416,1959.2344,420,1969.2344,424,1959.2344,420,1963.2344" style="stroke:#181818;stroke-width:1.0;"/><line style="stroke:#181818;stroke-width:1.0;" x1="420" x2="420" y1="2301.4141" y2="2329.9297"/><polygon fill="#181818" points="416,2319.9297,420,2329.9297,424,2319.9297,420,2323.9297" style="stroke:#181818;stroke-width:1.0;"/><line style="stroke:#181818;stroke-width:1.0;" x1="420" x2="420" y1="2243.043" y2="2267.4453"/><polygon fill="#181818" points="416,2257.4453,420,2267.4453,424,2257.4453,420,2261.4453" style="stroke:#181818;stroke-width:1.0;"/><line style="stroke:#181818;stroke-width:1.0;" x1="467" x2="513.5" y1="2231.043" y2="2231.043"/><polygon fill="#181818" points="509.5,2299.9297,513.5,2309.9297,517.5,2299.9297,513.5,2303.9297" style="stroke:#181818;stroke-width:1.0;"/><line style="stroke:#181818;stroke-width:1.0;" x1="513.5" x2="513.5" y1="2231.043" y2="2373.9297"/><line style="stroke:#181818;stroke-width:1.0;" x1="513.5" x2="420" y1="2373.9297" y2="2373.9297"/><line style="stroke:#181818;stroke-width:1.0;" x1="420" x2="420" y1="2373.9297" y2="2393.9297"/><polygon fill="#181818" points="416,2383.9297,420,2393.9297,424,2383.9297,420,2387.9297" style="stroke:#181818;stroke-width:1.0;"/><line style="stroke:#181818;stroke-width:1.0;" x1="420" x2="420" y1="2199.043" y2="2219.043"/><polygon fill="#181818" points="416,2209.043,420,2219.043,424,2209.043,420,2213.043" style="stroke:#181818;stroke-width:1.0;"/><line style="stroke:#181818;stroke-width:1.0;" x1="420" x2="420" y1="2427.8984" y2="2447.8984"/><polygon fill="#181818" points="416,2437.8984,420,2447.8984,424,2437.8984,420,2441.8984" style="stroke:#181818;stroke-width:1.0;"/><!--MD5=[7933306180037613f0cacea13cd19325]
@startuml
!pragma layout smetana
:dateFormatGmt.setTimeZone(TimeZone.getTimeZone("GMT"));;
start
note right
constructor DayOfWeek(int legacy)
end note
:this.legacy=legacy;;
end
start
note right
int getLegacyJavaValue()
end note
:return legacy;;
stop
end
start
note right
DayOfWeek fromTime(long time)
end note
:gmt.setTimeInMillis(time);;
:final int result=gmt.get(Calendar.DAY_OF_WEEK);;
if (result==Calendar.SUNDAY) then (yes) 
:return SUNDAY;;
stop
endif 
:return DayOfWeek.values()[result-2];;
stop
end
start
note right
String getRegexString()
end note
:final StringBuilder sb=new StringBuilder();;
if (sb.length()>0) then (yes) 
:sb.append("|");;
endif 
:sb.append(day.name().substring(0,3)+"[a-z]*");;
:return sb.toString();;
stop
end
start
note right
DayOfWeek fromString(String value)
end note
:value=StringUtils.goUpperCase(value).substring(0,3);;
if (day.name().startsWith(value)) then (yes) 
:return day;;
stop
endif 
:throw new IllegalArgumentException();;
stop
end
start
note right
DayOfWeek next()
end note
:return DayOfWeek.values()[(ordinal()+1)%7];;
stop
end
start
note right
DayOfWeek fromH(int h)
end note
:return DayOfWeek.values()[(h+5)%7];;
stop
end
start
note right
String shortName(Locale locale)
end note
if (locale==Locale.ENGLISH) then (yes) 
:return StringUtils.capitalize(name().substring(0,
2));;
stop
endif 
:final String s=StringUtils.capitalize(java.time.DayOfWeek.valueOf(this.toString()).getDisplayName(TextStyle.SHORT_STANDALONE,
locale));;
if (s.length()>2) then (yes) 
:return s.substring(0,2);;
stop
endif 
:return s;;
stop
end
@enduml

PlantUML version 1.2022.7(Mon Aug 22 17:01:30 UTC 2022)
(GPL source distribution)
Java Runtime: OpenJDK Runtime Environment
JVM: OpenJDK 64-Bit Server VM
Default Encoding: UTF-8
Language: en
Country: null
--></g></svg>