<?xml version="1.0" encoding="UTF-8" standalone="no"?><svg xmlns="http://www.w3.org/2000/svg" xmlns:xlink="http://www.w3.org/1999/xlink" contentStyleType="text/css" height="2510px" preserveAspectRatio="none" style="width:836px;height:2510px;background:#FFFFFF;" version="1.1" viewBox="0 0 836 2510" width="836px" zoomAndPan="magnify"><defs/><g><rect fill="#F1F1F1" height="33.9688" rx="12.5" ry="12.5" style="stroke:#181818;stroke-width:0.5;" width="413" x="211.5" y="11"/><text fill="#000000" font-family="sans-serif" font-size="12" lengthAdjust="spacing" textLength="393" x="221.5" y="32.1387">dateFormatGmt.setTimeZone(TimeZone.getTimeZone("GMT"));</text><path d="M448,62.4023 L448,70.9688 L428,74.9688 L448,78.9688 L448,87.5352 A0,0 0 0 0 448,87.5352 L686,87.5352 A0,0 0 0 0 686,87.5352 L686,72.4023 L676,62.4023 L448,62.4023 A0,0 0 0 0 448,62.4023 " fill="#FEFFDD" style="stroke:#181818;stroke-width:0.5;"/><path d="M676,62.4023 L676,72.4023 L686,72.4023 L676,62.4023 " fill="#FEFFDD" style="stroke:#181818;stroke-width:0.5;"/><text fill="#000000" font-family="sans-serif" font-size="13" lengthAdjust="spacing" textLength="217" x="454" y="79.4692">constructor DayOfWeek(intlegacy)</text><ellipse cx="418" cy="74.9688" fill="#222222" rx="10" ry="10" style="stroke:#222222;stroke-width:1.0;"/><rect fill="#F1F1F1" height="33.9688" rx="12.5" ry="12.5" style="stroke:#181818;stroke-width:0.5;" width="141" x="347.5" y="107.5352"/><text fill="#000000" font-family="sans-serif" font-size="12" lengthAdjust="spacing" textLength="121" x="357.5" y="128.6738">this.legacy=legacy;</text><ellipse cx="418" cy="171.5039" fill="none" rx="10" ry="10" style="stroke:#222222;stroke-width:1.5;"/><line style="stroke:#222222;stroke-width:2.5;" x1="411.8128" x2="424.1872" y1="165.3167" y2="177.6911"/><line style="stroke:#222222;stroke-width:2.5;" x1="424.1872" x2="411.8128" y1="165.3167" y2="177.6911"/><path d="M448,191.5039 L448,200.0703 L428,204.0703 L448,208.0703 L448,216.6367 A0,0 0 0 0 448,216.6367 L623,216.6367 A0,0 0 0 0 623,216.6367 L623,201.5039 L613,191.5039 L448,191.5039 A0,0 0 0 0 448,191.5039 " fill="#FEFFDD" style="stroke:#181818;stroke-width:0.5;"/><path d="M613,191.5039 L613,201.5039 L623,201.5039 L613,191.5039 " fill="#FEFFDD" style="stroke:#181818;stroke-width:0.5;"/><text fill="#000000" font-family="sans-serif" font-size="13" lengthAdjust="spacing" textLength="154" x="454" y="208.5708">intgetLegacyJavaValue()</text><ellipse cx="418" cy="204.0703" fill="#222222" rx="10" ry="10" style="stroke:#222222;stroke-width:1.0;"/><rect fill="#F1F1F1" height="33.9688" rx="12.5" ry="12.5" style="stroke:#181818;stroke-width:0.5;" width="107" x="364.5" y="236.6367"/><text fill="#000000" font-family="sans-serif" font-size="12" lengthAdjust="spacing" textLength="87" x="374.5" y="257.7754">return legacy;</text><ellipse cx="418" cy="301.6055" fill="none" rx="11" ry="11" style="stroke:#222222;stroke-width:1.0;"/><ellipse cx="418" cy="301.6055" fill="#222222" rx="6" ry="6" style="stroke:#111111;stroke-width:1.0;"/><ellipse cx="418" cy="332.6055" fill="none" rx="10" ry="10" style="stroke:#222222;stroke-width:1.5;"/><line style="stroke:#222222;stroke-width:2.5;" x1="411.8128" x2="424.1872" y1="326.4183" y2="338.7927"/><line style="stroke:#222222;stroke-width:2.5;" x1="424.1872" x2="411.8128" y1="326.4183" y2="338.7927"/><path d="M448,352.6055 L448,361.1719 L428,365.1719 L448,369.1719 L448,377.7383 A0,0 0 0 0 448,377.7383 L669,377.7383 A0,0 0 0 0 669,377.7383 L669,362.6055 L659,352.6055 L448,352.6055 A0,0 0 0 0 448,352.6055 " fill="#FEFFDD" style="stroke:#181818;stroke-width:0.5;"/><path d="M659,352.6055 L659,362.6055 L669,362.6055 L659,352.6055 " fill="#FEFFDD" style="stroke:#181818;stroke-width:0.5;"/><text fill="#000000" font-family="sans-serif" font-size="13" lengthAdjust="spacing" textLength="200" x="454" y="369.6724">DayOfWeekfromTime(longtime)</text><ellipse cx="418" cy="365.1719" fill="#222222" rx="10" ry="10" style="stroke:#222222;stroke-width:1.0;"/><rect fill="#F1F1F1" height="33.9688" rx="12.5" ry="12.5" style="stroke:#181818;stroke-width:0.5;" width="178" x="329" y="397.7383"/><text fill="#000000" font-family="sans-serif" font-size="12" lengthAdjust="spacing" textLength="158" x="339" y="418.877">gmt.setTimeInMillis(time);</text><rect fill="#F1F1F1" height="33.9688" rx="12.5" ry="12.5" style="stroke:#181818;stroke-width:0.5;" width="321" x="257.5" y="451.707"/><text fill="#000000" font-family="sans-serif" font-size="12" lengthAdjust="spacing" textLength="301" x="267.5" y="472.8457">final intresult=gmt.get(Calendar.DAY_OF_WEEK);</text><rect fill="#F1F1F1" height="33.9688" rx="12.5" ry="12.5" style="stroke:#181818;stroke-width:0.5;" width="117" x="359.5" y="554.0781"/><text fill="#000000" font-family="sans-serif" font-size="12" lengthAdjust="spacing" textLength="97" x="369.5" y="575.2168">return SUNDAY;</text><ellipse cx="418" cy="627.5625" fill="none" rx="11" ry="11" style="stroke:#222222;stroke-width:1.0;"/><ellipse cx="418" cy="627.5625" fill="#222222" rx="6" ry="6" style="stroke:#111111;stroke-width:1.0;"/><polygon fill="#F1F1F1" points="342,505.6758,494,505.6758,506,517.6758,494,529.6758,342,529.6758,330,517.6758,342,505.6758" style="stroke:#181818;stroke-width:0.5;"/><text fill="#000000" font-family="sans-serif" font-size="11" lengthAdjust="spacing" textLength="20" x="422" y="539.8862">yes</text><text fill="#000000" font-family="sans-serif" font-size="11" lengthAdjust="spacing" textLength="152" x="342" y="521.4839">result==Calendar.SUNDAY</text><rect fill="#F1F1F1" height="33.9688" rx="12.5" ry="12.5" style="stroke:#181818;stroke-width:0.5;" width="249" x="293.5" y="680.5625"/><text fill="#000000" font-family="sans-serif" font-size="12" lengthAdjust="spacing" textLength="229" x="303.5" y="701.7012">return DayOfWeek.values()[result-2];</text><ellipse cx="418" cy="745.5313" fill="none" rx="11" ry="11" style="stroke:#222222;stroke-width:1.0;"/><ellipse cx="418" cy="745.5313" fill="#222222" rx="6" ry="6" style="stroke:#111111;stroke-width:1.0;"/><ellipse cx="418" cy="776.5313" fill="none" rx="10" ry="10" style="stroke:#222222;stroke-width:1.5;"/><line style="stroke:#222222;stroke-width:2.5;" x1="411.8128" x2="424.1872" y1="770.3441" y2="782.7184"/><line style="stroke:#222222;stroke-width:2.5;" x1="424.1872" x2="411.8128" y1="770.3441" y2="782.7184"/><path d="M448,796.5313 L448,805.0977 L428,809.0977 L448,813.0977 L448,821.6641 A0,0 0 0 0 448,821.6641 L615,821.6641 A0,0 0 0 0 615,821.6641 L615,806.5313 L605,796.5313 L448,796.5313 A0,0 0 0 0 448,796.5313 " fill="#FEFFDD" style="stroke:#181818;stroke-width:0.5;"/><path d="M605,796.5313 L605,806.5313 L615,806.5313 L605,796.5313 " fill="#FEFFDD" style="stroke:#181818;stroke-width:0.5;"/><text fill="#000000" font-family="sans-serif" font-size="13" lengthAdjust="spacing" textLength="146" x="454" y="813.5981">StringgetRegexString()</text><ellipse cx="418" cy="809.0977" fill="#222222" rx="10" ry="10" style="stroke:#222222;stroke-width:1.0;"/><rect fill="#F1F1F1" height="33.9688" rx="12.5" ry="12.5" style="stroke:#181818;stroke-width:0.5;" width="278" x="279" y="841.6641"/><text fill="#000000" font-family="sans-serif" font-size="12" lengthAdjust="spacing" textLength="258" x="289" y="862.8027">final StringBuildersb=new StringBuilder();</text><rect fill="#F1F1F1" height="33.9688" rx="12.5" ry="12.5" style="stroke:#181818;stroke-width:0.5;" width="115" x="360.5" y="944.0352"/><text fill="#000000" font-family="sans-serif" font-size="12" lengthAdjust="spacing" textLength="95" x="370.5" y="965.1738">sb.append("|");</text><polygon fill="#F1F1F1" points="379.5,895.6328,456.5,895.6328,468.5,907.6328,456.5,919.6328,379.5,919.6328,367.5,907.6328,379.5,895.6328" style="stroke:#181818;stroke-width:0.5;"/><text fill="#000000" font-family="sans-serif" font-size="11" lengthAdjust="spacing" textLength="20" x="422" y="929.8433">yes</text><text fill="#000000" font-family="sans-serif" font-size="11" lengthAdjust="spacing" textLength="77" x="379.5" y="911.4409">sb.length()&gt;0</text><polygon fill="#F1F1F1" points="418,998.0039,430,1010.0039,418,1022.0039,406,1010.0039,418,998.0039" style="stroke:#181818;stroke-width:0.5;"/><rect fill="#F1F1F1" height="33.9688" rx="12.5" ry="12.5" style="stroke:#181818;stroke-width:0.5;" width="318" x="259" y="1042.0039"/><text fill="#000000" font-family="sans-serif" font-size="12" lengthAdjust="spacing" textLength="298" x="269" y="1063.1426">sb.append(day.name().substring(0,3)+"[a-z]*");</text><rect fill="#F1F1F1" height="33.9688" rx="12.5" ry="12.5" style="stroke:#181818;stroke-width:0.5;" width="146" x="345" y="1095.9727"/><text fill="#000000" font-family="sans-serif" font-size="12" lengthAdjust="spacing" textLength="126" x="355" y="1117.1113">return sb.toString();</text><ellipse cx="418" cy="1160.9414" fill="none" rx="11" ry="11" style="stroke:#222222;stroke-width:1.0;"/><ellipse cx="418" cy="1160.9414" fill="#222222" rx="6" ry="6" style="stroke:#111111;stroke-width:1.0;"/><ellipse cx="418" cy="1191.9414" fill="none" rx="10" ry="10" style="stroke:#222222;stroke-width:1.5;"/><line style="stroke:#222222;stroke-width:2.5;" x1="411.8128" x2="424.1872" y1="1185.7542" y2="1198.1286"/><line style="stroke:#222222;stroke-width:2.5;" x1="424.1872" x2="411.8128" y1="1185.7542" y2="1198.1286"/><path d="M448,1211.9414 L448,1220.5078 L428,1224.5078 L448,1228.5078 L448,1237.0742 A0,0 0 0 0 448,1237.0742 L692,1237.0742 A0,0 0 0 0 692,1237.0742 L692,1221.9414 L682,1211.9414 L448,1211.9414 A0,0 0 0 0 448,1211.9414 " fill="#FEFFDD" style="stroke:#181818;stroke-width:0.5;"/><path d="M682,1211.9414 L682,1221.9414 L692,1221.9414 L682,1211.9414 " fill="#FEFFDD" style="stroke:#181818;stroke-width:0.5;"/><text fill="#000000" font-family="sans-serif" font-size="13" lengthAdjust="spacing" textLength="223" x="454" y="1229.0083">DayOfWeekfromString(Stringvalue)</text><ellipse cx="418" cy="1224.5078" fill="#222222" rx="10" ry="10" style="stroke:#222222;stroke-width:1.0;"/><rect fill="#F1F1F1" height="33.9688" rx="12.5" ry="12.5" style="stroke:#181818;stroke-width:0.5;" width="356" x="240" y="1257.0742"/><text fill="#000000" font-family="sans-serif" font-size="12" lengthAdjust="spacing" textLength="336" x="250" y="1278.2129">value=StringUtils.goUpperCase(value).substring(0,3);</text><rect fill="#F1F1F1" height="33.9688" rx="12.5" ry="12.5" style="stroke:#181818;stroke-width:0.5;" width="89" x="373.5" y="1359.4453"/><text fill="#000000" font-family="sans-serif" font-size="12" lengthAdjust="spacing" textLength="69" x="383.5" y="1380.584">return day;</text><ellipse cx="418" cy="1432.9297" fill="none" rx="11" ry="11" style="stroke:#222222;stroke-width:1.0;"/><ellipse cx="418" cy="1432.9297" fill="#222222" rx="6" ry="6" style="stroke:#111111;stroke-width:1.0;"/><polygon fill="#F1F1F1" points="336.5,1311.043,499.5,1311.043,511.5,1323.043,499.5,1335.043,336.5,1335.043,324.5,1323.043,336.5,1311.043" style="stroke:#181818;stroke-width:0.5;"/><text fill="#000000" font-family="sans-serif" font-size="11" lengthAdjust="spacing" textLength="20" x="422" y="1345.2534">yes</text><text fill="#000000" font-family="sans-serif" font-size="11" lengthAdjust="spacing" textLength="163" x="336.5" y="1326.8511">day.name().startsWith(value)</text><rect fill="#F1F1F1" height="33.9688" rx="12.5" ry="12.5" style="stroke:#181818;stroke-width:0.5;" width="260" x="288" y="1485.9297"/><text fill="#000000" font-family="sans-serif" font-size="12" lengthAdjust="spacing" textLength="240" x="298" y="1507.0684">throw new IllegalArgumentException();</text><ellipse cx="418" cy="1550.8984" fill="none" rx="11" ry="11" style="stroke:#222222;stroke-width:1.0;"/><ellipse cx="418" cy="1550.8984" fill="#222222" rx="6" ry="6" style="stroke:#111111;stroke-width:1.0;"/><ellipse cx="418" cy="1581.8984" fill="none" rx="10" ry="10" style="stroke:#222222;stroke-width:1.5;"/><line style="stroke:#222222;stroke-width:2.5;" x1="411.8128" x2="424.1872" y1="1575.7113" y2="1588.0856"/><line style="stroke:#222222;stroke-width:2.5;" x1="424.1872" x2="411.8128" y1="1575.7113" y2="1588.0856"/><path d="M448,1601.8984 L448,1610.4648 L428,1614.4648 L448,1618.4648 L448,1627.0313 A0,0 0 0 0 448,1627.0313 L580,1627.0313 A0,0 0 0 0 580,1627.0313 L580,1611.8984 L570,1601.8984 L448,1601.8984 A0,0 0 0 0 448,1601.8984 " fill="#FEFFDD" style="stroke:#181818;stroke-width:0.5;"/><path d="M570,1601.8984 L570,1611.8984 L580,1611.8984 L570,1601.8984 " fill="#FEFFDD" style="stroke:#181818;stroke-width:0.5;"/><text fill="#000000" font-family="sans-serif" font-size="13" lengthAdjust="spacing" textLength="111" x="454" y="1618.9653">DayOfWeeknext()</text><ellipse cx="418" cy="1614.4648" fill="#222222" rx="10" ry="10" style="stroke:#222222;stroke-width:1.0;"/><rect fill="#F1F1F1" height="33.9688" rx="12.5" ry="12.5" style="stroke:#181818;stroke-width:0.5;" width="301" x="267.5" y="1647.0313"/><text fill="#000000" font-family="sans-serif" font-size="12" lengthAdjust="spacing" textLength="281" x="277.5" y="1668.1699">return DayOfWeek.values()[(ordinal()+1)%7];</text><ellipse cx="418" cy="1712" fill="none" rx="11" ry="11" style="stroke:#222222;stroke-width:1.0;"/><ellipse cx="418" cy="1712" fill="#222222" rx="6" ry="6" style="stroke:#111111;stroke-width:1.0;"/><ellipse cx="418" cy="1743" fill="none" rx="10" ry="10" style="stroke:#222222;stroke-width:1.5;"/><line style="stroke:#222222;stroke-width:2.5;" x1="411.8128" x2="424.1872" y1="1736.8128" y2="1749.1872"/><line style="stroke:#222222;stroke-width:2.5;" x1="424.1872" x2="411.8128" y1="1736.8128" y2="1749.1872"/><path d="M448,1763 L448,1771.5664 L428,1775.5664 L448,1779.5664 L448,1788.1328 A0,0 0 0 0 448,1788.1328 L616,1788.1328 A0,0 0 0 0 616,1788.1328 L616,1773 L606,1763 L448,1763 A0,0 0 0 0 448,1763 " fill="#FEFFDD" style="stroke:#181818;stroke-width:0.5;"/><path d="M606,1763 L606,1773 L616,1773 L606,1763 " fill="#FEFFDD" style="stroke:#181818;stroke-width:0.5;"/><text fill="#000000" font-family="sans-serif" font-size="13" lengthAdjust="spacing" textLength="147" x="454" y="1780.0669">DayOfWeekfromH(inth)</text><ellipse cx="418" cy="1775.5664" fill="#222222" rx="10" ry="10" style="stroke:#222222;stroke-width:1.0;"/><rect fill="#F1F1F1" height="33.9688" rx="12.5" ry="12.5" style="stroke:#181818;stroke-width:0.5;" width="256" x="290" y="1808.1328"/><text fill="#000000" font-family="sans-serif" font-size="12" lengthAdjust="spacing" textLength="236" x="300" y="1829.2715">return DayOfWeek.values()[(h+5)%7];</text><ellipse cx="418" cy="1873.1016" fill="none" rx="11" ry="11" style="stroke:#222222;stroke-width:1.0;"/><ellipse cx="418" cy="1873.1016" fill="#222222" rx="6" ry="6" style="stroke:#111111;stroke-width:1.0;"/><ellipse cx="418" cy="1904.1016" fill="none" rx="10" ry="10" style="stroke:#222222;stroke-width:1.5;"/><line style="stroke:#222222;stroke-width:2.5;" x1="411.8128" x2="424.1872" y1="1897.9144" y2="1910.2887"/><line style="stroke:#222222;stroke-width:2.5;" x1="424.1872" x2="411.8128" y1="1897.9144" y2="1910.2887"/><path d="M448,1924.1016 L448,1932.668 L428,1936.668 L448,1940.668 L448,1949.2344 A0,0 0 0 0 448,1949.2344 L667,1949.2344 A0,0 0 0 0 667,1949.2344 L667,1934.1016 L657,1924.1016 L448,1924.1016 A0,0 0 0 0 448,1924.1016 " fill="#FEFFDD" style="stroke:#181818;stroke-width:0.5;"/><path d="M657,1924.1016 L657,1934.1016 L667,1934.1016 L657,1924.1016 " fill="#FEFFDD" style="stroke:#181818;stroke-width:0.5;"/><text fill="#000000" font-family="sans-serif" font-size="13" lengthAdjust="spacing" textLength="198" x="454" y="1941.1685">StringshortName(Localelocale)</text><ellipse cx="418" cy="1936.668" fill="#222222" rx="10" ry="10" style="stroke:#222222;stroke-width:1.0;"/><rect fill="#F1F1F1" height="47.9375" rx="12.5" ry="12.5" style="stroke:#181818;stroke-width:0.5;" width="319" x="258.5" y="2017.6367"/><text fill="#000000" font-family="sans-serif" font-size="12" lengthAdjust="spacing" textLength="299" x="268.5" y="2038.7754">return StringUtils.capitalize(name().substring(0,</text><text fill="#000000" font-family="sans-serif" font-size="12" lengthAdjust="spacing" textLength="22" x="268.5" y="2052.7441">2));</text><ellipse cx="418" cy="2098.1055" fill="none" rx="11" ry="11" style="stroke:#222222;stroke-width:1.0;"/><ellipse cx="418" cy="2098.1055" fill="#222222" rx="6" ry="6" style="stroke:#111111;stroke-width:1.0;"/><polygon fill="#F1F1F1" points="348,1969.2344,488,1969.2344,500,1981.2344,488,1993.2344,348,1993.2344,336,1981.2344,348,1969.2344" style="stroke:#181818;stroke-width:0.5;"/><text fill="#000000" font-family="sans-serif" font-size="11" lengthAdjust="spacing" textLength="20" x="422" y="2003.4448">yes</text><text fill="#000000" font-family="sans-serif" font-size="11" lengthAdjust="spacing" textLength="140" x="348" y="1985.0425">locale==Locale.ENGLISH</text><rect fill="#F1F1F1" height="47.9375" rx="12.5" ry="12.5" style="stroke:#181818;stroke-width:0.5;" width="814" x="11" y="2151.1055"/><text fill="#000000" font-family="sans-serif" font-size="12" lengthAdjust="spacing" textLength="794" x="21" y="2172.2441">final Strings=StringUtils.capitalize(java.time.DayOfWeek.valueOf(this.toString()).getDisplayName(TextStyle.SHORT_STANDALONE,</text><text fill="#000000" font-family="sans-serif" font-size="12" lengthAdjust="spacing" textLength="51" x="21" y="2186.2129">locale));</text><rect fill="#F1F1F1" height="33.9688" rx="12.5" ry="12.5" style="stroke:#181818;stroke-width:0.5;" width="167" x="334.5" y="2267.4453"/><text fill="#000000" font-family="sans-serif" font-size="12" lengthAdjust="spacing" textLength="147" x="344.5" y="2288.584">return s.substring(0,2);</text><ellipse cx="418" cy="2340.9297" fill="none" rx="11" ry="11" style="stroke:#222222;stroke-width:1.0;"/><ellipse cx="418" cy="2340.9297" fill="#222222" rx="6" ry="6" style="stroke:#111111;stroke-width:1.0;"/><polygon fill="#F1F1F1" points="383,2219.043,453,2219.043,465,2231.043,453,2243.043,383,2243.043,371,2231.043,383,2219.043" style="stroke:#181818;stroke-width:0.5;"/><text fill="#000000" font-family="sans-serif" font-size="11" lengthAdjust="spacing" textLength="20" x="422" y="2253.2534">yes</text><text fill="#000000" font-family="sans-serif" font-size="11" lengthAdjust="spacing" textLength="70" x="383" y="2234.8511">s.length()&gt;2</text><rect fill="#F1F1F1" height="33.9688" rx="12.5" ry="12.5" style="stroke:#181818;stroke-width:0.5;" width="74" x="381" y="2393.9297"/><text fill="#000000" font-family="sans-serif" font-size="12" lengthAdjust="spacing" textLength="54" x="391" y="2415.0684">return s;</text><ellipse cx="418" cy="2458.8984" fill="none" rx="11" ry="11" style="stroke:#222222;stroke-width:1.0;"/><ellipse cx="418" cy="2458.8984" fill="#222222" rx="6" ry="6" style="stroke:#111111;stroke-width:1.0;"/><ellipse cx="418" cy="2489.8984" fill="none" rx="10" ry="10" style="stroke:#222222;stroke-width:1.5;"/><line style="stroke:#222222;stroke-width:2.5;" x1="411.8128" x2="424.1872" y1="2483.7113" y2="2496.0856"/><line style="stroke:#222222;stroke-width:2.5;" x1="424.1872" x2="411.8128" y1="2483.7113" y2="2496.0856"/><line style="stroke:#181818;stroke-width:1.0;" x1="418" x2="418" y1="44.9688" y2="64.9688"/><polygon fill="#181818" points="414,54.9688,418,64.9688,422,54.9688,418,58.9688" style="stroke:#181818;stroke-width:1.0;"/><line style="stroke:#181818;stroke-width:1.0;" x1="418" x2="418" y1="84.9688" y2="107.5352"/><polygon fill="#181818" points="414,97.5352,418,107.5352,422,97.5352,418,101.5352" style="stroke:#181818;stroke-width:1.0;"/><line style="stroke:#181818;stroke-width:1.0;" x1="418" x2="418" y1="141.5039" y2="161.5039"/><polygon fill="#181818" points="414,151.5039,418,161.5039,422,151.5039,418,155.5039" style="stroke:#181818;stroke-width:1.0;"/><line style="stroke:#181818;stroke-width:1.0;" x1="418" x2="418" y1="214.0703" y2="236.6367"/><polygon fill="#181818" points="414,226.6367,418,236.6367,422,226.6367,418,230.6367" style="stroke:#181818;stroke-width:1.0;"/><line style="stroke:#181818;stroke-width:1.0;" x1="418" x2="418" y1="270.6055" y2="290.6055"/><polygon fill="#181818" points="414,280.6055,418,290.6055,422,280.6055,418,284.6055" style="stroke:#181818;stroke-width:1.0;"/><line style="stroke:#181818;stroke-width:1.0;" x1="418" x2="418" y1="375.1719" y2="397.7383"/><polygon fill="#181818" points="414,387.7383,418,397.7383,422,387.7383,418,391.7383" style="stroke:#181818;stroke-width:1.0;"/><line style="stroke:#181818;stroke-width:1.0;" x1="418" x2="418" y1="431.707" y2="451.707"/><polygon fill="#181818" points="414,441.707,418,451.707,422,441.707,418,445.707" style="stroke:#181818;stroke-width:1.0;"/><line style="stroke:#181818;stroke-width:1.0;" x1="418" x2="418" y1="588.0469" y2="616.5625"/><polygon fill="#181818" points="414,606.5625,418,616.5625,422,606.5625,418,610.5625" style="stroke:#181818;stroke-width:1.0;"/><line style="stroke:#181818;stroke-width:1.0;" x1="418" x2="418" y1="529.6758" y2="554.0781"/><polygon fill="#181818" points="414,544.0781,418,554.0781,422,544.0781,418,548.0781" style="stroke:#181818;stroke-width:1.0;"/><line style="stroke:#181818;stroke-width:1.0;" x1="506" x2="518" y1="517.6758" y2="517.6758"/><polygon fill="#181818" points="514,586.5625,518,596.5625,522,586.5625,518,590.5625" style="stroke:#181818;stroke-width:1.0;"/><line style="stroke:#181818;stroke-width:1.0;" x1="518" x2="518" y1="517.6758" y2="660.5625"/><line style="stroke:#181818;stroke-width:1.0;" x1="518" x2="418" y1="660.5625" y2="660.5625"/><line style="stroke:#181818;stroke-width:1.0;" x1="418" x2="418" y1="660.5625" y2="680.5625"/><polygon fill="#181818" points="414,670.5625,418,680.5625,422,670.5625,418,674.5625" style="stroke:#181818;stroke-width:1.0;"/><line style="stroke:#181818;stroke-width:1.0;" x1="418" x2="418" y1="485.6758" y2="505.6758"/><polygon fill="#181818" points="414,495.6758,418,505.6758,422,495.6758,418,499.6758" style="stroke:#181818;stroke-width:1.0;"/><line style="stroke:#181818;stroke-width:1.0;" x1="418" x2="418" y1="714.5313" y2="734.5313"/><polygon fill="#181818" points="414,724.5313,418,734.5313,422,724.5313,418,728.5313" style="stroke:#181818;stroke-width:1.0;"/><line style="stroke:#181818;stroke-width:1.0;" x1="418" x2="418" y1="819.0977" y2="841.6641"/><polygon fill="#181818" points="414,831.6641,418,841.6641,422,831.6641,418,835.6641" style="stroke:#181818;stroke-width:1.0;"/><line style="stroke:#181818;stroke-width:1.0;" x1="418" x2="418" y1="919.6328" y2="944.0352"/><polygon fill="#181818" points="414,934.0352,418,944.0352,422,934.0352,418,938.0352" style="stroke:#181818;stroke-width:1.0;"/><line style="stroke:#181818;stroke-width:1.0;" x1="468.5" x2="485.5" y1="907.6328" y2="907.6328"/><polygon fill="#181818" points="481.5,951.0195,485.5,961.0195,489.5,951.0195,485.5,955.0195" style="stroke:#181818;stroke-width:1.0;"/><line style="stroke:#181818;stroke-width:1.0;" x1="485.5" x2="485.5" y1="907.6328" y2="1010.0039"/><line style="stroke:#181818;stroke-width:1.0;" x1="485.5" x2="430" y1="1010.0039" y2="1010.0039"/><polygon fill="#181818" points="440,1006.0039,430,1010.0039,440,1014.0039,436,1010.0039" style="stroke:#181818;stroke-width:1.0;"/><line style="stroke:#181818;stroke-width:1.0;" x1="418" x2="418" y1="978.0039" y2="998.0039"/><polygon fill="#181818" points="414,988.0039,418,998.0039,422,988.0039,418,992.0039" style="stroke:#181818;stroke-width:1.0;"/><line style="stroke:#181818;stroke-width:1.0;" x1="418" x2="418" y1="875.6328" y2="895.6328"/><polygon fill="#181818" points="414,885.6328,418,895.6328,422,885.6328,418,889.6328" style="stroke:#181818;stroke-width:1.0;"/><line style="stroke:#181818;stroke-width:1.0;" x1="418" x2="418" y1="1022.0039" y2="1042.0039"/><polygon fill="#181818" points="414,1032.0039,418,1042.0039,422,1032.0039,418,1036.0039" style="stroke:#181818;stroke-width:1.0;"/><line style="stroke:#181818;stroke-width:1.0;" x1="418" x2="418" y1="1075.9727" y2="1095.9727"/><polygon fill="#181818" points="414,1085.9727,418,1095.9727,422,1085.9727,418,1089.9727" style="stroke:#181818;stroke-width:1.0;"/><line style="stroke:#181818;stroke-width:1.0;" x1="418" x2="418" y1="1129.9414" y2="1149.9414"/><polygon fill="#181818" points="414,1139.9414,418,1149.9414,422,1139.9414,418,1143.9414" style="stroke:#181818;stroke-width:1.0;"/><line style="stroke:#181818;stroke-width:1.0;" x1="418" x2="418" y1="1234.5078" y2="1257.0742"/><polygon fill="#181818" points="414,1247.0742,418,1257.0742,422,1247.0742,418,1251.0742" style="stroke:#181818;stroke-width:1.0;"/><line style="stroke:#181818;stroke-width:1.0;" x1="418" x2="418" y1="1393.4141" y2="1421.9297"/><polygon fill="#181818" points="414,1411.9297,418,1421.9297,422,1411.9297,418,1415.9297" style="stroke:#181818;stroke-width:1.0;"/><line style="stroke:#181818;stroke-width:1.0;" x1="418" x2="418" y1="1335.043" y2="1359.4453"/><polygon fill="#181818" points="414,1349.4453,418,1359.4453,422,1349.4453,418,1353.4453" style="stroke:#181818;stroke-width:1.0;"/><line style="stroke:#181818;stroke-width:1.0;" x1="511.5" x2="523.5" y1="1323.043" y2="1323.043"/><polygon fill="#181818" points="519.5,1391.9297,523.5,1401.9297,527.5,1391.9297,523.5,1395.9297" style="stroke:#181818;stroke-width:1.0;"/><line style="stroke:#181818;stroke-width:1.0;" x1="523.5" x2="523.5" y1="1323.043" y2="1465.9297"/><line style="stroke:#181818;stroke-width:1.0;" x1="523.5" x2="418" y1="1465.9297" y2="1465.9297"/><line style="stroke:#181818;stroke-width:1.0;" x1="418" x2="418" y1="1465.9297" y2="1485.9297"/><polygon fill="#181818" points="414,1475.9297,418,1485.9297,422,1475.9297,418,1479.9297" style="stroke:#181818;stroke-width:1.0;"/><line style="stroke:#181818;stroke-width:1.0;" x1="418" x2="418" y1="1291.043" y2="1311.043"/><polygon fill="#181818" points="414,1301.043,418,1311.043,422,1301.043,418,1305.043" style="stroke:#181818;stroke-width:1.0;"/><line style="stroke:#181818;stroke-width:1.0;" x1="418" x2="418" y1="1519.8984" y2="1539.8984"/><polygon fill="#181818" points="414,1529.8984,418,1539.8984,422,1529.8984,418,1533.8984" style="stroke:#181818;stroke-width:1.0;"/><line style="stroke:#181818;stroke-width:1.0;" x1="418" x2="418" y1="1624.4648" y2="1647.0313"/><polygon fill="#181818" points="414,1637.0313,418,1647.0313,422,1637.0313,418,1641.0313" style="stroke:#181818;stroke-width:1.0;"/><line style="stroke:#181818;stroke-width:1.0;" x1="418" x2="418" y1="1681" y2="1701"/><polygon fill="#181818" points="414,1691,418,1701,422,1691,418,1695" style="stroke:#181818;stroke-width:1.0;"/><line style="stroke:#181818;stroke-width:1.0;" x1="418" x2="418" y1="1785.5664" y2="1808.1328"/><polygon fill="#181818" points="414,1798.1328,418,1808.1328,422,1798.1328,418,1802.1328" style="stroke:#181818;stroke-width:1.0;"/><line style="stroke:#181818;stroke-width:1.0;" x1="418" x2="418" y1="1842.1016" y2="1862.1016"/><polygon fill="#181818" points="414,1852.1016,418,1862.1016,422,1852.1016,418,1856.1016" style="stroke:#181818;stroke-width:1.0;"/><line style="stroke:#181818;stroke-width:1.0;" x1="418" x2="418" y1="2065.5742" y2="2087.1055"/><polygon fill="#181818" points="414,2077.1055,418,2087.1055,422,2077.1055,418,2081.1055" style="stroke:#181818;stroke-width:1.0;"/><line style="stroke:#181818;stroke-width:1.0;" x1="418" x2="418" y1="1993.2344" y2="2017.6367"/><polygon fill="#181818" points="414,2007.6367,418,2017.6367,422,2007.6367,418,2011.6367" style="stroke:#181818;stroke-width:1.0;"/><line style="stroke:#181818;stroke-width:1.0;" x1="500" x2="587.5" y1="1981.2344" y2="1981.2344"/><polygon fill="#181818" points="583.5,2057.1055,587.5,2067.1055,591.5,2057.1055,587.5,2061.1055" style="stroke:#181818;stroke-width:1.0;"/><line style="stroke:#181818;stroke-width:1.0;" x1="587.5" x2="587.5" y1="1981.2344" y2="2131.1055"/><line style="stroke:#181818;stroke-width:1.0;" x1="587.5" x2="418" y1="2131.1055" y2="2131.1055"/><line style="stroke:#181818;stroke-width:1.0;" x1="418" x2="418" y1="2131.1055" y2="2151.1055"/><polygon fill="#181818" points="414,2141.1055,418,2151.1055,422,2141.1055,418,2145.1055" style="stroke:#181818;stroke-width:1.0;"/><line style="stroke:#181818;stroke-width:1.0;" x1="418" x2="418" y1="1946.668" y2="1969.2344"/><polygon fill="#181818" points="414,1959.2344,418,1969.2344,422,1959.2344,418,1963.2344" style="stroke:#181818;stroke-width:1.0;"/><line style="stroke:#181818;stroke-width:1.0;" x1="418" x2="418" y1="2301.4141" y2="2329.9297"/><polygon fill="#181818" points="414,2319.9297,418,2329.9297,422,2319.9297,418,2323.9297" style="stroke:#181818;stroke-width:1.0;"/><line style="stroke:#181818;stroke-width:1.0;" x1="418" x2="418" y1="2243.043" y2="2267.4453"/><polygon fill="#181818" points="414,2257.4453,418,2267.4453,422,2257.4453,418,2261.4453" style="stroke:#181818;stroke-width:1.0;"/><line style="stroke:#181818;stroke-width:1.0;" x1="465" x2="511.5" y1="2231.043" y2="2231.043"/><polygon fill="#181818" points="507.5,2299.9297,511.5,2309.9297,515.5,2299.9297,511.5,2303.9297" style="stroke:#181818;stroke-width:1.0;"/><line style="stroke:#181818;stroke-width:1.0;" x1="511.5" x2="511.5" y1="2231.043" y2="2373.9297"/><line style="stroke:#181818;stroke-width:1.0;" x1="511.5" x2="418" y1="2373.9297" y2="2373.9297"/><line style="stroke:#181818;stroke-width:1.0;" x1="418" x2="418" y1="2373.9297" y2="2393.9297"/><polygon fill="#181818" points="414,2383.9297,418,2393.9297,422,2383.9297,418,2387.9297" style="stroke:#181818;stroke-width:1.0;"/><line style="stroke:#181818;stroke-width:1.0;" x1="418" x2="418" y1="2199.043" y2="2219.043"/><polygon fill="#181818" points="414,2209.043,418,2219.043,422,2209.043,418,2213.043" style="stroke:#181818;stroke-width:1.0;"/><line style="stroke:#181818;stroke-width:1.0;" x1="418" x2="418" y1="2427.8984" y2="2447.8984"/><polygon fill="#181818" points="414,2437.8984,418,2447.8984,422,2437.8984,418,2441.8984" style="stroke:#181818;stroke-width:1.0;"/><!--MD5=[3030fa47b4a4623e38c04376fca13069]
@startuml
!pragma layout smetana
:dateFormatGmt.setTimeZone(TimeZone.getTimeZone("GMT"));;
start
note right
constructor DayOfWeek(intlegacy)
end note
:this.legacy=legacy;;
end
start
note right
intgetLegacyJavaValue()
end note
:return legacy;;
stop
end
start
note right
DayOfWeekfromTime(longtime)
end note
:gmt.setTimeInMillis(time);;
:final intresult=gmt.get(Calendar.DAY_OF_WEEK);;
if (result==Calendar.SUNDAY) then (yes) 
:return SUNDAY;;
stop
endif 
:return DayOfWeek.values()[result-2];;
stop
end
start
note right
StringgetRegexString()
end note
:final StringBuildersb=new StringBuilder();;
if (sb.length()>0) then (yes) 
:sb.append("|");;
endif 
:sb.append(day.name().substring(0,3)+"[a-z]*");;
:return sb.toString();;
stop
end
start
note right
DayOfWeekfromString(Stringvalue)
end note
:value=StringUtils.goUpperCase(value).substring(0,3);;
if (day.name().startsWith(value)) then (yes) 
:return day;;
stop
endif 
:throw new IllegalArgumentException();;
stop
end
start
note right
DayOfWeeknext()
end note
:return DayOfWeek.values()[(ordinal()+1)%7];;
stop
end
start
note right
DayOfWeekfromH(inth)
end note
:return DayOfWeek.values()[(h+5)%7];;
stop
end
start
note right
StringshortName(Localelocale)
end note
if (locale==Locale.ENGLISH) then (yes) 
:return StringUtils.capitalize(name().substring(0,
2));;
stop
endif 
:final Strings=StringUtils.capitalize(java.time.DayOfWeek.valueOf(this.toString()).getDisplayName(TextStyle.SHORT_STANDALONE,
locale));;
if (s.length()>2) then (yes) 
:return s.substring(0,2);;
stop
endif 
:return s;;
stop
end
@enduml

PlantUML version 1.2022.7(Mon Aug 22 17:01:30 UTC 2022)
(GPL source distribution)
Java Runtime: OpenJDK Runtime Environment
JVM: OpenJDK 64-Bit Server VM
Default Encoding: UTF-8
Language: en
Country: null
--></g></svg>