<?xml version="1.0" encoding="UTF-8" standalone="no"?><svg xmlns="http://www.w3.org/2000/svg" xmlns:xlink="http://www.w3.org/1999/xlink" contentStyleType="text/css" height="220px" preserveAspectRatio="none" style="width:292px;height:220px;background:#FFFFFF;" version="1.1" viewBox="0 0 292 220" width="292px" zoomAndPan="magnify"><defs/><g><!--MD5=[aa8f7b917213fcc1c2766e2d59b49067]
cluster java.lang--><g id="cluster_java.lang"><path d="M100.5,6 L170.5,6 A3.75,3.75 0 0 1 173,8.5 L180,28.2969 L189.5,28.2969 A2.5,2.5 0 0 1 192,30.7969 L192,86.5 A2.5,2.5 0 0 1 189.5,89 L100.5,89 A2.5,2.5 0 0 1 98,86.5 L98,8.5 A2.5,2.5 0 0 1 100.5,6 " fill="none" style="stroke:#000000;stroke-width:1.5;"/><line style="stroke:#000000;stroke-width:1.5;" x1="98" x2="180" y1="28.2969" y2="28.2969"/><text fill="#000000" font-family="sans-serif" font-size="14" font-weight="bold" lengthAdjust="spacing" textLength="69" x="102" y="20.9951">java.lang</text></g><!--MD5=[423fdea21909107b8eb6009921e27202]
cluster net.sourceforge.plantuml.oregon--><g id="cluster_net.sourceforge.plantuml.oregon"><path d="M8.5,97 L272.5,97 A3.75,3.75 0 0 1 275,99.5 L282,119.2969 L282.5,119.2969 A2.5,2.5 0 0 1 285,121.7969 L285,210.5 A2.5,2.5 0 0 1 282.5,213 L8.5,213 A2.5,2.5 0 0 1 6,210.5 L6,99.5 A2.5,2.5 0 0 1 8.5,97 " fill="none" style="stroke:#000000;stroke-width:1.5;"/><line style="stroke:#000000;stroke-width:1.5;" x1="6" x2="282" y1="119.2969" y2="119.2969"/><text fill="#000000" font-family="sans-serif" font-size="14" font-weight="bold" lengthAdjust="spacing" textLength="263" x="10" y="111.9951">net.sourceforge.plantuml.oregon</text></g><!--MD5=[274ad5661286b626a93603d287cbf95a]
class java.lang.Object--><g id="elem_java.lang.Object"><rect fill="#F1F1F1" height="48" id="java.lang.Object" rx="2.5" ry="2.5" style="stroke:#181818;stroke-width:0.5;" width="77" x="106.5" y="33"/><ellipse cx="121.5" cy="49" fill="#ADD1B2" rx="11" ry="11" style="stroke:#181818;stroke-width:1.0;"/><path d="M124.4688,54.6406 Q123.8906,54.9375 123.25,55.0781 Q122.6094,55.2344 121.9063,55.2344 Q119.4063,55.2344 118.0781,53.5938 Q116.7656,51.9375 116.7656,48.8125 Q116.7656,45.6875 118.0781,44.0313 Q119.4063,42.375 121.9063,42.375 Q122.6094,42.375 123.25,42.5313 Q123.9063,42.6875 124.4688,42.9844 L124.4688,45.7031 Q123.8438,45.125 123.25,44.8594 Q122.6563,44.5781 122.0313,44.5781 Q120.6875,44.5781 120,45.6563 Q119.3125,46.7188 119.3125,48.8125 Q119.3125,50.9063 120,51.9844 Q120.6875,53.0469 122.0313,53.0469 Q122.6563,53.0469 123.25,52.7813 Q123.8438,52.5 124.4688,51.9219 L124.4688,54.6406 Z " fill="#000000"/><text fill="#000000" font-family="sans-serif" font-size="14" lengthAdjust="spacing" textLength="45" x="135.5" y="53.8467">Object</text><line style="stroke:#181818;stroke-width:0.5;" x1="107.5" x2="182.5" y1="65" y2="65"/><line style="stroke:#181818;stroke-width:0.5;" x1="107.5" x2="182.5" y1="73" y2="73"/></g><!--MD5=[7113c04c9c1947a3c64d66ea849fafe5]
class net.sourceforge.plantuml.oregon.Keyboard--><g id="elem_net.sourceforge.plantuml.oregon.Keyboard"><rect codeLine="3" fill="#F1F1F1" height="80.5938" id="net.sourceforge.plantuml.oregon.Keyboard" rx="2.5" ry="2.5" style="stroke:#181818;stroke-width:0.5;" width="151" x="69.5" y="124"/><ellipse cx="108.8" cy="140" fill="#ADD1B2" rx="11" ry="11" style="stroke:#181818;stroke-width:1.0;"/><path d="M111.7688,145.6406 Q111.1906,145.9375 110.55,146.0781 Q109.9094,146.2344 109.2063,146.2344 Q106.7063,146.2344 105.3781,144.5938 Q104.0656,142.9375 104.0656,139.8125 Q104.0656,136.6875 105.3781,135.0313 Q106.7063,133.375 109.2063,133.375 Q109.9094,133.375 110.55,133.5313 Q111.2063,133.6875 111.7688,133.9844 L111.7688,136.7031 Q111.1438,136.125 110.55,135.8594 Q109.9563,135.5781 109.3313,135.5781 Q107.9875,135.5781 107.3,136.6563 Q106.6125,137.7188 106.6125,139.8125 Q106.6125,141.9063 107.3,142.9844 Q107.9875,144.0469 109.3313,144.0469 Q109.9563,144.0469 110.55,143.7813 Q111.1438,143.5 111.7688,142.9219 L111.7688,145.6406 Z " fill="#000000"/><text fill="#000000" font-family="sans-serif" font-size="14" lengthAdjust="spacing" textLength="65" x="128.2" y="144.8467">Keyboard</text><line style="stroke:#181818;stroke-width:0.5;" x1="70.5" x2="219.5" y1="156" y2="156"/><line style="stroke:#181818;stroke-width:0.5;" x1="70.5" x2="219.5" y1="164" y2="164"/><a href="./../../../../../.././qc/src/net/sourceforge/plantuml/oregon/Keyboard.java.html#39" target="_top" title="./../../../../../.././qc/src/net/sourceforge/plantuml/oregon/Keyboard.java.html#39" xlink:actuate="onRequest" xlink:href="./../../../../../.././qc/src/net/sourceforge/plantuml/oregon/Keyboard.java.html#39" xlink:show="new" xlink:title="./../../../../../.././qc/src/net/sourceforge/plantuml/oregon/Keyboard.java.html#39" xlink:type="simple"><text fill="#000000" font-family="sans-serif" font-size="14" lengthAdjust="spacing" textLength="98" x="75.5" y="180.9951">input() : String</text></a><a href="./../../../../../.././qc/src/net/sourceforge/plantuml/oregon/Keyboard.java.html#40" target="_top" title="./../../../../../.././qc/src/net/sourceforge/plantuml/oregon/Keyboard.java.html#40" xlink:actuate="onRequest" xlink:href="./../../../../../.././qc/src/net/sourceforge/plantuml/oregon/Keyboard.java.html#40" xlink:show="new" xlink:title="./../../../../../.././qc/src/net/sourceforge/plantuml/oregon/Keyboard.java.html#40" xlink:type="simple"><text fill="#000000" font-family="sans-serif" font-size="14" lengthAdjust="spacing" textLength="139" x="75.5" y="197.292">hasMore() : boolean</text></a></g><path d="M145,81.1524 C145,93.6475 145,109.4184 145,123.8064 " fill="none" style="stroke:#181818;stroke-width:1.0;"/><polygon fill="#FFFFFF" points="145,81.1524,139,97.1524,151,97.1524,145,81.1524" style="stroke:#181818;stroke-width:1.0;"/><!--MD5=[16ce3a7829eb48e1d7eda67e0f627fc3]
@startuml
!pragma layout smetana
"java.lang.Object" <|- - "net.sourceforge.plantuml.oregon.Keyboard"
class net.sourceforge.plantuml.oregon.Keyboard {
input() : String [[[./../../../../../.././qc/src/net/sourceforge/plantuml/oregon/Keyboard.java.html#39]]]
hasMore() : boolean [[[./../../../../../.././qc/src/net/sourceforge/plantuml/oregon/Keyboard.java.html#40]]]
} 
@enduml

PlantUML version 1.2022.7(Mon Aug 22 17:01:30 UTC 2022)
(GPL source distribution)
Java Runtime: OpenJDK Runtime Environment
JVM: OpenJDK 64-Bit Server VM
Default Encoding: UTF-8
Language: en
Country: null
--></g></svg>